<?xml version="1.0" encoding="UTF-8" standalone="no"?>
<!DOCTYPE svg PUBLIC "-//W3C//DTD SVG 1.1//EN"
 "http://www.w3.org/Graphics/SVG/1.1/DTD/svg11.dtd">
<!-- Generated by graphviz version 2.44.1 (20200629.0846)
 -->
<!-- Title: ex_lineno Pages: 1 -->
<!--zoomable 484 -->
<svg id="main" version="1.1" xmlns="http://www.w3.org/2000/svg" xmlns:xlink="http://www.w3.org/1999/xlink" xml:space="preserve" onload="init(evt)">
<style type="text/css"><![CDATA[
.edge:hover path { stroke: red; }
.edge:hover polygon { stroke: red; fill: red; }
]]></style>
<script type="text/javascript"><![CDATA[
var edges = document.getElementsByTagName('g');
if (edges && edges.length) {
  for (var i=0;i<edges.length;i++) {
    if (edges[i].id.substr(0,4)=='edge') {
      edges[i].setAttribute('class','edge');
    }
  }
}
]]></script>
        <defs>
                <circle id="rim" cx="0" cy="0" r="7"/>
                <circle id="rim2" cx="0" cy="0" r="3.5"/>
                <g id="zoomPlus">
                        <use xlink:href="#rim" fill="#404040">
                                <set attributeName="fill" to="#808080" begin="zoomplus.mouseover" end="zoomplus.mouseout"/>
                        </use>
                        <path d="M-4,0h8M0,-4v8" fill="none" stroke="white" stroke-width="1.5" pointer-events="none"/>
                </g>
                <g id="zoomMin">
                        <use xlink:href="#rim" fill="#404040">
                                <set attributeName="fill" to="#808080" begin="zoomminus.mouseover" end="zoomminus.mouseout"/>
                        </use>
                        <path d="M-4,0h8" fill="none" stroke="white" stroke-width="1.5" pointer-events="none"/>
                </g>
                <g id="dirArrow">
                        <path fill="none" stroke="white" stroke-width="1.5" d="M0,-3.0v7 M-2.5,-0.5L0,-3.0L2.5,-0.5"/>
                </g>
               <g id="resetDef">
                       <use xlink:href="#rim2" fill="#404040">
                               <set attributeName="fill" to="#808080" begin="reset.mouseover" end="reset.mouseout"/>
                       </use>
               </g>
        </defs>

<script type="text/javascript">
var viewWidth = 933;
var viewHeight = 484;
var sectionId = 'dynsection-28';
</script>
<script xlink:href="svgpan.js"/>
<svg id="graph" class="graph">
<g id="viewport">
<title>ex_lineno</title>
<polygon fill="white" stroke="transparent" points="-4,4 -4,-480 929,-480 929,4 -4,4"/>
<!-- Node1 -->
<g id="node1" class="node">
<title>Node1</title>
<g id="a_node1"><a xlink:title=" ">
<polygon fill="#bfbfbf" stroke="black" points="867,-228.5 867,-247.5 925,-247.5 925,-228.5 867,-228.5"/>
<text text-anchor="middle" x="896" y="-235.5" font-family="Helvetica,sans-Serif" font-size="10.00">ex_lineno</text>
</a>
</g>
</g>
<!-- Node2 -->
<g id="node2" class="node">
<title>Node2</title>
<g id="a_node2"><a xlink:href="ex_8c.html#a0389d594366ccbd24d732bdfd870f763" target="_top" xlink:title=" ">
<polygon fill="white" stroke="black" points="772,-228.5 772,-247.5 831,-247.5 831,-228.5 772,-228.5"/>
<text text-anchor="middle" x="801.5" y="-235.5" font-family="Helvetica,sans-Serif" font-size="10.00">ex_region</text>
</a>
</g>
</g>
<!-- Node1&#45;&gt;Node2 -->
<g id="edge1" class="edge">
<title>Node1&#45;&gt;Node2</title>
<path fill="none" stroke="midnightblue" d="M856.77,-238C848.17,-238 839.18,-238 831.05,-238"/>
<polygon fill="midnightblue" stroke="midnightblue" points="857,-241.5 867,-238 857,-234.5 857,-241.5"/>
</g>
<!-- Node3 -->
<g id="node3" class="node">
<title>Node3</title>
<g id="a_node3"><a xlink:href="ex_8c.html#a4cd0748447515b7a935e4bb41424a9e4" target="_top" xlink:title=" ">
<polygon fill="white" stroke="black" points="669,-456.5 669,-475.5 728,-475.5 728,-456.5 669,-456.5"/>
<text text-anchor="middle" x="698.5" y="-463.5" font-family="Helvetica,sans-Serif" font-size="10.00">ec_delete</text>
</a>
</g>
</g>
<!-- Node2&#45;&gt;Node3 -->
<g id="edge2" class="edge">
<title>Node2&#45;&gt;Node3</title>
<path fill="none" stroke="midnightblue" d="M798.69,-257.52C794.22,-296.31 779.65,-384.3 736,-442 731.61,-447.81 725.38,-452.63 719.3,-456.4"/>
<polygon fill="midnightblue" stroke="midnightblue" points="802.17,-257.86 799.73,-247.55 795.21,-257.13 802.17,-257.86"/>
</g>
<!-- Node4 -->
<g id="node4" class="node">
<title>Node4</title>
<g id="a_node4"><a xlink:href="ex_8c.html#adcd83f163f659bd2596bcfc25d74bde9" target="_top" xlink:title=" ">
<polygon fill="white" stroke="black" points="440.5,-380.5 440.5,-399.5 493.5,-399.5 493.5,-380.5 440.5,-380.5"/>
<text text-anchor="middle" x="467" y="-387.5" font-family="Helvetica,sans-Serif" font-size="10.00">ec_exec</text>
</a>
</g>
</g>
<!-- Node2&#45;&gt;Node4 -->
<g id="edge3" class="edge">
<title>Node2&#45;&gt;Node4</title>
<path fill="none" stroke="midnightblue" d="M797.21,-258.02C791.08,-288.23 774.82,-344.73 736,-371 660.67,-421.98 544.61,-406.32 493.57,-395.96"/>
<polygon fill="midnightblue" stroke="midnightblue" points="800.71,-258.32 799.09,-247.85 793.83,-257.05 800.71,-258.32"/>
</g>
<!-- Node7 -->
<g id="node7" class="node">
<title>Node7</title>
<g id="a_node7"><a xlink:href="ex_8c.html#a70c571bdde329a65e216c19b4aeaa628" target="_top" xlink:title=" ">
<polygon fill="white" stroke="black" points="167.5,-380.5 167.5,-399.5 217.5,-399.5 217.5,-380.5 167.5,-380.5"/>
<text text-anchor="middle" x="192.5" y="-387.5" font-family="Helvetica,sans-Serif" font-size="10.00">ec_glob</text>
</a>
</g>
</g>
<!-- Node2&#45;&gt;Node7 -->
<g id="edge15" class="edge">
<title>Node2&#45;&gt;Node7</title>
<path fill="none" stroke="midnightblue" d="M798.58,-258.08C794.15,-292.62 779.95,-363 736,-399 681.1,-443.96 649.96,-428 579,-428 579,-428 579,-428 378,-428 319.46,-428 252.58,-409.42 217.65,-398.25"/>
<polygon fill="midnightblue" stroke="midnightblue" points="802.09,-258.18 799.74,-247.85 795.14,-257.39 802.09,-258.18"/>
</g>
<!-- Node13 -->
<g id="node13" class="node">
<title>Node13</title>
<g id="a_node13"><a xlink:href="ex_8c.html#a0908784dc65be2da119a6b72ef96dec2" target="_top" xlink:title=" ">
<polygon fill="white" stroke="black" points="670.5,-304.5 670.5,-323.5 726.5,-323.5 726.5,-304.5 670.5,-304.5"/>
<text text-anchor="middle" x="698.5" y="-311.5" font-family="Helvetica,sans-Serif" font-size="10.00">ec_insert</text>
</a>
</g>
</g>
<!-- Node2&#45;&gt;Node13 -->
<g id="edge16" class="edge">
<title>Node2&#45;&gt;Node13</title>
<path fill="none" stroke="midnightblue" d="M783.69,-254.93C771.19,-266.97 753.38,-283.06 736,-295 731.05,-298.4 725.42,-301.61 720.09,-304.4"/>
<polygon fill="midnightblue" stroke="midnightblue" points="786.38,-257.19 791.07,-247.68 781.48,-252.19 786.38,-257.19"/>
</g>
<!-- Node14 -->
<g id="node14" class="node">
<title>Node14</title>
<g id="a_node14"><a xlink:href="ex_8c.html#a1d45a70b724f4cccae2ab746c711ebb1" target="_top" xlink:title=" ">
<polygon fill="white" stroke="black" points="672,-266.5 672,-285.5 725,-285.5 725,-266.5 672,-266.5"/>
<text text-anchor="middle" x="698.5" y="-273.5" font-family="Helvetica,sans-Serif" font-size="10.00">ec_lnum</text>
</a>
</g>
</g>
<!-- Node2&#45;&gt;Node14 -->
<g id="edge17" class="edge">
<title>Node2&#45;&gt;Node14</title>
<path fill="none" stroke="midnightblue" d="M765.63,-251.12C752.28,-256.14 737.3,-261.78 724.98,-266.41"/>
<polygon fill="midnightblue" stroke="midnightblue" points="766.89,-254.39 775.01,-247.59 764.42,-247.83 766.89,-254.39"/>
</g>
<!-- Node15 -->
<g id="node15" class="node">
<title>Node15</title>
<g id="a_node15"><a xlink:href="ex_8c.html#ab95c9f0f009989c44f3ebb5abae4054d" target="_top" xlink:title=" ">
<polygon fill="white" stroke="black" points="671.5,-228.5 671.5,-247.5 725.5,-247.5 725.5,-228.5 671.5,-228.5"/>
<text text-anchor="middle" x="698.5" y="-235.5" font-family="Helvetica,sans-Serif" font-size="10.00">ec_mark</text>
</a>
</g>
</g>
<!-- Node2&#45;&gt;Node15 -->
<g id="edge18" class="edge">
<title>Node2&#45;&gt;Node15</title>
<path fill="none" stroke="midnightblue" d="M761.61,-238C749.64,-238 736.74,-238 725.82,-238"/>
<polygon fill="midnightblue" stroke="midnightblue" points="761.83,-241.5 771.83,-238 761.83,-234.5 761.83,-241.5"/>
</g>
<!-- Node16 -->
<g id="node16" class="node">
<title>Node16</title>
<g id="a_node16"><a xlink:href="ex_8c.html#affb8197a8f988443aadf1bf2800a0d0b" target="_top" xlink:title=" ">
<polygon fill="white" stroke="black" points="554.5,-171.5 554.5,-190.5 601.5,-190.5 601.5,-171.5 554.5,-171.5"/>
<text text-anchor="middle" x="578" y="-178.5" font-family="Helvetica,sans-Serif" font-size="10.00">ec_null</text>
</a>
</g>
</g>
<!-- Node2&#45;&gt;Node16 -->
<g id="edge19" class="edge">
<title>Node2&#45;&gt;Node16</title>
<path fill="none" stroke="midnightblue" d="M761.96,-226.31C753.43,-223.82 744.43,-221.26 736,-219 688.46,-206.25 632.32,-193.12 601.71,-186.13"/>
<polygon fill="midnightblue" stroke="midnightblue" points="761.11,-229.71 771.69,-229.18 763.09,-223 761.11,-229.71"/>
</g>
<!-- Node17 -->
<g id="node17" class="node">
<title>Node17</title>
<g id="a_node17"><a xlink:href="ex_8c.html#ad2c1a9505aa3097bac242b47a367f11d" target="_top" xlink:title=" ">
<polygon fill="white" stroke="black" points="673,-152.5 673,-171.5 724,-171.5 724,-152.5 673,-152.5"/>
<text text-anchor="middle" x="698.5" y="-159.5" font-family="Helvetica,sans-Serif" font-size="10.00">ec_print</text>
</a>
</g>
</g>
<!-- Node2&#45;&gt;Node17 -->
<g id="edge20" class="edge">
<title>Node2&#45;&gt;Node17</title>
<path fill="none" stroke="midnightblue" d="M781.37,-221.77C768.74,-211.25 751.67,-197.43 736,-186 729.26,-181.08 721.57,-175.96 715,-171.72"/>
<polygon fill="midnightblue" stroke="midnightblue" points="779.43,-224.71 789.34,-228.45 783.93,-219.35 779.43,-224.71"/>
</g>
<!-- Node18 -->
<g id="node18" class="node">
<title>Node18</title>
<g id="a_node18"><a xlink:href="ex_8c.html#ab417867ff867aff9f7277229990cd1b8" target="_top" xlink:title=" ">
<polygon fill="white" stroke="black" points="675.5,-114.5 675.5,-133.5 721.5,-133.5 721.5,-114.5 675.5,-114.5"/>
<text text-anchor="middle" x="698.5" y="-121.5" font-family="Helvetica,sans-Serif" font-size="10.00">ec_put</text>
</a>
</g>
</g>
<!-- Node2&#45;&gt;Node18 -->
<g id="edge22" class="edge">
<title>Node2&#45;&gt;Node18</title>
<path fill="none" stroke="midnightblue" d="M791.33,-219.13C780.47,-198.36 760.7,-164.98 736,-143 731.84,-139.3 726.82,-136.09 721.86,-133.41"/>
<polygon fill="midnightblue" stroke="midnightblue" points="788.29,-220.88 795.93,-228.22 794.53,-217.72 788.29,-220.88"/>
</g>
<!-- Node19 -->
<g id="node19" class="node">
<title>Node19</title>
<g id="a_node19"><a xlink:href="ex_8c.html#add0e79e1f1e3d45f4eaa6fbe5c1ca443" target="_top" xlink:title=" ">
<polygon fill="white" stroke="black" points="673,-76.5 673,-95.5 724,-95.5 724,-76.5 673,-76.5"/>
<text text-anchor="middle" x="698.5" y="-83.5" font-family="Helvetica,sans-Serif" font-size="10.00">ec_read</text>
</a>
</g>
</g>
<!-- Node2&#45;&gt;Node19 -->
<g id="edge23" class="edge">
<title>Node2&#45;&gt;Node19</title>
<path fill="none" stroke="midnightblue" d="M795.35,-218.6C787.02,-190.47 768.21,-138.14 736,-105 732.41,-101.31 727.96,-98.2 723.41,-95.62"/>
<polygon fill="midnightblue" stroke="midnightblue" points="792.03,-219.74 798.11,-228.41 798.77,-217.84 792.03,-219.74"/>
</g>
<!-- Node20 -->
<g id="node20" class="node">
<title>Node20</title>
<g id="a_node20"><a xlink:href="ex_8c.html#aaf4e813ce4370aa859181d22de51576b" target="_top" xlink:title=" ">
<polygon fill="white" stroke="black" points="661,-38.5 661,-57.5 736,-57.5 736,-38.5 661,-38.5"/>
<text text-anchor="middle" x="698.5" y="-45.5" font-family="Helvetica,sans-Serif" font-size="10.00">ec_substitute</text>
</a>
</g>
</g>
<!-- Node2&#45;&gt;Node20 -->
<g id="edge24" class="edge">
<title>Node2&#45;&gt;Node20</title>
<path fill="none" stroke="midnightblue" d="M797.71,-218.03C791.93,-183.43 775.73,-111.78 736,-67 732.68,-63.26 728.45,-60.14 724.05,-57.59"/>
<polygon fill="midnightblue" stroke="midnightblue" points="794.3,-218.9 799.28,-228.25 801.22,-217.83 794.3,-218.9"/>
</g>
<!-- Node21 -->
<g id="node21" class="node">
<title>Node21</title>
<g id="a_node21"><a xlink:href="ex_8c.html#a057b67e2d4f23df3ad50a9d3ec86125b" target="_top" xlink:title=" ">
<polygon fill="white" stroke="black" points="672,-342.5 672,-361.5 725,-361.5 725,-342.5 672,-342.5"/>
<text text-anchor="middle" x="698.5" y="-349.5" font-family="Helvetica,sans-Serif" font-size="10.00">ec_write</text>
</a>
</g>
</g>
<!-- Node2&#45;&gt;Node21 -->
<g id="edge25" class="edge">
<title>Node2&#45;&gt;Node21</title>
<path fill="none" stroke="midnightblue" d="M791.33,-256.87C780.47,-277.64 760.7,-311.02 736,-333 731.94,-336.61 727.08,-339.75 722.24,-342.38"/>
<polygon fill="midnightblue" stroke="midnightblue" points="794.53,-258.28 795.93,-247.78 788.29,-255.12 794.53,-258.28"/>
</g>
<!-- Node26 -->
<g id="node26" class="node">
<title>Node26</title>
<g id="a_node26"><a xlink:href="ex_8c.html#a487b22f0ae712d3338f5e9d8d6fa8540" target="_top" xlink:title=" ">
<polygon fill="white" stroke="black" points="672,-0.5 672,-19.5 725,-19.5 725,-0.5 672,-0.5"/>
<text text-anchor="middle" x="698.5" y="-7.5" font-family="Helvetica,sans-Serif" font-size="10.00">ec_yank</text>
</a>
</g>
</g>
<!-- Node2&#45;&gt;Node26 -->
<g id="edge33" class="edge">
<title>Node2&#45;&gt;Node26</title>
<path fill="none" stroke="midnightblue" d="M799.39,-218.42C796.17,-178.4 783.69,-86.19 736,-29 732.89,-25.27 728.86,-22.18 724.61,-19.65"/>
<polygon fill="midnightblue" stroke="midnightblue" points="795.9,-218.73 800.09,-228.46 802.89,-218.24 795.9,-218.73"/>
</g>
<!-- Node5 -->
<g id="node5" class="node">
<title>Node5</title>
<g id="a_node5"><a xlink:href="ex_8c.html#a7d848d20211b2e1c868dde98ec5dfae9" target="_top" xlink:title=" ">
<polygon fill="white" stroke="black" points="355.5,-380.5 355.5,-399.5 402.5,-399.5 402.5,-380.5 355.5,-380.5"/>
<text text-anchor="middle" x="379" y="-387.5" font-family="Helvetica,sans-Serif" font-size="10.00">ex_line</text>
</a>
</g>
</g>
<!-- Node4&#45;&gt;Node5 -->
<g id="edge4" class="edge">
<title>Node4&#45;&gt;Node5</title>
<path fill="none" stroke="midnightblue" d="M429.99,-390C420.7,-390 410.96,-390 402.58,-390"/>
<polygon fill="midnightblue" stroke="midnightblue" points="430.2,-393.5 440.2,-390 430.2,-386.5 430.2,-393.5"/>
</g>
<!-- Node6 -->
<g id="node6" class="node">
<title>Node6</title>
<g id="a_node6"><a xlink:href="ex_8c.html#ab15ebfef933256d9741128e2ddf3f9b5" target="_top" xlink:title=" ">
<polygon fill="white" stroke="black" points="266,-342.5 266,-361.5 319,-361.5 319,-342.5 266,-342.5"/>
<text text-anchor="middle" x="292.5" y="-349.5" font-family="Helvetica,sans-Serif" font-size="10.00">ex_exec</text>
</a>
</g>
</g>
<!-- Node5&#45;&gt;Node6 -->
<g id="edge5" class="edge">
<title>Node5&#45;&gt;Node6</title>
<path fill="none" stroke="midnightblue" d="M347.52,-376.29C336.68,-371.42 324.72,-366.04 314.82,-361.59"/>
<polygon fill="midnightblue" stroke="midnightblue" points="346.12,-379.5 356.68,-380.41 348.99,-373.12 346.12,-379.5"/>
</g>
<!-- Node6&#45;&gt;Node7 -->
<g id="edge6" class="edge">
<title>Node6&#45;&gt;Node7</title>
<path fill="none" stroke="midnightblue" d="M257.14,-365.32C244.07,-370.39 229.46,-376.06 217.54,-380.68"/>
<polygon fill="midnightblue" stroke="midnightblue" points="258.71,-368.47 266.77,-361.59 256.18,-361.94 258.71,-368.47"/>
</g>
<!-- Node8 -->
<g id="node8" class="node">
<title>Node8</title>
<g id="a_node8"><a xlink:href="vi_8h.html#aa75c73cccb4878ec06ea5bf5b1b02295" target="_top" xlink:title=" ">
<polygon fill="white" stroke="black" points="155,-342.5 155,-361.5 230,-361.5 230,-342.5 155,-342.5"/>
<text text-anchor="middle" x="192.5" y="-349.5" font-family="Helvetica,sans-Serif" font-size="10.00">ex_command</text>
</a>
</g>
</g>
<!-- Node6&#45;&gt;Node8 -->
<g id="edge8" class="edge">
<title>Node6&#45;&gt;Node8</title>
<path fill="none" stroke="midnightblue" d="M255.61,-352C247.31,-352 238.46,-352 230.13,-352"/>
<polygon fill="midnightblue" stroke="midnightblue" points="255.75,-355.5 265.75,-352 255.75,-348.5 255.75,-355.5"/>
</g>
<!-- Node7&#45;&gt;Node5 -->
<g id="edge7" class="edge">
<title>Node7&#45;&gt;Node5</title>
<path fill="none" stroke="midnightblue" d="M228.15,-390C265.42,-390 323.59,-390 355.38,-390"/>
<polygon fill="midnightblue" stroke="midnightblue" points="227.77,-386.5 217.77,-390 227.77,-393.5 227.77,-386.5"/>
</g>
<!-- Node9 -->
<g id="node9" class="node">
<title>Node9</title>
<g id="a_node9"><a xlink:href="vi_8h.html#ac395e51f25330a6e6033b6d0d22b2076" target="_top" xlink:title=" ">
<polygon fill="white" stroke="black" points="82,-380.5 82,-399.5 111,-399.5 111,-380.5 82,-380.5"/>
<text text-anchor="middle" x="96.5" y="-387.5" font-family="Helvetica,sans-Serif" font-size="10.00">ex</text>
</a>
</g>
</g>
<!-- Node8&#45;&gt;Node9 -->
<g id="edge9" class="edge">
<title>Node8&#45;&gt;Node9</title>
<path fill="none" stroke="midnightblue" d="M158.07,-365.52C141.85,-372.07 123.28,-379.58 111.02,-384.53"/>
<polygon fill="midnightblue" stroke="midnightblue" points="159.82,-368.58 167.78,-361.59 157.2,-362.09 159.82,-368.58"/>
</g>
<!-- Node11 -->
<g id="node11" class="node">
<title>Node11</title>
<g id="a_node11"><a xlink:href="vi_8h.html#abe53b5c10f94f20cd5ed024371615fa1" target="_top" xlink:title=" ">
<polygon fill="white" stroke="black" points="74,-304.5 74,-323.5 119,-323.5 119,-304.5 74,-304.5"/>
<text text-anchor="middle" x="96.5" y="-311.5" font-family="Helvetica,sans-Serif" font-size="10.00">ex_init</text>
</a>
</g>
</g>
<!-- Node8&#45;&gt;Node11 -->
<g id="edge11" class="edge">
<title>Node8&#45;&gt;Node11</title>
<path fill="none" stroke="midnightblue" d="M158.25,-338.56C145.31,-333.33 130.85,-327.48 119.28,-322.8"/>
<polygon fill="midnightblue" stroke="midnightblue" points="157.2,-341.91 167.78,-342.41 159.82,-335.42 157.2,-341.91"/>
</g>
<!-- Node12 -->
<g id="node12" class="node">
<title>Node12</title>
<g id="a_node12"><a xlink:href="vi_8c.html#a8d808e0f3453afe6600673ee1ea5f828" target="_top" xlink:title=" ">
<polygon fill="white" stroke="black" points="82,-342.5 82,-361.5 111,-361.5 111,-342.5 82,-342.5"/>
<text text-anchor="middle" x="96.5" y="-349.5" font-family="Helvetica,sans-Serif" font-size="10.00">vi</text>
</a>
</g>
</g>
<!-- Node8&#45;&gt;Node12 -->
<g id="edge13" class="edge">
<title>Node8&#45;&gt;Node12</title>
<path fill="none" stroke="midnightblue" d="M144.73,-352C132.54,-352 120.33,-352 111.38,-352"/>
<polygon fill="midnightblue" stroke="midnightblue" points="144.89,-355.5 154.89,-352 144.89,-348.5 144.89,-355.5"/>
</g>
<!-- Node10 -->
<g id="node10" class="node">
<title>Node10</title>
<g id="a_node10"><a xlink:href="vi_8c.html#a0ddf1224851353fc92bfbff6f499fa97" target="_top" xlink:title=" ">
<polygon fill="white" stroke="black" points="0,-342.5 0,-361.5 38,-361.5 38,-342.5 0,-342.5"/>
<text text-anchor="middle" x="19" y="-349.5" font-family="Helvetica,sans-Serif" font-size="10.00">main</text>
</a>
</g>
</g>
<!-- Node9&#45;&gt;Node10 -->
<g id="edge10" class="edge">
<title>Node9&#45;&gt;Node10</title>
<path fill="none" stroke="midnightblue" d="M72.56,-378.45C61.48,-372.88 48.39,-366.29 38.04,-361.08"/>
<polygon fill="midnightblue" stroke="midnightblue" points="71.15,-381.66 81.65,-383.03 74.29,-375.41 71.15,-381.66"/>
</g>
<!-- Node11&#45;&gt;Node10 -->
<g id="edge12" class="edge">
<title>Node11&#45;&gt;Node10</title>
<path fill="none" stroke="midnightblue" d="M67.4,-328.14C57.57,-333.09 46.79,-338.51 38.01,-342.94"/>
<polygon fill="midnightblue" stroke="midnightblue" points="69.09,-331.21 76.45,-323.59 65.94,-324.96 69.09,-331.21"/>
</g>
<!-- Node12&#45;&gt;Node10 -->
<g id="edge14" class="edge">
<title>Node12&#45;&gt;Node10</title>
<path fill="none" stroke="midnightblue" d="M71.55,-352C60.69,-352 48.07,-352 38.04,-352"/>
<polygon fill="midnightblue" stroke="midnightblue" points="71.65,-355.5 81.65,-352 71.65,-348.5 71.65,-355.5"/>
</g>
<!-- Node17&#45;&gt;Node16 -->
<g id="edge21" class="edge">
<title>Node17&#45;&gt;Node16</title>
<path fill="none" stroke="midnightblue" d="M663.05,-167.52C643.23,-170.7 618.89,-174.6 601.52,-177.39"/>
<polygon fill="midnightblue" stroke="midnightblue" points="663.63,-170.98 672.95,-165.94 662.52,-164.06 663.63,-170.98"/>
</g>
<!-- Node22 -->
<g id="node22" class="node">
<title>Node22</title>
<g id="a_node22"><a xlink:href="ex_8c.html#ab0cb848a971a3b2c09fcb456d887dd6b" target="_top" xlink:title=" ">
<polygon fill="white" stroke="black" points="531,-342.5 531,-361.5 625,-361.5 625,-342.5 531,-342.5"/>
<text text-anchor="middle" x="578" y="-349.5" font-family="Helvetica,sans-Serif" font-size="10.00">ex_modifiedbuffer</text>
</a>
</g>
</g>
<!-- Node21&#45;&gt;Node22 -->
<g id="edge26" class="edge">
<title>Node21&#45;&gt;Node22</title>
<path fill="none" stroke="midnightblue" d="M661.7,-352C650.21,-352 637.33,-352 625.21,-352"/>
<polygon fill="midnightblue" stroke="midnightblue" points="661.79,-355.5 671.79,-352 661.79,-348.5 661.79,-355.5"/>
</g>
<!-- Node22&#45;&gt;Node4 -->
<g id="edge29" class="edge">
<title>Node22&#45;&gt;Node4</title>
<path fill="none" stroke="midnightblue" d="M539.84,-364.95C524.63,-370.26 507.4,-376.27 493.62,-381.07"/>
<polygon fill="midnightblue" stroke="midnightblue" points="541.2,-368.19 549.49,-361.59 538.9,-361.58 541.2,-368.19"/>
</g>
<!-- Node23 -->
<g id="node23" class="node">
<title>Node23</title>
<g id="a_node23"><a xlink:href="ex_8c.html#a8059390ad69866fa8e14bdb2521d4dc2" target="_top" xlink:title=" ">
<polygon fill="white" stroke="black" points="355,-323.5 355,-342.5 403,-342.5 403,-323.5 355,-323.5"/>
<text text-anchor="middle" x="379" y="-330.5" font-family="Helvetica,sans-Serif" font-size="10.00">ec_edit</text>
</a>
</g>
</g>
<!-- Node22&#45;&gt;Node23 -->
<g id="edge27" class="edge">
<title>Node22&#45;&gt;Node23</title>
<path fill="none" stroke="midnightblue" d="M520.66,-346.57C481.72,-342.81 431.95,-338.01 403.25,-335.24"/>
<polygon fill="midnightblue" stroke="midnightblue" points="520.52,-350.07 530.81,-347.55 521.19,-343.1 520.52,-350.07"/>
</g>
<!-- Node24 -->
<g id="node24" class="node">
<title>Node24</title>
<g id="a_node24"><a xlink:href="ex_8c.html#aa69f426ff9728078fbb36f448c624a90" target="_top" xlink:title=" ">
<polygon fill="white" stroke="black" points="439,-304.5 439,-323.5 495,-323.5 495,-304.5 439,-304.5"/>
<text text-anchor="middle" x="467" y="-311.5" font-family="Helvetica,sans-Serif" font-size="10.00">ec_make</text>
</a>
</g>
</g>
<!-- Node22&#45;&gt;Node24 -->
<g id="edge30" class="edge">
<title>Node22&#45;&gt;Node24</title>
<path fill="none" stroke="midnightblue" d="M539.71,-339C525.08,-333.9 508.59,-328.15 495.12,-323.45"/>
<polygon fill="midnightblue" stroke="midnightblue" points="538.9,-342.42 549.49,-342.41 541.2,-335.81 538.9,-342.42"/>
</g>
<!-- Node25 -->
<g id="node25" class="node">
<title>Node25</title>
<g id="a_node25"><a xlink:href="ex_8c.html#a87eef446de152fad41ce88a9a343b87d" target="_top" xlink:title=" ">
<polygon fill="white" stroke="black" points="443,-266.5 443,-285.5 491,-285.5 491,-266.5 443,-266.5"/>
<text text-anchor="middle" x="467" y="-273.5" font-family="Helvetica,sans-Serif" font-size="10.00">ec_quit</text>
</a>
</g>
</g>
<!-- Node22&#45;&gt;Node25 -->
<g id="edge31" class="edge">
<title>Node22&#45;&gt;Node25</title>
<path fill="none" stroke="midnightblue" d="M554.82,-336.54C532.9,-321.25 500.06,-298.36 481.69,-285.55"/>
<polygon fill="midnightblue" stroke="midnightblue" points="552.99,-339.53 563.2,-342.37 556.99,-333.78 552.99,-339.53"/>
</g>
<!-- Node23&#45;&gt;Node11 -->
<g id="edge28" class="edge">
<title>Node23&#45;&gt;Node11</title>
<path fill="none" stroke="midnightblue" d="M344.41,-330.72C286.11,-326.78 167.76,-318.76 119.12,-315.46"/>
<polygon fill="midnightblue" stroke="midnightblue" points="344.35,-334.23 354.57,-331.41 344.83,-327.24 344.35,-334.23"/>
</g>
<!-- Node25&#45;&gt;Node21 -->
<g id="edge32" class="edge">
<title>Node25&#45;&gt;Node21</title>
<path fill="none" stroke="midnightblue" d="M500.82,-286.87C546.86,-302.11 629.66,-329.53 671.62,-343.43"/>
<polygon fill="midnightblue" stroke="midnightblue" points="501.63,-283.45 491.04,-283.63 499.43,-290.1 501.63,-283.45"/>
</g>
</g>
</svg>
        <g id="navigator" transform="translate(0 0)" fill="#404254">
                <rect fill="#f2f5e9" fill-opacity="0.5" stroke="#606060" stroke-width=".5" x="0" y="0" width="60" height="60"/>
                <use id="zoomplus" xlink:href="#zoomPlus" x="17" y="9" onmousedown="handleZoom(evt,'in')"/>
                <use id="zoomminus" xlink:href="#zoomMin" x="42" y="9" onmousedown="handleZoom(evt,'out')"/>
                <use id="reset" xlink:href="#resetDef" x="30" y="36" onmousedown="handleReset()"/>
                <g id="arrowUp" xlink:href="#dirArrow" transform="translate(30 24)" onmousedown="handlePan(0,-1)">
                  <use xlink:href="#rim" fill="#404040">
                        <set attributeName="fill" to="#808080" begin="arrowUp.mouseover" end="arrowUp.mouseout"/>
                  </use>
                  <path fill="none" stroke="white" stroke-width="1.5" d="M0,-3.0v7 M-2.5,-0.5L0,-3.0L2.5,-0.5"/>
                </g>
                <g id="arrowRight" xlink:href="#dirArrow" transform="rotate(90) translate(36 -43)" onmousedown="handlePan(1,0)">
                  <use xlink:href="#rim" fill="#404040">
                        <set attributeName="fill" to="#808080" begin="arrowRight.mouseover" end="arrowRight.mouseout"/>
                  </use>
                  <path fill="none" stroke="white" stroke-width="1.5" d="M0,-3.0v7 M-2.5,-0.5L0,-3.0L2.5,-0.5"/>
                </g>
                <g id="arrowDown" xlink:href="#dirArrow" transform="rotate(180) translate(-30 -48)" onmousedown="handlePan(0,1)">
                  <use xlink:href="#rim" fill="#404040">
                        <set attributeName="fill" to="#808080" begin="arrowDown.mouseover" end="arrowDown.mouseout"/>
                  </use>
                  <path fill="none" stroke="white" stroke-width="1.5" d="M0,-3.0v7 M-2.5,-0.5L0,-3.0L2.5,-0.5"/>
                </g>
                <g id="arrowLeft" xlink:href="#dirArrow" transform="rotate(270) translate(-36 17)" onmousedown="handlePan(-1,0)">
                  <use xlink:href="#rim" fill="#404040">
                        <set attributeName="fill" to="#808080" begin="arrowLeft.mouseover" end="arrowLeft.mouseout"/>
                  </use>
                  <path fill="none" stroke="white" stroke-width="1.5" d="M0,-3.0v7 M-2.5,-0.5L0,-3.0L2.5,-0.5"/>
                </g>
        </g>
        <svg viewBox="0 0 15 15" width="100%" height="30px" preserveAspectRatio="xMaxYMin meet">
         <g id="arrow_out" transform="scale(0.3 0.3)">
          <a xlink:href="ex_8c_a18295939fcd9d9ef517157b0f4ff5f97_icgraph_org.svg" target="_base">
           <rect id="button" ry="5" rx="5" y="6" x="6" height="38" width="38"
                fill="#f2f5e9" fill-opacity="0.5" stroke="#606060" stroke-width="1.0"/>
           <path id="arrow"
             d="M 11.500037,31.436501 C 11.940474,20.09759 22.043105,11.32322 32.158766,21.979434 L 37.068811,17.246167 C 37.068811,17.246167 37.088388,32 37.088388,32 L 22.160133,31.978069 C 22.160133,31.978069 26.997745,27.140456 26.997745,27.140456 C 18.528582,18.264221 13.291696,25.230495 11.500037,31.436501 z"
             style="fill:#404040;"/>
          </a>
         </g>
        </svg>
</svg>
