<?xml version="1.0" encoding="UTF-8" standalone="no"?>
<!DOCTYPE svg PUBLIC "-//W3C//DTD SVG 1.1//EN"
 "http://www.w3.org/Graphics/SVG/1.1/DTD/svg11.dtd">
<!-- Generated by graphviz version 2.44.1 (20200629.0846)
 -->
<!-- Title: ex_arg Pages: 1 -->
<svg width="222pt" height="28pt"
 viewBox="0.00 0.00 222.00 28.00" xmlns="http://www.w3.org/2000/svg" xmlns:xlink="http://www.w3.org/1999/xlink">
<g id="graph0" class="graph" transform="scale(1 1) rotate(0) translate(4 24)">
<title>ex_arg</title>
<polygon fill="white" stroke="transparent" points="-4,4 -4,-24 218,-24 218,4 -4,4"/>
<!-- Node1 -->
<g id="node1" class="node">
<title>Node1</title>
<g id="a_node1"><a xlink:title=" ">
<polygon fill="#bfbfbf" stroke="black" points="0,-0.5 0,-19.5 46,-19.5 46,-0.5 0,-0.5"/>
<text text-anchor="middle" x="23" y="-7.5" font-family="Helvetica,sans-Serif" font-size="10.00">ex_arg</text>
</a>
</g>
</g>
<!-- Node2 -->
<g id="node2" class="node">
<title>Node2</title>
<g id="a_node2"><a xlink:href="ex_8c.html#ac81e7e5f5a7172bb68069a443e15d8c1" target="_top" xlink:title=" ">
<polygon fill="white" stroke="black" points="82,-0.5 82,-19.5 133,-19.5 133,-0.5 82,-0.5"/>
<text text-anchor="middle" x="107.5" y="-7.5" font-family="Helvetica,sans-Serif" font-size="10.00">ex_cmd</text>
</a>
</g>
</g>
<!-- Node1&#45;&gt;Node2 -->
<g id="edge1" class="edge">
<title>Node1&#45;&gt;Node2</title>
<path fill="none" stroke="midnightblue" d="M46.11,-10C53.91,-10 62.89,-10 71.5,-10"/>
<polygon fill="midnightblue" stroke="midnightblue" points="71.71,-13.5 81.71,-10 71.71,-6.5 71.71,-13.5"/>
</g>
<!-- Node3 -->
<g id="node3" class="node">
<title>Node3</title>
<g id="a_node3"><a xlink:href="ex_8c.html#a08b9908970de656c77ff16330b753c55" target="_top" xlink:title=" ">
<polygon fill="white" stroke="black" points="169,-0.5 169,-19.5 214,-19.5 214,-0.5 169,-0.5"/>
<text text-anchor="middle" x="191.5" y="-7.5" font-family="Helvetica,sans-Serif" font-size="10.00">ex_loc</text>
</a>
</g>
</g>
<!-- Node2&#45;&gt;Node3 -->
<g id="edge2" class="edge">
<title>Node2&#45;&gt;Node3</title>
<path fill="none" stroke="midnightblue" d="M133.1,-10C141.22,-10 150.36,-10 158.92,-10"/>
<polygon fill="midnightblue" stroke="midnightblue" points="158.97,-13.5 168.97,-10 158.97,-6.5 158.97,-13.5"/>
</g>
</g>
</svg>
