<?xml version="1.0" encoding="UTF-8" standalone="no"?>
<!DOCTYPE svg PUBLIC "-//W3C//DTD SVG 1.1//EN"
 "http://www.w3.org/Graphics/SVG/1.1/DTD/svg11.dtd">
<!-- Generated by graphviz version 2.44.1 (20200629.0846)
 -->
<!-- Title: ex_kwd Pages: 1 -->
<!--zoomable 540 -->
<svg id="main" version="1.1" xmlns="http://www.w3.org/2000/svg" xmlns:xlink="http://www.w3.org/1999/xlink" xml:space="preserve" onload="init(evt)">
<style type="text/css"><![CDATA[
.edge:hover path { stroke: red; }
.edge:hover polygon { stroke: red; fill: red; }
]]></style>
<script type="text/javascript"><![CDATA[
var edges = document.getElementsByTagName('g');
if (edges && edges.length) {
  for (var i=0;i<edges.length;i++) {
    if (edges[i].id.substr(0,4)=='edge') {
      edges[i].setAttribute('class','edge');
    }
  }
}
]]></script>
        <defs>
                <circle id="rim" cx="0" cy="0" r="7"/>
                <circle id="rim2" cx="0" cy="0" r="3.5"/>
                <g id="zoomPlus">
                        <use xlink:href="#rim" fill="#404040">
                                <set attributeName="fill" to="#808080" begin="zoomplus.mouseover" end="zoomplus.mouseout"/>
                        </use>
                        <path d="M-4,0h8M0,-4v8" fill="none" stroke="white" stroke-width="1.5" pointer-events="none"/>
                </g>
                <g id="zoomMin">
                        <use xlink:href="#rim" fill="#404040">
                                <set attributeName="fill" to="#808080" begin="zoomminus.mouseover" end="zoomminus.mouseout"/>
                        </use>
                        <path d="M-4,0h8" fill="none" stroke="white" stroke-width="1.5" pointer-events="none"/>
                </g>
                <g id="dirArrow">
                        <path fill="none" stroke="white" stroke-width="1.5" d="M0,-3.0v7 M-2.5,-0.5L0,-3.0L2.5,-0.5"/>
                </g>
               <g id="resetDef">
                       <use xlink:href="#rim2" fill="#404040">
                               <set attributeName="fill" to="#808080" begin="reset.mouseover" end="reset.mouseout"/>
                       </use>
               </g>
        </defs>

<script type="text/javascript">
var viewWidth = 1124;
var viewHeight = 540;
var sectionId = 'dynsection-22';
</script>
<script xlink:href="svgpan.js"/>
<svg id="graph" class="graph">
<g id="viewport">
<title>ex_kwd</title>
<polygon fill="white" stroke="transparent" points="-4,4 -4,-536 1120,-536 1120,4 -4,4"/>
<!-- Node1 -->
<g id="node1" class="node">
<title>Node1</title>
<g id="a_node1"><a xlink:title=" ">
<polygon fill="#bfbfbf" stroke="black" points="1066,-234.5 1066,-253.5 1116,-253.5 1116,-234.5 1066,-234.5"/>
<text text-anchor="middle" x="1091" y="-241.5" font-family="Helvetica,sans-Serif" font-size="10.00">ex_kwd</text>
</a>
</g>
</g>
<!-- Node2 -->
<g id="node2" class="node">
<title>Node2</title>
<g id="a_node2"><a xlink:href="ex_8c.html#a70c571bdde329a65e216c19b4aeaa628" target="_top" xlink:title=" ">
<polygon fill="white" stroke="black" points="559,-479.5 559,-498.5 609,-498.5 609,-479.5 559,-479.5"/>
<text text-anchor="middle" x="584" y="-486.5" font-family="Helvetica,sans-Serif" font-size="10.00">ec_glob</text>
</a>
</g>
</g>
<!-- Node1&#45;&gt;Node2 -->
<g id="edge1" class="edge">
<title>Node1&#45;&gt;Node2</title>
<path fill="none" stroke="midnightblue" d="M1087.05,-263.72C1076.1,-328.7 1031.62,-532 903.5,-532 903.5,-532 903.5,-532 806.5,-532 733.64,-532 649.73,-509.3 609.28,-496.89"/>
<polygon fill="midnightblue" stroke="midnightblue" points="1090.55,-264.01 1088.67,-253.58 1083.63,-262.9 1090.55,-264.01"/>
</g>
<!-- Node10 -->
<g id="node10" class="node">
<title>Node10</title>
<g id="a_node10"><a xlink:href="ex_8c.html#aaf4e813ce4370aa859181d22de51576b" target="_top" xlink:title=" ">
<polygon fill="white" stroke="black" points="667,-28.5 667,-47.5 742,-47.5 742,-28.5 667,-28.5"/>
<text text-anchor="middle" x="704.5" y="-35.5" font-family="Helvetica,sans-Serif" font-size="10.00">ec_substitute</text>
</a>
</g>
</g>
<!-- Node1&#45;&gt;Node10 -->
<g id="edge12" class="edge">
<title>Node1&#45;&gt;Node10</title>
<path fill="none" stroke="midnightblue" d="M1063.11,-229.59C989.38,-190.09 785.41,-80.81 723.53,-47.66"/>
<polygon fill="midnightblue" stroke="midnightblue" points="1061.76,-232.84 1072.23,-234.48 1065.06,-226.67 1061.76,-232.84"/>
</g>
<!-- Node11 -->
<g id="node11" class="node">
<title>Node11</title>
<g id="a_node11"><a xlink:href="ex_8c.html#af441de070082a23574854f6a2e5cd08a" target="_top" xlink:title=" ">
<polygon fill="white" stroke="black" points="968,-237.5 968,-256.5 1030,-256.5 1030,-237.5 968,-237.5"/>
<text text-anchor="middle" x="999" y="-244.5" font-family="Helvetica,sans-Serif" font-size="10.00">ex_search</text>
</a>
</g>
</g>
<!-- Node1&#45;&gt;Node11 -->
<g id="edge13" class="edge">
<title>Node1&#45;&gt;Node11</title>
<path fill="none" stroke="midnightblue" d="M1055.68,-245.14C1047.33,-245.42 1038.46,-245.72 1030.31,-245.99"/>
<polygon fill="midnightblue" stroke="midnightblue" points="1056,-248.64 1065.88,-244.8 1055.77,-241.64 1056,-248.64"/>
</g>
<!-- Node29 -->
<g id="node29" class="node">
<title>Node29</title>
<g id="a_node29"><a xlink:href="vi_8c.html#a631f59a25254f28f308f7de4897e09fa" target="_top" xlink:title=" ">
<polygon fill="white" stroke="black" points="976,-132.5 976,-151.5 1022,-151.5 1022,-132.5 976,-132.5"/>
<text text-anchor="middle" x="999" y="-139.5" font-family="Helvetica,sans-Serif" font-size="10.00">search</text>
</a>
</g>
</g>
<!-- Node1&#45;&gt;Node29 -->
<g id="edge38" class="edge">
<title>Node1&#45;&gt;Node29</title>
<path fill="none" stroke="midnightblue" d="M1074.75,-226.72C1055.67,-205.09 1023.65,-168.8 1008.47,-151.6"/>
<polygon fill="midnightblue" stroke="midnightblue" points="1072.13,-229.04 1081.37,-234.22 1077.38,-224.41 1072.13,-229.04"/>
</g>
<!-- Node3 -->
<g id="node3" class="node">
<title>Node3</title>
<g id="a_node3"><a xlink:href="ex_8c.html#a7d848d20211b2e1c868dde98ec5dfae9" target="_top" xlink:title=" ">
<polygon fill="white" stroke="black" points="361.5,-398.5 361.5,-417.5 408.5,-417.5 408.5,-398.5 361.5,-398.5"/>
<text text-anchor="middle" x="385" y="-405.5" font-family="Helvetica,sans-Serif" font-size="10.00">ex_line</text>
</a>
</g>
</g>
<!-- Node2&#45;&gt;Node3 -->
<g id="edge2" class="edge">
<title>Node2&#45;&gt;Node3</title>
<path fill="none" stroke="midnightblue" d="M550.31,-475.56C510.29,-459.1 443.56,-431.67 408.73,-417.35"/>
<polygon fill="midnightblue" stroke="midnightblue" points="549.05,-478.82 559.63,-479.39 551.71,-472.35 549.05,-478.82"/>
</g>
<!-- Node4 -->
<g id="node4" class="node">
<title>Node4</title>
<g id="a_node4"><a xlink:href="ex_8c.html#ab15ebfef933256d9741128e2ddf3f9b5" target="_top" xlink:title=" ">
<polygon fill="white" stroke="black" points="269,-398.5 269,-417.5 322,-417.5 322,-398.5 269,-398.5"/>
<text text-anchor="middle" x="295.5" y="-405.5" font-family="Helvetica,sans-Serif" font-size="10.00">ex_exec</text>
</a>
</g>
</g>
<!-- Node3&#45;&gt;Node4 -->
<g id="edge3" class="edge">
<title>Node3&#45;&gt;Node4</title>
<path fill="none" stroke="midnightblue" d="M351.36,-408C341.68,-408 331.21,-408 322.05,-408"/>
<polygon fill="midnightblue" stroke="midnightblue" points="351.47,-411.5 361.47,-408 351.47,-404.5 351.47,-411.5"/>
</g>
<!-- Node4&#45;&gt;Node2 -->
<g id="edge4" class="edge">
<title>Node4&#45;&gt;Node2</title>
<path fill="none" stroke="midnightblue" d="M331.6,-420.58C361.52,-431.07 405.78,-446.01 445,-457 484.55,-468.09 531.22,-478.33 558.9,-484.11"/>
<polygon fill="midnightblue" stroke="midnightblue" points="332.63,-417.24 322.04,-417.21 330.3,-423.84 332.63,-417.24"/>
</g>
<!-- Node5 -->
<g id="node5" class="node">
<title>Node5</title>
<g id="a_node5"><a xlink:href="vi_8h.html#aa75c73cccb4878ec06ea5bf5b1b02295" target="_top" xlink:title=" ">
<polygon fill="white" stroke="black" points="155,-332.5 155,-351.5 230,-351.5 230,-332.5 155,-332.5"/>
<text text-anchor="middle" x="192.5" y="-339.5" font-family="Helvetica,sans-Serif" font-size="10.00">ex_command</text>
</a>
</g>
</g>
<!-- Node4&#45;&gt;Node5 -->
<g id="edge5" class="edge">
<title>Node4&#45;&gt;Node5</title>
<path fill="none" stroke="midnightblue" d="M271.01,-392.65C251.58,-379.95 224.6,-362.32 208.14,-351.56"/>
<polygon fill="midnightblue" stroke="midnightblue" points="269.31,-395.72 279.6,-398.26 273.14,-389.86 269.31,-395.72"/>
</g>
<!-- Node6 -->
<g id="node6" class="node">
<title>Node6</title>
<g id="a_node6"><a xlink:href="vi_8h.html#ac395e51f25330a6e6033b6d0d22b2076" target="_top" xlink:title=" ">
<polygon fill="white" stroke="black" points="82,-332.5 82,-351.5 111,-351.5 111,-332.5 82,-332.5"/>
<text text-anchor="middle" x="96.5" y="-339.5" font-family="Helvetica,sans-Serif" font-size="10.00">ex</text>
</a>
</g>
</g>
<!-- Node5&#45;&gt;Node6 -->
<g id="edge6" class="edge">
<title>Node5&#45;&gt;Node6</title>
<path fill="none" stroke="midnightblue" d="M144.73,-342C132.54,-342 120.33,-342 111.38,-342"/>
<polygon fill="midnightblue" stroke="midnightblue" points="144.89,-345.5 154.89,-342 144.89,-338.5 144.89,-345.5"/>
</g>
<!-- Node8 -->
<g id="node8" class="node">
<title>Node8</title>
<g id="a_node8"><a xlink:href="vi_8h.html#abe53b5c10f94f20cd5ed024371615fa1" target="_top" xlink:title=" ">
<polygon fill="white" stroke="black" points="74,-294.5 74,-313.5 119,-313.5 119,-294.5 74,-294.5"/>
<text text-anchor="middle" x="96.5" y="-301.5" font-family="Helvetica,sans-Serif" font-size="10.00">ex_init</text>
</a>
</g>
</g>
<!-- Node5&#45;&gt;Node8 -->
<g id="edge8" class="edge">
<title>Node5&#45;&gt;Node8</title>
<path fill="none" stroke="midnightblue" d="M158.25,-328.56C145.31,-323.33 130.85,-317.48 119.28,-312.8"/>
<polygon fill="midnightblue" stroke="midnightblue" points="157.2,-331.91 167.78,-332.41 159.82,-325.42 157.2,-331.91"/>
</g>
<!-- Node9 -->
<g id="node9" class="node">
<title>Node9</title>
<g id="a_node9"><a xlink:href="vi_8c.html#a8d808e0f3453afe6600673ee1ea5f828" target="_top" xlink:title=" ">
<polygon fill="white" stroke="black" points="82,-256.5 82,-275.5 111,-275.5 111,-256.5 82,-256.5"/>
<text text-anchor="middle" x="96.5" y="-263.5" font-family="Helvetica,sans-Serif" font-size="10.00">vi</text>
</a>
</g>
</g>
<!-- Node5&#45;&gt;Node9 -->
<g id="edge10" class="edge">
<title>Node5&#45;&gt;Node9</title>
<path fill="none" stroke="midnightblue" d="M171.61,-325.92C152.72,-310.65 124.94,-288.18 109.31,-275.55"/>
<polygon fill="midnightblue" stroke="midnightblue" points="169.62,-328.81 179.59,-332.37 174.02,-323.37 169.62,-328.81"/>
</g>
<!-- Node7 -->
<g id="node7" class="node">
<title>Node7</title>
<g id="a_node7"><a xlink:href="vi_8c.html#a0ddf1224851353fc92bfbff6f499fa97" target="_top" xlink:title=" ">
<polygon fill="white" stroke="black" points="0,-294.5 0,-313.5 38,-313.5 38,-294.5 0,-294.5"/>
<text text-anchor="middle" x="19" y="-301.5" font-family="Helvetica,sans-Serif" font-size="10.00">main</text>
</a>
</g>
</g>
<!-- Node6&#45;&gt;Node7 -->
<g id="edge7" class="edge">
<title>Node6&#45;&gt;Node7</title>
<path fill="none" stroke="midnightblue" d="M72.56,-330.45C61.48,-324.88 48.39,-318.29 38.04,-313.08"/>
<polygon fill="midnightblue" stroke="midnightblue" points="71.15,-333.66 81.65,-335.03 74.29,-327.41 71.15,-333.66"/>
</g>
<!-- Node8&#45;&gt;Node7 -->
<g id="edge9" class="edge">
<title>Node8&#45;&gt;Node7</title>
<path fill="none" stroke="midnightblue" d="M63.55,-304C54.99,-304 46.03,-304 38.47,-304"/>
<polygon fill="midnightblue" stroke="midnightblue" points="63.66,-307.5 73.66,-304 63.66,-300.5 63.66,-307.5"/>
</g>
<!-- Node9&#45;&gt;Node7 -->
<g id="edge11" class="edge">
<title>Node9&#45;&gt;Node7</title>
<path fill="none" stroke="midnightblue" d="M72.56,-277.55C61.48,-283.12 48.39,-289.71 38.04,-294.92"/>
<polygon fill="midnightblue" stroke="midnightblue" points="74.29,-280.59 81.65,-272.97 71.15,-274.34 74.29,-280.59"/>
</g>
<!-- Node12 -->
<g id="node12" class="node">
<title>Node12</title>
<g id="a_node12"><a xlink:href="ex_8c.html#a18295939fcd9d9ef517157b0f4ff5f97" target="_top" xlink:title=" ">
<polygon fill="white" stroke="black" points="873.5,-240.5 873.5,-259.5 931.5,-259.5 931.5,-240.5 873.5,-240.5"/>
<text text-anchor="middle" x="902.5" y="-247.5" font-family="Helvetica,sans-Serif" font-size="10.00">ex_lineno</text>
</a>
</g>
</g>
<!-- Node11&#45;&gt;Node12 -->
<g id="edge14" class="edge">
<title>Node11&#45;&gt;Node12</title>
<path fill="none" stroke="midnightblue" d="M957.79,-248.28C949.03,-248.55 939.94,-248.84 931.77,-249.1"/>
<polygon fill="midnightblue" stroke="midnightblue" points="957.96,-251.77 967.84,-247.96 957.73,-244.78 957.96,-251.77"/>
</g>
<!-- Node13 -->
<g id="node13" class="node">
<title>Node13</title>
<g id="a_node13"><a xlink:href="ex_8c.html#a0389d594366ccbd24d732bdfd870f763" target="_top" xlink:title=" ">
<polygon fill="white" stroke="black" points="778,-245.5 778,-264.5 837,-264.5 837,-245.5 778,-245.5"/>
<text text-anchor="middle" x="807.5" y="-252.5" font-family="Helvetica,sans-Serif" font-size="10.00">ex_region</text>
</a>
</g>
</g>
<!-- Node12&#45;&gt;Node13 -->
<g id="edge15" class="edge">
<title>Node12&#45;&gt;Node13</title>
<path fill="none" stroke="midnightblue" d="M863.35,-252.05C854.61,-252.52 845.47,-253.01 837.2,-253.46"/>
<polygon fill="midnightblue" stroke="midnightblue" points="863.55,-255.55 873.34,-251.51 863.17,-248.56 863.55,-255.55"/>
</g>
<!-- Node13&#45;&gt;Node2 -->
<g id="edge19" class="edge">
<title>Node13&#45;&gt;Node2</title>
<path fill="none" stroke="midnightblue" d="M803.6,-274.61C795.93,-323.58 773.54,-449.11 742,-475 704.24,-505.99 642.81,-500.57 609.07,-494.45"/>
<polygon fill="midnightblue" stroke="midnightblue" points="807.07,-275.06 805.12,-264.65 800.15,-274.01 807.07,-275.06"/>
</g>
<!-- Node13&#45;&gt;Node10 -->
<g id="edge28" class="edge">
<title>Node13&#45;&gt;Node10</title>
<path fill="none" stroke="midnightblue" d="M791.62,-237.27C786.67,-230.63 781.53,-222.8 778,-215 749.19,-151.36 782.03,-119.25 742,-62 737.92,-56.16 731.91,-51.37 725.94,-47.65"/>
<polygon fill="midnightblue" stroke="midnightblue" points="789.14,-239.78 798.08,-245.47 794.64,-235.45 789.14,-239.78"/>
</g>
<!-- Node14 -->
<g id="node14" class="node">
<title>Node14</title>
<g id="a_node14"><a xlink:href="ex_8c.html#a4cd0748447515b7a935e4bb41424a9e4" target="_top" xlink:title=" ">
<polygon fill="white" stroke="black" points="675,-256.5 675,-275.5 734,-275.5 734,-256.5 675,-256.5"/>
<text text-anchor="middle" x="704.5" y="-263.5" font-family="Helvetica,sans-Serif" font-size="10.00">ec_delete</text>
</a>
</g>
</g>
<!-- Node13&#45;&gt;Node14 -->
<g id="edge16" class="edge">
<title>Node13&#45;&gt;Node14</title>
<path fill="none" stroke="midnightblue" d="M767.87,-259.21C756.69,-260.42 744.7,-261.73 734.24,-262.87"/>
<polygon fill="midnightblue" stroke="midnightblue" points="768.27,-262.68 777.83,-258.12 767.51,-255.73 768.27,-262.68"/>
</g>
<!-- Node15 -->
<g id="node15" class="node">
<title>Node15</title>
<g id="a_node15"><a xlink:href="ex_8c.html#adcd83f163f659bd2596bcfc25d74bde9" target="_top" xlink:title=" ">
<polygon fill="white" stroke="black" points="446.5,-370.5 446.5,-389.5 499.5,-389.5 499.5,-370.5 446.5,-370.5"/>
<text text-anchor="middle" x="473" y="-377.5" font-family="Helvetica,sans-Serif" font-size="10.00">ec_exec</text>
</a>
</g>
</g>
<!-- Node13&#45;&gt;Node15 -->
<g id="edge17" class="edge">
<title>Node13&#45;&gt;Node15</title>
<path fill="none" stroke="midnightblue" d="M794.31,-273.01C782.72,-288.69 763.83,-310.77 742,-323 661.7,-367.99 549.68,-377.53 499.76,-379.51"/>
<polygon fill="midnightblue" stroke="midnightblue" points="797.32,-274.82 800.26,-264.64 791.61,-270.76 797.32,-274.82"/>
</g>
<!-- Node16 -->
<g id="node16" class="node">
<title>Node16</title>
<g id="a_node16"><a xlink:href="ex_8c.html#a0908784dc65be2da119a6b72ef96dec2" target="_top" xlink:title=" ">
<polygon fill="white" stroke="black" points="676.5,-218.5 676.5,-237.5 732.5,-237.5 732.5,-218.5 676.5,-218.5"/>
<text text-anchor="middle" x="704.5" y="-225.5" font-family="Helvetica,sans-Serif" font-size="10.00">ec_insert</text>
</a>
</g>
</g>
<!-- Node13&#45;&gt;Node16 -->
<g id="edge20" class="edge">
<title>Node13&#45;&gt;Node16</title>
<path fill="none" stroke="midnightblue" d="M768.14,-244.75C756.27,-241.57 743.44,-238.14 732.51,-235.22"/>
<polygon fill="midnightblue" stroke="midnightblue" points="767.26,-248.13 777.83,-247.34 769.07,-241.37 767.26,-248.13"/>
</g>
<!-- Node17 -->
<g id="node17" class="node">
<title>Node17</title>
<g id="a_node17"><a xlink:href="ex_8c.html#a1d45a70b724f4cccae2ab746c711ebb1" target="_top" xlink:title=" ">
<polygon fill="white" stroke="black" points="678,-180.5 678,-199.5 731,-199.5 731,-180.5 678,-180.5"/>
<text text-anchor="middle" x="704.5" y="-187.5" font-family="Helvetica,sans-Serif" font-size="10.00">ec_lnum</text>
</a>
</g>
</g>
<!-- Node13&#45;&gt;Node17 -->
<g id="edge21" class="edge">
<title>Node13&#45;&gt;Node17</title>
<path fill="none" stroke="midnightblue" d="M785.73,-239.06C773.33,-229.83 757.1,-218.25 742,-209 736.64,-205.72 730.65,-202.44 725.1,-199.56"/>
<polygon fill="midnightblue" stroke="midnightblue" points="783.91,-242.08 794.01,-245.3 788.12,-236.48 783.91,-242.08"/>
</g>
<!-- Node18 -->
<g id="node18" class="node">
<title>Node18</title>
<g id="a_node18"><a xlink:href="ex_8c.html#ab95c9f0f009989c44f3ebb5abae4054d" target="_top" xlink:title=" ">
<polygon fill="white" stroke="black" points="677.5,-142.5 677.5,-161.5 731.5,-161.5 731.5,-142.5 677.5,-142.5"/>
<text text-anchor="middle" x="704.5" y="-149.5" font-family="Helvetica,sans-Serif" font-size="10.00">ec_mark</text>
</a>
</g>
</g>
<!-- Node13&#45;&gt;Node18 -->
<g id="edge22" class="edge">
<title>Node13&#45;&gt;Node18</title>
<path fill="none" stroke="midnightblue" d="M793.26,-236.91C776.26,-213.82 748.19,-176.19 742,-171 737.73,-167.42 732.67,-164.26 727.71,-161.59"/>
<polygon fill="midnightblue" stroke="midnightblue" points="790.63,-239.25 799.37,-245.24 796.28,-235.1 790.63,-239.25"/>
</g>
<!-- Node19 -->
<g id="node19" class="node">
<title>Node19</title>
<g id="a_node19"><a xlink:href="ex_8c.html#affb8197a8f988443aadf1bf2800a0d0b" target="_top" xlink:title=" ">
<polygon fill="white" stroke="black" points="560.5,-85.5 560.5,-104.5 607.5,-104.5 607.5,-85.5 560.5,-85.5"/>
<text text-anchor="middle" x="584" y="-92.5" font-family="Helvetica,sans-Serif" font-size="10.00">ec_null</text>
</a>
</g>
</g>
<!-- Node13&#45;&gt;Node19 -->
<g id="edge23" class="edge">
<title>Node13&#45;&gt;Node19</title>
<path fill="none" stroke="midnightblue" d="M791.88,-237.15C786.96,-230.5 781.76,-222.69 778,-215 753.52,-164.99 786.67,-128.24 742,-95 702.53,-65.63 640.67,-77.68 607.61,-87.34"/>
<polygon fill="midnightblue" stroke="midnightblue" points="789.37,-239.63 798.27,-245.38 794.91,-235.34 789.37,-239.63"/>
</g>
<!-- Node20 -->
<g id="node20" class="node">
<title>Node20</title>
<g id="a_node20"><a xlink:href="ex_8c.html#ad2c1a9505aa3097bac242b47a367f11d" target="_top" xlink:title=" ">
<polygon fill="white" stroke="black" points="679,-104.5 679,-123.5 730,-123.5 730,-104.5 679,-104.5"/>
<text text-anchor="middle" x="704.5" y="-111.5" font-family="Helvetica,sans-Serif" font-size="10.00">ec_print</text>
</a>
</g>
</g>
<!-- Node13&#45;&gt;Node20 -->
<g id="edge24" class="edge">
<title>Node13&#45;&gt;Node20</title>
<path fill="none" stroke="midnightblue" d="M792.39,-236.88C787.52,-230.2 782.23,-222.44 778,-215 758.35,-180.39 769.2,-162.06 742,-133 738.49,-129.24 734.06,-126.1 729.52,-123.52"/>
<polygon fill="midnightblue" stroke="midnightblue" points="789.83,-239.3 798.64,-245.19 795.43,-235.09 789.83,-239.3"/>
</g>
<!-- Node21 -->
<g id="node21" class="node">
<title>Node21</title>
<g id="a_node21"><a xlink:href="ex_8c.html#ab417867ff867aff9f7277229990cd1b8" target="_top" xlink:title=" ">
<polygon fill="white" stroke="black" points="681.5,-446.5 681.5,-465.5 727.5,-465.5 727.5,-446.5 681.5,-446.5"/>
<text text-anchor="middle" x="704.5" y="-453.5" font-family="Helvetica,sans-Serif" font-size="10.00">ec_put</text>
</a>
</g>
</g>
<!-- Node13&#45;&gt;Node21 -->
<g id="edge26" class="edge">
<title>Node13&#45;&gt;Node21</title>
<path fill="none" stroke="midnightblue" d="M804.29,-274.73C799.29,-310.91 784.08,-388.61 742,-437 738.16,-441.42 733.03,-444.96 727.84,-447.73"/>
<polygon fill="midnightblue" stroke="midnightblue" points="807.79,-274.89 805.57,-264.53 800.85,-274.01 807.79,-274.89"/>
</g>
<!-- Node22 -->
<g id="node22" class="node">
<title>Node22</title>
<g id="a_node22"><a xlink:href="ex_8c.html#add0e79e1f1e3d45f4eaa6fbe5c1ca443" target="_top" xlink:title=" ">
<polygon fill="white" stroke="black" points="679,-408.5 679,-427.5 730,-427.5 730,-408.5 679,-408.5"/>
<text text-anchor="middle" x="704.5" y="-415.5" font-family="Helvetica,sans-Serif" font-size="10.00">ec_read</text>
</a>
</g>
</g>
<!-- Node13&#45;&gt;Node22 -->
<g id="edge27" class="edge">
<title>Node13&#45;&gt;Node22</title>
<path fill="none" stroke="midnightblue" d="M802.1,-274.72C794.51,-304.83 776.33,-362.59 742,-399 738.47,-402.74 734.04,-405.88 729.49,-408.46"/>
<polygon fill="midnightblue" stroke="midnightblue" points="805.59,-275.17 804.51,-264.63 798.78,-273.55 805.59,-275.17"/>
</g>
<!-- Node23 -->
<g id="node23" class="node">
<title>Node23</title>
<g id="a_node23"><a xlink:href="ex_8c.html#a057b67e2d4f23df3ad50a9d3ec86125b" target="_top" xlink:title=" ">
<polygon fill="white" stroke="black" points="678,-294.5 678,-313.5 731,-313.5 731,-294.5 678,-294.5"/>
<text text-anchor="middle" x="704.5" y="-301.5" font-family="Helvetica,sans-Serif" font-size="10.00">ec_write</text>
</a>
</g>
</g>
<!-- Node13&#45;&gt;Node23 -->
<g id="edge29" class="edge">
<title>Node13&#45;&gt;Node23</title>
<path fill="none" stroke="midnightblue" d="M777.25,-269.19C760.61,-277.26 740.2,-287.16 725.41,-294.34"/>
<polygon fill="midnightblue" stroke="midnightblue" points="779.08,-272.19 786.55,-264.68 776.02,-265.9 779.08,-272.19"/>
</g>
<!-- Node28 -->
<g id="node28" class="node">
<title>Node28</title>
<g id="a_node28"><a xlink:href="ex_8c.html#a487b22f0ae712d3338f5e9d8d6fa8540" target="_top" xlink:title=" ">
<polygon fill="white" stroke="black" points="678,-370.5 678,-389.5 731,-389.5 731,-370.5 678,-370.5"/>
<text text-anchor="middle" x="704.5" y="-377.5" font-family="Helvetica,sans-Serif" font-size="10.00">ec_yank</text>
</a>
</g>
</g>
<!-- Node13&#45;&gt;Node28 -->
<g id="edge37" class="edge">
<title>Node13&#45;&gt;Node28</title>
<path fill="none" stroke="midnightblue" d="M797.64,-273.65C786.74,-295.25 766.6,-331.07 742,-356 736.57,-361.51 729.67,-366.43 723.34,-370.37"/>
<polygon fill="midnightblue" stroke="midnightblue" points="800.84,-275.07 802.11,-264.55 794.56,-271.98 800.84,-275.07"/>
</g>
<!-- Node15&#45;&gt;Node3 -->
<g id="edge18" class="edge">
<title>Node15&#45;&gt;Node3</title>
<path fill="none" stroke="midnightblue" d="M436.59,-391.53C427.12,-394.61 417.14,-397.86 408.58,-400.65"/>
<polygon fill="midnightblue" stroke="midnightblue" points="437.77,-394.82 446.2,-388.4 435.6,-388.17 437.77,-394.82"/>
</g>
<!-- Node20&#45;&gt;Node19 -->
<g id="edge25" class="edge">
<title>Node20&#45;&gt;Node19</title>
<path fill="none" stroke="midnightblue" d="M669.05,-108.48C649.23,-105.3 624.89,-101.4 607.52,-98.61"/>
<polygon fill="midnightblue" stroke="midnightblue" points="668.52,-111.94 678.95,-110.06 669.63,-105.02 668.52,-111.94"/>
</g>
<!-- Node24 -->
<g id="node24" class="node">
<title>Node24</title>
<g id="a_node24"><a xlink:href="ex_8c.html#ab0cb848a971a3b2c09fcb456d887dd6b" target="_top" xlink:title=" ">
<polygon fill="white" stroke="black" points="537,-294.5 537,-313.5 631,-313.5 631,-294.5 537,-294.5"/>
<text text-anchor="middle" x="584" y="-301.5" font-family="Helvetica,sans-Serif" font-size="10.00">ex_modifiedbuffer</text>
</a>
</g>
</g>
<!-- Node23&#45;&gt;Node24 -->
<g id="edge30" class="edge">
<title>Node23&#45;&gt;Node24</title>
<path fill="none" stroke="midnightblue" d="M667.7,-304C656.21,-304 643.33,-304 631.21,-304"/>
<polygon fill="midnightblue" stroke="midnightblue" points="667.79,-307.5 677.79,-304 667.79,-300.5 667.79,-307.5"/>
</g>
<!-- Node24&#45;&gt;Node15 -->
<g id="edge33" class="edge">
<title>Node24&#45;&gt;Node15</title>
<path fill="none" stroke="midnightblue" d="M552.79,-318.31C547.39,-321.28 541.91,-324.56 537,-328 519.23,-340.46 517.91,-347.39 501,-361 496.98,-364.23 492.45,-367.54 488.27,-370.47"/>
<polygon fill="midnightblue" stroke="midnightblue" points="554.48,-321.38 561.72,-313.65 551.24,-315.18 554.48,-321.38"/>
</g>
<!-- Node25 -->
<g id="node25" class="node">
<title>Node25</title>
<g id="a_node25"><a xlink:href="ex_8c.html#a8059390ad69866fa8e14bdb2521d4dc2" target="_top" xlink:title=" ">
<polygon fill="white" stroke="black" points="361,-294.5 361,-313.5 409,-313.5 409,-294.5 361,-294.5"/>
<text text-anchor="middle" x="385" y="-301.5" font-family="Helvetica,sans-Serif" font-size="10.00">ec_edit</text>
</a>
</g>
</g>
<!-- Node24&#45;&gt;Node25 -->
<g id="edge31" class="edge">
<title>Node24&#45;&gt;Node25</title>
<path fill="none" stroke="midnightblue" d="M526.66,-304C487.72,-304 437.95,-304 409.25,-304"/>
<polygon fill="midnightblue" stroke="midnightblue" points="526.81,-307.5 536.81,-304 526.81,-300.5 526.81,-307.5"/>
</g>
<!-- Node26 -->
<g id="node26" class="node">
<title>Node26</title>
<g id="a_node26"><a xlink:href="ex_8c.html#aa69f426ff9728078fbb36f448c624a90" target="_top" xlink:title=" ">
<polygon fill="white" stroke="black" points="445,-332.5 445,-351.5 501,-351.5 501,-332.5 445,-332.5"/>
<text text-anchor="middle" x="473" y="-339.5" font-family="Helvetica,sans-Serif" font-size="10.00">ec_make</text>
</a>
</g>
</g>
<!-- Node24&#45;&gt;Node26 -->
<g id="edge34" class="edge">
<title>Node24&#45;&gt;Node26</title>
<path fill="none" stroke="midnightblue" d="M545.71,-317C531.08,-322.1 514.59,-327.85 501.12,-332.55"/>
<polygon fill="midnightblue" stroke="midnightblue" points="547.2,-320.19 555.49,-313.59 544.9,-313.58 547.2,-320.19"/>
</g>
<!-- Node27 -->
<g id="node27" class="node">
<title>Node27</title>
<g id="a_node27"><a xlink:href="ex_8c.html#a87eef446de152fad41ce88a9a343b87d" target="_top" xlink:title=" ">
<polygon fill="white" stroke="black" points="449,-256.5 449,-275.5 497,-275.5 497,-256.5 449,-256.5"/>
<text text-anchor="middle" x="473" y="-263.5" font-family="Helvetica,sans-Serif" font-size="10.00">ec_quit</text>
</a>
</g>
</g>
<!-- Node24&#45;&gt;Node27 -->
<g id="edge35" class="edge">
<title>Node24&#45;&gt;Node27</title>
<path fill="none" stroke="midnightblue" d="M545.79,-291.03C529.63,-285.39 511.21,-278.97 497.07,-274.04"/>
<polygon fill="midnightblue" stroke="midnightblue" points="544.9,-294.42 555.49,-294.41 547.2,-287.81 544.9,-294.42"/>
</g>
<!-- Node25&#45;&gt;Node8 -->
<g id="edge32" class="edge">
<title>Node25&#45;&gt;Node8</title>
<path fill="none" stroke="midnightblue" d="M350.2,-304C290.72,-304 168.93,-304 119.29,-304"/>
<polygon fill="midnightblue" stroke="midnightblue" points="350.55,-307.5 360.55,-304 350.55,-300.5 350.55,-307.5"/>
</g>
<!-- Node27&#45;&gt;Node23 -->
<g id="edge36" class="edge">
<title>Node27&#45;&gt;Node23</title>
<path fill="none" stroke="midnightblue" d="M507.14,-268.69C539.06,-271.6 588.6,-276.92 631,-285 646.72,-288 664.07,-292.5 677.86,-296.37"/>
<polygon fill="midnightblue" stroke="midnightblue" points="507.3,-265.19 497.03,-267.8 506.69,-272.17 507.3,-265.19"/>
</g>
<!-- Node30 -->
<g id="node30" class="node">
<title>Node30</title>
<g id="a_node30"><a xlink:href="vi_8c.html#a93701c59617d4f96cbaa207e89178f87" target="_top" xlink:title=" ">
<polygon fill="white" stroke="black" points="873,-85.5 873,-104.5 932,-104.5 932,-85.5 873,-85.5"/>
<text text-anchor="middle" x="902.5" y="-92.5" font-family="Helvetica,sans-Serif" font-size="10.00">vi_search</text>
</a>
</g>
</g>
<!-- Node29&#45;&gt;Node30 -->
<g id="edge39" class="edge">
<title>Node29&#45;&gt;Node30</title>
<path fill="none" stroke="midnightblue" d="M969.5,-127.82C954.44,-120.34 936.35,-111.34 922.92,-104.66"/>
<polygon fill="midnightblue" stroke="midnightblue" points="968.36,-131.17 978.88,-132.49 971.48,-124.9 968.36,-131.17"/>
</g>
<!-- Node31 -->
<g id="node31" class="node">
<title>Node31</title>
<g id="a_node31"><a xlink:href="vi_8c.html#aaa4777ea0715ea846346d0f27a0cfa3f" target="_top" xlink:title=" ">
<polygon fill="white" stroke="black" points="266,-218.5 266,-237.5 325,-237.5 325,-218.5 266,-218.5"/>
<text text-anchor="middle" x="295.5" y="-225.5" font-family="Helvetica,sans-Serif" font-size="10.00">vi_motion</text>
</a>
</g>
</g>
<!-- Node30&#45;&gt;Node31 -->
<g id="edge40" class="edge">
<title>Node30&#45;&gt;Node31</title>
<path fill="none" stroke="midnightblue" d="M882.5,-78.53C849.11,-51.33 776.66,0 705.5,0 705.5,0 705.5,0 472,0 359.86,0 309.43,-175.34 298.72,-218.49"/>
<polygon fill="midnightblue" stroke="midnightblue" points="880.57,-81.48 890.49,-85.19 885.05,-76.1 880.57,-81.48"/>
</g>
<!-- Node31&#45;&gt;Node9 -->
<g id="edge43" class="edge">
<title>Node31&#45;&gt;Node9</title>
<path fill="none" stroke="midnightblue" d="M256.11,-240.29C247.57,-242.75 238.53,-245.14 230,-247 187.08,-256.35 135.32,-262.25 111.16,-264.7"/>
<polygon fill="midnightblue" stroke="midnightblue" points="257.24,-243.61 265.83,-237.41 255.25,-236.9 257.24,-243.61"/>
</g>
<!-- Node32 -->
<g id="node32" class="node">
<title>Node32</title>
<g id="a_node32"><a xlink:href="vi_8c.html#a06cbc6eb843436a0e77e07cbab0c4538" target="_top" xlink:title=" ">
<polygon fill="white" stroke="black" points="161.5,-218.5 161.5,-237.5 223.5,-237.5 223.5,-218.5 161.5,-218.5"/>
<text text-anchor="middle" x="192.5" y="-225.5" font-family="Helvetica,sans-Serif" font-size="10.00">vc_motion</text>
</a>
</g>
</g>
<!-- Node31&#45;&gt;Node32 -->
<g id="edge41" class="edge">
<title>Node31&#45;&gt;Node32</title>
<path fill="none" stroke="midnightblue" d="M255.56,-228C244.97,-228 233.67,-228 223.65,-228"/>
<polygon fill="midnightblue" stroke="midnightblue" points="255.83,-231.5 265.83,-228 255.83,-224.5 255.83,-231.5"/>
</g>
<!-- Node32&#45;&gt;Node9 -->
<g id="edge42" class="edge">
<title>Node32&#45;&gt;Node9</title>
<path fill="none" stroke="midnightblue" d="M158.07,-241.52C141.85,-248.07 123.28,-255.58 111.02,-260.53"/>
<polygon fill="midnightblue" stroke="midnightblue" points="159.82,-244.58 167.78,-237.59 157.2,-238.09 159.82,-244.58"/>
</g>
</g>
</svg>
        <g id="navigator" transform="translate(0 0)" fill="#404254">
                <rect fill="#f2f5e9" fill-opacity="0.5" stroke="#606060" stroke-width=".5" x="0" y="0" width="60" height="60"/>
                <use id="zoomplus" xlink:href="#zoomPlus" x="17" y="9" onmousedown="handleZoom(evt,'in')"/>
                <use id="zoomminus" xlink:href="#zoomMin" x="42" y="9" onmousedown="handleZoom(evt,'out')"/>
                <use id="reset" xlink:href="#resetDef" x="30" y="36" onmousedown="handleReset()"/>
                <g id="arrowUp" xlink:href="#dirArrow" transform="translate(30 24)" onmousedown="handlePan(0,-1)">
                  <use xlink:href="#rim" fill="#404040">
                        <set attributeName="fill" to="#808080" begin="arrowUp.mouseover" end="arrowUp.mouseout"/>
                  </use>
                  <path fill="none" stroke="white" stroke-width="1.5" d="M0,-3.0v7 M-2.5,-0.5L0,-3.0L2.5,-0.5"/>
                </g>
                <g id="arrowRight" xlink:href="#dirArrow" transform="rotate(90) translate(36 -43)" onmousedown="handlePan(1,0)">
                  <use xlink:href="#rim" fill="#404040">
                        <set attributeName="fill" to="#808080" begin="arrowRight.mouseover" end="arrowRight.mouseout"/>
                  </use>
                  <path fill="none" stroke="white" stroke-width="1.5" d="M0,-3.0v7 M-2.5,-0.5L0,-3.0L2.5,-0.5"/>
                </g>
                <g id="arrowDown" xlink:href="#dirArrow" transform="rotate(180) translate(-30 -48)" onmousedown="handlePan(0,1)">
                  <use xlink:href="#rim" fill="#404040">
                        <set attributeName="fill" to="#808080" begin="arrowDown.mouseover" end="arrowDown.mouseout"/>
                  </use>
                  <path fill="none" stroke="white" stroke-width="1.5" d="M0,-3.0v7 M-2.5,-0.5L0,-3.0L2.5,-0.5"/>
                </g>
                <g id="arrowLeft" xlink:href="#dirArrow" transform="rotate(270) translate(-36 17)" onmousedown="handlePan(-1,0)">
                  <use xlink:href="#rim" fill="#404040">
                        <set attributeName="fill" to="#808080" begin="arrowLeft.mouseover" end="arrowLeft.mouseout"/>
                  </use>
                  <path fill="none" stroke="white" stroke-width="1.5" d="M0,-3.0v7 M-2.5,-0.5L0,-3.0L2.5,-0.5"/>
                </g>
        </g>
        <svg viewBox="0 0 15 15" width="100%" height="30px" preserveAspectRatio="xMaxYMin meet">
         <g id="arrow_out" transform="scale(0.3 0.3)">
          <a xlink:href="ex_8c_a34fd1f4ef88c0e8d346dbcb9699e3762_icgraph_org.svg" target="_base">
           <rect id="button" ry="5" rx="5" y="6" x="6" height="38" width="38"
                fill="#f2f5e9" fill-opacity="0.5" stroke="#606060" stroke-width="1.0"/>
           <path id="arrow"
             d="M 11.500037,31.436501 C 11.940474,20.09759 22.043105,11.32322 32.158766,21.979434 L 37.068811,17.246167 C 37.068811,17.246167 37.088388,32 37.088388,32 L 22.160133,31.978069 C 22.160133,31.978069 26.997745,27.140456 26.997745,27.140456 C 18.528582,18.264221 13.291696,25.230495 11.500037,31.436501 z"
             style="fill:#404040;"/>
          </a>
         </g>
        </svg>
</svg>
