<?xml version="1.0" encoding="UTF-8" standalone="no"?>
<!DOCTYPE svg PUBLIC "-//W3C//DTD SVG 1.1//EN"
 "http://www.w3.org/Graphics/SVG/1.1/DTD/svg11.dtd">
<!-- Generated by graphviz version 2.44.1 (20200629.0846)
 -->
<!-- Title: lbuf_mark Pages: 1 -->
<!--zoomable 816 -->
<svg id="main" version="1.1" xmlns="http://www.w3.org/2000/svg" xmlns:xlink="http://www.w3.org/1999/xlink" xml:space="preserve" onload="init(evt)">
<style type="text/css"><![CDATA[
.edge:hover path { stroke: red; }
.edge:hover polygon { stroke: red; fill: red; }
]]></style>
<script type="text/javascript"><![CDATA[
var edges = document.getElementsByTagName('g');
if (edges && edges.length) {
  for (var i=0;i<edges.length;i++) {
    if (edges[i].id.substr(0,4)=='edge') {
      edges[i].setAttribute('class','edge');
    }
  }
}
]]></script>
        <defs>
                <circle id="rim" cx="0" cy="0" r="7"/>
                <circle id="rim2" cx="0" cy="0" r="3.5"/>
                <g id="zoomPlus">
                        <use xlink:href="#rim" fill="#404040">
                                <set attributeName="fill" to="#808080" begin="zoomplus.mouseover" end="zoomplus.mouseout"/>
                        </use>
                        <path d="M-4,0h8M0,-4v8" fill="none" stroke="white" stroke-width="1.5" pointer-events="none"/>
                </g>
                <g id="zoomMin">
                        <use xlink:href="#rim" fill="#404040">
                                <set attributeName="fill" to="#808080" begin="zoomminus.mouseover" end="zoomminus.mouseout"/>
                        </use>
                        <path d="M-4,0h8" fill="none" stroke="white" stroke-width="1.5" pointer-events="none"/>
                </g>
                <g id="dirArrow">
                        <path fill="none" stroke="white" stroke-width="1.5" d="M0,-3.0v7 M-2.5,-0.5L0,-3.0L2.5,-0.5"/>
                </g>
               <g id="resetDef">
                       <use xlink:href="#rim2" fill="#404040">
                               <set attributeName="fill" to="#808080" begin="reset.mouseover" end="reset.mouseout"/>
                       </use>
               </g>
        </defs>

<script type="text/javascript">
var viewWidth = 842;
var viewHeight = 816;
var sectionId = 'dynsection-29';
</script>
<script xlink:href="svgpan.js"/>
<svg id="graph" class="graph">
<g id="viewport">
<title>lbuf_mark</title>
<polygon fill="white" stroke="transparent" points="-4,4 -4,-812 838,-812 838,4 -4,4"/>
<!-- Node1 -->
<g id="node1" class="node">
<title>Node1</title>
<g id="a_node1"><a xlink:title=" ">
<polygon fill="#bfbfbf" stroke="black" points="775,-123.5 775,-142.5 834,-142.5 834,-123.5 775,-123.5"/>
<text text-anchor="middle" x="804.5" y="-130.5" font-family="Helvetica,sans-Serif" font-size="10.00">lbuf_mark</text>
</a>
</g>
</g>
<!-- Node2 -->
<g id="node2" class="node">
<title>Node2</title>
<g id="a_node2"><a xlink:href="ex_8c.html#ab95c9f0f009989c44f3ebb5abae4054d" target="_top" xlink:title=" ">
<polygon fill="white" stroke="black" points="677.5,-161.5 677.5,-180.5 731.5,-180.5 731.5,-161.5 677.5,-161.5"/>
<text text-anchor="middle" x="704.5" y="-168.5" font-family="Helvetica,sans-Serif" font-size="10.00">ec_mark</text>
</a>
</g>
</g>
<!-- Node1&#45;&gt;Node2 -->
<g id="edge1" class="edge">
<title>Node1&#45;&gt;Node2</title>
<path fill="none" stroke="midnightblue" d="M769.29,-146.26C756.43,-151.25 742.06,-156.82 730.22,-161.41"/>
<polygon fill="midnightblue" stroke="midnightblue" points="770.71,-149.47 778.77,-142.59 768.18,-142.94 770.71,-149.47"/>
</g>
<!-- Node3 -->
<g id="node3" class="node">
<title>Node3</title>
<g id="a_node3"><a xlink:href="lbuf_8c.html#a7d6629efef5a5cbd324d82e2b0c07c5d" target="_top" xlink:title=" ">
<polygon fill="white" stroke="black" points="670,-123.5 670,-142.5 739,-142.5 739,-123.5 670,-123.5"/>
<text text-anchor="middle" x="704.5" y="-130.5" font-family="Helvetica,sans-Serif" font-size="10.00">lbuf_replace</text>
</a>
</g>
</g>
<!-- Node1&#45;&gt;Node3 -->
<g id="edge2" class="edge">
<title>Node1&#45;&gt;Node3</title>
<path fill="none" stroke="midnightblue" d="M764.83,-133C756.35,-133 747.43,-133 739.16,-133"/>
<polygon fill="midnightblue" stroke="midnightblue" points="764.89,-136.5 774.89,-133 764.89,-129.5 764.89,-136.5"/>
</g>
<!-- Node14 -->
<g id="node14" class="node">
<title>Node14</title>
<g id="a_node14"><a xlink:href="vi_8c.html#a8d808e0f3453afe6600673ee1ea5f828" target="_top" xlink:title=" ">
<polygon fill="white" stroke="black" points="82,-427.5 82,-446.5 111,-446.5 111,-427.5 82,-427.5"/>
<text text-anchor="middle" x="96.5" y="-434.5" font-family="Helvetica,sans-Serif" font-size="10.00">vi</text>
</a>
</g>
</g>
<!-- Node1&#45;&gt;Node14 -->
<g id="edge51" class="edge">
<title>Node1&#45;&gt;Node14</title>
<path fill="none" stroke="midnightblue" d="M789.92,-115.22C760.56,-78.98 687.19,0 605.5,0 605.5,0 605.5,0 297,0 102.26,0 96.8,-363.56 97.34,-427.47"/>
<polygon fill="midnightblue" stroke="midnightblue" points="787.47,-117.76 796.42,-123.43 792.96,-113.42 787.47,-117.76"/>
</g>
<!-- Node4 -->
<g id="node4" class="node">
<title>Node4</title>
<g id="a_node4"><a xlink:href="vi_8h.html#ace23fcf99b4a5bb0e4da7bfbeb292a7d" target="_top" xlink:title=" ">
<polygon fill="white" stroke="black" points="578,-484.5 578,-503.5 631,-503.5 631,-484.5 578,-484.5"/>
<text text-anchor="middle" x="604.5" y="-491.5" font-family="Helvetica,sans-Serif" font-size="10.00">lbuf_edit</text>
</a>
</g>
</g>
<!-- Node3&#45;&gt;Node4 -->
<g id="edge3" class="edge">
<title>Node3&#45;&gt;Node4</title>
<path fill="none" stroke="midnightblue" d="M672.15,-149.34C671.38,-150.19 670.66,-151.08 670,-152 630.03,-207.91 610.16,-434.54 606.23,-484.31"/>
<polygon fill="midnightblue" stroke="midnightblue" points="674.67,-151.8 680.11,-142.71 670.19,-146.42 674.67,-151.8"/>
</g>
<!-- Node31 -->
<g id="node31" class="node">
<title>Node31</title>
<g id="a_node31"><a xlink:href="vi_8h.html#ae61371650c4ebd59ce9f51b82a4f334b" target="_top" xlink:title=" ">
<polygon fill="white" stroke="black" points="576.5,-142.5 576.5,-161.5 632.5,-161.5 632.5,-142.5 576.5,-142.5"/>
<text text-anchor="middle" x="604.5" y="-149.5" font-family="Helvetica,sans-Serif" font-size="10.00">lbuf_redo</text>
</a>
</g>
</g>
<!-- Node3&#45;&gt;Node31 -->
<g id="edge44" class="edge">
<title>Node3&#45;&gt;Node31</title>
<path fill="none" stroke="midnightblue" d="M659.93,-141.45C650.7,-143.24 641.22,-145.08 632.8,-146.71"/>
<polygon fill="midnightblue" stroke="midnightblue" points="660.62,-144.88 669.77,-139.54 659.29,-138.01 660.62,-144.88"/>
</g>
<!-- Node33 -->
<g id="node33" class="node">
<title>Node33</title>
<g id="a_node33"><a xlink:href="vi_8h.html#a223f8c6109580a4e06c8f104ac1346ae" target="_top" xlink:title=" ">
<polygon fill="white" stroke="black" points="575,-85.5 575,-104.5 634,-104.5 634,-85.5 575,-85.5"/>
<text text-anchor="middle" x="604.5" y="-92.5" font-family="Helvetica,sans-Serif" font-size="10.00">lbuf_undo</text>
</a>
</g>
</g>
<!-- Node3&#45;&gt;Node33 -->
<g id="edge47" class="edge">
<title>Node3&#45;&gt;Node33</title>
<path fill="none" stroke="midnightblue" d="M669.29,-119.74C656.43,-114.75 642.06,-109.18 630.22,-104.59"/>
<polygon fill="midnightblue" stroke="midnightblue" points="668.18,-123.06 678.77,-123.41 670.71,-116.53 668.18,-123.06"/>
</g>
<!-- Node5 -->
<g id="node5" class="node">
<title>Node5</title>
<g id="a_node5"><a xlink:href="ex_8c.html#a4cd0748447515b7a935e4bb41424a9e4" target="_top" xlink:title=" ">
<polygon fill="white" stroke="black" points="472,-788.5 472,-807.5 531,-807.5 531,-788.5 472,-788.5"/>
<text text-anchor="middle" x="501.5" y="-795.5" font-family="Helvetica,sans-Serif" font-size="10.00">ec_delete</text>
</a>
</g>
</g>
<!-- Node4&#45;&gt;Node5 -->
<g id="edge4" class="edge">
<title>Node4&#45;&gt;Node5</title>
<path fill="none" stroke="midnightblue" d="M601.2,-513.8C594.2,-571.28 571.6,-736.71 539,-779 536.12,-782.73 532.3,-785.81 528.22,-788.31"/>
<polygon fill="midnightblue" stroke="midnightblue" points="604.72,-513.88 602.42,-503.54 597.77,-513.05 604.72,-513.88"/>
</g>
<!-- Node6 -->
<g id="node6" class="node">
<title>Node6</title>
<g id="a_node6"><a xlink:href="ex_8c.html#adcd83f163f659bd2596bcfc25d74bde9" target="_top" xlink:title=" ">
<polygon fill="white" stroke="black" points="475,-750.5 475,-769.5 528,-769.5 528,-750.5 475,-750.5"/>
<text text-anchor="middle" x="501.5" y="-757.5" font-family="Helvetica,sans-Serif" font-size="10.00">ec_exec</text>
</a>
</g>
</g>
<!-- Node4&#45;&gt;Node6 -->
<g id="edge5" class="edge">
<title>Node4&#45;&gt;Node6</title>
<path fill="none" stroke="midnightblue" d="M603.53,-513.97C602.59,-559.32 594.41,-671.51 539,-741 535.97,-744.8 531.98,-747.92 527.74,-750.45"/>
<polygon fill="midnightblue" stroke="midnightblue" points="607.03,-513.75 603.64,-503.72 600.03,-513.68 607.03,-513.75"/>
</g>
<!-- Node15 -->
<g id="node15" class="node">
<title>Node15</title>
<g id="a_node15"><a xlink:href="ex_8c.html#a0908784dc65be2da119a6b72ef96dec2" target="_top" xlink:title=" ">
<polygon fill="white" stroke="black" points="473.5,-712.5 473.5,-731.5 529.5,-731.5 529.5,-712.5 473.5,-712.5"/>
<text text-anchor="middle" x="501.5" y="-719.5" font-family="Helvetica,sans-Serif" font-size="10.00">ec_insert</text>
</a>
</g>
</g>
<!-- Node4&#45;&gt;Node15 -->
<g id="edge17" class="edge">
<title>Node4&#45;&gt;Node15</title>
<path fill="none" stroke="midnightblue" d="M602.39,-513.58C599.17,-553.6 586.69,-645.81 539,-703 535.89,-706.73 531.86,-709.82 527.61,-712.35"/>
<polygon fill="midnightblue" stroke="midnightblue" points="605.89,-513.76 603.09,-503.54 598.9,-513.27 605.89,-513.76"/>
</g>
<!-- Node16 -->
<g id="node16" class="node">
<title>Node16</title>
<g id="a_node16"><a xlink:href="ex_8c.html#ab417867ff867aff9f7277229990cd1b8" target="_top" xlink:title=" ">
<polygon fill="white" stroke="black" points="478.5,-674.5 478.5,-693.5 524.5,-693.5 524.5,-674.5 478.5,-674.5"/>
<text text-anchor="middle" x="501.5" y="-681.5" font-family="Helvetica,sans-Serif" font-size="10.00">ec_put</text>
</a>
</g>
</g>
<!-- Node4&#45;&gt;Node16 -->
<g id="edge18" class="edge">
<title>Node4&#45;&gt;Node16</title>
<path fill="none" stroke="midnightblue" d="M599.98,-513.47C593.16,-546.63 575.5,-614.85 539,-660 534.33,-665.78 527.88,-670.65 521.71,-674.46"/>
<polygon fill="midnightblue" stroke="midnightblue" points="603.41,-514.13 601.88,-503.65 596.54,-512.8 603.41,-514.13"/>
</g>
<!-- Node17 -->
<g id="node17" class="node">
<title>Node17</title>
<g id="a_node17"><a xlink:href="ex_8c.html#add0e79e1f1e3d45f4eaa6fbe5c1ca443" target="_top" xlink:title=" ">
<polygon fill="white" stroke="black" points="371.5,-617.5 371.5,-636.5 422.5,-636.5 422.5,-617.5 371.5,-617.5"/>
<text text-anchor="middle" x="397" y="-624.5" font-family="Helvetica,sans-Serif" font-size="10.00">ec_read</text>
</a>
</g>
</g>
<!-- Node4&#45;&gt;Node17 -->
<g id="edge19" class="edge">
<title>Node4&#45;&gt;Node17</title>
<path fill="none" stroke="midnightblue" d="M600.59,-513.52C594.89,-543.97 579.09,-601.88 539,-627 503.53,-649.22 452.53,-641.76 422.58,-634.35"/>
<polygon fill="midnightblue" stroke="midnightblue" points="604.04,-514.1 602.26,-503.65 597.14,-512.93 604.04,-514.1"/>
</g>
<!-- Node18 -->
<g id="node18" class="node">
<title>Node18</title>
<g id="a_node18"><a xlink:href="ex_8c.html#aaf4e813ce4370aa859181d22de51576b" target="_top" xlink:title=" ">
<polygon fill="white" stroke="black" points="464,-598.5 464,-617.5 539,-617.5 539,-598.5 464,-598.5"/>
<text text-anchor="middle" x="501.5" y="-605.5" font-family="Helvetica,sans-Serif" font-size="10.00">ec_substitute</text>
</a>
</g>
</g>
<!-- Node4&#45;&gt;Node18 -->
<g id="edge20" class="edge">
<title>Node4&#45;&gt;Node18</title>
<path fill="none" stroke="midnightblue" d="M594.33,-512.87C583.47,-533.64 563.7,-567.02 539,-589 534.94,-592.61 530.08,-595.75 525.24,-598.38"/>
<polygon fill="midnightblue" stroke="midnightblue" points="597.53,-514.28 598.93,-503.78 591.29,-511.12 597.53,-514.28"/>
</g>
<!-- Node19 -->
<g id="node19" class="node">
<title>Node19</title>
<g id="a_node19"><a xlink:href="vi_8h.html#a73da27946270b153994b708a93095bc6" target="_top" xlink:title=" ">
<polygon fill="white" stroke="black" points="478.5,-560.5 478.5,-579.5 524.5,-579.5 524.5,-560.5 478.5,-560.5"/>
<text text-anchor="middle" x="501.5" y="-567.5" font-family="Helvetica,sans-Serif" font-size="10.00">lbuf_rd</text>
</a>
</g>
</g>
<!-- Node4&#45;&gt;Node19 -->
<g id="edge21" class="edge">
<title>Node4&#45;&gt;Node19</title>
<path fill="none" stroke="midnightblue" d="M584.37,-510.23C571.74,-520.75 554.67,-534.57 539,-546 532.26,-550.92 524.57,-556.04 518,-560.28"/>
<polygon fill="midnightblue" stroke="midnightblue" points="586.93,-512.65 592.34,-503.55 582.43,-507.29 586.93,-512.65"/>
</g>
<!-- Node21 -->
<g id="node21" class="node">
<title>Node21</title>
<g id="a_node21"><a xlink:href="vi_8c.html#a8bb357a77ed61da8858f138c6fa672a6" target="_top" xlink:title=" ">
<polygon fill="white" stroke="black" points="270,-522.5 270,-541.5 326,-541.5 326,-522.5 270,-522.5"/>
<text text-anchor="middle" x="298" y="-529.5" font-family="Helvetica,sans-Serif" font-size="10.00">vc_insert</text>
</a>
</g>
</g>
<!-- Node4&#45;&gt;Node21 -->
<g id="edge25" class="edge">
<title>Node4&#45;&gt;Node21</title>
<path fill="none" stroke="midnightblue" d="M568.06,-502.45C558.65,-504.49 548.48,-506.5 539,-508 462.27,-520.12 370.73,-527.28 326.12,-530.3"/>
<polygon fill="midnightblue" stroke="midnightblue" points="568.89,-505.85 577.89,-500.26 567.37,-499.02 568.89,-505.85"/>
</g>
<!-- Node22 -->
<g id="node22" class="node">
<title>Node22</title>
<g id="a_node22"><a xlink:href="vi_8c.html#a3d105f7bfebd8365af5b66d6dedf184e" target="_top" xlink:title=" ">
<polygon fill="white" stroke="black" points="169,-484.5 169,-503.5 216,-503.5 216,-484.5 169,-484.5"/>
<text text-anchor="middle" x="192.5" y="-491.5" font-family="Helvetica,sans-Serif" font-size="10.00">vc_join</text>
</a>
</g>
</g>
<!-- Node4&#45;&gt;Node22 -->
<g id="edge27" class="edge">
<title>Node4&#45;&gt;Node22</title>
<path fill="none" stroke="midnightblue" d="M567.72,-494C485.25,-494 283.72,-494 216.07,-494"/>
<polygon fill="midnightblue" stroke="midnightblue" points="567.85,-497.5 577.85,-494 567.85,-490.5 567.85,-497.5"/>
</g>
<!-- Node23 -->
<g id="node23" class="node">
<title>Node23</title>
<g id="a_node23"><a xlink:href="vi_8c.html#a7611a5bcfe4c4ddc58233c4c52a8fa16" target="_top" xlink:title=" ">
<polygon fill="white" stroke="black" points="275,-446.5 275,-465.5 321,-465.5 321,-446.5 275,-446.5"/>
<text text-anchor="middle" x="298" y="-453.5" font-family="Helvetica,sans-Serif" font-size="10.00">vc_put</text>
</a>
</g>
</g>
<!-- Node4&#45;&gt;Node23 -->
<g id="edge29" class="edge">
<title>Node4&#45;&gt;Node23</title>
<path fill="none" stroke="midnightblue" d="M568.06,-485.55C558.65,-483.51 548.48,-481.5 539,-480 459.38,-467.42 363.8,-460.19 321.28,-457.38"/>
<polygon fill="midnightblue" stroke="midnightblue" points="567.37,-488.98 577.89,-487.74 568.89,-482.15 567.37,-488.98"/>
</g>
<!-- Node24 -->
<g id="node24" class="node">
<title>Node24</title>
<g id="a_node24"><a xlink:href="vi_8c.html#a3635843354dbb31e3c00efcd5798535a" target="_top" xlink:title=" ">
<polygon fill="white" stroke="black" points="266,-408.5 266,-427.5 330,-427.5 330,-408.5 266,-408.5"/>
<text text-anchor="middle" x="298" y="-415.5" font-family="Helvetica,sans-Serif" font-size="10.00">vc_replace</text>
</a>
</g>
</g>
<!-- Node4&#45;&gt;Node24 -->
<g id="edge31" class="edge">
<title>Node4&#45;&gt;Node24</title>
<path fill="none" stroke="midnightblue" d="M575.23,-480.18C564.14,-475.17 551.16,-469.81 539,-466 465.81,-443.08 376.52,-428.62 330.21,-422.08"/>
<polygon fill="midnightblue" stroke="midnightblue" points="573.89,-483.42 584.43,-484.45 576.83,-477.07 573.89,-483.42"/>
</g>
<!-- Node25 -->
<g id="node25" class="node">
<title>Node25</title>
<g id="a_node25"><a xlink:href="vi_8c.html#a4e8a00c8cdffacf0c69c3901cdcdf059" target="_top" xlink:title=" ">
<polygon fill="white" stroke="black" points="476.5,-370.5 476.5,-389.5 526.5,-389.5 526.5,-370.5 476.5,-370.5"/>
<text text-anchor="middle" x="501.5" y="-377.5" font-family="Helvetica,sans-Serif" font-size="10.00">vi_case</text>
</a>
</g>
</g>
<!-- Node4&#45;&gt;Node25 -->
<g id="edge33" class="edge">
<title>Node4&#45;&gt;Node25</title>
<path fill="none" stroke="midnightblue" d="M593.18,-475.73C581.66,-456.41 561.65,-425.76 539,-404 533.31,-398.54 526.22,-393.55 519.81,-389.56"/>
<polygon fill="midnightblue" stroke="midnightblue" points="590.2,-477.58 598.26,-484.46 596.25,-474.06 590.2,-477.58"/>
</g>
<!-- Node27 -->
<g id="node27" class="node">
<title>Node27</title>
<g id="a_node27"><a xlink:href="vi_8c.html#ae37b094c3bb647d8c1a4ac4e858ce518" target="_top" xlink:title=" ">
<polygon fill="white" stroke="black" points="471,-332.5 471,-351.5 532,-351.5 532,-332.5 471,-332.5"/>
<text text-anchor="middle" x="501.5" y="-339.5" font-family="Helvetica,sans-Serif" font-size="10.00">vi_change</text>
</a>
</g>
</g>
<!-- Node4&#45;&gt;Node27 -->
<g id="edge36" class="edge">
<title>Node4&#45;&gt;Node27</title>
<path fill="none" stroke="midnightblue" d="M598.35,-474.6C590.02,-446.47 571.21,-394.14 539,-361 535.41,-357.31 530.96,-354.2 526.41,-351.62"/>
<polygon fill="midnightblue" stroke="midnightblue" points="595.03,-475.74 601.11,-484.41 601.77,-473.84 595.03,-475.74"/>
</g>
<!-- Node28 -->
<g id="node28" class="node">
<title>Node28</title>
<g id="a_node28"><a xlink:href="vi_8c.html#abfa30fc2e2b4b8b24e2ee5d4bd54f2eb" target="_top" xlink:title=" ">
<polygon fill="white" stroke="black" points="473.5,-294.5 473.5,-313.5 529.5,-313.5 529.5,-294.5 473.5,-294.5"/>
<text text-anchor="middle" x="501.5" y="-301.5" font-family="Helvetica,sans-Serif" font-size="10.00">vi_delete</text>
</a>
</g>
</g>
<!-- Node4&#45;&gt;Node28 -->
<g id="edge38" class="edge">
<title>Node4&#45;&gt;Node28</title>
<path fill="none" stroke="midnightblue" d="M600.71,-474.03C594.93,-439.43 578.73,-367.78 539,-323 535.68,-319.26 531.45,-316.14 527.05,-313.59"/>
<polygon fill="midnightblue" stroke="midnightblue" points="597.3,-474.9 602.28,-484.25 604.22,-473.83 597.3,-474.9"/>
</g>
<!-- Node29 -->
<g id="node29" class="node">
<title>Node29</title>
<g id="a_node29"><a xlink:href="vi_8c.html#ab8e0c9b9d2ef5161c6a3a8828606df5f" target="_top" xlink:title=" ">
<polygon fill="white" stroke="black" points="478,-256.5 478,-275.5 525,-275.5 525,-256.5 478,-256.5"/>
<text text-anchor="middle" x="501.5" y="-263.5" font-family="Helvetica,sans-Serif" font-size="10.00">vi_pipe</text>
</a>
</g>
</g>
<!-- Node4&#45;&gt;Node29 -->
<g id="edge40" class="edge">
<title>Node4&#45;&gt;Node29</title>
<path fill="none" stroke="midnightblue" d="M602.39,-474.42C599.17,-434.4 586.69,-342.19 539,-285 535.34,-280.61 530.4,-277.11 525.34,-274.37"/>
<polygon fill="midnightblue" stroke="midnightblue" points="598.9,-474.73 603.09,-484.46 605.89,-474.24 598.9,-474.73"/>
</g>
<!-- Node30 -->
<g id="node30" class="node">
<title>Node30</title>
<g id="a_node30"><a xlink:href="vi_8c.html#a48860be78b002b73335ae1b47dd56929" target="_top" xlink:title=" ">
<polygon fill="white" stroke="black" points="477.5,-218.5 477.5,-237.5 525.5,-237.5 525.5,-218.5 477.5,-218.5"/>
<text text-anchor="middle" x="501.5" y="-225.5" font-family="Helvetica,sans-Serif" font-size="10.00">vi_shift</text>
</a>
</g>
</g>
<!-- Node4&#45;&gt;Node30 -->
<g id="edge42" class="edge">
<title>Node4&#45;&gt;Node30</title>
<path fill="none" stroke="midnightblue" d="M603.53,-474.03C602.59,-428.68 594.41,-316.49 539,-247 535.53,-242.64 530.78,-239.18 525.86,-236.46"/>
<polygon fill="midnightblue" stroke="midnightblue" points="600.03,-474.32 603.64,-484.28 607.03,-474.25 600.03,-474.32"/>
</g>
<!-- Node7 -->
<g id="node7" class="node">
<title>Node7</title>
<g id="a_node7"><a xlink:href="ex_8c.html#a7d848d20211b2e1c868dde98ec5dfae9" target="_top" xlink:title=" ">
<polygon fill="white" stroke="black" points="373.5,-693.5 373.5,-712.5 420.5,-712.5 420.5,-693.5 373.5,-693.5"/>
<text text-anchor="middle" x="397" y="-700.5" font-family="Helvetica,sans-Serif" font-size="10.00">ex_line</text>
</a>
</g>
</g>
<!-- Node6&#45;&gt;Node7 -->
<g id="edge6" class="edge">
<title>Node6&#45;&gt;Node7</title>
<path fill="none" stroke="midnightblue" d="M472.93,-745.81C469.91,-744.2 466.88,-742.58 464,-741 446.84,-731.6 427.46,-720.37 414.17,-712.56"/>
<polygon fill="midnightblue" stroke="midnightblue" points="471.37,-748.94 481.85,-750.49 474.62,-742.74 471.37,-748.94"/>
</g>
<!-- Node8 -->
<g id="node8" class="node">
<title>Node8</title>
<g id="a_node8"><a xlink:href="ex_8c.html#ab15ebfef933256d9741128e2ddf3f9b5" target="_top" xlink:title=" ">
<polygon fill="white" stroke="black" points="271.5,-655.5 271.5,-674.5 324.5,-674.5 324.5,-655.5 271.5,-655.5"/>
<text text-anchor="middle" x="298" y="-662.5" font-family="Helvetica,sans-Serif" font-size="10.00">ex_exec</text>
</a>
</g>
</g>
<!-- Node7&#45;&gt;Node8 -->
<g id="edge7" class="edge">
<title>Node7&#45;&gt;Node8</title>
<path fill="none" stroke="midnightblue" d="M363.45,-690.25C350.4,-685.14 335.63,-679.35 323.52,-674.61"/>
<polygon fill="midnightblue" stroke="midnightblue" points="362.42,-693.61 373.01,-693.99 364.98,-687.09 362.42,-693.61"/>
</g>
<!-- Node9 -->
<g id="node9" class="node">
<title>Node9</title>
<g id="a_node9"><a xlink:href="ex_8c.html#a70c571bdde329a65e216c19b4aeaa628" target="_top" xlink:title=" ">
<polygon fill="white" stroke="black" points="167.5,-674.5 167.5,-693.5 217.5,-693.5 217.5,-674.5 167.5,-674.5"/>
<text text-anchor="middle" x="192.5" y="-681.5" font-family="Helvetica,sans-Serif" font-size="10.00">ec_glob</text>
</a>
</g>
</g>
<!-- Node8&#45;&gt;Node9 -->
<g id="edge8" class="edge">
<title>Node8&#45;&gt;Node9</title>
<path fill="none" stroke="midnightblue" d="M261.33,-671.55C246.94,-674.19 230.7,-677.17 217.72,-679.55"/>
<polygon fill="midnightblue" stroke="midnightblue" points="262.21,-674.94 271.42,-669.7 260.95,-668.06 262.21,-674.94"/>
</g>
<!-- Node10 -->
<g id="node10" class="node">
<title>Node10</title>
<g id="a_node10"><a xlink:href="vi_8h.html#aa75c73cccb4878ec06ea5bf5b1b02295" target="_top" xlink:title=" ">
<polygon fill="white" stroke="black" points="155,-598.5 155,-617.5 230,-617.5 230,-598.5 155,-598.5"/>
<text text-anchor="middle" x="192.5" y="-605.5" font-family="Helvetica,sans-Serif" font-size="10.00">ex_command</text>
</a>
</g>
</g>
<!-- Node8&#45;&gt;Node10 -->
<g id="edge10" class="edge">
<title>Node8&#45;&gt;Node10</title>
<path fill="none" stroke="midnightblue" d="M270.5,-650.41C251.73,-640.07 227.09,-626.5 210.8,-617.53"/>
<polygon fill="midnightblue" stroke="midnightblue" points="268.99,-653.57 279.44,-655.33 272.37,-647.44 268.99,-653.57"/>
</g>
<!-- Node9&#45;&gt;Node7 -->
<g id="edge9" class="edge">
<title>Node9&#45;&gt;Node7</title>
<path fill="none" stroke="midnightblue" d="M227.66,-687.2C269.06,-691.09 337.67,-697.53 373.16,-700.86"/>
<polygon fill="midnightblue" stroke="midnightblue" points="227.79,-683.7 217.51,-686.25 227.13,-690.67 227.79,-683.7"/>
</g>
<!-- Node11 -->
<g id="node11" class="node">
<title>Node11</title>
<g id="a_node11"><a xlink:href="vi_8h.html#ac395e51f25330a6e6033b6d0d22b2076" target="_top" xlink:title=" ">
<polygon fill="white" stroke="black" points="82,-598.5 82,-617.5 111,-617.5 111,-598.5 82,-598.5"/>
<text text-anchor="middle" x="96.5" y="-605.5" font-family="Helvetica,sans-Serif" font-size="10.00">ex</text>
</a>
</g>
</g>
<!-- Node10&#45;&gt;Node11 -->
<g id="edge11" class="edge">
<title>Node10&#45;&gt;Node11</title>
<path fill="none" stroke="midnightblue" d="M144.73,-608C132.54,-608 120.33,-608 111.38,-608"/>
<polygon fill="midnightblue" stroke="midnightblue" points="144.89,-611.5 154.89,-608 144.89,-604.5 144.89,-611.5"/>
</g>
<!-- Node13 -->
<g id="node13" class="node">
<title>Node13</title>
<g id="a_node13"><a xlink:href="vi_8h.html#abe53b5c10f94f20cd5ed024371615fa1" target="_top" xlink:title=" ">
<polygon fill="white" stroke="black" points="74,-560.5 74,-579.5 119,-579.5 119,-560.5 74,-560.5"/>
<text text-anchor="middle" x="96.5" y="-567.5" font-family="Helvetica,sans-Serif" font-size="10.00">ex_init</text>
</a>
</g>
</g>
<!-- Node10&#45;&gt;Node13 -->
<g id="edge13" class="edge">
<title>Node10&#45;&gt;Node13</title>
<path fill="none" stroke="midnightblue" d="M158.25,-594.56C145.31,-589.33 130.85,-583.48 119.28,-578.8"/>
<polygon fill="midnightblue" stroke="midnightblue" points="157.2,-597.91 167.78,-598.41 159.82,-591.42 157.2,-597.91"/>
</g>
<!-- Node10&#45;&gt;Node14 -->
<g id="edge15" class="edge">
<title>Node10&#45;&gt;Node14</title>
<path fill="none" stroke="midnightblue" d="M158.72,-592.64C157.39,-591.5 156.14,-590.29 155,-589 116.22,-545.33 102.56,-472.9 98.75,-446.78"/>
<polygon fill="midnightblue" stroke="midnightblue" points="156.76,-595.54 166.95,-598.41 160.77,-589.8 156.76,-595.54"/>
</g>
<!-- Node12 -->
<g id="node12" class="node">
<title>Node12</title>
<g id="a_node12"><a xlink:href="vi_8c.html#a0ddf1224851353fc92bfbff6f499fa97" target="_top" xlink:title=" ">
<polygon fill="white" stroke="black" points="0,-560.5 0,-579.5 38,-579.5 38,-560.5 0,-560.5"/>
<text text-anchor="middle" x="19" y="-567.5" font-family="Helvetica,sans-Serif" font-size="10.00">main</text>
</a>
</g>
</g>
<!-- Node11&#45;&gt;Node12 -->
<g id="edge12" class="edge">
<title>Node11&#45;&gt;Node12</title>
<path fill="none" stroke="midnightblue" d="M72.56,-596.45C61.48,-590.88 48.39,-584.29 38.04,-579.08"/>
<polygon fill="midnightblue" stroke="midnightblue" points="71.15,-599.66 81.65,-601.03 74.29,-593.41 71.15,-599.66"/>
</g>
<!-- Node13&#45;&gt;Node12 -->
<g id="edge14" class="edge">
<title>Node13&#45;&gt;Node12</title>
<path fill="none" stroke="midnightblue" d="M63.55,-570C54.99,-570 46.03,-570 38.47,-570"/>
<polygon fill="midnightblue" stroke="midnightblue" points="63.66,-573.5 73.66,-570 63.66,-566.5 63.66,-573.5"/>
</g>
<!-- Node14&#45;&gt;Node12 -->
<g id="edge16" class="edge">
<title>Node14&#45;&gt;Node12</title>
<path fill="none" stroke="midnightblue" d="M84.98,-455.53C68.74,-484.14 38.13,-538.05 25.58,-560.16"/>
<polygon fill="midnightblue" stroke="midnightblue" points="88.18,-456.99 90.07,-446.57 82.09,-453.53 88.18,-456.99"/>
</g>
<!-- Node19&#45;&gt;Node17 -->
<g id="edge24" class="edge">
<title>Node19&#45;&gt;Node17</title>
<path fill="none" stroke="midnightblue" d="M472.93,-584.19C469.91,-585.8 466.88,-587.42 464,-589 446.84,-598.4 427.46,-609.63 414.17,-617.44"/>
<polygon fill="midnightblue" stroke="midnightblue" points="474.62,-587.26 481.85,-579.51 471.37,-581.06 474.62,-587.26"/>
</g>
<!-- Node20 -->
<g id="node20" class="node">
<title>Node20</title>
<g id="a_node20"><a xlink:href="ex_8c.html#a8059390ad69866fa8e14bdb2521d4dc2" target="_top" xlink:title=" ">
<polygon fill="white" stroke="black" points="168.5,-560.5 168.5,-579.5 216.5,-579.5 216.5,-560.5 168.5,-560.5"/>
<text text-anchor="middle" x="192.5" y="-567.5" font-family="Helvetica,sans-Serif" font-size="10.00">ec_edit</text>
</a>
</g>
</g>
<!-- Node19&#45;&gt;Node20 -->
<g id="edge22" class="edge">
<title>Node19&#45;&gt;Node20</title>
<path fill="none" stroke="midnightblue" d="M468.4,-570C406.25,-570 270.84,-570 216.63,-570"/>
<polygon fill="midnightblue" stroke="midnightblue" points="468.42,-573.5 478.42,-570 468.42,-566.5 468.42,-573.5"/>
</g>
<!-- Node20&#45;&gt;Node13 -->
<g id="edge23" class="edge">
<title>Node20&#45;&gt;Node13</title>
<path fill="none" stroke="midnightblue" d="M157.88,-570C145,-570 130.65,-570 119.18,-570"/>
<polygon fill="midnightblue" stroke="midnightblue" points="158.26,-573.5 168.26,-570 158.26,-566.5 158.26,-573.5"/>
</g>
<!-- Node21&#45;&gt;Node14 -->
<g id="edge26" class="edge">
<title>Node21&#45;&gt;Node14</title>
<path fill="none" stroke="midnightblue" d="M259.78,-534.61C229.57,-535.02 186.9,-531.61 155,-513 127.99,-497.24 109.52,-463.33 101.7,-446.65"/>
<polygon fill="midnightblue" stroke="midnightblue" points="260.02,-538.1 269.91,-534.32 259.82,-531.11 260.02,-538.1"/>
</g>
<!-- Node22&#45;&gt;Node14 -->
<g id="edge28" class="edge">
<title>Node22&#45;&gt;Node14</title>
<path fill="none" stroke="midnightblue" d="M166.82,-479.04C149.01,-468.23 125.62,-454.05 111.08,-445.23"/>
<polygon fill="midnightblue" stroke="midnightblue" points="165.19,-482.14 175.55,-484.33 168.82,-476.15 165.19,-482.14"/>
</g>
<!-- Node23&#45;&gt;Node14 -->
<g id="edge30" class="edge">
<title>Node23&#45;&gt;Node14</title>
<path fill="none" stroke="midnightblue" d="M264.66,-452.92C220.39,-448.7 142.83,-441.32 111.36,-438.32"/>
<polygon fill="midnightblue" stroke="midnightblue" points="264.6,-456.43 274.89,-453.89 265.26,-449.46 264.6,-456.43"/>
</g>
<!-- Node24&#45;&gt;Node14 -->
<g id="edge32" class="edge">
<title>Node24&#45;&gt;Node14</title>
<path fill="none" stroke="midnightblue" d="M255.77,-421.93C210.65,-426.22 140.83,-432.87 111.37,-435.68"/>
<polygon fill="midnightblue" stroke="midnightblue" points="256.21,-425.4 265.83,-420.97 255.54,-418.43 256.21,-425.4"/>
</g>
<!-- Node26 -->
<g id="node26" class="node">
<title>Node26</title>
<g id="a_node26"><a xlink:href="vi_8c.html#a06cbc6eb843436a0e77e07cbab0c4538" target="_top" xlink:title=" ">
<polygon fill="white" stroke="black" points="366,-313.5 366,-332.5 428,-332.5 428,-313.5 366,-313.5"/>
<text text-anchor="middle" x="397" y="-320.5" font-family="Helvetica,sans-Serif" font-size="10.00">vc_motion</text>
</a>
</g>
</g>
<!-- Node25&#45;&gt;Node26 -->
<g id="edge34" class="edge">
<title>Node25&#45;&gt;Node26</title>
<path fill="none" stroke="midnightblue" d="M472.93,-365.81C469.91,-364.2 466.88,-362.58 464,-361 446.84,-351.6 427.46,-340.37 414.17,-332.56"/>
<polygon fill="midnightblue" stroke="midnightblue" points="471.37,-368.94 481.85,-370.49 474.62,-362.74 471.37,-368.94"/>
</g>
<!-- Node26&#45;&gt;Node14 -->
<g id="edge35" class="edge">
<title>Node26&#45;&gt;Node14</title>
<path fill="none" stroke="midnightblue" d="M361.56,-336.15C295.83,-361.26 155.13,-414.99 111.02,-431.84"/>
<polygon fill="midnightblue" stroke="midnightblue" points="362.97,-339.36 371.06,-332.52 360.47,-332.82 362.97,-339.36"/>
</g>
<!-- Node27&#45;&gt;Node26 -->
<g id="edge37" class="edge">
<title>Node27&#45;&gt;Node26</title>
<path fill="none" stroke="midnightblue" d="M460.79,-334.64C449.99,-332.64 438.48,-330.5 428.29,-328.62"/>
<polygon fill="midnightblue" stroke="midnightblue" points="460.38,-338.12 470.85,-336.5 461.66,-331.24 460.38,-338.12"/>
</g>
<!-- Node28&#45;&gt;Node26 -->
<g id="edge39" class="edge">
<title>Node28&#45;&gt;Node26</title>
<path fill="none" stroke="midnightblue" d="M463.47,-310.86C451.89,-313.01 439.27,-315.35 428.22,-317.4"/>
<polygon fill="midnightblue" stroke="midnightblue" points="464.11,-314.31 473.3,-309.04 462.83,-307.42 464.11,-314.31"/>
</g>
<!-- Node29&#45;&gt;Node26 -->
<g id="edge41" class="edge">
<title>Node29&#45;&gt;Node26</title>
<path fill="none" stroke="midnightblue" d="M472.93,-280.19C469.91,-281.8 466.88,-283.42 464,-285 446.84,-294.4 427.46,-305.63 414.17,-313.44"/>
<polygon fill="midnightblue" stroke="midnightblue" points="474.62,-283.26 481.85,-275.51 471.37,-277.06 474.62,-283.26"/>
</g>
<!-- Node30&#45;&gt;Node26 -->
<g id="edge43" class="edge">
<title>Node30&#45;&gt;Node26</title>
<path fill="none" stroke="midnightblue" d="M469.78,-242.87C467.77,-244.18 465.82,-245.56 464,-247 438.75,-266.91 415.7,-297.46 404.73,-313.07"/>
<polygon fill="midnightblue" stroke="midnightblue" points="471.97,-245.65 478.83,-237.57 468.43,-239.61 471.97,-245.65"/>
</g>
<!-- Node31&#45;&gt;Node14 -->
<g id="edge46" class="edge">
<title>Node31&#45;&gt;Node14</title>
<path fill="none" stroke="midnightblue" d="M566.64,-163.91C557.66,-166.52 548.04,-169.07 539,-171 477.16,-184.19 461.23,-190 398,-190 398,-190 398,-190 297,-190 172.7,-190 112.59,-381.65 100.03,-427.32"/>
<polygon fill="midnightblue" stroke="midnightblue" points="567.86,-167.2 576.43,-160.97 565.85,-160.49 567.86,-167.2"/>
</g>
<!-- Node32 -->
<g id="node32" class="node">
<title>Node32</title>
<g id="a_node32"><a xlink:href="ex_8c.html#a39d0bccce28c5531c38fa56b7882857d" target="_top" xlink:title=" ">
<polygon fill="white" stroke="black" points="476,-142.5 476,-161.5 527,-161.5 527,-142.5 476,-142.5"/>
<text text-anchor="middle" x="501.5" y="-149.5" font-family="Helvetica,sans-Serif" font-size="10.00">ec_redo</text>
</a>
</g>
</g>
<!-- Node31&#45;&gt;Node32 -->
<g id="edge45" class="edge">
<title>Node31&#45;&gt;Node32</title>
<path fill="none" stroke="midnightblue" d="M566.33,-152C553.29,-152 538.98,-152 527.22,-152"/>
<polygon fill="midnightblue" stroke="midnightblue" points="566.43,-155.5 576.43,-152 566.43,-148.5 566.43,-155.5"/>
</g>
<!-- Node33&#45;&gt;Node14 -->
<g id="edge50" class="edge">
<title>Node33&#45;&gt;Node14</title>
<path fill="none" stroke="midnightblue" d="M564.83,-100.72C523.6,-106.31 456.34,-114 398,-114 398,-114 398,-114 297,-114 221.56,-114 198.71,-145.51 155,-207 103.49,-279.46 97.97,-393.38 97.5,-427.22"/>
<polygon fill="midnightblue" stroke="midnightblue" points="565.56,-104.15 574.99,-99.31 564.6,-97.22 565.56,-104.15"/>
</g>
<!-- Node34 -->
<g id="node34" class="node">
<title>Node34</title>
<g id="a_node34"><a xlink:href="ex_8c.html#a0f6c94c34d1bc97a9051aceb7bda7ff0" target="_top" xlink:title=" ">
<polygon fill="white" stroke="black" points="475,-66.5 475,-85.5 528,-85.5 528,-66.5 475,-66.5"/>
<text text-anchor="middle" x="501.5" y="-73.5" font-family="Helvetica,sans-Serif" font-size="10.00">ec_undo</text>
</a>
</g>
</g>
<!-- Node33&#45;&gt;Node34 -->
<g id="edge48" class="edge">
<title>Node33&#45;&gt;Node34</title>
<path fill="none" stroke="midnightblue" d="M564.81,-87.72C552.53,-85.41 539.27,-82.92 528.14,-80.82"/>
<polygon fill="midnightblue" stroke="midnightblue" points="564.35,-91.2 574.83,-89.61 565.65,-84.32 564.35,-91.2"/>
</g>
<!-- Node35 -->
<g id="node35" class="node">
<title>Node35</title>
<g id="a_node35"><a xlink:href="ex_8c.html#a0d61b907b63c575f18728b9b166f2b16" target="_top" xlink:title=" ">
<polygon fill="white" stroke="black" points="472,-28.5 472,-47.5 531,-47.5 531,-28.5 472,-28.5"/>
<text text-anchor="middle" x="501.5" y="-35.5" font-family="Helvetica,sans-Serif" font-size="10.00">ec_undo1</text>
</a>
</g>
</g>
<!-- Node33&#45;&gt;Node35 -->
<g id="edge49" class="edge">
<title>Node33&#45;&gt;Node35</title>
<path fill="none" stroke="midnightblue" d="M579.15,-80.25C567.15,-73.08 552.41,-64.43 539,-57 533.38,-53.88 527.2,-50.61 521.54,-47.67"/>
<polygon fill="midnightblue" stroke="midnightblue" points="577.35,-83.25 587.73,-85.4 580.96,-77.25 577.35,-83.25"/>
</g>
</g>
</svg>
        <g id="navigator" transform="translate(0 0)" fill="#404254">
                <rect fill="#f2f5e9" fill-opacity="0.5" stroke="#606060" stroke-width=".5" x="0" y="0" width="60" height="60"/>
                <use id="zoomplus" xlink:href="#zoomPlus" x="17" y="9" onmousedown="handleZoom(evt,'in')"/>
                <use id="zoomminus" xlink:href="#zoomMin" x="42" y="9" onmousedown="handleZoom(evt,'out')"/>
                <use id="reset" xlink:href="#resetDef" x="30" y="36" onmousedown="handleReset()"/>
                <g id="arrowUp" xlink:href="#dirArrow" transform="translate(30 24)" onmousedown="handlePan(0,-1)">
                  <use xlink:href="#rim" fill="#404040">
                        <set attributeName="fill" to="#808080" begin="arrowUp.mouseover" end="arrowUp.mouseout"/>
                  </use>
                  <path fill="none" stroke="white" stroke-width="1.5" d="M0,-3.0v7 M-2.5,-0.5L0,-3.0L2.5,-0.5"/>
                </g>
                <g id="arrowRight" xlink:href="#dirArrow" transform="rotate(90) translate(36 -43)" onmousedown="handlePan(1,0)">
                  <use xlink:href="#rim" fill="#404040">
                        <set attributeName="fill" to="#808080" begin="arrowRight.mouseover" end="arrowRight.mouseout"/>
                  </use>
                  <path fill="none" stroke="white" stroke-width="1.5" d="M0,-3.0v7 M-2.5,-0.5L0,-3.0L2.5,-0.5"/>
                </g>
                <g id="arrowDown" xlink:href="#dirArrow" transform="rotate(180) translate(-30 -48)" onmousedown="handlePan(0,1)">
                  <use xlink:href="#rim" fill="#404040">
                        <set attributeName="fill" to="#808080" begin="arrowDown.mouseover" end="arrowDown.mouseout"/>
                  </use>
                  <path fill="none" stroke="white" stroke-width="1.5" d="M0,-3.0v7 M-2.5,-0.5L0,-3.0L2.5,-0.5"/>
                </g>
                <g id="arrowLeft" xlink:href="#dirArrow" transform="rotate(270) translate(-36 17)" onmousedown="handlePan(-1,0)">
                  <use xlink:href="#rim" fill="#404040">
                        <set attributeName="fill" to="#808080" begin="arrowLeft.mouseover" end="arrowLeft.mouseout"/>
                  </use>
                  <path fill="none" stroke="white" stroke-width="1.5" d="M0,-3.0v7 M-2.5,-0.5L0,-3.0L2.5,-0.5"/>
                </g>
        </g>
        <svg viewBox="0 0 15 15" width="100%" height="30px" preserveAspectRatio="xMaxYMin meet">
         <g id="arrow_out" transform="scale(0.3 0.3)">
          <a xlink:href="lbuf_8c_a5a34f3f60dfd5ea06207d96d821da368_icgraph_org.svg" target="_base">
           <rect id="button" ry="5" rx="5" y="6" x="6" height="38" width="38"
                fill="#f2f5e9" fill-opacity="0.5" stroke="#606060" stroke-width="1.0"/>
           <path id="arrow"
             d="M 11.500037,31.436501 C 11.940474,20.09759 22.043105,11.32322 32.158766,21.979434 L 37.068811,17.246167 C 37.068811,17.246167 37.088388,32 37.088388,32 L 22.160133,31.978069 C 22.160133,31.978069 26.997745,27.140456 26.997745,27.140456 C 18.528582,18.264221 13.291696,25.230495 11.500037,31.436501 z"
             style="fill:#404040;"/>
          </a>
         </g>
        </svg>
</svg>
