<?xml version="1.0" encoding="UTF-8" standalone="no"?>
<!DOCTYPE svg PUBLIC "-//W3C//DTD SVG 1.1//EN"
 "http://www.w3.org/Graphics/SVG/1.1/DTD/svg11.dtd">
<!-- Generated by graphviz version 2.44.1 (20200629.0846)
 -->
<!-- Title: lbuf_jump Pages: 1 -->
<svg width="1036pt" height="588pt"
 viewBox="0.00 0.00 1036.00 588.00" xmlns="http://www.w3.org/2000/svg" xmlns:xlink="http://www.w3.org/1999/xlink">
<g id="graph0" class="graph" transform="scale(1 1) rotate(0) translate(4 584)">
<title>lbuf_jump</title>
<polygon fill="white" stroke="transparent" points="-4,4 -4,-584 1032,-584 1032,4 -4,4"/>
<!-- Node1 -->
<g id="node1" class="node">
<title>Node1</title>
<g id="a_node1"><a xlink:title=" ">
<polygon fill="#bfbfbf" stroke="black" points="969,-513.5 969,-532.5 1028,-532.5 1028,-513.5 969,-513.5"/>
<text text-anchor="middle" x="998.5" y="-520.5" font-family="Helvetica,sans-Serif" font-size="10.00">lbuf_jump</text>
</a>
</g>
</g>
<!-- Node2 -->
<g id="node2" class="node">
<title>Node2</title>
<g id="a_node2"><a xlink:href="ex_8c.html#a18295939fcd9d9ef517157b0f4ff5f97" target="_top" xlink:title=" ">
<polygon fill="white" stroke="black" points="871,-361.5 871,-380.5 929,-380.5 929,-361.5 871,-361.5"/>
<text text-anchor="middle" x="900" y="-368.5" font-family="Helvetica,sans-Serif" font-size="10.00">ex_lineno</text>
</a>
</g>
</g>
<!-- Node1&#45;&gt;Node2 -->
<g id="edge1" class="edge">
<title>Node1&#45;&gt;Node2</title>
<path fill="none" stroke="midnightblue" d="M986.05,-504.97C965.45,-472.52 922.8,-405.35 907.03,-380.5"/>
<polygon fill="midnightblue" stroke="midnightblue" points="983.15,-506.93 991.46,-513.49 989.06,-503.17 983.15,-506.93"/>
</g>
<!-- Node13 -->
<g id="node13" class="node">
<title>Node13</title>
<g id="a_node13"><a xlink:href="vi_8c.html#a8d808e0f3453afe6600673ee1ea5f828" target="_top" xlink:title=" ">
<polygon fill="white" stroke="black" points="82,-494.5 82,-513.5 111,-513.5 111,-494.5 82,-494.5"/>
<text text-anchor="middle" x="96.5" y="-501.5" font-family="Helvetica,sans-Serif" font-size="10.00">vi</text>
</a>
</g>
</g>
<!-- Node1&#45;&gt;Node13 -->
<g id="edge35" class="edge">
<title>Node1&#45;&gt;Node13</title>
<path fill="none" stroke="midnightblue" d="M969.16,-536.81C931.87,-553.68 863.86,-580 802.5,-580 802.5,-580 802.5,-580 291.5,-580 228.64,-580 212.12,-569.22 155,-543 137.9,-535.15 120.29,-522.38 109.14,-513.61"/>
<polygon fill="midnightblue" stroke="midnightblue" points="970.78,-539.91 978.39,-532.54 967.85,-533.56 970.78,-539.91"/>
</g>
<!-- Node28 -->
<g id="node28" class="node">
<title>Node28</title>
<g id="a_node28"><a xlink:href="vi_8c.html#aaa4777ea0715ea846346d0f27a0cfa3f" target="_top" xlink:title=" ">
<polygon fill="white" stroke="black" points="772,-532.5 772,-551.5 831,-551.5 831,-532.5 772,-532.5"/>
<text text-anchor="middle" x="801.5" y="-539.5" font-family="Helvetica,sans-Serif" font-size="10.00">vi_motion</text>
</a>
</g>
</g>
<!-- Node1&#45;&gt;Node28 -->
<g id="edge36" class="edge">
<title>Node1&#45;&gt;Node28</title>
<path fill="none" stroke="midnightblue" d="M958.63,-526.79C920.99,-530.46 864.78,-535.93 831.07,-539.22"/>
<polygon fill="midnightblue" stroke="midnightblue" points="959.11,-530.26 968.73,-525.8 958.43,-523.29 959.11,-530.26"/>
</g>
<!-- Node30 -->
<g id="node30" class="node">
<title>Node30</title>
<g id="a_node30"><a xlink:href="vi_8c.html#acf58ed4f9b3a9a6e3d56f397eeb04aee" target="_top" xlink:title=" ">
<polygon fill="white" stroke="black" points="867,-494.5 867,-513.5 933,-513.5 933,-494.5 867,-494.5"/>
<text text-anchor="middle" x="900" y="-501.5" font-family="Helvetica,sans-Serif" font-size="10.00">vi_motionln</text>
</a>
</g>
</g>
<!-- Node1&#45;&gt;Node30 -->
<g id="edge40" class="edge">
<title>Node1&#45;&gt;Node30</title>
<path fill="none" stroke="midnightblue" d="M958.72,-515.37C950.23,-513.69 941.33,-511.94 933.13,-510.33"/>
<polygon fill="midnightblue" stroke="midnightblue" points="958.32,-518.85 968.81,-517.35 959.67,-511.98 958.32,-518.85"/>
</g>
<!-- Node3 -->
<g id="node3" class="node">
<title>Node3</title>
<g id="a_node3"><a xlink:href="ex_8c.html#a0389d594366ccbd24d732bdfd870f763" target="_top" xlink:title=" ">
<polygon fill="white" stroke="black" points="772,-247.5 772,-266.5 831,-266.5 831,-247.5 772,-247.5"/>
<text text-anchor="middle" x="801.5" y="-254.5" font-family="Helvetica,sans-Serif" font-size="10.00">ex_region</text>
</a>
</g>
</g>
<!-- Node2&#45;&gt;Node3 -->
<g id="edge2" class="edge">
<title>Node2&#45;&gt;Node3</title>
<path fill="none" stroke="midnightblue" d="M884.22,-353.54C863.62,-329.21 827,-285.94 810.71,-266.69"/>
<polygon fill="midnightblue" stroke="midnightblue" points="881.64,-355.91 890.77,-361.28 886.98,-351.39 881.64,-355.91"/>
</g>
<!-- Node4 -->
<g id="node4" class="node">
<title>Node4</title>
<g id="a_node4"><a xlink:href="ex_8c.html#a4cd0748447515b7a935e4bb41424a9e4" target="_top" xlink:title=" ">
<polygon fill="white" stroke="black" points="669,-456.5 669,-475.5 728,-475.5 728,-456.5 669,-456.5"/>
<text text-anchor="middle" x="698.5" y="-463.5" font-family="Helvetica,sans-Serif" font-size="10.00">ec_delete</text>
</a>
</g>
</g>
<!-- Node3&#45;&gt;Node4 -->
<g id="edge3" class="edge">
<title>Node3&#45;&gt;Node4</title>
<path fill="none" stroke="midnightblue" d="M797.81,-277.16C792.09,-313.5 775.82,-390.93 736,-442 731.52,-447.74 725.27,-452.55 719.2,-456.32"/>
<polygon fill="midnightblue" stroke="midnightblue" points="801.33,-277.29 799.31,-266.89 794.4,-276.28 801.33,-277.29"/>
</g>
<!-- Node5 -->
<g id="node5" class="node">
<title>Node5</title>
<g id="a_node5"><a xlink:href="ex_8c.html#adcd83f163f659bd2596bcfc25d74bde9" target="_top" xlink:title=" ">
<polygon fill="white" stroke="black" points="440.5,-372.5 440.5,-391.5 493.5,-391.5 493.5,-372.5 440.5,-372.5"/>
<text text-anchor="middle" x="467" y="-379.5" font-family="Helvetica,sans-Serif" font-size="10.00">ec_exec</text>
</a>
</g>
</g>
<!-- Node3&#45;&gt;Node5 -->
<g id="edge4" class="edge">
<title>Node3&#45;&gt;Node5</title>
<path fill="none" stroke="midnightblue" d="M795.86,-276.24C788.31,-302.81 770.62,-349.85 736,-371 658.71,-418.22 544.16,-400.04 493.59,-388.58"/>
<polygon fill="midnightblue" stroke="midnightblue" points="799.25,-277.1 798.42,-266.54 792.48,-275.32 799.25,-277.1"/>
</g>
<!-- Node8 -->
<g id="node8" class="node">
<title>Node8</title>
<g id="a_node8"><a xlink:href="ex_8c.html#a70c571bdde329a65e216c19b4aeaa628" target="_top" xlink:title=" ">
<polygon fill="white" stroke="black" points="167.5,-380.5 167.5,-399.5 217.5,-399.5 217.5,-380.5 167.5,-380.5"/>
<text text-anchor="middle" x="192.5" y="-387.5" font-family="Helvetica,sans-Serif" font-size="10.00">ec_glob</text>
</a>
</g>
</g>
<!-- Node3&#45;&gt;Node8 -->
<g id="edge16" class="edge">
<title>Node3&#45;&gt;Node8</title>
<path fill="none" stroke="midnightblue" d="M797.28,-276.58C791.15,-307.31 774.76,-366.48 736,-397 680.12,-441 650.12,-428 579,-428 579,-428 579,-428 378,-428 319.46,-428 252.58,-409.42 217.65,-398.25"/>
<polygon fill="midnightblue" stroke="midnightblue" points="800.74,-277.12 799.1,-266.66 793.85,-275.86 800.74,-277.12"/>
</g>
<!-- Node14 -->
<g id="node14" class="node">
<title>Node14</title>
<g id="a_node14"><a xlink:href="ex_8c.html#a0908784dc65be2da119a6b72ef96dec2" target="_top" xlink:title=" ">
<polygon fill="white" stroke="black" points="670.5,-190.5 670.5,-209.5 726.5,-209.5 726.5,-190.5 670.5,-190.5"/>
<text text-anchor="middle" x="698.5" y="-197.5" font-family="Helvetica,sans-Serif" font-size="10.00">ec_insert</text>
</a>
</g>
</g>
<!-- Node3&#45;&gt;Node14 -->
<g id="edge17" class="edge">
<title>Node3&#45;&gt;Node14</title>
<path fill="none" stroke="midnightblue" d="M776.15,-242.25C764.15,-235.08 749.41,-226.43 736,-219 730.38,-215.88 724.2,-212.61 718.54,-209.67"/>
<polygon fill="midnightblue" stroke="midnightblue" points="774.35,-245.25 784.73,-247.4 777.96,-239.25 774.35,-245.25"/>
</g>
<!-- Node15 -->
<g id="node15" class="node">
<title>Node15</title>
<g id="a_node15"><a xlink:href="ex_8c.html#a1d45a70b724f4cccae2ab746c711ebb1" target="_top" xlink:title=" ">
<polygon fill="white" stroke="black" points="672,-152.5 672,-171.5 725,-171.5 725,-152.5 672,-152.5"/>
<text text-anchor="middle" x="698.5" y="-159.5" font-family="Helvetica,sans-Serif" font-size="10.00">ec_lnum</text>
</a>
</g>
</g>
<!-- Node3&#45;&gt;Node15 -->
<g id="edge18" class="edge">
<title>Node3&#45;&gt;Node15</title>
<path fill="none" stroke="midnightblue" d="M788.15,-238.74C776.25,-222.14 757,-197.76 736,-181 731.53,-177.44 726.29,-174.24 721.2,-171.54"/>
<polygon fill="midnightblue" stroke="midnightblue" points="785.37,-240.87 793.97,-247.06 791.11,-236.86 785.37,-240.87"/>
</g>
<!-- Node16 -->
<g id="node16" class="node">
<title>Node16</title>
<g id="a_node16"><a xlink:href="ex_8c.html#ab95c9f0f009989c44f3ebb5abae4054d" target="_top" xlink:title=" ">
<polygon fill="white" stroke="black" points="671.5,-114.5 671.5,-133.5 725.5,-133.5 725.5,-114.5 671.5,-114.5"/>
<text text-anchor="middle" x="698.5" y="-121.5" font-family="Helvetica,sans-Serif" font-size="10.00">ec_mark</text>
</a>
</g>
</g>
<!-- Node3&#45;&gt;Node16 -->
<g id="edge19" class="edge">
<title>Node3&#45;&gt;Node16</title>
<path fill="none" stroke="midnightblue" d="M793.54,-237.59C783.88,-212.95 764.36,-170.38 736,-143 732.2,-139.33 727.54,-136.19 722.85,-133.59"/>
<polygon fill="midnightblue" stroke="midnightblue" points="790.37,-239.11 797.17,-247.24 796.92,-236.65 790.37,-239.11"/>
</g>
<!-- Node17 -->
<g id="node17" class="node">
<title>Node17</title>
<g id="a_node17"><a xlink:href="ex_8c.html#affb8197a8f988443aadf1bf2800a0d0b" target="_top" xlink:title=" ">
<polygon fill="white" stroke="black" points="554.5,-57.5 554.5,-76.5 601.5,-76.5 601.5,-57.5 554.5,-57.5"/>
<text text-anchor="middle" x="578" y="-64.5" font-family="Helvetica,sans-Serif" font-size="10.00">ec_null</text>
</a>
</g>
</g>
<!-- Node3&#45;&gt;Node17 -->
<g id="edge20" class="edge">
<title>Node3&#45;&gt;Node17</title>
<path fill="none" stroke="midnightblue" d="M797.87,-237.36C792.45,-204.77 776.87,-139.67 736,-105 697.29,-72.16 634.84,-66.76 601.56,-66.42"/>
<polygon fill="midnightblue" stroke="midnightblue" points="794.44,-238.07 799.4,-247.43 801.36,-237.02 794.44,-238.07"/>
</g>
<!-- Node18 -->
<g id="node18" class="node">
<title>Node18</title>
<g id="a_node18"><a xlink:href="ex_8c.html#ad2c1a9505aa3097bac242b47a367f11d" target="_top" xlink:title=" ">
<polygon fill="white" stroke="black" points="673,-38.5 673,-57.5 724,-57.5 724,-38.5 673,-38.5"/>
<text text-anchor="middle" x="698.5" y="-45.5" font-family="Helvetica,sans-Serif" font-size="10.00">ec_print</text>
</a>
</g>
</g>
<!-- Node3&#45;&gt;Node18 -->
<g id="edge21" class="edge">
<title>Node3&#45;&gt;Node18</title>
<path fill="none" stroke="midnightblue" d="M797.81,-236.84C792.09,-200.5 775.82,-123.07 736,-72 731.52,-66.26 725.27,-61.45 719.2,-57.68"/>
<polygon fill="midnightblue" stroke="midnightblue" points="794.4,-237.72 799.31,-247.11 801.33,-236.71 794.4,-237.72"/>
</g>
<!-- Node19 -->
<g id="node19" class="node">
<title>Node19</title>
<g id="a_node19"><a xlink:href="ex_8c.html#ab417867ff867aff9f7277229990cd1b8" target="_top" xlink:title=" ">
<polygon fill="white" stroke="black" points="675.5,-0.5 675.5,-19.5 721.5,-19.5 721.5,-0.5 675.5,-0.5"/>
<text text-anchor="middle" x="698.5" y="-7.5" font-family="Helvetica,sans-Serif" font-size="10.00">ec_put</text>
</a>
</g>
</g>
<!-- Node3&#45;&gt;Node19 -->
<g id="edge23" class="edge">
<title>Node3&#45;&gt;Node19</title>
<path fill="none" stroke="midnightblue" d="M799.98,-236.83C797.87,-193.87 787.39,-92.12 736,-29 732.21,-24.35 726.98,-20.7 721.66,-17.9"/>
<polygon fill="midnightblue" stroke="midnightblue" points="796.49,-237.23 800.38,-247.09 803.49,-236.96 796.49,-237.23"/>
</g>
<!-- Node20 -->
<g id="node20" class="node">
<title>Node20</title>
<g id="a_node20"><a xlink:href="ex_8c.html#add0e79e1f1e3d45f4eaa6fbe5c1ca443" target="_top" xlink:title=" ">
<polygon fill="white" stroke="black" points="673,-342.5 673,-361.5 724,-361.5 724,-342.5 673,-342.5"/>
<text text-anchor="middle" x="698.5" y="-349.5" font-family="Helvetica,sans-Serif" font-size="10.00">ec_read</text>
</a>
</g>
</g>
<!-- Node3&#45;&gt;Node20 -->
<g id="edge24" class="edge">
<title>Node3&#45;&gt;Node20</title>
<path fill="none" stroke="midnightblue" d="M788.15,-275.26C776.25,-291.86 757,-316.24 736,-333 731.53,-336.56 726.29,-339.76 721.2,-342.46"/>
<polygon fill="midnightblue" stroke="midnightblue" points="791.11,-277.14 793.97,-266.94 785.37,-273.13 791.11,-277.14"/>
</g>
<!-- Node21 -->
<g id="node21" class="node">
<title>Node21</title>
<g id="a_node21"><a xlink:href="ex_8c.html#aaf4e813ce4370aa859181d22de51576b" target="_top" xlink:title=" ">
<polygon fill="white" stroke="black" points="661,-304.5 661,-323.5 736,-323.5 736,-304.5 661,-304.5"/>
<text text-anchor="middle" x="698.5" y="-311.5" font-family="Helvetica,sans-Serif" font-size="10.00">ec_substitute</text>
</a>
</g>
</g>
<!-- Node3&#45;&gt;Node21 -->
<g id="edge25" class="edge">
<title>Node3&#45;&gt;Node21</title>
<path fill="none" stroke="midnightblue" d="M776.15,-271.75C764.15,-278.92 749.41,-287.57 736,-295 730.38,-298.12 724.2,-301.39 718.54,-304.33"/>
<polygon fill="midnightblue" stroke="midnightblue" points="777.96,-274.75 784.73,-266.6 774.35,-268.75 777.96,-274.75"/>
</g>
<!-- Node22 -->
<g id="node22" class="node">
<title>Node22</title>
<g id="a_node22"><a xlink:href="ex_8c.html#a057b67e2d4f23df3ad50a9d3ec86125b" target="_top" xlink:title=" ">
<polygon fill="white" stroke="black" points="672,-228.5 672,-247.5 725,-247.5 725,-228.5 672,-228.5"/>
<text text-anchor="middle" x="698.5" y="-235.5" font-family="Helvetica,sans-Serif" font-size="10.00">ec_write</text>
</a>
</g>
</g>
<!-- Node3&#45;&gt;Node22 -->
<g id="edge26" class="edge">
<title>Node3&#45;&gt;Node22</title>
<path fill="none" stroke="midnightblue" d="M761.81,-249.72C749.53,-247.41 736.27,-244.92 725.14,-242.82"/>
<polygon fill="midnightblue" stroke="midnightblue" points="761.35,-253.2 771.83,-251.61 762.65,-246.32 761.35,-253.2"/>
</g>
<!-- Node27 -->
<g id="node27" class="node">
<title>Node27</title>
<g id="a_node27"><a xlink:href="ex_8c.html#a487b22f0ae712d3338f5e9d8d6fa8540" target="_top" xlink:title=" ">
<polygon fill="white" stroke="black" points="672,-266.5 672,-285.5 725,-285.5 725,-266.5 672,-266.5"/>
<text text-anchor="middle" x="698.5" y="-273.5" font-family="Helvetica,sans-Serif" font-size="10.00">ec_yank</text>
</a>
</g>
</g>
<!-- Node3&#45;&gt;Node27 -->
<g id="edge34" class="edge">
<title>Node3&#45;&gt;Node27</title>
<path fill="none" stroke="midnightblue" d="M761.81,-264.28C749.53,-266.59 736.27,-269.08 725.14,-271.18"/>
<polygon fill="midnightblue" stroke="midnightblue" points="762.65,-267.68 771.83,-262.39 761.35,-260.8 762.65,-267.68"/>
</g>
<!-- Node6 -->
<g id="node6" class="node">
<title>Node6</title>
<g id="a_node6"><a xlink:href="ex_8c.html#a7d848d20211b2e1c868dde98ec5dfae9" target="_top" xlink:title=" ">
<polygon fill="white" stroke="black" points="355.5,-372.5 355.5,-391.5 402.5,-391.5 402.5,-372.5 355.5,-372.5"/>
<text text-anchor="middle" x="379" y="-379.5" font-family="Helvetica,sans-Serif" font-size="10.00">ex_line</text>
</a>
</g>
</g>
<!-- Node5&#45;&gt;Node6 -->
<g id="edge5" class="edge">
<title>Node5&#45;&gt;Node6</title>
<path fill="none" stroke="midnightblue" d="M429.99,-382C420.7,-382 410.96,-382 402.58,-382"/>
<polygon fill="midnightblue" stroke="midnightblue" points="430.2,-385.5 440.2,-382 430.2,-378.5 430.2,-385.5"/>
</g>
<!-- Node7 -->
<g id="node7" class="node">
<title>Node7</title>
<g id="a_node7"><a xlink:href="ex_8c.html#ab15ebfef933256d9741128e2ddf3f9b5" target="_top" xlink:title=" ">
<polygon fill="white" stroke="black" points="266,-342.5 266,-361.5 319,-361.5 319,-342.5 266,-342.5"/>
<text text-anchor="middle" x="292.5" y="-349.5" font-family="Helvetica,sans-Serif" font-size="10.00">ex_exec</text>
</a>
</g>
</g>
<!-- Node6&#45;&gt;Node7 -->
<g id="edge6" class="edge">
<title>Node6&#45;&gt;Node7</title>
<path fill="none" stroke="midnightblue" d="M345.78,-370.56C336.98,-367.44 327.57,-364.1 319.19,-361.12"/>
<polygon fill="midnightblue" stroke="midnightblue" points="344.76,-373.91 355.36,-373.96 347.1,-367.32 344.76,-373.91"/>
</g>
<!-- Node7&#45;&gt;Node8 -->
<g id="edge7" class="edge">
<title>Node7&#45;&gt;Node8</title>
<path fill="none" stroke="midnightblue" d="M257.14,-365.32C244.07,-370.39 229.46,-376.06 217.54,-380.68"/>
<polygon fill="midnightblue" stroke="midnightblue" points="258.71,-368.47 266.77,-361.59 256.18,-361.94 258.71,-368.47"/>
</g>
<!-- Node9 -->
<g id="node9" class="node">
<title>Node9</title>
<g id="a_node9"><a xlink:href="vi_8h.html#aa75c73cccb4878ec06ea5bf5b1b02295" target="_top" xlink:title=" ">
<polygon fill="white" stroke="black" points="155,-342.5 155,-361.5 230,-361.5 230,-342.5 155,-342.5"/>
<text text-anchor="middle" x="192.5" y="-349.5" font-family="Helvetica,sans-Serif" font-size="10.00">ex_command</text>
</a>
</g>
</g>
<!-- Node7&#45;&gt;Node9 -->
<g id="edge9" class="edge">
<title>Node7&#45;&gt;Node9</title>
<path fill="none" stroke="midnightblue" d="M255.61,-352C247.31,-352 238.46,-352 230.13,-352"/>
<polygon fill="midnightblue" stroke="midnightblue" points="255.75,-355.5 265.75,-352 255.75,-348.5 255.75,-355.5"/>
</g>
<!-- Node8&#45;&gt;Node6 -->
<g id="edge8" class="edge">
<title>Node8&#45;&gt;Node6</title>
<path fill="none" stroke="midnightblue" d="M228.15,-388.5C265.42,-386.88 323.59,-384.36 355.38,-382.98"/>
<polygon fill="midnightblue" stroke="midnightblue" points="227.61,-385.02 217.77,-388.95 227.92,-392.01 227.61,-385.02"/>
</g>
<!-- Node10 -->
<g id="node10" class="node">
<title>Node10</title>
<g id="a_node10"><a xlink:href="vi_8h.html#ac395e51f25330a6e6033b6d0d22b2076" target="_top" xlink:title=" ">
<polygon fill="white" stroke="black" points="82,-356.5 82,-375.5 111,-375.5 111,-356.5 82,-356.5"/>
<text text-anchor="middle" x="96.5" y="-363.5" font-family="Helvetica,sans-Serif" font-size="10.00">ex</text>
</a>
</g>
</g>
<!-- Node9&#45;&gt;Node10 -->
<g id="edge10" class="edge">
<title>Node9&#45;&gt;Node10</title>
<path fill="none" stroke="midnightblue" d="M144.73,-358.97C132.54,-360.78 120.33,-362.6 111.38,-363.93"/>
<polygon fill="midnightblue" stroke="midnightblue" points="145.51,-362.39 154.89,-357.45 144.48,-355.46 145.51,-362.39"/>
</g>
<!-- Node12 -->
<g id="node12" class="node">
<title>Node12</title>
<g id="a_node12"><a xlink:href="vi_8h.html#abe53b5c10f94f20cd5ed024371615fa1" target="_top" xlink:title=" ">
<polygon fill="white" stroke="black" points="74,-318.5 74,-337.5 119,-337.5 119,-318.5 74,-318.5"/>
<text text-anchor="middle" x="96.5" y="-325.5" font-family="Helvetica,sans-Serif" font-size="10.00">ex_init</text>
</a>
</g>
</g>
<!-- Node9&#45;&gt;Node12 -->
<g id="edge12" class="edge">
<title>Node9&#45;&gt;Node12</title>
<path fill="none" stroke="midnightblue" d="M145.14,-340.16C136.08,-337.85 126.99,-335.53 119.21,-333.54"/>
<polygon fill="midnightblue" stroke="midnightblue" points="144.33,-343.57 154.89,-342.65 146.06,-336.79 144.33,-343.57"/>
</g>
<!-- Node9&#45;&gt;Node13 -->
<g id="edge14" class="edge">
<title>Node9&#45;&gt;Node13</title>
<path fill="none" stroke="midnightblue" d="M158.91,-367.33C157.52,-368.48 156.2,-369.71 155,-371 120.04,-408.57 104.28,-470.72 99.33,-494.42"/>
<polygon fill="midnightblue" stroke="midnightblue" points="161.17,-370.02 167.47,-361.5 157.23,-364.24 161.17,-370.02"/>
</g>
<!-- Node11 -->
<g id="node11" class="node">
<title>Node11</title>
<g id="a_node11"><a xlink:href="vi_8c.html#a0ddf1224851353fc92bfbff6f499fa97" target="_top" xlink:title=" ">
<polygon fill="white" stroke="black" points="0,-356.5 0,-375.5 38,-375.5 38,-356.5 0,-356.5"/>
<text text-anchor="middle" x="19" y="-363.5" font-family="Helvetica,sans-Serif" font-size="10.00">main</text>
</a>
</g>
</g>
<!-- Node10&#45;&gt;Node11 -->
<g id="edge11" class="edge">
<title>Node10&#45;&gt;Node11</title>
<path fill="none" stroke="midnightblue" d="M71.55,-366C60.69,-366 48.07,-366 38.04,-366"/>
<polygon fill="midnightblue" stroke="midnightblue" points="71.65,-369.5 81.65,-366 71.65,-362.5 71.65,-369.5"/>
</g>
<!-- Node12&#45;&gt;Node11 -->
<g id="edge13" class="edge">
<title>Node12&#45;&gt;Node11</title>
<path fill="none" stroke="midnightblue" d="M67.4,-342.14C57.57,-347.09 46.79,-352.51 38.01,-356.94"/>
<polygon fill="midnightblue" stroke="midnightblue" points="69.09,-345.21 76.45,-337.59 65.94,-338.96 69.09,-345.21"/>
</g>
<!-- Node13&#45;&gt;Node11 -->
<g id="edge15" class="edge">
<title>Node13&#45;&gt;Node11</title>
<path fill="none" stroke="midnightblue" d="M85.16,-485.11C68.89,-455.35 37.85,-398.62 25.38,-375.83"/>
<polygon fill="midnightblue" stroke="midnightblue" points="82.2,-486.98 90.07,-494.08 88.34,-483.62 82.2,-486.98"/>
</g>
<!-- Node18&#45;&gt;Node17 -->
<g id="edge22" class="edge">
<title>Node18&#45;&gt;Node17</title>
<path fill="none" stroke="midnightblue" d="M663.05,-53.52C643.23,-56.7 618.89,-60.6 601.52,-63.39"/>
<polygon fill="midnightblue" stroke="midnightblue" points="663.63,-56.98 672.95,-51.94 662.52,-50.06 663.63,-56.98"/>
</g>
<!-- Node23 -->
<g id="node23" class="node">
<title>Node23</title>
<g id="a_node23"><a xlink:href="ex_8c.html#ab0cb848a971a3b2c09fcb456d887dd6b" target="_top" xlink:title=" ">
<polygon fill="white" stroke="black" points="531,-287.5 531,-306.5 625,-306.5 625,-287.5 531,-287.5"/>
<text text-anchor="middle" x="578" y="-294.5" font-family="Helvetica,sans-Serif" font-size="10.00">ex_modifiedbuffer</text>
</a>
</g>
</g>
<!-- Node22&#45;&gt;Node23 -->
<g id="edge27" class="edge">
<title>Node22&#45;&gt;Node23</title>
<path fill="none" stroke="midnightblue" d="M669.05,-252.17C647.15,-263.07 617.49,-277.84 598.29,-287.39"/>
<polygon fill="midnightblue" stroke="midnightblue" points="670.81,-255.2 678.2,-247.61 667.69,-248.93 670.81,-255.2"/>
</g>
<!-- Node23&#45;&gt;Node5 -->
<g id="edge30" class="edge">
<title>Node23&#45;&gt;Node5</title>
<path fill="none" stroke="midnightblue" d="M556.6,-312.91C534.19,-330.39 498.91,-357.89 480.36,-372.36"/>
<polygon fill="midnightblue" stroke="midnightblue" points="558.76,-315.66 564.5,-306.75 554.46,-310.14 558.76,-315.66"/>
</g>
<!-- Node24 -->
<g id="node24" class="node">
<title>Node24</title>
<g id="a_node24"><a xlink:href="ex_8c.html#a8059390ad69866fa8e14bdb2521d4dc2" target="_top" xlink:title=" ">
<polygon fill="white" stroke="black" points="355,-290.5 355,-309.5 403,-309.5 403,-290.5 355,-290.5"/>
<text text-anchor="middle" x="379" y="-297.5" font-family="Helvetica,sans-Serif" font-size="10.00">ec_edit</text>
</a>
</g>
</g>
<!-- Node23&#45;&gt;Node24 -->
<g id="edge28" class="edge">
<title>Node23&#45;&gt;Node24</title>
<path fill="none" stroke="midnightblue" d="M520.66,-297.86C481.72,-298.45 431.95,-299.21 403.25,-299.65"/>
<polygon fill="midnightblue" stroke="midnightblue" points="520.87,-301.36 530.81,-297.7 520.76,-294.36 520.87,-301.36"/>
</g>
<!-- Node25 -->
<g id="node25" class="node">
<title>Node25</title>
<g id="a_node25"><a xlink:href="ex_8c.html#aa69f426ff9728078fbb36f448c624a90" target="_top" xlink:title=" ">
<polygon fill="white" stroke="black" points="439,-325.5 439,-344.5 495,-344.5 495,-325.5 439,-325.5"/>
<text text-anchor="middle" x="467" y="-332.5" font-family="Helvetica,sans-Serif" font-size="10.00">ec_make</text>
</a>
</g>
</g>
<!-- Node23&#45;&gt;Node25 -->
<g id="edge31" class="edge">
<title>Node23&#45;&gt;Node25</title>
<path fill="none" stroke="midnightblue" d="M539.71,-310C525.08,-315.1 508.59,-320.85 495.12,-325.55"/>
<polygon fill="midnightblue" stroke="midnightblue" points="541.2,-313.19 549.49,-306.59 538.9,-306.58 541.2,-313.19"/>
</g>
<!-- Node26 -->
<g id="node26" class="node">
<title>Node26</title>
<g id="a_node26"><a xlink:href="ex_8c.html#a87eef446de152fad41ce88a9a343b87d" target="_top" xlink:title=" ">
<polygon fill="white" stroke="black" points="443,-239.5 443,-258.5 491,-258.5 491,-239.5 443,-239.5"/>
<text text-anchor="middle" x="467" y="-246.5" font-family="Helvetica,sans-Serif" font-size="10.00">ec_quit</text>
</a>
</g>
</g>
<!-- Node23&#45;&gt;Node26 -->
<g id="edge32" class="edge">
<title>Node23&#45;&gt;Node26</title>
<path fill="none" stroke="midnightblue" d="M545.74,-283.23C527.83,-275.35 505.79,-265.64 489.76,-258.58"/>
<polygon fill="midnightblue" stroke="midnightblue" points="544.64,-286.57 555.2,-287.4 547.46,-280.17 544.64,-286.57"/>
</g>
<!-- Node24&#45;&gt;Node12 -->
<g id="edge29" class="edge">
<title>Node24&#45;&gt;Node12</title>
<path fill="none" stroke="midnightblue" d="M344.41,-303.35C286.11,-309.17 167.76,-320.99 119.12,-325.84"/>
<polygon fill="midnightblue" stroke="midnightblue" points="344.96,-306.82 354.57,-302.34 344.27,-299.85 344.96,-306.82"/>
</g>
<!-- Node26&#45;&gt;Node22 -->
<g id="edge33" class="edge">
<title>Node26&#45;&gt;Node22</title>
<path fill="none" stroke="midnightblue" d="M501.11,-247.41C547.2,-245.2 629.75,-241.25 671.62,-239.24"/>
<polygon fill="midnightblue" stroke="midnightblue" points="500.86,-243.92 491.04,-247.9 501.19,-250.91 500.86,-243.92"/>
</g>
<!-- Node28&#45;&gt;Node13 -->
<g id="edge39" class="edge">
<title>Node28&#45;&gt;Node13</title>
<path fill="none" stroke="midnightblue" d="M761.8,-542C717.59,-542 643.08,-542 579,-542 579,-542 579,-542 291.5,-542 222.86,-542 143.06,-518.81 111.43,-508.66"/>
<polygon fill="midnightblue" stroke="midnightblue" points="761.83,-545.5 771.83,-542 761.83,-538.5 761.83,-545.5"/>
</g>
<!-- Node29 -->
<g id="node29" class="node">
<title>Node29</title>
<g id="a_node29"><a xlink:href="vi_8c.html#a06cbc6eb843436a0e77e07cbab0c4538" target="_top" xlink:title=" ">
<polygon fill="white" stroke="black" points="667.5,-494.5 667.5,-513.5 729.5,-513.5 729.5,-494.5 667.5,-494.5"/>
<text text-anchor="middle" x="698.5" y="-501.5" font-family="Helvetica,sans-Serif" font-size="10.00">vc_motion</text>
</a>
</g>
</g>
<!-- Node28&#45;&gt;Node29 -->
<g id="edge37" class="edge">
<title>Node28&#45;&gt;Node29</title>
<path fill="none" stroke="midnightblue" d="M765.63,-528.88C752.28,-523.86 737.3,-518.22 724.98,-513.59"/>
<polygon fill="midnightblue" stroke="midnightblue" points="764.42,-532.17 775.01,-532.41 766.89,-525.61 764.42,-532.17"/>
</g>
<!-- Node29&#45;&gt;Node13 -->
<g id="edge38" class="edge">
<title>Node29&#45;&gt;Node13</title>
<path fill="none" stroke="midnightblue" d="M657.31,-504C611.49,-504 534.35,-504 468,-504 468,-504 468,-504 291.5,-504 223.8,-504 142.82,-504 111.14,-504"/>
<polygon fill="midnightblue" stroke="midnightblue" points="657.43,-507.5 667.43,-504 657.43,-500.5 657.43,-507.5"/>
</g>
<!-- Node30&#45;&gt;Node28 -->
<g id="edge42" class="edge">
<title>Node30&#45;&gt;Node28</title>
<path fill="none" stroke="midnightblue" d="M865.32,-517.26C852.65,-522.25 838.5,-527.82 826.84,-532.41"/>
<polygon fill="midnightblue" stroke="midnightblue" points="866.63,-520.51 874.65,-513.59 864.06,-514 866.63,-520.51"/>
</g>
<!-- Node30&#45;&gt;Node29 -->
<g id="edge41" class="edge">
<title>Node30&#45;&gt;Node29</title>
<path fill="none" stroke="midnightblue" d="M856.66,-504C818.49,-504 763.32,-504 729.52,-504"/>
<polygon fill="midnightblue" stroke="midnightblue" points="856.95,-507.5 866.95,-504 856.95,-500.5 856.95,-507.5"/>
</g>
</g>
</svg>
