<?xml version="1.0" encoding="UTF-8" standalone="no"?>
<!DOCTYPE svg PUBLIC "-//W3C//DTD SVG 1.1//EN"
 "http://www.w3.org/Graphics/SVG/1.1/DTD/svg11.dtd">
<!-- Generated by graphviz version 2.44.1 (20200629.0846)
 -->
<!-- Title: lopt_done Pages: 1 -->
<svg width="961pt" height="826pt"
 viewBox="0.00 0.00 961.00 826.00" xmlns="http://www.w3.org/2000/svg" xmlns:xlink="http://www.w3.org/1999/xlink">
<g id="graph0" class="graph" transform="scale(1 1) rotate(0) translate(4 822)">
<title>lopt_done</title>
<polygon fill="white" stroke="transparent" points="-4,4 -4,-822 957,-822 957,4 -4,4"/>
<!-- Node1 -->
<g id="node1" class="node">
<title>Node1</title>
<g id="a_node1"><a xlink:title=" ">
<polygon fill="#bfbfbf" stroke="black" points="894,-190.5 894,-209.5 953,-209.5 953,-190.5 894,-190.5"/>
<text text-anchor="middle" x="923.5" y="-197.5" font-family="Helvetica,sans-Serif" font-size="10.00">lopt_done</text>
</a>
</g>
</g>
<!-- Node2 -->
<g id="node2" class="node">
<title>Node2</title>
<g id="a_node2"><a xlink:href="vi_8h.html#a7798884a8ddfa64025d987c853619f59" target="_top" xlink:title=" ">
<polygon fill="white" stroke="black" points="799,-190.5 799,-209.5 853,-209.5 853,-190.5 799,-190.5"/>
<text text-anchor="middle" x="826" y="-197.5" font-family="Helvetica,sans-Serif" font-size="10.00">lbuf_free</text>
</a>
</g>
</g>
<!-- Node1&#45;&gt;Node2 -->
<g id="edge1" class="edge">
<title>Node1&#45;&gt;Node2</title>
<path fill="none" stroke="midnightblue" d="M883.78,-200C873.43,-200 862.51,-200 853.03,-200"/>
<polygon fill="midnightblue" stroke="midnightblue" points="883.85,-203.5 893.85,-200 883.85,-196.5 883.85,-203.5"/>
</g>
<!-- Node9 -->
<g id="node9" class="node">
<title>Node9</title>
<g id="a_node9"><a xlink:href="lbuf_8c.html#a7882079a375d5591a9f384a80a5599ff" target="_top" xlink:title=" ">
<polygon fill="white" stroke="black" points="800.5,-228.5 800.5,-247.5 851.5,-247.5 851.5,-228.5 800.5,-228.5"/>
<text text-anchor="middle" x="826" y="-235.5" font-family="Helvetica,sans-Serif" font-size="10.00">lbuf_opt</text>
</a>
</g>
</g>
<!-- Node1&#45;&gt;Node9 -->
<g id="edge9" class="edge">
<title>Node1&#45;&gt;Node9</title>
<path fill="none" stroke="midnightblue" d="M888.79,-213.41C876.35,-218.36 862.51,-223.87 851.09,-228.41"/>
<polygon fill="midnightblue" stroke="midnightblue" points="890.4,-216.54 898.4,-209.59 887.82,-210.03 890.4,-216.54"/>
</g>
<!-- Node34 -->
<g id="node34" class="node">
<title>Node34</title>
<g id="a_node34"><a xlink:href="vi_8h.html#a4a117659191738c0d848ece365ab4f5d" target="_top" xlink:title=" ">
<polygon fill="white" stroke="black" points="794,-114.5 794,-133.5 858,-133.5 858,-114.5 794,-114.5"/>
<text text-anchor="middle" x="826" y="-121.5" font-family="Helvetica,sans-Serif" font-size="10.00">lbuf_saved</text>
</a>
</g>
</g>
<!-- Node1&#45;&gt;Node34 -->
<g id="edge49" class="edge">
<title>Node1&#45;&gt;Node34</title>
<path fill="none" stroke="midnightblue" d="M902.56,-184.13C883.35,-168.85 854.95,-146.24 839,-133.55"/>
<polygon fill="midnightblue" stroke="midnightblue" points="900.4,-186.89 910.4,-190.37 904.76,-181.41 900.4,-186.89"/>
</g>
<!-- Node3 -->
<g id="node3" class="node">
<title>Node3</title>
<g id="a_node3"><a xlink:href="ex_8c.html#ad97bbe76b7cfe1a3f86e404fd876c4e1" target="_top" xlink:title=" ">
<polygon fill="white" stroke="black" points="593.5,-190.5 593.5,-209.5 650.5,-209.5 650.5,-190.5 593.5,-190.5"/>
<text text-anchor="middle" x="622" y="-197.5" font-family="Helvetica,sans-Serif" font-size="10.00">bufs_free</text>
</a>
</g>
</g>
<!-- Node2&#45;&gt;Node3 -->
<g id="edge2" class="edge">
<title>Node2&#45;&gt;Node3</title>
<path fill="none" stroke="midnightblue" d="M788.55,-200C748.94,-200 686.51,-200 650.71,-200"/>
<polygon fill="midnightblue" stroke="midnightblue" points="788.59,-203.5 798.59,-200 788.59,-196.5 788.59,-203.5"/>
</g>
<!-- Node4 -->
<g id="node4" class="node">
<title>Node4</title>
<g id="a_node4"><a xlink:href="ex_8c.html#a1857a36a25629d552700d0e3a19ce2c3" target="_top" xlink:title=" ">
<polygon fill="white" stroke="black" points="470.5,-152.5 470.5,-171.5 532.5,-171.5 532.5,-152.5 470.5,-152.5"/>
<text text-anchor="middle" x="501.5" y="-159.5" font-family="Helvetica,sans-Serif" font-size="10.00">bufs_open</text>
</a>
</g>
</g>
<!-- Node3&#45;&gt;Node4 -->
<g id="edge3" class="edge">
<title>Node3&#45;&gt;Node4</title>
<path fill="none" stroke="midnightblue" d="M583.32,-187.92C566.79,-182.62 547.67,-176.49 532.18,-171.52"/>
<polygon fill="midnightblue" stroke="midnightblue" points="582.63,-191.37 593.22,-191.09 584.76,-184.7 582.63,-191.37"/>
</g>
<!-- Node8 -->
<g id="node8" class="node">
<title>Node8</title>
<g id="a_node8"><a xlink:href="vi_8h.html#a515f0d6caaba6720f340e5b317b07080" target="_top" xlink:title=" ">
<polygon fill="white" stroke="black" points="166,-228.5 166,-247.5 219,-247.5 219,-228.5 166,-228.5"/>
<text text-anchor="middle" x="192.5" y="-235.5" font-family="Helvetica,sans-Serif" font-size="10.00">ex_done</text>
</a>
</g>
</g>
<!-- Node3&#45;&gt;Node8 -->
<g id="edge7" class="edge">
<title>Node3&#45;&gt;Node8</title>
<path fill="none" stroke="midnightblue" d="M583.05,-210.23C569.27,-213.57 553.53,-216.93 539,-219 420.35,-235.88 276.8,-237.99 219.22,-238.1"/>
<polygon fill="midnightblue" stroke="midnightblue" points="584.29,-213.53 593.14,-207.72 582.59,-206.74 584.29,-213.53"/>
</g>
<!-- Node5 -->
<g id="node5" class="node">
<title>Node5</title>
<g id="a_node5"><a xlink:href="ex_8c.html#a8059390ad69866fa8e14bdb2521d4dc2" target="_top" xlink:title=" ">
<polygon fill="white" stroke="black" points="373,-114.5 373,-133.5 421,-133.5 421,-114.5 373,-114.5"/>
<text text-anchor="middle" x="397" y="-121.5" font-family="Helvetica,sans-Serif" font-size="10.00">ec_edit</text>
</a>
</g>
</g>
<!-- Node4&#45;&gt;Node5 -->
<g id="edge4" class="edge">
<title>Node4&#45;&gt;Node5</title>
<path fill="none" stroke="midnightblue" d="M464.93,-148.81C450.39,-143.42 433.99,-137.34 421.06,-132.55"/>
<polygon fill="midnightblue" stroke="midnightblue" points="464.04,-152.22 474.63,-152.41 466.48,-145.65 464.04,-152.22"/>
</g>
<!-- Node6 -->
<g id="node6" class="node">
<title>Node6</title>
<g id="a_node6"><a xlink:href="vi_8h.html#abe53b5c10f94f20cd5ed024371615fa1" target="_top" xlink:title=" ">
<polygon fill="white" stroke="black" points="74,-152.5 74,-171.5 119,-171.5 119,-152.5 74,-152.5"/>
<text text-anchor="middle" x="96.5" y="-159.5" font-family="Helvetica,sans-Serif" font-size="10.00">ex_init</text>
</a>
</g>
</g>
<!-- Node5&#45;&gt;Node6 -->
<g id="edge5" class="edge">
<title>Node5&#45;&gt;Node6</title>
<path fill="none" stroke="midnightblue" d="M362.64,-124.11C315.81,-124.83 228.09,-128.27 155,-143 142.84,-145.45 129.67,-149.68 119.01,-153.53"/>
<polygon fill="midnightblue" stroke="midnightblue" points="362.86,-127.61 372.82,-123.99 362.78,-120.61 362.86,-127.61"/>
</g>
<!-- Node7 -->
<g id="node7" class="node">
<title>Node7</title>
<g id="a_node7"><a xlink:href="vi_8c.html#a0ddf1224851353fc92bfbff6f499fa97" target="_top" xlink:title=" ">
<polygon fill="white" stroke="black" points="0,-209.5 0,-228.5 38,-228.5 38,-209.5 0,-209.5"/>
<text text-anchor="middle" x="19" y="-216.5" font-family="Helvetica,sans-Serif" font-size="10.00">main</text>
</a>
</g>
</g>
<!-- Node6&#45;&gt;Node7 -->
<g id="edge6" class="edge">
<title>Node6&#45;&gt;Node7</title>
<path fill="none" stroke="midnightblue" d="M74.46,-177.88C61.01,-188.04 44.01,-200.87 32.62,-209.47"/>
<polygon fill="midnightblue" stroke="midnightblue" points="76.82,-180.49 82.69,-171.67 72.6,-174.9 76.82,-180.49"/>
</g>
<!-- Node8&#45;&gt;Node7 -->
<g id="edge8" class="edge">
<title>Node8&#45;&gt;Node7</title>
<path fill="none" stroke="midnightblue" d="M155.8,-234.04C120.04,-230.08 66.42,-224.14 38.45,-221.04"/>
<polygon fill="midnightblue" stroke="midnightblue" points="155.5,-237.53 165.82,-235.16 156.27,-230.58 155.5,-237.53"/>
</g>
<!-- Node10 -->
<g id="node10" class="node">
<title>Node10</title>
<g id="a_node10"><a xlink:href="vi_8h.html#ace23fcf99b4a5bb0e4da7bfbeb292a7d" target="_top" xlink:title=" ">
<polygon fill="white" stroke="black" points="595.5,-494.5 595.5,-513.5 648.5,-513.5 648.5,-494.5 595.5,-494.5"/>
<text text-anchor="middle" x="622" y="-501.5" font-family="Helvetica,sans-Serif" font-size="10.00">lbuf_edit</text>
</a>
</g>
</g>
<!-- Node9&#45;&gt;Node10 -->
<g id="edge10" class="edge">
<title>Node9&#45;&gt;Node10</title>
<path fill="none" stroke="midnightblue" d="M811.32,-256.01C772.07,-307.7 659.96,-455.33 630.28,-494.41"/>
<polygon fill="midnightblue" stroke="midnightblue" points="814.31,-257.86 817.57,-247.78 808.74,-253.63 814.31,-257.86"/>
</g>
<!-- Node11 -->
<g id="node11" class="node">
<title>Node11</title>
<g id="a_node11"><a xlink:href="ex_8c.html#a4cd0748447515b7a935e4bb41424a9e4" target="_top" xlink:title=" ">
<polygon fill="white" stroke="black" points="472,-798.5 472,-817.5 531,-817.5 531,-798.5 472,-798.5"/>
<text text-anchor="middle" x="501.5" y="-805.5" font-family="Helvetica,sans-Serif" font-size="10.00">ec_delete</text>
</a>
</g>
</g>
<!-- Node10&#45;&gt;Node11 -->
<g id="edge11" class="edge">
<title>Node10&#45;&gt;Node11</title>
<path fill="none" stroke="midnightblue" d="M620.49,-523.68C618.21,-573.65 605.83,-707.28 539,-789 535.92,-792.76 531.91,-795.86 527.67,-798.39"/>
<polygon fill="midnightblue" stroke="midnightblue" points="623.99,-523.71 620.86,-513.59 617,-523.45 623.99,-523.71"/>
</g>
<!-- Node12 -->
<g id="node12" class="node">
<title>Node12</title>
<g id="a_node12"><a xlink:href="ex_8c.html#adcd83f163f659bd2596bcfc25d74bde9" target="_top" xlink:title=" ">
<polygon fill="white" stroke="black" points="475,-190.5 475,-209.5 528,-209.5 528,-190.5 475,-190.5"/>
<text text-anchor="middle" x="501.5" y="-197.5" font-family="Helvetica,sans-Serif" font-size="10.00">ec_exec</text>
</a>
</g>
</g>
<!-- Node10&#45;&gt;Node12 -->
<g id="edge12" class="edge">
<title>Node10&#45;&gt;Node12</title>
<path fill="none" stroke="midnightblue" d="M616.26,-484.33C605.58,-441.64 577.57,-337.86 539,-257 530.6,-239.39 517.75,-220.65 509.75,-209.65"/>
<polygon fill="midnightblue" stroke="midnightblue" points="612.91,-485.37 618.7,-494.25 619.71,-483.7 612.91,-485.37"/>
</g>
<!-- Node19 -->
<g id="node19" class="node">
<title>Node19</title>
<g id="a_node19"><a xlink:href="ex_8c.html#a0908784dc65be2da119a6b72ef96dec2" target="_top" xlink:title=" ">
<polygon fill="white" stroke="black" points="473.5,-760.5 473.5,-779.5 529.5,-779.5 529.5,-760.5 473.5,-760.5"/>
<text text-anchor="middle" x="501.5" y="-767.5" font-family="Helvetica,sans-Serif" font-size="10.00">ec_insert</text>
</a>
</g>
</g>
<!-- Node10&#45;&gt;Node19 -->
<g id="edge23" class="edge">
<title>Node10&#45;&gt;Node19</title>
<path fill="none" stroke="midnightblue" d="M619.43,-523.75C614.85,-569.06 597.89,-681.88 539,-751 535.85,-754.7 531.8,-757.77 527.54,-760.29"/>
<polygon fill="midnightblue" stroke="midnightblue" points="622.91,-524.03 620.34,-513.76 615.94,-523.4 622.91,-524.03"/>
</g>
<!-- Node20 -->
<g id="node20" class="node">
<title>Node20</title>
<g id="a_node20"><a xlink:href="ex_8c.html#ab417867ff867aff9f7277229990cd1b8" target="_top" xlink:title=" ">
<polygon fill="white" stroke="black" points="478.5,-722.5 478.5,-741.5 524.5,-741.5 524.5,-722.5 478.5,-722.5"/>
<text text-anchor="middle" x="501.5" y="-729.5" font-family="Helvetica,sans-Serif" font-size="10.00">ec_put</text>
</a>
</g>
</g>
<!-- Node10&#45;&gt;Node20 -->
<g id="edge24" class="edge">
<title>Node10&#45;&gt;Node20</title>
<path fill="none" stroke="midnightblue" d="M617.25,-523.55C608.98,-562.39 586.08,-650.46 539,-708 534.29,-713.75 527.84,-718.62 521.67,-722.43"/>
<polygon fill="midnightblue" stroke="midnightblue" points="620.72,-524.06 619.28,-513.57 613.86,-522.67 620.72,-524.06"/>
</g>
<!-- Node21 -->
<g id="node21" class="node">
<title>Node21</title>
<g id="a_node21"><a xlink:href="ex_8c.html#add0e79e1f1e3d45f4eaa6fbe5c1ca443" target="_top" xlink:title=" ">
<polygon fill="white" stroke="black" points="371.5,-285.5 371.5,-304.5 422.5,-304.5 422.5,-285.5 371.5,-285.5"/>
<text text-anchor="middle" x="397" y="-292.5" font-family="Helvetica,sans-Serif" font-size="10.00">ec_read</text>
</a>
</g>
</g>
<!-- Node10&#45;&gt;Node21 -->
<g id="edge25" class="edge">
<title>Node10&#45;&gt;Node21</title>
<path fill="none" stroke="midnightblue" d="M616.8,-484.69C608.27,-450.12 585.65,-377.61 539,-338 505.45,-309.51 453.33,-299.89 422.74,-296.65"/>
<polygon fill="midnightblue" stroke="midnightblue" points="613.4,-485.54 619.08,-494.48 620.22,-483.95 613.4,-485.54"/>
</g>
<!-- Node22 -->
<g id="node22" class="node">
<title>Node22</title>
<g id="a_node22"><a xlink:href="ex_8c.html#aaf4e813ce4370aa859181d22de51576b" target="_top" xlink:title=" ">
<polygon fill="white" stroke="black" points="464,-646.5 464,-665.5 539,-665.5 539,-646.5 464,-646.5"/>
<text text-anchor="middle" x="501.5" y="-653.5" font-family="Helvetica,sans-Serif" font-size="10.00">ec_substitute</text>
</a>
</g>
</g>
<!-- Node10&#45;&gt;Node22 -->
<g id="edge26" class="edge">
<title>Node10&#45;&gt;Node22</title>
<path fill="none" stroke="midnightblue" d="M612.07,-522.95C598.86,-549.58 572.08,-598.52 539,-632 533.56,-637.5 526.66,-642.43 520.33,-646.37"/>
<polygon fill="midnightblue" stroke="midnightblue" points="615.38,-524.15 616.6,-513.62 609.08,-521.09 615.38,-524.15"/>
</g>
<!-- Node23 -->
<g id="node23" class="node">
<title>Node23</title>
<g id="a_node23"><a xlink:href="vi_8h.html#a73da27946270b153994b708a93095bc6" target="_top" xlink:title=" ">
<polygon fill="white" stroke="black" points="478.5,-266.5 478.5,-285.5 524.5,-285.5 524.5,-266.5 478.5,-266.5"/>
<text text-anchor="middle" x="501.5" y="-273.5" font-family="Helvetica,sans-Serif" font-size="10.00">lbuf_rd</text>
</a>
</g>
</g>
<!-- Node10&#45;&gt;Node23 -->
<g id="edge27" class="edge">
<title>Node10&#45;&gt;Node23</title>
<path fill="none" stroke="midnightblue" d="M617.25,-484.45C608.98,-445.61 586.08,-357.54 539,-300 534.29,-294.25 527.84,-289.38 521.67,-285.57"/>
<polygon fill="midnightblue" stroke="midnightblue" points="613.86,-485.33 619.28,-494.43 620.72,-483.94 613.86,-485.33"/>
</g>
<!-- Node24 -->
<g id="node24" class="node">
<title>Node24</title>
<g id="a_node24"><a xlink:href="vi_8c.html#a8bb357a77ed61da8858f138c6fa672a6" target="_top" xlink:title=" ">
<polygon fill="white" stroke="black" points="270,-380.5 270,-399.5 326,-399.5 326,-380.5 270,-380.5"/>
<text text-anchor="middle" x="298" y="-387.5" font-family="Helvetica,sans-Serif" font-size="10.00">vc_insert</text>
</a>
</g>
</g>
<!-- Node10&#45;&gt;Node24 -->
<g id="edge30" class="edge">
<title>Node10&#45;&gt;Node24</title>
<path fill="none" stroke="midnightblue" d="M611.02,-485.34C597.84,-462.83 572.35,-425.89 539,-409 469.09,-373.59 372.84,-379.86 326.34,-385.75"/>
<polygon fill="midnightblue" stroke="midnightblue" points="608.09,-487.28 616.04,-494.28 614.19,-483.85 608.09,-487.28"/>
</g>
<!-- Node25 -->
<g id="node25" class="node">
<title>Node25</title>
<g id="a_node25"><a xlink:href="vi_8c.html#a3d105f7bfebd8365af5b66d6dedf184e" target="_top" xlink:title=" ">
<polygon fill="white" stroke="black" points="274.5,-342.5 274.5,-361.5 321.5,-361.5 321.5,-342.5 274.5,-342.5"/>
<text text-anchor="middle" x="298" y="-349.5" font-family="Helvetica,sans-Serif" font-size="10.00">vc_join</text>
</a>
</g>
</g>
<!-- Node10&#45;&gt;Node25 -->
<g id="edge32" class="edge">
<title>Node10&#45;&gt;Node25</title>
<path fill="none" stroke="midnightblue" d="M614.12,-484.91C603.01,-457.11 578.31,-406.2 539,-382 469.27,-339.08 366.52,-344.14 321.51,-348.99"/>
<polygon fill="midnightblue" stroke="midnightblue" points="610.88,-486.23 617.71,-494.32 617.42,-483.73 610.88,-486.23"/>
</g>
<!-- Node26 -->
<g id="node26" class="node">
<title>Node26</title>
<g id="a_node26"><a xlink:href="vi_8c.html#a7611a5bcfe4c4ddc58233c4c52a8fa16" target="_top" xlink:title=" ">
<polygon fill="white" stroke="black" points="169.5,-619.5 169.5,-638.5 215.5,-638.5 215.5,-619.5 169.5,-619.5"/>
<text text-anchor="middle" x="192.5" y="-626.5" font-family="Helvetica,sans-Serif" font-size="10.00">vc_put</text>
</a>
</g>
</g>
<!-- Node10&#45;&gt;Node26 -->
<g id="edge34" class="edge">
<title>Node10&#45;&gt;Node26</title>
<path fill="none" stroke="midnightblue" d="M618.32,-523.8C612.08,-561.12 592.78,-641.14 539,-675 430.43,-743.34 264.74,-666.95 210.99,-638.67"/>
<polygon fill="midnightblue" stroke="midnightblue" points="621.81,-524.1 619.86,-513.69 614.89,-523.05 621.81,-524.1"/>
</g>
<!-- Node27 -->
<g id="node27" class="node">
<title>Node27</title>
<g id="a_node27"><a xlink:href="vi_8c.html#a3635843354dbb31e3c00efcd5798535a" target="_top" xlink:title=" ">
<polygon fill="white" stroke="black" points="266,-577.5 266,-596.5 330,-596.5 330,-577.5 266,-577.5"/>
<text text-anchor="middle" x="298" y="-584.5" font-family="Helvetica,sans-Serif" font-size="10.00">vc_replace</text>
</a>
</g>
</g>
<!-- Node10&#45;&gt;Node27 -->
<g id="edge36" class="edge">
<title>Node10&#45;&gt;Node27</title>
<path fill="none" stroke="midnightblue" d="M611.42,-522.74C598.52,-545.67 573.17,-583.36 539,-599 468.64,-631.22 374.23,-610.44 327.57,-596.56"/>
<polygon fill="midnightblue" stroke="midnightblue" points="614.66,-524.12 616.32,-513.65 608.49,-520.8 614.66,-524.12"/>
</g>
<!-- Node28 -->
<g id="node28" class="node">
<title>Node28</title>
<g id="a_node28"><a xlink:href="vi_8c.html#a4e8a00c8cdffacf0c69c3901cdcdf059" target="_top" xlink:title=" ">
<polygon fill="white" stroke="black" points="476.5,-418.5 476.5,-437.5 526.5,-437.5 526.5,-418.5 476.5,-418.5"/>
<text text-anchor="middle" x="501.5" y="-425.5" font-family="Helvetica,sans-Serif" font-size="10.00">vi_case</text>
</a>
</g>
</g>
<!-- Node10&#45;&gt;Node28 -->
<g id="edge38" class="edge">
<title>Node10&#45;&gt;Node28</title>
<path fill="none" stroke="midnightblue" d="M600.01,-488.3C583.73,-476.4 560.41,-459.94 539,-447 533.62,-443.75 527.63,-440.49 522.08,-437.61"/>
<polygon fill="midnightblue" stroke="midnightblue" points="598.15,-491.28 608.27,-494.39 602.3,-485.64 598.15,-491.28"/>
</g>
<!-- Node30 -->
<g id="node30" class="node">
<title>Node30</title>
<g id="a_node30"><a xlink:href="vi_8c.html#ae37b094c3bb647d8c1a4ac4e858ce518" target="_top" xlink:title=" ">
<polygon fill="white" stroke="black" points="471,-570.5 471,-589.5 532,-589.5 532,-570.5 471,-570.5"/>
<text text-anchor="middle" x="501.5" y="-577.5" font-family="Helvetica,sans-Serif" font-size="10.00">vi_change</text>
</a>
</g>
</g>
<!-- Node10&#45;&gt;Node30 -->
<g id="edge41" class="edge">
<title>Node10&#45;&gt;Node30</title>
<path fill="none" stroke="midnightblue" d="M600.01,-519.7C583.73,-531.6 560.41,-548.06 539,-561 533.62,-564.25 527.63,-567.51 522.08,-570.39"/>
<polygon fill="midnightblue" stroke="midnightblue" points="602.3,-522.36 608.27,-513.61 598.15,-516.72 602.3,-522.36"/>
</g>
<!-- Node31 -->
<g id="node31" class="node">
<title>Node31</title>
<g id="a_node31"><a xlink:href="vi_8c.html#abfa30fc2e2b4b8b24e2ee5d4bd54f2eb" target="_top" xlink:title=" ">
<polygon fill="white" stroke="black" points="473.5,-532.5 473.5,-551.5 529.5,-551.5 529.5,-532.5 473.5,-532.5"/>
<text text-anchor="middle" x="501.5" y="-539.5" font-family="Helvetica,sans-Serif" font-size="10.00">vi_delete</text>
</a>
</g>
</g>
<!-- Node10&#45;&gt;Node31 -->
<g id="edge43" class="edge">
<title>Node10&#45;&gt;Node31</title>
<path fill="none" stroke="midnightblue" d="M585.76,-515.3C567.86,-521.04 546.44,-527.91 529.81,-533.24"/>
<polygon fill="midnightblue" stroke="midnightblue" points="586.83,-518.63 595.29,-512.25 584.7,-511.97 586.83,-518.63"/>
</g>
<!-- Node32 -->
<g id="node32" class="node">
<title>Node32</title>
<g id="a_node32"><a xlink:href="vi_8c.html#ab8e0c9b9d2ef5161c6a3a8828606df5f" target="_top" xlink:title=" ">
<polygon fill="white" stroke="black" points="478,-494.5 478,-513.5 525,-513.5 525,-494.5 478,-494.5"/>
<text text-anchor="middle" x="501.5" y="-501.5" font-family="Helvetica,sans-Serif" font-size="10.00">vi_pipe</text>
</a>
</g>
</g>
<!-- Node10&#45;&gt;Node32 -->
<g id="edge45" class="edge">
<title>Node10&#45;&gt;Node32</title>
<path fill="none" stroke="midnightblue" d="M585.25,-504C565.81,-504 542.33,-504 525.36,-504"/>
<polygon fill="midnightblue" stroke="midnightblue" points="585.29,-507.5 595.29,-504 585.29,-500.5 585.29,-507.5"/>
</g>
<!-- Node33 -->
<g id="node33" class="node">
<title>Node33</title>
<g id="a_node33"><a xlink:href="vi_8c.html#a48860be78b002b73335ae1b47dd56929" target="_top" xlink:title=" ">
<polygon fill="white" stroke="black" points="477.5,-456.5 477.5,-475.5 525.5,-475.5 525.5,-456.5 477.5,-456.5"/>
<text text-anchor="middle" x="501.5" y="-463.5" font-family="Helvetica,sans-Serif" font-size="10.00">vi_shift</text>
</a>
</g>
</g>
<!-- Node10&#45;&gt;Node33 -->
<g id="edge47" class="edge">
<title>Node10&#45;&gt;Node33</title>
<path fill="none" stroke="midnightblue" d="M585.59,-492.64C566.23,-486.44 542.79,-478.92 525.75,-473.46"/>
<polygon fill="midnightblue" stroke="midnightblue" points="584.7,-496.03 595.29,-495.75 586.83,-489.37 584.7,-496.03"/>
</g>
<!-- Node13 -->
<g id="node13" class="node">
<title>Node13</title>
<g id="a_node13"><a xlink:href="ex_8c.html#a7d848d20211b2e1c868dde98ec5dfae9" target="_top" xlink:title=" ">
<polygon fill="white" stroke="black" points="373.5,-190.5 373.5,-209.5 420.5,-209.5 420.5,-190.5 373.5,-190.5"/>
<text text-anchor="middle" x="397" y="-197.5" font-family="Helvetica,sans-Serif" font-size="10.00">ex_line</text>
</a>
</g>
</g>
<!-- Node12&#45;&gt;Node13 -->
<g id="edge13" class="edge">
<title>Node12&#45;&gt;Node13</title>
<path fill="none" stroke="midnightblue" d="M464.69,-200C450.13,-200 433.72,-200 420.83,-200"/>
<polygon fill="midnightblue" stroke="midnightblue" points="464.9,-203.5 474.9,-200 464.9,-196.5 464.9,-203.5"/>
</g>
<!-- Node14 -->
<g id="node14" class="node">
<title>Node14</title>
<g id="a_node14"><a xlink:href="ex_8c.html#ab15ebfef933256d9741128e2ddf3f9b5" target="_top" xlink:title=" ">
<polygon fill="white" stroke="black" points="271.5,-152.5 271.5,-171.5 324.5,-171.5 324.5,-152.5 271.5,-152.5"/>
<text text-anchor="middle" x="298" y="-159.5" font-family="Helvetica,sans-Serif" font-size="10.00">ex_exec</text>
</a>
</g>
</g>
<!-- Node13&#45;&gt;Node14 -->
<g id="edge14" class="edge">
<title>Node13&#45;&gt;Node14</title>
<path fill="none" stroke="midnightblue" d="M363.45,-187.25C350.4,-182.14 335.63,-176.35 323.52,-171.61"/>
<polygon fill="midnightblue" stroke="midnightblue" points="362.42,-190.61 373.01,-190.99 364.98,-184.09 362.42,-190.61"/>
</g>
<!-- Node15 -->
<g id="node15" class="node">
<title>Node15</title>
<g id="a_node15"><a xlink:href="ex_8c.html#a70c571bdde329a65e216c19b4aeaa628" target="_top" xlink:title=" ">
<polygon fill="white" stroke="black" points="167.5,-190.5 167.5,-209.5 217.5,-209.5 217.5,-190.5 167.5,-190.5"/>
<text text-anchor="middle" x="192.5" y="-197.5" font-family="Helvetica,sans-Serif" font-size="10.00">ec_glob</text>
</a>
</g>
</g>
<!-- Node14&#45;&gt;Node15 -->
<g id="edge15" class="edge">
<title>Node14&#45;&gt;Node15</title>
<path fill="none" stroke="midnightblue" d="M261.75,-174.94C247.26,-180.26 230.83,-186.29 217.72,-191.11"/>
<polygon fill="midnightblue" stroke="midnightblue" points="263.23,-178.13 271.42,-171.39 260.82,-171.55 263.23,-178.13"/>
</g>
<!-- Node16 -->
<g id="node16" class="node">
<title>Node16</title>
<g id="a_node16"><a xlink:href="vi_8h.html#aa75c73cccb4878ec06ea5bf5b1b02295" target="_top" xlink:title=" ">
<polygon fill="white" stroke="black" points="155,-152.5 155,-171.5 230,-171.5 230,-152.5 155,-152.5"/>
<text text-anchor="middle" x="192.5" y="-159.5" font-family="Helvetica,sans-Serif" font-size="10.00">ex_command</text>
</a>
</g>
</g>
<!-- Node14&#45;&gt;Node16 -->
<g id="edge17" class="edge">
<title>Node14&#45;&gt;Node16</title>
<path fill="none" stroke="midnightblue" d="M261.31,-162C251.23,-162 240.25,-162 230.12,-162"/>
<polygon fill="midnightblue" stroke="midnightblue" points="261.42,-165.5 271.42,-162 261.42,-158.5 261.42,-165.5"/>
</g>
<!-- Node15&#45;&gt;Node13 -->
<g id="edge16" class="edge">
<title>Node15&#45;&gt;Node13</title>
<path fill="none" stroke="midnightblue" d="M227.66,-200C269.06,-200 337.67,-200 373.16,-200"/>
<polygon fill="midnightblue" stroke="midnightblue" points="227.51,-196.5 217.51,-200 227.51,-203.5 227.51,-196.5"/>
</g>
<!-- Node16&#45;&gt;Node6 -->
<g id="edge20" class="edge">
<title>Node16&#45;&gt;Node6</title>
<path fill="none" stroke="midnightblue" d="M144.85,-162C135.89,-162 126.91,-162 119.21,-162"/>
<polygon fill="midnightblue" stroke="midnightblue" points="144.89,-165.5 154.89,-162 144.89,-158.5 144.89,-165.5"/>
</g>
<!-- Node17 -->
<g id="node17" class="node">
<title>Node17</title>
<g id="a_node17"><a xlink:href="vi_8h.html#ac395e51f25330a6e6033b6d0d22b2076" target="_top" xlink:title=" ">
<polygon fill="white" stroke="black" points="82,-190.5 82,-209.5 111,-209.5 111,-190.5 82,-190.5"/>
<text text-anchor="middle" x="96.5" y="-197.5" font-family="Helvetica,sans-Serif" font-size="10.00">ex</text>
</a>
</g>
</g>
<!-- Node16&#45;&gt;Node17 -->
<g id="edge18" class="edge">
<title>Node16&#45;&gt;Node17</title>
<path fill="none" stroke="midnightblue" d="M158.07,-175.52C141.85,-182.07 123.28,-189.58 111.02,-194.53"/>
<polygon fill="midnightblue" stroke="midnightblue" points="159.82,-178.58 167.78,-171.59 157.2,-172.09 159.82,-178.58"/>
</g>
<!-- Node18 -->
<g id="node18" class="node">
<title>Node18</title>
<g id="a_node18"><a xlink:href="vi_8c.html#a8d808e0f3453afe6600673ee1ea5f828" target="_top" xlink:title=" ">
<polygon fill="white" stroke="black" points="82,-380.5 82,-399.5 111,-399.5 111,-380.5 82,-380.5"/>
<text text-anchor="middle" x="96.5" y="-387.5" font-family="Helvetica,sans-Serif" font-size="10.00">vi</text>
</a>
</g>
</g>
<!-- Node16&#45;&gt;Node18 -->
<g id="edge21" class="edge">
<title>Node16&#45;&gt;Node18</title>
<path fill="none" stroke="midnightblue" d="M158.12,-177.65C157,-178.7 155.95,-179.82 155,-181 104.15,-243.93 98.15,-348.57 97.54,-380.48"/>
<polygon fill="midnightblue" stroke="midnightblue" points="160.36,-180.35 166.3,-171.58 156.18,-174.73 160.36,-180.35"/>
</g>
<!-- Node17&#45;&gt;Node7 -->
<g id="edge19" class="edge">
<title>Node17&#45;&gt;Node7</title>
<path fill="none" stroke="midnightblue" d="M71.89,-205.94C60.95,-208.69 48.18,-211.91 38.04,-214.46"/>
<polygon fill="midnightblue" stroke="midnightblue" points="72.81,-209.32 81.65,-203.48 71.1,-202.53 72.81,-209.32"/>
</g>
<!-- Node18&#45;&gt;Node7 -->
<g id="edge22" class="edge">
<title>Node18&#45;&gt;Node7</title>
<path fill="none" stroke="midnightblue" d="M87.02,-370.8C70.88,-334.24 36.27,-255.84 24.23,-228.58"/>
<polygon fill="midnightblue" stroke="midnightblue" points="83.98,-372.58 91.22,-380.32 90.39,-369.75 83.98,-372.58"/>
</g>
<!-- Node23&#45;&gt;Node5 -->
<g id="edge28" class="edge">
<title>Node23&#45;&gt;Node5</title>
<path fill="none" stroke="midnightblue" d="M488.34,-257.97C466.46,-225.52 421.16,-158.35 404.41,-133.5"/>
<polygon fill="midnightblue" stroke="midnightblue" points="485.6,-260.16 494.09,-266.49 491.4,-256.24 485.6,-260.16"/>
</g>
<!-- Node23&#45;&gt;Node21 -->
<g id="edge29" class="edge">
<title>Node23&#45;&gt;Node21</title>
<path fill="none" stroke="midnightblue" d="M468.08,-282.01C453.4,-284.73 436.33,-287.89 422.71,-290.42"/>
<polygon fill="midnightblue" stroke="midnightblue" points="469.06,-285.39 478.26,-280.12 467.79,-278.5 469.06,-285.39"/>
</g>
<!-- Node24&#45;&gt;Node18 -->
<g id="edge31" class="edge">
<title>Node24&#45;&gt;Node18</title>
<path fill="none" stroke="midnightblue" d="M259.41,-390C214.33,-390 141.06,-390 111.01,-390"/>
<polygon fill="midnightblue" stroke="midnightblue" points="259.68,-393.5 269.68,-390 259.68,-386.5 259.68,-393.5"/>
</g>
<!-- Node25&#45;&gt;Node18 -->
<g id="edge33" class="edge">
<title>Node25&#45;&gt;Node18</title>
<path fill="none" stroke="midnightblue" d="M264.1,-358.27C219.68,-366.73 142.49,-381.43 111.23,-387.38"/>
<polygon fill="midnightblue" stroke="midnightblue" points="264.95,-361.67 274.11,-356.36 263.64,-354.79 264.95,-361.67"/>
</g>
<!-- Node26&#45;&gt;Node18 -->
<g id="edge35" class="edge">
<title>Node26&#45;&gt;Node18</title>
<path fill="none" stroke="midnightblue" d="M183.59,-610.06C176.11,-592.08 164.63,-564.27 155,-540 134.02,-487.11 109.96,-423.26 101.06,-399.51"/>
<polygon fill="midnightblue" stroke="midnightblue" points="180.41,-611.53 187.48,-619.42 186.87,-608.84 180.41,-611.53"/>
</g>
<!-- Node27&#45;&gt;Node18 -->
<g id="edge37" class="edge">
<title>Node27&#45;&gt;Node18</title>
<path fill="none" stroke="midnightblue" d="M274.27,-571.38C244.83,-550.51 192.82,-511.47 155,-471 133.1,-447.56 112.67,-415.42 103.13,-399.6"/>
<polygon fill="midnightblue" stroke="midnightblue" points="272.44,-574.37 282.64,-577.25 276.46,-568.64 272.44,-574.37"/>
</g>
<!-- Node29 -->
<g id="node29" class="node">
<title>Node29</title>
<g id="a_node29"><a xlink:href="vi_8c.html#a06cbc6eb843436a0e77e07cbab0c4538" target="_top" xlink:title=" ">
<polygon fill="white" stroke="black" points="366,-475.5 366,-494.5 428,-494.5 428,-475.5 366,-475.5"/>
<text text-anchor="middle" x="397" y="-482.5" font-family="Helvetica,sans-Serif" font-size="10.00">vc_motion</text>
</a>
</g>
</g>
<!-- Node28&#45;&gt;Node29 -->
<g id="edge39" class="edge">
<title>Node28&#45;&gt;Node29</title>
<path fill="none" stroke="midnightblue" d="M472.93,-442.19C469.91,-443.8 466.88,-445.42 464,-447 446.84,-456.4 427.46,-467.63 414.17,-475.44"/>
<polygon fill="midnightblue" stroke="midnightblue" points="474.62,-445.26 481.85,-437.51 471.37,-439.06 474.62,-445.26"/>
</g>
<!-- Node29&#45;&gt;Node18 -->
<g id="edge40" class="edge">
<title>Node29&#45;&gt;Node18</title>
<path fill="none" stroke="midnightblue" d="M356.13,-472.31C288.4,-450.76 154.05,-408 111.06,-394.32"/>
<polygon fill="midnightblue" stroke="midnightblue" points="355.42,-475.76 366.01,-475.46 357.54,-469.09 355.42,-475.76"/>
</g>
<!-- Node30&#45;&gt;Node29 -->
<g id="edge42" class="edge">
<title>Node30&#45;&gt;Node29</title>
<path fill="none" stroke="midnightblue" d="M469.78,-565.13C467.77,-563.82 465.82,-562.44 464,-561 438.75,-541.09 415.7,-510.54 404.73,-494.93"/>
<polygon fill="midnightblue" stroke="midnightblue" points="468.43,-568.39 478.83,-570.43 471.97,-562.35 468.43,-568.39"/>
</g>
<!-- Node31&#45;&gt;Node29 -->
<g id="edge44" class="edge">
<title>Node31&#45;&gt;Node29</title>
<path fill="none" stroke="midnightblue" d="M472.93,-527.81C469.91,-526.2 466.88,-524.58 464,-523 446.84,-513.6 427.46,-502.37 414.17,-494.56"/>
<polygon fill="midnightblue" stroke="midnightblue" points="471.37,-530.94 481.85,-532.49 474.62,-524.74 471.37,-530.94"/>
</g>
<!-- Node32&#45;&gt;Node29 -->
<g id="edge46" class="edge">
<title>Node32&#45;&gt;Node29</title>
<path fill="none" stroke="midnightblue" d="M467.58,-497.9C454.9,-495.55 440.48,-492.87 428.08,-490.58"/>
<polygon fill="midnightblue" stroke="midnightblue" points="467.28,-501.4 477.75,-499.78 468.56,-494.52 467.28,-501.4"/>
</g>
<!-- Node33&#45;&gt;Node29 -->
<g id="edge48" class="edge">
<title>Node33&#45;&gt;Node29</title>
<path fill="none" stroke="midnightblue" d="M467.42,-472.13C454.85,-474.46 440.62,-477.1 428.32,-479.38"/>
<polygon fill="midnightblue" stroke="midnightblue" points="468.3,-475.53 477.5,-470.26 467.03,-468.65 468.3,-475.53"/>
</g>
<!-- Node34&#45;&gt;Node5 -->
<g id="edge50" class="edge">
<title>Node34&#45;&gt;Node5</title>
<path fill="none" stroke="midnightblue" d="M783.76,-124C695.37,-124 490.09,-124 421.09,-124"/>
<polygon fill="midnightblue" stroke="midnightblue" points="783.95,-127.5 793.95,-124 783.95,-120.5 783.95,-127.5"/>
</g>
<!-- Node35 -->
<g id="node35" class="node">
<title>Node35</title>
<g id="a_node35"><a xlink:href="ex_8c.html#a057b67e2d4f23df3ad50a9d3ec86125b" target="_top" xlink:title=" ">
<polygon fill="white" stroke="black" points="705,-67.5 705,-86.5 758,-86.5 758,-67.5 705,-67.5"/>
<text text-anchor="middle" x="731.5" y="-74.5" font-family="Helvetica,sans-Serif" font-size="10.00">ec_write</text>
</a>
</g>
</g>
<!-- Node34&#45;&gt;Node35 -->
<g id="edge51" class="edge">
<title>Node34&#45;&gt;Node35</title>
<path fill="none" stroke="midnightblue" d="M797.1,-109.82C782.36,-102.34 764.65,-93.34 751.51,-86.66"/>
<polygon fill="midnightblue" stroke="midnightblue" points="795.78,-113.08 806.28,-114.49 798.95,-106.84 795.78,-113.08"/>
</g>
<!-- Node36 -->
<g id="node36" class="node">
<title>Node36</title>
<g id="a_node36"><a xlink:href="ex_8c.html#ab0cb848a971a3b2c09fcb456d887dd6b" target="_top" xlink:title=" ">
<polygon fill="white" stroke="black" points="575,-67.5 575,-86.5 669,-86.5 669,-67.5 575,-67.5"/>
<text text-anchor="middle" x="622" y="-74.5" font-family="Helvetica,sans-Serif" font-size="10.00">ex_modifiedbuffer</text>
</a>
</g>
</g>
<!-- Node35&#45;&gt;Node36 -->
<g id="edge52" class="edge">
<title>Node35&#45;&gt;Node36</title>
<path fill="none" stroke="midnightblue" d="M694.49,-77C686.36,-77 677.62,-77 669.14,-77"/>
<polygon fill="midnightblue" stroke="midnightblue" points="694.75,-80.5 704.75,-77 694.75,-73.5 694.75,-80.5"/>
</g>
<!-- Node36&#45;&gt;Node5 -->
<g id="edge53" class="edge">
<title>Node36&#45;&gt;Node5</title>
<path fill="none" stroke="midnightblue" d="M565.76,-88.58C535.67,-94.9 497.79,-102.87 464,-110 449.79,-113 433.86,-116.38 421.21,-119.07"/>
<polygon fill="midnightblue" stroke="midnightblue" points="566.58,-91.99 575.65,-86.51 565.15,-85.14 566.58,-91.99"/>
</g>
<!-- Node36&#45;&gt;Node12 -->
<g id="edge54" class="edge">
<title>Node36&#45;&gt;Node12</title>
<path fill="none" stroke="midnightblue" d="M610.02,-95.29C595.85,-117.72 569.37,-155.85 539,-181 534.71,-184.55 529.64,-187.71 524.67,-190.37"/>
<polygon fill="midnightblue" stroke="midnightblue" points="613.04,-97.07 615.32,-86.72 607.08,-93.39 613.04,-97.07"/>
</g>
<!-- Node37 -->
<g id="node37" class="node">
<title>Node37</title>
<g id="a_node37"><a xlink:href="ex_8c.html#aa69f426ff9728078fbb36f448c624a90" target="_top" xlink:title=" ">
<polygon fill="white" stroke="black" points="473.5,-38.5 473.5,-57.5 529.5,-57.5 529.5,-38.5 473.5,-38.5"/>
<text text-anchor="middle" x="501.5" y="-45.5" font-family="Helvetica,sans-Serif" font-size="10.00">ec_make</text>
</a>
</g>
</g>
<!-- Node36&#45;&gt;Node37 -->
<g id="edge55" class="edge">
<title>Node36&#45;&gt;Node37</title>
<path fill="none" stroke="midnightblue" d="M572.01,-65.01C557.52,-61.46 542.18,-57.71 529.61,-54.63"/>
<polygon fill="midnightblue" stroke="midnightblue" points="571.32,-68.45 581.87,-67.42 572.99,-61.65 571.32,-68.45"/>
</g>
<!-- Node38 -->
<g id="node38" class="node">
<title>Node38</title>
<g id="a_node38"><a xlink:href="ex_8c.html#a87eef446de152fad41ce88a9a343b87d" target="_top" xlink:title=" ">
<polygon fill="white" stroke="black" points="477.5,-0.5 477.5,-19.5 525.5,-19.5 525.5,-0.5 477.5,-0.5"/>
<text text-anchor="middle" x="501.5" y="-7.5" font-family="Helvetica,sans-Serif" font-size="10.00">ec_quit</text>
</a>
</g>
</g>
<!-- Node36&#45;&gt;Node38 -->
<g id="edge56" class="edge">
<title>Node36&#45;&gt;Node38</title>
<path fill="none" stroke="midnightblue" d="M596.27,-62.1C580.1,-52.45 558.43,-39.74 539,-29 533.37,-25.89 527.19,-22.62 521.54,-19.68"/>
<polygon fill="midnightblue" stroke="midnightblue" points="594.73,-65.25 605.11,-67.38 598.32,-59.24 594.73,-65.25"/>
</g>
<!-- Node38&#45;&gt;Node35 -->
<g id="edge57" class="edge">
<title>Node38&#45;&gt;Node35</title>
<path fill="none" stroke="midnightblue" d="M535.47,-19.31C569.1,-28.84 622.76,-44.19 669,-58 680.78,-61.52 693.79,-65.52 704.8,-68.94"/>
<polygon fill="midnightblue" stroke="midnightblue" points="536.28,-15.9 525.7,-16.54 534.37,-22.63 536.28,-15.9"/>
</g>
</g>
</svg>
