<?xml version="1.0" encoding="UTF-8" standalone="no"?>
<!DOCTYPE svg PUBLIC "-//W3C//DTD SVG 1.1//EN"
 "http://www.w3.org/Graphics/SVG/1.1/DTD/svg11.dtd">
<!-- Generated by graphviz version 2.44.1 (20200629.0846)
 -->
<!-- Title: lbuf_saved Pages: 1 -->
<svg width="271pt" height="104pt"
 viewBox="0.00 0.00 271.00 104.00" xmlns="http://www.w3.org/2000/svg" xmlns:xlink="http://www.w3.org/1999/xlink">
<g id="graph0" class="graph" transform="scale(1 1) rotate(0) translate(4 100)">
<title>lbuf_saved</title>
<polygon fill="white" stroke="transparent" points="-4,4 -4,-100 267,-100 267,4 -4,4"/>
<!-- Node1 -->
<g id="node1" class="node">
<title>Node1</title>
<g id="a_node1"><a xlink:title=" ">
<polygon fill="#bfbfbf" stroke="black" points="0,-38.5 0,-57.5 64,-57.5 64,-38.5 0,-38.5"/>
<text text-anchor="middle" x="32" y="-45.5" font-family="Helvetica,sans-Serif" font-size="10.00">lbuf_saved</text>
</a>
</g>
</g>
<!-- Node2 -->
<g id="node2" class="node">
<title>Node2</title>
<g id="a_node2"><a xlink:href="lbuf_8c.html#a56119cc892be0598811f8f80d31a06d6" target="_top" xlink:title=" ">
<polygon fill="white" stroke="black" points="100,-76.5 100,-95.5 174,-95.5 174,-76.5 100,-76.5"/>
<text text-anchor="middle" x="137" y="-83.5" font-family="Helvetica,sans-Serif" font-size="10.00">lbuf_modified</text>
</a>
</g>
</g>
<!-- Node1&#45;&gt;Node2 -->
<g id="edge1" class="edge">
<title>Node1&#45;&gt;Node2</title>
<path fill="none" stroke="midnightblue" d="M58.99,-57.59C71.56,-62.22 86.83,-67.86 100.45,-72.89"/>
<polygon fill="midnightblue" stroke="midnightblue" points="99.42,-76.24 110.02,-76.41 101.85,-69.67 99.42,-76.24"/>
</g>
<!-- Node3 -->
<g id="node3" class="node">
<title>Node3</title>
<g id="a_node3"><a xlink:href="lbuf_8c.html#a0d1b3b3730f77fc08811b3e5f9e9ddae" target="_top" xlink:title=" ">
<polygon fill="white" stroke="black" points="210,-57.5 210,-76.5 263,-76.5 263,-57.5 210,-57.5"/>
<text text-anchor="middle" x="236.5" y="-64.5" font-family="Helvetica,sans-Serif" font-size="10.00">lbuf_seq</text>
</a>
</g>
</g>
<!-- Node1&#45;&gt;Node3 -->
<g id="edge3" class="edge">
<title>Node1&#45;&gt;Node3</title>
<path fill="none" stroke="midnightblue" d="M64.2,-50.93C100.7,-54.35 161.04,-60.01 199.5,-63.62"/>
<polygon fill="midnightblue" stroke="midnightblue" points="199.45,-67.13 209.73,-64.58 200.1,-60.16 199.45,-67.13"/>
</g>
<!-- Node4 -->
<g id="node4" class="node">
<title>Node4</title>
<g id="a_node4"><a xlink:href="lbuf_8c.html#a94a520edd0e2f60713523483cf01c7de" target="_top" xlink:title=" ">
<polygon fill="white" stroke="black" points="107.5,-0.5 107.5,-19.5 166.5,-19.5 166.5,-0.5 107.5,-0.5"/>
<text text-anchor="middle" x="137" y="-7.5" font-family="Helvetica,sans-Serif" font-size="10.00">lopt_done</text>
</a>
</g>
</g>
<!-- Node1&#45;&gt;Node4 -->
<g id="edge4" class="edge">
<title>Node1&#45;&gt;Node4</title>
<path fill="none" stroke="midnightblue" d="M58.99,-38.41C71.56,-33.78 86.83,-28.14 100.45,-23.11"/>
<polygon fill="midnightblue" stroke="midnightblue" points="101.85,-26.33 110.02,-19.59 99.42,-19.76 101.85,-26.33"/>
</g>
<!-- Node2&#45;&gt;Node3 -->
<g id="edge2" class="edge">
<title>Node2&#45;&gt;Node3</title>
<path fill="none" stroke="midnightblue" d="M174.03,-78.98C182.51,-77.33 191.55,-75.56 200.01,-73.92"/>
<polygon fill="midnightblue" stroke="midnightblue" points="200.82,-77.32 209.97,-71.98 199.48,-70.45 200.82,-77.32"/>
</g>
</g>
</svg>
