<?xml version="1.0" encoding="UTF-8" standalone="no"?>
<!DOCTYPE svg PUBLIC "-//W3C//DTD SVG 1.1//EN"
 "http://www.w3.org/Graphics/SVG/1.1/DTD/svg11.dtd">
<!-- Generated by graphviz version 2.44.1 (20200629.0846)
 -->
<!-- Title: lbuf_opt Pages: 1 -->
<svg width="480pt" height="256pt"
 viewBox="0.00 0.00 480.00 256.00" xmlns="http://www.w3.org/2000/svg" xmlns:xlink="http://www.w3.org/1999/xlink">
<g id="graph0" class="graph" transform="scale(1 1) rotate(0) translate(4 252)">
<title>lbuf_opt</title>
<polygon fill="white" stroke="transparent" points="-4,4 -4,-252 476,-252 476,4 -4,4"/>
<!-- Node1 -->
<g id="node1" class="node">
<title>Node1</title>
<g id="a_node1"><a xlink:title=" ">
<polygon fill="#bfbfbf" stroke="black" points="0,-95.5 0,-114.5 51,-114.5 51,-95.5 0,-95.5"/>
<text text-anchor="middle" x="25.5" y="-102.5" font-family="Helvetica,sans-Serif" font-size="10.00">lbuf_opt</text>
</a>
</g>
</g>
<!-- Node2 -->
<g id="node2" class="node">
<title>Node2</title>
<g id="a_node2"><a xlink:href="lbuf_8c.html#ad5f7a537d1c72f485481fc22cb8361a6" target="_top" xlink:title=" ">
<polygon fill="white" stroke="black" points="103,-190.5 103,-209.5 151,-209.5 151,-190.5 103,-190.5"/>
<text text-anchor="middle" x="127" y="-197.5" font-family="Helvetica,sans-Serif" font-size="10.00">lbuf_cp</text>
</a>
</g>
</g>
<!-- Node1&#45;&gt;Node2 -->
<g id="edge1" class="edge">
<title>Node1&#45;&gt;Node2</title>
<path fill="none" stroke="midnightblue" d="M32.11,-114.54C41.68,-130.15 62.53,-161.38 87,-181 89.06,-182.65 91.28,-184.2 93.59,-185.66"/>
<polygon fill="midnightblue" stroke="midnightblue" points="92.27,-188.93 102.71,-190.75 95.69,-182.82 92.27,-188.93"/>
</g>
<!-- Node9 -->
<g id="node9" class="node">
<title>Node9</title>
<g id="a_node9"><a xlink:href="lbuf_8c.html#aedcad8ccce5993eacce71ffc80aaab87" target="_top" xlink:title=" ">
<polygon fill="white" stroke="black" points="87,-152.5 87,-171.5 167,-171.5 167,-152.5 87,-152.5"/>
<text text-anchor="middle" x="127" y="-159.5" font-family="Helvetica,sans-Serif" font-size="10.00">lbuf_savemark</text>
</a>
</g>
</g>
<!-- Node1&#45;&gt;Node9 -->
<g id="edge9" class="edge">
<title>Node1&#45;&gt;Node9</title>
<path fill="none" stroke="midnightblue" d="M40.66,-114.5C52.76,-122.47 70.74,-133.96 87,-143 89.9,-144.61 92.95,-146.23 96.02,-147.8"/>
<polygon fill="midnightblue" stroke="midnightblue" points="94.63,-151.02 105.14,-152.35 97.76,-144.76 94.63,-151.02"/>
</g>
<!-- Node10 -->
<g id="node10" class="node">
<title>Node10</title>
<g id="a_node10"><a xlink:href="lbuf_8c.html#a46670f1a015007134b0d5a07ea258fcc" target="_top" xlink:title=" ">
<polygon fill="white" stroke="black" points="90,-114.5 90,-133.5 164,-133.5 164,-114.5 90,-114.5"/>
<text text-anchor="middle" x="127" y="-121.5" font-family="Helvetica,sans-Serif" font-size="10.00">lbuf_savepos</text>
</a>
</g>
</g>
<!-- Node1&#45;&gt;Node10 -->
<g id="edge10" class="edge">
<title>Node1&#45;&gt;Node10</title>
<path fill="none" stroke="midnightblue" d="M51.1,-109.7C59.72,-111.34 69.72,-113.25 79.55,-115.13"/>
<polygon fill="midnightblue" stroke="midnightblue" points="79.18,-118.62 89.66,-117.06 80.49,-111.75 79.18,-118.62"/>
</g>
<!-- Node12 -->
<g id="node12" class="node">
<title>Node12</title>
<g id="a_node12"><a xlink:href="lbuf_8c.html#ab41193f3312b21588338e92e1b144f87" target="_top" xlink:title=" ">
<polygon fill="white" stroke="black" points="99,-76.5 99,-95.5 155,-95.5 155,-76.5 99,-76.5"/>
<text text-anchor="middle" x="127" y="-83.5" font-family="Helvetica,sans-Serif" font-size="10.00">linecount</text>
</a>
</g>
</g>
<!-- Node1&#45;&gt;Node12 -->
<g id="edge12" class="edge">
<title>Node1&#45;&gt;Node12</title>
<path fill="none" stroke="midnightblue" d="M51.1,-100.3C62.54,-98.12 76.39,-95.47 89.06,-93.05"/>
<polygon fill="midnightblue" stroke="midnightblue" points="89.72,-96.49 98.89,-91.18 88.41,-89.61 89.72,-96.49"/>
</g>
<!-- Node14 -->
<g id="node14" class="node">
<title>Node14</title>
<g id="a_node14"><a xlink:href="lbuf_8c.html#a94a520edd0e2f60713523483cf01c7de" target="_top" xlink:title=" ">
<polygon fill="white" stroke="black" points="97.5,-38.5 97.5,-57.5 156.5,-57.5 156.5,-38.5 97.5,-38.5"/>
<text text-anchor="middle" x="127" y="-45.5" font-family="Helvetica,sans-Serif" font-size="10.00">lopt_done</text>
</a>
</g>
</g>
<!-- Node1&#45;&gt;Node14 -->
<g id="edge14" class="edge">
<title>Node1&#45;&gt;Node14</title>
<path fill="none" stroke="midnightblue" d="M40.66,-95.5C52.76,-87.53 70.74,-76.04 87,-67 89.9,-65.39 92.95,-63.77 96.02,-62.2"/>
<polygon fill="midnightblue" stroke="midnightblue" points="97.76,-65.24 105.14,-57.65 94.63,-58.98 97.76,-65.24"/>
</g>
<!-- Node15 -->
<g id="node15" class="node">
<title>Node15</title>
<g id="a_node15"><a xlink:href="uc_8c.html#a2844d125d9a2c1d03848dcdf952b0edb" target="_top" xlink:title=" ">
<polygon fill="white" stroke="black" points="103,-0.5 103,-19.5 151,-19.5 151,-0.5 103,-0.5"/>
<text text-anchor="middle" x="127" y="-7.5" font-family="Helvetica,sans-Serif" font-size="10.00">uc_dup</text>
</a>
</g>
</g>
<!-- Node1&#45;&gt;Node15 -->
<g id="edge15" class="edge">
<title>Node1&#45;&gt;Node15</title>
<path fill="none" stroke="midnightblue" d="M32.11,-95.46C41.68,-79.85 62.53,-48.62 87,-29 89.06,-27.35 91.28,-25.8 93.59,-24.34"/>
<polygon fill="midnightblue" stroke="midnightblue" points="95.69,-27.18 102.71,-19.25 92.27,-21.07 95.69,-27.18"/>
</g>
<!-- Node3 -->
<g id="node3" class="node">
<title>Node3</title>
<g id="a_node3"><a xlink:href="sbuf_8c.html#a7bf14d501d36ce36ee269d77cf2c3fc6" target="_top" xlink:title=" ">
<polygon fill="white" stroke="black" points="204.5,-228.5 204.5,-247.5 266.5,-247.5 266.5,-228.5 204.5,-228.5"/>
<text text-anchor="middle" x="235.5" y="-235.5" font-family="Helvetica,sans-Serif" font-size="10.00">sbuf_done</text>
</a>
</g>
</g>
<!-- Node2&#45;&gt;Node3 -->
<g id="edge2" class="edge">
<title>Node2&#45;&gt;Node3</title>
<path fill="none" stroke="midnightblue" d="M151.11,-208.25C164.76,-213.12 182.35,-219.39 197.85,-224.92"/>
<polygon fill="midnightblue" stroke="midnightblue" points="197.08,-228.37 207.68,-228.43 199.43,-221.77 197.08,-228.37"/>
</g>
<!-- Node6 -->
<g id="node6" class="node">
<title>Node6</title>
<g id="a_node6"><a xlink:href="sbuf_8c.html#a57748585d6786a2c1aadc2cbe6f2135b" target="_top" xlink:title=" ">
<polygon fill="white" stroke="black" points="203,-190.5 203,-209.5 268,-209.5 268,-190.5 203,-190.5"/>
<text text-anchor="middle" x="235.5" y="-197.5" font-family="Helvetica,sans-Serif" font-size="10.00">sbuf_make</text>
</a>
</g>
</g>
<!-- Node2&#45;&gt;Node6 -->
<g id="edge5" class="edge">
<title>Node2&#45;&gt;Node6</title>
<path fill="none" stroke="midnightblue" d="M151.11,-200C163.32,-200 178.68,-200 192.88,-200"/>
<polygon fill="midnightblue" stroke="midnightblue" points="192.95,-203.5 202.95,-200 192.95,-196.5 192.95,-203.5"/>
</g>
<!-- Node7 -->
<g id="node7" class="node">
<title>Node7</title>
<g id="a_node7"><a xlink:href="sbuf_8c.html#a603d1d6ab090025f5850f10bfa2dec7a" target="_top" xlink:title=" ">
<polygon fill="white" stroke="black" points="209.5,-152.5 209.5,-171.5 261.5,-171.5 261.5,-152.5 209.5,-152.5"/>
<text text-anchor="middle" x="235.5" y="-159.5" font-family="Helvetica,sans-Serif" font-size="10.00">sbuf_str</text>
</a>
</g>
</g>
<!-- Node2&#45;&gt;Node7 -->
<g id="edge6" class="edge">
<title>Node2&#45;&gt;Node7</title>
<path fill="none" stroke="midnightblue" d="M151.11,-191.75C165.29,-186.69 183.73,-180.11 199.67,-174.43"/>
<polygon fill="midnightblue" stroke="midnightblue" points="200.96,-177.68 209.2,-171.03 198.61,-171.09 200.96,-177.68"/>
</g>
<!-- Node4 -->
<g id="node4" class="node">
<title>Node4</title>
<g id="a_node4"><a xlink:href="sbuf_8c.html#a4e56760893d5a6797626743840c9adf2" target="_top" xlink:title=" ">
<polygon fill="white" stroke="black" points="308,-218.5 308,-237.5 362,-237.5 362,-218.5 308,-218.5"/>
<text text-anchor="middle" x="335" y="-225.5" font-family="Helvetica,sans-Serif" font-size="10.00">sbuf_buf</text>
</a>
</g>
</g>
<!-- Node3&#45;&gt;Node4 -->
<g id="edge3" class="edge">
<title>Node3&#45;&gt;Node4</title>
<path fill="none" stroke="midnightblue" d="M266.55,-234.92C276.45,-233.9 287.57,-232.76 297.88,-231.7"/>
<polygon fill="midnightblue" stroke="midnightblue" points="298.25,-235.19 307.84,-230.68 297.54,-228.22 298.25,-235.19"/>
</g>
<!-- Node5 -->
<g id="node5" class="node">
<title>Node5</title>
<g id="a_node5"><a xlink:href="sbuf_8c.html#a4ad75f3948c0340c342a3ea3eb63a6e6" target="_top" xlink:title=" ">
<polygon fill="white" stroke="black" points="402,-190.5 402,-209.5 472,-209.5 472,-190.5 402,-190.5"/>
<text text-anchor="middle" x="437" y="-197.5" font-family="Helvetica,sans-Serif" font-size="10.00">sbuf_extend</text>
</a>
</g>
</g>
<!-- Node4&#45;&gt;Node5 -->
<g id="edge4" class="edge">
<title>Node4&#45;&gt;Node5</title>
<path fill="none" stroke="midnightblue" d="M362.01,-220.72C371.22,-218.14 381.85,-215.16 392.14,-212.28"/>
<polygon fill="midnightblue" stroke="midnightblue" points="393.14,-215.64 401.83,-209.57 391.25,-208.89 393.14,-215.64"/>
</g>
<!-- Node8 -->
<g id="node8" class="node">
<title>Node8</title>
<g id="a_node8"><a xlink:href="sbuf_8c.html#aa511ac77d6b486accc01c0512ef27ed2" target="_top" xlink:title=" ">
<polygon fill="white" stroke="black" points="304,-171.5 304,-190.5 366,-190.5 366,-171.5 304,-171.5"/>
<text text-anchor="middle" x="335" y="-178.5" font-family="Helvetica,sans-Serif" font-size="10.00">sbuf_mem</text>
</a>
</g>
</g>
<!-- Node7&#45;&gt;Node8 -->
<g id="edge7" class="edge">
<title>Node7&#45;&gt;Node8</title>
<path fill="none" stroke="midnightblue" d="M261.61,-166.89C271.36,-168.79 282.77,-171.02 293.61,-173.13"/>
<polygon fill="midnightblue" stroke="midnightblue" points="293.28,-176.63 303.76,-175.11 294.62,-169.76 293.28,-176.63"/>
</g>
<!-- Node8&#45;&gt;Node5 -->
<g id="edge8" class="edge">
<title>Node8&#45;&gt;Node5</title>
<path fill="none" stroke="midnightblue" d="M366,-186.7C374.11,-188.24 383.05,-189.94 391.76,-191.59"/>
<polygon fill="midnightblue" stroke="midnightblue" points="391.33,-195.08 401.81,-193.5 392.64,-188.2 391.33,-195.08"/>
</g>
<!-- Node11 -->
<g id="node11" class="node">
<title>Node11</title>
<g id="a_node11"><a xlink:href="lbuf_8c.html#a69221917b521da2cd5f804a9f4694f1a" target="_top" xlink:title=" ">
<polygon fill="white" stroke="black" points="210,-114.5 210,-133.5 261,-133.5 261,-114.5 210,-114.5"/>
<text text-anchor="middle" x="235.5" y="-121.5" font-family="Helvetica,sans-Serif" font-size="10.00">markidx</text>
</a>
</g>
</g>
<!-- Node10&#45;&gt;Node11 -->
<g id="edge11" class="edge">
<title>Node10&#45;&gt;Node11</title>
<path fill="none" stroke="midnightblue" d="M164.06,-124C175.61,-124 188.37,-124 199.82,-124"/>
<polygon fill="midnightblue" stroke="midnightblue" points="199.89,-127.5 209.89,-124 199.89,-120.5 199.89,-127.5"/>
</g>
<!-- Node13 -->
<g id="node13" class="node">
<title>Node13</title>
<g id="a_node13"><a xlink:href="lbuf_8c.html#ac559857979b20ce0c64638c9e3e4edec" target="_top" xlink:title=" ">
<polygon fill="white" stroke="black" points="206.5,-76.5 206.5,-95.5 264.5,-95.5 264.5,-76.5 206.5,-76.5"/>
<text text-anchor="middle" x="235.5" y="-83.5" font-family="Helvetica,sans-Serif" font-size="10.00">linelength</text>
</a>
</g>
</g>
<!-- Node12&#45;&gt;Node13 -->
<g id="edge13" class="edge">
<title>Node12&#45;&gt;Node13</title>
<path fill="none" stroke="midnightblue" d="M155.15,-86C167.62,-86 182.64,-86 196.23,-86"/>
<polygon fill="midnightblue" stroke="midnightblue" points="196.28,-89.5 206.28,-86 196.28,-82.5 196.28,-89.5"/>
</g>
</g>
</svg>
