<?xml version="1.0" encoding="UTF-8" standalone="no"?>
<!DOCTYPE svg PUBLIC "-//W3C//DTD SVG 1.1//EN"
 "http://www.w3.org/Graphics/SVG/1.1/DTD/svg11.dtd">
<!-- Generated by graphviz version 2.44.1 (20200629.0846)
 -->
<!-- Title: lbuf_rd Pages: 1 -->
<svg width="673pt" height="438pt"
 viewBox="0.00 0.00 673.00 437.78" xmlns="http://www.w3.org/2000/svg" xmlns:xlink="http://www.w3.org/1999/xlink">
<g id="graph0" class="graph" transform="scale(1 1) rotate(0) translate(4 433.78)">
<title>lbuf_rd</title>
<polygon fill="white" stroke="transparent" points="-4,4 -4,-433.78 669,-433.78 669,4 -4,4"/>
<!-- Node1 -->
<g id="node1" class="node">
<title>Node1</title>
<g id="a_node1"><a xlink:title=" ">
<polygon fill="#bfbfbf" stroke="black" points="0,-76.5 0,-95.5 46,-95.5 46,-76.5 0,-76.5"/>
<text text-anchor="middle" x="23" y="-83.5" font-family="Helvetica,sans-Serif" font-size="10.00">lbuf_rd</text>
</a>
</g>
</g>
<!-- Node2 -->
<g id="node2" class="node">
<title>Node2</title>
<g id="a_node2"><a xlink:href="lbuf_8c.html#ac261b7344d70724c31f360a5dd8e2ffc" target="_top" xlink:title=" ">
<polygon fill="white" stroke="black" points="84,-209.5 84,-228.5 137,-228.5 137,-209.5 84,-209.5"/>
<text text-anchor="middle" x="110.5" y="-216.5" font-family="Helvetica,sans-Serif" font-size="10.00">lbuf_edit</text>
</a>
</g>
</g>
<!-- Node1&#45;&gt;Node2 -->
<g id="edge1" class="edge">
<title>Node1&#45;&gt;Node2</title>
<path fill="none" stroke="midnightblue" d="M30.15,-95.57C44.25,-117.51 79.14,-171.77 97.6,-200.49"/>
<polygon fill="midnightblue" stroke="midnightblue" points="94.82,-202.64 103.18,-209.16 100.71,-198.86 94.82,-202.64"/>
</g>
<!-- Node6 -->
<g id="node6" class="node">
<title>Node6</title>
<g id="a_node6"><a xlink:href="sbuf_8c.html#a4e56760893d5a6797626743840c9adf2" target="_top" xlink:title=" ">
<polygon fill="white" stroke="black" points="501,-247.5 501,-266.5 555,-266.5 555,-247.5 501,-247.5"/>
<text text-anchor="middle" x="528" y="-254.5" font-family="Helvetica,sans-Serif" font-size="10.00">sbuf_buf</text>
</a>
</g>
</g>
<!-- Node1&#45;&gt;Node6 -->
<g id="edge23" class="edge">
<title>Node1&#45;&gt;Node6</title>
<path fill="none" stroke="midnightblue" d="M24.5,-95.5C27.95,-150.74 53,-428 208.5,-428 208.5,-428 208.5,-428 321,-428 384.45,-428 411.18,-439.3 461,-400 500.58,-368.78 517.38,-308.36 523.69,-276.99"/>
<polygon fill="midnightblue" stroke="midnightblue" points="527.18,-277.33 525.56,-266.86 520.3,-276.06 527.18,-277.33"/>
</g>
<!-- Node8 -->
<g id="node8" class="node">
<title>Node8</title>
<g id="a_node8"><a xlink:href="sbuf_8c.html#a57748585d6786a2c1aadc2cbe6f2135b" target="_top" xlink:title=" ">
<polygon fill="white" stroke="black" points="396,-114.5 396,-133.5 461,-133.5 461,-114.5 396,-114.5"/>
<text text-anchor="middle" x="428.5" y="-121.5" font-family="Helvetica,sans-Serif" font-size="10.00">sbuf_make</text>
</a>
</g>
</g>
<!-- Node1&#45;&gt;Node8 -->
<g id="edge25" class="edge">
<title>Node1&#45;&gt;Node8</title>
<path fill="none" stroke="midnightblue" d="M46.2,-85.59C100.28,-84.97 243.01,-85.47 360,-105 369.52,-106.59 379.63,-109.02 389.03,-111.61"/>
<polygon fill="midnightblue" stroke="midnightblue" points="388.33,-115.05 398.91,-114.46 390.27,-108.33 388.33,-115.05"/>
</g>
<!-- Node10 -->
<g id="node10" class="node">
<title>Node10</title>
<g id="a_node10"><a xlink:href="sbuf_8c.html#aa511ac77d6b486accc01c0512ef27ed2" target="_top" xlink:title=" ">
<polygon fill="white" stroke="black" points="497,-209.5 497,-228.5 559,-228.5 559,-209.5 497,-209.5"/>
<text text-anchor="middle" x="528" y="-216.5" font-family="Helvetica,sans-Serif" font-size="10.00">sbuf_mem</text>
</a>
</g>
</g>
<!-- Node1&#45;&gt;Node10 -->
<g id="edge26" class="edge">
<title>Node1&#45;&gt;Node10</title>
<path fill="none" stroke="midnightblue" d="M46.13,-78.4C80.46,-67.31 148.82,-48 208.5,-48 208.5,-48 208.5,-48 321,-48 388.18,-48 410.33,-60.89 461,-105 491.18,-131.28 510.94,-174.9 520.42,-199.88"/>
<polygon fill="midnightblue" stroke="midnightblue" points="517.16,-201.13 523.86,-209.33 523.74,-198.74 517.16,-201.13"/>
</g>
<!-- Node20 -->
<g id="node20" class="node">
<title>Node20</title>
<g id="a_node20"><a xlink:href="sbuf_8c.html#a8c1a89868b1999663effb78b4f3fab32" target="_top" xlink:title=" ">
<polygon fill="white" stroke="black" points="82,-0.5 82,-19.5 139,-19.5 139,-0.5 82,-0.5"/>
<text text-anchor="middle" x="110.5" y="-7.5" font-family="Helvetica,sans-Serif" font-size="10.00">sbuf_free</text>
</a>
</g>
</g>
<!-- Node1&#45;&gt;Node20 -->
<g id="edge24" class="edge">
<title>Node1&#45;&gt;Node20</title>
<path fill="none" stroke="midnightblue" d="M34.65,-76.37C46.26,-65.9 65.39,-48.69 82,-34 84.87,-31.46 87.93,-28.77 90.92,-26.16"/>
<polygon fill="midnightblue" stroke="midnightblue" points="93.26,-28.76 98.5,-19.54 88.66,-23.48 93.26,-28.76"/>
</g>
<!-- Node3 -->
<g id="node3" class="node">
<title>Node3</title>
<g id="a_node3"><a xlink:href="lbuf_8c.html#a7882079a375d5591a9f384a80a5599ff" target="_top" xlink:title=" ">
<polygon fill="white" stroke="black" points="184,-209.5 184,-228.5 235,-228.5 235,-209.5 184,-209.5"/>
<text text-anchor="middle" x="209.5" y="-216.5" font-family="Helvetica,sans-Serif" font-size="10.00">lbuf_opt</text>
</a>
</g>
</g>
<!-- Node2&#45;&gt;Node3 -->
<g id="edge2" class="edge">
<title>Node2&#45;&gt;Node3</title>
<path fill="none" stroke="midnightblue" d="M137.24,-219C148.44,-219 161.73,-219 173.79,-219"/>
<polygon fill="midnightblue" stroke="midnightblue" points="173.98,-222.5 183.98,-219 173.98,-215.5 173.98,-222.5"/>
</g>
<!-- Node18 -->
<g id="node18" class="node">
<title>Node18</title>
<g id="a_node18"><a xlink:href="lbuf_8c.html#a7d6629efef5a5cbd324d82e2b0c07c5d" target="_top" xlink:title=" ">
<polygon fill="white" stroke="black" points="175,-323.5 175,-342.5 244,-342.5 244,-323.5 175,-323.5"/>
<text text-anchor="middle" x="209.5" y="-330.5" font-family="Helvetica,sans-Serif" font-size="10.00">lbuf_replace</text>
</a>
</g>
</g>
<!-- Node2&#45;&gt;Node18 -->
<g id="edge18" class="edge">
<title>Node2&#45;&gt;Node18</title>
<path fill="none" stroke="midnightblue" d="M119.77,-228.72C136.16,-247.99 172.98,-291.25 193.67,-315.57"/>
<polygon fill="midnightblue" stroke="midnightblue" points="191.1,-317.96 200.25,-323.31 196.44,-313.42 191.1,-317.96"/>
</g>
<!-- Node4 -->
<g id="node4" class="node">
<title>Node4</title>
<g id="a_node4"><a xlink:href="lbuf_8c.html#ad5f7a537d1c72f485481fc22cb8361a6" target="_top" xlink:title=" ">
<polygon fill="white" stroke="black" points="296,-228.5 296,-247.5 344,-247.5 344,-228.5 296,-228.5"/>
<text text-anchor="middle" x="320" y="-235.5" font-family="Helvetica,sans-Serif" font-size="10.00">lbuf_cp</text>
</a>
</g>
</g>
<!-- Node3&#45;&gt;Node4 -->
<g id="edge3" class="edge">
<title>Node3&#45;&gt;Node4</title>
<path fill="none" stroke="midnightblue" d="M235.12,-223.31C250.1,-225.93 269.42,-229.32 285.74,-232.18"/>
<polygon fill="midnightblue" stroke="midnightblue" points="285.51,-235.69 295.96,-233.97 286.71,-228.79 285.51,-235.69"/>
</g>
<!-- Node11 -->
<g id="node11" class="node">
<title>Node11</title>
<g id="a_node11"><a xlink:href="lbuf_8c.html#aedcad8ccce5993eacce71ffc80aaab87" target="_top" xlink:title=" ">
<polygon fill="white" stroke="black" points="280,-114.5 280,-133.5 360,-133.5 360,-114.5 280,-114.5"/>
<text text-anchor="middle" x="320" y="-121.5" font-family="Helvetica,sans-Serif" font-size="10.00">lbuf_savemark</text>
</a>
</g>
</g>
<!-- Node3&#45;&gt;Node11 -->
<g id="edge11" class="edge">
<title>Node3&#45;&gt;Node11</title>
<path fill="none" stroke="midnightblue" d="M217.65,-209.02C229.27,-193.34 253.65,-162.69 280,-143 282.06,-141.46 284.26,-140 286.53,-138.61"/>
<polygon fill="midnightblue" stroke="midnightblue" points="288.41,-141.57 295.48,-133.68 285.03,-135.44 288.41,-141.57"/>
</g>
<!-- Node12 -->
<g id="node12" class="node">
<title>Node12</title>
<g id="a_node12"><a xlink:href="lbuf_8c.html#a46670f1a015007134b0d5a07ea258fcc" target="_top" xlink:title=" ">
<polygon fill="white" stroke="black" points="283,-266.5 283,-285.5 357,-285.5 357,-266.5 283,-266.5"/>
<text text-anchor="middle" x="320" y="-273.5" font-family="Helvetica,sans-Serif" font-size="10.00">lbuf_savepos</text>
</a>
</g>
</g>
<!-- Node3&#45;&gt;Node12 -->
<g id="edge12" class="edge">
<title>Node3&#45;&gt;Node12</title>
<path fill="none" stroke="midnightblue" d="M227.52,-228.6C241.51,-236.42 261.92,-247.66 280,-257 283.11,-258.6 286.37,-260.25 289.62,-261.87"/>
<polygon fill="midnightblue" stroke="midnightblue" points="288.15,-265.05 298.67,-266.32 291.24,-258.77 288.15,-265.05"/>
</g>
<!-- Node14 -->
<g id="node14" class="node">
<title>Node14</title>
<g id="a_node14"><a xlink:href="lbuf_8c.html#ab41193f3312b21588338e92e1b144f87" target="_top" xlink:title=" ">
<polygon fill="white" stroke="black" points="292,-304.5 292,-323.5 348,-323.5 348,-304.5 292,-304.5"/>
<text text-anchor="middle" x="320" y="-311.5" font-family="Helvetica,sans-Serif" font-size="10.00">linecount</text>
</a>
</g>
</g>
<!-- Node3&#45;&gt;Node14 -->
<g id="edge14" class="edge">
<title>Node3&#45;&gt;Node14</title>
<path fill="none" stroke="midnightblue" d="M217.65,-228.98C229.27,-244.66 253.65,-275.31 280,-295 282.06,-296.54 284.26,-298 286.53,-299.39"/>
<polygon fill="midnightblue" stroke="midnightblue" points="285.03,-302.56 295.48,-304.32 288.41,-296.43 285.03,-302.56"/>
</g>
<!-- Node16 -->
<g id="node16" class="node">
<title>Node16</title>
<g id="a_node16"><a xlink:href="lbuf_8c.html#a94a520edd0e2f60713523483cf01c7de" target="_top" xlink:title=" ">
<polygon fill="white" stroke="black" points="290.5,-190.5 290.5,-209.5 349.5,-209.5 349.5,-190.5 290.5,-190.5"/>
<text text-anchor="middle" x="320" y="-197.5" font-family="Helvetica,sans-Serif" font-size="10.00">lopt_done</text>
</a>
</g>
</g>
<!-- Node3&#45;&gt;Node16 -->
<g id="edge16" class="edge">
<title>Node3&#45;&gt;Node16</title>
<path fill="none" stroke="midnightblue" d="M235.12,-214.69C248.43,-212.36 265.17,-209.43 280.19,-206.8"/>
<polygon fill="midnightblue" stroke="midnightblue" points="281,-210.21 290.25,-205.03 279.8,-203.31 281,-210.21"/>
</g>
<!-- Node17 -->
<g id="node17" class="node">
<title>Node17</title>
<g id="a_node17"><a xlink:href="uc_8c.html#a2844d125d9a2c1d03848dcdf952b0edb" target="_top" xlink:title=" ">
<polygon fill="white" stroke="black" points="296,-152.5 296,-171.5 344,-171.5 344,-152.5 296,-152.5"/>
<text text-anchor="middle" x="320" y="-159.5" font-family="Helvetica,sans-Serif" font-size="10.00">uc_dup</text>
</a>
</g>
</g>
<!-- Node3&#45;&gt;Node17 -->
<g id="edge17" class="edge">
<title>Node3&#45;&gt;Node17</title>
<path fill="none" stroke="midnightblue" d="M227.52,-209.4C241.51,-201.58 261.92,-190.34 280,-181 283.11,-179.4 286.37,-177.75 289.62,-176.13"/>
<polygon fill="midnightblue" stroke="midnightblue" points="291.24,-179.23 298.67,-171.68 288.15,-172.95 291.24,-179.23"/>
</g>
<!-- Node5 -->
<g id="node5" class="node">
<title>Node5</title>
<g id="a_node5"><a xlink:href="sbuf_8c.html#a7bf14d501d36ce36ee269d77cf2c3fc6" target="_top" xlink:title=" ">
<polygon fill="white" stroke="black" points="397.5,-247.5 397.5,-266.5 459.5,-266.5 459.5,-247.5 397.5,-247.5"/>
<text text-anchor="middle" x="428.5" y="-254.5" font-family="Helvetica,sans-Serif" font-size="10.00">sbuf_done</text>
</a>
</g>
</g>
<!-- Node4&#45;&gt;Node5 -->
<g id="edge4" class="edge">
<title>Node4&#45;&gt;Node5</title>
<path fill="none" stroke="midnightblue" d="M344.11,-242.12C356.61,-244.35 372.42,-247.17 386.91,-249.76"/>
<polygon fill="midnightblue" stroke="midnightblue" points="386.69,-253.28 397.15,-251.59 387.92,-246.38 386.69,-253.28"/>
</g>
<!-- Node4&#45;&gt;Node8 -->
<g id="edge7" class="edge">
<title>Node4&#45;&gt;Node8</title>
<path fill="none" stroke="midnightblue" d="M344.03,-229.13C349.59,-226.38 355.29,-222.99 360,-219 385.73,-197.19 406.57,-163.49 417.98,-142.65"/>
<polygon fill="midnightblue" stroke="midnightblue" points="421.21,-144.03 422.81,-133.55 415.03,-140.75 421.21,-144.03"/>
</g>
<!-- Node9 -->
<g id="node9" class="node">
<title>Node9</title>
<g id="a_node9"><a xlink:href="sbuf_8c.html#a603d1d6ab090025f5850f10bfa2dec7a" target="_top" xlink:title=" ">
<polygon fill="white" stroke="black" points="402.5,-209.5 402.5,-228.5 454.5,-228.5 454.5,-209.5 402.5,-209.5"/>
<text text-anchor="middle" x="428.5" y="-216.5" font-family="Helvetica,sans-Serif" font-size="10.00">sbuf_str</text>
</a>
</g>
</g>
<!-- Node4&#45;&gt;Node9 -->
<g id="edge8" class="edge">
<title>Node4&#45;&gt;Node9</title>
<path fill="none" stroke="midnightblue" d="M344.11,-233.88C358.16,-231.37 376.39,-228.12 392.22,-225.29"/>
<polygon fill="midnightblue" stroke="midnightblue" points="392.97,-228.72 402.2,-223.51 391.74,-221.82 392.97,-228.72"/>
</g>
<!-- Node5&#45;&gt;Node6 -->
<g id="edge5" class="edge">
<title>Node5&#45;&gt;Node6</title>
<path fill="none" stroke="midnightblue" d="M459.55,-257C469.35,-257 480.34,-257 490.56,-257"/>
<polygon fill="midnightblue" stroke="midnightblue" points="490.84,-260.5 500.84,-257 490.84,-253.5 490.84,-260.5"/>
</g>
<!-- Node7 -->
<g id="node7" class="node">
<title>Node7</title>
<g id="a_node7"><a xlink:href="sbuf_8c.html#a4ad75f3948c0340c342a3ea3eb63a6e6" target="_top" xlink:title=" ">
<polygon fill="white" stroke="black" points="595,-228.5 595,-247.5 665,-247.5 665,-228.5 595,-228.5"/>
<text text-anchor="middle" x="630" y="-235.5" font-family="Helvetica,sans-Serif" font-size="10.00">sbuf_extend</text>
</a>
</g>
</g>
<!-- Node6&#45;&gt;Node7 -->
<g id="edge6" class="edge">
<title>Node6&#45;&gt;Node7</title>
<path fill="none" stroke="midnightblue" d="M555.01,-252.06C564.13,-250.33 574.64,-248.33 584.82,-246.39"/>
<polygon fill="midnightblue" stroke="midnightblue" points="585.66,-249.8 594.83,-244.49 584.35,-242.92 585.66,-249.8"/>
</g>
<!-- Node9&#45;&gt;Node10 -->
<g id="edge9" class="edge">
<title>Node9&#45;&gt;Node10</title>
<path fill="none" stroke="midnightblue" d="M454.61,-219C464.36,-219 475.77,-219 486.61,-219"/>
<polygon fill="midnightblue" stroke="midnightblue" points="486.76,-222.5 496.76,-219 486.76,-215.5 486.76,-222.5"/>
</g>
<!-- Node10&#45;&gt;Node7 -->
<g id="edge10" class="edge">
<title>Node10&#45;&gt;Node7</title>
<path fill="none" stroke="midnightblue" d="M559,-224.7C567.11,-226.24 576.05,-227.94 584.76,-229.59"/>
<polygon fill="midnightblue" stroke="midnightblue" points="584.33,-233.08 594.81,-231.5 585.64,-226.2 584.33,-233.08"/>
</g>
<!-- Node13 -->
<g id="node13" class="node">
<title>Node13</title>
<g id="a_node13"><a xlink:href="lbuf_8c.html#a69221917b521da2cd5f804a9f4694f1a" target="_top" xlink:title=" ">
<polygon fill="white" stroke="black" points="403,-323.5 403,-342.5 454,-342.5 454,-323.5 403,-323.5"/>
<text text-anchor="middle" x="428.5" y="-330.5" font-family="Helvetica,sans-Serif" font-size="10.00">markidx</text>
</a>
</g>
</g>
<!-- Node12&#45;&gt;Node13 -->
<g id="edge13" class="edge">
<title>Node12&#45;&gt;Node13</title>
<path fill="none" stroke="midnightblue" d="M341.36,-285.63C347.39,-288.57 354,-291.85 360,-295 374.05,-302.37 389.48,-311.01 402.03,-318.19"/>
<polygon fill="midnightblue" stroke="midnightblue" points="400.59,-321.4 411.01,-323.35 404.08,-315.33 400.59,-321.4"/>
</g>
<!-- Node15 -->
<g id="node15" class="node">
<title>Node15</title>
<g id="a_node15"><a xlink:href="lbuf_8c.html#ac559857979b20ce0c64638c9e3e4edec" target="_top" xlink:title=" ">
<polygon fill="white" stroke="black" points="399.5,-371.5 399.5,-390.5 457.5,-390.5 457.5,-371.5 399.5,-371.5"/>
<text text-anchor="middle" x="428.5" y="-378.5" font-family="Helvetica,sans-Serif" font-size="10.00">linelength</text>
</a>
</g>
</g>
<!-- Node14&#45;&gt;Node15 -->
<g id="edge15" class="edge">
<title>Node14&#45;&gt;Node15</title>
<path fill="none" stroke="midnightblue" d="M342.38,-323.63C348.2,-326.46 354.43,-329.69 360,-333 376.28,-342.66 393.66,-355.08 406.71,-364.86"/>
<polygon fill="midnightblue" stroke="midnightblue" points="404.9,-367.89 414.98,-371.15 409.14,-362.31 404.9,-367.89"/>
</g>
<!-- Node18&#45;&gt;Node14 -->
<g id="edge21" class="edge">
<title>Node18&#45;&gt;Node14</title>
<path fill="none" stroke="midnightblue" d="M244.24,-327.09C256.19,-325 269.71,-322.63 281.92,-320.49"/>
<polygon fill="midnightblue" stroke="midnightblue" points="282.57,-323.93 291.82,-318.76 281.37,-317.04 282.57,-323.93"/>
</g>
<!-- Node18&#45;&gt;Node15 -->
<g id="edge22" class="edge">
<title>Node18&#45;&gt;Node15</title>
<path fill="none" stroke="midnightblue" d="M223.83,-342.59C237.28,-351.7 259.01,-364.87 280,-371 316.03,-381.52 359.04,-383.28 389.29,-382.86"/>
<polygon fill="midnightblue" stroke="midnightblue" points="389.5,-386.36 399.42,-382.63 389.35,-379.36 389.5,-386.36"/>
</g>
<!-- Node19 -->
<g id="node19" class="node">
<title>Node19</title>
<g id="a_node19"><a xlink:href="lbuf_8c.html#a5a34f3f60dfd5ea06207d96d821da368" target="_top" xlink:title=" ">
<polygon fill="white" stroke="black" points="290.5,-342.5 290.5,-361.5 349.5,-361.5 349.5,-342.5 290.5,-342.5"/>
<text text-anchor="middle" x="320" y="-349.5" font-family="Helvetica,sans-Serif" font-size="10.00">lbuf_mark</text>
</a>
</g>
</g>
<!-- Node18&#45;&gt;Node19 -->
<g id="edge19" class="edge">
<title>Node18&#45;&gt;Node19</title>
<path fill="none" stroke="midnightblue" d="M244.24,-338.91C255.69,-340.91 268.57,-343.17 280.37,-345.24"/>
<polygon fill="midnightblue" stroke="midnightblue" points="279.95,-348.71 290.4,-346.99 281.16,-341.82 279.95,-348.71"/>
</g>
<!-- Node19&#45;&gt;Node13 -->
<g id="edge20" class="edge">
<title>Node19&#45;&gt;Node13</title>
<path fill="none" stroke="midnightblue" d="M349.54,-346.91C362.8,-344.54 378.68,-341.71 392.64,-339.22"/>
<polygon fill="midnightblue" stroke="midnightblue" points="393.63,-342.6 402.86,-337.4 392.4,-335.71 393.63,-342.6"/>
</g>
</g>
</svg>
