<?xml version="1.0" encoding="UTF-8" standalone="no"?>
<!DOCTYPE svg PUBLIC "-//W3C//DTD SVG 1.1//EN"
 "http://www.w3.org/Graphics/SVG/1.1/DTD/svg11.dtd">
<!-- Generated by graphviz version 2.44.1 (20200629.0846)
 -->
<!-- Title: lbuf_wordlast Pages: 1 -->
<svg width="447pt" height="332pt"
 viewBox="0.00 0.00 447.00 332.00" xmlns="http://www.w3.org/2000/svg" xmlns:xlink="http://www.w3.org/1999/xlink">
<g id="graph0" class="graph" transform="scale(1 1) rotate(0) translate(4 328)">
<title>lbuf_wordlast</title>
<polygon fill="white" stroke="transparent" points="-4,4 -4,-328 443,-328 443,4 -4,4"/>
<!-- Node1 -->
<g id="node1" class="node">
<title>Node1</title>
<g id="a_node1"><a xlink:title=" ">
<polygon fill="#bfbfbf" stroke="black" points="0,-124.5 0,-143.5 74,-143.5 74,-124.5 0,-124.5"/>
<text text-anchor="middle" x="37" y="-131.5" font-family="Helvetica,sans-Serif" font-size="10.00">lbuf_wordlast</text>
</a>
</g>
</g>
<!-- Node2 -->
<g id="node2" class="node">
<title>Node2</title>
<g id="a_node2"><a xlink:href="mot_8c.html#a1075d9da002a03e0730292ac1948a7b8" target="_top" xlink:title=" ">
<polygon fill="white" stroke="black" points="112.5,-124.5 112.5,-143.5 163.5,-143.5 163.5,-124.5 112.5,-124.5"/>
<text text-anchor="middle" x="138" y="-131.5" font-family="Helvetica,sans-Serif" font-size="10.00">lbuf_chr</text>
</a>
</g>
</g>
<!-- Node1&#45;&gt;Node2 -->
<g id="edge1" class="edge">
<title>Node1&#45;&gt;Node2</title>
<path fill="none" stroke="midnightblue" d="M74.02,-134C83.16,-134 92.96,-134 102.05,-134"/>
<polygon fill="midnightblue" stroke="midnightblue" points="102.3,-137.5 112.3,-134 102.3,-130.5 102.3,-137.5"/>
</g>
<!-- Node7 -->
<g id="node7" class="node">
<title>Node7</title>
<g id="a_node7"><a xlink:href="mot_8c.html#a62880e253fa1e427ff400dfbc1cbd2cc" target="_top" xlink:title=" ">
<polygon fill="white" stroke="black" points="110,-228.5 110,-247.5 166,-247.5 166,-228.5 110,-228.5"/>
<text text-anchor="middle" x="138" y="-235.5" font-family="Helvetica,sans-Serif" font-size="10.00">lbuf_next</text>
</a>
</g>
</g>
<!-- Node1&#45;&gt;Node7 -->
<g id="edge6" class="edge">
<title>Node1&#45;&gt;Node7</title>
<path fill="none" stroke="midnightblue" d="M47.14,-143.6C63.93,-161.24 99.92,-199.04 120.9,-221.08"/>
<polygon fill="midnightblue" stroke="midnightblue" points="118.46,-223.6 127.89,-228.43 123.53,-218.77 118.46,-223.6"/>
</g>
<!-- Node12 -->
<g id="node12" class="node">
<title>Node12</title>
<g id="a_node12"><a xlink:href="uc_8c.html#a11275a0a4c95061c99fe7462ef3cf1b3" target="_top" xlink:title=" ">
<polygon fill="white" stroke="black" points="113,-67.5 113,-86.5 163,-86.5 163,-67.5 113,-67.5"/>
<text text-anchor="middle" x="138" y="-74.5" font-family="Helvetica,sans-Serif" font-size="10.00">uc_kind</text>
</a>
</g>
</g>
<!-- Node1&#45;&gt;Node12 -->
<g id="edge16" class="edge">
<title>Node1&#45;&gt;Node12</title>
<path fill="none" stroke="midnightblue" d="M54.79,-124.33C70.39,-115.35 93.83,-101.86 111.69,-91.57"/>
<polygon fill="midnightblue" stroke="midnightblue" points="113.53,-94.55 120.45,-86.53 110.04,-88.48 113.53,-94.55"/>
</g>
<!-- Node3 -->
<g id="node3" class="node">
<title>Node3</title>
<g id="a_node3"><a xlink:href="lbuf_8c.html#ad0f45475ddc6eb82ecedf63ed1b914d4" target="_top" xlink:title=" ">
<polygon fill="white" stroke="black" points="304,-228.5 304,-247.5 355,-247.5 355,-228.5 304,-228.5"/>
<text text-anchor="middle" x="329.5" y="-235.5" font-family="Helvetica,sans-Serif" font-size="10.00">lbuf_get</text>
</a>
</g>
</g>
<!-- Node2&#45;&gt;Node3 -->
<g id="edge2" class="edge">
<title>Node2&#45;&gt;Node3</title>
<path fill="none" stroke="midnightblue" d="M163.62,-139.77C190.61,-146.8 234.52,-160.36 268,-181 285.53,-191.81 302.32,-208.29 313.75,-220.75"/>
<polygon fill="midnightblue" stroke="midnightblue" points="311.17,-223.12 320.43,-228.26 316.4,-218.46 311.17,-223.12"/>
</g>
<!-- Node4 -->
<g id="node4" class="node">
<title>Node4</title>
<g id="a_node4"><a xlink:href="uc_8c.html#a2fecd1fc98475ece5f529da3315a9553" target="_top" xlink:title=" ">
<polygon fill="white" stroke="black" points="212,-114.5 212,-133.5 258,-133.5 258,-114.5 212,-114.5"/>
<text text-anchor="middle" x="235" y="-121.5" font-family="Helvetica,sans-Serif" font-size="10.00">uc_chr</text>
</a>
</g>
</g>
<!-- Node2&#45;&gt;Node4 -->
<g id="edge3" class="edge">
<title>Node2&#45;&gt;Node4</title>
<path fill="none" stroke="midnightblue" d="M163.96,-131.37C175.44,-130.16 189.21,-128.72 201.49,-127.42"/>
<polygon fill="midnightblue" stroke="midnightblue" points="202.22,-130.86 211.8,-126.34 201.49,-123.9 202.22,-130.86"/>
</g>
<!-- Node5 -->
<g id="node5" class="node">
<title>Node5</title>
<g id="a_node5"><a xlink:href="uc_8c.html#a79c7c44c06c1febff5680c19667e2676" target="_top" xlink:title=" ">
<polygon fill="white" stroke="black" points="304,-152.5 304,-171.5 355,-171.5 355,-152.5 304,-152.5"/>
<text text-anchor="middle" x="329.5" y="-159.5" font-family="Helvetica,sans-Serif" font-size="10.00">uc_next</text>
</a>
</g>
</g>
<!-- Node4&#45;&gt;Node5 -->
<g id="edge4" class="edge">
<title>Node4&#45;&gt;Node5</title>
<path fill="none" stroke="midnightblue" d="M258.39,-133.2C269.61,-137.81 283.42,-143.48 295.8,-148.57"/>
<polygon fill="midnightblue" stroke="midnightblue" points="294.77,-151.93 305.35,-152.49 297.43,-145.45 294.77,-151.93"/>
</g>
<!-- Node6 -->
<g id="node6" class="node">
<title>Node6</title>
<g id="a_node6"><a xlink:href="uc_8c.html#a616e24870a58b86644c34ee077faca11" target="_top" xlink:title=" ">
<polygon fill="white" stroke="black" points="391,-228.5 391,-247.5 439,-247.5 439,-228.5 391,-228.5"/>
<text text-anchor="middle" x="415" y="-235.5" font-family="Helvetica,sans-Serif" font-size="10.00">uc_end</text>
</a>
</g>
</g>
<!-- Node5&#45;&gt;Node6 -->
<g id="edge5" class="edge">
<title>Node5&#45;&gt;Node6</title>
<path fill="none" stroke="midnightblue" d="M341.08,-171.63C354.88,-184.19 379.24,-206.37 395.98,-221.6"/>
<polygon fill="midnightblue" stroke="midnightblue" points="393.76,-224.31 403.51,-228.45 398.47,-219.13 393.76,-224.31"/>
</g>
<!-- Node7&#45;&gt;Node3 -->
<g id="edge11" class="edge">
<title>Node7&#45;&gt;Node3</title>
<path fill="none" stroke="midnightblue" d="M166.15,-238C199.68,-238 256.79,-238 293.56,-238"/>
<polygon fill="midnightblue" stroke="midnightblue" points="293.81,-241.5 303.81,-238 293.81,-234.5 293.81,-241.5"/>
</g>
<!-- Node8 -->
<g id="node8" class="node">
<title>Node8</title>
<g id="a_node8"><a xlink:href="mot_8c.html#a5c1f7584815c6ad7811607e7189272f3" target="_top" xlink:title=" ">
<polygon fill="white" stroke="black" points="210,-266.5 210,-285.5 260,-285.5 260,-266.5 210,-266.5"/>
<text text-anchor="middle" x="235" y="-273.5" font-family="Helvetica,sans-Serif" font-size="10.00">lbuf_eol</text>
</a>
</g>
</g>
<!-- Node7&#45;&gt;Node8 -->
<g id="edge7" class="edge">
<title>Node7&#45;&gt;Node8</title>
<path fill="none" stroke="midnightblue" d="M162.97,-247.59C174.34,-252.13 188.1,-257.64 200.48,-262.59"/>
<polygon fill="midnightblue" stroke="midnightblue" points="199.45,-265.95 210.04,-266.41 202.05,-259.45 199.45,-265.95"/>
</g>
<!-- Node10 -->
<g id="node10" class="node">
<title>Node10</title>
<g id="a_node10"><a xlink:href="lbuf_8c.html#ae74f0372b69451ac877a76505b05874f" target="_top" xlink:title=" ">
<polygon fill="white" stroke="black" points="210,-190.5 210,-209.5 260,-209.5 260,-190.5 210,-190.5"/>
<text text-anchor="middle" x="235" y="-197.5" font-family="Helvetica,sans-Serif" font-size="10.00">lbuf_len</text>
</a>
</g>
</g>
<!-- Node7&#45;&gt;Node10 -->
<g id="edge12" class="edge">
<title>Node7&#45;&gt;Node10</title>
<path fill="none" stroke="midnightblue" d="M162.97,-228.41C174.34,-223.87 188.1,-218.36 200.48,-213.41"/>
<polygon fill="midnightblue" stroke="midnightblue" points="202.05,-216.55 210.04,-209.59 199.45,-210.05 202.05,-216.55"/>
</g>
<!-- Node11 -->
<g id="node11" class="node">
<title>Node11</title>
<g id="a_node11"><a xlink:href="mot_8c.html#a7d0e1b91bf9ad736cf9f11035a9beef0" target="_top" xlink:title=" ">
<polygon fill="white" stroke="black" points="203,-304.5 203,-323.5 267,-323.5 267,-304.5 203,-304.5"/>
<text text-anchor="middle" x="235" y="-311.5" font-family="Helvetica,sans-Serif" font-size="10.00">lbuf_lnnext</text>
</a>
</g>
</g>
<!-- Node7&#45;&gt;Node11 -->
<g id="edge13" class="edge">
<title>Node7&#45;&gt;Node11</title>
<path fill="none" stroke="midnightblue" d="M148.3,-247.52C160.16,-259.39 181.59,-279.94 202,-295 203.82,-296.34 205.73,-297.67 207.69,-298.96"/>
<polygon fill="midnightblue" stroke="midnightblue" points="205.99,-302.03 216.32,-304.36 209.7,-296.09 205.99,-302.03"/>
</g>
<!-- Node8&#45;&gt;Node3 -->
<g id="edge8" class="edge">
<title>Node8&#45;&gt;Node3</title>
<path fill="none" stroke="midnightblue" d="M259.34,-266.41C270.41,-261.87 283.81,-256.36 295.86,-251.41"/>
<polygon fill="midnightblue" stroke="midnightblue" points="297.25,-254.62 305.17,-247.59 294.59,-248.15 297.25,-254.62"/>
</g>
<!-- Node9 -->
<g id="node9" class="node">
<title>Node9</title>
<g id="a_node9"><a xlink:href="uc_8c.html#a8afd7835259109c3ec7bb684d4a1f67f" target="_top" xlink:title=" ">
<polygon fill="white" stroke="black" points="304.5,-266.5 304.5,-285.5 354.5,-285.5 354.5,-266.5 304.5,-266.5"/>
<text text-anchor="middle" x="329.5" y="-273.5" font-family="Helvetica,sans-Serif" font-size="10.00">uc_slen</text>
</a>
</g>
</g>
<!-- Node8&#45;&gt;Node9 -->
<g id="edge9" class="edge">
<title>Node8&#45;&gt;Node9</title>
<path fill="none" stroke="midnightblue" d="M260.3,-276C270.71,-276 283.05,-276 294.36,-276"/>
<polygon fill="midnightblue" stroke="midnightblue" points="294.36,-279.5 304.36,-276 294.36,-272.5 294.36,-279.5"/>
</g>
<!-- Node9&#45;&gt;Node6 -->
<g id="edge10" class="edge">
<title>Node9&#45;&gt;Node6</title>
<path fill="none" stroke="midnightblue" d="M351.57,-266.41C361.26,-262 372.94,-256.69 383.56,-251.85"/>
<polygon fill="midnightblue" stroke="midnightblue" points="385.28,-254.91 392.94,-247.59 382.38,-248.54 385.28,-254.91"/>
</g>
<!-- Node11&#45;&gt;Node3 -->
<g id="edge14" class="edge">
<title>Node11&#45;&gt;Node3</title>
<path fill="none" stroke="midnightblue" d="M254.18,-304.38C258.86,-301.6 263.76,-298.39 268,-295 286.18,-280.48 286.76,-272.62 304,-257 305.12,-255.98 306.29,-254.96 307.49,-253.95"/>
<polygon fill="midnightblue" stroke="midnightblue" points="309.89,-256.5 315.48,-247.5 305.5,-251.05 309.89,-256.5"/>
</g>
<!-- Node11&#45;&gt;Node9 -->
<g id="edge15" class="edge">
<title>Node11&#45;&gt;Node9</title>
<path fill="none" stroke="midnightblue" d="M259.34,-304.41C270.41,-299.87 283.81,-294.36 295.86,-289.41"/>
<polygon fill="midnightblue" stroke="midnightblue" points="297.25,-292.62 305.17,-285.59 294.59,-286.15 297.25,-292.62"/>
</g>
<!-- Node13 -->
<g id="node13" class="node">
<title>Node13</title>
<g id="a_node13"><a xlink:href="uc_8c.html#a111a8afd24172cae38d54d759a5dede5" target="_top" xlink:title=" ">
<polygon fill="white" stroke="black" points="203.5,-76.5 203.5,-95.5 266.5,-95.5 266.5,-76.5 203.5,-76.5"/>
<text text-anchor="middle" x="235" y="-83.5" font-family="Helvetica,sans-Serif" font-size="10.00">uc_isalpha</text>
</a>
</g>
</g>
<!-- Node12&#45;&gt;Node13 -->
<g id="edge17" class="edge">
<title>Node12&#45;&gt;Node13</title>
<path fill="none" stroke="midnightblue" d="M163.46,-79.32C172.62,-80.18 183.28,-81.19 193.5,-82.16"/>
<polygon fill="midnightblue" stroke="midnightblue" points="193.21,-85.65 203.49,-83.11 193.87,-78.68 193.21,-85.65"/>
</g>
<!-- Node14 -->
<g id="node14" class="node">
<title>Node14</title>
<g id="a_node14"><a xlink:href="uc_8c.html#a4beb9f2d6b6701d58f701ea92abcb1da" target="_top" xlink:title=" ">
<polygon fill="white" stroke="black" points="206,-38.5 206,-57.5 264,-57.5 264,-38.5 206,-38.5"/>
<text text-anchor="middle" x="235" y="-45.5" font-family="Helvetica,sans-Serif" font-size="10.00">uc_isdigit</text>
</a>
</g>
</g>
<!-- Node12&#45;&gt;Node14 -->
<g id="edge18" class="edge">
<title>Node12&#45;&gt;Node14</title>
<path fill="none" stroke="midnightblue" d="M163.46,-69.53C173.4,-66.5 185.11,-62.93 196.1,-59.57"/>
<polygon fill="midnightblue" stroke="midnightblue" points="197.38,-62.84 205.92,-56.57 195.33,-56.14 197.38,-62.84"/>
</g>
<!-- Node15 -->
<g id="node15" class="node">
<title>Node15</title>
<g id="a_node15"><a xlink:href="uc_8c.html#ab6be7e2b59f79b8952c13488e1cf036a" target="_top" xlink:title=" ">
<polygon fill="white" stroke="black" points="202,-0.5 202,-19.5 268,-19.5 268,-0.5 202,-0.5"/>
<text text-anchor="middle" x="235" y="-7.5" font-family="Helvetica,sans-Serif" font-size="10.00">uc_isspace</text>
</a>
</g>
</g>
<!-- Node12&#45;&gt;Node15 -->
<g id="edge19" class="edge">
<title>Node12&#45;&gt;Node15</title>
<path fill="none" stroke="midnightblue" d="M150.77,-67.38C163.21,-57.37 183.53,-41.46 202,-29 204.11,-27.58 206.33,-26.14 208.57,-24.73"/>
<polygon fill="midnightblue" stroke="midnightblue" points="210.44,-27.69 217.17,-19.5 206.8,-21.71 210.44,-27.69"/>
</g>
</g>
</svg>
