<?xml version="1.0" encoding="UTF-8" standalone="no"?>
<!DOCTYPE svg PUBLIC "-//W3C//DTD SVG 1.1//EN"
 "http://www.w3.org/Graphics/SVG/1.1/DTD/svg11.dtd">
<!-- Generated by graphviz version 2.44.1 (20200629.0846)
 -->
<!-- Title: lbuf_eol Pages: 1 -->
<!--zoomable 256 -->
<svg id="main" version="1.1" xmlns="http://www.w3.org/2000/svg" xmlns:xlink="http://www.w3.org/1999/xlink" xml:space="preserve" onload="init(evt)">
<style type="text/css"><![CDATA[
.edge:hover path { stroke: red; }
.edge:hover polygon { stroke: red; fill: red; }
]]></style>
<script type="text/javascript"><![CDATA[
var edges = document.getElementsByTagName('g');
if (edges && edges.length) {
  for (var i=0;i<edges.length;i++) {
    if (edges[i].id.substr(0,4)=='edge') {
      edges[i].setAttribute('class','edge');
    }
  }
}
]]></script>
        <defs>
                <circle id="rim" cx="0" cy="0" r="7"/>
                <circle id="rim2" cx="0" cy="0" r="3.5"/>
                <g id="zoomPlus">
                        <use xlink:href="#rim" fill="#404040">
                                <set attributeName="fill" to="#808080" begin="zoomplus.mouseover" end="zoomplus.mouseout"/>
                        </use>
                        <path d="M-4,0h8M0,-4v8" fill="none" stroke="white" stroke-width="1.5" pointer-events="none"/>
                </g>
                <g id="zoomMin">
                        <use xlink:href="#rim" fill="#404040">
                                <set attributeName="fill" to="#808080" begin="zoomminus.mouseover" end="zoomminus.mouseout"/>
                        </use>
                        <path d="M-4,0h8" fill="none" stroke="white" stroke-width="1.5" pointer-events="none"/>
                </g>
                <g id="dirArrow">
                        <path fill="none" stroke="white" stroke-width="1.5" d="M0,-3.0v7 M-2.5,-0.5L0,-3.0L2.5,-0.5"/>
                </g>
               <g id="resetDef">
                       <use xlink:href="#rim2" fill="#404040">
                               <set attributeName="fill" to="#808080" begin="reset.mouseover" end="reset.mouseout"/>
                       </use>
               </g>
        </defs>

<script type="text/javascript">
var viewWidth = 702;
var viewHeight = 256;
var sectionId = 'dynsection-16';
</script>
<script xlink:href="svgpan.js"/>
<svg id="graph" class="graph">
<g id="viewport">
<title>lbuf_eol</title>
<polygon fill="white" stroke="transparent" points="-4,4 -4,-252 698,-252 698,4 -4,4"/>
<!-- Node1 -->
<g id="node1" class="node">
<title>Node1</title>
<g id="a_node1"><a xlink:title=" ">
<polygon fill="#bfbfbf" stroke="black" points="644,-57.5 644,-76.5 694,-76.5 694,-57.5 644,-57.5"/>
<text text-anchor="middle" x="669" y="-64.5" font-family="Helvetica,sans-Serif" font-size="10.00">lbuf_eol</text>
</a>
</g>
</g>
<!-- Node2 -->
<g id="node2" class="node">
<title>Node2</title>
<g id="a_node2"><a xlink:href="mot_8c.html#a62880e253fa1e427ff400dfbc1cbd2cc" target="_top" xlink:title=" ">
<polygon fill="white" stroke="black" points="552,-152.5 552,-171.5 608,-171.5 608,-152.5 552,-152.5"/>
<text text-anchor="middle" x="580" y="-159.5" font-family="Helvetica,sans-Serif" font-size="10.00">lbuf_next</text>
</a>
</g>
</g>
<!-- Node1&#45;&gt;Node2 -->
<g id="edge1" class="edge">
<title>Node1&#45;&gt;Node2</title>
<path fill="none" stroke="midnightblue" d="M652.16,-84.3C633.86,-104.28 604.41,-136.43 589.8,-152.39"/>
<polygon fill="midnightblue" stroke="midnightblue" points="654.84,-86.55 659.02,-76.81 649.68,-81.82 654.84,-86.55"/>
</g>
<!-- Node4 -->
<g id="node4" class="node">
<title>Node4</title>
<g id="a_node4"><a xlink:href="vi_8c.html#aaa4777ea0715ea846346d0f27a0cfa3f" target="_top" xlink:title=" ">
<polygon fill="white" stroke="black" points="237,-95.5 237,-114.5 296,-114.5 296,-95.5 237,-95.5"/>
<text text-anchor="middle" x="266.5" y="-102.5" font-family="Helvetica,sans-Serif" font-size="10.00">vi_motion</text>
</a>
</g>
</g>
<!-- Node1&#45;&gt;Node4 -->
<g id="edge18" class="edge">
<title>Node1&#45;&gt;Node4</title>
<path fill="none" stroke="midnightblue" d="M633.65,-70.26C555.99,-77.63 368.09,-95.46 296.16,-102.28"/>
<polygon fill="midnightblue" stroke="midnightblue" points="634.22,-73.72 643.85,-69.29 633.56,-66.75 634.22,-73.72"/>
</g>
<!-- Node5 -->
<g id="node5" class="node">
<title>Node5</title>
<g id="a_node5"><a xlink:href="vi_8c.html#a06cbc6eb843436a0e77e07cbab0c4538" target="_top" xlink:title=" ">
<polygon fill="white" stroke="black" points="139,-38.5 139,-57.5 201,-57.5 201,-38.5 139,-38.5"/>
<text text-anchor="middle" x="170" y="-45.5" font-family="Helvetica,sans-Serif" font-size="10.00">vc_motion</text>
</a>
</g>
</g>
<!-- Node1&#45;&gt;Node5 -->
<g id="edge17" class="edge">
<title>Node1&#45;&gt;Node5</title>
<path fill="none" stroke="midnightblue" d="M633.82,-61.46C596.23,-55.85 533.97,-48 480,-48 480,-48 480,-48 368,-48 308.83,-48 239.67,-48 201.04,-48"/>
<polygon fill="midnightblue" stroke="midnightblue" points="633.33,-64.92 643.74,-62.97 634.39,-58 633.33,-64.92"/>
</g>
<!-- Node11 -->
<g id="node11" class="node">
<title>Node11</title>
<g id="a_node11"><a xlink:href="vi_8c.html#a8bb357a77ed61da8858f138c6fa672a6" target="_top" xlink:title=" ">
<polygon fill="white" stroke="black" points="238.5,-0.5 238.5,-19.5 294.5,-19.5 294.5,-0.5 238.5,-0.5"/>
<text text-anchor="middle" x="266.5" y="-7.5" font-family="Helvetica,sans-Serif" font-size="10.00">vc_insert</text>
</a>
</g>
</g>
<!-- Node1&#45;&gt;Node11 -->
<g id="edge15" class="edge">
<title>Node1&#45;&gt;Node11</title>
<path fill="none" stroke="midnightblue" d="M645.99,-51.89C635.06,-45.19 621.36,-37.94 608,-34 495.45,-0.83 353.31,-4.61 294.68,-8.03"/>
<polygon fill="midnightblue" stroke="midnightblue" points="644.15,-54.86 654.46,-57.3 647.92,-48.97 644.15,-54.86"/>
</g>
<!-- Node3 -->
<g id="node3" class="node">
<title>Node3</title>
<g id="a_node3"><a xlink:href="vi_8h.html#ae665a430e9019b58164b2aa4c4980534" target="_top" xlink:title=" ">
<polygon fill="white" stroke="black" points="452.5,-228.5 452.5,-247.5 505.5,-247.5 505.5,-228.5 452.5,-228.5"/>
<text text-anchor="middle" x="479" y="-235.5" font-family="Helvetica,sans-Serif" font-size="10.00">lbuf_pair</text>
</a>
</g>
</g>
<!-- Node2&#45;&gt;Node3 -->
<g id="edge2" class="edge">
<title>Node2&#45;&gt;Node3</title>
<path fill="none" stroke="midnightblue" d="M560.35,-178.25C548.02,-188.77 531.35,-202.59 516,-214 509.37,-218.93 501.79,-224.05 495.3,-228.29"/>
<polygon fill="midnightblue" stroke="midnightblue" points="562.82,-180.73 568.12,-171.56 558.26,-175.42 562.82,-180.73"/>
</g>
<!-- Node8 -->
<g id="node8" class="node">
<title>Node8</title>
<g id="a_node8"><a xlink:href="vi_8h.html#a1bd5b9a4117b7cc986675b27e20059be" target="_top" xlink:title=" ">
<polygon fill="white" stroke="black" points="332,-152.5 332,-171.5 406,-171.5 406,-152.5 332,-152.5"/>
<text text-anchor="middle" x="369" y="-159.5" font-family="Helvetica,sans-Serif" font-size="10.00">lbuf_wordbeg</text>
</a>
</g>
</g>
<!-- Node2&#45;&gt;Node8 -->
<g id="edge8" class="edge">
<title>Node2&#45;&gt;Node8</title>
<path fill="none" stroke="midnightblue" d="M543.65,-174.64C534.74,-177.27 525.11,-179.66 516,-181 483.46,-185.8 474.62,-185.23 442,-181 427.64,-179.14 412.06,-175.27 399.09,-171.5"/>
<polygon fill="midnightblue" stroke="midnightblue" points="544.84,-177.93 553.34,-171.6 542.75,-171.25 544.84,-177.93"/>
</g>
<!-- Node9 -->
<g id="node9" class="node">
<title>Node9</title>
<g id="a_node9"><a xlink:href="vi_8h.html#a94c2499e381bfa3497978110b44fc71d" target="_top" xlink:title=" ">
<polygon fill="white" stroke="black" points="332,-114.5 332,-133.5 406,-133.5 406,-114.5 332,-114.5"/>
<text text-anchor="middle" x="369" y="-121.5" font-family="Helvetica,sans-Serif" font-size="10.00">lbuf_wordend</text>
</a>
</g>
</g>
<!-- Node2&#45;&gt;Node9 -->
<g id="edge10" class="edge">
<title>Node2&#45;&gt;Node9</title>
<path fill="none" stroke="midnightblue" d="M542.25,-149.82C533.71,-147.29 524.59,-144.84 516,-143 479.01,-135.07 435.99,-129.96 406.28,-127.06"/>
<polygon fill="midnightblue" stroke="midnightblue" points="541.38,-153.21 551.96,-152.79 543.42,-146.52 541.38,-153.21"/>
</g>
<!-- Node10 -->
<g id="node10" class="node">
<title>Node10</title>
<g id="a_node10"><a xlink:href="mot_8c.html#a644f779e0e815979c646ea210c3a1594" target="_top" xlink:title=" ">
<polygon fill="white" stroke="black" points="442,-152.5 442,-171.5 516,-171.5 516,-152.5 442,-152.5"/>
<text text-anchor="middle" x="479" y="-159.5" font-family="Helvetica,sans-Serif" font-size="10.00">lbuf_wordlast</text>
</a>
</g>
</g>
<!-- Node2&#45;&gt;Node10 -->
<g id="edge12" class="edge">
<title>Node2&#45;&gt;Node10</title>
<path fill="none" stroke="midnightblue" d="M541.74,-162C533.41,-162 524.59,-162 516.3,-162"/>
<polygon fill="midnightblue" stroke="midnightblue" points="541.95,-165.5 551.95,-162 541.95,-158.5 541.95,-165.5"/>
</g>
<!-- Node3&#45;&gt;Node4 -->
<g id="edge3" class="edge">
<title>Node3&#45;&gt;Node4</title>
<path fill="none" stroke="midnightblue" d="M442.41,-229.44C411.26,-220.76 365.83,-205.14 332,-181 305.8,-162.31 283.62,-130.66 273.45,-114.75"/>
<polygon fill="midnightblue" stroke="midnightblue" points="441.82,-232.91 452.39,-232.12 443.64,-226.15 441.82,-232.91"/>
</g>
<!-- Node4&#45;&gt;Node5 -->
<g id="edge4" class="edge">
<title>Node4&#45;&gt;Node5</title>
<path fill="none" stroke="midnightblue" d="M240.6,-89.98C223.55,-79.7 201.47,-66.38 186.79,-57.53"/>
<polygon fill="midnightblue" stroke="midnightblue" points="239.1,-93.16 249.47,-95.33 242.71,-87.17 239.1,-93.16"/>
</g>
<!-- Node6 -->
<g id="node6" class="node">
<title>Node6</title>
<g id="a_node6"><a xlink:href="vi_8c.html#a8d808e0f3453afe6600673ee1ea5f828" target="_top" xlink:title=" ">
<polygon fill="white" stroke="black" points="74,-38.5 74,-57.5 103,-57.5 103,-38.5 74,-38.5"/>
<text text-anchor="middle" x="88.5" y="-45.5" font-family="Helvetica,sans-Serif" font-size="10.00">vi</text>
</a>
</g>
</g>
<!-- Node4&#45;&gt;Node6 -->
<g id="edge7" class="edge">
<title>Node4&#45;&gt;Node6</title>
<path fill="none" stroke="midnightblue" d="M227.02,-94.25C201.83,-87.01 168.28,-77 139,-67 126.8,-62.83 113.14,-57.54 103.27,-53.6"/>
<polygon fill="midnightblue" stroke="midnightblue" points="226.34,-97.7 236.92,-97.07 228.26,-90.97 226.34,-97.7"/>
</g>
<!-- Node5&#45;&gt;Node6 -->
<g id="edge5" class="edge">
<title>Node5&#45;&gt;Node6</title>
<path fill="none" stroke="midnightblue" d="M128.65,-48C119.46,-48 110.31,-48 103.17,-48"/>
<polygon fill="midnightblue" stroke="midnightblue" points="128.94,-51.5 138.94,-48 128.94,-44.5 128.94,-51.5"/>
</g>
<!-- Node7 -->
<g id="node7" class="node">
<title>Node7</title>
<g id="a_node7"><a xlink:href="vi_8c.html#a0ddf1224851353fc92bfbff6f499fa97" target="_top" xlink:title=" ">
<polygon fill="white" stroke="black" points="0,-38.5 0,-57.5 38,-57.5 38,-38.5 0,-38.5"/>
<text text-anchor="middle" x="19" y="-45.5" font-family="Helvetica,sans-Serif" font-size="10.00">main</text>
</a>
</g>
</g>
<!-- Node6&#45;&gt;Node7 -->
<g id="edge6" class="edge">
<title>Node6&#45;&gt;Node7</title>
<path fill="none" stroke="midnightblue" d="M63.58,-48C55.25,-48 46.04,-48 38.25,-48"/>
<polygon fill="midnightblue" stroke="midnightblue" points="63.84,-51.5 73.84,-48 63.84,-44.5 63.84,-51.5"/>
</g>
<!-- Node8&#45;&gt;Node4 -->
<g id="edge9" class="edge">
<title>Node8&#45;&gt;Node4</title>
<path fill="none" stroke="midnightblue" d="M340.52,-147.67C337.63,-146.11 334.75,-144.53 332,-143 315.2,-133.63 296.27,-122.39 283.28,-114.58"/>
<polygon fill="midnightblue" stroke="midnightblue" points="339.12,-150.89 349.6,-152.5 342.41,-144.71 339.12,-150.89"/>
</g>
<!-- Node9&#45;&gt;Node4 -->
<g id="edge11" class="edge">
<title>Node9&#45;&gt;Node4</title>
<path fill="none" stroke="midnightblue" d="M321.65,-115.24C312.96,-113.6 304.12,-111.92 296.16,-110.42"/>
<polygon fill="midnightblue" stroke="midnightblue" points="321.24,-118.72 331.72,-117.14 322.54,-111.84 321.24,-118.72"/>
</g>
<!-- Node10&#45;&gt;Node8 -->
<g id="edge13" class="edge">
<title>Node10&#45;&gt;Node8</title>
<path fill="none" stroke="midnightblue" d="M431.61,-162C423.16,-162 414.46,-162 406.35,-162"/>
<polygon fill="midnightblue" stroke="midnightblue" points="431.74,-165.5 441.74,-162 431.74,-158.5 431.74,-165.5"/>
</g>
<!-- Node10&#45;&gt;Node9 -->
<g id="edge14" class="edge">
<title>Node10&#45;&gt;Node9</title>
<path fill="none" stroke="midnightblue" d="M441.13,-149.03C426.74,-143.97 410.55,-138.27 397.24,-133.59"/>
<polygon fill="midnightblue" stroke="midnightblue" points="440.15,-152.39 450.75,-152.41 442.48,-145.79 440.15,-152.39"/>
</g>
<!-- Node11&#45;&gt;Node6 -->
<g id="edge16" class="edge">
<title>Node11&#45;&gt;Node6</title>
<path fill="none" stroke="midnightblue" d="M228.04,-13.46C202.63,-16.34 168.44,-21.24 139,-29 126.54,-32.29 112.9,-37.66 103.1,-41.86"/>
<polygon fill="midnightblue" stroke="midnightblue" points="228.44,-16.94 238.01,-12.39 227.69,-9.98 228.44,-16.94"/>
</g>
</g>
</svg>
        <g id="navigator" transform="translate(0 0)" fill="#404254">
                <rect fill="#f2f5e9" fill-opacity="0.5" stroke="#606060" stroke-width=".5" x="0" y="0" width="60" height="60"/>
                <use id="zoomplus" xlink:href="#zoomPlus" x="17" y="9" onmousedown="handleZoom(evt,'in')"/>
                <use id="zoomminus" xlink:href="#zoomMin" x="42" y="9" onmousedown="handleZoom(evt,'out')"/>
                <use id="reset" xlink:href="#resetDef" x="30" y="36" onmousedown="handleReset()"/>
                <g id="arrowUp" xlink:href="#dirArrow" transform="translate(30 24)" onmousedown="handlePan(0,-1)">
                  <use xlink:href="#rim" fill="#404040">
                        <set attributeName="fill" to="#808080" begin="arrowUp.mouseover" end="arrowUp.mouseout"/>
                  </use>
                  <path fill="none" stroke="white" stroke-width="1.5" d="M0,-3.0v7 M-2.5,-0.5L0,-3.0L2.5,-0.5"/>
                </g>
                <g id="arrowRight" xlink:href="#dirArrow" transform="rotate(90) translate(36 -43)" onmousedown="handlePan(1,0)">
                  <use xlink:href="#rim" fill="#404040">
                        <set attributeName="fill" to="#808080" begin="arrowRight.mouseover" end="arrowRight.mouseout"/>
                  </use>
                  <path fill="none" stroke="white" stroke-width="1.5" d="M0,-3.0v7 M-2.5,-0.5L0,-3.0L2.5,-0.5"/>
                </g>
                <g id="arrowDown" xlink:href="#dirArrow" transform="rotate(180) translate(-30 -48)" onmousedown="handlePan(0,1)">
                  <use xlink:href="#rim" fill="#404040">
                        <set attributeName="fill" to="#808080" begin="arrowDown.mouseover" end="arrowDown.mouseout"/>
                  </use>
                  <path fill="none" stroke="white" stroke-width="1.5" d="M0,-3.0v7 M-2.5,-0.5L0,-3.0L2.5,-0.5"/>
                </g>
                <g id="arrowLeft" xlink:href="#dirArrow" transform="rotate(270) translate(-36 17)" onmousedown="handlePan(-1,0)">
                  <use xlink:href="#rim" fill="#404040">
                        <set attributeName="fill" to="#808080" begin="arrowLeft.mouseover" end="arrowLeft.mouseout"/>
                  </use>
                  <path fill="none" stroke="white" stroke-width="1.5" d="M0,-3.0v7 M-2.5,-0.5L0,-3.0L2.5,-0.5"/>
                </g>
        </g>
        <svg viewBox="0 0 15 15" width="100%" height="30px" preserveAspectRatio="xMaxYMin meet">
         <g id="arrow_out" transform="scale(0.3 0.3)">
          <a xlink:href="mot_8c_a5c1f7584815c6ad7811607e7189272f3_icgraph_org.svg" target="_base">
           <rect id="button" ry="5" rx="5" y="6" x="6" height="38" width="38"
                fill="#f2f5e9" fill-opacity="0.5" stroke="#606060" stroke-width="1.0"/>
           <path id="arrow"
             d="M 11.500037,31.436501 C 11.940474,20.09759 22.043105,11.32322 32.158766,21.979434 L 37.068811,17.246167 C 37.068811,17.246167 37.088388,32 37.088388,32 L 22.160133,31.978069 C 22.160133,31.978069 26.997745,27.140456 26.997745,27.140456 C 18.528582,18.264221 13.291696,25.230495 11.500037,31.436501 z"
             style="fill:#404040;"/>
          </a>
         </g>
        </svg>
</svg>
