<?xml version="1.0" encoding="UTF-8" standalone="no"?>
<!DOCTYPE svg PUBLIC "-//W3C//DTD SVG 1.1//EN"
 "http://www.w3.org/Graphics/SVG/1.1/DTD/svg11.dtd">
<!-- Generated by graphviz version 2.44.1 (20200629.0846)
 -->
<!-- Title: ratom_match Pages: 1 -->
<svg width="264pt" height="180pt"
 viewBox="0.00 0.00 264.00 180.00" xmlns="http://www.w3.org/2000/svg" xmlns:xlink="http://www.w3.org/1999/xlink">
<g id="graph0" class="graph" transform="scale(1 1) rotate(0) translate(4 176)">
<title>ratom_match</title>
<polygon fill="white" stroke="transparent" points="-4,4 -4,-176 260,-176 260,4 -4,4"/>
<!-- Node1 -->
<g id="node1" class="node">
<title>Node1</title>
<g id="a_node1"><a xlink:title=" ">
<polygon fill="#bfbfbf" stroke="black" points="0,-76.5 0,-95.5 74,-95.5 74,-76.5 0,-76.5"/>
<text text-anchor="middle" x="37" y="-83.5" font-family="Helvetica,sans-Serif" font-size="10.00">ratom_match</text>
</a>
</g>
</g>
<!-- Node2 -->
<g id="node2" class="node">
<title>Node2</title>
<g id="a_node2"><a xlink:href="regex_8c.html#aae17ed73e84075718fb04d131d6ca779" target="_top" xlink:title=" ">
<polygon fill="white" stroke="black" points="110,-114.5 110,-133.5 172,-133.5 172,-114.5 110,-114.5"/>
<text text-anchor="middle" x="141" y="-121.5" font-family="Helvetica,sans-Serif" font-size="10.00">brk_match</text>
</a>
</g>
</g>
<!-- Node1&#45;&gt;Node2 -->
<g id="edge1" class="edge">
<title>Node1&#45;&gt;Node2</title>
<path fill="none" stroke="midnightblue" d="M63.74,-95.59C76.18,-100.22 91.31,-105.86 104.8,-110.89"/>
<polygon fill="midnightblue" stroke="midnightblue" points="103.68,-114.2 114.27,-114.41 106.12,-107.64 103.68,-114.2"/>
</g>
<!-- Node4 -->
<g id="node4" class="node">
<title>Node4</title>
<g id="a_node4"><a xlink:href="regex_8c.html#aaf73cdb88048e7f9fd588eb8d5aeb5a3" target="_top" xlink:title=" ">
<polygon fill="white" stroke="black" points="208,-152.5 208,-171.5 256,-171.5 256,-152.5 208,-152.5"/>
<text text-anchor="middle" x="232" y="-159.5" font-family="Helvetica,sans-Serif" font-size="10.00">uc_dec</text>
</a>
</g>
</g>
<!-- Node1&#45;&gt;Node4 -->
<g id="edge7" class="edge">
<title>Node1&#45;&gt;Node4</title>
<path fill="none" stroke="midnightblue" d="M47.17,-95.92C59.9,-109.02 84.3,-131.75 110,-143 137.95,-155.24 172.59,-159.73 197.63,-161.31"/>
<polygon fill="midnightblue" stroke="midnightblue" points="197.56,-164.81 207.73,-161.82 197.92,-157.82 197.56,-164.81"/>
</g>
<!-- Node5 -->
<g id="node5" class="node">
<title>Node5</title>
<g id="a_node5"><a xlink:href="regex_8c.html#a9a0d6d5f93f1eaba8b63b16903c0952d" target="_top" xlink:title=" ">
<polygon fill="white" stroke="black" points="209.5,-76.5 209.5,-95.5 254.5,-95.5 254.5,-76.5 209.5,-76.5"/>
<text text-anchor="middle" x="232" y="-83.5" font-family="Helvetica,sans-Serif" font-size="10.00">uc_len</text>
</a>
</g>
</g>
<!-- Node1&#45;&gt;Node5 -->
<g id="edge8" class="edge">
<title>Node1&#45;&gt;Node5</title>
<path fill="none" stroke="midnightblue" d="M74.3,-86C110.17,-86 164.5,-86 198.85,-86"/>
<polygon fill="midnightblue" stroke="midnightblue" points="199.25,-89.5 209.25,-86 199.25,-82.5 199.25,-89.5"/>
</g>
<!-- Node6 -->
<g id="node6" class="node">
<title>Node6</title>
<g id="a_node6"><a xlink:href="regex_8c.html#a35ad3fd0dbb795e6f30404ce86a7be5b" target="_top" xlink:title=" ">
<polygon fill="white" stroke="black" points="118.5,-38.5 118.5,-57.5 163.5,-57.5 163.5,-38.5 118.5,-38.5"/>
<text text-anchor="middle" x="141" y="-45.5" font-family="Helvetica,sans-Serif" font-size="10.00">isword</text>
</a>
</g>
</g>
<!-- Node1&#45;&gt;Node6 -->
<g id="edge5" class="edge">
<title>Node1&#45;&gt;Node6</title>
<path fill="none" stroke="midnightblue" d="M63.74,-76.41C77.45,-71.3 94.43,-64.98 108.88,-59.59"/>
<polygon fill="midnightblue" stroke="midnightblue" points="110.26,-62.82 118.41,-56.04 107.81,-56.26 110.26,-62.82"/>
</g>
<!-- Node7 -->
<g id="node7" class="node">
<title>Node7</title>
<g id="a_node7"><a xlink:href="regex_8c.html#ade3e10606e6e8866e6151fe8440d6101" target="_top" xlink:title=" ">
<polygon fill="white" stroke="black" points="117,-0.5 117,-19.5 165,-19.5 165,-0.5 117,-0.5"/>
<text text-anchor="middle" x="141" y="-7.5" font-family="Helvetica,sans-Serif" font-size="10.00">uc_beg</text>
</a>
</g>
</g>
<!-- Node1&#45;&gt;Node7 -->
<g id="edge6" class="edge">
<title>Node1&#45;&gt;Node7</title>
<path fill="none" stroke="midnightblue" d="M49.43,-76.33C63.4,-64.67 87.9,-44.68 110,-29 111.84,-27.7 113.76,-26.38 115.71,-25.07"/>
<polygon fill="midnightblue" stroke="midnightblue" points="117.74,-27.93 124.22,-19.56 113.93,-22.06 117.74,-27.93"/>
</g>
<!-- Node3 -->
<g id="node3" class="node">
<title>Node3</title>
<g id="a_node3"><a xlink:href="regex_8c.html#acc18ff8d2687611a9e221b3329b02413" target="_top" xlink:title=" ">
<polygon fill="white" stroke="black" points="208,-114.5 208,-133.5 256,-133.5 256,-114.5 208,-114.5"/>
<text text-anchor="middle" x="232" y="-121.5" font-family="Helvetica,sans-Serif" font-size="10.00">brk_len</text>
</a>
</g>
</g>
<!-- Node2&#45;&gt;Node3 -->
<g id="edge2" class="edge">
<title>Node2&#45;&gt;Node3</title>
<path fill="none" stroke="midnightblue" d="M172.13,-124C180.36,-124 189.32,-124 197.71,-124"/>
<polygon fill="midnightblue" stroke="midnightblue" points="197.94,-127.5 207.94,-124 197.94,-120.5 197.94,-127.5"/>
</g>
<!-- Node2&#45;&gt;Node4 -->
<g id="edge3" class="edge">
<title>Node2&#45;&gt;Node4</title>
<path fill="none" stroke="midnightblue" d="M164.46,-133.59C175,-138.09 187.75,-143.53 199.25,-148.44"/>
<polygon fill="midnightblue" stroke="midnightblue" points="197.98,-151.71 208.55,-152.41 200.73,-145.27 197.98,-151.71"/>
</g>
<!-- Node2&#45;&gt;Node5 -->
<g id="edge4" class="edge">
<title>Node2&#45;&gt;Node5</title>
<path fill="none" stroke="midnightblue" d="M164.46,-114.41C175.24,-109.81 188.33,-104.22 200.04,-99.22"/>
<polygon fill="midnightblue" stroke="midnightblue" points="201.65,-102.34 209.47,-95.19 198.9,-95.9 201.65,-102.34"/>
</g>
</g>
</svg>
