<?xml version="1.0" encoding="UTF-8" standalone="no"?>
<!DOCTYPE svg PUBLIC "-//W3C//DTD SVG 1.1//EN"
 "http://www.w3.org/Graphics/SVG/1.1/DTD/svg11.dtd">
<!-- Generated by graphviz version 2.44.1 (20200629.0846)
 -->
<!-- Title: rnode_seq Pages: 1 -->
<svg width="496pt" height="256pt"
 viewBox="0.00 0.00 496.00 256.00" xmlns="http://www.w3.org/2000/svg" xmlns:xlink="http://www.w3.org/1999/xlink">
<g id="graph0" class="graph" transform="scale(1 1) rotate(0) translate(4 252)">
<title>rnode_seq</title>
<polygon fill="white" stroke="transparent" points="-4,4 -4,-252 492,-252 492,4 -4,4"/>
<!-- Node1 -->
<g id="node1" class="node">
<title>Node1</title>
<g id="a_node1"><a xlink:title=" ">
<polygon fill="#bfbfbf" stroke="black" points="0,-228.5 0,-247.5 62,-247.5 62,-228.5 0,-228.5"/>
<text text-anchor="middle" x="31" y="-235.5" font-family="Helvetica,sans-Serif" font-size="10.00">rnode_seq</text>
</a>
</g>
</g>
<!-- Node2 -->
<g id="node2" class="node">
<title>Node2</title>
<g id="a_node2"><a xlink:href="regex_8c.html#a0df57dc0ee1beb9018cdd537a58571aa" target="_top" xlink:title=" ">
<polygon fill="white" stroke="black" points="98,-114.5 98,-133.5 166,-133.5 166,-114.5 98,-114.5"/>
<text text-anchor="middle" x="132" y="-121.5" font-family="Helvetica,sans-Serif" font-size="10.00">rnode_atom</text>
</a>
</g>
</g>
<!-- Node1&#45;&gt;Node2 -->
<g id="edge1" class="edge">
<title>Node1&#45;&gt;Node2</title>
<path fill="none" stroke="midnightblue" d="M40.44,-228.28C57.17,-209.01 94.75,-165.75 115.86,-141.43"/>
<polygon fill="midnightblue" stroke="midnightblue" points="118.67,-143.54 122.58,-133.69 113.38,-138.95 118.67,-143.54"/>
</g>
<!-- Node9 -->
<g id="node9" class="node">
<title>Node9</title>
<g id="a_node9"><a xlink:href="regex_8c.html#a39869d385d8410ffb9d5bf74c778c6ce" target="_top" xlink:title=" ">
<polygon fill="white" stroke="black" points="418,-171.5 418,-190.5 488,-190.5 488,-171.5 418,-171.5"/>
<text text-anchor="middle" x="453" y="-178.5" font-family="Helvetica,sans-Serif" font-size="10.00">rnode_make</text>
</a>
</g>
</g>
<!-- Node1&#45;&gt;Node9 -->
<g id="edge14" class="edge">
<title>Node1&#45;&gt;Node9</title>
<path fill="none" stroke="midnightblue" d="M62.22,-240.75C123.78,-245.39 267.53,-251.4 382,-219 399.19,-214.14 416.86,-204.5 430.14,-196.15"/>
<polygon fill="midnightblue" stroke="midnightblue" points="432.11,-199.05 438.58,-190.65 428.29,-193.18 432.11,-199.05"/>
</g>
<!-- Node3 -->
<g id="node3" class="node">
<title>Node3</title>
<g id="a_node3"><a xlink:href="regex_8c.html#a8b5ae269a79b320da8e87712e2051d1c" target="_top" xlink:title=" ">
<polygon fill="white" stroke="black" points="202,-38.5 202,-57.5 267,-57.5 267,-38.5 202,-38.5"/>
<text text-anchor="middle" x="234.5" y="-45.5" font-family="Helvetica,sans-Serif" font-size="10.00">ratom_read</text>
</a>
</g>
</g>
<!-- Node2&#45;&gt;Node3 -->
<g id="edge2" class="edge">
<title>Node2&#45;&gt;Node3</title>
<path fill="none" stroke="midnightblue" d="M145.73,-114.37C162.57,-101.64 192.47,-79.03 212.64,-63.78"/>
<polygon fill="midnightblue" stroke="midnightblue" points="215.01,-66.37 220.87,-57.55 210.79,-60.79 215.01,-66.37"/>
</g>
<!-- Node7 -->
<g id="node7" class="node">
<title>Node7</title>
<g id="a_node7"><a xlink:href="regex_8c.html#aabe89a3a22bc0fdc0329cf29ec80ad76" target="_top" xlink:title=" ">
<polygon fill="white" stroke="black" points="311.5,-114.5 311.5,-133.5 373.5,-133.5 373.5,-114.5 311.5,-114.5"/>
<text text-anchor="middle" x="342.5" y="-121.5" font-family="Helvetica,sans-Serif" font-size="10.00">rnode_free</text>
</a>
</g>
</g>
<!-- Node2&#45;&gt;Node7 -->
<g id="edge6" class="edge">
<title>Node2&#45;&gt;Node7</title>
<path fill="none" stroke="midnightblue" d="M166.04,-124C202.72,-124 261.93,-124 301.28,-124"/>
<polygon fill="midnightblue" stroke="midnightblue" points="301.33,-127.5 311.33,-124 301.32,-120.5 301.33,-127.5"/>
</g>
<!-- Node8 -->
<g id="node8" class="node">
<title>Node8</title>
<g id="a_node8"><a xlink:href="regex_8c.html#aaeda19c8b3704252a342cdcc7fc3591c" target="_top" xlink:title=" ">
<polygon fill="white" stroke="black" points="205,-152.5 205,-171.5 264,-171.5 264,-152.5 205,-152.5"/>
<text text-anchor="middle" x="234.5" y="-159.5" font-family="Helvetica,sans-Serif" font-size="10.00">rnode_grp</text>
</a>
</g>
</g>
<!-- Node2&#45;&gt;Node8 -->
<g id="edge7" class="edge">
<title>Node2&#45;&gt;Node8</title>
<path fill="none" stroke="midnightblue" d="M158.36,-133.59C170.5,-138.18 185.23,-143.75 198.43,-148.74"/>
<polygon fill="midnightblue" stroke="midnightblue" points="197.56,-152.15 208.15,-152.41 200.03,-145.6 197.56,-152.15"/>
</g>
<!-- Node2&#45;&gt;Node9 -->
<g id="edge13" class="edge">
<title>Node2&#45;&gt;Node9</title>
<path fill="none" stroke="midnightblue" d="M158.71,-114.39C205.41,-98.55 306.36,-71.83 382,-105 408.72,-116.72 429.74,-144.22 441.52,-162.73"/>
<polygon fill="midnightblue" stroke="midnightblue" points="438.64,-164.72 446.82,-171.45 444.62,-161.09 438.64,-164.72"/>
</g>
<!-- Node4 -->
<g id="node4" class="node">
<title>Node4</title>
<g id="a_node4"><a xlink:href="regex_8c.html#a1904288a4b4c7b7d0666c3d85d438e1a" target="_top" xlink:title=" ">
<polygon fill="white" stroke="black" points="303,-0.5 303,-19.5 382,-19.5 382,-0.5 303,-0.5"/>
<text text-anchor="middle" x="342.5" y="-7.5" font-family="Helvetica,sans-Serif" font-size="10.00">ratom_readbrk</text>
</a>
</g>
</g>
<!-- Node3&#45;&gt;Node4 -->
<g id="edge3" class="edge">
<title>Node3&#45;&gt;Node4</title>
<path fill="none" stroke="midnightblue" d="M262.25,-38.41C275.3,-33.73 291.2,-28.03 305.32,-22.97"/>
<polygon fill="midnightblue" stroke="midnightblue" points="306.53,-26.26 314.76,-19.59 304.17,-19.67 306.53,-26.26"/>
</g>
<!-- Node6 -->
<g id="node6" class="node">
<title>Node6</title>
<g id="a_node6"><a xlink:href="regex_8c.html#a9a0d6d5f93f1eaba8b63b16903c0952d" target="_top" xlink:title=" ">
<polygon fill="white" stroke="black" points="320,-38.5 320,-57.5 365,-57.5 365,-38.5 320,-38.5"/>
<text text-anchor="middle" x="342.5" y="-45.5" font-family="Helvetica,sans-Serif" font-size="10.00">uc_len</text>
</a>
</g>
</g>
<!-- Node3&#45;&gt;Node6 -->
<g id="edge5" class="edge">
<title>Node3&#45;&gt;Node6</title>
<path fill="none" stroke="midnightblue" d="M267.02,-48C280.4,-48 295.99,-48 309.44,-48"/>
<polygon fill="midnightblue" stroke="midnightblue" points="309.68,-51.5 319.68,-48 309.68,-44.5 309.68,-51.5"/>
</g>
<!-- Node5 -->
<g id="node5" class="node">
<title>Node5</title>
<g id="a_node5"><a xlink:href="regex_8c.html#acc18ff8d2687611a9e221b3329b02413" target="_top" xlink:title=" ">
<polygon fill="white" stroke="black" points="429,-0.5 429,-19.5 477,-19.5 477,-0.5 429,-0.5"/>
<text text-anchor="middle" x="453" y="-7.5" font-family="Helvetica,sans-Serif" font-size="10.00">brk_len</text>
</a>
</g>
</g>
<!-- Node4&#45;&gt;Node5 -->
<g id="edge4" class="edge">
<title>Node4&#45;&gt;Node5</title>
<path fill="none" stroke="midnightblue" d="M382.06,-10C394,-10 407.04,-10 418.6,-10"/>
<polygon fill="midnightblue" stroke="midnightblue" points="418.72,-13.5 428.72,-10 418.72,-6.5 418.72,-13.5"/>
</g>
<!-- Node8&#45;&gt;Node7 -->
<g id="edge8" class="edge">
<title>Node8&#45;&gt;Node7</title>
<path fill="none" stroke="midnightblue" d="M262.25,-152.41C275.3,-147.73 291.2,-142.03 305.32,-136.97"/>
<polygon fill="midnightblue" stroke="midnightblue" points="306.53,-140.26 314.76,-133.59 304.17,-133.67 306.53,-140.26"/>
</g>
<!-- Node8&#45;&gt;Node9 -->
<g id="edge9" class="edge">
<title>Node8&#45;&gt;Node9</title>
<path fill="none" stroke="midnightblue" d="M264.25,-164.52C300.91,-167.74 364.68,-173.34 407.61,-177.1"/>
<polygon fill="midnightblue" stroke="midnightblue" points="407.5,-180.61 417.77,-178 408.12,-173.64 407.5,-180.61"/>
</g>
<!-- Node10 -->
<g id="node10" class="node">
<title>Node10</title>
<g id="a_node10"><a xlink:href="regex_8c.html#ac19329676c1426f2b24af24e33e3a845" target="_top" xlink:title=" ">
<polygon fill="white" stroke="black" points="307.5,-190.5 307.5,-209.5 377.5,-209.5 377.5,-190.5 307.5,-190.5"/>
<text text-anchor="middle" x="342.5" y="-197.5" font-family="Helvetica,sans-Serif" font-size="10.00">rnode_parse</text>
</a>
</g>
</g>
<!-- Node8&#45;&gt;Node10 -->
<g id="edge10" class="edge">
<title>Node8&#45;&gt;Node10</title>
<path fill="none" stroke="midnightblue" d="M262.25,-171.59C275.3,-176.27 291.2,-181.97 305.32,-187.03"/>
<polygon fill="midnightblue" stroke="midnightblue" points="304.17,-190.33 314.76,-190.41 306.53,-183.74 304.17,-190.33"/>
</g>
<!-- Node10&#45;&gt;Node1 -->
<g id="edge12" class="edge">
<title>Node10&#45;&gt;Node1</title>
<path fill="none" stroke="midnightblue" d="M307.39,-204.19C249.86,-211.25 133.81,-225.5 72.34,-233.05"/>
<polygon fill="midnightblue" stroke="midnightblue" points="71.74,-229.59 62.24,-234.29 72.59,-236.54 71.74,-229.59"/>
</g>
<!-- Node10&#45;&gt;Node9 -->
<g id="edge11" class="edge">
<title>Node10&#45;&gt;Node9</title>
<path fill="none" stroke="midnightblue" d="M377.53,-194.04C387.13,-192.36 397.72,-190.5 407.83,-188.74"/>
<polygon fill="midnightblue" stroke="midnightblue" points="408.47,-192.18 417.72,-187 407.26,-185.28 408.47,-192.18"/>
</g>
</g>
</svg>
