<?xml version="1.0" encoding="UTF-8" standalone="no"?>
<!DOCTYPE svg PUBLIC "-//W3C//DTD SVG 1.1//EN"
 "http://www.w3.org/Graphics/SVG/1.1/DTD/svg11.dtd">
<!-- Generated by graphviz version 2.44.1 (20200629.0846)
 -->
<!-- Title: rnode_atom Pages: 1 -->
<svg width="496pt" height="256pt"
 viewBox="0.00 0.00 496.00 256.00" xmlns="http://www.w3.org/2000/svg" xmlns:xlink="http://www.w3.org/1999/xlink">
<g id="graph0" class="graph" transform="scale(1 1) rotate(0) translate(4 252)">
<title>rnode_atom</title>
<polygon fill="white" stroke="transparent" points="-4,4 -4,-252 492,-252 492,4 -4,4"/>
<!-- Node1 -->
<g id="node1" class="node">
<title>Node1</title>
<g id="a_node1"><a xlink:title=" ">
<polygon fill="#bfbfbf" stroke="black" points="0,-114.5 0,-133.5 68,-133.5 68,-114.5 0,-114.5"/>
<text text-anchor="middle" x="34" y="-121.5" font-family="Helvetica,sans-Serif" font-size="10.00">rnode_atom</text>
</a>
</g>
</g>
<!-- Node2 -->
<g id="node2" class="node">
<title>Node2</title>
<g id="a_node2"><a xlink:href="regex_8c.html#a8b5ae269a79b320da8e87712e2051d1c" target="_top" xlink:title=" ">
<polygon fill="white" stroke="black" points="104,-190.5 104,-209.5 169,-209.5 169,-190.5 104,-190.5"/>
<text text-anchor="middle" x="136.5" y="-197.5" font-family="Helvetica,sans-Serif" font-size="10.00">ratom_read</text>
</a>
</g>
</g>
<!-- Node1&#45;&gt;Node2 -->
<g id="edge1" class="edge">
<title>Node1&#45;&gt;Node2</title>
<path fill="none" stroke="midnightblue" d="M47.73,-133.63C64.57,-146.36 94.47,-168.97 114.64,-184.22"/>
<polygon fill="midnightblue" stroke="midnightblue" points="112.79,-187.21 122.87,-190.45 117.01,-181.63 112.79,-187.21"/>
</g>
<!-- Node6 -->
<g id="node6" class="node">
<title>Node6</title>
<g id="a_node6"><a xlink:href="regex_8c.html#aabe89a3a22bc0fdc0329cf29ec80ad76" target="_top" xlink:title=" ">
<polygon fill="white" stroke="black" points="213.5,-114.5 213.5,-133.5 275.5,-133.5 275.5,-114.5 213.5,-114.5"/>
<text text-anchor="middle" x="244.5" y="-121.5" font-family="Helvetica,sans-Serif" font-size="10.00">rnode_free</text>
</a>
</g>
</g>
<!-- Node1&#45;&gt;Node6 -->
<g id="edge5" class="edge">
<title>Node1&#45;&gt;Node6</title>
<path fill="none" stroke="midnightblue" d="M68.04,-124C104.72,-124 163.93,-124 203.28,-124"/>
<polygon fill="midnightblue" stroke="midnightblue" points="203.33,-127.5 213.33,-124 203.32,-120.5 203.33,-127.5"/>
</g>
<!-- Node7 -->
<g id="node7" class="node">
<title>Node7</title>
<g id="a_node7"><a xlink:href="regex_8c.html#aaeda19c8b3704252a342cdcc7fc3591c" target="_top" xlink:title=" ">
<polygon fill="white" stroke="black" points="107,-76.5 107,-95.5 166,-95.5 166,-76.5 107,-76.5"/>
<text text-anchor="middle" x="136.5" y="-83.5" font-family="Helvetica,sans-Serif" font-size="10.00">rnode_grp</text>
</a>
</g>
</g>
<!-- Node1&#45;&gt;Node7 -->
<g id="edge6" class="edge">
<title>Node1&#45;&gt;Node7</title>
<path fill="none" stroke="midnightblue" d="M60.36,-114.41C72.5,-109.82 87.23,-104.25 100.43,-99.26"/>
<polygon fill="midnightblue" stroke="midnightblue" points="102.03,-102.4 110.15,-95.59 99.56,-95.85 102.03,-102.4"/>
</g>
<!-- Node8 -->
<g id="node8" class="node">
<title>Node8</title>
<g id="a_node8"><a xlink:href="regex_8c.html#a39869d385d8410ffb9d5bf74c778c6ce" target="_top" xlink:title=" ">
<polygon fill="white" stroke="black" points="418,-57.5 418,-76.5 488,-76.5 488,-57.5 418,-57.5"/>
<text text-anchor="middle" x="453" y="-64.5" font-family="Helvetica,sans-Serif" font-size="10.00">rnode_make</text>
</a>
</g>
</g>
<!-- Node1&#45;&gt;Node8 -->
<g id="edge14" class="edge">
<title>Node1&#45;&gt;Node8</title>
<path fill="none" stroke="midnightblue" d="M68.04,-132.47C116.12,-143.46 207.93,-159.41 284,-143 338.17,-131.32 395.89,-100.69 427.6,-82.07"/>
<polygon fill="midnightblue" stroke="midnightblue" points="429.78,-84.85 436.57,-76.72 426.19,-78.84 429.78,-84.85"/>
</g>
<!-- Node3 -->
<g id="node3" class="node">
<title>Node3</title>
<g id="a_node3"><a xlink:href="regex_8c.html#a1904288a4b4c7b7d0666c3d85d438e1a" target="_top" xlink:title=" ">
<polygon fill="white" stroke="black" points="205,-190.5 205,-209.5 284,-209.5 284,-190.5 205,-190.5"/>
<text text-anchor="middle" x="244.5" y="-197.5" font-family="Helvetica,sans-Serif" font-size="10.00">ratom_readbrk</text>
</a>
</g>
</g>
<!-- Node2&#45;&gt;Node3 -->
<g id="edge2" class="edge">
<title>Node2&#45;&gt;Node3</title>
<path fill="none" stroke="midnightblue" d="M169.02,-200C177.09,-200 185.96,-200 194.68,-200"/>
<polygon fill="midnightblue" stroke="midnightblue" points="194.79,-203.5 204.79,-200 194.79,-196.5 194.79,-203.5"/>
</g>
<!-- Node5 -->
<g id="node5" class="node">
<title>Node5</title>
<g id="a_node5"><a xlink:href="regex_8c.html#a9a0d6d5f93f1eaba8b63b16903c0952d" target="_top" xlink:title=" ">
<polygon fill="white" stroke="black" points="222,-228.5 222,-247.5 267,-247.5 267,-228.5 222,-228.5"/>
<text text-anchor="middle" x="244.5" y="-235.5" font-family="Helvetica,sans-Serif" font-size="10.00">uc_len</text>
</a>
</g>
</g>
<!-- Node2&#45;&gt;Node5 -->
<g id="edge4" class="edge">
<title>Node2&#45;&gt;Node5</title>
<path fill="none" stroke="midnightblue" d="M164.25,-209.59C178.84,-214.82 196.98,-221.32 212.22,-226.79"/>
<polygon fill="midnightblue" stroke="midnightblue" points="211.16,-230.12 221.75,-230.2 213.52,-223.53 211.16,-230.12"/>
</g>
<!-- Node4 -->
<g id="node4" class="node">
<title>Node4</title>
<g id="a_node4"><a xlink:href="regex_8c.html#acc18ff8d2687611a9e221b3329b02413" target="_top" xlink:title=" ">
<polygon fill="white" stroke="black" points="327,-190.5 327,-209.5 375,-209.5 375,-190.5 327,-190.5"/>
<text text-anchor="middle" x="351" y="-197.5" font-family="Helvetica,sans-Serif" font-size="10.00">brk_len</text>
</a>
</g>
</g>
<!-- Node3&#45;&gt;Node4 -->
<g id="edge3" class="edge">
<title>Node3&#45;&gt;Node4</title>
<path fill="none" stroke="midnightblue" d="M284.12,-200C294.73,-200 306.15,-200 316.46,-200"/>
<polygon fill="midnightblue" stroke="midnightblue" points="316.71,-203.5 326.71,-200 316.71,-196.5 316.71,-203.5"/>
</g>
<!-- Node7&#45;&gt;Node6 -->
<g id="edge7" class="edge">
<title>Node7&#45;&gt;Node6</title>
<path fill="none" stroke="midnightblue" d="M164.25,-95.59C177.3,-100.27 193.2,-105.97 207.32,-111.03"/>
<polygon fill="midnightblue" stroke="midnightblue" points="206.17,-114.33 216.76,-114.41 208.53,-107.74 206.17,-114.33"/>
</g>
<!-- Node7&#45;&gt;Node8 -->
<g id="edge8" class="edge">
<title>Node7&#45;&gt;Node8</title>
<path fill="none" stroke="midnightblue" d="M166.24,-84.26C221.37,-80.93 342.29,-73.63 407.77,-69.67"/>
<polygon fill="midnightblue" stroke="midnightblue" points="408.01,-73.16 417.78,-69.07 407.59,-66.18 408.01,-73.16"/>
</g>
<!-- Node9 -->
<g id="node9" class="node">
<title>Node9</title>
<g id="a_node9"><a xlink:href="regex_8c.html#ac19329676c1426f2b24af24e33e3a845" target="_top" xlink:title=" ">
<polygon fill="white" stroke="black" points="209.5,-38.5 209.5,-57.5 279.5,-57.5 279.5,-38.5 209.5,-38.5"/>
<text text-anchor="middle" x="244.5" y="-45.5" font-family="Helvetica,sans-Serif" font-size="10.00">rnode_parse</text>
</a>
</g>
</g>
<!-- Node7&#45;&gt;Node9 -->
<g id="edge9" class="edge">
<title>Node7&#45;&gt;Node9</title>
<path fill="none" stroke="midnightblue" d="M164.25,-76.41C177.3,-71.73 193.2,-66.03 207.32,-60.97"/>
<polygon fill="midnightblue" stroke="midnightblue" points="208.53,-64.26 216.76,-57.59 206.17,-57.67 208.53,-64.26"/>
</g>
<!-- Node9&#45;&gt;Node8 -->
<g id="edge10" class="edge">
<title>Node9&#45;&gt;Node8</title>
<path fill="none" stroke="midnightblue" d="M279.6,-51.14C314.57,-54.36 369.14,-59.38 407.49,-62.9"/>
<polygon fill="midnightblue" stroke="midnightblue" points="407.57,-66.43 417.85,-63.86 408.21,-59.46 407.57,-66.43"/>
</g>
<!-- Node10 -->
<g id="node10" class="node">
<title>Node10</title>
<g id="a_node10"><a xlink:href="regex_8c.html#abe0c1f4be43ac6d7caa4f95a560f823f" target="_top" xlink:title=" ">
<polygon fill="white" stroke="black" points="320,-0.5 320,-19.5 382,-19.5 382,-0.5 320,-0.5"/>
<text text-anchor="middle" x="351" y="-7.5" font-family="Helvetica,sans-Serif" font-size="10.00">rnode_seq</text>
</a>
</g>
</g>
<!-- Node9&#45;&gt;Node10 -->
<g id="edge11" class="edge">
<title>Node9&#45;&gt;Node10</title>
<path fill="none" stroke="midnightblue" d="M271.87,-38.41C284.62,-33.78 300.11,-28.14 313.93,-23.11"/>
<polygon fill="midnightblue" stroke="midnightblue" points="315.44,-26.29 323.64,-19.59 313.04,-19.71 315.44,-26.29"/>
</g>
<!-- Node10&#45;&gt;Node1 -->
<g id="edge12" class="edge">
<title>Node10&#45;&gt;Node1</title>
<path fill="none" stroke="midnightblue" d="M319.92,-11.34C271.39,-14.68 174.17,-26.34 104,-67 84.63,-78.22 65.2,-94.87 51.92,-107.28"/>
<polygon fill="midnightblue" stroke="midnightblue" points="49.31,-104.93 44.5,-114.37 54.15,-109.99 49.31,-104.93"/>
</g>
<!-- Node10&#45;&gt;Node8 -->
<g id="edge13" class="edge">
<title>Node10&#45;&gt;Node8</title>
<path fill="none" stroke="midnightblue" d="M368.96,-19.67C384.72,-28.65 408.39,-42.14 426.44,-52.43"/>
<polygon fill="midnightblue" stroke="midnightblue" points="424.87,-55.56 435.29,-57.47 428.33,-49.48 424.87,-55.56"/>
</g>
</g>
</svg>
