<?xml version="1.0" encoding="UTF-8" standalone="no"?>
<!DOCTYPE svg PUBLIC "-//W3C//DTD SVG 1.1//EN"
 "http://www.w3.org/Graphics/SVG/1.1/DTD/svg11.dtd">
<!-- Generated by graphviz version 2.44.1 (20200629.0846)
 -->
<!-- Title: pos_prev Pages: 1 -->
<!--zoomable 364 -->
<svg id="main" version="1.1" xmlns="http://www.w3.org/2000/svg" xmlns:xlink="http://www.w3.org/1999/xlink" xml:space="preserve" onload="init(evt)">
<style type="text/css"><![CDATA[
.edge:hover path { stroke: red; }
.edge:hover polygon { stroke: red; fill: red; }
]]></style>
<script type="text/javascript"><![CDATA[
var edges = document.getElementsByTagName('g');
if (edges && edges.length) {
  for (var i=0;i<edges.length;i++) {
    if (edges[i].id.substr(0,4)=='edge') {
      edges[i].setAttribute('class','edge');
    }
  }
}
]]></script>
        <defs>
                <circle id="rim" cx="0" cy="0" r="7"/>
                <circle id="rim2" cx="0" cy="0" r="3.5"/>
                <g id="zoomPlus">
                        <use xlink:href="#rim" fill="#404040">
                                <set attributeName="fill" to="#808080" begin="zoomplus.mouseover" end="zoomplus.mouseout"/>
                        </use>
                        <path d="M-4,0h8M0,-4v8" fill="none" stroke="white" stroke-width="1.5" pointer-events="none"/>
                </g>
                <g id="zoomMin">
                        <use xlink:href="#rim" fill="#404040">
                                <set attributeName="fill" to="#808080" begin="zoomminus.mouseover" end="zoomminus.mouseout"/>
                        </use>
                        <path d="M-4,0h8" fill="none" stroke="white" stroke-width="1.5" pointer-events="none"/>
                </g>
                <g id="dirArrow">
                        <path fill="none" stroke="white" stroke-width="1.5" d="M0,-3.0v7 M-2.5,-0.5L0,-3.0L2.5,-0.5"/>
                </g>
               <g id="resetDef">
                       <use xlink:href="#rim2" fill="#404040">
                               <set attributeName="fill" to="#808080" begin="reset.mouseover" end="reset.mouseout"/>
                       </use>
               </g>
        </defs>

<script type="text/javascript">
var viewWidth = 1076;
var viewHeight = 364;
var sectionId = 'dynsection-5';
</script>
<script xlink:href="svgpan.js"/>
<svg id="graph" class="graph">
<g id="viewport">
<title>pos_prev</title>
<polygon fill="white" stroke="transparent" points="-4,4 -4,-360.17 1072,-360.17 1072,4 -4,4"/>
<!-- Node1 -->
<g id="node1" class="node">
<title>Node1</title>
<g id="a_node1"><a xlink:title=" ">
<polygon fill="#bfbfbf" stroke="black" points="1012,-232.5 1012,-251.5 1068,-251.5 1068,-232.5 1012,-232.5"/>
<text text-anchor="middle" x="1040" y="-239.5" font-family="Helvetica,sans-Serif" font-size="10.00">pos_prev</text>
</a>
</g>
</g>
<!-- Node2 -->
<g id="node2" class="node">
<title>Node2</title>
<g id="a_node2"><a xlink:href="vi_8h.html#a60f81bf9835d8eee93b82d5236763c83" target="_top" xlink:title=" ">
<polygon fill="white" stroke="black" points="831,-142.5 831,-161.5 893,-161.5 893,-142.5 831,-142.5"/>
<text text-anchor="middle" x="862" y="-149.5" font-family="Helvetica,sans-Serif" font-size="10.00">ren_cursor</text>
</a>
</g>
</g>
<!-- Node1&#45;&gt;Node2 -->
<g id="edge1" class="edge">
<title>Node1&#45;&gt;Node2</title>
<path fill="none" stroke="midnightblue" d="M1011.12,-227.75C974.92,-209.23 912.71,-177.42 881.7,-161.56"/>
<polygon fill="midnightblue" stroke="midnightblue" points="1009.67,-230.93 1020.16,-232.37 1012.86,-224.7 1009.67,-230.93"/>
</g>
<!-- Node22 -->
<g id="node22" class="node">
<title>Node22</title>
<g id="a_node22"><a xlink:href="vi_8h.html#aa288077162077d17ddd836c0167a2ad0" target="_top" xlink:title=" ">
<polygon fill="white" stroke="black" points="835,-251.5 835,-270.5 889,-270.5 889,-251.5 835,-251.5"/>
<text text-anchor="middle" x="862" y="-258.5" font-family="Helvetica,sans-Serif" font-size="10.00">ren_next</text>
</a>
</g>
</g>
<!-- Node1&#45;&gt;Node22 -->
<g id="edge31" class="edge">
<title>Node1&#45;&gt;Node22</title>
<path fill="none" stroke="midnightblue" d="M1001.94,-246C968.18,-249.65 919.17,-254.94 889.28,-258.16"/>
<polygon fill="midnightblue" stroke="midnightblue" points="1002.32,-249.48 1011.89,-244.93 1001.57,-242.52 1002.32,-249.48"/>
</g>
<!-- Node24 -->
<g id="node24" class="node">
<title>Node24</title>
<g id="a_node24"><a xlink:href="vi_8h.html#a5a98e4d81939491445eac54b2358f5a2" target="_top" xlink:title=" ">
<polygon fill="white" stroke="black" points="929,-270.5 929,-289.5 976,-289.5 976,-270.5 929,-270.5"/>
<text text-anchor="middle" x="952.5" y="-277.5" font-family="Helvetica,sans-Serif" font-size="10.00">ren_off</text>
</a>
</g>
</g>
<!-- Node1&#45;&gt;Node24 -->
<g id="edge34" class="edge">
<title>Node1&#45;&gt;Node24</title>
<path fill="none" stroke="midnightblue" d="M1008.16,-255.71C997.19,-260.58 985.09,-265.96 975.07,-270.41"/>
<polygon fill="midnightblue" stroke="midnightblue" points="1009.71,-258.85 1017.42,-251.59 1006.87,-252.45 1009.71,-258.85"/>
</g>
<!-- Node3 -->
<g id="node3" class="node">
<title>Node3</title>
<g id="a_node3"><a xlink:href="led_8c.html#ae938cbff964c214e7e4f6aff4d5ce0f7" target="_top" xlink:title=" ">
<polygon fill="white" stroke="black" points="720,-142.5 720,-161.5 795,-161.5 795,-142.5 720,-142.5"/>
<text text-anchor="middle" x="757.5" y="-149.5" font-family="Helvetica,sans-Serif" font-size="10.00">led_printparts</text>
</a>
</g>
</g>
<!-- Node2&#45;&gt;Node3 -->
<g id="edge2" class="edge">
<title>Node2&#45;&gt;Node3</title>
<path fill="none" stroke="midnightblue" d="M820.73,-152C812.25,-152 803.34,-152 795.01,-152"/>
<polygon fill="midnightblue" stroke="midnightblue" points="820.8,-155.5 830.8,-152 820.8,-148.5 820.8,-155.5"/>
</g>
<!-- Node7 -->
<g id="node7" class="node">
<title>Node7</title>
<g id="a_node7"><a xlink:href="vi_8c.html#a8d808e0f3453afe6600673ee1ea5f828" target="_top" xlink:title=" ">
<polygon fill="white" stroke="black" points="74,-180.5 74,-199.5 103,-199.5 103,-180.5 74,-180.5"/>
<text text-anchor="middle" x="88.5" y="-187.5" font-family="Helvetica,sans-Serif" font-size="10.00">vi</text>
</a>
</g>
</g>
<!-- Node2&#45;&gt;Node7 -->
<g id="edge30" class="edge">
<title>Node2&#45;&gt;Node7</title>
<path fill="none" stroke="midnightblue" d="M849.11,-134.16C820.75,-94 744.84,0 655.5,0 655.5,0 655.5,0 266.5,0 206.55,0 181.27,-1.5 139,-44 99.93,-83.28 91.68,-154.5 89.95,-180.32"/>
<polygon fill="midnightblue" stroke="midnightblue" points="846.29,-136.24 854.85,-142.49 852.06,-132.27 846.29,-136.24"/>
</g>
<!-- Node21 -->
<g id="node21" class="node">
<title>Node21</title>
<g id="a_node21"><a xlink:href="vi_8c.html#ab7d24df5f19f55dae6f719cd5bcfbe6f" target="_top" xlink:title=" ">
<polygon fill="white" stroke="black" points="625,-66.5 625,-85.5 684,-85.5 684,-66.5 625,-66.5"/>
<text text-anchor="middle" x="654.5" y="-73.5" font-family="Helvetica,sans-Serif" font-size="10.00">vc_status</text>
</a>
</g>
</g>
<!-- Node2&#45;&gt;Node21 -->
<g id="edge28" class="edge">
<title>Node2&#45;&gt;Node21</title>
<path fill="none" stroke="midnightblue" d="M825.36,-138.82C784.27,-123.62 717.72,-99.01 681.32,-85.55"/>
<polygon fill="midnightblue" stroke="midnightblue" points="824.38,-142.19 834.97,-142.37 826.81,-135.62 824.38,-142.19"/>
</g>
<!-- Node4 -->
<g id="node4" class="node">
<title>Node4</title>
<g id="a_node4"><a xlink:href="vi_8h.html#ae72255a31cec31233723c101d9465d07" target="_top" xlink:title=" ">
<polygon fill="white" stroke="black" points="528.5,-133.5 528.5,-152.5 584.5,-152.5 584.5,-133.5 528.5,-133.5"/>
<text text-anchor="middle" x="556.5" y="-140.5" font-family="Helvetica,sans-Serif" font-size="10.00">led_input</text>
</a>
</g>
</g>
<!-- Node3&#45;&gt;Node4 -->
<g id="edge3" class="edge">
<title>Node3&#45;&gt;Node4</title>
<path fill="none" stroke="midnightblue" d="M709.5,-149.87C670.62,-148.12 616.76,-145.68 584.68,-144.23"/>
<polygon fill="midnightblue" stroke="midnightblue" points="709.39,-153.37 719.54,-150.33 709.7,-146.38 709.39,-153.37"/>
</g>
<!-- Node11 -->
<g id="node11" class="node">
<title>Node11</title>
<g id="a_node11"><a xlink:href="led_8c.html#a617ec615e86687b5c10df33b271256c8" target="_top" xlink:title=" ">
<polygon fill="white" stroke="black" points="629.5,-171.5 629.5,-190.5 679.5,-190.5 679.5,-171.5 629.5,-171.5"/>
<text text-anchor="middle" x="654.5" y="-178.5" font-family="Helvetica,sans-Serif" font-size="10.00">led_line</text>
</a>
</g>
</g>
<!-- Node3&#45;&gt;Node11 -->
<g id="edge11" class="edge">
<title>Node3&#45;&gt;Node11</title>
<path fill="none" stroke="midnightblue" d="M713.21,-164.43C701.67,-167.74 689.63,-171.2 679.54,-174.1"/>
<polygon fill="midnightblue" stroke="midnightblue" points="714.5,-167.7 723.15,-161.58 712.57,-160.97 714.5,-167.7"/>
</g>
<!-- Node5 -->
<g id="node5" class="node">
<title>Node5</title>
<g id="a_node5"><a xlink:href="vi_8c.html#a653f6b0359cef492e11f404c4bf469b9" target="_top" xlink:title=" ">
<polygon fill="white" stroke="black" points="338.5,-104.5 338.5,-123.5 388.5,-123.5 388.5,-104.5 338.5,-104.5"/>
<text text-anchor="middle" x="363.5" y="-111.5" font-family="Helvetica,sans-Serif" font-size="10.00">vi_input</text>
</a>
</g>
</g>
<!-- Node4&#45;&gt;Node5 -->
<g id="edge4" class="edge">
<title>Node4&#45;&gt;Node5</title>
<path fill="none" stroke="midnightblue" d="M517.9,-137.29C479.62,-131.48 421.39,-122.64 388.79,-117.69"/>
<polygon fill="midnightblue" stroke="midnightblue" points="517.72,-140.8 528.13,-138.85 518.77,-133.88 517.72,-140.8"/>
</g>
<!-- Node6 -->
<g id="node6" class="node">
<title>Node6</title>
<g id="a_node6"><a xlink:href="vi_8c.html#a8bb357a77ed61da8858f138c6fa672a6" target="_top" xlink:title=" ">
<polygon fill="white" stroke="black" points="239.5,-66.5 239.5,-85.5 295.5,-85.5 295.5,-66.5 239.5,-66.5"/>
<text text-anchor="middle" x="267.5" y="-73.5" font-family="Helvetica,sans-Serif" font-size="10.00">vc_insert</text>
</a>
</g>
</g>
<!-- Node5&#45;&gt;Node6 -->
<g id="edge5" class="edge">
<title>Node5&#45;&gt;Node6</title>
<path fill="none" stroke="midnightblue" d="M329.32,-100.59C317.08,-95.64 303.46,-90.13 292.21,-85.59"/>
<polygon fill="midnightblue" stroke="midnightblue" points="328.2,-103.91 338.78,-104.41 330.82,-97.42 328.2,-103.91"/>
</g>
<!-- Node9 -->
<g id="node9" class="node">
<title>Node9</title>
<g id="a_node9"><a xlink:href="vi_8c.html#ae37b094c3bb647d8c1a4ac4e858ce518" target="_top" xlink:title=" ">
<polygon fill="white" stroke="black" points="237,-104.5 237,-123.5 298,-123.5 298,-104.5 237,-104.5"/>
<text text-anchor="middle" x="267.5" y="-111.5" font-family="Helvetica,sans-Serif" font-size="10.00">vi_change</text>
</a>
</g>
</g>
<!-- Node5&#45;&gt;Node9 -->
<g id="edge8" class="edge">
<title>Node5&#45;&gt;Node9</title>
<path fill="none" stroke="midnightblue" d="M328.1,-114C318.34,-114 307.8,-114 298.34,-114"/>
<polygon fill="midnightblue" stroke="midnightblue" points="328.29,-117.5 338.29,-114 328.29,-110.5 328.29,-117.5"/>
</g>
<!-- Node6&#45;&gt;Node7 -->
<g id="edge6" class="edge">
<title>Node6&#45;&gt;Node7</title>
<path fill="none" stroke="midnightblue" d="M229.55,-87.67C202.8,-97.22 166.63,-112.51 139,-133 120.68,-146.58 104.4,-168.03 95.84,-180.38"/>
<polygon fill="midnightblue" stroke="midnightblue" points="231,-90.87 239.3,-84.29 228.71,-84.25 231,-90.87"/>
</g>
<!-- Node8 -->
<g id="node8" class="node">
<title>Node8</title>
<g id="a_node8"><a xlink:href="vi_8c.html#a0ddf1224851353fc92bfbff6f499fa97" target="_top" xlink:title=" ">
<polygon fill="white" stroke="black" points="0,-199.5 0,-218.5 38,-218.5 38,-199.5 0,-199.5"/>
<text text-anchor="middle" x="19" y="-206.5" font-family="Helvetica,sans-Serif" font-size="10.00">main</text>
</a>
</g>
</g>
<!-- Node7&#45;&gt;Node8 -->
<g id="edge7" class="edge">
<title>Node7&#45;&gt;Node8</title>
<path fill="none" stroke="midnightblue" d="M64.14,-196.57C55.67,-198.96 46.22,-201.62 38.25,-203.86"/>
<polygon fill="midnightblue" stroke="midnightblue" points="65.16,-199.92 73.84,-193.84 63.27,-193.19 65.16,-199.92"/>
</g>
<!-- Node10 -->
<g id="node10" class="node">
<title>Node10</title>
<g id="a_node10"><a xlink:href="vi_8c.html#a06cbc6eb843436a0e77e07cbab0c4538" target="_top" xlink:title=" ">
<polygon fill="white" stroke="black" points="139,-142.5 139,-161.5 201,-161.5 201,-142.5 139,-142.5"/>
<text text-anchor="middle" x="170" y="-149.5" font-family="Helvetica,sans-Serif" font-size="10.00">vc_motion</text>
</a>
</g>
</g>
<!-- Node9&#45;&gt;Node10 -->
<g id="edge9" class="edge">
<title>Node9&#45;&gt;Node10</title>
<path fill="none" stroke="midnightblue" d="M232.79,-127.41C220.35,-132.36 206.51,-137.87 195.09,-142.41"/>
<polygon fill="midnightblue" stroke="midnightblue" points="234.4,-130.54 242.4,-123.59 231.82,-124.03 234.4,-130.54"/>
</g>
<!-- Node10&#45;&gt;Node7 -->
<g id="edge10" class="edge">
<title>Node10&#45;&gt;Node7</title>
<path fill="none" stroke="midnightblue" d="M139.72,-166C127.16,-172 113.1,-178.72 103.05,-183.52"/>
<polygon fill="midnightblue" stroke="midnightblue" points="141.43,-169.06 148.94,-161.59 138.41,-162.74 141.43,-169.06"/>
</g>
<!-- Node11&#45;&gt;Node4 -->
<g id="edge12" class="edge">
<title>Node11&#45;&gt;Node4</title>
<path fill="none" stroke="midnightblue" d="M619.62,-167.59C607.11,-162.64 593.2,-157.13 581.72,-152.59"/>
<polygon fill="midnightblue" stroke="midnightblue" points="618.69,-170.98 629.28,-171.41 621.27,-164.48 618.69,-170.98"/>
</g>
<!-- Node12 -->
<g id="node12" class="node">
<title>Node12</title>
<g id="a_node12"><a xlink:href="vi_8h.html#a173bb468e1e2a066136316f98b49c108" target="_top" xlink:title=" ">
<polygon fill="white" stroke="black" points="524,-180.5 524,-199.5 589,-199.5 589,-180.5 524,-180.5"/>
<text text-anchor="middle" x="556.5" y="-187.5" font-family="Helvetica,sans-Serif" font-size="10.00">led_prompt</text>
</a>
</g>
</g>
<!-- Node11&#45;&gt;Node12 -->
<g id="edge13" class="edge">
<title>Node11&#45;&gt;Node12</title>
<path fill="none" stroke="midnightblue" d="M619.14,-184.22C609.43,-185.13 598.9,-186.12 589.34,-187.01"/>
<polygon fill="midnightblue" stroke="midnightblue" points="619.65,-187.69 629.28,-183.27 618.99,-180.72 619.65,-187.69"/>
</g>
<!-- Node13 -->
<g id="node13" class="node">
<title>Node13</title>
<g id="a_node13"><a xlink:href="vi_8h.html#a7ba56272fe1a7d523192729a0bb5edf7" target="_top" xlink:title=" ">
<polygon fill="white" stroke="black" points="242,-275.5 242,-294.5 293,-294.5 293,-275.5 242,-275.5"/>
<text text-anchor="middle" x="267.5" y="-282.5" font-family="Helvetica,sans-Serif" font-size="10.00">ex_read</text>
</a>
</g>
</g>
<!-- Node12&#45;&gt;Node13 -->
<g id="edge14" class="edge">
<title>Node12&#45;&gt;Node13</title>
<path fill="none" stroke="midnightblue" d="M519.83,-202.99C487,-214.82 436.9,-232.61 393,-247 358.64,-258.26 318.6,-270.29 293.4,-277.73"/>
<polygon fill="midnightblue" stroke="midnightblue" points="521.22,-206.2 529.44,-199.51 518.84,-199.62 521.22,-206.2"/>
</g>
<!-- Node17 -->
<g id="node17" class="node">
<title>Node17</title>
<g id="a_node17"><a xlink:href="vi_8c.html#a57965473297aad4c4333fdd3897c11f3" target="_top" xlink:title=" ">
<polygon fill="white" stroke="black" points="429,-180.5 429,-199.5 488,-199.5 488,-180.5 429,-180.5"/>
<text text-anchor="middle" x="458.5" y="-187.5" font-family="Helvetica,sans-Serif" font-size="10.00">vi_prompt</text>
</a>
</g>
</g>
<!-- Node12&#45;&gt;Node17 -->
<g id="edge20" class="edge">
<title>Node12&#45;&gt;Node17</title>
<path fill="none" stroke="midnightblue" d="M513.58,-190C505.03,-190 496.22,-190 488.25,-190"/>
<polygon fill="midnightblue" stroke="midnightblue" points="513.8,-193.5 523.8,-190 513.8,-186.5 513.8,-193.5"/>
</g>
<!-- Node14 -->
<g id="node14" class="node">
<title>Node14</title>
<g id="a_node14"><a xlink:href="ex_8c.html#a0908784dc65be2da119a6b72ef96dec2" target="_top" xlink:title=" ">
<polygon fill="white" stroke="black" points="142,-294.5 142,-313.5 198,-313.5 198,-294.5 142,-294.5"/>
<text text-anchor="middle" x="170" y="-301.5" font-family="Helvetica,sans-Serif" font-size="10.00">ec_insert</text>
</a>
</g>
</g>
<!-- Node13&#45;&gt;Node14 -->
<g id="edge15" class="edge">
<title>Node13&#45;&gt;Node14</title>
<path fill="none" stroke="midnightblue" d="M232.05,-291.85C220.92,-294.07 208.74,-296.49 198.2,-298.59"/>
<polygon fill="midnightblue" stroke="midnightblue" points="232.78,-295.28 241.91,-289.89 231.42,-288.41 232.78,-295.28"/>
</g>
<!-- Node15 -->
<g id="node15" class="node">
<title>Node15</title>
<g id="a_node15"><a xlink:href="vi_8h.html#ac395e51f25330a6e6033b6d0d22b2076" target="_top" xlink:title=" ">
<polygon fill="white" stroke="black" points="74,-275.5 74,-294.5 103,-294.5 103,-275.5 74,-275.5"/>
<text text-anchor="middle" x="88.5" y="-282.5" font-family="Helvetica,sans-Serif" font-size="10.00">ex</text>
</a>
</g>
</g>
<!-- Node13&#45;&gt;Node15 -->
<g id="edge16" class="edge">
<title>Node13&#45;&gt;Node15</title>
<path fill="none" stroke="midnightblue" d="M246.15,-300.57C233.82,-309.02 217.34,-318.6 201,-323 174.39,-330.16 165.09,-331.86 139,-323 122.59,-317.43 107.35,-303.98 98.24,-294.67"/>
<polygon fill="midnightblue" stroke="midnightblue" points="248.24,-303.38 254.34,-294.72 244.17,-297.69 248.24,-303.38"/>
</g>
<!-- Node16 -->
<g id="node16" class="node">
<title>Node16</title>
<g id="a_node16"><a xlink:href="vi_8c.html#a9d85e9ed087401367529ab86a5dbf0c5" target="_top" xlink:title=" ">
<polygon fill="white" stroke="black" points="146.5,-256.5 146.5,-275.5 193.5,-275.5 193.5,-256.5 146.5,-256.5"/>
<text text-anchor="middle" x="170" y="-263.5" font-family="Helvetica,sans-Serif" font-size="10.00">vi_wait</text>
</a>
</g>
</g>
<!-- Node13&#45;&gt;Node16 -->
<g id="edge18" class="edge">
<title>Node13&#45;&gt;Node16</title>
<path fill="none" stroke="midnightblue" d="M232.01,-278.14C219.2,-275.59 205.02,-272.77 193.55,-270.49"/>
<polygon fill="midnightblue" stroke="midnightblue" points="231.42,-281.59 241.91,-280.11 232.78,-274.72 231.42,-281.59"/>
</g>
<!-- Node15&#45;&gt;Node8 -->
<g id="edge17" class="edge">
<title>Node15&#45;&gt;Node8</title>
<path fill="none" stroke="midnightblue" d="M72.15,-267.71C58.71,-252.58 39.66,-231.13 28.69,-218.79"/>
<polygon fill="midnightblue" stroke="midnightblue" points="69.69,-270.22 78.95,-275.37 74.93,-265.57 69.69,-270.22"/>
</g>
<!-- Node16&#45;&gt;Node7 -->
<g id="edge19" class="edge">
<title>Node16&#45;&gt;Node7</title>
<path fill="none" stroke="midnightblue" d="M148.11,-249.89C145,-247.32 141.87,-244.64 139,-242 123.75,-228.01 107.47,-210.3 97.9,-199.58"/>
<polygon fill="midnightblue" stroke="midnightblue" points="146.14,-252.8 156.13,-256.33 150.52,-247.34 146.14,-252.8"/>
</g>
<!-- Node17&#45;&gt;Node7 -->
<g id="edge21" class="edge">
<title>Node17&#45;&gt;Node7</title>
<path fill="none" stroke="midnightblue" d="M418.69,-190C337.94,-190 155.03,-190 103.34,-190"/>
<polygon fill="midnightblue" stroke="midnightblue" points="418.93,-193.5 428.93,-190 418.93,-186.5 418.93,-193.5"/>
</g>
<!-- Node18 -->
<g id="node18" class="node">
<title>Node18</title>
<g id="a_node18"><a xlink:href="vi_8c.html#ab8e0c9b9d2ef5161c6a3a8828606df5f" target="_top" xlink:title=" ">
<polygon fill="white" stroke="black" points="340,-142.5 340,-161.5 387,-161.5 387,-142.5 340,-142.5"/>
<text text-anchor="middle" x="363.5" y="-149.5" font-family="Helvetica,sans-Serif" font-size="10.00">vi_pipe</text>
</a>
</g>
</g>
<!-- Node17&#45;&gt;Node18 -->
<g id="edge22" class="edge">
<title>Node17&#45;&gt;Node18</title>
<path fill="none" stroke="midnightblue" d="M424.53,-176.53C412.22,-171.5 398.52,-165.9 387.32,-161.32"/>
<polygon fill="midnightblue" stroke="midnightblue" points="423.45,-179.87 434.03,-180.41 426.1,-173.39 423.45,-179.87"/>
</g>
<!-- Node19 -->
<g id="node19" class="node">
<title>Node19</title>
<g id="a_node19"><a xlink:href="vi_8c.html#a93701c59617d4f96cbaa207e89178f87" target="_top" xlink:title=" ">
<polygon fill="white" stroke="black" points="334,-218.5 334,-237.5 393,-237.5 393,-218.5 334,-218.5"/>
<text text-anchor="middle" x="363.5" y="-225.5" font-family="Helvetica,sans-Serif" font-size="10.00">vi_search</text>
</a>
</g>
</g>
<!-- Node17&#45;&gt;Node19 -->
<g id="edge24" class="edge">
<title>Node17&#45;&gt;Node19</title>
<path fill="none" stroke="midnightblue" d="M424.68,-203.41C412.56,-208.36 399.08,-213.87 387.96,-218.41"/>
<polygon fill="midnightblue" stroke="midnightblue" points="426.1,-206.61 434.03,-199.59 423.45,-200.13 426.1,-206.61"/>
</g>
<!-- Node18&#45;&gt;Node10 -->
<g id="edge23" class="edge">
<title>Node18&#45;&gt;Node10</title>
<path fill="none" stroke="midnightblue" d="M329.78,-152C293.74,-152 236.26,-152 201.24,-152"/>
<polygon fill="midnightblue" stroke="midnightblue" points="329.78,-155.5 339.78,-152 329.78,-148.5 329.78,-155.5"/>
</g>
<!-- Node20 -->
<g id="node20" class="node">
<title>Node20</title>
<g id="a_node20"><a xlink:href="vi_8c.html#aaa4777ea0715ea846346d0f27a0cfa3f" target="_top" xlink:title=" ">
<polygon fill="white" stroke="black" points="238,-218.5 238,-237.5 297,-237.5 297,-218.5 238,-218.5"/>
<text text-anchor="middle" x="267.5" y="-225.5" font-family="Helvetica,sans-Serif" font-size="10.00">vi_motion</text>
</a>
</g>
</g>
<!-- Node19&#45;&gt;Node20 -->
<g id="edge25" class="edge">
<title>Node19&#45;&gt;Node20</title>
<path fill="none" stroke="midnightblue" d="M323.6,-228C314.71,-228 305.41,-228 297.04,-228"/>
<polygon fill="midnightblue" stroke="midnightblue" points="323.79,-231.5 333.79,-228 323.79,-224.5 323.79,-231.5"/>
</g>
<!-- Node20&#45;&gt;Node7 -->
<g id="edge27" class="edge">
<title>Node20&#45;&gt;Node7</title>
<path fill="none" stroke="midnightblue" d="M228.01,-221.68C202.62,-217.28 168.68,-210.98 139,-204 126.83,-201.14 113.17,-197.22 103.28,-194.26"/>
<polygon fill="midnightblue" stroke="midnightblue" points="227.54,-225.15 237.99,-223.39 228.72,-218.25 227.54,-225.15"/>
</g>
<!-- Node20&#45;&gt;Node10 -->
<g id="edge26" class="edge">
<title>Node20&#45;&gt;Node10</title>
<path fill="none" stroke="midnightblue" d="M246.56,-212.13C227.35,-196.85 198.95,-174.24 183,-161.55"/>
<polygon fill="midnightblue" stroke="midnightblue" points="244.4,-214.89 254.4,-218.37 248.76,-209.41 244.4,-214.89"/>
</g>
<!-- Node21&#45;&gt;Node7 -->
<g id="edge29" class="edge">
<title>Node21&#45;&gt;Node7</title>
<path fill="none" stroke="midnightblue" d="M615.08,-63.92C576.25,-52.79 514.32,-38 459.5,-38 459.5,-38 459.5,-38 266.5,-38 204.43,-38 184.19,-52.44 139,-95 112.73,-119.74 97.85,-161.54 92.18,-180.34"/>
<polygon fill="midnightblue" stroke="midnightblue" points="614.34,-67.35 624.92,-66.8 616.31,-60.63 614.34,-67.35"/>
</g>
<!-- Node23 -->
<g id="node23" class="node">
<title>Node23</title>
<g id="a_node23"><a xlink:href="vi_8c.html#a7ace2fb061a4295d64c45c1eecae3bfb" target="_top" xlink:title=" ">
<polygon fill="white" stroke="black" points="727,-289.5 727,-308.5 788,-308.5 788,-289.5 727,-289.5"/>
<text text-anchor="middle" x="757.5" y="-296.5" font-family="Helvetica,sans-Serif" font-size="10.00">vi_nextcol</text>
</a>
</g>
</g>
<!-- Node22&#45;&gt;Node23 -->
<g id="edge32" class="edge">
<title>Node22&#45;&gt;Node23</title>
<path fill="none" stroke="midnightblue" d="M825.62,-274.12C812.06,-279.14 796.86,-284.78 784.36,-289.41"/>
<polygon fill="midnightblue" stroke="midnightblue" points="826.98,-277.35 835.13,-270.59 824.54,-270.78 826.98,-277.35"/>
</g>
<!-- Node23&#45;&gt;Node20 -->
<g id="edge33" class="edge">
<title>Node23&#45;&gt;Node20</title>
<path fill="none" stroke="midnightblue" d="M716.66,-300.59C676.49,-302.05 612.7,-304 557.5,-304 557.5,-304 557.5,-304 457.5,-304 387.12,-304 311.95,-258.08 281.97,-237.63"/>
<polygon fill="midnightblue" stroke="midnightblue" points="716.97,-304.08 726.84,-300.21 716.71,-297.09 716.97,-304.08"/>
</g>
<!-- Node24&#45;&gt;Node2 -->
<g id="edge35" class="edge">
<title>Node24&#45;&gt;Node2</title>
<path fill="none" stroke="midnightblue" d="M939.11,-262.07C920.13,-234.63 884.54,-183.15 869.73,-161.73"/>
<polygon fill="midnightblue" stroke="midnightblue" points="936.28,-264.14 944.85,-270.38 942.04,-260.16 936.28,-264.14"/>
</g>
<!-- Node24&#45;&gt;Node22 -->
<g id="edge36" class="edge">
<title>Node24&#45;&gt;Node22</title>
<path fill="none" stroke="midnightblue" d="M918.89,-273C909.09,-270.9 898.48,-268.62 889.16,-266.62"/>
<polygon fill="midnightblue" stroke="midnightblue" points="918.2,-276.43 928.71,-275.11 919.67,-269.59 918.2,-276.43"/>
</g>
<!-- Node24&#45;&gt;Node23 -->
<g id="edge40" class="edge">
<title>Node24&#45;&gt;Node23</title>
<path fill="none" stroke="midnightblue" d="M918.84,-283.22C882.24,-286.82 823.42,-292.61 788.12,-296.08"/>
<polygon fill="midnightblue" stroke="midnightblue" points="919.37,-286.68 928.98,-282.22 918.69,-279.71 919.37,-286.68"/>
</g>
<!-- Node25 -->
<g id="node25" class="node">
<title>Node25</title>
<g id="a_node25"><a xlink:href="vi_8c.html#a83a87d8b15b1ae0ee60fa2570b104bbc" target="_top" xlink:title=" ">
<polygon fill="white" stroke="black" points="334,-332.5 334,-351.5 393,-351.5 393,-332.5 334,-332.5"/>
<text text-anchor="middle" x="363.5" y="-339.5" font-family="Helvetica,sans-Serif" font-size="10.00">vi_col2off</text>
</a>
</g>
</g>
<!-- Node24&#45;&gt;Node25 -->
<g id="edge37" class="edge">
<title>Node24&#45;&gt;Node25</title>
<path fill="none" stroke="midnightblue" d="M925.32,-294.16C888.98,-312.46 820.69,-342 758.5,-342 758.5,-342 758.5,-342 555.5,-342 497.97,-342 430.69,-342 393.3,-342"/>
<polygon fill="midnightblue" stroke="midnightblue" points="926.98,-297.24 934.27,-289.55 923.78,-291.02 926.98,-297.24"/>
</g>
<!-- Node25&#45;&gt;Node7 -->
<g id="edge38" class="edge">
<title>Node25&#45;&gt;Node7</title>
<path fill="none" stroke="midnightblue" d="M323.63,-350.24C275.23,-358.14 192.45,-363.6 139,-323 118.4,-307.35 98.29,-227.88 91.72,-199.82"/>
<polygon fill="midnightblue" stroke="midnightblue" points="324.45,-353.65 333.7,-348.48 323.25,-346.76 324.45,-353.65"/>
</g>
<!-- Node25&#45;&gt;Node20 -->
<g id="edge39" class="edge">
<title>Node25&#45;&gt;Node20</title>
<path fill="none" stroke="midnightblue" d="M341.91,-325.81C339.14,-323.31 336.42,-320.66 334,-318 315.08,-297.21 314.62,-288.67 298,-266 290.79,-256.17 282.21,-245.19 276.16,-237.57"/>
<polygon fill="midnightblue" stroke="midnightblue" points="339.77,-328.58 349.65,-332.39 344.3,-323.25 339.77,-328.58"/>
</g>
</g>
</svg>
        <g id="navigator" transform="translate(0 0)" fill="#404254">
                <rect fill="#f2f5e9" fill-opacity="0.5" stroke="#606060" stroke-width=".5" x="0" y="0" width="60" height="60"/>
                <use id="zoomplus" xlink:href="#zoomPlus" x="17" y="9" onmousedown="handleZoom(evt,'in')"/>
                <use id="zoomminus" xlink:href="#zoomMin" x="42" y="9" onmousedown="handleZoom(evt,'out')"/>
                <use id="reset" xlink:href="#resetDef" x="30" y="36" onmousedown="handleReset()"/>
                <g id="arrowUp" xlink:href="#dirArrow" transform="translate(30 24)" onmousedown="handlePan(0,-1)">
                  <use xlink:href="#rim" fill="#404040">
                        <set attributeName="fill" to="#808080" begin="arrowUp.mouseover" end="arrowUp.mouseout"/>
                  </use>
                  <path fill="none" stroke="white" stroke-width="1.5" d="M0,-3.0v7 M-2.5,-0.5L0,-3.0L2.5,-0.5"/>
                </g>
                <g id="arrowRight" xlink:href="#dirArrow" transform="rotate(90) translate(36 -43)" onmousedown="handlePan(1,0)">
                  <use xlink:href="#rim" fill="#404040">
                        <set attributeName="fill" to="#808080" begin="arrowRight.mouseover" end="arrowRight.mouseout"/>
                  </use>
                  <path fill="none" stroke="white" stroke-width="1.5" d="M0,-3.0v7 M-2.5,-0.5L0,-3.0L2.5,-0.5"/>
                </g>
                <g id="arrowDown" xlink:href="#dirArrow" transform="rotate(180) translate(-30 -48)" onmousedown="handlePan(0,1)">
                  <use xlink:href="#rim" fill="#404040">
                        <set attributeName="fill" to="#808080" begin="arrowDown.mouseover" end="arrowDown.mouseout"/>
                  </use>
                  <path fill="none" stroke="white" stroke-width="1.5" d="M0,-3.0v7 M-2.5,-0.5L0,-3.0L2.5,-0.5"/>
                </g>
                <g id="arrowLeft" xlink:href="#dirArrow" transform="rotate(270) translate(-36 17)" onmousedown="handlePan(-1,0)">
                  <use xlink:href="#rim" fill="#404040">
                        <set attributeName="fill" to="#808080" begin="arrowLeft.mouseover" end="arrowLeft.mouseout"/>
                  </use>
                  <path fill="none" stroke="white" stroke-width="1.5" d="M0,-3.0v7 M-2.5,-0.5L0,-3.0L2.5,-0.5"/>
                </g>
        </g>
        <svg viewBox="0 0 15 15" width="100%" height="30px" preserveAspectRatio="xMaxYMin meet">
         <g id="arrow_out" transform="scale(0.3 0.3)">
          <a xlink:href="ren_8c_af4201a7e1018cbf68ff5e009005ff8bd_icgraph_org.svg" target="_base">
           <rect id="button" ry="5" rx="5" y="6" x="6" height="38" width="38"
                fill="#f2f5e9" fill-opacity="0.5" stroke="#606060" stroke-width="1.0"/>
           <path id="arrow"
             d="M 11.500037,31.436501 C 11.940474,20.09759 22.043105,11.32322 32.158766,21.979434 L 37.068811,17.246167 C 37.068811,17.246167 37.088388,32 37.088388,32 L 22.160133,31.978069 C 22.160133,31.978069 26.997745,27.140456 26.997745,27.140456 C 18.528582,18.264221 13.291696,25.230495 11.500037,31.436501 z"
             style="fill:#404040;"/>
          </a>
         </g>
        </svg>
</svg>
