<?xml version="1.0" encoding="UTF-8" standalone="no"?>
<!DOCTYPE svg PUBLIC "-//W3C//DTD SVG 1.1//EN"
 "http://www.w3.org/Graphics/SVG/1.1/DTD/svg11.dtd">
<!-- Generated by graphviz version 2.44.1 (20200629.0846)
 -->
<!-- Title: syn_initft Pages: 1 -->
<svg width="926pt" height="408pt"
 viewBox="0.00 0.00 926.00 408.00" xmlns="http://www.w3.org/2000/svg" xmlns:xlink="http://www.w3.org/1999/xlink">
<g id="graph0" class="graph" transform="scale(1 1) rotate(0) translate(4 404)">
<title>syn_initft</title>
<polygon fill="white" stroke="transparent" points="-4,4 -4,-404 922,-404 922,4 -4,4"/>
<!-- Node1 -->
<g id="node1" class="node">
<title>Node1</title>
<g id="a_node1"><a xlink:title=" ">
<polygon fill="#bfbfbf" stroke="black" points="0,-152.5 0,-171.5 56,-171.5 56,-152.5 0,-152.5"/>
<text text-anchor="middle" x="28" y="-159.5" font-family="Helvetica,sans-Serif" font-size="10.00">syn_initft</text>
</a>
</g>
</g>
<!-- Node2 -->
<g id="node2" class="node">
<title>Node2</title>
<g id="a_node2"><a xlink:href="conf_8c.html#a16ebf87f52698ee8c6b831cd629fb3b8" target="_top" xlink:title=" ">
<polygon fill="white" stroke="black" points="92,-171.5 92,-190.5 169,-190.5 169,-171.5 92,-171.5"/>
<text text-anchor="middle" x="130.5" y="-178.5" font-family="Helvetica,sans-Serif" font-size="10.00">conf_highlight</text>
</a>
</g>
</g>
<!-- Node1&#45;&gt;Node2 -->
<g id="edge1" class="edge">
<title>Node1&#45;&gt;Node2</title>
<path fill="none" stroke="midnightblue" d="M56.2,-167.14C64.14,-168.64 73.06,-170.33 81.87,-172"/>
<polygon fill="midnightblue" stroke="midnightblue" points="81.24,-175.44 91.72,-173.86 82.54,-168.56 81.24,-175.44"/>
</g>
<!-- Node3 -->
<g id="node3" class="node">
<title>Node3</title>
<g id="a_node3"><a xlink:href="rset_8c.html#a01a879f1a8002d2fb591b604b2ca3704" target="_top" xlink:title=" ">
<polygon fill="white" stroke="black" points="99.5,-133.5 99.5,-152.5 161.5,-152.5 161.5,-133.5 99.5,-133.5"/>
<text text-anchor="middle" x="130.5" y="-140.5" font-family="Helvetica,sans-Serif" font-size="10.00">rset_make</text>
</a>
</g>
</g>
<!-- Node1&#45;&gt;Node3 -->
<g id="edge2" class="edge">
<title>Node1&#45;&gt;Node3</title>
<path fill="none" stroke="midnightblue" d="M56.2,-156.86C66.43,-154.92 78.3,-152.68 89.46,-150.57"/>
<polygon fill="midnightblue" stroke="midnightblue" points="90.28,-153.98 99.45,-148.68 88.98,-147.1 90.28,-153.98"/>
</g>
<!-- Node4 -->
<g id="node4" class="node">
<title>Node4</title>
<g id="a_node4"><a xlink:href="rset_8c.html#a8a35950ab3896c3d568af835385cc12f" target="_top" xlink:title=" ">
<polygon fill="white" stroke="black" points="205,-266.5 205,-285.5 283,-285.5 283,-266.5 205,-266.5"/>
<text text-anchor="middle" x="244" y="-273.5" font-family="Helvetica,sans-Serif" font-size="10.00">re_groupcount</text>
</a>
</g>
</g>
<!-- Node3&#45;&gt;Node4 -->
<g id="edge3" class="edge">
<title>Node3&#45;&gt;Node4</title>
<path fill="none" stroke="midnightblue" d="M157.1,-152.72C161.48,-155.24 165.68,-158.31 169,-162 199.18,-195.59 174.73,-223.5 205,-257 206.16,-258.28 207.42,-259.48 208.76,-260.62"/>
<polygon fill="midnightblue" stroke="midnightblue" points="206.84,-263.54 217.06,-266.33 210.81,-257.78 206.84,-263.54"/>
</g>
<!-- Node5 -->
<g id="node5" class="node">
<title>Node5</title>
<g id="a_node5"><a xlink:href="regex_8c.html#a5b590271eb220f4e019e76cfb950eb69" target="_top" xlink:title=" ">
<polygon fill="white" stroke="black" points="217,-228.5 217,-247.5 271,-247.5 271,-228.5 217,-228.5"/>
<text text-anchor="middle" x="244" y="-235.5" font-family="Helvetica,sans-Serif" font-size="10.00">regcomp</text>
</a>
</g>
</g>
<!-- Node3&#45;&gt;Node5 -->
<g id="edge4" class="edge">
<title>Node3&#45;&gt;Node5</title>
<path fill="none" stroke="midnightblue" d="M154.85,-152.56C159.82,-155.2 164.82,-158.35 169,-162 190.19,-180.47 184.71,-194.55 205,-214 208.32,-217.18 212.13,-220.17 216.02,-222.89"/>
<polygon fill="midnightblue" stroke="midnightblue" points="214.23,-225.9 224.53,-228.37 218.02,-220.01 214.23,-225.9"/>
</g>
<!-- Node21 -->
<g id="node21" class="node">
<title>Node21</title>
<g id="a_node21"><a xlink:href="sbuf_8c.html#a4e56760893d5a6797626743840c9adf2" target="_top" xlink:title=" ">
<polygon fill="white" stroke="black" points="327,-0.5 327,-19.5 381,-19.5 381,-0.5 327,-0.5"/>
<text text-anchor="middle" x="354" y="-7.5" font-family="Helvetica,sans-Serif" font-size="10.00">sbuf_buf</text>
</a>
</g>
</g>
<!-- Node3&#45;&gt;Node21 -->
<g id="edge29" class="edge">
<title>Node3&#45;&gt;Node21</title>
<path fill="none" stroke="midnightblue" d="M134.56,-133.31C142.27,-110.69 164.77,-54.38 205,-29 238.46,-7.89 284.68,-5.2 316.52,-6.47"/>
<polygon fill="midnightblue" stroke="midnightblue" points="316.55,-9.98 326.72,-7.04 316.93,-2.99 316.55,-9.98"/>
</g>
<!-- Node23 -->
<g id="node23" class="node">
<title>Node23</title>
<g id="a_node23"><a xlink:href="sbuf_8c.html#a3f9aa15ca1d73f585d7a4a9d023e58ce" target="_top" xlink:title=" ">
<polygon fill="white" stroke="black" points="327,-133.5 327,-152.5 381,-152.5 381,-133.5 327,-133.5"/>
<text text-anchor="middle" x="354" y="-140.5" font-family="Helvetica,sans-Serif" font-size="10.00">sbuf_chr</text>
</a>
</g>
</g>
<!-- Node3&#45;&gt;Node23 -->
<g id="edge31" class="edge">
<title>Node3&#45;&gt;Node23</title>
<path fill="none" stroke="midnightblue" d="M150.61,-152.6C156.52,-155.59 163.04,-158.92 169,-162 185.07,-170.31 187.44,-176.65 205,-181 238.65,-189.33 249.4,-189.53 283,-181 300.42,-176.58 318.2,-166.85 331.48,-158.34"/>
<polygon fill="midnightblue" stroke="midnightblue" points="333.52,-161.19 339.9,-152.73 329.64,-155.36 333.52,-161.19"/>
</g>
<!-- Node24 -->
<g id="node24" class="node">
<title>Node24</title>
<g id="a_node24"><a xlink:href="sbuf_8c.html#a8c1a89868b1999663effb78b4f3fab32" target="_top" xlink:title=" ">
<polygon fill="white" stroke="black" points="215.5,-114.5 215.5,-133.5 272.5,-133.5 272.5,-114.5 215.5,-114.5"/>
<text text-anchor="middle" x="244" y="-121.5" font-family="Helvetica,sans-Serif" font-size="10.00">sbuf_free</text>
</a>
</g>
</g>
<!-- Node3&#45;&gt;Node24 -->
<g id="edge33" class="edge">
<title>Node3&#45;&gt;Node24</title>
<path fill="none" stroke="midnightblue" d="M161.67,-137.86C175.17,-135.56 191.21,-132.82 205.47,-130.4"/>
<polygon fill="midnightblue" stroke="midnightblue" points="206.21,-133.82 215.48,-128.69 205.03,-126.92 206.21,-133.82"/>
</g>
<!-- Node25 -->
<g id="node25" class="node">
<title>Node25</title>
<g id="a_node25"><a xlink:href="sbuf_8c.html#af4ad9608dfc956bbedc19df5c8256fc4" target="_top" xlink:title=" ">
<polygon fill="white" stroke="black" points="217.5,-76.5 217.5,-95.5 270.5,-95.5 270.5,-76.5 217.5,-76.5"/>
<text text-anchor="middle" x="244" y="-83.5" font-family="Helvetica,sans-Serif" font-size="10.00">sbuf_len</text>
</a>
</g>
</g>
<!-- Node3&#45;&gt;Node25 -->
<g id="edge34" class="edge">
<title>Node3&#45;&gt;Node25</title>
<path fill="none" stroke="midnightblue" d="M149.89,-133.4C164.74,-125.68 186.18,-114.57 205,-105 208.12,-103.41 211.39,-101.76 214.64,-100.13"/>
<polygon fill="midnightblue" stroke="midnightblue" points="216.27,-103.22 223.64,-95.62 213.13,-96.97 216.27,-103.22"/>
</g>
<!-- Node26 -->
<g id="node26" class="node">
<title>Node26</title>
<g id="a_node26"><a xlink:href="sbuf_8c.html#a57748585d6786a2c1aadc2cbe6f2135b" target="_top" xlink:title=" ">
<polygon fill="white" stroke="black" points="211.5,-38.5 211.5,-57.5 276.5,-57.5 276.5,-38.5 211.5,-38.5"/>
<text text-anchor="middle" x="244" y="-45.5" font-family="Helvetica,sans-Serif" font-size="10.00">sbuf_make</text>
</a>
</g>
</g>
<!-- Node3&#45;&gt;Node26 -->
<g id="edge35" class="edge">
<title>Node3&#45;&gt;Node26</title>
<path fill="none" stroke="midnightblue" d="M139.21,-133.09C151.71,-117.5 177.77,-86.98 205,-67 207.08,-65.47 209.3,-64.01 211.59,-62.62"/>
<polygon fill="midnightblue" stroke="midnightblue" points="213.51,-65.55 220.56,-57.64 210.12,-59.43 213.51,-65.55"/>
</g>
<!-- Node27 -->
<g id="node27" class="node">
<title>Node27</title>
<g id="a_node27"><a xlink:href="sbuf_8c.html#a603d1d6ab090025f5850f10bfa2dec7a" target="_top" xlink:title=" ">
<polygon fill="white" stroke="black" points="218,-152.5 218,-171.5 270,-171.5 270,-152.5 218,-152.5"/>
<text text-anchor="middle" x="244" y="-159.5" font-family="Helvetica,sans-Serif" font-size="10.00">sbuf_str</text>
</a>
</g>
</g>
<!-- Node3&#45;&gt;Node27 -->
<g id="edge36" class="edge">
<title>Node3&#45;&gt;Node27</title>
<path fill="none" stroke="midnightblue" d="M161.67,-148.14C175.79,-150.55 192.7,-153.43 207.43,-155.94"/>
<polygon fill="midnightblue" stroke="midnightblue" points="207.26,-159.46 217.71,-157.69 208.44,-152.56 207.26,-159.46"/>
</g>
<!-- Node6 -->
<g id="node6" class="node">
<title>Node6</title>
<g id="a_node6"><a xlink:href="regex_8c.html#ad3bbf549eef0fe517e9f213c5eadbb0c" target="_top" xlink:title=" ">
<polygon fill="white" stroke="black" points="557,-342.5 557,-361.5 611,-361.5 611,-342.5 557,-342.5"/>
<text text-anchor="middle" x="584" y="-349.5" font-family="Helvetica,sans-Serif" font-size="10.00">re_insert</text>
</a>
</g>
</g>
<!-- Node5&#45;&gt;Node6 -->
<g id="edge5" class="edge">
<title>Node5&#45;&gt;Node6</title>
<path fill="none" stroke="midnightblue" d="M266.9,-247.65C272.33,-250.39 278.02,-253.57 283,-257 300.88,-269.31 299.81,-279.86 319,-290 393.76,-329.52 493.58,-344.11 546.49,-349.29"/>
<polygon fill="midnightblue" stroke="midnightblue" points="546.46,-352.8 556.73,-350.23 547.1,-345.83 546.46,-352.8"/>
</g>
<!-- Node7 -->
<g id="node7" class="node">
<title>Node7</title>
<g id="a_node7"><a xlink:href="regex_8c.html#ac00e60e2e4bce1edcd55ffa8b9086ac5" target="_top" xlink:title=" ">
<polygon fill="white" stroke="black" points="319,-190.5 319,-209.5 389,-209.5 389,-190.5 319,-190.5"/>
<text text-anchor="middle" x="354" y="-197.5" font-family="Helvetica,sans-Serif" font-size="10.00">rnode_count</text>
</a>
</g>
</g>
<!-- Node5&#45;&gt;Node7 -->
<g id="edge6" class="edge">
<title>Node5&#45;&gt;Node7</title>
<path fill="none" stroke="midnightblue" d="M271.14,-228.8C284.77,-224.01 301.64,-218.07 316.53,-212.83"/>
<polygon fill="midnightblue" stroke="midnightblue" points="317.7,-216.13 325.97,-209.51 315.37,-209.53 317.7,-216.13"/>
</g>
<!-- Node8 -->
<g id="node8" class="node">
<title>Node8</title>
<g id="a_node8"><a xlink:href="regex_8c.html#a7be1fd2247ffed1699d3be12c04fe9c6" target="_top" xlink:title=" ">
<polygon fill="white" stroke="black" points="321.5,-361.5 321.5,-380.5 386.5,-380.5 386.5,-361.5 321.5,-361.5"/>
<text text-anchor="middle" x="354" y="-368.5" font-family="Helvetica,sans-Serif" font-size="10.00">rnode_emit</text>
</a>
</g>
</g>
<!-- Node5&#45;&gt;Node8 -->
<g id="edge7" class="edge">
<title>Node5&#45;&gt;Node8</title>
<path fill="none" stroke="midnightblue" d="M269.84,-247.53C274.58,-250.11 279.23,-253.26 283,-257 308.09,-281.95 299.93,-298.2 319,-328 324.53,-336.64 331.43,-345.63 337.57,-353.14"/>
<polygon fill="midnightblue" stroke="midnightblue" points="335.19,-355.76 344.3,-361.17 340.56,-351.26 335.19,-355.76"/>
</g>
<!-- Node11 -->
<g id="node11" class="node">
<title>Node11</title>
<g id="a_node11"><a xlink:href="regex_8c.html#aabe89a3a22bc0fdc0329cf29ec80ad76" target="_top" xlink:title=" ">
<polygon fill="white" stroke="black" points="763.5,-228.5 763.5,-247.5 825.5,-247.5 825.5,-228.5 763.5,-228.5"/>
<text text-anchor="middle" x="794.5" y="-235.5" font-family="Helvetica,sans-Serif" font-size="10.00">rnode_free</text>
</a>
</g>
</g>
<!-- Node5&#45;&gt;Node11 -->
<g id="edge13" class="edge">
<title>Node5&#45;&gt;Node11</title>
<path fill="none" stroke="midnightblue" d="M271.25,-245.42C312.76,-256.48 396.28,-276 468.5,-276 468.5,-276 468.5,-276 585,-276 644.49,-276 711.99,-260.84 753.66,-249.68"/>
<polygon fill="midnightblue" stroke="midnightblue" points="754.71,-253.02 763.43,-247.01 752.86,-246.27 754.71,-253.02"/>
</g>
<!-- Node12 -->
<g id="node12" class="node">
<title>Node12</title>
<g id="a_node12"><a xlink:href="regex_8c.html#ac19329676c1426f2b24af24e33e3a845" target="_top" xlink:title=" ">
<polygon fill="white" stroke="black" points="319,-228.5 319,-247.5 389,-247.5 389,-228.5 319,-228.5"/>
<text text-anchor="middle" x="354" y="-235.5" font-family="Helvetica,sans-Serif" font-size="10.00">rnode_parse</text>
</a>
</g>
</g>
<!-- Node5&#45;&gt;Node12 -->
<g id="edge14" class="edge">
<title>Node5&#45;&gt;Node12</title>
<path fill="none" stroke="midnightblue" d="M271.14,-238C282.47,-238 296.06,-238 308.87,-238"/>
<polygon fill="midnightblue" stroke="midnightblue" points="308.93,-241.5 318.93,-238 308.93,-234.5 308.93,-241.5"/>
</g>
<!-- Node8&#45;&gt;Node6 -->
<g id="edge8" class="edge">
<title>Node8&#45;&gt;Node6</title>
<path fill="none" stroke="midnightblue" d="M386.7,-368.36C428.73,-364.86 502.71,-358.69 546.86,-355.01"/>
<polygon fill="midnightblue" stroke="midnightblue" points="547.19,-358.5 556.87,-354.18 546.61,-351.52 547.19,-358.5"/>
</g>
<!-- Node9 -->
<g id="node9" class="node">
<title>Node9</title>
<g id="a_node9"><a xlink:href="regex_8c.html#afdf3c7adbb2060b793cf83c5312321c8" target="_top" xlink:title=" ">
<polygon fill="white" stroke="black" points="425,-380.5 425,-399.5 514,-399.5 514,-380.5 425,-380.5"/>
<text text-anchor="middle" x="469.5" y="-387.5" font-family="Helvetica,sans-Serif" font-size="10.00">rnode_emitnorep</text>
</a>
</g>
</g>
<!-- Node8&#45;&gt;Node9 -->
<g id="edge9" class="edge">
<title>Node8&#45;&gt;Node9</title>
<path fill="none" stroke="midnightblue" d="M386.62,-370.17C401.65,-371.88 419.62,-374.86 434.9,-378.15"/>
<polygon fill="midnightblue" stroke="midnightblue" points="434.44,-381.64 444.97,-380.47 436.01,-374.82 434.44,-381.64"/>
</g>
<!-- Node9&#45;&gt;Node6 -->
<g id="edge11" class="edge">
<title>Node9&#45;&gt;Node6</title>
<path fill="none" stroke="midnightblue" d="M498.89,-380.41C513.52,-375.47 531.51,-369.39 547.1,-364.13"/>
<polygon fill="midnightblue" stroke="midnightblue" points="548.58,-367.32 556.93,-360.8 546.34,-360.69 548.58,-367.32"/>
</g>
<!-- Node9&#45;&gt;Node8 -->
<g id="edge12" class="edge">
<title>Node9&#45;&gt;Node8</title>
<path fill="none" stroke="midnightblue" d="M424.83,-389.28C412.76,-387.56 399.87,-385.28 388.48,-382.82"/>
<polygon fill="midnightblue" stroke="midnightblue" points="389.05,-379.36 378.52,-380.53 387.48,-386.18 389.05,-379.36"/>
</g>
<!-- Node10 -->
<g id="node10" class="node">
<title>Node10</title>
<g id="a_node10"><a xlink:href="regex_8c.html#a71b5a38b3a51e761aaa959a89e7cae55" target="_top" xlink:title=" ">
<polygon fill="white" stroke="black" points="550,-380.5 550,-399.5 618,-399.5 618,-380.5 550,-380.5"/>
<text text-anchor="middle" x="584" y="-387.5" font-family="Helvetica,sans-Serif" font-size="10.00">ratom_copy</text>
</a>
</g>
</g>
<!-- Node9&#45;&gt;Node10 -->
<g id="edge10" class="edge">
<title>Node9&#45;&gt;Node10</title>
<path fill="none" stroke="midnightblue" d="M514.32,-390C522.65,-390 531.36,-390 539.67,-390"/>
<polygon fill="midnightblue" stroke="midnightblue" points="539.93,-393.5 549.93,-390 539.93,-386.5 539.93,-393.5"/>
</g>
<!-- Node13 -->
<g id="node13" class="node">
<title>Node13</title>
<g id="a_node13"><a xlink:href="regex_8c.html#a39869d385d8410ffb9d5bf74c778c6ce" target="_top" xlink:title=" ">
<polygon fill="white" stroke="black" points="759.5,-86.5 759.5,-105.5 829.5,-105.5 829.5,-86.5 759.5,-86.5"/>
<text text-anchor="middle" x="794.5" y="-93.5" font-family="Helvetica,sans-Serif" font-size="10.00">rnode_make</text>
</a>
</g>
</g>
<!-- Node12&#45;&gt;Node13 -->
<g id="edge15" class="edge">
<title>Node12&#45;&gt;Node13</title>
<path fill="none" stroke="midnightblue" d="M375.9,-228.48C380.52,-225.81 385.17,-222.63 389,-219 410.75,-198.39 401.37,-180.42 425,-162 521.19,-87 674.39,-86.5 749.32,-91.57"/>
<polygon fill="midnightblue" stroke="midnightblue" points="749.12,-95.06 759.36,-92.31 749.64,-88.08 749.12,-95.06"/>
</g>
<!-- Node14 -->
<g id="node14" class="node">
<title>Node14</title>
<g id="a_node14"><a xlink:href="regex_8c.html#abe0c1f4be43ac6d7caa4f95a560f823f" target="_top" xlink:title=" ">
<polygon fill="white" stroke="black" points="438.5,-171.5 438.5,-190.5 500.5,-190.5 500.5,-171.5 438.5,-171.5"/>
<text text-anchor="middle" x="469.5" y="-178.5" font-family="Helvetica,sans-Serif" font-size="10.00">rnode_seq</text>
</a>
</g>
</g>
<!-- Node12&#45;&gt;Node14 -->
<g id="edge16" class="edge">
<title>Node12&#45;&gt;Node14</title>
<path fill="none" stroke="midnightblue" d="M374,-228.46C392.17,-219.34 419.78,-205.47 440.48,-195.07"/>
<polygon fill="midnightblue" stroke="midnightblue" points="442.08,-198.19 449.44,-190.57 438.93,-191.93 442.08,-198.19"/>
</g>
<!-- Node14&#45;&gt;Node13 -->
<g id="edge28" class="edge">
<title>Node14&#45;&gt;Node13</title>
<path fill="none" stroke="midnightblue" d="M492.35,-171.44C526.28,-156.99 593.99,-129.71 654,-115 685.37,-107.31 721.51,-102.5 749.15,-99.64"/>
<polygon fill="midnightblue" stroke="midnightblue" points="749.69,-103.11 759.3,-98.64 749,-96.14 749.69,-103.11"/>
</g>
<!-- Node15 -->
<g id="node15" class="node">
<title>Node15</title>
<g id="a_node15"><a xlink:href="regex_8c.html#a0df57dc0ee1beb9018cdd537a58571aa" target="_top" xlink:title=" ">
<polygon fill="white" stroke="black" points="550,-171.5 550,-190.5 618,-190.5 618,-171.5 550,-171.5"/>
<text text-anchor="middle" x="584" y="-178.5" font-family="Helvetica,sans-Serif" font-size="10.00">rnode_atom</text>
</a>
</g>
</g>
<!-- Node14&#45;&gt;Node15 -->
<g id="edge17" class="edge">
<title>Node14&#45;&gt;Node15</title>
<path fill="none" stroke="midnightblue" d="M500.65,-181C512.67,-181 526.73,-181 539.79,-181"/>
<polygon fill="midnightblue" stroke="midnightblue" points="540,-184.5 550,-181 540,-177.5 540,-184.5"/>
</g>
<!-- Node15&#45;&gt;Node11 -->
<g id="edge22" class="edge">
<title>Node15&#45;&gt;Node11</title>
<path fill="none" stroke="midnightblue" d="M618.04,-190.03C654.8,-200.08 714.19,-216.32 753.53,-227.07"/>
<polygon fill="midnightblue" stroke="midnightblue" points="752.76,-230.49 763.33,-229.75 754.6,-223.74 752.76,-230.49"/>
</g>
<!-- Node15&#45;&gt;Node13 -->
<g id="edge27" class="edge">
<title>Node15&#45;&gt;Node13</title>
<path fill="none" stroke="midnightblue" d="M600.49,-171.42C614.21,-163.19 634.97,-151.37 654,-143 685.25,-129.26 721.88,-117.06 749.76,-108.54"/>
<polygon fill="midnightblue" stroke="midnightblue" points="751.04,-111.8 759.61,-105.57 749.02,-105.1 751.04,-111.8"/>
</g>
<!-- Node16 -->
<g id="node16" class="node">
<title>Node16</title>
<g id="a_node16"><a xlink:href="regex_8c.html#a8b5ae269a79b320da8e87712e2051d1c" target="_top" xlink:title=" ">
<polygon fill="white" stroke="black" points="654,-152.5 654,-171.5 719,-171.5 719,-152.5 654,-152.5"/>
<text text-anchor="middle" x="686.5" y="-159.5" font-family="Helvetica,sans-Serif" font-size="10.00">ratom_read</text>
</a>
</g>
</g>
<!-- Node15&#45;&gt;Node16 -->
<g id="edge18" class="edge">
<title>Node15&#45;&gt;Node16</title>
<path fill="none" stroke="midnightblue" d="M618.19,-174.73C626.4,-173.17 635.31,-171.49 643.88,-169.87"/>
<polygon fill="midnightblue" stroke="midnightblue" points="644.54,-173.31 653.71,-168.01 643.24,-166.43 644.54,-173.31"/>
</g>
<!-- Node20 -->
<g id="node20" class="node">
<title>Node20</title>
<g id="a_node20"><a xlink:href="regex_8c.html#aaeda19c8b3704252a342cdcc7fc3591c" target="_top" xlink:title=" ">
<polygon fill="white" stroke="black" points="657,-228.5 657,-247.5 716,-247.5 716,-228.5 657,-228.5"/>
<text text-anchor="middle" x="686.5" y="-235.5" font-family="Helvetica,sans-Serif" font-size="10.00">rnode_grp</text>
</a>
</g>
</g>
<!-- Node15&#45;&gt;Node20 -->
<g id="edge23" class="edge">
<title>Node15&#45;&gt;Node20</title>
<path fill="none" stroke="midnightblue" d="M602.05,-190.67C617.88,-199.65 641.67,-213.14 659.81,-223.43"/>
<polygon fill="midnightblue" stroke="midnightblue" points="658.28,-226.58 668.7,-228.47 661.73,-220.5 658.28,-226.58"/>
</g>
<!-- Node17 -->
<g id="node17" class="node">
<title>Node17</title>
<g id="a_node17"><a xlink:href="regex_8c.html#a1904288a4b4c7b7d0666c3d85d438e1a" target="_top" xlink:title=" ">
<polygon fill="white" stroke="black" points="755,-181.5 755,-200.5 834,-200.5 834,-181.5 755,-181.5"/>
<text text-anchor="middle" x="794.5" y="-188.5" font-family="Helvetica,sans-Serif" font-size="10.00">ratom_readbrk</text>
</a>
</g>
</g>
<!-- Node16&#45;&gt;Node17 -->
<g id="edge19" class="edge">
<title>Node16&#45;&gt;Node17</title>
<path fill="none" stroke="midnightblue" d="M719.02,-170.62C728.35,-173.18 738.76,-176.02 748.77,-178.76"/>
<polygon fill="midnightblue" stroke="midnightblue" points="748.01,-182.18 758.58,-181.45 749.86,-175.43 748.01,-182.18"/>
</g>
<!-- Node19 -->
<g id="node19" class="node">
<title>Node19</title>
<g id="a_node19"><a xlink:href="regex_8c.html#a9a0d6d5f93f1eaba8b63b16903c0952d" target="_top" xlink:title=" ">
<polygon fill="white" stroke="black" points="772,-143.5 772,-162.5 817,-162.5 817,-143.5 772,-143.5"/>
<text text-anchor="middle" x="794.5" y="-150.5" font-family="Helvetica,sans-Serif" font-size="10.00">uc_len</text>
</a>
</g>
</g>
<!-- Node16&#45;&gt;Node19 -->
<g id="edge21" class="edge">
<title>Node16&#45;&gt;Node19</title>
<path fill="none" stroke="midnightblue" d="M719.02,-159.32C732.4,-158.19 747.99,-156.86 761.44,-155.72"/>
<polygon fill="midnightblue" stroke="midnightblue" points="762.01,-159.19 771.68,-154.85 761.42,-152.21 762.01,-159.19"/>
</g>
<!-- Node18 -->
<g id="node18" class="node">
<title>Node18</title>
<g id="a_node18"><a xlink:href="regex_8c.html#acc18ff8d2687611a9e221b3329b02413" target="_top" xlink:title=" ">
<polygon fill="white" stroke="black" points="870,-181.5 870,-200.5 918,-200.5 918,-181.5 870,-181.5"/>
<text text-anchor="middle" x="894" y="-188.5" font-family="Helvetica,sans-Serif" font-size="10.00">brk_len</text>
</a>
</g>
</g>
<!-- Node17&#45;&gt;Node18 -->
<g id="edge20" class="edge">
<title>Node17&#45;&gt;Node18</title>
<path fill="none" stroke="midnightblue" d="M834.03,-191C842.57,-191 851.54,-191 859.84,-191"/>
<polygon fill="midnightblue" stroke="midnightblue" points="859.9,-194.5 869.9,-191 859.9,-187.5 859.9,-194.5"/>
</g>
<!-- Node20&#45;&gt;Node11 -->
<g id="edge24" class="edge">
<title>Node20&#45;&gt;Node11</title>
<path fill="none" stroke="midnightblue" d="M716.19,-238C727.59,-238 740.9,-238 753.24,-238"/>
<polygon fill="midnightblue" stroke="midnightblue" points="753.31,-241.5 763.31,-238 753.31,-234.5 753.31,-241.5"/>
</g>
<!-- Node20&#45;&gt;Node12 -->
<g id="edge26" class="edge">
<title>Node20&#45;&gt;Node12</title>
<path fill="none" stroke="midnightblue" d="M656.81,-238C598.98,-238 468.07,-238 399.22,-238"/>
<polygon fill="midnightblue" stroke="midnightblue" points="399.12,-234.5 389.12,-238 399.12,-241.5 399.12,-234.5"/>
</g>
<!-- Node20&#45;&gt;Node13 -->
<g id="edge25" class="edge">
<title>Node20&#45;&gt;Node13</title>
<path fill="none" stroke="midnightblue" d="M692.82,-228.35C703.46,-209.4 728.62,-166.37 755,-134 761.06,-126.57 768.4,-119.02 775.05,-112.64"/>
<polygon fill="midnightblue" stroke="midnightblue" points="777.5,-115.13 782.41,-105.75 772.72,-110.02 777.5,-115.13"/>
</g>
<!-- Node22 -->
<g id="node22" class="node">
<title>Node22</title>
<g id="a_node22"><a xlink:href="sbuf_8c.html#a4ad75f3948c0340c342a3ea3eb63a6e6" target="_top" xlink:title=" ">
<polygon fill="white" stroke="black" points="434.5,-0.5 434.5,-19.5 504.5,-19.5 504.5,-0.5 434.5,-0.5"/>
<text text-anchor="middle" x="469.5" y="-7.5" font-family="Helvetica,sans-Serif" font-size="10.00">sbuf_extend</text>
</a>
</g>
</g>
<!-- Node21&#45;&gt;Node22 -->
<g id="edge30" class="edge">
<title>Node21&#45;&gt;Node22</title>
<path fill="none" stroke="midnightblue" d="M381.04,-10C393.78,-10 409.49,-10 424.05,-10"/>
<polygon fill="midnightblue" stroke="midnightblue" points="424.4,-13.5 434.4,-10 424.4,-6.5 424.4,-13.5"/>
</g>
<!-- Node23&#45;&gt;Node22 -->
<g id="edge32" class="edge">
<title>Node23&#45;&gt;Node22</title>
<path fill="none" stroke="midnightblue" d="M365,-133.28C372.22,-125.93 381.91,-115.38 389,-105 408.96,-75.79 400.42,-59.45 425,-34 428.26,-30.63 432.09,-27.61 436.11,-24.94"/>
<polygon fill="midnightblue" stroke="midnightblue" points="438.22,-27.76 445.05,-19.66 434.66,-21.73 438.22,-27.76"/>
</g>
<!-- Node28 -->
<g id="node28" class="node">
<title>Node28</title>
<g id="a_node28"><a xlink:href="sbuf_8c.html#aa511ac77d6b486accc01c0512ef27ed2" target="_top" xlink:title=" ">
<polygon fill="white" stroke="black" points="323,-76.5 323,-95.5 385,-95.5 385,-76.5 323,-76.5"/>
<text text-anchor="middle" x="354" y="-83.5" font-family="Helvetica,sans-Serif" font-size="10.00">sbuf_mem</text>
</a>
</g>
</g>
<!-- Node27&#45;&gt;Node28 -->
<g id="edge37" class="edge">
<title>Node27&#45;&gt;Node28</title>
<path fill="none" stroke="midnightblue" d="M266.36,-152.35C271.92,-149.56 277.8,-146.36 283,-143 301.75,-130.89 321.31,-114.61 334.97,-102.55"/>
<polygon fill="midnightblue" stroke="midnightblue" points="337.54,-104.94 342.65,-95.66 332.87,-99.73 337.54,-104.94"/>
</g>
<!-- Node28&#45;&gt;Node22 -->
<g id="edge38" class="edge">
<title>Node28&#45;&gt;Node22</title>
<path fill="none" stroke="midnightblue" d="M367.03,-76.28C380.71,-65.42 403.86,-47.59 425,-34 430.11,-30.71 435.71,-27.42 441.13,-24.36"/>
<polygon fill="midnightblue" stroke="midnightblue" points="442.9,-27.39 449.98,-19.51 439.53,-21.25 442.9,-27.39"/>
</g>
</g>
</svg>
