<?xml version="1.0" encoding="UTF-8" standalone="no"?>
<!DOCTYPE svg PUBLIC "-//W3C//DTD SVG 1.1//EN"
 "http://www.w3.org/Graphics/SVG/1.1/DTD/svg11.dtd">
<!-- Generated by graphviz version 2.44.1 (20200629.0846)
 -->
<!-- Title: uc_shape Pages: 1 -->
<svg width="354pt" height="218pt"
 viewBox="0.00 0.00 354.00 218.00" xmlns="http://www.w3.org/2000/svg" xmlns:xlink="http://www.w3.org/1999/xlink">
<g id="graph0" class="graph" transform="scale(1 1) rotate(0) translate(4 214)">
<title>uc_shape</title>
<polygon fill="white" stroke="transparent" points="-4,4 -4,-214 350,-214 350,4 -4,4"/>
<!-- Node1 -->
<g id="node1" class="node">
<title>Node1</title>
<g id="a_node1"><a xlink:title=" ">
<polygon fill="#bfbfbf" stroke="black" points="0,-95.5 0,-114.5 59,-114.5 59,-95.5 0,-95.5"/>
<text text-anchor="middle" x="29.5" y="-102.5" font-family="Helvetica,sans-Serif" font-size="10.00">uc_shape</text>
</a>
</g>
</g>
<!-- Node2 -->
<g id="node2" class="node">
<title>Node2</title>
<g id="a_node2"><a xlink:href="uc_8c.html#af4546620f966c0c94ca5980dd2fb9a04" target="_top" xlink:title=" ">
<polygon fill="white" stroke="black" points="96,-190.5 96,-209.5 158,-209.5 158,-190.5 96,-190.5"/>
<text text-anchor="middle" x="127" y="-197.5" font-family="Helvetica,sans-Serif" font-size="10.00">uc_acomb</text>
</a>
</g>
</g>
<!-- Node1&#45;&gt;Node2 -->
<g id="edge1" class="edge">
<title>Node1&#45;&gt;Node2</title>
<path fill="none" stroke="midnightblue" d="M37.2,-114.74C48.08,-130.08 70.82,-160.28 95,-181 96.51,-182.29 98.12,-183.56 99.78,-184.78"/>
<polygon fill="midnightblue" stroke="midnightblue" points="98.02,-187.81 108.28,-190.47 101.91,-182 98.02,-187.81"/>
</g>
<!-- Node3 -->
<g id="node3" class="node">
<title>Node3</title>
<g id="a_node3"><a xlink:href="uc_8c.html#a8b9e268743fd7af03b099072154fbb18" target="_top" xlink:title=" ">
<polygon fill="white" stroke="black" points="103,-152.5 103,-171.5 151,-171.5 151,-152.5 103,-152.5"/>
<text text-anchor="middle" x="127" y="-159.5" font-family="Helvetica,sans-Serif" font-size="10.00">uc_beg</text>
</a>
</g>
</g>
<!-- Node1&#45;&gt;Node3 -->
<g id="edge2" class="edge">
<title>Node1&#45;&gt;Node3</title>
<path fill="none" stroke="midnightblue" d="M46.7,-114.67C61.61,-123.57 83.94,-136.9 101.11,-147.14"/>
<polygon fill="midnightblue" stroke="midnightblue" points="99.66,-150.35 110.04,-152.47 103.25,-144.34 99.66,-150.35"/>
</g>
<!-- Node4 -->
<g id="node4" class="node">
<title>Node4</title>
<g id="a_node4"><a xlink:href="uc_8c.html#a45fdc2f2f3cb34515f1014bf754741bb" target="_top" xlink:title=" ">
<polygon fill="white" stroke="black" points="100.5,-114.5 100.5,-133.5 153.5,-133.5 153.5,-114.5 100.5,-114.5"/>
<text text-anchor="middle" x="127" y="-121.5" font-family="Helvetica,sans-Serif" font-size="10.00">uc_code</text>
</a>
</g>
</g>
<!-- Node1&#45;&gt;Node4 -->
<g id="edge3" class="edge">
<title>Node1&#45;&gt;Node4</title>
<path fill="none" stroke="midnightblue" d="M59.15,-110.7C68.96,-112.65 80.05,-114.86 90.35,-116.91"/>
<polygon fill="midnightblue" stroke="midnightblue" points="89.8,-120.37 100.29,-118.89 91.17,-113.5 89.8,-120.37"/>
</g>
<!-- Node5 -->
<g id="node5" class="node">
<title>Node5</title>
<g id="a_node5"><a xlink:href="uc_8c.html#a5d2103c722f8e189605495695c2c7149" target="_top" xlink:title=" ">
<polygon fill="white" stroke="black" points="101.5,-76.5 101.5,-95.5 152.5,-95.5 152.5,-76.5 101.5,-76.5"/>
<text text-anchor="middle" x="127" y="-83.5" font-family="Helvetica,sans-Serif" font-size="10.00">uc_cput</text>
</a>
</g>
</g>
<!-- Node1&#45;&gt;Node5 -->
<g id="edge4" class="edge">
<title>Node1&#45;&gt;Node5</title>
<path fill="none" stroke="midnightblue" d="M59.15,-99.3C69.21,-97.3 80.61,-95.03 91.12,-92.94"/>
<polygon fill="midnightblue" stroke="midnightblue" points="92.12,-96.31 101.25,-90.92 90.76,-89.44 92.12,-96.31"/>
</g>
<!-- Node6 -->
<g id="node6" class="node">
<title>Node6</title>
<g id="a_node6"><a xlink:href="uc_8c.html#acc1b453dfceccc257cb0f8bf9822ed01" target="_top" xlink:title=" ">
<polygon fill="white" stroke="black" points="95,-38.5 95,-57.5 159,-57.5 159,-38.5 95,-38.5"/>
<text text-anchor="middle" x="127" y="-45.5" font-family="Helvetica,sans-Serif" font-size="10.00">uc_cshape</text>
</a>
</g>
</g>
<!-- Node1&#45;&gt;Node6 -->
<g id="edge5" class="edge">
<title>Node1&#45;&gt;Node6</title>
<path fill="none" stroke="midnightblue" d="M46.7,-95.33C61.61,-86.43 83.94,-73.1 101.11,-62.86"/>
<polygon fill="midnightblue" stroke="midnightblue" points="103.25,-65.66 110.04,-57.53 99.66,-59.65 103.25,-65.66"/>
</g>
<!-- Node9 -->
<g id="node9" class="node">
<title>Node9</title>
<g id="a_node9"><a xlink:href="uc_8c.html#a79c7c44c06c1febff5680c19667e2676" target="_top" xlink:title=" ">
<polygon fill="white" stroke="black" points="101.5,-0.5 101.5,-19.5 152.5,-19.5 152.5,-0.5 101.5,-0.5"/>
<text text-anchor="middle" x="127" y="-7.5" font-family="Helvetica,sans-Serif" font-size="10.00">uc_next</text>
</a>
</g>
</g>
<!-- Node1&#45;&gt;Node9 -->
<g id="edge9" class="edge">
<title>Node1&#45;&gt;Node9</title>
<path fill="none" stroke="midnightblue" d="M37.2,-95.26C48.08,-79.92 70.82,-49.72 95,-29 96.51,-27.71 98.12,-26.44 99.78,-25.22"/>
<polygon fill="midnightblue" stroke="midnightblue" points="101.91,-28 108.28,-19.53 98.02,-22.19 101.91,-28"/>
</g>
<!-- Node7 -->
<g id="node7" class="node">
<title>Node7</title>
<g id="a_node7"><a xlink:href="uc_8c.html#a5b0fb710352596f49590c0ab690ced77" target="_top" xlink:title=" ">
<polygon fill="white" stroke="black" points="195,-76.5 195,-95.5 248,-95.5 248,-76.5 195,-76.5"/>
<text text-anchor="middle" x="221.5" y="-83.5" font-family="Helvetica,sans-Serif" font-size="10.00">can_join</text>
</a>
</g>
</g>
<!-- Node6&#45;&gt;Node7 -->
<g id="edge6" class="edge">
<title>Node6&#45;&gt;Node7</title>
<path fill="none" stroke="midnightblue" d="M151.34,-57.59C162.41,-62.13 175.81,-67.64 187.86,-72.59"/>
<polygon fill="midnightblue" stroke="midnightblue" points="186.59,-75.85 197.17,-76.41 189.25,-69.38 186.59,-75.85"/>
</g>
<!-- Node8 -->
<g id="node8" class="node">
<title>Node8</title>
<g id="a_node8"><a xlink:href="uc_8c.html#ad4c5b7208072ca00e1454e27bda0294c" target="_top" xlink:title=" ">
<polygon fill="white" stroke="black" points="284,-57.5 284,-76.5 346,-76.5 346,-57.5 284,-57.5"/>
<text text-anchor="middle" x="315" y="-64.5" font-family="Helvetica,sans-Serif" font-size="10.00">find_achar</text>
</a>
</g>
</g>
<!-- Node6&#45;&gt;Node8 -->
<g id="edge8" class="edge">
<title>Node6&#45;&gt;Node8</title>
<path fill="none" stroke="midnightblue" d="M159.13,-51.18C190.62,-54.4 239.43,-59.38 273.82,-62.9"/>
<polygon fill="midnightblue" stroke="midnightblue" points="273.7,-66.4 284,-63.94 274.41,-59.44 273.7,-66.4"/>
</g>
<!-- Node7&#45;&gt;Node8 -->
<g id="edge7" class="edge">
<title>Node7&#45;&gt;Node8</title>
<path fill="none" stroke="midnightblue" d="M248.48,-80.61C256.37,-78.97 265.25,-77.12 273.85,-75.34"/>
<polygon fill="midnightblue" stroke="midnightblue" points="274.67,-78.74 283.75,-73.28 273.25,-71.89 274.67,-78.74"/>
</g>
<!-- Node10 -->
<g id="node10" class="node">
<title>Node10</title>
<g id="a_node10"><a xlink:href="uc_8c.html#a616e24870a58b86644c34ee077faca11" target="_top" xlink:title=" ">
<polygon fill="white" stroke="black" points="197.5,-0.5 197.5,-19.5 245.5,-19.5 245.5,-0.5 197.5,-0.5"/>
<text text-anchor="middle" x="221.5" y="-7.5" font-family="Helvetica,sans-Serif" font-size="10.00">uc_end</text>
</a>
</g>
</g>
<!-- Node9&#45;&gt;Node10 -->
<g id="edge10" class="edge">
<title>Node9&#45;&gt;Node10</title>
<path fill="none" stroke="midnightblue" d="M152.79,-10C163.36,-10 175.85,-10 187.21,-10"/>
<polygon fill="midnightblue" stroke="midnightblue" points="187.23,-13.5 197.23,-10 187.23,-6.5 187.23,-13.5"/>
</g>
</g>
</svg>
