<?xml version="1.0" encoding="UTF-8" standalone="no"?>
<!DOCTYPE svg PUBLIC "-//W3C//DTD SVG 1.1//EN"
 "http://www.w3.org/Graphics/SVG/1.1/DTD/svg11.dtd">
<!-- Generated by graphviz version 2.44.1 (20200629.0846)
 -->
<!-- Title: sbuf_cut Pages: 1 -->
<!--zoomable 271 -->
<svg id="main" version="1.1" xmlns="http://www.w3.org/2000/svg" xmlns:xlink="http://www.w3.org/1999/xlink" xml:space="preserve" onload="init(evt)">
<style type="text/css"><![CDATA[
.edge:hover path { stroke: red; }
.edge:hover polygon { stroke: red; fill: red; }
]]></style>
<script type="text/javascript"><![CDATA[
var edges = document.getElementsByTagName('g');
if (edges && edges.length) {
  for (var i=0;i<edges.length;i++) {
    if (edges[i].id.substr(0,4)=='edge') {
      edges[i].setAttribute('class','edge');
    }
  }
}
]]></script>
        <defs>
                <circle id="rim" cx="0" cy="0" r="7"/>
                <circle id="rim2" cx="0" cy="0" r="3.5"/>
                <g id="zoomPlus">
                        <use xlink:href="#rim" fill="#404040">
                                <set attributeName="fill" to="#808080" begin="zoomplus.mouseover" end="zoomplus.mouseout"/>
                        </use>
                        <path d="M-4,0h8M0,-4v8" fill="none" stroke="white" stroke-width="1.5" pointer-events="none"/>
                </g>
                <g id="zoomMin">
                        <use xlink:href="#rim" fill="#404040">
                                <set attributeName="fill" to="#808080" begin="zoomminus.mouseover" end="zoomminus.mouseout"/>
                        </use>
                        <path d="M-4,0h8" fill="none" stroke="white" stroke-width="1.5" pointer-events="none"/>
                </g>
                <g id="dirArrow">
                        <path fill="none" stroke="white" stroke-width="1.5" d="M0,-3.0v7 M-2.5,-0.5L0,-3.0L2.5,-0.5"/>
                </g>
               <g id="resetDef">
                       <use xlink:href="#rim2" fill="#404040">
                               <set attributeName="fill" to="#808080" begin="reset.mouseover" end="reset.mouseout"/>
                       </use>
               </g>
        </defs>

<script type="text/javascript">
var viewWidth = 884;
var viewHeight = 271;
var sectionId = 'dynsection-59';
</script>
<script xlink:href="svgpan.js"/>
<svg id="graph" class="graph">
<g id="viewport">
<title>sbuf_cut</title>
<polygon fill="white" stroke="transparent" points="-4,4 -4,-267.22 880,-267.22 880,4 -4,4"/>
<!-- Node1 -->
<g id="node1" class="node">
<title>Node1</title>
<g id="a_node1"><a xlink:title=" ">
<polygon fill="#bfbfbf" stroke="black" points="822,-157.72 822,-176.72 876,-176.72 876,-157.72 822,-157.72"/>
<text text-anchor="middle" x="849" y="-164.72" font-family="Helvetica,sans-Serif" font-size="10.00">sbuf_cut</text>
</a>
</g>
</g>
<!-- Node2 -->
<g id="node2" class="node">
<title>Node2</title>
<g id="a_node2"><a xlink:href="led_8c.html#a617ec615e86687b5c10df33b271256c8" target="_top" xlink:title=" ">
<polygon fill="white" stroke="black" points="625,-138.72 625,-157.72 675,-157.72 675,-138.72 625,-138.72"/>
<text text-anchor="middle" x="650" y="-145.72" font-family="Helvetica,sans-Serif" font-size="10.00">led_line</text>
</a>
</g>
</g>
<!-- Node1&#45;&gt;Node2 -->
<g id="edge1" class="edge">
<title>Node1&#45;&gt;Node2</title>
<path fill="none" stroke="midnightblue" d="M811.76,-163.73C771.99,-159.89 709.25,-153.84 675.1,-150.54"/>
<polygon fill="midnightblue" stroke="midnightblue" points="811.55,-167.22 821.84,-164.7 812.22,-160.25 811.55,-167.22"/>
</g>
<!-- Node19 -->
<g id="node19" class="node">
<title>Node19</title>
<g id="a_node19"><a xlink:href="led_8c.html#ae938cbff964c214e7e4f6aff4d5ce0f7" target="_top" xlink:title=" ">
<polygon fill="white" stroke="black" points="711,-176.72 711,-195.72 786,-195.72 786,-176.72 711,-176.72"/>
<text text-anchor="middle" x="748.5" y="-183.72" font-family="Helvetica,sans-Serif" font-size="10.00">led_printparts</text>
</a>
</g>
</g>
<!-- Node1&#45;&gt;Node19 -->
<g id="edge25" class="edge">
<title>Node1&#45;&gt;Node19</title>
<path fill="none" stroke="midnightblue" d="M811.95,-174.17C803.54,-175.8 794.58,-177.52 786.14,-179.15"/>
<polygon fill="midnightblue" stroke="midnightblue" points="812.71,-177.59 821.86,-172.26 811.38,-170.72 812.71,-177.59"/>
</g>
<!-- Node3 -->
<g id="node3" class="node">
<title>Node3</title>
<g id="a_node3"><a xlink:href="vi_8h.html#ae72255a31cec31233723c101d9465d07" target="_top" xlink:title=" ">
<polygon fill="white" stroke="black" points="528.5,-176.72 528.5,-195.72 584.5,-195.72 584.5,-176.72 528.5,-176.72"/>
<text text-anchor="middle" x="556.5" y="-183.72" font-family="Helvetica,sans-Serif" font-size="10.00">led_input</text>
</a>
</g>
</g>
<!-- Node2&#45;&gt;Node3 -->
<g id="edge2" class="edge">
<title>Node2&#45;&gt;Node3</title>
<path fill="none" stroke="midnightblue" d="M616.35,-161.78C604.52,-166.69 591.42,-172.13 580.58,-176.63"/>
<polygon fill="midnightblue" stroke="midnightblue" points="618.02,-164.88 625.91,-157.81 615.33,-158.41 618.02,-164.88"/>
</g>
<!-- Node10 -->
<g id="node10" class="node">
<title>Node10</title>
<g id="a_node10"><a xlink:href="vi_8h.html#a173bb468e1e2a066136316f98b49c108" target="_top" xlink:title=" ">
<polygon fill="white" stroke="black" points="524,-129.72 524,-148.72 589,-148.72 589,-129.72 524,-129.72"/>
<text text-anchor="middle" x="556.5" y="-136.72" font-family="Helvetica,sans-Serif" font-size="10.00">led_prompt</text>
</a>
</g>
</g>
<!-- Node2&#45;&gt;Node10 -->
<g id="edge10" class="edge">
<title>Node2&#45;&gt;Node10</title>
<path fill="none" stroke="midnightblue" d="M614.77,-144.85C606.42,-144.03 597.53,-143.16 589.3,-142.35"/>
<polygon fill="midnightblue" stroke="midnightblue" points="614.66,-148.36 624.96,-145.86 615.35,-141.39 614.66,-148.36"/>
</g>
<!-- Node4 -->
<g id="node4" class="node">
<title>Node4</title>
<g id="a_node4"><a xlink:href="vi_8c.html#a653f6b0359cef492e11f404c4bf469b9" target="_top" xlink:title=" ">
<polygon fill="white" stroke="black" points="338.5,-205.72 338.5,-224.72 388.5,-224.72 388.5,-205.72 338.5,-205.72"/>
<text text-anchor="middle" x="363.5" y="-212.72" font-family="Helvetica,sans-Serif" font-size="10.00">vi_input</text>
</a>
</g>
</g>
<!-- Node3&#45;&gt;Node4 -->
<g id="edge3" class="edge">
<title>Node3&#45;&gt;Node4</title>
<path fill="none" stroke="midnightblue" d="M517.9,-191.93C479.62,-197.74 421.39,-206.58 388.79,-211.53"/>
<polygon fill="midnightblue" stroke="midnightblue" points="518.77,-195.34 528.13,-190.38 517.72,-188.42 518.77,-195.34"/>
</g>
<!-- Node5 -->
<g id="node5" class="node">
<title>Node5</title>
<g id="a_node5"><a xlink:href="vi_8c.html#a8bb357a77ed61da8858f138c6fa672a6" target="_top" xlink:title=" ">
<polygon fill="white" stroke="black" points="239.5,-243.72 239.5,-262.72 295.5,-262.72 295.5,-243.72 239.5,-243.72"/>
<text text-anchor="middle" x="267.5" y="-250.72" font-family="Helvetica,sans-Serif" font-size="10.00">vc_insert</text>
</a>
</g>
</g>
<!-- Node4&#45;&gt;Node5 -->
<g id="edge4" class="edge">
<title>Node4&#45;&gt;Node5</title>
<path fill="none" stroke="midnightblue" d="M329.32,-228.63C317.08,-233.58 303.46,-239.09 292.21,-243.63"/>
<polygon fill="midnightblue" stroke="midnightblue" points="330.82,-231.8 338.78,-224.81 328.2,-225.31 330.82,-231.8"/>
</g>
<!-- Node8 -->
<g id="node8" class="node">
<title>Node8</title>
<g id="a_node8"><a xlink:href="vi_8c.html#ae37b094c3bb647d8c1a4ac4e858ce518" target="_top" xlink:title=" ">
<polygon fill="white" stroke="black" points="237,-205.72 237,-224.72 298,-224.72 298,-205.72 237,-205.72"/>
<text text-anchor="middle" x="267.5" y="-212.72" font-family="Helvetica,sans-Serif" font-size="10.00">vi_change</text>
</a>
</g>
</g>
<!-- Node4&#45;&gt;Node8 -->
<g id="edge7" class="edge">
<title>Node4&#45;&gt;Node8</title>
<path fill="none" stroke="midnightblue" d="M328.1,-215.22C318.34,-215.22 307.8,-215.22 298.34,-215.22"/>
<polygon fill="midnightblue" stroke="midnightblue" points="328.29,-218.72 338.29,-215.22 328.29,-211.72 328.29,-218.72"/>
</g>
<!-- Node6 -->
<g id="node6" class="node">
<title>Node6</title>
<g id="a_node6"><a xlink:href="vi_8c.html#a8d808e0f3453afe6600673ee1ea5f828" target="_top" xlink:title=" ">
<polygon fill="white" stroke="black" points="74,-110.72 74,-129.72 103,-129.72 103,-110.72 74,-110.72"/>
<text text-anchor="middle" x="88.5" y="-117.72" font-family="Helvetica,sans-Serif" font-size="10.00">vi</text>
</a>
</g>
</g>
<!-- Node5&#45;&gt;Node6 -->
<g id="edge5" class="edge">
<title>Node5&#45;&gt;Node6</title>
<path fill="none" stroke="midnightblue" d="M229.79,-243.03C202.49,-234.06 165.52,-218.87 139,-196.22 116.73,-177.2 100.69,-145.7 93.58,-129.89"/>
<polygon fill="midnightblue" stroke="midnightblue" points="228.79,-246.38 239.38,-246.05 230.89,-239.7 228.79,-246.38"/>
</g>
<!-- Node7 -->
<g id="node7" class="node">
<title>Node7</title>
<g id="a_node7"><a xlink:href="vi_8c.html#a0ddf1224851353fc92bfbff6f499fa97" target="_top" xlink:title=" ">
<polygon fill="white" stroke="black" points="0,-53.72 0,-72.72 38,-72.72 38,-53.72 0,-53.72"/>
<text text-anchor="middle" x="19" y="-60.72" font-family="Helvetica,sans-Serif" font-size="10.00">main</text>
</a>
</g>
</g>
<!-- Node6&#45;&gt;Node7 -->
<g id="edge6" class="edge">
<title>Node6&#45;&gt;Node7</title>
<path fill="none" stroke="midnightblue" d="M68.35,-104.05C56.38,-93.94 41.37,-81.27 31.28,-72.75"/>
<polygon fill="midnightblue" stroke="midnightblue" points="66.15,-106.77 76.05,-110.55 70.67,-101.42 66.15,-106.77"/>
</g>
<!-- Node9 -->
<g id="node9" class="node">
<title>Node9</title>
<g id="a_node9"><a xlink:href="vi_8c.html#a06cbc6eb843436a0e77e07cbab0c4538" target="_top" xlink:title=" ">
<polygon fill="white" stroke="black" points="139,-167.72 139,-186.72 201,-186.72 201,-167.72 139,-167.72"/>
<text text-anchor="middle" x="170" y="-174.72" font-family="Helvetica,sans-Serif" font-size="10.00">vc_motion</text>
</a>
</g>
</g>
<!-- Node8&#45;&gt;Node9 -->
<g id="edge8" class="edge">
<title>Node8&#45;&gt;Node9</title>
<path fill="none" stroke="midnightblue" d="M232.79,-201.81C220.35,-196.86 206.51,-191.35 195.09,-186.81"/>
<polygon fill="midnightblue" stroke="midnightblue" points="231.82,-205.19 242.4,-205.63 234.4,-198.68 231.82,-205.19"/>
</g>
<!-- Node9&#45;&gt;Node6 -->
<g id="edge9" class="edge">
<title>Node9&#45;&gt;Node6</title>
<path fill="none" stroke="midnightblue" d="M147.25,-161.63C133.02,-151.43 114.9,-138.43 102.79,-129.75"/>
<polygon fill="midnightblue" stroke="midnightblue" points="145.35,-164.57 155.51,-167.55 149.43,-158.88 145.35,-164.57"/>
</g>
<!-- Node11 -->
<g id="node11" class="node">
<title>Node11</title>
<g id="a_node11"><a xlink:href="vi_8h.html#a7ba56272fe1a7d523192729a0bb5edf7" target="_top" xlink:title=" ">
<polygon fill="white" stroke="black" points="242,-34.72 242,-53.72 293,-53.72 293,-34.72 242,-34.72"/>
<text text-anchor="middle" x="267.5" y="-41.72" font-family="Helvetica,sans-Serif" font-size="10.00">ex_read</text>
</a>
</g>
</g>
<!-- Node10&#45;&gt;Node11 -->
<g id="edge11" class="edge">
<title>Node10&#45;&gt;Node11</title>
<path fill="none" stroke="midnightblue" d="M516.82,-126.42C456.87,-106.57 343.2,-68.95 293.18,-52.39"/>
<polygon fill="midnightblue" stroke="midnightblue" points="516.07,-129.86 526.67,-129.68 518.27,-123.21 516.07,-129.86"/>
</g>
<!-- Node15 -->
<g id="node15" class="node">
<title>Node15</title>
<g id="a_node15"><a xlink:href="vi_8c.html#a57965473297aad4c4333fdd3897c11f3" target="_top" xlink:title=" ">
<polygon fill="white" stroke="black" points="429,-129.72 429,-148.72 488,-148.72 488,-129.72 429,-129.72"/>
<text text-anchor="middle" x="458.5" y="-136.72" font-family="Helvetica,sans-Serif" font-size="10.00">vi_prompt</text>
</a>
</g>
</g>
<!-- Node10&#45;&gt;Node15 -->
<g id="edge17" class="edge">
<title>Node10&#45;&gt;Node15</title>
<path fill="none" stroke="midnightblue" d="M513.58,-139.22C505.03,-139.22 496.22,-139.22 488.25,-139.22"/>
<polygon fill="midnightblue" stroke="midnightblue" points="513.8,-142.72 523.8,-139.22 513.8,-135.72 513.8,-142.72"/>
</g>
<!-- Node12 -->
<g id="node12" class="node">
<title>Node12</title>
<g id="a_node12"><a xlink:href="ex_8c.html#a0908784dc65be2da119a6b72ef96dec2" target="_top" xlink:title=" ">
<polygon fill="white" stroke="black" points="142,-15.72 142,-34.72 198,-34.72 198,-15.72 142,-15.72"/>
<text text-anchor="middle" x="170" y="-22.72" font-family="Helvetica,sans-Serif" font-size="10.00">ec_insert</text>
</a>
</g>
</g>
<!-- Node11&#45;&gt;Node12 -->
<g id="edge12" class="edge">
<title>Node11&#45;&gt;Node12</title>
<path fill="none" stroke="midnightblue" d="M232.05,-37.37C220.92,-35.15 208.74,-32.73 198.2,-30.63"/>
<polygon fill="midnightblue" stroke="midnightblue" points="231.42,-40.81 241.91,-39.33 232.78,-33.94 231.42,-40.81"/>
</g>
<!-- Node13 -->
<g id="node13" class="node">
<title>Node13</title>
<g id="a_node13"><a xlink:href="vi_8h.html#ac395e51f25330a6e6033b6d0d22b2076" target="_top" xlink:title=" ">
<polygon fill="white" stroke="black" points="74,-34.72 74,-53.72 103,-53.72 103,-34.72 74,-34.72"/>
<text text-anchor="middle" x="88.5" y="-41.72" font-family="Helvetica,sans-Serif" font-size="10.00">ex</text>
</a>
</g>
</g>
<!-- Node11&#45;&gt;Node13 -->
<g id="edge13" class="edge">
<title>Node11&#45;&gt;Node13</title>
<path fill="none" stroke="midnightblue" d="M246.15,-28.65C233.82,-20.2 217.34,-10.62 201,-6.22 174.39,0.94 165.09,2.64 139,-6.22 122.59,-11.79 107.35,-25.24 98.24,-34.55"/>
<polygon fill="midnightblue" stroke="midnightblue" points="244.17,-31.53 254.34,-34.5 248.24,-25.84 244.17,-31.53"/>
</g>
<!-- Node14 -->
<g id="node14" class="node">
<title>Node14</title>
<g id="a_node14"><a xlink:href="vi_8c.html#a9d85e9ed087401367529ab86a5dbf0c5" target="_top" xlink:title=" ">
<polygon fill="white" stroke="black" points="146.5,-53.72 146.5,-72.72 193.5,-72.72 193.5,-53.72 146.5,-53.72"/>
<text text-anchor="middle" x="170" y="-60.72" font-family="Helvetica,sans-Serif" font-size="10.00">vi_wait</text>
</a>
</g>
</g>
<!-- Node11&#45;&gt;Node14 -->
<g id="edge15" class="edge">
<title>Node11&#45;&gt;Node14</title>
<path fill="none" stroke="midnightblue" d="M232.01,-51.08C219.2,-53.63 205.02,-56.45 193.55,-58.73"/>
<polygon fill="midnightblue" stroke="midnightblue" points="232.78,-54.5 241.91,-49.11 231.42,-47.63 232.78,-54.5"/>
</g>
<!-- Node13&#45;&gt;Node7 -->
<g id="edge14" class="edge">
<title>Node13&#45;&gt;Node7</title>
<path fill="none" stroke="midnightblue" d="M64.14,-50.79C55.67,-53.18 46.22,-55.84 38.25,-58.08"/>
<polygon fill="midnightblue" stroke="midnightblue" points="65.16,-54.14 73.84,-48.07 63.27,-47.41 65.16,-54.14"/>
</g>
<!-- Node14&#45;&gt;Node6 -->
<g id="edge16" class="edge">
<title>Node14&#45;&gt;Node6</title>
<path fill="none" stroke="midnightblue" d="M147.25,-78.81C133.02,-89.01 114.9,-102.01 102.79,-110.69"/>
<polygon fill="midnightblue" stroke="midnightblue" points="149.43,-81.56 155.51,-72.89 145.35,-75.87 149.43,-81.56"/>
</g>
<!-- Node15&#45;&gt;Node6 -->
<g id="edge18" class="edge">
<title>Node15&#45;&gt;Node6</title>
<path fill="none" stroke="midnightblue" d="M421.83,-126.74C412.56,-124.04 402.5,-121.59 393,-120.22 282.18,-104.24 146.22,-114.79 103.21,-118.84"/>
<polygon fill="midnightblue" stroke="midnightblue" points="420.93,-130.12 431.52,-129.72 422.99,-123.43 420.93,-130.12"/>
</g>
<!-- Node16 -->
<g id="node16" class="node">
<title>Node16</title>
<g id="a_node16"><a xlink:href="vi_8c.html#ab8e0c9b9d2ef5161c6a3a8828606df5f" target="_top" xlink:title=" ">
<polygon fill="white" stroke="black" points="340,-167.72 340,-186.72 387,-186.72 387,-167.72 340,-167.72"/>
<text text-anchor="middle" x="363.5" y="-174.72" font-family="Helvetica,sans-Serif" font-size="10.00">vi_pipe</text>
</a>
</g>
</g>
<!-- Node15&#45;&gt;Node16 -->
<g id="edge19" class="edge">
<title>Node15&#45;&gt;Node16</title>
<path fill="none" stroke="midnightblue" d="M424.53,-152.69C412.22,-157.72 398.52,-163.32 387.32,-167.9"/>
<polygon fill="midnightblue" stroke="midnightblue" points="426.1,-155.83 434.03,-148.81 423.45,-149.35 426.1,-155.83"/>
</g>
<!-- Node17 -->
<g id="node17" class="node">
<title>Node17</title>
<g id="a_node17"><a xlink:href="vi_8c.html#a93701c59617d4f96cbaa207e89178f87" target="_top" xlink:title=" ">
<polygon fill="white" stroke="black" points="334,-129.72 334,-148.72 393,-148.72 393,-129.72 334,-129.72"/>
<text text-anchor="middle" x="363.5" y="-136.72" font-family="Helvetica,sans-Serif" font-size="10.00">vi_search</text>
</a>
</g>
</g>
<!-- Node15&#45;&gt;Node17 -->
<g id="edge21" class="edge">
<title>Node15&#45;&gt;Node17</title>
<path fill="none" stroke="midnightblue" d="M418.69,-139.22C410.16,-139.22 401.28,-139.22 393.23,-139.22"/>
<polygon fill="midnightblue" stroke="midnightblue" points="418.84,-142.72 428.84,-139.22 418.84,-135.72 418.84,-142.72"/>
</g>
<!-- Node16&#45;&gt;Node9 -->
<g id="edge20" class="edge">
<title>Node16&#45;&gt;Node9</title>
<path fill="none" stroke="midnightblue" d="M329.78,-177.22C293.74,-177.22 236.26,-177.22 201.24,-177.22"/>
<polygon fill="midnightblue" stroke="midnightblue" points="329.78,-180.72 339.78,-177.22 329.78,-173.72 329.78,-180.72"/>
</g>
<!-- Node18 -->
<g id="node18" class="node">
<title>Node18</title>
<g id="a_node18"><a xlink:href="vi_8c.html#aaa4777ea0715ea846346d0f27a0cfa3f" target="_top" xlink:title=" ">
<polygon fill="white" stroke="black" points="238,-129.72 238,-148.72 297,-148.72 297,-129.72 238,-129.72"/>
<text text-anchor="middle" x="267.5" y="-136.72" font-family="Helvetica,sans-Serif" font-size="10.00">vi_motion</text>
</a>
</g>
</g>
<!-- Node17&#45;&gt;Node18 -->
<g id="edge22" class="edge">
<title>Node17&#45;&gt;Node18</title>
<path fill="none" stroke="midnightblue" d="M323.6,-139.22C314.71,-139.22 305.41,-139.22 297.04,-139.22"/>
<polygon fill="midnightblue" stroke="midnightblue" points="323.79,-142.72 333.79,-139.22 323.79,-135.72 323.79,-142.72"/>
</g>
<!-- Node18&#45;&gt;Node6 -->
<g id="edge24" class="edge">
<title>Node18&#45;&gt;Node6</title>
<path fill="none" stroke="midnightblue" d="M227.63,-135.05C188.35,-130.83 129.77,-124.54 103.33,-121.7"/>
<polygon fill="midnightblue" stroke="midnightblue" points="227.35,-138.54 237.67,-136.13 228.1,-131.58 227.35,-138.54"/>
</g>
<!-- Node18&#45;&gt;Node9 -->
<g id="edge23" class="edge">
<title>Node18&#45;&gt;Node9</title>
<path fill="none" stroke="midnightblue" d="M232.79,-152.63C220.35,-157.58 206.51,-163.09 195.09,-167.63"/>
<polygon fill="midnightblue" stroke="midnightblue" points="234.4,-155.76 242.4,-148.81 231.82,-149.25 234.4,-155.76"/>
</g>
<!-- Node19&#45;&gt;Node2 -->
<g id="edge27" class="edge">
<title>Node19&#45;&gt;Node2</title>
<path fill="none" stroke="midnightblue" d="M713.74,-172.93C700.97,-167.9 686.71,-162.28 675.01,-157.67"/>
<polygon fill="midnightblue" stroke="midnightblue" points="712.56,-176.22 723.15,-176.63 715.13,-169.71 712.56,-176.22"/>
</g>
<!-- Node19&#45;&gt;Node3 -->
<g id="edge26" class="edge">
<title>Node19&#45;&gt;Node3</title>
<path fill="none" stroke="midnightblue" d="M700.46,-186.22C663.96,-186.22 614.64,-186.22 584.51,-186.22"/>
<polygon fill="midnightblue" stroke="midnightblue" points="700.87,-189.72 710.87,-186.22 700.87,-182.72 700.87,-189.72"/>
</g>
</g>
</svg>
        <g id="navigator" transform="translate(0 0)" fill="#404254">
                <rect fill="#f2f5e9" fill-opacity="0.5" stroke="#606060" stroke-width=".5" x="0" y="0" width="60" height="60"/>
                <use id="zoomplus" xlink:href="#zoomPlus" x="17" y="9" onmousedown="handleZoom(evt,'in')"/>
                <use id="zoomminus" xlink:href="#zoomMin" x="42" y="9" onmousedown="handleZoom(evt,'out')"/>
                <use id="reset" xlink:href="#resetDef" x="30" y="36" onmousedown="handleReset()"/>
                <g id="arrowUp" xlink:href="#dirArrow" transform="translate(30 24)" onmousedown="handlePan(0,-1)">
                  <use xlink:href="#rim" fill="#404040">
                        <set attributeName="fill" to="#808080" begin="arrowUp.mouseover" end="arrowUp.mouseout"/>
                  </use>
                  <path fill="none" stroke="white" stroke-width="1.5" d="M0,-3.0v7 M-2.5,-0.5L0,-3.0L2.5,-0.5"/>
                </g>
                <g id="arrowRight" xlink:href="#dirArrow" transform="rotate(90) translate(36 -43)" onmousedown="handlePan(1,0)">
                  <use xlink:href="#rim" fill="#404040">
                        <set attributeName="fill" to="#808080" begin="arrowRight.mouseover" end="arrowRight.mouseout"/>
                  </use>
                  <path fill="none" stroke="white" stroke-width="1.5" d="M0,-3.0v7 M-2.5,-0.5L0,-3.0L2.5,-0.5"/>
                </g>
                <g id="arrowDown" xlink:href="#dirArrow" transform="rotate(180) translate(-30 -48)" onmousedown="handlePan(0,1)">
                  <use xlink:href="#rim" fill="#404040">
                        <set attributeName="fill" to="#808080" begin="arrowDown.mouseover" end="arrowDown.mouseout"/>
                  </use>
                  <path fill="none" stroke="white" stroke-width="1.5" d="M0,-3.0v7 M-2.5,-0.5L0,-3.0L2.5,-0.5"/>
                </g>
                <g id="arrowLeft" xlink:href="#dirArrow" transform="rotate(270) translate(-36 17)" onmousedown="handlePan(-1,0)">
                  <use xlink:href="#rim" fill="#404040">
                        <set attributeName="fill" to="#808080" begin="arrowLeft.mouseover" end="arrowLeft.mouseout"/>
                  </use>
                  <path fill="none" stroke="white" stroke-width="1.5" d="M0,-3.0v7 M-2.5,-0.5L0,-3.0L2.5,-0.5"/>
                </g>
        </g>
        <svg viewBox="0 0 15 15" width="100%" height="30px" preserveAspectRatio="xMaxYMin meet">
         <g id="arrow_out" transform="scale(0.3 0.3)">
          <a xlink:href="vi_8h_a0eb302d19f110f492107e9477ed93d7c_icgraph_org.svg" target="_base">
           <rect id="button" ry="5" rx="5" y="6" x="6" height="38" width="38"
                fill="#f2f5e9" fill-opacity="0.5" stroke="#606060" stroke-width="1.0"/>
           <path id="arrow"
             d="M 11.500037,31.436501 C 11.940474,20.09759 22.043105,11.32322 32.158766,21.979434 L 37.068811,17.246167 C 37.068811,17.246167 37.088388,32 37.088388,32 L 22.160133,31.978069 C 22.160133,31.978069 26.997745,27.140456 26.997745,27.140456 C 18.528582,18.264221 13.291696,25.230495 11.500037,31.436501 z"
             style="fill:#404040;"/>
          </a>
         </g>
        </svg>
</svg>
