<?xml version="1.0" encoding="UTF-8" standalone="no"?>
<!DOCTYPE svg PUBLIC "-//W3C//DTD SVG 1.1//EN"
 "http://www.w3.org/Graphics/SVG/1.1/DTD/svg11.dtd">
<!-- Generated by graphviz version 2.44.1 (20200629.0846)
 -->
<!-- Title: conf_filetype Pages: 1 -->
<svg width="522pt" height="66pt"
 viewBox="0.00 0.00 522.00 66.00" xmlns="http://www.w3.org/2000/svg" xmlns:xlink="http://www.w3.org/1999/xlink">
<g id="graph0" class="graph" transform="scale(1 1) rotate(0) translate(4 62)">
<title>conf_filetype</title>
<polygon fill="white" stroke="transparent" points="-4,4 -4,-62 518,-62 518,4 -4,4"/>
<!-- Node1 -->
<g id="node1" class="node">
<title>Node1</title>
<g id="a_node1"><a xlink:title=" ">
<polygon fill="#bfbfbf" stroke="black" points="442,-19.5 442,-38.5 514,-38.5 514,-19.5 442,-19.5"/>
<text text-anchor="middle" x="478" y="-26.5" font-family="Helvetica,sans-Serif" font-size="10.00">conf_filetype</text>
</a>
</g>
</g>
<!-- Node2 -->
<g id="node2" class="node">
<title>Node2</title>
<g id="a_node2"><a xlink:href="vi_8h.html#ad440dafd3cad961222bb22b9743657bf" target="_top" xlink:title=" ">
<polygon fill="white" stroke="black" points="337,-38.5 337,-57.5 406,-57.5 406,-38.5 337,-38.5"/>
<text text-anchor="middle" x="371.5" y="-45.5" font-family="Helvetica,sans-Serif" font-size="10.00">syn_filetype</text>
</a>
</g>
</g>
<!-- Node1&#45;&gt;Node2 -->
<g id="edge1" class="edge">
<title>Node1&#45;&gt;Node2</title>
<path fill="none" stroke="midnightblue" d="M431.97,-37.19C423.34,-38.76 414.45,-40.37 406.26,-41.86"/>
<polygon fill="midnightblue" stroke="midnightblue" points="432.7,-40.61 441.91,-35.38 431.45,-33.72 432.7,-40.61"/>
</g>
<!-- Node7 -->
<g id="node7" class="node">
<title>Node7</title>
<g id="a_node7"><a xlink:href="vi_8h.html#a5ca5f67cbe20ba50389c586990d3582c" target="_top" xlink:title=" ">
<polygon fill="white" stroke="black" points="245,-0.5 245,-19.5 295,-19.5 295,-0.5 245,-0.5"/>
<text text-anchor="middle" x="270" y="-7.5" font-family="Helvetica,sans-Serif" font-size="10.00">syn_init</text>
</a>
</g>
</g>
<!-- Node1&#45;&gt;Node7 -->
<g id="edge6" class="edge">
<title>Node1&#45;&gt;Node7</title>
<path fill="none" stroke="midnightblue" d="M431.58,-24.81C389.46,-20.93 328.41,-15.29 295.02,-12.22"/>
<polygon fill="midnightblue" stroke="midnightblue" points="431.31,-28.3 441.59,-25.73 431.95,-21.33 431.31,-28.3"/>
</g>
<!-- Node3 -->
<g id="node3" class="node">
<title>Node3</title>
<g id="a_node3"><a xlink:href="ex_8c.html#a1857a36a25629d552700d0e3a19ce2c3" target="_top" xlink:title=" ">
<polygon fill="white" stroke="black" points="239,-38.5 239,-57.5 301,-57.5 301,-38.5 239,-38.5"/>
<text text-anchor="middle" x="270" y="-45.5" font-family="Helvetica,sans-Serif" font-size="10.00">bufs_open</text>
</a>
</g>
</g>
<!-- Node2&#45;&gt;Node3 -->
<g id="edge2" class="edge">
<title>Node2&#45;&gt;Node3</title>
<path fill="none" stroke="midnightblue" d="M326.59,-48C318.05,-48 309.29,-48 301.31,-48"/>
<polygon fill="midnightblue" stroke="midnightblue" points="326.81,-51.5 336.81,-48 326.81,-44.5 326.81,-51.5"/>
</g>
<!-- Node4 -->
<g id="node4" class="node">
<title>Node4</title>
<g id="a_node4"><a xlink:href="ex_8c.html#a8059390ad69866fa8e14bdb2521d4dc2" target="_top" xlink:title=" ">
<polygon fill="white" stroke="black" points="155,-38.5 155,-57.5 203,-57.5 203,-38.5 155,-38.5"/>
<text text-anchor="middle" x="179" y="-45.5" font-family="Helvetica,sans-Serif" font-size="10.00">ec_edit</text>
</a>
</g>
</g>
<!-- Node3&#45;&gt;Node4 -->
<g id="edge3" class="edge">
<title>Node3&#45;&gt;Node4</title>
<path fill="none" stroke="midnightblue" d="M228.73,-48C219.93,-48 210.91,-48 203.06,-48"/>
<polygon fill="midnightblue" stroke="midnightblue" points="228.87,-51.5 238.87,-48 228.87,-44.5 228.87,-51.5"/>
</g>
<!-- Node5 -->
<g id="node5" class="node">
<title>Node5</title>
<g id="a_node5"><a xlink:href="vi_8h.html#abe53b5c10f94f20cd5ed024371615fa1" target="_top" xlink:title=" ">
<polygon fill="white" stroke="black" points="74,-38.5 74,-57.5 119,-57.5 119,-38.5 74,-38.5"/>
<text text-anchor="middle" x="96.5" y="-45.5" font-family="Helvetica,sans-Serif" font-size="10.00">ex_init</text>
</a>
</g>
</g>
<!-- Node4&#45;&gt;Node5 -->
<g id="edge4" class="edge">
<title>Node4&#45;&gt;Node5</title>
<path fill="none" stroke="midnightblue" d="M144.54,-48C135.93,-48 126.9,-48 119.08,-48"/>
<polygon fill="midnightblue" stroke="midnightblue" points="144.72,-51.5 154.72,-48 144.72,-44.5 144.72,-51.5"/>
</g>
<!-- Node6 -->
<g id="node6" class="node">
<title>Node6</title>
<g id="a_node6"><a xlink:href="vi_8c.html#a0ddf1224851353fc92bfbff6f499fa97" target="_top" xlink:title=" ">
<polygon fill="white" stroke="black" points="0,-19.5 0,-38.5 38,-38.5 38,-19.5 0,-19.5"/>
<text text-anchor="middle" x="19" y="-26.5" font-family="Helvetica,sans-Serif" font-size="10.00">main</text>
</a>
</g>
</g>
<!-- Node5&#45;&gt;Node6 -->
<g id="edge5" class="edge">
<title>Node5&#45;&gt;Node6</title>
<path fill="none" stroke="midnightblue" d="M63.83,-40.03C55.19,-37.86 46.11,-35.57 38.47,-33.65"/>
<polygon fill="midnightblue" stroke="midnightblue" points="63.11,-43.46 73.66,-42.5 64.82,-36.67 63.11,-43.46"/>
</g>
<!-- Node7&#45;&gt;Node6 -->
<g id="edge7" class="edge">
<title>Node7&#45;&gt;Node6</title>
<path fill="none" stroke="midnightblue" d="M234.63,-12.62C181.06,-16.71 79.52,-24.46 38.19,-27.61"/>
<polygon fill="midnightblue" stroke="midnightblue" points="234.97,-16.11 244.67,-11.86 234.43,-9.13 234.97,-16.11"/>
</g>
</g>
</svg>
