<?xml version="1.0" encoding="UTF-8" standalone="no"?>
<!DOCTYPE svg PUBLIC "-//W3C//DTD SVG 1.1//EN"
 "http://www.w3.org/Graphics/SVG/1.1/DTD/svg11.dtd">
<!-- Generated by graphviz version 2.44.1 (20200629.0846)
 -->
<!-- Title: ex_show Pages: 1 -->
<!--zoomable 458 -->
<svg id="main" version="1.1" xmlns="http://www.w3.org/2000/svg" xmlns:xlink="http://www.w3.org/1999/xlink" xml:space="preserve" onload="init(evt)">
<style type="text/css"><![CDATA[
.edge:hover path { stroke: red; }
.edge:hover polygon { stroke: red; fill: red; }
]]></style>
<script type="text/javascript"><![CDATA[
var edges = document.getElementsByTagName('g');
if (edges && edges.length) {
  for (var i=0;i<edges.length;i++) {
    if (edges[i].id.substr(0,4)=='edge') {
      edges[i].setAttribute('class','edge');
    }
  }
}
]]></script>
        <defs>
                <circle id="rim" cx="0" cy="0" r="7"/>
                <circle id="rim2" cx="0" cy="0" r="3.5"/>
                <g id="zoomPlus">
                        <use xlink:href="#rim" fill="#404040">
                                <set attributeName="fill" to="#808080" begin="zoomplus.mouseover" end="zoomplus.mouseout"/>
                        </use>
                        <path d="M-4,0h8M0,-4v8" fill="none" stroke="white" stroke-width="1.5" pointer-events="none"/>
                </g>
                <g id="zoomMin">
                        <use xlink:href="#rim" fill="#404040">
                                <set attributeName="fill" to="#808080" begin="zoomminus.mouseover" end="zoomminus.mouseout"/>
                        </use>
                        <path d="M-4,0h8" fill="none" stroke="white" stroke-width="1.5" pointer-events="none"/>
                </g>
                <g id="dirArrow">
                        <path fill="none" stroke="white" stroke-width="1.5" d="M0,-3.0v7 M-2.5,-0.5L0,-3.0L2.5,-0.5"/>
                </g>
               <g id="resetDef">
                       <use xlink:href="#rim2" fill="#404040">
                               <set attributeName="fill" to="#808080" begin="reset.mouseover" end="reset.mouseout"/>
                       </use>
               </g>
        </defs>

<script type="text/javascript">
var viewWidth = 911;
var viewHeight = 458;
var sectionId = 'dynsection-174';
</script>
<script xlink:href="svgpan.js"/>
<svg id="graph" class="graph">
<g id="viewport">
<title>ex_show</title>
<polygon fill="white" stroke="transparent" points="-4,4 -4,-454.06 907,-454.06 907,4 -4,4"/>
<!-- Node1 -->
<g id="node1" class="node">
<title>Node1</title>
<g id="a_node1"><a xlink:title=" ">
<polygon fill="#bfbfbf" stroke="black" points="847,-323.5 847,-342.5 903,-342.5 903,-323.5 847,-323.5"/>
<text text-anchor="middle" x="875" y="-330.5" font-family="Helvetica,sans-Serif" font-size="10.00">ex_show</text>
</a>
</g>
</g>
<!-- Node2 -->
<g id="node2" class="node">
<title>Node2</title>
<g id="a_node2"><a xlink:href="ex_8c.html#a8059390ad69866fa8e14bdb2521d4dc2" target="_top" xlink:title=" ">
<polygon fill="white" stroke="black" points="442,-361.5 442,-380.5 490,-380.5 490,-361.5 442,-361.5"/>
<text text-anchor="middle" x="466" y="-368.5" font-family="Helvetica,sans-Serif" font-size="10.00">ec_edit</text>
</a>
</g>
</g>
<!-- Node1&#45;&gt;Node2 -->
<g id="edge1" class="edge">
<title>Node1&#45;&gt;Node2</title>
<path fill="none" stroke="midnightblue" d="M866,-351.87C856.14,-372.76 837.41,-405.87 811,-424 775.18,-448.58 759.14,-441.85 716,-447 691.29,-449.95 684.45,-451.64 660,-447 592.25,-434.14 517.86,-397.99 484.68,-380.59"/>
<polygon fill="midnightblue" stroke="midnightblue" points="869.2,-353.27 870.11,-342.72 862.82,-350.4 869.2,-353.27"/>
</g>
<!-- Node5 -->
<g id="node5" class="node">
<title>Node5</title>
<g id="a_node5"><a xlink:href="ex_8c.html#add0e79e1f1e3d45f4eaa6fbe5c1ca443" target="_top" xlink:title=" ">
<polygon fill="white" stroke="black" points="662.5,-399.5 662.5,-418.5 713.5,-418.5 713.5,-399.5 662.5,-399.5"/>
<text text-anchor="middle" x="688" y="-406.5" font-family="Helvetica,sans-Serif" font-size="10.00">ec_read</text>
</a>
</g>
</g>
<!-- Node1&#45;&gt;Node5 -->
<g id="edge4" class="edge">
<title>Node1&#45;&gt;Node5</title>
<path fill="none" stroke="midnightblue" d="M841.21,-346.47C804.16,-361.69 744.8,-386.08 712.24,-399.45"/>
<polygon fill="midnightblue" stroke="midnightblue" points="842.65,-349.66 850.57,-342.63 839.99,-343.19 842.65,-349.66"/>
</g>
<!-- Node6 -->
<g id="node6" class="node">
<title>Node6</title>
<g id="a_node6"><a xlink:href="ex_8c.html#a98764f0b4faf5fd4b8baff03a7d73a6e" target="_top" xlink:title=" ">
<polygon fill="white" stroke="black" points="758.5,-114.5 758.5,-133.5 804.5,-133.5 804.5,-114.5 758.5,-114.5"/>
<text text-anchor="middle" x="781.5" y="-121.5" font-family="Helvetica,sans-Serif" font-size="10.00">ec_set</text>
</a>
</g>
</g>
<!-- Node1&#45;&gt;Node6 -->
<g id="edge5" class="edge">
<title>Node1&#45;&gt;Node6</title>
<path fill="none" stroke="midnightblue" d="M871.75,-313.33C866.69,-276.51 851.49,-196.09 811,-143 808.26,-139.41 804.63,-136.27 800.89,-133.64"/>
<polygon fill="midnightblue" stroke="midnightblue" points="868.28,-313.8 873.02,-323.28 875.23,-312.92 868.28,-313.8"/>
</g>
<!-- Node7 -->
<g id="node7" class="node">
<title>Node7</title>
<g id="a_node7"><a xlink:href="ex_8c.html#a057b67e2d4f23df3ad50a9d3ec86125b" target="_top" xlink:title=" ">
<polygon fill="white" stroke="black" points="661.5,-247.5 661.5,-266.5 714.5,-266.5 714.5,-247.5 661.5,-247.5"/>
<text text-anchor="middle" x="688" y="-254.5" font-family="Helvetica,sans-Serif" font-size="10.00">ec_write</text>
</a>
</g>
</g>
<!-- Node1&#45;&gt;Node7 -->
<g id="edge6" class="edge">
<title>Node1&#45;&gt;Node7</title>
<path fill="none" stroke="midnightblue" d="M841.21,-319.53C804.16,-304.31 744.8,-279.92 712.24,-266.55"/>
<polygon fill="midnightblue" stroke="midnightblue" points="839.99,-322.81 850.57,-323.37 842.65,-316.34 839.99,-322.81"/>
</g>
<!-- Node8 -->
<g id="node8" class="node">
<title>Node8</title>
<g id="a_node8"><a xlink:href="ex_8c.html#ab0cb848a971a3b2c09fcb456d887dd6b" target="_top" xlink:title=" ">
<polygon fill="white" stroke="black" points="530,-285.5 530,-304.5 624,-304.5 624,-285.5 530,-285.5"/>
<text text-anchor="middle" x="577" y="-292.5" font-family="Helvetica,sans-Serif" font-size="10.00">ex_modifiedbuffer</text>
</a>
</g>
</g>
<!-- Node1&#45;&gt;Node8 -->
<g id="edge29" class="edge">
<title>Node1&#45;&gt;Node8</title>
<path fill="none" stroke="midnightblue" d="M857.89,-350.4C821.57,-387.45 730.94,-467.6 660,-428 610.97,-400.63 587.62,-330.56 580.47,-304.74"/>
<polygon fill="midnightblue" stroke="midnightblue" points="860.77,-352.45 865.16,-342.81 855.72,-347.61 860.77,-352.45"/>
</g>
<!-- Node18 -->
<g id="node18" class="node">
<title>Node18</title>
<g id="a_node18"><a xlink:href="ex_8c.html#a2b8907dfb6e95eb16e8a0f1ce0fe5bb6" target="_top" xlink:title=" ">
<polygon fill="white" stroke="black" points="752,-323.5 752,-342.5 811,-342.5 811,-323.5 752,-323.5"/>
<text text-anchor="middle" x="781.5" y="-330.5" font-family="Helvetica,sans-Serif" font-size="10.00">ex_filearg</text>
</a>
</g>
</g>
<!-- Node1&#45;&gt;Node18 -->
<g id="edge23" class="edge">
<title>Node1&#45;&gt;Node18</title>
<path fill="none" stroke="midnightblue" d="M836.51,-333C828.06,-333 819.23,-333 811.2,-333"/>
<polygon fill="midnightblue" stroke="midnightblue" points="836.55,-336.5 846.55,-333 836.55,-329.5 836.55,-336.5"/>
</g>
<!-- Node19 -->
<g id="node19" class="node">
<title>Node19</title>
<g id="a_node19"><a xlink:href="vi_8h.html#a075721180ea187be49c7164dcff34122" target="_top" xlink:title=" ">
<polygon fill="white" stroke="black" points="756,-152.5 756,-171.5 807,-171.5 807,-152.5 756,-152.5"/>
<text text-anchor="middle" x="781.5" y="-159.5" font-family="Helvetica,sans-Serif" font-size="10.00">ex_print</text>
</a>
</g>
</g>
<!-- Node1&#45;&gt;Node19 -->
<g id="edge30" class="edge">
<title>Node1&#45;&gt;Node19</title>
<path fill="none" stroke="midnightblue" d="M863.98,-314.27C844.52,-277.92 802.27,-198.96 787.62,-171.58"/>
<polygon fill="midnightblue" stroke="midnightblue" points="861.01,-316.15 868.82,-323.32 867.19,-312.85 861.01,-316.15"/>
</g>
<!-- Node3 -->
<g id="node3" class="node">
<title>Node3</title>
<g id="a_node3"><a xlink:href="vi_8h.html#abe53b5c10f94f20cd5ed024371615fa1" target="_top" xlink:title=" ">
<polygon fill="white" stroke="black" points="74,-361.5 74,-380.5 119,-380.5 119,-361.5 74,-361.5"/>
<text text-anchor="middle" x="96.5" y="-368.5" font-family="Helvetica,sans-Serif" font-size="10.00">ex_init</text>
</a>
</g>
</g>
<!-- Node2&#45;&gt;Node3 -->
<g id="edge2" class="edge">
<title>Node2&#45;&gt;Node3</title>
<path fill="none" stroke="midnightblue" d="M431.55,-371C357.32,-371 180.55,-371 119.04,-371"/>
<polygon fill="midnightblue" stroke="midnightblue" points="431.73,-374.5 441.73,-371 431.73,-367.5 431.73,-374.5"/>
</g>
<!-- Node4 -->
<g id="node4" class="node">
<title>Node4</title>
<g id="a_node4"><a xlink:href="vi_8c.html#a0ddf1224851353fc92bfbff6f499fa97" target="_top" xlink:title=" ">
<polygon fill="white" stroke="black" points="0,-323.5 0,-342.5 38,-342.5 38,-323.5 0,-323.5"/>
<text text-anchor="middle" x="19" y="-330.5" font-family="Helvetica,sans-Serif" font-size="10.00">main</text>
</a>
</g>
</g>
<!-- Node3&#45;&gt;Node4 -->
<g id="edge3" class="edge">
<title>Node3&#45;&gt;Node4</title>
<path fill="none" stroke="midnightblue" d="M67.4,-356.86C57.57,-351.91 46.79,-346.49 38.01,-342.06"/>
<polygon fill="midnightblue" stroke="midnightblue" points="65.94,-360.04 76.45,-361.41 69.09,-353.79 65.94,-360.04"/>
</g>
<!-- Node7&#45;&gt;Node8 -->
<g id="edge7" class="edge">
<title>Node7&#45;&gt;Node8</title>
<path fill="none" stroke="midnightblue" d="M651.91,-269.23C636.81,-274.5 619.42,-280.56 605.3,-285.48"/>
<polygon fill="midnightblue" stroke="midnightblue" points="653.15,-272.51 661.44,-265.91 650.85,-265.9 653.15,-272.51"/>
</g>
<!-- Node8&#45;&gt;Node2 -->
<g id="edge8" class="edge">
<title>Node8&#45;&gt;Node2</title>
<path fill="none" stroke="midnightblue" d="M553.82,-310.46C531.9,-325.75 499.06,-348.64 480.69,-361.45"/>
<polygon fill="midnightblue" stroke="midnightblue" points="555.99,-313.22 562.2,-304.63 551.99,-307.47 555.99,-313.22"/>
</g>
<!-- Node9 -->
<g id="node9" class="node">
<title>Node9</title>
<g id="a_node9"><a xlink:href="ex_8c.html#adcd83f163f659bd2596bcfc25d74bde9" target="_top" xlink:title=" ">
<polygon fill="white" stroke="black" points="439.5,-285.5 439.5,-304.5 492.5,-304.5 492.5,-285.5 439.5,-285.5"/>
<text text-anchor="middle" x="466" y="-292.5" font-family="Helvetica,sans-Serif" font-size="10.00">ec_exec</text>
</a>
</g>
</g>
<!-- Node8&#45;&gt;Node9 -->
<g id="edge9" class="edge">
<title>Node8&#45;&gt;Node9</title>
<path fill="none" stroke="midnightblue" d="M519.52,-295C510.06,-295 500.67,-295 492.51,-295"/>
<polygon fill="midnightblue" stroke="midnightblue" points="519.77,-298.5 529.77,-295 519.77,-291.5 519.77,-298.5"/>
</g>
<!-- Node16 -->
<g id="node16" class="node">
<title>Node16</title>
<g id="a_node16"><a xlink:href="ex_8c.html#aa69f426ff9728078fbb36f448c624a90" target="_top" xlink:title=" ">
<polygon fill="white" stroke="black" points="438,-171.5 438,-190.5 494,-190.5 494,-171.5 438,-171.5"/>
<text text-anchor="middle" x="466" y="-178.5" font-family="Helvetica,sans-Serif" font-size="10.00">ec_make</text>
</a>
</g>
</g>
<!-- Node8&#45;&gt;Node16 -->
<g id="edge20" class="edge">
<title>Node8&#45;&gt;Node16</title>
<path fill="none" stroke="midnightblue" d="M559.6,-277.85C536.4,-253.58 494.75,-210.02 476.27,-190.69"/>
<polygon fill="midnightblue" stroke="midnightblue" points="557.27,-280.47 566.71,-285.28 562.33,-275.63 557.27,-280.47"/>
</g>
<!-- Node17 -->
<g id="node17" class="node">
<title>Node17</title>
<g id="a_node17"><a xlink:href="ex_8c.html#a87eef446de152fad41ce88a9a343b87d" target="_top" xlink:title=" ">
<polygon fill="white" stroke="black" points="442,-247.5 442,-266.5 490,-266.5 490,-247.5 442,-247.5"/>
<text text-anchor="middle" x="466" y="-254.5" font-family="Helvetica,sans-Serif" font-size="10.00">ec_quit</text>
</a>
</g>
</g>
<!-- Node8&#45;&gt;Node17 -->
<g id="edge21" class="edge">
<title>Node8&#45;&gt;Node17</title>
<path fill="none" stroke="midnightblue" d="M538.79,-282.03C522.63,-276.39 504.21,-269.97 490.07,-265.04"/>
<polygon fill="midnightblue" stroke="midnightblue" points="537.9,-285.42 548.49,-285.41 540.2,-278.81 537.9,-285.42"/>
</g>
<!-- Node10 -->
<g id="node10" class="node">
<title>Node10</title>
<g id="a_node10"><a xlink:href="ex_8c.html#a7d848d20211b2e1c868dde98ec5dfae9" target="_top" xlink:title=" ">
<polygon fill="white" stroke="black" points="355,-285.5 355,-304.5 402,-304.5 402,-285.5 355,-285.5"/>
<text text-anchor="middle" x="378.5" y="-292.5" font-family="Helvetica,sans-Serif" font-size="10.00">ex_line</text>
</a>
</g>
</g>
<!-- Node9&#45;&gt;Node10 -->
<g id="edge10" class="edge">
<title>Node9&#45;&gt;Node10</title>
<path fill="none" stroke="midnightblue" d="M429.29,-295C420.13,-295 410.53,-295 402.23,-295"/>
<polygon fill="midnightblue" stroke="midnightblue" points="429.35,-298.5 439.35,-295 429.35,-291.5 429.35,-298.5"/>
</g>
<!-- Node11 -->
<g id="node11" class="node">
<title>Node11</title>
<g id="a_node11"><a xlink:href="ex_8c.html#ab15ebfef933256d9741128e2ddf3f9b5" target="_top" xlink:title=" ">
<polygon fill="white" stroke="black" points="266,-323.5 266,-342.5 319,-342.5 319,-323.5 266,-323.5"/>
<text text-anchor="middle" x="292.5" y="-330.5" font-family="Helvetica,sans-Serif" font-size="10.00">ex_exec</text>
</a>
</g>
</g>
<!-- Node10&#45;&gt;Node11 -->
<g id="edge11" class="edge">
<title>Node10&#45;&gt;Node11</title>
<path fill="none" stroke="midnightblue" d="M346.88,-308.85C336.19,-313.69 324.44,-319 314.69,-323.41"/>
<polygon fill="midnightblue" stroke="midnightblue" points="348.63,-311.9 356.3,-304.59 345.75,-305.52 348.63,-311.9"/>
</g>
<!-- Node12 -->
<g id="node12" class="node">
<title>Node12</title>
<g id="a_node12"><a xlink:href="ex_8c.html#a70c571bdde329a65e216c19b4aeaa628" target="_top" xlink:title=" ">
<polygon fill="white" stroke="black" points="167.5,-285.5 167.5,-304.5 217.5,-304.5 217.5,-285.5 167.5,-285.5"/>
<text text-anchor="middle" x="192.5" y="-292.5" font-family="Helvetica,sans-Serif" font-size="10.00">ec_glob</text>
</a>
</g>
</g>
<!-- Node11&#45;&gt;Node12 -->
<g id="edge12" class="edge">
<title>Node11&#45;&gt;Node12</title>
<path fill="none" stroke="midnightblue" d="M257.14,-319.68C244.07,-314.61 229.46,-308.94 217.54,-304.32"/>
<polygon fill="midnightblue" stroke="midnightblue" points="256.18,-323.06 266.77,-323.41 258.71,-316.53 256.18,-323.06"/>
</g>
<!-- Node13 -->
<g id="node13" class="node">
<title>Node13</title>
<g id="a_node13"><a xlink:href="vi_8h.html#aa75c73cccb4878ec06ea5bf5b1b02295" target="_top" xlink:title=" ">
<polygon fill="white" stroke="black" points="155,-323.5 155,-342.5 230,-342.5 230,-323.5 155,-323.5"/>
<text text-anchor="middle" x="192.5" y="-330.5" font-family="Helvetica,sans-Serif" font-size="10.00">ex_command</text>
</a>
</g>
</g>
<!-- Node11&#45;&gt;Node13 -->
<g id="edge14" class="edge">
<title>Node11&#45;&gt;Node13</title>
<path fill="none" stroke="midnightblue" d="M255.61,-333C247.31,-333 238.46,-333 230.13,-333"/>
<polygon fill="midnightblue" stroke="midnightblue" points="255.75,-336.5 265.75,-333 255.75,-329.5 255.75,-336.5"/>
</g>
<!-- Node12&#45;&gt;Node10 -->
<g id="edge13" class="edge">
<title>Node12&#45;&gt;Node10</title>
<path fill="none" stroke="midnightblue" d="M228.06,-295C265.22,-295 323.23,-295 354.94,-295"/>
<polygon fill="midnightblue" stroke="midnightblue" points="227.71,-291.5 217.71,-295 227.71,-298.5 227.71,-291.5"/>
</g>
<!-- Node13&#45;&gt;Node3 -->
<g id="edge17" class="edge">
<title>Node13&#45;&gt;Node3</title>
<path fill="none" stroke="midnightblue" d="M158.25,-346.44C145.31,-351.67 130.85,-357.52 119.28,-362.2"/>
<polygon fill="midnightblue" stroke="midnightblue" points="159.82,-349.58 167.78,-342.59 157.2,-343.09 159.82,-349.58"/>
</g>
<!-- Node14 -->
<g id="node14" class="node">
<title>Node14</title>
<g id="a_node14"><a xlink:href="vi_8h.html#ac395e51f25330a6e6033b6d0d22b2076" target="_top" xlink:title=" ">
<polygon fill="white" stroke="black" points="82,-323.5 82,-342.5 111,-342.5 111,-323.5 82,-323.5"/>
<text text-anchor="middle" x="96.5" y="-330.5" font-family="Helvetica,sans-Serif" font-size="10.00">ex</text>
</a>
</g>
</g>
<!-- Node13&#45;&gt;Node14 -->
<g id="edge15" class="edge">
<title>Node13&#45;&gt;Node14</title>
<path fill="none" stroke="midnightblue" d="M144.73,-333C132.54,-333 120.33,-333 111.38,-333"/>
<polygon fill="midnightblue" stroke="midnightblue" points="144.89,-336.5 154.89,-333 144.89,-329.5 144.89,-336.5"/>
</g>
<!-- Node15 -->
<g id="node15" class="node">
<title>Node15</title>
<g id="a_node15"><a xlink:href="vi_8c.html#a8d808e0f3453afe6600673ee1ea5f828" target="_top" xlink:title=" ">
<polygon fill="white" stroke="black" points="82,-285.5 82,-304.5 111,-304.5 111,-285.5 82,-285.5"/>
<text text-anchor="middle" x="96.5" y="-292.5" font-family="Helvetica,sans-Serif" font-size="10.00">vi</text>
</a>
</g>
</g>
<!-- Node13&#45;&gt;Node15 -->
<g id="edge18" class="edge">
<title>Node13&#45;&gt;Node15</title>
<path fill="none" stroke="midnightblue" d="M158.07,-319.48C141.85,-312.93 123.28,-305.42 111.02,-300.47"/>
<polygon fill="midnightblue" stroke="midnightblue" points="157.2,-322.91 167.78,-323.41 159.82,-316.42 157.2,-322.91"/>
</g>
<!-- Node14&#45;&gt;Node4 -->
<g id="edge16" class="edge">
<title>Node14&#45;&gt;Node4</title>
<path fill="none" stroke="midnightblue" d="M71.55,-333C60.69,-333 48.07,-333 38.04,-333"/>
<polygon fill="midnightblue" stroke="midnightblue" points="71.65,-336.5 81.65,-333 71.65,-329.5 71.65,-336.5"/>
</g>
<!-- Node15&#45;&gt;Node4 -->
<g id="edge19" class="edge">
<title>Node15&#45;&gt;Node4</title>
<path fill="none" stroke="midnightblue" d="M72.56,-306.55C61.48,-312.12 48.39,-318.71 38.04,-323.92"/>
<polygon fill="midnightblue" stroke="midnightblue" points="74.29,-309.59 81.65,-301.97 71.15,-303.34 74.29,-309.59"/>
</g>
<!-- Node17&#45;&gt;Node7 -->
<g id="edge22" class="edge">
<title>Node17&#45;&gt;Node7</title>
<path fill="none" stroke="midnightblue" d="M500.39,-257C544.55,-257 621.44,-257 661.33,-257"/>
<polygon fill="midnightblue" stroke="midnightblue" points="500.17,-253.5 490.17,-257 500.17,-260.5 500.17,-253.5"/>
</g>
<!-- Node18&#45;&gt;Node2 -->
<g id="edge24" class="edge">
<title>Node18&#45;&gt;Node2</title>
<path fill="none" stroke="midnightblue" d="M741.73,-342.19C733.29,-343.97 724.37,-345.69 716,-347 633.4,-359.9 534.23,-366.97 490.11,-369.68"/>
<polygon fill="midnightblue" stroke="midnightblue" points="742.72,-345.56 751.74,-340 741.22,-338.72 742.72,-345.56"/>
</g>
<!-- Node18&#45;&gt;Node5 -->
<g id="edge27" class="edge">
<title>Node18&#45;&gt;Node5</title>
<path fill="none" stroke="midnightblue" d="M761.14,-349.08C742.75,-364.35 715.71,-386.82 700.49,-399.45"/>
<polygon fill="midnightblue" stroke="midnightblue" points="763.46,-351.71 768.91,-342.63 758.98,-346.32 763.46,-351.71"/>
</g>
<!-- Node18&#45;&gt;Node7 -->
<g id="edge28" class="edge">
<title>Node18&#45;&gt;Node7</title>
<path fill="none" stroke="midnightblue" d="M761.14,-316.92C742.75,-301.65 715.71,-279.18 700.49,-266.55"/>
<polygon fill="midnightblue" stroke="midnightblue" points="758.98,-319.68 768.91,-323.37 763.46,-314.29 758.98,-319.68"/>
</g>
<!-- Node18&#45;&gt;Node9 -->
<g id="edge25" class="edge">
<title>Node18&#45;&gt;Node9</title>
<path fill="none" stroke="midnightblue" d="M741.41,-332.65C691.84,-331.61 603.9,-327.78 530,-314 517.53,-311.68 504.03,-307.8 492.74,-304.14"/>
<polygon fill="midnightblue" stroke="midnightblue" points="741.62,-336.16 751.69,-332.84 741.75,-329.16 741.62,-336.16"/>
</g>
<!-- Node18&#45;&gt;Node16 -->
<g id="edge26" class="edge">
<title>Node18&#45;&gt;Node16</title>
<path fill="none" stroke="midnightblue" d="M750.88,-319.15C726.45,-307.68 690.91,-290.92 660,-276 596.09,-245.16 520.74,-207.77 486.13,-190.54"/>
<polygon fill="midnightblue" stroke="midnightblue" points="749.45,-322.34 759.99,-323.41 752.42,-316 749.45,-322.34"/>
</g>
<!-- Node19&#45;&gt;Node7 -->
<g id="edge38" class="edge">
<title>Node19&#45;&gt;Node7</title>
<path fill="none" stroke="midnightblue" d="M765.31,-179.76C752.54,-194.42 733.62,-215.57 716,-233 711.01,-237.94 705.21,-243.15 700.28,-247.45"/>
<polygon fill="midnightblue" stroke="midnightblue" points="768.16,-181.81 772.05,-171.95 762.87,-177.23 768.16,-181.81"/>
</g>
<!-- Node19&#45;&gt;Node9 -->
<g id="edge32" class="edge">
<title>Node19&#45;&gt;Node9</title>
<path fill="none" stroke="midnightblue" d="M748.45,-175.6C685,-202.51 544.76,-262.01 489.76,-285.34"/>
<polygon fill="midnightblue" stroke="midnightblue" points="750.11,-178.69 757.95,-171.57 747.38,-172.25 750.11,-178.69"/>
</g>
<!-- Node19&#45;&gt;Node16 -->
<g id="edge35" class="edge">
<title>Node19&#45;&gt;Node16</title>
<path fill="none" stroke="midnightblue" d="M745.58,-160.52C697.04,-158.95 606.49,-157.83 530,-167 518.1,-168.43 505.14,-171.11 494.09,-173.74"/>
<polygon fill="midnightblue" stroke="midnightblue" points="745.74,-164.03 755.85,-160.88 745.98,-157.03 745.74,-164.03"/>
</g>
<!-- Node20 -->
<g id="node20" class="node">
<title>Node20</title>
<g id="a_node20"><a xlink:href="ex_8c.html#a86b4adba0c96621f01383b9bacba4a01" target="_top" xlink:title=" ">
<polygon fill="white" stroke="black" points="660,-38.5 660,-57.5 716,-57.5 716,-38.5 660,-38.5"/>
<text text-anchor="middle" x="688" y="-45.5" font-family="Helvetica,sans-Serif" font-size="10.00">ec_cmap</text>
</a>
</g>
</g>
<!-- Node19&#45;&gt;Node20 -->
<g id="edge31" class="edge">
<title>Node19&#45;&gt;Node20</title>
<path fill="none" stroke="midnightblue" d="M754.73,-145.87C753.77,-144.94 752.85,-143.99 752,-143 727.56,-114.72 740.08,-95.59 716,-67 713.05,-63.49 709.3,-60.32 705.55,-57.62"/>
<polygon fill="midnightblue" stroke="midnightblue" points="752.74,-148.76 762.72,-152.31 757.13,-143.31 752.74,-148.76"/>
</g>
<!-- Node21 -->
<g id="node21" class="node">
<title>Node21</title>
<g id="a_node21"><a xlink:href="ex_8c.html#a96a40531d1096a618d29639f2e42710b" target="_top" xlink:title=" ">
<polygon fill="white" stroke="black" points="669,-0.5 669,-19.5 707,-19.5 707,-0.5 669,-0.5"/>
<text text-anchor="middle" x="688" y="-7.5" font-family="Helvetica,sans-Serif" font-size="10.00">ec_ft</text>
</a>
</g>
</g>
<!-- Node19&#45;&gt;Node21 -->
<g id="edge33" class="edge">
<title>Node19&#45;&gt;Node21</title>
<path fill="none" stroke="midnightblue" d="M754.19,-145.62C753.41,-144.78 752.68,-143.9 752,-143 720.08,-100.52 747.38,-71.88 716,-29 713.36,-25.39 709.82,-22.22 706.18,-19.55"/>
<polygon fill="midnightblue" stroke="midnightblue" points="752.2,-148.53 762.07,-152.39 756.77,-143.22 752.2,-148.53"/>
</g>
<!-- Node22 -->
<g id="node22" class="node">
<title>Node22</title>
<g id="a_node22"><a xlink:href="ex_8c.html#a1d45a70b724f4cccae2ab746c711ebb1" target="_top" xlink:title=" ">
<polygon fill="white" stroke="black" points="661.5,-114.5 661.5,-133.5 714.5,-133.5 714.5,-114.5 661.5,-114.5"/>
<text text-anchor="middle" x="688" y="-121.5" font-family="Helvetica,sans-Serif" font-size="10.00">ec_lnum</text>
</a>
</g>
</g>
<!-- Node19&#45;&gt;Node22 -->
<g id="edge34" class="edge">
<title>Node19&#45;&gt;Node22</title>
<path fill="none" stroke="midnightblue" d="M747.85,-148.44C736.02,-143.53 722.92,-138.09 712.08,-133.59"/>
<polygon fill="midnightblue" stroke="midnightblue" points="746.83,-151.81 757.41,-152.41 749.52,-145.34 746.83,-151.81"/>
</g>
<!-- Node23 -->
<g id="node23" class="node">
<title>Node23</title>
<g id="a_node23"><a xlink:href="ex_8c.html#ad2c1a9505aa3097bac242b47a367f11d" target="_top" xlink:title=" ">
<polygon fill="white" stroke="black" points="662.5,-76.5 662.5,-95.5 713.5,-95.5 713.5,-76.5 662.5,-76.5"/>
<text text-anchor="middle" x="688" y="-83.5" font-family="Helvetica,sans-Serif" font-size="10.00">ec_print</text>
</a>
</g>
</g>
<!-- Node19&#45;&gt;Node23 -->
<g id="edge36" class="edge">
<title>Node19&#45;&gt;Node23</title>
<path fill="none" stroke="midnightblue" d="M756.21,-146.36C754.76,-145.26 753.34,-144.13 752,-143 734.21,-128.01 733.6,-120.21 716,-105 712.18,-101.7 707.8,-98.43 703.69,-95.55"/>
<polygon fill="midnightblue" stroke="midnightblue" points="754.48,-149.43 764.66,-152.35 758.53,-143.71 754.48,-149.43"/>
</g>
<!-- Node24 -->
<g id="node24" class="node">
<title>Node24</title>
<g id="a_node24"><a xlink:href="ex_8c.html#affb8197a8f988443aadf1bf2800a0d0b" target="_top" xlink:title=" ">
<polygon fill="white" stroke="black" points="553.5,-76.5 553.5,-95.5 600.5,-95.5 600.5,-76.5 553.5,-76.5"/>
<text text-anchor="middle" x="577" y="-83.5" font-family="Helvetica,sans-Serif" font-size="10.00">ec_null</text>
</a>
</g>
</g>
<!-- Node23&#45;&gt;Node24 -->
<g id="edge37" class="edge">
<title>Node23&#45;&gt;Node24</title>
<path fill="none" stroke="midnightblue" d="M652.23,-86C635.4,-86 615.67,-86 600.78,-86"/>
<polygon fill="midnightblue" stroke="midnightblue" points="652.27,-89.5 662.27,-86 652.27,-82.5 652.27,-89.5"/>
</g>
</g>
</svg>
        <g id="navigator" transform="translate(0 0)" fill="#404254">
                <rect fill="#f2f5e9" fill-opacity="0.5" stroke="#606060" stroke-width=".5" x="0" y="0" width="60" height="60"/>
                <use id="zoomplus" xlink:href="#zoomPlus" x="17" y="9" onmousedown="handleZoom(evt,'in')"/>
                <use id="zoomminus" xlink:href="#zoomMin" x="42" y="9" onmousedown="handleZoom(evt,'out')"/>
                <use id="reset" xlink:href="#resetDef" x="30" y="36" onmousedown="handleReset()"/>
                <g id="arrowUp" xlink:href="#dirArrow" transform="translate(30 24)" onmousedown="handlePan(0,-1)">
                  <use xlink:href="#rim" fill="#404040">
                        <set attributeName="fill" to="#808080" begin="arrowUp.mouseover" end="arrowUp.mouseout"/>
                  </use>
                  <path fill="none" stroke="white" stroke-width="1.5" d="M0,-3.0v7 M-2.5,-0.5L0,-3.0L2.5,-0.5"/>
                </g>
                <g id="arrowRight" xlink:href="#dirArrow" transform="rotate(90) translate(36 -43)" onmousedown="handlePan(1,0)">
                  <use xlink:href="#rim" fill="#404040">
                        <set attributeName="fill" to="#808080" begin="arrowRight.mouseover" end="arrowRight.mouseout"/>
                  </use>
                  <path fill="none" stroke="white" stroke-width="1.5" d="M0,-3.0v7 M-2.5,-0.5L0,-3.0L2.5,-0.5"/>
                </g>
                <g id="arrowDown" xlink:href="#dirArrow" transform="rotate(180) translate(-30 -48)" onmousedown="handlePan(0,1)">
                  <use xlink:href="#rim" fill="#404040">
                        <set attributeName="fill" to="#808080" begin="arrowDown.mouseover" end="arrowDown.mouseout"/>
                  </use>
                  <path fill="none" stroke="white" stroke-width="1.5" d="M0,-3.0v7 M-2.5,-0.5L0,-3.0L2.5,-0.5"/>
                </g>
                <g id="arrowLeft" xlink:href="#dirArrow" transform="rotate(270) translate(-36 17)" onmousedown="handlePan(-1,0)">
                  <use xlink:href="#rim" fill="#404040">
                        <set attributeName="fill" to="#808080" begin="arrowLeft.mouseover" end="arrowLeft.mouseout"/>
                  </use>
                  <path fill="none" stroke="white" stroke-width="1.5" d="M0,-3.0v7 M-2.5,-0.5L0,-3.0L2.5,-0.5"/>
                </g>
        </g>
        <svg viewBox="0 0 15 15" width="100%" height="30px" preserveAspectRatio="xMaxYMin meet">
         <g id="arrow_out" transform="scale(0.3 0.3)">
          <a xlink:href="vi_8h_ad27b2fbb84601eb4c5af3b1f28feac75_icgraph_org.svg" target="_base">
           <rect id="button" ry="5" rx="5" y="6" x="6" height="38" width="38"
                fill="#f2f5e9" fill-opacity="0.5" stroke="#606060" stroke-width="1.0"/>
           <path id="arrow"
             d="M 11.500037,31.436501 C 11.940474,20.09759 22.043105,11.32322 32.158766,21.979434 L 37.068811,17.246167 C 37.068811,17.246167 37.088388,32 37.088388,32 L 22.160133,31.978069 C 22.160133,31.978069 26.997745,27.140456 26.997745,27.140456 C 18.528582,18.264221 13.291696,25.230495 11.500037,31.436501 z"
             style="fill:#404040;"/>
          </a>
         </g>
        </svg>
</svg>
