<?xml version="1.0" encoding="UTF-8" standalone="no"?>
<!DOCTYPE svg PUBLIC "-//W3C//DTD SVG 1.1//EN"
 "http://www.w3.org/Graphics/SVG/1.1/DTD/svg11.dtd">
<!-- Generated by graphviz version 2.44.1 (20200629.0846)
 -->
<!-- Title: ex_path Pages: 1 -->
<!--zoomable 212 -->
<svg id="main" version="1.1" xmlns="http://www.w3.org/2000/svg" xmlns:xlink="http://www.w3.org/1999/xlink" xml:space="preserve" onload="init(evt)">
<style type="text/css"><![CDATA[
.edge:hover path { stroke: red; }
.edge:hover polygon { stroke: red; fill: red; }
]]></style>
<script type="text/javascript"><![CDATA[
var edges = document.getElementsByTagName('g');
if (edges && edges.length) {
  for (var i=0;i<edges.length;i++) {
    if (edges[i].id.substr(0,4)=='edge') {
      edges[i].setAttribute('class','edge');
    }
  }
}
]]></script>
        <defs>
                <circle id="rim" cx="0" cy="0" r="7"/>
                <circle id="rim2" cx="0" cy="0" r="3.5"/>
                <g id="zoomPlus">
                        <use xlink:href="#rim" fill="#404040">
                                <set attributeName="fill" to="#808080" begin="zoomplus.mouseover" end="zoomplus.mouseout"/>
                        </use>
                        <path d="M-4,0h8M0,-4v8" fill="none" stroke="white" stroke-width="1.5" pointer-events="none"/>
                </g>
                <g id="zoomMin">
                        <use xlink:href="#rim" fill="#404040">
                                <set attributeName="fill" to="#808080" begin="zoomminus.mouseover" end="zoomminus.mouseout"/>
                        </use>
                        <path d="M-4,0h8" fill="none" stroke="white" stroke-width="1.5" pointer-events="none"/>
                </g>
                <g id="dirArrow">
                        <path fill="none" stroke="white" stroke-width="1.5" d="M0,-3.0v7 M-2.5,-0.5L0,-3.0L2.5,-0.5"/>
                </g>
               <g id="resetDef">
                       <use xlink:href="#rim2" fill="#404040">
                               <set attributeName="fill" to="#808080" begin="reset.mouseover" end="reset.mouseout"/>
                       </use>
               </g>
        </defs>

<script type="text/javascript">
var viewWidth = 845;
var viewHeight = 212;
var sectionId = 'dynsection-179';
</script>
<script xlink:href="svgpan.js"/>
<svg id="graph" class="graph">
<g id="viewport">
<title>ex_path</title>
<polygon fill="white" stroke="transparent" points="-4,4 -4,-208.49 841,-208.49 841,4 -4,4"/>
<!-- Node1 -->
<g id="node1" class="node">
<title>Node1</title>
<g id="a_node1"><a xlink:title=" ">
<polygon fill="#bfbfbf" stroke="black" points="786,-86.5 786,-105.5 837,-105.5 837,-86.5 786,-86.5"/>
<text text-anchor="middle" x="811.5" y="-93.5" font-family="Helvetica,sans-Serif" font-size="10.00">ex_path</text>
</a>
</g>
</g>
<!-- Node2 -->
<g id="node2" class="node">
<title>Node2</title>
<g id="a_node2"><a xlink:href="ex_8c.html#a8059390ad69866fa8e14bdb2521d4dc2" target="_top" xlink:title=" ">
<polygon fill="white" stroke="black" points="442,-181.5 442,-200.5 490,-200.5 490,-181.5 442,-181.5"/>
<text text-anchor="middle" x="466" y="-188.5" font-family="Helvetica,sans-Serif" font-size="10.00">ec_edit</text>
</a>
</g>
</g>
<!-- Node1&#45;&gt;Node2 -->
<g id="edge1" class="edge">
<title>Node1&#45;&gt;Node2</title>
<path fill="none" stroke="midnightblue" d="M801.5,-114.66C791.63,-132.81 773.95,-159.45 750,-172 663.42,-217.38 540.96,-203.81 490.31,-195.42"/>
<polygon fill="midnightblue" stroke="midnightblue" points="804.7,-116.08 806.17,-105.58 798.48,-112.87 804.7,-116.08"/>
</g>
<!-- Node5 -->
<g id="node5" class="node">
<title>Node5</title>
<g id="a_node5"><a xlink:href="ex_8c.html#add0e79e1f1e3d45f4eaa6fbe5c1ca443" target="_top" xlink:title=" ">
<polygon fill="white" stroke="black" points="679.5,-143.5 679.5,-162.5 730.5,-162.5 730.5,-143.5 679.5,-143.5"/>
<text text-anchor="middle" x="705" y="-150.5" font-family="Helvetica,sans-Serif" font-size="10.00">ec_read</text>
</a>
</g>
</g>
<!-- Node1&#45;&gt;Node5 -->
<g id="edge4" class="edge">
<title>Node1&#45;&gt;Node5</title>
<path fill="none" stroke="midnightblue" d="M783.74,-110.59C764.79,-120.93 739.91,-134.5 723.47,-143.47"/>
<polygon fill="midnightblue" stroke="midnightblue" points="785.67,-113.53 792.77,-105.67 782.32,-107.39 785.67,-113.53"/>
</g>
<!-- Node6 -->
<g id="node6" class="node">
<title>Node6</title>
<g id="a_node6"><a xlink:href="ex_8c.html#a057b67e2d4f23df3ad50a9d3ec86125b" target="_top" xlink:title=" ">
<polygon fill="white" stroke="black" points="678.5,-67.5 678.5,-86.5 731.5,-86.5 731.5,-67.5 678.5,-67.5"/>
<text text-anchor="middle" x="705" y="-74.5" font-family="Helvetica,sans-Serif" font-size="10.00">ec_write</text>
</a>
</g>
</g>
<!-- Node1&#45;&gt;Node6 -->
<g id="edge5" class="edge">
<title>Node1&#45;&gt;Node6</title>
<path fill="none" stroke="midnightblue" d="M775.95,-89.72C761.55,-87.1 745.12,-84.11 731.81,-81.69"/>
<polygon fill="midnightblue" stroke="midnightblue" points="775.53,-93.2 786,-91.55 776.79,-86.31 775.53,-93.2"/>
</g>
<!-- Node7 -->
<g id="node7" class="node">
<title>Node7</title>
<g id="a_node7"><a xlink:href="ex_8c.html#ab0cb848a971a3b2c09fcb456d887dd6b" target="_top" xlink:title=" ">
<polygon fill="white" stroke="black" points="530,-105.5 530,-124.5 624,-124.5 624,-105.5 530,-105.5"/>
<text text-anchor="middle" x="577" y="-112.5" font-family="Helvetica,sans-Serif" font-size="10.00">ex_modifiedbuffer</text>
</a>
</g>
</g>
<!-- Node1&#45;&gt;Node7 -->
<g id="edge23" class="edge">
<title>Node1&#45;&gt;Node7</title>
<path fill="none" stroke="midnightblue" d="M775.47,-98.86C735.16,-102.16 668.82,-107.58 624.28,-111.22"/>
<polygon fill="midnightblue" stroke="midnightblue" points="775.94,-102.34 785.62,-98.03 775.37,-95.36 775.94,-102.34"/>
</g>
<!-- Node17 -->
<g id="node17" class="node">
<title>Node17</title>
<g id="a_node17"><a xlink:href="ex_8c.html#a2446caa3d19e3467ba6999396de39109" target="_top" xlink:title=" ">
<polygon fill="white" stroke="black" points="660,-29.5 660,-48.5 750,-48.5 750,-29.5 660,-29.5"/>
<text text-anchor="middle" x="705" y="-36.5" font-family="Helvetica,sans-Serif" font-size="10.00">ec_write_archive</text>
</a>
</g>
</g>
<!-- Node1&#45;&gt;Node17 -->
<g id="edge22" class="edge">
<title>Node1&#45;&gt;Node17</title>
<path fill="none" stroke="midnightblue" d="M787.77,-80.57C776.63,-73.3 762.86,-64.77 750,-58 743.67,-54.67 736.62,-51.43 730.06,-48.6"/>
<polygon fill="midnightblue" stroke="midnightblue" points="786.17,-83.7 796.44,-86.31 790.03,-77.87 786.17,-83.7"/>
</g>
<!-- Node18 -->
<g id="node18" class="node">
<title>Node18</title>
<g id="a_node18"><a xlink:href="vi_8c.html#ab7d24df5f19f55dae6f719cd5bcfbe6f" target="_top" xlink:title=" ">
<polygon fill="white" stroke="black" points="547.5,-0.5 547.5,-19.5 606.5,-19.5 606.5,-0.5 547.5,-0.5"/>
<text text-anchor="middle" x="577" y="-7.5" font-family="Helvetica,sans-Serif" font-size="10.00">vc_status</text>
</a>
</g>
</g>
<!-- Node1&#45;&gt;Node18 -->
<g id="edge24" class="edge">
<title>Node1&#45;&gt;Node18</title>
<path fill="none" stroke="midnightblue" d="M801.52,-77.3C791.67,-59.11 774,-32.44 750,-20 704.33,3.68 642.38,0.05 606.65,-4.88"/>
<polygon fill="midnightblue" stroke="midnightblue" points="798.51,-79.09 806.18,-86.39 804.73,-75.9 798.51,-79.09"/>
</g>
<!-- Node3 -->
<g id="node3" class="node">
<title>Node3</title>
<g id="a_node3"><a xlink:href="vi_8h.html#abe53b5c10f94f20cd5ed024371615fa1" target="_top" xlink:title=" ">
<polygon fill="white" stroke="black" points="74,-143.5 74,-162.5 119,-162.5 119,-143.5 74,-143.5"/>
<text text-anchor="middle" x="96.5" y="-150.5" font-family="Helvetica,sans-Serif" font-size="10.00">ex_init</text>
</a>
</g>
</g>
<!-- Node2&#45;&gt;Node3 -->
<g id="edge2" class="edge">
<title>Node2&#45;&gt;Node3</title>
<path fill="none" stroke="midnightblue" d="M431.54,-191.75C374.32,-192.42 254.24,-191.1 155,-172 142.92,-169.67 129.87,-165.51 119.26,-161.67"/>
<polygon fill="midnightblue" stroke="midnightblue" points="431.85,-195.25 441.8,-191.6 431.75,-188.25 431.85,-195.25"/>
</g>
<!-- Node4 -->
<g id="node4" class="node">
<title>Node4</title>
<g id="a_node4"><a xlink:href="vi_8c.html#a0ddf1224851353fc92bfbff6f499fa97" target="_top" xlink:title=" ">
<polygon fill="white" stroke="black" points="0,-105.5 0,-124.5 38,-124.5 38,-105.5 0,-105.5"/>
<text text-anchor="middle" x="19" y="-112.5" font-family="Helvetica,sans-Serif" font-size="10.00">main</text>
</a>
</g>
</g>
<!-- Node3&#45;&gt;Node4 -->
<g id="edge3" class="edge">
<title>Node3&#45;&gt;Node4</title>
<path fill="none" stroke="midnightblue" d="M67.4,-138.86C57.57,-133.91 46.79,-128.49 38.01,-124.06"/>
<polygon fill="midnightblue" stroke="midnightblue" points="65.94,-142.04 76.45,-143.41 69.09,-135.79 65.94,-142.04"/>
</g>
<!-- Node6&#45;&gt;Node7 -->
<g id="edge6" class="edge">
<title>Node6&#45;&gt;Node7</title>
<path fill="none" stroke="midnightblue" d="M668.37,-87.74C649.87,-93.33 627.45,-100.09 609.57,-105.48"/>
<polygon fill="midnightblue" stroke="midnightblue" points="669.63,-91.02 678.2,-84.78 667.61,-84.32 669.63,-91.02"/>
</g>
<!-- Node7&#45;&gt;Node2 -->
<g id="edge7" class="edge">
<title>Node7&#45;&gt;Node2</title>
<path fill="none" stroke="midnightblue" d="M553.82,-130.46C531.9,-145.75 499.06,-168.64 480.69,-181.45"/>
<polygon fill="midnightblue" stroke="midnightblue" points="555.99,-133.22 562.2,-124.63 551.99,-127.47 555.99,-133.22"/>
</g>
<!-- Node8 -->
<g id="node8" class="node">
<title>Node8</title>
<g id="a_node8"><a xlink:href="ex_8c.html#adcd83f163f659bd2596bcfc25d74bde9" target="_top" xlink:title=" ">
<polygon fill="white" stroke="black" points="439.5,-143.5 439.5,-162.5 492.5,-162.5 492.5,-143.5 439.5,-143.5"/>
<text text-anchor="middle" x="466" y="-150.5" font-family="Helvetica,sans-Serif" font-size="10.00">ec_exec</text>
</a>
</g>
</g>
<!-- Node7&#45;&gt;Node8 -->
<g id="edge8" class="edge">
<title>Node7&#45;&gt;Node8</title>
<path fill="none" stroke="midnightblue" d="M538.84,-127.95C523.63,-133.26 506.4,-139.27 492.62,-144.07"/>
<polygon fill="midnightblue" stroke="midnightblue" points="540.2,-131.19 548.49,-124.59 537.9,-124.58 540.2,-131.19"/>
</g>
<!-- Node15 -->
<g id="node15" class="node">
<title>Node15</title>
<g id="a_node15"><a xlink:href="ex_8c.html#aa69f426ff9728078fbb36f448c624a90" target="_top" xlink:title=" ">
<polygon fill="white" stroke="black" points="438,-105.5 438,-124.5 494,-124.5 494,-105.5 438,-105.5"/>
<text text-anchor="middle" x="466" y="-112.5" font-family="Helvetica,sans-Serif" font-size="10.00">ec_make</text>
</a>
</g>
</g>
<!-- Node7&#45;&gt;Node15 -->
<g id="edge19" class="edge">
<title>Node7&#45;&gt;Node15</title>
<path fill="none" stroke="midnightblue" d="M519.7,-115C510.76,-115 501.89,-115 494.04,-115"/>
<polygon fill="midnightblue" stroke="midnightblue" points="519.77,-118.5 529.77,-115 519.77,-111.5 519.77,-118.5"/>
</g>
<!-- Node16 -->
<g id="node16" class="node">
<title>Node16</title>
<g id="a_node16"><a xlink:href="ex_8c.html#a87eef446de152fad41ce88a9a343b87d" target="_top" xlink:title=" ">
<polygon fill="white" stroke="black" points="442,-67.5 442,-86.5 490,-86.5 490,-67.5 442,-67.5"/>
<text text-anchor="middle" x="466" y="-74.5" font-family="Helvetica,sans-Serif" font-size="10.00">ec_quit</text>
</a>
</g>
</g>
<!-- Node7&#45;&gt;Node16 -->
<g id="edge20" class="edge">
<title>Node7&#45;&gt;Node16</title>
<path fill="none" stroke="midnightblue" d="M538.79,-102.03C522.63,-96.39 504.21,-89.97 490.07,-85.04"/>
<polygon fill="midnightblue" stroke="midnightblue" points="537.9,-105.42 548.49,-105.41 540.2,-98.81 537.9,-105.42"/>
</g>
<!-- Node9 -->
<g id="node9" class="node">
<title>Node9</title>
<g id="a_node9"><a xlink:href="ex_8c.html#a7d848d20211b2e1c868dde98ec5dfae9" target="_top" xlink:title=" ">
<polygon fill="white" stroke="black" points="355,-143.5 355,-162.5 402,-162.5 402,-143.5 355,-143.5"/>
<text text-anchor="middle" x="378.5" y="-150.5" font-family="Helvetica,sans-Serif" font-size="10.00">ex_line</text>
</a>
</g>
</g>
<!-- Node8&#45;&gt;Node9 -->
<g id="edge9" class="edge">
<title>Node8&#45;&gt;Node9</title>
<path fill="none" stroke="midnightblue" d="M429.29,-153C420.13,-153 410.53,-153 402.23,-153"/>
<polygon fill="midnightblue" stroke="midnightblue" points="429.35,-156.5 439.35,-153 429.35,-149.5 429.35,-156.5"/>
</g>
<!-- Node10 -->
<g id="node10" class="node">
<title>Node10</title>
<g id="a_node10"><a xlink:href="ex_8c.html#ab15ebfef933256d9741128e2ddf3f9b5" target="_top" xlink:title=" ">
<polygon fill="white" stroke="black" points="266,-105.5 266,-124.5 319,-124.5 319,-105.5 266,-105.5"/>
<text text-anchor="middle" x="292.5" y="-112.5" font-family="Helvetica,sans-Serif" font-size="10.00">ex_exec</text>
</a>
</g>
</g>
<!-- Node9&#45;&gt;Node10 -->
<g id="edge10" class="edge">
<title>Node9&#45;&gt;Node10</title>
<path fill="none" stroke="midnightblue" d="M346.88,-139.15C336.19,-134.31 324.44,-129 314.69,-124.59"/>
<polygon fill="midnightblue" stroke="midnightblue" points="345.75,-142.48 356.3,-143.41 348.63,-136.1 345.75,-142.48"/>
</g>
<!-- Node11 -->
<g id="node11" class="node">
<title>Node11</title>
<g id="a_node11"><a xlink:href="ex_8c.html#a70c571bdde329a65e216c19b4aeaa628" target="_top" xlink:title=" ">
<polygon fill="white" stroke="black" points="167.5,-143.5 167.5,-162.5 217.5,-162.5 217.5,-143.5 167.5,-143.5"/>
<text text-anchor="middle" x="192.5" y="-150.5" font-family="Helvetica,sans-Serif" font-size="10.00">ec_glob</text>
</a>
</g>
</g>
<!-- Node10&#45;&gt;Node11 -->
<g id="edge11" class="edge">
<title>Node10&#45;&gt;Node11</title>
<path fill="none" stroke="midnightblue" d="M257.14,-128.32C244.07,-133.39 229.46,-139.06 217.54,-143.68"/>
<polygon fill="midnightblue" stroke="midnightblue" points="258.71,-131.47 266.77,-124.59 256.18,-124.94 258.71,-131.47"/>
</g>
<!-- Node12 -->
<g id="node12" class="node">
<title>Node12</title>
<g id="a_node12"><a xlink:href="vi_8h.html#aa75c73cccb4878ec06ea5bf5b1b02295" target="_top" xlink:title=" ">
<polygon fill="white" stroke="black" points="155,-105.5 155,-124.5 230,-124.5 230,-105.5 155,-105.5"/>
<text text-anchor="middle" x="192.5" y="-112.5" font-family="Helvetica,sans-Serif" font-size="10.00">ex_command</text>
</a>
</g>
</g>
<!-- Node10&#45;&gt;Node12 -->
<g id="edge13" class="edge">
<title>Node10&#45;&gt;Node12</title>
<path fill="none" stroke="midnightblue" d="M255.61,-115C247.31,-115 238.46,-115 230.13,-115"/>
<polygon fill="midnightblue" stroke="midnightblue" points="255.75,-118.5 265.75,-115 255.75,-111.5 255.75,-118.5"/>
</g>
<!-- Node11&#45;&gt;Node9 -->
<g id="edge12" class="edge">
<title>Node11&#45;&gt;Node9</title>
<path fill="none" stroke="midnightblue" d="M228.06,-153C265.22,-153 323.23,-153 354.94,-153"/>
<polygon fill="midnightblue" stroke="midnightblue" points="227.71,-149.5 217.71,-153 227.71,-156.5 227.71,-149.5"/>
</g>
<!-- Node12&#45;&gt;Node3 -->
<g id="edge16" class="edge">
<title>Node12&#45;&gt;Node3</title>
<path fill="none" stroke="midnightblue" d="M158.25,-128.44C145.31,-133.67 130.85,-139.52 119.28,-144.2"/>
<polygon fill="midnightblue" stroke="midnightblue" points="159.82,-131.58 167.78,-124.59 157.2,-125.09 159.82,-131.58"/>
</g>
<!-- Node13 -->
<g id="node13" class="node">
<title>Node13</title>
<g id="a_node13"><a xlink:href="vi_8h.html#ac395e51f25330a6e6033b6d0d22b2076" target="_top" xlink:title=" ">
<polygon fill="white" stroke="black" points="82,-105.5 82,-124.5 111,-124.5 111,-105.5 82,-105.5"/>
<text text-anchor="middle" x="96.5" y="-112.5" font-family="Helvetica,sans-Serif" font-size="10.00">ex</text>
</a>
</g>
</g>
<!-- Node12&#45;&gt;Node13 -->
<g id="edge14" class="edge">
<title>Node12&#45;&gt;Node13</title>
<path fill="none" stroke="midnightblue" d="M144.73,-115C132.54,-115 120.33,-115 111.38,-115"/>
<polygon fill="midnightblue" stroke="midnightblue" points="144.89,-118.5 154.89,-115 144.89,-111.5 144.89,-118.5"/>
</g>
<!-- Node14 -->
<g id="node14" class="node">
<title>Node14</title>
<g id="a_node14"><a xlink:href="vi_8c.html#a8d808e0f3453afe6600673ee1ea5f828" target="_top" xlink:title=" ">
<polygon fill="white" stroke="black" points="82,-67.5 82,-86.5 111,-86.5 111,-67.5 82,-67.5"/>
<text text-anchor="middle" x="96.5" y="-74.5" font-family="Helvetica,sans-Serif" font-size="10.00">vi</text>
</a>
</g>
</g>
<!-- Node12&#45;&gt;Node14 -->
<g id="edge17" class="edge">
<title>Node12&#45;&gt;Node14</title>
<path fill="none" stroke="midnightblue" d="M158.07,-101.48C141.85,-94.93 123.28,-87.42 111.02,-82.47"/>
<polygon fill="midnightblue" stroke="midnightblue" points="157.2,-104.91 167.78,-105.41 159.82,-98.42 157.2,-104.91"/>
</g>
<!-- Node13&#45;&gt;Node4 -->
<g id="edge15" class="edge">
<title>Node13&#45;&gt;Node4</title>
<path fill="none" stroke="midnightblue" d="M71.55,-115C60.69,-115 48.07,-115 38.04,-115"/>
<polygon fill="midnightblue" stroke="midnightblue" points="71.65,-118.5 81.65,-115 71.65,-111.5 71.65,-118.5"/>
</g>
<!-- Node14&#45;&gt;Node4 -->
<g id="edge18" class="edge">
<title>Node14&#45;&gt;Node4</title>
<path fill="none" stroke="midnightblue" d="M72.56,-88.55C61.48,-94.12 48.39,-100.71 38.04,-105.92"/>
<polygon fill="midnightblue" stroke="midnightblue" points="74.29,-91.59 81.65,-83.97 71.15,-85.34 74.29,-91.59"/>
</g>
<!-- Node16&#45;&gt;Node6 -->
<g id="edge21" class="edge">
<title>Node16&#45;&gt;Node6</title>
<path fill="none" stroke="midnightblue" d="M500.45,-77C548.24,-77 635.02,-77 678.19,-77"/>
<polygon fill="midnightblue" stroke="midnightblue" points="500.31,-73.5 490.31,-77 500.31,-80.5 500.31,-73.5"/>
</g>
<!-- Node18&#45;&gt;Node14 -->
<g id="edge25" class="edge">
<title>Node18&#45;&gt;Node14</title>
<path fill="none" stroke="midnightblue" d="M537.36,-13.13C497.76,-16.06 434.37,-20 379.5,-20 379.5,-20 379.5,-20 291.5,-20 221.29,-20 142.38,-54.79 111.21,-70.01"/>
<polygon fill="midnightblue" stroke="midnightblue" points="537.68,-16.61 547.39,-12.37 537.15,-9.63 537.68,-16.61"/>
</g>
</g>
</svg>
        <g id="navigator" transform="translate(0 0)" fill="#404254">
                <rect fill="#f2f5e9" fill-opacity="0.5" stroke="#606060" stroke-width=".5" x="0" y="0" width="60" height="60"/>
                <use id="zoomplus" xlink:href="#zoomPlus" x="17" y="9" onmousedown="handleZoom(evt,'in')"/>
                <use id="zoomminus" xlink:href="#zoomMin" x="42" y="9" onmousedown="handleZoom(evt,'out')"/>
                <use id="reset" xlink:href="#resetDef" x="30" y="36" onmousedown="handleReset()"/>
                <g id="arrowUp" xlink:href="#dirArrow" transform="translate(30 24)" onmousedown="handlePan(0,-1)">
                  <use xlink:href="#rim" fill="#404040">
                        <set attributeName="fill" to="#808080" begin="arrowUp.mouseover" end="arrowUp.mouseout"/>
                  </use>
                  <path fill="none" stroke="white" stroke-width="1.5" d="M0,-3.0v7 M-2.5,-0.5L0,-3.0L2.5,-0.5"/>
                </g>
                <g id="arrowRight" xlink:href="#dirArrow" transform="rotate(90) translate(36 -43)" onmousedown="handlePan(1,0)">
                  <use xlink:href="#rim" fill="#404040">
                        <set attributeName="fill" to="#808080" begin="arrowRight.mouseover" end="arrowRight.mouseout"/>
                  </use>
                  <path fill="none" stroke="white" stroke-width="1.5" d="M0,-3.0v7 M-2.5,-0.5L0,-3.0L2.5,-0.5"/>
                </g>
                <g id="arrowDown" xlink:href="#dirArrow" transform="rotate(180) translate(-30 -48)" onmousedown="handlePan(0,1)">
                  <use xlink:href="#rim" fill="#404040">
                        <set attributeName="fill" to="#808080" begin="arrowDown.mouseover" end="arrowDown.mouseout"/>
                  </use>
                  <path fill="none" stroke="white" stroke-width="1.5" d="M0,-3.0v7 M-2.5,-0.5L0,-3.0L2.5,-0.5"/>
                </g>
                <g id="arrowLeft" xlink:href="#dirArrow" transform="rotate(270) translate(-36 17)" onmousedown="handlePan(-1,0)">
                  <use xlink:href="#rim" fill="#404040">
                        <set attributeName="fill" to="#808080" begin="arrowLeft.mouseover" end="arrowLeft.mouseout"/>
                  </use>
                  <path fill="none" stroke="white" stroke-width="1.5" d="M0,-3.0v7 M-2.5,-0.5L0,-3.0L2.5,-0.5"/>
                </g>
        </g>
        <svg viewBox="0 0 15 15" width="100%" height="30px" preserveAspectRatio="xMaxYMin meet">
         <g id="arrow_out" transform="scale(0.3 0.3)">
          <a xlink:href="vi_8h_a4b34b803f07935eef6f7f842a276c09d_icgraph_org.svg" target="_base">
           <rect id="button" ry="5" rx="5" y="6" x="6" height="38" width="38"
                fill="#f2f5e9" fill-opacity="0.5" stroke="#606060" stroke-width="1.0"/>
           <path id="arrow"
             d="M 11.500037,31.436501 C 11.940474,20.09759 22.043105,11.32322 32.158766,21.979434 L 37.068811,17.246167 C 37.068811,17.246167 37.088388,32 37.088388,32 L 22.160133,31.978069 C 22.160133,31.978069 26.997745,27.140456 26.997745,27.140456 C 18.528582,18.264221 13.291696,25.230495 11.500037,31.436501 z"
             style="fill:#404040;"/>
          </a>
         </g>
        </svg>
</svg>
