<?xml version="1.0" encoding="UTF-8" standalone="no"?>
<!DOCTYPE svg PUBLIC "-//W3C//DTD SVG 1.1//EN"
 "http://www.w3.org/Graphics/SVG/1.1/DTD/svg11.dtd">
<!-- Generated by graphviz version 2.44.1 (20200629.0846)
 -->
<!-- Title: uc_dup Pages: 1 -->
<svg width="858pt" height="941pt"
 viewBox="0.00 0.00 858.00 941.10" xmlns="http://www.w3.org/2000/svg" xmlns:xlink="http://www.w3.org/1999/xlink">
<g id="graph0" class="graph" transform="scale(1 1) rotate(0) translate(4 937.1)">
<title>uc_dup</title>
<polygon fill="white" stroke="transparent" points="-4,4 -4,-937.1 854,-937.1 854,4 -4,4"/>
<!-- Node1 -->
<g id="node1" class="node">
<title>Node1</title>
<g id="a_node1"><a xlink:title=" ">
<polygon fill="#bfbfbf" stroke="black" points="802,-382.63 802,-401.63 850,-401.63 850,-382.63 802,-382.63"/>
<text text-anchor="middle" x="826" y="-389.63" font-family="Helvetica,sans-Serif" font-size="10.00">uc_dup</text>
</a>
</g>
</g>
<!-- Node2 -->
<g id="node2" class="node">
<title>Node2</title>
<g id="a_node2"><a xlink:href="ex_8c.html#a1857a36a25629d552700d0e3a19ce2c3" target="_top" xlink:title=" ">
<polygon fill="white" stroke="black" points="704,-909.63 704,-928.63 766,-928.63 766,-909.63 704,-909.63"/>
<text text-anchor="middle" x="735" y="-916.63" font-family="Helvetica,sans-Serif" font-size="10.00">bufs_open</text>
</a>
</g>
</g>
<!-- Node1&#45;&gt;Node2 -->
<g id="edge1" class="edge">
<title>Node1&#45;&gt;Node2</title>
<path fill="none" stroke="midnightblue" d="M824.56,-412.14C822.69,-477.08 813.15,-687.27 766,-853.13 760.08,-873.95 748.57,-896.59 741.66,-909.2"/>
<polygon fill="midnightblue" stroke="midnightblue" points="828.07,-411.84 824.83,-401.75 821.07,-411.66 828.07,-411.84"/>
</g>
<!-- Node6 -->
<g id="node6" class="node">
<title>Node6</title>
<g id="a_node6"><a xlink:href="ex_8c.html#aaf4e813ce4370aa859181d22de51576b" target="_top" xlink:title=" ">
<polygon fill="white" stroke="black" points="463,-767.63 463,-786.63 538,-786.63 538,-767.63 463,-767.63"/>
<text text-anchor="middle" x="500.5" y="-774.63" font-family="Helvetica,sans-Serif" font-size="10.00">ec_substitute</text>
</a>
</g>
</g>
<!-- Node1&#45;&gt;Node6 -->
<g id="edge5" class="edge">
<title>Node1&#45;&gt;Node6</title>
<path fill="none" stroke="midnightblue" d="M823.38,-411.74C818.24,-469.36 800.61,-636.6 766,-677.13 707.18,-746.01 595.76,-767.54 538.11,-774.2"/>
<polygon fill="midnightblue" stroke="midnightblue" points="826.87,-412.01 824.24,-401.75 819.89,-411.41 826.87,-412.01"/>
</g>
<!-- Node7 -->
<g id="node7" class="node">
<title>Node7</title>
<g id="a_node7"><a xlink:href="ex_8c.html#a057b67e2d4f23df3ad50a9d3ec86125b" target="_top" xlink:title=" ">
<polygon fill="white" stroke="black" points="708.5,-824.63 708.5,-843.63 761.5,-843.63 761.5,-824.63 708.5,-824.63"/>
<text text-anchor="middle" x="735" y="-831.63" font-family="Helvetica,sans-Serif" font-size="10.00">ec_write</text>
</a>
</g>
</g>
<!-- Node1&#45;&gt;Node7 -->
<g id="edge6" class="edge">
<title>Node1&#45;&gt;Node7</title>
<path fill="none" stroke="midnightblue" d="M823.13,-411.82C817.64,-466.63 799.78,-625.3 766,-753.13 758.99,-779.66 746.67,-809.65 740.22,-824.6"/>
<polygon fill="midnightblue" stroke="midnightblue" points="826.62,-412.04 824.12,-401.75 819.66,-411.36 826.62,-412.04"/>
</g>
<!-- Node18 -->
<g id="node18" class="node">
<title>Node18</title>
<g id="a_node18"><a xlink:href="lbuf_8c.html#a7882079a375d5591a9f384a80a5599ff" target="_top" xlink:title=" ">
<polygon fill="white" stroke="black" points="709.5,-406.63 709.5,-425.63 760.5,-425.63 760.5,-406.63 709.5,-406.63"/>
<text text-anchor="middle" x="735" y="-413.63" font-family="Helvetica,sans-Serif" font-size="10.00">lbuf_opt</text>
</a>
</g>
</g>
<!-- Node1&#45;&gt;Node18 -->
<g id="edge23" class="edge">
<title>Node1&#45;&gt;Node18</title>
<path fill="none" stroke="midnightblue" d="M791.73,-401.1C781.47,-403.86 770.36,-406.86 760.78,-409.44"/>
<polygon fill="midnightblue" stroke="midnightblue" points="792.87,-404.42 801.62,-398.43 791.05,-397.66 792.87,-404.42"/>
</g>
<!-- Node25 -->
<g id="node25" class="node">
<title>Node25</title>
<g id="a_node25"><a xlink:href="vi_8c.html#a8bb357a77ed61da8858f138c6fa672a6" target="_top" xlink:title=" ">
<polygon fill="white" stroke="black" points="368.5,-539.63 368.5,-558.63 424.5,-558.63 424.5,-539.63 368.5,-539.63"/>
<text text-anchor="middle" x="396.5" y="-546.63" font-family="Helvetica,sans-Serif" font-size="10.00">vc_insert</text>
</a>
</g>
</g>
<!-- Node1&#45;&gt;Node25 -->
<g id="edge71" class="edge">
<title>Node1&#45;&gt;Node25</title>
<path fill="none" stroke="midnightblue" d="M812.17,-410.19C775.96,-459.42 667.12,-595.48 538,-644.13 506.81,-655.88 492.51,-659.63 463,-644.13 427.88,-625.68 407.9,-578.94 400.66,-558.71"/>
<polygon fill="midnightblue" stroke="midnightblue" points="815.22,-411.95 818.26,-401.8 809.55,-407.84 815.22,-411.95"/>
</g>
<!-- Node29 -->
<g id="node29" class="node">
<title>Node29</title>
<g id="a_node29"><a xlink:href="vi_8c.html#a4e8a00c8cdffacf0c69c3901cdcdf059" target="_top" xlink:title=" ">
<polygon fill="white" stroke="black" points="475.5,-159.63 475.5,-178.63 525.5,-178.63 525.5,-159.63 475.5,-159.63"/>
<text text-anchor="middle" x="500.5" y="-166.63" font-family="Helvetica,sans-Serif" font-size="10.00">vi_case</text>
</a>
</g>
</g>
<!-- Node1&#45;&gt;Node29 -->
<g id="edge72" class="edge">
<title>Node1&#45;&gt;Node29</title>
<path fill="none" stroke="midnightblue" d="M822.18,-372.39C815.1,-325.9 795.05,-211.65 766,-188.13 695.33,-130.92 576.27,-150.67 525.55,-162.69"/>
<polygon fill="midnightblue" stroke="midnightblue" points="818.74,-373.04 823.66,-382.42 825.66,-372.02 818.74,-373.04"/>
</g>
<!-- Node31 -->
<g id="node31" class="node">
<title>Node31</title>
<g id="a_node31"><a xlink:href="vi_8c.html#ae37b094c3bb647d8c1a4ac4e858ce518" target="_top" xlink:title=" ">
<polygon fill="white" stroke="black" points="366,-273.63 366,-292.63 427,-292.63 427,-273.63 366,-273.63"/>
<text text-anchor="middle" x="396.5" y="-280.63" font-family="Helvetica,sans-Serif" font-size="10.00">vi_change</text>
</a>
</g>
</g>
<!-- Node1&#45;&gt;Node31 -->
<g id="edge73" class="edge">
<title>Node1&#45;&gt;Node31</title>
<path fill="none" stroke="midnightblue" d="M801.29,-377.2C753.66,-348.22 641.99,-285.33 538,-264.13 505.34,-257.47 496,-259.44 463,-264.13 449.87,-265.99 435.69,-269.86 423.9,-273.63"/>
<polygon fill="midnightblue" stroke="midnightblue" points="799.59,-380.26 809.94,-382.52 803.26,-374.3 799.59,-380.26"/>
</g>
<!-- Node32 -->
<g id="node32" class="node">
<title>Node32</title>
<g id="a_node32"><a xlink:href="vi_8c.html#abfa30fc2e2b4b8b24e2ee5d4bd54f2eb" target="_top" xlink:title=" ">
<polygon fill="white" stroke="black" points="472.5,-311.63 472.5,-330.63 528.5,-330.63 528.5,-311.63 472.5,-311.63"/>
<text text-anchor="middle" x="500.5" y="-318.63" font-family="Helvetica,sans-Serif" font-size="10.00">vi_delete</text>
</a>
</g>
</g>
<!-- Node1&#45;&gt;Node32 -->
<g id="edge74" class="edge">
<title>Node1&#45;&gt;Node32</title>
<path fill="none" stroke="midnightblue" d="M792.03,-384.89C727.96,-370.83 587.77,-340.06 528.65,-327.09"/>
<polygon fill="midnightblue" stroke="midnightblue" points="791.48,-388.35 801.99,-387.08 792.98,-381.52 791.48,-388.35"/>
</g>
<!-- Node35 -->
<g id="node35" class="node">
<title>Node35</title>
<g id="a_node35"><a xlink:href="led_8c.html#a617ec615e86687b5c10df33b271256c8" target="_top" xlink:title=" ">
<polygon fill="white" stroke="black" points="710,-197.63 710,-216.63 760,-216.63 760,-197.63 710,-197.63"/>
<text text-anchor="middle" x="735" y="-204.63" font-family="Helvetica,sans-Serif" font-size="10.00">led_line</text>
</a>
</g>
</g>
<!-- Node1&#45;&gt;Node35 -->
<g id="edge53" class="edge">
<title>Node1&#45;&gt;Node35</title>
<path fill="none" stroke="midnightblue" d="M821.44,-372.71C814.84,-340.74 798.35,-276.09 766,-231.13 762.03,-225.6 756.46,-220.67 751.19,-216.74"/>
<polygon fill="midnightblue" stroke="midnightblue" points="818.01,-373.43 823.37,-382.57 824.88,-372.08 818.01,-373.43"/>
</g>
<!-- Node41 -->
<g id="node41" class="node">
<title>Node41</title>
<g id="a_node41"><a xlink:href="vi_8c.html#a57965473297aad4c4333fdd3897c11f3" target="_top" xlink:title=" ">
<polygon fill="white" stroke="black" points="471,-45.63 471,-64.63 530,-64.63 530,-45.63 471,-45.63"/>
<text text-anchor="middle" x="500.5" y="-52.63" font-family="Helvetica,sans-Serif" font-size="10.00">vi_prompt</text>
</a>
</g>
</g>
<!-- Node1&#45;&gt;Node41 -->
<g id="edge75" class="edge">
<title>Node1&#45;&gt;Node41</title>
<path fill="none" stroke="midnightblue" d="M824.19,-372.27C821.6,-329.38 810.8,-226.27 766,-155.13 735.89,-107.31 720,-96.24 668,-74.13 622.62,-54.82 564.34,-52.75 530.14,-53.56"/>
<polygon fill="midnightblue" stroke="midnightblue" points="820.69,-372.45 824.7,-382.25 827.68,-372.09 820.69,-372.45"/>
</g>
<!-- Node3 -->
<g id="node3" class="node">
<title>Node3</title>
<g id="a_node3"><a xlink:href="ex_8c.html#a8059390ad69866fa8e14bdb2521d4dc2" target="_top" xlink:title=" ">
<polygon fill="white" stroke="black" points="372.5,-895.63 372.5,-914.63 420.5,-914.63 420.5,-895.63 372.5,-895.63"/>
<text text-anchor="middle" x="396.5" y="-902.63" font-family="Helvetica,sans-Serif" font-size="10.00">ec_edit</text>
</a>
</g>
</g>
<!-- Node2&#45;&gt;Node3 -->
<g id="edge2" class="edge">
<title>Node2&#45;&gt;Node3</title>
<path fill="none" stroke="midnightblue" d="M693.65,-924.68C640.44,-930.97 544.08,-938.81 463,-926.13 448.61,-923.88 433.06,-919 420.72,-914.51"/>
<polygon fill="midnightblue" stroke="midnightblue" points="694.19,-928.13 703.69,-923.44 693.34,-921.19 694.19,-928.13"/>
</g>
<!-- Node4 -->
<g id="node4" class="node">
<title>Node4</title>
<g id="a_node4"><a xlink:href="vi_8h.html#abe53b5c10f94f20cd5ed024371615fa1" target="_top" xlink:title=" ">
<polygon fill="white" stroke="black" points="74,-577.63 74,-596.63 119,-596.63 119,-577.63 74,-577.63"/>
<text text-anchor="middle" x="96.5" y="-584.63" font-family="Helvetica,sans-Serif" font-size="10.00">ex_init</text>
</a>
</g>
</g>
<!-- Node3&#45;&gt;Node4 -->
<g id="edge3" class="edge">
<title>Node3&#45;&gt;Node4</title>
<path fill="none" stroke="midnightblue" d="M362.41,-898.62C310.43,-886.65 209.96,-856.18 155,-791.13 104.18,-730.97 98.15,-628.84 97.53,-596.94"/>
<polygon fill="midnightblue" stroke="midnightblue" points="361.91,-902.09 372.43,-900.83 363.42,-895.26 361.91,-902.09"/>
</g>
<!-- Node5 -->
<g id="node5" class="node">
<title>Node5</title>
<g id="a_node5"><a xlink:href="vi_8c.html#a0ddf1224851353fc92bfbff6f499fa97" target="_top" xlink:title=" ">
<polygon fill="white" stroke="black" points="0,-510.63 0,-529.63 38,-529.63 38,-510.63 0,-510.63"/>
<text text-anchor="middle" x="19" y="-517.63" font-family="Helvetica,sans-Serif" font-size="10.00">main</text>
</a>
</g>
</g>
<!-- Node4&#45;&gt;Node5 -->
<g id="edge4" class="edge">
<title>Node4&#45;&gt;Node5</title>
<path fill="none" stroke="midnightblue" d="M76.84,-570.57C62.36,-557.71 42.79,-540.35 30.8,-529.71"/>
<polygon fill="midnightblue" stroke="midnightblue" points="74.88,-573.51 84.68,-577.53 79.53,-568.27 74.88,-573.51"/>
</g>
<!-- Node8 -->
<g id="node8" class="node">
<title>Node8</title>
<g id="a_node8"><a xlink:href="ex_8c.html#ab0cb848a971a3b2c09fcb456d887dd6b" target="_top" xlink:title=" ">
<polygon fill="white" stroke="black" points="574,-862.63 574,-881.63 668,-881.63 668,-862.63 574,-862.63"/>
<text text-anchor="middle" x="621" y="-869.63" font-family="Helvetica,sans-Serif" font-size="10.00">ex_modifiedbuffer</text>
</a>
</g>
</g>
<!-- Node7&#45;&gt;Node8 -->
<g id="edge7" class="edge">
<title>Node7&#45;&gt;Node8</title>
<path fill="none" stroke="midnightblue" d="M698.5,-846.17C682.95,-851.45 664.96,-857.55 650.33,-862.52"/>
<polygon fill="midnightblue" stroke="midnightblue" points="699.96,-849.37 708.3,-842.84 697.71,-842.74 699.96,-849.37"/>
</g>
<!-- Node8&#45;&gt;Node3 -->
<g id="edge8" class="edge">
<title>Node8&#45;&gt;Node3</title>
<path fill="none" stroke="midnightblue" d="M595.63,-886.84C579.82,-895.5 558.43,-905.62 538,-910.13 497.48,-919.06 448.82,-913.92 420.7,-909.46"/>
<polygon fill="midnightblue" stroke="midnightblue" points="597.73,-889.67 604.7,-881.7 594.27,-883.59 597.73,-889.67"/>
</g>
<!-- Node9 -->
<g id="node9" class="node">
<title>Node9</title>
<g id="a_node9"><a xlink:href="ex_8c.html#adcd83f163f659bd2596bcfc25d74bde9" target="_top" xlink:title=" ">
<polygon fill="white" stroke="black" points="474,-805.63 474,-824.63 527,-824.63 527,-805.63 474,-805.63"/>
<text text-anchor="middle" x="500.5" y="-812.63" font-family="Helvetica,sans-Serif" font-size="10.00">ec_exec</text>
</a>
</g>
</g>
<!-- Node8&#45;&gt;Node9 -->
<g id="edge9" class="edge">
<title>Node8&#45;&gt;Node9</title>
<path fill="none" stroke="midnightblue" d="M591.11,-858.23C569.49,-847.83 540.48,-833.87 521.4,-824.7"/>
<polygon fill="midnightblue" stroke="midnightblue" points="589.64,-861.41 600.17,-862.59 592.67,-855.1 589.64,-861.41"/>
</g>
<!-- Node16 -->
<g id="node16" class="node">
<title>Node16</title>
<g id="a_node16"><a xlink:href="ex_8c.html#aa69f426ff9728078fbb36f448c624a90" target="_top" xlink:title=" ">
<polygon fill="white" stroke="black" points="472.5,-881.63 472.5,-900.63 528.5,-900.63 528.5,-881.63 472.5,-881.63"/>
<text text-anchor="middle" x="500.5" y="-888.63" font-family="Helvetica,sans-Serif" font-size="10.00">ec_make</text>
</a>
</g>
</g>
<!-- Node8&#45;&gt;Node16 -->
<g id="edge20" class="edge">
<title>Node8&#45;&gt;Node16</title>
<path fill="none" stroke="midnightblue" d="M563.65,-881.16C551.41,-883.12 539.01,-885.11 528.53,-886.79"/>
<polygon fill="midnightblue" stroke="midnightblue" points="564.53,-884.57 573.85,-879.53 563.42,-877.65 564.53,-884.57"/>
</g>
<!-- Node17 -->
<g id="node17" class="node">
<title>Node17</title>
<g id="a_node17"><a xlink:href="ex_8c.html#a87eef446de152fad41ce88a9a343b87d" target="_top" xlink:title=" ">
<polygon fill="white" stroke="black" points="476.5,-843.63 476.5,-862.63 524.5,-862.63 524.5,-843.63 476.5,-843.63"/>
<text text-anchor="middle" x="500.5" y="-850.63" font-family="Helvetica,sans-Serif" font-size="10.00">ec_quit</text>
</a>
</g>
</g>
<!-- Node8&#45;&gt;Node17 -->
<g id="edge21" class="edge">
<title>Node8&#45;&gt;Node17</title>
<path fill="none" stroke="midnightblue" d="M563.82,-863.12C549.93,-860.89 535.82,-858.63 524.55,-856.82"/>
<polygon fill="midnightblue" stroke="midnightblue" points="563.42,-866.6 573.85,-864.73 564.53,-859.69 563.42,-866.6"/>
</g>
<!-- Node10 -->
<g id="node10" class="node">
<title>Node10</title>
<g id="a_node10"><a xlink:href="ex_8c.html#a7d848d20211b2e1c868dde98ec5dfae9" target="_top" xlink:title=" ">
<polygon fill="white" stroke="black" points="373,-772.63 373,-791.63 420,-791.63 420,-772.63 373,-772.63"/>
<text text-anchor="middle" x="396.5" y="-779.63" font-family="Helvetica,sans-Serif" font-size="10.00">ex_line</text>
</a>
</g>
</g>
<!-- Node9&#45;&gt;Node10 -->
<g id="edge10" class="edge">
<title>Node9&#45;&gt;Node10</title>
<path fill="none" stroke="midnightblue" d="M464.03,-803.65C449.45,-798.94 433,-793.61 420.11,-789.44"/>
<polygon fill="midnightblue" stroke="midnightblue" points="463.17,-807.05 473.76,-806.8 465.32,-800.39 463.17,-807.05"/>
</g>
<!-- Node11 -->
<g id="node11" class="node">
<title>Node11</title>
<g id="a_node11"><a xlink:href="ex_8c.html#ab15ebfef933256d9741128e2ddf3f9b5" target="_top" xlink:title=" ">
<polygon fill="white" stroke="black" points="271.5,-734.63 271.5,-753.63 324.5,-753.63 324.5,-734.63 271.5,-734.63"/>
<text text-anchor="middle" x="298" y="-741.63" font-family="Helvetica,sans-Serif" font-size="10.00">ex_exec</text>
</a>
</g>
</g>
<!-- Node10&#45;&gt;Node11 -->
<g id="edge11" class="edge">
<title>Node10&#45;&gt;Node11</title>
<path fill="none" stroke="midnightblue" d="M363.12,-769.37C350.14,-764.26 335.44,-758.48 323.39,-753.73"/>
<polygon fill="midnightblue" stroke="midnightblue" points="362.04,-772.71 372.63,-773.12 364.61,-766.2 362.04,-772.71"/>
</g>
<!-- Node12 -->
<g id="node12" class="node">
<title>Node12</title>
<g id="a_node12"><a xlink:href="ex_8c.html#a70c571bdde329a65e216c19b4aeaa628" target="_top" xlink:title=" ">
<polygon fill="white" stroke="black" points="167.5,-762.63 167.5,-781.63 217.5,-781.63 217.5,-762.63 167.5,-762.63"/>
<text text-anchor="middle" x="192.5" y="-769.63" font-family="Helvetica,sans-Serif" font-size="10.00">ec_glob</text>
</a>
</g>
</g>
<!-- Node11&#45;&gt;Node12 -->
<g id="edge12" class="edge">
<title>Node11&#45;&gt;Node12</title>
<path fill="none" stroke="midnightblue" d="M261.75,-753.66C247.26,-757.58 230.83,-762.03 217.72,-765.57"/>
<polygon fill="midnightblue" stroke="midnightblue" points="262.68,-757.04 271.42,-751.05 260.85,-750.28 262.68,-757.04"/>
</g>
<!-- Node13 -->
<g id="node13" class="node">
<title>Node13</title>
<g id="a_node13"><a xlink:href="vi_8h.html#aa75c73cccb4878ec06ea5bf5b1b02295" target="_top" xlink:title=" ">
<polygon fill="white" stroke="black" points="155,-577.63 155,-596.63 230,-596.63 230,-577.63 155,-577.63"/>
<text text-anchor="middle" x="192.5" y="-584.63" font-family="Helvetica,sans-Serif" font-size="10.00">ex_command</text>
</a>
</g>
</g>
<!-- Node11&#45;&gt;Node13 -->
<g id="edge14" class="edge">
<title>Node11&#45;&gt;Node13</title>
<path fill="none" stroke="midnightblue" d="M285.01,-725.93C263.02,-692.58 216.96,-622.71 199.97,-596.94"/>
<polygon fill="midnightblue" stroke="midnightblue" points="282.1,-727.88 290.53,-734.31 287.94,-724.03 282.1,-727.88"/>
</g>
<!-- Node12&#45;&gt;Node10 -->
<g id="edge13" class="edge">
<title>Node12&#45;&gt;Node10</title>
<path fill="none" stroke="midnightblue" d="M227.91,-773.83C269.24,-775.88 337.41,-779.25 372.72,-781"/>
<polygon fill="midnightblue" stroke="midnightblue" points="227.92,-770.33 217.76,-773.33 227.58,-777.32 227.92,-770.33"/>
</g>
<!-- Node13&#45;&gt;Node4 -->
<g id="edge17" class="edge">
<title>Node13&#45;&gt;Node4</title>
<path fill="none" stroke="midnightblue" d="M144.85,-587.13C135.89,-587.13 126.91,-587.13 119.21,-587.13"/>
<polygon fill="midnightblue" stroke="midnightblue" points="144.89,-590.63 154.89,-587.13 144.89,-583.63 144.89,-590.63"/>
</g>
<!-- Node14 -->
<g id="node14" class="node">
<title>Node14</title>
<g id="a_node14"><a xlink:href="vi_8h.html#ac395e51f25330a6e6033b6d0d22b2076" target="_top" xlink:title=" ">
<polygon fill="white" stroke="black" points="82,-510.63 82,-529.63 111,-529.63 111,-510.63 82,-510.63"/>
<text text-anchor="middle" x="96.5" y="-517.63" font-family="Helvetica,sans-Serif" font-size="10.00">ex</text>
</a>
</g>
</g>
<!-- Node13&#45;&gt;Node14 -->
<g id="edge15" class="edge">
<title>Node13&#45;&gt;Node14</title>
<path fill="none" stroke="midnightblue" d="M167.9,-571.91C163.57,-569.04 159.13,-566.02 155,-563.13 139.29,-552.1 121.67,-538.78 110.13,-529.91"/>
<polygon fill="midnightblue" stroke="midnightblue" points="166.17,-574.96 176.45,-577.52 170.01,-569.11 166.17,-574.96"/>
</g>
<!-- Node15 -->
<g id="node15" class="node">
<title>Node15</title>
<g id="a_node15"><a xlink:href="vi_8c.html#a8d808e0f3453afe6600673ee1ea5f828" target="_top" xlink:title=" ">
<polygon fill="white" stroke="black" points="82,-444.63 82,-463.63 111,-463.63 111,-444.63 82,-444.63"/>
<text text-anchor="middle" x="96.5" y="-451.63" font-family="Helvetica,sans-Serif" font-size="10.00">vi</text>
</a>
</g>
</g>
<!-- Node13&#45;&gt;Node15 -->
<g id="edge18" class="edge">
<title>Node13&#45;&gt;Node15</title>
<path fill="none" stroke="midnightblue" d="M164.75,-571.86C161.24,-569.21 157.87,-566.28 155,-563.13 140.33,-546.97 112.53,-487.35 101.84,-463.79"/>
<polygon fill="midnightblue" stroke="midnightblue" points="162.8,-574.77 173.04,-577.51 166.74,-568.98 162.8,-574.77"/>
</g>
<!-- Node14&#45;&gt;Node5 -->
<g id="edge16" class="edge">
<title>Node14&#45;&gt;Node5</title>
<path fill="none" stroke="midnightblue" d="M71.55,-520.13C60.69,-520.13 48.07,-520.13 38.04,-520.13"/>
<polygon fill="midnightblue" stroke="midnightblue" points="71.65,-523.63 81.65,-520.13 71.65,-516.63 71.65,-523.63"/>
</g>
<!-- Node15&#45;&gt;Node5 -->
<g id="edge19" class="edge">
<title>Node15&#45;&gt;Node5</title>
<path fill="none" stroke="midnightblue" d="M76.59,-470.66C62.29,-483.16 43.14,-499.9 31.19,-510.35"/>
<polygon fill="midnightblue" stroke="midnightblue" points="79.13,-473.08 84.36,-463.87 74.53,-467.81 79.13,-473.08"/>
</g>
<!-- Node17&#45;&gt;Node7 -->
<g id="edge22" class="edge">
<title>Node17&#45;&gt;Node7</title>
<path fill="none" stroke="midnightblue" d="M534.83,-850.4C581.65,-846.58 665.89,-839.69 708.23,-836.23"/>
<polygon fill="midnightblue" stroke="midnightblue" points="534.29,-846.94 524.61,-851.24 534.86,-853.91 534.29,-846.94"/>
</g>
<!-- Node19 -->
<g id="node19" class="node">
<title>Node19</title>
<g id="a_node19"><a xlink:href="vi_8h.html#ace23fcf99b4a5bb0e4da7bfbeb292a7d" target="_top" xlink:title=" ">
<polygon fill="white" stroke="black" points="594.5,-463.63 594.5,-482.63 647.5,-482.63 647.5,-463.63 594.5,-463.63"/>
<text text-anchor="middle" x="621" y="-470.63" font-family="Helvetica,sans-Serif" font-size="10.00">lbuf_edit</text>
</a>
</g>
</g>
<!-- Node18&#45;&gt;Node19 -->
<g id="edge24" class="edge">
<title>Node18&#45;&gt;Node19</title>
<path fill="none" stroke="midnightblue" d="M706.14,-430.3C685.77,-440.67 658.68,-454.46 640.81,-463.56"/>
<polygon fill="midnightblue" stroke="midnightblue" points="707.93,-433.32 715.25,-425.67 704.75,-427.08 707.93,-433.32"/>
</g>
<!-- Node19&#45;&gt;Node6 -->
<g id="edge30" class="edge">
<title>Node19&#45;&gt;Node6</title>
<path fill="none" stroke="midnightblue" d="M619.49,-492.8C617.21,-542.78 604.83,-676.41 538,-758.13 534.92,-761.89 530.91,-764.99 526.67,-767.52"/>
<polygon fill="midnightblue" stroke="midnightblue" points="622.99,-492.83 619.86,-482.71 616,-492.58 622.99,-492.83"/>
</g>
<!-- Node19&#45;&gt;Node9 -->
<g id="edge26" class="edge">
<title>Node19&#45;&gt;Node9</title>
<path fill="none" stroke="midnightblue" d="M620.31,-492.83C620.16,-547.23 612.77,-701.7 538,-796.13 534.98,-799.94 531,-803.06 526.76,-805.6"/>
<polygon fill="midnightblue" stroke="midnightblue" points="623.81,-492.78 620.26,-482.8 616.81,-492.82 623.81,-492.78"/>
</g>
<!-- Node20 -->
<g id="node20" class="node">
<title>Node20</title>
<g id="a_node20"><a xlink:href="ex_8c.html#a4cd0748447515b7a935e4bb41424a9e4" target="_top" xlink:title=" ">
<polygon fill="white" stroke="black" points="471,-615.63 471,-634.63 530,-634.63 530,-615.63 471,-615.63"/>
<text text-anchor="middle" x="500.5" y="-622.63" font-family="Helvetica,sans-Serif" font-size="10.00">ec_delete</text>
</a>
</g>
</g>
<!-- Node19&#45;&gt;Node20 -->
<g id="edge25" class="edge">
<title>Node19&#45;&gt;Node20</title>
<path fill="none" stroke="midnightblue" d="M612.25,-492.13C600.03,-520.11 573.93,-572.71 538,-606.13 534.13,-609.73 529.45,-612.83 524.74,-615.43"/>
<polygon fill="midnightblue" stroke="midnightblue" points="615.56,-493.27 616.24,-482.7 609.12,-490.54 615.56,-493.27"/>
</g>
<!-- Node21 -->
<g id="node21" class="node">
<title>Node21</title>
<g id="a_node21"><a xlink:href="ex_8c.html#a0908784dc65be2da119a6b72ef96dec2" target="_top" xlink:title=" ">
<polygon fill="white" stroke="black" points="368.5,-197.63 368.5,-216.63 424.5,-216.63 424.5,-197.63 368.5,-197.63"/>
<text text-anchor="middle" x="396.5" y="-204.63" font-family="Helvetica,sans-Serif" font-size="10.00">ec_insert</text>
</a>
</g>
</g>
<!-- Node19&#45;&gt;Node21 -->
<g id="edge27" class="edge">
<title>Node19&#45;&gt;Node21</title>
<path fill="none" stroke="midnightblue" d="M617.5,-453.35C611.35,-412.61 591.85,-318.6 538,-264.13 506.82,-232.58 455.81,-217.87 424.59,-211.5"/>
<polygon fill="midnightblue" stroke="midnightblue" points="614.05,-453.93 618.9,-463.35 620.98,-452.96 614.05,-453.93"/>
</g>
<!-- Node22 -->
<g id="node22" class="node">
<title>Node22</title>
<g id="a_node22"><a xlink:href="ex_8c.html#ab417867ff867aff9f7277229990cd1b8" target="_top" xlink:title=" ">
<polygon fill="white" stroke="black" points="477.5,-577.63 477.5,-596.63 523.5,-596.63 523.5,-577.63 477.5,-577.63"/>
<text text-anchor="middle" x="500.5" y="-584.63" font-family="Helvetica,sans-Serif" font-size="10.00">ec_put</text>
</a>
</g>
</g>
<!-- Node19&#45;&gt;Node22 -->
<g id="edge28" class="edge">
<title>Node19&#45;&gt;Node22</title>
<path fill="none" stroke="midnightblue" d="M606.27,-490.65C590.85,-509.72 564.49,-540.51 538,-563.13 531.89,-568.35 524.58,-573.36 518.11,-577.44"/>
<polygon fill="midnightblue" stroke="midnightblue" points="609.05,-492.79 612.55,-482.79 603.58,-488.42 609.05,-492.79"/>
</g>
<!-- Node23 -->
<g id="node23" class="node">
<title>Node23</title>
<g id="a_node23"><a xlink:href="ex_8c.html#add0e79e1f1e3d45f4eaa6fbe5c1ca443" target="_top" xlink:title=" ">
<polygon fill="white" stroke="black" points="371,-710.63 371,-729.63 422,-729.63 422,-710.63 371,-710.63"/>
<text text-anchor="middle" x="396.5" y="-717.63" font-family="Helvetica,sans-Serif" font-size="10.00">ec_read</text>
</a>
</g>
</g>
<!-- Node19&#45;&gt;Node23 -->
<g id="edge29" class="edge">
<title>Node19&#45;&gt;Node23</title>
<path fill="none" stroke="midnightblue" d="M614.98,-492.61C605.29,-526.96 581.03,-598.95 538,-644.13 505.01,-678.77 452.68,-701.23 422.06,-712.2"/>
<polygon fill="midnightblue" stroke="midnightblue" points="618.39,-493.42 617.63,-482.86 611.63,-491.59 618.39,-493.42"/>
</g>
<!-- Node24 -->
<g id="node24" class="node">
<title>Node24</title>
<g id="a_node24"><a xlink:href="vi_8h.html#a73da27946270b153994b708a93095bc6" target="_top" xlink:title=" ">
<polygon fill="white" stroke="black" points="477.5,-729.63 477.5,-748.63 523.5,-748.63 523.5,-729.63 477.5,-729.63"/>
<text text-anchor="middle" x="500.5" y="-736.63" font-family="Helvetica,sans-Serif" font-size="10.00">lbuf_rd</text>
</a>
</g>
</g>
<!-- Node19&#45;&gt;Node24 -->
<g id="edge31" class="edge">
<title>Node19&#45;&gt;Node24</title>
<path fill="none" stroke="midnightblue" d="M617.7,-492.97C611.71,-537.12 592.15,-645.06 538,-715.13 533.55,-720.89 527.3,-725.7 521.23,-729.47"/>
<polygon fill="midnightblue" stroke="midnightblue" points="621.18,-493.32 618.97,-482.96 614.24,-492.44 621.18,-493.32"/>
</g>
<!-- Node19&#45;&gt;Node25 -->
<g id="edge34" class="edge">
<title>Node19&#45;&gt;Node25</title>
<path fill="none" stroke="midnightblue" d="M600.3,-488.79C584.4,-500.63 560.97,-516.29 538,-525.13 500.35,-539.61 453.69,-545.38 424.75,-547.66"/>
<polygon fill="midnightblue" stroke="midnightblue" points="602.49,-491.53 608.31,-482.68 598.24,-485.96 602.49,-491.53"/>
</g>
<!-- Node26 -->
<g id="node26" class="node">
<title>Node26</title>
<g id="a_node26"><a xlink:href="vi_8c.html#a3d105f7bfebd8365af5b66d6dedf184e" target="_top" xlink:title=" ">
<polygon fill="white" stroke="black" points="274.5,-501.63 274.5,-520.63 321.5,-520.63 321.5,-501.63 274.5,-501.63"/>
<text text-anchor="middle" x="298" y="-508.63" font-family="Helvetica,sans-Serif" font-size="10.00">vc_join</text>
</a>
</g>
</g>
<!-- Node19&#45;&gt;Node26 -->
<g id="edge36" class="edge">
<title>Node19&#45;&gt;Node26</title>
<path fill="none" stroke="midnightblue" d="M584.25,-479.78C569.91,-482.31 553.2,-485.07 538,-487.13 458.86,-497.84 364.38,-505.96 321.8,-509.36"/>
<polygon fill="midnightblue" stroke="midnightblue" points="584.99,-483.21 594.22,-478 583.76,-476.31 584.99,-483.21"/>
</g>
<!-- Node27 -->
<g id="node27" class="node">
<title>Node27</title>
<g id="a_node27"><a xlink:href="vi_8c.html#a7611a5bcfe4c4ddc58233c4c52a8fa16" target="_top" xlink:title=" ">
<polygon fill="white" stroke="black" points="169.5,-463.63 169.5,-482.63 215.5,-482.63 215.5,-463.63 169.5,-463.63"/>
<text text-anchor="middle" x="192.5" y="-470.63" font-family="Helvetica,sans-Serif" font-size="10.00">vc_put</text>
</a>
</g>
</g>
<!-- Node19&#45;&gt;Node27 -->
<g id="edge38" class="edge">
<title>Node19&#45;&gt;Node27</title>
<path fill="none" stroke="midnightblue" d="M584.03,-473.13C498.48,-473.13 284.89,-473.13 215.59,-473.13"/>
<polygon fill="midnightblue" stroke="midnightblue" points="584.28,-476.63 594.28,-473.13 584.28,-469.63 584.28,-476.63"/>
</g>
<!-- Node28 -->
<g id="node28" class="node">
<title>Node28</title>
<g id="a_node28"><a xlink:href="vi_8c.html#a3635843354dbb31e3c00efcd5798535a" target="_top" xlink:title=" ">
<polygon fill="white" stroke="black" points="266,-425.63 266,-444.63 330,-444.63 330,-425.63 266,-425.63"/>
<text text-anchor="middle" x="298" y="-432.63" font-family="Helvetica,sans-Serif" font-size="10.00">vc_replace</text>
</a>
</g>
</g>
<!-- Node19&#45;&gt;Node28 -->
<g id="edge40" class="edge">
<title>Node19&#45;&gt;Node28</title>
<path fill="none" stroke="midnightblue" d="M584.25,-466.47C569.91,-463.95 553.2,-461.19 538,-459.13 463.62,-449.05 375.68,-441.28 330.02,-437.55"/>
<polygon fill="midnightblue" stroke="midnightblue" points="583.76,-469.94 594.22,-468.26 584.99,-463.05 583.76,-469.94"/>
</g>
<!-- Node19&#45;&gt;Node29 -->
<g id="edge42" class="edge">
<title>Node19&#45;&gt;Node29</title>
<path fill="none" stroke="midnightblue" d="M618.81,-453.21C614.99,-404.26 599.36,-276.06 538,-193.13 533.67,-187.27 527.45,-182.44 521.38,-178.67"/>
<polygon fill="midnightblue" stroke="midnightblue" points="615.34,-453.66 619.52,-463.39 622.32,-453.17 615.34,-453.66"/>
</g>
<!-- Node19&#45;&gt;Node31 -->
<g id="edge45" class="edge">
<title>Node19&#45;&gt;Node31</title>
<path fill="none" stroke="midnightblue" d="M606.77,-455.59C591.6,-436.27 565.31,-405.04 538,-383.13 508.03,-359.08 494.31,-362.4 463,-340.13 441.87,-325.1 419.57,-304.53 407.2,-292.66"/>
<polygon fill="midnightblue" stroke="midnightblue" points="604.03,-457.78 612.92,-463.55 609.57,-453.5 604.03,-457.78"/>
</g>
<!-- Node19&#45;&gt;Node32 -->
<g id="edge47" class="edge">
<title>Node19&#45;&gt;Node32</title>
<path fill="none" stroke="midnightblue" d="M611.07,-454.17C597.86,-427.55 571.08,-378.6 538,-345.13 532.56,-339.62 525.66,-334.7 519.33,-330.76"/>
<polygon fill="midnightblue" stroke="midnightblue" points="608.08,-456.03 615.6,-463.51 614.38,-452.98 608.08,-456.03"/>
</g>
<!-- Node33 -->
<g id="node33" class="node">
<title>Node33</title>
<g id="a_node33"><a xlink:href="vi_8c.html#ab8e0c9b9d2ef5161c6a3a8828606df5f" target="_top" xlink:title=" ">
<polygon fill="white" stroke="black" points="373,-159.63 373,-178.63 420,-178.63 420,-159.63 373,-159.63"/>
<text text-anchor="middle" x="396.5" y="-166.63" font-family="Helvetica,sans-Serif" font-size="10.00">vi_pipe</text>
</a>
</g>
</g>
<!-- Node19&#45;&gt;Node33 -->
<g id="edge49" class="edge">
<title>Node19&#45;&gt;Node33</title>
<path fill="none" stroke="midnightblue" d="M616.43,-453.34C604.08,-386.08 562.66,-169.31 538,-150.13 501.67,-121.87 443.45,-145.03 414.7,-159.57"/>
<polygon fill="midnightblue" stroke="midnightblue" points="613.03,-454.24 618.27,-463.45 619.92,-452.98 613.03,-454.24"/>
</g>
<!-- Node34 -->
<g id="node34" class="node">
<title>Node34</title>
<g id="a_node34"><a xlink:href="vi_8c.html#a48860be78b002b73335ae1b47dd56929" target="_top" xlink:title=" ">
<polygon fill="white" stroke="black" points="274,-368.63 274,-387.63 322,-387.63 322,-368.63 274,-368.63"/>
<text text-anchor="middle" x="298" y="-375.63" font-family="Helvetica,sans-Serif" font-size="10.00">vi_shift</text>
</a>
</g>
</g>
<!-- Node19&#45;&gt;Node34 -->
<g id="edge51" class="edge">
<title>Node19&#45;&gt;Node34</title>
<path fill="none" stroke="midnightblue" d="M584.72,-460.6C570.3,-455.6 553.41,-449.91 538,-445.13 459.4,-420.71 365.04,-395.43 322.2,-384.17"/>
<polygon fill="midnightblue" stroke="midnightblue" points="583.67,-463.94 594.27,-463.93 585.98,-457.33 583.67,-463.94"/>
</g>
<!-- Node24&#45;&gt;Node3 -->
<g id="edge32" class="edge">
<title>Node24&#45;&gt;Node3</title>
<path fill="none" stroke="midnightblue" d="M468.85,-752.97C466.74,-754.54 464.76,-756.26 463,-758.13 423.56,-800.04 405.18,-869.69 399.51,-895.29"/>
<polygon fill="midnightblue" stroke="midnightblue" points="470.78,-755.89 477.4,-747.61 467.07,-749.96 470.78,-755.89"/>
</g>
<!-- Node24&#45;&gt;Node23 -->
<g id="edge33" class="edge">
<title>Node24&#45;&gt;Node23</title>
<path fill="none" stroke="midnightblue" d="M467.24,-733.12C452.63,-730.4 435.64,-727.23 422.09,-724.71"/>
<polygon fill="midnightblue" stroke="midnightblue" points="466.9,-736.61 477.37,-735 468.18,-729.73 466.9,-736.61"/>
</g>
<!-- Node25&#45;&gt;Node15 -->
<g id="edge35" class="edge">
<title>Node25&#45;&gt;Node15</title>
<path fill="none" stroke="midnightblue" d="M357.97,-550.75C308.64,-551.32 220.58,-546.86 155,-513.13 132.36,-501.48 113.41,-477.51 103.96,-463.98"/>
<polygon fill="midnightblue" stroke="midnightblue" points="358.25,-554.24 368.18,-550.55 358.11,-547.25 358.25,-554.24"/>
</g>
<!-- Node26&#45;&gt;Node15 -->
<g id="edge37" class="edge">
<title>Node26&#45;&gt;Node15</title>
<path fill="none" stroke="midnightblue" d="M263.95,-510.86C234.5,-509.67 190.68,-505.5 155,-492.13 137.3,-485.49 119.54,-472.57 108.54,-463.65"/>
<polygon fill="midnightblue" stroke="midnightblue" points="264,-514.37 274.11,-511.18 264.22,-507.37 264,-514.37"/>
</g>
<!-- Node27&#45;&gt;Node15 -->
<g id="edge39" class="edge">
<title>Node27&#45;&gt;Node15</title>
<path fill="none" stroke="midnightblue" d="M159.41,-466.64C142.95,-463.31 123.78,-459.44 111.18,-456.89"/>
<polygon fill="midnightblue" stroke="midnightblue" points="158.73,-470.07 169.22,-468.62 160.11,-463.21 158.73,-470.07"/>
</g>
<!-- Node28&#45;&gt;Node15 -->
<g id="edge41" class="edge">
<title>Node28&#45;&gt;Node15</title>
<path fill="none" stroke="midnightblue" d="M255.77,-439.05C210.65,-443.35 140.83,-450 111.37,-452.81"/>
<polygon fill="midnightblue" stroke="midnightblue" points="256.21,-442.53 265.83,-438.1 255.54,-435.56 256.21,-442.53"/>
</g>
<!-- Node30 -->
<g id="node30" class="node">
<title>Node30</title>
<g id="a_node30"><a xlink:href="vi_8c.html#a06cbc6eb843436a0e77e07cbab0c4538" target="_top" xlink:title=" ">
<polygon fill="white" stroke="black" points="161.5,-273.63 161.5,-292.63 223.5,-292.63 223.5,-273.63 161.5,-273.63"/>
<text text-anchor="middle" x="192.5" y="-280.63" font-family="Helvetica,sans-Serif" font-size="10.00">vc_motion</text>
</a>
</g>
</g>
<!-- Node29&#45;&gt;Node30 -->
<g id="edge43" class="edge">
<title>Node29&#45;&gt;Node30</title>
<path fill="none" stroke="midnightblue" d="M482.81,-185.69C468.96,-198.53 448.18,-215.82 427,-226.13 358.71,-259.36 269.5,-274.15 223.63,-279.92"/>
<polygon fill="midnightblue" stroke="midnightblue" points="485.29,-188.17 490.11,-178.73 480.46,-183.1 485.29,-188.17"/>
</g>
<!-- Node30&#45;&gt;Node15 -->
<g id="edge44" class="edge">
<title>Node30&#45;&gt;Node15</title>
<path fill="none" stroke="midnightblue" d="M181.2,-301.86C161.22,-338.21 117.81,-417.17 102.76,-444.55"/>
<polygon fill="midnightblue" stroke="midnightblue" points="184.43,-303.26 186.18,-292.81 178.29,-299.89 184.43,-303.26"/>
</g>
<!-- Node31&#45;&gt;Node30 -->
<g id="edge46" class="edge">
<title>Node31&#45;&gt;Node30</title>
<path fill="none" stroke="midnightblue" d="M355.3,-283.13C316.55,-283.13 258.77,-283.13 223.76,-283.13"/>
<polygon fill="midnightblue" stroke="midnightblue" points="355.69,-286.63 365.69,-283.13 355.69,-279.63 355.69,-286.63"/>
</g>
<!-- Node32&#45;&gt;Node30 -->
<g id="edge48" class="edge">
<title>Node32&#45;&gt;Node30</title>
<path fill="none" stroke="midnightblue" d="M462.3,-318.32C416.12,-314.61 335.01,-307.32 266,-297.13 252.05,-295.07 236.7,-292.19 223.73,-289.58"/>
<polygon fill="midnightblue" stroke="midnightblue" points="462.19,-321.83 472.44,-319.13 462.74,-314.85 462.19,-321.83"/>
</g>
<!-- Node33&#45;&gt;Node30 -->
<g id="edge50" class="edge">
<title>Node33&#45;&gt;Node30</title>
<path fill="none" stroke="midnightblue" d="M363.63,-182.51C336.91,-194.16 298.1,-212.13 266,-231.13 243.61,-244.38 219.38,-262.63 205.37,-273.62"/>
<polygon fill="midnightblue" stroke="midnightblue" points="365.1,-185.69 372.89,-178.51 362.32,-179.26 365.1,-185.69"/>
</g>
<!-- Node34&#45;&gt;Node30 -->
<g id="edge52" class="edge">
<title>Node34&#45;&gt;Node30</title>
<path fill="none" stroke="midnightblue" d="M278.73,-361.36C257.01,-341.42 221.51,-308.83 203.97,-292.74"/>
<polygon fill="midnightblue" stroke="midnightblue" points="276.58,-364.13 286.31,-368.32 281.31,-358.98 276.58,-364.13"/>
</g>
<!-- Node36 -->
<g id="node36" class="node">
<title>Node36</title>
<g id="a_node36"><a xlink:href="vi_8h.html#ae72255a31cec31233723c101d9465d07" target="_top" xlink:title=" ">
<polygon fill="white" stroke="black" points="593,-197.63 593,-216.63 649,-216.63 649,-197.63 593,-197.63"/>
<text text-anchor="middle" x="621" y="-204.63" font-family="Helvetica,sans-Serif" font-size="10.00">led_input</text>
</a>
</g>
</g>
<!-- Node35&#45;&gt;Node36 -->
<g id="edge54" class="edge">
<title>Node35&#45;&gt;Node36</title>
<path fill="none" stroke="midnightblue" d="M699.78,-207.13C683.52,-207.13 664.37,-207.13 649.13,-207.13"/>
<polygon fill="midnightblue" stroke="midnightblue" points="699.97,-210.63 709.97,-207.13 699.97,-203.63 699.97,-210.63"/>
</g>
<!-- Node38 -->
<g id="node38" class="node">
<title>Node38</title>
<g id="a_node38"><a xlink:href="vi_8h.html#a173bb468e1e2a066136316f98b49c108" target="_top" xlink:title=" ">
<polygon fill="white" stroke="black" points="588.5,-83.63 588.5,-102.63 653.5,-102.63 653.5,-83.63 588.5,-83.63"/>
<text text-anchor="middle" x="621" y="-90.63" font-family="Helvetica,sans-Serif" font-size="10.00">led_prompt</text>
</a>
</g>
</g>
<!-- Node35&#45;&gt;Node38 -->
<g id="edge58" class="edge">
<title>Node35&#45;&gt;Node38</title>
<path fill="none" stroke="midnightblue" d="M717.15,-189.98C693.31,-165.71 650.52,-122.15 631.52,-102.82"/>
<polygon fill="midnightblue" stroke="midnightblue" points="714.95,-192.73 724.45,-197.41 719.94,-187.82 714.95,-192.73"/>
</g>
<!-- Node37 -->
<g id="node37" class="node">
<title>Node37</title>
<g id="a_node37"><a xlink:href="vi_8c.html#a653f6b0359cef492e11f404c4bf469b9" target="_top" xlink:title=" ">
<polygon fill="white" stroke="black" points="475.5,-273.63 475.5,-292.63 525.5,-292.63 525.5,-273.63 475.5,-273.63"/>
<text text-anchor="middle" x="500.5" y="-280.63" font-family="Helvetica,sans-Serif" font-size="10.00">vi_input</text>
</a>
</g>
</g>
<!-- Node36&#45;&gt;Node37 -->
<g id="edge55" class="edge">
<title>Node36&#45;&gt;Node37</title>
<path fill="none" stroke="midnightblue" d="M596.52,-222.18C572.7,-237.46 536.53,-260.66 516.39,-273.58"/>
<polygon fill="midnightblue" stroke="midnightblue" points="598.46,-225.1 604.99,-216.75 594.68,-219.2 598.46,-225.1"/>
</g>
<!-- Node37&#45;&gt;Node25 -->
<g id="edge56" class="edge">
<title>Node37&#45;&gt;Node25</title>
<path fill="none" stroke="midnightblue" d="M467.15,-297.81C465.64,-299.14 464.24,-300.58 463,-302.13 402.56,-377.63 397.56,-503.66 397.41,-539.41"/>
<polygon fill="midnightblue" stroke="midnightblue" points="469.22,-300.63 475.4,-292.02 465.2,-294.91 469.22,-300.63"/>
</g>
<!-- Node37&#45;&gt;Node31 -->
<g id="edge57" class="edge">
<title>Node37&#45;&gt;Node31</title>
<path fill="none" stroke="midnightblue" d="M465.03,-283.13C452.8,-283.13 439.14,-283.13 427.33,-283.13"/>
<polygon fill="midnightblue" stroke="midnightblue" points="465.33,-286.63 475.33,-283.13 465.33,-279.63 465.33,-286.63"/>
</g>
<!-- Node39 -->
<g id="node39" class="node">
<title>Node39</title>
<g id="a_node39"><a xlink:href="vi_8h.html#a7ba56272fe1a7d523192729a0bb5edf7" target="_top" xlink:title=" ">
<polygon fill="white" stroke="black" points="475,-83.63 475,-102.63 526,-102.63 526,-83.63 475,-83.63"/>
<text text-anchor="middle" x="500.5" y="-90.63" font-family="Helvetica,sans-Serif" font-size="10.00">ex_read</text>
</a>
</g>
</g>
<!-- Node38&#45;&gt;Node39 -->
<g id="edge59" class="edge">
<title>Node38&#45;&gt;Node39</title>
<path fill="none" stroke="midnightblue" d="M577.81,-93.13C560.53,-93.13 541.12,-93.13 526.2,-93.13"/>
<polygon fill="midnightblue" stroke="midnightblue" points="578.24,-96.63 588.24,-93.13 578.24,-89.63 578.24,-96.63"/>
</g>
<!-- Node38&#45;&gt;Node41 -->
<g id="edge64" class="edge">
<title>Node38&#45;&gt;Node41</title>
<path fill="none" stroke="midnightblue" d="M580.23,-80.37C563.83,-75.11 545.19,-69.14 530.17,-64.32"/>
<polygon fill="midnightblue" stroke="midnightblue" points="579.51,-83.82 590.1,-83.54 581.64,-77.15 579.51,-83.82"/>
</g>
<!-- Node39&#45;&gt;Node14 -->
<g id="edge61" class="edge">
<title>Node39&#45;&gt;Node14</title>
<path fill="none" stroke="midnightblue" d="M465.42,-105.13C386.04,-133.81 192.73,-208.09 155,-264.13 102.36,-342.31 146.84,-383.07 119,-473.13 114.87,-486.5 107.79,-501.03 102.89,-510.34"/>
<polygon fill="midnightblue" stroke="midnightblue" points="466.73,-108.38 474.96,-101.7 464.36,-101.79 466.73,-108.38"/>
</g>
<!-- Node39&#45;&gt;Node21 -->
<g id="edge60" class="edge">
<title>Node39&#45;&gt;Node21</title>
<path fill="none" stroke="midnightblue" d="M488.24,-111.52C475.21,-131.85 452.27,-164.8 427,-188.13 423.24,-191.6 418.77,-194.84 414.46,-197.62"/>
<polygon fill="midnightblue" stroke="midnightblue" points="491.3,-113.23 493.66,-102.9 485.38,-109.51 491.3,-113.23"/>
</g>
<!-- Node40 -->
<g id="node40" class="node">
<title>Node40</title>
<g id="a_node40"><a xlink:href="vi_8c.html#a9d85e9ed087401367529ab86a5dbf0c5" target="_top" xlink:title=" ">
<polygon fill="white" stroke="black" points="169,-83.63 169,-102.63 216,-102.63 216,-83.63 169,-83.63"/>
<text text-anchor="middle" x="192.5" y="-90.63" font-family="Helvetica,sans-Serif" font-size="10.00">vi_wait</text>
</a>
</g>
</g>
<!-- Node39&#45;&gt;Node40 -->
<g id="edge62" class="edge">
<title>Node39&#45;&gt;Node40</title>
<path fill="none" stroke="midnightblue" d="M464.71,-93.13C401.38,-93.13 268.96,-93.13 216.05,-93.13"/>
<polygon fill="midnightblue" stroke="midnightblue" points="464.98,-96.63 474.98,-93.13 464.98,-89.63 464.98,-96.63"/>
</g>
<!-- Node40&#45;&gt;Node15 -->
<g id="edge63" class="edge">
<title>Node40&#45;&gt;Node15</title>
<path fill="none" stroke="midnightblue" d="M162.65,-108.58C159.73,-111.11 157.07,-113.96 155,-117.13 118.13,-173.51 101.44,-394.87 98.13,-444.3"/>
<polygon fill="midnightblue" stroke="midnightblue" points="164.81,-111.34 170.84,-102.63 160.69,-105.68 164.81,-111.34"/>
</g>
<!-- Node41&#45;&gt;Node15 -->
<g id="edge65" class="edge">
<title>Node41&#45;&gt;Node15</title>
<path fill="none" stroke="midnightblue" d="M468.6,-41.56C401.58,-14.46 241.9,37.11 155,-44.13 94.48,-100.7 96.33,-387.78 97.3,-444.42"/>
<polygon fill="midnightblue" stroke="midnightblue" points="467.59,-44.92 478.17,-45.51 470.26,-38.46 467.59,-44.92"/>
</g>
<!-- Node41&#45;&gt;Node33 -->
<g id="edge66" class="edge">
<title>Node41&#45;&gt;Node33</title>
<path fill="none" stroke="midnightblue" d="M467.87,-70.28C466.16,-71.5 464.53,-72.78 463,-74.13 434.02,-99.72 411.51,-140.72 402.18,-159.35"/>
<polygon fill="midnightblue" stroke="midnightblue" points="470.12,-73.01 476.78,-64.77 466.43,-67.05 470.12,-73.01"/>
</g>
<!-- Node42 -->
<g id="node42" class="node">
<title>Node42</title>
<g id="a_node42"><a xlink:href="vi_8c.html#a93701c59617d4f96cbaa207e89178f87" target="_top" xlink:title=" ">
<polygon fill="white" stroke="black" points="367,-45.63 367,-64.63 426,-64.63 426,-45.63 367,-45.63"/>
<text text-anchor="middle" x="396.5" y="-52.63" font-family="Helvetica,sans-Serif" font-size="10.00">vi_search</text>
</a>
</g>
</g>
<!-- Node41&#45;&gt;Node42 -->
<g id="edge67" class="edge">
<title>Node41&#45;&gt;Node42</title>
<path fill="none" stroke="midnightblue" d="M460.65,-55.13C449.25,-55.13 436.98,-55.13 426.32,-55.13"/>
<polygon fill="midnightblue" stroke="midnightblue" points="460.82,-58.63 470.82,-55.13 460.82,-51.63 460.82,-58.63"/>
</g>
<!-- Node43 -->
<g id="node43" class="node">
<title>Node43</title>
<g id="a_node43"><a xlink:href="vi_8c.html#aaa4777ea0715ea846346d0f27a0cfa3f" target="_top" xlink:title=" ">
<polygon fill="white" stroke="black" points="268.5,-45.63 268.5,-64.63 327.5,-64.63 327.5,-45.63 268.5,-45.63"/>
<text text-anchor="middle" x="298" y="-52.63" font-family="Helvetica,sans-Serif" font-size="10.00">vi_motion</text>
</a>
</g>
</g>
<!-- Node42&#45;&gt;Node43 -->
<g id="edge68" class="edge">
<title>Node42&#45;&gt;Node43</title>
<path fill="none" stroke="midnightblue" d="M356.62,-55.13C346.98,-55.13 336.81,-55.13 327.75,-55.13"/>
<polygon fill="midnightblue" stroke="midnightblue" points="356.81,-58.63 366.81,-55.13 356.81,-51.63 356.81,-58.63"/>
</g>
<!-- Node43&#45;&gt;Node15 -->
<g id="edge70" class="edge">
<title>Node43&#45;&gt;Node15</title>
<path fill="none" stroke="midnightblue" d="M258.12,-48.78C226.07,-45.93 181.69,-47.89 155,-74.13 100.4,-127.8 97.48,-390.64 97.47,-444.48"/>
<polygon fill="midnightblue" stroke="midnightblue" points="258.16,-52.3 268.47,-49.9 258.91,-45.34 258.16,-52.3"/>
</g>
<!-- Node43&#45;&gt;Node30 -->
<g id="edge69" class="edge">
<title>Node43&#45;&gt;Node30</title>
<path fill="none" stroke="midnightblue" d="M288.51,-73.84C267.47,-120.18 213.51,-239.04 197.83,-273.58"/>
<polygon fill="midnightblue" stroke="midnightblue" points="291.74,-75.19 292.68,-64.63 285.36,-72.29 291.74,-75.19"/>
</g>
</g>
</svg>
