<?xml version="1.0" encoding="UTF-8" standalone="no"?>
<!DOCTYPE svg PUBLIC "-//W3C//DTD SVG 1.1//EN"
 "http://www.w3.org/Graphics/SVG/1.1/DTD/svg11.dtd">
<!-- Generated by graphviz version 2.44.1 (20200629.0846)
 -->
<!-- Title: term_push Pages: 1 -->
<svg width="312pt" height="66pt"
 viewBox="0.00 0.00 312.00 66.00" xmlns="http://www.w3.org/2000/svg" xmlns:xlink="http://www.w3.org/1999/xlink">
<g id="graph0" class="graph" transform="scale(1 1) rotate(0) translate(4 62)">
<title>term_push</title>
<polygon fill="white" stroke="transparent" points="-4,4 -4,-62 308,-62 308,4 -4,4"/>
<!-- Node1 -->
<g id="node1" class="node">
<title>Node1</title>
<g id="a_node1"><a xlink:title=" ">
<polygon fill="#bfbfbf" stroke="black" points="242,-19.5 242,-38.5 304,-38.5 304,-19.5 242,-19.5"/>
<text text-anchor="middle" x="273" y="-26.5" font-family="Helvetica,sans-Serif" font-size="10.00">term_push</text>
</a>
</g>
</g>
<!-- Node2 -->
<g id="node2" class="node">
<title>Node2</title>
<g id="a_node2"><a xlink:href="vi_8c.html#a645d411d7e83bf0ebca310f731577a63" target="_top" xlink:title=" ">
<polygon fill="white" stroke="black" points="139,-38.5 139,-57.5 206,-57.5 206,-38.5 139,-38.5"/>
<text text-anchor="middle" x="172.5" y="-45.5" font-family="Helvetica,sans-Serif" font-size="10.00">vc_execute</text>
</a>
</g>
</g>
<!-- Node1&#45;&gt;Node2 -->
<g id="edge1" class="edge">
<title>Node1&#45;&gt;Node2</title>
<path fill="none" stroke="midnightblue" d="M232.05,-36.71C223.44,-38.37 214.44,-40.1 206.15,-41.7"/>
<polygon fill="midnightblue" stroke="midnightblue" points="232.76,-40.13 241.91,-34.8 231.43,-33.26 232.76,-40.13"/>
</g>
<!-- Node5 -->
<g id="node5" class="node">
<title>Node5</title>
<g id="a_node5"><a xlink:href="vi_8c.html#a7f161146880f82e49bf98758a03529e1" target="_top" xlink:title=" ">
<polygon fill="white" stroke="black" points="143,-0.5 143,-19.5 202,-19.5 202,-0.5 143,-0.5"/>
<text text-anchor="middle" x="172.5" y="-7.5" font-family="Helvetica,sans-Serif" font-size="10.00">vc_repeat</text>
</a>
</g>
</g>
<!-- Node1&#45;&gt;Node5 -->
<g id="edge4" class="edge">
<title>Node1&#45;&gt;Node5</title>
<path fill="none" stroke="midnightblue" d="M231.78,-21.24C221.81,-19.32 211.34,-17.3 202.06,-15.51"/>
<polygon fill="midnightblue" stroke="midnightblue" points="231.43,-24.74 241.91,-23.2 232.76,-17.87 231.43,-24.74"/>
</g>
<!-- Node3 -->
<g id="node3" class="node">
<title>Node3</title>
<g id="a_node3"><a xlink:href="vi_8c.html#a8d808e0f3453afe6600673ee1ea5f828" target="_top" xlink:title=" ">
<polygon fill="white" stroke="black" points="74,-19.5 74,-38.5 103,-38.5 103,-19.5 74,-19.5"/>
<text text-anchor="middle" x="88.5" y="-26.5" font-family="Helvetica,sans-Serif" font-size="10.00">vi</text>
</a>
</g>
</g>
<!-- Node2&#45;&gt;Node3 -->
<g id="edge2" class="edge">
<title>Node2&#45;&gt;Node3</title>
<path fill="none" stroke="midnightblue" d="M128.69,-38.08C119.51,-35.95 110.44,-33.85 103.35,-32.21"/>
<polygon fill="midnightblue" stroke="midnightblue" points="128.09,-41.53 138.62,-40.38 129.67,-34.71 128.09,-41.53"/>
</g>
<!-- Node4 -->
<g id="node4" class="node">
<title>Node4</title>
<g id="a_node4"><a xlink:href="vi_8c.html#a0ddf1224851353fc92bfbff6f499fa97" target="_top" xlink:title=" ">
<polygon fill="white" stroke="black" points="0,-19.5 0,-38.5 38,-38.5 38,-19.5 0,-19.5"/>
<text text-anchor="middle" x="19" y="-26.5" font-family="Helvetica,sans-Serif" font-size="10.00">main</text>
</a>
</g>
</g>
<!-- Node3&#45;&gt;Node4 -->
<g id="edge3" class="edge">
<title>Node3&#45;&gt;Node4</title>
<path fill="none" stroke="midnightblue" d="M63.58,-29C55.25,-29 46.04,-29 38.25,-29"/>
<polygon fill="midnightblue" stroke="midnightblue" points="63.84,-32.5 73.84,-29 63.84,-25.5 63.84,-32.5"/>
</g>
<!-- Node5&#45;&gt;Node3 -->
<g id="edge5" class="edge">
<title>Node5&#45;&gt;Node3</title>
<path fill="none" stroke="midnightblue" d="M132.77,-18.97C122.13,-21.44 111.28,-23.95 103.1,-25.85"/>
<polygon fill="midnightblue" stroke="midnightblue" points="133.87,-22.31 142.82,-16.65 132.29,-15.49 133.87,-22.31"/>
</g>
</g>
</svg>
