<?xml version="1.0" encoding="UTF-8" standalone="no"?>
<!DOCTYPE svg PUBLIC "-//W3C//DTD SVG 1.1//EN"
 "http://www.w3.org/Graphics/SVG/1.1/DTD/svg11.dtd">
<!-- Generated by graphviz version 2.44.1 (20200629.0846)
 -->
<!-- Title: vi_back Pages: 1 -->
<svg width="494pt" height="155pt"
 viewBox="0.00 0.00 494.00 155.02" xmlns="http://www.w3.org/2000/svg" xmlns:xlink="http://www.w3.org/1999/xlink">
<g id="graph0" class="graph" transform="scale(1 1) rotate(0) translate(4 151.02)">
<title>vi_back</title>
<polygon fill="white" stroke="transparent" points="-4,4 -4,-151.02 490,-151.02 490,4 -4,4"/>
<!-- Node1 -->
<g id="node1" class="node">
<title>Node1</title>
<g id="a_node1"><a xlink:title=" ">
<polygon fill="#bfbfbf" stroke="black" points="436,-76.5 436,-95.5 486,-95.5 486,-76.5 436,-76.5"/>
<text text-anchor="middle" x="461" y="-83.5" font-family="Helvetica,sans-Serif" font-size="10.00">vi_back</text>
</a>
</g>
</g>
<!-- Node2 -->
<g id="node2" class="node">
<title>Node2</title>
<g id="a_node2"><a xlink:href="vi_8c.html#a8d808e0f3453afe6600673ee1ea5f828" target="_top" xlink:title=" ">
<polygon fill="white" stroke="black" points="74,-76.5 74,-95.5 103,-95.5 103,-76.5 74,-76.5"/>
<text text-anchor="middle" x="88.5" y="-83.5" font-family="Helvetica,sans-Serif" font-size="10.00">vi</text>
</a>
</g>
</g>
<!-- Node1&#45;&gt;Node2 -->
<g id="edge1" class="edge">
<title>Node1&#45;&gt;Node2</title>
<path fill="none" stroke="midnightblue" d="M439.7,-101.6C428.54,-109.45 414.13,-118.45 400,-124 332.94,-150.35 310.77,-149.41 239,-143 194.02,-138.98 180.18,-143.53 139,-125 123.24,-117.91 108.07,-104.71 98.78,-95.65"/>
<polygon fill="midnightblue" stroke="midnightblue" points="441.86,-104.36 447.88,-95.65 437.74,-98.7 441.86,-104.36"/>
</g>
<!-- Node4 -->
<g id="node4" class="node">
<title>Node4</title>
<g id="a_node4"><a xlink:href="vi_8c.html#aaa4777ea0715ea846346d0f27a0cfa3f" target="_top" xlink:title=" ">
<polygon fill="white" stroke="black" points="239,-114.5 239,-133.5 298,-133.5 298,-114.5 239,-114.5"/>
<text text-anchor="middle" x="268.5" y="-121.5" font-family="Helvetica,sans-Serif" font-size="10.00">vi_motion</text>
</a>
</g>
</g>
<!-- Node1&#45;&gt;Node4 -->
<g id="edge3" class="edge">
<title>Node1&#45;&gt;Node4</title>
<path fill="none" stroke="midnightblue" d="M426.15,-97.77C417.69,-100.42 408.57,-103.03 400,-105 365.3,-112.96 324.61,-118.26 298,-121.2"/>
<polygon fill="midnightblue" stroke="midnightblue" points="427.29,-101.08 435.73,-94.67 425.13,-94.42 427.29,-101.08"/>
</g>
<!-- Node6 -->
<g id="node6" class="node">
<title>Node6</title>
<g id="a_node6"><a xlink:href="vi_8c.html#acf58ed4f9b3a9a6e3d56f397eeb04aee" target="_top" xlink:title=" ">
<polygon fill="white" stroke="black" points="334,-76.5 334,-95.5 400,-95.5 400,-76.5 334,-76.5"/>
<text text-anchor="middle" x="367" y="-83.5" font-family="Helvetica,sans-Serif" font-size="10.00">vi_motionln</text>
</a>
</g>
</g>
<!-- Node1&#45;&gt;Node6 -->
<g id="edge7" class="edge">
<title>Node1&#45;&gt;Node6</title>
<path fill="none" stroke="midnightblue" d="M425.69,-86C417.38,-86 408.53,-86 400.31,-86"/>
<polygon fill="midnightblue" stroke="midnightblue" points="425.83,-89.5 435.83,-86 425.83,-82.5 425.83,-89.5"/>
</g>
<!-- Node7 -->
<g id="node7" class="node">
<title>Node7</title>
<g id="a_node7"><a xlink:href="vi_8c.html#a1ce3135fabc2e901d51574b21feecaa1" target="_top" xlink:title=" ">
<polygon fill="white" stroke="black" points="242,-38.5 242,-57.5 295,-57.5 295,-38.5 242,-38.5"/>
<text text-anchor="middle" x="268.5" y="-45.5" font-family="Helvetica,sans-Serif" font-size="10.00">vi_prefix</text>
</a>
</g>
</g>
<!-- Node1&#45;&gt;Node7 -->
<g id="edge10" class="edge">
<title>Node1&#45;&gt;Node7</title>
<path fill="none" stroke="midnightblue" d="M426.15,-74.23C417.69,-71.58 408.57,-68.97 400,-67 364.07,-58.75 321.72,-53.36 295.23,-50.5"/>
<polygon fill="midnightblue" stroke="midnightblue" points="425.13,-77.58 435.73,-77.33 427.29,-70.92 425.13,-77.58"/>
</g>
<!-- Node8 -->
<g id="node8" class="node">
<title>Node8</title>
<g id="a_node8"><a xlink:href="vi_8c.html#a5a0eb4f7849bc6c82e2b4d449e7ff0be" target="_top" xlink:title=" ">
<polygon fill="white" stroke="black" points="139,-0.5 139,-19.5 203,-19.5 203,-0.5 139,-0.5"/>
<text text-anchor="middle" x="171" y="-7.5" font-family="Helvetica,sans-Serif" font-size="10.00">vi_yankbuf</text>
</a>
</g>
</g>
<!-- Node1&#45;&gt;Node8 -->
<g id="edge13" class="edge">
<title>Node1&#45;&gt;Node8</title>
<path fill="none" stroke="midnightblue" d="M437.83,-70.8C426.86,-63.88 413.17,-56.11 400,-51 332.89,-24.95 248.16,-15.28 203.26,-11.83"/>
<polygon fill="midnightblue" stroke="midnightblue" points="436.04,-73.81 446.33,-76.33 439.86,-67.95 436.04,-73.81"/>
</g>
<!-- Node3 -->
<g id="node3" class="node">
<title>Node3</title>
<g id="a_node3"><a xlink:href="vi_8c.html#a0ddf1224851353fc92bfbff6f499fa97" target="_top" xlink:title=" ">
<polygon fill="white" stroke="black" points="0,-76.5 0,-95.5 38,-95.5 38,-76.5 0,-76.5"/>
<text text-anchor="middle" x="19" y="-83.5" font-family="Helvetica,sans-Serif" font-size="10.00">main</text>
</a>
</g>
</g>
<!-- Node2&#45;&gt;Node3 -->
<g id="edge2" class="edge">
<title>Node2&#45;&gt;Node3</title>
<path fill="none" stroke="midnightblue" d="M63.58,-86C55.25,-86 46.04,-86 38.25,-86"/>
<polygon fill="midnightblue" stroke="midnightblue" points="63.84,-89.5 73.84,-86 63.84,-82.5 63.84,-89.5"/>
</g>
<!-- Node4&#45;&gt;Node2 -->
<g id="edge6" class="edge">
<title>Node4&#45;&gt;Node2</title>
<path fill="none" stroke="midnightblue" d="M228.7,-120.51C202.97,-117.65 168.62,-112.77 139,-105 126.53,-101.73 112.9,-96.35 103.1,-92.15"/>
<polygon fill="midnightblue" stroke="midnightblue" points="228.5,-124.01 238.81,-121.58 229.24,-117.04 228.5,-124.01"/>
</g>
<!-- Node5 -->
<g id="node5" class="node">
<title>Node5</title>
<g id="a_node5"><a xlink:href="vi_8c.html#a06cbc6eb843436a0e77e07cbab0c4538" target="_top" xlink:title=" ">
<polygon fill="white" stroke="black" points="140,-76.5 140,-95.5 202,-95.5 202,-76.5 140,-76.5"/>
<text text-anchor="middle" x="171" y="-83.5" font-family="Helvetica,sans-Serif" font-size="10.00">vc_motion</text>
</a>
</g>
</g>
<!-- Node4&#45;&gt;Node5 -->
<g id="edge4" class="edge">
<title>Node4&#45;&gt;Node5</title>
<path fill="none" stroke="midnightblue" d="M233.79,-110.59C221.35,-105.64 207.51,-100.13 196.09,-95.59"/>
<polygon fill="midnightblue" stroke="midnightblue" points="232.82,-113.97 243.4,-114.41 235.4,-107.46 232.82,-113.97"/>
</g>
<!-- Node5&#45;&gt;Node2 -->
<g id="edge5" class="edge">
<title>Node5&#45;&gt;Node2</title>
<path fill="none" stroke="midnightblue" d="M129.45,-86C120.04,-86 110.65,-86 103.34,-86"/>
<polygon fill="midnightblue" stroke="midnightblue" points="129.57,-89.5 139.57,-86 129.57,-82.5 129.57,-89.5"/>
</g>
<!-- Node6&#45;&gt;Node4 -->
<g id="edge9" class="edge">
<title>Node6&#45;&gt;Node4</title>
<path fill="none" stroke="midnightblue" d="M332.32,-99.26C319.65,-104.25 305.5,-109.82 293.84,-114.41"/>
<polygon fill="midnightblue" stroke="midnightblue" points="333.63,-102.51 341.65,-95.59 331.06,-96 333.63,-102.51"/>
</g>
<!-- Node6&#45;&gt;Node5 -->
<g id="edge8" class="edge">
<title>Node6&#45;&gt;Node5</title>
<path fill="none" stroke="midnightblue" d="M323.58,-86C286.89,-86 234.74,-86 202.17,-86"/>
<polygon fill="midnightblue" stroke="midnightblue" points="323.96,-89.5 333.96,-86 323.96,-82.5 323.96,-89.5"/>
</g>
<!-- Node7&#45;&gt;Node2 -->
<g id="edge12" class="edge">
<title>Node7&#45;&gt;Node2</title>
<path fill="none" stroke="midnightblue" d="M231.42,-51.19C205.42,-54.01 169.67,-58.95 139,-67 126.53,-70.27 112.9,-75.65 103.1,-79.85"/>
<polygon fill="midnightblue" stroke="midnightblue" points="231.98,-54.65 241.57,-50.15 231.26,-47.69 231.98,-54.65"/>
</g>
<!-- Node7&#45;&gt;Node5 -->
<g id="edge11" class="edge">
<title>Node7&#45;&gt;Node5</title>
<path fill="none" stroke="midnightblue" d="M233.79,-61.41C221.35,-66.36 207.51,-71.87 196.09,-76.41"/>
<polygon fill="midnightblue" stroke="midnightblue" points="235.4,-64.54 243.4,-57.59 232.82,-58.03 235.4,-64.54"/>
</g>
<!-- Node8&#45;&gt;Node2 -->
<g id="edge14" class="edge">
<title>Node8&#45;&gt;Node2</title>
<path fill="none" stroke="midnightblue" d="M148.67,-25.83C145.36,-28.48 142.04,-31.26 139,-34 123.64,-47.87 107.39,-65.61 97.86,-76.38"/>
<polygon fill="midnightblue" stroke="midnightblue" points="150.92,-28.51 156.67,-19.62 146.63,-22.98 150.92,-28.51"/>
</g>
</g>
</svg>
