<?xml version="1.0" encoding="UTF-8" standalone="no"?>
<!DOCTYPE svg PUBLIC "-//W3C//DTD SVG 1.1//EN"
 "http://www.w3.org/Graphics/SVG/1.1/DTD/svg11.dtd">
<!-- Generated by graphviz version 2.44.1 (20200629.0846)
 -->
<!-- Title: ren_off Pages: 1 -->
<svg width="1197pt" height="360pt"
 viewBox="0.00 0.00 1197.00 360.00" xmlns="http://www.w3.org/2000/svg" xmlns:xlink="http://www.w3.org/1999/xlink">
<g id="graph0" class="graph" transform="scale(1 1) rotate(0) translate(4 356)">
<title>ren_off</title>
<polygon fill="white" stroke="transparent" points="-4,4 -4,-356 1193,-356 1193,4 -4,4"/>
<!-- Node1 -->
<g id="node1" class="node">
<title>Node1</title>
<g id="a_node1"><a xlink:title=" ">
<polygon fill="#bfbfbf" stroke="black" points="0,-83.5 0,-102.5 47,-102.5 47,-83.5 0,-83.5"/>
<text text-anchor="middle" x="23.5" y="-90.5" font-family="Helvetica,sans-Serif" font-size="10.00">ren_off</text>
</a>
</g>
</g>
<!-- Node2 -->
<g id="node2" class="node">
<title>Node2</title>
<g id="a_node2"><a xlink:href="ren_8c.html#af4201a7e1018cbf68ff5e009005ff8bd" target="_top" xlink:title=" ">
<polygon fill="white" stroke="black" points="89.5,-121.5 89.5,-140.5 145.5,-140.5 145.5,-121.5 89.5,-121.5"/>
<text text-anchor="middle" x="117.5" y="-128.5" font-family="Helvetica,sans-Serif" font-size="10.00">pos_prev</text>
</a>
</g>
</g>
<!-- Node1&#45;&gt;Node2 -->
<g id="edge1" class="edge">
<title>Node1&#45;&gt;Node2</title>
<path fill="none" stroke="midnightblue" d="M47.24,-102.39C58.33,-106.97 71.86,-112.56 84.01,-117.58"/>
<polygon fill="midnightblue" stroke="midnightblue" points="82.8,-120.87 93.38,-121.45 85.47,-114.4 82.8,-120.87"/>
</g>
<!-- Node3 -->
<g id="node3" class="node">
<title>Node3</title>
<g id="a_node3"><a xlink:href="ren_8c.html#af6e197881adec94ce251c84adf3dd495" target="_top" xlink:title=" ">
<polygon fill="white" stroke="black" points="83,-83.5 83,-102.5 152,-102.5 152,-83.5 83,-83.5"/>
<text text-anchor="middle" x="117.5" y="-90.5" font-family="Helvetica,sans-Serif" font-size="10.00">ren_position</text>
</a>
</g>
</g>
<!-- Node1&#45;&gt;Node3 -->
<g id="edge2" class="edge">
<title>Node1&#45;&gt;Node3</title>
<path fill="none" stroke="midnightblue" d="M47.24,-93C54.97,-93 63.88,-93 72.69,-93"/>
<polygon fill="midnightblue" stroke="midnightblue" points="72.9,-96.5 82.9,-93 72.9,-89.5 72.9,-96.5"/>
</g>
<!-- Node31 -->
<g id="node31" class="node">
<title>Node31</title>
<g id="a_node31"><a xlink:href="uc_8c.html#a8afd7835259109c3ec7bb684d4a1f67f" target="_top" xlink:title=" ">
<polygon fill="white" stroke="black" points="428.5,-0.5 428.5,-19.5 478.5,-19.5 478.5,-0.5 428.5,-0.5"/>
<text text-anchor="middle" x="453.5" y="-7.5" font-family="Helvetica,sans-Serif" font-size="10.00">uc_slen</text>
</a>
</g>
</g>
<!-- Node1&#45;&gt;Node31 -->
<g id="edge42" class="edge">
<title>Node1&#45;&gt;Node31</title>
<path fill="none" stroke="midnightblue" d="M47.06,-84.84C57.84,-81.16 70.98,-76.98 83,-74 204.82,-43.83 352.69,-22.81 418.3,-14.26"/>
<polygon fill="midnightblue" stroke="midnightblue" points="419.01,-17.7 428.48,-12.95 418.11,-10.76 419.01,-17.7"/>
</g>
<!-- Node4 -->
<g id="node4" class="node">
<title>Node4</title>
<g id="a_node4"><a xlink:href="dir_8c.html#a8703d559ca9c640b8b89c589cf75ac06" target="_top" xlink:title=" ">
<polygon fill="white" stroke="black" points="188,-105.5 188,-124.5 250,-124.5 250,-105.5 188,-105.5"/>
<text text-anchor="middle" x="219" y="-112.5" font-family="Helvetica,sans-Serif" font-size="10.00">dir_reorder</text>
</a>
</g>
</g>
<!-- Node3&#45;&gt;Node4 -->
<g id="edge3" class="edge">
<title>Node3&#45;&gt;Node4</title>
<path fill="none" stroke="midnightblue" d="M152.19,-100.45C160.45,-102.28 169.38,-104.25 177.92,-106.14"/>
<polygon fill="midnightblue" stroke="midnightblue" points="177.17,-109.56 187.69,-108.3 178.68,-102.72 177.17,-109.56"/>
</g>
<!-- Node30 -->
<g id="node30" class="node">
<title>Node30</title>
<g id="a_node30"><a xlink:href="uc_8c.html#a1764c4d0fa27bca336e5ca300ad969e7" target="_top" xlink:title=" ">
<polygon fill="white" stroke="black" points="304.5,-62.5 304.5,-81.5 357.5,-81.5 357.5,-62.5 304.5,-62.5"/>
<text text-anchor="middle" x="331" y="-69.5" font-family="Helvetica,sans-Serif" font-size="10.00">uc_chop</text>
</a>
</g>
</g>
<!-- Node3&#45;&gt;Node30 -->
<g id="edge41" class="edge">
<title>Node3&#45;&gt;Node30</title>
<path fill="none" stroke="midnightblue" d="M152.01,-89.67C190.83,-85.82 254.51,-79.5 294.25,-75.55"/>
<polygon fill="midnightblue" stroke="midnightblue" points="294.69,-79.02 304.29,-74.55 294,-72.06 294.69,-79.02"/>
</g>
<!-- Node32 -->
<g id="node32" class="node">
<title>Node32</title>
<g id="a_node32"><a xlink:href="ren_8c.html#a319a71758607f19d2beedd2bd4d3b369" target="_top" xlink:title=" ">
<polygon fill="white" stroke="black" points="191,-206.5 191,-225.5 247,-225.5 247,-206.5 191,-206.5"/>
<text text-anchor="middle" x="219" y="-213.5" font-family="Helvetica,sans-Serif" font-size="10.00">ren_cwid</text>
</a>
</g>
</g>
<!-- Node3&#45;&gt;Node32 -->
<g id="edge38" class="edge">
<title>Node3&#45;&gt;Node32</title>
<path fill="none" stroke="midnightblue" d="M139.09,-102.57C143.64,-105.24 148.22,-108.4 152,-112 178.33,-137.06 198.79,-174.69 209.57,-197.15"/>
<polygon fill="midnightblue" stroke="midnightblue" points="206.44,-198.71 213.83,-206.3 212.78,-195.76 206.44,-198.71"/>
</g>
<!-- Node5 -->
<g id="node5" class="node">
<title>Node5</title>
<g id="a_node5"><a xlink:href="dir_8c.html#aba0a553010578626d7148da2b6551321" target="_top" xlink:title=" ">
<polygon fill="white" stroke="black" points="298.5,-168.5 298.5,-187.5 363.5,-187.5 363.5,-168.5 298.5,-168.5"/>
<text text-anchor="middle" x="331" y="-175.5" font-family="Helvetica,sans-Serif" font-size="10.00">dir_context</text>
</a>
</g>
</g>
<!-- Node4&#45;&gt;Node5 -->
<g id="edge4" class="edge">
<title>Node4&#45;&gt;Node5</title>
<path fill="none" stroke="midnightblue" d="M236.71,-124.57C254.64,-134.84 283.34,-151.28 304.18,-163.21"/>
<polygon fill="midnightblue" stroke="midnightblue" points="302.72,-166.41 313.14,-168.34 306.2,-160.33 302.72,-166.41"/>
</g>
<!-- Node18 -->
<g id="node18" class="node">
<title>Node18</title>
<g id="a_node18"><a xlink:href="dir_8c.html#a8dbcb1db32888e71e2702f7173e7cba4" target="_top" xlink:title=" ">
<polygon fill="white" stroke="black" points="309.5,-109.5 309.5,-128.5 352.5,-128.5 352.5,-109.5 309.5,-109.5"/>
<text text-anchor="middle" x="331" y="-116.5" font-family="Helvetica,sans-Serif" font-size="10.00">dir_fix</text>
</a>
</g>
</g>
<!-- Node4&#45;&gt;Node18 -->
<g id="edge20" class="edge">
<title>Node4&#45;&gt;Node18</title>
<path fill="none" stroke="midnightblue" d="M250.06,-116.09C265.36,-116.65 283.92,-117.32 299.31,-117.88"/>
<polygon fill="midnightblue" stroke="midnightblue" points="299.25,-121.38 309.37,-118.25 299.51,-114.39 299.25,-121.38"/>
</g>
<!-- Node4&#45;&gt;Node30 -->
<g id="edge34" class="edge">
<title>Node4&#45;&gt;Node30</title>
<path fill="none" stroke="midnightblue" d="M244.41,-105.46C259.65,-99.5 279.48,-91.75 296.22,-85.21"/>
<polygon fill="midnightblue" stroke="midnightblue" points="297.62,-88.42 305.66,-81.52 295.07,-81.9 297.62,-88.42"/>
</g>
<!-- Node6 -->
<g id="node6" class="node">
<title>Node6</title>
<g id="a_node6"><a xlink:href="conf_8c.html#a9e1bc5ed600c151c51d8e2342454e07c" target="_top" xlink:title=" ">
<polygon fill="white" stroke="black" points="412,-228.5 412,-247.5 495,-247.5 495,-228.5 412,-228.5"/>
<text text-anchor="middle" x="453.5" y="-235.5" font-family="Helvetica,sans-Serif" font-size="10.00">conf_dircontext</text>
</a>
</g>
</g>
<!-- Node5&#45;&gt;Node6 -->
<g id="edge5" class="edge">
<title>Node5&#45;&gt;Node6</title>
<path fill="none" stroke="midnightblue" d="M355.46,-187.69C362.15,-190.58 369.41,-193.82 376,-197 393.14,-205.28 411.99,-215.37 426.7,-223.47"/>
<polygon fill="midnightblue" stroke="midnightblue" points="425.25,-226.67 435.7,-228.47 428.65,-220.55 425.25,-226.67"/>
</g>
<!-- Node7 -->
<g id="node7" class="node">
<title>Node7</title>
<g id="a_node7"><a xlink:href="rset_8c.html#a389ec5abca88adc048a058744f2373eb" target="_top" xlink:title=" ">
<polygon fill="white" stroke="black" points="540.5,-304.5 540.5,-323.5 594.5,-323.5 594.5,-304.5 540.5,-304.5"/>
<text text-anchor="middle" x="567.5" y="-311.5" font-family="Helvetica,sans-Serif" font-size="10.00">rset_find</text>
</a>
</g>
</g>
<!-- Node5&#45;&gt;Node7 -->
<g id="edge6" class="edge">
<title>Node5&#45;&gt;Node7</title>
<path fill="none" stroke="midnightblue" d="M363.75,-178.21C399.45,-180.05 457.34,-188.08 495,-219 523.89,-242.72 505.23,-267.93 531,-295 532.19,-296.25 533.49,-297.44 534.85,-298.57"/>
<polygon fill="midnightblue" stroke="midnightblue" points="533,-301.54 543.22,-304.31 536.96,-295.77 533,-301.54"/>
</g>
<!-- Node8 -->
<g id="node8" class="node">
<title>Node8</title>
<g id="a_node8"><a xlink:href="regex_8c.html#aa085ccd05ec25e3f8053850aebc50fe3" target="_top" xlink:title=" ">
<polygon fill="white" stroke="black" points="649.5,-304.5 649.5,-323.5 700.5,-323.5 700.5,-304.5 649.5,-304.5"/>
<text text-anchor="middle" x="675" y="-311.5" font-family="Helvetica,sans-Serif" font-size="10.00">regexec</text>
</a>
</g>
</g>
<!-- Node7&#45;&gt;Node8 -->
<g id="edge7" class="edge">
<title>Node7&#45;&gt;Node8</title>
<path fill="none" stroke="midnightblue" d="M594.58,-314C608.03,-314 624.63,-314 639.16,-314"/>
<polygon fill="midnightblue" stroke="midnightblue" points="639.31,-317.5 649.31,-314 639.31,-310.5 639.31,-317.5"/>
</g>
<!-- Node9 -->
<g id="node9" class="node">
<title>Node9</title>
<g id="a_node9"><a xlink:href="regex_8c.html#aa5925e49bd18112bb37421dbde29162a" target="_top" xlink:title=" ">
<polygon fill="white" stroke="black" points="746,-266.5 746,-285.5 817,-285.5 817,-266.5 746,-266.5"/>
<text text-anchor="middle" x="781.5" y="-273.5" font-family="Helvetica,sans-Serif" font-size="10.00">re_recmatch</text>
</a>
</g>
</g>
<!-- Node8&#45;&gt;Node9 -->
<g id="edge8" class="edge">
<title>Node8&#45;&gt;Node9</title>
<path fill="none" stroke="midnightblue" d="M700.5,-305.09C713.64,-300.31 730.07,-294.34 744.62,-289.05"/>
<polygon fill="midnightblue" stroke="midnightblue" points="746.12,-292.22 754.33,-285.52 743.73,-285.65 746.12,-292.22"/>
</g>
<!-- Node15 -->
<g id="node15" class="node">
<title>Node15</title>
<g id="a_node15"><a xlink:href="regex_8c.html#a9a0d6d5f93f1eaba8b63b16903c0952d" target="_top" xlink:title=" ">
<polygon fill="white" stroke="black" points="1142.5,-304.5 1142.5,-323.5 1187.5,-323.5 1187.5,-304.5 1142.5,-304.5"/>
<text text-anchor="middle" x="1165" y="-311.5" font-family="Helvetica,sans-Serif" font-size="10.00">uc_len</text>
</a>
</g>
</g>
<!-- Node8&#45;&gt;Node15 -->
<g id="edge19" class="edge">
<title>Node8&#45;&gt;Node15</title>
<path fill="none" stroke="midnightblue" d="M700.71,-321.87C737.9,-333 810.65,-352 874,-352 874,-352 874,-352 971,-352 1028.75,-352 1094.42,-335.42 1132.34,-324.16"/>
<polygon fill="midnightblue" stroke="midnightblue" points="1133.73,-327.4 1142.28,-321.15 1131.69,-320.7 1133.73,-327.4"/>
</g>
<!-- Node10 -->
<g id="node10" class="node">
<title>Node10</title>
<g id="a_node10"><a xlink:href="regex_8c.html#a8e35614ddf21d405773327a52a95a73d" target="_top" xlink:title=" ">
<polygon fill="white" stroke="black" points="853,-256.5 853,-275.5 897,-275.5 897,-256.5 853,-256.5"/>
<text text-anchor="middle" x="875" y="-263.5" font-family="Helvetica,sans-Serif" font-size="10.00">re_rec</text>
</a>
</g>
</g>
<!-- Node9&#45;&gt;Node10 -->
<g id="edge9" class="edge">
<title>Node9&#45;&gt;Node10</title>
<path fill="none" stroke="midnightblue" d="M817.09,-272.22C825.56,-271.29 834.57,-270.31 842.87,-269.4"/>
<polygon fill="midnightblue" stroke="midnightblue" points="843.34,-272.87 852.9,-268.31 842.58,-265.91 843.34,-272.87"/>
</g>
<!-- Node11 -->
<g id="node11" class="node">
<title>Node11</title>
<g id="a_node11"><a xlink:href="regex_8c.html#a24fd1fc7457ff4f03fb384f7170ac395" target="_top" xlink:title=" ">
<polygon fill="white" stroke="black" points="933,-237.5 933,-256.5 1007,-256.5 1007,-237.5 933,-237.5"/>
<text text-anchor="middle" x="970" y="-244.5" font-family="Helvetica,sans-Serif" font-size="10.00">ratom_match</text>
</a>
</g>
</g>
<!-- Node10&#45;&gt;Node11 -->
<g id="edge10" class="edge">
<title>Node10&#45;&gt;Node11</title>
<path fill="none" stroke="midnightblue" d="M897.1,-261.69C904.73,-260.13 913.68,-258.3 922.63,-256.47"/>
<polygon fill="midnightblue" stroke="midnightblue" points="923.55,-259.86 932.65,-254.43 922.15,-253 923.55,-259.86"/>
</g>
<!-- Node12 -->
<g id="node12" class="node">
<title>Node12</title>
<g id="a_node12"><a xlink:href="regex_8c.html#aae17ed73e84075718fb04d131d6ca779" target="_top" xlink:title=" ">
<polygon fill="white" stroke="black" points="1043,-266.5 1043,-285.5 1105,-285.5 1105,-266.5 1043,-266.5"/>
<text text-anchor="middle" x="1074" y="-273.5" font-family="Helvetica,sans-Serif" font-size="10.00">brk_match</text>
</a>
</g>
</g>
<!-- Node11&#45;&gt;Node12 -->
<g id="edge11" class="edge">
<title>Node11&#45;&gt;Node12</title>
<path fill="none" stroke="midnightblue" d="M1004.68,-256.58C1013.72,-259.14 1023.57,-261.95 1032.92,-264.6"/>
<polygon fill="midnightblue" stroke="midnightblue" points="1032.22,-268.04 1042.79,-267.41 1034.13,-261.31 1032.22,-268.04"/>
</g>
<!-- Node14 -->
<g id="node14" class="node">
<title>Node14</title>
<g id="a_node14"><a xlink:href="regex_8c.html#aaf73cdb88048e7f9fd588eb8d5aeb5a3" target="_top" xlink:title=" ">
<polygon fill="white" stroke="black" points="1141,-228.5 1141,-247.5 1189,-247.5 1189,-228.5 1141,-228.5"/>
<text text-anchor="middle" x="1165" y="-235.5" font-family="Helvetica,sans-Serif" font-size="10.00">uc_dec</text>
</a>
</g>
</g>
<!-- Node11&#45;&gt;Node14 -->
<g id="edge17" class="edge">
<title>Node11&#45;&gt;Node14</title>
<path fill="none" stroke="midnightblue" d="M1007.3,-245.31C1042.83,-243.65 1096.48,-241.15 1130.87,-239.54"/>
<polygon fill="midnightblue" stroke="midnightblue" points="1131.06,-243.04 1140.89,-239.08 1130.73,-236.05 1131.06,-243.04"/>
</g>
<!-- Node11&#45;&gt;Node15 -->
<g id="edge18" class="edge">
<title>Node11&#45;&gt;Node15</title>
<path fill="none" stroke="midnightblue" d="M982.34,-256.87C995.83,-268.02 1019.49,-285.83 1043,-295 1071.95,-306.29 1107.27,-310.88 1132.26,-312.74"/>
<polygon fill="midnightblue" stroke="midnightblue" points="1132.09,-316.24 1142.29,-313.39 1132.54,-309.25 1132.09,-316.24"/>
</g>
<!-- Node16 -->
<g id="node16" class="node">
<title>Node16</title>
<g id="a_node16"><a xlink:href="regex_8c.html#a35ad3fd0dbb795e6f30404ce86a7be5b" target="_top" xlink:title=" ">
<polygon fill="white" stroke="black" points="1051.5,-190.5 1051.5,-209.5 1096.5,-209.5 1096.5,-190.5 1051.5,-190.5"/>
<text text-anchor="middle" x="1074" y="-197.5" font-family="Helvetica,sans-Serif" font-size="10.00">isword</text>
</a>
</g>
</g>
<!-- Node11&#45;&gt;Node16 -->
<g id="edge15" class="edge">
<title>Node11&#45;&gt;Node16</title>
<path fill="none" stroke="midnightblue" d="M991.64,-237.49C1006.34,-230.72 1026.32,-221.51 1042.8,-213.91"/>
<polygon fill="midnightblue" stroke="midnightblue" points="1044.42,-217.02 1052.04,-209.66 1041.49,-210.66 1044.42,-217.02"/>
</g>
<!-- Node17 -->
<g id="node17" class="node">
<title>Node17</title>
<g id="a_node17"><a xlink:href="regex_8c.html#ade3e10606e6e8866e6151fe8440d6101" target="_top" xlink:title=" ">
<polygon fill="white" stroke="black" points="1050,-152.5 1050,-171.5 1098,-171.5 1098,-152.5 1050,-152.5"/>
<text text-anchor="middle" x="1074" y="-159.5" font-family="Helvetica,sans-Serif" font-size="10.00">uc_beg</text>
</a>
</g>
</g>
<!-- Node11&#45;&gt;Node17 -->
<g id="edge16" class="edge">
<title>Node11&#45;&gt;Node17</title>
<path fill="none" stroke="midnightblue" d="M980.3,-237.46C993.58,-224.09 1019.03,-199.34 1043,-181 1044.62,-179.76 1046.31,-178.53 1048.04,-177.32"/>
<polygon fill="midnightblue" stroke="midnightblue" points="1050.36,-179.99 1056.76,-171.55 1046.49,-174.15 1050.36,-179.99"/>
</g>
<!-- Node13 -->
<g id="node13" class="node">
<title>Node13</title>
<g id="a_node13"><a xlink:href="regex_8c.html#acc18ff8d2687611a9e221b3329b02413" target="_top" xlink:title=" ">
<polygon fill="white" stroke="black" points="1141,-266.5 1141,-285.5 1189,-285.5 1189,-266.5 1141,-266.5"/>
<text text-anchor="middle" x="1165" y="-273.5" font-family="Helvetica,sans-Serif" font-size="10.00">brk_len</text>
</a>
</g>
</g>
<!-- Node12&#45;&gt;Node13 -->
<g id="edge12" class="edge">
<title>Node12&#45;&gt;Node13</title>
<path fill="none" stroke="midnightblue" d="M1105.13,-276C1113.36,-276 1122.32,-276 1130.71,-276"/>
<polygon fill="midnightblue" stroke="midnightblue" points="1130.94,-279.5 1140.94,-276 1130.94,-272.5 1130.94,-279.5"/>
</g>
<!-- Node12&#45;&gt;Node14 -->
<g id="edge13" class="edge">
<title>Node12&#45;&gt;Node14</title>
<path fill="none" stroke="midnightblue" d="M1097.46,-266.41C1108,-261.91 1120.75,-256.47 1132.25,-251.56"/>
<polygon fill="midnightblue" stroke="midnightblue" points="1133.73,-254.73 1141.55,-247.59 1130.98,-248.29 1133.73,-254.73"/>
</g>
<!-- Node12&#45;&gt;Node15 -->
<g id="edge14" class="edge">
<title>Node12&#45;&gt;Node15</title>
<path fill="none" stroke="midnightblue" d="M1097.46,-285.59C1108.24,-290.19 1121.33,-295.78 1133.04,-300.78"/>
<polygon fill="midnightblue" stroke="midnightblue" points="1131.9,-304.1 1142.47,-304.81 1134.65,-297.66 1131.9,-304.1"/>
</g>
<!-- Node19 -->
<g id="node19" class="node">
<title>Node19</title>
<g id="a_node19"><a xlink:href="dir_8c.html#a3b2f132ebfd084295e89aa35eff56ff4" target="_top" xlink:title=" ">
<polygon fill="white" stroke="black" points="424,-152.5 424,-171.5 483,-171.5 483,-152.5 424,-152.5"/>
<text text-anchor="middle" x="453.5" y="-159.5" font-family="Helvetica,sans-Serif" font-size="10.00">dir_match</text>
</a>
</g>
</g>
<!-- Node18&#45;&gt;Node19 -->
<g id="edge21" class="edge">
<title>Node18&#45;&gt;Node19</title>
<path fill="none" stroke="midnightblue" d="M352.71,-126.39C370.14,-132.61 395.47,-141.65 416.25,-149.06"/>
<polygon fill="midnightblue" stroke="midnightblue" points="415.13,-152.38 425.73,-152.45 417.48,-145.79 415.13,-152.38"/>
</g>
<!-- Node29 -->
<g id="node29" class="node">
<title>Node29</title>
<g id="a_node29"><a xlink:href="dir_8c.html#a83ed34b9263550e2ca9b15cc02294a6b" target="_top" xlink:title=" ">
<polygon fill="white" stroke="black" points="421,-109.5 421,-128.5 486,-128.5 486,-109.5 421,-109.5"/>
<text text-anchor="middle" x="453.5" y="-116.5" font-family="Helvetica,sans-Serif" font-size="10.00">dir_reverse</text>
</a>
</g>
</g>
<!-- Node18&#45;&gt;Node29 -->
<g id="edge33" class="edge">
<title>Node18&#45;&gt;Node29</title>
<path fill="none" stroke="midnightblue" d="M352.71,-119C368.57,-119 390.97,-119 410.53,-119"/>
<polygon fill="midnightblue" stroke="midnightblue" points="410.75,-122.5 420.75,-119 410.75,-115.5 410.75,-122.5"/>
</g>
<!-- Node19&#45;&gt;Node7 -->
<g id="edge23" class="edge">
<title>Node19&#45;&gt;Node7</title>
<path fill="none" stroke="midnightblue" d="M477.27,-171.72C483.73,-175.39 490.29,-180.14 495,-186 526.98,-225.75 498.16,-255.95 531,-295 531.98,-296.17 533.06,-297.28 534.2,-298.33"/>
<polygon fill="midnightblue" stroke="midnightblue" points="532.37,-301.32 542.5,-304.42 536.51,-295.68 532.37,-301.32"/>
</g>
<!-- Node20 -->
<g id="node20" class="node">
<title>Node20</title>
<g id="a_node20"><a xlink:href="conf_8c.html#a3efe6ef9cd3bd043b3df1653265409f2" target="_top" xlink:title=" ">
<polygon fill="white" stroke="black" points="531,-152.5 531,-171.5 604,-171.5 604,-152.5 531,-152.5"/>
<text text-anchor="middle" x="567.5" y="-159.5" font-family="Helvetica,sans-Serif" font-size="10.00">conf_dirmark</text>
</a>
</g>
</g>
<!-- Node19&#45;&gt;Node20 -->
<g id="edge22" class="edge">
<title>Node19&#45;&gt;Node20</title>
<path fill="none" stroke="midnightblue" d="M483.05,-162C494.51,-162 508,-162 520.75,-162"/>
<polygon fill="midnightblue" stroke="midnightblue" points="520.77,-165.5 530.77,-162 520.77,-158.5 520.77,-165.5"/>
</g>
<!-- Node21 -->
<g id="node21" class="node">
<title>Node21</title>
<g id="a_node21"><a xlink:href="sbuf_8c.html#a4e56760893d5a6797626743840c9adf2" target="_top" xlink:title=" ">
<polygon fill="white" stroke="black" points="540.5,-228.5 540.5,-247.5 594.5,-247.5 594.5,-228.5 540.5,-228.5"/>
<text text-anchor="middle" x="567.5" y="-235.5" font-family="Helvetica,sans-Serif" font-size="10.00">sbuf_buf</text>
</a>
</g>
</g>
<!-- Node19&#45;&gt;Node21 -->
<g id="edge24" class="edge">
<title>Node19&#45;&gt;Node21</title>
<path fill="none" stroke="midnightblue" d="M472.35,-171.52C479.6,-175.65 487.91,-180.74 495,-186 512.43,-198.94 513.29,-206.45 531,-219 533.1,-220.49 535.32,-221.94 537.6,-223.33"/>
<polygon fill="midnightblue" stroke="midnightblue" points="536.03,-226.47 546.45,-228.39 539.5,-220.39 536.03,-226.47"/>
</g>
<!-- Node23 -->
<g id="node23" class="node">
<title>Node23</title>
<g id="a_node23"><a xlink:href="sbuf_8c.html#a8c1a89868b1999663effb78b4f3fab32" target="_top" xlink:title=" ">
<polygon fill="white" stroke="black" points="539,-76.5 539,-95.5 596,-95.5 596,-76.5 539,-76.5"/>
<text text-anchor="middle" x="567.5" y="-83.5" font-family="Helvetica,sans-Serif" font-size="10.00">sbuf_free</text>
</a>
</g>
</g>
<!-- Node19&#45;&gt;Node23 -->
<g id="edge26" class="edge">
<title>Node19&#45;&gt;Node23</title>
<path fill="none" stroke="midnightblue" d="M472.35,-152.48C479.6,-148.35 487.91,-143.26 495,-138 512.43,-125.06 513.29,-117.55 531,-105 533.1,-103.51 535.32,-102.06 537.6,-100.67"/>
<polygon fill="midnightblue" stroke="midnightblue" points="539.5,-103.61 546.45,-95.61 536.03,-97.53 539.5,-103.61"/>
</g>
<!-- Node24 -->
<g id="node24" class="node">
<title>Node24</title>
<g id="a_node24"><a xlink:href="sbuf_8c.html#a57748585d6786a2c1aadc2cbe6f2135b" target="_top" xlink:title=" ">
<polygon fill="white" stroke="black" points="535,-266.5 535,-285.5 600,-285.5 600,-266.5 535,-266.5"/>
<text text-anchor="middle" x="567.5" y="-273.5" font-family="Helvetica,sans-Serif" font-size="10.00">sbuf_make</text>
</a>
</g>
</g>
<!-- Node19&#45;&gt;Node24 -->
<g id="edge27" class="edge">
<title>Node19&#45;&gt;Node24</title>
<path fill="none" stroke="midnightblue" d="M475.9,-171.69C482.6,-175.47 489.64,-180.27 495,-186 519.18,-211.83 506.26,-231.71 531,-257 532.24,-258.27 533.59,-259.48 535.01,-260.62"/>
<polygon fill="midnightblue" stroke="midnightblue" points="533.42,-263.77 543.67,-266.45 537.33,-257.96 533.42,-263.77"/>
</g>
<!-- Node25 -->
<g id="node25" class="node">
<title>Node25</title>
<g id="a_node25"><a xlink:href="sbuf_8c.html#aa511ac77d6b486accc01c0512ef27ed2" target="_top" xlink:title=" ">
<polygon fill="white" stroke="black" points="536.5,-190.5 536.5,-209.5 598.5,-209.5 598.5,-190.5 536.5,-190.5"/>
<text text-anchor="middle" x="567.5" y="-197.5" font-family="Helvetica,sans-Serif" font-size="10.00">sbuf_mem</text>
</a>
</g>
</g>
<!-- Node19&#45;&gt;Node25 -->
<g id="edge28" class="edge">
<title>Node19&#45;&gt;Node25</title>
<path fill="none" stroke="midnightblue" d="M482.76,-171.59C496.69,-176.31 513.68,-182.08 528.71,-187.18"/>
<polygon fill="midnightblue" stroke="midnightblue" points="527.65,-190.52 538.25,-190.41 529.9,-183.89 527.65,-190.52"/>
</g>
<!-- Node26 -->
<g id="node26" class="node">
<title>Node26</title>
<g id="a_node26"><a xlink:href="uc_8c.html#a8334cbe4db5e54e19bf79b31f68d9eb8" target="_top" xlink:title=" ">
<polygon fill="white" stroke="black" points="545.5,-114.5 545.5,-133.5 589.5,-133.5 589.5,-114.5 545.5,-114.5"/>
<text text-anchor="middle" x="567.5" y="-121.5" font-family="Helvetica,sans-Serif" font-size="10.00">uc_off</text>
</a>
</g>
</g>
<!-- Node19&#45;&gt;Node26 -->
<g id="edge30" class="edge">
<title>Node19&#45;&gt;Node26</title>
<path fill="none" stroke="midnightblue" d="M482.76,-152.41C498.86,-146.95 519.05,-140.1 535.57,-134.49"/>
<polygon fill="midnightblue" stroke="midnightblue" points="536.97,-137.71 545.32,-131.19 534.72,-131.09 536.97,-137.71"/>
</g>
<!-- Node22 -->
<g id="node22" class="node">
<title>Node22</title>
<g id="a_node22"><a xlink:href="sbuf_8c.html#a4ad75f3948c0340c342a3ea3eb63a6e6" target="_top" xlink:title=" ">
<polygon fill="white" stroke="black" points="640,-209.5 640,-228.5 710,-228.5 710,-209.5 640,-209.5"/>
<text text-anchor="middle" x="675" y="-216.5" font-family="Helvetica,sans-Serif" font-size="10.00">sbuf_extend</text>
</a>
</g>
</g>
<!-- Node21&#45;&gt;Node22 -->
<g id="edge25" class="edge">
<title>Node21&#45;&gt;Node22</title>
<path fill="none" stroke="midnightblue" d="M594.58,-233.3C605.26,-231.38 617.91,-229.1 629.95,-226.93"/>
<polygon fill="midnightblue" stroke="midnightblue" points="630.64,-230.37 639.86,-225.15 629.39,-223.48 630.64,-230.37"/>
</g>
<!-- Node25&#45;&gt;Node22 -->
<g id="edge29" class="edge">
<title>Node25&#45;&gt;Node22</title>
<path fill="none" stroke="midnightblue" d="M598.73,-205.44C608.42,-207.19 619.36,-209.16 629.83,-211.05"/>
<polygon fill="midnightblue" stroke="midnightblue" points="629.22,-214.49 639.68,-212.82 630.46,-207.6 629.22,-214.49"/>
</g>
<!-- Node27 -->
<g id="node27" class="node">
<title>Node27</title>
<g id="a_node27"><a xlink:href="uc_8c.html#a79c7c44c06c1febff5680c19667e2676" target="_top" xlink:title=" ">
<polygon fill="white" stroke="black" points="649.5,-38.5 649.5,-57.5 700.5,-57.5 700.5,-38.5 649.5,-38.5"/>
<text text-anchor="middle" x="675" y="-45.5" font-family="Helvetica,sans-Serif" font-size="10.00">uc_next</text>
</a>
</g>
</g>
<!-- Node26&#45;&gt;Node27 -->
<g id="edge31" class="edge">
<title>Node26&#45;&gt;Node27</title>
<path fill="none" stroke="midnightblue" d="M588.05,-114.4C593.35,-111.57 599,-108.33 604,-105 622.58,-92.63 642.16,-76.38 655.87,-64.4"/>
<polygon fill="midnightblue" stroke="midnightblue" points="658.42,-66.81 663.58,-57.56 653.78,-61.57 658.42,-66.81"/>
</g>
<!-- Node28 -->
<g id="node28" class="node">
<title>Node28</title>
<g id="a_node28"><a xlink:href="uc_8c.html#a616e24870a58b86644c34ee077faca11" target="_top" xlink:title=" ">
<polygon fill="white" stroke="black" points="757.5,-19.5 757.5,-38.5 805.5,-38.5 805.5,-19.5 757.5,-19.5"/>
<text text-anchor="middle" x="781.5" y="-26.5" font-family="Helvetica,sans-Serif" font-size="10.00">uc_end</text>
</a>
</g>
</g>
<!-- Node27&#45;&gt;Node28 -->
<g id="edge32" class="edge">
<title>Node27&#45;&gt;Node28</title>
<path fill="none" stroke="midnightblue" d="M700.5,-43.55C714.42,-41.01 732.04,-37.81 747.2,-35.05"/>
<polygon fill="midnightblue" stroke="midnightblue" points="748.02,-38.46 757.23,-33.23 746.76,-31.58 748.02,-38.46"/>
</g>
<!-- Node30&#45;&gt;Node27 -->
<g id="edge35" class="edge">
<title>Node30&#45;&gt;Node27</title>
<path fill="none" stroke="midnightblue" d="M357.71,-70.2C418.31,-65.94 570.2,-55.28 639.07,-50.45"/>
<polygon fill="midnightblue" stroke="midnightblue" points="639.65,-53.92 649.38,-49.73 639.16,-46.94 639.65,-53.92"/>
</g>
<!-- Node30&#45;&gt;Node31 -->
<g id="edge36" class="edge">
<title>Node30&#45;&gt;Node31</title>
<path fill="none" stroke="midnightblue" d="M350.56,-62.45C370.32,-52.28 401.8,-36.08 424.56,-24.38"/>
<polygon fill="midnightblue" stroke="midnightblue" points="426.43,-27.35 433.72,-19.66 423.22,-21.13 426.43,-27.35"/>
</g>
<!-- Node31&#45;&gt;Node28 -->
<g id="edge37" class="edge">
<title>Node31&#45;&gt;Node28</title>
<path fill="none" stroke="midnightblue" d="M478.74,-11.41C536.33,-14.77 681.45,-23.23 747.21,-27.06"/>
<polygon fill="midnightblue" stroke="midnightblue" points="747.23,-30.57 757.42,-27.65 747.64,-23.58 747.23,-30.57"/>
</g>
<!-- Node33 -->
<g id="node33" class="node">
<title>Node33</title>
<g id="a_node33"><a xlink:href="conf_8c.html#ab1da6502eeb02af2fb9fa8a84515b0b6" target="_top" xlink:title=" ">
<polygon fill="white" stroke="black" points="286,-244.5 286,-263.5 376,-263.5 376,-244.5 286,-244.5"/>
<text text-anchor="middle" x="331" y="-251.5" font-family="Helvetica,sans-Serif" font-size="10.00">conf_placeholder</text>
</a>
</g>
</g>
<!-- Node32&#45;&gt;Node33 -->
<g id="edge39" class="edge">
<title>Node32&#45;&gt;Node33</title>
<path fill="none" stroke="midnightblue" d="M247.19,-225.39C260.97,-230.15 277.91,-236 292.87,-241.17"/>
<polygon fill="midnightblue" stroke="midnightblue" points="291.76,-244.49 302.36,-244.45 294.05,-237.88 291.76,-244.49"/>
</g>
<!-- Node34 -->
<g id="node34" class="node">
<title>Node34</title>
<g id="a_node34"><a xlink:href="uc_8c.html#a45fdc2f2f3cb34515f1014bf754741bb" target="_top" xlink:title=" ">
<polygon fill="white" stroke="black" points="304.5,-206.5 304.5,-225.5 357.5,-225.5 357.5,-206.5 304.5,-206.5"/>
<text text-anchor="middle" x="331" y="-213.5" font-family="Helvetica,sans-Serif" font-size="10.00">uc_code</text>
</a>
</g>
</g>
<!-- Node32&#45;&gt;Node34 -->
<g id="edge40" class="edge">
<title>Node32&#45;&gt;Node34</title>
<path fill="none" stroke="midnightblue" d="M247.19,-216C261.35,-216 278.86,-216 294.12,-216"/>
<polygon fill="midnightblue" stroke="midnightblue" points="294.26,-219.5 304.26,-216 294.26,-212.5 294.26,-219.5"/>
</g>
</g>
</svg>
