<?xml version="1.0" encoding="UTF-8" standalone="no"?>
<!DOCTYPE svg PUBLIC "-//W3C//DTD SVG 1.1//EN"
 "http://www.w3.org/Graphics/SVG/1.1/DTD/svg11.dtd">
<!-- Generated by graphviz version 2.44.1 (20200629.0846)
 -->
<!-- Title: vi_nextcol Pages: 1 -->
<svg width="1393pt" height="474pt"
 viewBox="0.00 0.00 1393.00 474.00" xmlns="http://www.w3.org/2000/svg" xmlns:xlink="http://www.w3.org/1999/xlink">
<g id="graph0" class="graph" transform="scale(1 1) rotate(0) translate(4 470)">
<title>vi_nextcol</title>
<polygon fill="white" stroke="transparent" points="-4,4 -4,-470 1389,-470 1389,4 -4,4"/>
<!-- Node1 -->
<g id="node1" class="node">
<title>Node1</title>
<g id="a_node1"><a xlink:title=" ">
<polygon fill="#bfbfbf" stroke="black" points="0,-57.5 0,-76.5 61,-76.5 61,-57.5 0,-57.5"/>
<text text-anchor="middle" x="30.5" y="-64.5" font-family="Helvetica,sans-Serif" font-size="10.00">vi_nextcol</text>
</a>
</g>
</g>
<!-- Node2 -->
<g id="node2" class="node">
<title>Node2</title>
<g id="a_node2"><a xlink:href="lbuf_8c.html#ad0f45475ddc6eb82ecedf63ed1b914d4" target="_top" xlink:title=" ">
<polygon fill="white" stroke="black" points="98.5,-133.5 98.5,-152.5 149.5,-152.5 149.5,-133.5 98.5,-133.5"/>
<text text-anchor="middle" x="124" y="-140.5" font-family="Helvetica,sans-Serif" font-size="10.00">lbuf_get</text>
</a>
</g>
</g>
<!-- Node1&#45;&gt;Node2 -->
<g id="edge1" class="edge">
<title>Node1&#45;&gt;Node2</title>
<path fill="none" stroke="midnightblue" d="M41.93,-76.56C54.66,-88.12 76.97,-108.01 97,-124 98.35,-125.08 99.76,-126.17 101.18,-127.27"/>
<polygon fill="midnightblue" stroke="midnightblue" points="99.23,-130.18 109.34,-133.35 103.42,-124.57 99.23,-130.18"/>
</g>
<!-- Node3 -->
<g id="node3" class="node">
<title>Node3</title>
<g id="a_node3"><a xlink:href="ren_8c.html#aa288077162077d17ddd836c0167a2ad0" target="_top" xlink:title=" ">
<polygon fill="white" stroke="black" points="97,-95.5 97,-114.5 151,-114.5 151,-95.5 97,-95.5"/>
<text text-anchor="middle" x="124" y="-102.5" font-family="Helvetica,sans-Serif" font-size="10.00">ren_next</text>
</a>
</g>
</g>
<!-- Node1&#45;&gt;Node3 -->
<g id="edge2" class="edge">
<title>Node1&#45;&gt;Node3</title>
<path fill="none" stroke="midnightblue" d="M54.59,-76.59C65.43,-81.09 78.53,-86.53 90.36,-91.44"/>
<polygon fill="midnightblue" stroke="midnightblue" points="89.34,-94.81 99.92,-95.41 92.03,-88.35 89.34,-94.81"/>
</g>
<!-- Node6 -->
<g id="node6" class="node">
<title>Node6</title>
<g id="a_node6"><a xlink:href="ren_8c.html#a6fb670084750c8934454722b630e0caa" target="_top" xlink:title=" ">
<polygon fill="white" stroke="black" points="191.5,-38.5 191.5,-57.5 238.5,-57.5 238.5,-38.5 191.5,-38.5"/>
<text text-anchor="middle" x="215" y="-45.5" font-family="Helvetica,sans-Serif" font-size="10.00">ren_off</text>
</a>
</g>
</g>
<!-- Node1&#45;&gt;Node6 -->
<g id="edge52" class="edge">
<title>Node1&#45;&gt;Node6</title>
<path fill="none" stroke="midnightblue" d="M61.23,-63.91C94.13,-60.48 147,-54.97 181.12,-51.42"/>
<polygon fill="midnightblue" stroke="midnightblue" points="181.9,-54.86 191.49,-50.34 181.18,-47.9 181.9,-54.86"/>
</g>
<!-- Node40 -->
<g id="node40" class="node">
<title>Node40</title>
<g id="a_node40"><a xlink:href="ren_8c.html#ab66e6a45a074bd54643b4c6fba4abfe4" target="_top" xlink:title=" ">
<polygon fill="white" stroke="black" points="189.5,-0.5 189.5,-19.5 240.5,-19.5 240.5,-0.5 189.5,-0.5"/>
<text text-anchor="middle" x="215" y="-7.5" font-family="Helvetica,sans-Serif" font-size="10.00">ren_pos</text>
</a>
</g>
</g>
<!-- Node1&#45;&gt;Node40 -->
<g id="edge53" class="edge">
<title>Node1&#45;&gt;Node40</title>
<path fill="none" stroke="midnightblue" d="M61.23,-57.72C93.68,-47.58 145.56,-31.38 179.71,-20.71"/>
<polygon fill="midnightblue" stroke="midnightblue" points="180.76,-24.05 189.27,-17.73 178.68,-17.37 180.76,-24.05"/>
</g>
<!-- Node4 -->
<g id="node4" class="node">
<title>Node4</title>
<g id="a_node4"><a xlink:href="ren_8c.html#ae6c30ee4fcc67460391eaa8adc182241" target="_top" xlink:title=" ">
<polygon fill="white" stroke="black" points="187,-228.5 187,-247.5 243,-247.5 243,-228.5 187,-228.5"/>
<text text-anchor="middle" x="215" y="-235.5" font-family="Helvetica,sans-Serif" font-size="10.00">pos_next</text>
</a>
</g>
</g>
<!-- Node3&#45;&gt;Node4 -->
<g id="edge3" class="edge">
<title>Node3&#45;&gt;Node4</title>
<path fill="none" stroke="midnightblue" d="M141.08,-114.58C144.69,-117.29 148.26,-120.47 151,-124 177.42,-158.03 162.24,-178.75 187,-214 188.76,-216.5 190.82,-218.92 193.02,-221.2"/>
<polygon fill="midnightblue" stroke="midnightblue" points="190.99,-224.09 200.71,-228.31 195.74,-218.95 190.99,-224.09"/>
</g>
<!-- Node5 -->
<g id="node5" class="node">
<title>Node5</title>
<g id="a_node5"><a xlink:href="ren_8c.html#af4201a7e1018cbf68ff5e009005ff8bd" target="_top" xlink:title=" ">
<polygon fill="white" stroke="black" points="285.5,-114.5 285.5,-133.5 341.5,-133.5 341.5,-114.5 285.5,-114.5"/>
<text text-anchor="middle" x="313.5" y="-121.5" font-family="Helvetica,sans-Serif" font-size="10.00">pos_prev</text>
</a>
</g>
</g>
<!-- Node3&#45;&gt;Node5 -->
<g id="edge4" class="edge">
<title>Node3&#45;&gt;Node5</title>
<path fill="none" stroke="midnightblue" d="M151.07,-107.64C183.31,-110.91 238.41,-116.49 275.14,-120.21"/>
<polygon fill="midnightblue" stroke="midnightblue" points="275.13,-123.73 285.44,-121.26 275.84,-116.77 275.13,-123.73"/>
</g>
<!-- Node3&#45;&gt;Node6 -->
<g id="edge5" class="edge">
<title>Node3&#45;&gt;Node6</title>
<path fill="none" stroke="midnightblue" d="M140.1,-95.33C153.86,-86.52 174.42,-73.35 190.36,-63.14"/>
<polygon fill="midnightblue" stroke="midnightblue" points="192.59,-65.87 199.13,-57.53 188.82,-59.97 192.59,-65.87"/>
</g>
<!-- Node7 -->
<g id="node7" class="node">
<title>Node7</title>
<g id="a_node7"><a xlink:href="ren_8c.html#af6e197881adec94ce251c84adf3dd495" target="_top" xlink:title=" ">
<polygon fill="white" stroke="black" points="279,-76.5 279,-95.5 348,-95.5 348,-76.5 279,-76.5"/>
<text text-anchor="middle" x="313.5" y="-83.5" font-family="Helvetica,sans-Serif" font-size="10.00">ren_position</text>
</a>
</g>
</g>
<!-- Node3&#45;&gt;Node7 -->
<g id="edge48" class="edge">
<title>Node3&#45;&gt;Node7</title>
<path fill="none" stroke="midnightblue" d="M151.07,-102.36C181.39,-99.29 231.92,-94.17 268.38,-90.47"/>
<polygon fill="midnightblue" stroke="midnightblue" points="269.13,-93.91 278.73,-89.42 268.43,-86.95 269.13,-93.91"/>
</g>
<!-- Node35 -->
<g id="node35" class="node">
<title>Node35</title>
<g id="a_node35"><a xlink:href="uc_8c.html#a8afd7835259109c3ec7bb684d4a1f67f" target="_top" xlink:title=" ">
<polygon fill="white" stroke="black" points="624.5,-38.5 624.5,-57.5 674.5,-57.5 674.5,-38.5 624.5,-38.5"/>
<text text-anchor="middle" x="649.5" y="-45.5" font-family="Helvetica,sans-Serif" font-size="10.00">uc_slen</text>
</a>
</g>
</g>
<!-- Node3&#45;&gt;Node35 -->
<g id="edge51" class="edge">
<title>Node3&#45;&gt;Node35</title>
<path fill="none" stroke="midnightblue" d="M143.33,-114.54C176.26,-130.77 248.03,-162 312.5,-162 312.5,-162 312.5,-162 416,-162 485.85,-162 510.94,-176.92 572,-143 603.62,-125.43 627.11,-89.01 639.23,-66.71"/>
<polygon fill="midnightblue" stroke="midnightblue" points="642.47,-68.07 643.99,-57.58 636.27,-64.83 642.47,-68.07"/>
</g>
<!-- Node39 -->
<g id="node39" class="node">
<title>Node39</title>
<g id="a_node39"><a xlink:href="uc_8c.html#a2fecd1fc98475ece5f529da3315a9553" target="_top" xlink:title=" ">
<polygon fill="white" stroke="black" points="290.5,-266.5 290.5,-285.5 336.5,-285.5 336.5,-266.5 290.5,-266.5"/>
<text text-anchor="middle" x="313.5" y="-273.5" font-family="Helvetica,sans-Serif" font-size="10.00">uc_chr</text>
</a>
</g>
</g>
<!-- Node3&#45;&gt;Node39 -->
<g id="edge49" class="edge">
<title>Node3&#45;&gt;Node39</title>
<path fill="none" stroke="midnightblue" d="M140,-114.65C143.8,-117.44 147.72,-120.64 151,-124 170.62,-144.13 167.62,-155.64 187,-176 208.64,-198.73 218.42,-199.49 243,-219 260.01,-232.5 279.05,-248.16 292.9,-259.65"/>
<polygon fill="midnightblue" stroke="midnightblue" points="290.86,-262.5 300.79,-266.2 295.34,-257.12 290.86,-262.5"/>
</g>
<!-- Node6&#45;&gt;Node5 -->
<g id="edge6" class="edge">
<title>Node6&#45;&gt;Node5</title>
<path fill="none" stroke="midnightblue" d="M225.26,-57.58C237.07,-69.52 258.44,-90.14 279,-105 280.89,-106.37 282.89,-107.72 284.94,-109.03"/>
<polygon fill="midnightblue" stroke="midnightblue" points="283.59,-112.3 293.97,-114.45 287.2,-106.3 283.59,-112.3"/>
</g>
<!-- Node6&#45;&gt;Node7 -->
<g id="edge7" class="edge">
<title>Node6&#45;&gt;Node7</title>
<path fill="none" stroke="midnightblue" d="M238.87,-57.01C250.68,-61.66 265.34,-67.43 278.45,-72.59"/>
<polygon fill="midnightblue" stroke="midnightblue" points="277.52,-75.99 288.11,-76.39 280.09,-69.47 277.52,-75.99"/>
</g>
<!-- Node6&#45;&gt;Node35 -->
<g id="edge47" class="edge">
<title>Node6&#45;&gt;Node35</title>
<path fill="none" stroke="midnightblue" d="M238.64,-48C309.82,-48 529.31,-48 614.35,-48"/>
<polygon fill="midnightblue" stroke="midnightblue" points="614.5,-51.5 624.5,-48 614.5,-44.5 614.5,-51.5"/>
</g>
<!-- Node8 -->
<g id="node8" class="node">
<title>Node8</title>
<g id="a_node8"><a xlink:href="dir_8c.html#a8703d559ca9c640b8b89c589cf75ac06" target="_top" xlink:title=" ">
<polygon fill="white" stroke="black" points="384,-209.5 384,-228.5 446,-228.5 446,-209.5 384,-209.5"/>
<text text-anchor="middle" x="415" y="-216.5" font-family="Helvetica,sans-Serif" font-size="10.00">dir_reorder</text>
</a>
</g>
</g>
<!-- Node7&#45;&gt;Node8 -->
<g id="edge8" class="edge">
<title>Node7&#45;&gt;Node8</title>
<path fill="none" stroke="midnightblue" d="M335.54,-95.66C339.97,-98.29 344.39,-101.42 348,-105 376.16,-132.91 396.44,-175.29 406.61,-199.75"/>
<polygon fill="midnightblue" stroke="midnightblue" points="403.48,-201.35 410.45,-209.33 409.97,-198.74 403.48,-201.35"/>
</g>
<!-- Node34 -->
<g id="node34" class="node">
<title>Node34</title>
<g id="a_node34"><a xlink:href="uc_8c.html#a1764c4d0fa27bca336e5ca300ad969e7" target="_top" xlink:title=" ">
<polygon fill="white" stroke="black" points="500.5,-190.5 500.5,-209.5 553.5,-209.5 553.5,-190.5 500.5,-190.5"/>
<text text-anchor="middle" x="527" y="-197.5" font-family="Helvetica,sans-Serif" font-size="10.00">uc_chop</text>
</a>
</g>
</g>
<!-- Node7&#45;&gt;Node34 -->
<g id="edge46" class="edge">
<title>Node7&#45;&gt;Node34</title>
<path fill="none" stroke="midnightblue" d="M332.17,-95.52C369.26,-115.52 455.42,-161.96 499.29,-185.61"/>
<polygon fill="midnightblue" stroke="midnightblue" points="497.77,-188.76 508.23,-190.42 501.09,-182.6 497.77,-188.76"/>
</g>
<!-- Node36 -->
<g id="node36" class="node">
<title>Node36</title>
<g id="a_node36"><a xlink:href="ren_8c.html#a319a71758607f19d2beedd2bd4d3b369" target="_top" xlink:title=" ">
<polygon fill="white" stroke="black" points="387,-76.5 387,-95.5 443,-95.5 443,-76.5 387,-76.5"/>
<text text-anchor="middle" x="415" y="-83.5" font-family="Helvetica,sans-Serif" font-size="10.00">ren_cwid</text>
</a>
</g>
</g>
<!-- Node7&#45;&gt;Node36 -->
<g id="edge43" class="edge">
<title>Node7&#45;&gt;Node36</title>
<path fill="none" stroke="midnightblue" d="M348.19,-86C357.36,-86 367.35,-86 376.72,-86"/>
<polygon fill="midnightblue" stroke="midnightblue" points="376.94,-89.5 386.94,-86 376.94,-82.5 376.94,-89.5"/>
</g>
<!-- Node9 -->
<g id="node9" class="node">
<title>Node9</title>
<g id="a_node9"><a xlink:href="dir_8c.html#aba0a553010578626d7148da2b6551321" target="_top" xlink:title=" ">
<polygon fill="white" stroke="black" points="494.5,-266.5 494.5,-285.5 559.5,-285.5 559.5,-266.5 494.5,-266.5"/>
<text text-anchor="middle" x="527" y="-273.5" font-family="Helvetica,sans-Serif" font-size="10.00">dir_context</text>
</a>
</g>
</g>
<!-- Node8&#45;&gt;Node9 -->
<g id="edge9" class="edge">
<title>Node8&#45;&gt;Node9</title>
<path fill="none" stroke="midnightblue" d="M431.46,-228.58C444.66,-236.59 464.27,-248.11 482,-257 485.58,-258.8 489.37,-260.59 493.16,-262.31"/>
<polygon fill="midnightblue" stroke="midnightblue" points="491.92,-265.59 502.48,-266.43 494.75,-259.19 491.92,-265.59"/>
</g>
<!-- Node22 -->
<g id="node22" class="node">
<title>Node22</title>
<g id="a_node22"><a xlink:href="dir_8c.html#a8dbcb1db32888e71e2702f7173e7cba4" target="_top" xlink:title=" ">
<polygon fill="white" stroke="black" points="505.5,-228.5 505.5,-247.5 548.5,-247.5 548.5,-228.5 505.5,-228.5"/>
<text text-anchor="middle" x="527" y="-235.5" font-family="Helvetica,sans-Serif" font-size="10.00">dir_fix</text>
</a>
</g>
</g>
<!-- Node8&#45;&gt;Node22 -->
<g id="edge25" class="edge">
<title>Node8&#45;&gt;Node22</title>
<path fill="none" stroke="midnightblue" d="M446.06,-224.19C461.36,-226.83 479.92,-230.04 495.31,-232.7"/>
<polygon fill="midnightblue" stroke="midnightblue" points="494.92,-236.18 505.37,-234.44 496.12,-229.29 494.92,-236.18"/>
</g>
<!-- Node8&#45;&gt;Node34 -->
<g id="edge39" class="edge">
<title>Node8&#45;&gt;Node34</title>
<path fill="none" stroke="midnightblue" d="M446.06,-213.81C459.78,-211.44 476.12,-208.62 490.45,-206.14"/>
<polygon fill="midnightblue" stroke="midnightblue" points="491.19,-209.56 500.45,-204.41 490,-202.67 491.19,-209.56"/>
</g>
<!-- Node10 -->
<g id="node10" class="node">
<title>Node10</title>
<g id="a_node10"><a xlink:href="conf_8c.html#a9e1bc5ed600c151c51d8e2342454e07c" target="_top" xlink:title=" ">
<polygon fill="white" stroke="black" points="608,-266.5 608,-285.5 691,-285.5 691,-266.5 608,-266.5"/>
<text text-anchor="middle" x="649.5" y="-273.5" font-family="Helvetica,sans-Serif" font-size="10.00">conf_dircontext</text>
</a>
</g>
</g>
<!-- Node9&#45;&gt;Node10 -->
<g id="edge10" class="edge">
<title>Node9&#45;&gt;Node10</title>
<path fill="none" stroke="midnightblue" d="M559.66,-276C571.32,-276 584.85,-276 597.78,-276"/>
<polygon fill="midnightblue" stroke="midnightblue" points="597.97,-279.5 607.97,-276 597.97,-272.5 597.97,-279.5"/>
</g>
<!-- Node11 -->
<g id="node11" class="node">
<title>Node11</title>
<g id="a_node11"><a xlink:href="rset_8c.html#a389ec5abca88adc048a058744f2373eb" target="_top" xlink:title=" ">
<polygon fill="white" stroke="black" points="736.5,-285.5 736.5,-304.5 790.5,-304.5 790.5,-285.5 736.5,-285.5"/>
<text text-anchor="middle" x="763.5" y="-292.5" font-family="Helvetica,sans-Serif" font-size="10.00">rset_find</text>
</a>
</g>
</g>
<!-- Node9&#45;&gt;Node11 -->
<g id="edge11" class="edge">
<title>Node9&#45;&gt;Node11</title>
<path fill="none" stroke="midnightblue" d="M559.62,-285.31C574.2,-289.13 591.84,-293.11 608,-295 648.33,-299.72 694.99,-298.86 726.39,-297.37"/>
<polygon fill="midnightblue" stroke="midnightblue" points="726.62,-300.86 736.42,-296.84 726.25,-293.87 726.62,-300.86"/>
</g>
<!-- Node12 -->
<g id="node12" class="node">
<title>Node12</title>
<g id="a_node12"><a xlink:href="regex_8c.html#aa085ccd05ec25e3f8053850aebc50fe3" target="_top" xlink:title=" ">
<polygon fill="white" stroke="black" points="845.5,-285.5 845.5,-304.5 896.5,-304.5 896.5,-285.5 845.5,-285.5"/>
<text text-anchor="middle" x="871" y="-292.5" font-family="Helvetica,sans-Serif" font-size="10.00">regexec</text>
</a>
</g>
</g>
<!-- Node11&#45;&gt;Node12 -->
<g id="edge12" class="edge">
<title>Node11&#45;&gt;Node12</title>
<path fill="none" stroke="midnightblue" d="M790.58,-295C804.03,-295 820.63,-295 835.16,-295"/>
<polygon fill="midnightblue" stroke="midnightblue" points="835.31,-298.5 845.31,-295 835.31,-291.5 835.31,-298.5"/>
</g>
<!-- Node13 -->
<g id="node13" class="node">
<title>Node13</title>
<g id="a_node13"><a xlink:href="regex_8c.html#aa5925e49bd18112bb37421dbde29162a" target="_top" xlink:title=" ">
<polygon fill="white" stroke="black" points="942,-323.5 942,-342.5 1013,-342.5 1013,-323.5 942,-323.5"/>
<text text-anchor="middle" x="977.5" y="-330.5" font-family="Helvetica,sans-Serif" font-size="10.00">re_recmatch</text>
</a>
</g>
</g>
<!-- Node12&#45;&gt;Node13 -->
<g id="edge13" class="edge">
<title>Node12&#45;&gt;Node13</title>
<path fill="none" stroke="midnightblue" d="M896.5,-303.91C909.64,-308.69 926.07,-314.66 940.62,-319.95"/>
<polygon fill="midnightblue" stroke="midnightblue" points="939.73,-323.35 950.33,-323.48 942.12,-316.78 939.73,-323.35"/>
</g>
<!-- Node19 -->
<g id="node19" class="node">
<title>Node19</title>
<g id="a_node19"><a xlink:href="regex_8c.html#a9a0d6d5f93f1eaba8b63b16903c0952d" target="_top" xlink:title=" ">
<polygon fill="white" stroke="black" points="1338.5,-332.5 1338.5,-351.5 1383.5,-351.5 1383.5,-332.5 1338.5,-332.5"/>
<text text-anchor="middle" x="1361" y="-339.5" font-family="Helvetica,sans-Serif" font-size="10.00">uc_len</text>
</a>
</g>
</g>
<!-- Node12&#45;&gt;Node19 -->
<g id="edge24" class="edge">
<title>Node12&#45;&gt;Node19</title>
<path fill="none" stroke="midnightblue" d="M896.53,-289.06C933.77,-280.58 1006.94,-266 1070,-266 1070,-266 1070,-266 1167,-266 1227.15,-266 1246.96,-258.59 1301,-285 1319.68,-294.13 1336.25,-311.39 1347.03,-324.53"/>
<polygon fill="midnightblue" stroke="midnightblue" points="1344.32,-326.75 1353.25,-332.45 1349.83,-322.42 1344.32,-326.75"/>
</g>
<!-- Node14 -->
<g id="node14" class="node">
<title>Node14</title>
<g id="a_node14"><a xlink:href="regex_8c.html#a8e35614ddf21d405773327a52a95a73d" target="_top" xlink:title=" ">
<polygon fill="white" stroke="black" points="1049,-342.5 1049,-361.5 1093,-361.5 1093,-342.5 1049,-342.5"/>
<text text-anchor="middle" x="1071" y="-349.5" font-family="Helvetica,sans-Serif" font-size="10.00">re_rec</text>
</a>
</g>
</g>
<!-- Node13&#45;&gt;Node14 -->
<g id="edge14" class="edge">
<title>Node13&#45;&gt;Node14</title>
<path fill="none" stroke="midnightblue" d="M1013.09,-340.18C1021.56,-341.94 1030.57,-343.81 1038.87,-345.54"/>
<polygon fill="midnightblue" stroke="midnightblue" points="1038.4,-349.01 1048.9,-347.62 1039.82,-342.16 1038.4,-349.01"/>
</g>
<!-- Node15 -->
<g id="node15" class="node">
<title>Node15</title>
<g id="a_node15"><a xlink:href="regex_8c.html#a24fd1fc7457ff4f03fb384f7170ac395" target="_top" xlink:title=" ">
<polygon fill="white" stroke="black" points="1129,-351.5 1129,-370.5 1203,-370.5 1203,-351.5 1129,-351.5"/>
<text text-anchor="middle" x="1166" y="-358.5" font-family="Helvetica,sans-Serif" font-size="10.00">ratom_match</text>
</a>
</g>
</g>
<!-- Node14&#45;&gt;Node15 -->
<g id="edge15" class="edge">
<title>Node14&#45;&gt;Node15</title>
<path fill="none" stroke="midnightblue" d="M1093.1,-354.04C1100.73,-354.78 1109.68,-355.65 1118.63,-356.51"/>
<polygon fill="midnightblue" stroke="midnightblue" points="1118.36,-360 1128.65,-357.48 1119.03,-353.04 1118.36,-360"/>
</g>
<!-- Node16 -->
<g id="node16" class="node">
<title>Node16</title>
<g id="a_node16"><a xlink:href="regex_8c.html#aae17ed73e84075718fb04d131d6ca779" target="_top" xlink:title=" ">
<polygon fill="white" stroke="black" points="1239,-408.5 1239,-427.5 1301,-427.5 1301,-408.5 1239,-408.5"/>
<text text-anchor="middle" x="1270" y="-415.5" font-family="Helvetica,sans-Serif" font-size="10.00">brk_match</text>
</a>
</g>
</g>
<!-- Node15&#45;&gt;Node16 -->
<g id="edge16" class="edge">
<title>Node15&#45;&gt;Node16</title>
<path fill="none" stroke="midnightblue" d="M1184.3,-370.67C1200.45,-379.69 1224.74,-393.27 1243.18,-403.57"/>
<polygon fill="midnightblue" stroke="midnightblue" points="1241.52,-406.65 1251.95,-408.47 1244.93,-400.54 1241.52,-406.65"/>
</g>
<!-- Node18 -->
<g id="node18" class="node">
<title>Node18</title>
<g id="a_node18"><a xlink:href="regex_8c.html#aaf73cdb88048e7f9fd588eb8d5aeb5a3" target="_top" xlink:title=" ">
<polygon fill="white" stroke="black" points="1337,-446.5 1337,-465.5 1385,-465.5 1385,-446.5 1337,-446.5"/>
<text text-anchor="middle" x="1361" y="-453.5" font-family="Helvetica,sans-Serif" font-size="10.00">uc_dec</text>
</a>
</g>
</g>
<!-- Node15&#45;&gt;Node18 -->
<g id="edge22" class="edge">
<title>Node15&#45;&gt;Node18</title>
<path fill="none" stroke="midnightblue" d="M1172.97,-370.61C1183.84,-387.21 1208.6,-421.01 1239,-437 1266.17,-451.29 1301.18,-455.5 1326.55,-456.46"/>
<polygon fill="midnightblue" stroke="midnightblue" points="1326.7,-459.97 1336.77,-456.69 1326.86,-452.97 1326.7,-459.97"/>
</g>
<!-- Node15&#45;&gt;Node19 -->
<g id="edge23" class="edge">
<title>Node15&#45;&gt;Node19</title>
<path fill="none" stroke="midnightblue" d="M1203.3,-357.43C1239.32,-353.88 1293.97,-348.5 1328.3,-345.12"/>
<polygon fill="midnightblue" stroke="midnightblue" points="1328.64,-348.6 1338.25,-344.14 1327.96,-341.64 1328.64,-348.6"/>
</g>
<!-- Node20 -->
<g id="node20" class="node">
<title>Node20</title>
<g id="a_node20"><a xlink:href="regex_8c.html#a35ad3fd0dbb795e6f30404ce86a7be5b" target="_top" xlink:title=" ">
<polygon fill="white" stroke="black" points="1247.5,-294.5 1247.5,-313.5 1292.5,-313.5 1292.5,-294.5 1247.5,-294.5"/>
<text text-anchor="middle" x="1270" y="-301.5" font-family="Helvetica,sans-Serif" font-size="10.00">isword</text>
</a>
</g>
</g>
<!-- Node15&#45;&gt;Node20 -->
<g id="edge20" class="edge">
<title>Node15&#45;&gt;Node20</title>
<path fill="none" stroke="midnightblue" d="M1184.3,-351.33C1200.45,-342.31 1224.74,-328.73 1243.18,-318.43"/>
<polygon fill="midnightblue" stroke="midnightblue" points="1244.93,-321.46 1251.95,-313.53 1241.52,-315.35 1244.93,-321.46"/>
</g>
<!-- Node21 -->
<g id="node21" class="node">
<title>Node21</title>
<g id="a_node21"><a xlink:href="regex_8c.html#ade3e10606e6e8866e6151fe8440d6101" target="_top" xlink:title=" ">
<polygon fill="white" stroke="black" points="1246,-370.5 1246,-389.5 1294,-389.5 1294,-370.5 1246,-370.5"/>
<text text-anchor="middle" x="1270" y="-377.5" font-family="Helvetica,sans-Serif" font-size="10.00">uc_beg</text>
</a>
</g>
</g>
<!-- Node15&#45;&gt;Node21 -->
<g id="edge21" class="edge">
<title>Node15&#45;&gt;Node21</title>
<path fill="none" stroke="midnightblue" d="M1203.25,-367.75C1213.9,-369.74 1225.49,-371.89 1235.93,-373.84"/>
<polygon fill="midnightblue" stroke="midnightblue" points="1235.44,-377.31 1245.91,-375.7 1236.72,-370.43 1235.44,-377.31"/>
</g>
<!-- Node17 -->
<g id="node17" class="node">
<title>Node17</title>
<g id="a_node17"><a xlink:href="regex_8c.html#acc18ff8d2687611a9e221b3329b02413" target="_top" xlink:title=" ">
<polygon fill="white" stroke="black" points="1337,-408.5 1337,-427.5 1385,-427.5 1385,-408.5 1337,-408.5"/>
<text text-anchor="middle" x="1361" y="-415.5" font-family="Helvetica,sans-Serif" font-size="10.00">brk_len</text>
</a>
</g>
</g>
<!-- Node16&#45;&gt;Node17 -->
<g id="edge17" class="edge">
<title>Node16&#45;&gt;Node17</title>
<path fill="none" stroke="midnightblue" d="M1301.13,-418C1309.36,-418 1318.32,-418 1326.71,-418"/>
<polygon fill="midnightblue" stroke="midnightblue" points="1326.94,-421.5 1336.94,-418 1326.94,-414.5 1326.94,-421.5"/>
</g>
<!-- Node16&#45;&gt;Node18 -->
<g id="edge18" class="edge">
<title>Node16&#45;&gt;Node18</title>
<path fill="none" stroke="midnightblue" d="M1293.46,-427.59C1304,-432.09 1316.75,-437.53 1328.25,-442.44"/>
<polygon fill="midnightblue" stroke="midnightblue" points="1326.98,-445.71 1337.55,-446.41 1329.73,-439.27 1326.98,-445.71"/>
</g>
<!-- Node16&#45;&gt;Node19 -->
<g id="edge19" class="edge">
<title>Node16&#45;&gt;Node19</title>
<path fill="none" stroke="midnightblue" d="M1287.6,-408.33C1292.08,-405.5 1296.83,-402.28 1301,-399 1316.46,-386.84 1332.42,-371.21 1343.83,-359.39"/>
<polygon fill="midnightblue" stroke="midnightblue" points="1346.59,-361.57 1350.94,-351.91 1341.52,-356.74 1346.59,-361.57"/>
</g>
<!-- Node23 -->
<g id="node23" class="node">
<title>Node23</title>
<g id="a_node23"><a xlink:href="dir_8c.html#a3b2f132ebfd084295e89aa35eff56ff4" target="_top" xlink:title=" ">
<polygon fill="white" stroke="black" points="620,-152.5 620,-171.5 679,-171.5 679,-152.5 620,-152.5"/>
<text text-anchor="middle" x="649.5" y="-159.5" font-family="Helvetica,sans-Serif" font-size="10.00">dir_match</text>
</a>
</g>
</g>
<!-- Node22&#45;&gt;Node23 -->
<g id="edge26" class="edge">
<title>Node22&#45;&gt;Node23</title>
<path fill="none" stroke="midnightblue" d="M548.63,-230.26C556.17,-227.13 564.65,-223.25 572,-219 592.62,-207.08 614.21,-190.57 629.17,-178.39"/>
<polygon fill="midnightblue" stroke="midnightblue" points="631.69,-180.85 637.16,-171.78 627.23,-175.46 631.69,-180.85"/>
</g>
<!-- Node33 -->
<g id="node33" class="node">
<title>Node33</title>
<g id="a_node33"><a xlink:href="dir_8c.html#a83ed34b9263550e2ca9b15cc02294a6b" target="_top" xlink:title=" ">
<polygon fill="white" stroke="black" points="617,-228.5 617,-247.5 682,-247.5 682,-228.5 617,-228.5"/>
<text text-anchor="middle" x="649.5" y="-235.5" font-family="Helvetica,sans-Serif" font-size="10.00">dir_reverse</text>
</a>
</g>
</g>
<!-- Node22&#45;&gt;Node33 -->
<g id="edge38" class="edge">
<title>Node22&#45;&gt;Node33</title>
<path fill="none" stroke="midnightblue" d="M548.71,-238C564.57,-238 586.97,-238 606.53,-238"/>
<polygon fill="midnightblue" stroke="midnightblue" points="606.75,-241.5 616.75,-238 606.75,-234.5 606.75,-241.5"/>
</g>
<!-- Node23&#45;&gt;Node11 -->
<g id="edge28" class="edge">
<title>Node23&#45;&gt;Node11</title>
<path fill="none" stroke="midnightblue" d="M658.55,-171.57C677.19,-193.7 723.52,-248.71 747.54,-277.23"/>
<polygon fill="midnightblue" stroke="midnightblue" points="745.1,-279.77 754.22,-285.16 750.45,-275.26 745.1,-279.77"/>
</g>
<!-- Node24 -->
<g id="node24" class="node">
<title>Node24</title>
<g id="a_node24"><a xlink:href="conf_8c.html#a3efe6ef9cd3bd043b3df1653265409f2" target="_top" xlink:title=" ">
<polygon fill="white" stroke="black" points="727,-209.5 727,-228.5 800,-228.5 800,-209.5 727,-209.5"/>
<text text-anchor="middle" x="763.5" y="-216.5" font-family="Helvetica,sans-Serif" font-size="10.00">conf_dirmark</text>
</a>
</g>
</g>
<!-- Node23&#45;&gt;Node24 -->
<g id="edge27" class="edge">
<title>Node23&#45;&gt;Node24</title>
<path fill="none" stroke="midnightblue" d="M669.25,-171.54C687.09,-180.62 714.18,-194.41 734.57,-204.79"/>
<polygon fill="midnightblue" stroke="midnightblue" points="733.19,-208.01 743.69,-209.43 736.37,-201.77 733.19,-208.01"/>
</g>
<!-- Node25 -->
<g id="node25" class="node">
<title>Node25</title>
<g id="a_node25"><a xlink:href="sbuf_8c.html#a4e56760893d5a6797626743840c9adf2" target="_top" xlink:title=" ">
<polygon fill="white" stroke="black" points="736.5,-133.5 736.5,-152.5 790.5,-152.5 790.5,-133.5 736.5,-133.5"/>
<text text-anchor="middle" x="763.5" y="-140.5" font-family="Helvetica,sans-Serif" font-size="10.00">sbuf_buf</text>
</a>
</g>
</g>
<!-- Node23&#45;&gt;Node25 -->
<g id="edge29" class="edge">
<title>Node23&#45;&gt;Node25</title>
<path fill="none" stroke="midnightblue" d="M679.05,-157.16C693.38,-154.73 710.88,-151.76 726.15,-149.17"/>
<polygon fill="midnightblue" stroke="midnightblue" points="727.03,-152.57 736.3,-147.44 725.86,-145.67 727.03,-152.57"/>
</g>
<!-- Node27 -->
<g id="node27" class="node">
<title>Node27</title>
<g id="a_node27"><a xlink:href="sbuf_8c.html#a8c1a89868b1999663effb78b4f3fab32" target="_top" xlink:title=" ">
<polygon fill="white" stroke="black" points="735,-95.5 735,-114.5 792,-114.5 792,-95.5 735,-95.5"/>
<text text-anchor="middle" x="763.5" y="-102.5" font-family="Helvetica,sans-Serif" font-size="10.00">sbuf_free</text>
</a>
</g>
</g>
<!-- Node23&#45;&gt;Node27 -->
<g id="edge31" class="edge">
<title>Node23&#45;&gt;Node27</title>
<path fill="none" stroke="midnightblue" d="M669.25,-152.46C687.09,-143.38 714.18,-129.59 734.57,-119.21"/>
<polygon fill="midnightblue" stroke="midnightblue" points="736.37,-122.23 743.69,-114.57 733.19,-115.99 736.37,-122.23"/>
</g>
<!-- Node28 -->
<g id="node28" class="node">
<title>Node28</title>
<g id="a_node28"><a xlink:href="sbuf_8c.html#a57748585d6786a2c1aadc2cbe6f2135b" target="_top" xlink:title=" ">
<polygon fill="white" stroke="black" points="731,-57.5 731,-76.5 796,-76.5 796,-57.5 731,-57.5"/>
<text text-anchor="middle" x="763.5" y="-64.5" font-family="Helvetica,sans-Serif" font-size="10.00">sbuf_make</text>
</a>
</g>
</g>
<!-- Node23&#45;&gt;Node28 -->
<g id="edge32" class="edge">
<title>Node23&#45;&gt;Node28</title>
<path fill="none" stroke="midnightblue" d="M658.68,-152.21C671.9,-136.78 699.3,-106.48 727,-86 728.87,-84.62 730.86,-83.27 732.9,-81.98"/>
<polygon fill="midnightblue" stroke="midnightblue" points="735.11,-84.74 741.98,-76.68 731.58,-78.69 735.11,-84.74"/>
</g>
<!-- Node29 -->
<g id="node29" class="node">
<title>Node29</title>
<g id="a_node29"><a xlink:href="sbuf_8c.html#aa511ac77d6b486accc01c0512ef27ed2" target="_top" xlink:title=" ">
<polygon fill="white" stroke="black" points="732.5,-19.5 732.5,-38.5 794.5,-38.5 794.5,-19.5 732.5,-19.5"/>
<text text-anchor="middle" x="763.5" y="-26.5" font-family="Helvetica,sans-Serif" font-size="10.00">sbuf_mem</text>
</a>
</g>
</g>
<!-- Node23&#45;&gt;Node29 -->
<g id="edge33" class="edge">
<title>Node23&#45;&gt;Node29</title>
<path fill="none" stroke="midnightblue" d="M654.96,-152.3C665.11,-131.06 691.83,-79.83 727,-48 728.48,-46.66 730.07,-45.39 731.72,-44.18"/>
<polygon fill="midnightblue" stroke="midnightblue" points="733.81,-47 740.37,-38.68 730.05,-41.09 733.81,-47"/>
</g>
<!-- Node30 -->
<g id="node30" class="node">
<title>Node30</title>
<g id="a_node30"><a xlink:href="uc_8c.html#a8334cbe4db5e54e19bf79b31f68d9eb8" target="_top" xlink:title=" ">
<polygon fill="white" stroke="black" points="741.5,-171.5 741.5,-190.5 785.5,-190.5 785.5,-171.5 741.5,-171.5"/>
<text text-anchor="middle" x="763.5" y="-178.5" font-family="Helvetica,sans-Serif" font-size="10.00">uc_off</text>
</a>
</g>
</g>
<!-- Node23&#45;&gt;Node30 -->
<g id="edge35" class="edge">
<title>Node23&#45;&gt;Node30</title>
<path fill="none" stroke="midnightblue" d="M679.05,-166.84C695,-169.55 714.9,-172.92 731.26,-175.7"/>
<polygon fill="midnightblue" stroke="midnightblue" points="730.98,-179.2 741.43,-177.43 732.15,-172.3 730.98,-179.2"/>
</g>
<!-- Node26 -->
<g id="node26" class="node">
<title>Node26</title>
<g id="a_node26"><a xlink:href="sbuf_8c.html#a4ad75f3948c0340c342a3ea3eb63a6e6" target="_top" xlink:title=" ">
<polygon fill="white" stroke="black" points="836,-76.5 836,-95.5 906,-95.5 906,-76.5 836,-76.5"/>
<text text-anchor="middle" x="871" y="-83.5" font-family="Helvetica,sans-Serif" font-size="10.00">sbuf_extend</text>
</a>
</g>
</g>
<!-- Node25&#45;&gt;Node26 -->
<g id="edge30" class="edge">
<title>Node25&#45;&gt;Node26</title>
<path fill="none" stroke="midnightblue" d="M782.57,-133.35C788.16,-130.36 794.34,-127.05 800,-124 814.4,-116.24 830.44,-107.54 843.52,-100.42"/>
<polygon fill="midnightblue" stroke="midnightblue" points="845.36,-103.41 852.47,-95.56 842.01,-97.26 845.36,-103.41"/>
</g>
<!-- Node29&#45;&gt;Node26 -->
<g id="edge34" class="edge">
<title>Node29&#45;&gt;Node26</title>
<path fill="none" stroke="midnightblue" d="M782.57,-38.65C788.16,-41.64 794.34,-44.95 800,-48 814.4,-55.76 830.44,-64.46 843.52,-71.58"/>
<polygon fill="midnightblue" stroke="midnightblue" points="842.01,-74.74 852.47,-76.44 845.36,-68.59 842.01,-74.74"/>
</g>
<!-- Node31 -->
<g id="node31" class="node">
<title>Node31</title>
<g id="a_node31"><a xlink:href="uc_8c.html#a79c7c44c06c1febff5680c19667e2676" target="_top" xlink:title=" ">
<polygon fill="white" stroke="black" points="845.5,-209.5 845.5,-228.5 896.5,-228.5 896.5,-209.5 845.5,-209.5"/>
<text text-anchor="middle" x="871" y="-216.5" font-family="Helvetica,sans-Serif" font-size="10.00">uc_next</text>
</a>
</g>
</g>
<!-- Node30&#45;&gt;Node31 -->
<g id="edge36" class="edge">
<title>Node30&#45;&gt;Node31</title>
<path fill="none" stroke="midnightblue" d="M785.6,-188.6C799.84,-193.73 818.96,-200.62 835.41,-206.54"/>
<polygon fill="midnightblue" stroke="midnightblue" points="834.64,-209.98 845.23,-210.08 837.01,-203.4 834.64,-209.98"/>
</g>
<!-- Node32 -->
<g id="node32" class="node">
<title>Node32</title>
<g id="a_node32"><a xlink:href="uc_8c.html#a616e24870a58b86644c34ee077faca11" target="_top" xlink:title=" ">
<polygon fill="white" stroke="black" points="953.5,-123.5 953.5,-142.5 1001.5,-142.5 1001.5,-123.5 953.5,-123.5"/>
<text text-anchor="middle" x="977.5" y="-130.5" font-family="Helvetica,sans-Serif" font-size="10.00">uc_end</text>
</a>
</g>
</g>
<!-- Node31&#45;&gt;Node32 -->
<g id="edge37" class="edge">
<title>Node31&#45;&gt;Node32</title>
<path fill="none" stroke="midnightblue" d="M883.58,-209.47C901.32,-194.87 935.4,-166.82 957,-149.05"/>
<polygon fill="midnightblue" stroke="midnightblue" points="959.37,-151.63 964.87,-142.57 954.92,-146.23 959.37,-151.63"/>
</g>
<!-- Node34&#45;&gt;Node31 -->
<g id="edge40" class="edge">
<title>Node34&#45;&gt;Node31</title>
<path fill="none" stroke="midnightblue" d="M553.73,-200.1C586.37,-200.87 644.06,-204.44 691,-219 708.28,-224.36 709.44,-233.65 727,-238 758.49,-245.8 767.84,-242.29 800,-238 811.75,-236.43 824.33,-233.45 835.54,-230.3"/>
<polygon fill="midnightblue" stroke="midnightblue" points="836.78,-233.58 845.38,-227.4 834.8,-226.87 836.78,-233.58"/>
</g>
<!-- Node34&#45;&gt;Node35 -->
<g id="edge41" class="edge">
<title>Node34&#45;&gt;Node35</title>
<path fill="none" stroke="midnightblue" d="M551.02,-190.38C558.29,-186.61 565.98,-181.79 572,-176 605.45,-143.85 629.55,-93.98 641.01,-66.96"/>
<polygon fill="midnightblue" stroke="midnightblue" points="644.33,-68.08 644.89,-57.5 637.86,-65.42 644.33,-68.08"/>
</g>
<!-- Node35&#45;&gt;Node32 -->
<g id="edge42" class="edge">
<title>Node35&#45;&gt;Node32</title>
<path fill="none" stroke="midnightblue" d="M664.68,-38.44C679.49,-29.08 703.76,-15.46 727,-10 758.59,-2.59 768.54,-2.08 800,-10 868.53,-27.26 932.18,-86.2 960.72,-115.78"/>
<polygon fill="midnightblue" stroke="midnightblue" points="958.4,-118.42 967.82,-123.28 963.49,-113.61 958.4,-118.42"/>
</g>
<!-- Node37 -->
<g id="node37" class="node">
<title>Node37</title>
<g id="a_node37"><a xlink:href="conf_8c.html#ab1da6502eeb02af2fb9fa8a84515b0b6" target="_top" xlink:title=" ">
<polygon fill="white" stroke="black" points="482,-76.5 482,-95.5 572,-95.5 572,-76.5 482,-76.5"/>
<text text-anchor="middle" x="527" y="-83.5" font-family="Helvetica,sans-Serif" font-size="10.00">conf_placeholder</text>
</a>
</g>
</g>
<!-- Node36&#45;&gt;Node37 -->
<g id="edge44" class="edge">
<title>Node36&#45;&gt;Node37</title>
<path fill="none" stroke="midnightblue" d="M443.19,-86C451.78,-86 461.61,-86 471.41,-86"/>
<polygon fill="midnightblue" stroke="midnightblue" points="471.57,-89.5 481.57,-86 471.57,-82.5 471.57,-89.5"/>
</g>
<!-- Node38 -->
<g id="node38" class="node">
<title>Node38</title>
<g id="a_node38"><a xlink:href="uc_8c.html#a45fdc2f2f3cb34515f1014bf754741bb" target="_top" xlink:title=" ">
<polygon fill="white" stroke="black" points="500.5,-114.5 500.5,-133.5 553.5,-133.5 553.5,-114.5 500.5,-114.5"/>
<text text-anchor="middle" x="527" y="-121.5" font-family="Helvetica,sans-Serif" font-size="10.00">uc_code</text>
</a>
</g>
</g>
<!-- Node36&#45;&gt;Node38 -->
<g id="edge45" class="edge">
<title>Node36&#45;&gt;Node38</title>
<path fill="none" stroke="midnightblue" d="M443.19,-95.39C457.49,-100.33 475.19,-106.45 490.56,-111.76"/>
<polygon fill="midnightblue" stroke="midnightblue" points="489.66,-115.15 500.26,-115.11 491.95,-108.53 489.66,-115.15"/>
</g>
<!-- Node39&#45;&gt;Node31 -->
<g id="edge50" class="edge">
<title>Node39&#45;&gt;Node31</title>
<path fill="none" stroke="midnightblue" d="M329.74,-285.63C363.62,-306.08 448.36,-352 526,-352 526,-352 526,-352 650.5,-352 719.06,-352 743.12,-352.28 800,-314 815.15,-303.81 843.13,-261.76 858.74,-237.15"/>
<polygon fill="midnightblue" stroke="midnightblue" points="861.71,-239.01 864.06,-228.68 855.78,-235.29 861.71,-239.01"/>
</g>
<!-- Node40&#45;&gt;Node7 -->
<g id="edge54" class="edge">
<title>Node40&#45;&gt;Node7</title>
<path fill="none" stroke="midnightblue" d="M230.16,-19.67C234.34,-22.6 238.89,-25.88 243,-29 260.49,-42.3 279.76,-58.21 293.57,-69.83"/>
<polygon fill="midnightblue" stroke="midnightblue" points="291.5,-72.67 301.39,-76.46 296.02,-67.33 291.5,-72.67"/>
</g>
<!-- Node40&#45;&gt;Node35 -->
<g id="edge55" class="edge">
<title>Node40&#45;&gt;Node35</title>
<path fill="none" stroke="midnightblue" d="M240.81,-12.18C314.13,-18.62 530,-37.59 614.26,-44.99"/>
<polygon fill="midnightblue" stroke="midnightblue" points="614.06,-48.49 624.33,-45.88 614.67,-41.51 614.06,-48.49"/>
</g>
</g>
</svg>
