<?xml version="1.0" encoding="UTF-8" standalone="no"?>
<!DOCTYPE svg PUBLIC "-//W3C//DTD SVG 1.1//EN"
 "http://www.w3.org/Graphics/SVG/1.1/DTD/svg11.dtd">
<!-- Generated by graphviz version 2.44.1 (20200629.0846)
 -->
<!-- Title: lbuf_paragraphbeg Pages: 1 -->
<svg width="191pt" height="66pt"
 viewBox="0.00 0.00 191.00 66.00" xmlns="http://www.w3.org/2000/svg" xmlns:xlink="http://www.w3.org/1999/xlink">
<g id="graph0" class="graph" transform="scale(1 1) rotate(0) translate(4 62)">
<title>lbuf_paragraphbeg</title>
<polygon fill="white" stroke="transparent" points="-4,4 -4,-62 187,-62 187,4 -4,4"/>
<!-- Node1 -->
<g id="node1" class="node">
<title>Node1</title>
<g id="a_node1"><a xlink:title=" ">
<polygon fill="#bfbfbf" stroke="black" points="0,-19.5 0,-38.5 96,-38.5 96,-19.5 0,-19.5"/>
<text text-anchor="middle" x="48" y="-26.5" font-family="Helvetica,sans-Serif" font-size="10.00">lbuf_paragraphbeg</text>
</a>
</g>
</g>
<!-- Node2 -->
<g id="node2" class="node">
<title>Node2</title>
<g id="a_node2"><a xlink:href="lbuf_8c.html#ad0f45475ddc6eb82ecedf63ed1b914d4" target="_top" xlink:title=" ">
<polygon fill="white" stroke="black" points="132,-38.5 132,-57.5 183,-57.5 183,-38.5 132,-38.5"/>
<text text-anchor="middle" x="157.5" y="-45.5" font-family="Helvetica,sans-Serif" font-size="10.00">lbuf_get</text>
</a>
</g>
</g>
<!-- Node1&#45;&gt;Node2 -->
<g id="edge1" class="edge">
<title>Node1&#45;&gt;Node2</title>
<path fill="none" stroke="midnightblue" d="M96.15,-37.33C104.8,-38.86 113.68,-40.43 121.87,-41.88"/>
<polygon fill="midnightblue" stroke="midnightblue" points="121.36,-45.34 131.82,-43.64 122.58,-38.45 121.36,-45.34"/>
</g>
<!-- Node3 -->
<g id="node3" class="node">
<title>Node3</title>
<g id="a_node3"><a xlink:href="lbuf_8c.html#ae74f0372b69451ac877a76505b05874f" target="_top" xlink:title=" ">
<polygon fill="white" stroke="black" points="132.5,-0.5 132.5,-19.5 182.5,-19.5 182.5,-0.5 132.5,-0.5"/>
<text text-anchor="middle" x="157.5" y="-7.5" font-family="Helvetica,sans-Serif" font-size="10.00">lbuf_len</text>
</a>
</g>
</g>
<!-- Node1&#45;&gt;Node3 -->
<g id="edge2" class="edge">
<title>Node1&#45;&gt;Node3</title>
<path fill="none" stroke="midnightblue" d="M96.15,-20.67C104.96,-19.11 114,-17.51 122.32,-16.04"/>
<polygon fill="midnightblue" stroke="midnightblue" points="123.16,-19.45 132.4,-14.26 121.95,-12.55 123.16,-19.45"/>
</g>
</g>
</svg>
