<?xml version="1.0" encoding="UTF-8" standalone="no"?>
<!DOCTYPE svg PUBLIC "-//W3C//DTD SVG 1.1//EN"
 "http://www.w3.org/Graphics/SVG/1.1/DTD/svg11.dtd">
<!-- Generated by graphviz version 2.44.1 (20200629.0846)
 -->
<!-- Title: vc_join Pages: 1 -->
<!--zoomable 598 -->
<svg id="main" version="1.1" xmlns="http://www.w3.org/2000/svg" xmlns:xlink="http://www.w3.org/1999/xlink" xml:space="preserve" onload="init(evt)">
<style type="text/css"><![CDATA[
.edge:hover path { stroke: red; }
.edge:hover polygon { stroke: red; fill: red; }
]]></style>
<script type="text/javascript"><![CDATA[
var edges = document.getElementsByTagName('g');
if (edges && edges.length) {
  for (var i=0;i<edges.length;i++) {
    if (edges[i].id.substr(0,4)=='edge') {
      edges[i].setAttribute('class','edge');
    }
  }
}
]]></script>
        <defs>
                <circle id="rim" cx="0" cy="0" r="7"/>
                <circle id="rim2" cx="0" cy="0" r="3.5"/>
                <g id="zoomPlus">
                        <use xlink:href="#rim" fill="#404040">
                                <set attributeName="fill" to="#808080" begin="zoomplus.mouseover" end="zoomplus.mouseout"/>
                        </use>
                        <path d="M-4,0h8M0,-4v8" fill="none" stroke="white" stroke-width="1.5" pointer-events="none"/>
                </g>
                <g id="zoomMin">
                        <use xlink:href="#rim" fill="#404040">
                                <set attributeName="fill" to="#808080" begin="zoomminus.mouseover" end="zoomminus.mouseout"/>
                        </use>
                        <path d="M-4,0h8" fill="none" stroke="white" stroke-width="1.5" pointer-events="none"/>
                </g>
                <g id="dirArrow">
                        <path fill="none" stroke="white" stroke-width="1.5" d="M0,-3.0v7 M-2.5,-0.5L0,-3.0L2.5,-0.5"/>
                </g>
               <g id="resetDef">
                       <use xlink:href="#rim2" fill="#404040">
                               <set attributeName="fill" to="#808080" begin="reset.mouseover" end="reset.mouseout"/>
                       </use>
               </g>
        </defs>

<script type="text/javascript">
var viewWidth = 685;
var viewHeight = 598;
var sectionId = 'dynsection-79';
</script>
<script xlink:href="svgpan.js"/>
<svg id="graph" class="graph">
<g id="viewport">
<title>vc_join</title>
<polygon fill="white" stroke="transparent" points="-4,4 -4,-594 681,-594 681,4 -4,4"/>
<!-- Node1 -->
<g id="node1" class="node">
<title>Node1</title>
<g id="a_node1"><a xlink:title=" ">
<polygon fill="#bfbfbf" stroke="black" points="0,-152.5 0,-171.5 47,-171.5 47,-152.5 0,-152.5"/>
<text text-anchor="middle" x="23.5" y="-159.5" font-family="Helvetica,sans-Serif" font-size="10.00">vc_join</text>
</a>
</g>
</g>
<!-- Node2 -->
<g id="node2" class="node">
<title>Node2</title>
<g id="a_node2"><a xlink:href="vi_8c.html#a84aa133cf5f20f4198b3541dfca7fc01" target="_top" xlink:title=" ">
<polygon fill="white" stroke="black" points="83,-570.5 83,-589.5 151,-589.5 151,-570.5 83,-570.5"/>
<text text-anchor="middle" x="117" y="-577.5" font-family="Helvetica,sans-Serif" font-size="10.00">join_spaces</text>
</a>
</g>
</g>
<!-- Node1&#45;&gt;Node2 -->
<g id="edge1" class="edge">
<title>Node1&#45;&gt;Node2</title>
<path fill="none" stroke="midnightblue" d="M24.93,-171.61C27.47,-225.3 41.88,-488.13 83,-556 84.76,-558.91 87.02,-561.57 89.53,-563.97"/>
<polygon fill="midnightblue" stroke="midnightblue" points="87.58,-566.89 97.57,-570.41 91.95,-561.43 87.58,-566.89"/>
</g>
<!-- Node3 -->
<g id="node3" class="node">
<title>Node3</title>
<g id="a_node3"><a xlink:href="lbuf_8c.html#ac261b7344d70724c31f360a5dd8e2ffc" target="_top" xlink:title=" ">
<polygon fill="white" stroke="black" points="90.5,-285.5 90.5,-304.5 143.5,-304.5 143.5,-285.5 90.5,-285.5"/>
<text text-anchor="middle" x="117" y="-292.5" font-family="Helvetica,sans-Serif" font-size="10.00">lbuf_edit</text>
</a>
</g>
</g>
<!-- Node1&#45;&gt;Node3 -->
<g id="edge2" class="edge">
<title>Node1&#45;&gt;Node3</title>
<path fill="none" stroke="midnightblue" d="M31.08,-171.57C46.24,-193.6 83.83,-248.24 103.52,-276.86"/>
<polygon fill="midnightblue" stroke="midnightblue" points="100.68,-278.91 109.23,-285.16 106.45,-274.94 100.68,-278.91"/>
</g>
<!-- Node7 -->
<g id="node7" class="node">
<title>Node7</title>
<g id="a_node7"><a xlink:href="sbuf_8c.html#a4e56760893d5a6797626743840c9adf2" target="_top" xlink:title=" ">
<polygon fill="white" stroke="black" points="513,-399.5 513,-418.5 567,-418.5 567,-399.5 513,-399.5"/>
<text text-anchor="middle" x="540" y="-406.5" font-family="Helvetica,sans-Serif" font-size="10.00">sbuf_buf</text>
</a>
</g>
</g>
<!-- Node1&#45;&gt;Node7 -->
<g id="edge25" class="edge">
<title>Node1&#45;&gt;Node7</title>
<path fill="none" stroke="midnightblue" d="M25.25,-171.5C30.18,-226.74 62.76,-504 220.5,-504 220.5,-504 220.5,-504 333,-504 395.79,-504 417.75,-514.84 473,-485 497.52,-471.75 517.1,-445.52 528.38,-427.62"/>
<polygon fill="midnightblue" stroke="midnightblue" points="531.61,-429.04 533.78,-418.67 525.62,-425.43 531.61,-429.04"/>
</g>
<!-- Node9 -->
<g id="node9" class="node">
<title>Node9</title>
<g id="a_node9"><a xlink:href="sbuf_8c.html#a57748585d6786a2c1aadc2cbe6f2135b" target="_top" xlink:title=" ">
<polygon fill="white" stroke="black" points="408,-190.5 408,-209.5 473,-209.5 473,-190.5 408,-190.5"/>
<text text-anchor="middle" x="440.5" y="-197.5" font-family="Helvetica,sans-Serif" font-size="10.00">sbuf_make</text>
</a>
</g>
</g>
<!-- Node1&#45;&gt;Node9 -->
<g id="edge29" class="edge">
<title>Node1&#45;&gt;Node9</title>
<path fill="none" stroke="midnightblue" d="M47.05,-161.53C102.66,-160.74 250.71,-160.86 372,-181 381.53,-182.58 391.63,-185.01 401.03,-187.6"/>
<polygon fill="midnightblue" stroke="midnightblue" points="400.33,-191.04 410.91,-190.45 402.27,-184.31 400.33,-191.04"/>
</g>
<!-- Node11 -->
<g id="node11" class="node">
<title>Node11</title>
<g id="a_node11"><a xlink:href="sbuf_8c.html#aa511ac77d6b486accc01c0512ef27ed2" target="_top" xlink:title=" ">
<polygon fill="white" stroke="black" points="509,-266.5 509,-285.5 571,-285.5 571,-266.5 509,-266.5"/>
<text text-anchor="middle" x="540" y="-273.5" font-family="Helvetica,sans-Serif" font-size="10.00">sbuf_mem</text>
</a>
</g>
</g>
<!-- Node1&#45;&gt;Node11 -->
<g id="edge30" class="edge">
<title>Node1&#45;&gt;Node11</title>
<path fill="none" stroke="midnightblue" d="M47.16,-154.67C83.37,-143.63 156.72,-124 220.5,-124 220.5,-124 220.5,-124 333,-124 400.18,-124 420.56,-139.01 473,-181 499.14,-201.93 519.22,-235.89 530.05,-257.03"/>
<polygon fill="midnightblue" stroke="midnightblue" points="527.05,-258.85 534.61,-266.27 533.32,-255.75 527.05,-258.85"/>
</g>
<!-- Node21 -->
<g id="node21" class="node">
<title>Node21</title>
<g id="a_node21"><a xlink:href="lbuf_8c.html#ad0f45475ddc6eb82ecedf63ed1b914d4" target="_top" xlink:title=" ">
<polygon fill="white" stroke="black" points="91.5,-76.5 91.5,-95.5 142.5,-95.5 142.5,-76.5 91.5,-76.5"/>
<text text-anchor="middle" x="117" y="-83.5" font-family="Helvetica,sans-Serif" font-size="10.00">lbuf_get</text>
</a>
</g>
</g>
<!-- Node1&#45;&gt;Node21 -->
<g id="edge24" class="edge">
<title>Node1&#45;&gt;Node21</title>
<path fill="none" stroke="midnightblue" d="M34.59,-152.48C46.05,-141.81 65.43,-124.14 83,-110 86.48,-107.2 90.24,-104.33 93.94,-101.58"/>
<polygon fill="midnightblue" stroke="midnightblue" points="96.26,-104.23 102.29,-95.52 92.14,-98.56 96.26,-104.23"/>
</g>
<!-- Node22 -->
<g id="node22" class="node">
<title>Node22</title>
<g id="a_node22"><a xlink:href="sbuf_8c.html#a3f9aa15ca1d73f585d7a4a9d023e58ce" target="_top" xlink:title=" ">
<polygon fill="white" stroke="black" points="513,-484.5 513,-503.5 567,-503.5 567,-484.5 513,-484.5"/>
<text text-anchor="middle" x="540" y="-491.5" font-family="Helvetica,sans-Serif" font-size="10.00">sbuf_chr</text>
</a>
</g>
</g>
<!-- Node1&#45;&gt;Node22 -->
<g id="edge26" class="edge">
<title>Node1&#45;&gt;Node22</title>
<path fill="none" stroke="midnightblue" d="M25.41,-171.73C29.81,-217.01 49.96,-406.9 83,-455 123.94,-514.61 148.18,-542 220.5,-542 220.5,-542 220.5,-542 333,-542 394.78,-542 464.33,-521.27 504.75,-507.05"/>
<polygon fill="midnightblue" stroke="midnightblue" points="506.15,-510.27 514.38,-503.6 503.79,-503.68 506.15,-510.27"/>
</g>
<!-- Node23 -->
<g id="node23" class="node">
<title>Node23</title>
<g id="a_node23"><a xlink:href="sbuf_8c.html#a8c1a89868b1999663effb78b4f3fab32" target="_top" xlink:title=" ">
<polygon fill="white" stroke="black" points="88.5,-38.5 88.5,-57.5 145.5,-57.5 145.5,-38.5 88.5,-38.5"/>
<text text-anchor="middle" x="117" y="-45.5" font-family="Helvetica,sans-Serif" font-size="10.00">sbuf_free</text>
</a>
</g>
</g>
<!-- Node1&#45;&gt;Node23 -->
<g id="edge28" class="edge">
<title>Node1&#45;&gt;Node23</title>
<path fill="none" stroke="midnightblue" d="M28.51,-152.3C36.55,-133.81 56.18,-93.04 83,-67 84.27,-65.77 85.64,-64.58 87.07,-63.45"/>
<polygon fill="midnightblue" stroke="midnightblue" points="89.4,-66.1 95.69,-57.57 85.46,-60.31 89.4,-66.1"/>
</g>
<!-- Node24 -->
<g id="node24" class="node">
<title>Node24</title>
<g id="a_node24"><a xlink:href="uc_8c.html#a8afd7835259109c3ec7bb684d4a1f67f" target="_top" xlink:title=" ">
<polygon fill="white" stroke="black" points="92,-0.5 92,-19.5 142,-19.5 142,-0.5 92,-0.5"/>
<text text-anchor="middle" x="117" y="-7.5" font-family="Helvetica,sans-Serif" font-size="10.00">uc_slen</text>
</a>
</g>
</g>
<!-- Node1&#45;&gt;Node24 -->
<g id="edge31" class="edge">
<title>Node1&#45;&gt;Node24</title>
<path fill="none" stroke="midnightblue" d="M26.59,-152.16C32.05,-128.41 48.8,-67.11 83,-29 84.02,-27.86 85.13,-26.77 86.29,-25.74"/>
<polygon fill="midnightblue" stroke="midnightblue" points="88.63,-28.37 94.63,-19.63 84.5,-22.72 88.63,-28.37"/>
</g>
<!-- Node4 -->
<g id="node4" class="node">
<title>Node4</title>
<g id="a_node4"><a xlink:href="lbuf_8c.html#a7882079a375d5591a9f384a80a5599ff" target="_top" xlink:title=" ">
<polygon fill="white" stroke="black" points="196,-285.5 196,-304.5 247,-304.5 247,-285.5 196,-285.5"/>
<text text-anchor="middle" x="221.5" y="-292.5" font-family="Helvetica,sans-Serif" font-size="10.00">lbuf_opt</text>
</a>
</g>
</g>
<!-- Node3&#45;&gt;Node4 -->
<g id="edge3" class="edge">
<title>Node3&#45;&gt;Node4</title>
<path fill="none" stroke="midnightblue" d="M143.6,-295C156.36,-295 171.97,-295 185.79,-295"/>
<polygon fill="midnightblue" stroke="midnightblue" points="185.93,-298.5 195.93,-295 185.93,-291.5 185.93,-298.5"/>
</g>
<!-- Node19 -->
<g id="node19" class="node">
<title>Node19</title>
<g id="a_node19"><a xlink:href="lbuf_8c.html#a7d6629efef5a5cbd324d82e2b0c07c5d" target="_top" xlink:title=" ">
<polygon fill="white" stroke="black" points="187,-399.5 187,-418.5 256,-418.5 256,-399.5 187,-399.5"/>
<text text-anchor="middle" x="221.5" y="-406.5" font-family="Helvetica,sans-Serif" font-size="10.00">lbuf_replace</text>
</a>
</g>
</g>
<!-- Node3&#45;&gt;Node19 -->
<g id="edge19" class="edge">
<title>Node3&#45;&gt;Node19</title>
<path fill="none" stroke="midnightblue" d="M126.74,-304.72C144.06,-323.99 182.96,-367.25 204.82,-391.57"/>
<polygon fill="midnightblue" stroke="midnightblue" points="202.49,-394.21 211.78,-399.31 207.7,-389.53 202.49,-394.21"/>
</g>
<!-- Node5 -->
<g id="node5" class="node">
<title>Node5</title>
<g id="a_node5"><a xlink:href="lbuf_8c.html#ad5f7a537d1c72f485481fc22cb8361a6" target="_top" xlink:title=" ">
<polygon fill="white" stroke="black" points="308,-266.5 308,-285.5 356,-285.5 356,-266.5 308,-266.5"/>
<text text-anchor="middle" x="332" y="-273.5" font-family="Helvetica,sans-Serif" font-size="10.00">lbuf_cp</text>
</a>
</g>
</g>
<!-- Node4&#45;&gt;Node5 -->
<g id="edge4" class="edge">
<title>Node4&#45;&gt;Node5</title>
<path fill="none" stroke="midnightblue" d="M247.12,-290.69C262.1,-288.07 281.42,-284.68 297.74,-281.82"/>
<polygon fill="midnightblue" stroke="midnightblue" points="298.71,-285.21 307.96,-280.03 297.51,-278.31 298.71,-285.21"/>
</g>
<!-- Node12 -->
<g id="node12" class="node">
<title>Node12</title>
<g id="a_node12"><a xlink:href="lbuf_8c.html#aedcad8ccce5993eacce71ffc80aaab87" target="_top" xlink:title=" ">
<polygon fill="white" stroke="black" points="292,-304.5 292,-323.5 372,-323.5 372,-304.5 292,-304.5"/>
<text text-anchor="middle" x="332" y="-311.5" font-family="Helvetica,sans-Serif" font-size="10.00">lbuf_savemark</text>
</a>
</g>
</g>
<!-- Node4&#45;&gt;Node12 -->
<g id="edge12" class="edge">
<title>Node4&#45;&gt;Node12</title>
<path fill="none" stroke="midnightblue" d="M247.12,-299.31C257.38,-301.11 269.67,-303.26 281.65,-305.36"/>
<polygon fill="midnightblue" stroke="midnightblue" points="281.13,-308.82 291.58,-307.1 282.34,-301.92 281.13,-308.82"/>
</g>
<!-- Node13 -->
<g id="node13" class="node">
<title>Node13</title>
<g id="a_node13"><a xlink:href="lbuf_8c.html#a46670f1a015007134b0d5a07ea258fcc" target="_top" xlink:title=" ">
<polygon fill="white" stroke="black" points="295,-342.5 295,-361.5 369,-361.5 369,-342.5 295,-342.5"/>
<text text-anchor="middle" x="332" y="-349.5" font-family="Helvetica,sans-Serif" font-size="10.00">lbuf_savepos</text>
</a>
</g>
</g>
<!-- Node4&#45;&gt;Node13 -->
<g id="edge13" class="edge">
<title>Node4&#45;&gt;Node13</title>
<path fill="none" stroke="midnightblue" d="M239.52,-304.6C253.51,-312.42 273.92,-323.66 292,-333 295.11,-334.6 298.37,-336.25 301.62,-337.87"/>
<polygon fill="midnightblue" stroke="midnightblue" points="300.15,-341.05 310.67,-342.32 303.24,-334.77 300.15,-341.05"/>
</g>
<!-- Node15 -->
<g id="node15" class="node">
<title>Node15</title>
<g id="a_node15"><a xlink:href="lbuf_8c.html#ab41193f3312b21588338e92e1b144f87" target="_top" xlink:title=" ">
<polygon fill="white" stroke="black" points="304,-380.5 304,-399.5 360,-399.5 360,-380.5 304,-380.5"/>
<text text-anchor="middle" x="332" y="-387.5" font-family="Helvetica,sans-Serif" font-size="10.00">linecount</text>
</a>
</g>
</g>
<!-- Node4&#45;&gt;Node15 -->
<g id="edge15" class="edge">
<title>Node4&#45;&gt;Node15</title>
<path fill="none" stroke="midnightblue" d="M229.65,-304.98C241.27,-320.66 265.65,-351.31 292,-371 294.06,-372.54 296.26,-374 298.53,-375.39"/>
<polygon fill="midnightblue" stroke="midnightblue" points="297.03,-378.56 307.48,-380.32 300.41,-372.43 297.03,-378.56"/>
</g>
<!-- Node17 -->
<g id="node17" class="node">
<title>Node17</title>
<g id="a_node17"><a xlink:href="lbuf_8c.html#a94a520edd0e2f60713523483cf01c7de" target="_top" xlink:title=" ">
<polygon fill="white" stroke="black" points="302.5,-228.5 302.5,-247.5 361.5,-247.5 361.5,-228.5 302.5,-228.5"/>
<text text-anchor="middle" x="332" y="-235.5" font-family="Helvetica,sans-Serif" font-size="10.00">lopt_done</text>
</a>
</g>
</g>
<!-- Node4&#45;&gt;Node17 -->
<g id="edge17" class="edge">
<title>Node4&#45;&gt;Node17</title>
<path fill="none" stroke="midnightblue" d="M239.52,-285.4C253.51,-277.58 273.92,-266.34 292,-257 295.11,-255.4 298.37,-253.75 301.62,-252.13"/>
<polygon fill="midnightblue" stroke="midnightblue" points="303.24,-255.23 310.67,-247.68 300.15,-248.95 303.24,-255.23"/>
</g>
<!-- Node18 -->
<g id="node18" class="node">
<title>Node18</title>
<g id="a_node18"><a xlink:href="uc_8c.html#a2844d125d9a2c1d03848dcdf952b0edb" target="_top" xlink:title=" ">
<polygon fill="white" stroke="black" points="308,-190.5 308,-209.5 356,-209.5 356,-190.5 308,-190.5"/>
<text text-anchor="middle" x="332" y="-197.5" font-family="Helvetica,sans-Serif" font-size="10.00">uc_dup</text>
</a>
</g>
</g>
<!-- Node4&#45;&gt;Node18 -->
<g id="edge18" class="edge">
<title>Node4&#45;&gt;Node18</title>
<path fill="none" stroke="midnightblue" d="M229.65,-285.02C241.27,-269.34 265.65,-238.69 292,-219 294.19,-217.37 296.54,-215.81 298.96,-214.35"/>
<polygon fill="midnightblue" stroke="midnightblue" points="300.79,-217.34 307.89,-209.48 297.43,-211.2 300.79,-217.34"/>
</g>
<!-- Node6 -->
<g id="node6" class="node">
<title>Node6</title>
<g id="a_node6"><a xlink:href="sbuf_8c.html#a7bf14d501d36ce36ee269d77cf2c3fc6" target="_top" xlink:title=" ">
<polygon fill="white" stroke="black" points="409.5,-342.5 409.5,-361.5 471.5,-361.5 471.5,-342.5 409.5,-342.5"/>
<text text-anchor="middle" x="440.5" y="-349.5" font-family="Helvetica,sans-Serif" font-size="10.00">sbuf_done</text>
</a>
</g>
</g>
<!-- Node5&#45;&gt;Node6 -->
<g id="edge5" class="edge">
<title>Node5&#45;&gt;Node6</title>
<path fill="none" stroke="midnightblue" d="M354.98,-285.53C360.68,-288.31 366.7,-291.55 372,-295 390.31,-306.92 409.14,-323.22 422.24,-335.34"/>
<polygon fill="midnightblue" stroke="midnightblue" points="419.93,-337.96 429.61,-342.27 424.72,-332.87 419.93,-337.96"/>
</g>
<!-- Node5&#45;&gt;Node9 -->
<g id="edge8" class="edge">
<title>Node5&#45;&gt;Node9</title>
<path fill="none" stroke="midnightblue" d="M354.98,-266.47C360.68,-263.69 366.7,-260.45 372,-257 390.31,-245.08 409.14,-228.78 422.24,-216.66"/>
<polygon fill="midnightblue" stroke="midnightblue" points="424.72,-219.13 429.61,-209.73 419.93,-214.04 424.72,-219.13"/>
</g>
<!-- Node10 -->
<g id="node10" class="node">
<title>Node10</title>
<g id="a_node10"><a xlink:href="sbuf_8c.html#a603d1d6ab090025f5850f10bfa2dec7a" target="_top" xlink:title=" ">
<polygon fill="white" stroke="black" points="414.5,-266.5 414.5,-285.5 466.5,-285.5 466.5,-266.5 414.5,-266.5"/>
<text text-anchor="middle" x="440.5" y="-273.5" font-family="Helvetica,sans-Serif" font-size="10.00">sbuf_str</text>
</a>
</g>
</g>
<!-- Node5&#45;&gt;Node10 -->
<g id="edge9" class="edge">
<title>Node5&#45;&gt;Node10</title>
<path fill="none" stroke="midnightblue" d="M356.11,-276C370.03,-276 388.04,-276 403.76,-276"/>
<polygon fill="midnightblue" stroke="midnightblue" points="404.2,-279.5 414.2,-276 404.2,-272.5 404.2,-279.5"/>
</g>
<!-- Node6&#45;&gt;Node7 -->
<g id="edge6" class="edge">
<title>Node6&#45;&gt;Node7</title>
<path fill="none" stroke="midnightblue" d="M458.04,-361.67C473.26,-370.57 496.06,-383.9 513.59,-394.14"/>
<polygon fill="midnightblue" stroke="midnightblue" points="512.31,-397.45 522.7,-399.47 515.84,-391.4 512.31,-397.45"/>
</g>
<!-- Node8 -->
<g id="node8" class="node">
<title>Node8</title>
<g id="a_node8"><a xlink:href="sbuf_8c.html#a4ad75f3948c0340c342a3ea3eb63a6e6" target="_top" xlink:title=" ">
<polygon fill="white" stroke="black" points="607,-399.5 607,-418.5 677,-418.5 677,-399.5 607,-399.5"/>
<text text-anchor="middle" x="642" y="-406.5" font-family="Helvetica,sans-Serif" font-size="10.00">sbuf_extend</text>
</a>
</g>
</g>
<!-- Node7&#45;&gt;Node8 -->
<g id="edge7" class="edge">
<title>Node7&#45;&gt;Node8</title>
<path fill="none" stroke="midnightblue" d="M567.01,-409C576.13,-409 586.64,-409 596.82,-409"/>
<polygon fill="midnightblue" stroke="midnightblue" points="596.83,-412.5 606.83,-409 596.83,-405.5 596.83,-412.5"/>
</g>
<!-- Node10&#45;&gt;Node11 -->
<g id="edge10" class="edge">
<title>Node10&#45;&gt;Node11</title>
<path fill="none" stroke="midnightblue" d="M466.61,-276C476.36,-276 487.77,-276 498.61,-276"/>
<polygon fill="midnightblue" stroke="midnightblue" points="498.76,-279.5 508.76,-276 498.76,-272.5 498.76,-279.5"/>
</g>
<!-- Node11&#45;&gt;Node8 -->
<g id="edge11" class="edge">
<title>Node11&#45;&gt;Node8</title>
<path fill="none" stroke="midnightblue" d="M548.19,-285.57C564.76,-307.6 605.84,-362.24 627.36,-390.86"/>
<polygon fill="midnightblue" stroke="midnightblue" points="624.8,-393.27 633.6,-399.16 630.39,-389.07 624.8,-393.27"/>
</g>
<!-- Node14 -->
<g id="node14" class="node">
<title>Node14</title>
<g id="a_node14"><a xlink:href="lbuf_8c.html#a69221917b521da2cd5f804a9f4694f1a" target="_top" xlink:title=" ">
<polygon fill="white" stroke="black" points="415,-399.5 415,-418.5 466,-418.5 466,-399.5 415,-399.5"/>
<text text-anchor="middle" x="440.5" y="-406.5" font-family="Helvetica,sans-Serif" font-size="10.00">markidx</text>
</a>
</g>
</g>
<!-- Node13&#45;&gt;Node14 -->
<g id="edge14" class="edge">
<title>Node13&#45;&gt;Node14</title>
<path fill="none" stroke="midnightblue" d="M353.36,-361.63C359.39,-364.57 366,-367.85 372,-371 386.05,-378.37 401.48,-387.01 414.03,-394.19"/>
<polygon fill="midnightblue" stroke="midnightblue" points="412.59,-397.4 423.01,-399.35 416.08,-391.33 412.59,-397.4"/>
</g>
<!-- Node16 -->
<g id="node16" class="node">
<title>Node16</title>
<g id="a_node16"><a xlink:href="lbuf_8c.html#ac559857979b20ce0c64638c9e3e4edec" target="_top" xlink:title=" ">
<polygon fill="white" stroke="black" points="411.5,-456.5 411.5,-475.5 469.5,-475.5 469.5,-456.5 411.5,-456.5"/>
<text text-anchor="middle" x="440.5" y="-463.5" font-family="Helvetica,sans-Serif" font-size="10.00">linelength</text>
</a>
</g>
</g>
<!-- Node15&#45;&gt;Node16 -->
<g id="edge16" class="edge">
<title>Node15&#45;&gt;Node16</title>
<path fill="none" stroke="midnightblue" d="M354.98,-399.53C360.68,-402.31 366.7,-405.55 372,-409 390.31,-420.92 409.14,-437.22 422.24,-449.34"/>
<polygon fill="midnightblue" stroke="midnightblue" points="419.93,-451.96 429.61,-456.27 424.72,-446.87 419.93,-451.96"/>
</g>
<!-- Node19&#45;&gt;Node15 -->
<g id="edge22" class="edge">
<title>Node19&#45;&gt;Node15</title>
<path fill="none" stroke="midnightblue" d="M256.24,-403.09C268.19,-401 281.71,-398.63 293.92,-396.49"/>
<polygon fill="midnightblue" stroke="midnightblue" points="294.57,-399.93 303.82,-394.76 293.37,-393.04 294.57,-399.93"/>
</g>
<!-- Node19&#45;&gt;Node16 -->
<g id="edge23" class="edge">
<title>Node19&#45;&gt;Node16</title>
<path fill="none" stroke="midnightblue" d="M236.43,-418.66C249.98,-427.55 271.47,-440.33 292,-447 327.91,-458.67 370.93,-463.21 401.22,-464.95"/>
<polygon fill="midnightblue" stroke="midnightblue" points="401.21,-468.46 411.37,-465.46 401.56,-461.47 401.21,-468.46"/>
</g>
<!-- Node20 -->
<g id="node20" class="node">
<title>Node20</title>
<g id="a_node20"><a xlink:href="lbuf_8c.html#a5a34f3f60dfd5ea06207d96d821da368" target="_top" xlink:title=" ">
<polygon fill="white" stroke="black" points="302.5,-418.5 302.5,-437.5 361.5,-437.5 361.5,-418.5 302.5,-418.5"/>
<text text-anchor="middle" x="332" y="-425.5" font-family="Helvetica,sans-Serif" font-size="10.00">lbuf_mark</text>
</a>
</g>
</g>
<!-- Node19&#45;&gt;Node20 -->
<g id="edge20" class="edge">
<title>Node19&#45;&gt;Node20</title>
<path fill="none" stroke="midnightblue" d="M256.24,-414.91C267.69,-416.91 280.57,-419.17 292.37,-421.24"/>
<polygon fill="midnightblue" stroke="midnightblue" points="291.95,-424.71 302.4,-422.99 293.16,-417.82 291.95,-424.71"/>
</g>
<!-- Node20&#45;&gt;Node14 -->
<g id="edge21" class="edge">
<title>Node20&#45;&gt;Node14</title>
<path fill="none" stroke="midnightblue" d="M361.54,-422.91C374.8,-420.54 390.68,-417.71 404.64,-415.22"/>
<polygon fill="midnightblue" stroke="midnightblue" points="405.63,-418.6 414.86,-413.4 404.4,-411.71 405.63,-418.6"/>
</g>
<!-- Node22&#45;&gt;Node8 -->
<g id="edge27" class="edge">
<title>Node22&#45;&gt;Node8</title>
<path fill="none" stroke="midnightblue" d="M552.47,-484.25C569.43,-469.84 601.37,-442.68 621.9,-425.24"/>
<polygon fill="midnightblue" stroke="midnightblue" points="624.31,-427.78 629.66,-418.64 619.78,-422.45 624.31,-427.78"/>
</g>
<!-- Node25 -->
<g id="node25" class="node">
<title>Node25</title>
<g id="a_node25"><a xlink:href="uc_8c.html#a616e24870a58b86644c34ee077faca11" target="_top" xlink:title=" ">
<polygon fill="white" stroke="black" points="197.5,-0.5 197.5,-19.5 245.5,-19.5 245.5,-0.5 197.5,-0.5"/>
<text text-anchor="middle" x="221.5" y="-7.5" font-family="Helvetica,sans-Serif" font-size="10.00">uc_end</text>
</a>
</g>
</g>
<!-- Node24&#45;&gt;Node25 -->
<g id="edge32" class="edge">
<title>Node24&#45;&gt;Node25</title>
<path fill="none" stroke="midnightblue" d="M142.03,-10C155.46,-10 172.4,-10 187.1,-10"/>
<polygon fill="midnightblue" stroke="midnightblue" points="187.32,-13.5 197.32,-10 187.32,-6.5 187.32,-13.5"/>
</g>
</g>
</svg>
        <g id="navigator" transform="translate(0 0)" fill="#404254">
                <rect fill="#f2f5e9" fill-opacity="0.5" stroke="#606060" stroke-width=".5" x="0" y="0" width="60" height="60"/>
                <use id="zoomplus" xlink:href="#zoomPlus" x="17" y="9" onmousedown="handleZoom(evt,'in')"/>
                <use id="zoomminus" xlink:href="#zoomMin" x="42" y="9" onmousedown="handleZoom(evt,'out')"/>
                <use id="reset" xlink:href="#resetDef" x="30" y="36" onmousedown="handleReset()"/>
                <g id="arrowUp" xlink:href="#dirArrow" transform="translate(30 24)" onmousedown="handlePan(0,-1)">
                  <use xlink:href="#rim" fill="#404040">
                        <set attributeName="fill" to="#808080" begin="arrowUp.mouseover" end="arrowUp.mouseout"/>
                  </use>
                  <path fill="none" stroke="white" stroke-width="1.5" d="M0,-3.0v7 M-2.5,-0.5L0,-3.0L2.5,-0.5"/>
                </g>
                <g id="arrowRight" xlink:href="#dirArrow" transform="rotate(90) translate(36 -43)" onmousedown="handlePan(1,0)">
                  <use xlink:href="#rim" fill="#404040">
                        <set attributeName="fill" to="#808080" begin="arrowRight.mouseover" end="arrowRight.mouseout"/>
                  </use>
                  <path fill="none" stroke="white" stroke-width="1.5" d="M0,-3.0v7 M-2.5,-0.5L0,-3.0L2.5,-0.5"/>
                </g>
                <g id="arrowDown" xlink:href="#dirArrow" transform="rotate(180) translate(-30 -48)" onmousedown="handlePan(0,1)">
                  <use xlink:href="#rim" fill="#404040">
                        <set attributeName="fill" to="#808080" begin="arrowDown.mouseover" end="arrowDown.mouseout"/>
                  </use>
                  <path fill="none" stroke="white" stroke-width="1.5" d="M0,-3.0v7 M-2.5,-0.5L0,-3.0L2.5,-0.5"/>
                </g>
                <g id="arrowLeft" xlink:href="#dirArrow" transform="rotate(270) translate(-36 17)" onmousedown="handlePan(-1,0)">
                  <use xlink:href="#rim" fill="#404040">
                        <set attributeName="fill" to="#808080" begin="arrowLeft.mouseover" end="arrowLeft.mouseout"/>
                  </use>
                  <path fill="none" stroke="white" stroke-width="1.5" d="M0,-3.0v7 M-2.5,-0.5L0,-3.0L2.5,-0.5"/>
                </g>
        </g>
        <svg viewBox="0 0 15 15" width="100%" height="30px" preserveAspectRatio="xMaxYMin meet">
         <g id="arrow_out" transform="scale(0.3 0.3)">
          <a xlink:href="vi_8c_a3d105f7bfebd8365af5b66d6dedf184e_cgraph_org.svg" target="_base">
           <rect id="button" ry="5" rx="5" y="6" x="6" height="38" width="38"
                fill="#f2f5e9" fill-opacity="0.5" stroke="#606060" stroke-width="1.0"/>
           <path id="arrow"
             d="M 11.500037,31.436501 C 11.940474,20.09759 22.043105,11.32322 32.158766,21.979434 L 37.068811,17.246167 C 37.068811,17.246167 37.088388,32 37.088388,32 L 22.160133,31.978069 C 22.160133,31.978069 26.997745,27.140456 26.997745,27.140456 C 18.528582,18.264221 13.291696,25.230495 11.500037,31.436501 z"
             style="fill:#404040;"/>
          </a>
         </g>
        </svg>
</svg>
