<?xml version="1.0" encoding="UTF-8" standalone="no"?>
<!DOCTYPE svg PUBLIC "-//W3C//DTD SVG 1.1//EN"
 "http://www.w3.org/Graphics/SVG/1.1/DTD/svg11.dtd">
<!-- Generated by graphviz version 2.44.1 (20200629.0846)
 -->
<!-- Title: lbuf_region Pages: 1 -->
<svg width="406pt" height="142pt"
 viewBox="0.00 0.00 406.00 142.00" xmlns="http://www.w3.org/2000/svg" xmlns:xlink="http://www.w3.org/1999/xlink">
<g id="graph0" class="graph" transform="scale(1 1) rotate(0) translate(4 138)">
<title>lbuf_region</title>
<polygon fill="white" stroke="transparent" points="-4,4 -4,-138 402,-138 402,4 -4,4"/>
<!-- Node1 -->
<g id="node1" class="node">
<title>Node1</title>
<g id="a_node1"><a xlink:title=" ">
<polygon fill="#bfbfbf" stroke="black" points="334,-57.5 334,-76.5 398,-76.5 398,-57.5 334,-57.5"/>
<text text-anchor="middle" x="366" y="-64.5" font-family="Helvetica,sans-Serif" font-size="10.00">lbuf_region</text>
</a>
</g>
</g>
<!-- Node2 -->
<g id="node2" class="node">
<title>Node2</title>
<g id="a_node2"><a xlink:href="vi_8c.html#a4e8a00c8cdffacf0c69c3901cdcdf059" target="_top" xlink:title=" ">
<polygon fill="white" stroke="black" points="242.5,-114.5 242.5,-133.5 292.5,-133.5 292.5,-114.5 242.5,-114.5"/>
<text text-anchor="middle" x="267.5" y="-121.5" font-family="Helvetica,sans-Serif" font-size="10.00">vi_case</text>
</a>
</g>
</g>
<!-- Node1&#45;&gt;Node2 -->
<g id="edge1" class="edge">
<title>Node1&#45;&gt;Node2</title>
<path fill="none" stroke="midnightblue" d="M339.57,-82.02C322.16,-92.3 299.61,-105.62 284.63,-114.47"/>
<polygon fill="midnightblue" stroke="midnightblue" points="341.8,-84.77 348.63,-76.67 338.24,-78.74 341.8,-84.77"/>
</g>
<!-- Node6 -->
<g id="node6" class="node">
<title>Node6</title>
<g id="a_node6"><a xlink:href="vi_8c.html#ae37b094c3bb647d8c1a4ac4e858ce518" target="_top" xlink:title=" ">
<polygon fill="white" stroke="black" points="237,-76.5 237,-95.5 298,-95.5 298,-76.5 237,-76.5"/>
<text text-anchor="middle" x="267.5" y="-83.5" font-family="Helvetica,sans-Serif" font-size="10.00">vi_change</text>
</a>
</g>
</g>
<!-- Node1&#45;&gt;Node6 -->
<g id="edge5" class="edge">
<title>Node1&#45;&gt;Node6</title>
<path fill="none" stroke="midnightblue" d="M323.98,-75.08C315.32,-76.78 306.34,-78.55 298.19,-80.15"/>
<polygon fill="midnightblue" stroke="midnightblue" points="324.8,-78.48 333.94,-73.12 323.45,-71.61 324.8,-78.48"/>
</g>
<!-- Node7 -->
<g id="node7" class="node">
<title>Node7</title>
<g id="a_node7"><a xlink:href="vi_8c.html#abfa30fc2e2b4b8b24e2ee5d4bd54f2eb" target="_top" xlink:title=" ">
<polygon fill="white" stroke="black" points="239.5,-38.5 239.5,-57.5 295.5,-57.5 295.5,-38.5 239.5,-38.5"/>
<text text-anchor="middle" x="267.5" y="-45.5" font-family="Helvetica,sans-Serif" font-size="10.00">vi_delete</text>
</a>
</g>
</g>
<!-- Node1&#45;&gt;Node7 -->
<g id="edge7" class="edge">
<title>Node1&#45;&gt;Node7</title>
<path fill="none" stroke="midnightblue" d="M324.11,-58.95C314.48,-57.05 304.45,-55.08 295.61,-53.34"/>
<polygon fill="midnightblue" stroke="midnightblue" points="323.45,-62.39 333.94,-60.88 324.8,-55.52 323.45,-62.39"/>
</g>
<!-- Node8 -->
<g id="node8" class="node">
<title>Node8</title>
<g id="a_node8"><a xlink:href="vi_8c.html#a2faedb758580642d391ee8ffae96d3d9" target="_top" xlink:title=" ">
<polygon fill="white" stroke="black" points="242.5,-0.5 242.5,-19.5 292.5,-19.5 292.5,-0.5 242.5,-0.5"/>
<text text-anchor="middle" x="267.5" y="-7.5" font-family="Helvetica,sans-Serif" font-size="10.00">vi_yank</text>
</a>
</g>
</g>
<!-- Node1&#45;&gt;Node8 -->
<g id="edge9" class="edge">
<title>Node1&#45;&gt;Node8</title>
<path fill="none" stroke="midnightblue" d="M339.57,-51.98C322.16,-41.7 299.61,-28.38 284.63,-19.53"/>
<polygon fill="midnightblue" stroke="midnightblue" points="338.24,-55.26 348.63,-57.33 341.8,-49.23 338.24,-55.26"/>
</g>
<!-- Node3 -->
<g id="node3" class="node">
<title>Node3</title>
<g id="a_node3"><a xlink:href="vi_8c.html#a06cbc6eb843436a0e77e07cbab0c4538" target="_top" xlink:title=" ">
<polygon fill="white" stroke="black" points="139,-57.5 139,-76.5 201,-76.5 201,-57.5 139,-57.5"/>
<text text-anchor="middle" x="170" y="-64.5" font-family="Helvetica,sans-Serif" font-size="10.00">vc_motion</text>
</a>
</g>
</g>
<!-- Node2&#45;&gt;Node3 -->
<g id="edge2" class="edge">
<title>Node2&#45;&gt;Node3</title>
<path fill="none" stroke="midnightblue" d="M241.33,-108.98C224.11,-98.7 201.79,-85.38 186.96,-76.53"/>
<polygon fill="midnightblue" stroke="midnightblue" points="239.92,-112.21 250.3,-114.33 243.51,-106.2 239.92,-112.21"/>
</g>
<!-- Node4 -->
<g id="node4" class="node">
<title>Node4</title>
<g id="a_node4"><a xlink:href="vi_8c.html#a8d808e0f3453afe6600673ee1ea5f828" target="_top" xlink:title=" ">
<polygon fill="white" stroke="black" points="74,-57.5 74,-76.5 103,-76.5 103,-57.5 74,-57.5"/>
<text text-anchor="middle" x="88.5" y="-64.5" font-family="Helvetica,sans-Serif" font-size="10.00">vi</text>
</a>
</g>
</g>
<!-- Node3&#45;&gt;Node4 -->
<g id="edge3" class="edge">
<title>Node3&#45;&gt;Node4</title>
<path fill="none" stroke="midnightblue" d="M128.65,-67C119.46,-67 110.31,-67 103.17,-67"/>
<polygon fill="midnightblue" stroke="midnightblue" points="128.94,-70.5 138.94,-67 128.94,-63.5 128.94,-70.5"/>
</g>
<!-- Node5 -->
<g id="node5" class="node">
<title>Node5</title>
<g id="a_node5"><a xlink:href="vi_8c.html#a0ddf1224851353fc92bfbff6f499fa97" target="_top" xlink:title=" ">
<polygon fill="white" stroke="black" points="0,-57.5 0,-76.5 38,-76.5 38,-57.5 0,-57.5"/>
<text text-anchor="middle" x="19" y="-64.5" font-family="Helvetica,sans-Serif" font-size="10.00">main</text>
</a>
</g>
</g>
<!-- Node4&#45;&gt;Node5 -->
<g id="edge4" class="edge">
<title>Node4&#45;&gt;Node5</title>
<path fill="none" stroke="midnightblue" d="M63.58,-67C55.25,-67 46.04,-67 38.25,-67"/>
<polygon fill="midnightblue" stroke="midnightblue" points="63.84,-70.5 73.84,-67 63.84,-63.5 63.84,-70.5"/>
</g>
<!-- Node6&#45;&gt;Node3 -->
<g id="edge6" class="edge">
<title>Node6&#45;&gt;Node3</title>
<path fill="none" stroke="midnightblue" d="M226.89,-78.12C218.23,-76.4 209.21,-74.6 201,-72.97"/>
<polygon fill="midnightblue" stroke="midnightblue" points="226.32,-81.57 236.81,-80.09 227.68,-74.71 226.32,-81.57"/>
</g>
<!-- Node7&#45;&gt;Node3 -->
<g id="edge8" class="edge">
<title>Node7&#45;&gt;Node3</title>
<path fill="none" stroke="midnightblue" d="M229.52,-55.36C220.15,-57.22 210.19,-59.2 201.2,-60.99"/>
<polygon fill="midnightblue" stroke="midnightblue" points="230.26,-58.78 239.39,-53.39 228.9,-51.91 230.26,-58.78"/>
</g>
<!-- Node8&#45;&gt;Node3 -->
<g id="edge10" class="edge">
<title>Node8&#45;&gt;Node3</title>
<path fill="none" stroke="midnightblue" d="M241.33,-25.02C224.11,-35.3 201.79,-48.62 186.96,-57.47"/>
<polygon fill="midnightblue" stroke="midnightblue" points="243.51,-27.8 250.3,-19.67 239.92,-21.79 243.51,-27.8"/>
</g>
</g>
</svg>
