<?xml version="1.0" encoding="UTF-8" standalone="no"?>
<!DOCTYPE svg PUBLIC "-//W3C//DTD SVG 1.1//EN"
 "http://www.w3.org/Graphics/SVG/1.1/DTD/svg11.dtd">
<!-- Generated by graphviz version 2.44.1 (20200629.0846)
 -->
<!-- Title: vi_indents Pages: 1 -->
<svg width="366pt" height="104pt"
 viewBox="0.00 0.00 366.00 104.00" xmlns="http://www.w3.org/2000/svg" xmlns:xlink="http://www.w3.org/1999/xlink">
<g id="graph0" class="graph" transform="scale(1 1) rotate(0) translate(4 100)">
<title>vi_indents</title>
<polygon fill="white" stroke="transparent" points="-4,4 -4,-100 362,-100 362,4 -4,4"/>
<!-- Node1 -->
<g id="node1" class="node">
<title>Node1</title>
<g id="a_node1"><a xlink:title=" ">
<polygon fill="#bfbfbf" stroke="black" points="0,-38.5 0,-57.5 61,-57.5 61,-38.5 0,-38.5"/>
<text text-anchor="middle" x="30.5" y="-45.5" font-family="Helvetica,sans-Serif" font-size="10.00">vi_indents</text>
</a>
</g>
</g>
<!-- Node2 -->
<g id="node2" class="node">
<title>Node2</title>
<g id="a_node2"><a xlink:href="sbuf_8c.html#a3f9aa15ca1d73f585d7a4a9d023e58ce" target="_top" xlink:title=" ">
<polygon fill="white" stroke="black" points="198,-76.5 198,-95.5 252,-95.5 252,-76.5 198,-76.5"/>
<text text-anchor="middle" x="225" y="-83.5" font-family="Helvetica,sans-Serif" font-size="10.00">sbuf_chr</text>
</a>
</g>
</g>
<!-- Node1&#45;&gt;Node2 -->
<g id="edge1" class="edge">
<title>Node1&#45;&gt;Node2</title>
<path fill="none" stroke="midnightblue" d="M61.28,-57.55C72.41,-60.88 85.2,-64.42 97,-67 127.24,-73.62 162.05,-78.65 187.56,-81.86"/>
<polygon fill="midnightblue" stroke="midnightblue" points="187.19,-85.34 197.54,-83.09 188.04,-78.4 187.19,-85.34"/>
</g>
<!-- Node4 -->
<g id="node4" class="node">
<title>Node4</title>
<g id="a_node4"><a xlink:href="sbuf_8c.html#a7bf14d501d36ce36ee269d77cf2c3fc6" target="_top" xlink:title=" ">
<polygon fill="white" stroke="black" points="98.5,-38.5 98.5,-57.5 160.5,-57.5 160.5,-38.5 98.5,-38.5"/>
<text text-anchor="middle" x="129.5" y="-45.5" font-family="Helvetica,sans-Serif" font-size="10.00">sbuf_done</text>
</a>
</g>
</g>
<!-- Node1&#45;&gt;Node4 -->
<g id="edge3" class="edge">
<title>Node1&#45;&gt;Node4</title>
<path fill="none" stroke="midnightblue" d="M61.13,-48C69.71,-48 79.23,-48 88.34,-48"/>
<polygon fill="midnightblue" stroke="midnightblue" points="88.38,-51.5 98.38,-48 88.38,-44.5 88.38,-51.5"/>
</g>
<!-- Node6 -->
<g id="node6" class="node">
<title>Node6</title>
<g id="a_node6"><a xlink:href="sbuf_8c.html#a57748585d6786a2c1aadc2cbe6f2135b" target="_top" xlink:title=" ">
<polygon fill="white" stroke="black" points="97,-0.5 97,-19.5 162,-19.5 162,-0.5 97,-0.5"/>
<text text-anchor="middle" x="129.5" y="-7.5" font-family="Helvetica,sans-Serif" font-size="10.00">sbuf_make</text>
</a>
</g>
</g>
<!-- Node1&#45;&gt;Node6 -->
<g id="edge6" class="edge">
<title>Node1&#45;&gt;Node6</title>
<path fill="none" stroke="midnightblue" d="M55.98,-38.41C67.69,-33.82 81.92,-28.25 94.65,-23.26"/>
<polygon fill="midnightblue" stroke="midnightblue" points="96,-26.49 104.03,-19.59 93.44,-19.97 96,-26.49"/>
</g>
<!-- Node3 -->
<g id="node3" class="node">
<title>Node3</title>
<g id="a_node3"><a xlink:href="sbuf_8c.html#a4ad75f3948c0340c342a3ea3eb63a6e6" target="_top" xlink:title=" ">
<polygon fill="white" stroke="black" points="288,-57.5 288,-76.5 358,-76.5 358,-57.5 288,-57.5"/>
<text text-anchor="middle" x="323" y="-64.5" font-family="Helvetica,sans-Serif" font-size="10.00">sbuf_extend</text>
</a>
</g>
</g>
<!-- Node2&#45;&gt;Node3 -->
<g id="edge2" class="edge">
<title>Node2&#45;&gt;Node3</title>
<path fill="none" stroke="midnightblue" d="M252.23,-80.81C260.22,-79.23 269.23,-77.45 278.05,-75.7"/>
<polygon fill="midnightblue" stroke="midnightblue" points="278.74,-79.13 287.87,-73.76 277.38,-72.26 278.74,-79.13"/>
</g>
<!-- Node5 -->
<g id="node5" class="node">
<title>Node5</title>
<g id="a_node5"><a xlink:href="sbuf_8c.html#a4e56760893d5a6797626743840c9adf2" target="_top" xlink:title=" ">
<polygon fill="white" stroke="black" points="198,-38.5 198,-57.5 252,-57.5 252,-38.5 198,-38.5"/>
<text text-anchor="middle" x="225" y="-45.5" font-family="Helvetica,sans-Serif" font-size="10.00">sbuf_buf</text>
</a>
</g>
</g>
<!-- Node4&#45;&gt;Node5 -->
<g id="edge4" class="edge">
<title>Node4&#45;&gt;Node5</title>
<path fill="none" stroke="midnightblue" d="M160.6,-48C169.19,-48 178.65,-48 187.58,-48"/>
<polygon fill="midnightblue" stroke="midnightblue" points="187.74,-51.5 197.74,-48 187.74,-44.5 187.74,-51.5"/>
</g>
<!-- Node5&#45;&gt;Node3 -->
<g id="edge5" class="edge">
<title>Node5&#45;&gt;Node3</title>
<path fill="none" stroke="midnightblue" d="M252.23,-53.19C260.22,-54.77 269.23,-56.55 278.05,-58.3"/>
<polygon fill="midnightblue" stroke="midnightblue" points="277.38,-61.74 287.87,-60.24 278.74,-54.87 277.38,-61.74"/>
</g>
</g>
</svg>
