<?xml version="1.0" encoding="UTF-8" standalone="no"?>
<!DOCTYPE svg PUBLIC "-//W3C//DTD SVG 1.1//EN"
 "http://www.w3.org/Graphics/SVG/1.1/DTD/svg11.dtd">
<!-- Generated by graphviz version 2.44.1 (20200629.0846)
 -->
<!-- Title: conf_hlline Pages: 1 -->
<svg width="428pt" height="79pt"
 viewBox="0.00 0.00 428.00 79.45" xmlns="http://www.w3.org/2000/svg" xmlns:xlink="http://www.w3.org/1999/xlink">
<g id="graph0" class="graph" transform="scale(1 1) rotate(0) translate(4 75.45)">
<title>conf_hlline</title>
<polygon fill="white" stroke="transparent" points="-4,4 -4,-75.45 424,-75.45 424,4 -4,4"/>
<!-- Node1 -->
<g id="node1" class="node">
<title>Node1</title>
<g id="a_node1"><a xlink:title=" ">
<polygon fill="#bfbfbf" stroke="black" points="357,-38.5 357,-57.5 420,-57.5 420,-38.5 357,-38.5"/>
<text text-anchor="middle" x="388.5" y="-45.5" font-family="Helvetica,sans-Serif" font-size="10.00">conf_hlline</text>
</a>
</g>
</g>
<!-- Node2 -->
<g id="node2" class="node">
<title>Node2</title>
<g id="a_node2"><a xlink:href="vi_8c.html#af48ebb44cac26d2c52f0ada762be5bf6" target="_top" xlink:title=" ">
<polygon fill="white" stroke="black" points="255,-38.5 255,-57.5 321,-57.5 321,-38.5 255,-38.5"/>
<text text-anchor="middle" x="288" y="-45.5" font-family="Helvetica,sans-Serif" font-size="10.00">vi_drawrow</text>
</a>
</g>
</g>
<!-- Node1&#45;&gt;Node2 -->
<g id="edge1" class="edge">
<title>Node1&#45;&gt;Node2</title>
<path fill="none" stroke="midnightblue" d="M346.77,-48C338.28,-48 329.44,-48 321.31,-48"/>
<polygon fill="midnightblue" stroke="midnightblue" points="346.87,-51.5 356.87,-48 346.87,-44.5 346.87,-51.5"/>
</g>
<!-- Node3 -->
<g id="node3" class="node">
<title>Node3</title>
<g id="a_node3"><a xlink:href="vi_8c.html#a8d808e0f3453afe6600673ee1ea5f828" target="_top" xlink:title=" ">
<polygon fill="white" stroke="black" points="74,-38.5 74,-57.5 103,-57.5 103,-38.5 74,-38.5"/>
<text text-anchor="middle" x="88.5" y="-45.5" font-family="Helvetica,sans-Serif" font-size="10.00">vi</text>
</a>
</g>
</g>
<!-- Node2&#45;&gt;Node3 -->
<g id="edge2" class="edge">
<title>Node2&#45;&gt;Node3</title>
<path fill="none" stroke="midnightblue" d="M249.66,-60.4C239.8,-63.13 229.09,-65.62 219,-67 183.77,-71.83 173.96,-73.48 139,-67 126.51,-64.69 113.1,-59.34 103.39,-54.91"/>
<polygon fill="midnightblue" stroke="midnightblue" points="250.95,-63.67 259.57,-57.5 248.99,-56.95 250.95,-63.67"/>
</g>
<!-- Node5 -->
<g id="node5" class="node">
<title>Node5</title>
<g id="a_node5"><a xlink:href="vi_8c.html#a2b620fa68325e1b708f07af90f50c3d8" target="_top" xlink:title=" ">
<polygon fill="white" stroke="black" points="142,-38.5 142,-57.5 216,-57.5 216,-38.5 142,-38.5"/>
<text text-anchor="middle" x="179" y="-45.5" font-family="Helvetica,sans-Serif" font-size="10.00">vi_drawagain</text>
</a>
</g>
</g>
<!-- Node2&#45;&gt;Node5 -->
<g id="edge4" class="edge">
<title>Node2&#45;&gt;Node5</title>
<path fill="none" stroke="midnightblue" d="M244.87,-48C235.39,-48 225.41,-48 216.2,-48"/>
<polygon fill="midnightblue" stroke="midnightblue" points="244.9,-51.5 254.9,-48 244.9,-44.5 244.9,-51.5"/>
</g>
<!-- Node6 -->
<g id="node6" class="node">
<title>Node6</title>
<g id="a_node6"><a xlink:href="vi_8c.html#a9896bc9688f6102408f66aa0ad7e64f9" target="_top" xlink:title=" ">
<polygon fill="white" stroke="black" points="139,-0.5 139,-19.5 219,-19.5 219,-0.5 139,-0.5"/>
<text text-anchor="middle" x="179" y="-7.5" font-family="Helvetica,sans-Serif" font-size="10.00">vi_drawupdate</text>
</a>
</g>
</g>
<!-- Node2&#45;&gt;Node6 -->
<g id="edge6" class="edge">
<title>Node2&#45;&gt;Node6</title>
<path fill="none" stroke="midnightblue" d="M250.47,-35.03C236.22,-29.97 220.17,-24.27 206.99,-19.59"/>
<polygon fill="midnightblue" stroke="midnightblue" points="249.4,-38.36 260,-38.41 251.75,-31.77 249.4,-38.36"/>
</g>
<!-- Node4 -->
<g id="node4" class="node">
<title>Node4</title>
<g id="a_node4"><a xlink:href="vi_8c.html#a0ddf1224851353fc92bfbff6f499fa97" target="_top" xlink:title=" ">
<polygon fill="white" stroke="black" points="0,-38.5 0,-57.5 38,-57.5 38,-38.5 0,-38.5"/>
<text text-anchor="middle" x="19" y="-45.5" font-family="Helvetica,sans-Serif" font-size="10.00">main</text>
</a>
</g>
</g>
<!-- Node3&#45;&gt;Node4 -->
<g id="edge3" class="edge">
<title>Node3&#45;&gt;Node4</title>
<path fill="none" stroke="midnightblue" d="M63.58,-48C55.25,-48 46.04,-48 38.25,-48"/>
<polygon fill="midnightblue" stroke="midnightblue" points="63.84,-51.5 73.84,-48 63.84,-44.5 63.84,-51.5"/>
</g>
<!-- Node5&#45;&gt;Node3 -->
<g id="edge5" class="edge">
<title>Node5&#45;&gt;Node3</title>
<path fill="none" stroke="midnightblue" d="M131.47,-48C121.16,-48 111.02,-48 103.29,-48"/>
<polygon fill="midnightblue" stroke="midnightblue" points="131.75,-51.5 141.75,-48 131.75,-44.5 131.75,-51.5"/>
</g>
<!-- Node6&#45;&gt;Node3 -->
<g id="edge7" class="edge">
<title>Node6&#45;&gt;Node3</title>
<path fill="none" stroke="midnightblue" d="M146.27,-23.62C131.4,-30.01 114.47,-37.28 103,-42.2"/>
<polygon fill="midnightblue" stroke="midnightblue" points="147.86,-26.75 155.67,-19.59 145.1,-20.32 147.86,-26.75"/>
</g>
</g>
</svg>
