<?xml version="1.0" encoding="UTF-8" standalone="no"?>
<!DOCTYPE svg PUBLIC "-//W3C//DTD SVG 1.1//EN"
 "http://www.w3.org/Graphics/SVG/1.1/DTD/svg11.dtd">
<!-- Generated by graphviz version 2.44.1 (20200629.0846)
 -->
<!-- Title: cmd_exec Pages: 1 -->
<svg width="761pt" height="218pt"
 viewBox="0.00 0.00 761.00 218.00" xmlns="http://www.w3.org/2000/svg" xmlns:xlink="http://www.w3.org/1999/xlink">
<g id="graph0" class="graph" transform="scale(1 1) rotate(0) translate(4 214)">
<title>cmd_exec</title>
<polygon fill="white" stroke="transparent" points="-4,4 -4,-214 757,-214 757,4 -4,4"/>
<!-- Node1 -->
<g id="node1" class="node">
<title>Node1</title>
<g id="a_node1"><a xlink:title=" ">
<polygon fill="#bfbfbf" stroke="black" points="0,-95.5 0,-114.5 62,-114.5 62,-95.5 0,-95.5"/>
<text text-anchor="middle" x="31" y="-102.5" font-family="Helvetica,sans-Serif" font-size="10.00">cmd_exec</text>
</a>
</g>
</g>
<!-- Node2 -->
<g id="node2" class="node">
<title>Node2</title>
<g id="a_node2"><a xlink:href="cmd_8c.html#a308ea7ca1940fd76546ba9797efca385" target="_top" xlink:title=" ">
<polygon fill="white" stroke="black" points="98,-95.5 98,-114.5 157,-114.5 157,-95.5 98,-95.5"/>
<text text-anchor="middle" x="127.5" y="-102.5" font-family="Helvetica,sans-Serif" font-size="10.00">cmd_pipe</text>
</a>
</g>
</g>
<!-- Node1&#45;&gt;Node2 -->
<g id="edge1" class="edge">
<title>Node1&#45;&gt;Node2</title>
<path fill="none" stroke="midnightblue" d="M62.16,-105C70.3,-105 79.22,-105 87.76,-105"/>
<polygon fill="midnightblue" stroke="midnightblue" points="87.91,-108.5 97.91,-105 87.91,-101.5 87.91,-108.5"/>
</g>
<!-- Node3 -->
<g id="node3" class="node">
<title>Node3</title>
<g id="a_node3"><a xlink:href="cmd_8c.html#ac7e2d24e28faeabc72dca3575442d3e6" target="_top" xlink:title=" ">
<polygon fill="white" stroke="black" points="193,-190.5 193,-209.5 258,-209.5 258,-190.5 193,-190.5"/>
<text text-anchor="middle" x="225.5" y="-197.5" font-family="Helvetica,sans-Serif" font-size="10.00">cmd_make</text>
</a>
</g>
</g>
<!-- Node2&#45;&gt;Node3 -->
<g id="edge2" class="edge">
<title>Node2&#45;&gt;Node3</title>
<path fill="none" stroke="midnightblue" d="M136.34,-114.7C148,-128.87 170.91,-155.74 193,-176 196.05,-178.8 199.4,-181.6 202.75,-184.26"/>
<polygon fill="midnightblue" stroke="midnightblue" points="200.82,-187.19 210.89,-190.47 205.06,-181.62 200.82,-187.19"/>
</g>
<!-- Node4 -->
<g id="node4" class="node">
<title>Node4</title>
<g id="a_node4"><a xlink:href="sbuf_8c.html#a7bf14d501d36ce36ee269d77cf2c3fc6" target="_top" xlink:title=" ">
<polygon fill="white" stroke="black" points="300,-180.5 300,-199.5 362,-199.5 362,-180.5 300,-180.5"/>
<text text-anchor="middle" x="331" y="-187.5" font-family="Helvetica,sans-Serif" font-size="10.00">sbuf_done</text>
</a>
</g>
</g>
<!-- Node2&#45;&gt;Node4 -->
<g id="edge3" class="edge">
<title>Node2&#45;&gt;Node4</title>
<path fill="none" stroke="midnightblue" d="M142.9,-114.63C155.68,-122.89 175.06,-134.74 193,-143 224.74,-157.61 262.38,-170.21 290.17,-178.67"/>
<polygon fill="midnightblue" stroke="midnightblue" points="289.35,-182.08 299.93,-181.6 291.36,-175.37 289.35,-182.08"/>
</g>
<!-- Node7 -->
<g id="node7" class="node">
<title>Node7</title>
<g id="a_node7"><a xlink:href="sbuf_8c.html#a57748585d6786a2c1aadc2cbe6f2135b" target="_top" xlink:title=" ">
<polygon fill="white" stroke="black" points="193,-0.5 193,-19.5 258,-19.5 258,-0.5 193,-0.5"/>
<text text-anchor="middle" x="225.5" y="-7.5" font-family="Helvetica,sans-Serif" font-size="10.00">sbuf_make</text>
</a>
</g>
</g>
<!-- Node2&#45;&gt;Node7 -->
<g id="edge6" class="edge">
<title>Node2&#45;&gt;Node7</title>
<path fill="none" stroke="midnightblue" d="M135.18,-95.24C146.04,-79.87 168.75,-49.63 193,-29 194.5,-27.73 196.09,-26.49 197.73,-25.29"/>
<polygon fill="midnightblue" stroke="midnightblue" points="199.76,-28.14 206.15,-19.7 195.89,-22.31 199.76,-28.14"/>
</g>
<!-- Node8 -->
<g id="node8" class="node">
<title>Node8</title>
<g id="a_node8"><a xlink:href="sbuf_8c.html#aa511ac77d6b486accc01c0512ef27ed2" target="_top" xlink:title=" ">
<polygon fill="white" stroke="black" points="585,-76.5 585,-95.5 647,-95.5 647,-76.5 585,-76.5"/>
<text text-anchor="middle" x="616" y="-83.5" font-family="Helvetica,sans-Serif" font-size="10.00">sbuf_mem</text>
</a>
</g>
</g>
<!-- Node2&#45;&gt;Node8 -->
<g id="edge7" class="edge">
<title>Node2&#45;&gt;Node8</title>
<path fill="none" stroke="midnightblue" d="M157.12,-100.59C196.11,-94.98 268.16,-86 330,-86 330,-86 330,-86 433.5,-86 481.97,-86 537.72,-86 574.5,-86"/>
<polygon fill="midnightblue" stroke="midnightblue" points="574.81,-89.5 584.81,-86 574.81,-82.5 574.81,-89.5"/>
</g>
<!-- Node9 -->
<g id="node9" class="node">
<title>Node9</title>
<g id="a_node9"><a xlink:href="term_8c.html#af75f29a5ad723ab7a7f1ae4769daaa8f" target="_top" xlink:title=" ">
<polygon fill="white" stroke="black" points="194.5,-114.5 194.5,-133.5 256.5,-133.5 256.5,-114.5 194.5,-114.5"/>
<text text-anchor="middle" x="225.5" y="-121.5" font-family="Helvetica,sans-Serif" font-size="10.00">term_done</text>
</a>
</g>
</g>
<!-- Node2&#45;&gt;Node9 -->
<g id="edge9" class="edge">
<title>Node2&#45;&gt;Node9</title>
<path fill="none" stroke="midnightblue" d="M157.04,-110.65C165.56,-112.33 175.05,-114.21 184.17,-116.02"/>
<polygon fill="midnightblue" stroke="midnightblue" points="183.74,-119.5 194.23,-118.01 185.1,-112.63 183.74,-119.5"/>
</g>
<!-- Node13 -->
<g id="node13" class="node">
<title>Node13</title>
<g id="a_node13"><a xlink:href="term_8c.html#ac7072b9c76dd77ce9900197d0133b0ba" target="_top" xlink:title=" ">
<polygon fill="white" stroke="black" points="198.5,-38.5 198.5,-57.5 252.5,-57.5 252.5,-38.5 198.5,-38.5"/>
<text text-anchor="middle" x="225.5" y="-45.5" font-family="Helvetica,sans-Serif" font-size="10.00">term_init</text>
</a>
</g>
</g>
<!-- Node2&#45;&gt;Node13 -->
<g id="edge14" class="edge">
<title>Node2&#45;&gt;Node13</title>
<path fill="none" stroke="midnightblue" d="M144.79,-95.33C159.77,-86.43 182.22,-73.1 199.48,-62.86"/>
<polygon fill="midnightblue" stroke="midnightblue" points="201.64,-65.64 208.46,-57.53 198.07,-59.62 201.64,-65.64"/>
</g>
<!-- Node5 -->
<g id="node5" class="node">
<title>Node5</title>
<g id="a_node5"><a xlink:href="sbuf_8c.html#a4e56760893d5a6797626743840c9adf2" target="_top" xlink:title=" ">
<polygon fill="white" stroke="black" points="405.5,-190.5 405.5,-209.5 459.5,-209.5 459.5,-190.5 405.5,-190.5"/>
<text text-anchor="middle" x="432.5" y="-197.5" font-family="Helvetica,sans-Serif" font-size="10.00">sbuf_buf</text>
</a>
</g>
</g>
<!-- Node4&#45;&gt;Node5 -->
<g id="edge4" class="edge">
<title>Node4&#45;&gt;Node5</title>
<path fill="none" stroke="midnightblue" d="M362.12,-193.03C372.53,-194.07 384.29,-195.26 395.14,-196.35"/>
<polygon fill="midnightblue" stroke="midnightblue" points="394.89,-199.84 405.19,-197.36 395.59,-192.87 394.89,-199.84"/>
</g>
<!-- Node6 -->
<g id="node6" class="node">
<title>Node6</title>
<g id="a_node6"><a xlink:href="sbuf_8c.html#a4ad75f3948c0340c342a3ea3eb63a6e6" target="_top" xlink:title=" ">
<polygon fill="white" stroke="black" points="683,-95.5 683,-114.5 753,-114.5 753,-95.5 683,-95.5"/>
<text text-anchor="middle" x="718" y="-102.5" font-family="Helvetica,sans-Serif" font-size="10.00">sbuf_extend</text>
</a>
</g>
</g>
<!-- Node5&#45;&gt;Node6 -->
<g id="edge5" class="edge">
<title>Node5&#45;&gt;Node6</title>
<path fill="none" stroke="midnightblue" d="M459.66,-191.23C509.94,-174.39 620.24,-137.42 678.77,-117.81"/>
<polygon fill="midnightblue" stroke="midnightblue" points="680.02,-121.08 688.39,-114.59 677.79,-114.45 680.02,-121.08"/>
</g>
<!-- Node8&#45;&gt;Node6 -->
<g id="edge8" class="edge">
<title>Node8&#45;&gt;Node6</title>
<path fill="none" stroke="midnightblue" d="M647,-91.7C655.11,-93.24 664.05,-94.94 672.76,-96.59"/>
<polygon fill="midnightblue" stroke="midnightblue" points="672.33,-100.08 682.81,-98.5 673.64,-93.2 672.33,-100.08"/>
</g>
<!-- Node10 -->
<g id="node10" class="node">
<title>Node10</title>
<g id="a_node10"><a xlink:href="term_8c.html#ac34816f514affc4dfb9d34f361175bf9" target="_top" xlink:title=" ">
<polygon fill="white" stroke="black" points="294,-133.5 294,-152.5 368,-152.5 368,-133.5 294,-133.5"/>
<text text-anchor="middle" x="331" y="-140.5" font-family="Helvetica,sans-Serif" font-size="10.00">term_commit</text>
</a>
</g>
</g>
<!-- Node9&#45;&gt;Node10 -->
<g id="edge10" class="edge">
<title>Node9&#45;&gt;Node10</title>
<path fill="none" stroke="midnightblue" d="M256.71,-129.55C265.22,-131.11 274.66,-132.84 283.86,-134.53"/>
<polygon fill="midnightblue" stroke="midnightblue" points="283.23,-137.97 293.7,-136.34 284.5,-131.09 283.23,-137.97"/>
</g>
<!-- Node10&#45;&gt;Node5 -->
<g id="edge11" class="edge">
<title>Node10&#45;&gt;Node5</title>
<path fill="none" stroke="midnightblue" d="M348.88,-152.67C364.55,-161.65 388.11,-175.14 406.06,-185.43"/>
<polygon fill="midnightblue" stroke="midnightblue" points="404.45,-188.54 414.87,-190.47 407.93,-182.47 404.45,-188.54"/>
</g>
<!-- Node11 -->
<g id="node11" class="node">
<title>Node11</title>
<g id="a_node11"><a xlink:href="sbuf_8c.html#a8c1a89868b1999663effb78b4f3fab32" target="_top" xlink:title=" ">
<polygon fill="white" stroke="black" points="404,-152.5 404,-171.5 461,-171.5 461,-152.5 404,-152.5"/>
<text text-anchor="middle" x="432.5" y="-159.5" font-family="Helvetica,sans-Serif" font-size="10.00">sbuf_free</text>
</a>
</g>
</g>
<!-- Node10&#45;&gt;Node11 -->
<g id="edge12" class="edge">
<title>Node10&#45;&gt;Node11</title>
<path fill="none" stroke="midnightblue" d="M368.2,-149.91C376.58,-151.51 385.51,-153.22 393.94,-154.83"/>
<polygon fill="midnightblue" stroke="midnightblue" points="393.43,-158.29 403.91,-156.73 394.74,-151.42 393.43,-158.29"/>
</g>
<!-- Node12 -->
<g id="node12" class="node">
<title>Node12</title>
<g id="a_node12"><a xlink:href="sbuf_8c.html#af4ad9608dfc956bbedc19df5c8256fc4" target="_top" xlink:title=" ">
<polygon fill="white" stroke="black" points="406,-114.5 406,-133.5 459,-133.5 459,-114.5 406,-114.5"/>
<text text-anchor="middle" x="432.5" y="-121.5" font-family="Helvetica,sans-Serif" font-size="10.00">sbuf_len</text>
</a>
</g>
</g>
<!-- Node10&#45;&gt;Node12 -->
<g id="edge13" class="edge">
<title>Node10&#45;&gt;Node12</title>
<path fill="none" stroke="midnightblue" d="M368.2,-136.09C377.15,-134.38 386.73,-132.55 395.66,-130.84"/>
<polygon fill="midnightblue" stroke="midnightblue" points="396.6,-134.23 405.76,-128.91 395.28,-127.35 396.6,-134.23"/>
</g>
<!-- Node14 -->
<g id="node14" class="node">
<title>Node14</title>
<g id="a_node14"><a xlink:href="term_8c.html#a1982be6327b52a410f8cad1eb805187b" target="_top" xlink:title=" ">
<polygon fill="white" stroke="black" points="304.5,-38.5 304.5,-57.5 357.5,-57.5 357.5,-38.5 304.5,-38.5"/>
<text text-anchor="middle" x="331" y="-45.5" font-family="Helvetica,sans-Serif" font-size="10.00">term_str</text>
</a>
</g>
</g>
<!-- Node13&#45;&gt;Node14 -->
<g id="edge15" class="edge">
<title>Node13&#45;&gt;Node14</title>
<path fill="none" stroke="midnightblue" d="M252.62,-48C265.22,-48 280.53,-48 294.19,-48"/>
<polygon fill="midnightblue" stroke="midnightblue" points="294.25,-51.5 304.25,-48 294.25,-44.5 294.25,-51.5"/>
</g>
<!-- Node15 -->
<g id="node15" class="node">
<title>Node15</title>
<g id="a_node15"><a xlink:href="term_8c.html#acba93d06f96ed6e5ec460b781191741d" target="_top" xlink:title=" ">
<polygon fill="white" stroke="black" points="405,-38.5 405,-57.5 460,-57.5 460,-38.5 405,-38.5"/>
<text text-anchor="middle" x="432.5" y="-45.5" font-family="Helvetica,sans-Serif" font-size="10.00">term_out</text>
</a>
</g>
</g>
<!-- Node14&#45;&gt;Node15 -->
<g id="edge16" class="edge">
<title>Node14&#45;&gt;Node15</title>
<path fill="none" stroke="midnightblue" d="M357.62,-48C368.96,-48 382.5,-48 394.88,-48"/>
<polygon fill="midnightblue" stroke="midnightblue" points="394.92,-51.5 404.92,-48 394.92,-44.5 394.92,-51.5"/>
</g>
<!-- Node16 -->
<g id="node16" class="node">
<title>Node16</title>
<g id="a_node16"><a xlink:href="sbuf_8c.html#a603d1d6ab090025f5850f10bfa2dec7a" target="_top" xlink:title=" ">
<polygon fill="white" stroke="black" points="497,-38.5 497,-57.5 549,-57.5 549,-38.5 497,-38.5"/>
<text text-anchor="middle" x="523" y="-45.5" font-family="Helvetica,sans-Serif" font-size="10.00">sbuf_str</text>
</a>
</g>
</g>
<!-- Node15&#45;&gt;Node16 -->
<g id="edge17" class="edge">
<title>Node15&#45;&gt;Node16</title>
<path fill="none" stroke="midnightblue" d="M460.05,-48C468.47,-48 477.91,-48 486.83,-48"/>
<polygon fill="midnightblue" stroke="midnightblue" points="486.98,-51.5 496.98,-48 486.98,-44.5 486.98,-51.5"/>
</g>
<!-- Node16&#45;&gt;Node8 -->
<g id="edge18" class="edge">
<title>Node16&#45;&gt;Node8</title>
<path fill="none" stroke="midnightblue" d="M546.96,-57.59C557.74,-62.09 570.77,-67.53 582.54,-72.44"/>
<polygon fill="midnightblue" stroke="midnightblue" points="581.47,-75.79 592.04,-76.41 584.17,-69.33 581.47,-75.79"/>
</g>
</g>
</svg>
