<?xml version="1.0" encoding="UTF-8" standalone="no"?>
<!DOCTYPE svg PUBLIC "-//W3C//DTD SVG 1.1//EN"
 "http://www.w3.org/Graphics/SVG/1.1/DTD/svg11.dtd">
<!-- Generated by graphviz version 2.44.1 (20200629.0846)
 -->
<!-- Title: conf_highlight Pages: 1 -->
<svg width="1392pt" height="728pt"
 viewBox="0.00 0.00 1392.00 727.85" xmlns="http://www.w3.org/2000/svg" xmlns:xlink="http://www.w3.org/1999/xlink">
<g id="graph0" class="graph" transform="scale(1 1) rotate(0) translate(4 723.85)">
<title>conf_highlight</title>
<polygon fill="white" stroke="transparent" points="-4,4 -4,-723.85 1388,-723.85 1388,4 -4,4"/>
<!-- Node1 -->
<g id="node1" class="node">
<title>Node1</title>
<g id="a_node1"><a xlink:title=" ">
<polygon fill="#bfbfbf" stroke="black" points="1307,-38.5 1307,-57.5 1384,-57.5 1384,-38.5 1307,-38.5"/>
<text text-anchor="middle" x="1345.5" y="-45.5" font-family="Helvetica,sans-Serif" font-size="10.00">conf_highlight</text>
</a>
</g>
</g>
<!-- Node2 -->
<g id="node2" class="node">
<title>Node2</title>
<g id="a_node2"><a xlink:href="vi_8h.html#a00a481d2236c7c7fc489606a4ebe6de0" target="_top" xlink:title=" ">
<polygon fill="white" stroke="black" points="1197,-76.5 1197,-95.5 1271,-95.5 1271,-76.5 1197,-76.5"/>
<text text-anchor="middle" x="1234" y="-83.5" font-family="Helvetica,sans-Serif" font-size="10.00">syn_highlight</text>
</a>
</g>
</g>
<!-- Node1&#45;&gt;Node2 -->
<g id="edge1" class="edge">
<title>Node1&#45;&gt;Node2</title>
<path fill="none" stroke="midnightblue" d="M1307.12,-60.97C1292.53,-66.03 1276.11,-71.73 1262.62,-76.41"/>
<polygon fill="midnightblue" stroke="midnightblue" points="1308.57,-64.17 1316.87,-57.59 1306.27,-57.56 1308.57,-64.17"/>
</g>
<!-- Node49 -->
<g id="node49" class="node">
<title>Node49</title>
<g id="a_node49"><a xlink:href="vi_8h.html#a5ca5f67cbe20ba50389c586990d3582c" target="_top" xlink:title=" ">
<polygon fill="white" stroke="black" points="1105,-0.5 1105,-19.5 1155,-19.5 1155,-0.5 1105,-0.5"/>
<text text-anchor="middle" x="1130" y="-7.5" font-family="Helvetica,sans-Serif" font-size="10.00">syn_init</text>
</a>
</g>
</g>
<!-- Node1&#45;&gt;Node49 -->
<g id="edge79" class="edge">
<title>Node1&#45;&gt;Node49</title>
<path fill="none" stroke="midnightblue" d="M1301.05,-35.86C1291.22,-33.37 1280.79,-30.92 1271,-29 1230.69,-21.08 1183.19,-15.39 1155.17,-12.4"/>
<polygon fill="midnightblue" stroke="midnightblue" points="1300.47,-39.33 1311.03,-38.46 1302.23,-32.55 1300.47,-39.33"/>
</g>
<!-- Node50 -->
<g id="node50" class="node">
<title>Node50</title>
<g id="a_node50"><a xlink:href="syn_8c.html#a6e5fc3b0777302300322f64f2c7f0142" target="_top" xlink:title=" ">
<polygon fill="white" stroke="black" points="1206,-38.5 1206,-57.5 1262,-57.5 1262,-38.5 1206,-38.5"/>
<text text-anchor="middle" x="1234" y="-45.5" font-family="Helvetica,sans-Serif" font-size="10.00">syn_initft</text>
</a>
</g>
</g>
<!-- Node1&#45;&gt;Node50 -->
<g id="edge81" class="edge">
<title>Node1&#45;&gt;Node50</title>
<path fill="none" stroke="midnightblue" d="M1296.58,-48C1284.75,-48 1272.48,-48 1262.04,-48"/>
<polygon fill="midnightblue" stroke="midnightblue" points="1296.82,-51.5 1306.82,-48 1296.82,-44.5 1296.82,-51.5"/>
</g>
<!-- Node3 -->
<g id="node3" class="node">
<title>Node3</title>
<g id="a_node3"><a xlink:href="led_8c.html#ad30f796594398b70e4ce9687b11bcdd9" target="_top" xlink:title=" ">
<polygon fill="white" stroke="black" points="1099,-76.5 1099,-95.5 1161,-95.5 1161,-76.5 1099,-76.5"/>
<text text-anchor="middle" x="1130" y="-83.5" font-family="Helvetica,sans-Serif" font-size="10.00">led_render</text>
</a>
</g>
</g>
<!-- Node2&#45;&gt;Node3 -->
<g id="edge2" class="edge">
<title>Node2&#45;&gt;Node3</title>
<path fill="none" stroke="midnightblue" d="M1186.69,-86C1177.99,-86 1169.11,-86 1161.07,-86"/>
<polygon fill="midnightblue" stroke="midnightblue" points="1186.75,-89.5 1196.75,-86 1186.75,-82.5 1186.75,-89.5"/>
</g>
<!-- Node4 -->
<g id="node4" class="node">
<title>Node4</title>
<g id="a_node4"><a xlink:href="vi_8h.html#a4356f8fc86e72c470f35f0a5e4385576" target="_top" xlink:title=" ">
<polygon fill="white" stroke="black" points="1000.5,-190.5 1000.5,-209.5 1053.5,-209.5 1053.5,-190.5 1000.5,-190.5"/>
<text text-anchor="middle" x="1027" y="-197.5" font-family="Helvetica,sans-Serif" font-size="10.00">led_print</text>
</a>
</g>
</g>
<!-- Node3&#45;&gt;Node4 -->
<g id="edge3" class="edge">
<title>Node3&#45;&gt;Node4</title>
<path fill="none" stroke="midnightblue" d="M1113.53,-103.46C1091.97,-127.79 1053.64,-171.06 1036.59,-190.31"/>
<polygon fill="midnightblue" stroke="midnightblue" points="1116.38,-105.53 1120.39,-95.72 1111.14,-100.88 1116.38,-105.53"/>
</g>
<!-- Node47 -->
<g id="node47" class="node">
<title>Node47</title>
<g id="a_node47"><a xlink:href="vi_8h.html#a7838c5ed4623338b3fa9b2c6da4485eb" target="_top" xlink:title=" ">
<polygon fill="white" stroke="black" points="991,-76.5 991,-95.5 1063,-95.5 1063,-76.5 991,-76.5"/>
<text text-anchor="middle" x="1027" y="-83.5" font-family="Helvetica,sans-Serif" font-size="10.00">led_printmsg</text>
</a>
</g>
</g>
<!-- Node3&#45;&gt;Node47 -->
<g id="edge74" class="edge">
<title>Node3&#45;&gt;Node47</title>
<path fill="none" stroke="midnightblue" d="M1088.85,-86C1080.32,-86 1071.39,-86 1063.07,-86"/>
<polygon fill="midnightblue" stroke="midnightblue" points="1088.97,-89.5 1098.97,-86 1088.97,-82.5 1088.97,-89.5"/>
</g>
<!-- Node5 -->
<g id="node5" class="node">
<title>Node5</title>
<g id="a_node5"><a xlink:href="vi_8h.html#a075721180ea187be49c7164dcff34122" target="_top" xlink:title=" ">
<polygon fill="white" stroke="black" points="800,-532.5 800,-551.5 851,-551.5 851,-532.5 800,-532.5"/>
<text text-anchor="middle" x="825.5" y="-539.5" font-family="Helvetica,sans-Serif" font-size="10.00">ex_print</text>
</a>
</g>
</g>
<!-- Node4&#45;&gt;Node5 -->
<g id="edge4" class="edge">
<title>Node4&#45;&gt;Node5</title>
<path fill="none" stroke="midnightblue" d="M1021.08,-219.64C1011.64,-255.25 988.88,-332.14 955,-390 919.9,-449.94 860.7,-509.46 836.89,-532.27"/>
<polygon fill="midnightblue" stroke="midnightblue" points="1024.56,-220.16 1023.67,-209.6 1017.78,-218.41 1024.56,-220.16"/>
</g>
<!-- Node25 -->
<g id="node25" class="node">
<title>Node25</title>
<g id="a_node25"><a xlink:href="vi_8h.html#ad27b2fbb84601eb4c5af3b1f28feac75" target="_top" xlink:title=" ">
<polygon fill="white" stroke="black" points="899,-361.5 899,-380.5 955,-380.5 955,-361.5 899,-361.5"/>
<text text-anchor="middle" x="927" y="-368.5" font-family="Helvetica,sans-Serif" font-size="10.00">ex_show</text>
</a>
</g>
</g>
<!-- Node4&#45;&gt;Node25 -->
<g id="edge31" class="edge">
<title>Node4&#45;&gt;Node25</title>
<path fill="none" stroke="midnightblue" d="M1015.27,-218.73C994.43,-255.08 949.18,-334.04 933.49,-361.42"/>
<polygon fill="midnightblue" stroke="midnightblue" points="1018.51,-220.1 1020.45,-209.68 1012.44,-216.62 1018.51,-220.1"/>
</g>
<!-- Node29 -->
<g id="node29" class="node">
<title>Node29</title>
<g id="a_node29"><a xlink:href="led_8c.html#ae938cbff964c214e7e4f6aff4d5ce0f7" target="_top" xlink:title=" ">
<polygon fill="white" stroke="black" points="788,-190.5 788,-209.5 863,-209.5 863,-190.5 788,-190.5"/>
<text text-anchor="middle" x="825.5" y="-197.5" font-family="Helvetica,sans-Serif" font-size="10.00">led_printparts</text>
</a>
</g>
</g>
<!-- Node4&#45;&gt;Node29 -->
<g id="edge44" class="edge">
<title>Node4&#45;&gt;Node29</title>
<path fill="none" stroke="midnightblue" d="M990.31,-200C954.46,-200 899.47,-200 863.25,-200"/>
<polygon fill="midnightblue" stroke="midnightblue" points="990.33,-203.5 1000.33,-200 990.33,-196.5 990.33,-203.5"/>
</g>
<!-- Node44 -->
<g id="node44" class="node">
<title>Node44</title>
<g id="a_node44"><a xlink:href="vi_8c.html#af48ebb44cac26d2c52f0ada762be5bf6" target="_top" xlink:title=" ">
<polygon fill="white" stroke="black" points="272.5,-114.5 272.5,-133.5 338.5,-133.5 338.5,-114.5 272.5,-114.5"/>
<text text-anchor="middle" x="305.5" y="-121.5" font-family="Helvetica,sans-Serif" font-size="10.00">vi_drawrow</text>
</a>
</g>
</g>
<!-- Node4&#45;&gt;Node44 -->
<g id="edge68" class="edge">
<title>Node4&#45;&gt;Node44</title>
<path fill="none" stroke="midnightblue" d="M990.77,-189.13C951.21,-177.9 884.88,-162 826.5,-162 826.5,-162 826.5,-162 499.5,-162 440.76,-162 373.83,-144.85 336.23,-133.59"/>
<polygon fill="midnightblue" stroke="midnightblue" points="989.89,-192.52 1000.47,-191.94 991.84,-185.79 989.89,-192.52"/>
</g>
<!-- Node6 -->
<g id="node6" class="node">
<title>Node6</title>
<g id="a_node6"><a xlink:href="ex_8c.html#a86b4adba0c96621f01383b9bacba4a01" target="_top" xlink:title=" ">
<polygon fill="white" stroke="black" points="696,-570.5 696,-589.5 752,-589.5 752,-570.5 696,-570.5"/>
<text text-anchor="middle" x="724" y="-577.5" font-family="Helvetica,sans-Serif" font-size="10.00">ec_cmap</text>
</a>
</g>
</g>
<!-- Node5&#45;&gt;Node6 -->
<g id="edge5" class="edge">
<title>Node5&#45;&gt;Node6</title>
<path fill="none" stroke="midnightblue" d="M790.19,-555.1C776.99,-560.15 762.17,-565.8 750,-570.45"/>
<polygon fill="midnightblue" stroke="midnightblue" points="791.81,-558.23 799.9,-551.39 789.31,-551.69 791.81,-558.23"/>
</g>
<!-- Node7 -->
<g id="node7" class="node">
<title>Node7</title>
<g id="a_node7"><a xlink:href="ex_8c.html#adcd83f163f659bd2596bcfc25d74bde9" target="_top" xlink:title=" ">
<polygon fill="white" stroke="black" points="474,-456.5 474,-475.5 527,-475.5 527,-456.5 474,-456.5"/>
<text text-anchor="middle" x="500.5" y="-463.5" font-family="Helvetica,sans-Serif" font-size="10.00">ec_exec</text>
</a>
</g>
</g>
<!-- Node5&#45;&gt;Node7 -->
<g id="edge6" class="edge">
<title>Node5&#45;&gt;Node7</title>
<path fill="none" stroke="midnightblue" d="M789.66,-536.24C763.72,-531.77 727.51,-525.14 696,-518 634.98,-504.17 564.2,-484.26 527.14,-473.53"/>
<polygon fill="midnightblue" stroke="midnightblue" points="789.3,-539.73 799.75,-537.96 790.48,-532.83 789.3,-539.73"/>
</g>
<!-- Node16 -->
<g id="node16" class="node">
<title>Node16</title>
<g id="a_node16"><a xlink:href="ex_8c.html#a96a40531d1096a618d29639f2e42710b" target="_top" xlink:title=" ">
<polygon fill="white" stroke="black" points="705,-608.5 705,-627.5 743,-627.5 743,-608.5 705,-608.5"/>
<text text-anchor="middle" x="724" y="-615.5" font-family="Helvetica,sans-Serif" font-size="10.00">ec_ft</text>
</a>
</g>
</g>
<!-- Node5&#45;&gt;Node16 -->
<g id="edge18" class="edge">
<title>Node5&#45;&gt;Node16</title>
<path fill="none" stroke="midnightblue" d="M804.54,-558.15C790.1,-569.73 770.04,-585.58 752,-599 747.77,-602.15 743.09,-605.49 738.84,-608.47"/>
<polygon fill="midnightblue" stroke="midnightblue" points="806.74,-560.88 812.34,-551.88 802.35,-555.42 806.74,-560.88"/>
</g>
<!-- Node17 -->
<g id="node17" class="node">
<title>Node17</title>
<g id="a_node17"><a xlink:href="ex_8c.html#a1d45a70b724f4cccae2ab746c711ebb1" target="_top" xlink:title=" ">
<polygon fill="white" stroke="black" points="697.5,-684.5 697.5,-703.5 750.5,-703.5 750.5,-684.5 697.5,-684.5"/>
<text text-anchor="middle" x="724" y="-691.5" font-family="Helvetica,sans-Serif" font-size="10.00">ec_lnum</text>
</a>
</g>
</g>
<!-- Node5&#45;&gt;Node17 -->
<g id="edge19" class="edge">
<title>Node5&#45;&gt;Node17</title>
<path fill="none" stroke="midnightblue" d="M817.31,-561.23C806.35,-588.72 783.37,-639.83 752,-675 748.87,-678.51 744.98,-681.72 741.13,-684.46"/>
<polygon fill="midnightblue" stroke="midnightblue" points="820.69,-562.21 821.03,-551.62 814.16,-559.68 820.69,-562.21"/>
</g>
<!-- Node18 -->
<g id="node18" class="node">
<title>Node18</title>
<g id="a_node18"><a xlink:href="ex_8c.html#aa69f426ff9728078fbb36f448c624a90" target="_top" xlink:title=" ">
<polygon fill="white" stroke="black" points="472.5,-418.5 472.5,-437.5 528.5,-437.5 528.5,-418.5 472.5,-418.5"/>
<text text-anchor="middle" x="500.5" y="-425.5" font-family="Helvetica,sans-Serif" font-size="10.00">ec_make</text>
</a>
</g>
</g>
<!-- Node5&#45;&gt;Node18 -->
<g id="edge20" class="edge">
<title>Node5&#45;&gt;Node18</title>
<path fill="none" stroke="midnightblue" d="M790.44,-528.67C757.28,-515.81 705.39,-495.99 660,-480 614.11,-463.83 560.19,-446.49 528.54,-436.48"/>
<polygon fill="midnightblue" stroke="midnightblue" points="789.51,-532.06 800.1,-532.42 792.04,-525.54 789.51,-532.06"/>
</g>
<!-- Node19 -->
<g id="node19" class="node">
<title>Node19</title>
<g id="a_node19"><a xlink:href="ex_8c.html#ad2c1a9505aa3097bac242b47a367f11d" target="_top" xlink:title=" ">
<polygon fill="white" stroke="black" points="698.5,-646.5 698.5,-665.5 749.5,-665.5 749.5,-646.5 698.5,-646.5"/>
<text text-anchor="middle" x="724" y="-653.5" font-family="Helvetica,sans-Serif" font-size="10.00">ec_print</text>
</a>
</g>
</g>
<!-- Node5&#45;&gt;Node19 -->
<g id="edge21" class="edge">
<title>Node5&#45;&gt;Node19</title>
<path fill="none" stroke="midnightblue" d="M813.06,-560.21C799.87,-580.37 776.78,-613.16 752,-637 748.53,-640.34 744.43,-643.53 740.49,-646.32"/>
<polygon fill="midnightblue" stroke="midnightblue" points="816.09,-561.97 818.55,-551.67 810.2,-558.18 816.09,-561.97"/>
</g>
<!-- Node21 -->
<g id="node21" class="node">
<title>Node21</title>
<g id="a_node21"><a xlink:href="ex_8c.html#a057b67e2d4f23df3ad50a9d3ec86125b" target="_top" xlink:title=" ">
<polygon fill="white" stroke="black" points="697.5,-342.5 697.5,-361.5 750.5,-361.5 750.5,-342.5 697.5,-342.5"/>
<text text-anchor="middle" x="724" y="-349.5" font-family="Helvetica,sans-Serif" font-size="10.00">ec_write</text>
</a>
</g>
</g>
<!-- Node5&#45;&gt;Node21 -->
<g id="edge23" class="edge">
<title>Node5&#45;&gt;Node21</title>
<path fill="none" stroke="midnightblue" d="M814.78,-523.44C794.03,-483.82 746.03,-392.15 730.18,-361.89"/>
<polygon fill="midnightblue" stroke="midnightblue" points="811.69,-525.08 819.43,-532.32 817.89,-521.83 811.69,-525.08"/>
</g>
<!-- Node8 -->
<g id="node8" class="node">
<title>Node8</title>
<g id="a_node8"><a xlink:href="ex_8c.html#a7d848d20211b2e1c868dde98ec5dfae9" target="_top" xlink:title=" ">
<polygon fill="white" stroke="black" points="382,-456.5 382,-475.5 429,-475.5 429,-456.5 382,-456.5"/>
<text text-anchor="middle" x="405.5" y="-463.5" font-family="Helvetica,sans-Serif" font-size="10.00">ex_line</text>
</a>
</g>
</g>
<!-- Node7&#45;&gt;Node8 -->
<g id="edge7" class="edge">
<title>Node7&#45;&gt;Node8</title>
<path fill="none" stroke="midnightblue" d="M463.34,-466C451.81,-466 439.39,-466 429.11,-466"/>
<polygon fill="midnightblue" stroke="midnightblue" points="463.59,-469.5 473.59,-466 463.59,-462.5 463.59,-469.5"/>
</g>
<!-- Node9 -->
<g id="node9" class="node">
<title>Node9</title>
<g id="a_node9"><a xlink:href="ex_8c.html#ab15ebfef933256d9741128e2ddf3f9b5" target="_top" xlink:title=" ">
<polygon fill="white" stroke="black" points="279,-494.5 279,-513.5 332,-513.5 332,-494.5 279,-494.5"/>
<text text-anchor="middle" x="305.5" y="-501.5" font-family="Helvetica,sans-Serif" font-size="10.00">ex_exec</text>
</a>
</g>
</g>
<!-- Node8&#45;&gt;Node9 -->
<g id="edge8" class="edge">
<title>Node8&#45;&gt;Node9</title>
<path fill="none" stroke="midnightblue" d="M372.41,-478.44C359.01,-483.64 343.67,-489.59 331.17,-494.44"/>
<polygon fill="midnightblue" stroke="midnightblue" points="373.71,-481.69 381.77,-474.81 371.18,-475.17 373.71,-481.69"/>
</g>
<!-- Node10 -->
<g id="node10" class="node">
<title>Node10</title>
<g id="a_node10"><a xlink:href="ex_8c.html#a70c571bdde329a65e216c19b4aeaa628" target="_top" xlink:title=" ">
<polygon fill="white" stroke="black" points="170,-456.5 170,-475.5 220,-475.5 220,-456.5 170,-456.5"/>
<text text-anchor="middle" x="195" y="-463.5" font-family="Helvetica,sans-Serif" font-size="10.00">ec_glob</text>
</a>
</g>
</g>
<!-- Node9&#45;&gt;Node10 -->
<g id="edge9" class="edge">
<title>Node9&#45;&gt;Node10</title>
<path fill="none" stroke="midnightblue" d="M269.16,-491.62C253.08,-485.99 234.47,-479.47 220.04,-474.42"/>
<polygon fill="midnightblue" stroke="midnightblue" points="268.19,-494.99 278.79,-494.99 270.51,-488.39 268.19,-494.99"/>
</g>
<!-- Node11 -->
<g id="node11" class="node">
<title>Node11</title>
<g id="a_node11"><a xlink:href="vi_8h.html#aa75c73cccb4878ec06ea5bf5b1b02295" target="_top" xlink:title=" ">
<polygon fill="white" stroke="black" points="157.5,-494.5 157.5,-513.5 232.5,-513.5 232.5,-494.5 157.5,-494.5"/>
<text text-anchor="middle" x="195" y="-501.5" font-family="Helvetica,sans-Serif" font-size="10.00">ex_command</text>
</a>
</g>
</g>
<!-- Node9&#45;&gt;Node11 -->
<g id="edge11" class="edge">
<title>Node9&#45;&gt;Node11</title>
<path fill="none" stroke="midnightblue" d="M268.6,-504C257.04,-504 244.22,-504 232.61,-504"/>
<polygon fill="midnightblue" stroke="midnightblue" points="268.79,-507.5 278.79,-504 268.79,-500.5 268.79,-507.5"/>
</g>
<!-- Node10&#45;&gt;Node8 -->
<g id="edge10" class="edge">
<title>Node10&#45;&gt;Node8</title>
<path fill="none" stroke="midnightblue" d="M230.52,-466C273.39,-466 345.3,-466 381.79,-466"/>
<polygon fill="midnightblue" stroke="midnightblue" points="230.29,-462.5 220.29,-466 230.29,-469.5 230.29,-462.5"/>
</g>
<!-- Node12 -->
<g id="node12" class="node">
<title>Node12</title>
<g id="a_node12"><a xlink:href="vi_8h.html#ac395e51f25330a6e6033b6d0d22b2076" target="_top" xlink:title=" ">
<polygon fill="white" stroke="black" points="82,-418.5 82,-437.5 111,-437.5 111,-418.5 82,-418.5"/>
<text text-anchor="middle" x="96.5" y="-425.5" font-family="Helvetica,sans-Serif" font-size="10.00">ex</text>
</a>
</g>
</g>
<!-- Node11&#45;&gt;Node12 -->
<g id="edge12" class="edge">
<title>Node11&#45;&gt;Node12</title>
<path fill="none" stroke="midnightblue" d="M162.05,-489.53C159.6,-488.09 157.23,-486.58 155,-485 135.28,-471.01 116.1,-450.09 105.64,-437.86"/>
<polygon fill="midnightblue" stroke="midnightblue" points="160.55,-492.7 171.01,-494.35 163.86,-486.53 160.55,-492.7"/>
</g>
<!-- Node14 -->
<g id="node14" class="node">
<title>Node14</title>
<g id="a_node14"><a xlink:href="vi_8h.html#abe53b5c10f94f20cd5ed024371615fa1" target="_top" xlink:title=" ">
<polygon fill="white" stroke="black" points="74,-494.5 74,-513.5 119,-513.5 119,-494.5 74,-494.5"/>
<text text-anchor="middle" x="96.5" y="-501.5" font-family="Helvetica,sans-Serif" font-size="10.00">ex_init</text>
</a>
</g>
</g>
<!-- Node11&#45;&gt;Node14 -->
<g id="edge14" class="edge">
<title>Node11&#45;&gt;Node14</title>
<path fill="none" stroke="midnightblue" d="M147.11,-504C137.29,-504 127.4,-504 119.07,-504"/>
<polygon fill="midnightblue" stroke="midnightblue" points="147.24,-507.5 157.24,-504 147.24,-500.5 147.24,-507.5"/>
</g>
<!-- Node15 -->
<g id="node15" class="node">
<title>Node15</title>
<g id="a_node15"><a xlink:href="vi_8c.html#a8d808e0f3453afe6600673ee1ea5f828" target="_top" xlink:title=" ">
<polygon fill="white" stroke="black" points="82,-228.5 82,-247.5 111,-247.5 111,-228.5 82,-228.5"/>
<text text-anchor="middle" x="96.5" y="-235.5" font-family="Helvetica,sans-Serif" font-size="10.00">vi</text>
</a>
</g>
</g>
<!-- Node11&#45;&gt;Node15 -->
<g id="edge16" class="edge">
<title>Node11&#45;&gt;Node15</title>
<path fill="none" stroke="midnightblue" d="M158.07,-488.33C156.97,-487.29 155.94,-486.18 155,-485 124.46,-446.7 103.57,-288.39 98.63,-247.61"/>
<polygon fill="midnightblue" stroke="midnightblue" points="156.05,-491.19 166.16,-494.33 160.21,-485.56 156.05,-491.19"/>
</g>
<!-- Node13 -->
<g id="node13" class="node">
<title>Node13</title>
<g id="a_node13"><a xlink:href="vi_8c.html#a0ddf1224851353fc92bfbff6f499fa97" target="_top" xlink:title=" ">
<polygon fill="white" stroke="black" points="0,-323.5 0,-342.5 38,-342.5 38,-323.5 0,-323.5"/>
<text text-anchor="middle" x="19" y="-330.5" font-family="Helvetica,sans-Serif" font-size="10.00">main</text>
</a>
</g>
</g>
<!-- Node12&#45;&gt;Node13 -->
<g id="edge13" class="edge">
<title>Node12&#45;&gt;Node13</title>
<path fill="none" stroke="midnightblue" d="M81.33,-410.17C65.42,-390.15 40.21,-358.42 27.64,-342.61"/>
<polygon fill="midnightblue" stroke="midnightblue" points="78.74,-412.54 87.7,-418.19 84.22,-408.18 78.74,-412.54"/>
</g>
<!-- Node14&#45;&gt;Node13 -->
<g id="edge15" class="edge">
<title>Node14&#45;&gt;Node13</title>
<path fill="none" stroke="midnightblue" d="M87.02,-484.8C70.88,-448.24 36.27,-369.84 24.23,-342.58"/>
<polygon fill="midnightblue" stroke="midnightblue" points="83.98,-486.58 91.22,-494.32 90.39,-483.75 83.98,-486.58"/>
</g>
<!-- Node15&#45;&gt;Node13 -->
<g id="edge17" class="edge">
<title>Node15&#45;&gt;Node13</title>
<path fill="none" stroke="midnightblue" d="M81.33,-255.83C65.42,-275.85 40.21,-307.58 27.64,-323.39"/>
<polygon fill="midnightblue" stroke="midnightblue" points="84.22,-257.82 87.7,-247.81 78.74,-253.46 84.22,-257.82"/>
</g>
<!-- Node20 -->
<g id="node20" class="node">
<title>Node20</title>
<g id="a_node20"><a xlink:href="ex_8c.html#affb8197a8f988443aadf1bf2800a0d0b" target="_top" xlink:title=" ">
<polygon fill="white" stroke="black" points="589.5,-646.5 589.5,-665.5 636.5,-665.5 636.5,-646.5 589.5,-646.5"/>
<text text-anchor="middle" x="613" y="-653.5" font-family="Helvetica,sans-Serif" font-size="10.00">ec_null</text>
</a>
</g>
</g>
<!-- Node19&#45;&gt;Node20 -->
<g id="edge22" class="edge">
<title>Node19&#45;&gt;Node20</title>
<path fill="none" stroke="midnightblue" d="M688.23,-656C671.4,-656 651.67,-656 636.78,-656"/>
<polygon fill="midnightblue" stroke="midnightblue" points="688.27,-659.5 698.27,-656 688.27,-652.5 688.27,-659.5"/>
</g>
<!-- Node22 -->
<g id="node22" class="node">
<title>Node22</title>
<g id="a_node22"><a xlink:href="ex_8c.html#ab0cb848a971a3b2c09fcb456d887dd6b" target="_top" xlink:title=" ">
<polygon fill="white" stroke="black" points="566,-380.5 566,-399.5 660,-399.5 660,-380.5 566,-380.5"/>
<text text-anchor="middle" x="613" y="-387.5" font-family="Helvetica,sans-Serif" font-size="10.00">ex_modifiedbuffer</text>
</a>
</g>
</g>
<!-- Node21&#45;&gt;Node22 -->
<g id="edge24" class="edge">
<title>Node21&#45;&gt;Node22</title>
<path fill="none" stroke="midnightblue" d="M687.91,-364.23C672.81,-369.5 655.42,-375.56 641.3,-380.48"/>
<polygon fill="midnightblue" stroke="midnightblue" points="689.15,-367.51 697.44,-360.91 686.85,-360.9 689.15,-367.51"/>
</g>
<!-- Node22&#45;&gt;Node7 -->
<g id="edge27" class="edge">
<title>Node22&#45;&gt;Node7</title>
<path fill="none" stroke="midnightblue" d="M590.01,-405.46C573.55,-416.99 550.44,-433.09 530,-447 525.48,-450.08 520.52,-453.4 516.04,-456.39"/>
<polygon fill="midnightblue" stroke="midnightblue" points="592.24,-408.17 598.42,-399.56 588.22,-402.44 592.24,-408.17"/>
</g>
<!-- Node22&#45;&gt;Node18 -->
<g id="edge28" class="edge">
<title>Node22&#45;&gt;Node18</title>
<path fill="none" stroke="midnightblue" d="M574.55,-402.88C559.49,-408.06 542.44,-413.92 528.61,-418.68"/>
<polygon fill="midnightblue" stroke="midnightblue" points="575.8,-406.15 584.12,-399.59 573.52,-399.53 575.8,-406.15"/>
</g>
<!-- Node23 -->
<g id="node23" class="node">
<title>Node23</title>
<g id="a_node23"><a xlink:href="ex_8c.html#a8059390ad69866fa8e14bdb2521d4dc2" target="_top" xlink:title=" ">
<polygon fill="white" stroke="black" points="476.5,-532.5 476.5,-551.5 524.5,-551.5 524.5,-532.5 476.5,-532.5"/>
<text text-anchor="middle" x="500.5" y="-539.5" font-family="Helvetica,sans-Serif" font-size="10.00">ec_edit</text>
</a>
</g>
</g>
<!-- Node22&#45;&gt;Node23 -->
<g id="edge25" class="edge">
<title>Node22&#45;&gt;Node23</title>
<path fill="none" stroke="midnightblue" d="M599.2,-407.61C575.72,-439.9 526.55,-507.55 508.41,-532.5"/>
<polygon fill="midnightblue" stroke="midnightblue" points="602.04,-409.65 605.09,-399.51 596.38,-405.54 602.04,-409.65"/>
</g>
<!-- Node24 -->
<g id="node24" class="node">
<title>Node24</title>
<g id="a_node24"><a xlink:href="ex_8c.html#a87eef446de152fad41ce88a9a343b87d" target="_top" xlink:title=" ">
<polygon fill="white" stroke="black" points="476.5,-380.5 476.5,-399.5 524.5,-399.5 524.5,-380.5 476.5,-380.5"/>
<text text-anchor="middle" x="500.5" y="-387.5" font-family="Helvetica,sans-Serif" font-size="10.00">ec_quit</text>
</a>
</g>
</g>
<!-- Node22&#45;&gt;Node24 -->
<g id="edge29" class="edge">
<title>Node22&#45;&gt;Node24</title>
<path fill="none" stroke="midnightblue" d="M555.71,-390C544.72,-390 533.77,-390 524.63,-390"/>
<polygon fill="midnightblue" stroke="midnightblue" points="555.78,-393.5 565.78,-390 555.78,-386.5 555.78,-393.5"/>
</g>
<!-- Node23&#45;&gt;Node14 -->
<g id="edge26" class="edge">
<title>Node23&#45;&gt;Node14</title>
<path fill="none" stroke="midnightblue" d="M465.92,-543.06C403.9,-544.38 267.43,-544.29 155,-523 142.91,-520.71 129.86,-516.55 119.26,-512.7"/>
<polygon fill="midnightblue" stroke="midnightblue" points="466.35,-546.55 476.27,-542.81 466.19,-539.56 466.35,-546.55"/>
</g>
<!-- Node24&#45;&gt;Node21 -->
<g id="edge30" class="edge">
<title>Node24&#45;&gt;Node21</title>
<path fill="none" stroke="midnightblue" d="M534.21,-379.22C544.32,-376.2 555.54,-373.16 566,-371 611.71,-361.57 665.95,-356.29 697.23,-353.8"/>
<polygon fill="midnightblue" stroke="midnightblue" points="533.08,-375.91 524.55,-382.2 535.14,-382.6 533.08,-375.91"/>
</g>
<!-- Node25&#45;&gt;Node5 -->
<g id="edge43" class="edge">
<title>Node25&#45;&gt;Node5</title>
<path fill="none" stroke="midnightblue" d="M915.1,-389.73C893.95,-426.08 848,-505.04 832.07,-532.42"/>
<polygon fill="midnightblue" stroke="midnightblue" points="918.36,-391.09 920.37,-380.68 912.31,-387.57 918.36,-391.09"/>
</g>
<!-- Node25&#45;&gt;Node21 -->
<g id="edge35" class="edge">
<title>Node25&#45;&gt;Node21</title>
<path fill="none" stroke="midnightblue" d="M888.7,-367.47C848.54,-363.68 785.72,-357.74 750.73,-354.43"/>
<polygon fill="midnightblue" stroke="midnightblue" points="888.61,-370.98 898.89,-368.44 889.27,-364.01 888.61,-370.98"/>
</g>
<!-- Node25&#45;&gt;Node22 -->
<g id="edge42" class="edge">
<title>Node25&#45;&gt;Node22</title>
<path fill="none" stroke="midnightblue" d="M899.57,-385.66C899.38,-385.77 899.19,-385.89 899,-386 882.69,-395.73 881.22,-403.68 863,-409 787.68,-431.01 694.39,-412.4 646.2,-399.6"/>
<polygon fill="midnightblue" stroke="midnightblue" points="901.56,-388.55 908.48,-380.53 898.07,-382.49 901.56,-388.55"/>
</g>
<!-- Node25&#45;&gt;Node23 -->
<g id="edge32" class="edge">
<title>Node25&#45;&gt;Node23</title>
<path fill="none" stroke="midnightblue" d="M923.71,-390.65C915.19,-453.38 878.92,-648.52 752,-713 701.08,-738.87 571.81,-679.91 566,-675 525.83,-641.04 508.63,-576.18 503.38,-551.69"/>
<polygon fill="midnightblue" stroke="midnightblue" points="927.21,-390.9 925,-380.54 920.27,-390.01 927.21,-390.9"/>
</g>
<!-- Node26 -->
<g id="node26" class="node">
<title>Node26</title>
<g id="a_node26"><a xlink:href="ex_8c.html#add0e79e1f1e3d45f4eaa6fbe5c1ca443" target="_top" xlink:title=" ">
<polygon fill="white" stroke="black" points="698.5,-266.5 698.5,-285.5 749.5,-285.5 749.5,-266.5 698.5,-266.5"/>
<text text-anchor="middle" x="724" y="-273.5" font-family="Helvetica,sans-Serif" font-size="10.00">ec_read</text>
</a>
</g>
</g>
<!-- Node25&#45;&gt;Node26 -->
<g id="edge33" class="edge">
<title>Node25&#45;&gt;Node26</title>
<path fill="none" stroke="midnightblue" d="M896.58,-357.09C855.17,-337.52 780.79,-302.37 745.13,-285.52"/>
<polygon fill="midnightblue" stroke="midnightblue" points="895.08,-360.26 905.62,-361.37 898.08,-353.93 895.08,-360.26"/>
</g>
<!-- Node27 -->
<g id="node27" class="node">
<title>Node27</title>
<g id="a_node27"><a xlink:href="ex_8c.html#a98764f0b4faf5fd4b8baff03a7d73a6e" target="_top" xlink:title=" ">
<polygon fill="white" stroke="black" points="802.5,-266.5 802.5,-285.5 848.5,-285.5 848.5,-266.5 802.5,-266.5"/>
<text text-anchor="middle" x="825.5" y="-273.5" font-family="Helvetica,sans-Serif" font-size="10.00">ec_set</text>
</a>
</g>
</g>
<!-- Node25&#45;&gt;Node27 -->
<g id="edge34" class="edge">
<title>Node25&#45;&gt;Node27</title>
<path fill="none" stroke="midnightblue" d="M912.27,-353.02C900.22,-337.91 881.75,-316.23 863,-300 856.92,-294.74 849.62,-289.72 843.15,-285.65"/>
<polygon fill="midnightblue" stroke="midnightblue" points="909.65,-355.36 918.57,-361.07 915.16,-351.04 909.65,-355.36"/>
</g>
<!-- Node28 -->
<g id="node28" class="node">
<title>Node28</title>
<g id="a_node28"><a xlink:href="ex_8c.html#a2b8907dfb6e95eb16e8a0f1ce0fe5bb6" target="_top" xlink:title=" ">
<polygon fill="white" stroke="black" points="796,-380.5 796,-399.5 855,-399.5 855,-380.5 796,-380.5"/>
<text text-anchor="middle" x="825.5" y="-387.5" font-family="Helvetica,sans-Serif" font-size="10.00">ex_filearg</text>
</a>
</g>
</g>
<!-- Node25&#45;&gt;Node28 -->
<g id="edge36" class="edge">
<title>Node25&#45;&gt;Node28</title>
<path fill="none" stroke="midnightblue" d="M888.87,-378.09C877.68,-380.23 865.58,-382.54 855.05,-384.55"/>
<polygon fill="midnightblue" stroke="midnightblue" points="889.65,-381.51 898.81,-376.19 888.33,-374.63 889.65,-381.51"/>
</g>
<!-- Node28&#45;&gt;Node7 -->
<g id="edge38" class="edge">
<title>Node28&#45;&gt;Node7</title>
<path fill="none" stroke="midnightblue" d="M785.73,-399.12C718.95,-414.84 583.96,-446.6 527.38,-459.91"/>
<polygon fill="midnightblue" stroke="midnightblue" points="786.9,-402.44 795.84,-396.74 785.3,-395.63 786.9,-402.44"/>
</g>
<!-- Node28&#45;&gt;Node18 -->
<g id="edge39" class="edge">
<title>Node28&#45;&gt;Node18</title>
<path fill="none" stroke="midnightblue" d="M809.3,-372.94C795.82,-359.19 774.77,-340.88 752,-333 728.48,-324.86 720.64,-329.47 696,-333 636.41,-341.53 617.37,-339.62 566,-371 546.15,-383.13 547.79,-394.01 530,-409 526.09,-412.3 521.59,-415.52 517.34,-418.35"/>
<polygon fill="midnightblue" stroke="midnightblue" points="806.92,-375.52 816.33,-380.4 812.02,-370.72 806.92,-375.52"/>
</g>
<!-- Node28&#45;&gt;Node21 -->
<g id="edge41" class="edge">
<title>Node28&#45;&gt;Node21</title>
<path fill="none" stroke="midnightblue" d="M789.77,-376.74C776.71,-371.75 762.12,-366.18 750.1,-361.59"/>
<polygon fill="midnightblue" stroke="midnightblue" points="788.8,-380.11 799.39,-380.41 791.3,-373.57 788.8,-380.11"/>
</g>
<!-- Node28&#45;&gt;Node23 -->
<g id="edge37" class="edge">
<title>Node28&#45;&gt;Node23</title>
<path fill="none" stroke="midnightblue" d="M796.92,-404.42C783.44,-411.37 766.94,-419.76 752,-427 668.02,-467.68 566.64,-513.11 523.09,-532.45"/>
<polygon fill="midnightblue" stroke="midnightblue" points="798.86,-407.35 806.13,-399.64 795.64,-401.14 798.86,-407.35"/>
</g>
<!-- Node28&#45;&gt;Node26 -->
<g id="edge40" class="edge">
<title>Node28&#45;&gt;Node26</title>
<path fill="none" stroke="midnightblue" d="M811.53,-372.17C797.62,-353.48 774.48,-323.6 752,-300 747.24,-295 741.59,-289.87 736.69,-285.64"/>
<polygon fill="midnightblue" stroke="midnightblue" points="808.83,-374.4 817.58,-380.37 814.46,-370.25 808.83,-374.4"/>
</g>
<!-- Node30 -->
<g id="node30" class="node">
<title>Node30</title>
<g id="a_node30"><a xlink:href="vi_8h.html#ae72255a31cec31233723c101d9465d07" target="_top" xlink:title=" ">
<polygon fill="white" stroke="black" points="585,-190.5 585,-209.5 641,-209.5 641,-190.5 585,-190.5"/>
<text text-anchor="middle" x="613" y="-197.5" font-family="Helvetica,sans-Serif" font-size="10.00">led_input</text>
</a>
</g>
</g>
<!-- Node29&#45;&gt;Node30 -->
<g id="edge45" class="edge">
<title>Node29&#45;&gt;Node30</title>
<path fill="none" stroke="midnightblue" d="M777.59,-200C735.67,-200 675.7,-200 641.22,-200"/>
<polygon fill="midnightblue" stroke="midnightblue" points="777.83,-203.5 787.83,-200 777.83,-196.5 777.83,-203.5"/>
</g>
<!-- Node35 -->
<g id="node35" class="node">
<title>Node35</title>
<g id="a_node35"><a xlink:href="led_8c.html#a617ec615e86687b5c10df33b271256c8" target="_top" xlink:title=" ">
<polygon fill="white" stroke="black" points="699,-228.5 699,-247.5 749,-247.5 749,-228.5 699,-228.5"/>
<text text-anchor="middle" x="724" y="-235.5" font-family="Helvetica,sans-Serif" font-size="10.00">led_line</text>
</a>
</g>
</g>
<!-- Node29&#45;&gt;Node35 -->
<g id="edge52" class="edge">
<title>Node29&#45;&gt;Node35</title>
<path fill="none" stroke="midnightblue" d="M789.93,-213.2C776.45,-218.35 761.33,-224.13 749.07,-228.81"/>
<polygon fill="midnightblue" stroke="midnightblue" points="791.3,-216.43 799.39,-209.59 788.8,-209.89 791.3,-216.43"/>
</g>
<!-- Node31 -->
<g id="node31" class="node">
<title>Node31</title>
<g id="a_node31"><a xlink:href="vi_8c.html#a653f6b0359cef492e11f404c4bf469b9" target="_top" xlink:title=" ">
<polygon fill="white" stroke="black" points="380.5,-190.5 380.5,-209.5 430.5,-209.5 430.5,-190.5 380.5,-190.5"/>
<text text-anchor="middle" x="405.5" y="-197.5" font-family="Helvetica,sans-Serif" font-size="10.00">vi_input</text>
</a>
</g>
</g>
<!-- Node30&#45;&gt;Node31 -->
<g id="edge46" class="edge">
<title>Node30&#45;&gt;Node31</title>
<path fill="none" stroke="midnightblue" d="M574.64,-200C532.81,-200 466.23,-200 430.7,-200"/>
<polygon fill="midnightblue" stroke="midnightblue" points="574.71,-203.5 584.71,-200 574.71,-196.5 574.71,-203.5"/>
</g>
<!-- Node32 -->
<g id="node32" class="node">
<title>Node32</title>
<g id="a_node32"><a xlink:href="vi_8c.html#a8bb357a77ed61da8858f138c6fa672a6" target="_top" xlink:title=" ">
<polygon fill="white" stroke="black" points="277.5,-152.5 277.5,-171.5 333.5,-171.5 333.5,-152.5 277.5,-152.5"/>
<text text-anchor="middle" x="305.5" y="-159.5" font-family="Helvetica,sans-Serif" font-size="10.00">vc_insert</text>
</a>
</g>
</g>
<!-- Node31&#45;&gt;Node32 -->
<g id="edge47" class="edge">
<title>Node31&#45;&gt;Node32</title>
<path fill="none" stroke="midnightblue" d="M370.71,-186.9C357.7,-181.85 343.11,-176.2 331.13,-171.55"/>
<polygon fill="midnightblue" stroke="midnightblue" points="369.69,-190.25 380.28,-190.61 372.22,-183.73 369.69,-190.25"/>
</g>
<!-- Node33 -->
<g id="node33" class="node">
<title>Node33</title>
<g id="a_node33"><a xlink:href="vi_8c.html#ae37b094c3bb647d8c1a4ac4e858ce518" target="_top" xlink:title=" ">
<polygon fill="white" stroke="black" points="275,-190.5 275,-209.5 336,-209.5 336,-190.5 275,-190.5"/>
<text text-anchor="middle" x="305.5" y="-197.5" font-family="Helvetica,sans-Serif" font-size="10.00">vi_change</text>
</a>
</g>
</g>
<!-- Node31&#45;&gt;Node33 -->
<g id="edge49" class="edge">
<title>Node31&#45;&gt;Node33</title>
<path fill="none" stroke="midnightblue" d="M370.05,-200C358.95,-200 346.75,-200 336.04,-200"/>
<polygon fill="midnightblue" stroke="midnightblue" points="370.28,-203.5 380.28,-200 370.28,-196.5 370.28,-203.5"/>
</g>
<!-- Node32&#45;&gt;Node15 -->
<g id="edge48" class="edge">
<title>Node32&#45;&gt;Node15</title>
<path fill="none" stroke="midnightblue" d="M268.89,-175.08C222.39,-192.15 143.19,-221.23 111.35,-232.91"/>
<polygon fill="midnightblue" stroke="midnightblue" points="270.1,-178.36 278.28,-171.63 267.69,-171.79 270.1,-178.36"/>
</g>
<!-- Node34 -->
<g id="node34" class="node">
<title>Node34</title>
<g id="a_node34"><a xlink:href="vi_8c.html#a06cbc6eb843436a0e77e07cbab0c4538" target="_top" xlink:title=" ">
<polygon fill="white" stroke="black" points="164,-228.5 164,-247.5 226,-247.5 226,-228.5 164,-228.5"/>
<text text-anchor="middle" x="195" y="-235.5" font-family="Helvetica,sans-Serif" font-size="10.00">vc_motion</text>
</a>
</g>
</g>
<!-- Node33&#45;&gt;Node34 -->
<g id="edge50" class="edge">
<title>Node33&#45;&gt;Node34</title>
<path fill="none" stroke="midnightblue" d="M267.46,-212.97C253.01,-218.03 236.73,-223.73 223.37,-228.41"/>
<polygon fill="midnightblue" stroke="midnightblue" points="268.84,-216.2 277.12,-209.59 266.53,-209.59 268.84,-216.2"/>
</g>
<!-- Node34&#45;&gt;Node15 -->
<g id="edge51" class="edge">
<title>Node34&#45;&gt;Node15</title>
<path fill="none" stroke="midnightblue" d="M153.71,-238C138.49,-238 122.18,-238 111.07,-238"/>
<polygon fill="midnightblue" stroke="midnightblue" points="154,-241.5 164,-238 154,-234.5 154,-241.5"/>
</g>
<!-- Node35&#45;&gt;Node30 -->
<g id="edge53" class="edge">
<title>Node35&#45;&gt;Node30</title>
<path fill="none" stroke="midnightblue" d="M689.11,-226.19C673.7,-220.81 655.7,-214.54 641.19,-209.48"/>
<polygon fill="midnightblue" stroke="midnightblue" points="688.21,-229.58 698.81,-229.57 690.52,-222.97 688.21,-229.58"/>
</g>
<!-- Node36 -->
<g id="node36" class="node">
<title>Node36</title>
<g id="a_node36"><a xlink:href="vi_8h.html#a173bb468e1e2a066136316f98b49c108" target="_top" xlink:title=" ">
<polygon fill="white" stroke="black" points="580.5,-266.5 580.5,-285.5 645.5,-285.5 645.5,-266.5 580.5,-266.5"/>
<text text-anchor="middle" x="613" y="-273.5" font-family="Helvetica,sans-Serif" font-size="10.00">led_prompt</text>
</a>
</g>
</g>
<!-- Node35&#45;&gt;Node36 -->
<g id="edge54" class="edge">
<title>Node35&#45;&gt;Node36</title>
<path fill="none" stroke="midnightblue" d="M689.19,-249.79C673.89,-255.12 656.05,-261.34 641.58,-266.38"/>
<polygon fill="midnightblue" stroke="midnightblue" points="690.52,-253.03 698.81,-246.43 688.21,-246.42 690.52,-253.03"/>
</g>
<!-- Node37 -->
<g id="node37" class="node">
<title>Node37</title>
<g id="a_node37"><a xlink:href="vi_8h.html#a7ba56272fe1a7d523192729a0bb5edf7" target="_top" xlink:title=" ">
<polygon fill="white" stroke="black" points="280,-361.5 280,-380.5 331,-380.5 331,-361.5 280,-361.5"/>
<text text-anchor="middle" x="305.5" y="-368.5" font-family="Helvetica,sans-Serif" font-size="10.00">ex_read</text>
</a>
</g>
</g>
<!-- Node36&#45;&gt;Node37 -->
<g id="edge55" class="edge">
<title>Node36&#45;&gt;Node37</title>
<path fill="none" stroke="midnightblue" d="M573.37,-288.74C537.57,-300.47 482.79,-318.24 435,-333 398.99,-344.12 357.1,-356.38 331.19,-363.89"/>
<polygon fill="midnightblue" stroke="midnightblue" points="574.53,-292.04 582.94,-285.59 572.35,-285.39 574.53,-292.04"/>
</g>
<!-- Node40 -->
<g id="node40" class="node">
<title>Node40</title>
<g id="a_node40"><a xlink:href="vi_8c.html#a57965473297aad4c4333fdd3897c11f3" target="_top" xlink:title=" ">
<polygon fill="white" stroke="black" points="471,-266.5 471,-285.5 530,-285.5 530,-266.5 471,-266.5"/>
<text text-anchor="middle" x="500.5" y="-273.5" font-family="Helvetica,sans-Serif" font-size="10.00">vi_prompt</text>
</a>
</g>
</g>
<!-- Node36&#45;&gt;Node40 -->
<g id="edge60" class="edge">
<title>Node36&#45;&gt;Node40</title>
<path fill="none" stroke="midnightblue" d="M569.97,-276C556.67,-276 542.28,-276 530.15,-276"/>
<polygon fill="midnightblue" stroke="midnightblue" points="570.34,-279.5 580.34,-276 570.34,-272.5 570.34,-279.5"/>
</g>
<!-- Node37&#45;&gt;Node12 -->
<g id="edge57" class="edge">
<title>Node37&#45;&gt;Node12</title>
<path fill="none" stroke="midnightblue" d="M281.77,-386.18C268.64,-394.23 251.5,-403.55 235,-409 191.29,-423.43 136.26,-426.9 111.14,-427.74"/>
<polygon fill="midnightblue" stroke="midnightblue" points="283.98,-388.92 290.56,-380.62 280.23,-383.01 283.98,-388.92"/>
</g>
<!-- Node38 -->
<g id="node38" class="node">
<title>Node38</title>
<g id="a_node38"><a xlink:href="ex_8c.html#a0908784dc65be2da119a6b72ef96dec2" target="_top" xlink:title=" ">
<polygon fill="white" stroke="black" points="167,-342.5 167,-361.5 223,-361.5 223,-342.5 167,-342.5"/>
<text text-anchor="middle" x="195" y="-349.5" font-family="Helvetica,sans-Serif" font-size="10.00">ec_insert</text>
</a>
</g>
</g>
<!-- Node37&#45;&gt;Node38 -->
<g id="edge56" class="edge">
<title>Node37&#45;&gt;Node38</title>
<path fill="none" stroke="midnightblue" d="M269.87,-364.94C254.77,-362.29 237.33,-359.24 223.19,-356.76"/>
<polygon fill="midnightblue" stroke="midnightblue" points="269.43,-368.41 279.88,-366.69 270.63,-361.52 269.43,-368.41"/>
</g>
<!-- Node39 -->
<g id="node39" class="node">
<title>Node39</title>
<g id="a_node39"><a xlink:href="vi_8c.html#a9d85e9ed087401367529ab86a5dbf0c5" target="_top" xlink:title=" ">
<polygon fill="white" stroke="black" points="171.5,-380.5 171.5,-399.5 218.5,-399.5 218.5,-380.5 171.5,-380.5"/>
<text text-anchor="middle" x="195" y="-387.5" font-family="Helvetica,sans-Serif" font-size="10.00">vi_wait</text>
</a>
</g>
</g>
<!-- Node37&#45;&gt;Node39 -->
<g id="edge58" class="edge">
<title>Node37&#45;&gt;Node39</title>
<path fill="none" stroke="midnightblue" d="M269.89,-377.06C253.14,-379.99 233.49,-383.43 218.67,-386.03"/>
<polygon fill="midnightblue" stroke="midnightblue" points="270.63,-380.48 279.88,-375.31 269.43,-373.59 270.63,-380.48"/>
</g>
<!-- Node39&#45;&gt;Node15 -->
<g id="edge59" class="edge">
<title>Node39&#45;&gt;Node15</title>
<path fill="none" stroke="midnightblue" d="M162.32,-377.12C159.66,-375.3 157.17,-373.27 155,-371 119.54,-333.9 104.08,-271.47 99.26,-247.64"/>
<polygon fill="midnightblue" stroke="midnightblue" points="160.75,-380.25 171.17,-382.19 164.23,-374.18 160.75,-380.25"/>
</g>
<!-- Node40&#45;&gt;Node15 -->
<g id="edge61" class="edge">
<title>Node40&#45;&gt;Node15</title>
<path fill="none" stroke="midnightblue" d="M460.52,-277.17C396.25,-278.36 264.27,-277.69 155,-257 139.71,-254.11 122.88,-248.21 111.4,-243.75"/>
<polygon fill="midnightblue" stroke="midnightblue" points="460.68,-280.67 470.61,-276.96 460.54,-273.67 460.68,-280.67"/>
</g>
<!-- Node41 -->
<g id="node41" class="node">
<title>Node41</title>
<g id="a_node41"><a xlink:href="vi_8c.html#ab8e0c9b9d2ef5161c6a3a8828606df5f" target="_top" xlink:title=" ">
<polygon fill="white" stroke="black" points="382,-228.5 382,-247.5 429,-247.5 429,-228.5 382,-228.5"/>
<text text-anchor="middle" x="405.5" y="-235.5" font-family="Helvetica,sans-Serif" font-size="10.00">vi_pipe</text>
</a>
</g>
</g>
<!-- Node40&#45;&gt;Node41 -->
<g id="edge62" class="edge">
<title>Node40&#45;&gt;Node41</title>
<path fill="none" stroke="midnightblue" d="M466.53,-262.53C454.22,-257.5 440.52,-251.9 429.32,-247.32"/>
<polygon fill="midnightblue" stroke="midnightblue" points="465.45,-265.87 476.03,-266.41 468.1,-259.39 465.45,-265.87"/>
</g>
<!-- Node42 -->
<g id="node42" class="node">
<title>Node42</title>
<g id="a_node42"><a xlink:href="vi_8c.html#a93701c59617d4f96cbaa207e89178f87" target="_top" xlink:title=" ">
<polygon fill="white" stroke="black" points="376,-304.5 376,-323.5 435,-323.5 435,-304.5 376,-304.5"/>
<text text-anchor="middle" x="405.5" y="-311.5" font-family="Helvetica,sans-Serif" font-size="10.00">vi_search</text>
</a>
</g>
</g>
<!-- Node40&#45;&gt;Node42 -->
<g id="edge64" class="edge">
<title>Node40&#45;&gt;Node42</title>
<path fill="none" stroke="midnightblue" d="M466.68,-289.41C454.56,-294.36 441.08,-299.87 429.96,-304.41"/>
<polygon fill="midnightblue" stroke="midnightblue" points="468.1,-292.61 476.03,-285.59 465.45,-286.13 468.1,-292.61"/>
</g>
<!-- Node41&#45;&gt;Node34 -->
<g id="edge63" class="edge">
<title>Node41&#45;&gt;Node34</title>
<path fill="none" stroke="midnightblue" d="M371.76,-238C331.8,-238 264.77,-238 226.06,-238"/>
<polygon fill="midnightblue" stroke="midnightblue" points="371.79,-241.5 381.79,-238 371.79,-234.5 371.79,-241.5"/>
</g>
<!-- Node43 -->
<g id="node43" class="node">
<title>Node43</title>
<g id="a_node43"><a xlink:href="vi_8c.html#aaa4777ea0715ea846346d0f27a0cfa3f" target="_top" xlink:title=" ">
<polygon fill="white" stroke="black" points="276,-304.5 276,-323.5 335,-323.5 335,-304.5 276,-304.5"/>
<text text-anchor="middle" x="305.5" y="-311.5" font-family="Helvetica,sans-Serif" font-size="10.00">vi_motion</text>
</a>
</g>
</g>
<!-- Node42&#45;&gt;Node43 -->
<g id="edge65" class="edge">
<title>Node42&#45;&gt;Node43</title>
<path fill="none" stroke="midnightblue" d="M365.64,-314C355.53,-314 344.81,-314 335.31,-314"/>
<polygon fill="midnightblue" stroke="midnightblue" points="365.89,-317.5 375.89,-314 365.89,-310.5 365.89,-317.5"/>
</g>
<!-- Node43&#45;&gt;Node15 -->
<g id="edge67" class="edge">
<title>Node43&#45;&gt;Node15</title>
<path fill="none" stroke="midnightblue" d="M265.73,-313.77C234.44,-312.2 190.03,-306.8 155,-290 134.13,-279.99 115.35,-259.96 105.27,-247.89"/>
<polygon fill="midnightblue" stroke="midnightblue" points="265.67,-317.27 275.8,-314.16 265.94,-310.27 265.67,-317.27"/>
</g>
<!-- Node43&#45;&gt;Node34 -->
<g id="edge66" class="edge">
<title>Node43&#45;&gt;Node34</title>
<path fill="none" stroke="midnightblue" d="M282.43,-298.54C260.61,-283.25 227.91,-260.36 209.63,-247.55"/>
<polygon fill="midnightblue" stroke="midnightblue" points="280.56,-301.5 290.76,-304.37 284.58,-295.77 280.56,-301.5"/>
</g>
<!-- Node44&#45;&gt;Node15 -->
<g id="edge69" class="edge">
<title>Node44&#45;&gt;Node15</title>
<path fill="none" stroke="midnightblue" d="M262.62,-136.59C231.53,-146.98 188.84,-163.5 155,-185 135.52,-197.38 116.56,-216.69 106.01,-228.27"/>
<polygon fill="midnightblue" stroke="midnightblue" points="263.86,-139.87 272.28,-133.44 261.69,-133.21 263.86,-139.87"/>
</g>
<!-- Node45 -->
<g id="node45" class="node">
<title>Node45</title>
<g id="a_node45"><a xlink:href="vi_8c.html#a2b620fa68325e1b708f07af90f50c3d8" target="_top" xlink:title=" ">
<polygon fill="white" stroke="black" points="158,-114.5 158,-133.5 232,-133.5 232,-114.5 158,-114.5"/>
<text text-anchor="middle" x="195" y="-121.5" font-family="Helvetica,sans-Serif" font-size="10.00">vi_drawagain</text>
</a>
</g>
</g>
<!-- Node44&#45;&gt;Node45 -->
<g id="edge70" class="edge">
<title>Node44&#45;&gt;Node45</title>
<path fill="none" stroke="midnightblue" d="M262.16,-124C252.23,-124 241.75,-124 232.13,-124"/>
<polygon fill="midnightblue" stroke="midnightblue" points="262.24,-127.5 272.24,-124 262.24,-120.5 262.24,-127.5"/>
</g>
<!-- Node46 -->
<g id="node46" class="node">
<title>Node46</title>
<g id="a_node46"><a xlink:href="vi_8c.html#a9896bc9688f6102408f66aa0ad7e64f9" target="_top" xlink:title=" ">
<polygon fill="white" stroke="black" points="155,-76.5 155,-95.5 235,-95.5 235,-76.5 155,-76.5"/>
<text text-anchor="middle" x="195" y="-83.5" font-family="Helvetica,sans-Serif" font-size="10.00">vi_drawupdate</text>
</a>
</g>
</g>
<!-- Node44&#45;&gt;Node46 -->
<g id="edge72" class="edge">
<title>Node44&#45;&gt;Node46</title>
<path fill="none" stroke="midnightblue" d="M267.46,-111.03C253.01,-105.97 236.73,-100.27 223.37,-95.59"/>
<polygon fill="midnightblue" stroke="midnightblue" points="266.53,-114.41 277.12,-114.41 268.84,-107.8 266.53,-114.41"/>
</g>
<!-- Node45&#45;&gt;Node15 -->
<g id="edge71" class="edge">
<title>Node45&#45;&gt;Node15</title>
<path fill="none" stroke="midnightblue" d="M165.96,-139.09C162.06,-141.79 158.28,-144.78 155,-148 129.75,-172.83 110.17,-210.71 101.85,-228.34"/>
<polygon fill="midnightblue" stroke="midnightblue" points="167.94,-141.97 174.52,-133.67 164.2,-136.06 167.94,-141.97"/>
</g>
<!-- Node46&#45;&gt;Node15 -->
<g id="edge73" class="edge">
<title>Node46&#45;&gt;Node15</title>
<path fill="none" stroke="midnightblue" d="M158.93,-101.4C157.54,-102.53 156.22,-103.73 155,-105 119.54,-142.1 104.08,-204.53 99.26,-228.36"/>
<polygon fill="midnightblue" stroke="midnightblue" points="161.12,-104.15 167.52,-95.7 157.25,-98.31 161.12,-104.15"/>
</g>
<!-- Node48 -->
<g id="node48" class="node">
<title>Node48</title>
<g id="a_node48"><a xlink:href="vi_8c.html#aa59b6f8d6056ad376a3a5ec45ce1686b" target="_top" xlink:title=" ">
<polygon fill="white" stroke="black" points="271,-76.5 271,-95.5 340,-95.5 340,-76.5 271,-76.5"/>
<text text-anchor="middle" x="305.5" y="-83.5" font-family="Helvetica,sans-Serif" font-size="10.00">vi_drawmsg</text>
</a>
</g>
</g>
<!-- Node47&#45;&gt;Node48 -->
<g id="edge75" class="edge">
<title>Node47&#45;&gt;Node48</title>
<path fill="none" stroke="midnightblue" d="M980.6,-86C940.17,-86 879.39,-86 826.5,-86 826.5,-86 826.5,-86 499.5,-86 443.71,-86 378.85,-86 340.32,-86"/>
<polygon fill="midnightblue" stroke="midnightblue" points="980.68,-89.5 990.68,-86 980.68,-82.5 980.68,-89.5"/>
</g>
<!-- Node48&#45;&gt;Node15 -->
<g id="edge76" class="edge">
<title>Node48&#45;&gt;Node15</title>
<path fill="none" stroke="midnightblue" d="M277.15,-72.09C244.85,-57.83 191,-41.12 155,-67 100.83,-105.94 97,-198.46 97.24,-228.44"/>
<polygon fill="midnightblue" stroke="midnightblue" points="275.89,-75.36 286.43,-76.38 278.82,-69.01 275.89,-75.36"/>
</g>
<!-- Node48&#45;&gt;Node45 -->
<g id="edge77" class="edge">
<title>Node48&#45;&gt;Node45</title>
<path fill="none" stroke="midnightblue" d="M267.46,-98.97C253.01,-104.03 236.73,-109.73 223.37,-114.41"/>
<polygon fill="midnightblue" stroke="midnightblue" points="268.84,-102.2 277.12,-95.59 266.53,-95.59 268.84,-102.2"/>
</g>
<!-- Node48&#45;&gt;Node46 -->
<g id="edge78" class="edge">
<title>Node48&#45;&gt;Node46</title>
<path fill="none" stroke="midnightblue" d="M260.65,-86C252.17,-86 243.34,-86 235.03,-86"/>
<polygon fill="midnightblue" stroke="midnightblue" points="260.76,-89.5 270.76,-86 260.76,-82.5 260.76,-89.5"/>
</g>
<!-- Node49&#45;&gt;Node13 -->
<g id="edge80" class="edge">
<title>Node49&#45;&gt;Node13</title>
<path fill="none" stroke="midnightblue" d="M1094.85,-10C1054.86,-10 986.62,-10 928,-10 928,-10 928,-10 194,-10 47.82,-10 23.89,-269.59 20.51,-323.33"/>
<polygon fill="midnightblue" stroke="midnightblue" points="1094.87,-13.5 1104.87,-10 1094.87,-6.5 1094.87,-13.5"/>
</g>
<!-- Node50&#45;&gt;Node49 -->
<g id="edge82" class="edge">
<title>Node50&#45;&gt;Node49</title>
<path fill="none" stroke="midnightblue" d="M1197.49,-34.77C1183.56,-29.58 1167.93,-23.76 1155.33,-19.06"/>
<polygon fill="midnightblue" stroke="midnightblue" points="1196.67,-38.2 1207.26,-38.41 1199.11,-31.64 1196.67,-38.2"/>
</g>
</g>
</svg>
