<?xml version="1.0" encoding="UTF-8" standalone="no"?>
<!DOCTYPE svg PUBLIC "-//W3C//DTD SVG 1.1//EN"
 "http://www.w3.org/Graphics/SVG/1.1/DTD/svg11.dtd">
<!-- Generated by graphviz version 2.44.1 (20200629.0846)
 -->
<!-- Title: dir_init Pages: 1 -->
<!--zoomable 408 -->
<svg id="main" version="1.1" xmlns="http://www.w3.org/2000/svg" xmlns:xlink="http://www.w3.org/1999/xlink" xml:space="preserve" onload="init(evt)">
<style type="text/css"><![CDATA[
.edge:hover path { stroke: red; }
.edge:hover polygon { stroke: red; fill: red; }
]]></style>
<script type="text/javascript"><![CDATA[
var edges = document.getElementsByTagName('g');
if (edges && edges.length) {
  for (var i=0;i<edges.length;i++) {
    if (edges[i].id.substr(0,4)=='edge') {
      edges[i].setAttribute('class','edge');
    }
  }
}
]]></script>
        <defs>
                <circle id="rim" cx="0" cy="0" r="7"/>
                <circle id="rim2" cx="0" cy="0" r="3.5"/>
                <g id="zoomPlus">
                        <use xlink:href="#rim" fill="#404040">
                                <set attributeName="fill" to="#808080" begin="zoomplus.mouseover" end="zoomplus.mouseout"/>
                        </use>
                        <path d="M-4,0h8M0,-4v8" fill="none" stroke="white" stroke-width="1.5" pointer-events="none"/>
                </g>
                <g id="zoomMin">
                        <use xlink:href="#rim" fill="#404040">
                                <set attributeName="fill" to="#808080" begin="zoomminus.mouseover" end="zoomminus.mouseout"/>
                        </use>
                        <path d="M-4,0h8" fill="none" stroke="white" stroke-width="1.5" pointer-events="none"/>
                </g>
                <g id="dirArrow">
                        <path fill="none" stroke="white" stroke-width="1.5" d="M0,-3.0v7 M-2.5,-0.5L0,-3.0L2.5,-0.5"/>
                </g>
               <g id="resetDef">
                       <use xlink:href="#rim2" fill="#404040">
                               <set attributeName="fill" to="#808080" begin="reset.mouseover" end="reset.mouseout"/>
                       </use>
               </g>
        </defs>

<script type="text/javascript">
var viewWidth = 921;
var viewHeight = 408;
var sectionId = 'dynsection-10';
</script>
<script xlink:href="svgpan.js"/>
<svg id="graph" class="graph">
<g id="viewport">
<title>dir_init</title>
<polygon fill="white" stroke="transparent" points="-4,4 -4,-404 917,-404 917,4 -4,4"/>
<!-- Node1 -->
<g id="node1" class="node">
<title>Node1</title>
<g id="a_node1"><a xlink:title=" ">
<polygon fill="#bfbfbf" stroke="black" points="0,-171.5 0,-190.5 45,-190.5 45,-171.5 0,-171.5"/>
<text text-anchor="middle" x="22.5" y="-178.5" font-family="Helvetica,sans-Serif" font-size="10.00">dir_init</text>
</a>
</g>
</g>
<!-- Node2 -->
<g id="node2" class="node">
<title>Node2</title>
<g id="a_node2"><a xlink:href="conf_8c.html#a9e1bc5ed600c151c51d8e2342454e07c" target="_top" xlink:title=" ">
<polygon fill="white" stroke="black" points="81,-209.5 81,-228.5 164,-228.5 164,-209.5 81,-209.5"/>
<text text-anchor="middle" x="122.5" y="-216.5" font-family="Helvetica,sans-Serif" font-size="10.00">conf_dircontext</text>
</a>
</g>
</g>
<!-- Node1&#45;&gt;Node2 -->
<g id="edge1" class="edge">
<title>Node1&#45;&gt;Node2</title>
<path fill="none" stroke="midnightblue" d="M45.25,-189.43C57.62,-194.23 73.39,-200.34 87.37,-205.77"/>
<polygon fill="midnightblue" stroke="midnightblue" points="86.11,-209.03 96.7,-209.38 88.64,-202.51 86.11,-209.03"/>
</g>
<!-- Node3 -->
<g id="node3" class="node">
<title>Node3</title>
<g id="a_node3"><a xlink:href="conf_8c.html#a3efe6ef9cd3bd043b3df1653265409f2" target="_top" xlink:title=" ">
<polygon fill="white" stroke="black" points="86,-171.5 86,-190.5 159,-190.5 159,-171.5 86,-171.5"/>
<text text-anchor="middle" x="122.5" y="-178.5" font-family="Helvetica,sans-Serif" font-size="10.00">conf_dirmark</text>
</a>
</g>
</g>
<!-- Node1&#45;&gt;Node3 -->
<g id="edge2" class="edge">
<title>Node1&#45;&gt;Node3</title>
<path fill="none" stroke="midnightblue" d="M45.25,-181C54.31,-181 65.19,-181 75.86,-181"/>
<polygon fill="midnightblue" stroke="midnightblue" points="75.96,-184.5 85.96,-181 75.96,-177.5 75.96,-184.5"/>
</g>
<!-- Node4 -->
<g id="node4" class="node">
<title>Node4</title>
<g id="a_node4"><a xlink:href="rset_8c.html#a01a879f1a8002d2fb591b604b2ca3704" target="_top" xlink:title=" ">
<polygon fill="white" stroke="black" points="91.5,-133.5 91.5,-152.5 153.5,-152.5 153.5,-133.5 91.5,-133.5"/>
<text text-anchor="middle" x="122.5" y="-140.5" font-family="Helvetica,sans-Serif" font-size="10.00">rset_make</text>
</a>
</g>
</g>
<!-- Node1&#45;&gt;Node4 -->
<g id="edge3" class="edge">
<title>Node1&#45;&gt;Node4</title>
<path fill="none" stroke="midnightblue" d="M45.25,-172.57C57.62,-167.77 73.39,-161.66 87.37,-156.23"/>
<polygon fill="midnightblue" stroke="midnightblue" points="88.64,-159.49 96.7,-152.62 86.11,-152.97 88.64,-159.49"/>
</g>
<!-- Node5 -->
<g id="node5" class="node">
<title>Node5</title>
<g id="a_node5"><a xlink:href="rset_8c.html#a8a35950ab3896c3d568af835385cc12f" target="_top" xlink:title=" ">
<polygon fill="white" stroke="black" points="200,-266.5 200,-285.5 278,-285.5 278,-266.5 200,-266.5"/>
<text text-anchor="middle" x="239" y="-273.5" font-family="Helvetica,sans-Serif" font-size="10.00">re_groupcount</text>
</a>
</g>
</g>
<!-- Node4&#45;&gt;Node5 -->
<g id="edge4" class="edge">
<title>Node4&#45;&gt;Node5</title>
<path fill="none" stroke="midnightblue" d="M151.56,-152.65C156.14,-155.16 160.52,-158.24 164,-162 194.68,-195.12 169.73,-223.5 200,-257 201.16,-258.28 202.42,-259.48 203.76,-260.62"/>
<polygon fill="midnightblue" stroke="midnightblue" points="201.84,-263.54 212.06,-266.33 205.81,-257.78 201.84,-263.54"/>
</g>
<!-- Node6 -->
<g id="node6" class="node">
<title>Node6</title>
<g id="a_node6"><a xlink:href="regex_8c.html#a5b590271eb220f4e019e76cfb950eb69" target="_top" xlink:title=" ">
<polygon fill="white" stroke="black" points="212,-228.5 212,-247.5 266,-247.5 266,-228.5 212,-228.5"/>
<text text-anchor="middle" x="239" y="-235.5" font-family="Helvetica,sans-Serif" font-size="10.00">regcomp</text>
</a>
</g>
</g>
<!-- Node4&#45;&gt;Node6 -->
<g id="edge5" class="edge">
<title>Node4&#45;&gt;Node6</title>
<path fill="none" stroke="midnightblue" d="M149.15,-152.53C154.38,-155.14 159.61,-158.29 164,-162 185.46,-180.15 179.71,-194.55 200,-214 203.32,-217.18 207.13,-220.17 211.02,-222.89"/>
<polygon fill="midnightblue" stroke="midnightblue" points="209.23,-225.9 219.53,-228.37 213.02,-220.01 209.23,-225.9"/>
</g>
<!-- Node22 -->
<g id="node22" class="node">
<title>Node22</title>
<g id="a_node22"><a xlink:href="sbuf_8c.html#a4e56760893d5a6797626743840c9adf2" target="_top" xlink:title=" ">
<polygon fill="white" stroke="black" points="322,-0.5 322,-19.5 376,-19.5 376,-0.5 322,-0.5"/>
<text text-anchor="middle" x="349" y="-7.5" font-family="Helvetica,sans-Serif" font-size="10.00">sbuf_buf</text>
</a>
</g>
</g>
<!-- Node4&#45;&gt;Node22 -->
<g id="edge30" class="edge">
<title>Node4&#45;&gt;Node22</title>
<path fill="none" stroke="midnightblue" d="M126.81,-133.3C135.09,-110.66 159.05,-54.32 200,-29 233.65,-8.19 279.83,-5.45 311.61,-6.62"/>
<polygon fill="midnightblue" stroke="midnightblue" points="311.63,-10.13 321.8,-7.15 311.99,-3.14 311.63,-10.13"/>
</g>
<!-- Node24 -->
<g id="node24" class="node">
<title>Node24</title>
<g id="a_node24"><a xlink:href="sbuf_8c.html#a3f9aa15ca1d73f585d7a4a9d023e58ce" target="_top" xlink:title=" ">
<polygon fill="white" stroke="black" points="322,-133.5 322,-152.5 376,-152.5 376,-133.5 322,-133.5"/>
<text text-anchor="middle" x="349" y="-140.5" font-family="Helvetica,sans-Serif" font-size="10.00">sbuf_chr</text>
</a>
</g>
</g>
<!-- Node4&#45;&gt;Node24 -->
<g id="edge32" class="edge">
<title>Node4&#45;&gt;Node24</title>
<path fill="none" stroke="midnightblue" d="M144.61,-152.67C150.88,-155.61 157.74,-158.88 164,-162 180.19,-170.07 182.44,-176.65 200,-181 233.65,-189.33 244.4,-189.53 278,-181 295.42,-176.58 313.2,-166.85 326.48,-158.34"/>
<polygon fill="midnightblue" stroke="midnightblue" points="328.52,-161.19 334.9,-152.73 324.64,-155.36 328.52,-161.19"/>
</g>
<!-- Node25 -->
<g id="node25" class="node">
<title>Node25</title>
<g id="a_node25"><a xlink:href="sbuf_8c.html#a8c1a89868b1999663effb78b4f3fab32" target="_top" xlink:title=" ">
<polygon fill="white" stroke="black" points="210.5,-114.5 210.5,-133.5 267.5,-133.5 267.5,-114.5 210.5,-114.5"/>
<text text-anchor="middle" x="239" y="-121.5" font-family="Helvetica,sans-Serif" font-size="10.00">sbuf_free</text>
</a>
</g>
</g>
<!-- Node4&#45;&gt;Node25 -->
<g id="edge34" class="edge">
<title>Node4&#45;&gt;Node25</title>
<path fill="none" stroke="midnightblue" d="M153.58,-138.01C167.9,-135.63 185.18,-132.77 200.36,-130.25"/>
<polygon fill="midnightblue" stroke="midnightblue" points="201.18,-133.66 210.47,-128.57 200.03,-126.75 201.18,-133.66"/>
</g>
<!-- Node26 -->
<g id="node26" class="node">
<title>Node26</title>
<g id="a_node26"><a xlink:href="sbuf_8c.html#af4ad9608dfc956bbedc19df5c8256fc4" target="_top" xlink:title=" ">
<polygon fill="white" stroke="black" points="212.5,-76.5 212.5,-95.5 265.5,-95.5 265.5,-76.5 212.5,-76.5"/>
<text text-anchor="middle" x="239" y="-83.5" font-family="Helvetica,sans-Serif" font-size="10.00">sbuf_len</text>
</a>
</g>
</g>
<!-- Node4&#45;&gt;Node26 -->
<g id="edge35" class="edge">
<title>Node4&#45;&gt;Node26</title>
<path fill="none" stroke="midnightblue" d="M142.66,-133.46C160.99,-124.34 188.85,-110.47 209.73,-100.07"/>
<polygon fill="midnightblue" stroke="midnightblue" points="211.38,-103.16 218.77,-95.57 208.26,-96.89 211.38,-103.16"/>
</g>
<!-- Node27 -->
<g id="node27" class="node">
<title>Node27</title>
<g id="a_node27"><a xlink:href="sbuf_8c.html#a57748585d6786a2c1aadc2cbe6f2135b" target="_top" xlink:title=" ">
<polygon fill="white" stroke="black" points="206.5,-38.5 206.5,-57.5 271.5,-57.5 271.5,-38.5 206.5,-38.5"/>
<text text-anchor="middle" x="239" y="-45.5" font-family="Helvetica,sans-Serif" font-size="10.00">sbuf_make</text>
</a>
</g>
</g>
<!-- Node4&#45;&gt;Node27 -->
<g id="edge36" class="edge">
<title>Node4&#45;&gt;Node27</title>
<path fill="none" stroke="midnightblue" d="M131.61,-133.12C144.74,-117.57 172.02,-87.1 200,-67 202.23,-65.4 204.61,-63.87 207.05,-62.41"/>
<polygon fill="midnightblue" stroke="midnightblue" points="208.91,-65.38 216.01,-57.51 205.55,-59.24 208.91,-65.38"/>
</g>
<!-- Node28 -->
<g id="node28" class="node">
<title>Node28</title>
<g id="a_node28"><a xlink:href="sbuf_8c.html#a603d1d6ab090025f5850f10bfa2dec7a" target="_top" xlink:title=" ">
<polygon fill="white" stroke="black" points="213,-152.5 213,-171.5 265,-171.5 265,-152.5 213,-152.5"/>
<text text-anchor="middle" x="239" y="-159.5" font-family="Helvetica,sans-Serif" font-size="10.00">sbuf_str</text>
</a>
</g>
</g>
<!-- Node4&#45;&gt;Node28 -->
<g id="edge37" class="edge">
<title>Node4&#45;&gt;Node28</title>
<path fill="none" stroke="midnightblue" d="M153.58,-147.99C168.69,-150.5 187.09,-153.55 202.85,-156.17"/>
<polygon fill="midnightblue" stroke="midnightblue" points="202.32,-159.63 212.76,-157.81 203.47,-152.72 202.32,-159.63"/>
</g>
<!-- Node7 -->
<g id="node7" class="node">
<title>Node7</title>
<g id="a_node7"><a xlink:href="regex_8c.html#ad3bbf549eef0fe517e9f213c5eadbb0c" target="_top" xlink:title=" ">
<polygon fill="white" stroke="black" points="552,-342.5 552,-361.5 606,-361.5 606,-342.5 552,-342.5"/>
<text text-anchor="middle" x="579" y="-349.5" font-family="Helvetica,sans-Serif" font-size="10.00">re_insert</text>
</a>
</g>
</g>
<!-- Node6&#45;&gt;Node7 -->
<g id="edge6" class="edge">
<title>Node6&#45;&gt;Node7</title>
<path fill="none" stroke="midnightblue" d="M261.9,-247.65C267.33,-250.39 273.02,-253.57 278,-257 295.88,-269.31 294.81,-279.86 314,-290 388.76,-329.52 488.58,-344.11 541.49,-349.29"/>
<polygon fill="midnightblue" stroke="midnightblue" points="541.46,-352.8 551.73,-350.23 542.1,-345.83 541.46,-352.8"/>
</g>
<!-- Node8 -->
<g id="node8" class="node">
<title>Node8</title>
<g id="a_node8"><a xlink:href="regex_8c.html#ac00e60e2e4bce1edcd55ffa8b9086ac5" target="_top" xlink:title=" ">
<polygon fill="white" stroke="black" points="314,-190.5 314,-209.5 384,-209.5 384,-190.5 314,-190.5"/>
<text text-anchor="middle" x="349" y="-197.5" font-family="Helvetica,sans-Serif" font-size="10.00">rnode_count</text>
</a>
</g>
</g>
<!-- Node6&#45;&gt;Node8 -->
<g id="edge7" class="edge">
<title>Node6&#45;&gt;Node8</title>
<path fill="none" stroke="midnightblue" d="M266.14,-228.8C279.77,-224.01 296.64,-218.07 311.53,-212.83"/>
<polygon fill="midnightblue" stroke="midnightblue" points="312.7,-216.13 320.97,-209.51 310.37,-209.53 312.7,-216.13"/>
</g>
<!-- Node9 -->
<g id="node9" class="node">
<title>Node9</title>
<g id="a_node9"><a xlink:href="regex_8c.html#a7be1fd2247ffed1699d3be12c04fe9c6" target="_top" xlink:title=" ">
<polygon fill="white" stroke="black" points="316.5,-361.5 316.5,-380.5 381.5,-380.5 381.5,-361.5 316.5,-361.5"/>
<text text-anchor="middle" x="349" y="-368.5" font-family="Helvetica,sans-Serif" font-size="10.00">rnode_emit</text>
</a>
</g>
</g>
<!-- Node6&#45;&gt;Node9 -->
<g id="edge8" class="edge">
<title>Node6&#45;&gt;Node9</title>
<path fill="none" stroke="midnightblue" d="M264.84,-247.53C269.58,-250.11 274.23,-253.26 278,-257 303.09,-281.95 294.93,-298.2 314,-328 319.53,-336.64 326.43,-345.63 332.57,-353.14"/>
<polygon fill="midnightblue" stroke="midnightblue" points="330.19,-355.76 339.3,-361.17 335.56,-351.26 330.19,-355.76"/>
</g>
<!-- Node12 -->
<g id="node12" class="node">
<title>Node12</title>
<g id="a_node12"><a xlink:href="regex_8c.html#aabe89a3a22bc0fdc0329cf29ec80ad76" target="_top" xlink:title=" ">
<polygon fill="white" stroke="black" points="758.5,-228.5 758.5,-247.5 820.5,-247.5 820.5,-228.5 758.5,-228.5"/>
<text text-anchor="middle" x="789.5" y="-235.5" font-family="Helvetica,sans-Serif" font-size="10.00">rnode_free</text>
</a>
</g>
</g>
<!-- Node6&#45;&gt;Node12 -->
<g id="edge14" class="edge">
<title>Node6&#45;&gt;Node12</title>
<path fill="none" stroke="midnightblue" d="M266.25,-245.42C307.76,-256.48 391.28,-276 463.5,-276 463.5,-276 463.5,-276 580,-276 639.49,-276 706.99,-260.84 748.66,-249.68"/>
<polygon fill="midnightblue" stroke="midnightblue" points="749.71,-253.02 758.43,-247.01 747.86,-246.27 749.71,-253.02"/>
</g>
<!-- Node13 -->
<g id="node13" class="node">
<title>Node13</title>
<g id="a_node13"><a xlink:href="regex_8c.html#ac19329676c1426f2b24af24e33e3a845" target="_top" xlink:title=" ">
<polygon fill="white" stroke="black" points="314,-228.5 314,-247.5 384,-247.5 384,-228.5 314,-228.5"/>
<text text-anchor="middle" x="349" y="-235.5" font-family="Helvetica,sans-Serif" font-size="10.00">rnode_parse</text>
</a>
</g>
</g>
<!-- Node6&#45;&gt;Node13 -->
<g id="edge15" class="edge">
<title>Node6&#45;&gt;Node13</title>
<path fill="none" stroke="midnightblue" d="M266.14,-238C277.47,-238 291.06,-238 303.87,-238"/>
<polygon fill="midnightblue" stroke="midnightblue" points="303.93,-241.5 313.93,-238 303.93,-234.5 303.93,-241.5"/>
</g>
<!-- Node9&#45;&gt;Node7 -->
<g id="edge9" class="edge">
<title>Node9&#45;&gt;Node7</title>
<path fill="none" stroke="midnightblue" d="M381.7,-368.36C423.73,-364.86 497.71,-358.69 541.86,-355.01"/>
<polygon fill="midnightblue" stroke="midnightblue" points="542.19,-358.5 551.87,-354.18 541.61,-351.52 542.19,-358.5"/>
</g>
<!-- Node10 -->
<g id="node10" class="node">
<title>Node10</title>
<g id="a_node10"><a xlink:href="regex_8c.html#afdf3c7adbb2060b793cf83c5312321c8" target="_top" xlink:title=" ">
<polygon fill="white" stroke="black" points="420,-380.5 420,-399.5 509,-399.5 509,-380.5 420,-380.5"/>
<text text-anchor="middle" x="464.5" y="-387.5" font-family="Helvetica,sans-Serif" font-size="10.00">rnode_emitnorep</text>
</a>
</g>
</g>
<!-- Node9&#45;&gt;Node10 -->
<g id="edge10" class="edge">
<title>Node9&#45;&gt;Node10</title>
<path fill="none" stroke="midnightblue" d="M381.62,-370.17C396.65,-371.88 414.62,-374.86 429.9,-378.15"/>
<polygon fill="midnightblue" stroke="midnightblue" points="429.44,-381.64 439.97,-380.47 431.01,-374.82 429.44,-381.64"/>
</g>
<!-- Node10&#45;&gt;Node7 -->
<g id="edge12" class="edge">
<title>Node10&#45;&gt;Node7</title>
<path fill="none" stroke="midnightblue" d="M493.89,-380.41C508.52,-375.47 526.51,-369.39 542.1,-364.13"/>
<polygon fill="midnightblue" stroke="midnightblue" points="543.58,-367.32 551.93,-360.8 541.34,-360.69 543.58,-367.32"/>
</g>
<!-- Node10&#45;&gt;Node9 -->
<g id="edge13" class="edge">
<title>Node10&#45;&gt;Node9</title>
<path fill="none" stroke="midnightblue" d="M419.83,-389.28C407.76,-387.56 394.87,-385.28 383.48,-382.82"/>
<polygon fill="midnightblue" stroke="midnightblue" points="384.05,-379.36 373.52,-380.53 382.48,-386.18 384.05,-379.36"/>
</g>
<!-- Node11 -->
<g id="node11" class="node">
<title>Node11</title>
<g id="a_node11"><a xlink:href="regex_8c.html#a71b5a38b3a51e761aaa959a89e7cae55" target="_top" xlink:title=" ">
<polygon fill="white" stroke="black" points="545,-380.5 545,-399.5 613,-399.5 613,-380.5 545,-380.5"/>
<text text-anchor="middle" x="579" y="-387.5" font-family="Helvetica,sans-Serif" font-size="10.00">ratom_copy</text>
</a>
</g>
</g>
<!-- Node10&#45;&gt;Node11 -->
<g id="edge11" class="edge">
<title>Node10&#45;&gt;Node11</title>
<path fill="none" stroke="midnightblue" d="M509.32,-390C517.65,-390 526.36,-390 534.67,-390"/>
<polygon fill="midnightblue" stroke="midnightblue" points="534.93,-393.5 544.93,-390 534.93,-386.5 534.93,-393.5"/>
</g>
<!-- Node14 -->
<g id="node14" class="node">
<title>Node14</title>
<g id="a_node14"><a xlink:href="regex_8c.html#a39869d385d8410ffb9d5bf74c778c6ce" target="_top" xlink:title=" ">
<polygon fill="white" stroke="black" points="754.5,-86.5 754.5,-105.5 824.5,-105.5 824.5,-86.5 754.5,-86.5"/>
<text text-anchor="middle" x="789.5" y="-93.5" font-family="Helvetica,sans-Serif" font-size="10.00">rnode_make</text>
</a>
</g>
</g>
<!-- Node13&#45;&gt;Node14 -->
<g id="edge16" class="edge">
<title>Node13&#45;&gt;Node14</title>
<path fill="none" stroke="midnightblue" d="M370.9,-228.48C375.52,-225.81 380.17,-222.63 384,-219 405.75,-198.39 396.37,-180.42 420,-162 516.19,-87 669.39,-86.5 744.32,-91.57"/>
<polygon fill="midnightblue" stroke="midnightblue" points="744.12,-95.06 754.36,-92.31 744.64,-88.08 744.12,-95.06"/>
</g>
<!-- Node15 -->
<g id="node15" class="node">
<title>Node15</title>
<g id="a_node15"><a xlink:href="regex_8c.html#abe0c1f4be43ac6d7caa4f95a560f823f" target="_top" xlink:title=" ">
<polygon fill="white" stroke="black" points="433.5,-171.5 433.5,-190.5 495.5,-190.5 495.5,-171.5 433.5,-171.5"/>
<text text-anchor="middle" x="464.5" y="-178.5" font-family="Helvetica,sans-Serif" font-size="10.00">rnode_seq</text>
</a>
</g>
</g>
<!-- Node13&#45;&gt;Node15 -->
<g id="edge17" class="edge">
<title>Node13&#45;&gt;Node15</title>
<path fill="none" stroke="midnightblue" d="M369,-228.46C387.17,-219.34 414.78,-205.47 435.48,-195.07"/>
<polygon fill="midnightblue" stroke="midnightblue" points="437.08,-198.19 444.44,-190.57 433.93,-191.93 437.08,-198.19"/>
</g>
<!-- Node15&#45;&gt;Node14 -->
<g id="edge29" class="edge">
<title>Node15&#45;&gt;Node14</title>
<path fill="none" stroke="midnightblue" d="M487.35,-171.44C521.28,-156.99 588.99,-129.71 649,-115 680.37,-107.31 716.51,-102.5 744.15,-99.64"/>
<polygon fill="midnightblue" stroke="midnightblue" points="744.69,-103.11 754.3,-98.64 744,-96.14 744.69,-103.11"/>
</g>
<!-- Node16 -->
<g id="node16" class="node">
<title>Node16</title>
<g id="a_node16"><a xlink:href="regex_8c.html#a0df57dc0ee1beb9018cdd537a58571aa" target="_top" xlink:title=" ">
<polygon fill="white" stroke="black" points="545,-171.5 545,-190.5 613,-190.5 613,-171.5 545,-171.5"/>
<text text-anchor="middle" x="579" y="-178.5" font-family="Helvetica,sans-Serif" font-size="10.00">rnode_atom</text>
</a>
</g>
</g>
<!-- Node15&#45;&gt;Node16 -->
<g id="edge18" class="edge">
<title>Node15&#45;&gt;Node16</title>
<path fill="none" stroke="midnightblue" d="M495.65,-181C507.67,-181 521.73,-181 534.79,-181"/>
<polygon fill="midnightblue" stroke="midnightblue" points="535,-184.5 545,-181 535,-177.5 535,-184.5"/>
</g>
<!-- Node16&#45;&gt;Node12 -->
<g id="edge23" class="edge">
<title>Node16&#45;&gt;Node12</title>
<path fill="none" stroke="midnightblue" d="M613.04,-190.03C649.8,-200.08 709.19,-216.32 748.53,-227.07"/>
<polygon fill="midnightblue" stroke="midnightblue" points="747.76,-230.49 758.33,-229.75 749.6,-223.74 747.76,-230.49"/>
</g>
<!-- Node16&#45;&gt;Node14 -->
<g id="edge28" class="edge">
<title>Node16&#45;&gt;Node14</title>
<path fill="none" stroke="midnightblue" d="M595.49,-171.42C609.21,-163.19 629.97,-151.37 649,-143 680.25,-129.26 716.88,-117.06 744.76,-108.54"/>
<polygon fill="midnightblue" stroke="midnightblue" points="746.04,-111.8 754.61,-105.57 744.02,-105.1 746.04,-111.8"/>
</g>
<!-- Node17 -->
<g id="node17" class="node">
<title>Node17</title>
<g id="a_node17"><a xlink:href="regex_8c.html#a8b5ae269a79b320da8e87712e2051d1c" target="_top" xlink:title=" ">
<polygon fill="white" stroke="black" points="649,-152.5 649,-171.5 714,-171.5 714,-152.5 649,-152.5"/>
<text text-anchor="middle" x="681.5" y="-159.5" font-family="Helvetica,sans-Serif" font-size="10.00">ratom_read</text>
</a>
</g>
</g>
<!-- Node16&#45;&gt;Node17 -->
<g id="edge19" class="edge">
<title>Node16&#45;&gt;Node17</title>
<path fill="none" stroke="midnightblue" d="M613.19,-174.73C621.4,-173.17 630.31,-171.49 638.88,-169.87"/>
<polygon fill="midnightblue" stroke="midnightblue" points="639.54,-173.31 648.71,-168.01 638.24,-166.43 639.54,-173.31"/>
</g>
<!-- Node21 -->
<g id="node21" class="node">
<title>Node21</title>
<g id="a_node21"><a xlink:href="regex_8c.html#aaeda19c8b3704252a342cdcc7fc3591c" target="_top" xlink:title=" ">
<polygon fill="white" stroke="black" points="652,-228.5 652,-247.5 711,-247.5 711,-228.5 652,-228.5"/>
<text text-anchor="middle" x="681.5" y="-235.5" font-family="Helvetica,sans-Serif" font-size="10.00">rnode_grp</text>
</a>
</g>
</g>
<!-- Node16&#45;&gt;Node21 -->
<g id="edge24" class="edge">
<title>Node16&#45;&gt;Node21</title>
<path fill="none" stroke="midnightblue" d="M597.05,-190.67C612.88,-199.65 636.67,-213.14 654.81,-223.43"/>
<polygon fill="midnightblue" stroke="midnightblue" points="653.28,-226.58 663.7,-228.47 656.73,-220.5 653.28,-226.58"/>
</g>
<!-- Node18 -->
<g id="node18" class="node">
<title>Node18</title>
<g id="a_node18"><a xlink:href="regex_8c.html#a1904288a4b4c7b7d0666c3d85d438e1a" target="_top" xlink:title=" ">
<polygon fill="white" stroke="black" points="750,-181.5 750,-200.5 829,-200.5 829,-181.5 750,-181.5"/>
<text text-anchor="middle" x="789.5" y="-188.5" font-family="Helvetica,sans-Serif" font-size="10.00">ratom_readbrk</text>
</a>
</g>
</g>
<!-- Node17&#45;&gt;Node18 -->
<g id="edge20" class="edge">
<title>Node17&#45;&gt;Node18</title>
<path fill="none" stroke="midnightblue" d="M714.02,-170.62C723.35,-173.18 733.76,-176.02 743.77,-178.76"/>
<polygon fill="midnightblue" stroke="midnightblue" points="743.01,-182.18 753.58,-181.45 744.86,-175.43 743.01,-182.18"/>
</g>
<!-- Node20 -->
<g id="node20" class="node">
<title>Node20</title>
<g id="a_node20"><a xlink:href="regex_8c.html#a9a0d6d5f93f1eaba8b63b16903c0952d" target="_top" xlink:title=" ">
<polygon fill="white" stroke="black" points="767,-143.5 767,-162.5 812,-162.5 812,-143.5 767,-143.5"/>
<text text-anchor="middle" x="789.5" y="-150.5" font-family="Helvetica,sans-Serif" font-size="10.00">uc_len</text>
</a>
</g>
</g>
<!-- Node17&#45;&gt;Node20 -->
<g id="edge22" class="edge">
<title>Node17&#45;&gt;Node20</title>
<path fill="none" stroke="midnightblue" d="M714.02,-159.32C727.4,-158.19 742.99,-156.86 756.44,-155.72"/>
<polygon fill="midnightblue" stroke="midnightblue" points="757.01,-159.19 766.68,-154.85 756.42,-152.21 757.01,-159.19"/>
</g>
<!-- Node19 -->
<g id="node19" class="node">
<title>Node19</title>
<g id="a_node19"><a xlink:href="regex_8c.html#acc18ff8d2687611a9e221b3329b02413" target="_top" xlink:title=" ">
<polygon fill="white" stroke="black" points="865,-181.5 865,-200.5 913,-200.5 913,-181.5 865,-181.5"/>
<text text-anchor="middle" x="889" y="-188.5" font-family="Helvetica,sans-Serif" font-size="10.00">brk_len</text>
</a>
</g>
</g>
<!-- Node18&#45;&gt;Node19 -->
<g id="edge21" class="edge">
<title>Node18&#45;&gt;Node19</title>
<path fill="none" stroke="midnightblue" d="M829.03,-191C837.57,-191 846.54,-191 854.84,-191"/>
<polygon fill="midnightblue" stroke="midnightblue" points="854.9,-194.5 864.9,-191 854.9,-187.5 854.9,-194.5"/>
</g>
<!-- Node21&#45;&gt;Node12 -->
<g id="edge25" class="edge">
<title>Node21&#45;&gt;Node12</title>
<path fill="none" stroke="midnightblue" d="M711.19,-238C722.59,-238 735.9,-238 748.24,-238"/>
<polygon fill="midnightblue" stroke="midnightblue" points="748.31,-241.5 758.31,-238 748.31,-234.5 748.31,-241.5"/>
</g>
<!-- Node21&#45;&gt;Node13 -->
<g id="edge27" class="edge">
<title>Node21&#45;&gt;Node13</title>
<path fill="none" stroke="midnightblue" d="M651.81,-238C593.98,-238 463.07,-238 394.22,-238"/>
<polygon fill="midnightblue" stroke="midnightblue" points="394.12,-234.5 384.12,-238 394.12,-241.5 394.12,-234.5"/>
</g>
<!-- Node21&#45;&gt;Node14 -->
<g id="edge26" class="edge">
<title>Node21&#45;&gt;Node14</title>
<path fill="none" stroke="midnightblue" d="M687.82,-228.35C698.46,-209.4 723.62,-166.37 750,-134 756.06,-126.57 763.4,-119.02 770.05,-112.64"/>
<polygon fill="midnightblue" stroke="midnightblue" points="772.5,-115.13 777.41,-105.75 767.72,-110.02 772.5,-115.13"/>
</g>
<!-- Node23 -->
<g id="node23" class="node">
<title>Node23</title>
<g id="a_node23"><a xlink:href="sbuf_8c.html#a4ad75f3948c0340c342a3ea3eb63a6e6" target="_top" xlink:title=" ">
<polygon fill="white" stroke="black" points="429.5,-0.5 429.5,-19.5 499.5,-19.5 499.5,-0.5 429.5,-0.5"/>
<text text-anchor="middle" x="464.5" y="-7.5" font-family="Helvetica,sans-Serif" font-size="10.00">sbuf_extend</text>
</a>
</g>
</g>
<!-- Node22&#45;&gt;Node23 -->
<g id="edge31" class="edge">
<title>Node22&#45;&gt;Node23</title>
<path fill="none" stroke="midnightblue" d="M376.04,-10C388.78,-10 404.49,-10 419.05,-10"/>
<polygon fill="midnightblue" stroke="midnightblue" points="419.4,-13.5 429.4,-10 419.4,-6.5 419.4,-13.5"/>
</g>
<!-- Node24&#45;&gt;Node23 -->
<g id="edge33" class="edge">
<title>Node24&#45;&gt;Node23</title>
<path fill="none" stroke="midnightblue" d="M360,-133.28C367.22,-125.93 376.91,-115.38 384,-105 403.96,-75.79 395.42,-59.45 420,-34 423.26,-30.63 427.09,-27.61 431.11,-24.94"/>
<polygon fill="midnightblue" stroke="midnightblue" points="433.22,-27.76 440.05,-19.66 429.66,-21.73 433.22,-27.76"/>
</g>
<!-- Node29 -->
<g id="node29" class="node">
<title>Node29</title>
<g id="a_node29"><a xlink:href="sbuf_8c.html#aa511ac77d6b486accc01c0512ef27ed2" target="_top" xlink:title=" ">
<polygon fill="white" stroke="black" points="318,-76.5 318,-95.5 380,-95.5 380,-76.5 318,-76.5"/>
<text text-anchor="middle" x="349" y="-83.5" font-family="Helvetica,sans-Serif" font-size="10.00">sbuf_mem</text>
</a>
</g>
</g>
<!-- Node28&#45;&gt;Node29 -->
<g id="edge38" class="edge">
<title>Node28&#45;&gt;Node29</title>
<path fill="none" stroke="midnightblue" d="M261.36,-152.35C266.92,-149.56 272.8,-146.36 278,-143 296.75,-130.89 316.31,-114.61 329.97,-102.55"/>
<polygon fill="midnightblue" stroke="midnightblue" points="332.54,-104.94 337.65,-95.66 327.87,-99.73 332.54,-104.94"/>
</g>
<!-- Node29&#45;&gt;Node23 -->
<g id="edge39" class="edge">
<title>Node29&#45;&gt;Node23</title>
<path fill="none" stroke="midnightblue" d="M362.03,-76.28C375.71,-65.42 398.86,-47.59 420,-34 425.11,-30.71 430.71,-27.42 436.13,-24.36"/>
<polygon fill="midnightblue" stroke="midnightblue" points="437.9,-27.39 444.98,-19.51 434.53,-21.25 437.9,-27.39"/>
</g>
</g>
</svg>
        <g id="navigator" transform="translate(0 0)" fill="#404254">
                <rect fill="#f2f5e9" fill-opacity="0.5" stroke="#606060" stroke-width=".5" x="0" y="0" width="60" height="60"/>
                <use id="zoomplus" xlink:href="#zoomPlus" x="17" y="9" onmousedown="handleZoom(evt,'in')"/>
                <use id="zoomminus" xlink:href="#zoomMin" x="42" y="9" onmousedown="handleZoom(evt,'out')"/>
                <use id="reset" xlink:href="#resetDef" x="30" y="36" onmousedown="handleReset()"/>
                <g id="arrowUp" xlink:href="#dirArrow" transform="translate(30 24)" onmousedown="handlePan(0,-1)">
                  <use xlink:href="#rim" fill="#404040">
                        <set attributeName="fill" to="#808080" begin="arrowUp.mouseover" end="arrowUp.mouseout"/>
                  </use>
                  <path fill="none" stroke="white" stroke-width="1.5" d="M0,-3.0v7 M-2.5,-0.5L0,-3.0L2.5,-0.5"/>
                </g>
                <g id="arrowRight" xlink:href="#dirArrow" transform="rotate(90) translate(36 -43)" onmousedown="handlePan(1,0)">
                  <use xlink:href="#rim" fill="#404040">
                        <set attributeName="fill" to="#808080" begin="arrowRight.mouseover" end="arrowRight.mouseout"/>
                  </use>
                  <path fill="none" stroke="white" stroke-width="1.5" d="M0,-3.0v7 M-2.5,-0.5L0,-3.0L2.5,-0.5"/>
                </g>
                <g id="arrowDown" xlink:href="#dirArrow" transform="rotate(180) translate(-30 -48)" onmousedown="handlePan(0,1)">
                  <use xlink:href="#rim" fill="#404040">
                        <set attributeName="fill" to="#808080" begin="arrowDown.mouseover" end="arrowDown.mouseout"/>
                  </use>
                  <path fill="none" stroke="white" stroke-width="1.5" d="M0,-3.0v7 M-2.5,-0.5L0,-3.0L2.5,-0.5"/>
                </g>
                <g id="arrowLeft" xlink:href="#dirArrow" transform="rotate(270) translate(-36 17)" onmousedown="handlePan(-1,0)">
                  <use xlink:href="#rim" fill="#404040">
                        <set attributeName="fill" to="#808080" begin="arrowLeft.mouseover" end="arrowLeft.mouseout"/>
                  </use>
                  <path fill="none" stroke="white" stroke-width="1.5" d="M0,-3.0v7 M-2.5,-0.5L0,-3.0L2.5,-0.5"/>
                </g>
        </g>
        <svg viewBox="0 0 15 15" width="100%" height="30px" preserveAspectRatio="xMaxYMin meet">
         <g id="arrow_out" transform="scale(0.3 0.3)">
          <a xlink:href="dir_8c_a81435de4d45a78c51fd3f02c4326064f_cgraph_org.svg" target="_base">
           <rect id="button" ry="5" rx="5" y="6" x="6" height="38" width="38"
                fill="#f2f5e9" fill-opacity="0.5" stroke="#606060" stroke-width="1.0"/>
           <path id="arrow"
             d="M 11.500037,31.436501 C 11.940474,20.09759 22.043105,11.32322 32.158766,21.979434 L 37.068811,17.246167 C 37.068811,17.246167 37.088388,32 37.088388,32 L 22.160133,31.978069 C 22.160133,31.978069 26.997745,27.140456 26.997745,27.140456 C 18.528582,18.264221 13.291696,25.230495 11.500037,31.436501 z"
             style="fill:#404040;"/>
          </a>
         </g>
        </svg>
</svg>
