<?xml version="1.0" encoding="UTF-8" standalone="no"?>
<!DOCTYPE svg PUBLIC "-//W3C//DTD SVG 1.1//EN"
 "http://www.w3.org/Graphics/SVG/1.1/DTD/svg11.dtd">
<!-- Generated by graphviz version 2.44.1 (20200629.0846)
 -->
<!-- Title: ec_undo Pages: 1 -->
<svg width="470pt" height="146pt"
 viewBox="0.00 0.00 470.00 145.74" xmlns="http://www.w3.org/2000/svg" xmlns:xlink="http://www.w3.org/1999/xlink">
<g id="graph0" class="graph" transform="scale(1 1) rotate(0) translate(4 141.74)">
<title>ec_undo</title>
<polygon fill="white" stroke="transparent" points="-4,4 -4,-141.74 466,-141.74 466,4 -4,4"/>
<!-- Node1 -->
<g id="node1" class="node">
<title>Node1</title>
<g id="a_node1"><a xlink:title=" ">
<polygon fill="#bfbfbf" stroke="black" points="0,-99.24 0,-118.24 53,-118.24 53,-99.24 0,-99.24"/>
<text text-anchor="middle" x="26.5" y="-106.24" font-family="Helvetica,sans-Serif" font-size="10.00">ec_undo</text>
</a>
</g>
</g>
<!-- Node2 -->
<g id="node2" class="node">
<title>Node2</title>
<g id="a_node2"><a xlink:href="ex_8c.html#ac145246ab670db9e68f4f8e82f461252" target="_top" xlink:title=" ">
<polygon fill="white" stroke="black" points="94.5,-118.24 94.5,-137.24 142.5,-137.24 142.5,-118.24 94.5,-118.24"/>
<text text-anchor="middle" x="118.5" y="-125.24" font-family="Helvetica,sans-Serif" font-size="10.00">ex_lbuf</text>
</a>
</g>
</g>
<!-- Node1&#45;&gt;Node2 -->
<g id="edge1" class="edge">
<title>Node1&#45;&gt;Node2</title>
<path fill="none" stroke="midnightblue" d="M53.05,-114.13C62.79,-116.19 74.04,-118.57 84.39,-120.75"/>
<polygon fill="midnightblue" stroke="midnightblue" points="83.84,-124.21 94.35,-122.85 85.29,-117.36 83.84,-124.21"/>
</g>
<!-- Node3 -->
<g id="node3" class="node">
<title>Node3</title>
<g id="a_node3"><a xlink:href="lbuf_8c.html#a312f4a04bfca54ea63c2082e4fe81cba" target="_top" xlink:title=" ">
<polygon fill="white" stroke="black" points="89,-80.24 89,-99.24 148,-99.24 148,-80.24 89,-80.24"/>
<text text-anchor="middle" x="118.5" y="-87.24" font-family="Helvetica,sans-Serif" font-size="10.00">lbuf_undo</text>
</a>
</g>
</g>
<!-- Node1&#45;&gt;Node3 -->
<g id="edge2" class="edge">
<title>Node1&#45;&gt;Node3</title>
<path fill="none" stroke="midnightblue" d="M53.05,-103.35C61.04,-101.66 70.05,-99.76 78.74,-97.92"/>
<polygon fill="midnightblue" stroke="midnightblue" points="79.66,-101.31 88.72,-95.82 78.21,-94.46 79.66,-101.31"/>
</g>
<!-- Node4 -->
<g id="node4" class="node">
<title>Node4</title>
<g id="a_node4"><a xlink:href="lbuf_8c.html#abdc4cc1ce1eb1d8a88b046be72dd2a11" target="_top" xlink:title=" ">
<polygon fill="white" stroke="black" points="184,-118.24 184,-137.24 261,-137.24 261,-118.24 184,-118.24"/>
<text text-anchor="middle" x="222.5" y="-125.24" font-family="Helvetica,sans-Serif" font-size="10.00">lbuf_loadmark</text>
</a>
</g>
</g>
<!-- Node3&#45;&gt;Node4 -->
<g id="edge3" class="edge">
<title>Node3&#45;&gt;Node4</title>
<path fill="none" stroke="midnightblue" d="M145.24,-99.33C157.68,-103.96 172.81,-109.6 186.3,-114.63"/>
<polygon fill="midnightblue" stroke="midnightblue" points="185.18,-117.94 195.77,-118.15 187.62,-111.38 185.18,-117.94"/>
</g>
<!-- Node5 -->
<g id="node5" class="node">
<title>Node5</title>
<g id="a_node5"><a xlink:href="lbuf_8c.html#ab80e32f732eac6af01c013ad5f802561" target="_top" xlink:title=" ">
<polygon fill="white" stroke="black" points="297,-90.24 297,-109.24 368,-109.24 368,-90.24 297,-90.24"/>
<text text-anchor="middle" x="332.5" y="-97.24" font-family="Helvetica,sans-Serif" font-size="10.00">lbuf_loadpos</text>
</a>
</g>
</g>
<!-- Node3&#45;&gt;Node5 -->
<g id="edge4" class="edge">
<title>Node3&#45;&gt;Node5</title>
<path fill="none" stroke="midnightblue" d="M148.09,-91.09C183.62,-92.76 244.66,-95.64 286.49,-97.62"/>
<polygon fill="midnightblue" stroke="midnightblue" points="286.53,-101.12 296.69,-98.1 286.86,-94.13 286.53,-101.12"/>
</g>
<!-- Node7 -->
<g id="node7" class="node">
<title>Node7</title>
<g id="a_node7"><a xlink:href="lbuf_8c.html#a7d6629efef5a5cbd324d82e2b0c07c5d" target="_top" xlink:title=" ">
<polygon fill="white" stroke="black" points="188,-33.24 188,-52.24 257,-52.24 257,-33.24 188,-33.24"/>
<text text-anchor="middle" x="222.5" y="-40.24" font-family="Helvetica,sans-Serif" font-size="10.00">lbuf_replace</text>
</a>
</g>
</g>
<!-- Node3&#45;&gt;Node7 -->
<g id="edge6" class="edge">
<title>Node3&#45;&gt;Node7</title>
<path fill="none" stroke="midnightblue" d="M140.14,-80.23C154.84,-73.46 174.82,-64.25 191.3,-56.65"/>
<polygon fill="midnightblue" stroke="midnightblue" points="192.92,-59.76 200.54,-52.4 189.99,-53.4 192.92,-59.76"/>
</g>
<!-- Node6 -->
<g id="node6" class="node">
<title>Node6</title>
<g id="a_node6"><a xlink:href="lbuf_8c.html#a69221917b521da2cd5f804a9f4694f1a" target="_top" xlink:title=" ">
<polygon fill="white" stroke="black" points="407.5,-61.24 407.5,-80.24 458.5,-80.24 458.5,-61.24 407.5,-61.24"/>
<text text-anchor="middle" x="433" y="-68.24" font-family="Helvetica,sans-Serif" font-size="10.00">markidx</text>
</a>
</g>
</g>
<!-- Node5&#45;&gt;Node6 -->
<g id="edge5" class="edge">
<title>Node5&#45;&gt;Node6</title>
<path fill="none" stroke="midnightblue" d="M366.03,-90.16C376.11,-87.19 387.26,-83.91 397.48,-80.9"/>
<polygon fill="midnightblue" stroke="midnightblue" points="398.71,-84.19 407.31,-78.01 396.73,-77.48 398.71,-84.19"/>
</g>
<!-- Node8 -->
<g id="node8" class="node">
<title>Node8</title>
<g id="a_node8"><a xlink:href="lbuf_8c.html#a5a34f3f60dfd5ea06207d96d821da368" target="_top" xlink:title=" ">
<polygon fill="white" stroke="black" points="303,-52.24 303,-71.24 362,-71.24 362,-52.24 303,-52.24"/>
<text text-anchor="middle" x="332.5" y="-59.24" font-family="Helvetica,sans-Serif" font-size="10.00">lbuf_mark</text>
</a>
</g>
</g>
<!-- Node7&#45;&gt;Node8 -->
<g id="edge7" class="edge">
<title>Node7&#45;&gt;Node8</title>
<path fill="none" stroke="midnightblue" d="M257.08,-48.65C268.38,-50.64 281.08,-52.87 292.75,-54.92"/>
<polygon fill="midnightblue" stroke="midnightblue" points="292.22,-58.38 302.68,-56.67 293.44,-51.49 292.22,-58.38"/>
</g>
<!-- Node9 -->
<g id="node9" class="node">
<title>Node9</title>
<g id="a_node9"><a xlink:href="lbuf_8c.html#ab41193f3312b21588338e92e1b144f87" target="_top" xlink:title=" ">
<polygon fill="white" stroke="black" points="304.5,-14.24 304.5,-33.24 360.5,-33.24 360.5,-14.24 304.5,-14.24"/>
<text text-anchor="middle" x="332.5" y="-21.24" font-family="Helvetica,sans-Serif" font-size="10.00">linecount</text>
</a>
</g>
</g>
<!-- Node7&#45;&gt;Node9 -->
<g id="edge9" class="edge">
<title>Node7&#45;&gt;Node9</title>
<path fill="none" stroke="midnightblue" d="M257.08,-36.83C268.98,-34.74 282.43,-32.37 294.59,-30.23"/>
<polygon fill="midnightblue" stroke="midnightblue" points="295.2,-33.68 304.45,-28.5 293.99,-26.79 295.2,-33.68"/>
</g>
<!-- Node10 -->
<g id="node10" class="node">
<title>Node10</title>
<g id="a_node10"><a xlink:href="lbuf_8c.html#ac559857979b20ce0c64638c9e3e4edec" target="_top" xlink:title=" ">
<polygon fill="white" stroke="black" points="404,-4.24 404,-23.24 462,-23.24 462,-4.24 404,-4.24"/>
<text text-anchor="middle" x="433" y="-11.24" font-family="Helvetica,sans-Serif" font-size="10.00">linelength</text>
</a>
</g>
</g>
<!-- Node7&#45;&gt;Node10 -->
<g id="edge11" class="edge">
<title>Node7&#45;&gt;Node10</title>
<path fill="none" stroke="midnightblue" d="M237.07,-33.18C251.25,-23.83 274.53,-10.21 297,-4.74 329.08,3.06 366.62,-0.42 393.97,-5.14"/>
<polygon fill="midnightblue" stroke="midnightblue" points="393.44,-8.6 403.91,-6.99 394.72,-1.72 393.44,-8.6"/>
</g>
<!-- Node8&#45;&gt;Node6 -->
<g id="edge8" class="edge">
<title>Node8&#45;&gt;Node6</title>
<path fill="none" stroke="midnightblue" d="M362.26,-64.37C373.21,-65.37 385.81,-66.52 397.27,-67.57"/>
<polygon fill="midnightblue" stroke="midnightblue" points="397.1,-71.07 407.38,-68.49 397.74,-64.09 397.1,-71.07"/>
</g>
<!-- Node9&#45;&gt;Node10 -->
<g id="edge10" class="edge">
<title>Node9&#45;&gt;Node10</title>
<path fill="none" stroke="midnightblue" d="M360.68,-20.98C370.86,-19.95 382.63,-18.75 393.64,-17.63"/>
<polygon fill="midnightblue" stroke="midnightblue" points="394.29,-21.09 403.88,-16.59 393.58,-14.12 394.29,-21.09"/>
</g>
</g>
</svg>
