<?xml version="1.0" encoding="UTF-8" standalone="no"?>
<!DOCTYPE svg PUBLIC "-//W3C//DTD SVG 1.1//EN"
 "http://www.w3.org/Graphics/SVG/1.1/DTD/svg11.dtd">
<!-- Generated by graphviz version 2.44.1 (20200629.0846)
 -->
<!-- Title: ec_write_archive Pages: 1 -->
<svg width="353pt" height="142pt"
 viewBox="0.00 0.00 353.00 142.00" xmlns="http://www.w3.org/2000/svg" xmlns:xlink="http://www.w3.org/1999/xlink">
<g id="graph0" class="graph" transform="scale(1 1) rotate(0) translate(4 138)">
<title>ec_write_archive</title>
<polygon fill="white" stroke="transparent" points="-4,4 -4,-138 349,-138 349,4 -4,4"/>
<!-- Node1 -->
<g id="node1" class="node">
<title>Node1</title>
<g id="a_node1"><a xlink:title=" ">
<polygon fill="#bfbfbf" stroke="black" points="0,-57.5 0,-76.5 90,-76.5 90,-57.5 0,-57.5"/>
<text text-anchor="middle" x="45" y="-64.5" font-family="Helvetica,sans-Serif" font-size="10.00">ec_write_archive</text>
</a>
</g>
</g>
<!-- Node2 -->
<g id="node2" class="node">
<title>Node2</title>
<g id="a_node2"><a xlink:href="ex_8c.html#a2b06ebeff542dc0173dd4735f1f7fecf" target="_top" xlink:title=" ">
<polygon fill="white" stroke="black" points="128.5,-114.5 128.5,-133.5 174.5,-133.5 174.5,-114.5 128.5,-114.5"/>
<text text-anchor="middle" x="151.5" y="-121.5" font-family="Helvetica,sans-Serif" font-size="10.00">ex_arg</text>
</a>
</g>
</g>
<!-- Node1&#45;&gt;Node2 -->
<g id="edge1" class="edge">
<title>Node1&#45;&gt;Node2</title>
<path fill="none" stroke="midnightblue" d="M63.73,-76.67C80.27,-85.69 105.16,-99.27 124.04,-109.57"/>
<polygon fill="midnightblue" stroke="midnightblue" points="122.58,-112.76 133.03,-114.47 125.93,-106.61 122.58,-112.76"/>
</g>
<!-- Node3 -->
<g id="node3" class="node">
<title>Node3</title>
<g id="a_node3"><a xlink:href="ex_8c.html#ac81e7e5f5a7172bb68069a443e15d8c1" target="_top" xlink:title=" ">
<polygon fill="white" stroke="black" points="213,-95.5 213,-114.5 264,-114.5 264,-95.5 213,-95.5"/>
<text text-anchor="middle" x="238.5" y="-102.5" font-family="Helvetica,sans-Serif" font-size="10.00">ex_cmd</text>
</a>
</g>
</g>
<!-- Node1&#45;&gt;Node3 -->
<g id="edge4" class="edge">
<title>Node1&#45;&gt;Node3</title>
<path fill="none" stroke="midnightblue" d="M90.42,-75.81C124.66,-82.61 171.35,-91.87 202.86,-98.13"/>
<polygon fill="midnightblue" stroke="midnightblue" points="202.44,-101.61 212.93,-100.12 203.8,-94.74 202.44,-101.61"/>
</g>
<!-- Node5 -->
<g id="node5" class="node">
<title>Node5</title>
<g id="a_node5"><a xlink:href="ex_8c.html#a4b34b803f07935eef6f7f842a276c09d" target="_top" xlink:title=" ">
<polygon fill="white" stroke="black" points="126,-38.5 126,-57.5 177,-57.5 177,-38.5 126,-38.5"/>
<text text-anchor="middle" x="151.5" y="-45.5" font-family="Helvetica,sans-Serif" font-size="10.00">ex_path</text>
</a>
</g>
</g>
<!-- Node1&#45;&gt;Node5 -->
<g id="edge5" class="edge">
<title>Node1&#45;&gt;Node5</title>
<path fill="none" stroke="midnightblue" d="M90.01,-59C98.64,-57.43 107.58,-55.8 115.85,-54.3"/>
<polygon fill="midnightblue" stroke="midnightblue" points="116.68,-57.71 125.89,-52.47 115.43,-50.82 116.68,-57.71"/>
</g>
<!-- Node6 -->
<g id="node6" class="node">
<title>Node6</title>
<g id="a_node6"><a xlink:href="lbuf_8c.html#ad0f45475ddc6eb82ecedf63ed1b914d4" target="_top" xlink:title=" ">
<polygon fill="white" stroke="black" points="126,-0.5 126,-19.5 177,-19.5 177,-0.5 126,-0.5"/>
<text text-anchor="middle" x="151.5" y="-7.5" font-family="Helvetica,sans-Serif" font-size="10.00">lbuf_get</text>
</a>
</g>
</g>
<!-- Node1&#45;&gt;Node6 -->
<g id="edge6" class="edge">
<title>Node1&#45;&gt;Node6</title>
<path fill="none" stroke="midnightblue" d="M63.73,-57.33C80.27,-48.31 105.16,-34.73 124.04,-24.43"/>
<polygon fill="midnightblue" stroke="midnightblue" points="125.93,-27.39 133.03,-19.53 122.58,-21.24 125.93,-27.39"/>
</g>
<!-- Node2&#45;&gt;Node3 -->
<g id="edge2" class="edge">
<title>Node2&#45;&gt;Node3</title>
<path fill="none" stroke="midnightblue" d="M174.83,-119.01C183.43,-117.09 193.46,-114.84 202.94,-112.72"/>
<polygon fill="midnightblue" stroke="midnightblue" points="203.93,-116.09 212.93,-110.49 202.4,-109.26 203.93,-116.09"/>
</g>
<!-- Node4 -->
<g id="node4" class="node">
<title>Node4</title>
<g id="a_node4"><a xlink:href="ex_8c.html#a08b9908970de656c77ff16330b753c55" target="_top" xlink:title=" ">
<polygon fill="white" stroke="black" points="300,-95.5 300,-114.5 345,-114.5 345,-95.5 300,-95.5"/>
<text text-anchor="middle" x="322.5" y="-102.5" font-family="Helvetica,sans-Serif" font-size="10.00">ex_loc</text>
</a>
</g>
</g>
<!-- Node3&#45;&gt;Node4 -->
<g id="edge3" class="edge">
<title>Node3&#45;&gt;Node4</title>
<path fill="none" stroke="midnightblue" d="M264.1,-105C272.22,-105 281.36,-105 289.92,-105"/>
<polygon fill="midnightblue" stroke="midnightblue" points="289.97,-108.5 299.97,-105 289.97,-101.5 289.97,-108.5"/>
</g>
</g>
</svg>
