<?xml version="1.0" encoding="UTF-8" standalone="no"?>
<!DOCTYPE svg PUBLIC "-//W3C//DTD SVG 1.1//EN"
 "http://www.w3.org/Graphics/SVG/1.1/DTD/svg11.dtd">
<!-- Generated by graphviz version 2.44.1 (20200629.0846)
 -->
<!-- Title: led_read Pages: 1 -->
<svg width="378pt" height="142pt"
 viewBox="0.00 0.00 378.00 142.00" xmlns="http://www.w3.org/2000/svg" xmlns:xlink="http://www.w3.org/1999/xlink">
<g id="graph0" class="graph" transform="scale(1 1) rotate(0) translate(4 138)">
<title>led_read</title>
<polygon fill="white" stroke="transparent" points="-4,4 -4,-138 374,-138 374,4 -4,4"/>
<!-- Node1 -->
<g id="node1" class="node">
<title>Node1</title>
<g id="a_node1"><a xlink:title=" ">
<polygon fill="#bfbfbf" stroke="black" points="0,-19.5 0,-38.5 53,-38.5 53,-19.5 0,-19.5"/>
<text text-anchor="middle" x="26.5" y="-26.5" font-family="Helvetica,sans-Serif" font-size="10.00">led_read</text>
</a>
</g>
</g>
<!-- Node2 -->
<g id="node2" class="node">
<title>Node2</title>
<g id="a_node2"><a xlink:href="led_8c.html#a8bbdff3c2783b27081d76136774c5dbf" target="_top" xlink:title=" ">
<polygon fill="white" stroke="black" points="89,-38.5 89,-57.5 161,-57.5 161,-38.5 89,-38.5"/>
<text text-anchor="middle" x="125" y="-45.5" font-family="Helvetica,sans-Serif" font-size="10.00">led_readchar</text>
</a>
</g>
</g>
<!-- Node1&#45;&gt;Node2 -->
<g id="edge1" class="edge">
<title>Node1&#45;&gt;Node2</title>
<path fill="none" stroke="midnightblue" d="M53.11,-34.04C61.06,-35.61 70.07,-37.38 78.94,-39.13"/>
<polygon fill="midnightblue" stroke="midnightblue" points="78.34,-42.58 88.83,-41.07 79.69,-35.71 78.34,-42.58"/>
</g>
<!-- Node6 -->
<g id="node6" class="node">
<title>Node6</title>
<g id="a_node6"><a xlink:href="term_8c.html#ab37222c9b84980b0492b34d0a4e32f12" target="_top" xlink:title=" ">
<polygon fill="white" stroke="black" points="203,-0.5 203,-19.5 263,-19.5 263,-0.5 203,-0.5"/>
<text text-anchor="middle" x="233" y="-7.5" font-family="Helvetica,sans-Serif" font-size="10.00">term_read</text>
</a>
</g>
</g>
<!-- Node1&#45;&gt;Node6 -->
<g id="edge7" class="edge">
<title>Node1&#45;&gt;Node6</title>
<path fill="none" stroke="midnightblue" d="M53.4,-26.59C88.5,-23.33 151.48,-17.48 192.5,-13.67"/>
<polygon fill="midnightblue" stroke="midnightblue" points="193.05,-17.13 202.68,-12.72 192.4,-10.16 193.05,-17.13"/>
</g>
<!-- Node3 -->
<g id="node3" class="node">
<title>Node3</title>
<g id="a_node3"><a xlink:href="conf_8c.html#acbeed8b0b62960a541af67e17d6c7131" target="_top" xlink:title=" ">
<polygon fill="white" stroke="black" points="197,-114.5 197,-133.5 269,-133.5 269,-114.5 197,-114.5"/>
<text text-anchor="middle" x="233" y="-121.5" font-family="Helvetica,sans-Serif" font-size="10.00">conf_digraph</text>
</a>
</g>
</g>
<!-- Node2&#45;&gt;Node3 -->
<g id="edge2" class="edge">
<title>Node2&#45;&gt;Node3</title>
<path fill="none" stroke="midnightblue" d="M136.6,-57.52C150.09,-69.39 174.36,-89.94 197,-105 199.17,-106.44 201.45,-107.87 203.77,-109.26"/>
<polygon fill="midnightblue" stroke="midnightblue" points="202.32,-112.46 212.75,-114.35 205.78,-106.37 202.32,-112.46"/>
</g>
<!-- Node4 -->
<g id="node4" class="node">
<title>Node4</title>
<g id="a_node4"><a xlink:href="led_8c.html#a1b9303e418de8d39a47db9256cfd9765" target="_top" xlink:title=" ">
<polygon fill="white" stroke="black" points="200.5,-76.5 200.5,-95.5 265.5,-95.5 265.5,-76.5 200.5,-76.5"/>
<text text-anchor="middle" x="233" y="-83.5" font-family="Helvetica,sans-Serif" font-size="10.00">kmap_map</text>
</a>
</g>
</g>
<!-- Node2&#45;&gt;Node4 -->
<g id="edge3" class="edge">
<title>Node2&#45;&gt;Node4</title>
<path fill="none" stroke="midnightblue" d="M152.75,-57.59C165.8,-62.27 181.7,-67.97 195.82,-73.03"/>
<polygon fill="midnightblue" stroke="midnightblue" points="194.67,-76.33 205.26,-76.41 197.03,-69.74 194.67,-76.33"/>
</g>
<!-- Node2&#45;&gt;Node6 -->
<g id="edge5" class="edge">
<title>Node2&#45;&gt;Node6</title>
<path fill="none" stroke="midnightblue" d="M152.75,-38.41C165.8,-33.73 181.7,-28.03 195.82,-22.97"/>
<polygon fill="midnightblue" stroke="midnightblue" points="197.03,-26.26 205.26,-19.59 194.67,-19.67 197.03,-26.26"/>
</g>
<!-- Node7 -->
<g id="node7" class="node">
<title>Node7</title>
<g id="a_node7"><a xlink:href="regex_8c.html#a9a0d6d5f93f1eaba8b63b16903c0952d" target="_top" xlink:title=" ">
<polygon fill="white" stroke="black" points="210.5,-38.5 210.5,-57.5 255.5,-57.5 255.5,-38.5 210.5,-38.5"/>
<text text-anchor="middle" x="233" y="-45.5" font-family="Helvetica,sans-Serif" font-size="10.00">uc_len</text>
</a>
</g>
</g>
<!-- Node2&#45;&gt;Node7 -->
<g id="edge6" class="edge">
<title>Node2&#45;&gt;Node7</title>
<path fill="none" stroke="midnightblue" d="M161,-48C173.6,-48 187.73,-48 200.05,-48"/>
<polygon fill="midnightblue" stroke="midnightblue" points="200.32,-51.5 210.32,-48 200.32,-44.5 200.32,-51.5"/>
</g>
<!-- Node5 -->
<g id="node5" class="node">
<title>Node5</title>
<g id="a_node5"><a xlink:href="conf_8c.html#a701ceb92f75bae1a0d9d805796eb2f84" target="_top" xlink:title=" ">
<polygon fill="white" stroke="black" points="305,-76.5 305,-95.5 370,-95.5 370,-76.5 305,-76.5"/>
<text text-anchor="middle" x="337.5" y="-83.5" font-family="Helvetica,sans-Serif" font-size="10.00">conf_kmap</text>
</a>
</g>
</g>
<!-- Node4&#45;&gt;Node5 -->
<g id="edge4" class="edge">
<title>Node4&#45;&gt;Node5</title>
<path fill="none" stroke="midnightblue" d="M265.59,-86C274.75,-86 284.89,-86 294.58,-86"/>
<polygon fill="midnightblue" stroke="midnightblue" points="294.84,-89.5 304.84,-86 294.84,-82.5 294.84,-89.5"/>
</g>
</g>
</svg>
