<?xml version="1.0" encoding="UTF-8" standalone="no"?>
<!DOCTYPE svg PUBLIC "-//W3C//DTD SVG 1.1//EN"
 "http://www.w3.org/Graphics/SVG/1.1/DTD/svg11.dtd">
<!-- Generated by graphviz version 2.44.1 (20200629.0846)
 -->
<!-- Title: led_print Pages: 1 -->
<!--zoomable 788 -->
<svg id="main" version="1.1" xmlns="http://www.w3.org/2000/svg" xmlns:xlink="http://www.w3.org/1999/xlink" xml:space="preserve" onload="init(evt)">
<style type="text/css"><![CDATA[
.edge:hover path { stroke: red; }
.edge:hover polygon { stroke: red; fill: red; }
]]></style>
<script type="text/javascript"><![CDATA[
var edges = document.getElementsByTagName('g');
if (edges && edges.length) {
  for (var i=0;i<edges.length;i++) {
    if (edges[i].id.substr(0,4)=='edge') {
      edges[i].setAttribute('class','edge');
    }
  }
}
]]></script>
        <defs>
                <circle id="rim" cx="0" cy="0" r="7"/>
                <circle id="rim2" cx="0" cy="0" r="3.5"/>
                <g id="zoomPlus">
                        <use xlink:href="#rim" fill="#404040">
                                <set attributeName="fill" to="#808080" begin="zoomplus.mouseover" end="zoomplus.mouseout"/>
                        </use>
                        <path d="M-4,0h8M0,-4v8" fill="none" stroke="white" stroke-width="1.5" pointer-events="none"/>
                </g>
                <g id="zoomMin">
                        <use xlink:href="#rim" fill="#404040">
                                <set attributeName="fill" to="#808080" begin="zoomminus.mouseover" end="zoomminus.mouseout"/>
                        </use>
                        <path d="M-4,0h8" fill="none" stroke="white" stroke-width="1.5" pointer-events="none"/>
                </g>
                <g id="dirArrow">
                        <path fill="none" stroke="white" stroke-width="1.5" d="M0,-3.0v7 M-2.5,-0.5L0,-3.0L2.5,-0.5"/>
                </g>
               <g id="resetDef">
                       <use xlink:href="#rim2" fill="#404040">
                               <set attributeName="fill" to="#808080" begin="reset.mouseover" end="reset.mouseout"/>
                       </use>
               </g>
        </defs>

<script type="text/javascript">
var viewWidth = 1049;
var viewHeight = 788;
var sectionId = 'dynsection-13';
</script>
<script xlink:href="svgpan.js"/>
<svg id="graph" class="graph">
<g id="viewport">
<title>led_print</title>
<polygon fill="white" stroke="transparent" points="-4,4 -4,-784 1045,-784 1045,4 -4,4"/>
<!-- Node1 -->
<g id="node1" class="node">
<title>Node1</title>
<g id="a_node1"><a xlink:title=" ">
<polygon fill="#bfbfbf" stroke="black" points="988,-351.5 988,-370.5 1041,-370.5 1041,-351.5 988,-351.5"/>
<text text-anchor="middle" x="1014.5" y="-358.5" font-family="Helvetica,sans-Serif" font-size="10.00">led_print</text>
</a>
</g>
</g>
<!-- Node2 -->
<g id="node2" class="node">
<title>Node2</title>
<g id="a_node2"><a xlink:href="vi_8h.html#a075721180ea187be49c7164dcff34122" target="_top" xlink:title=" ">
<polygon fill="white" stroke="black" points="797,-608.5 797,-627.5 848,-627.5 848,-608.5 797,-608.5"/>
<text text-anchor="middle" x="822.5" y="-615.5" font-family="Helvetica,sans-Serif" font-size="10.00">ex_print</text>
</a>
</g>
</g>
<!-- Node1&#45;&gt;Node2 -->
<g id="edge1" class="edge">
<title>Node1&#45;&gt;Node2</title>
<path fill="none" stroke="midnightblue" d="M1000.15,-379.06C962.96,-429.36 859.07,-569.89 830.72,-608.23"/>
<polygon fill="midnightblue" stroke="midnightblue" points="1003.15,-380.88 1006.28,-370.76 997.52,-376.72 1003.15,-380.88"/>
</g>
<!-- Node22 -->
<g id="node22" class="node">
<title>Node22</title>
<g id="a_node22"><a xlink:href="vi_8h.html#ad27b2fbb84601eb4c5af3b1f28feac75" target="_top" xlink:title=" ">
<polygon fill="white" stroke="black" points="896,-399.5 896,-418.5 952,-418.5 952,-399.5 896,-399.5"/>
<text text-anchor="middle" x="924" y="-406.5" font-family="Helvetica,sans-Serif" font-size="10.00">ex_show</text>
</a>
</g>
</g>
<!-- Node1&#45;&gt;Node22 -->
<g id="edge28" class="edge">
<title>Node1&#45;&gt;Node22</title>
<path fill="none" stroke="midnightblue" d="M986.69,-375.54C972.38,-383.3 955.18,-392.63 942.58,-399.46"/>
<polygon fill="midnightblue" stroke="midnightblue" points="988.47,-378.56 995.59,-370.71 985.13,-372.4 988.47,-378.56"/>
</g>
<!-- Node26 -->
<g id="node26" class="node">
<title>Node26</title>
<g id="a_node26"><a xlink:href="led_8c.html#ae938cbff964c214e7e4f6aff4d5ce0f7" target="_top" xlink:title=" ">
<polygon fill="white" stroke="black" points="785,-266.5 785,-285.5 860,-285.5 860,-266.5 785,-266.5"/>
<text text-anchor="middle" x="822.5" y="-273.5" font-family="Helvetica,sans-Serif" font-size="10.00">led_printparts</text>
</a>
</g>
</g>
<!-- Node1&#45;&gt;Node26 -->
<g id="edge41" class="edge">
<title>Node1&#45;&gt;Node26</title>
<path fill="none" stroke="midnightblue" d="M982.85,-347.29C944.14,-329.97 878.53,-300.62 844.85,-285.55"/>
<polygon fill="midnightblue" stroke="midnightblue" points="981.52,-350.53 992.07,-351.41 984.38,-344.14 981.52,-350.53"/>
</g>
<!-- Node41 -->
<g id="node41" class="node">
<title>Node41</title>
<g id="a_node41"><a xlink:href="vi_8c.html#af48ebb44cac26d2c52f0ada762be5bf6" target="_top" xlink:title=" ">
<polygon fill="white" stroke="black" points="271,-57.5 271,-76.5 337,-76.5 337,-57.5 271,-57.5"/>
<text text-anchor="middle" x="304" y="-64.5" font-family="Helvetica,sans-Serif" font-size="10.00">vi_drawrow</text>
</a>
</g>
</g>
<!-- Node1&#45;&gt;Node41 -->
<g id="edge65" class="edge">
<title>Node1&#45;&gt;Node41</title>
<path fill="none" stroke="midnightblue" d="M1010.19,-341.13C998.2,-276.6 950.81,-77 823.5,-77 823.5,-77 823.5,-77 496.5,-77 440.4,-77 375.19,-72.67 337.16,-69.71"/>
<polygon fill="midnightblue" stroke="midnightblue" points="1006.79,-341.99 1011.98,-351.22 1013.68,-340.77 1006.79,-341.99"/>
</g>
<!-- Node3 -->
<g id="node3" class="node">
<title>Node3</title>
<g id="a_node3"><a xlink:href="ex_8c.html#a86b4adba0c96621f01383b9bacba4a01" target="_top" xlink:title=" ">
<polygon fill="white" stroke="black" points="693,-608.5 693,-627.5 749,-627.5 749,-608.5 693,-608.5"/>
<text text-anchor="middle" x="721" y="-615.5" font-family="Helvetica,sans-Serif" font-size="10.00">ec_cmap</text>
</a>
</g>
</g>
<!-- Node2&#45;&gt;Node3 -->
<g id="edge2" class="edge">
<title>Node2&#45;&gt;Node3</title>
<path fill="none" stroke="midnightblue" d="M786.54,-618C774.25,-618 760.65,-618 749.11,-618"/>
<polygon fill="midnightblue" stroke="midnightblue" points="786.9,-621.5 796.9,-618 786.9,-614.5 786.9,-621.5"/>
</g>
<!-- Node4 -->
<g id="node4" class="node">
<title>Node4</title>
<g id="a_node4"><a xlink:href="ex_8c.html#adcd83f163f659bd2596bcfc25d74bde9" target="_top" xlink:title=" ">
<polygon fill="white" stroke="black" points="471,-494.5 471,-513.5 524,-513.5 524,-494.5 471,-494.5"/>
<text text-anchor="middle" x="497.5" y="-501.5" font-family="Helvetica,sans-Serif" font-size="10.00">ec_exec</text>
</a>
</g>
</g>
<!-- Node2&#45;&gt;Node4 -->
<g id="edge3" class="edge">
<title>Node2&#45;&gt;Node4</title>
<path fill="none" stroke="midnightblue" d="M787.35,-628.87C775.36,-632.18 761.7,-635.36 749,-637 664.85,-647.84 627.32,-649.34 563,-594 536.18,-570.93 550.49,-549.46 527,-523 523.84,-519.44 519.87,-516.25 515.91,-513.55"/>
<polygon fill="midnightblue" stroke="midnightblue" points="788.34,-632.23 796.98,-626.1 786.4,-625.5 788.34,-632.23"/>
</g>
<!-- Node13 -->
<g id="node13" class="node">
<title>Node13</title>
<g id="a_node13"><a xlink:href="ex_8c.html#a96a40531d1096a618d29639f2e42710b" target="_top" xlink:title=" ">
<polygon fill="white" stroke="black" points="702,-722.5 702,-741.5 740,-741.5 740,-722.5 702,-722.5"/>
<text text-anchor="middle" x="721" y="-729.5" font-family="Helvetica,sans-Serif" font-size="10.00">ec_ft</text>
</a>
</g>
</g>
<!-- Node2&#45;&gt;Node13 -->
<g id="edge15" class="edge">
<title>Node2&#45;&gt;Node13</title>
<path fill="none" stroke="midnightblue" d="M810.06,-636.21C796.87,-656.37 773.78,-689.16 749,-713 745.53,-716.34 741.43,-719.53 737.49,-722.32"/>
<polygon fill="midnightblue" stroke="midnightblue" points="813.09,-637.97 815.55,-627.67 807.2,-634.18 813.09,-637.97"/>
</g>
<!-- Node14 -->
<g id="node14" class="node">
<title>Node14</title>
<g id="a_node14"><a xlink:href="ex_8c.html#a1d45a70b724f4cccae2ab746c711ebb1" target="_top" xlink:title=" ">
<polygon fill="white" stroke="black" points="694.5,-684.5 694.5,-703.5 747.5,-703.5 747.5,-684.5 694.5,-684.5"/>
<text text-anchor="middle" x="721" y="-691.5" font-family="Helvetica,sans-Serif" font-size="10.00">ec_lnum</text>
</a>
</g>
</g>
<!-- Node2&#45;&gt;Node14 -->
<g id="edge16" class="edge">
<title>Node2&#45;&gt;Node14</title>
<path fill="none" stroke="midnightblue" d="M800.72,-633.87C780.72,-649.15 751.12,-671.76 734.5,-684.45"/>
<polygon fill="midnightblue" stroke="midnightblue" points="803.08,-636.48 808.9,-627.63 798.83,-630.91 803.08,-636.48"/>
</g>
<!-- Node15 -->
<g id="node15" class="node">
<title>Node15</title>
<g id="a_node15"><a xlink:href="ex_8c.html#aa69f426ff9728078fbb36f448c624a90" target="_top" xlink:title=" ">
<polygon fill="white" stroke="black" points="469.5,-456.5 469.5,-475.5 525.5,-475.5 525.5,-456.5 469.5,-456.5"/>
<text text-anchor="middle" x="497.5" y="-463.5" font-family="Helvetica,sans-Serif" font-size="10.00">ec_make</text>
</a>
</g>
</g>
<!-- Node2&#45;&gt;Node15 -->
<g id="edge17" class="edge">
<title>Node2&#45;&gt;Node15</title>
<path fill="none" stroke="midnightblue" d="M787.22,-607.56C726.1,-588.58 601.11,-548.09 563,-523 543.57,-510.21 544.79,-499.99 527,-485 523.09,-481.7 518.59,-478.48 514.34,-475.65"/>
<polygon fill="midnightblue" stroke="midnightblue" points="786.22,-610.91 796.81,-610.52 788.29,-604.22 786.22,-610.91"/>
</g>
<!-- Node16 -->
<g id="node16" class="node">
<title>Node16</title>
<g id="a_node16"><a xlink:href="ex_8c.html#ad2c1a9505aa3097bac242b47a367f11d" target="_top" xlink:title=" ">
<polygon fill="white" stroke="black" points="695.5,-760.5 695.5,-779.5 746.5,-779.5 746.5,-760.5 695.5,-760.5"/>
<text text-anchor="middle" x="721" y="-767.5" font-family="Helvetica,sans-Serif" font-size="10.00">ec_print</text>
</a>
</g>
</g>
<!-- Node2&#45;&gt;Node16 -->
<g id="edge18" class="edge">
<title>Node2&#45;&gt;Node16</title>
<path fill="none" stroke="midnightblue" d="M814.31,-637.23C803.35,-664.72 780.37,-715.83 749,-751 745.87,-754.51 741.98,-757.72 738.13,-760.46"/>
<polygon fill="midnightblue" stroke="midnightblue" points="817.69,-638.21 818.03,-627.62 811.16,-635.68 817.69,-638.21"/>
</g>
<!-- Node18 -->
<g id="node18" class="node">
<title>Node18</title>
<g id="a_node18"><a xlink:href="ex_8c.html#a057b67e2d4f23df3ad50a9d3ec86125b" target="_top" xlink:title=" ">
<polygon fill="white" stroke="black" points="694.5,-532.5 694.5,-551.5 747.5,-551.5 747.5,-532.5 694.5,-532.5"/>
<text text-anchor="middle" x="721" y="-539.5" font-family="Helvetica,sans-Serif" font-size="10.00">ec_write</text>
</a>
</g>
</g>
<!-- Node2&#45;&gt;Node18 -->
<g id="edge20" class="edge">
<title>Node2&#45;&gt;Node18</title>
<path fill="none" stroke="midnightblue" d="M800.72,-602.13C780.72,-586.85 751.12,-564.24 734.5,-551.55"/>
<polygon fill="midnightblue" stroke="midnightblue" points="798.83,-605.09 808.9,-608.37 803.08,-599.52 798.83,-605.09"/>
</g>
<!-- Node5 -->
<g id="node5" class="node">
<title>Node5</title>
<g id="a_node5"><a xlink:href="ex_8c.html#a7d848d20211b2e1c868dde98ec5dfae9" target="_top" xlink:title=" ">
<polygon fill="white" stroke="black" points="379,-494.5 379,-513.5 426,-513.5 426,-494.5 379,-494.5"/>
<text text-anchor="middle" x="402.5" y="-501.5" font-family="Helvetica,sans-Serif" font-size="10.00">ex_line</text>
</a>
</g>
</g>
<!-- Node4&#45;&gt;Node5 -->
<g id="edge4" class="edge">
<title>Node4&#45;&gt;Node5</title>
<path fill="none" stroke="midnightblue" d="M460.34,-504C448.81,-504 436.39,-504 426.11,-504"/>
<polygon fill="midnightblue" stroke="midnightblue" points="460.59,-507.5 470.59,-504 460.59,-500.5 460.59,-507.5"/>
</g>
<!-- Node6 -->
<g id="node6" class="node">
<title>Node6</title>
<g id="a_node6"><a xlink:href="ex_8c.html#ab15ebfef933256d9741128e2ddf3f9b5" target="_top" xlink:title=" ">
<polygon fill="white" stroke="black" points="277.5,-456.5 277.5,-475.5 330.5,-475.5 330.5,-456.5 277.5,-456.5"/>
<text text-anchor="middle" x="304" y="-463.5" font-family="Helvetica,sans-Serif" font-size="10.00">ex_exec</text>
</a>
</g>
</g>
<!-- Node5&#45;&gt;Node6 -->
<g id="edge5" class="edge">
<title>Node5&#45;&gt;Node6</title>
<path fill="none" stroke="midnightblue" d="M369.12,-491.25C356.14,-486.14 341.44,-480.35 329.39,-475.61"/>
<polygon fill="midnightblue" stroke="midnightblue" points="368.04,-494.59 378.63,-494.99 370.61,-488.07 368.04,-494.59"/>
</g>
<!-- Node7 -->
<g id="node7" class="node">
<title>Node7</title>
<g id="a_node7"><a xlink:href="ex_8c.html#a70c571bdde329a65e216c19b4aeaa628" target="_top" xlink:title=" ">
<polygon fill="white" stroke="black" points="170,-475.5 170,-494.5 220,-494.5 220,-475.5 170,-475.5"/>
<text text-anchor="middle" x="195" y="-482.5" font-family="Helvetica,sans-Serif" font-size="10.00">ec_glob</text>
</a>
</g>
</g>
<!-- Node6&#45;&gt;Node7 -->
<g id="edge6" class="edge">
<title>Node6&#45;&gt;Node7</title>
<path fill="none" stroke="midnightblue" d="M267.14,-472.37C251.74,-475.1 234.15,-478.23 220.32,-480.68"/>
<polygon fill="midnightblue" stroke="midnightblue" points="268.14,-475.75 277.37,-470.55 266.91,-468.85 268.14,-475.75"/>
</g>
<!-- Node8 -->
<g id="node8" class="node">
<title>Node8</title>
<g id="a_node8"><a xlink:href="vi_8h.html#aa75c73cccb4878ec06ea5bf5b1b02295" target="_top" xlink:title=" ">
<polygon fill="white" stroke="black" points="157.5,-380.5 157.5,-399.5 232.5,-399.5 232.5,-380.5 157.5,-380.5"/>
<text text-anchor="middle" x="195" y="-387.5" font-family="Helvetica,sans-Serif" font-size="10.00">ex_command</text>
</a>
</g>
</g>
<!-- Node6&#45;&gt;Node8 -->
<g id="edge8" class="edge">
<title>Node6&#45;&gt;Node8</title>
<path fill="none" stroke="midnightblue" d="M281.23,-450.54C259.71,-435.25 227.47,-412.36 209.44,-399.55"/>
<polygon fill="midnightblue" stroke="midnightblue" points="279.27,-453.44 289.45,-456.37 283.32,-447.73 279.27,-453.44"/>
</g>
<!-- Node7&#45;&gt;Node5 -->
<g id="edge7" class="edge">
<title>Node7&#45;&gt;Node5</title>
<path fill="none" stroke="midnightblue" d="M230.21,-488.16C272.33,-492.06 342.69,-498.56 378.72,-501.89"/>
<polygon fill="midnightblue" stroke="midnightblue" points="230.43,-484.67 220.15,-487.23 229.78,-491.64 230.43,-484.67"/>
</g>
<!-- Node9 -->
<g id="node9" class="node">
<title>Node9</title>
<g id="a_node9"><a xlink:href="vi_8h.html#ac395e51f25330a6e6033b6d0d22b2076" target="_top" xlink:title=" ">
<polygon fill="white" stroke="black" points="82,-323.5 82,-342.5 111,-342.5 111,-323.5 82,-323.5"/>
<text text-anchor="middle" x="96.5" y="-330.5" font-family="Helvetica,sans-Serif" font-size="10.00">ex</text>
</a>
</g>
</g>
<!-- Node8&#45;&gt;Node9 -->
<g id="edge9" class="edge">
<title>Node8&#45;&gt;Node9</title>
<path fill="none" stroke="midnightblue" d="M168.86,-375.15C150.43,-364.26 126.1,-349.89 111.14,-341.06"/>
<polygon fill="midnightblue" stroke="midnightblue" points="167.24,-378.26 177.63,-380.33 170.8,-372.23 167.24,-378.26"/>
</g>
<!-- Node11 -->
<g id="node11" class="node">
<title>Node11</title>
<g id="a_node11"><a xlink:href="vi_8h.html#abe53b5c10f94f20cd5ed024371615fa1" target="_top" xlink:title=" ">
<polygon fill="white" stroke="black" points="74,-380.5 74,-399.5 119,-399.5 119,-380.5 74,-380.5"/>
<text text-anchor="middle" x="96.5" y="-387.5" font-family="Helvetica,sans-Serif" font-size="10.00">ex_init</text>
</a>
</g>
</g>
<!-- Node8&#45;&gt;Node11 -->
<g id="edge11" class="edge">
<title>Node8&#45;&gt;Node11</title>
<path fill="none" stroke="midnightblue" d="M147.11,-390C137.29,-390 127.4,-390 119.07,-390"/>
<polygon fill="midnightblue" stroke="midnightblue" points="147.24,-393.5 157.24,-390 147.24,-386.5 147.24,-393.5"/>
</g>
<!-- Node12 -->
<g id="node12" class="node">
<title>Node12</title>
<g id="a_node12"><a xlink:href="vi_8c.html#a8d808e0f3453afe6600673ee1ea5f828" target="_top" xlink:title=" ">
<polygon fill="white" stroke="black" points="82,-171.5 82,-190.5 111,-190.5 111,-171.5 82,-171.5"/>
<text text-anchor="middle" x="96.5" y="-178.5" font-family="Helvetica,sans-Serif" font-size="10.00">vi</text>
</a>
</g>
</g>
<!-- Node8&#45;&gt;Node12 -->
<g id="edge13" class="edge">
<title>Node8&#45;&gt;Node12</title>
<path fill="none" stroke="midnightblue" d="M163.89,-374.7C160.58,-372.13 157.51,-369.23 155,-366 111.27,-309.68 100.53,-219.77 98.14,-190.53"/>
<polygon fill="midnightblue" stroke="midnightblue" points="162.17,-377.76 172.42,-380.42 166.06,-371.94 162.17,-377.76"/>
</g>
<!-- Node10 -->
<g id="node10" class="node">
<title>Node10</title>
<g id="a_node10"><a xlink:href="vi_8c.html#a0ddf1224851353fc92bfbff6f499fa97" target="_top" xlink:title=" ">
<polygon fill="white" stroke="black" points="0,-323.5 0,-342.5 38,-342.5 38,-323.5 0,-323.5"/>
<text text-anchor="middle" x="19" y="-330.5" font-family="Helvetica,sans-Serif" font-size="10.00">main</text>
</a>
</g>
</g>
<!-- Node9&#45;&gt;Node10 -->
<g id="edge10" class="edge">
<title>Node9&#45;&gt;Node10</title>
<path fill="none" stroke="midnightblue" d="M71.55,-333C60.69,-333 48.07,-333 38.04,-333"/>
<polygon fill="midnightblue" stroke="midnightblue" points="71.65,-336.5 81.65,-333 71.65,-329.5 71.65,-336.5"/>
</g>
<!-- Node11&#45;&gt;Node10 -->
<g id="edge12" class="edge">
<title>Node11&#45;&gt;Node10</title>
<path fill="none" stroke="midnightblue" d="M74.46,-374.12C61.01,-363.96 44.01,-351.13 32.62,-342.53"/>
<polygon fill="midnightblue" stroke="midnightblue" points="72.6,-377.1 82.69,-380.33 76.82,-371.51 72.6,-377.1"/>
</g>
<!-- Node12&#45;&gt;Node10 -->
<g id="edge14" class="edge">
<title>Node12&#45;&gt;Node10</title>
<path fill="none" stroke="midnightblue" d="M86.13,-199.87C69.85,-232.63 36.95,-298.87 24.72,-323.5"/>
<polygon fill="midnightblue" stroke="midnightblue" points="89.46,-201.02 90.78,-190.51 83.19,-197.91 89.46,-201.02"/>
</g>
<!-- Node17 -->
<g id="node17" class="node">
<title>Node17</title>
<g id="a_node17"><a xlink:href="ex_8c.html#affb8197a8f988443aadf1bf2800a0d0b" target="_top" xlink:title=" ">
<polygon fill="white" stroke="black" points="586.5,-760.5 586.5,-779.5 633.5,-779.5 633.5,-760.5 586.5,-760.5"/>
<text text-anchor="middle" x="610" y="-767.5" font-family="Helvetica,sans-Serif" font-size="10.00">ec_null</text>
</a>
</g>
</g>
<!-- Node16&#45;&gt;Node17 -->
<g id="edge19" class="edge">
<title>Node16&#45;&gt;Node17</title>
<path fill="none" stroke="midnightblue" d="M685.23,-770C668.4,-770 648.67,-770 633.78,-770"/>
<polygon fill="midnightblue" stroke="midnightblue" points="685.27,-773.5 695.27,-770 685.27,-766.5 685.27,-773.5"/>
</g>
<!-- Node19 -->
<g id="node19" class="node">
<title>Node19</title>
<g id="a_node19"><a xlink:href="ex_8c.html#ab0cb848a971a3b2c09fcb456d887dd6b" target="_top" xlink:title=" ">
<polygon fill="white" stroke="black" points="563,-494.5 563,-513.5 657,-513.5 657,-494.5 563,-494.5"/>
<text text-anchor="middle" x="610" y="-501.5" font-family="Helvetica,sans-Serif" font-size="10.00">ex_modifiedbuffer</text>
</a>
</g>
</g>
<!-- Node18&#45;&gt;Node19 -->
<g id="edge21" class="edge">
<title>Node18&#45;&gt;Node19</title>
<path fill="none" stroke="midnightblue" d="M684.91,-529.77C669.81,-524.5 652.42,-518.44 638.3,-513.52"/>
<polygon fill="midnightblue" stroke="midnightblue" points="683.85,-533.1 694.44,-533.09 686.15,-526.49 683.85,-533.1"/>
</g>
<!-- Node19&#45;&gt;Node4 -->
<g id="edge24" class="edge">
<title>Node19&#45;&gt;Node4</title>
<path fill="none" stroke="midnightblue" d="M552.76,-504C542.7,-504 532.69,-504 524.06,-504"/>
<polygon fill="midnightblue" stroke="midnightblue" points="552.78,-507.5 562.78,-504 552.78,-500.5 552.78,-507.5"/>
</g>
<!-- Node19&#45;&gt;Node15 -->
<g id="edge25" class="edge">
<title>Node19&#45;&gt;Node15</title>
<path fill="none" stroke="midnightblue" d="M571.55,-491.12C556.49,-485.94 539.44,-480.08 525.61,-475.32"/>
<polygon fill="midnightblue" stroke="midnightblue" points="570.52,-494.47 581.12,-494.41 572.8,-487.85 570.52,-494.47"/>
</g>
<!-- Node20 -->
<g id="node20" class="node">
<title>Node20</title>
<g id="a_node20"><a xlink:href="ex_8c.html#a8059390ad69866fa8e14bdb2521d4dc2" target="_top" xlink:title=" ">
<polygon fill="white" stroke="black" points="473.5,-399.5 473.5,-418.5 521.5,-418.5 521.5,-399.5 473.5,-399.5"/>
<text text-anchor="middle" x="497.5" y="-406.5" font-family="Helvetica,sans-Serif" font-size="10.00">ec_edit</text>
</a>
</g>
</g>
<!-- Node19&#45;&gt;Node20 -->
<g id="edge22" class="edge">
<title>Node19&#45;&gt;Node20</title>
<path fill="none" stroke="midnightblue" d="M589.8,-487.49C566.64,-467.58 528.48,-434.78 509.68,-418.61"/>
<polygon fill="midnightblue" stroke="midnightblue" points="587.73,-490.33 597.59,-494.19 592.29,-485.02 587.73,-490.33"/>
</g>
<!-- Node21 -->
<g id="node21" class="node">
<title>Node21</title>
<g id="a_node21"><a xlink:href="ex_8c.html#a87eef446de152fad41ce88a9a343b87d" target="_top" xlink:title=" ">
<polygon fill="white" stroke="black" points="473.5,-532.5 473.5,-551.5 521.5,-551.5 521.5,-532.5 473.5,-532.5"/>
<text text-anchor="middle" x="497.5" y="-539.5" font-family="Helvetica,sans-Serif" font-size="10.00">ec_quit</text>
</a>
</g>
</g>
<!-- Node19&#45;&gt;Node21 -->
<g id="edge26" class="edge">
<title>Node19&#45;&gt;Node21</title>
<path fill="none" stroke="midnightblue" d="M571.2,-517C554.7,-522.67 535.88,-529.14 521.53,-534.08"/>
<polygon fill="midnightblue" stroke="midnightblue" points="572.8,-520.15 581.12,-513.59 570.52,-513.53 572.8,-520.15"/>
</g>
<!-- Node20&#45;&gt;Node11 -->
<g id="edge23" class="edge">
<title>Node20&#45;&gt;Node11</title>
<path fill="none" stroke="midnightblue" d="M462.83,-412.52C401.25,-418.18 266.54,-426.95 155,-409 142.86,-407.05 129.8,-402.91 119.21,-398.99"/>
<polygon fill="midnightblue" stroke="midnightblue" points="463.49,-415.97 473.11,-411.54 462.82,-409 463.49,-415.97"/>
</g>
<!-- Node21&#45;&gt;Node18 -->
<g id="edge27" class="edge">
<title>Node21&#45;&gt;Node18</title>
<path fill="none" stroke="midnightblue" d="M531.77,-542C576.18,-542 653.88,-542 694.16,-542"/>
<polygon fill="midnightblue" stroke="midnightblue" points="531.5,-538.5 521.5,-542 531.5,-545.5 531.5,-538.5"/>
</g>
<!-- Node22&#45;&gt;Node2 -->
<g id="edge40" class="edge">
<title>Node22&#45;&gt;Node2</title>
<path fill="none" stroke="midnightblue" d="M915.61,-428.38C904.55,-456.85 882.57,-511.41 860,-556 850.41,-574.95 837.46,-596.07 829.84,-608.12"/>
<polygon fill="midnightblue" stroke="midnightblue" points="918.96,-429.42 919.29,-418.83 912.43,-426.9 918.96,-429.42"/>
</g>
<!-- Node22&#45;&gt;Node18 -->
<g id="edge32" class="edge">
<title>Node22&#45;&gt;Node18</title>
<path fill="none" stroke="midnightblue" d="M917.38,-428.59C909.13,-453.59 891.22,-496.2 860,-518 826.4,-541.46 777.25,-544.43 747.57,-543.73"/>
<polygon fill="midnightblue" stroke="midnightblue" points="920.8,-429.36 920.42,-418.77 914.12,-427.29 920.8,-429.36"/>
</g>
<!-- Node22&#45;&gt;Node19 -->
<g id="edge39" class="edge">
<title>Node22&#45;&gt;Node19</title>
<path fill="none" stroke="midnightblue" d="M901.37,-424.4C889.61,-432.15 874.53,-441.13 860,-447 792.15,-474.41 708.33,-490.16 657.3,-497.9"/>
<polygon fill="midnightblue" stroke="midnightblue" points="903.34,-427.29 909.65,-418.78 899.41,-421.5 903.34,-427.29"/>
</g>
<!-- Node22&#45;&gt;Node20 -->
<g id="edge29" class="edge">
<title>Node22&#45;&gt;Node20</title>
<path fill="none" stroke="midnightblue" d="M908.92,-391.34C897.27,-378.02 879.52,-360.49 860,-351 792.86,-318.37 766.36,-319.18 693,-333 624.77,-345.86 549.78,-382.01 516.33,-399.41"/>
<polygon fill="midnightblue" stroke="midnightblue" points="906.54,-393.94 915.65,-399.35 911.9,-389.44 906.54,-393.94"/>
</g>
<!-- Node23 -->
<g id="node23" class="node">
<title>Node23</title>
<g id="a_node23"><a xlink:href="ex_8c.html#add0e79e1f1e3d45f4eaa6fbe5c1ca443" target="_top" xlink:title=" ">
<polygon fill="white" stroke="black" points="695.5,-342.5 695.5,-361.5 746.5,-361.5 746.5,-342.5 695.5,-342.5"/>
<text text-anchor="middle" x="721" y="-349.5" font-family="Helvetica,sans-Serif" font-size="10.00">ec_read</text>
</a>
</g>
</g>
<!-- Node22&#45;&gt;Node23 -->
<g id="edge30" class="edge">
<title>Node22&#45;&gt;Node23</title>
<path fill="none" stroke="midnightblue" d="M902.02,-393.38C890.26,-385.41 874.97,-376.29 860,-371 821.92,-357.54 774.8,-353.56 746.63,-352.41"/>
<polygon fill="midnightblue" stroke="midnightblue" points="900.08,-396.29 910.27,-399.17 904.1,-390.56 900.08,-396.29"/>
</g>
<!-- Node24 -->
<g id="node24" class="node">
<title>Node24</title>
<g id="a_node24"><a xlink:href="ex_8c.html#a98764f0b4faf5fd4b8baff03a7d73a6e" target="_top" xlink:title=" ">
<polygon fill="white" stroke="black" points="799.5,-380.5 799.5,-399.5 845.5,-399.5 845.5,-380.5 799.5,-380.5"/>
<text text-anchor="middle" x="822.5" y="-387.5" font-family="Helvetica,sans-Serif" font-size="10.00">ec_set</text>
</a>
</g>
</g>
<!-- Node22&#45;&gt;Node24 -->
<g id="edge31" class="edge">
<title>Node22&#45;&gt;Node24</title>
<path fill="none" stroke="midnightblue" d="M885.8,-401.9C872.28,-399.31 857.44,-396.48 845.63,-394.23"/>
<polygon fill="midnightblue" stroke="midnightblue" points="885.33,-405.37 895.81,-403.81 886.65,-398.49 885.33,-405.37"/>
</g>
<!-- Node25 -->
<g id="node25" class="node">
<title>Node25</title>
<g id="a_node25"><a xlink:href="ex_8c.html#a2b8907dfb6e95eb16e8a0f1ce0fe5bb6" target="_top" xlink:title=" ">
<polygon fill="white" stroke="black" points="793,-418.5 793,-437.5 852,-437.5 852,-418.5 793,-418.5"/>
<text text-anchor="middle" x="822.5" y="-425.5" font-family="Helvetica,sans-Serif" font-size="10.00">ex_filearg</text>
</a>
</g>
</g>
<!-- Node22&#45;&gt;Node25 -->
<g id="edge33" class="edge">
<title>Node22&#45;&gt;Node25</title>
<path fill="none" stroke="midnightblue" d="M885.87,-416.09C874.68,-418.23 862.58,-420.54 852.05,-422.55"/>
<polygon fill="midnightblue" stroke="midnightblue" points="886.65,-419.51 895.81,-414.19 885.33,-412.63 886.65,-419.51"/>
</g>
<!-- Node25&#45;&gt;Node4 -->
<g id="edge35" class="edge">
<title>Node25&#45;&gt;Node4</title>
<path fill="none" stroke="midnightblue" d="M782.99,-439.19C772.04,-442.21 760.09,-445.37 749,-448 666.99,-467.44 644.84,-464.85 563,-485 550.08,-488.18 535.87,-492.3 524.09,-495.88"/>
<polygon fill="midnightblue" stroke="midnightblue" points="784.01,-442.53 792.7,-436.46 782.12,-435.79 784.01,-442.53"/>
</g>
<!-- Node25&#45;&gt;Node15 -->
<g id="edge36" class="edge">
<title>Node25&#45;&gt;Node15</title>
<path fill="none" stroke="midnightblue" d="M782.47,-430.15C731.7,-433.28 640.35,-440.06 563,-452 550.66,-453.91 537.13,-456.73 525.67,-459.34"/>
<polygon fill="midnightblue" stroke="midnightblue" points="782.9,-433.63 792.67,-429.53 782.48,-426.64 782.9,-433.63"/>
</g>
<!-- Node25&#45;&gt;Node18 -->
<g id="edge38" class="edge">
<title>Node25&#45;&gt;Node18</title>
<path fill="none" stroke="midnightblue" d="M806.26,-445.46C785.02,-469.79 747.26,-513.06 730.46,-532.31"/>
<polygon fill="midnightblue" stroke="midnightblue" points="809.08,-447.56 813.02,-437.72 803.8,-442.95 809.08,-447.56"/>
</g>
<!-- Node25&#45;&gt;Node20 -->
<g id="edge34" class="edge">
<title>Node25&#45;&gt;Node20</title>
<path fill="none" stroke="midnightblue" d="M782.7,-419.24C771.85,-417.14 760.01,-415.16 749,-414 665.73,-405.19 566.05,-406.8 521.72,-408.14"/>
<polygon fill="midnightblue" stroke="midnightblue" points="782.25,-422.72 792.74,-421.27 783.63,-415.86 782.25,-422.72"/>
</g>
<!-- Node25&#45;&gt;Node23 -->
<g id="edge37" class="edge">
<title>Node25&#45;&gt;Node23</title>
<path fill="none" stroke="midnightblue" d="M792.02,-413.53C789.6,-412.08 787.23,-410.56 785,-409 767.22,-396.55 765.11,-390.54 749,-376 743.69,-371.21 737.76,-365.93 732.81,-361.54"/>
<polygon fill="midnightblue" stroke="midnightblue" points="790.43,-416.64 800.87,-418.46 793.84,-410.53 790.43,-416.64"/>
</g>
<!-- Node27 -->
<g id="node27" class="node">
<title>Node27</title>
<g id="a_node27"><a xlink:href="vi_8h.html#ae72255a31cec31233723c101d9465d07" target="_top" xlink:title=" ">
<polygon fill="white" stroke="black" points="582,-266.5 582,-285.5 638,-285.5 638,-266.5 582,-266.5"/>
<text text-anchor="middle" x="610" y="-273.5" font-family="Helvetica,sans-Serif" font-size="10.00">led_input</text>
</a>
</g>
</g>
<!-- Node26&#45;&gt;Node27 -->
<g id="edge42" class="edge">
<title>Node26&#45;&gt;Node27</title>
<path fill="none" stroke="midnightblue" d="M774.59,-276C732.67,-276 672.7,-276 638.22,-276"/>
<polygon fill="midnightblue" stroke="midnightblue" points="774.83,-279.5 784.83,-276 774.83,-272.5 774.83,-279.5"/>
</g>
<!-- Node32 -->
<g id="node32" class="node">
<title>Node32</title>
<g id="a_node32"><a xlink:href="led_8c.html#a617ec615e86687b5c10df33b271256c8" target="_top" xlink:title=" ">
<polygon fill="white" stroke="black" points="696,-228.5 696,-247.5 746,-247.5 746,-228.5 696,-228.5"/>
<text text-anchor="middle" x="721" y="-235.5" font-family="Helvetica,sans-Serif" font-size="10.00">led_line</text>
</a>
</g>
</g>
<!-- Node26&#45;&gt;Node32 -->
<g id="edge49" class="edge">
<title>Node26&#45;&gt;Node32</title>
<path fill="none" stroke="midnightblue" d="M786.93,-262.8C773.45,-257.65 758.33,-251.87 746.07,-247.19"/>
<polygon fill="midnightblue" stroke="midnightblue" points="785.8,-266.11 796.39,-266.41 788.3,-259.57 785.8,-266.11"/>
</g>
<!-- Node28 -->
<g id="node28" class="node">
<title>Node28</title>
<g id="a_node28"><a xlink:href="vi_8c.html#a653f6b0359cef492e11f404c4bf469b9" target="_top" xlink:title=" ">
<polygon fill="white" stroke="black" points="377.5,-266.5 377.5,-285.5 427.5,-285.5 427.5,-266.5 377.5,-266.5"/>
<text text-anchor="middle" x="402.5" y="-273.5" font-family="Helvetica,sans-Serif" font-size="10.00">vi_input</text>
</a>
</g>
</g>
<!-- Node27&#45;&gt;Node28 -->
<g id="edge43" class="edge">
<title>Node27&#45;&gt;Node28</title>
<path fill="none" stroke="midnightblue" d="M571.64,-276C529.81,-276 463.23,-276 427.7,-276"/>
<polygon fill="midnightblue" stroke="midnightblue" points="571.71,-279.5 581.71,-276 571.71,-272.5 571.71,-279.5"/>
</g>
<!-- Node29 -->
<g id="node29" class="node">
<title>Node29</title>
<g id="a_node29"><a xlink:href="vi_8c.html#a8bb357a77ed61da8858f138c6fa672a6" target="_top" xlink:title=" ">
<polygon fill="white" stroke="black" points="276,-323.5 276,-342.5 332,-342.5 332,-323.5 276,-323.5"/>
<text text-anchor="middle" x="304" y="-330.5" font-family="Helvetica,sans-Serif" font-size="10.00">vc_insert</text>
</a>
</g>
</g>
<!-- Node28&#45;&gt;Node29 -->
<g id="edge44" class="edge">
<title>Node28&#45;&gt;Node29</title>
<path fill="none" stroke="midnightblue" d="M376.07,-291.02C358.66,-301.3 336.11,-314.62 321.13,-323.47"/>
<polygon fill="midnightblue" stroke="midnightblue" points="378.3,-293.77 385.13,-285.67 374.74,-287.74 378.3,-293.77"/>
</g>
<!-- Node30 -->
<g id="node30" class="node">
<title>Node30</title>
<g id="a_node30"><a xlink:href="vi_8c.html#ae37b094c3bb647d8c1a4ac4e858ce518" target="_top" xlink:title=" ">
<polygon fill="white" stroke="black" points="273.5,-228.5 273.5,-247.5 334.5,-247.5 334.5,-228.5 273.5,-228.5"/>
<text text-anchor="middle" x="304" y="-235.5" font-family="Helvetica,sans-Serif" font-size="10.00">vi_change</text>
</a>
</g>
</g>
<!-- Node28&#45;&gt;Node30 -->
<g id="edge46" class="edge">
<title>Node28&#45;&gt;Node30</title>
<path fill="none" stroke="midnightblue" d="M367.82,-262.74C355.15,-257.75 341,-252.18 329.34,-247.59"/>
<polygon fill="midnightblue" stroke="midnightblue" points="366.56,-266 377.15,-266.41 369.13,-259.49 366.56,-266"/>
</g>
<!-- Node29&#45;&gt;Node12 -->
<g id="edge45" class="edge">
<title>Node29&#45;&gt;Node12</title>
<path fill="none" stroke="midnightblue" d="M265.73,-331.85C233.28,-329.04 186.61,-320.43 155,-295 120.28,-267.07 104.64,-212.72 99.51,-190.66"/>
<polygon fill="midnightblue" stroke="midnightblue" points="265.5,-335.34 275.73,-332.57 266,-328.36 265.5,-335.34"/>
</g>
<!-- Node31 -->
<g id="node31" class="node">
<title>Node31</title>
<g id="a_node31"><a xlink:href="vi_8c.html#a06cbc6eb843436a0e77e07cbab0c4538" target="_top" xlink:title=" ">
<polygon fill="white" stroke="black" points="164,-190.5 164,-209.5 226,-209.5 226,-190.5 164,-190.5"/>
<text text-anchor="middle" x="195" y="-197.5" font-family="Helvetica,sans-Serif" font-size="10.00">vc_motion</text>
</a>
</g>
</g>
<!-- Node30&#45;&gt;Node31 -->
<g id="edge47" class="edge">
<title>Node30&#45;&gt;Node31</title>
<path fill="none" stroke="midnightblue" d="M266.47,-225.03C252.22,-219.97 236.17,-214.27 222.99,-209.59"/>
<polygon fill="midnightblue" stroke="midnightblue" points="265.4,-228.36 276,-228.41 267.75,-221.77 265.4,-228.36"/>
</g>
<!-- Node31&#45;&gt;Node12 -->
<g id="edge48" class="edge">
<title>Node31&#45;&gt;Node12</title>
<path fill="none" stroke="midnightblue" d="M154.15,-192.15C138.8,-189.13 122.29,-185.88 111.07,-183.67"/>
<polygon fill="midnightblue" stroke="midnightblue" points="153.51,-195.59 164,-194.09 154.86,-188.73 153.51,-195.59"/>
</g>
<!-- Node32&#45;&gt;Node27 -->
<g id="edge50" class="edge">
<title>Node32&#45;&gt;Node27</title>
<path fill="none" stroke="midnightblue" d="M686.11,-249.81C670.7,-255.19 652.7,-261.46 638.19,-266.52"/>
<polygon fill="midnightblue" stroke="midnightblue" points="687.52,-253.03 695.81,-246.43 685.21,-246.42 687.52,-253.03"/>
</g>
<!-- Node33 -->
<g id="node33" class="node">
<title>Node33</title>
<g id="a_node33"><a xlink:href="vi_8h.html#a173bb468e1e2a066136316f98b49c108" target="_top" xlink:title=" ">
<polygon fill="white" stroke="black" points="577.5,-228.5 577.5,-247.5 642.5,-247.5 642.5,-228.5 577.5,-228.5"/>
<text text-anchor="middle" x="610" y="-235.5" font-family="Helvetica,sans-Serif" font-size="10.00">led_prompt</text>
</a>
</g>
</g>
<!-- Node32&#45;&gt;Node33 -->
<g id="edge51" class="edge">
<title>Node32&#45;&gt;Node33</title>
<path fill="none" stroke="midnightblue" d="M685.72,-238C671.92,-238 656.1,-238 642.58,-238"/>
<polygon fill="midnightblue" stroke="midnightblue" points="685.81,-241.5 695.81,-238 685.81,-234.5 685.81,-241.5"/>
</g>
<!-- Node34 -->
<g id="node34" class="node">
<title>Node34</title>
<g id="a_node34"><a xlink:href="vi_8h.html#a7ba56272fe1a7d523192729a0bb5edf7" target="_top" xlink:title=" ">
<polygon fill="white" stroke="black" points="278.5,-266.5 278.5,-285.5 329.5,-285.5 329.5,-266.5 278.5,-266.5"/>
<text text-anchor="middle" x="304" y="-273.5" font-family="Helvetica,sans-Serif" font-size="10.00">ex_read</text>
</a>
</g>
</g>
<!-- Node33&#45;&gt;Node34 -->
<g id="edge52" class="edge">
<title>Node33&#45;&gt;Node34</title>
<path fill="none" stroke="midnightblue" d="M567.27,-238.94C519.86,-240.57 440.34,-245 373,-257 358.4,-259.6 342.41,-263.99 329.6,-267.89"/>
<polygon fill="midnightblue" stroke="midnightblue" points="567.57,-242.43 577.45,-238.62 567.35,-235.44 567.57,-242.43"/>
</g>
<!-- Node37 -->
<g id="node37" class="node">
<title>Node37</title>
<g id="a_node37"><a xlink:href="vi_8c.html#a57965473297aad4c4333fdd3897c11f3" target="_top" xlink:title=" ">
<polygon fill="white" stroke="black" points="468,-171.5 468,-190.5 527,-190.5 527,-171.5 468,-171.5"/>
<text text-anchor="middle" x="497.5" y="-178.5" font-family="Helvetica,sans-Serif" font-size="10.00">vi_prompt</text>
</a>
</g>
</g>
<!-- Node33&#45;&gt;Node37 -->
<g id="edge57" class="edge">
<title>Node33&#45;&gt;Node37</title>
<path fill="none" stroke="midnightblue" d="M581.26,-223.69C561.15,-213.32 534.52,-199.58 516.97,-190.53"/>
<polygon fill="midnightblue" stroke="midnightblue" points="579.76,-226.86 590.26,-228.33 582.97,-220.64 579.76,-226.86"/>
</g>
<!-- Node34&#45;&gt;Node9 -->
<g id="edge54" class="edge">
<title>Node34&#45;&gt;Node9</title>
<path fill="none" stroke="midnightblue" d="M268.57,-285.64C257.82,-288.65 245.92,-291.97 235,-295 189.66,-307.6 135.88,-322.43 111.16,-329.24"/>
<polygon fill="midnightblue" stroke="midnightblue" points="269.77,-288.94 278.45,-282.88 267.88,-282.2 269.77,-288.94"/>
</g>
<!-- Node35 -->
<g id="node35" class="node">
<title>Node35</title>
<g id="a_node35"><a xlink:href="ex_8c.html#a0908784dc65be2da119a6b72ef96dec2" target="_top" xlink:title=" ">
<polygon fill="white" stroke="black" points="167,-266.5 167,-285.5 223,-285.5 223,-266.5 167,-266.5"/>
<text text-anchor="middle" x="195" y="-273.5" font-family="Helvetica,sans-Serif" font-size="10.00">ec_insert</text>
</a>
</g>
</g>
<!-- Node34&#45;&gt;Node35 -->
<g id="edge53" class="edge">
<title>Node34&#45;&gt;Node35</title>
<path fill="none" stroke="midnightblue" d="M268.23,-276C253.58,-276 236.77,-276 223.06,-276"/>
<polygon fill="midnightblue" stroke="midnightblue" points="268.45,-279.5 278.45,-276 268.45,-272.5 268.45,-279.5"/>
</g>
<!-- Node36 -->
<g id="node36" class="node">
<title>Node36</title>
<g id="a_node36"><a xlink:href="vi_8c.html#a9d85e9ed087401367529ab86a5dbf0c5" target="_top" xlink:title=" ">
<polygon fill="white" stroke="black" points="171.5,-228.5 171.5,-247.5 218.5,-247.5 218.5,-228.5 171.5,-228.5"/>
<text text-anchor="middle" x="195" y="-235.5" font-family="Helvetica,sans-Serif" font-size="10.00">vi_wait</text>
</a>
</g>
</g>
<!-- Node34&#45;&gt;Node36 -->
<g id="edge55" class="edge">
<title>Node34&#45;&gt;Node36</title>
<path fill="none" stroke="midnightblue" d="M268.67,-263.81C252.29,-257.99 233.14,-251.19 218.61,-246.03"/>
<polygon fill="midnightblue" stroke="midnightblue" points="267.86,-267.23 278.45,-267.28 270.2,-260.64 267.86,-267.23"/>
</g>
<!-- Node36&#45;&gt;Node12 -->
<g id="edge56" class="edge">
<title>Node36&#45;&gt;Node12</title>
<path fill="none" stroke="midnightblue" d="M163.98,-223.87C160.92,-222.28 157.88,-220.64 155,-219 139.41,-210.1 122.35,-198.59 110.89,-190.57"/>
<polygon fill="midnightblue" stroke="midnightblue" points="162.59,-227.09 173.09,-228.44 165.72,-220.83 162.59,-227.09"/>
</g>
<!-- Node37&#45;&gt;Node12 -->
<g id="edge58" class="edge">
<title>Node37&#45;&gt;Node12</title>
<path fill="none" stroke="midnightblue" d="M476.15,-165.18C464.05,-156.8 447.99,-147.36 432,-143 310.77,-109.94 157.23,-159.21 111.16,-175.84"/>
<polygon fill="midnightblue" stroke="midnightblue" points="474.41,-168.25 484.56,-171.28 478.52,-162.58 474.41,-168.25"/>
</g>
<!-- Node38 -->
<g id="node38" class="node">
<title>Node38</title>
<g id="a_node38"><a xlink:href="vi_8c.html#ab8e0c9b9d2ef5161c6a3a8828606df5f" target="_top" xlink:title=" ">
<polygon fill="white" stroke="black" points="379,-190.5 379,-209.5 426,-209.5 426,-190.5 379,-190.5"/>
<text text-anchor="middle" x="402.5" y="-197.5" font-family="Helvetica,sans-Serif" font-size="10.00">vi_pipe</text>
</a>
</g>
</g>
<!-- Node37&#45;&gt;Node38 -->
<g id="edge59" class="edge">
<title>Node37&#45;&gt;Node38</title>
<path fill="none" stroke="midnightblue" d="M457.73,-188.92C446.93,-191.13 435.55,-193.45 426.02,-195.4"/>
<polygon fill="midnightblue" stroke="midnightblue" points="458.74,-192.29 467.84,-186.86 457.34,-185.43 458.74,-192.29"/>
</g>
<!-- Node39 -->
<g id="node39" class="node">
<title>Node39</title>
<g id="a_node39"><a xlink:href="vi_8c.html#a93701c59617d4f96cbaa207e89178f87" target="_top" xlink:title=" ">
<polygon fill="white" stroke="black" points="373,-152.5 373,-171.5 432,-171.5 432,-152.5 373,-152.5"/>
<text text-anchor="middle" x="402.5" y="-159.5" font-family="Helvetica,sans-Serif" font-size="10.00">vi_search</text>
</a>
</g>
</g>
<!-- Node37&#45;&gt;Node39 -->
<g id="edge61" class="edge">
<title>Node37&#45;&gt;Node39</title>
<path fill="none" stroke="midnightblue" d="M457.97,-173.13C449.36,-171.37 440.36,-169.53 432.23,-167.87"/>
<polygon fill="midnightblue" stroke="midnightblue" points="457.34,-176.57 467.84,-175.14 458.74,-169.71 457.34,-176.57"/>
</g>
<!-- Node38&#45;&gt;Node31 -->
<g id="edge60" class="edge">
<title>Node38&#45;&gt;Node31</title>
<path fill="none" stroke="midnightblue" d="M368.62,-200C329.35,-200 264.23,-200 226.19,-200"/>
<polygon fill="midnightblue" stroke="midnightblue" points="368.72,-203.5 378.72,-200 368.72,-196.5 368.72,-203.5"/>
</g>
<!-- Node40 -->
<g id="node40" class="node">
<title>Node40</title>
<g id="a_node40"><a xlink:href="vi_8c.html#aaa4777ea0715ea846346d0f27a0cfa3f" target="_top" xlink:title=" ">
<polygon fill="white" stroke="black" points="274.5,-152.5 274.5,-171.5 333.5,-171.5 333.5,-152.5 274.5,-152.5"/>
<text text-anchor="middle" x="304" y="-159.5" font-family="Helvetica,sans-Serif" font-size="10.00">vi_motion</text>
</a>
</g>
</g>
<!-- Node39&#45;&gt;Node40 -->
<g id="edge62" class="edge">
<title>Node39&#45;&gt;Node40</title>
<path fill="none" stroke="midnightblue" d="M362.62,-162C352.98,-162 342.81,-162 333.75,-162"/>
<polygon fill="midnightblue" stroke="midnightblue" points="362.81,-165.5 372.81,-162 362.81,-158.5 362.81,-165.5"/>
</g>
<!-- Node40&#45;&gt;Node12 -->
<g id="edge64" class="edge">
<title>Node40&#45;&gt;Node12</title>
<path fill="none" stroke="midnightblue" d="M264.42,-165.57C217.95,-169.86 142.29,-176.86 111.35,-179.72"/>
<polygon fill="midnightblue" stroke="midnightblue" points="264.79,-169.05 274.43,-164.64 264.15,-162.08 264.79,-169.05"/>
</g>
<!-- Node40&#45;&gt;Node31 -->
<g id="edge63" class="edge">
<title>Node40&#45;&gt;Node31</title>
<path fill="none" stroke="midnightblue" d="M266.47,-174.97C252.22,-180.03 236.17,-185.73 222.99,-190.41"/>
<polygon fill="midnightblue" stroke="midnightblue" points="267.75,-178.23 276,-171.59 265.4,-171.64 267.75,-178.23"/>
</g>
<!-- Node41&#45;&gt;Node12 -->
<g id="edge66" class="edge">
<title>Node41&#45;&gt;Node12</title>
<path fill="none" stroke="midnightblue" d="M261.14,-55.91C229.62,-50.04 186.59,-47.55 155,-67 116.68,-90.59 102.98,-148.45 98.95,-171.4"/>
<polygon fill="midnightblue" stroke="midnightblue" points="260.44,-59.34 270.94,-57.91 261.84,-52.48 260.44,-59.34"/>
</g>
<!-- Node42 -->
<g id="node42" class="node">
<title>Node42</title>
<g id="a_node42"><a xlink:href="vi_8c.html#a2b620fa68325e1b708f07af90f50c3d8" target="_top" xlink:title=" ">
<polygon fill="white" stroke="black" points="158,-0.5 158,-19.5 232,-19.5 232,-0.5 158,-0.5"/>
<text text-anchor="middle" x="195" y="-7.5" font-family="Helvetica,sans-Serif" font-size="10.00">vi_drawagain</text>
</a>
</g>
</g>
<!-- Node41&#45;&gt;Node42 -->
<g id="edge67" class="edge">
<title>Node41&#45;&gt;Node42</title>
<path fill="none" stroke="midnightblue" d="M275.87,-52.55C256.43,-42.19 230.8,-28.54 213.88,-19.53"/>
<polygon fill="midnightblue" stroke="midnightblue" points="274.38,-55.72 284.85,-57.33 277.67,-49.54 274.38,-55.72"/>
</g>
<!-- Node43 -->
<g id="node43" class="node">
<title>Node43</title>
<g id="a_node43"><a xlink:href="vi_8c.html#a9896bc9688f6102408f66aa0ad7e64f9" target="_top" xlink:title=" ">
<polygon fill="white" stroke="black" points="155,-76.5 155,-95.5 235,-95.5 235,-76.5 155,-76.5"/>
<text text-anchor="middle" x="195" y="-83.5" font-family="Helvetica,sans-Serif" font-size="10.00">vi_drawupdate</text>
</a>
</g>
</g>
<!-- Node41&#45;&gt;Node43 -->
<g id="edge69" class="edge">
<title>Node41&#45;&gt;Node43</title>
<path fill="none" stroke="midnightblue" d="M260.87,-74.48C252.43,-75.98 243.6,-77.55 235.27,-79.03"/>
<polygon fill="midnightblue" stroke="midnightblue" points="261.66,-77.9 270.9,-72.7 260.44,-71 261.66,-77.9"/>
</g>
<!-- Node42&#45;&gt;Node12 -->
<g id="edge68" class="edge">
<title>Node42&#45;&gt;Node12</title>
<path fill="none" stroke="midnightblue" d="M164.62,-25.09C161.08,-27.73 157.75,-30.71 155,-34 118.81,-77.32 103.63,-146.11 99.08,-171.33"/>
<polygon fill="midnightblue" stroke="midnightblue" points="166.63,-27.95 173.07,-19.54 162.79,-22.1 166.63,-27.95"/>
</g>
<!-- Node43&#45;&gt;Node12 -->
<g id="edge70" class="edge">
<title>Node43&#45;&gt;Node12</title>
<path fill="none" stroke="midnightblue" d="M167.08,-100.89C162.87,-103.69 158.69,-106.76 155,-110 133.31,-129.05 113.4,-156.9 103.7,-171.41"/>
<polygon fill="midnightblue" stroke="midnightblue" points="169,-103.82 175.65,-95.56 165.31,-97.87 169,-103.82"/>
</g>
</g>
</svg>
        <g id="navigator" transform="translate(0 0)" fill="#404254">
                <rect fill="#f2f5e9" fill-opacity="0.5" stroke="#606060" stroke-width=".5" x="0" y="0" width="60" height="60"/>
                <use id="zoomplus" xlink:href="#zoomPlus" x="17" y="9" onmousedown="handleZoom(evt,'in')"/>
                <use id="zoomminus" xlink:href="#zoomMin" x="42" y="9" onmousedown="handleZoom(evt,'out')"/>
                <use id="reset" xlink:href="#resetDef" x="30" y="36" onmousedown="handleReset()"/>
                <g id="arrowUp" xlink:href="#dirArrow" transform="translate(30 24)" onmousedown="handlePan(0,-1)">
                  <use xlink:href="#rim" fill="#404040">
                        <set attributeName="fill" to="#808080" begin="arrowUp.mouseover" end="arrowUp.mouseout"/>
                  </use>
                  <path fill="none" stroke="white" stroke-width="1.5" d="M0,-3.0v7 M-2.5,-0.5L0,-3.0L2.5,-0.5"/>
                </g>
                <g id="arrowRight" xlink:href="#dirArrow" transform="rotate(90) translate(36 -43)" onmousedown="handlePan(1,0)">
                  <use xlink:href="#rim" fill="#404040">
                        <set attributeName="fill" to="#808080" begin="arrowRight.mouseover" end="arrowRight.mouseout"/>
                  </use>
                  <path fill="none" stroke="white" stroke-width="1.5" d="M0,-3.0v7 M-2.5,-0.5L0,-3.0L2.5,-0.5"/>
                </g>
                <g id="arrowDown" xlink:href="#dirArrow" transform="rotate(180) translate(-30 -48)" onmousedown="handlePan(0,1)">
                  <use xlink:href="#rim" fill="#404040">
                        <set attributeName="fill" to="#808080" begin="arrowDown.mouseover" end="arrowDown.mouseout"/>
                  </use>
                  <path fill="none" stroke="white" stroke-width="1.5" d="M0,-3.0v7 M-2.5,-0.5L0,-3.0L2.5,-0.5"/>
                </g>
                <g id="arrowLeft" xlink:href="#dirArrow" transform="rotate(270) translate(-36 17)" onmousedown="handlePan(-1,0)">
                  <use xlink:href="#rim" fill="#404040">
                        <set attributeName="fill" to="#808080" begin="arrowLeft.mouseover" end="arrowLeft.mouseout"/>
                  </use>
                  <path fill="none" stroke="white" stroke-width="1.5" d="M0,-3.0v7 M-2.5,-0.5L0,-3.0L2.5,-0.5"/>
                </g>
        </g>
        <svg viewBox="0 0 15 15" width="100%" height="30px" preserveAspectRatio="xMaxYMin meet">
         <g id="arrow_out" transform="scale(0.3 0.3)">
          <a xlink:href="led_8c_ade70aef2ca0eab60adda203e063eb5a2_icgraph_org.svg" target="_base">
           <rect id="button" ry="5" rx="5" y="6" x="6" height="38" width="38"
                fill="#f2f5e9" fill-opacity="0.5" stroke="#606060" stroke-width="1.0"/>
           <path id="arrow"
             d="M 11.500037,31.436501 C 11.940474,20.09759 22.043105,11.32322 32.158766,21.979434 L 37.068811,17.246167 C 37.068811,17.246167 37.088388,32 37.088388,32 L 22.160133,31.978069 C 22.160133,31.978069 26.997745,27.140456 26.997745,27.140456 C 18.528582,18.264221 13.291696,25.230495 11.500037,31.436501 z"
             style="fill:#404040;"/>
          </a>
         </g>
        </svg>
</svg>
