<?xml version="1.0" encoding="UTF-8" standalone="no"?>
<!DOCTYPE svg PUBLIC "-//W3C//DTD SVG 1.1//EN"
 "http://www.w3.org/Graphics/SVG/1.1/DTD/svg11.dtd">
<!-- Generated by graphviz version 2.44.1 (20200629.0846)
 -->
<!-- Title: regexec Pages: 1 -->
<svg width="538pt" height="210pt"
 viewBox="0.00 0.00 538.00 209.85" xmlns="http://www.w3.org/2000/svg" xmlns:xlink="http://www.w3.org/1999/xlink">
<g id="graph0" class="graph" transform="scale(1 1) rotate(0) translate(4 205.85)">
<title>regexec</title>
<polygon fill="white" stroke="transparent" points="-4,4 -4,-205.85 534,-205.85 534,4 -4,4"/>
<!-- Node1 -->
<g id="node1" class="node">
<title>Node1</title>
<g id="a_node1"><a xlink:title=" ">
<polygon fill="#bfbfbf" stroke="black" points="0,-30.35 0,-49.35 51,-49.35 51,-30.35 0,-30.35"/>
<text text-anchor="middle" x="25.5" y="-37.35" font-family="Helvetica,sans-Serif" font-size="10.00">regexec</text>
</a>
</g>
</g>
<!-- Node2 -->
<g id="node2" class="node">
<title>Node2</title>
<g id="a_node2"><a xlink:href="regex_8c.html#aa5925e49bd18112bb37421dbde29162a" target="_top" xlink:title=" ">
<polygon fill="white" stroke="black" points="87,-59.35 87,-78.35 158,-78.35 158,-59.35 87,-59.35"/>
<text text-anchor="middle" x="122.5" y="-66.35" font-family="Helvetica,sans-Serif" font-size="10.00">re_recmatch</text>
</a>
</g>
</g>
<!-- Node1&#45;&gt;Node2 -->
<g id="edge1" class="edge">
<title>Node1&#45;&gt;Node2</title>
<path fill="none" stroke="midnightblue" d="M51.46,-47.47C60.37,-50.19 70.65,-53.33 80.54,-56.35"/>
<polygon fill="midnightblue" stroke="midnightblue" points="79.66,-59.74 90.25,-59.31 81.7,-53.04 79.66,-59.74"/>
</g>
<!-- Node8 -->
<g id="node8" class="node">
<title>Node8</title>
<g id="a_node8"><a xlink:href="regex_8c.html#a9a0d6d5f93f1eaba8b63b16903c0952d" target="_top" xlink:title=" ">
<polygon fill="white" stroke="black" points="483.5,-68.35 483.5,-87.35 528.5,-87.35 528.5,-68.35 483.5,-68.35"/>
<text text-anchor="middle" x="506" y="-75.35" font-family="Helvetica,sans-Serif" font-size="10.00">uc_len</text>
</a>
</g>
</g>
<!-- Node1&#45;&gt;Node8 -->
<g id="edge12" class="edge">
<title>Node1&#45;&gt;Node8</title>
<path fill="none" stroke="midnightblue" d="M51.18,-31.61C86.89,-20.43 155.24,-1.85 215,-1.85 215,-1.85 215,-1.85 312,-1.85 372.15,-1.85 391.96,5.56 446,-20.85 464.68,-29.98 481.25,-47.24 492.03,-60.38"/>
<polygon fill="midnightblue" stroke="midnightblue" points="489.32,-62.6 498.25,-68.3 494.83,-58.27 489.32,-62.6"/>
</g>
<!-- Node3 -->
<g id="node3" class="node">
<title>Node3</title>
<g id="a_node3"><a xlink:href="regex_8c.html#a8e35614ddf21d405773327a52a95a73d" target="_top" xlink:title=" ">
<polygon fill="white" stroke="black" points="194,-78.35 194,-97.35 238,-97.35 238,-78.35 194,-78.35"/>
<text text-anchor="middle" x="216" y="-85.35" font-family="Helvetica,sans-Serif" font-size="10.00">re_rec</text>
</a>
</g>
</g>
<!-- Node2&#45;&gt;Node3 -->
<g id="edge2" class="edge">
<title>Node2&#45;&gt;Node3</title>
<path fill="none" stroke="midnightblue" d="M158.09,-76.03C166.56,-77.79 175.57,-79.66 183.87,-81.39"/>
<polygon fill="midnightblue" stroke="midnightblue" points="183.4,-84.86 193.9,-83.47 184.82,-78.01 183.4,-84.86"/>
</g>
<!-- Node4 -->
<g id="node4" class="node">
<title>Node4</title>
<g id="a_node4"><a xlink:href="regex_8c.html#a24fd1fc7457ff4f03fb384f7170ac395" target="_top" xlink:title=" ">
<polygon fill="white" stroke="black" points="274,-87.35 274,-106.35 348,-106.35 348,-87.35 274,-87.35"/>
<text text-anchor="middle" x="311" y="-94.35" font-family="Helvetica,sans-Serif" font-size="10.00">ratom_match</text>
</a>
</g>
</g>
<!-- Node3&#45;&gt;Node4 -->
<g id="edge3" class="edge">
<title>Node3&#45;&gt;Node4</title>
<path fill="none" stroke="midnightblue" d="M238.1,-89.89C245.73,-90.63 254.68,-91.5 263.63,-92.36"/>
<polygon fill="midnightblue" stroke="midnightblue" points="263.36,-95.85 273.65,-93.33 264.03,-88.89 263.36,-95.85"/>
</g>
<!-- Node5 -->
<g id="node5" class="node">
<title>Node5</title>
<g id="a_node5"><a xlink:href="regex_8c.html#aae17ed73e84075718fb04d131d6ca779" target="_top" xlink:title=" ">
<polygon fill="white" stroke="black" points="384,-106.35 384,-125.35 446,-125.35 446,-106.35 384,-106.35"/>
<text text-anchor="middle" x="415" y="-113.35" font-family="Helvetica,sans-Serif" font-size="10.00">brk_match</text>
</a>
</g>
</g>
<!-- Node4&#45;&gt;Node5 -->
<g id="edge4" class="edge">
<title>Node4&#45;&gt;Node5</title>
<path fill="none" stroke="midnightblue" d="M348.25,-103.6C356.55,-105.15 365.43,-106.8 373.89,-108.38"/>
<polygon fill="midnightblue" stroke="midnightblue" points="373.45,-111.86 383.93,-110.25 374.74,-104.98 373.45,-111.86"/>
</g>
<!-- Node7 -->
<g id="node7" class="node">
<title>Node7</title>
<g id="a_node7"><a xlink:href="regex_8c.html#aaf73cdb88048e7f9fd588eb8d5aeb5a3" target="_top" xlink:title=" ">
<polygon fill="white" stroke="black" points="482,-144.35 482,-163.35 530,-163.35 530,-144.35 482,-144.35"/>
<text text-anchor="middle" x="506" y="-151.35" font-family="Helvetica,sans-Serif" font-size="10.00">uc_dec</text>
</a>
</g>
</g>
<!-- Node4&#45;&gt;Node7 -->
<g id="edge10" class="edge">
<title>Node4&#45;&gt;Node7</title>
<path fill="none" stroke="midnightblue" d="M326.53,-106.37C340.63,-115.15 362.94,-127.86 384,-134.85 412.65,-144.37 446.75,-149.17 471.43,-151.57"/>
<polygon fill="midnightblue" stroke="midnightblue" points="471.45,-155.08 481.72,-152.48 472.07,-148.11 471.45,-155.08"/>
</g>
<!-- Node4&#45;&gt;Node8 -->
<g id="edge11" class="edge">
<title>Node4&#45;&gt;Node8</title>
<path fill="none" stroke="midnightblue" d="M348.3,-93.28C384.32,-89.73 438.97,-84.35 473.3,-80.97"/>
<polygon fill="midnightblue" stroke="midnightblue" points="473.64,-84.46 483.25,-79.99 472.96,-77.49 473.64,-84.46"/>
</g>
<!-- Node9 -->
<g id="node9" class="node">
<title>Node9</title>
<g id="a_node9"><a xlink:href="regex_8c.html#a35ad3fd0dbb795e6f30404ce86a7be5b" target="_top" xlink:title=" ">
<polygon fill="white" stroke="black" points="392.5,-30.35 392.5,-49.35 437.5,-49.35 437.5,-30.35 392.5,-30.35"/>
<text text-anchor="middle" x="415" y="-37.35" font-family="Helvetica,sans-Serif" font-size="10.00">isword</text>
</a>
</g>
</g>
<!-- Node4&#45;&gt;Node9 -->
<g id="edge8" class="edge">
<title>Node4&#45;&gt;Node9</title>
<path fill="none" stroke="midnightblue" d="M329.3,-87.18C345.45,-78.16 369.74,-64.58 388.18,-54.28"/>
<polygon fill="midnightblue" stroke="midnightblue" points="389.93,-57.31 396.95,-49.38 386.52,-51.2 389.93,-57.31"/>
</g>
<!-- Node10 -->
<g id="node10" class="node">
<title>Node10</title>
<g id="a_node10"><a xlink:href="regex_8c.html#ade3e10606e6e8866e6151fe8440d6101" target="_top" xlink:title=" ">
<polygon fill="white" stroke="black" points="391,-182.35 391,-201.35 439,-201.35 439,-182.35 391,-182.35"/>
<text text-anchor="middle" x="415" y="-189.35" font-family="Helvetica,sans-Serif" font-size="10.00">uc_beg</text>
</a>
</g>
</g>
<!-- Node4&#45;&gt;Node10 -->
<g id="edge9" class="edge">
<title>Node4&#45;&gt;Node10</title>
<path fill="none" stroke="midnightblue" d="M321.02,-106.36C334.38,-120.29 360.38,-146.86 384,-167.85 387.05,-170.57 390.36,-173.35 393.63,-176.03"/>
<polygon fill="midnightblue" stroke="midnightblue" points="391.51,-178.81 401.5,-182.32 395.88,-173.34 391.51,-178.81"/>
</g>
<!-- Node6 -->
<g id="node6" class="node">
<title>Node6</title>
<g id="a_node6"><a xlink:href="regex_8c.html#acc18ff8d2687611a9e221b3329b02413" target="_top" xlink:title=" ">
<polygon fill="white" stroke="black" points="482,-106.35 482,-125.35 530,-125.35 530,-106.35 482,-106.35"/>
<text text-anchor="middle" x="506" y="-113.35" font-family="Helvetica,sans-Serif" font-size="10.00">brk_len</text>
</a>
</g>
</g>
<!-- Node5&#45;&gt;Node6 -->
<g id="edge5" class="edge">
<title>Node5&#45;&gt;Node6</title>
<path fill="none" stroke="midnightblue" d="M446.13,-115.85C454.36,-115.85 463.32,-115.85 471.71,-115.85"/>
<polygon fill="midnightblue" stroke="midnightblue" points="471.94,-119.35 481.94,-115.85 471.94,-112.35 471.94,-119.35"/>
</g>
<!-- Node5&#45;&gt;Node7 -->
<g id="edge6" class="edge">
<title>Node5&#45;&gt;Node7</title>
<path fill="none" stroke="midnightblue" d="M438.46,-125.44C449,-129.94 461.75,-135.38 473.25,-140.3"/>
<polygon fill="midnightblue" stroke="midnightblue" points="471.98,-143.56 482.55,-144.27 474.73,-137.12 471.98,-143.56"/>
</g>
<!-- Node5&#45;&gt;Node8 -->
<g id="edge7" class="edge">
<title>Node5&#45;&gt;Node8</title>
<path fill="none" stroke="midnightblue" d="M438.46,-106.26C449.24,-101.66 462.33,-96.07 474.04,-91.07"/>
<polygon fill="midnightblue" stroke="midnightblue" points="475.65,-94.19 483.47,-87.04 472.9,-87.75 475.65,-94.19"/>
</g>
</g>
</svg>
