<?xml version="1.0" encoding="UTF-8" standalone="no"?>
<!DOCTYPE svg PUBLIC "-//W3C//DTD SVG 1.1//EN"
 "http://www.w3.org/Graphics/SVG/1.1/DTD/svg11.dtd">
<!-- Generated by graphviz version 2.44.1 (20200629.0846)
 -->
<!-- Title: rnode_seq Pages: 1 -->
<svg width="1445pt" height="629pt"
 viewBox="0.00 0.00 1445.00 628.92" xmlns="http://www.w3.org/2000/svg" xmlns:xlink="http://www.w3.org/1999/xlink">
<g id="graph0" class="graph" transform="scale(1 1) rotate(0) translate(4 624.92)">
<title>rnode_seq</title>
<polygon fill="white" stroke="transparent" points="-4,4 -4,-624.92 1441,-624.92 1441,4 -4,4"/>
<!-- Node1 -->
<g id="node1" class="node">
<title>Node1</title>
<g id="a_node1"><a xlink:title=" ">
<polygon fill="#bfbfbf" stroke="black" points="1375,-294.5 1375,-313.5 1437,-313.5 1437,-294.5 1375,-294.5"/>
<text text-anchor="middle" x="1406" y="-301.5" font-family="Helvetica,sans-Serif" font-size="10.00">rnode_seq</text>
</a>
</g>
</g>
<!-- Node2 -->
<g id="node2" class="node">
<title>Node2</title>
<g id="a_node2"><a xlink:href="regex_8c.html#ac19329676c1426f2b24af24e33e3a845" target="_top" xlink:title=" ">
<polygon fill="white" stroke="black" points="1269,-313.5 1269,-332.5 1339,-332.5 1339,-313.5 1269,-313.5"/>
<text text-anchor="middle" x="1304" y="-320.5" font-family="Helvetica,sans-Serif" font-size="10.00">rnode_parse</text>
</a>
</g>
</g>
<!-- Node1&#45;&gt;Node2 -->
<g id="edge1" class="edge">
<title>Node1&#45;&gt;Node2</title>
<path fill="none" stroke="midnightblue" d="M1365.16,-311.57C1356.56,-313.2 1347.55,-314.92 1339.19,-316.5"/>
<polygon fill="midnightblue" stroke="midnightblue" points="1365.83,-315.01 1375,-309.7 1364.52,-308.13 1365.83,-315.01"/>
</g>
<!-- Node3 -->
<g id="node3" class="node">
<title>Node3</title>
<g id="a_node3"><a xlink:href="regex_8h.html#a59fe05f85394b1aa81ef2ea67fa0ab49" target="_top" xlink:title=" ">
<polygon fill="white" stroke="black" points="1176.5,-351.5 1176.5,-370.5 1230.5,-370.5 1230.5,-351.5 1176.5,-351.5"/>
<text text-anchor="middle" x="1203.5" y="-358.5" font-family="Helvetica,sans-Serif" font-size="10.00">regcomp</text>
</a>
</g>
</g>
<!-- Node2&#45;&gt;Node3 -->
<g id="edge2" class="edge">
<title>Node2&#45;&gt;Node3</title>
<path fill="none" stroke="midnightblue" d="M1268.62,-336.26C1255.69,-341.25 1241.25,-346.82 1229.35,-351.41"/>
<polygon fill="midnightblue" stroke="midnightblue" points="1270.07,-339.45 1278.14,-332.59 1267.55,-332.92 1270.07,-339.45"/>
</g>
<!-- Node40 -->
<g id="node40" class="node">
<title>Node40</title>
<g id="a_node40"><a xlink:href="regex_8c.html#aaeda19c8b3704252a342cdcc7fc3591c" target="_top" xlink:title=" ">
<polygon fill="white" stroke="black" points="1174,-313.5 1174,-332.5 1233,-332.5 1233,-313.5 1174,-313.5"/>
<text text-anchor="middle" x="1203.5" y="-320.5" font-family="Helvetica,sans-Serif" font-size="10.00">rnode_grp</text>
</a>
</g>
</g>
<!-- Node2&#45;&gt;Node40 -->
<g id="edge54" class="edge">
<title>Node2&#45;&gt;Node40</title>
<path fill="none" stroke="midnightblue" d="M1258.75,-323C1250.03,-323 1241.09,-323 1233.06,-323"/>
<polygon fill="midnightblue" stroke="midnightblue" points="1258.83,-326.5 1268.83,-323 1258.83,-319.5 1258.83,-326.5"/>
</g>
<!-- Node4 -->
<g id="node4" class="node">
<title>Node4</title>
<g id="a_node4"><a xlink:href="vi_8h.html#a121f237bc2c9c9ef98fd8b3c590fc309" target="_top" xlink:title=" ">
<polygon fill="white" stroke="black" points="1073,-351.5 1073,-370.5 1135,-370.5 1135,-351.5 1073,-351.5"/>
<text text-anchor="middle" x="1104" y="-358.5" font-family="Helvetica,sans-Serif" font-size="10.00">rset_make</text>
</a>
</g>
</g>
<!-- Node3&#45;&gt;Node4 -->
<g id="edge3" class="edge">
<title>Node3&#45;&gt;Node4</title>
<path fill="none" stroke="midnightblue" d="M1166.16,-361C1156.02,-361 1145.11,-361 1135.35,-361"/>
<polygon fill="midnightblue" stroke="midnightblue" points="1166.37,-364.5 1176.37,-361 1166.37,-357.5 1166.37,-364.5"/>
</g>
<!-- Node5 -->
<g id="node5" class="node">
<title>Node5</title>
<g id="a_node5"><a xlink:href="vi_8h.html#a81435de4d45a78c51fd3f02c4326064f" target="_top" xlink:title=" ">
<polygon fill="white" stroke="black" points="785,-598.5 785,-617.5 830,-617.5 830,-598.5 785,-598.5"/>
<text text-anchor="middle" x="807.5" y="-605.5" font-family="Helvetica,sans-Serif" font-size="10.00">dir_init</text>
</a>
</g>
</g>
<!-- Node4&#45;&gt;Node5 -->
<g id="edge4" class="edge">
<title>Node4&#45;&gt;Node5</title>
<path fill="none" stroke="midnightblue" d="M1103.53,-380.59C1103.54,-424.78 1096.76,-532.37 1034,-584 974.41,-633.02 873.88,-621.05 830.03,-612.74"/>
<polygon fill="midnightblue" stroke="midnightblue" points="1107.02,-380.53 1103.4,-370.57 1100.03,-380.61 1107.02,-380.53"/>
</g>
<!-- Node7 -->
<g id="node7" class="node">
<title>Node7</title>
<g id="a_node7"><a xlink:href="ex_8c.html#a70c571bdde329a65e216c19b4aeaa628" target="_top" xlink:title=" ">
<polygon fill="white" stroke="black" points="559,-427.5 559,-446.5 609,-446.5 609,-427.5 559,-427.5"/>
<text text-anchor="middle" x="584" y="-434.5" font-family="Helvetica,sans-Serif" font-size="10.00">ec_glob</text>
</a>
</g>
</g>
<!-- Node4&#45;&gt;Node7 -->
<g id="edge6" class="edge">
<title>Node4&#45;&gt;Node7</title>
<path fill="none" stroke="midnightblue" d="M1095.75,-379.82C1074.61,-431.19 1007.78,-570 903,-570 903,-570 903,-570 806.5,-570 743.93,-570 720.63,-583.24 667,-551 624.79,-525.63 598.14,-469.32 588.77,-446.69"/>
<polygon fill="midnightblue" stroke="midnightblue" points="1099.01,-381.11 1099.47,-370.52 1092.51,-378.51 1099.01,-381.11"/>
</g>
<!-- Node14 -->
<g id="node14" class="node">
<title>Node14</title>
<g id="a_node14"><a xlink:href="ex_8c.html#aaf4e813ce4370aa859181d22de51576b" target="_top" xlink:title=" ">
<polygon fill="white" stroke="black" points="667,-522.5 667,-541.5 742,-541.5 742,-522.5 667,-522.5"/>
<text text-anchor="middle" x="704.5" y="-529.5" font-family="Helvetica,sans-Serif" font-size="10.00">ec_substitute</text>
</a>
</g>
</g>
<!-- Node4&#45;&gt;Node14 -->
<g id="edge17" class="edge">
<title>Node4&#45;&gt;Node14</title>
<path fill="none" stroke="midnightblue" d="M1071.5,-374.55C993.85,-407.95 794.72,-493.62 727.81,-522.4"/>
<polygon fill="midnightblue" stroke="midnightblue" points="1072.97,-377.73 1080.78,-370.56 1070.21,-371.3 1072.97,-377.73"/>
</g>
<!-- Node15 -->
<g id="node15" class="node">
<title>Node15</title>
<g id="a_node15"><a xlink:href="ex_8c.html#af441de070082a23574854f6a2e5cd08a" target="_top" xlink:title=" ">
<polygon fill="white" stroke="black" points="969.5,-351.5 969.5,-370.5 1031.5,-370.5 1031.5,-351.5 969.5,-351.5"/>
<text text-anchor="middle" x="1000.5" y="-358.5" font-family="Helvetica,sans-Serif" font-size="10.00">ex_search</text>
</a>
</g>
</g>
<!-- Node4&#45;&gt;Node15 -->
<g id="edge18" class="edge">
<title>Node4&#45;&gt;Node15</title>
<path fill="none" stroke="midnightblue" d="M1062.75,-361C1052.42,-361 1041.47,-361 1031.74,-361"/>
<polygon fill="midnightblue" stroke="midnightblue" points="1062.82,-364.5 1072.82,-361 1062.82,-357.5 1062.82,-364.5"/>
</g>
<!-- Node33 -->
<g id="node33" class="node">
<title>Node33</title>
<g id="a_node33"><a xlink:href="vi_8h.html#a3501f6f6f283556b872bd145c6129d37" target="_top" xlink:title=" ">
<polygon fill="white" stroke="black" points="967,-313.5 967,-332.5 1034,-332.5 1034,-313.5 967,-313.5"/>
<text text-anchor="middle" x="1000.5" y="-320.5" font-family="Helvetica,sans-Serif" font-size="10.00">lbuf_search</text>
</a>
</g>
</g>
<!-- Node4&#45;&gt;Node33 -->
<g id="edge43" class="edge">
<title>Node4&#45;&gt;Node33</title>
<path fill="none" stroke="midnightblue" d="M1067.96,-347.88C1054.54,-342.86 1039.48,-337.22 1027.1,-332.59"/>
<polygon fill="midnightblue" stroke="midnightblue" points="1066.79,-351.18 1077.39,-351.41 1069.25,-344.63 1066.79,-351.18"/>
</g>
<!-- Node38 -->
<g id="node38" class="node">
<title>Node38</title>
<g id="a_node38"><a xlink:href="vi_8h.html#a5ca5f67cbe20ba50389c586990d3582c" target="_top" xlink:title=" ">
<polygon fill="white" stroke="black" points="877,-237.5 877,-256.5 927,-256.5 927,-237.5 877,-237.5"/>
<text text-anchor="middle" x="902" y="-244.5" font-family="Helvetica,sans-Serif" font-size="10.00">syn_init</text>
</a>
</g>
</g>
<!-- Node4&#45;&gt;Node38 -->
<g id="edge50" class="edge">
<title>Node4&#45;&gt;Node38</title>
<path fill="none" stroke="midnightblue" d="M1085.45,-344.14C1072.1,-331.92 1052.86,-315.58 1034,-304 998.91,-282.46 954.24,-264.89 927.18,-255.2"/>
<polygon fill="midnightblue" stroke="midnightblue" points="1083.25,-346.87 1092.95,-351.13 1088.02,-341.75 1083.25,-346.87"/>
</g>
<!-- Node39 -->
<g id="node39" class="node">
<title>Node39</title>
<g id="a_node39"><a xlink:href="syn_8c.html#a6e5fc3b0777302300322f64f2c7f0142" target="_top" xlink:title=" ">
<polygon fill="white" stroke="black" points="972.5,-237.5 972.5,-256.5 1028.5,-256.5 1028.5,-237.5 972.5,-237.5"/>
<text text-anchor="middle" x="1000.5" y="-244.5" font-family="Helvetica,sans-Serif" font-size="10.00">syn_initft</text>
</a>
</g>
</g>
<!-- Node4&#45;&gt;Node39 -->
<g id="edge52" class="edge">
<title>Node4&#45;&gt;Node39</title>
<path fill="none" stroke="midnightblue" d="M1086.98,-343.36C1081.44,-337.06 1075.31,-329.83 1070,-323 1052.76,-300.8 1053.57,-291.18 1034,-271 1028.82,-265.66 1022.36,-260.63 1016.57,-256.57"/>
<polygon fill="midnightblue" stroke="midnightblue" points="1084.74,-346.12 1094.01,-351.25 1089.97,-341.46 1084.74,-346.12"/>
</g>
<!-- Node6 -->
<g id="node6" class="node">
<title>Node6</title>
<g id="a_node6"><a xlink:href="vi_8c.html#a0ddf1224851353fc92bfbff6f499fa97" target="_top" xlink:title=" ">
<polygon fill="white" stroke="black" points="0,-104.5 0,-123.5 38,-123.5 38,-104.5 0,-104.5"/>
<text text-anchor="middle" x="19" y="-111.5" font-family="Helvetica,sans-Serif" font-size="10.00">main</text>
</a>
</g>
</g>
<!-- Node5&#45;&gt;Node6 -->
<g id="edge5" class="edge">
<title>Node5&#45;&gt;Node6</title>
<path fill="none" stroke="midnightblue" d="M774.67,-608C731.65,-608 652.53,-608 585,-608 585,-608 585,-608 191.5,-608 85.05,-608 29.72,-193.49 21.17,-123.87"/>
<polygon fill="midnightblue" stroke="midnightblue" points="774.81,-611.5 784.81,-608 774.81,-604.5 774.81,-611.5"/>
</g>
<!-- Node8 -->
<g id="node8" class="node">
<title>Node8</title>
<g id="a_node8"><a xlink:href="ex_8c.html#a7d848d20211b2e1c868dde98ec5dfae9" target="_top" xlink:title=" ">
<polygon fill="white" stroke="black" points="361.5,-298.5 361.5,-317.5 408.5,-317.5 408.5,-298.5 361.5,-298.5"/>
<text text-anchor="middle" x="385" y="-305.5" font-family="Helvetica,sans-Serif" font-size="10.00">ex_line</text>
</a>
</g>
</g>
<!-- Node7&#45;&gt;Node8 -->
<g id="edge7" class="edge">
<title>Node7&#45;&gt;Node8</title>
<path fill="none" stroke="midnightblue" d="M559.66,-421.71C518.61,-394.83 434.64,-339.85 400.71,-317.63"/>
<polygon fill="midnightblue" stroke="midnightblue" points="557.91,-424.75 568.19,-427.3 561.74,-418.9 557.91,-424.75"/>
</g>
<!-- Node9 -->
<g id="node9" class="node">
<title>Node9</title>
<g id="a_node9"><a xlink:href="ex_8c.html#ab15ebfef933256d9741128e2ddf3f9b5" target="_top" xlink:title=" ">
<polygon fill="white" stroke="black" points="269,-298.5 269,-317.5 322,-317.5 322,-298.5 269,-298.5"/>
<text text-anchor="middle" x="295.5" y="-305.5" font-family="Helvetica,sans-Serif" font-size="10.00">ex_exec</text>
</a>
</g>
</g>
<!-- Node8&#45;&gt;Node9 -->
<g id="edge8" class="edge">
<title>Node8&#45;&gt;Node9</title>
<path fill="none" stroke="midnightblue" d="M351.36,-308C341.68,-308 331.21,-308 322.05,-308"/>
<polygon fill="midnightblue" stroke="midnightblue" points="351.47,-311.5 361.47,-308 351.47,-304.5 351.47,-311.5"/>
</g>
<!-- Node9&#45;&gt;Node7 -->
<g id="edge9" class="edge">
<title>Node9&#45;&gt;Node7</title>
<path fill="none" stroke="midnightblue" d="M325.48,-322.04C355.31,-336.41 403.19,-359.22 445,-378 485.17,-396.05 532.44,-415.98 559.94,-427.44"/>
<polygon fill="midnightblue" stroke="midnightblue" points="326.62,-318.71 316.09,-317.51 323.58,-325.01 326.62,-318.71"/>
</g>
<!-- Node10 -->
<g id="node10" class="node">
<title>Node10</title>
<g id="a_node10"><a xlink:href="vi_8h.html#aa75c73cccb4878ec06ea5bf5b1b02295" target="_top" xlink:title=" ">
<polygon fill="white" stroke="black" points="155,-142.5 155,-161.5 230,-161.5 230,-142.5 155,-142.5"/>
<text text-anchor="middle" x="192.5" y="-149.5" font-family="Helvetica,sans-Serif" font-size="10.00">ex_command</text>
</a>
</g>
</g>
<!-- Node9&#45;&gt;Node10 -->
<g id="edge10" class="edge">
<title>Node9&#45;&gt;Node10</title>
<path fill="none" stroke="midnightblue" d="M282.52,-289.5C260.96,-256.19 216.32,-187.25 199.82,-161.75"/>
<polygon fill="midnightblue" stroke="midnightblue" points="279.81,-291.75 288.18,-298.24 285.69,-287.95 279.81,-291.75"/>
</g>
<!-- Node11 -->
<g id="node11" class="node">
<title>Node11</title>
<g id="a_node11"><a xlink:href="vi_8h.html#ac395e51f25330a6e6033b6d0d22b2076" target="_top" xlink:title=" ">
<polygon fill="white" stroke="black" points="82,-142.5 82,-161.5 111,-161.5 111,-142.5 82,-142.5"/>
<text text-anchor="middle" x="96.5" y="-149.5" font-family="Helvetica,sans-Serif" font-size="10.00">ex</text>
</a>
</g>
</g>
<!-- Node10&#45;&gt;Node11 -->
<g id="edge11" class="edge">
<title>Node10&#45;&gt;Node11</title>
<path fill="none" stroke="midnightblue" d="M144.73,-152C132.54,-152 120.33,-152 111.38,-152"/>
<polygon fill="midnightblue" stroke="midnightblue" points="144.89,-155.5 154.89,-152 144.89,-148.5 144.89,-155.5"/>
</g>
<!-- Node12 -->
<g id="node12" class="node">
<title>Node12</title>
<g id="a_node12"><a xlink:href="vi_8h.html#abe53b5c10f94f20cd5ed024371615fa1" target="_top" xlink:title=" ">
<polygon fill="white" stroke="black" points="74,-104.5 74,-123.5 119,-123.5 119,-104.5 74,-104.5"/>
<text text-anchor="middle" x="96.5" y="-111.5" font-family="Helvetica,sans-Serif" font-size="10.00">ex_init</text>
</a>
</g>
</g>
<!-- Node10&#45;&gt;Node12 -->
<g id="edge13" class="edge">
<title>Node10&#45;&gt;Node12</title>
<path fill="none" stroke="midnightblue" d="M158.25,-138.56C145.31,-133.33 130.85,-127.48 119.28,-122.8"/>
<polygon fill="midnightblue" stroke="midnightblue" points="157.2,-141.91 167.78,-142.41 159.82,-135.42 157.2,-141.91"/>
</g>
<!-- Node13 -->
<g id="node13" class="node">
<title>Node13</title>
<g id="a_node13"><a xlink:href="vi_8c.html#a8d808e0f3453afe6600673ee1ea5f828" target="_top" xlink:title=" ">
<polygon fill="white" stroke="black" points="82,-66.5 82,-85.5 111,-85.5 111,-66.5 82,-66.5"/>
<text text-anchor="middle" x="96.5" y="-73.5" font-family="Helvetica,sans-Serif" font-size="10.00">vi</text>
</a>
</g>
</g>
<!-- Node10&#45;&gt;Node13 -->
<g id="edge15" class="edge">
<title>Node10&#45;&gt;Node13</title>
<path fill="none" stroke="midnightblue" d="M171.61,-135.92C152.72,-120.65 124.94,-98.18 109.31,-85.55"/>
<polygon fill="midnightblue" stroke="midnightblue" points="169.62,-138.81 179.59,-142.37 174.02,-133.37 169.62,-138.81"/>
</g>
<!-- Node11&#45;&gt;Node6 -->
<g id="edge12" class="edge">
<title>Node11&#45;&gt;Node6</title>
<path fill="none" stroke="midnightblue" d="M72.56,-140.45C61.48,-134.88 48.39,-128.29 38.04,-123.08"/>
<polygon fill="midnightblue" stroke="midnightblue" points="71.15,-143.66 81.65,-145.03 74.29,-137.41 71.15,-143.66"/>
</g>
<!-- Node12&#45;&gt;Node6 -->
<g id="edge14" class="edge">
<title>Node12&#45;&gt;Node6</title>
<path fill="none" stroke="midnightblue" d="M63.55,-114C54.99,-114 46.03,-114 38.47,-114"/>
<polygon fill="midnightblue" stroke="midnightblue" points="63.66,-117.5 73.66,-114 63.66,-110.5 63.66,-117.5"/>
</g>
<!-- Node13&#45;&gt;Node6 -->
<g id="edge16" class="edge">
<title>Node13&#45;&gt;Node6</title>
<path fill="none" stroke="midnightblue" d="M72.56,-87.55C61.48,-93.12 48.39,-99.71 38.04,-104.92"/>
<polygon fill="midnightblue" stroke="midnightblue" points="74.29,-90.59 81.65,-82.97 71.15,-84.34 74.29,-90.59"/>
</g>
<!-- Node16 -->
<g id="node16" class="node">
<title>Node16</title>
<g id="a_node16"><a xlink:href="ex_8c.html#a18295939fcd9d9ef517157b0f4ff5f97" target="_top" xlink:title=" ">
<polygon fill="white" stroke="black" points="873,-351.5 873,-370.5 931,-370.5 931,-351.5 873,-351.5"/>
<text text-anchor="middle" x="902" y="-358.5" font-family="Helvetica,sans-Serif" font-size="10.00">ex_lineno</text>
</a>
</g>
</g>
<!-- Node15&#45;&gt;Node16 -->
<g id="edge19" class="edge">
<title>Node15&#45;&gt;Node16</title>
<path fill="none" stroke="midnightblue" d="M959.39,-361C949.85,-361 939.87,-361 931.01,-361"/>
<polygon fill="midnightblue" stroke="midnightblue" points="959.5,-364.5 969.5,-361 959.5,-357.5 959.5,-364.5"/>
</g>
<!-- Node17 -->
<g id="node17" class="node">
<title>Node17</title>
<g id="a_node17"><a xlink:href="ex_8c.html#a0389d594366ccbd24d732bdfd870f763" target="_top" xlink:title=" ">
<polygon fill="white" stroke="black" points="778,-313.5 778,-332.5 837,-332.5 837,-313.5 778,-313.5"/>
<text text-anchor="middle" x="807.5" y="-320.5" font-family="Helvetica,sans-Serif" font-size="10.00">ex_region</text>
</a>
</g>
</g>
<!-- Node16&#45;&gt;Node17 -->
<g id="edge20" class="edge">
<title>Node16&#45;&gt;Node17</title>
<path fill="none" stroke="midnightblue" d="M868.35,-347.59C856.3,-342.64 842.9,-337.13 831.83,-332.59"/>
<polygon fill="midnightblue" stroke="midnightblue" points="867.08,-350.85 877.66,-351.41 869.74,-344.37 867.08,-350.85"/>
</g>
<!-- Node17&#45;&gt;Node7 -->
<g id="edge24" class="edge">
<title>Node17&#45;&gt;Node7</title>
<path fill="none" stroke="midnightblue" d="M801.19,-342.28C790.47,-379.64 765.28,-459.59 742,-475 695.7,-505.65 627.1,-466.16 598.39,-446.69"/>
<polygon fill="midnightblue" stroke="midnightblue" points="804.59,-343.14 803.93,-332.56 797.85,-341.24 804.59,-343.14"/>
</g>
<!-- Node17&#45;&gt;Node14 -->
<g id="edge33" class="edge">
<title>Node17&#45;&gt;Node14</title>
<path fill="none" stroke="midnightblue" d="M801.46,-342.34C790.3,-384.13 762.83,-481.28 742,-508 737.52,-513.74 731.27,-518.55 725.2,-522.32"/>
<polygon fill="midnightblue" stroke="midnightblue" points="804.88,-343.11 804.05,-332.55 798.11,-341.32 804.88,-343.11"/>
</g>
<!-- Node18 -->
<g id="node18" class="node">
<title>Node18</title>
<g id="a_node18"><a xlink:href="ex_8c.html#a4cd0748447515b7a935e4bb41424a9e4" target="_top" xlink:title=" ">
<polygon fill="white" stroke="black" points="675,-66.5 675,-85.5 734,-85.5 734,-66.5 675,-66.5"/>
<text text-anchor="middle" x="704.5" y="-73.5" font-family="Helvetica,sans-Serif" font-size="10.00">ec_delete</text>
</a>
</g>
</g>
<!-- Node17&#45;&gt;Node18 -->
<g id="edge21" class="edge">
<title>Node17&#45;&gt;Node18</title>
<path fill="none" stroke="midnightblue" d="M803.01,-303.37C793.97,-254.27 768.62,-127.7 742,-95 738.93,-91.23 734.92,-88.13 730.68,-85.6"/>
<polygon fill="midnightblue" stroke="midnightblue" points="799.6,-304.14 804.82,-313.36 806.48,-302.89 799.6,-304.14"/>
</g>
<!-- Node19 -->
<g id="node19" class="node">
<title>Node19</title>
<g id="a_node19"><a xlink:href="ex_8c.html#adcd83f163f659bd2596bcfc25d74bde9" target="_top" xlink:title=" ">
<polygon fill="white" stroke="black" points="446.5,-256.5 446.5,-275.5 499.5,-275.5 499.5,-256.5 446.5,-256.5"/>
<text text-anchor="middle" x="473" y="-263.5" font-family="Helvetica,sans-Serif" font-size="10.00">ec_exec</text>
</a>
</g>
</g>
<!-- Node17&#45;&gt;Node19 -->
<g id="edge22" class="edge">
<title>Node17&#45;&gt;Node19</title>
<path fill="none" stroke="midnightblue" d="M767.9,-316.38C699.34,-304.63 558.08,-280.41 499.91,-270.44"/>
<polygon fill="midnightblue" stroke="midnightblue" points="767.42,-319.85 777.86,-318.09 768.6,-312.95 767.42,-319.85"/>
</g>
<!-- Node20 -->
<g id="node20" class="node">
<title>Node20</title>
<g id="a_node20"><a xlink:href="ex_8c.html#a0908784dc65be2da119a6b72ef96dec2" target="_top" xlink:title=" ">
<polygon fill="white" stroke="black" points="676.5,-446.5 676.5,-465.5 732.5,-465.5 732.5,-446.5 676.5,-446.5"/>
<text text-anchor="middle" x="704.5" y="-453.5" font-family="Helvetica,sans-Serif" font-size="10.00">ec_insert</text>
</a>
</g>
</g>
<!-- Node17&#45;&gt;Node20 -->
<g id="edge25" class="edge">
<title>Node17&#45;&gt;Node20</title>
<path fill="none" stroke="midnightblue" d="M799.54,-342.41C789.88,-367.05 770.36,-409.62 742,-437 738.2,-440.67 733.54,-443.81 728.85,-446.41"/>
<polygon fill="midnightblue" stroke="midnightblue" points="802.92,-343.35 803.17,-332.76 796.37,-340.89 802.92,-343.35"/>
</g>
<!-- Node21 -->
<g id="node21" class="node">
<title>Node21</title>
<g id="a_node21"><a xlink:href="ex_8c.html#a1d45a70b724f4cccae2ab746c711ebb1" target="_top" xlink:title=" ">
<polygon fill="white" stroke="black" points="678,-408.5 678,-427.5 731,-427.5 731,-408.5 678,-408.5"/>
<text text-anchor="middle" x="704.5" y="-415.5" font-family="Helvetica,sans-Serif" font-size="10.00">ec_lnum</text>
</a>
</g>
</g>
<!-- Node17&#45;&gt;Node21 -->
<g id="edge26" class="edge">
<title>Node17&#45;&gt;Node21</title>
<path fill="none" stroke="midnightblue" d="M794.15,-341.26C782.25,-357.86 763,-382.24 742,-399 737.53,-402.56 732.29,-405.76 727.2,-408.46"/>
<polygon fill="midnightblue" stroke="midnightblue" points="797.11,-343.14 799.97,-332.94 791.37,-339.13 797.11,-343.14"/>
</g>
<!-- Node22 -->
<g id="node22" class="node">
<title>Node22</title>
<g id="a_node22"><a xlink:href="ex_8c.html#ab95c9f0f009989c44f3ebb5abae4054d" target="_top" xlink:title=" ">
<polygon fill="white" stroke="black" points="677.5,-370.5 677.5,-389.5 731.5,-389.5 731.5,-370.5 677.5,-370.5"/>
<text text-anchor="middle" x="704.5" y="-377.5" font-family="Helvetica,sans-Serif" font-size="10.00">ec_mark</text>
</a>
</g>
</g>
<!-- Node17&#45;&gt;Node22 -->
<g id="edge27" class="edge">
<title>Node17&#45;&gt;Node22</title>
<path fill="none" stroke="midnightblue" d="M782.15,-337.75C770.15,-344.92 755.41,-353.57 742,-361 736.38,-364.12 730.2,-367.39 724.54,-370.33"/>
<polygon fill="midnightblue" stroke="midnightblue" points="783.96,-340.75 790.73,-332.6 780.35,-334.75 783.96,-340.75"/>
</g>
<!-- Node23 -->
<g id="node23" class="node">
<title>Node23</title>
<g id="a_node23"><a xlink:href="ex_8c.html#affb8197a8f988443aadf1bf2800a0d0b" target="_top" xlink:title=" ">
<polygon fill="white" stroke="black" points="560.5,-313.5 560.5,-332.5 607.5,-332.5 607.5,-313.5 560.5,-313.5"/>
<text text-anchor="middle" x="584" y="-320.5" font-family="Helvetica,sans-Serif" font-size="10.00">ec_null</text>
</a>
</g>
</g>
<!-- Node17&#45;&gt;Node23 -->
<g id="edge28" class="edge">
<title>Node17&#45;&gt;Node23</title>
<path fill="none" stroke="midnightblue" d="M767.74,-323C721.41,-323 645.41,-323 607.69,-323"/>
<polygon fill="midnightblue" stroke="midnightblue" points="768,-326.5 778,-323 768,-319.5 768,-326.5"/>
</g>
<!-- Node24 -->
<g id="node24" class="node">
<title>Node24</title>
<g id="a_node24"><a xlink:href="ex_8c.html#ad2c1a9505aa3097bac242b47a367f11d" target="_top" xlink:title=" ">
<polygon fill="white" stroke="black" points="679,-332.5 679,-351.5 730,-351.5 730,-332.5 679,-332.5"/>
<text text-anchor="middle" x="704.5" y="-339.5" font-family="Helvetica,sans-Serif" font-size="10.00">ec_print</text>
</a>
</g>
</g>
<!-- Node17&#45;&gt;Node24 -->
<g id="edge29" class="edge">
<title>Node17&#45;&gt;Node24</title>
<path fill="none" stroke="midnightblue" d="M767.94,-330.25C755.25,-332.64 741.49,-335.23 730.13,-337.37"/>
<polygon fill="midnightblue" stroke="midnightblue" points="768.65,-333.68 777.83,-328.39 767.35,-326.8 768.65,-333.68"/>
</g>
<!-- Node25 -->
<g id="node25" class="node">
<title>Node25</title>
<g id="a_node25"><a xlink:href="ex_8c.html#ab417867ff867aff9f7277229990cd1b8" target="_top" xlink:title=" ">
<polygon fill="white" stroke="black" points="681.5,-218.5 681.5,-237.5 727.5,-237.5 727.5,-218.5 681.5,-218.5"/>
<text text-anchor="middle" x="704.5" y="-225.5" font-family="Helvetica,sans-Serif" font-size="10.00">ec_put</text>
</a>
</g>
</g>
<!-- Node17&#45;&gt;Node25 -->
<g id="edge31" class="edge">
<title>Node17&#45;&gt;Node25</title>
<path fill="none" stroke="midnightblue" d="M792.36,-305.05C779.98,-289.96 761.04,-268.29 742,-252 735.89,-246.78 728.58,-241.76 722.12,-237.68"/>
<polygon fill="midnightblue" stroke="midnightblue" points="789.84,-307.51 798.84,-313.09 795.29,-303.11 789.84,-307.51"/>
</g>
<!-- Node26 -->
<g id="node26" class="node">
<title>Node26</title>
<g id="a_node26"><a xlink:href="ex_8c.html#add0e79e1f1e3d45f4eaa6fbe5c1ca443" target="_top" xlink:title=" ">
<polygon fill="white" stroke="black" points="679,-180.5 679,-199.5 730,-199.5 730,-180.5 679,-180.5"/>
<text text-anchor="middle" x="704.5" y="-187.5" font-family="Helvetica,sans-Serif" font-size="10.00">ec_read</text>
</a>
</g>
</g>
<!-- Node17&#45;&gt;Node26 -->
<g id="edge32" class="edge">
<title>Node17&#45;&gt;Node26</title>
<path fill="none" stroke="midnightblue" d="M799.54,-303.59C789.88,-278.95 770.36,-236.38 742,-209 738.2,-205.33 733.54,-202.19 728.85,-199.59"/>
<polygon fill="midnightblue" stroke="midnightblue" points="796.37,-305.11 803.17,-313.24 802.92,-302.65 796.37,-305.11"/>
</g>
<!-- Node27 -->
<g id="node27" class="node">
<title>Node27</title>
<g id="a_node27"><a xlink:href="ex_8c.html#a057b67e2d4f23df3ad50a9d3ec86125b" target="_top" xlink:title=" ">
<polygon fill="white" stroke="black" points="678,-104.5 678,-123.5 731,-123.5 731,-104.5 678,-104.5"/>
<text text-anchor="middle" x="704.5" y="-111.5" font-family="Helvetica,sans-Serif" font-size="10.00">ec_write</text>
</a>
</g>
</g>
<!-- Node17&#45;&gt;Node27 -->
<g id="edge34" class="edge">
<title>Node17&#45;&gt;Node27</title>
<path fill="none" stroke="midnightblue" d="M804.66,-303.43C800.21,-266.13 785.78,-184.04 742,-133 738.74,-129.2 734.54,-126.06 730.15,-123.5"/>
<polygon fill="midnightblue" stroke="midnightblue" points="801.19,-303.92 805.74,-313.49 808.15,-303.17 801.19,-303.92"/>
</g>
<!-- Node32 -->
<g id="node32" class="node">
<title>Node32</title>
<g id="a_node32"><a xlink:href="ex_8c.html#a487b22f0ae712d3338f5e9d8d6fa8540" target="_top" xlink:title=" ">
<polygon fill="white" stroke="black" points="678,-142.5 678,-161.5 731,-161.5 731,-142.5 678,-142.5"/>
<text text-anchor="middle" x="704.5" y="-149.5" font-family="Helvetica,sans-Serif" font-size="10.00">ec_yank</text>
</a>
</g>
</g>
<!-- Node17&#45;&gt;Node32 -->
<g id="edge42" class="edge">
<title>Node17&#45;&gt;Node32</title>
<path fill="none" stroke="midnightblue" d="M802.6,-303.07C795.53,-271.55 777.87,-209.81 742,-171 738.61,-167.33 734.34,-164.24 729.93,-161.7"/>
<polygon fill="midnightblue" stroke="midnightblue" points="799.25,-304.15 804.74,-313.22 806.1,-302.71 799.25,-304.15"/>
</g>
<!-- Node19&#45;&gt;Node8 -->
<g id="edge23" class="edge">
<title>Node19&#45;&gt;Node8</title>
<path fill="none" stroke="midnightblue" d="M443.46,-279.94C431.09,-285.98 416.91,-292.9 405.74,-298.36"/>
<polygon fill="midnightblue" stroke="midnightblue" points="445.04,-283.06 452.49,-275.53 441.96,-276.77 445.04,-283.06"/>
</g>
<!-- Node24&#45;&gt;Node23 -->
<g id="edge30" class="edge">
<title>Node24&#45;&gt;Node23</title>
<path fill="none" stroke="midnightblue" d="M669.05,-336.48C649.23,-333.3 624.89,-329.4 607.52,-326.61"/>
<polygon fill="midnightblue" stroke="midnightblue" points="668.52,-339.94 678.95,-338.06 669.63,-333.02 668.52,-339.94"/>
</g>
<!-- Node28 -->
<g id="node28" class="node">
<title>Node28</title>
<g id="a_node28"><a xlink:href="ex_8c.html#ab0cb848a971a3b2c09fcb456d887dd6b" target="_top" xlink:title=" ">
<polygon fill="white" stroke="black" points="537,-104.5 537,-123.5 631,-123.5 631,-104.5 537,-104.5"/>
<text text-anchor="middle" x="584" y="-111.5" font-family="Helvetica,sans-Serif" font-size="10.00">ex_modifiedbuffer</text>
</a>
</g>
</g>
<!-- Node27&#45;&gt;Node28 -->
<g id="edge35" class="edge">
<title>Node27&#45;&gt;Node28</title>
<path fill="none" stroke="midnightblue" d="M667.7,-114C656.21,-114 643.33,-114 631.21,-114"/>
<polygon fill="midnightblue" stroke="midnightblue" points="667.79,-117.5 677.79,-114 667.79,-110.5 667.79,-117.5"/>
</g>
<!-- Node28&#45;&gt;Node19 -->
<g id="edge38" class="edge">
<title>Node28&#45;&gt;Node19</title>
<path fill="none" stroke="midnightblue" d="M570.07,-132.03C546.8,-164.48 498.63,-231.65 480.82,-256.5"/>
<polygon fill="midnightblue" stroke="midnightblue" points="573.2,-133.67 576.18,-123.51 567.51,-129.6 573.2,-133.67"/>
</g>
<!-- Node29 -->
<g id="node29" class="node">
<title>Node29</title>
<g id="a_node29"><a xlink:href="ex_8c.html#a8059390ad69866fa8e14bdb2521d4dc2" target="_top" xlink:title=" ">
<polygon fill="white" stroke="black" points="361,-104.5 361,-123.5 409,-123.5 409,-104.5 361,-104.5"/>
<text text-anchor="middle" x="385" y="-111.5" font-family="Helvetica,sans-Serif" font-size="10.00">ec_edit</text>
</a>
</g>
</g>
<!-- Node28&#45;&gt;Node29 -->
<g id="edge36" class="edge">
<title>Node28&#45;&gt;Node29</title>
<path fill="none" stroke="midnightblue" d="M526.66,-114C487.72,-114 437.95,-114 409.25,-114"/>
<polygon fill="midnightblue" stroke="midnightblue" points="526.81,-117.5 536.81,-114 526.81,-110.5 526.81,-117.5"/>
</g>
<!-- Node30 -->
<g id="node30" class="node">
<title>Node30</title>
<g id="a_node30"><a xlink:href="ex_8c.html#aa69f426ff9728078fbb36f448c624a90" target="_top" xlink:title=" ">
<polygon fill="white" stroke="black" points="445,-66.5 445,-85.5 501,-85.5 501,-66.5 445,-66.5"/>
<text text-anchor="middle" x="473" y="-73.5" font-family="Helvetica,sans-Serif" font-size="10.00">ec_make</text>
</a>
</g>
</g>
<!-- Node28&#45;&gt;Node30 -->
<g id="edge39" class="edge">
<title>Node28&#45;&gt;Node30</title>
<path fill="none" stroke="midnightblue" d="M545.71,-101C531.08,-95.9 514.59,-90.15 501.12,-85.45"/>
<polygon fill="midnightblue" stroke="midnightblue" points="544.9,-104.42 555.49,-104.41 547.2,-97.81 544.9,-104.42"/>
</g>
<!-- Node31 -->
<g id="node31" class="node">
<title>Node31</title>
<g id="a_node31"><a xlink:href="ex_8c.html#a87eef446de152fad41ce88a9a343b87d" target="_top" xlink:title=" ">
<polygon fill="white" stroke="black" points="449,-142.5 449,-161.5 497,-161.5 497,-142.5 449,-142.5"/>
<text text-anchor="middle" x="473" y="-149.5" font-family="Helvetica,sans-Serif" font-size="10.00">ec_quit</text>
</a>
</g>
</g>
<!-- Node28&#45;&gt;Node31 -->
<g id="edge40" class="edge">
<title>Node28&#45;&gt;Node31</title>
<path fill="none" stroke="midnightblue" d="M545.79,-126.97C529.63,-132.61 511.21,-139.03 497.07,-143.96"/>
<polygon fill="midnightblue" stroke="midnightblue" points="547.2,-130.19 555.49,-123.59 544.9,-123.58 547.2,-130.19"/>
</g>
<!-- Node29&#45;&gt;Node12 -->
<g id="edge37" class="edge">
<title>Node29&#45;&gt;Node12</title>
<path fill="none" stroke="midnightblue" d="M350.2,-114C290.72,-114 168.93,-114 119.29,-114"/>
<polygon fill="midnightblue" stroke="midnightblue" points="350.55,-117.5 360.55,-114 350.55,-110.5 350.55,-117.5"/>
</g>
<!-- Node31&#45;&gt;Node27 -->
<g id="edge41" class="edge">
<title>Node31&#45;&gt;Node27</title>
<path fill="none" stroke="midnightblue" d="M507.14,-149.31C539.06,-146.4 588.6,-141.08 631,-133 646.72,-130 664.07,-125.5 677.86,-121.63"/>
<polygon fill="midnightblue" stroke="midnightblue" points="506.69,-145.83 497.03,-150.2 507.3,-152.81 506.69,-145.83"/>
</g>
<!-- Node34 -->
<g id="node34" class="node">
<title>Node34</title>
<g id="a_node34"><a xlink:href="vi_8c.html#a631f59a25254f28f308f7de4897e09fa" target="_top" xlink:title=" ">
<polygon fill="white" stroke="black" points="879,-294.5 879,-313.5 925,-313.5 925,-294.5 879,-294.5"/>
<text text-anchor="middle" x="902" y="-301.5" font-family="Helvetica,sans-Serif" font-size="10.00">search</text>
</a>
</g>
</g>
<!-- Node33&#45;&gt;Node34 -->
<g id="edge44" class="edge">
<title>Node33&#45;&gt;Node34</title>
<path fill="none" stroke="midnightblue" d="M956.9,-314.61C945.88,-312.44 934.47,-310.2 925,-308.33"/>
<polygon fill="midnightblue" stroke="midnightblue" points="956.34,-318.07 966.83,-316.57 957.69,-311.2 956.34,-318.07"/>
</g>
<!-- Node35 -->
<g id="node35" class="node">
<title>Node35</title>
<g id="a_node35"><a xlink:href="vi_8c.html#a93701c59617d4f96cbaa207e89178f87" target="_top" xlink:title=" ">
<polygon fill="white" stroke="black" points="778,-152.5 778,-171.5 837,-171.5 837,-152.5 778,-152.5"/>
<text text-anchor="middle" x="807.5" y="-159.5" font-family="Helvetica,sans-Serif" font-size="10.00">vi_search</text>
</a>
</g>
</g>
<!-- Node34&#45;&gt;Node35 -->
<g id="edge45" class="edge">
<title>Node34&#45;&gt;Node35</title>
<path fill="none" stroke="midnightblue" d="M887.33,-286.06C882.67,-279.79 877.51,-272.66 873,-266 850.01,-232.04 825.03,-190.18 814.12,-171.63"/>
<polygon fill="midnightblue" stroke="midnightblue" points="884.84,-288.58 893.65,-294.47 890.44,-284.37 884.84,-288.58"/>
</g>
<!-- Node36 -->
<g id="node36" class="node">
<title>Node36</title>
<g id="a_node36"><a xlink:href="vi_8c.html#aaa4777ea0715ea846346d0f27a0cfa3f" target="_top" xlink:title=" ">
<polygon fill="white" stroke="black" points="266,-28.5 266,-47.5 325,-47.5 325,-28.5 266,-28.5"/>
<text text-anchor="middle" x="295.5" y="-35.5" font-family="Helvetica,sans-Serif" font-size="10.00">vi_motion</text>
</a>
</g>
</g>
<!-- Node35&#45;&gt;Node36 -->
<g id="edge46" class="edge">
<title>Node35&#45;&gt;Node36</title>
<path fill="none" stroke="midnightblue" d="M800.56,-142.86C791.92,-118.48 773.38,-77.12 742,-57 682.83,-19.06 655.29,-38 585,-38 585,-38 585,-38 472,-38 420.2,-38 359.81,-38 325.07,-38"/>
<polygon fill="midnightblue" stroke="midnightblue" points="797.28,-144.06 803.76,-152.44 803.92,-141.85 797.28,-144.06"/>
</g>
<!-- Node36&#45;&gt;Node13 -->
<g id="edge49" class="edge">
<title>Node36&#45;&gt;Node13</title>
<path fill="none" stroke="midnightblue" d="M256.11,-50.29C247.57,-52.75 238.53,-55.14 230,-57 187.08,-66.35 135.32,-72.25 111.16,-74.7"/>
<polygon fill="midnightblue" stroke="midnightblue" points="257.24,-53.61 265.83,-47.41 255.25,-46.9 257.24,-53.61"/>
</g>
<!-- Node37 -->
<g id="node37" class="node">
<title>Node37</title>
<g id="a_node37"><a xlink:href="vi_8c.html#a06cbc6eb843436a0e77e07cbab0c4538" target="_top" xlink:title=" ">
<polygon fill="white" stroke="black" points="161.5,-28.5 161.5,-47.5 223.5,-47.5 223.5,-28.5 161.5,-28.5"/>
<text text-anchor="middle" x="192.5" y="-35.5" font-family="Helvetica,sans-Serif" font-size="10.00">vc_motion</text>
</a>
</g>
</g>
<!-- Node36&#45;&gt;Node37 -->
<g id="edge47" class="edge">
<title>Node36&#45;&gt;Node37</title>
<path fill="none" stroke="midnightblue" d="M255.56,-38C244.97,-38 233.67,-38 223.65,-38"/>
<polygon fill="midnightblue" stroke="midnightblue" points="255.83,-41.5 265.83,-38 255.83,-34.5 255.83,-41.5"/>
</g>
<!-- Node37&#45;&gt;Node13 -->
<g id="edge48" class="edge">
<title>Node37&#45;&gt;Node13</title>
<path fill="none" stroke="midnightblue" d="M158.07,-51.52C141.85,-58.07 123.28,-65.58 111.02,-70.53"/>
<polygon fill="midnightblue" stroke="midnightblue" points="159.82,-54.58 167.78,-47.59 157.2,-48.09 159.82,-54.58"/>
</g>
<!-- Node38&#45;&gt;Node6 -->
<g id="edge51" class="edge">
<title>Node38&#45;&gt;Node6</title>
<path fill="none" stroke="midnightblue" d="M895.9,-227.49C879.34,-169.15 821.36,0 705.5,0 705.5,0 705.5,0 191.5,0 116.42,0 49.11,-76.71 27.35,-104.28"/>
<polygon fill="midnightblue" stroke="midnightblue" points="892.57,-228.6 898.59,-237.32 899.32,-226.75 892.57,-228.6"/>
</g>
<!-- Node39&#45;&gt;Node38 -->
<g id="edge53" class="edge">
<title>Node39&#45;&gt;Node38</title>
<path fill="none" stroke="midnightblue" d="M962.35,-247C950.6,-247 937.91,-247 927.3,-247"/>
<polygon fill="midnightblue" stroke="midnightblue" points="962.36,-250.5 972.36,-247 962.36,-243.5 962.36,-250.5"/>
</g>
<!-- Node41 -->
<g id="node41" class="node">
<title>Node41</title>
<g id="a_node41"><a xlink:href="regex_8c.html#a0df57dc0ee1beb9018cdd537a58571aa" target="_top" xlink:title=" ">
<polygon fill="white" stroke="black" points="1070,-294.5 1070,-313.5 1138,-313.5 1138,-294.5 1070,-294.5"/>
<text text-anchor="middle" x="1104" y="-301.5" font-family="Helvetica,sans-Serif" font-size="10.00">rnode_atom</text>
</a>
</g>
</g>
<!-- Node40&#45;&gt;Node41 -->
<g id="edge55" class="edge">
<title>Node40&#45;&gt;Node41</title>
<path fill="none" stroke="midnightblue" d="M1163.78,-315.45C1155.36,-313.81 1146.52,-312.09 1138.32,-310.49"/>
<polygon fill="midnightblue" stroke="midnightblue" points="1163.29,-318.92 1173.77,-317.4 1164.63,-312.05 1163.29,-318.92"/>
</g>
<!-- Node41&#45;&gt;Node1 -->
<g id="edge56" class="edge">
<title>Node41&#45;&gt;Node1</title>
<path fill="none" stroke="midnightblue" d="M1148.49,-304C1210.17,-304 1321.49,-304 1374.86,-304"/>
<polygon fill="midnightblue" stroke="midnightblue" points="1148.3,-300.5 1138.3,-304 1148.3,-307.5 1148.3,-300.5"/>
</g>
</g>
</svg>
