<?xml version="1.0" encoding="UTF-8" standalone="no"?>
<!DOCTYPE svg PUBLIC "-//W3C//DTD SVG 1.1//EN"
 "http://www.w3.org/Graphics/SVG/1.1/DTD/svg11.dtd">
<!-- Generated by graphviz version 2.44.1 (20200629.0846)
 -->
<!-- Title: regcomp Pages: 1 -->
<!--zoomable 351 -->
<svg id="main" version="1.1" xmlns="http://www.w3.org/2000/svg" xmlns:xlink="http://www.w3.org/1999/xlink" xml:space="preserve" onload="init(evt)">
<style type="text/css"><![CDATA[
.edge:hover path { stroke: red; }
.edge:hover polygon { stroke: red; fill: red; }
]]></style>
<script type="text/javascript"><![CDATA[
var edges = document.getElementsByTagName('g');
if (edges && edges.length) {
  for (var i=0;i<edges.length;i++) {
    if (edges[i].id.substr(0,4)=='edge') {
      edges[i].setAttribute('class','edge');
    }
  }
}
]]></script>
        <defs>
                <circle id="rim" cx="0" cy="0" r="7"/>
                <circle id="rim2" cx="0" cy="0" r="3.5"/>
                <g id="zoomPlus">
                        <use xlink:href="#rim" fill="#404040">
                                <set attributeName="fill" to="#808080" begin="zoomplus.mouseover" end="zoomplus.mouseout"/>
                        </use>
                        <path d="M-4,0h8M0,-4v8" fill="none" stroke="white" stroke-width="1.5" pointer-events="none"/>
                </g>
                <g id="zoomMin">
                        <use xlink:href="#rim" fill="#404040">
                                <set attributeName="fill" to="#808080" begin="zoomminus.mouseover" end="zoomminus.mouseout"/>
                        </use>
                        <path d="M-4,0h8" fill="none" stroke="white" stroke-width="1.5" pointer-events="none"/>
                </g>
                <g id="dirArrow">
                        <path fill="none" stroke="white" stroke-width="1.5" d="M0,-3.0v7 M-2.5,-0.5L0,-3.0L2.5,-0.5"/>
                </g>
               <g id="resetDef">
                       <use xlink:href="#rim2" fill="#404040">
                               <set attributeName="fill" to="#808080" begin="reset.mouseover" end="reset.mouseout"/>
                       </use>
               </g>
        </defs>

<script type="text/javascript">
var viewWidth = 697;
var viewHeight = 351;
var sectionId = 'dynsection-31';
</script>
<script xlink:href="svgpan.js"/>
<svg id="graph" class="graph">
<g id="viewport">
<title>regcomp</title>
<polygon fill="white" stroke="transparent" points="-4,4 -4,-347 693,-347 693,4 -4,4"/>
<!-- Node1 -->
<g id="node1" class="node">
<title>Node1</title>
<g id="a_node1"><a xlink:title=" ">
<polygon fill="#bfbfbf" stroke="black" points="0,-209.5 0,-228.5 54,-228.5 54,-209.5 0,-209.5"/>
<text text-anchor="middle" x="27" y="-216.5" font-family="Helvetica,sans-Serif" font-size="10.00">regcomp</text>
</a>
</g>
</g>
<!-- Node2 -->
<g id="node2" class="node">
<title>Node2</title>
<g id="a_node2"><a xlink:href="regex_8c.html#ad3bbf549eef0fe517e9f213c5eadbb0c" target="_top" xlink:title=" ">
<polygon fill="white" stroke="black" points="328,-285.5 328,-304.5 382,-304.5 382,-285.5 328,-285.5"/>
<text text-anchor="middle" x="355" y="-292.5" font-family="Helvetica,sans-Serif" font-size="10.00">re_insert</text>
</a>
</g>
</g>
<!-- Node1&#45;&gt;Node2 -->
<g id="edge1" class="edge">
<title>Node1&#45;&gt;Node2</title>
<path fill="none" stroke="midnightblue" d="M54.11,-227.54C65.12,-231 78.13,-234.9 90,-238 170.86,-259.08 267.09,-278.43 318.09,-288.25"/>
<polygon fill="midnightblue" stroke="midnightblue" points="317.49,-291.7 327.97,-290.14 318.81,-284.82 317.49,-291.7"/>
</g>
<!-- Node3 -->
<g id="node3" class="node">
<title>Node3</title>
<g id="a_node3"><a xlink:href="regex_8c.html#ac00e60e2e4bce1edcd55ffa8b9086ac5" target="_top" xlink:title=" ">
<polygon fill="white" stroke="black" points="90,-209.5 90,-228.5 160,-228.5 160,-209.5 90,-209.5"/>
<text text-anchor="middle" x="125" y="-216.5" font-family="Helvetica,sans-Serif" font-size="10.00">rnode_count</text>
</a>
</g>
</g>
<!-- Node1&#45;&gt;Node3 -->
<g id="edge2" class="edge">
<title>Node1&#45;&gt;Node3</title>
<path fill="none" stroke="midnightblue" d="M54.23,-219C62.13,-219 71.03,-219 79.76,-219"/>
<polygon fill="midnightblue" stroke="midnightblue" points="79.87,-222.5 89.87,-219 79.87,-215.5 79.87,-222.5"/>
</g>
<!-- Node4 -->
<g id="node4" class="node">
<title>Node4</title>
<g id="a_node4"><a xlink:href="regex_8c.html#a7be1fd2247ffed1699d3be12c04fe9c6" target="_top" xlink:title=" ">
<polygon fill="white" stroke="black" points="92.5,-304.5 92.5,-323.5 157.5,-323.5 157.5,-304.5 92.5,-304.5"/>
<text text-anchor="middle" x="125" y="-311.5" font-family="Helvetica,sans-Serif" font-size="10.00">rnode_emit</text>
</a>
</g>
</g>
<!-- Node1&#45;&gt;Node4 -->
<g id="edge3" class="edge">
<title>Node1&#45;&gt;Node4</title>
<path fill="none" stroke="midnightblue" d="M37.91,-228.81C54.24,-244.96 86.97,-277.35 107.03,-297.21"/>
<polygon fill="midnightblue" stroke="midnightblue" points="104.71,-299.84 114.28,-304.39 109.64,-294.86 104.71,-299.84"/>
</g>
<!-- Node7 -->
<g id="node7" class="node">
<title>Node7</title>
<g id="a_node7"><a xlink:href="regex_8c.html#aabe89a3a22bc0fdc0329cf29ec80ad76" target="_top" xlink:title=" ">
<polygon fill="white" stroke="black" points="534.5,-133.5 534.5,-152.5 596.5,-152.5 596.5,-133.5 534.5,-133.5"/>
<text text-anchor="middle" x="565.5" y="-140.5" font-family="Helvetica,sans-Serif" font-size="10.00">rnode_free</text>
</a>
</g>
</g>
<!-- Node1&#45;&gt;Node7 -->
<g id="edge9" class="edge">
<title>Node1&#45;&gt;Node7</title>
<path fill="none" stroke="midnightblue" d="M54.29,-209.86C65.22,-206.34 78.11,-202.56 90,-200 155.48,-185.91 172.52,-181 239.5,-181 239.5,-181 239.5,-181 356,-181 415.49,-181 482.99,-165.84 524.66,-154.68"/>
<polygon fill="midnightblue" stroke="midnightblue" points="525.71,-158.02 534.43,-152.01 523.86,-151.27 525.71,-158.02"/>
</g>
<!-- Node8 -->
<g id="node8" class="node">
<title>Node8</title>
<g id="a_node8"><a xlink:href="regex_8c.html#ac19329676c1426f2b24af24e33e3a845" target="_top" xlink:title=" ">
<polygon fill="white" stroke="black" points="90,-96.5 90,-115.5 160,-115.5 160,-96.5 90,-96.5"/>
<text text-anchor="middle" x="125" y="-103.5" font-family="Helvetica,sans-Serif" font-size="10.00">rnode_parse</text>
</a>
</g>
</g>
<!-- Node1&#45;&gt;Node8 -->
<g id="edge10" class="edge">
<title>Node1&#45;&gt;Node8</title>
<path fill="none" stroke="midnightblue" d="M36.18,-209.37C52.41,-190.27 88.85,-147.38 109.32,-123.28"/>
<polygon fill="midnightblue" stroke="midnightblue" points="112.03,-125.5 115.84,-115.61 106.69,-120.96 112.03,-125.5"/>
</g>
<!-- Node4&#45;&gt;Node2 -->
<g id="edge4" class="edge">
<title>Node4&#45;&gt;Node2</title>
<path fill="none" stroke="midnightblue" d="M157.7,-311.36C199.73,-307.86 273.71,-301.69 317.86,-298.01"/>
<polygon fill="midnightblue" stroke="midnightblue" points="318.19,-301.5 327.87,-297.18 317.61,-294.52 318.19,-301.5"/>
</g>
<!-- Node5 -->
<g id="node5" class="node">
<title>Node5</title>
<g id="a_node5"><a xlink:href="regex_8c.html#afdf3c7adbb2060b793cf83c5312321c8" target="_top" xlink:title=" ">
<polygon fill="white" stroke="black" points="196,-323.5 196,-342.5 285,-342.5 285,-323.5 196,-323.5"/>
<text text-anchor="middle" x="240.5" y="-330.5" font-family="Helvetica,sans-Serif" font-size="10.00">rnode_emitnorep</text>
</a>
</g>
</g>
<!-- Node4&#45;&gt;Node5 -->
<g id="edge5" class="edge">
<title>Node4&#45;&gt;Node5</title>
<path fill="none" stroke="midnightblue" d="M157.62,-313.17C172.65,-314.88 190.62,-317.86 205.9,-321.15"/>
<polygon fill="midnightblue" stroke="midnightblue" points="205.44,-324.64 215.97,-323.47 207.01,-317.82 205.44,-324.64"/>
</g>
<!-- Node5&#45;&gt;Node2 -->
<g id="edge7" class="edge">
<title>Node5&#45;&gt;Node2</title>
<path fill="none" stroke="midnightblue" d="M269.89,-323.41C284.52,-318.47 302.51,-312.39 318.1,-307.13"/>
<polygon fill="midnightblue" stroke="midnightblue" points="319.58,-310.32 327.93,-303.8 317.34,-303.69 319.58,-310.32"/>
</g>
<!-- Node5&#45;&gt;Node4 -->
<g id="edge8" class="edge">
<title>Node5&#45;&gt;Node4</title>
<path fill="none" stroke="midnightblue" d="M195.83,-332.28C183.76,-330.56 170.87,-328.28 159.48,-325.82"/>
<polygon fill="midnightblue" stroke="midnightblue" points="160.05,-322.36 149.52,-323.53 158.48,-329.18 160.05,-322.36"/>
</g>
<!-- Node6 -->
<g id="node6" class="node">
<title>Node6</title>
<g id="a_node6"><a xlink:href="regex_8c.html#a71b5a38b3a51e761aaa959a89e7cae55" target="_top" xlink:title=" ">
<polygon fill="white" stroke="black" points="321,-323.5 321,-342.5 389,-342.5 389,-323.5 321,-323.5"/>
<text text-anchor="middle" x="355" y="-330.5" font-family="Helvetica,sans-Serif" font-size="10.00">ratom_copy</text>
</a>
</g>
</g>
<!-- Node5&#45;&gt;Node6 -->
<g id="edge6" class="edge">
<title>Node5&#45;&gt;Node6</title>
<path fill="none" stroke="midnightblue" d="M285.32,-333C293.65,-333 302.36,-333 310.67,-333"/>
<polygon fill="midnightblue" stroke="midnightblue" points="310.93,-336.5 320.93,-333 310.93,-329.5 310.93,-336.5"/>
</g>
<!-- Node9 -->
<g id="node9" class="node">
<title>Node9</title>
<g id="a_node9"><a xlink:href="regex_8c.html#a39869d385d8410ffb9d5bf74c778c6ce" target="_top" xlink:title=" ">
<polygon fill="white" stroke="black" points="530.5,-0.5 530.5,-19.5 600.5,-19.5 600.5,-0.5 530.5,-0.5"/>
<text text-anchor="middle" x="565.5" y="-7.5" font-family="Helvetica,sans-Serif" font-size="10.00">rnode_make</text>
</a>
</g>
</g>
<!-- Node8&#45;&gt;Node9 -->
<g id="edge11" class="edge">
<title>Node8&#45;&gt;Node9</title>
<path fill="none" stroke="midnightblue" d="M141.11,-96.38C154.98,-87.85 176.31,-75.45 196,-67 292.38,-25.64 320.5,-18.98 425,-10 456.77,-7.27 492.77,-7.35 520.24,-8.07"/>
<polygon fill="midnightblue" stroke="midnightblue" points="520.22,-11.57 530.32,-8.37 520.43,-4.57 520.22,-11.57"/>
</g>
<!-- Node10 -->
<g id="node10" class="node">
<title>Node10</title>
<g id="a_node10"><a xlink:href="regex_8c.html#abe0c1f4be43ac6d7caa4f95a560f823f" target="_top" xlink:title=" ">
<polygon fill="white" stroke="black" points="209.5,-76.5 209.5,-95.5 271.5,-95.5 271.5,-76.5 209.5,-76.5"/>
<text text-anchor="middle" x="240.5" y="-83.5" font-family="Helvetica,sans-Serif" font-size="10.00">rnode_seq</text>
</a>
</g>
</g>
<!-- Node8&#45;&gt;Node10 -->
<g id="edge12" class="edge">
<title>Node8&#45;&gt;Node10</title>
<path fill="none" stroke="midnightblue" d="M160.05,-100C172.42,-97.82 186.51,-95.34 199.35,-93.07"/>
<polygon fill="midnightblue" stroke="midnightblue" points="200.09,-96.5 209.33,-91.32 198.87,-89.61 200.09,-96.5"/>
</g>
<!-- Node10&#45;&gt;Node9 -->
<g id="edge24" class="edge">
<title>Node10&#45;&gt;Node9</title>
<path fill="none" stroke="midnightblue" d="M263.61,-76.48C297.6,-62.29 365.07,-35.89 425,-23 456.42,-16.24 492.56,-13 520.19,-11.44"/>
<polygon fill="midnightblue" stroke="midnightblue" points="520.52,-14.93 530.33,-10.92 520.17,-7.94 520.52,-14.93"/>
</g>
<!-- Node11 -->
<g id="node11" class="node">
<title>Node11</title>
<g id="a_node11"><a xlink:href="regex_8c.html#a0df57dc0ee1beb9018cdd537a58571aa" target="_top" xlink:title=" ">
<polygon fill="white" stroke="black" points="321,-76.5 321,-95.5 389,-95.5 389,-76.5 321,-76.5"/>
<text text-anchor="middle" x="355" y="-83.5" font-family="Helvetica,sans-Serif" font-size="10.00">rnode_atom</text>
</a>
</g>
</g>
<!-- Node10&#45;&gt;Node11 -->
<g id="edge13" class="edge">
<title>Node10&#45;&gt;Node11</title>
<path fill="none" stroke="midnightblue" d="M271.65,-86C283.67,-86 297.73,-86 310.79,-86"/>
<polygon fill="midnightblue" stroke="midnightblue" points="311,-89.5 321,-86 311,-82.5 311,-89.5"/>
</g>
<!-- Node11&#45;&gt;Node7 -->
<g id="edge18" class="edge">
<title>Node11&#45;&gt;Node7</title>
<path fill="none" stroke="midnightblue" d="M389.04,-95.03C425.8,-105.08 485.19,-121.32 524.53,-132.07"/>
<polygon fill="midnightblue" stroke="midnightblue" points="523.76,-135.49 534.33,-134.75 525.6,-128.74 523.76,-135.49"/>
</g>
<!-- Node11&#45;&gt;Node9 -->
<g id="edge23" class="edge">
<title>Node11&#45;&gt;Node9</title>
<path fill="none" stroke="midnightblue" d="M370.84,-76.47C384.47,-68.05 405.48,-55.9 425,-48 455.98,-35.46 492.47,-25.68 520.36,-19.19"/>
<polygon fill="midnightblue" stroke="midnightblue" points="521.24,-22.58 530.22,-16.95 519.69,-15.75 521.24,-22.58"/>
</g>
<!-- Node12 -->
<g id="node12" class="node">
<title>Node12</title>
<g id="a_node12"><a xlink:href="regex_8c.html#a8b5ae269a79b320da8e87712e2051d1c" target="_top" xlink:title=" ">
<polygon fill="white" stroke="black" points="425,-57.5 425,-76.5 490,-76.5 490,-57.5 425,-57.5"/>
<text text-anchor="middle" x="457.5" y="-64.5" font-family="Helvetica,sans-Serif" font-size="10.00">ratom_read</text>
</a>
</g>
</g>
<!-- Node11&#45;&gt;Node12 -->
<g id="edge14" class="edge">
<title>Node11&#45;&gt;Node12</title>
<path fill="none" stroke="midnightblue" d="M389.19,-79.73C397.4,-78.17 406.31,-76.49 414.88,-74.87"/>
<polygon fill="midnightblue" stroke="midnightblue" points="415.54,-78.31 424.71,-73.01 414.24,-71.43 415.54,-78.31"/>
</g>
<!-- Node16 -->
<g id="node16" class="node">
<title>Node16</title>
<g id="a_node16"><a xlink:href="regex_8c.html#aaeda19c8b3704252a342cdcc7fc3591c" target="_top" xlink:title=" ">
<polygon fill="white" stroke="black" points="428,-133.5 428,-152.5 487,-152.5 487,-133.5 428,-133.5"/>
<text text-anchor="middle" x="457.5" y="-140.5" font-family="Helvetica,sans-Serif" font-size="10.00">rnode_grp</text>
</a>
</g>
</g>
<!-- Node11&#45;&gt;Node16 -->
<g id="edge19" class="edge">
<title>Node11&#45;&gt;Node16</title>
<path fill="none" stroke="midnightblue" d="M373.05,-95.67C388.88,-104.65 412.67,-118.14 430.81,-128.43"/>
<polygon fill="midnightblue" stroke="midnightblue" points="429.28,-131.58 439.7,-133.47 432.73,-125.5 429.28,-131.58"/>
</g>
<!-- Node13 -->
<g id="node13" class="node">
<title>Node13</title>
<g id="a_node13"><a xlink:href="regex_8c.html#a1904288a4b4c7b7d0666c3d85d438e1a" target="_top" xlink:title=" ">
<polygon fill="white" stroke="black" points="526,-86.5 526,-105.5 605,-105.5 605,-86.5 526,-86.5"/>
<text text-anchor="middle" x="565.5" y="-93.5" font-family="Helvetica,sans-Serif" font-size="10.00">ratom_readbrk</text>
</a>
</g>
</g>
<!-- Node12&#45;&gt;Node13 -->
<g id="edge15" class="edge">
<title>Node12&#45;&gt;Node13</title>
<path fill="none" stroke="midnightblue" d="M490.02,-75.62C499.35,-78.18 509.76,-81.02 519.77,-83.76"/>
<polygon fill="midnightblue" stroke="midnightblue" points="519.01,-87.18 529.58,-86.45 520.86,-80.43 519.01,-87.18"/>
</g>
<!-- Node15 -->
<g id="node15" class="node">
<title>Node15</title>
<g id="a_node15"><a xlink:href="regex_8c.html#a9a0d6d5f93f1eaba8b63b16903c0952d" target="_top" xlink:title=" ">
<polygon fill="white" stroke="black" points="543,-48.5 543,-67.5 588,-67.5 588,-48.5 543,-48.5"/>
<text text-anchor="middle" x="565.5" y="-55.5" font-family="Helvetica,sans-Serif" font-size="10.00">uc_len</text>
</a>
</g>
</g>
<!-- Node12&#45;&gt;Node15 -->
<g id="edge17" class="edge">
<title>Node12&#45;&gt;Node15</title>
<path fill="none" stroke="midnightblue" d="M490.02,-64.32C503.4,-63.19 518.99,-61.86 532.44,-60.72"/>
<polygon fill="midnightblue" stroke="midnightblue" points="533.01,-64.19 542.68,-59.85 532.42,-57.21 533.01,-64.19"/>
</g>
<!-- Node14 -->
<g id="node14" class="node">
<title>Node14</title>
<g id="a_node14"><a xlink:href="regex_8c.html#acc18ff8d2687611a9e221b3329b02413" target="_top" xlink:title=" ">
<polygon fill="white" stroke="black" points="641,-86.5 641,-105.5 689,-105.5 689,-86.5 641,-86.5"/>
<text text-anchor="middle" x="665" y="-93.5" font-family="Helvetica,sans-Serif" font-size="10.00">brk_len</text>
</a>
</g>
</g>
<!-- Node13&#45;&gt;Node14 -->
<g id="edge16" class="edge">
<title>Node13&#45;&gt;Node14</title>
<path fill="none" stroke="midnightblue" d="M605.03,-96C613.57,-96 622.54,-96 630.84,-96"/>
<polygon fill="midnightblue" stroke="midnightblue" points="630.9,-99.5 640.9,-96 630.9,-92.5 630.9,-99.5"/>
</g>
<!-- Node16&#45;&gt;Node7 -->
<g id="edge20" class="edge">
<title>Node16&#45;&gt;Node7</title>
<path fill="none" stroke="midnightblue" d="M487.19,-143C498.59,-143 511.9,-143 524.24,-143"/>
<polygon fill="midnightblue" stroke="midnightblue" points="524.31,-146.5 534.31,-143 524.31,-139.5 524.31,-146.5"/>
</g>
<!-- Node16&#45;&gt;Node8 -->
<g id="edge22" class="edge">
<title>Node16&#45;&gt;Node8</title>
<path fill="none" stroke="midnightblue" d="M427.81,-139.79C369.98,-133.31 239.07,-118.66 170.22,-110.95"/>
<polygon fill="midnightblue" stroke="midnightblue" points="170.45,-107.45 160.12,-109.82 169.67,-114.41 170.45,-107.45"/>
</g>
<!-- Node16&#45;&gt;Node9 -->
<g id="edge21" class="edge">
<title>Node16&#45;&gt;Node9</title>
<path fill="none" stroke="midnightblue" d="M463.3,-133.33C473.19,-113.97 497.37,-69.7 526,-39 530.49,-34.18 535.87,-29.58 541.15,-25.52"/>
<polygon fill="midnightblue" stroke="midnightblue" points="543.22,-28.35 549.25,-19.64 539.1,-22.69 543.22,-28.35"/>
</g>
</g>
</svg>
        <g id="navigator" transform="translate(0 0)" fill="#404254">
                <rect fill="#f2f5e9" fill-opacity="0.5" stroke="#606060" stroke-width=".5" x="0" y="0" width="60" height="60"/>
                <use id="zoomplus" xlink:href="#zoomPlus" x="17" y="9" onmousedown="handleZoom(evt,'in')"/>
                <use id="zoomminus" xlink:href="#zoomMin" x="42" y="9" onmousedown="handleZoom(evt,'out')"/>
                <use id="reset" xlink:href="#resetDef" x="30" y="36" onmousedown="handleReset()"/>
                <g id="arrowUp" xlink:href="#dirArrow" transform="translate(30 24)" onmousedown="handlePan(0,-1)">
                  <use xlink:href="#rim" fill="#404040">
                        <set attributeName="fill" to="#808080" begin="arrowUp.mouseover" end="arrowUp.mouseout"/>
                  </use>
                  <path fill="none" stroke="white" stroke-width="1.5" d="M0,-3.0v7 M-2.5,-0.5L0,-3.0L2.5,-0.5"/>
                </g>
                <g id="arrowRight" xlink:href="#dirArrow" transform="rotate(90) translate(36 -43)" onmousedown="handlePan(1,0)">
                  <use xlink:href="#rim" fill="#404040">
                        <set attributeName="fill" to="#808080" begin="arrowRight.mouseover" end="arrowRight.mouseout"/>
                  </use>
                  <path fill="none" stroke="white" stroke-width="1.5" d="M0,-3.0v7 M-2.5,-0.5L0,-3.0L2.5,-0.5"/>
                </g>
                <g id="arrowDown" xlink:href="#dirArrow" transform="rotate(180) translate(-30 -48)" onmousedown="handlePan(0,1)">
                  <use xlink:href="#rim" fill="#404040">
                        <set attributeName="fill" to="#808080" begin="arrowDown.mouseover" end="arrowDown.mouseout"/>
                  </use>
                  <path fill="none" stroke="white" stroke-width="1.5" d="M0,-3.0v7 M-2.5,-0.5L0,-3.0L2.5,-0.5"/>
                </g>
                <g id="arrowLeft" xlink:href="#dirArrow" transform="rotate(270) translate(-36 17)" onmousedown="handlePan(-1,0)">
                  <use xlink:href="#rim" fill="#404040">
                        <set attributeName="fill" to="#808080" begin="arrowLeft.mouseover" end="arrowLeft.mouseout"/>
                  </use>
                  <path fill="none" stroke="white" stroke-width="1.5" d="M0,-3.0v7 M-2.5,-0.5L0,-3.0L2.5,-0.5"/>
                </g>
        </g>
        <svg viewBox="0 0 15 15" width="100%" height="30px" preserveAspectRatio="xMaxYMin meet">
         <g id="arrow_out" transform="scale(0.3 0.3)">
          <a xlink:href="regex_8c_a5b590271eb220f4e019e76cfb950eb69_cgraph_org.svg" target="_base">
           <rect id="button" ry="5" rx="5" y="6" x="6" height="38" width="38"
                fill="#f2f5e9" fill-opacity="0.5" stroke="#606060" stroke-width="1.0"/>
           <path id="arrow"
             d="M 11.500037,31.436501 C 11.940474,20.09759 22.043105,11.32322 32.158766,21.979434 L 37.068811,17.246167 C 37.068811,17.246167 37.088388,32 37.088388,32 L 22.160133,31.978069 C 22.160133,31.978069 26.997745,27.140456 26.997745,27.140456 C 18.528582,18.264221 13.291696,25.230495 11.500037,31.436501 z"
             style="fill:#404040;"/>
          </a>
         </g>
        </svg>
</svg>
