<?xml version="1.0" encoding="UTF-8" standalone="no"?>
<!DOCTYPE svg PUBLIC "-//W3C//DTD SVG 1.1//EN"
 "http://www.w3.org/Graphics/SVG/1.1/DTD/svg11.dtd">
<!-- Generated by graphviz version 2.44.1 (20200629.0846)
 -->
<!-- Title: ren_cursor Pages: 1 -->
<!--zoomable 588 -->
<svg id="main" version="1.1" xmlns="http://www.w3.org/2000/svg" xmlns:xlink="http://www.w3.org/1999/xlink" xml:space="preserve" onload="init(evt)">
<style type="text/css"><![CDATA[
.edge:hover path { stroke: red; }
.edge:hover polygon { stroke: red; fill: red; }
]]></style>
<script type="text/javascript"><![CDATA[
var edges = document.getElementsByTagName('g');
if (edges && edges.length) {
  for (var i=0;i<edges.length;i++) {
    if (edges[i].id.substr(0,4)=='edge') {
      edges[i].setAttribute('class','edge');
    }
  }
}
]]></script>
        <defs>
                <circle id="rim" cx="0" cy="0" r="7"/>
                <circle id="rim2" cx="0" cy="0" r="3.5"/>
                <g id="zoomPlus">
                        <use xlink:href="#rim" fill="#404040">
                                <set attributeName="fill" to="#808080" begin="zoomplus.mouseover" end="zoomplus.mouseout"/>
                        </use>
                        <path d="M-4,0h8M0,-4v8" fill="none" stroke="white" stroke-width="1.5" pointer-events="none"/>
                </g>
                <g id="zoomMin">
                        <use xlink:href="#rim" fill="#404040">
                                <set attributeName="fill" to="#808080" begin="zoomminus.mouseover" end="zoomminus.mouseout"/>
                        </use>
                        <path d="M-4,0h8" fill="none" stroke="white" stroke-width="1.5" pointer-events="none"/>
                </g>
                <g id="dirArrow">
                        <path fill="none" stroke="white" stroke-width="1.5" d="M0,-3.0v7 M-2.5,-0.5L0,-3.0L2.5,-0.5"/>
                </g>
               <g id="resetDef">
                       <use xlink:href="#rim2" fill="#404040">
                               <set attributeName="fill" to="#808080" begin="reset.mouseover" end="reset.mouseout"/>
                       </use>
               </g>
        </defs>

<script type="text/javascript">
var viewWidth = 1304;
var viewHeight = 588;
var sectionId = 'dynsection-10';
</script>
<script xlink:href="svgpan.js"/>
<svg id="graph" class="graph">
<g id="viewport">
<title>ren_cursor</title>
<polygon fill="white" stroke="transparent" points="-4,4 -4,-584 1300,-584 1300,4 -4,4"/>
<!-- Node1 -->
<g id="node1" class="node">
<title>Node1</title>
<g id="a_node1"><a xlink:title=" ">
<polygon fill="#bfbfbf" stroke="black" points="0,-114.5 0,-133.5 62,-133.5 62,-114.5 0,-114.5"/>
<text text-anchor="middle" x="31" y="-121.5" font-family="Helvetica,sans-Serif" font-size="10.00">ren_cursor</text>
</a>
</g>
</g>
<!-- Node2 -->
<g id="node2" class="node">
<title>Node2</title>
<g id="a_node2"><a xlink:href="ren_8c.html#ae6c30ee4fcc67460391eaa8adc182241" target="_top" xlink:title=" ">
<polygon fill="white" stroke="black" points="98,-228.5 98,-247.5 154,-247.5 154,-228.5 98,-228.5"/>
<text text-anchor="middle" x="126" y="-235.5" font-family="Helvetica,sans-Serif" font-size="10.00">pos_next</text>
</a>
</g>
</g>
<!-- Node1&#45;&gt;Node2 -->
<g id="edge1" class="edge">
<title>Node1&#45;&gt;Node2</title>
<path fill="none" stroke="midnightblue" d="M38.13,-133.7C49.12,-150.77 73.35,-186.92 98,-214 100.32,-216.55 102.89,-219.11 105.5,-221.56"/>
<polygon fill="midnightblue" stroke="midnightblue" points="103.42,-224.4 113.2,-228.46 108.09,-219.19 103.42,-224.4"/>
</g>
<!-- Node3 -->
<g id="node3" class="node">
<title>Node3</title>
<g id="a_node3"><a xlink:href="ren_8c.html#af4201a7e1018cbf68ff5e009005ff8bd" target="_top" xlink:title=" ">
<polygon fill="white" stroke="black" points="196.5,-190.5 196.5,-209.5 252.5,-209.5 252.5,-190.5 196.5,-190.5"/>
<text text-anchor="middle" x="224.5" y="-197.5" font-family="Helvetica,sans-Serif" font-size="10.00">pos_prev</text>
</a>
</g>
</g>
<!-- Node1&#45;&gt;Node3 -->
<g id="edge2" class="edge">
<title>Node1&#45;&gt;Node3</title>
<path fill="none" stroke="midnightblue" d="M39.83,-133.51C51.17,-146.58 73.52,-169.73 98,-181 125.8,-193.79 160.37,-198.3 186.18,-199.74"/>
<polygon fill="midnightblue" stroke="midnightblue" points="186.17,-203.24 196.31,-200.18 186.47,-196.25 186.17,-203.24"/>
</g>
<!-- Node4 -->
<g id="node4" class="node">
<title>Node4</title>
<g id="a_node4"><a xlink:href="ren_8c.html#a6fb670084750c8934454722b630e0caa" target="_top" xlink:title=" ">
<polygon fill="white" stroke="black" points="102.5,-152.5 102.5,-171.5 149.5,-171.5 149.5,-152.5 102.5,-152.5"/>
<text text-anchor="middle" x="126" y="-159.5" font-family="Helvetica,sans-Serif" font-size="10.00">ren_off</text>
</a>
</g>
</g>
<!-- Node1&#45;&gt;Node4 -->
<g id="edge3" class="edge">
<title>Node1&#45;&gt;Node4</title>
<path fill="none" stroke="midnightblue" d="M55.47,-133.59C66.76,-138.2 80.48,-143.81 92.74,-148.82"/>
<polygon fill="midnightblue" stroke="midnightblue" points="91.6,-152.13 102.18,-152.68 94.25,-145.65 91.6,-152.13"/>
</g>
<!-- Node5 -->
<g id="node5" class="node">
<title>Node5</title>
<g id="a_node5"><a xlink:href="ren_8c.html#af6e197881adec94ce251c84adf3dd495" target="_top" xlink:title=" ">
<polygon fill="white" stroke="black" points="190,-152.5 190,-171.5 259,-171.5 259,-152.5 190,-152.5"/>
<text text-anchor="middle" x="224.5" y="-159.5" font-family="Helvetica,sans-Serif" font-size="10.00">ren_position</text>
</a>
</g>
</g>
<!-- Node1&#45;&gt;Node5 -->
<g id="edge46" class="edge">
<title>Node1&#45;&gt;Node5</title>
<path fill="none" stroke="midnightblue" d="M62.25,-127.75C87.05,-131.05 122.98,-136.37 154,-143 163.07,-144.94 172.72,-147.35 181.85,-149.8"/>
<polygon fill="midnightblue" stroke="midnightblue" points="180.94,-153.17 191.51,-152.44 182.79,-146.42 180.94,-153.17"/>
</g>
<!-- Node33 -->
<g id="node33" class="node">
<title>Node33</title>
<g id="a_node33"><a xlink:href="uc_8c.html#a8afd7835259109c3ec7bb684d4a1f67f" target="_top" xlink:title=" ">
<polygon fill="white" stroke="black" points="535.5,-95.5 535.5,-114.5 585.5,-114.5 585.5,-95.5 535.5,-95.5"/>
<text text-anchor="middle" x="560.5" y="-102.5" font-family="Helvetica,sans-Serif" font-size="10.00">uc_slen</text>
</a>
</g>
</g>
<!-- Node1&#45;&gt;Node33 -->
<g id="edge50" class="edge">
<title>Node1&#45;&gt;Node33</title>
<path fill="none" stroke="midnightblue" d="M61.49,-114.41C98.8,-103.15 165.2,-86 223.5,-86 223.5,-86 223.5,-86 327,-86 397.67,-86 480.03,-94.83 525.31,-100.45"/>
<polygon fill="midnightblue" stroke="midnightblue" points="525.09,-103.95 535.45,-101.73 525.97,-97.01 525.09,-103.95"/>
</g>
<!-- Node36 -->
<g id="node36" class="node">
<title>Node36</title>
<g id="a_node36"><a xlink:href="uc_8c.html#a45fdc2f2f3cb34515f1014bf754741bb" target="_top" xlink:title=" ">
<polygon fill="white" stroke="black" points="411.5,-152.5 411.5,-171.5 464.5,-171.5 464.5,-152.5 411.5,-152.5"/>
<text text-anchor="middle" x="438" y="-159.5" font-family="Helvetica,sans-Serif" font-size="10.00">uc_code</text>
</a>
</g>
</g>
<!-- Node1&#45;&gt;Node36 -->
<g id="edge49" class="edge">
<title>Node1&#45;&gt;Node36</title>
<path fill="none" stroke="midnightblue" d="M40.2,-114.4C51.64,-101.83 73.74,-80.41 98,-72 121.52,-63.85 129.41,-68.18 154,-72 248.33,-86.64 354.25,-127.18 405.65,-148.5"/>
<polygon fill="midnightblue" stroke="midnightblue" points="404.61,-151.86 415.18,-152.49 407.31,-145.4 404.61,-151.86"/>
</g>
<!-- Node37 -->
<g id="node37" class="node">
<title>Node37</title>
<g id="a_node37"><a xlink:href="uc_8c.html#a2fecd1fc98475ece5f529da3315a9553" target="_top" xlink:title=" ">
<polygon fill="white" stroke="black" points="201.5,-0.5 201.5,-19.5 247.5,-19.5 247.5,-0.5 201.5,-0.5"/>
<text text-anchor="middle" x="224.5" y="-7.5" font-family="Helvetica,sans-Serif" font-size="10.00">uc_chr</text>
</a>
</g>
</g>
<!-- Node1&#45;&gt;Node37 -->
<g id="edge47" class="edge">
<title>Node1&#45;&gt;Node37</title>
<path fill="none" stroke="midnightblue" d="M36.15,-114.25C44.71,-95.41 66.22,-54.08 98,-34 126.14,-16.22 164.42,-11.04 191.28,-9.79"/>
<polygon fill="midnightblue" stroke="midnightblue" points="191.43,-13.29 201.32,-9.49 191.22,-6.29 191.43,-13.29"/>
</g>
<!-- Node4&#45;&gt;Node3 -->
<g id="edge4" class="edge">
<title>Node4&#45;&gt;Node3</title>
<path fill="none" stroke="midnightblue" d="M149.87,-171.01C161.68,-175.66 176.34,-181.43 189.45,-186.59"/>
<polygon fill="midnightblue" stroke="midnightblue" points="188.52,-189.99 199.11,-190.39 191.09,-183.47 188.52,-189.99"/>
</g>
<!-- Node4&#45;&gt;Node5 -->
<g id="edge5" class="edge">
<title>Node4&#45;&gt;Node5</title>
<path fill="none" stroke="midnightblue" d="M149.87,-162C158.81,-162 169.39,-162 179.69,-162"/>
<polygon fill="midnightblue" stroke="midnightblue" points="179.83,-165.5 189.83,-162 179.83,-158.5 179.83,-165.5"/>
</g>
<!-- Node4&#45;&gt;Node33 -->
<g id="edge45" class="edge">
<title>Node4&#45;&gt;Node33</title>
<path fill="none" stroke="midnightblue" d="M149.77,-153.99C161.63,-150.11 176.45,-145.72 190,-143 311.89,-118.58 459.72,-109.39 525.32,-106.34"/>
<polygon fill="midnightblue" stroke="midnightblue" points="525.65,-109.83 535.49,-105.89 525.34,-102.84 525.65,-109.83"/>
</g>
<!-- Node6 -->
<g id="node6" class="node">
<title>Node6</title>
<g id="a_node6"><a xlink:href="dir_8c.html#a8703d559ca9c640b8b89c589cf75ac06" target="_top" xlink:title=" ">
<polygon fill="white" stroke="black" points="295,-257.5 295,-276.5 357,-276.5 357,-257.5 295,-257.5"/>
<text text-anchor="middle" x="326" y="-264.5" font-family="Helvetica,sans-Serif" font-size="10.00">dir_reorder</text>
</a>
</g>
</g>
<!-- Node5&#45;&gt;Node6 -->
<g id="edge6" class="edge">
<title>Node5&#45;&gt;Node6</title>
<path fill="none" stroke="midnightblue" d="M245.98,-171.68C250.54,-174.34 255.15,-177.48 259,-181 279.75,-199.97 277.67,-210.87 295,-233 299.39,-238.61 304.43,-244.51 309.11,-249.79"/>
<polygon fill="midnightblue" stroke="midnightblue" points="306.72,-252.36 316.02,-257.44 311.92,-247.67 306.72,-252.36"/>
</g>
<!-- Node32 -->
<g id="node32" class="node">
<title>Node32</title>
<g id="a_node32"><a xlink:href="uc_8c.html#a1764c4d0fa27bca336e5ca300ad969e7" target="_top" xlink:title=" ">
<polygon fill="white" stroke="black" points="411.5,-228.5 411.5,-247.5 464.5,-247.5 464.5,-228.5 411.5,-228.5"/>
<text text-anchor="middle" x="438" y="-235.5" font-family="Helvetica,sans-Serif" font-size="10.00">uc_chop</text>
</a>
</g>
</g>
<!-- Node5&#45;&gt;Node32 -->
<g id="edge44" class="edge">
<title>Node5&#45;&gt;Node32</title>
<path fill="none" stroke="midnightblue" d="M252.29,-171.63C290.26,-185.27 359.79,-210.26 401.86,-225.37"/>
<polygon fill="midnightblue" stroke="midnightblue" points="400.83,-228.72 411.42,-228.81 403.19,-222.13 400.83,-228.72"/>
</g>
<!-- Node34 -->
<g id="node34" class="node">
<title>Node34</title>
<g id="a_node34"><a xlink:href="ren_8c.html#a319a71758607f19d2beedd2bd4d3b369" target="_top" xlink:title=" ">
<polygon fill="white" stroke="black" points="298,-152.5 298,-171.5 354,-171.5 354,-152.5 298,-152.5"/>
<text text-anchor="middle" x="326" y="-159.5" font-family="Helvetica,sans-Serif" font-size="10.00">ren_cwid</text>
</a>
</g>
</g>
<!-- Node5&#45;&gt;Node34 -->
<g id="edge41" class="edge">
<title>Node5&#45;&gt;Node34</title>
<path fill="none" stroke="midnightblue" d="M259.19,-162C268.36,-162 278.35,-162 287.72,-162"/>
<polygon fill="midnightblue" stroke="midnightblue" points="287.94,-165.5 297.94,-162 287.94,-158.5 287.94,-165.5"/>
</g>
<!-- Node7 -->
<g id="node7" class="node">
<title>Node7</title>
<g id="a_node7"><a xlink:href="dir_8c.html#aba0a553010578626d7148da2b6551321" target="_top" xlink:title=" ">
<polygon fill="white" stroke="black" points="405.5,-361.5 405.5,-380.5 470.5,-380.5 470.5,-361.5 405.5,-361.5"/>
<text text-anchor="middle" x="438" y="-368.5" font-family="Helvetica,sans-Serif" font-size="10.00">dir_context</text>
</a>
</g>
</g>
<!-- Node6&#45;&gt;Node7 -->
<g id="edge7" class="edge">
<title>Node6&#45;&gt;Node7</title>
<path fill="none" stroke="midnightblue" d="M337.15,-276.6C355.9,-294.32 396.15,-332.38 419.41,-354.37"/>
<polygon fill="midnightblue" stroke="midnightblue" points="417.2,-357.1 426.87,-361.43 422.01,-352.01 417.2,-357.1"/>
</g>
<!-- Node20 -->
<g id="node20" class="node">
<title>Node20</title>
<g id="a_node20"><a xlink:href="dir_8c.html#a8dbcb1db32888e71e2702f7173e7cba4" target="_top" xlink:title=" ">
<polygon fill="white" stroke="black" points="416.5,-266.5 416.5,-285.5 459.5,-285.5 459.5,-266.5 416.5,-266.5"/>
<text text-anchor="middle" x="438" y="-273.5" font-family="Helvetica,sans-Serif" font-size="10.00">dir_fix</text>
</a>
</g>
</g>
<!-- Node6&#45;&gt;Node20 -->
<g id="edge23" class="edge">
<title>Node6&#45;&gt;Node20</title>
<path fill="none" stroke="midnightblue" d="M357.06,-269.46C372.36,-270.71 390.92,-272.23 406.31,-273.49"/>
<polygon fill="midnightblue" stroke="midnightblue" points="406.12,-276.99 416.37,-274.31 406.69,-270.01 406.12,-276.99"/>
</g>
<!-- Node6&#45;&gt;Node32 -->
<g id="edge37" class="edge">
<title>Node6&#45;&gt;Node32</title>
<path fill="none" stroke="midnightblue" d="M357.06,-259.08C370.78,-255.46 387.12,-251.15 401.45,-247.37"/>
<polygon fill="midnightblue" stroke="midnightblue" points="402.68,-250.67 411.45,-244.74 400.89,-243.9 402.68,-250.67"/>
</g>
<!-- Node8 -->
<g id="node8" class="node">
<title>Node8</title>
<g id="a_node8"><a xlink:href="conf_8c.html#a9e1bc5ed600c151c51d8e2342454e07c" target="_top" xlink:title=" ">
<polygon fill="white" stroke="black" points="519,-399.5 519,-418.5 602,-418.5 602,-399.5 519,-399.5"/>
<text text-anchor="middle" x="560.5" y="-406.5" font-family="Helvetica,sans-Serif" font-size="10.00">conf_dircontext</text>
</a>
</g>
</g>
<!-- Node7&#45;&gt;Node8 -->
<g id="edge8" class="edge">
<title>Node7&#45;&gt;Node8</title>
<path fill="none" stroke="midnightblue" d="M469.41,-380.59C484.53,-385.36 503.02,-391.19 519.3,-396.32"/>
<polygon fill="midnightblue" stroke="midnightblue" points="518.51,-399.74 529.1,-399.41 520.62,-393.07 518.51,-399.74"/>
</g>
<!-- Node9 -->
<g id="node9" class="node">
<title>Node9</title>
<g id="a_node9"><a xlink:href="rset_8c.html#a389ec5abca88adc048a058744f2373eb" target="_top" xlink:title=" ">
<polygon fill="white" stroke="black" points="647.5,-399.5 647.5,-418.5 701.5,-418.5 701.5,-399.5 647.5,-399.5"/>
<text text-anchor="middle" x="674.5" y="-406.5" font-family="Helvetica,sans-Serif" font-size="10.00">rset_find</text>
</a>
</g>
</g>
<!-- Node7&#45;&gt;Node9 -->
<g id="edge9" class="edge">
<title>Node7&#45;&gt;Node9</title>
<path fill="none" stroke="midnightblue" d="M470.76,-373.34C503.76,-376.09 556.8,-381.41 602,-390 613.59,-392.2 626.07,-395.27 637.31,-398.3"/>
<polygon fill="midnightblue" stroke="midnightblue" points="636.65,-401.75 647.22,-401.05 638.52,-395.01 636.65,-401.75"/>
</g>
<!-- Node10 -->
<g id="node10" class="node">
<title>Node10</title>
<g id="a_node10"><a xlink:href="regex_8c.html#aa085ccd05ec25e3f8053850aebc50fe3" target="_top" xlink:title=" ">
<polygon fill="white" stroke="black" points="756.5,-399.5 756.5,-418.5 807.5,-418.5 807.5,-399.5 756.5,-399.5"/>
<text text-anchor="middle" x="782" y="-406.5" font-family="Helvetica,sans-Serif" font-size="10.00">regexec</text>
</a>
</g>
</g>
<!-- Node9&#45;&gt;Node10 -->
<g id="edge10" class="edge">
<title>Node9&#45;&gt;Node10</title>
<path fill="none" stroke="midnightblue" d="M701.58,-409C715.03,-409 731.63,-409 746.16,-409"/>
<polygon fill="midnightblue" stroke="midnightblue" points="746.31,-412.5 756.31,-409 746.31,-405.5 746.31,-412.5"/>
</g>
<!-- Node11 -->
<g id="node11" class="node">
<title>Node11</title>
<g id="a_node11"><a xlink:href="regex_8c.html#aa5925e49bd18112bb37421dbde29162a" target="_top" xlink:title=" ">
<polygon fill="white" stroke="black" points="853,-437.5 853,-456.5 924,-456.5 924,-437.5 853,-437.5"/>
<text text-anchor="middle" x="888.5" y="-444.5" font-family="Helvetica,sans-Serif" font-size="10.00">re_recmatch</text>
</a>
</g>
</g>
<!-- Node10&#45;&gt;Node11 -->
<g id="edge11" class="edge">
<title>Node10&#45;&gt;Node11</title>
<path fill="none" stroke="midnightblue" d="M807.5,-417.91C820.64,-422.69 837.07,-428.66 851.62,-433.95"/>
<polygon fill="midnightblue" stroke="midnightblue" points="850.73,-437.35 861.33,-437.48 853.12,-430.78 850.73,-437.35"/>
</g>
<!-- Node17 -->
<g id="node17" class="node">
<title>Node17</title>
<g id="a_node17"><a xlink:href="regex_8c.html#a9a0d6d5f93f1eaba8b63b16903c0952d" target="_top" xlink:title=" ">
<polygon fill="white" stroke="black" points="1249.5,-484.5 1249.5,-503.5 1294.5,-503.5 1294.5,-484.5 1249.5,-484.5"/>
<text text-anchor="middle" x="1272" y="-491.5" font-family="Helvetica,sans-Serif" font-size="10.00">uc_len</text>
</a>
</g>
</g>
<!-- Node10&#45;&gt;Node17 -->
<g id="edge22" class="edge">
<title>Node10&#45;&gt;Node17</title>
<path fill="none" stroke="midnightblue" d="M807.53,-403.06C844.77,-394.58 917.94,-380 981,-380 981,-380 981,-380 1078,-380 1138.15,-380 1161.62,-366.14 1212,-399 1239.39,-416.87 1256.28,-452.35 1264.63,-474.53"/>
<polygon fill="midnightblue" stroke="midnightblue" points="1261.42,-475.95 1268.05,-484.22 1268.02,-473.62 1261.42,-475.95"/>
</g>
<!-- Node12 -->
<g id="node12" class="node">
<title>Node12</title>
<g id="a_node12"><a xlink:href="regex_8c.html#a8e35614ddf21d405773327a52a95a73d" target="_top" xlink:title=" ">
<polygon fill="white" stroke="black" points="960,-456.5 960,-475.5 1004,-475.5 1004,-456.5 960,-456.5"/>
<text text-anchor="middle" x="982" y="-463.5" font-family="Helvetica,sans-Serif" font-size="10.00">re_rec</text>
</a>
</g>
</g>
<!-- Node11&#45;&gt;Node12 -->
<g id="edge12" class="edge">
<title>Node11&#45;&gt;Node12</title>
<path fill="none" stroke="midnightblue" d="M924.09,-454.18C932.56,-455.94 941.57,-457.81 949.87,-459.54"/>
<polygon fill="midnightblue" stroke="midnightblue" points="949.4,-463.01 959.9,-461.62 950.82,-456.16 949.4,-463.01"/>
</g>
<!-- Node13 -->
<g id="node13" class="node">
<title>Node13</title>
<g id="a_node13"><a xlink:href="regex_8c.html#a24fd1fc7457ff4f03fb384f7170ac395" target="_top" xlink:title=" ">
<polygon fill="white" stroke="black" points="1040,-465.5 1040,-484.5 1114,-484.5 1114,-465.5 1040,-465.5"/>
<text text-anchor="middle" x="1077" y="-472.5" font-family="Helvetica,sans-Serif" font-size="10.00">ratom_match</text>
</a>
</g>
</g>
<!-- Node12&#45;&gt;Node13 -->
<g id="edge13" class="edge">
<title>Node12&#45;&gt;Node13</title>
<path fill="none" stroke="midnightblue" d="M1004.1,-468.04C1011.73,-468.78 1020.68,-469.65 1029.63,-470.51"/>
<polygon fill="midnightblue" stroke="midnightblue" points="1029.36,-474 1039.65,-471.48 1030.03,-467.04 1029.36,-474"/>
</g>
<!-- Node14 -->
<g id="node14" class="node">
<title>Node14</title>
<g id="a_node14"><a xlink:href="regex_8c.html#aae17ed73e84075718fb04d131d6ca779" target="_top" xlink:title=" ">
<polygon fill="white" stroke="black" points="1150,-560.5 1150,-579.5 1212,-579.5 1212,-560.5 1150,-560.5"/>
<text text-anchor="middle" x="1181" y="-567.5" font-family="Helvetica,sans-Serif" font-size="10.00">brk_match</text>
</a>
</g>
</g>
<!-- Node13&#45;&gt;Node14 -->
<g id="edge14" class="edge">
<title>Node13&#45;&gt;Node14</title>
<path fill="none" stroke="midnightblue" d="M1087.02,-484.51C1100.38,-498.43 1126.38,-525.01 1150,-546 1153.05,-548.71 1156.36,-551.5 1159.63,-554.18"/>
<polygon fill="midnightblue" stroke="midnightblue" points="1157.51,-556.96 1167.5,-560.47 1161.88,-551.49 1157.51,-556.96"/>
</g>
<!-- Node16 -->
<g id="node16" class="node">
<title>Node16</title>
<g id="a_node16"><a xlink:href="regex_8c.html#aaf73cdb88048e7f9fd588eb8d5aeb5a3" target="_top" xlink:title=" ">
<polygon fill="white" stroke="black" points="1248,-522.5 1248,-541.5 1296,-541.5 1296,-522.5 1248,-522.5"/>
<text text-anchor="middle" x="1272" y="-529.5" font-family="Helvetica,sans-Serif" font-size="10.00">uc_dec</text>
</a>
</g>
</g>
<!-- Node13&#45;&gt;Node16 -->
<g id="edge20" class="edge">
<title>Node13&#45;&gt;Node16</title>
<path fill="none" stroke="midnightblue" d="M1105.58,-484.59C1118.94,-489.14 1135.25,-494.53 1150,-499 1179.54,-507.94 1213.47,-517.1 1237.86,-523.49"/>
<polygon fill="midnightblue" stroke="midnightblue" points="1237.13,-526.92 1247.69,-526.05 1238.9,-520.15 1237.13,-526.92"/>
</g>
<!-- Node13&#45;&gt;Node17 -->
<g id="edge21" class="edge">
<title>Node13&#45;&gt;Node17</title>
<path fill="none" stroke="midnightblue" d="M1114.3,-478.57C1150.32,-482.12 1204.97,-487.5 1239.3,-490.88"/>
<polygon fill="midnightblue" stroke="midnightblue" points="1238.96,-494.36 1249.25,-491.86 1239.64,-487.4 1238.96,-494.36"/>
</g>
<!-- Node18 -->
<g id="node18" class="node">
<title>Node18</title>
<g id="a_node18"><a xlink:href="regex_8c.html#a35ad3fd0dbb795e6f30404ce86a7be5b" target="_top" xlink:title=" ">
<polygon fill="white" stroke="black" points="1158.5,-446.5 1158.5,-465.5 1203.5,-465.5 1203.5,-446.5 1158.5,-446.5"/>
<text text-anchor="middle" x="1181" y="-453.5" font-family="Helvetica,sans-Serif" font-size="10.00">isword</text>
</a>
</g>
</g>
<!-- Node13&#45;&gt;Node18 -->
<g id="edge18" class="edge">
<title>Node13&#45;&gt;Node18</title>
<path fill="none" stroke="midnightblue" d="M1114.25,-468.25C1125.44,-466.16 1137.68,-463.88 1148.52,-461.86"/>
<polygon fill="midnightblue" stroke="midnightblue" points="1149.23,-465.29 1158.42,-460.02 1147.95,-458.41 1149.23,-465.29"/>
</g>
<!-- Node19 -->
<g id="node19" class="node">
<title>Node19</title>
<g id="a_node19"><a xlink:href="regex_8c.html#ade3e10606e6e8866e6151fe8440d6101" target="_top" xlink:title=" ">
<polygon fill="white" stroke="black" points="1157,-408.5 1157,-427.5 1205,-427.5 1205,-408.5 1157,-408.5"/>
<text text-anchor="middle" x="1181" y="-415.5" font-family="Helvetica,sans-Serif" font-size="10.00">uc_beg</text>
</a>
</g>
</g>
<!-- Node13&#45;&gt;Node19 -->
<g id="edge19" class="edge">
<title>Node13&#45;&gt;Node19</title>
<path fill="none" stroke="midnightblue" d="M1095.3,-465.33C1111.45,-456.31 1135.74,-442.73 1154.18,-432.43"/>
<polygon fill="midnightblue" stroke="midnightblue" points="1155.93,-435.46 1162.95,-427.53 1152.52,-429.35 1155.93,-435.46"/>
</g>
<!-- Node15 -->
<g id="node15" class="node">
<title>Node15</title>
<g id="a_node15"><a xlink:href="regex_8c.html#acc18ff8d2687611a9e221b3329b02413" target="_top" xlink:title=" ">
<polygon fill="white" stroke="black" points="1248,-560.5 1248,-579.5 1296,-579.5 1296,-560.5 1248,-560.5"/>
<text text-anchor="middle" x="1272" y="-567.5" font-family="Helvetica,sans-Serif" font-size="10.00">brk_len</text>
</a>
</g>
</g>
<!-- Node14&#45;&gt;Node15 -->
<g id="edge15" class="edge">
<title>Node14&#45;&gt;Node15</title>
<path fill="none" stroke="midnightblue" d="M1212.13,-570C1220.36,-570 1229.32,-570 1237.71,-570"/>
<polygon fill="midnightblue" stroke="midnightblue" points="1237.94,-573.5 1247.94,-570 1237.94,-566.5 1237.94,-573.5"/>
</g>
<!-- Node14&#45;&gt;Node16 -->
<g id="edge16" class="edge">
<title>Node14&#45;&gt;Node16</title>
<path fill="none" stroke="midnightblue" d="M1204.46,-560.41C1215,-555.91 1227.75,-550.47 1239.25,-545.56"/>
<polygon fill="midnightblue" stroke="midnightblue" points="1240.73,-548.73 1248.55,-541.59 1237.98,-542.29 1240.73,-548.73"/>
</g>
<!-- Node14&#45;&gt;Node17 -->
<g id="edge17" class="edge">
<title>Node14&#45;&gt;Node17</title>
<path fill="none" stroke="midnightblue" d="M1193.15,-560.24C1206.22,-548.83 1228.57,-529.41 1248,-513 1249.14,-512.04 1250.31,-511.05 1251.49,-510.06"/>
<polygon fill="midnightblue" stroke="midnightblue" points="1253.8,-512.7 1259.26,-503.62 1249.33,-507.31 1253.8,-512.7"/>
</g>
<!-- Node21 -->
<g id="node21" class="node">
<title>Node21</title>
<g id="a_node21"><a xlink:href="dir_8c.html#a3b2f132ebfd084295e89aa35eff56ff4" target="_top" xlink:title=" ">
<polygon fill="white" stroke="black" points="531,-285.5 531,-304.5 590,-304.5 590,-285.5 531,-285.5"/>
<text text-anchor="middle" x="560.5" y="-292.5" font-family="Helvetica,sans-Serif" font-size="10.00">dir_match</text>
</a>
</g>
</g>
<!-- Node20&#45;&gt;Node21 -->
<g id="edge24" class="edge">
<title>Node20&#45;&gt;Node21</title>
<path fill="none" stroke="midnightblue" d="M459.71,-279.27C476.52,-281.92 500.68,-285.73 521.02,-288.93"/>
<polygon fill="midnightblue" stroke="midnightblue" points="520.52,-292.4 530.95,-290.5 521.61,-285.48 520.52,-292.4"/>
</g>
<!-- Node31 -->
<g id="node31" class="node">
<title>Node31</title>
<g id="a_node31"><a xlink:href="dir_8c.html#a83ed34b9263550e2ca9b15cc02294a6b" target="_top" xlink:title=" ">
<polygon fill="white" stroke="black" points="528,-247.5 528,-266.5 593,-266.5 593,-247.5 528,-247.5"/>
<text text-anchor="middle" x="560.5" y="-254.5" font-family="Helvetica,sans-Serif" font-size="10.00">dir_reverse</text>
</a>
</g>
</g>
<!-- Node20&#45;&gt;Node31 -->
<g id="edge36" class="edge">
<title>Node20&#45;&gt;Node31</title>
<path fill="none" stroke="midnightblue" d="M459.71,-272.73C475.64,-270.22 498.18,-266.67 517.8,-263.58"/>
<polygon fill="midnightblue" stroke="midnightblue" points="518.41,-267.02 527.75,-262.01 517.32,-260.11 518.41,-267.02"/>
</g>
<!-- Node21&#45;&gt;Node9 -->
<g id="edge26" class="edge">
<title>Node21&#45;&gt;Node9</title>
<path fill="none" stroke="midnightblue" d="M567.4,-304.69C579.03,-323.17 606.54,-363.92 638,-390 639.75,-391.45 641.63,-392.84 643.57,-394.16"/>
<polygon fill="midnightblue" stroke="midnightblue" points="641.97,-397.28 652.34,-399.47 645.6,-391.29 641.97,-397.28"/>
</g>
<!-- Node22 -->
<g id="node22" class="node">
<title>Node22</title>
<g id="a_node22"><a xlink:href="conf_8c.html#a3efe6ef9cd3bd043b3df1653265409f2" target="_top" xlink:title=" ">
<polygon fill="white" stroke="black" points="638,-361.5 638,-380.5 711,-380.5 711,-361.5 638,-361.5"/>
<text text-anchor="middle" x="674.5" y="-368.5" font-family="Helvetica,sans-Serif" font-size="10.00">conf_dirmark</text>
</a>
</g>
</g>
<!-- Node21&#45;&gt;Node22 -->
<g id="edge25" class="edge">
<title>Node21&#45;&gt;Node22</title>
<path fill="none" stroke="midnightblue" d="M573.29,-304.66C587.99,-316.48 614.09,-336.81 638,-352 640.43,-353.55 643.01,-355.09 645.61,-356.58"/>
<polygon fill="midnightblue" stroke="midnightblue" points="643.96,-359.68 654.41,-361.45 647.35,-353.55 643.96,-359.68"/>
</g>
<!-- Node23 -->
<g id="node23" class="node">
<title>Node23</title>
<g id="a_node23"><a xlink:href="sbuf_8c.html#a4e56760893d5a6797626743840c9adf2" target="_top" xlink:title=" ">
<polygon fill="white" stroke="black" points="647.5,-323.5 647.5,-342.5 701.5,-342.5 701.5,-323.5 647.5,-323.5"/>
<text text-anchor="middle" x="674.5" y="-330.5" font-family="Helvetica,sans-Serif" font-size="10.00">sbuf_buf</text>
</a>
</g>
</g>
<!-- Node21&#45;&gt;Node23 -->
<g id="edge27" class="edge">
<title>Node21&#45;&gt;Node23</title>
<path fill="none" stroke="midnightblue" d="M589.76,-304.59C604.22,-309.49 621.98,-315.52 637.42,-320.76"/>
<polygon fill="midnightblue" stroke="midnightblue" points="636.58,-324.17 647.17,-324.07 638.82,-317.54 636.58,-324.17"/>
</g>
<!-- Node25 -->
<g id="node25" class="node">
<title>Node25</title>
<g id="a_node25"><a xlink:href="sbuf_8c.html#a8c1a89868b1999663effb78b4f3fab32" target="_top" xlink:title=" ">
<polygon fill="white" stroke="black" points="646,-285.5 646,-304.5 703,-304.5 703,-285.5 646,-285.5"/>
<text text-anchor="middle" x="674.5" y="-292.5" font-family="Helvetica,sans-Serif" font-size="10.00">sbuf_free</text>
</a>
</g>
</g>
<!-- Node21&#45;&gt;Node25 -->
<g id="edge29" class="edge">
<title>Node21&#45;&gt;Node25</title>
<path fill="none" stroke="midnightblue" d="M590.05,-295C603.82,-295 620.53,-295 635.37,-295"/>
<polygon fill="midnightblue" stroke="midnightblue" points="635.77,-298.5 645.77,-295 635.77,-291.5 635.77,-298.5"/>
</g>
<!-- Node26 -->
<g id="node26" class="node">
<title>Node26</title>
<g id="a_node26"><a xlink:href="sbuf_8c.html#a57748585d6786a2c1aadc2cbe6f2135b" target="_top" xlink:title=" ">
<polygon fill="white" stroke="black" points="642,-247.5 642,-266.5 707,-266.5 707,-247.5 642,-247.5"/>
<text text-anchor="middle" x="674.5" y="-254.5" font-family="Helvetica,sans-Serif" font-size="10.00">sbuf_make</text>
</a>
</g>
</g>
<!-- Node21&#45;&gt;Node26 -->
<g id="edge30" class="edge">
<title>Node21&#45;&gt;Node26</title>
<path fill="none" stroke="midnightblue" d="M589.76,-285.41C603.69,-280.69 620.68,-274.92 635.71,-269.82"/>
<polygon fill="midnightblue" stroke="midnightblue" points="636.9,-273.11 645.25,-266.59 634.65,-266.48 636.9,-273.11"/>
</g>
<!-- Node27 -->
<g id="node27" class="node">
<title>Node27</title>
<g id="a_node27"><a xlink:href="sbuf_8c.html#aa511ac77d6b486accc01c0512ef27ed2" target="_top" xlink:title=" ">
<polygon fill="white" stroke="black" points="643.5,-209.5 643.5,-228.5 705.5,-228.5 705.5,-209.5 643.5,-209.5"/>
<text text-anchor="middle" x="674.5" y="-216.5" font-family="Helvetica,sans-Serif" font-size="10.00">sbuf_mem</text>
</a>
</g>
</g>
<!-- Node21&#45;&gt;Node27 -->
<g id="edge31" class="edge">
<title>Node21&#45;&gt;Node27</title>
<path fill="none" stroke="midnightblue" d="M585.89,-285.36C591.41,-282.7 597.09,-279.55 602,-276 620.86,-262.38 619.51,-252.11 638,-238 639.85,-236.59 641.82,-235.22 643.85,-233.91"/>
<polygon fill="midnightblue" stroke="midnightblue" points="646.06,-236.67 652.91,-228.58 642.51,-230.64 646.06,-236.67"/>
</g>
<!-- Node28 -->
<g id="node28" class="node">
<title>Node28</title>
<g id="a_node28"><a xlink:href="uc_8c.html#a8334cbe4db5e54e19bf79b31f68d9eb8" target="_top" xlink:title=" ">
<polygon fill="white" stroke="black" points="652.5,-171.5 652.5,-190.5 696.5,-190.5 696.5,-171.5 652.5,-171.5"/>
<text text-anchor="middle" x="674.5" y="-178.5" font-family="Helvetica,sans-Serif" font-size="10.00">uc_off</text>
</a>
</g>
</g>
<!-- Node21&#45;&gt;Node28 -->
<g id="edge33" class="edge">
<title>Node21&#45;&gt;Node28</title>
<path fill="none" stroke="midnightblue" d="M588.89,-285.34C593.65,-282.82 598.26,-279.73 602,-276 628.48,-249.62 612.23,-227.07 638,-200 639.77,-198.14 641.77,-196.42 643.88,-194.84"/>
<polygon fill="midnightblue" stroke="midnightblue" points="645.85,-197.74 652.44,-189.45 642.12,-191.82 645.85,-197.74"/>
</g>
<!-- Node24 -->
<g id="node24" class="node">
<title>Node24</title>
<g id="a_node24"><a xlink:href="sbuf_8c.html#a4ad75f3948c0340c342a3ea3eb63a6e6" target="_top" xlink:title=" ">
<polygon fill="white" stroke="black" points="747,-266.5 747,-285.5 817,-285.5 817,-266.5 747,-266.5"/>
<text text-anchor="middle" x="782" y="-273.5" font-family="Helvetica,sans-Serif" font-size="10.00">sbuf_extend</text>
</a>
</g>
</g>
<!-- Node23&#45;&gt;Node24 -->
<g id="edge28" class="edge">
<title>Node23&#45;&gt;Node24</title>
<path fill="none" stroke="midnightblue" d="M693.57,-323.35C699.16,-320.36 705.34,-317.05 711,-314 725.4,-306.24 741.44,-297.54 754.52,-290.42"/>
<polygon fill="midnightblue" stroke="midnightblue" points="756.36,-293.41 763.47,-285.56 753.01,-287.26 756.36,-293.41"/>
</g>
<!-- Node27&#45;&gt;Node24 -->
<g id="edge32" class="edge">
<title>Node27&#45;&gt;Node24</title>
<path fill="none" stroke="midnightblue" d="M693.57,-228.65C699.16,-231.64 705.34,-234.95 711,-238 725.4,-245.76 741.44,-254.46 754.52,-261.58"/>
<polygon fill="midnightblue" stroke="midnightblue" points="753.01,-264.74 763.47,-266.44 756.36,-258.59 753.01,-264.74"/>
</g>
<!-- Node29 -->
<g id="node29" class="node">
<title>Node29</title>
<g id="a_node29"><a xlink:href="uc_8c.html#a79c7c44c06c1febff5680c19667e2676" target="_top" xlink:title=" ">
<polygon fill="white" stroke="black" points="756.5,-133.5 756.5,-152.5 807.5,-152.5 807.5,-133.5 756.5,-133.5"/>
<text text-anchor="middle" x="782" y="-140.5" font-family="Helvetica,sans-Serif" font-size="10.00">uc_next</text>
</a>
</g>
</g>
<!-- Node28&#45;&gt;Node29 -->
<g id="edge34" class="edge">
<title>Node28&#45;&gt;Node29</title>
<path fill="none" stroke="midnightblue" d="M696.6,-173.4C710.84,-168.27 729.96,-161.38 746.41,-155.46"/>
<polygon fill="midnightblue" stroke="midnightblue" points="748.01,-158.6 756.23,-151.92 745.64,-152.02 748.01,-158.6"/>
</g>
<!-- Node30 -->
<g id="node30" class="node">
<title>Node30</title>
<g id="a_node30"><a xlink:href="uc_8c.html#a616e24870a58b86644c34ee077faca11" target="_top" xlink:title=" ">
<polygon fill="white" stroke="black" points="864.5,-114.5 864.5,-133.5 912.5,-133.5 912.5,-114.5 864.5,-114.5"/>
<text text-anchor="middle" x="888.5" y="-121.5" font-family="Helvetica,sans-Serif" font-size="10.00">uc_end</text>
</a>
</g>
</g>
<!-- Node29&#45;&gt;Node30 -->
<g id="edge35" class="edge">
<title>Node29&#45;&gt;Node30</title>
<path fill="none" stroke="midnightblue" d="M807.5,-138.55C821.42,-136.01 839.04,-132.81 854.2,-130.05"/>
<polygon fill="midnightblue" stroke="midnightblue" points="855.02,-133.46 864.23,-128.23 853.76,-126.58 855.02,-133.46"/>
</g>
<!-- Node32&#45;&gt;Node29 -->
<g id="edge38" class="edge">
<title>Node32&#45;&gt;Node29</title>
<path fill="none" stroke="midnightblue" d="M461.9,-228.48C506.38,-210.12 603.14,-170.84 638,-162 674.32,-152.79 717.04,-147.85 746.26,-145.34"/>
<polygon fill="midnightblue" stroke="midnightblue" points="746.7,-148.82 756.38,-144.52 746.13,-141.84 746.7,-148.82"/>
</g>
<!-- Node32&#45;&gt;Node33 -->
<g id="edge39" class="edge">
<title>Node32&#45;&gt;Node33</title>
<path fill="none" stroke="midnightblue" d="M464.84,-230.78C471.41,-227.95 478.01,-224.13 483,-219 513.05,-188.13 490.98,-161.72 519,-129 521.81,-125.72 525.19,-122.77 528.78,-120.15"/>
<polygon fill="midnightblue" stroke="midnightblue" points="530.83,-122.99 537.37,-114.66 527.06,-117.09 530.83,-122.99"/>
</g>
<!-- Node33&#45;&gt;Node30 -->
<g id="edge40" class="edge">
<title>Node33&#45;&gt;Node30</title>
<path fill="none" stroke="midnightblue" d="M585.74,-106.41C643.33,-109.77 788.45,-118.23 854.21,-122.06"/>
<polygon fill="midnightblue" stroke="midnightblue" points="854.23,-125.57 864.42,-122.65 854.64,-118.58 854.23,-125.57"/>
</g>
<!-- Node35 -->
<g id="node35" class="node">
<title>Node35</title>
<g id="a_node35"><a xlink:href="conf_8c.html#ab1da6502eeb02af2fb9fa8a84515b0b6" target="_top" xlink:title=" ">
<polygon fill="white" stroke="black" points="393,-190.5 393,-209.5 483,-209.5 483,-190.5 393,-190.5"/>
<text text-anchor="middle" x="438" y="-197.5" font-family="Helvetica,sans-Serif" font-size="10.00">conf_placeholder</text>
</a>
</g>
</g>
<!-- Node34&#45;&gt;Node35 -->
<g id="edge42" class="edge">
<title>Node34&#45;&gt;Node35</title>
<path fill="none" stroke="midnightblue" d="M354.19,-171.39C367.97,-176.15 384.91,-182 399.87,-187.17"/>
<polygon fill="midnightblue" stroke="midnightblue" points="398.76,-190.49 409.36,-190.45 401.05,-183.88 398.76,-190.49"/>
</g>
<!-- Node34&#45;&gt;Node36 -->
<g id="edge43" class="edge">
<title>Node34&#45;&gt;Node36</title>
<path fill="none" stroke="midnightblue" d="M354.19,-162C368.35,-162 385.86,-162 401.12,-162"/>
<polygon fill="midnightblue" stroke="midnightblue" points="401.26,-165.5 411.26,-162 401.26,-158.5 401.26,-165.5"/>
</g>
<!-- Node37&#45;&gt;Node29 -->
<g id="edge48" class="edge">
<title>Node37&#45;&gt;Node29</title>
<path fill="none" stroke="midnightblue" d="M247.73,-10C286.26,-10 367.97,-10 437,-10 437,-10 437,-10 561.5,-10 649.78,-10 732.88,-89.66 765.95,-125.68"/>
<polygon fill="midnightblue" stroke="midnightblue" points="763.63,-128.33 772.91,-133.43 768.84,-123.66 763.63,-128.33"/>
</g>
</g>
</svg>
        <g id="navigator" transform="translate(0 0)" fill="#404254">
                <rect fill="#f2f5e9" fill-opacity="0.5" stroke="#606060" stroke-width=".5" x="0" y="0" width="60" height="60"/>
                <use id="zoomplus" xlink:href="#zoomPlus" x="17" y="9" onmousedown="handleZoom(evt,'in')"/>
                <use id="zoomminus" xlink:href="#zoomMin" x="42" y="9" onmousedown="handleZoom(evt,'out')"/>
                <use id="reset" xlink:href="#resetDef" x="30" y="36" onmousedown="handleReset()"/>
                <g id="arrowUp" xlink:href="#dirArrow" transform="translate(30 24)" onmousedown="handlePan(0,-1)">
                  <use xlink:href="#rim" fill="#404040">
                        <set attributeName="fill" to="#808080" begin="arrowUp.mouseover" end="arrowUp.mouseout"/>
                  </use>
                  <path fill="none" stroke="white" stroke-width="1.5" d="M0,-3.0v7 M-2.5,-0.5L0,-3.0L2.5,-0.5"/>
                </g>
                <g id="arrowRight" xlink:href="#dirArrow" transform="rotate(90) translate(36 -43)" onmousedown="handlePan(1,0)">
                  <use xlink:href="#rim" fill="#404040">
                        <set attributeName="fill" to="#808080" begin="arrowRight.mouseover" end="arrowRight.mouseout"/>
                  </use>
                  <path fill="none" stroke="white" stroke-width="1.5" d="M0,-3.0v7 M-2.5,-0.5L0,-3.0L2.5,-0.5"/>
                </g>
                <g id="arrowDown" xlink:href="#dirArrow" transform="rotate(180) translate(-30 -48)" onmousedown="handlePan(0,1)">
                  <use xlink:href="#rim" fill="#404040">
                        <set attributeName="fill" to="#808080" begin="arrowDown.mouseover" end="arrowDown.mouseout"/>
                  </use>
                  <path fill="none" stroke="white" stroke-width="1.5" d="M0,-3.0v7 M-2.5,-0.5L0,-3.0L2.5,-0.5"/>
                </g>
                <g id="arrowLeft" xlink:href="#dirArrow" transform="rotate(270) translate(-36 17)" onmousedown="handlePan(-1,0)">
                  <use xlink:href="#rim" fill="#404040">
                        <set attributeName="fill" to="#808080" begin="arrowLeft.mouseover" end="arrowLeft.mouseout"/>
                  </use>
                  <path fill="none" stroke="white" stroke-width="1.5" d="M0,-3.0v7 M-2.5,-0.5L0,-3.0L2.5,-0.5"/>
                </g>
        </g>
        <svg viewBox="0 0 15 15" width="100%" height="30px" preserveAspectRatio="xMaxYMin meet">
         <g id="arrow_out" transform="scale(0.3 0.3)">
          <a xlink:href="ren_8c_aa37d51760ec8c06d251bfb9f4a134f7a_cgraph_org.svg" target="_base">
           <rect id="button" ry="5" rx="5" y="6" x="6" height="38" width="38"
                fill="#f2f5e9" fill-opacity="0.5" stroke="#606060" stroke-width="1.0"/>
           <path id="arrow"
             d="M 11.500037,31.436501 C 11.940474,20.09759 22.043105,11.32322 32.158766,21.979434 L 37.068811,17.246167 C 37.068811,17.246167 37.088388,32 37.088388,32 L 22.160133,31.978069 C 22.160133,31.978069 26.997745,27.140456 26.997745,27.140456 C 18.528582,18.264221 13.291696,25.230495 11.500037,31.436501 z"
             style="fill:#404040;"/>
          </a>
         </g>
        </svg>
</svg>
