<?xml version="1.0" encoding="UTF-8" standalone="no"?>
<!DOCTYPE svg PUBLIC "-//W3C//DTD SVG 1.1//EN"
 "http://www.w3.org/Graphics/SVG/1.1/DTD/svg11.dtd">
<!-- Generated by graphviz version 2.44.1 (20200629.0846)
 -->
<!-- Title: reg_put Pages: 1 -->
<!--zoomable 664 -->
<svg id="main" version="1.1" xmlns="http://www.w3.org/2000/svg" xmlns:xlink="http://www.w3.org/1999/xlink" xml:space="preserve" onload="init(evt)">
<style type="text/css"><![CDATA[
.edge:hover path { stroke: red; }
.edge:hover polygon { stroke: red; fill: red; }
]]></style>
<script type="text/javascript"><![CDATA[
var edges = document.getElementsByTagName('g');
if (edges && edges.length) {
  for (var i=0;i<edges.length;i++) {
    if (edges[i].id.substr(0,4)=='edge') {
      edges[i].setAttribute('class','edge');
    }
  }
}
]]></script>
        <defs>
                <circle id="rim" cx="0" cy="0" r="7"/>
                <circle id="rim2" cx="0" cy="0" r="3.5"/>
                <g id="zoomPlus">
                        <use xlink:href="#rim" fill="#404040">
                                <set attributeName="fill" to="#808080" begin="zoomplus.mouseover" end="zoomplus.mouseout"/>
                        </use>
                        <path d="M-4,0h8M0,-4v8" fill="none" stroke="white" stroke-width="1.5" pointer-events="none"/>
                </g>
                <g id="zoomMin">
                        <use xlink:href="#rim" fill="#404040">
                                <set attributeName="fill" to="#808080" begin="zoomminus.mouseover" end="zoomminus.mouseout"/>
                        </use>
                        <path d="M-4,0h8" fill="none" stroke="white" stroke-width="1.5" pointer-events="none"/>
                </g>
                <g id="dirArrow">
                        <path fill="none" stroke="white" stroke-width="1.5" d="M0,-3.0v7 M-2.5,-0.5L0,-3.0L2.5,-0.5"/>
                </g>
               <g id="resetDef">
                       <use xlink:href="#rim2" fill="#404040">
                               <set attributeName="fill" to="#808080" begin="reset.mouseover" end="reset.mouseout"/>
                       </use>
               </g>
        </defs>

<script type="text/javascript">
var viewWidth = 1217;
var viewHeight = 664;
var sectionId = 'dynsection-95';
</script>
<script xlink:href="svgpan.js"/>
<svg id="graph" class="graph">
<g id="viewport">
<title>reg_put</title>
<polygon fill="white" stroke="transparent" points="-4,4 -4,-660 1213,-660 1213,4 -4,4"/>
<!-- Node1 -->
<g id="node1" class="node">
<title>Node1</title>
<g id="a_node1"><a xlink:title=" ">
<polygon fill="#bfbfbf" stroke="black" points="1160,-124.5 1160,-143.5 1209,-143.5 1209,-124.5 1160,-124.5"/>
<text text-anchor="middle" x="1184.5" y="-131.5" font-family="Helvetica,sans-Serif" font-size="10.00">reg_put</text>
</a>
</g>
</g>
<!-- Node2 -->
<g id="node2" class="node">
<title>Node2</title>
<g id="a_node2"><a xlink:href="vi_8h.html#aa75c73cccb4878ec06ea5bf5b1b02295" target="_top" xlink:title=" ">
<polygon fill="white" stroke="black" points="155,-304.5 155,-323.5 230,-323.5 230,-304.5 155,-304.5"/>
<text text-anchor="middle" x="192.5" y="-311.5" font-family="Helvetica,sans-Serif" font-size="10.00">ex_command</text>
</a>
</g>
</g>
<!-- Node1&#45;&gt;Node2 -->
<g id="edge1" class="edge">
<title>Node1&#45;&gt;Node2</title>
<path fill="none" stroke="midnightblue" d="M1180.85,-153.45C1167.39,-248.09 1103.09,-656 994,-656 994,-656 994,-656 378,-656 222.5,-656 197.45,-378.74 194,-323.5"/>
<polygon fill="midnightblue" stroke="midnightblue" points="1184.32,-153.89 1182.23,-143.51 1177.38,-152.93 1184.32,-153.89"/>
</g>
<!-- Node7 -->
<g id="node7" class="node">
<title>Node7</title>
<g id="a_node7"><a xlink:href="vi_8h.html#aff6b33b5c383668577090507620d7b17" target="_top" xlink:title=" ">
<polygon fill="white" stroke="black" points="1060,-291.5 1060,-310.5 1124,-310.5 1124,-291.5 1060,-291.5"/>
<text text-anchor="middle" x="1092" y="-298.5" font-family="Helvetica,sans-Serif" font-size="10.00">ex_kwdset</text>
</a>
</g>
</g>
<!-- Node1&#45;&gt;Node7 -->
<g id="edge8" class="edge">
<title>Node1&#45;&gt;Node7</title>
<path fill="none" stroke="midnightblue" d="M1173.29,-152.84C1154,-188.44 1112.83,-264.42 1098.25,-291.31"/>
<polygon fill="midnightblue" stroke="midnightblue" points="1176.42,-154.41 1178.11,-143.95 1170.27,-151.07 1176.42,-154.41"/>
</g>
<!-- Node34 -->
<g id="node34" class="node">
<title>Node34</title>
<g id="a_node34"><a xlink:href="ex_8c.html#ae9e1526f5bbf1bcc1ea5cb8fec120f49" target="_top" xlink:title=" ">
<polygon fill="white" stroke="black" points="775,-152.5 775,-171.5 828,-171.5 828,-152.5 775,-152.5"/>
<text text-anchor="middle" x="801.5" y="-159.5" font-family="Helvetica,sans-Serif" font-size="10.00">ex_yank</text>
</a>
</g>
</g>
<!-- Node1&#45;&gt;Node34 -->
<g id="edge47" class="edge">
<title>Node1&#45;&gt;Node34</title>
<path fill="none" stroke="midnightblue" d="M1149.64,-136.49C1074.45,-142.01 894.92,-155.21 828.12,-160.12"/>
<polygon fill="midnightblue" stroke="midnightblue" points="1150.24,-139.95 1159.95,-135.73 1149.72,-132.97 1150.24,-139.95"/>
</g>
<!-- Node35 -->
<g id="node35" class="node">
<title>Node35</title>
<g id="a_node35"><a xlink:href="vi_8c.html#ae37b094c3bb647d8c1a4ac4e858ce518" target="_top" xlink:title=" ">
<polygon fill="white" stroke="black" points="962.5,-95.5 962.5,-114.5 1023.5,-114.5 1023.5,-95.5 962.5,-95.5"/>
<text text-anchor="middle" x="993" y="-102.5" font-family="Helvetica,sans-Serif" font-size="10.00">vi_change</text>
</a>
</g>
</g>
<!-- Node1&#45;&gt;Node35 -->
<g id="edge50" class="edge">
<title>Node1&#45;&gt;Node35</title>
<path fill="none" stroke="midnightblue" d="M1149.9,-128.86C1114.03,-123.37 1057.75,-114.76 1023.53,-109.52"/>
<polygon fill="midnightblue" stroke="midnightblue" points="1149.47,-132.33 1159.88,-130.39 1150.53,-125.41 1149.47,-132.33"/>
</g>
<!-- Node36 -->
<g id="node36" class="node">
<title>Node36</title>
<g id="a_node36"><a xlink:href="vi_8c.html#abfa30fc2e2b4b8b24e2ee5d4bd54f2eb" target="_top" xlink:title=" ">
<polygon fill="white" stroke="black" points="868.5,-38.5 868.5,-57.5 924.5,-57.5 924.5,-38.5 868.5,-38.5"/>
<text text-anchor="middle" x="896.5" y="-45.5" font-family="Helvetica,sans-Serif" font-size="10.00">vi_delete</text>
</a>
</g>
</g>
<!-- Node1&#45;&gt;Node36 -->
<g id="edge52" class="edge">
<title>Node1&#45;&gt;Node36</title>
<path fill="none" stroke="midnightblue" d="M1150.83,-120.71C1142.17,-117.37 1132.78,-113.91 1124,-111 1052.91,-87.43 967.36,-65.28 924.6,-54.63"/>
<polygon fill="midnightblue" stroke="midnightblue" points="1149.65,-124.01 1160.24,-124.4 1152.2,-117.49 1149.65,-124.01"/>
</g>
<!-- Node37 -->
<g id="node37" class="node">
<title>Node37</title>
<g id="a_node37"><a xlink:href="vi_8c.html#a2faedb758580642d391ee8ffae96d3d9" target="_top" xlink:title=" ">
<polygon fill="white" stroke="black" points="1067,-0.5 1067,-19.5 1117,-19.5 1117,-0.5 1067,-0.5"/>
<text text-anchor="middle" x="1092" y="-7.5" font-family="Helvetica,sans-Serif" font-size="10.00">vi_yank</text>
</a>
</g>
</g>
<!-- Node1&#45;&gt;Node37 -->
<g id="edge54" class="edge">
<title>Node1&#45;&gt;Node37</title>
<path fill="none" stroke="midnightblue" d="M1174.98,-115.2C1164.8,-94.01 1146.32,-59.22 1124,-34 1119.31,-28.7 1113.31,-23.74 1107.85,-19.73"/>
<polygon fill="midnightblue" stroke="midnightblue" points="1171.88,-116.84 1179.29,-124.41 1178.22,-113.87 1171.88,-116.84"/>
</g>
<!-- Node3 -->
<g id="node3" class="node">
<title>Node3</title>
<g id="a_node3"><a xlink:href="vi_8h.html#ac395e51f25330a6e6033b6d0d22b2076" target="_top" xlink:title=" ">
<polygon fill="white" stroke="black" points="82,-304.5 82,-323.5 111,-323.5 111,-304.5 82,-304.5"/>
<text text-anchor="middle" x="96.5" y="-311.5" font-family="Helvetica,sans-Serif" font-size="10.00">ex</text>
</a>
</g>
</g>
<!-- Node2&#45;&gt;Node3 -->
<g id="edge2" class="edge">
<title>Node2&#45;&gt;Node3</title>
<path fill="none" stroke="midnightblue" d="M144.73,-314C132.54,-314 120.33,-314 111.38,-314"/>
<polygon fill="midnightblue" stroke="midnightblue" points="144.89,-317.5 154.89,-314 144.89,-310.5 144.89,-317.5"/>
</g>
<!-- Node5 -->
<g id="node5" class="node">
<title>Node5</title>
<g id="a_node5"><a xlink:href="vi_8h.html#abe53b5c10f94f20cd5ed024371615fa1" target="_top" xlink:title=" ">
<polygon fill="white" stroke="black" points="74,-266.5 74,-285.5 119,-285.5 119,-266.5 74,-266.5"/>
<text text-anchor="middle" x="96.5" y="-273.5" font-family="Helvetica,sans-Serif" font-size="10.00">ex_init</text>
</a>
</g>
</g>
<!-- Node2&#45;&gt;Node5 -->
<g id="edge4" class="edge">
<title>Node2&#45;&gt;Node5</title>
<path fill="none" stroke="midnightblue" d="M158.25,-300.56C145.31,-295.33 130.85,-289.48 119.28,-284.8"/>
<polygon fill="midnightblue" stroke="midnightblue" points="157.2,-303.91 167.78,-304.41 159.82,-297.42 157.2,-303.91"/>
</g>
<!-- Node6 -->
<g id="node6" class="node">
<title>Node6</title>
<g id="a_node6"><a xlink:href="vi_8c.html#a8d808e0f3453afe6600673ee1ea5f828" target="_top" xlink:title=" ">
<polygon fill="white" stroke="black" points="82,-152.5 82,-171.5 111,-171.5 111,-152.5 82,-152.5"/>
<text text-anchor="middle" x="96.5" y="-159.5" font-family="Helvetica,sans-Serif" font-size="10.00">vi</text>
</a>
</g>
</g>
<!-- Node2&#45;&gt;Node6 -->
<g id="edge6" class="edge">
<title>Node2&#45;&gt;Node6</title>
<path fill="none" stroke="midnightblue" d="M180.35,-295.97C160.28,-263.52 118.74,-196.35 103.38,-171.5"/>
<polygon fill="midnightblue" stroke="midnightblue" points="177.38,-297.83 185.62,-304.49 183.34,-294.15 177.38,-297.83"/>
</g>
<!-- Node4 -->
<g id="node4" class="node">
<title>Node4</title>
<g id="a_node4"><a xlink:href="vi_8c.html#a0ddf1224851353fc92bfbff6f499fa97" target="_top" xlink:title=" ">
<polygon fill="white" stroke="black" points="0,-266.5 0,-285.5 38,-285.5 38,-266.5 0,-266.5"/>
<text text-anchor="middle" x="19" y="-273.5" font-family="Helvetica,sans-Serif" font-size="10.00">main</text>
</a>
</g>
</g>
<!-- Node3&#45;&gt;Node4 -->
<g id="edge3" class="edge">
<title>Node3&#45;&gt;Node4</title>
<path fill="none" stroke="midnightblue" d="M72.56,-302.45C61.48,-296.88 48.39,-290.29 38.04,-285.08"/>
<polygon fill="midnightblue" stroke="midnightblue" points="71.15,-305.66 81.65,-307.03 74.29,-299.41 71.15,-305.66"/>
</g>
<!-- Node5&#45;&gt;Node4 -->
<g id="edge5" class="edge">
<title>Node5&#45;&gt;Node4</title>
<path fill="none" stroke="midnightblue" d="M63.55,-276C54.99,-276 46.03,-276 38.47,-276"/>
<polygon fill="midnightblue" stroke="midnightblue" points="63.66,-279.5 73.66,-276 63.66,-272.5 63.66,-279.5"/>
</g>
<!-- Node6&#45;&gt;Node4 -->
<g id="edge7" class="edge">
<title>Node6&#45;&gt;Node4</title>
<path fill="none" stroke="midnightblue" d="M83.51,-180.11C67.32,-204.55 39.06,-247.23 26.42,-266.31"/>
<polygon fill="midnightblue" stroke="midnightblue" points="86.46,-181.99 89.06,-171.72 80.62,-178.12 86.46,-181.99"/>
</g>
<!-- Node8 -->
<g id="node8" class="node">
<title>Node8</title>
<g id="a_node8"><a xlink:href="ex_8c.html#a70c571bdde329a65e216c19b4aeaa628" target="_top" xlink:title=" ">
<polygon fill="white" stroke="black" points="553,-532.5 553,-551.5 603,-551.5 603,-532.5 553,-532.5"/>
<text text-anchor="middle" x="578" y="-539.5" font-family="Helvetica,sans-Serif" font-size="10.00">ec_glob</text>
</a>
</g>
</g>
<!-- Node7&#45;&gt;Node8 -->
<g id="edge9" class="edge">
<title>Node7&#45;&gt;Node8</title>
<path fill="none" stroke="midnightblue" d="M1088.63,-320.9C1079.14,-390.39 1037.37,-618 897.5,-618 897.5,-618 897.5,-618 800.5,-618 737.93,-618 719.31,-621.71 661,-599 632.24,-587.8 603.83,-564.62 589.19,-551.53"/>
<polygon fill="midnightblue" stroke="midnightblue" points="1092.12,-321.2 1089.92,-310.83 1085.18,-320.31 1092.12,-321.2"/>
</g>
<!-- Node11 -->
<g id="node11" class="node">
<title>Node11</title>
<g id="a_node11"><a xlink:href="ex_8c.html#aaf4e813ce4370aa859181d22de51576b" target="_top" xlink:title=" ">
<polygon fill="white" stroke="black" points="661,-570.5 661,-589.5 736,-589.5 736,-570.5 661,-570.5"/>
<text text-anchor="middle" x="698.5" y="-577.5" font-family="Helvetica,sans-Serif" font-size="10.00">ec_substitute</text>
</a>
</g>
</g>
<!-- Node7&#45;&gt;Node11 -->
<g id="edge14" class="edge">
<title>Node7&#45;&gt;Node11</title>
<path fill="none" stroke="midnightblue" d="M1069.21,-316.53C997.56,-367.59 770.57,-529.35 712.92,-570.44"/>
<polygon fill="midnightblue" stroke="midnightblue" points="1071.41,-319.26 1077.52,-310.6 1067.35,-313.56 1071.41,-319.26"/>
</g>
<!-- Node12 -->
<g id="node12" class="node">
<title>Node12</title>
<g id="a_node12"><a xlink:href="ex_8c.html#af441de070082a23574854f6a2e5cd08a" target="_top" xlink:title=" ">
<polygon fill="white" stroke="black" points="962,-313.5 962,-332.5 1024,-332.5 1024,-313.5 962,-313.5"/>
<text text-anchor="middle" x="993" y="-320.5" font-family="Helvetica,sans-Serif" font-size="10.00">ex_search</text>
</a>
</g>
</g>
<!-- Node7&#45;&gt;Node12 -->
<g id="edge15" class="edge">
<title>Node7&#45;&gt;Node12</title>
<path fill="none" stroke="midnightblue" d="M1049.87,-310.33C1041.25,-312.28 1032.31,-314.31 1024.17,-316.16"/>
<polygon fill="midnightblue" stroke="midnightblue" points="1050.8,-313.71 1059.77,-308.08 1049.25,-306.88 1050.8,-313.71"/>
</g>
<!-- Node30 -->
<g id="node30" class="node">
<title>Node30</title>
<g id="a_node30"><a xlink:href="vi_8c.html#a631f59a25254f28f308f7de4897e09fa" target="_top" xlink:title=" ">
<polygon fill="white" stroke="black" points="970,-268.5 970,-287.5 1016,-287.5 1016,-268.5 970,-268.5"/>
<text text-anchor="middle" x="993" y="-275.5" font-family="Helvetica,sans-Serif" font-size="10.00">search</text>
</a>
</g>
</g>
<!-- Node7&#45;&gt;Node30 -->
<g id="edge40" class="edge">
<title>Node7&#45;&gt;Node30</title>
<path fill="none" stroke="midnightblue" d="M1049.86,-291.24C1038.33,-288.51 1026.23,-285.64 1016.25,-283.28"/>
<polygon fill="midnightblue" stroke="midnightblue" points="1049.24,-294.69 1059.77,-293.6 1050.85,-287.88 1049.24,-294.69"/>
</g>
<!-- Node32 -->
<g id="node32" class="node">
<title>Node32</title>
<g id="a_node32"><a xlink:href="vi_8c.html#aaa4777ea0715ea846346d0f27a0cfa3f" target="_top" xlink:title=" ">
<polygon fill="white" stroke="black" points="772,-114.5 772,-133.5 831,-133.5 831,-114.5 772,-114.5"/>
<text text-anchor="middle" x="801.5" y="-121.5" font-family="Helvetica,sans-Serif" font-size="10.00">vi_motion</text>
</a>
</g>
</g>
<!-- Node7&#45;&gt;Node32 -->
<g id="edge46" class="edge">
<title>Node7&#45;&gt;Node32</title>
<path fill="none" stroke="midnightblue" d="M1067.21,-285.98C1054.42,-277.94 1038.38,-267.89 1024,-259 947.2,-211.52 854.83,-155.6 818.39,-133.59"/>
<polygon fill="midnightblue" stroke="midnightblue" points="1065.54,-289.07 1075.87,-291.44 1069.27,-283.15 1065.54,-289.07"/>
</g>
<!-- Node9 -->
<g id="node9" class="node">
<title>Node9</title>
<g id="a_node9"><a xlink:href="ex_8c.html#a7d848d20211b2e1c868dde98ec5dfae9" target="_top" xlink:title=" ">
<polygon fill="white" stroke="black" points="355.5,-532.5 355.5,-551.5 402.5,-551.5 402.5,-532.5 355.5,-532.5"/>
<text text-anchor="middle" x="379" y="-539.5" font-family="Helvetica,sans-Serif" font-size="10.00">ex_line</text>
</a>
</g>
</g>
<!-- Node8&#45;&gt;Node9 -->
<g id="edge10" class="edge">
<title>Node8&#45;&gt;Node9</title>
<path fill="none" stroke="midnightblue" d="M542.7,-542C502.44,-542 436.84,-542 402.53,-542"/>
<polygon fill="midnightblue" stroke="midnightblue" points="542.84,-545.5 552.84,-542 542.84,-538.5 542.84,-545.5"/>
</g>
<!-- Node10 -->
<g id="node10" class="node">
<title>Node10</title>
<g id="a_node10"><a xlink:href="ex_8c.html#ab15ebfef933256d9741128e2ddf3f9b5" target="_top" xlink:title=" ">
<polygon fill="white" stroke="black" points="266,-494.5 266,-513.5 319,-513.5 319,-494.5 266,-494.5"/>
<text text-anchor="middle" x="292.5" y="-501.5" font-family="Helvetica,sans-Serif" font-size="10.00">ex_exec</text>
</a>
</g>
</g>
<!-- Node9&#45;&gt;Node10 -->
<g id="edge11" class="edge">
<title>Node9&#45;&gt;Node10</title>
<path fill="none" stroke="midnightblue" d="M347.52,-528.29C336.68,-523.42 324.72,-518.04 314.82,-513.59"/>
<polygon fill="midnightblue" stroke="midnightblue" points="346.12,-531.5 356.68,-532.41 348.99,-525.12 346.12,-531.5"/>
</g>
<!-- Node10&#45;&gt;Node2 -->
<g id="edge13" class="edge">
<title>Node10&#45;&gt;Node2</title>
<path fill="none" stroke="midnightblue" d="M281.79,-485.18C261.29,-445.43 214.18,-354.09 198.6,-323.89"/>
<polygon fill="midnightblue" stroke="midnightblue" points="278.81,-487.03 286.51,-494.32 285.03,-483.82 278.81,-487.03"/>
</g>
<!-- Node10&#45;&gt;Node8 -->
<g id="edge12" class="edge">
<title>Node10&#45;&gt;Node8</title>
<path fill="none" stroke="midnightblue" d="M329.15,-508.78C387.72,-516.63 502.81,-532.06 552.83,-538.76"/>
<polygon fill="midnightblue" stroke="midnightblue" points="329.61,-505.31 319.24,-507.45 328.68,-512.25 329.61,-505.31"/>
</g>
<!-- Node13 -->
<g id="node13" class="node">
<title>Node13</title>
<g id="a_node13"><a xlink:href="ex_8c.html#a18295939fcd9d9ef517157b0f4ff5f97" target="_top" xlink:title=" ">
<polygon fill="white" stroke="black" points="867.5,-317.5 867.5,-336.5 925.5,-336.5 925.5,-317.5 867.5,-317.5"/>
<text text-anchor="middle" x="896.5" y="-324.5" font-family="Helvetica,sans-Serif" font-size="10.00">ex_lineno</text>
</a>
</g>
</g>
<!-- Node12&#45;&gt;Node13 -->
<g id="edge16" class="edge">
<title>Node12&#45;&gt;Node13</title>
<path fill="none" stroke="midnightblue" d="M951.79,-324.7C943.03,-325.07 933.94,-325.46 925.77,-325.8"/>
<polygon fill="midnightblue" stroke="midnightblue" points="952,-328.2 961.84,-324.28 951.7,-321.2 952,-328.2"/>
</g>
<!-- Node14 -->
<g id="node14" class="node">
<title>Node14</title>
<g id="a_node14"><a xlink:href="ex_8c.html#a0389d594366ccbd24d732bdfd870f763" target="_top" xlink:title=" ">
<polygon fill="white" stroke="black" points="772,-323.5 772,-342.5 831,-342.5 831,-323.5 772,-323.5"/>
<text text-anchor="middle" x="801.5" y="-330.5" font-family="Helvetica,sans-Serif" font-size="10.00">ex_region</text>
</a>
</g>
</g>
<!-- Node13&#45;&gt;Node14 -->
<g id="edge17" class="edge">
<title>Node13&#45;&gt;Node14</title>
<path fill="none" stroke="midnightblue" d="M857.35,-329.46C848.61,-330.03 839.47,-330.62 831.2,-331.15"/>
<polygon fill="midnightblue" stroke="midnightblue" points="857.59,-332.95 867.34,-328.82 857.14,-325.97 857.59,-332.95"/>
</g>
<!-- Node14&#45;&gt;Node8 -->
<g id="edge21" class="edge">
<title>Node14&#45;&gt;Node8</title>
<path fill="none" stroke="midnightblue" d="M799.91,-352.91C797.61,-391.38 786.73,-475.83 736,-518 698.15,-549.46 636.75,-548.72 603.05,-545.38"/>
<polygon fill="midnightblue" stroke="midnightblue" points="803.42,-352.7 800.38,-342.55 796.43,-352.38 803.42,-352.7"/>
</g>
<!-- Node14&#45;&gt;Node11 -->
<g id="edge30" class="edge">
<title>Node14&#45;&gt;Node11</title>
<path fill="none" stroke="midnightblue" d="M796.64,-352.67C786.9,-400.79 760.41,-522.89 736,-556 731.68,-561.86 725.47,-566.7 719.39,-570.46"/>
<polygon fill="midnightblue" stroke="midnightblue" points="800.12,-353.1 798.64,-342.61 793.25,-351.73 800.12,-353.1"/>
</g>
<!-- Node15 -->
<g id="node15" class="node">
<title>Node15</title>
<g id="a_node15"><a xlink:href="ex_8c.html#a4cd0748447515b7a935e4bb41424a9e4" target="_top" xlink:title=" ">
<polygon fill="white" stroke="black" points="669,-152.5 669,-171.5 728,-171.5 728,-152.5 669,-152.5"/>
<text text-anchor="middle" x="698.5" y="-159.5" font-family="Helvetica,sans-Serif" font-size="10.00">ec_delete</text>
</a>
</g>
</g>
<!-- Node14&#45;&gt;Node15 -->
<g id="edge18" class="edge">
<title>Node14&#45;&gt;Node15</title>
<path fill="none" stroke="midnightblue" d="M796.6,-313.07C789.53,-281.55 771.87,-219.81 736,-181 732.61,-177.33 728.34,-174.24 723.93,-171.7"/>
<polygon fill="midnightblue" stroke="midnightblue" points="793.25,-314.15 798.74,-323.22 800.1,-312.71 793.25,-314.15"/>
</g>
<!-- Node16 -->
<g id="node16" class="node">
<title>Node16</title>
<g id="a_node16"><a xlink:href="ex_8c.html#adcd83f163f659bd2596bcfc25d74bde9" target="_top" xlink:title=" ">
<polygon fill="white" stroke="black" points="440.5,-456.5 440.5,-475.5 493.5,-475.5 493.5,-456.5 440.5,-456.5"/>
<text text-anchor="middle" x="467" y="-463.5" font-family="Helvetica,sans-Serif" font-size="10.00">ec_exec</text>
</a>
</g>
</g>
<!-- Node14&#45;&gt;Node16 -->
<g id="edge19" class="edge">
<title>Node14&#45;&gt;Node16</title>
<path fill="none" stroke="midnightblue" d="M798.82,-352.82C794.76,-386.73 781.1,-455.15 736,-485 658.02,-536.62 537.79,-495.73 489.33,-475.57"/>
<polygon fill="midnightblue" stroke="midnightblue" points="802.32,-353.05 799.86,-342.74 795.35,-352.33 802.32,-353.05"/>
</g>
<!-- Node17 -->
<g id="node17" class="node">
<title>Node17</title>
<g id="a_node17"><a xlink:href="ex_8c.html#a0908784dc65be2da119a6b72ef96dec2" target="_top" xlink:title=" ">
<polygon fill="white" stroke="black" points="670.5,-456.5 670.5,-475.5 726.5,-475.5 726.5,-456.5 670.5,-456.5"/>
<text text-anchor="middle" x="698.5" y="-463.5" font-family="Helvetica,sans-Serif" font-size="10.00">ec_insert</text>
</a>
</g>
</g>
<!-- Node14&#45;&gt;Node17 -->
<g id="edge22" class="edge">
<title>Node14&#45;&gt;Node17</title>
<path fill="none" stroke="midnightblue" d="M793.54,-352.41C783.88,-377.05 764.36,-419.62 736,-447 732.2,-450.67 727.54,-453.81 722.85,-456.41"/>
<polygon fill="midnightblue" stroke="midnightblue" points="796.92,-353.35 797.17,-342.76 790.37,-350.89 796.92,-353.35"/>
</g>
<!-- Node18 -->
<g id="node18" class="node">
<title>Node18</title>
<g id="a_node18"><a xlink:href="ex_8c.html#a1d45a70b724f4cccae2ab746c711ebb1" target="_top" xlink:title=" ">
<polygon fill="white" stroke="black" points="672,-418.5 672,-437.5 725,-437.5 725,-418.5 672,-418.5"/>
<text text-anchor="middle" x="698.5" y="-425.5" font-family="Helvetica,sans-Serif" font-size="10.00">ec_lnum</text>
</a>
</g>
</g>
<!-- Node14&#45;&gt;Node18 -->
<g id="edge23" class="edge">
<title>Node14&#45;&gt;Node18</title>
<path fill="none" stroke="midnightblue" d="M788.15,-351.26C776.25,-367.86 757,-392.24 736,-409 731.53,-412.56 726.29,-415.76 721.2,-418.46"/>
<polygon fill="midnightblue" stroke="midnightblue" points="791.11,-353.14 793.97,-342.94 785.37,-349.13 791.11,-353.14"/>
</g>
<!-- Node19 -->
<g id="node19" class="node">
<title>Node19</title>
<g id="a_node19"><a xlink:href="ex_8c.html#ab95c9f0f009989c44f3ebb5abae4054d" target="_top" xlink:title=" ">
<polygon fill="white" stroke="black" points="671.5,-380.5 671.5,-399.5 725.5,-399.5 725.5,-380.5 671.5,-380.5"/>
<text text-anchor="middle" x="698.5" y="-387.5" font-family="Helvetica,sans-Serif" font-size="10.00">ec_mark</text>
</a>
</g>
</g>
<!-- Node14&#45;&gt;Node19 -->
<g id="edge24" class="edge">
<title>Node14&#45;&gt;Node19</title>
<path fill="none" stroke="midnightblue" d="M774.64,-347.59C756.32,-357.93 732.28,-371.5 716.38,-380.47"/>
<polygon fill="midnightblue" stroke="midnightblue" points="776.38,-350.63 783.37,-342.67 772.94,-344.54 776.38,-350.63"/>
</g>
<!-- Node20 -->
<g id="node20" class="node">
<title>Node20</title>
<g id="a_node20"><a xlink:href="ex_8c.html#affb8197a8f988443aadf1bf2800a0d0b" target="_top" xlink:title=" ">
<polygon fill="white" stroke="black" points="554.5,-323.5 554.5,-342.5 601.5,-342.5 601.5,-323.5 554.5,-323.5"/>
<text text-anchor="middle" x="578" y="-330.5" font-family="Helvetica,sans-Serif" font-size="10.00">ec_null</text>
</a>
</g>
</g>
<!-- Node14&#45;&gt;Node20 -->
<g id="edge25" class="edge">
<title>Node14&#45;&gt;Node20</title>
<path fill="none" stroke="midnightblue" d="M761.74,-333C715.41,-333 639.41,-333 601.69,-333"/>
<polygon fill="midnightblue" stroke="midnightblue" points="762,-336.5 772,-333 762,-329.5 762,-336.5"/>
</g>
<!-- Node21 -->
<g id="node21" class="node">
<title>Node21</title>
<g id="a_node21"><a xlink:href="ex_8c.html#ad2c1a9505aa3097bac242b47a367f11d" target="_top" xlink:title=" ">
<polygon fill="white" stroke="black" points="673,-304.5 673,-323.5 724,-323.5 724,-304.5 673,-304.5"/>
<text text-anchor="middle" x="698.5" y="-311.5" font-family="Helvetica,sans-Serif" font-size="10.00">ec_print</text>
</a>
</g>
</g>
<!-- Node14&#45;&gt;Node21 -->
<g id="edge26" class="edge">
<title>Node14&#45;&gt;Node21</title>
<path fill="none" stroke="midnightblue" d="M761.94,-325.75C749.25,-323.36 735.49,-320.77 724.13,-318.63"/>
<polygon fill="midnightblue" stroke="midnightblue" points="761.35,-329.2 771.83,-327.61 762.65,-322.32 761.35,-329.2"/>
</g>
<!-- Node22 -->
<g id="node22" class="node">
<title>Node22</title>
<g id="a_node22"><a xlink:href="ex_8c.html#ab417867ff867aff9f7277229990cd1b8" target="_top" xlink:title=" ">
<polygon fill="white" stroke="black" points="675.5,-266.5 675.5,-285.5 721.5,-285.5 721.5,-266.5 675.5,-266.5"/>
<text text-anchor="middle" x="698.5" y="-273.5" font-family="Helvetica,sans-Serif" font-size="10.00">ec_put</text>
</a>
</g>
</g>
<!-- Node14&#45;&gt;Node22 -->
<g id="edge28" class="edge">
<title>Node14&#45;&gt;Node22</title>
<path fill="none" stroke="midnightblue" d="M776.15,-318.25C764.15,-311.08 749.41,-302.43 736,-295 730.38,-291.88 724.2,-288.61 718.54,-285.67"/>
<polygon fill="midnightblue" stroke="midnightblue" points="774.35,-321.25 784.73,-323.4 777.96,-315.25 774.35,-321.25"/>
</g>
<!-- Node23 -->
<g id="node23" class="node">
<title>Node23</title>
<g id="a_node23"><a xlink:href="ex_8c.html#add0e79e1f1e3d45f4eaa6fbe5c1ca443" target="_top" xlink:title=" ">
<polygon fill="white" stroke="black" points="673,-228.5 673,-247.5 724,-247.5 724,-228.5 673,-228.5"/>
<text text-anchor="middle" x="698.5" y="-235.5" font-family="Helvetica,sans-Serif" font-size="10.00">ec_read</text>
</a>
</g>
</g>
<!-- Node14&#45;&gt;Node23 -->
<g id="edge29" class="edge">
<title>Node14&#45;&gt;Node23</title>
<path fill="none" stroke="midnightblue" d="M788.15,-314.74C776.25,-298.14 757,-273.76 736,-257 731.53,-253.44 726.29,-250.24 721.2,-247.54"/>
<polygon fill="midnightblue" stroke="midnightblue" points="785.37,-316.87 793.97,-323.06 791.11,-312.86 785.37,-316.87"/>
</g>
<!-- Node24 -->
<g id="node24" class="node">
<title>Node24</title>
<g id="a_node24"><a xlink:href="ex_8c.html#a057b67e2d4f23df3ad50a9d3ec86125b" target="_top" xlink:title=" ">
<polygon fill="white" stroke="black" points="672,-190.5 672,-209.5 725,-209.5 725,-190.5 672,-190.5"/>
<text text-anchor="middle" x="698.5" y="-197.5" font-family="Helvetica,sans-Serif" font-size="10.00">ec_write</text>
</a>
</g>
</g>
<!-- Node14&#45;&gt;Node24 -->
<g id="edge31" class="edge">
<title>Node14&#45;&gt;Node24</title>
<path fill="none" stroke="midnightblue" d="M793.54,-313.59C783.88,-288.95 764.36,-246.38 736,-219 732.2,-215.33 727.54,-212.19 722.85,-209.59"/>
<polygon fill="midnightblue" stroke="midnightblue" points="790.37,-315.11 797.17,-323.24 796.92,-312.65 790.37,-315.11"/>
</g>
<!-- Node29 -->
<g id="node29" class="node">
<title>Node29</title>
<g id="a_node29"><a xlink:href="ex_8c.html#a487b22f0ae712d3338f5e9d8d6fa8540" target="_top" xlink:title=" ">
<polygon fill="white" stroke="black" points="672,-114.5 672,-133.5 725,-133.5 725,-114.5 672,-114.5"/>
<text text-anchor="middle" x="698.5" y="-121.5" font-family="Helvetica,sans-Serif" font-size="10.00">ec_yank</text>
</a>
</g>
</g>
<!-- Node14&#45;&gt;Node29 -->
<g id="edge39" class="edge">
<title>Node14&#45;&gt;Node29</title>
<path fill="none" stroke="midnightblue" d="M798.66,-313.43C794.21,-276.13 779.78,-194.04 736,-143 732.74,-139.2 728.54,-136.06 724.15,-133.5"/>
<polygon fill="midnightblue" stroke="midnightblue" points="795.19,-313.92 799.74,-323.49 802.15,-313.17 795.19,-313.92"/>
</g>
<!-- Node16&#45;&gt;Node9 -->
<g id="edge20" class="edge">
<title>Node16&#45;&gt;Node9</title>
<path fill="none" stroke="midnightblue" d="M447.34,-482.49C430.06,-497.76 404.97,-519.93 390.8,-532.45"/>
<polygon fill="midnightblue" stroke="midnightblue" points="449.93,-484.87 455.11,-475.63 445.3,-479.62 449.93,-484.87"/>
</g>
<!-- Node21&#45;&gt;Node20 -->
<g id="edge27" class="edge">
<title>Node21&#45;&gt;Node20</title>
<path fill="none" stroke="midnightblue" d="M663.05,-319.52C643.23,-322.7 618.89,-326.6 601.52,-329.39"/>
<polygon fill="midnightblue" stroke="midnightblue" points="663.63,-322.98 672.95,-317.94 662.52,-316.06 663.63,-322.98"/>
</g>
<!-- Node25 -->
<g id="node25" class="node">
<title>Node25</title>
<g id="a_node25"><a xlink:href="ex_8c.html#ab0cb848a971a3b2c09fcb456d887dd6b" target="_top" xlink:title=" ">
<polygon fill="white" stroke="black" points="531,-228.5 531,-247.5 625,-247.5 625,-228.5 531,-228.5"/>
<text text-anchor="middle" x="578" y="-235.5" font-family="Helvetica,sans-Serif" font-size="10.00">ex_modifiedbuffer</text>
</a>
</g>
</g>
<!-- Node24&#45;&gt;Node25 -->
<g id="edge32" class="edge">
<title>Node24&#45;&gt;Node25</title>
<path fill="none" stroke="midnightblue" d="M662.2,-211.32C645.21,-216.77 625.06,-223.23 608.85,-228.43"/>
<polygon fill="midnightblue" stroke="midnightblue" points="663.33,-214.63 671.79,-208.25 661.2,-207.97 663.33,-214.63"/>
</g>
<!-- Node25&#45;&gt;Node16 -->
<g id="edge35" class="edge">
<title>Node25&#45;&gt;Node16</title>
<path fill="none" stroke="midnightblue" d="M565.06,-255.97C555.27,-271.1 541.38,-293.49 531,-314 504.68,-365.99 480.3,-431.64 471.48,-456.17"/>
<polygon fill="midnightblue" stroke="midnightblue" points="568.01,-257.85 570.56,-247.57 562.15,-254.02 568.01,-257.85"/>
</g>
<!-- Node26 -->
<g id="node26" class="node">
<title>Node26</title>
<g id="a_node26"><a xlink:href="ex_8c.html#a8059390ad69866fa8e14bdb2521d4dc2" target="_top" xlink:title=" ">
<polygon fill="white" stroke="black" points="355,-266.5 355,-285.5 403,-285.5 403,-266.5 355,-266.5"/>
<text text-anchor="middle" x="379" y="-273.5" font-family="Helvetica,sans-Serif" font-size="10.00">ec_edit</text>
</a>
</g>
</g>
<!-- Node25&#45;&gt;Node26 -->
<g id="edge33" class="edge">
<title>Node25&#45;&gt;Node26</title>
<path fill="none" stroke="midnightblue" d="M528.13,-249.86C517.25,-252.35 505.76,-254.87 495,-257 463.44,-263.26 426.72,-269.07 403.43,-272.58"/>
<polygon fill="midnightblue" stroke="midnightblue" points="528.95,-253.27 537.9,-247.6 527.37,-246.45 528.95,-253.27"/>
</g>
<!-- Node27 -->
<g id="node27" class="node">
<title>Node27</title>
<g id="a_node27"><a xlink:href="ex_8c.html#aa69f426ff9728078fbb36f448c624a90" target="_top" xlink:title=" ">
<polygon fill="white" stroke="black" points="439,-228.5 439,-247.5 495,-247.5 495,-228.5 439,-228.5"/>
<text text-anchor="middle" x="467" y="-235.5" font-family="Helvetica,sans-Serif" font-size="10.00">ec_make</text>
</a>
</g>
</g>
<!-- Node25&#45;&gt;Node27 -->
<g id="edge36" class="edge">
<title>Node25&#45;&gt;Node27</title>
<path fill="none" stroke="midnightblue" d="M520.7,-238C511.76,-238 502.89,-238 495.04,-238"/>
<polygon fill="midnightblue" stroke="midnightblue" points="520.77,-241.5 530.77,-238 520.77,-234.5 520.77,-241.5"/>
</g>
<!-- Node28 -->
<g id="node28" class="node">
<title>Node28</title>
<g id="a_node28"><a xlink:href="ex_8c.html#a87eef446de152fad41ce88a9a343b87d" target="_top" xlink:title=" ">
<polygon fill="white" stroke="black" points="443,-190.5 443,-209.5 491,-209.5 491,-190.5 443,-190.5"/>
<text text-anchor="middle" x="467" y="-197.5" font-family="Helvetica,sans-Serif" font-size="10.00">ec_quit</text>
</a>
</g>
</g>
<!-- Node25&#45;&gt;Node28 -->
<g id="edge37" class="edge">
<title>Node25&#45;&gt;Node28</title>
<path fill="none" stroke="midnightblue" d="M539.79,-225.03C523.63,-219.39 505.21,-212.97 491.07,-208.04"/>
<polygon fill="midnightblue" stroke="midnightblue" points="538.9,-228.42 549.49,-228.41 541.2,-221.81 538.9,-228.42"/>
</g>
<!-- Node26&#45;&gt;Node5 -->
<g id="edge34" class="edge">
<title>Node26&#45;&gt;Node5</title>
<path fill="none" stroke="midnightblue" d="M344.41,-276C286.11,-276 167.76,-276 119.12,-276"/>
<polygon fill="midnightblue" stroke="midnightblue" points="344.57,-279.5 354.57,-276 344.57,-272.5 344.57,-279.5"/>
</g>
<!-- Node28&#45;&gt;Node24 -->
<g id="edge38" class="edge">
<title>Node28&#45;&gt;Node24</title>
<path fill="none" stroke="midnightblue" d="M501.11,-200C547.2,-200 629.75,-200 671.62,-200"/>
<polygon fill="midnightblue" stroke="midnightblue" points="501.04,-196.5 491.04,-200 501.04,-203.5 501.04,-196.5"/>
</g>
<!-- Node31 -->
<g id="node31" class="node">
<title>Node31</title>
<g id="a_node31"><a xlink:href="vi_8c.html#a93701c59617d4f96cbaa207e89178f87" target="_top" xlink:title=" ">
<polygon fill="white" stroke="black" points="867,-254.5 867,-273.5 926,-273.5 926,-254.5 867,-254.5"/>
<text text-anchor="middle" x="896.5" y="-261.5" font-family="Helvetica,sans-Serif" font-size="10.00">vi_search</text>
</a>
</g>
</g>
<!-- Node30&#45;&gt;Node31 -->
<g id="edge41" class="edge">
<title>Node30&#45;&gt;Node31</title>
<path fill="none" stroke="midnightblue" d="M959.64,-273.21C948.78,-271.6 936.75,-269.81 926.19,-268.25"/>
<polygon fill="midnightblue" stroke="midnightblue" points="959.2,-276.68 969.6,-274.68 960.23,-269.75 959.2,-276.68"/>
</g>
<!-- Node31&#45;&gt;Node32 -->
<g id="edge42" class="edge">
<title>Node31&#45;&gt;Node32</title>
<path fill="none" stroke="midnightblue" d="M885.25,-245.52C879.78,-235.61 872.97,-223.17 867,-212 850.69,-181.5 854.11,-168.73 831,-143 827.82,-139.46 823.85,-136.28 819.88,-133.57"/>
<polygon fill="midnightblue" stroke="midnightblue" points="882.29,-247.39 890.19,-254.45 888.41,-244 882.29,-247.39"/>
</g>
<!-- Node32&#45;&gt;Node6 -->
<g id="edge45" class="edge">
<title>Node32&#45;&gt;Node6</title>
<path fill="none" stroke="midnightblue" d="M762.14,-111.57C753.6,-109.12 744.55,-106.76 736,-105 667.16,-90.8 649.29,-86 579,-86 579,-86 579,-86 291.5,-86 219.52,-86 142.22,-131.92 111.36,-152.37"/>
<polygon fill="midnightblue" stroke="midnightblue" points="761.28,-114.96 771.86,-114.45 763.27,-108.25 761.28,-114.96"/>
</g>
<!-- Node33 -->
<g id="node33" class="node">
<title>Node33</title>
<g id="a_node33"><a xlink:href="vi_8c.html#a06cbc6eb843436a0e77e07cbab0c4538" target="_top" xlink:title=" ">
<polygon fill="white" stroke="black" points="667.5,-38.5 667.5,-57.5 729.5,-57.5 729.5,-38.5 667.5,-38.5"/>
<text text-anchor="middle" x="698.5" y="-45.5" font-family="Helvetica,sans-Serif" font-size="10.00">vc_motion</text>
</a>
</g>
</g>
<!-- Node32&#45;&gt;Node33 -->
<g id="edge43" class="edge">
<title>Node32&#45;&gt;Node33</title>
<path fill="none" stroke="midnightblue" d="M781.37,-107.77C768.74,-97.25 751.67,-83.43 736,-72 729.26,-67.08 721.57,-61.96 715,-57.72"/>
<polygon fill="midnightblue" stroke="midnightblue" points="779.43,-110.71 789.34,-114.45 783.93,-105.35 779.43,-110.71"/>
</g>
<!-- Node33&#45;&gt;Node6 -->
<g id="edge44" class="edge">
<title>Node33&#45;&gt;Node6</title>
<path fill="none" stroke="midnightblue" d="M657.31,-48C611.49,-48 534.35,-48 468,-48 468,-48 468,-48 291.5,-48 229.9,-48 206.25,-37.82 155,-72 125.07,-91.96 107.48,-133.35 100.72,-152.23"/>
<polygon fill="midnightblue" stroke="midnightblue" points="657.43,-51.5 667.43,-48 657.43,-44.5 657.43,-51.5"/>
</g>
<!-- Node34&#45;&gt;Node15 -->
<g id="edge48" class="edge">
<title>Node34&#45;&gt;Node15</title>
<path fill="none" stroke="midnightblue" d="M764.6,-162C752.6,-162 739.41,-162 728.05,-162"/>
<polygon fill="midnightblue" stroke="midnightblue" points="764.75,-165.5 774.75,-162 764.75,-158.5 764.75,-165.5"/>
</g>
<!-- Node34&#45;&gt;Node29 -->
<g id="edge49" class="edge">
<title>Node34&#45;&gt;Node29</title>
<path fill="none" stroke="midnightblue" d="M765.63,-148.88C752.28,-143.86 737.3,-138.22 724.98,-133.59"/>
<polygon fill="midnightblue" stroke="midnightblue" points="764.42,-152.17 775.01,-152.41 766.89,-145.61 764.42,-152.17"/>
</g>
<!-- Node35&#45;&gt;Node33 -->
<g id="edge51" class="edge">
<title>Node35&#45;&gt;Node33</title>
<path fill="none" stroke="midnightblue" d="M952.24,-97.25C892.99,-85.71 782.79,-64.23 729.67,-53.88"/>
<polygon fill="midnightblue" stroke="midnightblue" points="951.86,-100.74 962.34,-99.22 953.2,-93.87 951.86,-100.74"/>
</g>
<!-- Node36&#45;&gt;Node33 -->
<g id="edge53" class="edge">
<title>Node36&#45;&gt;Node33</title>
<path fill="none" stroke="midnightblue" d="M857.8,-48C820.52,-48 764.18,-48 729.74,-48"/>
<polygon fill="midnightblue" stroke="midnightblue" points="858.25,-51.5 868.25,-48 858.25,-44.5 858.25,-51.5"/>
</g>
<!-- Node37&#45;&gt;Node33 -->
<g id="edge55" class="edge">
<title>Node37&#45;&gt;Node33</title>
<path fill="none" stroke="midnightblue" d="M1056.63,-12.61C1012.64,-16.02 934.1,-22.35 867,-29 818.95,-33.76 763.25,-40.28 729.73,-44.31"/>
<polygon fill="midnightblue" stroke="midnightblue" points="1057.08,-16.09 1066.78,-11.83 1056.54,-9.11 1057.08,-16.09"/>
</g>
</g>
</svg>
        <g id="navigator" transform="translate(0 0)" fill="#404254">
                <rect fill="#f2f5e9" fill-opacity="0.5" stroke="#606060" stroke-width=".5" x="0" y="0" width="60" height="60"/>
                <use id="zoomplus" xlink:href="#zoomPlus" x="17" y="9" onmousedown="handleZoom(evt,'in')"/>
                <use id="zoomminus" xlink:href="#zoomMin" x="42" y="9" onmousedown="handleZoom(evt,'out')"/>
                <use id="reset" xlink:href="#resetDef" x="30" y="36" onmousedown="handleReset()"/>
                <g id="arrowUp" xlink:href="#dirArrow" transform="translate(30 24)" onmousedown="handlePan(0,-1)">
                  <use xlink:href="#rim" fill="#404040">
                        <set attributeName="fill" to="#808080" begin="arrowUp.mouseover" end="arrowUp.mouseout"/>
                  </use>
                  <path fill="none" stroke="white" stroke-width="1.5" d="M0,-3.0v7 M-2.5,-0.5L0,-3.0L2.5,-0.5"/>
                </g>
                <g id="arrowRight" xlink:href="#dirArrow" transform="rotate(90) translate(36 -43)" onmousedown="handlePan(1,0)">
                  <use xlink:href="#rim" fill="#404040">
                        <set attributeName="fill" to="#808080" begin="arrowRight.mouseover" end="arrowRight.mouseout"/>
                  </use>
                  <path fill="none" stroke="white" stroke-width="1.5" d="M0,-3.0v7 M-2.5,-0.5L0,-3.0L2.5,-0.5"/>
                </g>
                <g id="arrowDown" xlink:href="#dirArrow" transform="rotate(180) translate(-30 -48)" onmousedown="handlePan(0,1)">
                  <use xlink:href="#rim" fill="#404040">
                        <set attributeName="fill" to="#808080" begin="arrowDown.mouseover" end="arrowDown.mouseout"/>
                  </use>
                  <path fill="none" stroke="white" stroke-width="1.5" d="M0,-3.0v7 M-2.5,-0.5L0,-3.0L2.5,-0.5"/>
                </g>
                <g id="arrowLeft" xlink:href="#dirArrow" transform="rotate(270) translate(-36 17)" onmousedown="handlePan(-1,0)">
                  <use xlink:href="#rim" fill="#404040">
                        <set attributeName="fill" to="#808080" begin="arrowLeft.mouseover" end="arrowLeft.mouseout"/>
                  </use>
                  <path fill="none" stroke="white" stroke-width="1.5" d="M0,-3.0v7 M-2.5,-0.5L0,-3.0L2.5,-0.5"/>
                </g>
        </g>
        <svg viewBox="0 0 15 15" width="100%" height="30px" preserveAspectRatio="xMaxYMin meet">
         <g id="arrow_out" transform="scale(0.3 0.3)">
          <a xlink:href="vi_8h_a4d67e3639135b4176414504d782a7b4c_icgraph_org.svg" target="_base">
           <rect id="button" ry="5" rx="5" y="6" x="6" height="38" width="38"
                fill="#f2f5e9" fill-opacity="0.5" stroke="#606060" stroke-width="1.0"/>
           <path id="arrow"
             d="M 11.500037,31.436501 C 11.940474,20.09759 22.043105,11.32322 32.158766,21.979434 L 37.068811,17.246167 C 37.068811,17.246167 37.088388,32 37.088388,32 L 22.160133,31.978069 C 22.160133,31.978069 26.997745,27.140456 26.997745,27.140456 C 18.528582,18.264221 13.291696,25.230495 11.500037,31.436501 z"
             style="fill:#404040;"/>
          </a>
         </g>
        </svg>
</svg>
