<?xml version="1.0" encoding="UTF-8" standalone="no"?>
<!DOCTYPE svg PUBLIC "-//W3C//DTD SVG 1.1//EN"
 "http://www.w3.org/Graphics/SVG/1.1/DTD/svg11.dtd">
<!-- Generated by graphviz version 2.44.1 (20200629.0846)
 -->
<!-- Title: dir_reorder Pages: 1 -->
<!--zoomable 322 -->
<svg id="main" version="1.1" xmlns="http://www.w3.org/2000/svg" xmlns:xlink="http://www.w3.org/1999/xlink" xml:space="preserve" onload="init(evt)">
<style type="text/css"><![CDATA[
.edge:hover path { stroke: red; }
.edge:hover polygon { stroke: red; fill: red; }
]]></style>
<script type="text/javascript"><![CDATA[
var edges = document.getElementsByTagName('g');
if (edges && edges.length) {
  for (var i=0;i<edges.length;i++) {
    if (edges[i].id.substr(0,4)=='edge') {
      edges[i].setAttribute('class','edge');
    }
  }
}
]]></script>
        <defs>
                <circle id="rim" cx="0" cy="0" r="7"/>
                <circle id="rim2" cx="0" cy="0" r="3.5"/>
                <g id="zoomPlus">
                        <use xlink:href="#rim" fill="#404040">
                                <set attributeName="fill" to="#808080" begin="zoomplus.mouseover" end="zoomplus.mouseout"/>
                        </use>
                        <path d="M-4,0h8M0,-4v8" fill="none" stroke="white" stroke-width="1.5" pointer-events="none"/>
                </g>
                <g id="zoomMin">
                        <use xlink:href="#rim" fill="#404040">
                                <set attributeName="fill" to="#808080" begin="zoomminus.mouseover" end="zoomminus.mouseout"/>
                        </use>
                        <path d="M-4,0h8" fill="none" stroke="white" stroke-width="1.5" pointer-events="none"/>
                </g>
                <g id="dirArrow">
                        <path fill="none" stroke="white" stroke-width="1.5" d="M0,-3.0v7 M-2.5,-0.5L0,-3.0L2.5,-0.5"/>
                </g>
               <g id="resetDef">
                       <use xlink:href="#rim2" fill="#404040">
                               <set attributeName="fill" to="#808080" begin="reset.mouseover" end="reset.mouseout"/>
                       </use>
               </g>
        </defs>

<script type="text/javascript">
var viewWidth = 984;
var viewHeight = 322;
var sectionId = 'dynsection-87';
</script>
<script xlink:href="svgpan.js"/>
<svg id="graph" class="graph">
<g id="viewport">
<title>dir_reorder</title>
<polygon fill="white" stroke="transparent" points="-4,4 -4,-318 980,-318 980,4 -4,4"/>
<!-- Node1 -->
<g id="node1" class="node">
<title>Node1</title>
<g id="a_node1"><a xlink:title=" ">
<polygon fill="#bfbfbf" stroke="black" points="0,-171.5 0,-190.5 62,-190.5 62,-171.5 0,-171.5"/>
<text text-anchor="middle" x="31" y="-178.5" font-family="Helvetica,sans-Serif" font-size="10.00">dir_reorder</text>
</a>
</g>
</g>
<!-- Node2 -->
<g id="node2" class="node">
<title>Node2</title>
<g id="a_node2"><a xlink:href="dir_8c.html#aba0a553010578626d7148da2b6551321" target="_top" xlink:title=" ">
<polygon fill="white" stroke="black" points="98,-228.5 98,-247.5 163,-247.5 163,-228.5 98,-228.5"/>
<text text-anchor="middle" x="130.5" y="-235.5" font-family="Helvetica,sans-Serif" font-size="10.00">dir_context</text>
</a>
</g>
</g>
<!-- Node1&#45;&gt;Node2 -->
<g id="edge1" class="edge">
<title>Node1&#45;&gt;Node2</title>
<path fill="none" stroke="midnightblue" d="M48.54,-190.67C63.76,-199.57 86.56,-212.9 104.09,-223.14"/>
<polygon fill="midnightblue" stroke="midnightblue" points="102.81,-226.45 113.2,-228.47 106.34,-220.4 102.81,-226.45"/>
</g>
<!-- Node15 -->
<g id="node15" class="node">
<title>Node15</title>
<g id="a_node15"><a xlink:href="dir_8c.html#a8dbcb1db32888e71e2702f7173e7cba4" target="_top" xlink:title=" ">
<polygon fill="white" stroke="black" points="109,-171.5 109,-190.5 152,-190.5 152,-171.5 109,-171.5"/>
<text text-anchor="middle" x="130.5" y="-178.5" font-family="Helvetica,sans-Serif" font-size="10.00">dir_fix</text>
</a>
</g>
</g>
<!-- Node1&#45;&gt;Node15 -->
<g id="edge17" class="edge">
<title>Node1&#45;&gt;Node15</title>
<path fill="none" stroke="midnightblue" d="M62.05,-181C73.7,-181 87.03,-181 98.75,-181"/>
<polygon fill="midnightblue" stroke="midnightblue" points="98.96,-184.5 108.96,-181 98.96,-177.5 98.96,-184.5"/>
</g>
<!-- Node27 -->
<g id="node27" class="node">
<title>Node27</title>
<g id="a_node27"><a xlink:href="uc_8c.html#a1764c4d0fa27bca336e5ca300ad969e7" target="_top" xlink:title=" ">
<polygon fill="white" stroke="black" points="328,-0.5 328,-19.5 381,-19.5 381,-0.5 328,-0.5"/>
<text text-anchor="middle" x="354.5" y="-7.5" font-family="Helvetica,sans-Serif" font-size="10.00">uc_chop</text>
</a>
</g>
</g>
<!-- Node1&#45;&gt;Node27 -->
<g id="edge31" class="edge">
<title>Node1&#45;&gt;Node27</title>
<path fill="none" stroke="midnightblue" d="M50.21,-171.32C104.03,-142.69 262.62,-58.34 326.44,-24.39"/>
<polygon fill="midnightblue" stroke="midnightblue" points="328.31,-27.36 335.49,-19.58 325.02,-21.18 328.31,-27.36"/>
</g>
<!-- Node3 -->
<g id="node3" class="node">
<title>Node3</title>
<g id="a_node3"><a xlink:href="conf_8c.html#a9e1bc5ed600c151c51d8e2342454e07c" target="_top" xlink:title=" ">
<polygon fill="white" stroke="black" points="199,-228.5 199,-247.5 282,-247.5 282,-228.5 199,-228.5"/>
<text text-anchor="middle" x="240.5" y="-235.5" font-family="Helvetica,sans-Serif" font-size="10.00">conf_dircontext</text>
</a>
</g>
</g>
<!-- Node2&#45;&gt;Node3 -->
<g id="edge2" class="edge">
<title>Node2&#45;&gt;Node3</title>
<path fill="none" stroke="midnightblue" d="M163.03,-238C171.08,-238 179.95,-238 188.7,-238"/>
<polygon fill="midnightblue" stroke="midnightblue" points="188.87,-241.5 198.87,-238 188.87,-234.5 188.87,-241.5"/>
</g>
<!-- Node4 -->
<g id="node4" class="node">
<title>Node4</title>
<g id="a_node4"><a xlink:href="rset_8c.html#a389ec5abca88adc048a058744f2373eb" target="_top" xlink:title=" ">
<polygon fill="white" stroke="black" points="327.5,-266.5 327.5,-285.5 381.5,-285.5 381.5,-266.5 327.5,-266.5"/>
<text text-anchor="middle" x="354.5" y="-273.5" font-family="Helvetica,sans-Serif" font-size="10.00">rset_find</text>
</a>
</g>
</g>
<!-- Node2&#45;&gt;Node4 -->
<g id="edge3" class="edge">
<title>Node2&#45;&gt;Node4</title>
<path fill="none" stroke="midnightblue" d="M161.5,-247.5C173.12,-250.9 186.59,-254.5 199,-257 239.11,-265.06 285.81,-270.23 317.28,-273.11"/>
<polygon fill="midnightblue" stroke="midnightblue" points="317.07,-276.61 327.34,-274 317.68,-269.64 317.07,-276.61"/>
</g>
<!-- Node5 -->
<g id="node5" class="node">
<title>Node5</title>
<g id="a_node5"><a xlink:href="regex_8c.html#aa085ccd05ec25e3f8053850aebc50fe3" target="_top" xlink:title=" ">
<polygon fill="white" stroke="black" points="436.5,-266.5 436.5,-285.5 487.5,-285.5 487.5,-266.5 436.5,-266.5"/>
<text text-anchor="middle" x="462" y="-273.5" font-family="Helvetica,sans-Serif" font-size="10.00">regexec</text>
</a>
</g>
</g>
<!-- Node4&#45;&gt;Node5 -->
<g id="edge4" class="edge">
<title>Node4&#45;&gt;Node5</title>
<path fill="none" stroke="midnightblue" d="M381.58,-276C395.03,-276 411.63,-276 426.16,-276"/>
<polygon fill="midnightblue" stroke="midnightblue" points="426.31,-279.5 436.31,-276 426.31,-272.5 426.31,-279.5"/>
</g>
<!-- Node6 -->
<g id="node6" class="node">
<title>Node6</title>
<g id="a_node6"><a xlink:href="regex_8c.html#aa5925e49bd18112bb37421dbde29162a" target="_top" xlink:title=" ">
<polygon fill="white" stroke="black" points="533,-228.5 533,-247.5 604,-247.5 604,-228.5 533,-228.5"/>
<text text-anchor="middle" x="568.5" y="-235.5" font-family="Helvetica,sans-Serif" font-size="10.00">re_recmatch</text>
</a>
</g>
</g>
<!-- Node5&#45;&gt;Node6 -->
<g id="edge5" class="edge">
<title>Node5&#45;&gt;Node6</title>
<path fill="none" stroke="midnightblue" d="M487.5,-267.09C500.64,-262.31 517.07,-256.34 531.62,-251.05"/>
<polygon fill="midnightblue" stroke="midnightblue" points="533.12,-254.22 541.33,-247.52 530.73,-247.65 533.12,-254.22"/>
</g>
<!-- Node12 -->
<g id="node12" class="node">
<title>Node12</title>
<g id="a_node12"><a xlink:href="regex_8c.html#a9a0d6d5f93f1eaba8b63b16903c0952d" target="_top" xlink:title=" ">
<polygon fill="white" stroke="black" points="929.5,-266.5 929.5,-285.5 974.5,-285.5 974.5,-266.5 929.5,-266.5"/>
<text text-anchor="middle" x="952" y="-273.5" font-family="Helvetica,sans-Serif" font-size="10.00">uc_len</text>
</a>
</g>
</g>
<!-- Node5&#45;&gt;Node12 -->
<g id="edge16" class="edge">
<title>Node5&#45;&gt;Node12</title>
<path fill="none" stroke="midnightblue" d="M487.71,-283.87C524.9,-295 597.65,-314 661,-314 661,-314 661,-314 758,-314 815.75,-314 881.42,-297.42 919.34,-286.16"/>
<polygon fill="midnightblue" stroke="midnightblue" points="920.73,-289.4 929.28,-283.15 918.69,-282.7 920.73,-289.4"/>
</g>
<!-- Node7 -->
<g id="node7" class="node">
<title>Node7</title>
<g id="a_node7"><a xlink:href="regex_8c.html#a8e35614ddf21d405773327a52a95a73d" target="_top" xlink:title=" ">
<polygon fill="white" stroke="black" points="640,-218.5 640,-237.5 684,-237.5 684,-218.5 640,-218.5"/>
<text text-anchor="middle" x="662" y="-225.5" font-family="Helvetica,sans-Serif" font-size="10.00">re_rec</text>
</a>
</g>
</g>
<!-- Node6&#45;&gt;Node7 -->
<g id="edge6" class="edge">
<title>Node6&#45;&gt;Node7</title>
<path fill="none" stroke="midnightblue" d="M604.09,-234.22C612.56,-233.29 621.57,-232.31 629.87,-231.4"/>
<polygon fill="midnightblue" stroke="midnightblue" points="630.34,-234.87 639.9,-230.31 629.58,-227.91 630.34,-234.87"/>
</g>
<!-- Node8 -->
<g id="node8" class="node">
<title>Node8</title>
<g id="a_node8"><a xlink:href="regex_8c.html#a24fd1fc7457ff4f03fb384f7170ac395" target="_top" xlink:title=" ">
<polygon fill="white" stroke="black" points="720,-199.5 720,-218.5 794,-218.5 794,-199.5 720,-199.5"/>
<text text-anchor="middle" x="757" y="-206.5" font-family="Helvetica,sans-Serif" font-size="10.00">ratom_match</text>
</a>
</g>
</g>
<!-- Node7&#45;&gt;Node8 -->
<g id="edge7" class="edge">
<title>Node7&#45;&gt;Node8</title>
<path fill="none" stroke="midnightblue" d="M684.1,-223.69C691.73,-222.13 700.68,-220.3 709.63,-218.47"/>
<polygon fill="midnightblue" stroke="midnightblue" points="710.55,-221.86 719.65,-216.43 709.15,-215 710.55,-221.86"/>
</g>
<!-- Node9 -->
<g id="node9" class="node">
<title>Node9</title>
<g id="a_node9"><a xlink:href="regex_8c.html#aae17ed73e84075718fb04d131d6ca779" target="_top" xlink:title=" ">
<polygon fill="white" stroke="black" points="830,-228.5 830,-247.5 892,-247.5 892,-228.5 830,-228.5"/>
<text text-anchor="middle" x="861" y="-235.5" font-family="Helvetica,sans-Serif" font-size="10.00">brk_match</text>
</a>
</g>
</g>
<!-- Node8&#45;&gt;Node9 -->
<g id="edge8" class="edge">
<title>Node8&#45;&gt;Node9</title>
<path fill="none" stroke="midnightblue" d="M791.68,-218.58C800.72,-221.14 810.57,-223.95 819.92,-226.6"/>
<polygon fill="midnightblue" stroke="midnightblue" points="819.22,-230.04 829.79,-229.41 821.13,-223.31 819.22,-230.04"/>
</g>
<!-- Node11 -->
<g id="node11" class="node">
<title>Node11</title>
<g id="a_node11"><a xlink:href="regex_8c.html#aaf73cdb88048e7f9fd588eb8d5aeb5a3" target="_top" xlink:title=" ">
<polygon fill="white" stroke="black" points="928,-190.5 928,-209.5 976,-209.5 976,-190.5 928,-190.5"/>
<text text-anchor="middle" x="952" y="-197.5" font-family="Helvetica,sans-Serif" font-size="10.00">uc_dec</text>
</a>
</g>
</g>
<!-- Node8&#45;&gt;Node11 -->
<g id="edge14" class="edge">
<title>Node8&#45;&gt;Node11</title>
<path fill="none" stroke="midnightblue" d="M794.3,-207.31C829.83,-205.65 883.48,-203.15 917.87,-201.54"/>
<polygon fill="midnightblue" stroke="midnightblue" points="918.06,-205.04 927.89,-201.08 917.73,-198.05 918.06,-205.04"/>
</g>
<!-- Node8&#45;&gt;Node12 -->
<g id="edge15" class="edge">
<title>Node8&#45;&gt;Node12</title>
<path fill="none" stroke="midnightblue" d="M769.34,-218.87C782.83,-230.02 806.49,-247.83 830,-257 858.95,-268.29 894.27,-272.88 919.26,-274.74"/>
<polygon fill="midnightblue" stroke="midnightblue" points="919.09,-278.24 929.29,-275.39 919.54,-271.25 919.09,-278.24"/>
</g>
<!-- Node13 -->
<g id="node13" class="node">
<title>Node13</title>
<g id="a_node13"><a xlink:href="regex_8c.html#a35ad3fd0dbb795e6f30404ce86a7be5b" target="_top" xlink:title=" ">
<polygon fill="white" stroke="black" points="838.5,-152.5 838.5,-171.5 883.5,-171.5 883.5,-152.5 838.5,-152.5"/>
<text text-anchor="middle" x="861" y="-159.5" font-family="Helvetica,sans-Serif" font-size="10.00">isword</text>
</a>
</g>
</g>
<!-- Node8&#45;&gt;Node13 -->
<g id="edge12" class="edge">
<title>Node8&#45;&gt;Node13</title>
<path fill="none" stroke="midnightblue" d="M778.64,-199.49C793.34,-192.72 813.32,-183.51 829.8,-175.91"/>
<polygon fill="midnightblue" stroke="midnightblue" points="831.42,-179.02 839.04,-171.66 828.49,-172.66 831.42,-179.02"/>
</g>
<!-- Node14 -->
<g id="node14" class="node">
<title>Node14</title>
<g id="a_node14"><a xlink:href="regex_8c.html#ade3e10606e6e8866e6151fe8440d6101" target="_top" xlink:title=" ">
<polygon fill="white" stroke="black" points="837,-114.5 837,-133.5 885,-133.5 885,-114.5 837,-114.5"/>
<text text-anchor="middle" x="861" y="-121.5" font-family="Helvetica,sans-Serif" font-size="10.00">uc_beg</text>
</a>
</g>
</g>
<!-- Node8&#45;&gt;Node14 -->
<g id="edge13" class="edge">
<title>Node8&#45;&gt;Node14</title>
<path fill="none" stroke="midnightblue" d="M767.3,-199.46C780.58,-186.09 806.03,-161.34 830,-143 831.62,-141.76 833.31,-140.53 835.04,-139.32"/>
<polygon fill="midnightblue" stroke="midnightblue" points="837.36,-141.99 843.76,-133.55 833.49,-136.15 837.36,-141.99"/>
</g>
<!-- Node10 -->
<g id="node10" class="node">
<title>Node10</title>
<g id="a_node10"><a xlink:href="regex_8c.html#acc18ff8d2687611a9e221b3329b02413" target="_top" xlink:title=" ">
<polygon fill="white" stroke="black" points="928,-228.5 928,-247.5 976,-247.5 976,-228.5 928,-228.5"/>
<text text-anchor="middle" x="952" y="-235.5" font-family="Helvetica,sans-Serif" font-size="10.00">brk_len</text>
</a>
</g>
</g>
<!-- Node9&#45;&gt;Node10 -->
<g id="edge9" class="edge">
<title>Node9&#45;&gt;Node10</title>
<path fill="none" stroke="midnightblue" d="M892.13,-238C900.36,-238 909.32,-238 917.71,-238"/>
<polygon fill="midnightblue" stroke="midnightblue" points="917.94,-241.5 927.94,-238 917.94,-234.5 917.94,-241.5"/>
</g>
<!-- Node9&#45;&gt;Node11 -->
<g id="edge10" class="edge">
<title>Node9&#45;&gt;Node11</title>
<path fill="none" stroke="midnightblue" d="M884.46,-228.41C895,-223.91 907.75,-218.47 919.25,-213.56"/>
<polygon fill="midnightblue" stroke="midnightblue" points="920.73,-216.73 928.55,-209.59 917.98,-210.29 920.73,-216.73"/>
</g>
<!-- Node9&#45;&gt;Node12 -->
<g id="edge11" class="edge">
<title>Node9&#45;&gt;Node12</title>
<path fill="none" stroke="midnightblue" d="M884.46,-247.59C895.24,-252.19 908.33,-257.78 920.04,-262.78"/>
<polygon fill="midnightblue" stroke="midnightblue" points="918.9,-266.1 929.47,-266.81 921.65,-259.66 918.9,-266.1"/>
</g>
<!-- Node16 -->
<g id="node16" class="node">
<title>Node16</title>
<g id="a_node16"><a xlink:href="dir_8c.html#a3b2f132ebfd084295e89aa35eff56ff4" target="_top" xlink:title=" ">
<polygon fill="white" stroke="black" points="211,-152.5 211,-171.5 270,-171.5 270,-152.5 211,-152.5"/>
<text text-anchor="middle" x="240.5" y="-159.5" font-family="Helvetica,sans-Serif" font-size="10.00">dir_match</text>
</a>
</g>
</g>
<!-- Node15&#45;&gt;Node16 -->
<g id="edge18" class="edge">
<title>Node15&#45;&gt;Node16</title>
<path fill="none" stroke="midnightblue" d="M152.07,-177.38C165.85,-174.96 184.43,-171.69 200.92,-168.79"/>
<polygon fill="midnightblue" stroke="midnightblue" points="201.61,-172.22 210.85,-167.04 200.4,-165.33 201.61,-172.22"/>
</g>
<!-- Node26 -->
<g id="node26" class="node">
<title>Node26</title>
<g id="a_node26"><a xlink:href="dir_8c.html#a83ed34b9263550e2ca9b15cc02294a6b" target="_top" xlink:title=" ">
<polygon fill="white" stroke="black" points="208,-190.5 208,-209.5 273,-209.5 273,-190.5 208,-190.5"/>
<text text-anchor="middle" x="240.5" y="-197.5" font-family="Helvetica,sans-Serif" font-size="10.00">dir_reverse</text>
</a>
</g>
</g>
<!-- Node15&#45;&gt;Node26 -->
<g id="edge30" class="edge">
<title>Node15&#45;&gt;Node26</title>
<path fill="none" stroke="midnightblue" d="M152.07,-184.62C165.02,-186.9 182.2,-189.92 197.91,-192.68"/>
<polygon fill="midnightblue" stroke="midnightblue" points="197.5,-196.16 207.95,-194.45 198.71,-189.27 197.5,-196.16"/>
</g>
<!-- Node16&#45;&gt;Node4 -->
<g id="edge20" class="edge">
<title>Node16&#45;&gt;Node4</title>
<path fill="none" stroke="midnightblue" d="M268.89,-171.66C273.65,-174.18 278.26,-177.27 282,-181 308.48,-207.38 292.23,-229.93 318,-257 319.19,-258.25 320.49,-259.44 321.85,-260.57"/>
<polygon fill="midnightblue" stroke="midnightblue" points="320,-263.54 330.22,-266.31 323.96,-257.77 320,-263.54"/>
</g>
<!-- Node17 -->
<g id="node17" class="node">
<title>Node17</title>
<g id="a_node17"><a xlink:href="conf_8c.html#a3efe6ef9cd3bd043b3df1653265409f2" target="_top" xlink:title=" ">
<polygon fill="white" stroke="black" points="318,-152.5 318,-171.5 391,-171.5 391,-152.5 318,-152.5"/>
<text text-anchor="middle" x="354.5" y="-159.5" font-family="Helvetica,sans-Serif" font-size="10.00">conf_dirmark</text>
</a>
</g>
</g>
<!-- Node16&#45;&gt;Node17 -->
<g id="edge19" class="edge">
<title>Node16&#45;&gt;Node17</title>
<path fill="none" stroke="midnightblue" d="M270.05,-162C281.51,-162 295,-162 307.75,-162"/>
<polygon fill="midnightblue" stroke="midnightblue" points="307.77,-165.5 317.77,-162 307.77,-158.5 307.77,-165.5"/>
</g>
<!-- Node18 -->
<g id="node18" class="node">
<title>Node18</title>
<g id="a_node18"><a xlink:href="sbuf_8c.html#a4e56760893d5a6797626743840c9adf2" target="_top" xlink:title=" ">
<polygon fill="white" stroke="black" points="327.5,-190.5 327.5,-209.5 381.5,-209.5 381.5,-190.5 327.5,-190.5"/>
<text text-anchor="middle" x="354.5" y="-197.5" font-family="Helvetica,sans-Serif" font-size="10.00">sbuf_buf</text>
</a>
</g>
</g>
<!-- Node16&#45;&gt;Node18 -->
<g id="edge21" class="edge">
<title>Node16&#45;&gt;Node18</title>
<path fill="none" stroke="midnightblue" d="M269.76,-171.59C284.22,-176.49 301.98,-182.52 317.42,-187.76"/>
<polygon fill="midnightblue" stroke="midnightblue" points="316.58,-191.17 327.17,-191.07 318.82,-184.54 316.58,-191.17"/>
</g>
<!-- Node20 -->
<g id="node20" class="node">
<title>Node20</title>
<g id="a_node20"><a xlink:href="sbuf_8c.html#a8c1a89868b1999663effb78b4f3fab32" target="_top" xlink:title=" ">
<polygon fill="white" stroke="black" points="326,-76.5 326,-95.5 383,-95.5 383,-76.5 326,-76.5"/>
<text text-anchor="middle" x="354.5" y="-83.5" font-family="Helvetica,sans-Serif" font-size="10.00">sbuf_free</text>
</a>
</g>
</g>
<!-- Node16&#45;&gt;Node20 -->
<g id="edge23" class="edge">
<title>Node16&#45;&gt;Node20</title>
<path fill="none" stroke="midnightblue" d="M253.29,-152.34C267.99,-140.52 294.09,-120.19 318,-105 320.43,-103.45 323.01,-101.91 325.61,-100.42"/>
<polygon fill="midnightblue" stroke="midnightblue" points="327.35,-103.45 334.41,-95.55 323.96,-97.32 327.35,-103.45"/>
</g>
<!-- Node21 -->
<g id="node21" class="node">
<title>Node21</title>
<g id="a_node21"><a xlink:href="sbuf_8c.html#a57748585d6786a2c1aadc2cbe6f2135b" target="_top" xlink:title=" ">
<polygon fill="white" stroke="black" points="322,-38.5 322,-57.5 387,-57.5 387,-38.5 322,-38.5"/>
<text text-anchor="middle" x="354.5" y="-45.5" font-family="Helvetica,sans-Serif" font-size="10.00">sbuf_make</text>
</a>
</g>
</g>
<!-- Node16&#45;&gt;Node21 -->
<g id="edge24" class="edge">
<title>Node16&#45;&gt;Node21</title>
<path fill="none" stroke="midnightblue" d="M247.4,-152.31C259.03,-133.83 286.54,-93.08 318,-67 319.75,-65.55 321.63,-64.16 323.57,-62.84"/>
<polygon fill="midnightblue" stroke="midnightblue" points="325.6,-65.71 332.34,-57.53 321.97,-59.72 325.6,-65.71"/>
</g>
<!-- Node22 -->
<g id="node22" class="node">
<title>Node22</title>
<g id="a_node22"><a xlink:href="sbuf_8c.html#aa511ac77d6b486accc01c0512ef27ed2" target="_top" xlink:title=" ">
<polygon fill="white" stroke="black" points="323.5,-228.5 323.5,-247.5 385.5,-247.5 385.5,-228.5 323.5,-228.5"/>
<text text-anchor="middle" x="354.5" y="-235.5" font-family="Helvetica,sans-Serif" font-size="10.00">sbuf_mem</text>
</a>
</g>
</g>
<!-- Node16&#45;&gt;Node22 -->
<g id="edge25" class="edge">
<title>Node16&#45;&gt;Node22</title>
<path fill="none" stroke="midnightblue" d="M265.89,-171.64C271.41,-174.3 277.09,-177.45 282,-181 300.86,-194.62 299.51,-204.89 318,-219 319.85,-220.41 321.82,-221.78 323.85,-223.09"/>
<polygon fill="midnightblue" stroke="midnightblue" points="322.51,-226.36 332.91,-228.42 326.06,-220.33 322.51,-226.36"/>
</g>
<!-- Node23 -->
<g id="node23" class="node">
<title>Node23</title>
<g id="a_node23"><a xlink:href="uc_8c.html#a8334cbe4db5e54e19bf79b31f68d9eb8" target="_top" xlink:title=" ">
<polygon fill="white" stroke="black" points="332.5,-114.5 332.5,-133.5 376.5,-133.5 376.5,-114.5 332.5,-114.5"/>
<text text-anchor="middle" x="354.5" y="-121.5" font-family="Helvetica,sans-Serif" font-size="10.00">uc_off</text>
</a>
</g>
</g>
<!-- Node16&#45;&gt;Node23 -->
<g id="edge27" class="edge">
<title>Node16&#45;&gt;Node23</title>
<path fill="none" stroke="midnightblue" d="M269.76,-152.41C285.86,-146.95 306.05,-140.1 322.57,-134.49"/>
<polygon fill="midnightblue" stroke="midnightblue" points="323.97,-137.71 332.32,-131.19 321.72,-131.09 323.97,-137.71"/>
</g>
<!-- Node19 -->
<g id="node19" class="node">
<title>Node19</title>
<g id="a_node19"><a xlink:href="sbuf_8c.html#a4ad75f3948c0340c342a3ea3eb63a6e6" target="_top" xlink:title=" ">
<polygon fill="white" stroke="black" points="427,-209.5 427,-228.5 497,-228.5 497,-209.5 427,-209.5"/>
<text text-anchor="middle" x="462" y="-216.5" font-family="Helvetica,sans-Serif" font-size="10.00">sbuf_extend</text>
</a>
</g>
</g>
<!-- Node18&#45;&gt;Node19 -->
<g id="edge22" class="edge">
<title>Node18&#45;&gt;Node19</title>
<path fill="none" stroke="midnightblue" d="M381.58,-204.7C392.26,-206.62 404.91,-208.9 416.95,-211.07"/>
<polygon fill="midnightblue" stroke="midnightblue" points="416.39,-214.52 426.86,-212.85 417.64,-207.63 416.39,-214.52"/>
</g>
<!-- Node22&#45;&gt;Node19 -->
<g id="edge26" class="edge">
<title>Node22&#45;&gt;Node19</title>
<path fill="none" stroke="midnightblue" d="M385.73,-232.56C395.42,-230.81 406.36,-228.84 416.83,-226.95"/>
<polygon fill="midnightblue" stroke="midnightblue" points="417.46,-230.4 426.68,-225.18 416.22,-223.51 417.46,-230.4"/>
</g>
<!-- Node24 -->
<g id="node24" class="node">
<title>Node24</title>
<g id="a_node24"><a xlink:href="uc_8c.html#a79c7c44c06c1febff5680c19667e2676" target="_top" xlink:title=" ">
<polygon fill="white" stroke="black" points="436.5,-38.5 436.5,-57.5 487.5,-57.5 487.5,-38.5 436.5,-38.5"/>
<text text-anchor="middle" x="462" y="-45.5" font-family="Helvetica,sans-Serif" font-size="10.00">uc_next</text>
</a>
</g>
</g>
<!-- Node23&#45;&gt;Node24 -->
<g id="edge28" class="edge">
<title>Node23&#45;&gt;Node24</title>
<path fill="none" stroke="midnightblue" d="M375.05,-114.4C380.35,-111.57 386,-108.33 391,-105 409.58,-92.63 429.16,-76.38 442.87,-64.4"/>
<polygon fill="midnightblue" stroke="midnightblue" points="445.42,-66.81 450.58,-57.56 440.78,-61.57 445.42,-66.81"/>
</g>
<!-- Node25 -->
<g id="node25" class="node">
<title>Node25</title>
<g id="a_node25"><a xlink:href="uc_8c.html#a616e24870a58b86644c34ee077faca11" target="_top" xlink:title=" ">
<polygon fill="white" stroke="black" points="544.5,-19.5 544.5,-38.5 592.5,-38.5 592.5,-19.5 544.5,-19.5"/>
<text text-anchor="middle" x="568.5" y="-26.5" font-family="Helvetica,sans-Serif" font-size="10.00">uc_end</text>
</a>
</g>
</g>
<!-- Node24&#45;&gt;Node25 -->
<g id="edge29" class="edge">
<title>Node24&#45;&gt;Node25</title>
<path fill="none" stroke="midnightblue" d="M487.5,-43.55C501.42,-41.01 519.04,-37.81 534.2,-35.05"/>
<polygon fill="midnightblue" stroke="midnightblue" points="535.02,-38.46 544.23,-33.23 533.76,-31.58 535.02,-38.46"/>
</g>
<!-- Node27&#45;&gt;Node24 -->
<g id="edge32" class="edge">
<title>Node27&#45;&gt;Node24</title>
<path fill="none" stroke="midnightblue" d="M381.04,-19.2C394.85,-24.17 412.08,-30.38 427.01,-35.76"/>
<polygon fill="midnightblue" stroke="midnightblue" points="425.83,-39.05 436.42,-39.15 428.2,-32.47 425.83,-39.05"/>
</g>
<!-- Node28 -->
<g id="node28" class="node">
<title>Node28</title>
<g id="a_node28"><a xlink:href="uc_8c.html#a8afd7835259109c3ec7bb684d4a1f67f" target="_top" xlink:title=" ">
<polygon fill="white" stroke="black" points="437,-0.5 437,-19.5 487,-19.5 487,-0.5 437,-0.5"/>
<text text-anchor="middle" x="462" y="-7.5" font-family="Helvetica,sans-Serif" font-size="10.00">uc_slen</text>
</a>
</g>
</g>
<!-- Node27&#45;&gt;Node28 -->
<g id="edge33" class="edge">
<title>Node27&#45;&gt;Node28</title>
<path fill="none" stroke="midnightblue" d="M381.04,-10C394.68,-10 411.67,-10 426.47,-10"/>
<polygon fill="midnightblue" stroke="midnightblue" points="426.78,-13.5 436.78,-10 426.78,-6.5 426.78,-13.5"/>
</g>
<!-- Node28&#45;&gt;Node25 -->
<g id="edge34" class="edge">
<title>Node28&#45;&gt;Node25</title>
<path fill="none" stroke="midnightblue" d="M487.24,-14.41C501.25,-16.95 519.07,-20.2 534.37,-22.98"/>
<polygon fill="midnightblue" stroke="midnightblue" points="534.01,-26.47 544.47,-24.81 535.26,-19.58 534.01,-26.47"/>
</g>
</g>
</svg>
        <g id="navigator" transform="translate(0 0)" fill="#404254">
                <rect fill="#f2f5e9" fill-opacity="0.5" stroke="#606060" stroke-width=".5" x="0" y="0" width="60" height="60"/>
                <use id="zoomplus" xlink:href="#zoomPlus" x="17" y="9" onmousedown="handleZoom(evt,'in')"/>
                <use id="zoomminus" xlink:href="#zoomMin" x="42" y="9" onmousedown="handleZoom(evt,'out')"/>
                <use id="reset" xlink:href="#resetDef" x="30" y="36" onmousedown="handleReset()"/>
                <g id="arrowUp" xlink:href="#dirArrow" transform="translate(30 24)" onmousedown="handlePan(0,-1)">
                  <use xlink:href="#rim" fill="#404040">
                        <set attributeName="fill" to="#808080" begin="arrowUp.mouseover" end="arrowUp.mouseout"/>
                  </use>
                  <path fill="none" stroke="white" stroke-width="1.5" d="M0,-3.0v7 M-2.5,-0.5L0,-3.0L2.5,-0.5"/>
                </g>
                <g id="arrowRight" xlink:href="#dirArrow" transform="rotate(90) translate(36 -43)" onmousedown="handlePan(1,0)">
                  <use xlink:href="#rim" fill="#404040">
                        <set attributeName="fill" to="#808080" begin="arrowRight.mouseover" end="arrowRight.mouseout"/>
                  </use>
                  <path fill="none" stroke="white" stroke-width="1.5" d="M0,-3.0v7 M-2.5,-0.5L0,-3.0L2.5,-0.5"/>
                </g>
                <g id="arrowDown" xlink:href="#dirArrow" transform="rotate(180) translate(-30 -48)" onmousedown="handlePan(0,1)">
                  <use xlink:href="#rim" fill="#404040">
                        <set attributeName="fill" to="#808080" begin="arrowDown.mouseover" end="arrowDown.mouseout"/>
                  </use>
                  <path fill="none" stroke="white" stroke-width="1.5" d="M0,-3.0v7 M-2.5,-0.5L0,-3.0L2.5,-0.5"/>
                </g>
                <g id="arrowLeft" xlink:href="#dirArrow" transform="rotate(270) translate(-36 17)" onmousedown="handlePan(-1,0)">
                  <use xlink:href="#rim" fill="#404040">
                        <set attributeName="fill" to="#808080" begin="arrowLeft.mouseover" end="arrowLeft.mouseout"/>
                  </use>
                  <path fill="none" stroke="white" stroke-width="1.5" d="M0,-3.0v7 M-2.5,-0.5L0,-3.0L2.5,-0.5"/>
                </g>
        </g>
        <svg viewBox="0 0 15 15" width="100%" height="30px" preserveAspectRatio="xMaxYMin meet">
         <g id="arrow_out" transform="scale(0.3 0.3)">
          <a xlink:href="vi_8h_a8703d559ca9c640b8b89c589cf75ac06_cgraph_org.svg" target="_base">
           <rect id="button" ry="5" rx="5" y="6" x="6" height="38" width="38"
                fill="#f2f5e9" fill-opacity="0.5" stroke="#606060" stroke-width="1.0"/>
           <path id="arrow"
             d="M 11.500037,31.436501 C 11.940474,20.09759 22.043105,11.32322 32.158766,21.979434 L 37.068811,17.246167 C 37.068811,17.246167 37.088388,32 37.088388,32 L 22.160133,31.978069 C 22.160133,31.978069 26.997745,27.140456 26.997745,27.140456 C 18.528582,18.264221 13.291696,25.230495 11.500037,31.436501 z"
             style="fill:#404040;"/>
          </a>
         </g>
        </svg>
</svg>
