<?xml version="1.0" encoding="UTF-8" standalone="no"?>
<!DOCTYPE svg PUBLIC "-//W3C//DTD SVG 1.1//EN"
 "http://www.w3.org/Graphics/SVG/1.1/DTD/svg11.dtd">
<!-- Generated by graphviz version 2.44.1 (20200629.0846)
 -->
<!-- Title: rset_make Pages: 1 -->
<!--zoomable 408 -->
<svg id="main" version="1.1" xmlns="http://www.w3.org/2000/svg" xmlns:xlink="http://www.w3.org/1999/xlink" xml:space="preserve" onload="init(evt)">
<style type="text/css"><![CDATA[
.edge:hover path { stroke: red; }
.edge:hover polygon { stroke: red; fill: red; }
]]></style>
<script type="text/javascript"><![CDATA[
var edges = document.getElementsByTagName('g');
if (edges && edges.length) {
  for (var i=0;i<edges.length;i++) {
    if (edges[i].id.substr(0,4)=='edge') {
      edges[i].setAttribute('class','edge');
    }
  }
}
]]></script>
        <defs>
                <circle id="rim" cx="0" cy="0" r="7"/>
                <circle id="rim2" cx="0" cy="0" r="3.5"/>
                <g id="zoomPlus">
                        <use xlink:href="#rim" fill="#404040">
                                <set attributeName="fill" to="#808080" begin="zoomplus.mouseover" end="zoomplus.mouseout"/>
                        </use>
                        <path d="M-4,0h8M0,-4v8" fill="none" stroke="white" stroke-width="1.5" pointer-events="none"/>
                </g>
                <g id="zoomMin">
                        <use xlink:href="#rim" fill="#404040">
                                <set attributeName="fill" to="#808080" begin="zoomminus.mouseover" end="zoomminus.mouseout"/>
                        </use>
                        <path d="M-4,0h8" fill="none" stroke="white" stroke-width="1.5" pointer-events="none"/>
                </g>
                <g id="dirArrow">
                        <path fill="none" stroke="white" stroke-width="1.5" d="M0,-3.0v7 M-2.5,-0.5L0,-3.0L2.5,-0.5"/>
                </g>
               <g id="resetDef">
                       <use xlink:href="#rim2" fill="#404040">
                               <set attributeName="fill" to="#808080" begin="reset.mouseover" end="reset.mouseout"/>
                       </use>
               </g>
        </defs>

<script type="text/javascript">
var viewWidth = 819;
var viewHeight = 408;
var sectionId = 'dynsection-60';
</script>
<script xlink:href="svgpan.js"/>
<svg id="graph" class="graph">
<g id="viewport">
<title>rset_make</title>
<polygon fill="white" stroke="transparent" points="-4,4 -4,-404 815,-404 815,4 -4,4"/>
<!-- Node1 -->
<g id="node1" class="node">
<title>Node1</title>
<g id="a_node1"><a xlink:title=" ">
<polygon fill="#bfbfbf" stroke="black" points="0,-133.5 0,-152.5 62,-152.5 62,-133.5 0,-133.5"/>
<text text-anchor="middle" x="31" y="-140.5" font-family="Helvetica,sans-Serif" font-size="10.00">rset_make</text>
</a>
</g>
</g>
<!-- Node2 -->
<g id="node2" class="node">
<title>Node2</title>
<g id="a_node2"><a xlink:href="rset_8c.html#a8a35950ab3896c3d568af835385cc12f" target="_top" xlink:title=" ">
<polygon fill="white" stroke="black" points="98,-266.5 98,-285.5 176,-285.5 176,-266.5 98,-266.5"/>
<text text-anchor="middle" x="137" y="-273.5" font-family="Helvetica,sans-Serif" font-size="10.00">re_groupcount</text>
</a>
</g>
</g>
<!-- Node1&#45;&gt;Node2 -->
<g id="edge1" class="edge">
<title>Node1&#45;&gt;Node2</title>
<path fill="none" stroke="midnightblue" d="M35.43,-152.8C43.36,-174.23 64.85,-225.82 98,-257 99.45,-258.36 101.02,-259.65 102.66,-260.87"/>
<polygon fill="midnightblue" stroke="midnightblue" points="100.99,-263.95 111.32,-266.3 104.71,-258.02 100.99,-263.95"/>
</g>
<!-- Node3 -->
<g id="node3" class="node">
<title>Node3</title>
<g id="a_node3"><a xlink:href="regex_8c.html#a5b590271eb220f4e019e76cfb950eb69" target="_top" xlink:title=" ">
<polygon fill="white" stroke="black" points="110,-228.5 110,-247.5 164,-247.5 164,-228.5 110,-228.5"/>
<text text-anchor="middle" x="137" y="-235.5" font-family="Helvetica,sans-Serif" font-size="10.00">regcomp</text>
</a>
</g>
</g>
<!-- Node1&#45;&gt;Node3 -->
<g id="edge2" class="edge">
<title>Node1&#45;&gt;Node3</title>
<path fill="none" stroke="midnightblue" d="M39.83,-152.94C51.53,-167.41 74.69,-194.66 98,-214 101.78,-217.14 106,-220.18 110.21,-222.99"/>
<polygon fill="midnightblue" stroke="midnightblue" points="108.39,-225.98 118.71,-228.38 112.13,-220.07 108.39,-225.98"/>
</g>
<!-- Node19 -->
<g id="node19" class="node">
<title>Node19</title>
<g id="a_node19"><a xlink:href="sbuf_8c.html#a4e56760893d5a6797626743840c9adf2" target="_top" xlink:title=" ">
<polygon fill="white" stroke="black" points="220,-0.5 220,-19.5 274,-19.5 274,-0.5 220,-0.5"/>
<text text-anchor="middle" x="247" y="-7.5" font-family="Helvetica,sans-Serif" font-size="10.00">sbuf_buf</text>
</a>
</g>
</g>
<!-- Node1&#45;&gt;Node19 -->
<g id="edge27" class="edge">
<title>Node1&#45;&gt;Node19</title>
<path fill="none" stroke="midnightblue" d="M34.44,-133.34C40.68,-110.77 59.53,-54.58 98,-29 131.04,-7.03 177.53,-4.55 209.55,-6.1"/>
<polygon fill="midnightblue" stroke="midnightblue" points="209.6,-9.61 219.81,-6.76 210.05,-2.62 209.6,-9.61"/>
</g>
<!-- Node21 -->
<g id="node21" class="node">
<title>Node21</title>
<g id="a_node21"><a xlink:href="sbuf_8c.html#a3f9aa15ca1d73f585d7a4a9d023e58ce" target="_top" xlink:title=" ">
<polygon fill="white" stroke="black" points="220,-133.5 220,-152.5 274,-152.5 274,-133.5 220,-133.5"/>
<text text-anchor="middle" x="247" y="-140.5" font-family="Helvetica,sans-Serif" font-size="10.00">sbuf_chr</text>
</a>
</g>
</g>
<!-- Node1&#45;&gt;Node21 -->
<g id="edge29" class="edge">
<title>Node1&#45;&gt;Node21</title>
<path fill="none" stroke="midnightblue" d="M44.26,-152.72C56.89,-162.06 77.56,-175.54 98,-181 131.49,-189.95 142.4,-189.53 176,-181 193.42,-176.58 211.2,-166.85 224.48,-158.34"/>
<polygon fill="midnightblue" stroke="midnightblue" points="226.52,-161.19 232.9,-152.73 222.64,-155.36 226.52,-161.19"/>
</g>
<!-- Node22 -->
<g id="node22" class="node">
<title>Node22</title>
<g id="a_node22"><a xlink:href="sbuf_8c.html#a8c1a89868b1999663effb78b4f3fab32" target="_top" xlink:title=" ">
<polygon fill="white" stroke="black" points="108.5,-114.5 108.5,-133.5 165.5,-133.5 165.5,-114.5 108.5,-114.5"/>
<text text-anchor="middle" x="137" y="-121.5" font-family="Helvetica,sans-Serif" font-size="10.00">sbuf_free</text>
</a>
</g>
</g>
<!-- Node1&#45;&gt;Node22 -->
<g id="edge31" class="edge">
<title>Node1&#45;&gt;Node22</title>
<path fill="none" stroke="midnightblue" d="M62.08,-137.5C73.4,-135.44 86.42,-133.06 98.35,-130.88"/>
<polygon fill="midnightblue" stroke="midnightblue" points="99.27,-134.27 108.48,-129.03 98.01,-127.38 99.27,-134.27"/>
</g>
<!-- Node23 -->
<g id="node23" class="node">
<title>Node23</title>
<g id="a_node23"><a xlink:href="sbuf_8c.html#af4ad9608dfc956bbedc19df5c8256fc4" target="_top" xlink:title=" ">
<polygon fill="white" stroke="black" points="110.5,-76.5 110.5,-95.5 163.5,-95.5 163.5,-76.5 110.5,-76.5"/>
<text text-anchor="middle" x="137" y="-83.5" font-family="Helvetica,sans-Serif" font-size="10.00">sbuf_len</text>
</a>
</g>
</g>
<!-- Node1&#45;&gt;Node23 -->
<g id="edge32" class="edge">
<title>Node1&#45;&gt;Node23</title>
<path fill="none" stroke="midnightblue" d="M48.12,-133.36C61.4,-125.52 80.76,-114.26 98,-105 100.92,-103.43 103.99,-101.82 107.07,-100.24"/>
<polygon fill="midnightblue" stroke="midnightblue" points="108.82,-103.28 116.16,-95.64 105.66,-97.03 108.82,-103.28"/>
</g>
<!-- Node24 -->
<g id="node24" class="node">
<title>Node24</title>
<g id="a_node24"><a xlink:href="sbuf_8c.html#a57748585d6786a2c1aadc2cbe6f2135b" target="_top" xlink:title=" ">
<polygon fill="white" stroke="black" points="104.5,-38.5 104.5,-57.5 169.5,-57.5 169.5,-38.5 104.5,-38.5"/>
<text text-anchor="middle" x="137" y="-45.5" font-family="Helvetica,sans-Serif" font-size="10.00">sbuf_make</text>
</a>
</g>
</g>
<!-- Node1&#45;&gt;Node24 -->
<g id="edge33" class="edge">
<title>Node1&#45;&gt;Node24</title>
<path fill="none" stroke="midnightblue" d="M38.7,-133.02C49.61,-117.35 72.59,-86.71 98,-67 99.85,-65.57 101.82,-64.2 103.86,-62.9"/>
<polygon fill="midnightblue" stroke="midnightblue" points="106.07,-65.66 113.03,-57.67 102.61,-59.58 106.07,-65.66"/>
</g>
<!-- Node25 -->
<g id="node25" class="node">
<title>Node25</title>
<g id="a_node25"><a xlink:href="sbuf_8c.html#a603d1d6ab090025f5850f10bfa2dec7a" target="_top" xlink:title=" ">
<polygon fill="white" stroke="black" points="111,-152.5 111,-171.5 163,-171.5 163,-152.5 111,-152.5"/>
<text text-anchor="middle" x="137" y="-159.5" font-family="Helvetica,sans-Serif" font-size="10.00">sbuf_str</text>
</a>
</g>
</g>
<!-- Node1&#45;&gt;Node25 -->
<g id="edge34" class="edge">
<title>Node1&#45;&gt;Node25</title>
<path fill="none" stroke="midnightblue" d="M62.08,-148.5C74.17,-150.7 88.2,-153.27 100.77,-155.56"/>
<polygon fill="midnightblue" stroke="midnightblue" points="100.43,-159.06 110.9,-157.41 101.69,-152.17 100.43,-159.06"/>
</g>
<!-- Node4 -->
<g id="node4" class="node">
<title>Node4</title>
<g id="a_node4"><a xlink:href="regex_8c.html#ad3bbf549eef0fe517e9f213c5eadbb0c" target="_top" xlink:title=" ">
<polygon fill="white" stroke="black" points="450,-342.5 450,-361.5 504,-361.5 504,-342.5 450,-342.5"/>
<text text-anchor="middle" x="477" y="-349.5" font-family="Helvetica,sans-Serif" font-size="10.00">re_insert</text>
</a>
</g>
</g>
<!-- Node3&#45;&gt;Node4 -->
<g id="edge3" class="edge">
<title>Node3&#45;&gt;Node4</title>
<path fill="none" stroke="midnightblue" d="M159.9,-247.65C165.33,-250.39 171.02,-253.57 176,-257 193.88,-269.31 192.81,-279.86 212,-290 286.76,-329.52 386.58,-344.11 439.49,-349.29"/>
<polygon fill="midnightblue" stroke="midnightblue" points="439.46,-352.8 449.73,-350.23 440.1,-345.83 439.46,-352.8"/>
</g>
<!-- Node5 -->
<g id="node5" class="node">
<title>Node5</title>
<g id="a_node5"><a xlink:href="regex_8c.html#ac00e60e2e4bce1edcd55ffa8b9086ac5" target="_top" xlink:title=" ">
<polygon fill="white" stroke="black" points="212,-190.5 212,-209.5 282,-209.5 282,-190.5 212,-190.5"/>
<text text-anchor="middle" x="247" y="-197.5" font-family="Helvetica,sans-Serif" font-size="10.00">rnode_count</text>
</a>
</g>
</g>
<!-- Node3&#45;&gt;Node5 -->
<g id="edge4" class="edge">
<title>Node3&#45;&gt;Node5</title>
<path fill="none" stroke="midnightblue" d="M164.14,-228.8C177.77,-224.01 194.64,-218.07 209.53,-212.83"/>
<polygon fill="midnightblue" stroke="midnightblue" points="210.7,-216.13 218.97,-209.51 208.37,-209.53 210.7,-216.13"/>
</g>
<!-- Node6 -->
<g id="node6" class="node">
<title>Node6</title>
<g id="a_node6"><a xlink:href="regex_8c.html#a7be1fd2247ffed1699d3be12c04fe9c6" target="_top" xlink:title=" ">
<polygon fill="white" stroke="black" points="214.5,-361.5 214.5,-380.5 279.5,-380.5 279.5,-361.5 214.5,-361.5"/>
<text text-anchor="middle" x="247" y="-368.5" font-family="Helvetica,sans-Serif" font-size="10.00">rnode_emit</text>
</a>
</g>
</g>
<!-- Node3&#45;&gt;Node6 -->
<g id="edge5" class="edge">
<title>Node3&#45;&gt;Node6</title>
<path fill="none" stroke="midnightblue" d="M162.84,-247.53C167.58,-250.11 172.23,-253.26 176,-257 201.09,-281.95 192.93,-298.2 212,-328 217.53,-336.64 224.43,-345.63 230.57,-353.14"/>
<polygon fill="midnightblue" stroke="midnightblue" points="228.19,-355.76 237.3,-361.17 233.56,-351.26 228.19,-355.76"/>
</g>
<!-- Node9 -->
<g id="node9" class="node">
<title>Node9</title>
<g id="a_node9"><a xlink:href="regex_8c.html#aabe89a3a22bc0fdc0329cf29ec80ad76" target="_top" xlink:title=" ">
<polygon fill="white" stroke="black" points="656.5,-228.5 656.5,-247.5 718.5,-247.5 718.5,-228.5 656.5,-228.5"/>
<text text-anchor="middle" x="687.5" y="-235.5" font-family="Helvetica,sans-Serif" font-size="10.00">rnode_free</text>
</a>
</g>
</g>
<!-- Node3&#45;&gt;Node9 -->
<g id="edge11" class="edge">
<title>Node3&#45;&gt;Node9</title>
<path fill="none" stroke="midnightblue" d="M164.25,-245.42C205.76,-256.48 289.28,-276 361.5,-276 361.5,-276 361.5,-276 478,-276 537.49,-276 604.99,-260.84 646.66,-249.68"/>
<polygon fill="midnightblue" stroke="midnightblue" points="647.71,-253.02 656.43,-247.01 645.86,-246.27 647.71,-253.02"/>
</g>
<!-- Node10 -->
<g id="node10" class="node">
<title>Node10</title>
<g id="a_node10"><a xlink:href="regex_8c.html#ac19329676c1426f2b24af24e33e3a845" target="_top" xlink:title=" ">
<polygon fill="white" stroke="black" points="212,-228.5 212,-247.5 282,-247.5 282,-228.5 212,-228.5"/>
<text text-anchor="middle" x="247" y="-235.5" font-family="Helvetica,sans-Serif" font-size="10.00">rnode_parse</text>
</a>
</g>
</g>
<!-- Node3&#45;&gt;Node10 -->
<g id="edge12" class="edge">
<title>Node3&#45;&gt;Node10</title>
<path fill="none" stroke="midnightblue" d="M164.14,-238C175.47,-238 189.06,-238 201.87,-238"/>
<polygon fill="midnightblue" stroke="midnightblue" points="201.93,-241.5 211.93,-238 201.93,-234.5 201.93,-241.5"/>
</g>
<!-- Node6&#45;&gt;Node4 -->
<g id="edge6" class="edge">
<title>Node6&#45;&gt;Node4</title>
<path fill="none" stroke="midnightblue" d="M279.7,-368.36C321.73,-364.86 395.71,-358.69 439.86,-355.01"/>
<polygon fill="midnightblue" stroke="midnightblue" points="440.19,-358.5 449.87,-354.18 439.61,-351.52 440.19,-358.5"/>
</g>
<!-- Node7 -->
<g id="node7" class="node">
<title>Node7</title>
<g id="a_node7"><a xlink:href="regex_8c.html#afdf3c7adbb2060b793cf83c5312321c8" target="_top" xlink:title=" ">
<polygon fill="white" stroke="black" points="318,-380.5 318,-399.5 407,-399.5 407,-380.5 318,-380.5"/>
<text text-anchor="middle" x="362.5" y="-387.5" font-family="Helvetica,sans-Serif" font-size="10.00">rnode_emitnorep</text>
</a>
</g>
</g>
<!-- Node6&#45;&gt;Node7 -->
<g id="edge7" class="edge">
<title>Node6&#45;&gt;Node7</title>
<path fill="none" stroke="midnightblue" d="M279.62,-370.17C294.65,-371.88 312.62,-374.86 327.9,-378.15"/>
<polygon fill="midnightblue" stroke="midnightblue" points="327.44,-381.64 337.97,-380.47 329.01,-374.82 327.44,-381.64"/>
</g>
<!-- Node7&#45;&gt;Node4 -->
<g id="edge9" class="edge">
<title>Node7&#45;&gt;Node4</title>
<path fill="none" stroke="midnightblue" d="M391.89,-380.41C406.52,-375.47 424.51,-369.39 440.1,-364.13"/>
<polygon fill="midnightblue" stroke="midnightblue" points="441.58,-367.32 449.93,-360.8 439.34,-360.69 441.58,-367.32"/>
</g>
<!-- Node7&#45;&gt;Node6 -->
<g id="edge10" class="edge">
<title>Node7&#45;&gt;Node6</title>
<path fill="none" stroke="midnightblue" d="M317.83,-389.28C305.76,-387.56 292.87,-385.28 281.48,-382.82"/>
<polygon fill="midnightblue" stroke="midnightblue" points="282.05,-379.36 271.52,-380.53 280.48,-386.18 282.05,-379.36"/>
</g>
<!-- Node8 -->
<g id="node8" class="node">
<title>Node8</title>
<g id="a_node8"><a xlink:href="regex_8c.html#a71b5a38b3a51e761aaa959a89e7cae55" target="_top" xlink:title=" ">
<polygon fill="white" stroke="black" points="443,-380.5 443,-399.5 511,-399.5 511,-380.5 443,-380.5"/>
<text text-anchor="middle" x="477" y="-387.5" font-family="Helvetica,sans-Serif" font-size="10.00">ratom_copy</text>
</a>
</g>
</g>
<!-- Node7&#45;&gt;Node8 -->
<g id="edge8" class="edge">
<title>Node7&#45;&gt;Node8</title>
<path fill="none" stroke="midnightblue" d="M407.32,-390C415.65,-390 424.36,-390 432.67,-390"/>
<polygon fill="midnightblue" stroke="midnightblue" points="432.93,-393.5 442.93,-390 432.93,-386.5 432.93,-393.5"/>
</g>
<!-- Node11 -->
<g id="node11" class="node">
<title>Node11</title>
<g id="a_node11"><a xlink:href="regex_8c.html#a39869d385d8410ffb9d5bf74c778c6ce" target="_top" xlink:title=" ">
<polygon fill="white" stroke="black" points="652.5,-86.5 652.5,-105.5 722.5,-105.5 722.5,-86.5 652.5,-86.5"/>
<text text-anchor="middle" x="687.5" y="-93.5" font-family="Helvetica,sans-Serif" font-size="10.00">rnode_make</text>
</a>
</g>
</g>
<!-- Node10&#45;&gt;Node11 -->
<g id="edge13" class="edge">
<title>Node10&#45;&gt;Node11</title>
<path fill="none" stroke="midnightblue" d="M268.9,-228.48C273.52,-225.81 278.17,-222.63 282,-219 303.75,-198.39 294.37,-180.42 318,-162 414.19,-87 567.39,-86.5 642.32,-91.57"/>
<polygon fill="midnightblue" stroke="midnightblue" points="642.12,-95.06 652.36,-92.31 642.64,-88.08 642.12,-95.06"/>
</g>
<!-- Node12 -->
<g id="node12" class="node">
<title>Node12</title>
<g id="a_node12"><a xlink:href="regex_8c.html#abe0c1f4be43ac6d7caa4f95a560f823f" target="_top" xlink:title=" ">
<polygon fill="white" stroke="black" points="331.5,-171.5 331.5,-190.5 393.5,-190.5 393.5,-171.5 331.5,-171.5"/>
<text text-anchor="middle" x="362.5" y="-178.5" font-family="Helvetica,sans-Serif" font-size="10.00">rnode_seq</text>
</a>
</g>
</g>
<!-- Node10&#45;&gt;Node12 -->
<g id="edge14" class="edge">
<title>Node10&#45;&gt;Node12</title>
<path fill="none" stroke="midnightblue" d="M267,-228.46C285.17,-219.34 312.78,-205.47 333.48,-195.07"/>
<polygon fill="midnightblue" stroke="midnightblue" points="335.08,-198.19 342.44,-190.57 331.93,-191.93 335.08,-198.19"/>
</g>
<!-- Node12&#45;&gt;Node11 -->
<g id="edge26" class="edge">
<title>Node12&#45;&gt;Node11</title>
<path fill="none" stroke="midnightblue" d="M385.35,-171.44C419.28,-156.99 486.99,-129.71 547,-115 578.37,-107.31 614.51,-102.5 642.15,-99.64"/>
<polygon fill="midnightblue" stroke="midnightblue" points="642.69,-103.11 652.3,-98.64 642,-96.14 642.69,-103.11"/>
</g>
<!-- Node13 -->
<g id="node13" class="node">
<title>Node13</title>
<g id="a_node13"><a xlink:href="regex_8c.html#a0df57dc0ee1beb9018cdd537a58571aa" target="_top" xlink:title=" ">
<polygon fill="white" stroke="black" points="443,-171.5 443,-190.5 511,-190.5 511,-171.5 443,-171.5"/>
<text text-anchor="middle" x="477" y="-178.5" font-family="Helvetica,sans-Serif" font-size="10.00">rnode_atom</text>
</a>
</g>
</g>
<!-- Node12&#45;&gt;Node13 -->
<g id="edge15" class="edge">
<title>Node12&#45;&gt;Node13</title>
<path fill="none" stroke="midnightblue" d="M393.65,-181C405.67,-181 419.73,-181 432.79,-181"/>
<polygon fill="midnightblue" stroke="midnightblue" points="433,-184.5 443,-181 433,-177.5 433,-184.5"/>
</g>
<!-- Node13&#45;&gt;Node9 -->
<g id="edge20" class="edge">
<title>Node13&#45;&gt;Node9</title>
<path fill="none" stroke="midnightblue" d="M511.04,-190.03C547.8,-200.08 607.19,-216.32 646.53,-227.07"/>
<polygon fill="midnightblue" stroke="midnightblue" points="645.76,-230.49 656.33,-229.75 647.6,-223.74 645.76,-230.49"/>
</g>
<!-- Node13&#45;&gt;Node11 -->
<g id="edge25" class="edge">
<title>Node13&#45;&gt;Node11</title>
<path fill="none" stroke="midnightblue" d="M493.49,-171.42C507.21,-163.19 527.97,-151.37 547,-143 578.25,-129.26 614.88,-117.06 642.76,-108.54"/>
<polygon fill="midnightblue" stroke="midnightblue" points="644.04,-111.8 652.61,-105.57 642.02,-105.1 644.04,-111.8"/>
</g>
<!-- Node14 -->
<g id="node14" class="node">
<title>Node14</title>
<g id="a_node14"><a xlink:href="regex_8c.html#a8b5ae269a79b320da8e87712e2051d1c" target="_top" xlink:title=" ">
<polygon fill="white" stroke="black" points="547,-152.5 547,-171.5 612,-171.5 612,-152.5 547,-152.5"/>
<text text-anchor="middle" x="579.5" y="-159.5" font-family="Helvetica,sans-Serif" font-size="10.00">ratom_read</text>
</a>
</g>
</g>
<!-- Node13&#45;&gt;Node14 -->
<g id="edge16" class="edge">
<title>Node13&#45;&gt;Node14</title>
<path fill="none" stroke="midnightblue" d="M511.19,-174.73C519.4,-173.17 528.31,-171.49 536.88,-169.87"/>
<polygon fill="midnightblue" stroke="midnightblue" points="537.54,-173.31 546.71,-168.01 536.24,-166.43 537.54,-173.31"/>
</g>
<!-- Node18 -->
<g id="node18" class="node">
<title>Node18</title>
<g id="a_node18"><a xlink:href="regex_8c.html#aaeda19c8b3704252a342cdcc7fc3591c" target="_top" xlink:title=" ">
<polygon fill="white" stroke="black" points="550,-228.5 550,-247.5 609,-247.5 609,-228.5 550,-228.5"/>
<text text-anchor="middle" x="579.5" y="-235.5" font-family="Helvetica,sans-Serif" font-size="10.00">rnode_grp</text>
</a>
</g>
</g>
<!-- Node13&#45;&gt;Node18 -->
<g id="edge21" class="edge">
<title>Node13&#45;&gt;Node18</title>
<path fill="none" stroke="midnightblue" d="M495.05,-190.67C510.88,-199.65 534.67,-213.14 552.81,-223.43"/>
<polygon fill="midnightblue" stroke="midnightblue" points="551.28,-226.58 561.7,-228.47 554.73,-220.5 551.28,-226.58"/>
</g>
<!-- Node15 -->
<g id="node15" class="node">
<title>Node15</title>
<g id="a_node15"><a xlink:href="regex_8c.html#a1904288a4b4c7b7d0666c3d85d438e1a" target="_top" xlink:title=" ">
<polygon fill="white" stroke="black" points="648,-181.5 648,-200.5 727,-200.5 727,-181.5 648,-181.5"/>
<text text-anchor="middle" x="687.5" y="-188.5" font-family="Helvetica,sans-Serif" font-size="10.00">ratom_readbrk</text>
</a>
</g>
</g>
<!-- Node14&#45;&gt;Node15 -->
<g id="edge17" class="edge">
<title>Node14&#45;&gt;Node15</title>
<path fill="none" stroke="midnightblue" d="M612.02,-170.62C621.35,-173.18 631.76,-176.02 641.77,-178.76"/>
<polygon fill="midnightblue" stroke="midnightblue" points="641.01,-182.18 651.58,-181.45 642.86,-175.43 641.01,-182.18"/>
</g>
<!-- Node17 -->
<g id="node17" class="node">
<title>Node17</title>
<g id="a_node17"><a xlink:href="regex_8c.html#a9a0d6d5f93f1eaba8b63b16903c0952d" target="_top" xlink:title=" ">
<polygon fill="white" stroke="black" points="665,-143.5 665,-162.5 710,-162.5 710,-143.5 665,-143.5"/>
<text text-anchor="middle" x="687.5" y="-150.5" font-family="Helvetica,sans-Serif" font-size="10.00">uc_len</text>
</a>
</g>
</g>
<!-- Node14&#45;&gt;Node17 -->
<g id="edge19" class="edge">
<title>Node14&#45;&gt;Node17</title>
<path fill="none" stroke="midnightblue" d="M612.02,-159.32C625.4,-158.19 640.99,-156.86 654.44,-155.72"/>
<polygon fill="midnightblue" stroke="midnightblue" points="655.01,-159.19 664.68,-154.85 654.42,-152.21 655.01,-159.19"/>
</g>
<!-- Node16 -->
<g id="node16" class="node">
<title>Node16</title>
<g id="a_node16"><a xlink:href="regex_8c.html#acc18ff8d2687611a9e221b3329b02413" target="_top" xlink:title=" ">
<polygon fill="white" stroke="black" points="763,-181.5 763,-200.5 811,-200.5 811,-181.5 763,-181.5"/>
<text text-anchor="middle" x="787" y="-188.5" font-family="Helvetica,sans-Serif" font-size="10.00">brk_len</text>
</a>
</g>
</g>
<!-- Node15&#45;&gt;Node16 -->
<g id="edge18" class="edge">
<title>Node15&#45;&gt;Node16</title>
<path fill="none" stroke="midnightblue" d="M727.03,-191C735.57,-191 744.54,-191 752.84,-191"/>
<polygon fill="midnightblue" stroke="midnightblue" points="752.9,-194.5 762.9,-191 752.9,-187.5 752.9,-194.5"/>
</g>
<!-- Node18&#45;&gt;Node9 -->
<g id="edge22" class="edge">
<title>Node18&#45;&gt;Node9</title>
<path fill="none" stroke="midnightblue" d="M609.19,-238C620.59,-238 633.9,-238 646.24,-238"/>
<polygon fill="midnightblue" stroke="midnightblue" points="646.31,-241.5 656.31,-238 646.31,-234.5 646.31,-241.5"/>
</g>
<!-- Node18&#45;&gt;Node10 -->
<g id="edge24" class="edge">
<title>Node18&#45;&gt;Node10</title>
<path fill="none" stroke="midnightblue" d="M549.81,-238C491.98,-238 361.07,-238 292.22,-238"/>
<polygon fill="midnightblue" stroke="midnightblue" points="292.12,-234.5 282.12,-238 292.12,-241.5 292.12,-234.5"/>
</g>
<!-- Node18&#45;&gt;Node11 -->
<g id="edge23" class="edge">
<title>Node18&#45;&gt;Node11</title>
<path fill="none" stroke="midnightblue" d="M585.82,-228.35C596.46,-209.4 621.62,-166.37 648,-134 654.06,-126.57 661.4,-119.02 668.05,-112.64"/>
<polygon fill="midnightblue" stroke="midnightblue" points="670.5,-115.13 675.41,-105.75 665.72,-110.02 670.5,-115.13"/>
</g>
<!-- Node20 -->
<g id="node20" class="node">
<title>Node20</title>
<g id="a_node20"><a xlink:href="sbuf_8c.html#a4ad75f3948c0340c342a3ea3eb63a6e6" target="_top" xlink:title=" ">
<polygon fill="white" stroke="black" points="327.5,-0.5 327.5,-19.5 397.5,-19.5 397.5,-0.5 327.5,-0.5"/>
<text text-anchor="middle" x="362.5" y="-7.5" font-family="Helvetica,sans-Serif" font-size="10.00">sbuf_extend</text>
</a>
</g>
</g>
<!-- Node19&#45;&gt;Node20 -->
<g id="edge28" class="edge">
<title>Node19&#45;&gt;Node20</title>
<path fill="none" stroke="midnightblue" d="M274.04,-10C286.78,-10 302.49,-10 317.05,-10"/>
<polygon fill="midnightblue" stroke="midnightblue" points="317.4,-13.5 327.4,-10 317.4,-6.5 317.4,-13.5"/>
</g>
<!-- Node21&#45;&gt;Node20 -->
<g id="edge30" class="edge">
<title>Node21&#45;&gt;Node20</title>
<path fill="none" stroke="midnightblue" d="M258,-133.28C265.22,-125.93 274.91,-115.38 282,-105 301.96,-75.79 293.42,-59.45 318,-34 321.26,-30.63 325.09,-27.61 329.11,-24.94"/>
<polygon fill="midnightblue" stroke="midnightblue" points="331.22,-27.76 338.05,-19.66 327.66,-21.73 331.22,-27.76"/>
</g>
<!-- Node26 -->
<g id="node26" class="node">
<title>Node26</title>
<g id="a_node26"><a xlink:href="sbuf_8c.html#aa511ac77d6b486accc01c0512ef27ed2" target="_top" xlink:title=" ">
<polygon fill="white" stroke="black" points="216,-76.5 216,-95.5 278,-95.5 278,-76.5 216,-76.5"/>
<text text-anchor="middle" x="247" y="-83.5" font-family="Helvetica,sans-Serif" font-size="10.00">sbuf_mem</text>
</a>
</g>
</g>
<!-- Node25&#45;&gt;Node26 -->
<g id="edge35" class="edge">
<title>Node25&#45;&gt;Node26</title>
<path fill="none" stroke="midnightblue" d="M159.36,-152.35C164.92,-149.56 170.8,-146.36 176,-143 194.75,-130.89 214.31,-114.61 227.97,-102.55"/>
<polygon fill="midnightblue" stroke="midnightblue" points="230.54,-104.94 235.65,-95.66 225.87,-99.73 230.54,-104.94"/>
</g>
<!-- Node26&#45;&gt;Node20 -->
<g id="edge36" class="edge">
<title>Node26&#45;&gt;Node20</title>
<path fill="none" stroke="midnightblue" d="M260.03,-76.28C273.71,-65.42 296.86,-47.59 318,-34 323.11,-30.71 328.71,-27.42 334.13,-24.36"/>
<polygon fill="midnightblue" stroke="midnightblue" points="335.9,-27.39 342.98,-19.51 332.53,-21.25 335.9,-27.39"/>
</g>
</g>
</svg>
        <g id="navigator" transform="translate(0 0)" fill="#404254">
                <rect fill="#f2f5e9" fill-opacity="0.5" stroke="#606060" stroke-width=".5" x="0" y="0" width="60" height="60"/>
                <use id="zoomplus" xlink:href="#zoomPlus" x="17" y="9" onmousedown="handleZoom(evt,'in')"/>
                <use id="zoomminus" xlink:href="#zoomMin" x="42" y="9" onmousedown="handleZoom(evt,'out')"/>
                <use id="reset" xlink:href="#resetDef" x="30" y="36" onmousedown="handleReset()"/>
                <g id="arrowUp" xlink:href="#dirArrow" transform="translate(30 24)" onmousedown="handlePan(0,-1)">
                  <use xlink:href="#rim" fill="#404040">
                        <set attributeName="fill" to="#808080" begin="arrowUp.mouseover" end="arrowUp.mouseout"/>
                  </use>
                  <path fill="none" stroke="white" stroke-width="1.5" d="M0,-3.0v7 M-2.5,-0.5L0,-3.0L2.5,-0.5"/>
                </g>
                <g id="arrowRight" xlink:href="#dirArrow" transform="rotate(90) translate(36 -43)" onmousedown="handlePan(1,0)">
                  <use xlink:href="#rim" fill="#404040">
                        <set attributeName="fill" to="#808080" begin="arrowRight.mouseover" end="arrowRight.mouseout"/>
                  </use>
                  <path fill="none" stroke="white" stroke-width="1.5" d="M0,-3.0v7 M-2.5,-0.5L0,-3.0L2.5,-0.5"/>
                </g>
                <g id="arrowDown" xlink:href="#dirArrow" transform="rotate(180) translate(-30 -48)" onmousedown="handlePan(0,1)">
                  <use xlink:href="#rim" fill="#404040">
                        <set attributeName="fill" to="#808080" begin="arrowDown.mouseover" end="arrowDown.mouseout"/>
                  </use>
                  <path fill="none" stroke="white" stroke-width="1.5" d="M0,-3.0v7 M-2.5,-0.5L0,-3.0L2.5,-0.5"/>
                </g>
                <g id="arrowLeft" xlink:href="#dirArrow" transform="rotate(270) translate(-36 17)" onmousedown="handlePan(-1,0)">
                  <use xlink:href="#rim" fill="#404040">
                        <set attributeName="fill" to="#808080" begin="arrowLeft.mouseover" end="arrowLeft.mouseout"/>
                  </use>
                  <path fill="none" stroke="white" stroke-width="1.5" d="M0,-3.0v7 M-2.5,-0.5L0,-3.0L2.5,-0.5"/>
                </g>
        </g>
        <svg viewBox="0 0 15 15" width="100%" height="30px" preserveAspectRatio="xMaxYMin meet">
         <g id="arrow_out" transform="scale(0.3 0.3)">
          <a xlink:href="vi_8h_a121f237bc2c9c9ef98fd8b3c590fc309_cgraph_org.svg" target="_base">
           <rect id="button" ry="5" rx="5" y="6" x="6" height="38" width="38"
                fill="#f2f5e9" fill-opacity="0.5" stroke="#606060" stroke-width="1.0"/>
           <path id="arrow"
             d="M 11.500037,31.436501 C 11.940474,20.09759 22.043105,11.32322 32.158766,21.979434 L 37.068811,17.246167 C 37.068811,17.246167 37.088388,32 37.088388,32 L 22.160133,31.978069 C 22.160133,31.978069 26.997745,27.140456 26.997745,27.140456 C 18.528582,18.264221 13.291696,25.230495 11.500037,31.436501 z"
             style="fill:#404040;"/>
          </a>
         </g>
        </svg>
</svg>
