<?xml version="1.0" encoding="UTF-8" standalone="no"?>
<!DOCTYPE svg PUBLIC "-//W3C//DTD SVG 1.1//EN"
 "http://www.w3.org/Graphics/SVG/1.1/DTD/svg11.dtd">
<!-- Generated by graphviz version 2.44.1 (20200629.0846)
 -->
<!-- Title: ex_print Pages: 1 -->
<svg width="812pt" height="294pt"
 viewBox="0.00 0.00 812.00 294.00" xmlns="http://www.w3.org/2000/svg" xmlns:xlink="http://www.w3.org/1999/xlink">
<g id="graph0" class="graph" transform="scale(1 1) rotate(0) translate(4 290)">
<title>ex_print</title>
<polygon fill="white" stroke="transparent" points="-4,4 -4,-290 808,-290 808,4 -4,4"/>
<!-- Node1 -->
<g id="node1" class="node">
<title>Node1</title>
<g id="a_node1"><a xlink:title=" ">
<polygon fill="#bfbfbf" stroke="black" points="753,-114.5 753,-133.5 804,-133.5 804,-114.5 753,-114.5"/>
<text text-anchor="middle" x="778.5" y="-121.5" font-family="Helvetica,sans-Serif" font-size="10.00">ex_print</text>
</a>
</g>
</g>
<!-- Node2 -->
<g id="node2" class="node">
<title>Node2</title>
<g id="a_node2"><a xlink:href="ex_8c.html#a86b4adba0c96621f01383b9bacba4a01" target="_top" xlink:title=" ">
<polygon fill="white" stroke="black" points="661,-266.5 661,-285.5 717,-285.5 717,-266.5 661,-266.5"/>
<text text-anchor="middle" x="689" y="-273.5" font-family="Helvetica,sans-Serif" font-size="10.00">ec_cmap</text>
</a>
</g>
</g>
<!-- Node1&#45;&gt;Node2 -->
<g id="edge1" class="edge">
<title>Node1&#45;&gt;Node2</title>
<path fill="none" stroke="midnightblue" d="M771.17,-143.25C761.95,-169.5 743.03,-217.25 717,-252 713.01,-257.32 707.7,-262.35 702.84,-266.42"/>
<polygon fill="midnightblue" stroke="midnightblue" points="774.51,-144.3 774.42,-133.71 767.88,-142.04 774.51,-144.3"/>
</g>
<!-- Node3 -->
<g id="node3" class="node">
<title>Node3</title>
<g id="a_node3"><a xlink:href="ex_8c.html#adcd83f163f659bd2596bcfc25d74bde9" target="_top" xlink:title=" ">
<polygon fill="white" stroke="black" points="440.5,-228.5 440.5,-247.5 493.5,-247.5 493.5,-228.5 440.5,-228.5"/>
<text text-anchor="middle" x="467" y="-235.5" font-family="Helvetica,sans-Serif" font-size="10.00">ec_exec</text>
</a>
</g>
</g>
<!-- Node1&#45;&gt;Node3 -->
<g id="edge2" class="edge">
<title>Node1&#45;&gt;Node3</title>
<path fill="none" stroke="midnightblue" d="M763.51,-141.46C752.27,-154.31 735.38,-171.19 717,-181 642.28,-220.89 540.45,-232.99 493.55,-236.56"/>
<polygon fill="midnightblue" stroke="midnightblue" points="766.27,-143.62 770.03,-133.72 760.91,-139.11 766.27,-143.62"/>
</g>
<!-- Node12 -->
<g id="node12" class="node">
<title>Node12</title>
<g id="a_node12"><a xlink:href="ex_8c.html#a96a40531d1096a618d29639f2e42710b" target="_top" xlink:title=" ">
<polygon fill="white" stroke="black" points="670,-76.5 670,-95.5 708,-95.5 708,-76.5 670,-76.5"/>
<text text-anchor="middle" x="689" y="-83.5" font-family="Helvetica,sans-Serif" font-size="10.00">ec_ft</text>
</a>
</g>
</g>
<!-- Node1&#45;&gt;Node12 -->
<g id="edge14" class="edge">
<title>Node1&#45;&gt;Node12</title>
<path fill="none" stroke="midnightblue" d="M746.08,-110.36C733.38,-104.84 719.17,-98.67 708.24,-93.92"/>
<polygon fill="midnightblue" stroke="midnightblue" points="744.85,-113.64 755.42,-114.41 747.64,-107.22 744.85,-113.64"/>
</g>
<!-- Node13 -->
<g id="node13" class="node">
<title>Node13</title>
<g id="a_node13"><a xlink:href="ex_8c.html#a1d45a70b724f4cccae2ab746c711ebb1" target="_top" xlink:title=" ">
<polygon fill="white" stroke="black" points="662.5,-38.5 662.5,-57.5 715.5,-57.5 715.5,-38.5 662.5,-38.5"/>
<text text-anchor="middle" x="689" y="-45.5" font-family="Helvetica,sans-Serif" font-size="10.00">ec_lnum</text>
</a>
</g>
</g>
<!-- Node1&#45;&gt;Node13 -->
<g id="edge15" class="edge">
<title>Node1&#45;&gt;Node13</title>
<path fill="none" stroke="midnightblue" d="M760.65,-106.89C748.83,-95.2 732.44,-79.6 717,-67 713.09,-63.81 708.68,-60.57 704.57,-57.69"/>
<polygon fill="midnightblue" stroke="midnightblue" points="758.49,-109.68 768.04,-114.27 763.44,-104.73 758.49,-109.68"/>
</g>
<!-- Node14 -->
<g id="node14" class="node">
<title>Node14</title>
<g id="a_node14"><a xlink:href="ex_8c.html#aa69f426ff9728078fbb36f448c624a90" target="_top" xlink:title=" ">
<polygon fill="white" stroke="black" points="439,-114.5 439,-133.5 495,-133.5 495,-114.5 439,-114.5"/>
<text text-anchor="middle" x="467" y="-121.5" font-family="Helvetica,sans-Serif" font-size="10.00">ec_make</text>
</a>
</g>
</g>
<!-- Node1&#45;&gt;Node14 -->
<g id="edge16" class="edge">
<title>Node1&#45;&gt;Node14</title>
<path fill="none" stroke="midnightblue" d="M742.87,-124C680.71,-124 551.46,-124 495.18,-124"/>
<polygon fill="midnightblue" stroke="midnightblue" points="742.96,-127.5 752.96,-124 742.96,-120.5 742.96,-127.5"/>
</g>
<!-- Node15 -->
<g id="node15" class="node">
<title>Node15</title>
<g id="a_node15"><a xlink:href="ex_8c.html#ad2c1a9505aa3097bac242b47a367f11d" target="_top" xlink:title=" ">
<polygon fill="white" stroke="black" points="663.5,-0.5 663.5,-19.5 714.5,-19.5 714.5,-0.5 663.5,-0.5"/>
<text text-anchor="middle" x="689" y="-7.5" font-family="Helvetica,sans-Serif" font-size="10.00">ec_print</text>
</a>
</g>
</g>
<!-- Node1&#45;&gt;Node15 -->
<g id="edge17" class="edge">
<title>Node1&#45;&gt;Node15</title>
<path fill="none" stroke="midnightblue" d="M768.3,-105.09C757.8,-84.76 739.18,-52.23 717,-29 713.75,-25.6 709.82,-22.43 705.97,-19.69"/>
<polygon fill="midnightblue" stroke="midnightblue" points="765.29,-106.89 772.91,-114.25 771.54,-103.74 765.29,-106.89"/>
</g>
<!-- Node17 -->
<g id="node17" class="node">
<title>Node17</title>
<g id="a_node17"><a xlink:href="ex_8c.html#a057b67e2d4f23df3ad50a9d3ec86125b" target="_top" xlink:title=" ">
<polygon fill="white" stroke="black" points="662.5,-152.5 662.5,-171.5 715.5,-171.5 715.5,-152.5 662.5,-152.5"/>
<text text-anchor="middle" x="689" y="-159.5" font-family="Helvetica,sans-Serif" font-size="10.00">ec_write</text>
</a>
</g>
</g>
<!-- Node1&#45;&gt;Node17 -->
<g id="edge19" class="edge">
<title>Node1&#45;&gt;Node17</title>
<path fill="none" stroke="midnightblue" d="M745.94,-137.71C734.72,-142.58 722.33,-147.96 712.07,-152.41"/>
<polygon fill="midnightblue" stroke="midnightblue" points="747.64,-140.78 755.42,-133.59 744.85,-134.36 747.64,-140.78"/>
</g>
<!-- Node4 -->
<g id="node4" class="node">
<title>Node4</title>
<g id="a_node4"><a xlink:href="ex_8c.html#a7d848d20211b2e1c868dde98ec5dfae9" target="_top" xlink:title=" ">
<polygon fill="white" stroke="black" points="355.5,-228.5 355.5,-247.5 402.5,-247.5 402.5,-228.5 355.5,-228.5"/>
<text text-anchor="middle" x="379" y="-235.5" font-family="Helvetica,sans-Serif" font-size="10.00">ex_line</text>
</a>
</g>
</g>
<!-- Node3&#45;&gt;Node4 -->
<g id="edge3" class="edge">
<title>Node3&#45;&gt;Node4</title>
<path fill="none" stroke="midnightblue" d="M429.99,-238C420.7,-238 410.96,-238 402.58,-238"/>
<polygon fill="midnightblue" stroke="midnightblue" points="430.2,-241.5 440.2,-238 430.2,-234.5 430.2,-241.5"/>
</g>
<!-- Node5 -->
<g id="node5" class="node">
<title>Node5</title>
<g id="a_node5"><a xlink:href="ex_8c.html#ab15ebfef933256d9741128e2ddf3f9b5" target="_top" xlink:title=" ">
<polygon fill="white" stroke="black" points="266,-228.5 266,-247.5 319,-247.5 319,-228.5 266,-228.5"/>
<text text-anchor="middle" x="292.5" y="-235.5" font-family="Helvetica,sans-Serif" font-size="10.00">ex_exec</text>
</a>
</g>
</g>
<!-- Node4&#45;&gt;Node5 -->
<g id="edge4" class="edge">
<title>Node4&#45;&gt;Node5</title>
<path fill="none" stroke="midnightblue" d="M345.21,-238C336.58,-238 327.39,-238 319.19,-238"/>
<polygon fill="midnightblue" stroke="midnightblue" points="345.36,-241.5 355.36,-238 345.36,-234.5 345.36,-241.5"/>
</g>
<!-- Node6 -->
<g id="node6" class="node">
<title>Node6</title>
<g id="a_node6"><a xlink:href="ex_8c.html#a70c571bdde329a65e216c19b4aeaa628" target="_top" xlink:title=" ">
<polygon fill="white" stroke="black" points="167.5,-190.5 167.5,-209.5 217.5,-209.5 217.5,-190.5 167.5,-190.5"/>
<text text-anchor="middle" x="192.5" y="-197.5" font-family="Helvetica,sans-Serif" font-size="10.00">ec_glob</text>
</a>
</g>
</g>
<!-- Node5&#45;&gt;Node6 -->
<g id="edge5" class="edge">
<title>Node5&#45;&gt;Node6</title>
<path fill="none" stroke="midnightblue" d="M257.14,-224.68C244.07,-219.61 229.46,-213.94 217.54,-209.32"/>
<polygon fill="midnightblue" stroke="midnightblue" points="256.18,-228.06 266.77,-228.41 258.71,-221.53 256.18,-228.06"/>
</g>
<!-- Node7 -->
<g id="node7" class="node">
<title>Node7</title>
<g id="a_node7"><a xlink:href="vi_8h.html#aa75c73cccb4878ec06ea5bf5b1b02295" target="_top" xlink:title=" ">
<polygon fill="white" stroke="black" points="155,-228.5 155,-247.5 230,-247.5 230,-228.5 155,-228.5"/>
<text text-anchor="middle" x="192.5" y="-235.5" font-family="Helvetica,sans-Serif" font-size="10.00">ex_command</text>
</a>
</g>
</g>
<!-- Node5&#45;&gt;Node7 -->
<g id="edge7" class="edge">
<title>Node5&#45;&gt;Node7</title>
<path fill="none" stroke="midnightblue" d="M255.61,-238C247.31,-238 238.46,-238 230.13,-238"/>
<polygon fill="midnightblue" stroke="midnightblue" points="255.75,-241.5 265.75,-238 255.75,-234.5 255.75,-241.5"/>
</g>
<!-- Node6&#45;&gt;Node4 -->
<g id="edge6" class="edge">
<title>Node6&#45;&gt;Node4</title>
<path fill="none" stroke="midnightblue" d="M228.01,-203.7C253.38,-206.79 288.59,-211.85 319,-219 331.15,-221.86 344.4,-226.03 355.27,-229.73"/>
<polygon fill="midnightblue" stroke="midnightblue" points="228.12,-200.19 217.78,-202.5 227.3,-207.14 228.12,-200.19"/>
</g>
<!-- Node8 -->
<g id="node8" class="node">
<title>Node8</title>
<g id="a_node8"><a xlink:href="vi_8h.html#ac395e51f25330a6e6033b6d0d22b2076" target="_top" xlink:title=" ">
<polygon fill="white" stroke="black" points="82,-209.5 82,-228.5 111,-228.5 111,-209.5 82,-209.5"/>
<text text-anchor="middle" x="96.5" y="-216.5" font-family="Helvetica,sans-Serif" font-size="10.00">ex</text>
</a>
</g>
</g>
<!-- Node7&#45;&gt;Node8 -->
<g id="edge8" class="edge">
<title>Node7&#45;&gt;Node8</title>
<path fill="none" stroke="midnightblue" d="M144.73,-228.55C132.54,-226.08 120.33,-223.61 111.38,-221.8"/>
<polygon fill="midnightblue" stroke="midnightblue" points="144.39,-232.05 154.89,-230.6 145.78,-225.19 144.39,-232.05"/>
</g>
<!-- Node10 -->
<g id="node10" class="node">
<title>Node10</title>
<g id="a_node10"><a xlink:href="vi_8h.html#abe53b5c10f94f20cd5ed024371615fa1" target="_top" xlink:title=" ">
<polygon fill="white" stroke="black" points="74,-171.5 74,-190.5 119,-190.5 119,-171.5 74,-171.5"/>
<text text-anchor="middle" x="96.5" y="-178.5" font-family="Helvetica,sans-Serif" font-size="10.00">ex_init</text>
</a>
</g>
</g>
<!-- Node7&#45;&gt;Node10 -->
<g id="edge10" class="edge">
<title>Node7&#45;&gt;Node10</title>
<path fill="none" stroke="midnightblue" d="M162.9,-223.48C160.21,-222 157.54,-220.49 155,-219 139.74,-210.02 122.9,-198.72 111.42,-190.79"/>
<polygon fill="midnightblue" stroke="midnightblue" points="161.5,-226.7 171.97,-228.31 164.79,-220.52 161.5,-226.7"/>
</g>
<!-- Node11 -->
<g id="node11" class="node">
<title>Node11</title>
<g id="a_node11"><a xlink:href="vi_8c.html#a8d808e0f3453afe6600673ee1ea5f828" target="_top" xlink:title=" ">
<polygon fill="white" stroke="black" points="82,-247.5 82,-266.5 111,-266.5 111,-247.5 82,-247.5"/>
<text text-anchor="middle" x="96.5" y="-254.5" font-family="Helvetica,sans-Serif" font-size="10.00">vi</text>
</a>
</g>
</g>
<!-- Node7&#45;&gt;Node11 -->
<g id="edge12" class="edge">
<title>Node7&#45;&gt;Node11</title>
<path fill="none" stroke="midnightblue" d="M144.73,-247.45C132.54,-249.92 120.33,-252.39 111.38,-254.2"/>
<polygon fill="midnightblue" stroke="midnightblue" points="145.78,-250.81 154.89,-245.4 144.39,-243.95 145.78,-250.81"/>
</g>
<!-- Node9 -->
<g id="node9" class="node">
<title>Node9</title>
<g id="a_node9"><a xlink:href="vi_8c.html#a0ddf1224851353fc92bfbff6f499fa97" target="_top" xlink:title=" ">
<polygon fill="white" stroke="black" points="0,-209.5 0,-228.5 38,-228.5 38,-209.5 0,-209.5"/>
<text text-anchor="middle" x="19" y="-216.5" font-family="Helvetica,sans-Serif" font-size="10.00">main</text>
</a>
</g>
</g>
<!-- Node8&#45;&gt;Node9 -->
<g id="edge9" class="edge">
<title>Node8&#45;&gt;Node9</title>
<path fill="none" stroke="midnightblue" d="M71.55,-219C60.69,-219 48.07,-219 38.04,-219"/>
<polygon fill="midnightblue" stroke="midnightblue" points="71.65,-222.5 81.65,-219 71.65,-215.5 71.65,-222.5"/>
</g>
<!-- Node10&#45;&gt;Node9 -->
<g id="edge11" class="edge">
<title>Node10&#45;&gt;Node9</title>
<path fill="none" stroke="midnightblue" d="M67.4,-195.14C57.57,-200.09 46.79,-205.51 38.01,-209.94"/>
<polygon fill="midnightblue" stroke="midnightblue" points="69.09,-198.21 76.45,-190.59 65.94,-191.96 69.09,-198.21"/>
</g>
<!-- Node11&#45;&gt;Node9 -->
<g id="edge13" class="edge">
<title>Node11&#45;&gt;Node9</title>
<path fill="none" stroke="midnightblue" d="M72.56,-245.45C61.48,-239.88 48.39,-233.29 38.04,-228.08"/>
<polygon fill="midnightblue" stroke="midnightblue" points="71.15,-248.66 81.65,-250.03 74.29,-242.41 71.15,-248.66"/>
</g>
<!-- Node16 -->
<g id="node16" class="node">
<title>Node16</title>
<g id="a_node16"><a xlink:href="ex_8c.html#affb8197a8f988443aadf1bf2800a0d0b" target="_top" xlink:title=" ">
<polygon fill="white" stroke="black" points="554.5,-0.5 554.5,-19.5 601.5,-19.5 601.5,-0.5 554.5,-0.5"/>
<text text-anchor="middle" x="578" y="-7.5" font-family="Helvetica,sans-Serif" font-size="10.00">ec_null</text>
</a>
</g>
</g>
<!-- Node15&#45;&gt;Node16 -->
<g id="edge18" class="edge">
<title>Node15&#45;&gt;Node16</title>
<path fill="none" stroke="midnightblue" d="M653.23,-10C636.4,-10 616.67,-10 601.78,-10"/>
<polygon fill="midnightblue" stroke="midnightblue" points="653.27,-13.5 663.27,-10 653.27,-6.5 653.27,-13.5"/>
</g>
<!-- Node18 -->
<g id="node18" class="node">
<title>Node18</title>
<g id="a_node18"><a xlink:href="ex_8c.html#ab0cb848a971a3b2c09fcb456d887dd6b" target="_top" xlink:title=" ">
<polygon fill="white" stroke="black" points="531,-152.5 531,-171.5 625,-171.5 625,-152.5 531,-152.5"/>
<text text-anchor="middle" x="578" y="-159.5" font-family="Helvetica,sans-Serif" font-size="10.00">ex_modifiedbuffer</text>
</a>
</g>
</g>
<!-- Node17&#45;&gt;Node18 -->
<g id="edge20" class="edge">
<title>Node17&#45;&gt;Node18</title>
<path fill="none" stroke="midnightblue" d="M652.35,-162C643.72,-162 634.37,-162 625.33,-162"/>
<polygon fill="midnightblue" stroke="midnightblue" points="652.44,-165.5 662.44,-162 652.44,-158.5 652.44,-165.5"/>
</g>
<!-- Node18&#45;&gt;Node3 -->
<g id="edge23" class="edge">
<title>Node18&#45;&gt;Node3</title>
<path fill="none" stroke="midnightblue" d="M554.82,-177.46C532.9,-192.75 500.06,-215.64 481.69,-228.45"/>
<polygon fill="midnightblue" stroke="midnightblue" points="556.99,-180.22 563.2,-171.63 552.99,-174.47 556.99,-180.22"/>
</g>
<!-- Node18&#45;&gt;Node14 -->
<g id="edge24" class="edge">
<title>Node18&#45;&gt;Node14</title>
<path fill="none" stroke="midnightblue" d="M539.71,-149C525.08,-143.9 508.59,-138.15 495.12,-133.45"/>
<polygon fill="midnightblue" stroke="midnightblue" points="538.9,-152.42 549.49,-152.41 541.2,-145.81 538.9,-152.42"/>
</g>
<!-- Node19 -->
<g id="node19" class="node">
<title>Node19</title>
<g id="a_node19"><a xlink:href="ex_8c.html#a8059390ad69866fa8e14bdb2521d4dc2" target="_top" xlink:title=" ">
<polygon fill="white" stroke="black" points="355,-152.5 355,-171.5 403,-171.5 403,-152.5 355,-152.5"/>
<text text-anchor="middle" x="379" y="-159.5" font-family="Helvetica,sans-Serif" font-size="10.00">ec_edit</text>
</a>
</g>
</g>
<!-- Node18&#45;&gt;Node19 -->
<g id="edge21" class="edge">
<title>Node18&#45;&gt;Node19</title>
<path fill="none" stroke="midnightblue" d="M520.66,-162C481.72,-162 431.95,-162 403.25,-162"/>
<polygon fill="midnightblue" stroke="midnightblue" points="520.81,-165.5 530.81,-162 520.81,-158.5 520.81,-165.5"/>
</g>
<!-- Node20 -->
<g id="node20" class="node">
<title>Node20</title>
<g id="a_node20"><a xlink:href="ex_8c.html#a87eef446de152fad41ce88a9a343b87d" target="_top" xlink:title=" ">
<polygon fill="white" stroke="black" points="443,-190.5 443,-209.5 491,-209.5 491,-190.5 443,-190.5"/>
<text text-anchor="middle" x="467" y="-197.5" font-family="Helvetica,sans-Serif" font-size="10.00">ec_quit</text>
</a>
</g>
</g>
<!-- Node18&#45;&gt;Node20 -->
<g id="edge25" class="edge">
<title>Node18&#45;&gt;Node20</title>
<path fill="none" stroke="midnightblue" d="M539.79,-174.97C523.63,-180.61 505.21,-187.03 491.07,-191.96"/>
<polygon fill="midnightblue" stroke="midnightblue" points="541.2,-178.19 549.49,-171.59 538.9,-171.58 541.2,-178.19"/>
</g>
<!-- Node19&#45;&gt;Node10 -->
<g id="edge22" class="edge">
<title>Node19&#45;&gt;Node10</title>
<path fill="none" stroke="midnightblue" d="M344.41,-164.28C286.11,-168.22 167.76,-176.24 119.12,-179.54"/>
<polygon fill="midnightblue" stroke="midnightblue" points="344.83,-167.76 354.57,-163.59 344.35,-160.77 344.83,-167.76"/>
</g>
<!-- Node20&#45;&gt;Node17 -->
<g id="edge26" class="edge">
<title>Node20&#45;&gt;Node17</title>
<path fill="none" stroke="midnightblue" d="M501.21,-197.65C533.18,-195 582.75,-189.86 625,-181 637.41,-178.4 650.9,-174.48 662.21,-170.88"/>
<polygon fill="midnightblue" stroke="midnightblue" points="500.77,-194.18 491.08,-198.46 501.33,-201.15 500.77,-194.18"/>
</g>
</g>
</svg>
