<?xml version="1.0" encoding="UTF-8" standalone="no"?>
<!DOCTYPE svg PUBLIC "-//W3C//DTD SVG 1.1//EN"
 "http://www.w3.org/Graphics/SVG/1.1/DTD/svg11.dtd">
<!-- Generated by graphviz version 2.44.1 (20200629.0846)
 -->
<!-- Title: vi_char Pages: 1 -->
<svg width="462pt" height="142pt"
 viewBox="0.00 0.00 462.00 142.00" xmlns="http://www.w3.org/2000/svg" xmlns:xlink="http://www.w3.org/1999/xlink">
<g id="graph0" class="graph" transform="scale(1 1) rotate(0) translate(4 138)">
<title>vi_char</title>
<polygon fill="white" stroke="transparent" points="-4,4 -4,-138 458,-138 458,4 -4,4"/>
<!-- Node1 -->
<g id="node1" class="node">
<title>Node1</title>
<g id="a_node1"><a xlink:title=" ">
<polygon fill="#bfbfbf" stroke="black" points="0,-19.5 0,-38.5 48,-38.5 48,-19.5 0,-19.5"/>
<text text-anchor="middle" x="24" y="-26.5" font-family="Helvetica,sans-Serif" font-size="10.00">vi_char</text>
</a>
</g>
</g>
<!-- Node2 -->
<g id="node2" class="node">
<title>Node2</title>
<g id="a_node2"><a xlink:href="led_8c.html#a1924b949e033052323dd2153d88e6001" target="_top" xlink:title=" ">
<polygon fill="white" stroke="black" points="84,-19.5 84,-38.5 137,-38.5 137,-19.5 84,-19.5"/>
<text text-anchor="middle" x="110.5" y="-26.5" font-family="Helvetica,sans-Serif" font-size="10.00">led_read</text>
</a>
</g>
</g>
<!-- Node1&#45;&gt;Node2 -->
<g id="edge1" class="edge">
<title>Node1&#45;&gt;Node2</title>
<path fill="none" stroke="midnightblue" d="M48.09,-29C55.94,-29 64.91,-29 73.53,-29"/>
<polygon fill="midnightblue" stroke="midnightblue" points="73.76,-32.5 83.76,-29 73.76,-25.5 73.76,-32.5"/>
</g>
<!-- Node3 -->
<g id="node3" class="node">
<title>Node3</title>
<g id="a_node3"><a xlink:href="led_8c.html#a8bbdff3c2783b27081d76136774c5dbf" target="_top" xlink:title=" ">
<polygon fill="white" stroke="black" points="173,-38.5 173,-57.5 245,-57.5 245,-38.5 173,-38.5"/>
<text text-anchor="middle" x="209" y="-45.5" font-family="Helvetica,sans-Serif" font-size="10.00">led_readchar</text>
</a>
</g>
</g>
<!-- Node2&#45;&gt;Node3 -->
<g id="edge2" class="edge">
<title>Node2&#45;&gt;Node3</title>
<path fill="none" stroke="midnightblue" d="M137.11,-34.04C145.06,-35.61 154.07,-37.38 162.94,-39.13"/>
<polygon fill="midnightblue" stroke="midnightblue" points="162.34,-42.58 172.83,-41.07 163.69,-35.71 162.34,-42.58"/>
</g>
<!-- Node7 -->
<g id="node7" class="node">
<title>Node7</title>
<g id="a_node7"><a xlink:href="term_8c.html#ab37222c9b84980b0492b34d0a4e32f12" target="_top" xlink:title=" ">
<polygon fill="white" stroke="black" points="287,-0.5 287,-19.5 347,-19.5 347,-0.5 287,-0.5"/>
<text text-anchor="middle" x="317" y="-7.5" font-family="Helvetica,sans-Serif" font-size="10.00">term_read</text>
</a>
</g>
</g>
<!-- Node2&#45;&gt;Node7 -->
<g id="edge8" class="edge">
<title>Node2&#45;&gt;Node7</title>
<path fill="none" stroke="midnightblue" d="M137.4,-26.59C172.5,-23.33 235.48,-17.48 276.5,-13.67"/>
<polygon fill="midnightblue" stroke="midnightblue" points="277.05,-17.13 286.68,-12.72 276.4,-10.16 277.05,-17.13"/>
</g>
<!-- Node4 -->
<g id="node4" class="node">
<title>Node4</title>
<g id="a_node4"><a xlink:href="conf_8c.html#acbeed8b0b62960a541af67e17d6c7131" target="_top" xlink:title=" ">
<polygon fill="white" stroke="black" points="281,-114.5 281,-133.5 353,-133.5 353,-114.5 281,-114.5"/>
<text text-anchor="middle" x="317" y="-121.5" font-family="Helvetica,sans-Serif" font-size="10.00">conf_digraph</text>
</a>
</g>
</g>
<!-- Node3&#45;&gt;Node4 -->
<g id="edge3" class="edge">
<title>Node3&#45;&gt;Node4</title>
<path fill="none" stroke="midnightblue" d="M220.6,-57.52C234.09,-69.39 258.36,-89.94 281,-105 283.17,-106.44 285.45,-107.87 287.77,-109.26"/>
<polygon fill="midnightblue" stroke="midnightblue" points="286.32,-112.46 296.75,-114.35 289.78,-106.37 286.32,-112.46"/>
</g>
<!-- Node5 -->
<g id="node5" class="node">
<title>Node5</title>
<g id="a_node5"><a xlink:href="led_8c.html#a1b9303e418de8d39a47db9256cfd9765" target="_top" xlink:title=" ">
<polygon fill="white" stroke="black" points="284.5,-76.5 284.5,-95.5 349.5,-95.5 349.5,-76.5 284.5,-76.5"/>
<text text-anchor="middle" x="317" y="-83.5" font-family="Helvetica,sans-Serif" font-size="10.00">kmap_map</text>
</a>
</g>
</g>
<!-- Node3&#45;&gt;Node5 -->
<g id="edge4" class="edge">
<title>Node3&#45;&gt;Node5</title>
<path fill="none" stroke="midnightblue" d="M236.75,-57.59C249.8,-62.27 265.7,-67.97 279.82,-73.03"/>
<polygon fill="midnightblue" stroke="midnightblue" points="278.67,-76.33 289.26,-76.41 281.03,-69.74 278.67,-76.33"/>
</g>
<!-- Node3&#45;&gt;Node7 -->
<g id="edge6" class="edge">
<title>Node3&#45;&gt;Node7</title>
<path fill="none" stroke="midnightblue" d="M236.75,-38.41C249.8,-33.73 265.7,-28.03 279.82,-22.97"/>
<polygon fill="midnightblue" stroke="midnightblue" points="281.03,-26.26 289.26,-19.59 278.67,-19.67 281.03,-26.26"/>
</g>
<!-- Node8 -->
<g id="node8" class="node">
<title>Node8</title>
<g id="a_node8"><a xlink:href="regex_8c.html#a9a0d6d5f93f1eaba8b63b16903c0952d" target="_top" xlink:title=" ">
<polygon fill="white" stroke="black" points="294.5,-38.5 294.5,-57.5 339.5,-57.5 339.5,-38.5 294.5,-38.5"/>
<text text-anchor="middle" x="317" y="-45.5" font-family="Helvetica,sans-Serif" font-size="10.00">uc_len</text>
</a>
</g>
</g>
<!-- Node3&#45;&gt;Node8 -->
<g id="edge7" class="edge">
<title>Node3&#45;&gt;Node8</title>
<path fill="none" stroke="midnightblue" d="M245,-48C257.6,-48 271.73,-48 284.05,-48"/>
<polygon fill="midnightblue" stroke="midnightblue" points="284.32,-51.5 294.32,-48 284.32,-44.5 284.32,-51.5"/>
</g>
<!-- Node6 -->
<g id="node6" class="node">
<title>Node6</title>
<g id="a_node6"><a xlink:href="conf_8c.html#a701ceb92f75bae1a0d9d805796eb2f84" target="_top" xlink:title=" ">
<polygon fill="white" stroke="black" points="389,-76.5 389,-95.5 454,-95.5 454,-76.5 389,-76.5"/>
<text text-anchor="middle" x="421.5" y="-83.5" font-family="Helvetica,sans-Serif" font-size="10.00">conf_kmap</text>
</a>
</g>
</g>
<!-- Node5&#45;&gt;Node6 -->
<g id="edge5" class="edge">
<title>Node5&#45;&gt;Node6</title>
<path fill="none" stroke="midnightblue" d="M349.59,-86C358.75,-86 368.89,-86 378.58,-86"/>
<polygon fill="midnightblue" stroke="midnightblue" points="378.84,-89.5 388.84,-86 378.84,-82.5 378.84,-89.5"/>
</g>
</g>
</svg>
