<?xml version="1.0" encoding="UTF-8" standalone="no"?>
<!DOCTYPE svg PUBLIC "-//W3C//DTD SVG 1.1//EN"
 "http://www.w3.org/Graphics/SVG/1.1/DTD/svg11.dtd">
<!-- Generated by graphviz version 2.44.1 (20200629.0846)
 -->
<!-- Title: conf.c Pages: 1 -->
<svg width="290pt" height="140pt"
 viewBox="0.00 0.00 289.50 140.00" xmlns="http://www.w3.org/2000/svg" xmlns:xlink="http://www.w3.org/1999/xlink">
<g id="graph0" class="graph" transform="scale(1 1) rotate(0) translate(4 136)">
<title>conf.c</title>
<polygon fill="white" stroke="transparent" points="-4,4 -4,-136 285.5,-136 285.5,4 -4,4"/>
<!-- Node1 -->
<g id="node1" class="node">
<title>Node1</title>
<g id="a_node1"><a xlink:title=" ">
<polygon fill="#bfbfbf" stroke="black" points="120,-112.5 120,-131.5 164,-131.5 164,-112.5 120,-112.5"/>
<text text-anchor="middle" x="142" y="-119.5" font-family="Helvetica,sans-Serif" font-size="10.00">conf.c</text>
</a>
</g>
</g>
<!-- Node2 -->
<g id="node2" class="node">
<title>Node2</title>
<g id="a_node2"><a xlink:title=" ">
<polygon fill="white" stroke="#bfbfbf" points="0,-56.5 0,-75.5 46,-75.5 46,-56.5 0,-56.5"/>
<text text-anchor="middle" x="23" y="-63.5" font-family="Helvetica,sans-Serif" font-size="10.00">stdio.h</text>
</a>
</g>
</g>
<!-- Node1&#45;&gt;Node2 -->
<g id="edge1" class="edge">
<title>Node1&#45;&gt;Node2</title>
<path fill="none" stroke="midnightblue" d="M123.14,-112.44C103.73,-103.64 73.27,-89.81 51.04,-79.72"/>
<polygon fill="midnightblue" stroke="midnightblue" points="52.32,-76.46 41.77,-75.52 49.43,-82.84 52.32,-76.46"/>
</g>
<!-- Node3 -->
<g id="node3" class="node">
<title>Node3</title>
<g id="a_node3"><a xlink:title=" ">
<polygon fill="white" stroke="#bfbfbf" points="64.5,-56.5 64.5,-75.5 113.5,-75.5 113.5,-56.5 64.5,-56.5"/>
<text text-anchor="middle" x="89" y="-63.5" font-family="Helvetica,sans-Serif" font-size="10.00">string.h</text>
</a>
</g>
</g>
<!-- Node1&#45;&gt;Node3 -->
<g id="edge2" class="edge">
<title>Node1&#45;&gt;Node3</title>
<path fill="none" stroke="midnightblue" d="M133.25,-112.08C125.53,-104.22 114.1,-92.57 104.78,-83.08"/>
<polygon fill="midnightblue" stroke="midnightblue" points="107.09,-80.44 97.59,-75.75 102.1,-85.34 107.09,-80.44"/>
</g>
<!-- Node4 -->
<g id="node4" class="node">
<title>Node4</title>
<g id="a_node4"><a xlink:href="vi_8h.html" target="_top" xlink:title=" ">
<polygon fill="white" stroke="black" points="151,-0.5 151,-19.5 183,-19.5 183,-0.5 151,-0.5"/>
<text text-anchor="middle" x="167" y="-7.5" font-family="Helvetica,sans-Serif" font-size="10.00">vi.h</text>
</a>
</g>
</g>
<!-- Node1&#45;&gt;Node4 -->
<g id="edge3" class="edge">
<title>Node1&#45;&gt;Node4</title>
<path fill="none" stroke="midnightblue" d="M143.96,-112.37C148,-94.62 157.3,-53.67 162.77,-29.6"/>
<polygon fill="midnightblue" stroke="midnightblue" points="166.24,-30.12 165.05,-19.59 159.42,-28.57 166.24,-30.12"/>
</g>
<!-- Node5 -->
<g id="node5" class="node">
<title>Node5</title>
<g id="a_node5"><a xlink:href="conf_8h.html" target="_top" xlink:title=" ">
<polygon fill="white" stroke="black" points="170,-56.5 170,-75.5 214,-75.5 214,-56.5 170,-56.5"/>
<text text-anchor="middle" x="192" y="-63.5" font-family="Helvetica,sans-Serif" font-size="10.00">conf.h</text>
</a>
</g>
</g>
<!-- Node1&#45;&gt;Node5 -->
<g id="edge4" class="edge">
<title>Node1&#45;&gt;Node5</title>
<path fill="none" stroke="midnightblue" d="M150.26,-112.08C157.46,-104.3 168.11,-92.8 176.85,-83.37"/>
<polygon fill="midnightblue" stroke="midnightblue" points="179.67,-85.47 183.9,-75.75 174.53,-80.71 179.67,-85.47"/>
</g>
<!-- Node6 -->
<g id="node6" class="node">
<title>Node6</title>
<g id="a_node6"><a xlink:href="kmap_8h.html" target="_top" xlink:title=" ">
<polygon fill="white" stroke="black" points="232.5,-56.5 232.5,-75.5 281.5,-75.5 281.5,-56.5 232.5,-56.5"/>
<text text-anchor="middle" x="257" y="-63.5" font-family="Helvetica,sans-Serif" font-size="10.00">kmap.h</text>
</a>
</g>
</g>
<!-- Node1&#45;&gt;Node6 -->
<g id="edge6" class="edge">
<title>Node1&#45;&gt;Node6</title>
<path fill="none" stroke="midnightblue" d="M160.22,-112.44C178.9,-103.68 208.16,-89.94 229.62,-79.86"/>
<polygon fill="midnightblue" stroke="midnightblue" points="231.3,-82.93 238.86,-75.52 228.32,-76.6 231.3,-82.93"/>
</g>
<!-- Node5&#45;&gt;Node4 -->
<g id="edge5" class="edge">
<title>Node5&#45;&gt;Node4</title>
<path fill="none" stroke="midnightblue" d="M187.87,-56.08C184.49,-48.77 179.58,-38.18 175.38,-29.1"/>
<polygon fill="midnightblue" stroke="midnightblue" points="178.43,-27.36 171.05,-19.75 172.08,-30.3 178.43,-27.36"/>
</g>
</g>
</svg>
