<?xml version="1.0" encoding="UTF-8" standalone="no"?>
<!DOCTYPE svg PUBLIC "-//W3C//DTD SVG 1.1//EN"
 "http://www.w3.org/Graphics/SVG/1.1/DTD/svg11.dtd">
<!-- Generated by graphviz version 2.44.1 (20200629.0846)
 -->
<!-- Title: dir_match Pages: 1 -->
<svg width="761pt" height="265pt"
 viewBox="0.00 0.00 761.00 265.00" xmlns="http://www.w3.org/2000/svg" xmlns:xlink="http://www.w3.org/1999/xlink">
<g id="graph0" class="graph" transform="scale(1 1) rotate(0) translate(4 261)">
<title>dir_match</title>
<polygon fill="white" stroke="transparent" points="-4,4 -4,-261 757,-261 757,4 -4,4"/>
<!-- Node1 -->
<g id="node1" class="node">
<title>Node1</title>
<g id="a_node1"><a xlink:title=" ">
<polygon fill="#bfbfbf" stroke="black" points="0,-114.5 0,-133.5 59,-133.5 59,-114.5 0,-114.5"/>
<text text-anchor="middle" x="29.5" y="-121.5" font-family="Helvetica,sans-Serif" font-size="10.00">dir_match</text>
</a>
</g>
</g>
<!-- Node2 -->
<g id="node2" class="node">
<title>Node2</title>
<g id="a_node2"><a xlink:href="conf_8c.html#a3efe6ef9cd3bd043b3df1653265409f2" target="_top" xlink:title=" ">
<polygon fill="white" stroke="black" points="95,-228.5 95,-247.5 168,-247.5 168,-228.5 95,-228.5"/>
<text text-anchor="middle" x="131.5" y="-235.5" font-family="Helvetica,sans-Serif" font-size="10.00">conf_dirmark</text>
</a>
</g>
</g>
<!-- Node1&#45;&gt;Node2 -->
<g id="edge1" class="edge">
<title>Node1&#45;&gt;Node2</title>
<path fill="none" stroke="midnightblue" d="M35.1,-133.75C44.26,-152.34 66.4,-193.26 95,-219 96.48,-220.33 98.07,-221.6 99.73,-222.81"/>
<polygon fill="midnightblue" stroke="midnightblue" points="98.07,-225.9 108.39,-228.3 101.81,-219.99 98.07,-225.9"/>
</g>
<!-- Node3 -->
<g id="node3" class="node">
<title>Node3</title>
<g id="a_node3"><a xlink:href="rset_8c.html#a389ec5abca88adc048a058744f2373eb" target="_top" xlink:title=" ">
<polygon fill="white" stroke="black" points="104.5,-190.5 104.5,-209.5 158.5,-209.5 158.5,-190.5 104.5,-190.5"/>
<text text-anchor="middle" x="131.5" y="-197.5" font-family="Helvetica,sans-Serif" font-size="10.00">rset_find</text>
</a>
</g>
</g>
<!-- Node1&#45;&gt;Node3 -->
<g id="edge2" class="edge">
<title>Node1&#45;&gt;Node3</title>
<path fill="none" stroke="midnightblue" d="M39.96,-133.64C52.03,-145.64 73.9,-166.33 95,-181 97.11,-182.47 99.34,-183.9 101.63,-185.29"/>
<polygon fill="midnightblue" stroke="midnightblue" points="100.07,-188.43 110.49,-190.33 103.53,-182.34 100.07,-188.43"/>
</g>
<!-- Node14 -->
<g id="node14" class="node">
<title>Node14</title>
<g id="a_node14"><a xlink:href="sbuf_8c.html#a4e56760893d5a6797626743840c9adf2" target="_top" xlink:title=" ">
<polygon fill="white" stroke="black" points="104.5,-152.5 104.5,-171.5 158.5,-171.5 158.5,-152.5 104.5,-152.5"/>
<text text-anchor="middle" x="131.5" y="-159.5" font-family="Helvetica,sans-Serif" font-size="10.00">sbuf_buf</text>
</a>
</g>
</g>
<!-- Node1&#45;&gt;Node14 -->
<g id="edge16" class="edge">
<title>Node1&#45;&gt;Node14</title>
<path fill="none" stroke="midnightblue" d="M55.73,-133.59C67.81,-138.18 82.47,-143.75 95.6,-148.74"/>
<polygon fill="midnightblue" stroke="midnightblue" points="94.68,-152.13 105.27,-152.41 97.17,-145.59 94.68,-152.13"/>
</g>
<!-- Node16 -->
<g id="node16" class="node">
<title>Node16</title>
<g id="a_node16"><a xlink:href="sbuf_8c.html#a8c1a89868b1999663effb78b4f3fab32" target="_top" xlink:title=" ">
<polygon fill="white" stroke="black" points="103,-114.5 103,-133.5 160,-133.5 160,-114.5 103,-114.5"/>
<text text-anchor="middle" x="131.5" y="-121.5" font-family="Helvetica,sans-Serif" font-size="10.00">sbuf_free</text>
</a>
</g>
</g>
<!-- Node1&#45;&gt;Node16 -->
<g id="edge18" class="edge">
<title>Node1&#45;&gt;Node16</title>
<path fill="none" stroke="midnightblue" d="M59.16,-124C69.57,-124 81.49,-124 92.58,-124"/>
<polygon fill="midnightblue" stroke="midnightblue" points="92.87,-127.5 102.87,-124 92.87,-120.5 92.87,-127.5"/>
</g>
<!-- Node17 -->
<g id="node17" class="node">
<title>Node17</title>
<g id="a_node17"><a xlink:href="sbuf_8c.html#a57748585d6786a2c1aadc2cbe6f2135b" target="_top" xlink:title=" ">
<polygon fill="white" stroke="black" points="99,-76.5 99,-95.5 164,-95.5 164,-76.5 99,-76.5"/>
<text text-anchor="middle" x="131.5" y="-83.5" font-family="Helvetica,sans-Serif" font-size="10.00">sbuf_make</text>
</a>
</g>
</g>
<!-- Node1&#45;&gt;Node17 -->
<g id="edge19" class="edge">
<title>Node1&#45;&gt;Node17</title>
<path fill="none" stroke="midnightblue" d="M55.73,-114.41C67.81,-109.82 82.47,-104.25 95.6,-99.26"/>
<polygon fill="midnightblue" stroke="midnightblue" points="97.17,-102.41 105.27,-95.59 94.68,-95.87 97.17,-102.41"/>
</g>
<!-- Node18 -->
<g id="node18" class="node">
<title>Node18</title>
<g id="a_node18"><a xlink:href="sbuf_8c.html#aa511ac77d6b486accc01c0512ef27ed2" target="_top" xlink:title=" ">
<polygon fill="white" stroke="black" points="100.5,-38.5 100.5,-57.5 162.5,-57.5 162.5,-38.5 100.5,-38.5"/>
<text text-anchor="middle" x="131.5" y="-45.5" font-family="Helvetica,sans-Serif" font-size="10.00">sbuf_mem</text>
</a>
</g>
</g>
<!-- Node1&#45;&gt;Node18 -->
<g id="edge20" class="edge">
<title>Node1&#45;&gt;Node18</title>
<path fill="none" stroke="midnightblue" d="M39.96,-114.36C52.03,-102.36 73.9,-81.67 95,-67 97.11,-65.53 99.34,-64.1 101.63,-62.71"/>
<polygon fill="midnightblue" stroke="midnightblue" points="103.53,-65.66 110.49,-57.67 100.07,-59.57 103.53,-65.66"/>
</g>
<!-- Node19 -->
<g id="node19" class="node">
<title>Node19</title>
<g id="a_node19"><a xlink:href="uc_8c.html#a8334cbe4db5e54e19bf79b31f68d9eb8" target="_top" xlink:title=" ">
<polygon fill="white" stroke="black" points="109.5,-0.5 109.5,-19.5 153.5,-19.5 153.5,-0.5 109.5,-0.5"/>
<text text-anchor="middle" x="131.5" y="-7.5" font-family="Helvetica,sans-Serif" font-size="10.00">uc_off</text>
</a>
</g>
</g>
<!-- Node1&#45;&gt;Node19 -->
<g id="edge22" class="edge">
<title>Node1&#45;&gt;Node19</title>
<path fill="none" stroke="midnightblue" d="M35.1,-114.25C44.26,-95.66 66.4,-54.74 95,-29 96.73,-27.44 98.61,-25.97 100.58,-24.58"/>
<polygon fill="midnightblue" stroke="midnightblue" points="102.82,-27.31 109.5,-19.09 99.15,-21.35 102.82,-27.31"/>
</g>
<!-- Node4 -->
<g id="node4" class="node">
<title>Node4</title>
<g id="a_node4"><a xlink:href="regex_8c.html#aa085ccd05ec25e3f8053850aebc50fe3" target="_top" xlink:title=" ">
<polygon fill="white" stroke="black" points="213.5,-190.5 213.5,-209.5 264.5,-209.5 264.5,-190.5 213.5,-190.5"/>
<text text-anchor="middle" x="239" y="-197.5" font-family="Helvetica,sans-Serif" font-size="10.00">regexec</text>
</a>
</g>
</g>
<!-- Node3&#45;&gt;Node4 -->
<g id="edge3" class="edge">
<title>Node3&#45;&gt;Node4</title>
<path fill="none" stroke="midnightblue" d="M158.58,-200C172.03,-200 188.63,-200 203.16,-200"/>
<polygon fill="midnightblue" stroke="midnightblue" points="203.31,-203.5 213.31,-200 203.31,-196.5 203.31,-203.5"/>
</g>
<!-- Node5 -->
<g id="node5" class="node">
<title>Node5</title>
<g id="a_node5"><a xlink:href="regex_8c.html#aa5925e49bd18112bb37421dbde29162a" target="_top" xlink:title=" ">
<polygon fill="white" stroke="black" points="310,-182.5 310,-201.5 381,-201.5 381,-182.5 310,-182.5"/>
<text text-anchor="middle" x="345.5" y="-189.5" font-family="Helvetica,sans-Serif" font-size="10.00">re_recmatch</text>
</a>
</g>
</g>
<!-- Node4&#45;&gt;Node5 -->
<g id="edge4" class="edge">
<title>Node4&#45;&gt;Node5</title>
<path fill="none" stroke="midnightblue" d="M264.5,-198.12C275.06,-197.32 287.74,-196.34 299.87,-195.42"/>
<polygon fill="midnightblue" stroke="midnightblue" points="300.16,-198.9 309.87,-194.65 299.63,-191.93 300.16,-198.9"/>
</g>
<!-- Node11 -->
<g id="node11" class="node">
<title>Node11</title>
<g id="a_node11"><a xlink:href="regex_8c.html#a9a0d6d5f93f1eaba8b63b16903c0952d" target="_top" xlink:title=" ">
<polygon fill="white" stroke="black" points="706.5,-209.5 706.5,-228.5 751.5,-228.5 751.5,-209.5 706.5,-209.5"/>
<text text-anchor="middle" x="729" y="-216.5" font-family="Helvetica,sans-Serif" font-size="10.00">uc_len</text>
</a>
</g>
</g>
<!-- Node4&#45;&gt;Node11 -->
<g id="edge15" class="edge">
<title>Node4&#45;&gt;Node11</title>
<path fill="none" stroke="midnightblue" d="M259.42,-209.54C294.29,-225.77 370.21,-257 438,-257 438,-257 438,-257 535,-257 592.75,-257 658.42,-240.42 696.34,-229.16"/>
<polygon fill="midnightblue" stroke="midnightblue" points="697.73,-232.4 706.28,-226.15 695.69,-225.7 697.73,-232.4"/>
</g>
<!-- Node6 -->
<g id="node6" class="node">
<title>Node6</title>
<g id="a_node6"><a xlink:href="regex_8c.html#a8e35614ddf21d405773327a52a95a73d" target="_top" xlink:title=" ">
<polygon fill="white" stroke="black" points="417,-175.5 417,-194.5 461,-194.5 461,-175.5 417,-175.5"/>
<text text-anchor="middle" x="439" y="-182.5" font-family="Helvetica,sans-Serif" font-size="10.00">re_rec</text>
</a>
</g>
</g>
<!-- Node5&#45;&gt;Node6 -->
<g id="edge5" class="edge">
<title>Node5&#45;&gt;Node6</title>
<path fill="none" stroke="midnightblue" d="M381.09,-189.35C389.56,-188.71 398.57,-188.02 406.87,-187.38"/>
<polygon fill="midnightblue" stroke="midnightblue" points="407.19,-190.87 416.9,-186.61 406.66,-183.89 407.19,-190.87"/>
</g>
<!-- Node7 -->
<g id="node7" class="node">
<title>Node7</title>
<g id="a_node7"><a xlink:href="regex_8c.html#a24fd1fc7457ff4f03fb384f7170ac395" target="_top" xlink:title=" ">
<polygon fill="white" stroke="black" points="497,-147.5 497,-166.5 571,-166.5 571,-147.5 497,-147.5"/>
<text text-anchor="middle" x="534" y="-154.5" font-family="Helvetica,sans-Serif" font-size="10.00">ratom_match</text>
</a>
</g>
</g>
<!-- Node6&#45;&gt;Node7 -->
<g id="edge6" class="edge">
<title>Node6&#45;&gt;Node7</title>
<path fill="none" stroke="midnightblue" d="M461.1,-178.65C470.12,-175.93 480.97,-172.66 491.48,-169.5"/>
<polygon fill="midnightblue" stroke="midnightblue" points="492.82,-172.75 501.38,-166.52 490.8,-166.05 492.82,-172.75"/>
</g>
<!-- Node8 -->
<g id="node8" class="node">
<title>Node8</title>
<g id="a_node8"><a xlink:href="regex_8c.html#aae17ed73e84075718fb04d131d6ca779" target="_top" xlink:title=" ">
<polygon fill="white" stroke="black" points="607,-171.5 607,-190.5 669,-190.5 669,-171.5 607,-171.5"/>
<text text-anchor="middle" x="638" y="-178.5" font-family="Helvetica,sans-Serif" font-size="10.00">brk_match</text>
</a>
</g>
</g>
<!-- Node7&#45;&gt;Node8 -->
<g id="edge7" class="edge">
<title>Node7&#45;&gt;Node8</title>
<path fill="none" stroke="midnightblue" d="M571.25,-165.53C579.64,-167.5 588.62,-169.62 597.16,-171.63"/>
<polygon fill="midnightblue" stroke="midnightblue" points="596.39,-175.04 606.93,-173.92 597.99,-168.23 596.39,-175.04"/>
</g>
<!-- Node10 -->
<g id="node10" class="node">
<title>Node10</title>
<g id="a_node10"><a xlink:href="regex_8c.html#aaf73cdb88048e7f9fd588eb8d5aeb5a3" target="_top" xlink:title=" ">
<polygon fill="white" stroke="black" points="705,-133.5 705,-152.5 753,-152.5 753,-133.5 705,-133.5"/>
<text text-anchor="middle" x="729" y="-140.5" font-family="Helvetica,sans-Serif" font-size="10.00">uc_dec</text>
</a>
</g>
</g>
<!-- Node7&#45;&gt;Node10 -->
<g id="edge13" class="edge">
<title>Node7&#45;&gt;Node10</title>
<path fill="none" stroke="midnightblue" d="M571.3,-154.37C606.83,-151.79 660.48,-147.9 694.87,-145.4"/>
<polygon fill="midnightblue" stroke="midnightblue" points="695.17,-148.89 704.89,-144.68 694.66,-141.91 695.17,-148.89"/>
</g>
<!-- Node7&#45;&gt;Node11 -->
<g id="edge14" class="edge">
<title>Node7&#45;&gt;Node11</title>
<path fill="none" stroke="midnightblue" d="M547.51,-166.52C561.31,-176.52 584.55,-191.88 607,-200 636.22,-210.57 671.51,-215.26 696.41,-217.35"/>
<polygon fill="midnightblue" stroke="midnightblue" points="696.17,-220.84 706.4,-218.09 696.69,-213.86 696.17,-220.84"/>
</g>
<!-- Node12 -->
<g id="node12" class="node">
<title>Node12</title>
<g id="a_node12"><a xlink:href="regex_8c.html#a35ad3fd0dbb795e6f30404ce86a7be5b" target="_top" xlink:title=" ">
<polygon fill="white" stroke="black" points="615.5,-95.5 615.5,-114.5 660.5,-114.5 660.5,-95.5 615.5,-95.5"/>
<text text-anchor="middle" x="638" y="-102.5" font-family="Helvetica,sans-Serif" font-size="10.00">isword</text>
</a>
</g>
</g>
<!-- Node7&#45;&gt;Node12 -->
<g id="edge11" class="edge">
<title>Node7&#45;&gt;Node12</title>
<path fill="none" stroke="midnightblue" d="M553.71,-147.46C569.14,-139.6 591.27,-128.31 608.84,-119.35"/>
<polygon fill="midnightblue" stroke="midnightblue" points="610.75,-122.31 618.06,-114.65 607.57,-116.08 610.75,-122.31"/>
</g>
<!-- Node13 -->
<g id="node13" class="node">
<title>Node13</title>
<g id="a_node13"><a xlink:href="regex_8c.html#ade3e10606e6e8866e6151fe8440d6101" target="_top" xlink:title=" ">
<polygon fill="white" stroke="black" points="614,-57.5 614,-76.5 662,-76.5 662,-57.5 614,-57.5"/>
<text text-anchor="middle" x="638" y="-64.5" font-family="Helvetica,sans-Serif" font-size="10.00">uc_beg</text>
</a>
</g>
</g>
<!-- Node7&#45;&gt;Node13 -->
<g id="edge12" class="edge">
<title>Node7&#45;&gt;Node13</title>
<path fill="none" stroke="midnightblue" d="M543.73,-147.14C556.72,-132.77 582.26,-105.66 607,-86 608.56,-84.76 610.2,-83.54 611.88,-82.34"/>
<polygon fill="midnightblue" stroke="midnightblue" points="614.01,-85.12 620.37,-76.64 610.12,-79.3 614.01,-85.12"/>
</g>
<!-- Node9 -->
<g id="node9" class="node">
<title>Node9</title>
<g id="a_node9"><a xlink:href="regex_8c.html#acc18ff8d2687611a9e221b3329b02413" target="_top" xlink:title=" ">
<polygon fill="white" stroke="black" points="705,-171.5 705,-190.5 753,-190.5 753,-171.5 705,-171.5"/>
<text text-anchor="middle" x="729" y="-178.5" font-family="Helvetica,sans-Serif" font-size="10.00">brk_len</text>
</a>
</g>
</g>
<!-- Node8&#45;&gt;Node9 -->
<g id="edge8" class="edge">
<title>Node8&#45;&gt;Node9</title>
<path fill="none" stroke="midnightblue" d="M669.13,-181C677.36,-181 686.32,-181 694.71,-181"/>
<polygon fill="midnightblue" stroke="midnightblue" points="694.94,-184.5 704.94,-181 694.94,-177.5 694.94,-184.5"/>
</g>
<!-- Node8&#45;&gt;Node10 -->
<g id="edge9" class="edge">
<title>Node8&#45;&gt;Node10</title>
<path fill="none" stroke="midnightblue" d="M661.46,-171.41C672,-166.91 684.75,-161.47 696.25,-156.56"/>
<polygon fill="midnightblue" stroke="midnightblue" points="697.73,-159.73 705.55,-152.59 694.98,-153.29 697.73,-159.73"/>
</g>
<!-- Node8&#45;&gt;Node11 -->
<g id="edge10" class="edge">
<title>Node8&#45;&gt;Node11</title>
<path fill="none" stroke="midnightblue" d="M661.46,-190.59C672.24,-195.19 685.33,-200.78 697.04,-205.78"/>
<polygon fill="midnightblue" stroke="midnightblue" points="695.9,-209.1 706.47,-209.81 698.65,-202.66 695.9,-209.1"/>
</g>
<!-- Node15 -->
<g id="node15" class="node">
<title>Node15</title>
<g id="a_node15"><a xlink:href="sbuf_8c.html#a4ad75f3948c0340c342a3ea3eb63a6e6" target="_top" xlink:title=" ">
<polygon fill="white" stroke="black" points="204,-95.5 204,-114.5 274,-114.5 274,-95.5 204,-95.5"/>
<text text-anchor="middle" x="239" y="-102.5" font-family="Helvetica,sans-Serif" font-size="10.00">sbuf_extend</text>
</a>
</g>
</g>
<!-- Node14&#45;&gt;Node15 -->
<g id="edge17" class="edge">
<title>Node14&#45;&gt;Node15</title>
<path fill="none" stroke="midnightblue" d="M150.57,-152.35C156.16,-149.36 162.34,-146.05 168,-143 182.4,-135.24 198.44,-126.54 211.52,-119.42"/>
<polygon fill="midnightblue" stroke="midnightblue" points="213.36,-122.41 220.47,-114.56 210.01,-116.26 213.36,-122.41"/>
</g>
<!-- Node18&#45;&gt;Node15 -->
<g id="edge21" class="edge">
<title>Node18&#45;&gt;Node15</title>
<path fill="none" stroke="midnightblue" d="M150.57,-57.65C156.16,-60.64 162.34,-63.95 168,-67 182.4,-74.76 198.44,-83.46 211.52,-90.58"/>
<polygon fill="midnightblue" stroke="midnightblue" points="210.01,-93.74 220.47,-95.44 213.36,-87.59 210.01,-93.74"/>
</g>
<!-- Node20 -->
<g id="node20" class="node">
<title>Node20</title>
<g id="a_node20"><a xlink:href="uc_8c.html#a79c7c44c06c1febff5680c19667e2676" target="_top" xlink:title=" ">
<polygon fill="white" stroke="black" points="213.5,-0.5 213.5,-19.5 264.5,-19.5 264.5,-0.5 213.5,-0.5"/>
<text text-anchor="middle" x="239" y="-7.5" font-family="Helvetica,sans-Serif" font-size="10.00">uc_next</text>
</a>
</g>
</g>
<!-- Node19&#45;&gt;Node20 -->
<g id="edge23" class="edge">
<title>Node19&#45;&gt;Node20</title>
<path fill="none" stroke="midnightblue" d="M153.6,-10C167.7,-10 186.6,-10 202.94,-10"/>
<polygon fill="midnightblue" stroke="midnightblue" points="203.23,-13.5 213.23,-10 203.23,-6.5 203.23,-13.5"/>
</g>
<!-- Node21 -->
<g id="node21" class="node">
<title>Node21</title>
<g id="a_node21"><a xlink:href="uc_8c.html#a616e24870a58b86644c34ee077faca11" target="_top" xlink:title=" ">
<polygon fill="white" stroke="black" points="321.5,-0.5 321.5,-19.5 369.5,-19.5 369.5,-0.5 321.5,-0.5"/>
<text text-anchor="middle" x="345.5" y="-7.5" font-family="Helvetica,sans-Serif" font-size="10.00">uc_end</text>
</a>
</g>
</g>
<!-- Node20&#45;&gt;Node21 -->
<g id="edge24" class="edge">
<title>Node20&#45;&gt;Node21</title>
<path fill="none" stroke="midnightblue" d="M264.5,-10C278.42,-10 296.04,-10 311.2,-10"/>
<polygon fill="midnightblue" stroke="midnightblue" points="311.23,-13.5 321.23,-10 311.23,-6.5 311.23,-13.5"/>
</g>
</g>
</svg>
