<?xml version="1.0" encoding="UTF-8" standalone="no"?>
<!DOCTYPE svg PUBLIC "-//W3C//DTD SVG 1.1//EN"
 "http://www.w3.org/Graphics/SVG/1.1/DTD/svg11.dtd">
<!-- Generated by graphviz version 2.44.1 (20200629.0846)
 -->
<!-- Title: ex_region Pages: 1 -->
<svg width="1115pt" height="541pt"
 viewBox="0.00 0.00 1115.00 541.00" xmlns="http://www.w3.org/2000/svg" xmlns:xlink="http://www.w3.org/1999/xlink">
<g id="graph0" class="graph" transform="scale(1 1) rotate(0) translate(4 537)">
<title>ex_region</title>
<polygon fill="white" stroke="transparent" points="-4,4 -4,-537 1111,-537 1111,4 -4,4"/>
<!-- Node1 -->
<g id="node1" class="node">
<title>Node1</title>
<g id="a_node1"><a xlink:title=" ">
<polygon fill="#bfbfbf" stroke="black" points="0,-456.5 0,-475.5 59,-475.5 59,-456.5 0,-456.5"/>
<text text-anchor="middle" x="29.5" y="-463.5" font-family="Helvetica,sans-Serif" font-size="10.00">ex_region</text>
</a>
</g>
</g>
<!-- Node2 -->
<g id="node2" class="node">
<title>Node2</title>
<g id="a_node2"><a xlink:href="ex_8c.html#a18295939fcd9d9ef517157b0f4ff5f97" target="_top" xlink:title=" ">
<polygon fill="white" stroke="black" points="95,-475.5 95,-494.5 153,-494.5 153,-475.5 95,-475.5"/>
<text text-anchor="middle" x="124" y="-482.5" font-family="Helvetica,sans-Serif" font-size="10.00">ex_lineno</text>
</a>
</g>
</g>
<!-- Node1&#45;&gt;Node2 -->
<g id="edge1" class="edge">
<title>Node1&#45;&gt;Node2</title>
<path fill="none" stroke="midnightblue" d="M59.01,-471.86C67.17,-473.53 76.21,-475.39 84.85,-477.16"/>
<polygon fill="midnightblue" stroke="midnightblue" points="84.25,-480.61 94.75,-479.2 85.65,-473.76 84.25,-480.61"/>
</g>
<!-- Node10 -->
<g id="node10" class="node">
<title>Node10</title>
<g id="a_node10"><a xlink:href="lbuf_8c.html#ae74f0372b69451ac877a76505b05874f" target="_top" xlink:title=" ">
<polygon fill="white" stroke="black" points="294,-475.5 294,-494.5 344,-494.5 344,-475.5 294,-475.5"/>
<text text-anchor="middle" x="319" y="-482.5" font-family="Helvetica,sans-Serif" font-size="10.00">lbuf_len</text>
</a>
</g>
</g>
<!-- Node1&#45;&gt;Node10 -->
<g id="edge71" class="edge">
<title>Node1&#45;&gt;Node10</title>
<path fill="none" stroke="midnightblue" d="M59.24,-465.07C84.08,-464.49 120.94,-464.16 153,-466 198.33,-468.6 250.32,-475.19 283.63,-479.88"/>
<polygon fill="midnightblue" stroke="midnightblue" points="283.36,-483.38 293.75,-481.33 284.35,-476.45 283.36,-483.38"/>
</g>
<!-- Node3 -->
<g id="node3" class="node">
<title>Node3</title>
<g id="a_node3"><a xlink:href="ex_8c.html#af441de070082a23574854f6a2e5cd08a" target="_top" xlink:title=" ">
<polygon fill="white" stroke="black" points="189,-285.5 189,-304.5 251,-304.5 251,-285.5 189,-285.5"/>
<text text-anchor="middle" x="220" y="-292.5" font-family="Helvetica,sans-Serif" font-size="10.00">ex_search</text>
</a>
</g>
</g>
<!-- Node2&#45;&gt;Node3 -->
<g id="edge2" class="edge">
<title>Node2&#45;&gt;Node3</title>
<path fill="none" stroke="midnightblue" d="M129.79,-475.32C144.59,-445.4 189.77,-354.08 209.55,-314.09"/>
<polygon fill="midnightblue" stroke="midnightblue" points="212.81,-315.41 214.11,-304.89 206.53,-312.3 212.81,-315.41"/>
</g>
<!-- Node2&#45;&gt;Node10 -->
<g id="edge70" class="edge">
<title>Node2&#45;&gt;Node10</title>
<path fill="none" stroke="midnightblue" d="M153.06,-485C187.6,-485 246.25,-485 283.5,-485"/>
<polygon fill="midnightblue" stroke="midnightblue" points="283.87,-488.5 293.87,-485 283.87,-481.5 283.87,-488.5"/>
</g>
<!-- Node48 -->
<g id="node48" class="node">
<title>Node48</title>
<g id="a_node48"><a xlink:href="lbuf_8c.html#ac9a892e21c5462fdc7f48a7beee11618" target="_top" xlink:title=" ">
<polygon fill="white" stroke="black" points="190.5,-513.5 190.5,-532.5 249.5,-532.5 249.5,-513.5 190.5,-513.5"/>
<text text-anchor="middle" x="220" y="-520.5" font-family="Helvetica,sans-Serif" font-size="10.00">lbuf_jump</text>
</a>
</g>
</g>
<!-- Node2&#45;&gt;Node48 -->
<g id="edge68" class="edge">
<title>Node2&#45;&gt;Node48</title>
<path fill="none" stroke="midnightblue" d="M148.72,-494.59C159.96,-499.13 173.59,-504.64 185.83,-509.59"/>
<polygon fill="midnightblue" stroke="midnightblue" points="184.7,-512.91 195.29,-513.41 187.33,-506.42 184.7,-512.91"/>
</g>
<!-- Node4 -->
<g id="node4" class="node">
<title>Node4</title>
<g id="a_node4"><a xlink:href="ex_8c.html#a34fd1f4ef88c0e8d346dbcb9699e3762" target="_top" xlink:title=" ">
<polygon fill="white" stroke="black" points="294,-399.5 294,-418.5 344,-418.5 344,-399.5 294,-399.5"/>
<text text-anchor="middle" x="319" y="-406.5" font-family="Helvetica,sans-Serif" font-size="10.00">ex_kwd</text>
</a>
</g>
</g>
<!-- Node3&#45;&gt;Node4 -->
<g id="edge3" class="edge">
<title>Node3&#45;&gt;Node4</title>
<path fill="none" stroke="midnightblue" d="M225.9,-304.59C235.62,-322.91 258.82,-363.39 287,-390 288.26,-391.19 289.61,-392.35 291.01,-393.46"/>
<polygon fill="midnightblue" stroke="midnightblue" points="289.2,-396.46 299.4,-399.32 293.21,-390.72 289.2,-396.46"/>
</g>
<!-- Node5 -->
<g id="node5" class="node">
<title>Node5</title>
<g id="a_node5"><a xlink:href="ex_8c.html#aff6b33b5c383668577090507620d7b17" target="_top" xlink:title=" ">
<polygon fill="white" stroke="black" points="287,-361.5 287,-380.5 351,-380.5 351,-361.5 287,-361.5"/>
<text text-anchor="middle" x="319" y="-368.5" font-family="Helvetica,sans-Serif" font-size="10.00">ex_kwdset</text>
</a>
</g>
</g>
<!-- Node3&#45;&gt;Node5 -->
<g id="edge4" class="edge">
<title>Node3&#45;&gt;Node5</title>
<path fill="none" stroke="midnightblue" d="M231.31,-304.83C243.93,-316.66 266.22,-336.81 287,-352 288.82,-353.33 290.74,-354.66 292.69,-355.96"/>
<polygon fill="midnightblue" stroke="midnightblue" points="290.95,-359.01 301.27,-361.43 294.71,-353.1 290.95,-359.01"/>
</g>
<!-- Node9 -->
<g id="node9" class="node">
<title>Node9</title>
<g id="a_node9"><a xlink:href="lbuf_8c.html#ad0f45475ddc6eb82ecedf63ed1b914d4" target="_top" xlink:title=" ">
<polygon fill="white" stroke="black" points="293.5,-323.5 293.5,-342.5 344.5,-342.5 344.5,-323.5 293.5,-323.5"/>
<text text-anchor="middle" x="319" y="-330.5" font-family="Helvetica,sans-Serif" font-size="10.00">lbuf_get</text>
</a>
</g>
</g>
<!-- Node3&#45;&gt;Node9 -->
<g id="edge8" class="edge">
<title>Node3&#45;&gt;Node9</title>
<path fill="none" stroke="midnightblue" d="M245.48,-304.59C257.19,-309.18 271.42,-314.75 284.15,-319.74"/>
<polygon fill="midnightblue" stroke="midnightblue" points="282.94,-323.03 293.53,-323.41 285.5,-316.51 282.94,-323.03"/>
</g>
<!-- Node3&#45;&gt;Node10 -->
<g id="edge9" class="edge">
<title>Node3&#45;&gt;Node10</title>
<path fill="none" stroke="midnightblue" d="M222.48,-304.61C227.22,-332.48 244.22,-414.66 287,-466 287.96,-467.15 289.01,-468.25 290.12,-469.3"/>
<polygon fill="midnightblue" stroke="midnightblue" points="288.08,-472.15 298.13,-475.5 292.36,-466.61 288.08,-472.15"/>
</g>
<!-- Node11 -->
<g id="node11" class="node">
<title>Node11</title>
<g id="a_node11"><a xlink:href="rset_8c.html#a389ec5abca88adc048a058744f2373eb" target="_top" xlink:title=" ">
<polygon fill="white" stroke="black" points="292,-285.5 292,-304.5 346,-304.5 346,-285.5 292,-285.5"/>
<text text-anchor="middle" x="319" y="-292.5" font-family="Helvetica,sans-Serif" font-size="10.00">rset_find</text>
</a>
</g>
</g>
<!-- Node3&#45;&gt;Node11 -->
<g id="edge10" class="edge">
<title>Node3&#45;&gt;Node11</title>
<path fill="none" stroke="midnightblue" d="M251.16,-295C260.82,-295 271.62,-295 281.67,-295"/>
<polygon fill="midnightblue" stroke="midnightblue" points="281.79,-298.5 291.79,-295 281.79,-291.5 281.79,-298.5"/>
</g>
<!-- Node22 -->
<g id="node22" class="node">
<title>Node22</title>
<g id="a_node22"><a xlink:href="rset_8c.html#aa904e3bea523f18e4940e3a848abaaa1" target="_top" xlink:title=" ">
<polygon fill="white" stroke="black" points="291.5,-437.5 291.5,-456.5 346.5,-456.5 346.5,-437.5 291.5,-437.5"/>
<text text-anchor="middle" x="319" y="-444.5" font-family="Helvetica,sans-Serif" font-size="10.00">rset_free</text>
</a>
</g>
</g>
<!-- Node3&#45;&gt;Node22 -->
<g id="edge24" class="edge">
<title>Node3&#45;&gt;Node22</title>
<path fill="none" stroke="midnightblue" d="M223.77,-304.78C230.88,-328.38 251.69,-389.39 287,-428 288.04,-429.14 289.16,-430.23 290.34,-431.27"/>
<polygon fill="midnightblue" stroke="midnightblue" points="288.59,-434.33 298.7,-437.49 292.76,-428.71 288.59,-434.33"/>
</g>
<!-- Node24 -->
<g id="node24" class="node">
<title>Node24</title>
<g id="a_node24"><a xlink:href="rset_8c.html#a01a879f1a8002d2fb591b604b2ca3704" target="_top" xlink:title=" ">
<polygon fill="white" stroke="black" points="288,-152.5 288,-171.5 350,-171.5 350,-152.5 288,-152.5"/>
<text text-anchor="middle" x="319" y="-159.5" font-family="Helvetica,sans-Serif" font-size="10.00">rset_make</text>
</a>
</g>
</g>
<!-- Node3&#45;&gt;Node24 -->
<g id="edge26" class="edge">
<title>Node3&#45;&gt;Node24</title>
<path fill="none" stroke="midnightblue" d="M227.98,-285.43C244.05,-263.4 283.9,-208.76 304.77,-180.14"/>
<polygon fill="midnightblue" stroke="midnightblue" points="307.76,-181.98 310.83,-171.84 302.11,-177.85 307.76,-181.98"/>
</g>
<!-- Node40 -->
<g id="node40" class="node">
<title>Node40</title>
<g id="a_node40"><a xlink:href="sbuf_8c.html#a4e56760893d5a6797626743840c9adf2" target="_top" xlink:title=" ">
<polygon fill="white" stroke="black" points="399,-266.5 399,-285.5 453,-285.5 453,-266.5 399,-266.5"/>
<text text-anchor="middle" x="426" y="-273.5" font-family="Helvetica,sans-Serif" font-size="10.00">sbuf_buf</text>
</a>
</g>
</g>
<!-- Node3&#45;&gt;Node40 -->
<g id="edge63" class="edge">
<title>Node3&#45;&gt;Node40</title>
<path fill="none" stroke="midnightblue" d="M247.6,-285.5C259.49,-281.74 273.78,-277.87 287,-276 321.29,-271.16 360.85,-271.79 388.8,-273.25"/>
<polygon fill="midnightblue" stroke="midnightblue" points="388.72,-276.75 398.91,-273.84 389.13,-269.76 388.72,-276.75"/>
</g>
<!-- Node42 -->
<g id="node42" class="node">
<title>Node42</title>
<g id="a_node42"><a xlink:href="sbuf_8c.html#a3f9aa15ca1d73f585d7a4a9d023e58ce" target="_top" xlink:title=" ">
<polygon fill="white" stroke="black" points="399,-228.5 399,-247.5 453,-247.5 453,-228.5 399,-228.5"/>
<text text-anchor="middle" x="426" y="-235.5" font-family="Helvetica,sans-Serif" font-size="10.00">sbuf_chr</text>
</a>
</g>
</g>
<!-- Node3&#45;&gt;Node42 -->
<g id="edge64" class="edge">
<title>Node3&#45;&gt;Node42</title>
<path fill="none" stroke="midnightblue" d="M242.7,-285.47C255.43,-280.13 271.93,-273.63 287,-269 320.93,-258.58 360.53,-250.04 388.59,-244.58"/>
<polygon fill="midnightblue" stroke="midnightblue" points="389.58,-247.96 398.74,-242.65 388.26,-241.08 389.58,-247.96"/>
</g>
<!-- Node43 -->
<g id="node43" class="node">
<title>Node43</title>
<g id="a_node43"><a xlink:href="sbuf_8c.html#a8c1a89868b1999663effb78b4f3fab32" target="_top" xlink:title=" ">
<polygon fill="white" stroke="black" points="397.5,-76.5 397.5,-95.5 454.5,-95.5 454.5,-76.5 397.5,-76.5"/>
<text text-anchor="middle" x="426" y="-83.5" font-family="Helvetica,sans-Serif" font-size="10.00">sbuf_free</text>
</a>
</g>
</g>
<!-- Node3&#45;&gt;Node43 -->
<g id="edge65" class="edge">
<title>Node3&#45;&gt;Node43</title>
<path fill="none" stroke="midnightblue" d="M222.59,-285.4C227.42,-259.07 244.31,-184.93 287,-143 314.66,-115.83 357.12,-100.95 387.63,-93.27"/>
<polygon fill="midnightblue" stroke="midnightblue" points="388.56,-96.65 397.48,-90.94 386.94,-89.84 388.56,-96.65"/>
</g>
<!-- Node44 -->
<g id="node44" class="node">
<title>Node44</title>
<g id="a_node44"><a xlink:href="sbuf_8c.html#af4ad9608dfc956bbedc19df5c8256fc4" target="_top" xlink:title=" ">
<polygon fill="white" stroke="black" points="399.5,-38.5 399.5,-57.5 452.5,-57.5 452.5,-38.5 399.5,-38.5"/>
<text text-anchor="middle" x="426" y="-45.5" font-family="Helvetica,sans-Serif" font-size="10.00">sbuf_len</text>
</a>
</g>
</g>
<!-- Node3&#45;&gt;Node44 -->
<g id="edge66" class="edge">
<title>Node3&#45;&gt;Node44</title>
<path fill="none" stroke="midnightblue" d="M221.55,-285.11C223.79,-253.91 234.84,-156.48 287,-102 314.25,-73.53 358.3,-59.8 389.29,-53.36"/>
<polygon fill="midnightblue" stroke="midnightblue" points="390.09,-56.77 399.25,-51.44 388.77,-49.89 390.09,-56.77"/>
</g>
<!-- Node45 -->
<g id="node45" class="node">
<title>Node45</title>
<g id="a_node45"><a xlink:href="sbuf_8c.html#a57748585d6786a2c1aadc2cbe6f2135b" target="_top" xlink:title=" ">
<polygon fill="white" stroke="black" points="393.5,-0.5 393.5,-19.5 458.5,-19.5 458.5,-0.5 393.5,-0.5"/>
<text text-anchor="middle" x="426" y="-7.5" font-family="Helvetica,sans-Serif" font-size="10.00">sbuf_make</text>
</a>
</g>
</g>
<!-- Node3&#45;&gt;Node45 -->
<g id="edge67" class="edge">
<title>Node3&#45;&gt;Node45</title>
<path fill="none" stroke="midnightblue" d="M220.8,-285.05C220.64,-249.63 224.84,-128.28 287,-61 311.99,-33.95 352.62,-21.19 383.33,-15.21"/>
<polygon fill="midnightblue" stroke="midnightblue" points="384.1,-18.62 393.33,-13.43 382.87,-11.73 384.1,-18.62"/>
</g>
<!-- Node6 -->
<g id="node6" class="node">
<title>Node6</title>
<g id="a_node6"><a xlink:href="reg_8c.html#a4a1ad2201f6bc8ca5faf958f146883d5" target="_top" xlink:title=" ">
<polygon fill="white" stroke="black" points="401.5,-380.5 401.5,-399.5 450.5,-399.5 450.5,-380.5 401.5,-380.5"/>
<text text-anchor="middle" x="426" y="-387.5" font-family="Helvetica,sans-Serif" font-size="10.00">reg_put</text>
</a>
</g>
</g>
<!-- Node5&#45;&gt;Node6 -->
<g id="edge5" class="edge">
<title>Node5&#45;&gt;Node6</title>
<path fill="none" stroke="midnightblue" d="M351.22,-376.65C363.91,-378.95 378.59,-381.6 391.5,-383.94"/>
<polygon fill="midnightblue" stroke="midnightblue" points="390.94,-387.39 401.41,-385.73 392.19,-380.51 390.94,-387.39"/>
</g>
<!-- Node7 -->
<g id="node7" class="node">
<title>Node7</title>
<g id="a_node7"><a xlink:href="reg_8c.html#a6eaa41c69e0e22bcbb189eaf4ff0feae" target="_top" xlink:title=" ">
<polygon fill="white" stroke="black" points="512,-418.5 512,-437.5 561,-437.5 561,-418.5 512,-418.5"/>
<text text-anchor="middle" x="536.5" y="-425.5" font-family="Helvetica,sans-Serif" font-size="10.00">reg_get</text>
</a>
</g>
</g>
<!-- Node6&#45;&gt;Node7 -->
<g id="edge6" class="edge">
<title>Node6&#45;&gt;Node7</title>
<path fill="none" stroke="midnightblue" d="M450.54,-398.25C465.51,-403.49 485.13,-410.36 501.74,-416.18"/>
<polygon fill="midnightblue" stroke="midnightblue" points="501.03,-419.64 511.63,-419.64 503.35,-413.03 501.03,-419.64"/>
</g>
<!-- Node8 -->
<g id="node8" class="node">
<title>Node8</title>
<g id="a_node8"><a xlink:href="reg_8c.html#a7d863266d9fa9455f0ffa968f51d0ce3" target="_top" xlink:title=" ">
<polygon fill="white" stroke="black" points="504,-380.5 504,-399.5 569,-399.5 569,-380.5 504,-380.5"/>
<text text-anchor="middle" x="536.5" y="-387.5" font-family="Helvetica,sans-Serif" font-size="10.00">reg_putraw</text>
</a>
</g>
</g>
<!-- Node6&#45;&gt;Node8 -->
<g id="edge7" class="edge">
<title>Node6&#45;&gt;Node8</title>
<path fill="none" stroke="midnightblue" d="M450.54,-390C463.08,-390 478.88,-390 493.45,-390"/>
<polygon fill="midnightblue" stroke="midnightblue" points="493.77,-393.5 503.77,-390 493.77,-386.5 493.77,-393.5"/>
</g>
<!-- Node12 -->
<g id="node12" class="node">
<title>Node12</title>
<g id="a_node12"><a xlink:href="regex_8c.html#aa085ccd05ec25e3f8053850aebc50fe3" target="_top" xlink:title=" ">
<polygon fill="white" stroke="black" points="400.5,-304.5 400.5,-323.5 451.5,-323.5 451.5,-304.5 400.5,-304.5"/>
<text text-anchor="middle" x="426" y="-311.5" font-family="Helvetica,sans-Serif" font-size="10.00">regexec</text>
</a>
</g>
</g>
<!-- Node11&#45;&gt;Node12 -->
<g id="edge11" class="edge">
<title>Node11&#45;&gt;Node12</title>
<path fill="none" stroke="midnightblue" d="M346.23,-299.75C359.52,-302.15 375.84,-305.11 390.18,-307.7"/>
<polygon fill="midnightblue" stroke="midnightblue" points="389.73,-311.17 400.19,-309.51 390.97,-304.29 389.73,-311.17"/>
</g>
<!-- Node13 -->
<g id="node13" class="node">
<title>Node13</title>
<g id="a_node13"><a xlink:href="regex_8c.html#aa5925e49bd18112bb37421dbde29162a" target="_top" xlink:title=" ">
<polygon fill="white" stroke="black" points="501,-342.5 501,-361.5 572,-361.5 572,-342.5 501,-342.5"/>
<text text-anchor="middle" x="536.5" y="-349.5" font-family="Helvetica,sans-Serif" font-size="10.00">re_recmatch</text>
</a>
</g>
</g>
<!-- Node12&#45;&gt;Node13 -->
<g id="edge12" class="edge">
<title>Node12&#45;&gt;Node13</title>
<path fill="none" stroke="midnightblue" d="M451.62,-322.62C465.47,-327.47 483.03,-333.62 498.51,-339.04"/>
<polygon fill="midnightblue" stroke="midnightblue" points="497.72,-342.48 508.31,-342.48 500.03,-335.87 497.72,-342.48"/>
</g>
<!-- Node19 -->
<g id="node19" class="node">
<title>Node19</title>
<g id="a_node19"><a xlink:href="regex_8c.html#a9a0d6d5f93f1eaba8b63b16903c0952d" target="_top" xlink:title=" ">
<polygon fill="white" stroke="black" points="961,-323.5 961,-342.5 1006,-342.5 1006,-323.5 961,-323.5"/>
<text text-anchor="middle" x="983.5" y="-330.5" font-family="Helvetica,sans-Serif" font-size="10.00">uc_len</text>
</a>
</g>
</g>
<!-- Node12&#45;&gt;Node19 -->
<g id="edge23" class="edge">
<title>Node12&#45;&gt;Node19</title>
<path fill="none" stroke="midnightblue" d="M451.58,-314C492.88,-314 578.81,-314 651.5,-314 651.5,-314 651.5,-314 771,-314 835.1,-314 909.69,-322.76 950.95,-328.39"/>
<polygon fill="midnightblue" stroke="midnightblue" points="950.55,-331.87 960.94,-329.78 951.52,-324.93 950.55,-331.87"/>
</g>
<!-- Node14 -->
<g id="node14" class="node">
<title>Node14</title>
<g id="a_node14"><a xlink:href="regex_8c.html#a8e35614ddf21d405773327a52a95a73d" target="_top" xlink:title=" ">
<polygon fill="white" stroke="black" points="630.5,-380.5 630.5,-399.5 674.5,-399.5 674.5,-380.5 630.5,-380.5"/>
<text text-anchor="middle" x="652.5" y="-387.5" font-family="Helvetica,sans-Serif" font-size="10.00">re_rec</text>
</a>
</g>
</g>
<!-- Node13&#45;&gt;Node14 -->
<g id="edge13" class="edge">
<title>Node13&#45;&gt;Node14</title>
<path fill="none" stroke="midnightblue" d="M566.27,-361.59C582.76,-367.09 603.48,-373.99 620.36,-379.62"/>
<polygon fill="midnightblue" stroke="midnightblue" points="619.71,-383.09 630.3,-382.93 621.92,-376.45 619.71,-383.09"/>
</g>
<!-- Node15 -->
<g id="node15" class="node">
<title>Node15</title>
<g id="a_node15"><a xlink:href="regex_8c.html#a24fd1fc7457ff4f03fb384f7170ac395" target="_top" xlink:title=" ">
<polygon fill="white" stroke="black" points="733,-399.5 733,-418.5 807,-418.5 807,-399.5 733,-399.5"/>
<text text-anchor="middle" x="770" y="-406.5" font-family="Helvetica,sans-Serif" font-size="10.00">ratom_match</text>
</a>
</g>
</g>
<!-- Node14&#45;&gt;Node15 -->
<g id="edge14" class="edge">
<title>Node14&#45;&gt;Node15</title>
<path fill="none" stroke="midnightblue" d="M674.68,-393.48C688.17,-395.7 706.17,-398.66 722.83,-401.4"/>
<polygon fill="midnightblue" stroke="midnightblue" points="722.54,-404.9 732.97,-403.07 723.68,-398 722.54,-404.9"/>
</g>
<!-- Node16 -->
<g id="node16" class="node">
<title>Node16</title>
<g id="a_node16"><a xlink:href="regex_8c.html#aae17ed73e84075718fb04d131d6ca779" target="_top" xlink:title=" ">
<polygon fill="white" stroke="black" points="844.5,-380.5 844.5,-399.5 906.5,-399.5 906.5,-380.5 844.5,-380.5"/>
<text text-anchor="middle" x="875.5" y="-387.5" font-family="Helvetica,sans-Serif" font-size="10.00">brk_match</text>
</a>
</g>
</g>
<!-- Node15&#45;&gt;Node16 -->
<g id="edge15" class="edge">
<title>Node15&#45;&gt;Node16</title>
<path fill="none" stroke="midnightblue" d="M807.2,-402.35C816.01,-400.74 825.48,-399 834.46,-397.35"/>
<polygon fill="midnightblue" stroke="midnightblue" points="835.12,-400.79 844.32,-395.54 833.85,-393.9 835.12,-400.79"/>
</g>
<!-- Node18 -->
<g id="node18" class="node">
<title>Node18</title>
<g id="a_node18"><a xlink:href="regex_8c.html#aaf73cdb88048e7f9fd588eb8d5aeb5a3" target="_top" xlink:title=" ">
<polygon fill="white" stroke="black" points="959.5,-451.5 959.5,-470.5 1007.5,-470.5 1007.5,-451.5 959.5,-451.5"/>
<text text-anchor="middle" x="983.5" y="-458.5" font-family="Helvetica,sans-Serif" font-size="10.00">uc_dec</text>
</a>
</g>
</g>
<!-- Node15&#45;&gt;Node18 -->
<g id="edge21" class="edge">
<title>Node15&#45;&gt;Node18</title>
<path fill="none" stroke="midnightblue" d="M776.4,-418.56C786.73,-435.73 811.11,-471.28 843,-485 879.35,-500.63 925.16,-487.11 954.15,-474.92"/>
<polygon fill="midnightblue" stroke="midnightblue" points="955.93,-477.96 963.66,-470.71 953.1,-471.56 955.93,-477.96"/>
</g>
<!-- Node15&#45;&gt;Node19 -->
<g id="edge22" class="edge">
<title>Node15&#45;&gt;Node19</title>
<path fill="none" stroke="midnightblue" d="M786.82,-399.35C801.09,-390.96 822.88,-378.94 843,-371 878.98,-356.81 922.18,-345.93 950.88,-339.52"/>
<polygon fill="midnightblue" stroke="midnightblue" points="951.73,-342.92 960.76,-337.37 950.24,-336.08 951.73,-342.92"/>
</g>
<!-- Node20 -->
<g id="node20" class="node">
<title>Node20</title>
<g id="a_node20"><a xlink:href="regex_8c.html#a35ad3fd0dbb795e6f30404ce86a7be5b" target="_top" xlink:title=" ">
<polygon fill="white" stroke="black" points="853,-456.5 853,-475.5 898,-475.5 898,-456.5 853,-456.5"/>
<text text-anchor="middle" x="875.5" y="-463.5" font-family="Helvetica,sans-Serif" font-size="10.00">isword</text>
</a>
</g>
</g>
<!-- Node15&#45;&gt;Node20 -->
<g id="edge19" class="edge">
<title>Node15&#45;&gt;Node20</title>
<path fill="none" stroke="midnightblue" d="M788.56,-418.67C804.94,-427.69 829.59,-441.27 848.3,-451.57"/>
<polygon fill="midnightblue" stroke="midnightblue" points="846.75,-454.72 857.2,-456.47 850.13,-448.58 846.75,-454.72"/>
</g>
<!-- Node21 -->
<g id="node21" class="node">
<title>Node21</title>
<g id="a_node21"><a xlink:href="regex_8c.html#ade3e10606e6e8866e6151fe8440d6101" target="_top" xlink:title=" ">
<polygon fill="white" stroke="black" points="851.5,-418.5 851.5,-437.5 899.5,-437.5 899.5,-418.5 851.5,-418.5"/>
<text text-anchor="middle" x="875.5" y="-425.5" font-family="Helvetica,sans-Serif" font-size="10.00">uc_beg</text>
</a>
</g>
</g>
<!-- Node15&#45;&gt;Node21 -->
<g id="edge20" class="edge">
<title>Node15&#45;&gt;Node21</title>
<path fill="none" stroke="midnightblue" d="M807.2,-415.65C818.33,-417.69 830.52,-419.93 841.43,-421.93"/>
<polygon fill="midnightblue" stroke="midnightblue" points="840.96,-425.4 851.43,-423.76 842.22,-418.52 840.96,-425.4"/>
</g>
<!-- Node17 -->
<g id="node17" class="node">
<title>Node17</title>
<g id="a_node17"><a xlink:href="regex_8c.html#acc18ff8d2687611a9e221b3329b02413" target="_top" xlink:title=" ">
<polygon fill="white" stroke="black" points="1059,-327.5 1059,-346.5 1107,-346.5 1107,-327.5 1059,-327.5"/>
<text text-anchor="middle" x="1083" y="-334.5" font-family="Helvetica,sans-Serif" font-size="10.00">brk_len</text>
</a>
</g>
</g>
<!-- Node16&#45;&gt;Node17 -->
<g id="edge16" class="edge">
<title>Node16&#45;&gt;Node17</title>
<path fill="none" stroke="midnightblue" d="M906.82,-382.18C944.85,-372.37 1009.79,-355.62 1049.02,-345.51"/>
<polygon fill="midnightblue" stroke="midnightblue" points="1050.08,-348.85 1058.89,-342.96 1048.33,-342.07 1050.08,-348.85"/>
</g>
<!-- Node16&#45;&gt;Node18 -->
<g id="edge17" class="edge">
<title>Node16&#45;&gt;Node18</title>
<path fill="none" stroke="midnightblue" d="M892.98,-399.66C897.86,-402.59 903.18,-405.87 908,-409 926.07,-420.74 946.08,-434.76 960.8,-445.29"/>
<polygon fill="midnightblue" stroke="midnightblue" points="959.06,-448.34 969.22,-451.33 963.14,-442.66 959.06,-448.34"/>
</g>
<!-- Node16&#45;&gt;Node19 -->
<g id="edge18" class="edge">
<title>Node16&#45;&gt;Node19</title>
<path fill="none" stroke="midnightblue" d="M894.48,-380.33C911.33,-371.27 936.74,-357.61 955.93,-347.29"/>
<polygon fill="midnightblue" stroke="midnightblue" points="957.63,-350.35 964.78,-342.53 954.32,-344.18 957.63,-350.35"/>
</g>
<!-- Node23 -->
<g id="node23" class="node">
<title>Node23</title>
<g id="a_node23"><a xlink:href="regex_8c.html#ad94d0de532eaa4fd959b8adde4d64898" target="_top" xlink:title=" ">
<polygon fill="white" stroke="black" points="402.5,-437.5 402.5,-456.5 449.5,-456.5 449.5,-437.5 402.5,-437.5"/>
<text text-anchor="middle" x="426" y="-444.5" font-family="Helvetica,sans-Serif" font-size="10.00">regfree</text>
</a>
</g>
</g>
<!-- Node22&#45;&gt;Node23 -->
<g id="edge25" class="edge">
<title>Node22&#45;&gt;Node23</title>
<path fill="none" stroke="midnightblue" d="M346.77,-447C360.56,-447 377.49,-447 392.07,-447"/>
<polygon fill="midnightblue" stroke="midnightblue" points="392.2,-450.5 402.2,-447 392.2,-443.5 392.2,-450.5"/>
</g>
<!-- Node25 -->
<g id="node25" class="node">
<title>Node25</title>
<g id="a_node25"><a xlink:href="rset_8c.html#a8a35950ab3896c3d568af835385cc12f" target="_top" xlink:title=" ">
<polygon fill="white" stroke="black" points="387,-190.5 387,-209.5 465,-209.5 465,-190.5 387,-190.5"/>
<text text-anchor="middle" x="426" y="-197.5" font-family="Helvetica,sans-Serif" font-size="10.00">re_groupcount</text>
</a>
</g>
</g>
<!-- Node24&#45;&gt;Node25 -->
<g id="edge27" class="edge">
<title>Node24&#45;&gt;Node25</title>
<path fill="none" stroke="midnightblue" d="M346.5,-171.59C359.3,-176.22 374.88,-181.86 388.76,-186.89"/>
<polygon fill="midnightblue" stroke="midnightblue" points="387.92,-190.3 398.51,-190.41 390.3,-183.72 387.92,-190.3"/>
</g>
<!-- Node26 -->
<g id="node26" class="node">
<title>Node26</title>
<g id="a_node26"><a xlink:href="regex_8c.html#a5b590271eb220f4e019e76cfb950eb69" target="_top" xlink:title=" ">
<polygon fill="white" stroke="black" points="399,-114.5 399,-133.5 453,-133.5 453,-114.5 399,-114.5"/>
<text text-anchor="middle" x="426" y="-121.5" font-family="Helvetica,sans-Serif" font-size="10.00">regcomp</text>
</a>
</g>
</g>
<!-- Node24&#45;&gt;Node26 -->
<g id="edge28" class="edge">
<title>Node24&#45;&gt;Node26</title>
<path fill="none" stroke="midnightblue" d="M346.5,-152.41C359.4,-147.74 375.11,-142.05 389.08,-137"/>
<polygon fill="midnightblue" stroke="midnightblue" points="390.66,-140.15 398.88,-133.45 388.28,-133.57 390.66,-140.15"/>
</g>
<!-- Node24&#45;&gt;Node40 -->
<g id="edge53" class="edge">
<title>Node24&#45;&gt;Node40</title>
<path fill="none" stroke="midnightblue" d="M324.66,-171.53C334.14,-190.08 357.31,-231.48 387,-257 388.73,-258.48 390.59,-259.89 392.53,-261.21"/>
<polygon fill="midnightblue" stroke="midnightblue" points="390.98,-264.35 401.36,-266.45 394.55,-258.34 390.98,-264.35"/>
</g>
<!-- Node24&#45;&gt;Node42 -->
<g id="edge55" class="edge">
<title>Node24&#45;&gt;Node42</title>
<path fill="none" stroke="midnightblue" d="M329.83,-171.7C342.38,-183.76 365.09,-204.51 387,-219 389.42,-220.6 392,-222.16 394.62,-223.65"/>
<polygon fill="midnightblue" stroke="midnightblue" points="393.12,-226.81 403.59,-228.42 396.4,-220.63 393.12,-226.81"/>
</g>
<!-- Node24&#45;&gt;Node43 -->
<g id="edge57" class="edge">
<title>Node24&#45;&gt;Node43</title>
<path fill="none" stroke="midnightblue" d="M329.83,-152.3C342.38,-140.24 365.09,-119.49 387,-105 389.42,-103.4 392,-101.84 394.62,-100.35"/>
<polygon fill="midnightblue" stroke="midnightblue" points="396.4,-103.37 403.59,-95.58 393.12,-97.19 396.4,-103.37"/>
</g>
<!-- Node24&#45;&gt;Node44 -->
<g id="edge58" class="edge">
<title>Node24&#45;&gt;Node44</title>
<path fill="none" stroke="midnightblue" d="M324.66,-152.47C334.14,-133.92 357.31,-92.52 387,-67 388.73,-65.52 390.59,-64.11 392.53,-62.79"/>
<polygon fill="midnightblue" stroke="midnightblue" points="394.55,-65.66 401.36,-57.55 390.98,-59.65 394.55,-65.66"/>
</g>
<!-- Node24&#45;&gt;Node45 -->
<g id="edge59" class="edge">
<title>Node24&#45;&gt;Node45</title>
<path fill="none" stroke="midnightblue" d="M322.55,-152.38C329.28,-128.58 349.65,-66.24 387,-29 388.41,-27.59 389.95,-26.27 391.56,-25.04"/>
<polygon fill="midnightblue" stroke="midnightblue" points="393.63,-27.87 400.16,-19.53 389.85,-21.98 393.63,-27.87"/>
</g>
<!-- Node46 -->
<g id="node46" class="node">
<title>Node46</title>
<g id="a_node46"><a xlink:href="sbuf_8c.html#a603d1d6ab090025f5850f10bfa2dec7a" target="_top" xlink:title=" ">
<polygon fill="white" stroke="black" points="400,-152.5 400,-171.5 452,-171.5 452,-152.5 400,-152.5"/>
<text text-anchor="middle" x="426" y="-159.5" font-family="Helvetica,sans-Serif" font-size="10.00">sbuf_str</text>
</a>
</g>
</g>
<!-- Node24&#45;&gt;Node46 -->
<g id="edge60" class="edge">
<title>Node24&#45;&gt;Node46</title>
<path fill="none" stroke="midnightblue" d="M350.09,-162C362.4,-162 376.73,-162 389.54,-162"/>
<polygon fill="midnightblue" stroke="midnightblue" points="389.87,-165.5 399.87,-162 389.87,-158.5 389.87,-165.5"/>
</g>
<!-- Node27 -->
<g id="node27" class="node">
<title>Node27</title>
<g id="a_node27"><a xlink:href="regex_8c.html#ad3bbf549eef0fe517e9f213c5eadbb0c" target="_top" xlink:title=" ">
<polygon fill="white" stroke="black" points="743,-76.5 743,-95.5 797,-95.5 797,-76.5 743,-76.5"/>
<text text-anchor="middle" x="770" y="-83.5" font-family="Helvetica,sans-Serif" font-size="10.00">re_insert</text>
</a>
</g>
</g>
<!-- Node26&#45;&gt;Node27 -->
<g id="edge29" class="edge">
<title>Node26&#45;&gt;Node27</title>
<path fill="none" stroke="midnightblue" d="M453.17,-122.58C501.51,-119.75 608,-112.57 697,-100 708.68,-98.35 721.34,-96.06 732.73,-93.81"/>
<polygon fill="midnightblue" stroke="midnightblue" points="733.67,-97.19 742.78,-91.78 732.28,-90.33 733.67,-97.19"/>
</g>
<!-- Node28 -->
<g id="node28" class="node">
<title>Node28</title>
<g id="a_node28"><a xlink:href="regex_8c.html#ac00e60e2e4bce1edcd55ffa8b9086ac5" target="_top" xlink:title=" ">
<polygon fill="white" stroke="black" points="501.5,-38.5 501.5,-57.5 571.5,-57.5 571.5,-38.5 501.5,-38.5"/>
<text text-anchor="middle" x="536.5" y="-45.5" font-family="Helvetica,sans-Serif" font-size="10.00">rnode_count</text>
</a>
</g>
</g>
<!-- Node26&#45;&gt;Node28 -->
<g id="edge30" class="edge">
<title>Node26&#45;&gt;Node28</title>
<path fill="none" stroke="midnightblue" d="M449.47,-114.39C454.77,-111.69 460.26,-108.51 465,-105 483.69,-91.14 482.59,-81.23 501,-67 502.8,-65.61 504.72,-64.26 506.69,-62.96"/>
<polygon fill="midnightblue" stroke="midnightblue" points="508.74,-65.81 515.5,-57.65 505.13,-59.81 508.74,-65.81"/>
</g>
<!-- Node29 -->
<g id="node29" class="node">
<title>Node29</title>
<g id="a_node29"><a xlink:href="regex_8c.html#a7be1fd2247ffed1699d3be12c04fe9c6" target="_top" xlink:title=" ">
<polygon fill="white" stroke="black" points="504,-76.5 504,-95.5 569,-95.5 569,-76.5 504,-76.5"/>
<text text-anchor="middle" x="536.5" y="-83.5" font-family="Helvetica,sans-Serif" font-size="10.00">rnode_emit</text>
</a>
</g>
</g>
<!-- Node26&#45;&gt;Node29 -->
<g id="edge31" class="edge">
<title>Node26&#45;&gt;Node29</title>
<path fill="none" stroke="midnightblue" d="M453.26,-114.8C466.95,-110.01 483.91,-104.07 498.86,-98.83"/>
<polygon fill="midnightblue" stroke="midnightblue" points="500.06,-102.12 508.34,-95.51 497.75,-95.51 500.06,-102.12"/>
</g>
<!-- Node32 -->
<g id="node32" class="node">
<title>Node32</title>
<g id="a_node32"><a xlink:href="regex_8c.html#aabe89a3a22bc0fdc0329cf29ec80ad76" target="_top" xlink:title=" ">
<polygon fill="white" stroke="black" points="952.5,-76.5 952.5,-95.5 1014.5,-95.5 1014.5,-76.5 952.5,-76.5"/>
<text text-anchor="middle" x="983.5" y="-83.5" font-family="Helvetica,sans-Serif" font-size="10.00">rnode_free</text>
</a>
</g>
</g>
<!-- Node26&#45;&gt;Node32 -->
<g id="edge37" class="edge">
<title>Node26&#45;&gt;Node32</title>
<path fill="none" stroke="midnightblue" d="M452.31,-114.33C456.91,-111.78 461.39,-108.69 465,-105 491.15,-78.29 470.73,-50.93 501,-29 555.6,10.56 584.08,-10 651.5,-10 651.5,-10 651.5,-10 771,-10 842.58,-10 920.18,-49.03 958.42,-71.15"/>
<polygon fill="midnightblue" stroke="midnightblue" points="956.87,-74.3 967.26,-76.37 960.43,-68.27 956.87,-74.3"/>
</g>
<!-- Node33 -->
<g id="node33" class="node">
<title>Node33</title>
<g id="a_node33"><a xlink:href="regex_8c.html#ac19329676c1426f2b24af24e33e3a845" target="_top" xlink:title=" ">
<polygon fill="white" stroke="black" points="501.5,-152.5 501.5,-171.5 571.5,-171.5 571.5,-152.5 501.5,-152.5"/>
<text text-anchor="middle" x="536.5" y="-159.5" font-family="Helvetica,sans-Serif" font-size="10.00">rnode_parse</text>
</a>
</g>
</g>
<!-- Node26&#45;&gt;Node33 -->
<g id="edge38" class="edge">
<title>Node26&#45;&gt;Node33</title>
<path fill="none" stroke="midnightblue" d="M453.26,-133.2C466.95,-137.99 483.91,-143.93 498.86,-149.17"/>
<polygon fill="midnightblue" stroke="midnightblue" points="497.75,-152.49 508.34,-152.49 500.06,-145.88 497.75,-152.49"/>
</g>
<!-- Node29&#45;&gt;Node27 -->
<g id="edge32" class="edge">
<title>Node29&#45;&gt;Node27</title>
<path fill="none" stroke="midnightblue" d="M569.2,-86C611.85,-86 687.52,-86 732.5,-86"/>
<polygon fill="midnightblue" stroke="midnightblue" points="732.69,-89.5 742.69,-86 732.69,-82.5 732.69,-89.5"/>
</g>
<!-- Node30 -->
<g id="node30" class="node">
<title>Node30</title>
<g id="a_node30"><a xlink:href="regex_8c.html#afdf3c7adbb2060b793cf83c5312321c8" target="_top" xlink:title=" ">
<polygon fill="white" stroke="black" points="608,-38.5 608,-57.5 697,-57.5 697,-38.5 608,-38.5"/>
<text text-anchor="middle" x="652.5" y="-45.5" font-family="Helvetica,sans-Serif" font-size="10.00">rnode_emitnorep</text>
</a>
</g>
</g>
<!-- Node29&#45;&gt;Node30 -->
<g id="edge33" class="edge">
<title>Node29&#45;&gt;Node30</title>
<path fill="none" stroke="midnightblue" d="M552.4,-76.3C564.16,-70.93 581.31,-64.55 598.05,-59.08"/>
<polygon fill="midnightblue" stroke="midnightblue" points="599.35,-62.34 607.82,-55.98 597.23,-55.67 599.35,-62.34"/>
</g>
<!-- Node30&#45;&gt;Node27 -->
<g id="edge35" class="edge">
<title>Node30&#45;&gt;Node27</title>
<path fill="none" stroke="midnightblue" d="M682.65,-57.59C697.92,-62.61 716.77,-68.81 732.95,-74.14"/>
<polygon fill="midnightblue" stroke="midnightblue" points="732.04,-77.52 742.63,-77.32 734.22,-70.87 732.04,-77.52"/>
</g>
<!-- Node30&#45;&gt;Node29 -->
<g id="edge36" class="edge">
<title>Node30&#45;&gt;Node29</title>
<path fill="none" stroke="midnightblue" d="M636.87,-57.57C622.28,-64.26 599.18,-72.57 578.92,-78.71"/>
<polygon fill="midnightblue" stroke="midnightblue" points="577.87,-75.37 569.26,-81.54 579.84,-82.09 577.87,-75.37"/>
</g>
<!-- Node31 -->
<g id="node31" class="node">
<title>Node31</title>
<g id="a_node31"><a xlink:href="regex_8c.html#a71b5a38b3a51e761aaa959a89e7cae55" target="_top" xlink:title=" ">
<polygon fill="white" stroke="black" points="736,-38.5 736,-57.5 804,-57.5 804,-38.5 736,-38.5"/>
<text text-anchor="middle" x="770" y="-45.5" font-family="Helvetica,sans-Serif" font-size="10.00">ratom_copy</text>
</a>
</g>
</g>
<!-- Node30&#45;&gt;Node31 -->
<g id="edge34" class="edge">
<title>Node30&#45;&gt;Node31</title>
<path fill="none" stroke="midnightblue" d="M697.17,-48C706.45,-48 716.25,-48 725.52,-48"/>
<polygon fill="midnightblue" stroke="midnightblue" points="725.72,-51.5 735.72,-48 725.72,-44.5 725.72,-51.5"/>
</g>
<!-- Node34 -->
<g id="node34" class="node">
<title>Node34</title>
<g id="a_node34"><a xlink:href="regex_8c.html#a39869d385d8410ffb9d5bf74c778c6ce" target="_top" xlink:title=" ">
<polygon fill="white" stroke="black" points="948.5,-171.5 948.5,-190.5 1018.5,-190.5 1018.5,-171.5 948.5,-171.5"/>
<text text-anchor="middle" x="983.5" y="-178.5" font-family="Helvetica,sans-Serif" font-size="10.00">rnode_make</text>
</a>
</g>
</g>
<!-- Node33&#45;&gt;Node34 -->
<g id="edge39" class="edge">
<title>Node33&#45;&gt;Node34</title>
<path fill="none" stroke="midnightblue" d="M557.5,-171.65C562.43,-174.39 567.56,-177.57 572,-181 590.41,-195.23 586.63,-209.81 608,-219 726.2,-269.84 884.11,-220 950.73,-194.27"/>
<polygon fill="midnightblue" stroke="midnightblue" points="952.23,-197.44 960.25,-190.52 949.66,-190.93 952.23,-197.44"/>
</g>
<!-- Node35 -->
<g id="node35" class="node">
<title>Node35</title>
<g id="a_node35"><a xlink:href="regex_8c.html#abe0c1f4be43ac6d7caa4f95a560f823f" target="_top" xlink:title=" ">
<polygon fill="white" stroke="black" points="621.5,-190.5 621.5,-209.5 683.5,-209.5 683.5,-190.5 621.5,-190.5"/>
<text text-anchor="middle" x="652.5" y="-197.5" font-family="Helvetica,sans-Serif" font-size="10.00">rnode_seq</text>
</a>
</g>
</g>
<!-- Node33&#45;&gt;Node35 -->
<g id="edge40" class="edge">
<title>Node33&#45;&gt;Node35</title>
<path fill="none" stroke="midnightblue" d="M566.27,-171.59C580.44,-176.31 597.74,-182.08 613.03,-187.18"/>
<polygon fill="midnightblue" stroke="midnightblue" points="612.15,-190.57 622.74,-190.41 614.36,-183.93 612.15,-190.57"/>
</g>
<!-- Node35&#45;&gt;Node34 -->
<g id="edge52" class="edge">
<title>Node35&#45;&gt;Node34</title>
<path fill="none" stroke="midnightblue" d="M683.67,-198.46C731.33,-196 826.95,-190.95 908,-186 917.8,-185.4 928.31,-184.72 938.27,-184.06"/>
<polygon fill="midnightblue" stroke="midnightblue" points="938.64,-187.54 948.38,-183.38 938.17,-180.56 938.64,-187.54"/>
</g>
<!-- Node36 -->
<g id="node36" class="node">
<title>Node36</title>
<g id="a_node36"><a xlink:href="regex_8c.html#a0df57dc0ee1beb9018cdd537a58571aa" target="_top" xlink:title=" ">
<polygon fill="white" stroke="black" points="736,-152.5 736,-171.5 804,-171.5 804,-152.5 736,-152.5"/>
<text text-anchor="middle" x="770" y="-159.5" font-family="Helvetica,sans-Serif" font-size="10.00">rnode_atom</text>
</a>
</g>
</g>
<!-- Node35&#45;&gt;Node36 -->
<g id="edge41" class="edge">
<title>Node35&#45;&gt;Node36</title>
<path fill="none" stroke="midnightblue" d="M682.65,-190.41C697.01,-185.69 714.53,-179.92 730.03,-174.82"/>
<polygon fill="midnightblue" stroke="midnightblue" points="731.46,-178.04 739.86,-171.59 729.27,-171.39 731.46,-178.04"/>
</g>
<!-- Node36&#45;&gt;Node32 -->
<g id="edge46" class="edge">
<title>Node36&#45;&gt;Node32</title>
<path fill="none" stroke="midnightblue" d="M797.79,-152.37C835.45,-138.84 904.16,-114.15 946.33,-99"/>
<polygon fill="midnightblue" stroke="midnightblue" points="947.7,-102.22 955.93,-95.55 945.34,-95.64 947.7,-102.22"/>
</g>
<!-- Node36&#45;&gt;Node34 -->
<g id="edge51" class="edge">
<title>Node36&#45;&gt;Node34</title>
<path fill="none" stroke="midnightblue" d="M804.05,-164.97C840.17,-168.21 898.23,-173.43 938.27,-177.03"/>
<polygon fill="midnightblue" stroke="midnightblue" points="938.01,-180.52 948.28,-177.93 938.64,-173.55 938.01,-180.52"/>
</g>
<!-- Node37 -->
<g id="node37" class="node">
<title>Node37</title>
<g id="a_node37"><a xlink:href="regex_8c.html#a8b5ae269a79b320da8e87712e2051d1c" target="_top" xlink:title=" ">
<polygon fill="white" stroke="black" points="843,-266.5 843,-285.5 908,-285.5 908,-266.5 843,-266.5"/>
<text text-anchor="middle" x="875.5" y="-273.5" font-family="Helvetica,sans-Serif" font-size="10.00">ratom_read</text>
</a>
</g>
</g>
<!-- Node36&#45;&gt;Node37 -->
<g id="edge42" class="edge">
<title>Node36&#45;&gt;Node37</title>
<path fill="none" stroke="midnightblue" d="M779.82,-171.72C797.39,-191.07 836.94,-234.63 858.96,-258.88"/>
<polygon fill="midnightblue" stroke="midnightblue" points="856.38,-261.25 865.7,-266.31 861.57,-256.55 856.38,-261.25"/>
</g>
<!-- Node39 -->
<g id="node39" class="node">
<title>Node39</title>
<g id="a_node39"><a xlink:href="regex_8c.html#aaeda19c8b3704252a342cdcc7fc3591c" target="_top" xlink:title=" ">
<polygon fill="white" stroke="black" points="846,-76.5 846,-95.5 905,-95.5 905,-76.5 846,-76.5"/>
<text text-anchor="middle" x="875.5" y="-83.5" font-family="Helvetica,sans-Serif" font-size="10.00">rnode_grp</text>
</a>
</g>
</g>
<!-- Node36&#45;&gt;Node39 -->
<g id="edge47" class="edge">
<title>Node36&#45;&gt;Node39</title>
<path fill="none" stroke="midnightblue" d="M785.88,-152.43C792.43,-148.13 800.18,-142.92 807,-138 823.44,-126.15 826.94,-122.36 843,-110 846.49,-107.31 850.21,-104.46 853.83,-101.7"/>
<polygon fill="midnightblue" stroke="midnightblue" points="856.07,-104.39 861.91,-95.55 851.83,-98.82 856.07,-104.39"/>
</g>
<!-- Node37&#45;&gt;Node19 -->
<g id="edge45" class="edge">
<title>Node37&#45;&gt;Node19</title>
<path fill="none" stroke="midnightblue" d="M893.01,-285.62C906.59,-293.46 926.4,-304.71 944,-314 946.97,-315.57 950.08,-317.17 953.2,-318.75"/>
<polygon fill="midnightblue" stroke="midnightblue" points="951.9,-322.01 962.41,-323.34 955.03,-315.75 951.9,-322.01"/>
</g>
<!-- Node38 -->
<g id="node38" class="node">
<title>Node38</title>
<g id="a_node38"><a xlink:href="regex_8c.html#a1904288a4b4c7b7d0666c3d85d438e1a" target="_top" xlink:title=" ">
<polygon fill="white" stroke="black" points="944,-285.5 944,-304.5 1023,-304.5 1023,-285.5 944,-285.5"/>
<text text-anchor="middle" x="983.5" y="-292.5" font-family="Helvetica,sans-Serif" font-size="10.00">ratom_readbrk</text>
</a>
</g>
</g>
<!-- Node37&#45;&gt;Node38 -->
<g id="edge43" class="edge">
<title>Node37&#45;&gt;Node38</title>
<path fill="none" stroke="midnightblue" d="M908.02,-281.65C916.09,-283.1 924.96,-284.69 933.68,-286.25"/>
<polygon fill="midnightblue" stroke="midnightblue" points="933.33,-289.74 943.79,-288.06 934.56,-282.85 933.33,-289.74"/>
</g>
<!-- Node38&#45;&gt;Node17 -->
<g id="edge44" class="edge">
<title>Node38&#45;&gt;Node17</title>
<path fill="none" stroke="midnightblue" d="M1006.62,-304.53C1019.5,-310.08 1035.94,-317.16 1050.19,-323.3"/>
<polygon fill="midnightblue" stroke="midnightblue" points="1049.06,-326.62 1059.63,-327.36 1051.83,-320.19 1049.06,-326.62"/>
</g>
<!-- Node39&#45;&gt;Node32 -->
<g id="edge48" class="edge">
<title>Node39&#45;&gt;Node32</title>
<path fill="none" stroke="midnightblue" d="M905.19,-86C916.59,-86 929.9,-86 942.24,-86"/>
<polygon fill="midnightblue" stroke="midnightblue" points="942.31,-89.5 952.31,-86 942.31,-82.5 942.31,-89.5"/>
</g>
<!-- Node39&#45;&gt;Node33 -->
<g id="edge50" class="edge">
<title>Node39&#45;&gt;Node33</title>
<path fill="none" stroke="midnightblue" d="M845.71,-94.56C833.78,-97.98 819.77,-101.86 807,-105 728.04,-124.44 635.07,-143.2 581.54,-153.61"/>
<polygon fill="midnightblue" stroke="midnightblue" points="580.85,-150.18 571.7,-155.52 582.18,-157.05 580.85,-150.18"/>
</g>
<!-- Node39&#45;&gt;Node34 -->
<g id="edge49" class="edge">
<title>Node39&#45;&gt;Node34</title>
<path fill="none" stroke="midnightblue" d="M887.44,-95.81C905.55,-112.03 941.93,-144.64 964.06,-164.47"/>
<polygon fill="midnightblue" stroke="midnightblue" points="961.99,-167.32 971.77,-171.39 966.66,-162.11 961.99,-167.32"/>
</g>
<!-- Node41 -->
<g id="node41" class="node">
<title>Node41</title>
<g id="a_node41"><a xlink:href="sbuf_8c.html#a4ad75f3948c0340c342a3ea3eb63a6e6" target="_top" xlink:title=" ">
<polygon fill="white" stroke="black" points="617.5,-266.5 617.5,-285.5 687.5,-285.5 687.5,-266.5 617.5,-266.5"/>
<text text-anchor="middle" x="652.5" y="-273.5" font-family="Helvetica,sans-Serif" font-size="10.00">sbuf_extend</text>
</a>
</g>
</g>
<!-- Node40&#45;&gt;Node41 -->
<g id="edge54" class="edge">
<title>Node40&#45;&gt;Node41</title>
<path fill="none" stroke="midnightblue" d="M453.19,-276C490.96,-276 561.23,-276 607.17,-276"/>
<polygon fill="midnightblue" stroke="midnightblue" points="607.43,-279.5 617.43,-276 607.43,-272.5 607.43,-279.5"/>
</g>
<!-- Node42&#45;&gt;Node41 -->
<g id="edge56" class="edge">
<title>Node42&#45;&gt;Node41</title>
<path fill="none" stroke="midnightblue" d="M453.19,-242.43C491.04,-248.84 561.52,-260.77 607.46,-268.55"/>
<polygon fill="midnightblue" stroke="midnightblue" points="606.99,-272.02 617.43,-270.23 608.16,-265.11 606.99,-272.02"/>
</g>
<!-- Node47 -->
<g id="node47" class="node">
<title>Node47</title>
<g id="a_node47"><a xlink:href="sbuf_8c.html#aa511ac77d6b486accc01c0512ef27ed2" target="_top" xlink:title=" ">
<polygon fill="white" stroke="black" points="505.5,-190.5 505.5,-209.5 567.5,-209.5 567.5,-190.5 505.5,-190.5"/>
<text text-anchor="middle" x="536.5" y="-197.5" font-family="Helvetica,sans-Serif" font-size="10.00">sbuf_mem</text>
</a>
</g>
</g>
<!-- Node46&#45;&gt;Node47 -->
<g id="edge61" class="edge">
<title>Node46&#45;&gt;Node47</title>
<path fill="none" stroke="midnightblue" d="M452.16,-170.81C465.93,-175.63 483.24,-181.7 498.51,-187.04"/>
<polygon fill="midnightblue" stroke="midnightblue" points="497.6,-190.43 508.19,-190.44 499.91,-183.83 497.6,-190.43"/>
</g>
<!-- Node47&#45;&gt;Node41 -->
<g id="edge62" class="edge">
<title>Node47&#45;&gt;Node41</title>
<path fill="none" stroke="midnightblue" d="M551.72,-209.64C557.99,-213.96 565.42,-219.16 572,-224 588.33,-236.01 591.07,-240.85 608,-252 612.86,-255.2 618.18,-258.39 623.39,-261.34"/>
<polygon fill="midnightblue" stroke="midnightblue" points="622.04,-264.59 632.49,-266.35 625.42,-258.46 622.04,-264.59"/>
</g>
<!-- Node49 -->
<g id="node49" class="node">
<title>Node49</title>
<g id="a_node49"><a xlink:href="lbuf_8c.html#a69221917b521da2cd5f804a9f4694f1a" target="_top" xlink:title=" ">
<polygon fill="white" stroke="black" points="293.5,-513.5 293.5,-532.5 344.5,-532.5 344.5,-513.5 293.5,-513.5"/>
<text text-anchor="middle" x="319" y="-520.5" font-family="Helvetica,sans-Serif" font-size="10.00">markidx</text>
</a>
</g>
</g>
<!-- Node48&#45;&gt;Node49 -->
<g id="edge69" class="edge">
<title>Node48&#45;&gt;Node49</title>
<path fill="none" stroke="midnightblue" d="M249.58,-523C260.08,-523 272.09,-523 283.09,-523"/>
<polygon fill="midnightblue" stroke="midnightblue" points="283.24,-526.5 293.24,-523 283.24,-519.5 283.24,-526.5"/>
</g>
</g>
</svg>
