<?xml version="1.0" encoding="UTF-8" standalone="no"?>
<!DOCTYPE svg PUBLIC "-//W3C//DTD SVG 1.1//EN"
 "http://www.w3.org/Graphics/SVG/1.1/DTD/svg11.dtd">
<!-- Generated by graphviz version 2.44.1 (20200629.0846)
 -->
<!-- Title: ex_filetype Pages: 1 -->
<svg width="515pt" height="159pt"
 viewBox="0.00 0.00 515.00 159.11" xmlns="http://www.w3.org/2000/svg" xmlns:xlink="http://www.w3.org/1999/xlink">
<g id="graph0" class="graph" transform="scale(1 1) rotate(0) translate(4 155.11)">
<title>ex_filetype</title>
<polygon fill="white" stroke="transparent" points="-4,4 -4,-155.11 511,-155.11 511,4 -4,4"/>
<!-- Node1 -->
<g id="node1" class="node">
<title>Node1</title>
<g id="a_node1"><a xlink:title=" ">
<polygon fill="#bfbfbf" stroke="black" points="443,-85.5 443,-104.5 507,-104.5 507,-85.5 443,-85.5"/>
<text text-anchor="middle" x="475" y="-92.5" font-family="Helvetica,sans-Serif" font-size="10.00">ex_filetype</text>
</a>
</g>
</g>
<!-- Node2 -->
<g id="node2" class="node">
<title>Node2</title>
<g id="a_node2"><a xlink:href="ex_8c.html#a96a40531d1096a618d29639f2e42710b" target="_top" xlink:title=" ">
<polygon fill="white" stroke="black" points="363,-123.5 363,-142.5 401,-142.5 401,-123.5 363,-123.5"/>
<text text-anchor="middle" x="382" y="-130.5" font-family="Helvetica,sans-Serif" font-size="10.00">ec_ft</text>
</a>
</g>
</g>
<!-- Node1&#45;&gt;Node2 -->
<g id="edge1" class="edge">
<title>Node1&#45;&gt;Node2</title>
<path fill="none" stroke="midnightblue" d="M441.51,-108.57C427.91,-114.25 412.62,-120.63 401.08,-125.45"/>
<polygon fill="midnightblue" stroke="midnightblue" points="443.16,-111.67 451.04,-104.59 440.46,-105.21 443.16,-111.67"/>
</g>
<!-- Node3 -->
<g id="node3" class="node">
<title>Node3</title>
<g id="a_node3"><a xlink:href="vi_8c.html#af48ebb44cac26d2c52f0ada762be5bf6" target="_top" xlink:title=" ">
<polygon fill="white" stroke="black" points="255,-104.5 255,-123.5 321,-123.5 321,-104.5 255,-104.5"/>
<text text-anchor="middle" x="288" y="-111.5" font-family="Helvetica,sans-Serif" font-size="10.00">vi_drawrow</text>
</a>
</g>
</g>
<!-- Node1&#45;&gt;Node3 -->
<g id="edge2" class="edge">
<title>Node1&#45;&gt;Node3</title>
<path fill="none" stroke="midnightblue" d="M432.62,-99.25C398.94,-102.71 352.07,-107.52 321.16,-110.7"/>
<polygon fill="midnightblue" stroke="midnightblue" points="433.03,-102.73 442.62,-98.22 432.31,-95.76 433.03,-102.73"/>
</g>
<!-- Node8 -->
<g id="node8" class="node">
<title>Node8</title>
<g id="a_node8"><a xlink:href="vi_8c.html#a653f6b0359cef492e11f404c4bf469b9" target="_top" xlink:title=" ">
<polygon fill="white" stroke="black" points="357,-38.5 357,-57.5 407,-57.5 407,-38.5 357,-38.5"/>
<text text-anchor="middle" x="382" y="-45.5" font-family="Helvetica,sans-Serif" font-size="10.00">vi_input</text>
</a>
</g>
</g>
<!-- Node1&#45;&gt;Node8 -->
<g id="edge9" class="edge">
<title>Node1&#45;&gt;Node8</title>
<path fill="none" stroke="midnightblue" d="M446.55,-80.82C432.05,-73.34 414.63,-64.34 401.7,-57.66"/>
<polygon fill="midnightblue" stroke="midnightblue" points="445.09,-84.01 455.58,-85.49 448.31,-77.79 445.09,-84.01"/>
</g>
<!-- Node4 -->
<g id="node4" class="node">
<title>Node4</title>
<g id="a_node4"><a xlink:href="vi_8c.html#a8d808e0f3453afe6600673ee1ea5f828" target="_top" xlink:title=" ">
<polygon fill="white" stroke="black" points="74,-76.5 74,-95.5 103,-95.5 103,-76.5 74,-76.5"/>
<text text-anchor="middle" x="88.5" y="-83.5" font-family="Helvetica,sans-Serif" font-size="10.00">vi</text>
</a>
</g>
</g>
<!-- Node3&#45;&gt;Node4 -->
<g id="edge3" class="edge">
<title>Node3&#45;&gt;Node4</title>
<path fill="none" stroke="midnightblue" d="M261.15,-128.2C230.7,-142.9 179.2,-161.33 139,-143 117.53,-133.21 101.78,-109.01 94.32,-95.5"/>
<polygon fill="midnightblue" stroke="midnightblue" points="262.9,-131.24 270.25,-123.61 259.74,-124.99 262.9,-131.24"/>
</g>
<!-- Node6 -->
<g id="node6" class="node">
<title>Node6</title>
<g id="a_node6"><a xlink:href="vi_8c.html#a2b620fa68325e1b708f07af90f50c3d8" target="_top" xlink:title=" ">
<polygon fill="white" stroke="black" points="142,-114.5 142,-133.5 216,-133.5 216,-114.5 142,-114.5"/>
<text text-anchor="middle" x="179" y="-121.5" font-family="Helvetica,sans-Serif" font-size="10.00">vi_drawagain</text>
</a>
</g>
</g>
<!-- Node3&#45;&gt;Node6 -->
<g id="edge5" class="edge">
<title>Node3&#45;&gt;Node6</title>
<path fill="none" stroke="midnightblue" d="M244.87,-117.94C235.39,-118.82 225.41,-119.76 216.2,-120.62"/>
<polygon fill="midnightblue" stroke="midnightblue" points="245.27,-121.42 254.9,-117 244.61,-114.45 245.27,-121.42"/>
</g>
<!-- Node7 -->
<g id="node7" class="node">
<title>Node7</title>
<g id="a_node7"><a xlink:href="vi_8c.html#a9896bc9688f6102408f66aa0ad7e64f9" target="_top" xlink:title=" ">
<polygon fill="white" stroke="black" points="139,-76.5 139,-95.5 219,-95.5 219,-76.5 139,-76.5"/>
<text text-anchor="middle" x="179" y="-83.5" font-family="Helvetica,sans-Serif" font-size="10.00">vi_drawupdate</text>
</a>
</g>
</g>
<!-- Node3&#45;&gt;Node7 -->
<g id="edge7" class="edge">
<title>Node3&#45;&gt;Node7</title>
<path fill="none" stroke="midnightblue" d="M244.97,-103C235.59,-100.55 225.72,-97.96 216.58,-95.57"/>
<polygon fill="midnightblue" stroke="midnightblue" points="244.34,-106.45 254.9,-105.6 246.11,-99.68 244.34,-106.45"/>
</g>
<!-- Node5 -->
<g id="node5" class="node">
<title>Node5</title>
<g id="a_node5"><a xlink:href="vi_8c.html#a0ddf1224851353fc92bfbff6f499fa97" target="_top" xlink:title=" ">
<polygon fill="white" stroke="black" points="0,-76.5 0,-95.5 38,-95.5 38,-76.5 0,-76.5"/>
<text text-anchor="middle" x="19" y="-83.5" font-family="Helvetica,sans-Serif" font-size="10.00">main</text>
</a>
</g>
</g>
<!-- Node4&#45;&gt;Node5 -->
<g id="edge4" class="edge">
<title>Node4&#45;&gt;Node5</title>
<path fill="none" stroke="midnightblue" d="M63.58,-86C55.25,-86 46.04,-86 38.25,-86"/>
<polygon fill="midnightblue" stroke="midnightblue" points="63.84,-89.5 73.84,-86 63.84,-82.5 63.84,-89.5"/>
</g>
<!-- Node6&#45;&gt;Node4 -->
<g id="edge6" class="edge">
<title>Node6&#45;&gt;Node4</title>
<path fill="none" stroke="midnightblue" d="M146.27,-110.38C131.4,-103.99 114.47,-96.72 103,-91.8"/>
<polygon fill="midnightblue" stroke="midnightblue" points="145.1,-113.68 155.67,-114.41 147.86,-107.25 145.1,-113.68"/>
</g>
<!-- Node7&#45;&gt;Node4 -->
<g id="edge8" class="edge">
<title>Node7&#45;&gt;Node4</title>
<path fill="none" stroke="midnightblue" d="M128.7,-86C119.31,-86 110.23,-86 103.18,-86"/>
<polygon fill="midnightblue" stroke="midnightblue" points="128.93,-89.5 138.92,-86 128.92,-82.5 128.93,-89.5"/>
</g>
<!-- Node9 -->
<g id="node9" class="node">
<title>Node9</title>
<g id="a_node9"><a xlink:href="vi_8c.html#a8bb357a77ed61da8858f138c6fa672a6" target="_top" xlink:title=" ">
<polygon fill="white" stroke="black" points="260,-38.5 260,-57.5 316,-57.5 316,-38.5 260,-38.5"/>
<text text-anchor="middle" x="288" y="-45.5" font-family="Helvetica,sans-Serif" font-size="10.00">vc_insert</text>
</a>
</g>
</g>
<!-- Node8&#45;&gt;Node9 -->
<g id="edge10" class="edge">
<title>Node8&#45;&gt;Node9</title>
<path fill="none" stroke="midnightblue" d="M346.73,-48C336.67,-48 325.81,-48 316.26,-48"/>
<polygon fill="midnightblue" stroke="midnightblue" points="346.83,-51.5 356.83,-48 346.83,-44.5 346.83,-51.5"/>
</g>
<!-- Node10 -->
<g id="node10" class="node">
<title>Node10</title>
<g id="a_node10"><a xlink:href="vi_8c.html#ae37b094c3bb647d8c1a4ac4e858ce518" target="_top" xlink:title=" ">
<polygon fill="white" stroke="black" points="257.5,-0.5 257.5,-19.5 318.5,-19.5 318.5,-0.5 257.5,-0.5"/>
<text text-anchor="middle" x="288" y="-7.5" font-family="Helvetica,sans-Serif" font-size="10.00">vi_change</text>
</a>
</g>
</g>
<!-- Node8&#45;&gt;Node10 -->
<g id="edge12" class="edge">
<title>Node8&#45;&gt;Node10</title>
<path fill="none" stroke="midnightblue" d="M348.53,-34.59C336.54,-29.64 323.21,-24.13 312.21,-19.59"/>
<polygon fill="midnightblue" stroke="midnightblue" points="347.21,-37.83 357.78,-38.41 349.88,-31.36 347.21,-37.83"/>
</g>
<!-- Node9&#45;&gt;Node4 -->
<g id="edge11" class="edge">
<title>Node9&#45;&gt;Node4</title>
<path fill="none" stroke="midnightblue" d="M249.81,-50.3C219.6,-52.76 176.07,-57.65 139,-67 126.5,-70.15 112.87,-75.54 103.08,-79.77"/>
<polygon fill="midnightblue" stroke="midnightblue" points="250.2,-53.78 259.9,-49.53 249.67,-46.81 250.2,-53.78"/>
</g>
<!-- Node11 -->
<g id="node11" class="node">
<title>Node11</title>
<g id="a_node11"><a xlink:href="vi_8c.html#a06cbc6eb843436a0e77e07cbab0c4538" target="_top" xlink:title=" ">
<polygon fill="white" stroke="black" points="148,-0.5 148,-19.5 210,-19.5 210,-0.5 148,-0.5"/>
<text text-anchor="middle" x="179" y="-7.5" font-family="Helvetica,sans-Serif" font-size="10.00">vc_motion</text>
</a>
</g>
</g>
<!-- Node10&#45;&gt;Node11 -->
<g id="edge13" class="edge">
<title>Node10&#45;&gt;Node11</title>
<path fill="none" stroke="midnightblue" d="M247.44,-10C235.12,-10 221.74,-10 210.17,-10"/>
<polygon fill="midnightblue" stroke="midnightblue" points="247.48,-13.5 257.48,-10 247.48,-6.5 247.48,-13.5"/>
</g>
<!-- Node11&#45;&gt;Node4 -->
<g id="edge14" class="edge">
<title>Node11&#45;&gt;Node4</title>
<path fill="none" stroke="midnightblue" d="M151.55,-24.99C147.22,-27.8 142.89,-30.85 139,-34 122.73,-47.18 106.5,-65.46 97.26,-76.46"/>
<polygon fill="midnightblue" stroke="midnightblue" points="153.6,-27.83 160.27,-19.6 149.92,-21.88 153.6,-27.83"/>
</g>
</g>
</svg>
