<?xml version="1.0" encoding="UTF-8" standalone="no"?>
<!DOCTYPE svg PUBLIC "-//W3C//DTD SVG 1.1//EN"
 "http://www.w3.org/Graphics/SVG/1.1/DTD/svg11.dtd">
<!-- Generated by graphviz version 2.44.1 (20200629.0846)
 -->
<!-- Title: lbuf_loadmark Pages: 1 -->
<svg width="349pt" height="104pt"
 viewBox="0.00 0.00 349.00 104.00" xmlns="http://www.w3.org/2000/svg" xmlns:xlink="http://www.w3.org/1999/xlink">
<g id="graph0" class="graph" transform="scale(1 1) rotate(0) translate(4 100)">
<title>lbuf_loadmark</title>
<polygon fill="white" stroke="transparent" points="-4,4 -4,-100 345,-100 345,4 -4,4"/>
<!-- Node1 -->
<g id="node1" class="node">
<title>Node1</title>
<g id="a_node1"><a xlink:title=" ">
<polygon fill="#bfbfbf" stroke="black" points="264,-38.5 264,-57.5 341,-57.5 341,-38.5 264,-38.5"/>
<text text-anchor="middle" x="302.5" y="-45.5" font-family="Helvetica,sans-Serif" font-size="10.00">lbuf_loadmark</text>
</a>
</g>
</g>
<!-- Node2 -->
<g id="node2" class="node">
<title>Node2</title>
<g id="a_node2"><a xlink:href="vi_8h.html#a223f8c6109580a4e06c8f104ac1346ae" target="_top" xlink:title=" ">
<polygon fill="white" stroke="black" points="169,-38.5 169,-57.5 228,-57.5 228,-38.5 169,-38.5"/>
<text text-anchor="middle" x="198.5" y="-45.5" font-family="Helvetica,sans-Serif" font-size="10.00">lbuf_undo</text>
</a>
</g>
</g>
<!-- Node1&#45;&gt;Node2 -->
<g id="edge1" class="edge">
<title>Node1&#45;&gt;Node2</title>
<path fill="none" stroke="midnightblue" d="M253.67,-48C244.93,-48 236.06,-48 228.11,-48"/>
<polygon fill="midnightblue" stroke="midnightblue" points="253.81,-51.5 263.81,-48 253.81,-44.5 253.81,-51.5"/>
</g>
<!-- Node3 -->
<g id="node3" class="node">
<title>Node3</title>
<g id="a_node3"><a xlink:href="ex_8c.html#a0f6c94c34d1bc97a9051aceb7bda7ff0" target="_top" xlink:title=" ">
<polygon fill="white" stroke="black" points="77,-76.5 77,-95.5 130,-95.5 130,-76.5 77,-76.5"/>
<text text-anchor="middle" x="103.5" y="-83.5" font-family="Helvetica,sans-Serif" font-size="10.00">ec_undo</text>
</a>
</g>
</g>
<!-- Node2&#45;&gt;Node3 -->
<g id="edge2" class="edge">
<title>Node2&#45;&gt;Node3</title>
<path fill="none" stroke="midnightblue" d="M164.68,-61.41C152.56,-66.36 139.08,-71.87 127.96,-76.41"/>
<polygon fill="midnightblue" stroke="midnightblue" points="166.1,-64.61 174.03,-57.59 163.45,-58.13 166.1,-64.61"/>
</g>
<!-- Node4 -->
<g id="node4" class="node">
<title>Node4</title>
<g id="a_node4"><a xlink:href="ex_8c.html#a0d61b907b63c575f18728b9b166f2b16" target="_top" xlink:title=" ">
<polygon fill="white" stroke="black" points="74,-38.5 74,-57.5 133,-57.5 133,-38.5 74,-38.5"/>
<text text-anchor="middle" x="103.5" y="-45.5" font-family="Helvetica,sans-Serif" font-size="10.00">ec_undo1</text>
</a>
</g>
</g>
<!-- Node2&#45;&gt;Node4 -->
<g id="edge3" class="edge">
<title>Node2&#45;&gt;Node4</title>
<path fill="none" stroke="midnightblue" d="M158.69,-48C150.16,-48 141.28,-48 133.23,-48"/>
<polygon fill="midnightblue" stroke="midnightblue" points="158.84,-51.5 168.84,-48 158.84,-44.5 158.84,-51.5"/>
</g>
<!-- Node5 -->
<g id="node5" class="node">
<title>Node5</title>
<g id="a_node5"><a xlink:href="vi_8c.html#a8d808e0f3453afe6600673ee1ea5f828" target="_top" xlink:title=" ">
<polygon fill="white" stroke="black" points="89,-0.5 89,-19.5 118,-19.5 118,-0.5 89,-0.5"/>
<text text-anchor="middle" x="103.5" y="-7.5" font-family="Helvetica,sans-Serif" font-size="10.00">vi</text>
</a>
</g>
</g>
<!-- Node2&#45;&gt;Node5 -->
<g id="edge4" class="edge">
<title>Node2&#45;&gt;Node5</title>
<path fill="none" stroke="midnightblue" d="M164.48,-34.51C148.54,-28 130.29,-20.54 118.15,-15.58"/>
<polygon fill="midnightblue" stroke="midnightblue" points="163.45,-37.87 174.03,-38.41 166.1,-31.39 163.45,-37.87"/>
</g>
<!-- Node6 -->
<g id="node6" class="node">
<title>Node6</title>
<g id="a_node6"><a xlink:href="vi_8c.html#a0ddf1224851353fc92bfbff6f499fa97" target="_top" xlink:title=" ">
<polygon fill="white" stroke="black" points="0,-0.5 0,-19.5 38,-19.5 38,-0.5 0,-0.5"/>
<text text-anchor="middle" x="19" y="-7.5" font-family="Helvetica,sans-Serif" font-size="10.00">main</text>
</a>
</g>
</g>
<!-- Node5&#45;&gt;Node6 -->
<g id="edge5" class="edge">
<title>Node5&#45;&gt;Node6</title>
<path fill="none" stroke="midnightblue" d="M78.85,-10C65.95,-10 50.23,-10 38.28,-10"/>
<polygon fill="midnightblue" stroke="midnightblue" points="78.88,-13.5 88.88,-10 78.88,-6.5 78.88,-13.5"/>
</g>
</g>
</svg>
