<?xml version="1.0" encoding="UTF-8" standalone="no"?>
<!DOCTYPE svg PUBLIC "-//W3C//DTD SVG 1.1//EN"
 "http://www.w3.org/Graphics/SVG/1.1/DTD/svg11.dtd">
<!-- Generated by graphviz version 2.44.1 (20200629.0846)
 -->
<!-- Title: lbuf_seq Pages: 1 -->
<svg width="1026pt" height="256pt"
 viewBox="0.00 0.00 1026.00 256.00" xmlns="http://www.w3.org/2000/svg" xmlns:xlink="http://www.w3.org/1999/xlink">
<g id="graph0" class="graph" transform="scale(1 1) rotate(0) translate(4 252)">
<title>lbuf_seq</title>
<polygon fill="white" stroke="transparent" points="-4,4 -4,-252 1022,-252 1022,4 -4,4"/>
<!-- Node1 -->
<g id="node1" class="node">
<title>Node1</title>
<g id="a_node1"><a xlink:title=" ">
<polygon fill="#bfbfbf" stroke="black" points="965,-133.5 965,-152.5 1018,-152.5 1018,-133.5 965,-133.5"/>
<text text-anchor="middle" x="991.5" y="-140.5" font-family="Helvetica,sans-Serif" font-size="10.00">lbuf_seq</text>
</a>
</g>
</g>
<!-- Node2 -->
<g id="node2" class="node">
<title>Node2</title>
<g id="a_node2"><a xlink:href="vi_8h.html#a56119cc892be0598811f8f80d31a06d6" target="_top" xlink:title=" ">
<polygon fill="white" stroke="black" points="855,-114.5 855,-133.5 929,-133.5 929,-114.5 855,-114.5"/>
<text text-anchor="middle" x="892" y="-121.5" font-family="Helvetica,sans-Serif" font-size="10.00">lbuf_modified</text>
</a>
</g>
</g>
<!-- Node1&#45;&gt;Node2 -->
<g id="edge1" class="edge">
<title>Node1&#45;&gt;Node2</title>
<path fill="none" stroke="midnightblue" d="M954.96,-136.07C946.53,-134.43 937.53,-132.68 929.08,-131.03"/>
<polygon fill="midnightblue" stroke="midnightblue" points="954.4,-139.53 964.88,-138.01 955.74,-132.66 954.4,-139.53"/>
</g>
<!-- Node17 -->
<g id="node17" class="node">
<title>Node17</title>
<g id="a_node17"><a xlink:href="vi_8h.html#a4a117659191738c0d848ece365ab4f5d" target="_top" xlink:title=" ">
<polygon fill="white" stroke="black" points="755,-190.5 755,-209.5 819,-209.5 819,-190.5 755,-190.5"/>
<text text-anchor="middle" x="787" y="-197.5" font-family="Helvetica,sans-Serif" font-size="10.00">lbuf_saved</text>
</a>
</g>
</g>
<!-- Node1&#45;&gt;Node17 -->
<g id="edge29" class="edge">
<title>Node1&#45;&gt;Node17</title>
<path fill="none" stroke="midnightblue" d="M955.11,-152.96C916.64,-163.79 855.75,-180.93 819.07,-191.26"/>
<polygon fill="midnightblue" stroke="midnightblue" points="956.18,-156.3 964.85,-150.22 954.28,-149.56 956.18,-156.3"/>
</g>
<!-- Node3 -->
<g id="node3" class="node">
<title>Node3</title>
<g id="a_node3"><a xlink:href="ex_8c.html#a057b67e2d4f23df3ad50a9d3ec86125b" target="_top" xlink:title=" ">
<polygon fill="white" stroke="black" points="663,-114.5 663,-133.5 716,-133.5 716,-114.5 663,-114.5"/>
<text text-anchor="middle" x="689.5" y="-121.5" font-family="Helvetica,sans-Serif" font-size="10.00">ec_write</text>
</a>
</g>
</g>
<!-- Node2&#45;&gt;Node3 -->
<g id="edge2" class="edge">
<title>Node2&#45;&gt;Node3</title>
<path fill="none" stroke="midnightblue" d="M844.64,-124C804.65,-124 748.37,-124 716.05,-124"/>
<polygon fill="midnightblue" stroke="midnightblue" points="844.69,-127.5 854.69,-124 844.69,-120.5 844.69,-127.5"/>
</g>
<!-- Node4 -->
<g id="node4" class="node">
<title>Node4</title>
<g id="a_node4"><a xlink:href="ex_8c.html#ab0cb848a971a3b2c09fcb456d887dd6b" target="_top" xlink:title=" ">
<polygon fill="white" stroke="black" points="530,-152.5 530,-171.5 624,-171.5 624,-152.5 530,-152.5"/>
<text text-anchor="middle" x="577" y="-159.5" font-family="Helvetica,sans-Serif" font-size="10.00">ex_modifiedbuffer</text>
</a>
</g>
</g>
<!-- Node2&#45;&gt;Node4 -->
<g id="edge22" class="edge">
<title>Node2&#45;&gt;Node4</title>
<path fill="none" stroke="midnightblue" d="M844.96,-133.61C836.35,-135.22 827.42,-136.76 819,-138 751.6,-147.89 673,-154.87 624.36,-158.67"/>
<polygon fill="midnightblue" stroke="midnightblue" points="845.69,-137.03 854.85,-131.71 844.37,-130.16 845.69,-137.03"/>
</g>
<!-- Node12 -->
<g id="node12" class="node">
<title>Node12</title>
<g id="a_node12"><a xlink:href="vi_8h.html#aa75c73cccb4878ec06ea5bf5b1b02295" target="_top" xlink:title=" ">
<polygon fill="white" stroke="black" points="155,-76.5 155,-95.5 230,-95.5 230,-76.5 155,-76.5"/>
<text text-anchor="middle" x="192.5" y="-83.5" font-family="Helvetica,sans-Serif" font-size="10.00">ex_command</text>
</a>
</g>
</g>
<!-- Node2&#45;&gt;Node12 -->
<g id="edge21" class="edge">
<title>Node2&#45;&gt;Node12</title>
<path fill="none" stroke="midnightblue" d="M850.39,-111.68C810.18,-100.58 746.68,-86 690.5,-86 690.5,-86 690.5,-86 377.5,-86 326.39,-86 267.29,-86 230.16,-86"/>
<polygon fill="midnightblue" stroke="midnightblue" points="849.51,-115.07 860.09,-114.41 851.41,-108.33 849.51,-115.07"/>
</g>
<!-- Node14 -->
<g id="node14" class="node">
<title>Node14</title>
<g id="a_node14"><a xlink:href="vi_8c.html#a8d808e0f3453afe6600673ee1ea5f828" target="_top" xlink:title=" ">
<polygon fill="white" stroke="black" points="82,-38.5 82,-57.5 111,-57.5 111,-38.5 82,-38.5"/>
<text text-anchor="middle" x="96.5" y="-45.5" font-family="Helvetica,sans-Serif" font-size="10.00">vi</text>
</a>
</g>
</g>
<!-- Node2&#45;&gt;Node14 -->
<g id="edge28" class="edge">
<title>Node2&#45;&gt;Node14</title>
<path fill="none" stroke="midnightblue" d="M867.81,-108.87C831.55,-86.7 758.5,-48 690.5,-48 690.5,-48 690.5,-48 291.5,-48 223.8,-48 142.82,-48 111.14,-48"/>
<polygon fill="midnightblue" stroke="midnightblue" points="866.29,-112.04 876.62,-114.37 870,-106.11 866.29,-112.04"/>
</g>
<!-- Node2&#45;&gt;Node17 -->
<g id="edge23" class="edge">
<title>Node2&#45;&gt;Node17</title>
<path fill="none" stroke="midnightblue" d="M869.77,-139.67C849.06,-154.95 818.22,-177.7 800.94,-190.45"/>
<polygon fill="midnightblue" stroke="midnightblue" points="871.99,-142.38 877.95,-133.63 867.83,-136.75 871.99,-142.38"/>
</g>
<!-- Node18 -->
<g id="node18" class="node">
<title>Node18</title>
<g id="a_node18"><a xlink:href="vi_8c.html#ab7d24df5f19f55dae6f719cd5bcfbe6f" target="_top" xlink:title=" ">
<polygon fill="white" stroke="black" points="660,-0.5 660,-19.5 719,-19.5 719,-0.5 660,-0.5"/>
<text text-anchor="middle" x="689.5" y="-7.5" font-family="Helvetica,sans-Serif" font-size="10.00">vc_status</text>
</a>
</g>
</g>
<!-- Node2&#45;&gt;Node18 -->
<g id="edge26" class="edge">
<title>Node2&#45;&gt;Node18</title>
<path fill="none" stroke="midnightblue" d="M881.43,-105.34C869.69,-84.44 847.74,-51.24 819,-34 788.25,-15.55 746.51,-10.73 719.06,-9.75"/>
<polygon fill="midnightblue" stroke="midnightblue" points="878.4,-107.1 886.23,-114.23 884.56,-103.77 878.4,-107.1"/>
</g>
<!-- Node3&#45;&gt;Node4 -->
<g id="edge3" class="edge">
<title>Node3&#45;&gt;Node4</title>
<path fill="none" stroke="midnightblue" d="M653.2,-136.14C637.88,-141.41 620.18,-147.49 605.81,-152.44"/>
<polygon fill="midnightblue" stroke="midnightblue" points="654.55,-139.38 662.87,-132.81 652.28,-132.76 654.55,-139.38"/>
</g>
<!-- Node5 -->
<g id="node5" class="node">
<title>Node5</title>
<g id="a_node5"><a xlink:href="ex_8c.html#a8059390ad69866fa8e14bdb2521d4dc2" target="_top" xlink:title=" ">
<polygon fill="white" stroke="black" points="442,-228.5 442,-247.5 490,-247.5 490,-228.5 442,-228.5"/>
<text text-anchor="middle" x="466" y="-235.5" font-family="Helvetica,sans-Serif" font-size="10.00">ec_edit</text>
</a>
</g>
</g>
<!-- Node4&#45;&gt;Node5 -->
<g id="edge4" class="edge">
<title>Node4&#45;&gt;Node5</title>
<path fill="none" stroke="midnightblue" d="M553.82,-177.46C531.9,-192.75 499.06,-215.64 480.69,-228.45"/>
<polygon fill="midnightblue" stroke="midnightblue" points="555.99,-180.22 562.2,-171.63 551.99,-174.47 555.99,-180.22"/>
</g>
<!-- Node8 -->
<g id="node8" class="node">
<title>Node8</title>
<g id="a_node8"><a xlink:href="ex_8c.html#adcd83f163f659bd2596bcfc25d74bde9" target="_top" xlink:title=" ">
<polygon fill="white" stroke="black" points="439.5,-152.5 439.5,-171.5 492.5,-171.5 492.5,-152.5 439.5,-152.5"/>
<text text-anchor="middle" x="466" y="-159.5" font-family="Helvetica,sans-Serif" font-size="10.00">ec_exec</text>
</a>
</g>
</g>
<!-- Node4&#45;&gt;Node8 -->
<g id="edge7" class="edge">
<title>Node4&#45;&gt;Node8</title>
<path fill="none" stroke="midnightblue" d="M519.52,-162C510.06,-162 500.67,-162 492.51,-162"/>
<polygon fill="midnightblue" stroke="midnightblue" points="519.77,-165.5 529.77,-162 519.77,-158.5 519.77,-165.5"/>
</g>
<!-- Node15 -->
<g id="node15" class="node">
<title>Node15</title>
<g id="a_node15"><a xlink:href="ex_8c.html#aa69f426ff9728078fbb36f448c624a90" target="_top" xlink:title=" ">
<polygon fill="white" stroke="black" points="438,-190.5 438,-209.5 494,-209.5 494,-190.5 438,-190.5"/>
<text text-anchor="middle" x="466" y="-197.5" font-family="Helvetica,sans-Serif" font-size="10.00">ec_make</text>
</a>
</g>
</g>
<!-- Node4&#45;&gt;Node15 -->
<g id="edge18" class="edge">
<title>Node4&#45;&gt;Node15</title>
<path fill="none" stroke="midnightblue" d="M538.71,-175C524.08,-180.1 507.59,-185.85 494.12,-190.55"/>
<polygon fill="midnightblue" stroke="midnightblue" points="540.2,-178.19 548.49,-171.59 537.9,-171.58 540.2,-178.19"/>
</g>
<!-- Node16 -->
<g id="node16" class="node">
<title>Node16</title>
<g id="a_node16"><a xlink:href="ex_8c.html#a87eef446de152fad41ce88a9a343b87d" target="_top" xlink:title=" ">
<polygon fill="white" stroke="black" points="442,-114.5 442,-133.5 490,-133.5 490,-114.5 442,-114.5"/>
<text text-anchor="middle" x="466" y="-121.5" font-family="Helvetica,sans-Serif" font-size="10.00">ec_quit</text>
</a>
</g>
</g>
<!-- Node4&#45;&gt;Node16 -->
<g id="edge19" class="edge">
<title>Node4&#45;&gt;Node16</title>
<path fill="none" stroke="midnightblue" d="M538.79,-149.03C522.63,-143.39 504.21,-136.97 490.07,-132.04"/>
<polygon fill="midnightblue" stroke="midnightblue" points="537.9,-152.42 548.49,-152.41 540.2,-145.81 537.9,-152.42"/>
</g>
<!-- Node6 -->
<g id="node6" class="node">
<title>Node6</title>
<g id="a_node6"><a xlink:href="vi_8h.html#abe53b5c10f94f20cd5ed024371615fa1" target="_top" xlink:title=" ">
<polygon fill="white" stroke="black" points="74,-114.5 74,-133.5 119,-133.5 119,-114.5 74,-114.5"/>
<text text-anchor="middle" x="96.5" y="-121.5" font-family="Helvetica,sans-Serif" font-size="10.00">ex_init</text>
</a>
</g>
</g>
<!-- Node5&#45;&gt;Node6 -->
<g id="edge5" class="edge">
<title>Node5&#45;&gt;Node6</title>
<path fill="none" stroke="midnightblue" d="M431.45,-235.9C372.71,-231.13 248.63,-216.12 155,-171 135.49,-161.6 116.82,-144.29 106.29,-133.51"/>
<polygon fill="midnightblue" stroke="midnightblue" points="431.39,-239.41 441.63,-236.68 431.93,-232.43 431.39,-239.41"/>
</g>
<!-- Node7 -->
<g id="node7" class="node">
<title>Node7</title>
<g id="a_node7"><a xlink:href="vi_8c.html#a0ddf1224851353fc92bfbff6f499fa97" target="_top" xlink:title=" ">
<polygon fill="white" stroke="black" points="0,-76.5 0,-95.5 38,-95.5 38,-76.5 0,-76.5"/>
<text text-anchor="middle" x="19" y="-83.5" font-family="Helvetica,sans-Serif" font-size="10.00">main</text>
</a>
</g>
</g>
<!-- Node6&#45;&gt;Node7 -->
<g id="edge6" class="edge">
<title>Node6&#45;&gt;Node7</title>
<path fill="none" stroke="midnightblue" d="M67.4,-109.86C57.57,-104.91 46.79,-99.49 38.01,-95.06"/>
<polygon fill="midnightblue" stroke="midnightblue" points="65.94,-113.04 76.45,-114.41 69.09,-106.79 65.94,-113.04"/>
</g>
<!-- Node9 -->
<g id="node9" class="node">
<title>Node9</title>
<g id="a_node9"><a xlink:href="ex_8c.html#a7d848d20211b2e1c868dde98ec5dfae9" target="_top" xlink:title=" ">
<polygon fill="white" stroke="black" points="355,-152.5 355,-171.5 402,-171.5 402,-152.5 355,-152.5"/>
<text text-anchor="middle" x="378.5" y="-159.5" font-family="Helvetica,sans-Serif" font-size="10.00">ex_line</text>
</a>
</g>
</g>
<!-- Node8&#45;&gt;Node9 -->
<g id="edge8" class="edge">
<title>Node8&#45;&gt;Node9</title>
<path fill="none" stroke="midnightblue" d="M429.29,-162C420.13,-162 410.53,-162 402.23,-162"/>
<polygon fill="midnightblue" stroke="midnightblue" points="429.35,-165.5 439.35,-162 429.35,-158.5 429.35,-165.5"/>
</g>
<!-- Node10 -->
<g id="node10" class="node">
<title>Node10</title>
<g id="a_node10"><a xlink:href="ex_8c.html#ab15ebfef933256d9741128e2ddf3f9b5" target="_top" xlink:title=" ">
<polygon fill="white" stroke="black" points="266,-114.5 266,-133.5 319,-133.5 319,-114.5 266,-114.5"/>
<text text-anchor="middle" x="292.5" y="-121.5" font-family="Helvetica,sans-Serif" font-size="10.00">ex_exec</text>
</a>
</g>
</g>
<!-- Node9&#45;&gt;Node10 -->
<g id="edge9" class="edge">
<title>Node9&#45;&gt;Node10</title>
<path fill="none" stroke="midnightblue" d="M346.88,-148.15C336.19,-143.31 324.44,-138 314.69,-133.59"/>
<polygon fill="midnightblue" stroke="midnightblue" points="345.75,-151.48 356.3,-152.41 348.63,-145.1 345.75,-151.48"/>
</g>
<!-- Node11 -->
<g id="node11" class="node">
<title>Node11</title>
<g id="a_node11"><a xlink:href="ex_8c.html#a70c571bdde329a65e216c19b4aeaa628" target="_top" xlink:title=" ">
<polygon fill="white" stroke="black" points="167.5,-142.5 167.5,-161.5 217.5,-161.5 217.5,-142.5 167.5,-142.5"/>
<text text-anchor="middle" x="192.5" y="-149.5" font-family="Helvetica,sans-Serif" font-size="10.00">ec_glob</text>
</a>
</g>
</g>
<!-- Node10&#45;&gt;Node11 -->
<g id="edge10" class="edge">
<title>Node10&#45;&gt;Node11</title>
<path fill="none" stroke="midnightblue" d="M255.93,-134.16C243.24,-137.79 229.24,-141.79 217.73,-145.08"/>
<polygon fill="midnightblue" stroke="midnightblue" points="257.1,-137.47 265.75,-131.36 255.17,-130.74 257.1,-137.47"/>
</g>
<!-- Node10&#45;&gt;Node12 -->
<g id="edge12" class="edge">
<title>Node10&#45;&gt;Node12</title>
<path fill="none" stroke="midnightblue" d="M257.29,-110.74C244.43,-105.75 230.06,-100.18 218.22,-95.59"/>
<polygon fill="midnightblue" stroke="midnightblue" points="256.18,-114.06 266.77,-114.41 258.71,-107.53 256.18,-114.06"/>
</g>
<!-- Node11&#45;&gt;Node9 -->
<g id="edge11" class="edge">
<title>Node11&#45;&gt;Node9</title>
<path fill="none" stroke="midnightblue" d="M228.06,-153.88C265.22,-155.9 323.23,-159.05 354.94,-160.77"/>
<polygon fill="midnightblue" stroke="midnightblue" points="227.88,-150.36 217.71,-153.32 227.5,-157.35 227.88,-150.36"/>
</g>
<!-- Node12&#45;&gt;Node6 -->
<g id="edge15" class="edge">
<title>Node12&#45;&gt;Node6</title>
<path fill="none" stroke="midnightblue" d="M158.25,-99.44C145.31,-104.67 130.85,-110.52 119.28,-115.2"/>
<polygon fill="midnightblue" stroke="midnightblue" points="159.82,-102.58 167.78,-95.59 157.2,-96.09 159.82,-102.58"/>
</g>
<!-- Node13 -->
<g id="node13" class="node">
<title>Node13</title>
<g id="a_node13"><a xlink:href="vi_8h.html#ac395e51f25330a6e6033b6d0d22b2076" target="_top" xlink:title=" ">
<polygon fill="white" stroke="black" points="82,-76.5 82,-95.5 111,-95.5 111,-76.5 82,-76.5"/>
<text text-anchor="middle" x="96.5" y="-83.5" font-family="Helvetica,sans-Serif" font-size="10.00">ex</text>
</a>
</g>
</g>
<!-- Node12&#45;&gt;Node13 -->
<g id="edge13" class="edge">
<title>Node12&#45;&gt;Node13</title>
<path fill="none" stroke="midnightblue" d="M144.73,-86C132.54,-86 120.33,-86 111.38,-86"/>
<polygon fill="midnightblue" stroke="midnightblue" points="144.89,-89.5 154.89,-86 144.89,-82.5 144.89,-89.5"/>
</g>
<!-- Node12&#45;&gt;Node14 -->
<g id="edge16" class="edge">
<title>Node12&#45;&gt;Node14</title>
<path fill="none" stroke="midnightblue" d="M158.07,-72.48C141.85,-65.93 123.28,-58.42 111.02,-53.47"/>
<polygon fill="midnightblue" stroke="midnightblue" points="157.2,-75.91 167.78,-76.41 159.82,-69.42 157.2,-75.91"/>
</g>
<!-- Node13&#45;&gt;Node7 -->
<g id="edge14" class="edge">
<title>Node13&#45;&gt;Node7</title>
<path fill="none" stroke="midnightblue" d="M71.55,-86C60.69,-86 48.07,-86 38.04,-86"/>
<polygon fill="midnightblue" stroke="midnightblue" points="71.65,-89.5 81.65,-86 71.65,-82.5 71.65,-89.5"/>
</g>
<!-- Node14&#45;&gt;Node7 -->
<g id="edge17" class="edge">
<title>Node14&#45;&gt;Node7</title>
<path fill="none" stroke="midnightblue" d="M72.56,-59.55C61.48,-65.12 48.39,-71.71 38.04,-76.92"/>
<polygon fill="midnightblue" stroke="midnightblue" points="74.29,-62.59 81.65,-54.97 71.15,-56.34 74.29,-62.59"/>
</g>
<!-- Node16&#45;&gt;Node3 -->
<g id="edge20" class="edge">
<title>Node16&#45;&gt;Node3</title>
<path fill="none" stroke="midnightblue" d="M500.27,-124C544.68,-124 622.38,-124 662.66,-124"/>
<polygon fill="midnightblue" stroke="midnightblue" points="500,-120.5 490,-124 500,-127.5 500,-120.5"/>
</g>
<!-- Node17&#45;&gt;Node3 -->
<g id="edge25" class="edge">
<title>Node17&#45;&gt;Node3</title>
<path fill="none" stroke="midnightblue" d="M766.06,-184.13C746.85,-168.85 718.45,-146.24 702.5,-133.55"/>
<polygon fill="midnightblue" stroke="midnightblue" points="763.9,-186.89 773.9,-190.37 768.26,-181.41 763.9,-186.89"/>
</g>
<!-- Node17&#45;&gt;Node5 -->
<g id="edge24" class="edge">
<title>Node17&#45;&gt;Node5</title>
<path fill="none" stroke="midnightblue" d="M744.51,-204.94C676.6,-213.03 543.91,-228.84 490.3,-235.22"/>
<polygon fill="midnightblue" stroke="midnightblue" points="745.32,-208.37 754.83,-203.71 744.49,-201.42 745.32,-208.37"/>
</g>
<!-- Node18&#45;&gt;Node14 -->
<g id="edge27" class="edge">
<title>Node18&#45;&gt;Node14</title>
<path fill="none" stroke="midnightblue" d="M649.8,-10C605.59,-10 531.08,-10 467,-10 467,-10 467,-10 291.5,-10 222.86,-10 143.06,-33.19 111.43,-43.34"/>
<polygon fill="midnightblue" stroke="midnightblue" points="649.83,-13.5 659.83,-10 649.83,-6.5 649.83,-13.5"/>
</g>
</g>
</svg>
