<?xml version="1.0" encoding="UTF-8" standalone="no"?>
<!DOCTYPE svg PUBLIC "-//W3C//DTD SVG 1.1//EN"
 "http://www.w3.org/Graphics/SVG/1.1/DTD/svg11.dtd">
<!-- Generated by graphviz version 2.44.1 (20200629.0846)
 -->
<!-- Title: lbuf_cp Pages: 1 -->
<svg width="361pt" height="104pt"
 viewBox="0.00 0.00 361.00 104.00" xmlns="http://www.w3.org/2000/svg" xmlns:xlink="http://www.w3.org/1999/xlink">
<g id="graph0" class="graph" transform="scale(1 1) rotate(0) translate(4 100)">
<title>lbuf_cp</title>
<polygon fill="white" stroke="transparent" points="-4,4 -4,-100 357,-100 357,4 -4,4"/>
<!-- Node1 -->
<g id="node1" class="node">
<title>Node1</title>
<g id="a_node1"><a xlink:title=" ">
<polygon fill="#bfbfbf" stroke="black" points="0,-38.5 0,-57.5 48,-57.5 48,-38.5 0,-38.5"/>
<text text-anchor="middle" x="24" y="-45.5" font-family="Helvetica,sans-Serif" font-size="10.00">lbuf_cp</text>
</a>
</g>
</g>
<!-- Node2 -->
<g id="node2" class="node">
<title>Node2</title>
<g id="a_node2"><a xlink:href="sbuf_8c.html#a7bf14d501d36ce36ee269d77cf2c3fc6" target="_top" xlink:title=" ">
<polygon fill="white" stroke="black" points="85.5,-76.5 85.5,-95.5 147.5,-95.5 147.5,-76.5 85.5,-76.5"/>
<text text-anchor="middle" x="116.5" y="-83.5" font-family="Helvetica,sans-Serif" font-size="10.00">sbuf_done</text>
</a>
</g>
</g>
<!-- Node1&#45;&gt;Node2 -->
<g id="edge1" class="edge">
<title>Node1&#45;&gt;Node2</title>
<path fill="none" stroke="midnightblue" d="M47.84,-57.59C58.56,-62.09 71.52,-67.53 83.22,-72.44"/>
<polygon fill="midnightblue" stroke="midnightblue" points="82.1,-75.77 92.67,-76.41 84.81,-69.32 82.1,-75.77"/>
</g>
<!-- Node5 -->
<g id="node5" class="node">
<title>Node5</title>
<g id="a_node5"><a xlink:href="sbuf_8c.html#a57748585d6786a2c1aadc2cbe6f2135b" target="_top" xlink:title=" ">
<polygon fill="white" stroke="black" points="84,-38.5 84,-57.5 149,-57.5 149,-38.5 84,-38.5"/>
<text text-anchor="middle" x="116.5" y="-45.5" font-family="Helvetica,sans-Serif" font-size="10.00">sbuf_make</text>
</a>
</g>
</g>
<!-- Node1&#45;&gt;Node5 -->
<g id="edge4" class="edge">
<title>Node1&#45;&gt;Node5</title>
<path fill="none" stroke="midnightblue" d="M48.31,-48C56.06,-48 64.95,-48 73.67,-48"/>
<polygon fill="midnightblue" stroke="midnightblue" points="73.75,-51.5 83.75,-48 73.75,-44.5 73.75,-51.5"/>
</g>
<!-- Node6 -->
<g id="node6" class="node">
<title>Node6</title>
<g id="a_node6"><a xlink:href="sbuf_8c.html#a603d1d6ab090025f5850f10bfa2dec7a" target="_top" xlink:title=" ">
<polygon fill="white" stroke="black" points="90.5,-0.5 90.5,-19.5 142.5,-19.5 142.5,-0.5 90.5,-0.5"/>
<text text-anchor="middle" x="116.5" y="-7.5" font-family="Helvetica,sans-Serif" font-size="10.00">sbuf_str</text>
</a>
</g>
</g>
<!-- Node1&#45;&gt;Node6 -->
<g id="edge5" class="edge">
<title>Node1&#45;&gt;Node6</title>
<path fill="none" stroke="midnightblue" d="M47.84,-38.41C58.56,-33.91 71.52,-28.47 83.22,-23.56"/>
<polygon fill="midnightblue" stroke="midnightblue" points="84.81,-26.68 92.67,-19.59 82.1,-20.23 84.81,-26.68"/>
</g>
<!-- Node3 -->
<g id="node3" class="node">
<title>Node3</title>
<g id="a_node3"><a xlink:href="sbuf_8c.html#a4e56760893d5a6797626743840c9adf2" target="_top" xlink:title=" ">
<polygon fill="white" stroke="black" points="189,-66.5 189,-85.5 243,-85.5 243,-66.5 189,-66.5"/>
<text text-anchor="middle" x="216" y="-73.5" font-family="Helvetica,sans-Serif" font-size="10.00">sbuf_buf</text>
</a>
</g>
</g>
<!-- Node2&#45;&gt;Node3 -->
<g id="edge2" class="edge">
<title>Node2&#45;&gt;Node3</title>
<path fill="none" stroke="midnightblue" d="M147.55,-82.92C157.45,-81.9 168.57,-80.76 178.88,-79.7"/>
<polygon fill="midnightblue" stroke="midnightblue" points="179.25,-83.19 188.84,-78.68 178.54,-76.22 179.25,-83.19"/>
</g>
<!-- Node4 -->
<g id="node4" class="node">
<title>Node4</title>
<g id="a_node4"><a xlink:href="sbuf_8c.html#a4ad75f3948c0340c342a3ea3eb63a6e6" target="_top" xlink:title=" ">
<polygon fill="white" stroke="black" points="283,-38.5 283,-57.5 353,-57.5 353,-38.5 283,-38.5"/>
<text text-anchor="middle" x="318" y="-45.5" font-family="Helvetica,sans-Serif" font-size="10.00">sbuf_extend</text>
</a>
</g>
</g>
<!-- Node3&#45;&gt;Node4 -->
<g id="edge3" class="edge">
<title>Node3&#45;&gt;Node4</title>
<path fill="none" stroke="midnightblue" d="M243.01,-68.72C252.22,-66.14 262.85,-63.16 273.14,-60.28"/>
<polygon fill="midnightblue" stroke="midnightblue" points="274.14,-63.64 282.83,-57.57 272.25,-56.89 274.14,-63.64"/>
</g>
<!-- Node7 -->
<g id="node7" class="node">
<title>Node7</title>
<g id="a_node7"><a xlink:href="sbuf_8c.html#aa511ac77d6b486accc01c0512ef27ed2" target="_top" xlink:title=" ">
<polygon fill="white" stroke="black" points="185,-19.5 185,-38.5 247,-38.5 247,-19.5 185,-19.5"/>
<text text-anchor="middle" x="216" y="-26.5" font-family="Helvetica,sans-Serif" font-size="10.00">sbuf_mem</text>
</a>
</g>
</g>
<!-- Node6&#45;&gt;Node7 -->
<g id="edge6" class="edge">
<title>Node6&#45;&gt;Node7</title>
<path fill="none" stroke="midnightblue" d="M142.61,-14.89C152.36,-16.79 163.77,-19.02 174.61,-21.13"/>
<polygon fill="midnightblue" stroke="midnightblue" points="174.28,-24.63 184.76,-23.11 175.62,-17.76 174.28,-24.63"/>
</g>
<!-- Node7&#45;&gt;Node4 -->
<g id="edge7" class="edge">
<title>Node7&#45;&gt;Node4</title>
<path fill="none" stroke="midnightblue" d="M247,-34.7C255.11,-36.24 264.05,-37.94 272.76,-39.59"/>
<polygon fill="midnightblue" stroke="midnightblue" points="272.33,-43.08 282.81,-41.5 273.64,-36.2 272.33,-43.08"/>
</g>
</g>
</svg>
