<?xml version="1.0" encoding="UTF-8" standalone="no"?>
<!DOCTYPE svg PUBLIC "-//W3C//DTD SVG 1.1//EN"
 "http://www.w3.org/Graphics/SVG/1.1/DTD/svg11.dtd">
<!-- Generated by graphviz version 2.44.1 (20200629.0846)
 -->
<!-- Title: lbuf_replace Pages: 1 -->
<svg width="747pt" height="776pt"
 viewBox="0.00 0.00 747.00 776.43" xmlns="http://www.w3.org/2000/svg" xmlns:xlink="http://www.w3.org/1999/xlink">
<g id="graph0" class="graph" transform="scale(1 1) rotate(0) translate(4 772.43)">
<title>lbuf_replace</title>
<polygon fill="white" stroke="transparent" points="-4,4 -4,-772.43 743,-772.43 743,4 -4,4"/>
<!-- Node1 -->
<g id="node1" class="node">
<title>Node1</title>
<g id="a_node1"><a xlink:title=" ">
<polygon fill="#bfbfbf" stroke="black" points="670,-124.5 670,-143.5 739,-143.5 739,-124.5 670,-124.5"/>
<text text-anchor="middle" x="704.5" y="-131.5" font-family="Helvetica,sans-Serif" font-size="10.00">lbuf_replace</text>
</a>
</g>
</g>
<!-- Node2 -->
<g id="node2" class="node">
<title>Node2</title>
<g id="a_node2"><a xlink:href="vi_8h.html#ace23fcf99b4a5bb0e4da7bfbeb292a7d" target="_top" xlink:title=" ">
<polygon fill="white" stroke="black" points="578,-456.5 578,-475.5 631,-475.5 631,-456.5 578,-456.5"/>
<text text-anchor="middle" x="604.5" y="-463.5" font-family="Helvetica,sans-Serif" font-size="10.00">lbuf_edit</text>
</a>
</g>
</g>
<!-- Node1&#45;&gt;Node2 -->
<g id="edge1" class="edge">
<title>Node1&#45;&gt;Node2</title>
<path fill="none" stroke="midnightblue" d="M697.79,-153.33C679.36,-215.8 621.8,-410.76 608.34,-456.38"/>
<polygon fill="midnightblue" stroke="midnightblue" points="701.2,-154.16 700.67,-143.58 694.48,-152.18 701.2,-154.16"/>
</g>
<!-- Node29 -->
<g id="node29" class="node">
<title>Node29</title>
<g id="a_node29"><a xlink:href="vi_8h.html#ae61371650c4ebd59ce9f51b82a4f334b" target="_top" xlink:title=" ">
<polygon fill="white" stroke="black" points="576.5,-124.5 576.5,-143.5 632.5,-143.5 632.5,-124.5 576.5,-124.5"/>
<text text-anchor="middle" x="604.5" y="-131.5" font-family="Helvetica,sans-Serif" font-size="10.00">lbuf_redo</text>
</a>
</g>
</g>
<!-- Node1&#45;&gt;Node29 -->
<g id="edge42" class="edge">
<title>Node1&#45;&gt;Node29</title>
<path fill="none" stroke="midnightblue" d="M659.63,-134C650.5,-134 641.13,-134 632.8,-134"/>
<polygon fill="midnightblue" stroke="midnightblue" points="659.77,-137.5 669.77,-134 659.77,-130.5 659.77,-137.5"/>
</g>
<!-- Node31 -->
<g id="node31" class="node">
<title>Node31</title>
<g id="a_node31"><a xlink:href="vi_8h.html#a223f8c6109580a4e06c8f104ac1346ae" target="_top" xlink:title=" ">
<polygon fill="white" stroke="black" points="575,-67.5 575,-86.5 634,-86.5 634,-67.5 575,-67.5"/>
<text text-anchor="middle" x="604.5" y="-74.5" font-family="Helvetica,sans-Serif" font-size="10.00">lbuf_undo</text>
</a>
</g>
</g>
<!-- Node1&#45;&gt;Node31 -->
<g id="edge45" class="edge">
<title>Node1&#45;&gt;Node31</title>
<path fill="none" stroke="midnightblue" d="M678.16,-119.26C660.42,-108.95 637.23,-95.46 621.88,-86.53"/>
<polygon fill="midnightblue" stroke="midnightblue" points="676.47,-122.33 686.88,-124.33 679.99,-116.28 676.47,-122.33"/>
</g>
<!-- Node3 -->
<g id="node3" class="node">
<title>Node3</title>
<g id="a_node3"><a xlink:href="ex_8c.html#a4cd0748447515b7a935e4bb41424a9e4" target="_top" xlink:title=" ">
<polygon fill="white" stroke="black" points="472,-570.5 472,-589.5 531,-589.5 531,-570.5 472,-570.5"/>
<text text-anchor="middle" x="501.5" y="-577.5" font-family="Helvetica,sans-Serif" font-size="10.00">ec_delete</text>
</a>
</g>
</g>
<!-- Node2&#45;&gt;Node3 -->
<g id="edge2" class="edge">
<title>Node2&#45;&gt;Node3</title>
<path fill="none" stroke="midnightblue" d="M594.33,-484.87C583.47,-505.64 563.7,-539.02 539,-561 534.94,-564.61 530.08,-567.75 525.24,-570.38"/>
<polygon fill="midnightblue" stroke="midnightblue" points="597.53,-486.28 598.93,-475.78 591.29,-483.12 597.53,-486.28"/>
</g>
<!-- Node4 -->
<g id="node4" class="node">
<title>Node4</title>
<g id="a_node4"><a xlink:href="ex_8c.html#adcd83f163f659bd2596bcfc25d74bde9" target="_top" xlink:title=" ">
<polygon fill="white" stroke="black" points="475,-532.5 475,-551.5 528,-551.5 528,-532.5 475,-532.5"/>
<text text-anchor="middle" x="501.5" y="-539.5" font-family="Helvetica,sans-Serif" font-size="10.00">ec_exec</text>
</a>
</g>
</g>
<!-- Node2&#45;&gt;Node4 -->
<g id="edge3" class="edge">
<title>Node2&#45;&gt;Node4</title>
<path fill="none" stroke="midnightblue" d="M586.69,-482.93C574.19,-494.97 556.38,-511.06 539,-523 534.05,-526.4 528.42,-529.61 523.09,-532.4"/>
<polygon fill="midnightblue" stroke="midnightblue" points="589.38,-485.19 594.07,-475.68 584.48,-480.19 589.38,-485.19"/>
</g>
<!-- Node13 -->
<g id="node13" class="node">
<title>Node13</title>
<g id="a_node13"><a xlink:href="ex_8c.html#a0908784dc65be2da119a6b72ef96dec2" target="_top" xlink:title=" ">
<polygon fill="white" stroke="black" points="473.5,-684.5 473.5,-703.5 529.5,-703.5 529.5,-684.5 473.5,-684.5"/>
<text text-anchor="middle" x="501.5" y="-691.5" font-family="Helvetica,sans-Serif" font-size="10.00">ec_insert</text>
</a>
</g>
</g>
<!-- Node2&#45;&gt;Node13 -->
<g id="edge15" class="edge">
<title>Node2&#45;&gt;Node13</title>
<path fill="none" stroke="midnightblue" d="M602.39,-485.58C599.17,-525.6 586.69,-617.81 539,-675 535.89,-678.73 531.86,-681.82 527.61,-684.35"/>
<polygon fill="midnightblue" stroke="midnightblue" points="605.89,-485.76 603.09,-475.54 598.9,-485.27 605.89,-485.76"/>
</g>
<!-- Node14 -->
<g id="node14" class="node">
<title>Node14</title>
<g id="a_node14"><a xlink:href="ex_8c.html#ab417867ff867aff9f7277229990cd1b8" target="_top" xlink:title=" ">
<polygon fill="white" stroke="black" points="478.5,-646.5 478.5,-665.5 524.5,-665.5 524.5,-646.5 478.5,-646.5"/>
<text text-anchor="middle" x="501.5" y="-653.5" font-family="Helvetica,sans-Serif" font-size="10.00">ec_put</text>
</a>
</g>
</g>
<!-- Node2&#45;&gt;Node14 -->
<g id="edge16" class="edge">
<title>Node2&#45;&gt;Node14</title>
<path fill="none" stroke="midnightblue" d="M600.71,-485.97C594.93,-520.57 578.73,-592.22 539,-637 535.11,-641.38 529.97,-644.91 524.78,-647.67"/>
<polygon fill="midnightblue" stroke="midnightblue" points="604.22,-486.17 602.28,-475.75 597.3,-485.1 604.22,-486.17"/>
</g>
<!-- Node15 -->
<g id="node15" class="node">
<title>Node15</title>
<g id="a_node15"><a xlink:href="ex_8c.html#add0e79e1f1e3d45f4eaa6fbe5c1ca443" target="_top" xlink:title=" ">
<polygon fill="white" stroke="black" points="371.5,-741.5 371.5,-760.5 422.5,-760.5 422.5,-741.5 371.5,-741.5"/>
<text text-anchor="middle" x="397" y="-748.5" font-family="Helvetica,sans-Serif" font-size="10.00">ec_read</text>
</a>
</g>
</g>
<!-- Node2&#45;&gt;Node15 -->
<g id="edge17" class="edge">
<title>Node2&#45;&gt;Node15</title>
<path fill="none" stroke="midnightblue" d="M602.12,-485.88C597.58,-544.98 580.89,-717.53 539,-751 506.01,-777.36 453.46,-768.19 422.69,-759.41"/>
<polygon fill="midnightblue" stroke="midnightblue" points="605.63,-485.88 602.87,-475.65 598.65,-485.37 605.63,-485.88"/>
</g>
<!-- Node16 -->
<g id="node16" class="node">
<title>Node16</title>
<g id="a_node16"><a xlink:href="ex_8c.html#aaf4e813ce4370aa859181d22de51576b" target="_top" xlink:title=" ">
<polygon fill="white" stroke="black" points="464,-608.5 464,-627.5 539,-627.5 539,-608.5 464,-608.5"/>
<text text-anchor="middle" x="501.5" y="-615.5" font-family="Helvetica,sans-Serif" font-size="10.00">ec_substitute</text>
</a>
</g>
</g>
<!-- Node2&#45;&gt;Node16 -->
<g id="edge18" class="edge">
<title>Node2&#45;&gt;Node16</title>
<path fill="none" stroke="midnightblue" d="M598.35,-485.4C590.02,-513.53 571.21,-565.86 539,-599 535.41,-602.69 530.96,-605.8 526.41,-608.38"/>
<polygon fill="midnightblue" stroke="midnightblue" points="601.77,-486.16 601.11,-475.59 595.03,-484.26 601.77,-486.16"/>
</g>
<!-- Node17 -->
<g id="node17" class="node">
<title>Node17</title>
<g id="a_node17"><a xlink:href="vi_8h.html#a73da27946270b153994b708a93095bc6" target="_top" xlink:title=" ">
<polygon fill="white" stroke="black" points="478.5,-722.5 478.5,-741.5 524.5,-741.5 524.5,-722.5 478.5,-722.5"/>
<text text-anchor="middle" x="501.5" y="-729.5" font-family="Helvetica,sans-Serif" font-size="10.00">lbuf_rd</text>
</a>
</g>
</g>
<!-- Node2&#45;&gt;Node17 -->
<g id="edge19" class="edge">
<title>Node2&#45;&gt;Node17</title>
<path fill="none" stroke="midnightblue" d="M603.53,-485.97C602.59,-531.32 594.41,-643.51 539,-713 535.26,-717.69 530.04,-721.35 524.72,-724.15"/>
<polygon fill="midnightblue" stroke="midnightblue" points="607.03,-485.75 603.64,-475.72 600.03,-485.68 607.03,-485.75"/>
</g>
<!-- Node19 -->
<g id="node19" class="node">
<title>Node19</title>
<g id="a_node19"><a xlink:href="vi_8c.html#a8bb357a77ed61da8858f138c6fa672a6" target="_top" xlink:title=" ">
<polygon fill="white" stroke="black" points="270,-304.5 270,-323.5 326,-323.5 326,-304.5 270,-304.5"/>
<text text-anchor="middle" x="298" y="-311.5" font-family="Helvetica,sans-Serif" font-size="10.00">vc_insert</text>
</a>
</g>
</g>
<!-- Node2&#45;&gt;Node19 -->
<g id="edge23" class="edge">
<title>Node2&#45;&gt;Node19</title>
<path fill="none" stroke="midnightblue" d="M600.18,-446.02C594.02,-415.86 577.71,-359.43 539,-333 473.76,-288.45 374.04,-299.33 326.31,-308.07"/>
<polygon fill="midnightblue" stroke="midnightblue" points="596.8,-446.98 602.08,-456.17 603.68,-445.7 596.8,-446.98"/>
</g>
<!-- Node20 -->
<g id="node20" class="node">
<title>Node20</title>
<g id="a_node20"><a xlink:href="vi_8c.html#a3d105f7bfebd8365af5b66d6dedf184e" target="_top" xlink:title=" ">
<polygon fill="white" stroke="black" points="169,-266.5 169,-285.5 216,-285.5 216,-266.5 169,-266.5"/>
<text text-anchor="middle" x="192.5" y="-273.5" font-family="Helvetica,sans-Serif" font-size="10.00">vc_join</text>
</a>
</g>
</g>
<!-- Node2&#45;&gt;Node20 -->
<g id="edge25" class="edge">
<title>Node2&#45;&gt;Node20</title>
<path fill="none" stroke="midnightblue" d="M602.35,-446.27C599.09,-410.42 586.62,-335.07 539,-300 487.68,-262.21 284.42,-270.55 216.06,-274.53"/>
<polygon fill="midnightblue" stroke="midnightblue" points="598.87,-446.71 603.12,-456.42 605.85,-446.18 598.87,-446.71"/>
</g>
<!-- Node21 -->
<g id="node21" class="node">
<title>Node21</title>
<g id="a_node21"><a xlink:href="vi_8c.html#a7611a5bcfe4c4ddc58233c4c52a8fa16" target="_top" xlink:title=" ">
<polygon fill="white" stroke="black" points="275,-228.5 275,-247.5 321,-247.5 321,-228.5 275,-228.5"/>
<text text-anchor="middle" x="298" y="-235.5" font-family="Helvetica,sans-Serif" font-size="10.00">vc_put</text>
</a>
</g>
</g>
<!-- Node2&#45;&gt;Node21 -->
<g id="edge27" class="edge">
<title>Node2&#45;&gt;Node21</title>
<path fill="none" stroke="midnightblue" d="M603.86,-446.12C603.41,-404.49 595.93,-308.23 539,-262 474.97,-209.99 367.36,-223.82 321.16,-232.95"/>
<polygon fill="midnightblue" stroke="midnightblue" points="600.36,-446.31 603.83,-456.32 607.36,-446.33 600.36,-446.31"/>
</g>
<!-- Node22 -->
<g id="node22" class="node">
<title>Node22</title>
<g id="a_node22"><a xlink:href="vi_8c.html#a3635843354dbb31e3c00efcd5798535a" target="_top" xlink:title=" ">
<polygon fill="white" stroke="black" points="266,-190.5 266,-209.5 330,-209.5 330,-190.5 266,-190.5"/>
<text text-anchor="middle" x="298" y="-197.5" font-family="Helvetica,sans-Serif" font-size="10.00">vc_replace</text>
</a>
</g>
</g>
<!-- Node2&#45;&gt;Node22 -->
<g id="edge29" class="edge">
<title>Node2&#45;&gt;Node22</title>
<path fill="none" stroke="midnightblue" d="M601.09,-446.31C594.28,-394.1 573.15,-254.14 539,-225 479.89,-174.55 380.43,-184.09 330.13,-193.17"/>
<polygon fill="midnightblue" stroke="midnightblue" points="597.63,-446.83 602.36,-456.31 604.57,-445.95 597.63,-446.83"/>
</g>
<!-- Node23 -->
<g id="node23" class="node">
<title>Node23</title>
<g id="a_node23"><a xlink:href="vi_8c.html#a4e8a00c8cdffacf0c69c3901cdcdf059" target="_top" xlink:title=" ">
<polygon fill="white" stroke="black" points="476.5,-418.5 476.5,-437.5 526.5,-437.5 526.5,-418.5 476.5,-418.5"/>
<text text-anchor="middle" x="501.5" y="-425.5" font-family="Helvetica,sans-Serif" font-size="10.00">vi_case</text>
</a>
</g>
</g>
<!-- Node2&#45;&gt;Node23 -->
<g id="edge31" class="edge">
<title>Node2&#45;&gt;Node23</title>
<path fill="none" stroke="midnightblue" d="M568.34,-452.77C554.55,-447.58 539.07,-441.76 526.59,-437.06"/>
<polygon fill="midnightblue" stroke="midnightblue" points="567.42,-456.17 578.01,-456.41 569.89,-449.61 567.42,-456.17"/>
</g>
<!-- Node25 -->
<g id="node25" class="node">
<title>Node25</title>
<g id="a_node25"><a xlink:href="vi_8c.html#ae37b094c3bb647d8c1a4ac4e858ce518" target="_top" xlink:title=" ">
<polygon fill="white" stroke="black" points="471,-380.5 471,-399.5 532,-399.5 532,-380.5 471,-380.5"/>
<text text-anchor="middle" x="501.5" y="-387.5" font-family="Helvetica,sans-Serif" font-size="10.00">vi_change</text>
</a>
</g>
</g>
<!-- Node2&#45;&gt;Node25 -->
<g id="edge34" class="edge">
<title>Node2&#45;&gt;Node25</title>
<path fill="none" stroke="midnightblue" d="M586.69,-449.07C574.19,-437.03 556.38,-420.94 539,-409 534.05,-405.6 528.42,-402.39 523.09,-399.6"/>
<polygon fill="midnightblue" stroke="midnightblue" points="584.48,-451.81 594.07,-456.32 589.38,-446.81 584.48,-451.81"/>
</g>
<!-- Node26 -->
<g id="node26" class="node">
<title>Node26</title>
<g id="a_node26"><a xlink:href="vi_8c.html#abfa30fc2e2b4b8b24e2ee5d4bd54f2eb" target="_top" xlink:title=" ">
<polygon fill="white" stroke="black" points="473.5,-494.5 473.5,-513.5 529.5,-513.5 529.5,-494.5 473.5,-494.5"/>
<text text-anchor="middle" x="501.5" y="-501.5" font-family="Helvetica,sans-Serif" font-size="10.00">vi_delete</text>
</a>
</g>
</g>
<!-- Node2&#45;&gt;Node26 -->
<g id="edge36" class="edge">
<title>Node2&#45;&gt;Node26</title>
<path fill="none" stroke="midnightblue" d="M568.63,-479.12C555.28,-484.14 540.3,-489.78 527.98,-494.41"/>
<polygon fill="midnightblue" stroke="midnightblue" points="569.89,-482.39 578.01,-475.59 567.42,-475.83 569.89,-482.39"/>
</g>
<!-- Node27 -->
<g id="node27" class="node">
<title>Node27</title>
<g id="a_node27"><a xlink:href="vi_8c.html#ab8e0c9b9d2ef5161c6a3a8828606df5f" target="_top" xlink:title=" ">
<polygon fill="white" stroke="black" points="478,-456.5 478,-475.5 525,-475.5 525,-456.5 478,-456.5"/>
<text text-anchor="middle" x="501.5" y="-463.5" font-family="Helvetica,sans-Serif" font-size="10.00">vi_pipe</text>
</a>
</g>
</g>
<!-- Node2&#45;&gt;Node27 -->
<g id="edge38" class="edge">
<title>Node2&#45;&gt;Node27</title>
<path fill="none" stroke="midnightblue" d="M567.37,-466C553.27,-466 537.54,-466 525.11,-466"/>
<polygon fill="midnightblue" stroke="midnightblue" points="567.75,-469.5 577.75,-466 567.75,-462.5 567.75,-469.5"/>
</g>
<!-- Node28 -->
<g id="node28" class="node">
<title>Node28</title>
<g id="a_node28"><a xlink:href="vi_8c.html#a48860be78b002b73335ae1b47dd56929" target="_top" xlink:title=" ">
<polygon fill="white" stroke="black" points="477.5,-342.5 477.5,-361.5 525.5,-361.5 525.5,-342.5 477.5,-342.5"/>
<text text-anchor="middle" x="501.5" y="-349.5" font-family="Helvetica,sans-Serif" font-size="10.00">vi_shift</text>
</a>
</g>
</g>
<!-- Node2&#45;&gt;Node28 -->
<g id="edge40" class="edge">
<title>Node2&#45;&gt;Node28</title>
<path fill="none" stroke="midnightblue" d="M594.33,-447.13C583.47,-426.36 563.7,-392.98 539,-371 534.94,-367.39 530.08,-364.25 525.24,-361.62"/>
<polygon fill="midnightblue" stroke="midnightblue" points="591.29,-448.88 598.93,-456.22 597.53,-445.72 591.29,-448.88"/>
</g>
<!-- Node5 -->
<g id="node5" class="node">
<title>Node5</title>
<g id="a_node5"><a xlink:href="ex_8c.html#a7d848d20211b2e1c868dde98ec5dfae9" target="_top" xlink:title=" ">
<polygon fill="white" stroke="black" points="373.5,-494.5 373.5,-513.5 420.5,-513.5 420.5,-494.5 373.5,-494.5"/>
<text text-anchor="middle" x="397" y="-501.5" font-family="Helvetica,sans-Serif" font-size="10.00">ex_line</text>
</a>
</g>
</g>
<!-- Node4&#45;&gt;Node5 -->
<g id="edge4" class="edge">
<title>Node4&#45;&gt;Node5</title>
<path fill="none" stroke="midnightblue" d="M465.12,-528.88C450.45,-523.44 433.85,-517.29 420.83,-512.46"/>
<polygon fill="midnightblue" stroke="midnightblue" points="464.31,-532.31 474.9,-532.51 466.74,-525.75 464.31,-532.31"/>
</g>
<!-- Node6 -->
<g id="node6" class="node">
<title>Node6</title>
<g id="a_node6"><a xlink:href="ex_8c.html#ab15ebfef933256d9741128e2ddf3f9b5" target="_top" xlink:title=" ">
<polygon fill="white" stroke="black" points="271.5,-456.5 271.5,-475.5 324.5,-475.5 324.5,-456.5 271.5,-456.5"/>
<text text-anchor="middle" x="298" y="-463.5" font-family="Helvetica,sans-Serif" font-size="10.00">ex_exec</text>
</a>
</g>
</g>
<!-- Node5&#45;&gt;Node6 -->
<g id="edge5" class="edge">
<title>Node5&#45;&gt;Node6</title>
<path fill="none" stroke="midnightblue" d="M363.45,-491.25C350.4,-486.14 335.63,-480.35 323.52,-475.61"/>
<polygon fill="midnightblue" stroke="midnightblue" points="362.42,-494.61 373.01,-494.99 364.98,-488.09 362.42,-494.61"/>
</g>
<!-- Node7 -->
<g id="node7" class="node">
<title>Node7</title>
<g id="a_node7"><a xlink:href="ex_8c.html#a70c571bdde329a65e216c19b4aeaa628" target="_top" xlink:title=" ">
<polygon fill="white" stroke="black" points="167.5,-480.5 167.5,-499.5 217.5,-499.5 217.5,-480.5 167.5,-480.5"/>
<text text-anchor="middle" x="192.5" y="-487.5" font-family="Helvetica,sans-Serif" font-size="10.00">ec_glob</text>
</a>
</g>
</g>
<!-- Node6&#45;&gt;Node7 -->
<g id="edge6" class="edge">
<title>Node6&#45;&gt;Node7</title>
<path fill="none" stroke="midnightblue" d="M261.33,-474.27C246.94,-477.61 230.7,-481.37 217.72,-484.38"/>
<polygon fill="midnightblue" stroke="midnightblue" points="262.46,-477.6 271.42,-471.93 260.88,-470.78 262.46,-477.6"/>
</g>
<!-- Node8 -->
<g id="node8" class="node">
<title>Node8</title>
<g id="a_node8"><a xlink:href="vi_8h.html#aa75c73cccb4878ec06ea5bf5b1b02295" target="_top" xlink:title=" ">
<polygon fill="white" stroke="black" points="155,-408.5 155,-427.5 230,-427.5 230,-408.5 155,-408.5"/>
<text text-anchor="middle" x="192.5" y="-415.5" font-family="Helvetica,sans-Serif" font-size="10.00">ex_command</text>
</a>
</g>
</g>
<!-- Node6&#45;&gt;Node8 -->
<g id="edge8" class="edge">
<title>Node6&#45;&gt;Node8</title>
<path fill="none" stroke="midnightblue" d="M266.59,-451.9C249.68,-444.05 229.08,-434.5 214.06,-427.54"/>
<polygon fill="midnightblue" stroke="midnightblue" points="265.51,-455.25 276.06,-456.29 268.46,-448.9 265.51,-455.25"/>
</g>
<!-- Node7&#45;&gt;Node5 -->
<g id="edge7" class="edge">
<title>Node7&#45;&gt;Node5</title>
<path fill="none" stroke="midnightblue" d="M227.66,-492.36C269.06,-495.22 337.67,-499.97 373.16,-502.42"/>
<polygon fill="midnightblue" stroke="midnightblue" points="227.72,-488.86 217.51,-491.66 227.24,-495.84 227.72,-488.86"/>
</g>
<!-- Node9 -->
<g id="node9" class="node">
<title>Node9</title>
<g id="a_node9"><a xlink:href="vi_8h.html#ac395e51f25330a6e6033b6d0d22b2076" target="_top" xlink:title=" ">
<polygon fill="white" stroke="black" points="82,-389.5 82,-408.5 111,-408.5 111,-389.5 82,-389.5"/>
<text text-anchor="middle" x="96.5" y="-396.5" font-family="Helvetica,sans-Serif" font-size="10.00">ex</text>
</a>
</g>
</g>
<!-- Node8&#45;&gt;Node9 -->
<g id="edge9" class="edge">
<title>Node8&#45;&gt;Node9</title>
<path fill="none" stroke="midnightblue" d="M144.73,-408.55C132.54,-406.08 120.33,-403.61 111.38,-401.8"/>
<polygon fill="midnightblue" stroke="midnightblue" points="144.39,-412.05 154.89,-410.6 145.78,-405.19 144.39,-412.05"/>
</g>
<!-- Node11 -->
<g id="node11" class="node">
<title>Node11</title>
<g id="a_node11"><a xlink:href="vi_8h.html#abe53b5c10f94f20cd5ed024371615fa1" target="_top" xlink:title=" ">
<polygon fill="white" stroke="black" points="74,-427.5 74,-446.5 119,-446.5 119,-427.5 74,-427.5"/>
<text text-anchor="middle" x="96.5" y="-434.5" font-family="Helvetica,sans-Serif" font-size="10.00">ex_init</text>
</a>
</g>
</g>
<!-- Node8&#45;&gt;Node11 -->
<g id="edge11" class="edge">
<title>Node8&#45;&gt;Node11</title>
<path fill="none" stroke="midnightblue" d="M144.85,-427.43C135.89,-429.24 126.91,-431.06 119.21,-432.61"/>
<polygon fill="midnightblue" stroke="midnightblue" points="145.78,-430.81 154.89,-425.4 144.39,-423.95 145.78,-430.81"/>
</g>
<!-- Node12 -->
<g id="node12" class="node">
<title>Node12</title>
<g id="a_node12"><a xlink:href="vi_8c.html#a8d808e0f3453afe6600673ee1ea5f828" target="_top" xlink:title=" ">
<polygon fill="white" stroke="black" points="82,-266.5 82,-285.5 111,-285.5 111,-266.5 82,-266.5"/>
<text text-anchor="middle" x="96.5" y="-273.5" font-family="Helvetica,sans-Serif" font-size="10.00">vi</text>
</a>
</g>
</g>
<!-- Node8&#45;&gt;Node12 -->
<g id="edge13" class="edge">
<title>Node8&#45;&gt;Node12</title>
<path fill="none" stroke="midnightblue" d="M178.47,-399.85C171.42,-389.92 162.61,-377.37 155,-366 135.6,-337.04 113.68,-302.08 103.41,-285.55"/>
<polygon fill="midnightblue" stroke="midnightblue" points="175.71,-402.01 184.37,-408.12 181.41,-397.95 175.71,-402.01"/>
</g>
<!-- Node10 -->
<g id="node10" class="node">
<title>Node10</title>
<g id="a_node10"><a xlink:href="vi_8c.html#a0ddf1224851353fc92bfbff6f499fa97" target="_top" xlink:title=" ">
<polygon fill="white" stroke="black" points="0,-389.5 0,-408.5 38,-408.5 38,-389.5 0,-389.5"/>
<text text-anchor="middle" x="19" y="-396.5" font-family="Helvetica,sans-Serif" font-size="10.00">main</text>
</a>
</g>
</g>
<!-- Node9&#45;&gt;Node10 -->
<g id="edge10" class="edge">
<title>Node9&#45;&gt;Node10</title>
<path fill="none" stroke="midnightblue" d="M71.55,-399C60.69,-399 48.07,-399 38.04,-399"/>
<polygon fill="midnightblue" stroke="midnightblue" points="71.65,-402.5 81.65,-399 71.65,-395.5 71.65,-402.5"/>
</g>
<!-- Node11&#45;&gt;Node10 -->
<g id="edge12" class="edge">
<title>Node11&#45;&gt;Node10</title>
<path fill="none" stroke="midnightblue" d="M67.4,-422.86C57.57,-417.91 46.79,-412.49 38.01,-408.06"/>
<polygon fill="midnightblue" stroke="midnightblue" points="65.94,-426.04 76.45,-427.41 69.09,-419.79 65.94,-426.04"/>
</g>
<!-- Node12&#45;&gt;Node10 -->
<g id="edge14" class="edge">
<title>Node12&#45;&gt;Node10</title>
<path fill="none" stroke="midnightblue" d="M84.23,-294.35C67.96,-320.87 38.44,-368.96 25.9,-389.39"/>
<polygon fill="midnightblue" stroke="midnightblue" points="87.33,-296.01 89.58,-285.65 81.36,-292.34 87.33,-296.01"/>
</g>
<!-- Node17&#45;&gt;Node15 -->
<g id="edge22" class="edge">
<title>Node17&#45;&gt;Node15</title>
<path fill="none" stroke="midnightblue" d="M468.08,-738.01C453.4,-740.73 436.33,-743.89 422.71,-746.42"/>
<polygon fill="midnightblue" stroke="midnightblue" points="469.06,-741.39 478.26,-736.12 467.79,-734.5 469.06,-741.39"/>
</g>
<!-- Node18 -->
<g id="node18" class="node">
<title>Node18</title>
<g id="a_node18"><a xlink:href="ex_8c.html#a8059390ad69866fa8e14bdb2521d4dc2" target="_top" xlink:title=" ">
<polygon fill="white" stroke="black" points="168.5,-559.5 168.5,-578.5 216.5,-578.5 216.5,-559.5 168.5,-559.5"/>
<text text-anchor="middle" x="192.5" y="-566.5" font-family="Helvetica,sans-Serif" font-size="10.00">ec_edit</text>
</a>
</g>
</g>
<!-- Node17&#45;&gt;Node18 -->
<g id="edge20" class="edge">
<title>Node17&#45;&gt;Node18</title>
<path fill="none" stroke="midnightblue" d="M472.98,-717.71C469.95,-716.12 466.91,-714.53 464,-713 368.67,-662.81 254.9,-601.92 211.51,-578.66"/>
<polygon fill="midnightblue" stroke="midnightblue" points="471.43,-720.85 481.91,-722.37 474.67,-714.64 471.43,-720.85"/>
</g>
<!-- Node18&#45;&gt;Node11 -->
<g id="edge21" class="edge">
<title>Node18&#45;&gt;Node11</title>
<path fill="none" stroke="midnightblue" d="M178.57,-550.84C158.36,-522.47 120.02,-468.63 104.39,-446.68"/>
<polygon fill="midnightblue" stroke="midnightblue" points="175.78,-552.96 184.43,-559.08 181.48,-548.9 175.78,-552.96"/>
</g>
<!-- Node19&#45;&gt;Node12 -->
<g id="edge24" class="edge">
<title>Node19&#45;&gt;Node12</title>
<path fill="none" stroke="midnightblue" d="M259.72,-310.92C230.88,-308.09 190.08,-303.07 155,-295 139.63,-291.47 122.53,-285.55 111.01,-281.26"/>
<polygon fill="midnightblue" stroke="midnightblue" points="259.49,-314.42 269.77,-311.87 260.15,-307.45 259.49,-314.42"/>
</g>
<!-- Node20&#45;&gt;Node12 -->
<g id="edge26" class="edge">
<title>Node20&#45;&gt;Node12</title>
<path fill="none" stroke="midnightblue" d="M158.48,-276C142.17,-276 123.4,-276 111.04,-276"/>
<polygon fill="midnightblue" stroke="midnightblue" points="158.75,-279.5 168.75,-276 158.75,-272.5 158.75,-279.5"/>
</g>
<!-- Node21&#45;&gt;Node12 -->
<g id="edge28" class="edge">
<title>Node21&#45;&gt;Node12</title>
<path fill="none" stroke="midnightblue" d="M264.65,-240.6C235.67,-243.34 192.13,-248.46 155,-257 139.63,-260.53 122.53,-266.45 111.01,-270.74"/>
<polygon fill="midnightblue" stroke="midnightblue" points="264.99,-244.08 274.63,-239.7 264.36,-237.11 264.99,-244.08"/>
</g>
<!-- Node22&#45;&gt;Node12 -->
<g id="edge30" class="edge">
<title>Node22&#45;&gt;Node12</title>
<path fill="none" stroke="midnightblue" d="M256.15,-208.25C227.18,-214.88 187.78,-225.48 155,-240 138.85,-247.15 121.88,-258.28 110.6,-266.28"/>
<polygon fill="midnightblue" stroke="midnightblue" points="256.93,-211.66 265.93,-206.07 255.41,-204.83 256.93,-211.66"/>
</g>
<!-- Node24 -->
<g id="node24" class="node">
<title>Node24</title>
<g id="a_node24"><a xlink:href="vi_8c.html#a06cbc6eb843436a0e77e07cbab0c4538" target="_top" xlink:title=" ">
<polygon fill="white" stroke="black" points="366,-399.5 366,-418.5 428,-418.5 428,-399.5 366,-399.5"/>
<text text-anchor="middle" x="397" y="-406.5" font-family="Helvetica,sans-Serif" font-size="10.00">vc_motion</text>
</a>
</g>
</g>
<!-- Node23&#45;&gt;Node24 -->
<g id="edge32" class="edge">
<title>Node23&#45;&gt;Node24</title>
<path fill="none" stroke="midnightblue" d="M466.49,-421.69C454.09,-419.4 440.16,-416.82 428.12,-414.58"/>
<polygon fill="midnightblue" stroke="midnightblue" points="466,-425.16 476.47,-423.55 467.27,-418.28 466,-425.16"/>
</g>
<!-- Node24&#45;&gt;Node12 -->
<g id="edge33" class="edge">
<title>Node24&#45;&gt;Node12</title>
<path fill="none" stroke="midnightblue" d="M356.19,-396.54C307.41,-380.58 222.87,-350.68 155,-315 138.56,-306.36 121.09,-294 109.78,-285.52"/>
<polygon fill="midnightblue" stroke="midnightblue" points="355.16,-399.88 365.75,-399.63 357.32,-393.22 355.16,-399.88"/>
</g>
<!-- Node25&#45;&gt;Node24 -->
<g id="edge35" class="edge">
<title>Node25&#45;&gt;Node24</title>
<path fill="none" stroke="midnightblue" d="M460.79,-397.36C449.99,-399.36 438.48,-401.5 428.29,-403.38"/>
<polygon fill="midnightblue" stroke="midnightblue" points="461.66,-400.76 470.85,-395.5 460.38,-393.88 461.66,-400.76"/>
</g>
<!-- Node26&#45;&gt;Node24 -->
<g id="edge37" class="edge">
<title>Node26&#45;&gt;Node24</title>
<path fill="none" stroke="midnightblue" d="M469.78,-489.13C467.77,-487.82 465.82,-486.44 464,-485 438.75,-465.09 415.7,-434.54 404.73,-418.93"/>
<polygon fill="midnightblue" stroke="midnightblue" points="468.43,-492.39 478.83,-494.43 471.97,-486.35 468.43,-492.39"/>
</g>
<!-- Node27&#45;&gt;Node24 -->
<g id="edge39" class="edge">
<title>Node27&#45;&gt;Node24</title>
<path fill="none" stroke="midnightblue" d="M472.93,-451.81C469.91,-450.2 466.88,-448.58 464,-447 446.84,-437.6 427.46,-426.37 414.17,-418.56"/>
<polygon fill="midnightblue" stroke="midnightblue" points="471.37,-454.94 481.85,-456.49 474.62,-448.74 471.37,-454.94"/>
</g>
<!-- Node28&#45;&gt;Node24 -->
<g id="edge41" class="edge">
<title>Node28&#45;&gt;Node24</title>
<path fill="none" stroke="midnightblue" d="M472.93,-366.19C469.91,-367.8 466.88,-369.42 464,-371 446.84,-380.4 427.46,-391.63 414.17,-399.44"/>
<polygon fill="midnightblue" stroke="midnightblue" points="474.62,-369.26 481.85,-361.51 471.37,-363.06 474.62,-369.26"/>
</g>
<!-- Node29&#45;&gt;Node12 -->
<g id="edge44" class="edge">
<title>Node29&#45;&gt;Node12</title>
<path fill="none" stroke="midnightblue" d="M566.59,-142.1C525.62,-150.37 457.42,-162 398,-162 398,-162 398,-162 297,-162 230.24,-162 210.5,-173.89 155,-211 132.46,-226.08 113.19,-252.09 103.73,-266.2"/>
<polygon fill="midnightblue" stroke="midnightblue" points="567.31,-145.52 576.4,-140.08 565.9,-138.67 567.31,-145.52"/>
</g>
<!-- Node30 -->
<g id="node30" class="node">
<title>Node30</title>
<g id="a_node30"><a xlink:href="ex_8c.html#a39d0bccce28c5531c38fa56b7882857d" target="_top" xlink:title=" ">
<polygon fill="white" stroke="black" points="476,-114.5 476,-133.5 527,-133.5 527,-114.5 476,-114.5"/>
<text text-anchor="middle" x="501.5" y="-121.5" font-family="Helvetica,sans-Serif" font-size="10.00">ec_redo</text>
</a>
</g>
</g>
<!-- Node29&#45;&gt;Node30 -->
<g id="edge43" class="edge">
<title>Node29&#45;&gt;Node30</title>
<path fill="none" stroke="midnightblue" d="M566.33,-130.32C553.29,-129.03 538.98,-127.61 527.22,-126.45"/>
<polygon fill="midnightblue" stroke="midnightblue" points="566.14,-133.82 576.43,-131.32 566.83,-126.85 566.14,-133.82"/>
</g>
<!-- Node31&#45;&gt;Node12 -->
<g id="edge48" class="edge">
<title>Node31&#45;&gt;Node12</title>
<path fill="none" stroke="midnightblue" d="M564.76,-79.71C523.46,-82.36 456.15,-86 398,-86 398,-86 398,-86 297,-86 224.56,-86 205.41,-113.98 155,-166 125.31,-196.64 107.15,-245.69 100.44,-266.34"/>
<polygon fill="midnightblue" stroke="midnightblue" points="565.18,-83.19 574.93,-79.04 564.72,-76.2 565.18,-83.19"/>
</g>
<!-- Node32 -->
<g id="node32" class="node">
<title>Node32</title>
<g id="a_node32"><a xlink:href="ex_8c.html#a0f6c94c34d1bc97a9051aceb7bda7ff0" target="_top" xlink:title=" ">
<polygon fill="white" stroke="black" points="475,-38.5 475,-57.5 528,-57.5 528,-38.5 475,-38.5"/>
<text text-anchor="middle" x="501.5" y="-45.5" font-family="Helvetica,sans-Serif" font-size="10.00">ec_undo</text>
</a>
</g>
</g>
<!-- Node31&#45;&gt;Node32 -->
<g id="edge46" class="edge">
<title>Node31&#45;&gt;Node32</title>
<path fill="none" stroke="midnightblue" d="M565.18,-66C552.8,-62.44 539.38,-58.59 528.14,-55.36"/>
<polygon fill="midnightblue" stroke="midnightblue" points="564.25,-69.37 574.83,-68.77 566.18,-62.64 564.25,-69.37"/>
</g>
<!-- Node33 -->
<g id="node33" class="node">
<title>Node33</title>
<g id="a_node33"><a xlink:href="ex_8c.html#a0d61b907b63c575f18728b9b166f2b16" target="_top" xlink:title=" ">
<polygon fill="white" stroke="black" points="472,-0.5 472,-19.5 531,-19.5 531,-0.5 472,-0.5"/>
<text text-anchor="middle" x="501.5" y="-7.5" font-family="Helvetica,sans-Serif" font-size="10.00">ec_undo1</text>
</a>
</g>
</g>
<!-- Node31&#45;&gt;Node33 -->
<g id="edge47" class="edge">
<title>Node31&#45;&gt;Node33</title>
<path fill="none" stroke="midnightblue" d="M583.64,-60.93C571.18,-51.17 554.57,-38.76 539,-29 533.79,-25.74 527.97,-22.52 522.52,-19.69"/>
<polygon fill="midnightblue" stroke="midnightblue" points="581.54,-63.72 591.55,-67.19 585.89,-58.24 581.54,-63.72"/>
</g>
</g>
</svg>
