<?xml version="1.0" encoding="UTF-8" standalone="no"?>
<!DOCTYPE svg PUBLIC "-//W3C//DTD SVG 1.1//EN"
 "http://www.w3.org/Graphics/SVG/1.1/DTD/svg11.dtd">
<!-- Generated by graphviz version 2.44.1 (20200629.0846)
 -->
<!-- Title: led_printparts Pages: 1 -->
<svg width="794pt" height="294pt"
 viewBox="0.00 0.00 794.00 294.00" xmlns="http://www.w3.org/2000/svg" xmlns:xlink="http://www.w3.org/1999/xlink">
<g id="graph0" class="graph" transform="scale(1 1) rotate(0) translate(4 290)">
<title>led_printparts</title>
<polygon fill="white" stroke="transparent" points="-4,4 -4,-290 790,-290 790,4 -4,4"/>
<!-- Node1 -->
<g id="node1" class="node">
<title>Node1</title>
<g id="a_node1"><a xlink:title=" ">
<polygon fill="#bfbfbf" stroke="black" points="711,-171.5 711,-190.5 786,-190.5 786,-171.5 711,-171.5"/>
<text text-anchor="middle" x="748.5" y="-178.5" font-family="Helvetica,sans-Serif" font-size="10.00">led_printparts</text>
</a>
</g>
</g>
<!-- Node2 -->
<g id="node2" class="node">
<title>Node2</title>
<g id="a_node2"><a xlink:href="vi_8h.html#ae72255a31cec31233723c101d9465d07" target="_top" xlink:title=" ">
<polygon fill="white" stroke="black" points="528.5,-190.5 528.5,-209.5 584.5,-209.5 584.5,-190.5 528.5,-190.5"/>
<text text-anchor="middle" x="556.5" y="-197.5" font-family="Helvetica,sans-Serif" font-size="10.00">led_input</text>
</a>
</g>
</g>
<!-- Node1&#45;&gt;Node2 -->
<g id="edge1" class="edge">
<title>Node1&#45;&gt;Node2</title>
<path fill="none" stroke="midnightblue" d="M700.46,-185.7C663.96,-189.35 614.64,-194.29 584.51,-197.3"/>
<polygon fill="midnightblue" stroke="midnightblue" points="701.26,-189.14 710.87,-184.66 700.57,-182.18 701.26,-189.14"/>
</g>
<!-- Node9 -->
<g id="node9" class="node">
<title>Node9</title>
<g id="a_node9"><a xlink:href="led_8c.html#a617ec615e86687b5c10df33b271256c8" target="_top" xlink:title=" ">
<polygon fill="white" stroke="black" points="625,-152.5 625,-171.5 675,-171.5 675,-152.5 625,-152.5"/>
<text text-anchor="middle" x="650" y="-159.5" font-family="Helvetica,sans-Serif" font-size="10.00">led_line</text>
</a>
</g>
</g>
<!-- Node1&#45;&gt;Node9 -->
<g id="edge9" class="edge">
<title>Node1&#45;&gt;Node9</title>
<path fill="none" stroke="midnightblue" d="M700.8,-171.8C691.9,-170.05 682.94,-168.29 675.12,-166.75"/>
<polygon fill="midnightblue" stroke="midnightblue" points="700.25,-175.26 710.74,-173.76 701.61,-168.4 700.25,-175.26"/>
</g>
<!-- Node3 -->
<g id="node3" class="node">
<title>Node3</title>
<g id="a_node3"><a xlink:href="vi_8c.html#a653f6b0359cef492e11f404c4bf469b9" target="_top" xlink:title=" ">
<polygon fill="white" stroke="black" points="338.5,-228.5 338.5,-247.5 388.5,-247.5 388.5,-228.5 338.5,-228.5"/>
<text text-anchor="middle" x="363.5" y="-235.5" font-family="Helvetica,sans-Serif" font-size="10.00">vi_input</text>
</a>
</g>
</g>
<!-- Node2&#45;&gt;Node3 -->
<g id="edge2" class="edge">
<title>Node2&#45;&gt;Node3</title>
<path fill="none" stroke="midnightblue" d="M517.9,-207.48C479.62,-215.1 421.39,-226.68 388.79,-233.17"/>
<polygon fill="midnightblue" stroke="midnightblue" points="519.01,-210.83 528.13,-205.44 517.64,-203.96 519.01,-210.83"/>
</g>
<!-- Node4 -->
<g id="node4" class="node">
<title>Node4</title>
<g id="a_node4"><a xlink:href="vi_8c.html#a8bb357a77ed61da8858f138c6fa672a6" target="_top" xlink:title=" ">
<polygon fill="white" stroke="black" points="239.5,-266.5 239.5,-285.5 295.5,-285.5 295.5,-266.5 239.5,-266.5"/>
<text text-anchor="middle" x="267.5" y="-273.5" font-family="Helvetica,sans-Serif" font-size="10.00">vc_insert</text>
</a>
</g>
</g>
<!-- Node3&#45;&gt;Node4 -->
<g id="edge3" class="edge">
<title>Node3&#45;&gt;Node4</title>
<path fill="none" stroke="midnightblue" d="M329.32,-251.41C317.08,-256.36 303.46,-261.87 292.21,-266.41"/>
<polygon fill="midnightblue" stroke="midnightblue" points="330.82,-254.58 338.78,-247.59 328.2,-248.09 330.82,-254.58"/>
</g>
<!-- Node7 -->
<g id="node7" class="node">
<title>Node7</title>
<g id="a_node7"><a xlink:href="vi_8c.html#ae37b094c3bb647d8c1a4ac4e858ce518" target="_top" xlink:title=" ">
<polygon fill="white" stroke="black" points="237,-228.5 237,-247.5 298,-247.5 298,-228.5 237,-228.5"/>
<text text-anchor="middle" x="267.5" y="-235.5" font-family="Helvetica,sans-Serif" font-size="10.00">vi_change</text>
</a>
</g>
</g>
<!-- Node3&#45;&gt;Node7 -->
<g id="edge6" class="edge">
<title>Node3&#45;&gt;Node7</title>
<path fill="none" stroke="midnightblue" d="M328.1,-238C318.34,-238 307.8,-238 298.34,-238"/>
<polygon fill="midnightblue" stroke="midnightblue" points="328.29,-241.5 338.29,-238 328.29,-234.5 328.29,-241.5"/>
</g>
<!-- Node5 -->
<g id="node5" class="node">
<title>Node5</title>
<g id="a_node5"><a xlink:href="vi_8c.html#a8d808e0f3453afe6600673ee1ea5f828" target="_top" xlink:title=" ">
<polygon fill="white" stroke="black" points="74,-133.5 74,-152.5 103,-152.5 103,-133.5 74,-133.5"/>
<text text-anchor="middle" x="88.5" y="-140.5" font-family="Helvetica,sans-Serif" font-size="10.00">vi</text>
</a>
</g>
</g>
<!-- Node4&#45;&gt;Node5 -->
<g id="edge4" class="edge">
<title>Node4&#45;&gt;Node5</title>
<path fill="none" stroke="midnightblue" d="M229.77,-263.88C202.6,-253.63 165.83,-236.93 139,-214 118.21,-196.23 101.96,-167.84 94.31,-152.91"/>
<polygon fill="midnightblue" stroke="midnightblue" points="228.71,-267.22 239.3,-267.36 231.11,-260.64 228.71,-267.22"/>
</g>
<!-- Node6 -->
<g id="node6" class="node">
<title>Node6</title>
<g id="a_node6"><a xlink:href="vi_8c.html#a0ddf1224851353fc92bfbff6f499fa97" target="_top" xlink:title=" ">
<polygon fill="white" stroke="black" points="0,-109.5 0,-128.5 38,-128.5 38,-109.5 0,-109.5"/>
<text text-anchor="middle" x="19" y="-116.5" font-family="Helvetica,sans-Serif" font-size="10.00">main</text>
</a>
</g>
</g>
<!-- Node5&#45;&gt;Node6 -->
<g id="edge5" class="edge">
<title>Node5&#45;&gt;Node6</title>
<path fill="none" stroke="midnightblue" d="M64.14,-134.7C55.67,-131.68 46.22,-128.32 38.25,-125.49"/>
<polygon fill="midnightblue" stroke="midnightblue" points="63.25,-138.09 73.84,-138.14 65.59,-131.5 63.25,-138.09"/>
</g>
<!-- Node8 -->
<g id="node8" class="node">
<title>Node8</title>
<g id="a_node8"><a xlink:href="vi_8c.html#a06cbc6eb843436a0e77e07cbab0c4538" target="_top" xlink:title=" ">
<polygon fill="white" stroke="black" points="139,-152.5 139,-171.5 201,-171.5 201,-152.5 139,-152.5"/>
<text text-anchor="middle" x="170" y="-159.5" font-family="Helvetica,sans-Serif" font-size="10.00">vc_motion</text>
</a>
</g>
</g>
<!-- Node7&#45;&gt;Node8 -->
<g id="edge7" class="edge">
<title>Node7&#45;&gt;Node8</title>
<path fill="none" stroke="midnightblue" d="M246.56,-222.13C227.35,-206.85 198.95,-184.24 183,-171.55"/>
<polygon fill="midnightblue" stroke="midnightblue" points="244.4,-224.89 254.4,-228.37 248.76,-219.41 244.4,-224.89"/>
</g>
<!-- Node8&#45;&gt;Node5 -->
<g id="edge8" class="edge">
<title>Node8&#45;&gt;Node5</title>
<path fill="none" stroke="midnightblue" d="M128.95,-152.43C119.66,-150.21 110.39,-147.99 103.17,-146.27"/>
<polygon fill="midnightblue" stroke="midnightblue" points="128.4,-155.9 138.94,-154.82 130.03,-149.09 128.4,-155.9"/>
</g>
<!-- Node9&#45;&gt;Node2 -->
<g id="edge10" class="edge">
<title>Node9&#45;&gt;Node2</title>
<path fill="none" stroke="midnightblue" d="M616.35,-175.56C604.52,-180.47 591.42,-185.91 580.58,-190.41"/>
<polygon fill="midnightblue" stroke="midnightblue" points="618.02,-178.66 625.91,-171.59 615.33,-172.19 618.02,-178.66"/>
</g>
<!-- Node10 -->
<g id="node10" class="node">
<title>Node10</title>
<g id="a_node10"><a xlink:href="vi_8h.html#a173bb468e1e2a066136316f98b49c108" target="_top" xlink:title=" ">
<polygon fill="white" stroke="black" points="524,-152.5 524,-171.5 589,-171.5 589,-152.5 524,-152.5"/>
<text text-anchor="middle" x="556.5" y="-159.5" font-family="Helvetica,sans-Serif" font-size="10.00">led_prompt</text>
</a>
</g>
</g>
<!-- Node9&#45;&gt;Node10 -->
<g id="edge11" class="edge">
<title>Node9&#45;&gt;Node10</title>
<path fill="none" stroke="midnightblue" d="M614.77,-162C606.42,-162 597.53,-162 589.3,-162"/>
<polygon fill="midnightblue" stroke="midnightblue" points="614.96,-165.5 624.96,-162 614.96,-158.5 614.96,-165.5"/>
</g>
<!-- Node11 -->
<g id="node11" class="node">
<title>Node11</title>
<g id="a_node11"><a xlink:href="vi_8h.html#a7ba56272fe1a7d523192729a0bb5edf7" target="_top" xlink:title=" ">
<polygon fill="white" stroke="black" points="242,-47.5 242,-66.5 293,-66.5 293,-47.5 242,-47.5"/>
<text text-anchor="middle" x="267.5" y="-54.5" font-family="Helvetica,sans-Serif" font-size="10.00">ex_read</text>
</a>
</g>
</g>
<!-- Node10&#45;&gt;Node11 -->
<g id="edge12" class="edge">
<title>Node10&#45;&gt;Node11</title>
<path fill="none" stroke="midnightblue" d="M519.89,-148.97C460.91,-127.39 344.39,-84.77 293.39,-66.11"/>
<polygon fill="midnightblue" stroke="midnightblue" points="518.93,-152.35 529.52,-152.5 521.34,-145.77 518.93,-152.35"/>
</g>
<!-- Node15 -->
<g id="node15" class="node">
<title>Node15</title>
<g id="a_node15"><a xlink:href="vi_8c.html#a57965473297aad4c4333fdd3897c11f3" target="_top" xlink:title=" ">
<polygon fill="white" stroke="black" points="429,-152.5 429,-171.5 488,-171.5 488,-152.5 429,-152.5"/>
<text text-anchor="middle" x="458.5" y="-159.5" font-family="Helvetica,sans-Serif" font-size="10.00">vi_prompt</text>
</a>
</g>
</g>
<!-- Node10&#45;&gt;Node15 -->
<g id="edge18" class="edge">
<title>Node10&#45;&gt;Node15</title>
<path fill="none" stroke="midnightblue" d="M513.58,-162C505.03,-162 496.22,-162 488.25,-162"/>
<polygon fill="midnightblue" stroke="midnightblue" points="513.8,-165.5 523.8,-162 513.8,-158.5 513.8,-165.5"/>
</g>
<!-- Node12 -->
<g id="node12" class="node">
<title>Node12</title>
<g id="a_node12"><a xlink:href="ex_8c.html#a0908784dc65be2da119a6b72ef96dec2" target="_top" xlink:title=" ">
<polygon fill="white" stroke="black" points="142,-0.5 142,-19.5 198,-19.5 198,-0.5 142,-0.5"/>
<text text-anchor="middle" x="170" y="-7.5" font-family="Helvetica,sans-Serif" font-size="10.00">ec_insert</text>
</a>
</g>
</g>
<!-- Node11&#45;&gt;Node12 -->
<g id="edge13" class="edge">
<title>Node11&#45;&gt;Node12</title>
<path fill="none" stroke="midnightblue" d="M238.13,-43.04C222.83,-35.51 204.33,-26.4 190.62,-19.66"/>
<polygon fill="midnightblue" stroke="midnightblue" points="236.66,-46.21 247.17,-47.49 239.75,-39.93 236.66,-46.21"/>
</g>
<!-- Node13 -->
<g id="node13" class="node">
<title>Node13</title>
<g id="a_node13"><a xlink:href="vi_8h.html#ac395e51f25330a6e6033b6d0d22b2076" target="_top" xlink:title=" ">
<polygon fill="white" stroke="black" points="74,-62.5 74,-81.5 103,-81.5 103,-62.5 74,-62.5"/>
<text text-anchor="middle" x="88.5" y="-69.5" font-family="Helvetica,sans-Serif" font-size="10.00">ex</text>
</a>
</g>
</g>
<!-- Node11&#45;&gt;Node13 -->
<g id="edge14" class="edge">
<title>Node11&#45;&gt;Node13</title>
<path fill="none" stroke="midnightblue" d="M231.58,-59.53C205.95,-61.43 170.29,-64.19 139,-67 126.96,-68.08 113.28,-69.47 103.36,-70.52"/>
<polygon fill="midnightblue" stroke="midnightblue" points="231.85,-63.02 241.57,-58.79 231.34,-56.04 231.85,-63.02"/>
</g>
<!-- Node14 -->
<g id="node14" class="node">
<title>Node14</title>
<g id="a_node14"><a xlink:href="vi_8c.html#a9d85e9ed087401367529ab86a5dbf0c5" target="_top" xlink:title=" ">
<polygon fill="white" stroke="black" points="146.5,-76.5 146.5,-95.5 193.5,-95.5 193.5,-76.5 146.5,-76.5"/>
<text text-anchor="middle" x="170" y="-83.5" font-family="Helvetica,sans-Serif" font-size="10.00">vi_wait</text>
</a>
</g>
</g>
<!-- Node11&#45;&gt;Node14 -->
<g id="edge16" class="edge">
<title>Node11&#45;&gt;Node14</title>
<path fill="none" stroke="midnightblue" d="M232.01,-67.47C219.2,-71.36 205.02,-75.67 193.55,-79.15"/>
<polygon fill="midnightblue" stroke="midnightblue" points="233.35,-70.72 241.91,-64.47 231.32,-64.02 233.35,-70.72"/>
</g>
<!-- Node13&#45;&gt;Node6 -->
<g id="edge15" class="edge">
<title>Node13&#45;&gt;Node6</title>
<path fill="none" stroke="midnightblue" d="M65.34,-87.43C55.05,-94.59 43.14,-102.89 34.1,-109.18"/>
<polygon fill="midnightblue" stroke="midnightblue" points="67.63,-90.1 73.84,-81.51 63.63,-84.35 67.63,-90.1"/>
</g>
<!-- Node14&#45;&gt;Node5 -->
<g id="edge17" class="edge">
<title>Node14&#45;&gt;Node5</title>
<path fill="none" stroke="midnightblue" d="M147.25,-101.59C133.02,-111.79 114.9,-124.79 102.79,-133.47"/>
<polygon fill="midnightblue" stroke="midnightblue" points="149.43,-104.34 155.51,-95.67 145.35,-98.65 149.43,-104.34"/>
</g>
<!-- Node15&#45;&gt;Node5 -->
<g id="edge19" class="edge">
<title>Node15&#45;&gt;Node5</title>
<path fill="none" stroke="midnightblue" d="M421.83,-174.48C412.56,-177.18 402.5,-179.63 393,-181 281.27,-197.11 245.89,-217.3 139,-181 122.59,-175.43 107.35,-161.98 98.24,-152.67"/>
<polygon fill="midnightblue" stroke="midnightblue" points="422.99,-177.79 431.52,-171.5 420.93,-171.1 422.99,-177.79"/>
</g>
<!-- Node16 -->
<g id="node16" class="node">
<title>Node16</title>
<g id="a_node16"><a xlink:href="vi_8c.html#ab8e0c9b9d2ef5161c6a3a8828606df5f" target="_top" xlink:title=" ">
<polygon fill="white" stroke="black" points="340,-152.5 340,-171.5 387,-171.5 387,-152.5 340,-152.5"/>
<text text-anchor="middle" x="363.5" y="-159.5" font-family="Helvetica,sans-Serif" font-size="10.00">vi_pipe</text>
</a>
</g>
</g>
<!-- Node15&#45;&gt;Node16 -->
<g id="edge20" class="edge">
<title>Node15&#45;&gt;Node16</title>
<path fill="none" stroke="midnightblue" d="M418.73,-162C407.93,-162 396.55,-162 387.02,-162"/>
<polygon fill="midnightblue" stroke="midnightblue" points="418.84,-165.5 428.84,-162 418.84,-158.5 418.84,-165.5"/>
</g>
<!-- Node17 -->
<g id="node17" class="node">
<title>Node17</title>
<g id="a_node17"><a xlink:href="vi_8c.html#a93701c59617d4f96cbaa207e89178f87" target="_top" xlink:title=" ">
<polygon fill="white" stroke="black" points="334,-114.5 334,-133.5 393,-133.5 393,-114.5 334,-114.5"/>
<text text-anchor="middle" x="363.5" y="-121.5" font-family="Helvetica,sans-Serif" font-size="10.00">vi_search</text>
</a>
</g>
</g>
<!-- Node15&#45;&gt;Node17 -->
<g id="edge22" class="edge">
<title>Node15&#45;&gt;Node17</title>
<path fill="none" stroke="midnightblue" d="M424.68,-148.59C412.56,-143.64 399.08,-138.13 387.96,-133.59"/>
<polygon fill="midnightblue" stroke="midnightblue" points="423.45,-151.87 434.03,-152.41 426.1,-145.39 423.45,-151.87"/>
</g>
<!-- Node16&#45;&gt;Node8 -->
<g id="edge21" class="edge">
<title>Node16&#45;&gt;Node8</title>
<path fill="none" stroke="midnightblue" d="M329.78,-162C293.74,-162 236.26,-162 201.24,-162"/>
<polygon fill="midnightblue" stroke="midnightblue" points="329.78,-165.5 339.78,-162 329.78,-158.5 329.78,-165.5"/>
</g>
<!-- Node18 -->
<g id="node18" class="node">
<title>Node18</title>
<g id="a_node18"><a xlink:href="vi_8c.html#aaa4777ea0715ea846346d0f27a0cfa3f" target="_top" xlink:title=" ">
<polygon fill="white" stroke="black" points="238,-114.5 238,-133.5 297,-133.5 297,-114.5 238,-114.5"/>
<text text-anchor="middle" x="267.5" y="-121.5" font-family="Helvetica,sans-Serif" font-size="10.00">vi_motion</text>
</a>
</g>
</g>
<!-- Node17&#45;&gt;Node18 -->
<g id="edge23" class="edge">
<title>Node17&#45;&gt;Node18</title>
<path fill="none" stroke="midnightblue" d="M323.6,-124C314.71,-124 305.41,-124 297.04,-124"/>
<polygon fill="midnightblue" stroke="midnightblue" points="323.79,-127.5 333.79,-124 323.79,-120.5 323.79,-127.5"/>
</g>
<!-- Node18&#45;&gt;Node5 -->
<g id="edge25" class="edge">
<title>Node18&#45;&gt;Node5</title>
<path fill="none" stroke="midnightblue" d="M227.63,-128.17C188.35,-132.39 129.77,-138.68 103.33,-141.52"/>
<polygon fill="midnightblue" stroke="midnightblue" points="228.1,-131.64 237.67,-127.09 227.35,-124.68 228.1,-131.64"/>
</g>
<!-- Node18&#45;&gt;Node8 -->
<g id="edge24" class="edge">
<title>Node18&#45;&gt;Node8</title>
<path fill="none" stroke="midnightblue" d="M232.79,-137.41C220.35,-142.36 206.51,-147.87 195.09,-152.41"/>
<polygon fill="midnightblue" stroke="midnightblue" points="234.4,-140.54 242.4,-133.59 231.82,-134.03 234.4,-140.54"/>
</g>
</g>
</svg>
