<?xml version="1.0" encoding="UTF-8" standalone="no"?>
<!DOCTYPE svg PUBLIC "-//W3C//DTD SVG 1.1//EN"
 "http://www.w3.org/Graphics/SVG/1.1/DTD/svg11.dtd">
<!-- Generated by graphviz version 2.44.1 (20200629.0846)
 -->
<!-- Title: kmap_map Pages: 1 -->
<svg width="900pt" height="256pt"
 viewBox="0.00 0.00 900.00 256.00" xmlns="http://www.w3.org/2000/svg" xmlns:xlink="http://www.w3.org/1999/xlink">
<g id="graph0" class="graph" transform="scale(1 1) rotate(0) translate(4 252)">
<title>kmap_map</title>
<polygon fill="white" stroke="transparent" points="-4,4 -4,-252 896,-252 896,4 -4,4"/>
<!-- Node1 -->
<g id="node1" class="node">
<title>Node1</title>
<g id="a_node1"><a xlink:title=" ">
<polygon fill="#bfbfbf" stroke="black" points="827,-57.5 827,-76.5 892,-76.5 892,-57.5 827,-57.5"/>
<text text-anchor="middle" x="859.5" y="-64.5" font-family="Helvetica,sans-Serif" font-size="10.00">kmap_map</text>
</a>
</g>
</g>
<!-- Node2 -->
<g id="node2" class="node">
<title>Node2</title>
<g id="a_node2"><a xlink:href="led_8c.html#ae938cbff964c214e7e4f6aff4d5ce0f7" target="_top" xlink:title=" ">
<polygon fill="white" stroke="black" points="716,-38.5 716,-57.5 791,-57.5 791,-38.5 716,-38.5"/>
<text text-anchor="middle" x="753.5" y="-45.5" font-family="Helvetica,sans-Serif" font-size="10.00">led_printparts</text>
</a>
</g>
</g>
<!-- Node1&#45;&gt;Node2 -->
<g id="edge1" class="edge">
<title>Node1&#45;&gt;Node2</title>
<path fill="none" stroke="midnightblue" d="M816.68,-59.36C808.24,-57.82 799.43,-56.21 791.18,-54.7"/>
<polygon fill="midnightblue" stroke="midnightblue" points="816.27,-62.84 826.73,-61.2 817.52,-55.96 816.27,-62.84"/>
</g>
<!-- Node20 -->
<g id="node20" class="node">
<title>Node20</title>
<g id="a_node20"><a xlink:href="led_8c.html#a8bbdff3c2783b27081d76136774c5dbf" target="_top" xlink:title=" ">
<polygon fill="white" stroke="black" points="717.5,-76.5 717.5,-95.5 789.5,-95.5 789.5,-76.5 717.5,-76.5"/>
<text text-anchor="middle" x="753.5" y="-83.5" font-family="Helvetica,sans-Serif" font-size="10.00">led_readchar</text>
</a>
</g>
</g>
<!-- Node1&#45;&gt;Node20 -->
<g id="edge27" class="edge">
<title>Node1&#45;&gt;Node20</title>
<path fill="none" stroke="midnightblue" d="M816.82,-74.61C807.83,-76.26 798.41,-77.98 789.7,-79.57"/>
<polygon fill="midnightblue" stroke="midnightblue" points="817.52,-78.04 826.73,-72.8 816.27,-71.16 817.52,-78.04"/>
</g>
<!-- Node3 -->
<g id="node3" class="node">
<title>Node3</title>
<g id="a_node3"><a xlink:href="vi_8h.html#ae72255a31cec31233723c101d9465d07" target="_top" xlink:title=" ">
<polygon fill="white" stroke="black" points="530.5,-19.5 530.5,-38.5 586.5,-38.5 586.5,-19.5 530.5,-19.5"/>
<text text-anchor="middle" x="558.5" y="-26.5" font-family="Helvetica,sans-Serif" font-size="10.00">led_input</text>
</a>
</g>
</g>
<!-- Node2&#45;&gt;Node3 -->
<g id="edge2" class="edge">
<title>Node2&#45;&gt;Node3</title>
<path fill="none" stroke="midnightblue" d="M705.63,-43.39C668.4,-39.72 617.62,-34.72 586.77,-31.69"/>
<polygon fill="midnightblue" stroke="midnightblue" points="705.45,-46.88 715.74,-44.38 706.13,-39.92 705.45,-46.88"/>
</g>
<!-- Node10 -->
<g id="node10" class="node">
<title>Node10</title>
<g id="a_node10"><a xlink:href="led_8c.html#a617ec615e86687b5c10df33b271256c8" target="_top" xlink:title=" ">
<polygon fill="white" stroke="black" points="628.5,-57.5 628.5,-76.5 678.5,-76.5 678.5,-57.5 628.5,-57.5"/>
<text text-anchor="middle" x="653.5" y="-64.5" font-family="Helvetica,sans-Serif" font-size="10.00">led_line</text>
</a>
</g>
</g>
<!-- Node2&#45;&gt;Node10 -->
<g id="edge10" class="edge">
<title>Node2&#45;&gt;Node10</title>
<path fill="none" stroke="midnightblue" d="M705.69,-57.08C696.34,-58.89 686.88,-60.72 678.69,-62.31"/>
<polygon fill="midnightblue" stroke="midnightblue" points="706.58,-60.47 715.73,-55.13 705.25,-53.6 706.58,-60.47"/>
</g>
<!-- Node4 -->
<g id="node4" class="node">
<title>Node4</title>
<g id="a_node4"><a xlink:href="vi_8c.html#a653f6b0359cef492e11f404c4bf469b9" target="_top" xlink:title=" ">
<polygon fill="white" stroke="black" points="340.5,-0.5 340.5,-19.5 390.5,-19.5 390.5,-0.5 340.5,-0.5"/>
<text text-anchor="middle" x="365.5" y="-7.5" font-family="Helvetica,sans-Serif" font-size="10.00">vi_input</text>
</a>
</g>
</g>
<!-- Node3&#45;&gt;Node4 -->
<g id="edge3" class="edge">
<title>Node3&#45;&gt;Node4</title>
<path fill="none" stroke="midnightblue" d="M519.9,-25.26C481.62,-21.45 423.39,-15.66 390.79,-12.42"/>
<polygon fill="midnightblue" stroke="midnightblue" points="519.84,-28.77 530.13,-26.28 520.53,-21.8 519.84,-28.77"/>
</g>
<!-- Node5 -->
<g id="node5" class="node">
<title>Node5</title>
<g id="a_node5"><a xlink:href="vi_8c.html#a8bb357a77ed61da8858f138c6fa672a6" target="_top" xlink:title=" ">
<polygon fill="white" stroke="black" points="241.5,-0.5 241.5,-19.5 297.5,-19.5 297.5,-0.5 241.5,-0.5"/>
<text text-anchor="middle" x="269.5" y="-7.5" font-family="Helvetica,sans-Serif" font-size="10.00">vc_insert</text>
</a>
</g>
</g>
<!-- Node4&#45;&gt;Node5 -->
<g id="edge4" class="edge">
<title>Node4&#45;&gt;Node5</title>
<path fill="none" stroke="midnightblue" d="M330.01,-10C319.33,-10 307.72,-10 297.61,-10"/>
<polygon fill="midnightblue" stroke="midnightblue" points="330.29,-13.5 340.29,-10 330.29,-6.5 330.29,-13.5"/>
</g>
<!-- Node8 -->
<g id="node8" class="node">
<title>Node8</title>
<g id="a_node8"><a xlink:href="vi_8c.html#ae37b094c3bb647d8c1a4ac4e858ce518" target="_top" xlink:title=" ">
<polygon fill="white" stroke="black" points="239,-114.5 239,-133.5 300,-133.5 300,-114.5 239,-114.5"/>
<text text-anchor="middle" x="269.5" y="-121.5" font-family="Helvetica,sans-Serif" font-size="10.00">vi_change</text>
</a>
</g>
</g>
<!-- Node4&#45;&gt;Node8 -->
<g id="edge7" class="edge">
<title>Node4&#45;&gt;Node8</title>
<path fill="none" stroke="midnightblue" d="M350.1,-27.46C330.04,-51.79 294.36,-95.06 278.49,-114.31"/>
<polygon fill="midnightblue" stroke="midnightblue" points="352.82,-29.66 356.49,-19.72 347.42,-25.21 352.82,-29.66"/>
</g>
<!-- Node6 -->
<g id="node6" class="node">
<title>Node6</title>
<g id="a_node6"><a xlink:href="vi_8c.html#a8d808e0f3453afe6600673ee1ea5f828" target="_top" xlink:title=" ">
<polygon fill="white" stroke="black" points="74,-114.5 74,-133.5 103,-133.5 103,-114.5 74,-114.5"/>
<text text-anchor="middle" x="88.5" y="-121.5" font-family="Helvetica,sans-Serif" font-size="10.00">vi</text>
</a>
</g>
</g>
<!-- Node5&#45;&gt;Node6 -->
<g id="edge5" class="edge">
<title>Node5&#45;&gt;Node6</title>
<path fill="none" stroke="midnightblue" d="M231.19,-6.84C203.36,-6.39 165.69,-10.03 139,-29 109.29,-50.12 96.06,-94.59 91.49,-114.27"/>
<polygon fill="midnightblue" stroke="midnightblue" points="231.22,-10.34 241.34,-7.19 231.46,-3.35 231.22,-10.34"/>
</g>
<!-- Node7 -->
<g id="node7" class="node">
<title>Node7</title>
<g id="a_node7"><a xlink:href="vi_8c.html#a0ddf1224851353fc92bfbff6f499fa97" target="_top" xlink:title=" ">
<polygon fill="white" stroke="black" points="0,-38.5 0,-57.5 38,-57.5 38,-38.5 0,-38.5"/>
<text text-anchor="middle" x="19" y="-45.5" font-family="Helvetica,sans-Serif" font-size="10.00">main</text>
</a>
</g>
</g>
<!-- Node6&#45;&gt;Node7 -->
<g id="edge6" class="edge">
<title>Node6&#45;&gt;Node7</title>
<path fill="none" stroke="midnightblue" d="M72.15,-106.71C58.71,-91.58 39.66,-70.13 28.69,-57.79"/>
<polygon fill="midnightblue" stroke="midnightblue" points="69.69,-109.22 78.95,-114.37 74.93,-104.57 69.69,-109.22"/>
</g>
<!-- Node9 -->
<g id="node9" class="node">
<title>Node9</title>
<g id="a_node9"><a xlink:href="vi_8c.html#a06cbc6eb843436a0e77e07cbab0c4538" target="_top" xlink:title=" ">
<polygon fill="white" stroke="black" points="140,-152.5 140,-171.5 202,-171.5 202,-152.5 140,-152.5"/>
<text text-anchor="middle" x="171" y="-159.5" font-family="Helvetica,sans-Serif" font-size="10.00">vc_motion</text>
</a>
</g>
</g>
<!-- Node8&#45;&gt;Node9 -->
<g id="edge8" class="edge">
<title>Node8&#45;&gt;Node9</title>
<path fill="none" stroke="midnightblue" d="M234.82,-137.26C222.15,-142.25 208,-147.82 196.34,-152.41"/>
<polygon fill="midnightblue" stroke="midnightblue" points="236.13,-140.51 244.15,-133.59 233.56,-134 236.13,-140.51"/>
</g>
<!-- Node9&#45;&gt;Node6 -->
<g id="edge9" class="edge">
<title>Node9&#45;&gt;Node6</title>
<path fill="none" stroke="midnightblue" d="M140.35,-148C127.63,-142 113.39,-135.28 103.22,-130.48"/>
<polygon fill="midnightblue" stroke="midnightblue" points="139.15,-151.31 149.69,-152.41 142.14,-144.98 139.15,-151.31"/>
</g>
<!-- Node10&#45;&gt;Node3 -->
<g id="edge11" class="edge">
<title>Node10&#45;&gt;Node3</title>
<path fill="none" stroke="midnightblue" d="M619.68,-53.59C607.56,-48.64 594.08,-43.13 582.96,-38.59"/>
<polygon fill="midnightblue" stroke="midnightblue" points="618.45,-56.87 629.03,-57.41 621.1,-50.39 618.45,-56.87"/>
</g>
<!-- Node11 -->
<g id="node11" class="node">
<title>Node11</title>
<g id="a_node11"><a xlink:href="vi_8h.html#a173bb468e1e2a066136316f98b49c108" target="_top" xlink:title=" ">
<polygon fill="white" stroke="black" points="526,-57.5 526,-76.5 591,-76.5 591,-57.5 526,-57.5"/>
<text text-anchor="middle" x="558.5" y="-64.5" font-family="Helvetica,sans-Serif" font-size="10.00">led_prompt</text>
</a>
</g>
</g>
<!-- Node10&#45;&gt;Node11 -->
<g id="edge12" class="edge">
<title>Node10&#45;&gt;Node11</title>
<path fill="none" stroke="midnightblue" d="M617.79,-67C609.05,-67 599.71,-67 591.13,-67"/>
<polygon fill="midnightblue" stroke="midnightblue" points="618.07,-70.5 628.07,-67 618.07,-63.5 618.07,-70.5"/>
</g>
<!-- Node12 -->
<g id="node12" class="node">
<title>Node12</title>
<g id="a_node12"><a xlink:href="vi_8h.html#a7ba56272fe1a7d523192729a0bb5edf7" target="_top" xlink:title=" ">
<polygon fill="white" stroke="black" points="244,-38.5 244,-57.5 295,-57.5 295,-38.5 244,-38.5"/>
<text text-anchor="middle" x="269.5" y="-45.5" font-family="Helvetica,sans-Serif" font-size="10.00">ex_read</text>
</a>
</g>
</g>
<!-- Node11&#45;&gt;Node12 -->
<g id="edge13" class="edge">
<title>Node11&#45;&gt;Node12</title>
<path fill="none" stroke="midnightblue" d="M515.96,-64.25C455.24,-60.23 344.17,-52.88 295.02,-49.62"/>
<polygon fill="midnightblue" stroke="midnightblue" points="515.76,-67.74 525.97,-64.91 516.22,-60.76 515.76,-67.74"/>
</g>
<!-- Node16 -->
<g id="node16" class="node">
<title>Node16</title>
<g id="a_node16"><a xlink:href="vi_8c.html#a57965473297aad4c4333fdd3897c11f3" target="_top" xlink:title=" ">
<polygon fill="white" stroke="black" points="431,-95.5 431,-114.5 490,-114.5 490,-95.5 431,-95.5"/>
<text text-anchor="middle" x="460.5" y="-102.5" font-family="Helvetica,sans-Serif" font-size="10.00">vi_prompt</text>
</a>
</g>
</g>
<!-- Node11&#45;&gt;Node16 -->
<g id="edge19" class="edge">
<title>Node11&#45;&gt;Node16</title>
<path fill="none" stroke="midnightblue" d="M523.62,-80.41C511.11,-85.36 497.2,-90.87 485.72,-95.41"/>
<polygon fill="midnightblue" stroke="midnightblue" points="525.27,-83.52 533.28,-76.59 522.69,-77.02 525.27,-83.52"/>
</g>
<!-- Node13 -->
<g id="node13" class="node">
<title>Node13</title>
<g id="a_node13"><a xlink:href="ex_8c.html#a0908784dc65be2da119a6b72ef96dec2" target="_top" xlink:title=" ">
<polygon fill="white" stroke="black" points="143,-38.5 143,-57.5 199,-57.5 199,-38.5 143,-38.5"/>
<text text-anchor="middle" x="171" y="-45.5" font-family="Helvetica,sans-Serif" font-size="10.00">ec_insert</text>
</a>
</g>
</g>
<!-- Node12&#45;&gt;Node13 -->
<g id="edge14" class="edge">
<title>Node12&#45;&gt;Node13</title>
<path fill="none" stroke="midnightblue" d="M233.85,-48C222.48,-48 210.02,-48 199.28,-48"/>
<polygon fill="midnightblue" stroke="midnightblue" points="233.9,-51.5 243.9,-48 233.9,-44.5 233.9,-51.5"/>
</g>
<!-- Node14 -->
<g id="node14" class="node">
<title>Node14</title>
<g id="a_node14"><a xlink:href="vi_8h.html#ac395e51f25330a6e6033b6d0d22b2076" target="_top" xlink:title=" ">
<polygon fill="white" stroke="black" points="74,-19.5 74,-38.5 103,-38.5 103,-19.5 74,-19.5"/>
<text text-anchor="middle" x="88.5" y="-26.5" font-family="Helvetica,sans-Serif" font-size="10.00">ex</text>
</a>
</g>
</g>
<!-- Node12&#45;&gt;Node14 -->
<g id="edge15" class="edge">
<title>Node12&#45;&gt;Node14</title>
<path fill="none" stroke="midnightblue" d="M234.4,-36.14C224.4,-33.2 213.37,-30.47 203,-29 167.3,-23.93 124.64,-26.11 103.21,-27.76"/>
<polygon fill="midnightblue" stroke="midnightblue" points="233.39,-39.49 243.98,-39.1 235.46,-32.8 233.39,-39.49"/>
</g>
<!-- Node15 -->
<g id="node15" class="node">
<title>Node15</title>
<g id="a_node15"><a xlink:href="vi_8c.html#a9d85e9ed087401367529ab86a5dbf0c5" target="_top" xlink:title=" ">
<polygon fill="white" stroke="black" points="147.5,-76.5 147.5,-95.5 194.5,-95.5 194.5,-76.5 147.5,-76.5"/>
<text text-anchor="middle" x="171" y="-83.5" font-family="Helvetica,sans-Serif" font-size="10.00">vi_wait</text>
</a>
</g>
</g>
<!-- Node12&#45;&gt;Node15 -->
<g id="edge17" class="edge">
<title>Node12&#45;&gt;Node15</title>
<path fill="none" stroke="midnightblue" d="M234.83,-61.26C221.55,-66.49 206.65,-72.36 194.69,-77.07"/>
<polygon fill="midnightblue" stroke="midnightblue" points="236.13,-64.51 244.15,-57.59 233.56,-58 236.13,-64.51"/>
</g>
<!-- Node14&#45;&gt;Node7 -->
<g id="edge16" class="edge">
<title>Node14&#45;&gt;Node7</title>
<path fill="none" stroke="midnightblue" d="M64.14,-35.57C55.67,-37.96 46.22,-40.62 38.25,-42.86"/>
<polygon fill="midnightblue" stroke="midnightblue" points="65.16,-38.92 73.84,-32.84 63.27,-32.19 65.16,-38.92"/>
</g>
<!-- Node15&#45;&gt;Node6 -->
<g id="edge18" class="edge">
<title>Node15&#45;&gt;Node6</title>
<path fill="none" stroke="midnightblue" d="M140.35,-100C127.63,-106 113.39,-112.72 103.22,-117.52"/>
<polygon fill="midnightblue" stroke="midnightblue" points="142.14,-103.02 149.69,-95.59 139.15,-96.69 142.14,-103.02"/>
</g>
<!-- Node16&#45;&gt;Node6 -->
<g id="edge20" class="edge">
<title>Node16&#45;&gt;Node6</title>
<path fill="none" stroke="midnightblue" d="M420.65,-103.52C376.56,-102.18 302.53,-100.98 239,-105 188.61,-108.19 129.22,-117.37 103.05,-121.69"/>
<polygon fill="midnightblue" stroke="midnightblue" points="420.81,-107.03 430.92,-103.85 421.04,-100.03 420.81,-107.03"/>
</g>
<!-- Node17 -->
<g id="node17" class="node">
<title>Node17</title>
<g id="a_node17"><a xlink:href="vi_8c.html#ab8e0c9b9d2ef5161c6a3a8828606df5f" target="_top" xlink:title=" ">
<polygon fill="white" stroke="black" points="342,-114.5 342,-133.5 389,-133.5 389,-114.5 342,-114.5"/>
<text text-anchor="middle" x="365.5" y="-121.5" font-family="Helvetica,sans-Serif" font-size="10.00">vi_pipe</text>
</a>
</g>
</g>
<!-- Node16&#45;&gt;Node17 -->
<g id="edge21" class="edge">
<title>Node16&#45;&gt;Node17</title>
<path fill="none" stroke="midnightblue" d="M420.73,-112.92C409.93,-115.13 398.55,-117.45 389.02,-119.4"/>
<polygon fill="midnightblue" stroke="midnightblue" points="421.74,-116.29 430.84,-110.86 420.34,-109.43 421.74,-116.29"/>
</g>
<!-- Node18 -->
<g id="node18" class="node">
<title>Node18</title>
<g id="a_node18"><a xlink:href="vi_8c.html#a93701c59617d4f96cbaa207e89178f87" target="_top" xlink:title=" ">
<polygon fill="white" stroke="black" points="336,-152.5 336,-171.5 395,-171.5 395,-152.5 336,-152.5"/>
<text text-anchor="middle" x="365.5" y="-159.5" font-family="Helvetica,sans-Serif" font-size="10.00">vi_search</text>
</a>
</g>
</g>
<!-- Node16&#45;&gt;Node18 -->
<g id="edge23" class="edge">
<title>Node16&#45;&gt;Node18</title>
<path fill="none" stroke="midnightblue" d="M434.99,-120.02C418.22,-130.3 396.48,-143.62 382.04,-152.47"/>
<polygon fill="midnightblue" stroke="midnightblue" points="437.03,-122.88 443.72,-114.67 433.37,-116.91 437.03,-122.88"/>
</g>
<!-- Node17&#45;&gt;Node9 -->
<g id="edge22" class="edge">
<title>Node17&#45;&gt;Node9</title>
<path fill="none" stroke="midnightblue" d="M332,-134.53C321.83,-137.57 310.52,-140.68 300,-143 266.87,-150.3 228.29,-155.6 202.22,-158.72"/>
<polygon fill="midnightblue" stroke="midnightblue" points="333.18,-137.83 341.72,-131.55 331.13,-131.14 333.18,-137.83"/>
</g>
<!-- Node19 -->
<g id="node19" class="node">
<title>Node19</title>
<g id="a_node19"><a xlink:href="vi_8c.html#aaa4777ea0715ea846346d0f27a0cfa3f" target="_top" xlink:title=" ">
<polygon fill="white" stroke="black" points="240,-190.5 240,-209.5 299,-209.5 299,-190.5 240,-190.5"/>
<text text-anchor="middle" x="269.5" y="-197.5" font-family="Helvetica,sans-Serif" font-size="10.00">vi_motion</text>
</a>
</g>
</g>
<!-- Node18&#45;&gt;Node19 -->
<g id="edge24" class="edge">
<title>Node18&#45;&gt;Node19</title>
<path fill="none" stroke="midnightblue" d="M331.32,-175.41C319.08,-180.36 305.46,-185.87 294.21,-190.41"/>
<polygon fill="midnightblue" stroke="midnightblue" points="332.82,-178.58 340.78,-171.59 330.2,-172.09 332.82,-178.58"/>
</g>
<!-- Node19&#45;&gt;Node6 -->
<g id="edge26" class="edge">
<title>Node19&#45;&gt;Node6</title>
<path fill="none" stroke="midnightblue" d="M229.72,-201.23C202.76,-200.49 166.8,-196.21 139,-181 118.53,-169.8 102.6,-146.62 94.79,-133.53"/>
<polygon fill="midnightblue" stroke="midnightblue" points="229.9,-204.73 239.94,-201.36 229.99,-197.73 229.9,-204.73"/>
</g>
<!-- Node19&#45;&gt;Node9 -->
<g id="edge25" class="edge">
<title>Node19&#45;&gt;Node9</title>
<path fill="none" stroke="midnightblue" d="M234.82,-186.74C222.15,-181.75 208,-176.18 196.34,-171.59"/>
<polygon fill="midnightblue" stroke="midnightblue" points="233.56,-190 244.15,-190.41 236.13,-183.49 233.56,-190"/>
</g>
<!-- Node20&#45;&gt;Node10 -->
<g id="edge28" class="edge">
<title>Node20&#45;&gt;Node10</title>
<path fill="none" stroke="midnightblue" d="M707.56,-77.29C697.58,-75.35 687.38,-73.38 678.63,-71.68"/>
<polygon fill="midnightblue" stroke="midnightblue" points="706.91,-80.73 717.4,-79.19 708.25,-73.85 706.91,-80.73"/>
</g>
<!-- Node21 -->
<g id="node21" class="node">
<title>Node21</title>
<g id="a_node21"><a xlink:href="vi_8h.html#a1924b949e033052323dd2153d88e6001" target="_top" xlink:title=" ">
<polygon fill="white" stroke="black" points="627,-152.5 627,-171.5 680,-171.5 680,-152.5 627,-152.5"/>
<text text-anchor="middle" x="653.5" y="-159.5" font-family="Helvetica,sans-Serif" font-size="10.00">led_read</text>
</a>
</g>
</g>
<!-- Node20&#45;&gt;Node21 -->
<g id="edge29" class="edge">
<title>Node20&#45;&gt;Node21</title>
<path fill="none" stroke="midnightblue" d="M732.03,-101.87C712.33,-117.15 683.18,-139.76 666.81,-152.45"/>
<polygon fill="midnightblue" stroke="midnightblue" points="734.33,-104.52 740.09,-95.63 730.04,-98.99 734.33,-104.52"/>
</g>
<!-- Node22 -->
<g id="node22" class="node">
<title>Node22</title>
<g id="a_node22"><a xlink:href="vi_8c.html#a7162c1758b29682a16b65bc9766309f4" target="_top" xlink:title=" ">
<polygon fill="white" stroke="black" points="341.5,-190.5 341.5,-209.5 389.5,-209.5 389.5,-190.5 341.5,-190.5"/>
<text text-anchor="middle" x="365.5" y="-197.5" font-family="Helvetica,sans-Serif" font-size="10.00">vi_char</text>
</a>
</g>
</g>
<!-- Node21&#45;&gt;Node22 -->
<g id="edge30" class="edge">
<title>Node21&#45;&gt;Node22</title>
<path fill="none" stroke="midnightblue" d="M616.82,-166.74C557.37,-174.64 439.68,-190.28 389.76,-196.91"/>
<polygon fill="midnightblue" stroke="midnightblue" points="617.42,-170.19 626.87,-165.41 616.49,-163.25 617.42,-170.19"/>
</g>
<!-- Node22&#45;&gt;Node19 -->
<g id="edge33" class="edge">
<title>Node22&#45;&gt;Node19</title>
<path fill="none" stroke="midnightblue" d="M331.22,-200C320.75,-200 309.3,-200 299.18,-200"/>
<polygon fill="midnightblue" stroke="midnightblue" points="331.26,-203.5 341.26,-200 331.26,-196.5 331.26,-203.5"/>
</g>
<!-- Node23 -->
<g id="node23" class="node">
<title>Node23</title>
<g id="a_node23"><a xlink:href="vi_8c.html#a3635843354dbb31e3c00efcd5798535a" target="_top" xlink:title=" ">
<polygon fill="white" stroke="black" points="139,-228.5 139,-247.5 203,-247.5 203,-228.5 139,-228.5"/>
<text text-anchor="middle" x="171" y="-235.5" font-family="Helvetica,sans-Serif" font-size="10.00">vc_replace</text>
</a>
</g>
</g>
<!-- Node22&#45;&gt;Node23 -->
<g id="edge31" class="edge">
<title>Node22&#45;&gt;Node23</title>
<path fill="none" stroke="midnightblue" d="M331.75,-210.61C321.65,-213.62 310.43,-216.7 300,-219 267.31,-226.2 229.31,-231.46 203.26,-234.59"/>
<polygon fill="midnightblue" stroke="midnightblue" points="332.88,-213.92 341.42,-207.65 330.83,-207.23 332.88,-213.92"/>
</g>
<!-- Node23&#45;&gt;Node6 -->
<g id="edge32" class="edge">
<title>Node23&#45;&gt;Node6</title>
<path fill="none" stroke="midnightblue" d="M147.22,-222.14C144.28,-219.6 141.44,-216.86 139,-214 116.98,-188.25 100.38,-151.15 93.28,-133.73"/>
<polygon fill="midnightblue" stroke="midnightblue" points="145.05,-224.89 155.06,-228.35 149.39,-219.4 145.05,-224.89"/>
</g>
</g>
</svg>
