<?xml version="1.0" encoding="UTF-8" standalone="no"?>
<!DOCTYPE svg PUBLIC "-//W3C//DTD SVG 1.1//EN"
 "http://www.w3.org/Graphics/SVG/1.1/DTD/svg11.dtd">
<!-- Generated by graphviz version 2.44.1 (20200629.0846)
 -->
<!-- Title: rnode_grp Pages: 1 -->
<!--zoomable 134 -->
<svg id="main" version="1.1" xmlns="http://www.w3.org/2000/svg" xmlns:xlink="http://www.w3.org/1999/xlink" xml:space="preserve" onload="init(evt)">
<style type="text/css"><![CDATA[
.edge:hover path { stroke: red; }
.edge:hover polygon { stroke: red; fill: red; }
]]></style>
<script type="text/javascript"><![CDATA[
var edges = document.getElementsByTagName('g');
if (edges && edges.length) {
  for (var i=0;i<edges.length;i++) {
    if (edges[i].id.substr(0,4)=='edge') {
      edges[i].setAttribute('class','edge');
    }
  }
}
]]></script>
        <defs>
                <circle id="rim" cx="0" cy="0" r="7"/>
                <circle id="rim2" cx="0" cy="0" r="3.5"/>
                <g id="zoomPlus">
                        <use xlink:href="#rim" fill="#404040">
                                <set attributeName="fill" to="#808080" begin="zoomplus.mouseover" end="zoomplus.mouseout"/>
                        </use>
                        <path d="M-4,0h8M0,-4v8" fill="none" stroke="white" stroke-width="1.5" pointer-events="none"/>
                </g>
                <g id="zoomMin">
                        <use xlink:href="#rim" fill="#404040">
                                <set attributeName="fill" to="#808080" begin="zoomminus.mouseover" end="zoomminus.mouseout"/>
                        </use>
                        <path d="M-4,0h8" fill="none" stroke="white" stroke-width="1.5" pointer-events="none"/>
                </g>
                <g id="dirArrow">
                        <path fill="none" stroke="white" stroke-width="1.5" d="M0,-3.0v7 M-2.5,-0.5L0,-3.0L2.5,-0.5"/>
                </g>
               <g id="resetDef">
                       <use xlink:href="#rim2" fill="#404040">
                               <set attributeName="fill" to="#808080" begin="reset.mouseover" end="reset.mouseout"/>
                       </use>
               </g>
        </defs>

<script type="text/javascript">
var viewWidth = 680;
var viewHeight = 134;
var sectionId = 'dynsection-19';
</script>
<script xlink:href="svgpan.js"/>
<svg id="graph" class="graph">
<g id="viewport">
<title>rnode_grp</title>
<polygon fill="white" stroke="transparent" points="-4,4 -4,-129.79 676,-129.79 676,4 -4,4"/>
<!-- Node1 -->
<g id="node1" class="node">
<title>Node1</title>
<g id="a_node1"><a xlink:title=" ">
<polygon fill="#bfbfbf" stroke="black" points="0,-49.29 0,-68.29 59,-68.29 59,-49.29 0,-49.29"/>
<text text-anchor="middle" x="29.5" y="-56.29" font-family="Helvetica,sans-Serif" font-size="10.00">rnode_grp</text>
</a>
</g>
</g>
<!-- Node2 -->
<g id="node2" class="node">
<title>Node2</title>
<g id="a_node2"><a xlink:href="regex_8c.html#aabe89a3a22bc0fdc0329cf29ec80ad76" target="_top" xlink:title=" ">
<polygon fill="white" stroke="black" points="407,-106.29 407,-125.29 469,-125.29 469,-106.29 407,-106.29"/>
<text text-anchor="middle" x="438" y="-113.29" font-family="Helvetica,sans-Serif" font-size="10.00">rnode_free</text>
</a>
</g>
</g>
<!-- Node1&#45;&gt;Node2 -->
<g id="edge1" class="edge">
<title>Node1&#45;&gt;Node2</title>
<path fill="none" stroke="midnightblue" d="M57.19,-68.33C68.69,-72.11 82.37,-76.17 95,-78.79 202.75,-101.1 332.55,-110.46 396.85,-113.95"/>
<polygon fill="midnightblue" stroke="midnightblue" points="396.79,-117.46 406.96,-114.48 397.16,-110.47 396.79,-117.46"/>
</g>
<!-- Node3 -->
<g id="node3" class="node">
<title>Node3</title>
<g id="a_node3"><a xlink:href="regex_8c.html#a39869d385d8410ffb9d5bf74c778c6ce" target="_top" xlink:title=" ">
<polygon fill="white" stroke="black" points="403,-11.29 403,-30.29 473,-30.29 473,-11.29 403,-11.29"/>
<text text-anchor="middle" x="438" y="-18.29" font-family="Helvetica,sans-Serif" font-size="10.00">rnode_make</text>
</a>
</g>
</g>
<!-- Node1&#45;&gt;Node3 -->
<g id="edge2" class="edge">
<title>Node1&#45;&gt;Node3</title>
<path fill="none" stroke="midnightblue" d="M43.02,-49.08C55.45,-40.04 75.43,-27.02 95,-20.79 197.56,11.9 326.39,-1.71 392.83,-12.44"/>
<polygon fill="midnightblue" stroke="midnightblue" points="392.51,-15.93 402.95,-14.12 393.66,-9.03 392.51,-15.93"/>
</g>
<!-- Node4 -->
<g id="node4" class="node">
<title>Node4</title>
<g id="a_node4"><a xlink:href="regex_8c.html#ac19329676c1426f2b24af24e33e3a845" target="_top" xlink:title=" ">
<polygon fill="white" stroke="black" points="95,-30.29 95,-49.29 165,-49.29 165,-30.29 95,-30.29"/>
<text text-anchor="middle" x="130" y="-37.29" font-family="Helvetica,sans-Serif" font-size="10.00">rnode_parse</text>
</a>
</g>
</g>
<!-- Node1&#45;&gt;Node4 -->
<g id="edge3" class="edge">
<title>Node1&#45;&gt;Node4</title>
<path fill="none" stroke="midnightblue" d="M59.26,-53.24C67.25,-51.7 76.13,-49.98 84.8,-48.31"/>
<polygon fill="midnightblue" stroke="midnightblue" points="85.65,-51.71 94.81,-46.38 84.33,-44.84 85.65,-51.71"/>
</g>
<!-- Node4&#45;&gt;Node3 -->
<g id="edge4" class="edge">
<title>Node4&#45;&gt;Node3</title>
<path fill="none" stroke="midnightblue" d="M159.26,-30.28C171.87,-26.52 187.02,-22.65 201,-20.79 267.26,-11.95 344.93,-14.38 392.54,-17.3"/>
<polygon fill="midnightblue" stroke="midnightblue" points="392.61,-20.81 402.81,-17.97 393.06,-13.83 392.61,-20.81"/>
</g>
<!-- Node5 -->
<g id="node5" class="node">
<title>Node5</title>
<g id="a_node5"><a xlink:href="regex_8c.html#abe0c1f4be43ac6d7caa4f95a560f823f" target="_top" xlink:title=" ">
<polygon fill="white" stroke="black" points="201,-30.29 201,-49.29 263,-49.29 263,-30.29 201,-30.29"/>
<text text-anchor="middle" x="232" y="-37.29" font-family="Helvetica,sans-Serif" font-size="10.00">rnode_seq</text>
</a>
</g>
</g>
<!-- Node4&#45;&gt;Node5 -->
<g id="edge5" class="edge">
<title>Node4&#45;&gt;Node5</title>
<path fill="none" stroke="midnightblue" d="M165.13,-39.79C173.34,-39.79 182.18,-39.79 190.64,-39.79"/>
<polygon fill="midnightblue" stroke="midnightblue" points="190.7,-43.29 200.7,-39.79 190.7,-36.29 190.7,-43.29"/>
</g>
<!-- Node5&#45;&gt;Node3 -->
<g id="edge14" class="edge">
<title>Node5&#45;&gt;Node3</title>
<path fill="none" stroke="midnightblue" d="M263.1,-36.98C297.29,-33.8 353.39,-28.57 392.6,-24.92"/>
<polygon fill="midnightblue" stroke="midnightblue" points="393.05,-28.39 402.68,-23.98 392.4,-21.42 393.05,-28.39"/>
</g>
<!-- Node6 -->
<g id="node6" class="node">
<title>Node6</title>
<g id="a_node6"><a xlink:href="regex_8c.html#a0df57dc0ee1beb9018cdd537a58571aa" target="_top" xlink:title=" ">
<polygon fill="white" stroke="black" points="299,-68.29 299,-87.29 367,-87.29 367,-68.29 299,-68.29"/>
<text text-anchor="middle" x="333" y="-75.29" font-family="Helvetica,sans-Serif" font-size="10.00">rnode_atom</text>
</a>
</g>
</g>
<!-- Node5&#45;&gt;Node6 -->
<g id="edge6" class="edge">
<title>Node5&#45;&gt;Node6</title>
<path fill="none" stroke="midnightblue" d="M257.98,-49.37C269.94,-53.97 284.45,-59.54 297.45,-64.52"/>
<polygon fill="midnightblue" stroke="midnightblue" points="296.44,-67.88 307.03,-68.2 298.94,-61.35 296.44,-67.88"/>
</g>
<!-- Node6&#45;&gt;Node1 -->
<g id="edge12" class="edge">
<title>Node6&#45;&gt;Node1</title>
<path fill="none" stroke="midnightblue" d="M298.55,-75.68C242.27,-72.13 128.95,-64.99 69.28,-61.23"/>
<polygon fill="midnightblue" stroke="midnightblue" points="69.34,-57.73 59.14,-60.59 68.9,-64.71 69.34,-57.73"/>
</g>
<!-- Node6&#45;&gt;Node2 -->
<g id="edge11" class="edge">
<title>Node6&#45;&gt;Node2</title>
<path fill="none" stroke="midnightblue" d="M359.99,-87.37C372.56,-92.01 387.83,-97.65 401.45,-102.67"/>
<polygon fill="midnightblue" stroke="midnightblue" points="400.42,-106.02 411.02,-106.2 402.85,-99.45 400.42,-106.02"/>
</g>
<!-- Node6&#45;&gt;Node3 -->
<g id="edge13" class="edge">
<title>Node6&#45;&gt;Node3</title>
<path fill="none" stroke="midnightblue" d="M351.47,-68.12C367.77,-59.1 392.31,-45.52 410.92,-35.22"/>
<polygon fill="midnightblue" stroke="midnightblue" points="412.73,-38.22 419.79,-30.31 409.34,-32.09 412.73,-38.22"/>
</g>
<!-- Node7 -->
<g id="node7" class="node">
<title>Node7</title>
<g id="a_node7"><a xlink:href="regex_8c.html#a8b5ae269a79b320da8e87712e2051d1c" target="_top" xlink:title=" ">
<polygon fill="white" stroke="black" points="405.5,-68.29 405.5,-87.29 470.5,-87.29 470.5,-68.29 405.5,-68.29"/>
<text text-anchor="middle" x="438" y="-75.29" font-family="Helvetica,sans-Serif" font-size="10.00">ratom_read</text>
</a>
</g>
</g>
<!-- Node6&#45;&gt;Node7 -->
<g id="edge7" class="edge">
<title>Node6&#45;&gt;Node7</title>
<path fill="none" stroke="midnightblue" d="M367.16,-77.79C376.04,-77.79 385.77,-77.79 395.07,-77.79"/>
<polygon fill="midnightblue" stroke="midnightblue" points="395.31,-81.29 405.31,-77.79 395.31,-74.29 395.31,-81.29"/>
</g>
<!-- Node8 -->
<g id="node8" class="node">
<title>Node8</title>
<g id="a_node8"><a xlink:href="regex_8c.html#a1904288a4b4c7b7d0666c3d85d438e1a" target="_top" xlink:title=" ">
<polygon fill="white" stroke="black" points="509,-87.29 509,-106.29 588,-106.29 588,-87.29 509,-87.29"/>
<text text-anchor="middle" x="548.5" y="-94.29" font-family="Helvetica,sans-Serif" font-size="10.00">ratom_readbrk</text>
</a>
</g>
</g>
<!-- Node7&#45;&gt;Node8 -->
<g id="edge8" class="edge">
<title>Node7&#45;&gt;Node8</title>
<path fill="none" stroke="midnightblue" d="M470.67,-83.33C479.4,-84.86 489.08,-86.56 498.54,-88.21"/>
<polygon fill="midnightblue" stroke="midnightblue" points="498.21,-91.71 508.66,-89.98 499.42,-84.81 498.21,-91.71"/>
</g>
<!-- Node10 -->
<g id="node10" class="node">
<title>Node10</title>
<g id="a_node10"><a xlink:href="regex_8c.html#a9a0d6d5f93f1eaba8b63b16903c0952d" target="_top" xlink:title=" ">
<polygon fill="white" stroke="black" points="526,-49.29 526,-68.29 571,-68.29 571,-49.29 526,-49.29"/>
<text text-anchor="middle" x="548.5" y="-56.29" font-family="Helvetica,sans-Serif" font-size="10.00">uc_len</text>
</a>
</g>
</g>
<!-- Node7&#45;&gt;Node10 -->
<g id="edge10" class="edge">
<title>Node7&#45;&gt;Node10</title>
<path fill="none" stroke="midnightblue" d="M470.67,-72.24C484.97,-69.74 501.81,-66.79 516.07,-64.29"/>
<polygon fill="midnightblue" stroke="midnightblue" points="516.69,-67.74 525.93,-62.56 515.48,-60.84 516.69,-67.74"/>
</g>
<!-- Node9 -->
<g id="node9" class="node">
<title>Node9</title>
<g id="a_node9"><a xlink:href="regex_8c.html#acc18ff8d2687611a9e221b3329b02413" target="_top" xlink:title=" ">
<polygon fill="white" stroke="black" points="624,-87.29 624,-106.29 672,-106.29 672,-87.29 624,-87.29"/>
<text text-anchor="middle" x="648" y="-94.29" font-family="Helvetica,sans-Serif" font-size="10.00">brk_len</text>
</a>
</g>
</g>
<!-- Node8&#45;&gt;Node9 -->
<g id="edge9" class="edge">
<title>Node8&#45;&gt;Node9</title>
<path fill="none" stroke="midnightblue" d="M588.03,-96.79C596.57,-96.79 605.54,-96.79 613.84,-96.79"/>
<polygon fill="midnightblue" stroke="midnightblue" points="613.9,-100.29 623.9,-96.79 613.9,-93.29 613.9,-100.29"/>
</g>
</g>
</svg>
        <g id="navigator" transform="translate(0 0)" fill="#404254">
                <rect fill="#f2f5e9" fill-opacity="0.5" stroke="#606060" stroke-width=".5" x="0" y="0" width="60" height="60"/>
                <use id="zoomplus" xlink:href="#zoomPlus" x="17" y="9" onmousedown="handleZoom(evt,'in')"/>
                <use id="zoomminus" xlink:href="#zoomMin" x="42" y="9" onmousedown="handleZoom(evt,'out')"/>
                <use id="reset" xlink:href="#resetDef" x="30" y="36" onmousedown="handleReset()"/>
                <g id="arrowUp" xlink:href="#dirArrow" transform="translate(30 24)" onmousedown="handlePan(0,-1)">
                  <use xlink:href="#rim" fill="#404040">
                        <set attributeName="fill" to="#808080" begin="arrowUp.mouseover" end="arrowUp.mouseout"/>
                  </use>
                  <path fill="none" stroke="white" stroke-width="1.5" d="M0,-3.0v7 M-2.5,-0.5L0,-3.0L2.5,-0.5"/>
                </g>
                <g id="arrowRight" xlink:href="#dirArrow" transform="rotate(90) translate(36 -43)" onmousedown="handlePan(1,0)">
                  <use xlink:href="#rim" fill="#404040">
                        <set attributeName="fill" to="#808080" begin="arrowRight.mouseover" end="arrowRight.mouseout"/>
                  </use>
                  <path fill="none" stroke="white" stroke-width="1.5" d="M0,-3.0v7 M-2.5,-0.5L0,-3.0L2.5,-0.5"/>
                </g>
                <g id="arrowDown" xlink:href="#dirArrow" transform="rotate(180) translate(-30 -48)" onmousedown="handlePan(0,1)">
                  <use xlink:href="#rim" fill="#404040">
                        <set attributeName="fill" to="#808080" begin="arrowDown.mouseover" end="arrowDown.mouseout"/>
                  </use>
                  <path fill="none" stroke="white" stroke-width="1.5" d="M0,-3.0v7 M-2.5,-0.5L0,-3.0L2.5,-0.5"/>
                </g>
                <g id="arrowLeft" xlink:href="#dirArrow" transform="rotate(270) translate(-36 17)" onmousedown="handlePan(-1,0)">
                  <use xlink:href="#rim" fill="#404040">
                        <set attributeName="fill" to="#808080" begin="arrowLeft.mouseover" end="arrowLeft.mouseout"/>
                  </use>
                  <path fill="none" stroke="white" stroke-width="1.5" d="M0,-3.0v7 M-2.5,-0.5L0,-3.0L2.5,-0.5"/>
                </g>
        </g>
        <svg viewBox="0 0 15 15" width="100%" height="30px" preserveAspectRatio="xMaxYMin meet">
         <g id="arrow_out" transform="scale(0.3 0.3)">
          <a xlink:href="regex_8c_aaeda19c8b3704252a342cdcc7fc3591c_cgraph_org.svg" target="_base">
           <rect id="button" ry="5" rx="5" y="6" x="6" height="38" width="38"
                fill="#f2f5e9" fill-opacity="0.5" stroke="#606060" stroke-width="1.0"/>
           <path id="arrow"
             d="M 11.500037,31.436501 C 11.940474,20.09759 22.043105,11.32322 32.158766,21.979434 L 37.068811,17.246167 C 37.068811,17.246167 37.088388,32 37.088388,32 L 22.160133,31.978069 C 22.160133,31.978069 26.997745,27.140456 26.997745,27.140456 C 18.528582,18.264221 13.291696,25.230495 11.500037,31.436501 z"
             style="fill:#404040;"/>
          </a>
         </g>
        </svg>
</svg>
