<?xml version="1.0" encoding="UTF-8" standalone="no"?>
<!DOCTYPE svg PUBLIC "-//W3C//DTD SVG 1.1//EN"
 "http://www.w3.org/Graphics/SVG/1.1/DTD/svg11.dtd">
<!-- Generated by graphviz version 2.44.1 (20200629.0846)
 -->
<!-- Title: rnode_parse Pages: 1 -->
<svg width="1351pt" height="630pt"
 viewBox="0.00 0.00 1351.00 629.90" xmlns="http://www.w3.org/2000/svg" xmlns:xlink="http://www.w3.org/1999/xlink">
<g id="graph0" class="graph" transform="scale(1 1) rotate(0) translate(4 625.9)">
<title>rnode_parse</title>
<polygon fill="white" stroke="transparent" points="-4,4 -4,-625.9 1347,-625.9 1347,4 -4,4"/>
<!-- Node1 -->
<g id="node1" class="node">
<title>Node1</title>
<g id="a_node1"><a xlink:title=" ">
<polygon fill="#bfbfbf" stroke="black" points="1273,-227.5 1273,-246.5 1343,-246.5 1343,-227.5 1273,-227.5"/>
<text text-anchor="middle" x="1308" y="-234.5" font-family="Helvetica,sans-Serif" font-size="10.00">rnode_parse</text>
</a>
</g>
</g>
<!-- Node2 -->
<g id="node2" class="node">
<title>Node2</title>
<g id="a_node2"><a xlink:href="regex_8h.html#a59fe05f85394b1aa81ef2ea67fa0ab49" target="_top" xlink:title=" ">
<polygon fill="white" stroke="black" points="1180.5,-303.5 1180.5,-322.5 1234.5,-322.5 1234.5,-303.5 1180.5,-303.5"/>
<text text-anchor="middle" x="1207.5" y="-310.5" font-family="Helvetica,sans-Serif" font-size="10.00">regcomp</text>
</a>
</g>
</g>
<!-- Node1&#45;&gt;Node2 -->
<g id="edge1" class="edge">
<title>Node1&#45;&gt;Node2</title>
<path fill="none" stroke="midnightblue" d="M1286.43,-252.87C1266.63,-268.15 1237.33,-290.76 1220.87,-303.45"/>
<polygon fill="midnightblue" stroke="midnightblue" points="1288.75,-255.51 1294.52,-246.63 1284.47,-249.96 1288.75,-255.51"/>
</g>
<!-- Node39 -->
<g id="node39" class="node">
<title>Node39</title>
<g id="a_node39"><a xlink:href="regex_8c.html#aaeda19c8b3704252a342cdcc7fc3591c" target="_top" xlink:title=" ">
<polygon fill="white" stroke="black" points="1178,-227.5 1178,-246.5 1237,-246.5 1237,-227.5 1178,-227.5"/>
<text text-anchor="middle" x="1207.5" y="-234.5" font-family="Helvetica,sans-Serif" font-size="10.00">rnode_grp</text>
</a>
</g>
</g>
<!-- Node1&#45;&gt;Node39 -->
<g id="edge53" class="edge">
<title>Node1&#45;&gt;Node39</title>
<path fill="none" stroke="midnightblue" d="M1262.75,-237C1254.03,-237 1245.09,-237 1237.06,-237"/>
<polygon fill="midnightblue" stroke="midnightblue" points="1262.83,-240.5 1272.83,-237 1262.83,-233.5 1262.83,-240.5"/>
</g>
<!-- Node3 -->
<g id="node3" class="node">
<title>Node3</title>
<g id="a_node3"><a xlink:href="vi_8h.html#a121f237bc2c9c9ef98fd8b3c590fc309" target="_top" xlink:title=" ">
<polygon fill="white" stroke="black" points="1077,-322.5 1077,-341.5 1139,-341.5 1139,-322.5 1077,-322.5"/>
<text text-anchor="middle" x="1108" y="-329.5" font-family="Helvetica,sans-Serif" font-size="10.00">rset_make</text>
</a>
</g>
</g>
<!-- Node2&#45;&gt;Node3 -->
<g id="edge2" class="edge">
<title>Node2&#45;&gt;Node3</title>
<path fill="none" stroke="midnightblue" d="M1170.48,-320.02C1160.25,-322.01 1149.21,-324.16 1139.35,-326.09"/>
<polygon fill="midnightblue" stroke="midnightblue" points="1171.23,-323.44 1180.37,-318.09 1169.89,-316.57 1171.23,-323.44"/>
</g>
<!-- Node4 -->
<g id="node4" class="node">
<title>Node4</title>
<g id="a_node4"><a xlink:href="vi_8h.html#a81435de4d45a78c51fd3f02c4326064f" target="_top" xlink:title=" ">
<polygon fill="white" stroke="black" points="785,-598.5 785,-617.5 830,-617.5 830,-598.5 785,-598.5"/>
<text text-anchor="middle" x="807.5" y="-605.5" font-family="Helvetica,sans-Serif" font-size="10.00">dir_init</text>
</a>
</g>
</g>
<!-- Node3&#45;&gt;Node4 -->
<g id="edge3" class="edge">
<title>Node3&#45;&gt;Node4</title>
<path fill="none" stroke="midnightblue" d="M1104.5,-351.52C1097.18,-405.26 1074.08,-553.37 1038,-584 977.99,-634.95 874.89,-621.82 830.2,-612.97"/>
<polygon fill="midnightblue" stroke="midnightblue" points="1107.97,-351.94 1105.81,-341.57 1101.03,-351.02 1107.97,-351.94"/>
</g>
<!-- Node6 -->
<g id="node6" class="node">
<title>Node6</title>
<g id="a_node6"><a xlink:href="ex_8c.html#a70c571bdde329a65e216c19b4aeaa628" target="_top" xlink:title=" ">
<polygon fill="white" stroke="black" points="559,-484.5 559,-503.5 609,-503.5 609,-484.5 559,-484.5"/>
<text text-anchor="middle" x="584" y="-491.5" font-family="Helvetica,sans-Serif" font-size="10.00">ec_glob</text>
</a>
</g>
</g>
<!-- Node3&#45;&gt;Node6 -->
<g id="edge5" class="edge">
<title>Node3&#45;&gt;Node6</title>
<path fill="none" stroke="midnightblue" d="M1101.2,-351.53C1082.99,-408.41 1021.23,-570 907.5,-570 907.5,-570 907.5,-570 806.5,-570 743.93,-570 725.31,-573.71 667,-551 638.24,-539.8 609.83,-516.62 595.19,-503.53"/>
<polygon fill="midnightblue" stroke="midnightblue" points="1104.65,-352.21 1104.27,-341.62 1097.97,-350.14 1104.65,-352.21"/>
</g>
<!-- Node13 -->
<g id="node13" class="node">
<title>Node13</title>
<g id="a_node13"><a xlink:href="ex_8c.html#aaf4e813ce4370aa859181d22de51576b" target="_top" xlink:title=" ">
<polygon fill="white" stroke="black" points="667,-522.5 667,-541.5 742,-541.5 742,-522.5 667,-522.5"/>
<text text-anchor="middle" x="704.5" y="-529.5" font-family="Helvetica,sans-Serif" font-size="10.00">ec_substitute</text>
</a>
</g>
</g>
<!-- Node3&#45;&gt;Node13 -->
<g id="edge16" class="edge">
<title>Node3&#45;&gt;Node13</title>
<path fill="none" stroke="midnightblue" d="M1081.31,-346.55C1068.4,-353.76 1052.46,-362.5 1038,-370 921.14,-430.6 778.22,-498.03 725.92,-522.49"/>
<polygon fill="midnightblue" stroke="midnightblue" points="1083.1,-349.55 1090.11,-341.61 1079.68,-343.45 1083.1,-349.55"/>
</g>
<!-- Node14 -->
<g id="node14" class="node">
<title>Node14</title>
<g id="a_node14"><a xlink:href="ex_8c.html#af441de070082a23574854f6a2e5cd08a" target="_top" xlink:title=" ">
<polygon fill="white" stroke="black" points="976,-341.5 976,-360.5 1038,-360.5 1038,-341.5 976,-341.5"/>
<text text-anchor="middle" x="1007" y="-348.5" font-family="Helvetica,sans-Serif" font-size="10.00">ex_search</text>
</a>
</g>
</g>
<!-- Node3&#45;&gt;Node14 -->
<g id="edge17" class="edge">
<title>Node3&#45;&gt;Node14</title>
<path fill="none" stroke="midnightblue" d="M1066.65,-339.74C1057.09,-341.58 1047.06,-343.5 1038.06,-345.23"/>
<polygon fill="midnightblue" stroke="midnightblue" points="1067.6,-343.13 1076.76,-337.8 1066.28,-336.25 1067.6,-343.13"/>
</g>
<!-- Node32 -->
<g id="node32" class="node">
<title>Node32</title>
<g id="a_node32"><a xlink:href="vi_8h.html#a3501f6f6f283556b872bd145c6129d37" target="_top" xlink:title=" ">
<polygon fill="white" stroke="black" points="873,-270.5 873,-289.5 940,-289.5 940,-270.5 873,-270.5"/>
<text text-anchor="middle" x="906.5" y="-277.5" font-family="Helvetica,sans-Serif" font-size="10.00">lbuf_search</text>
</a>
</g>
</g>
<!-- Node3&#45;&gt;Node32 -->
<g id="edge42" class="edge">
<title>Node3&#45;&gt;Node32</title>
<path fill="none" stroke="midnightblue" d="M1066.68,-321.49C1029.39,-311.77 974.67,-297.51 940.08,-288.49"/>
<polygon fill="midnightblue" stroke="midnightblue" points="1066.14,-324.97 1076.7,-324.1 1067.91,-318.19 1066.14,-324.97"/>
</g>
<!-- Node37 -->
<g id="node37" class="node">
<title>Node37</title>
<g id="a_node37"><a xlink:href="vi_8h.html#a5ca5f67cbe20ba50389c586990d3582c" target="_top" xlink:title=" ">
<polygon fill="white" stroke="black" points="881.5,-227.5 881.5,-246.5 931.5,-246.5 931.5,-227.5 881.5,-227.5"/>
<text text-anchor="middle" x="906.5" y="-234.5" font-family="Helvetica,sans-Serif" font-size="10.00">syn_init</text>
</a>
</g>
</g>
<!-- Node3&#45;&gt;Node37 -->
<g id="edge49" class="edge">
<title>Node3&#45;&gt;Node37</title>
<path fill="none" stroke="midnightblue" d="M1081.7,-317.34C1068.78,-310.04 1052.71,-301.24 1038,-294 1001.4,-275.98 957.77,-257.51 931.37,-246.65"/>
<polygon fill="midnightblue" stroke="midnightblue" points="1080.07,-320.44 1090.49,-322.35 1083.54,-314.36 1080.07,-320.44"/>
</g>
<!-- Node38 -->
<g id="node38" class="node">
<title>Node38</title>
<g id="a_node38"><a xlink:href="syn_8c.html#a6e5fc3b0777302300322f64f2c7f0142" target="_top" xlink:title=" ">
<polygon fill="white" stroke="black" points="979,-227.5 979,-246.5 1035,-246.5 1035,-227.5 979,-227.5"/>
<text text-anchor="middle" x="1007" y="-234.5" font-family="Helvetica,sans-Serif" font-size="10.00">syn_initft</text>
</a>
</g>
</g>
<!-- Node3&#45;&gt;Node38 -->
<g id="edge51" class="edge">
<title>Node3&#45;&gt;Node38</title>
<path fill="none" stroke="midnightblue" d="M1091.63,-315.03C1078.01,-300.26 1057.33,-278.55 1038,-261 1032.57,-256.07 1026.27,-250.94 1020.84,-246.7"/>
<polygon fill="midnightblue" stroke="midnightblue" points="1089.09,-317.43 1098.42,-322.44 1094.25,-312.7 1089.09,-317.43"/>
</g>
<!-- Node5 -->
<g id="node5" class="node">
<title>Node5</title>
<g id="a_node5"><a xlink:href="vi_8c.html#a0ddf1224851353fc92bfbff6f499fa97" target="_top" xlink:title=" ">
<polygon fill="white" stroke="black" points="0,-180.5 0,-199.5 38,-199.5 38,-180.5 0,-180.5"/>
<text text-anchor="middle" x="19" y="-187.5" font-family="Helvetica,sans-Serif" font-size="10.00">main</text>
</a>
</g>
</g>
<!-- Node4&#45;&gt;Node5 -->
<g id="edge4" class="edge">
<title>Node4&#45;&gt;Node5</title>
<path fill="none" stroke="midnightblue" d="M774.67,-608C731.65,-608 652.53,-608 585,-608 585,-608 585,-608 191.5,-608 100.12,-608 33.01,-261.74 21.69,-199.52"/>
<polygon fill="midnightblue" stroke="midnightblue" points="774.81,-611.5 784.81,-608 774.81,-604.5 774.81,-611.5"/>
</g>
<!-- Node7 -->
<g id="node7" class="node">
<title>Node7</title>
<g id="a_node7"><a xlink:href="ex_8c.html#a7d848d20211b2e1c868dde98ec5dfae9" target="_top" xlink:title=" ">
<polygon fill="white" stroke="black" points="361.5,-484.5 361.5,-503.5 408.5,-503.5 408.5,-484.5 361.5,-484.5"/>
<text text-anchor="middle" x="385" y="-491.5" font-family="Helvetica,sans-Serif" font-size="10.00">ex_line</text>
</a>
</g>
</g>
<!-- Node6&#45;&gt;Node7 -->
<g id="edge6" class="edge">
<title>Node6&#45;&gt;Node7</title>
<path fill="none" stroke="midnightblue" d="M548.7,-494C508.44,-494 442.84,-494 408.53,-494"/>
<polygon fill="midnightblue" stroke="midnightblue" points="548.84,-497.5 558.84,-494 548.84,-490.5 548.84,-497.5"/>
</g>
<!-- Node8 -->
<g id="node8" class="node">
<title>Node8</title>
<g id="a_node8"><a xlink:href="ex_8c.html#ab15ebfef933256d9741128e2ddf3f9b5" target="_top" xlink:title=" ">
<polygon fill="white" stroke="black" points="269,-446.5 269,-465.5 322,-465.5 322,-446.5 269,-446.5"/>
<text text-anchor="middle" x="295.5" y="-453.5" font-family="Helvetica,sans-Serif" font-size="10.00">ex_exec</text>
</a>
</g>
</g>
<!-- Node7&#45;&gt;Node8 -->
<g id="edge7" class="edge">
<title>Node7&#45;&gt;Node8</title>
<path fill="none" stroke="midnightblue" d="M352.44,-480.29C341.22,-475.42 328.83,-470.04 318.57,-465.59"/>
<polygon fill="midnightblue" stroke="midnightblue" points="351.35,-483.64 361.92,-484.41 354.14,-477.22 351.35,-483.64"/>
</g>
<!-- Node8&#45;&gt;Node6 -->
<g id="edge8" class="edge">
<title>Node8&#45;&gt;Node6</title>
<path fill="none" stroke="midnightblue" d="M332.08,-460.72C391.13,-468.55 507.89,-484.04 558.57,-490.76"/>
<polygon fill="midnightblue" stroke="midnightblue" points="332.47,-457.24 322.09,-459.39 331.55,-464.18 332.47,-457.24"/>
</g>
<!-- Node9 -->
<g id="node9" class="node">
<title>Node9</title>
<g id="a_node9"><a xlink:href="vi_8h.html#aa75c73cccb4878ec06ea5bf5b1b02295" target="_top" xlink:title=" ">
<polygon fill="white" stroke="black" points="155,-218.5 155,-237.5 230,-237.5 230,-218.5 155,-218.5"/>
<text text-anchor="middle" x="192.5" y="-225.5" font-family="Helvetica,sans-Serif" font-size="10.00">ex_command</text>
</a>
</g>
</g>
<!-- Node8&#45;&gt;Node9 -->
<g id="edge9" class="edge">
<title>Node8&#45;&gt;Node9</title>
<path fill="none" stroke="midnightblue" d="M286.21,-437.29C265.68,-390.95 213.03,-272.09 197.73,-237.55"/>
<polygon fill="midnightblue" stroke="midnightblue" points="283.04,-438.77 290.29,-446.49 289.44,-435.93 283.04,-438.77"/>
</g>
<!-- Node10 -->
<g id="node10" class="node">
<title>Node10</title>
<g id="a_node10"><a xlink:href="vi_8h.html#ac395e51f25330a6e6033b6d0d22b2076" target="_top" xlink:title=" ">
<polygon fill="white" stroke="black" points="82,-218.5 82,-237.5 111,-237.5 111,-218.5 82,-218.5"/>
<text text-anchor="middle" x="96.5" y="-225.5" font-family="Helvetica,sans-Serif" font-size="10.00">ex</text>
</a>
</g>
</g>
<!-- Node9&#45;&gt;Node10 -->
<g id="edge10" class="edge">
<title>Node9&#45;&gt;Node10</title>
<path fill="none" stroke="midnightblue" d="M144.73,-228C132.54,-228 120.33,-228 111.38,-228"/>
<polygon fill="midnightblue" stroke="midnightblue" points="144.89,-231.5 154.89,-228 144.89,-224.5 144.89,-231.5"/>
</g>
<!-- Node11 -->
<g id="node11" class="node">
<title>Node11</title>
<g id="a_node11"><a xlink:href="vi_8h.html#abe53b5c10f94f20cd5ed024371615fa1" target="_top" xlink:title=" ">
<polygon fill="white" stroke="black" points="74,-180.5 74,-199.5 119,-199.5 119,-180.5 74,-180.5"/>
<text text-anchor="middle" x="96.5" y="-187.5" font-family="Helvetica,sans-Serif" font-size="10.00">ex_init</text>
</a>
</g>
</g>
<!-- Node9&#45;&gt;Node11 -->
<g id="edge12" class="edge">
<title>Node9&#45;&gt;Node11</title>
<path fill="none" stroke="midnightblue" d="M158.25,-214.56C145.31,-209.33 130.85,-203.48 119.28,-198.8"/>
<polygon fill="midnightblue" stroke="midnightblue" points="157.2,-217.91 167.78,-218.41 159.82,-211.42 157.2,-217.91"/>
</g>
<!-- Node12 -->
<g id="node12" class="node">
<title>Node12</title>
<g id="a_node12"><a xlink:href="vi_8c.html#a8d808e0f3453afe6600673ee1ea5f828" target="_top" xlink:title=" ">
<polygon fill="white" stroke="black" points="82,-142.5 82,-161.5 111,-161.5 111,-142.5 82,-142.5"/>
<text text-anchor="middle" x="96.5" y="-149.5" font-family="Helvetica,sans-Serif" font-size="10.00">vi</text>
</a>
</g>
</g>
<!-- Node9&#45;&gt;Node12 -->
<g id="edge14" class="edge">
<title>Node9&#45;&gt;Node12</title>
<path fill="none" stroke="midnightblue" d="M171.61,-211.92C152.72,-196.65 124.94,-174.18 109.31,-161.55"/>
<polygon fill="midnightblue" stroke="midnightblue" points="169.62,-214.81 179.59,-218.37 174.02,-209.37 169.62,-214.81"/>
</g>
<!-- Node10&#45;&gt;Node5 -->
<g id="edge11" class="edge">
<title>Node10&#45;&gt;Node5</title>
<path fill="none" stroke="midnightblue" d="M72.56,-216.45C61.48,-210.88 48.39,-204.29 38.04,-199.08"/>
<polygon fill="midnightblue" stroke="midnightblue" points="71.15,-219.66 81.65,-221.03 74.29,-213.41 71.15,-219.66"/>
</g>
<!-- Node11&#45;&gt;Node5 -->
<g id="edge13" class="edge">
<title>Node11&#45;&gt;Node5</title>
<path fill="none" stroke="midnightblue" d="M63.55,-190C54.99,-190 46.03,-190 38.47,-190"/>
<polygon fill="midnightblue" stroke="midnightblue" points="63.66,-193.5 73.66,-190 63.66,-186.5 63.66,-193.5"/>
</g>
<!-- Node12&#45;&gt;Node5 -->
<g id="edge15" class="edge">
<title>Node12&#45;&gt;Node5</title>
<path fill="none" stroke="midnightblue" d="M72.56,-163.55C61.48,-169.12 48.39,-175.71 38.04,-180.92"/>
<polygon fill="midnightblue" stroke="midnightblue" points="74.29,-166.59 81.65,-158.97 71.15,-160.34 74.29,-166.59"/>
</g>
<!-- Node15 -->
<g id="node15" class="node">
<title>Node15</title>
<g id="a_node15"><a xlink:href="ex_8c.html#a18295939fcd9d9ef517157b0f4ff5f97" target="_top" xlink:title=" ">
<polygon fill="white" stroke="black" points="877.5,-322.5 877.5,-341.5 935.5,-341.5 935.5,-322.5 877.5,-322.5"/>
<text text-anchor="middle" x="906.5" y="-329.5" font-family="Helvetica,sans-Serif" font-size="10.00">ex_lineno</text>
</a>
</g>
</g>
<!-- Node14&#45;&gt;Node15 -->
<g id="edge18" class="edge">
<title>Node14&#45;&gt;Node15</title>
<path fill="none" stroke="midnightblue" d="M966.01,-343.29C955.85,-341.33 945.15,-339.26 935.72,-337.44"/>
<polygon fill="midnightblue" stroke="midnightblue" points="965.43,-346.74 975.91,-345.2 966.76,-339.87 965.43,-346.74"/>
</g>
<!-- Node16 -->
<g id="node16" class="node">
<title>Node16</title>
<g id="a_node16"><a xlink:href="ex_8c.html#a0389d594366ccbd24d732bdfd870f763" target="_top" xlink:title=" ">
<polygon fill="white" stroke="black" points="778,-313.5 778,-332.5 837,-332.5 837,-313.5 778,-313.5"/>
<text text-anchor="middle" x="807.5" y="-320.5" font-family="Helvetica,sans-Serif" font-size="10.00">ex_region</text>
</a>
</g>
</g>
<!-- Node15&#45;&gt;Node16 -->
<g id="edge19" class="edge">
<title>Node15&#45;&gt;Node16</title>
<path fill="none" stroke="midnightblue" d="M867.29,-328.45C857.25,-327.52 846.6,-326.54 837.17,-325.66"/>
<polygon fill="midnightblue" stroke="midnightblue" points="867.16,-331.96 877.44,-329.4 867.81,-324.99 867.16,-331.96"/>
</g>
<!-- Node16&#45;&gt;Node6 -->
<g id="edge23" class="edge">
<title>Node16&#45;&gt;Node6</title>
<path fill="none" stroke="midnightblue" d="M804.3,-343.17C799.5,-376.55 784.83,-442.78 742,-475 703.06,-504.3 642.64,-502.1 609.25,-498"/>
<polygon fill="midnightblue" stroke="midnightblue" points="807.83,-343.21 805.62,-332.85 800.88,-342.32 807.83,-343.21"/>
</g>
<!-- Node16&#45;&gt;Node13 -->
<g id="edge32" class="edge">
<title>Node16&#45;&gt;Node13</title>
<path fill="none" stroke="midnightblue" d="M803.81,-343.16C798.09,-379.5 781.82,-456.93 742,-508 737.52,-513.74 731.27,-518.55 725.2,-522.32"/>
<polygon fill="midnightblue" stroke="midnightblue" points="807.33,-343.29 805.31,-332.89 800.4,-342.28 807.33,-343.29"/>
</g>
<!-- Node17 -->
<g id="node17" class="node">
<title>Node17</title>
<g id="a_node17"><a xlink:href="ex_8c.html#a4cd0748447515b7a935e4bb41424a9e4" target="_top" xlink:title=" ">
<polygon fill="white" stroke="black" points="675,-446.5 675,-465.5 734,-465.5 734,-446.5 675,-446.5"/>
<text text-anchor="middle" x="704.5" y="-453.5" font-family="Helvetica,sans-Serif" font-size="10.00">ec_delete</text>
</a>
</g>
</g>
<!-- Node16&#45;&gt;Node17 -->
<g id="edge20" class="edge">
<title>Node16&#45;&gt;Node17</title>
<path fill="none" stroke="midnightblue" d="M798.44,-342.14C787.97,-365.37 767.93,-404.82 742,-432 736.66,-437.6 729.78,-442.54 723.44,-446.47"/>
<polygon fill="midnightblue" stroke="midnightblue" points="801.77,-343.27 802.57,-332.71 795.35,-340.47 801.77,-343.27"/>
</g>
<!-- Node18 -->
<g id="node18" class="node">
<title>Node18</title>
<g id="a_node18"><a xlink:href="ex_8c.html#adcd83f163f659bd2596bcfc25d74bde9" target="_top" xlink:title=" ">
<polygon fill="white" stroke="black" points="446.5,-408.5 446.5,-427.5 499.5,-427.5 499.5,-408.5 446.5,-408.5"/>
<text text-anchor="middle" x="473" y="-415.5" font-family="Helvetica,sans-Serif" font-size="10.00">ec_exec</text>
</a>
</g>
</g>
<!-- Node16&#45;&gt;Node18 -->
<g id="edge21" class="edge">
<title>Node16&#45;&gt;Node18</title>
<path fill="none" stroke="midnightblue" d="M796.58,-341.66C785.79,-359.82 766.75,-386.46 742,-399 661.49,-439.79 549.57,-429.77 499.73,-422.45"/>
<polygon fill="midnightblue" stroke="midnightblue" points="799.83,-343.02 801.7,-332.59 793.73,-339.57 799.83,-343.02"/>
</g>
<!-- Node19 -->
<g id="node19" class="node">
<title>Node19</title>
<g id="a_node19"><a xlink:href="ex_8c.html#a0908784dc65be2da119a6b72ef96dec2" target="_top" xlink:title=" ">
<polygon fill="white" stroke="black" points="676.5,-370.5 676.5,-389.5 732.5,-389.5 732.5,-370.5 676.5,-370.5"/>
<text text-anchor="middle" x="704.5" y="-377.5" font-family="Helvetica,sans-Serif" font-size="10.00">ec_insert</text>
</a>
</g>
</g>
<!-- Node16&#45;&gt;Node19 -->
<g id="edge24" class="edge">
<title>Node16&#45;&gt;Node19</title>
<path fill="none" stroke="midnightblue" d="M782.15,-337.75C770.15,-344.92 755.41,-353.57 742,-361 736.38,-364.12 730.2,-367.39 724.54,-370.33"/>
<polygon fill="midnightblue" stroke="midnightblue" points="783.96,-340.75 790.73,-332.6 780.35,-334.75 783.96,-340.75"/>
</g>
<!-- Node20 -->
<g id="node20" class="node">
<title>Node20</title>
<g id="a_node20"><a xlink:href="ex_8c.html#a1d45a70b724f4cccae2ab746c711ebb1" target="_top" xlink:title=" ">
<polygon fill="white" stroke="black" points="678,-332.5 678,-351.5 731,-351.5 731,-332.5 678,-332.5"/>
<text text-anchor="middle" x="704.5" y="-339.5" font-family="Helvetica,sans-Serif" font-size="10.00">ec_lnum</text>
</a>
</g>
</g>
<!-- Node16&#45;&gt;Node20 -->
<g id="edge25" class="edge">
<title>Node16&#45;&gt;Node20</title>
<path fill="none" stroke="midnightblue" d="M767.81,-330.28C755.53,-332.59 742.27,-335.08 731.14,-337.18"/>
<polygon fill="midnightblue" stroke="midnightblue" points="768.65,-333.68 777.83,-328.39 767.35,-326.8 768.65,-333.68"/>
</g>
<!-- Node21 -->
<g id="node21" class="node">
<title>Node21</title>
<g id="a_node21"><a xlink:href="ex_8c.html#ab95c9f0f009989c44f3ebb5abae4054d" target="_top" xlink:title=" ">
<polygon fill="white" stroke="black" points="677.5,-294.5 677.5,-313.5 731.5,-313.5 731.5,-294.5 677.5,-294.5"/>
<text text-anchor="middle" x="704.5" y="-301.5" font-family="Helvetica,sans-Serif" font-size="10.00">ec_mark</text>
</a>
</g>
</g>
<!-- Node16&#45;&gt;Node21 -->
<g id="edge26" class="edge">
<title>Node16&#45;&gt;Node21</title>
<path fill="none" stroke="midnightblue" d="M767.98,-315.75C755.9,-313.48 742.85,-311.03 731.82,-308.95"/>
<polygon fill="midnightblue" stroke="midnightblue" points="767.35,-319.2 777.83,-317.61 768.65,-312.32 767.35,-319.2"/>
</g>
<!-- Node22 -->
<g id="node22" class="node">
<title>Node22</title>
<g id="a_node22"><a xlink:href="ex_8c.html#affb8197a8f988443aadf1bf2800a0d0b" target="_top" xlink:title=" ">
<polygon fill="white" stroke="black" points="560.5,-237.5 560.5,-256.5 607.5,-256.5 607.5,-237.5 560.5,-237.5"/>
<text text-anchor="middle" x="584" y="-244.5" font-family="Helvetica,sans-Serif" font-size="10.00">ec_null</text>
</a>
</g>
</g>
<!-- Node16&#45;&gt;Node22 -->
<g id="edge27" class="edge">
<title>Node16&#45;&gt;Node22</title>
<path fill="none" stroke="midnightblue" d="M784.28,-307.69C772.21,-299.97 756.78,-290.99 742,-285 696.12,-266.41 638.88,-255.39 607.75,-250.34"/>
<polygon fill="midnightblue" stroke="midnightblue" points="782.5,-310.72 792.78,-313.29 786.35,-304.87 782.5,-310.72"/>
</g>
<!-- Node23 -->
<g id="node23" class="node">
<title>Node23</title>
<g id="a_node23"><a xlink:href="ex_8c.html#ad2c1a9505aa3097bac242b47a367f11d" target="_top" xlink:title=" ">
<polygon fill="white" stroke="black" points="679,-218.5 679,-237.5 730,-237.5 730,-218.5 679,-218.5"/>
<text text-anchor="middle" x="704.5" y="-225.5" font-family="Helvetica,sans-Serif" font-size="10.00">ec_print</text>
</a>
</g>
</g>
<!-- Node16&#45;&gt;Node23 -->
<g id="edge28" class="edge">
<title>Node16&#45;&gt;Node23</title>
<path fill="none" stroke="midnightblue" d="M786.03,-306.7C783.24,-304.21 780.49,-301.61 778,-299 759.83,-279.97 761.26,-269.92 742,-252 736.23,-246.63 729.12,-241.66 722.72,-237.65"/>
<polygon fill="midnightblue" stroke="midnightblue" points="783.89,-309.47 793.77,-313.28 788.42,-304.14 783.89,-309.47"/>
</g>
<!-- Node24 -->
<g id="node24" class="node">
<title>Node24</title>
<g id="a_node24"><a xlink:href="ex_8c.html#ab417867ff867aff9f7277229990cd1b8" target="_top" xlink:title=" ">
<polygon fill="white" stroke="black" points="681.5,-180.5 681.5,-199.5 727.5,-199.5 727.5,-180.5 681.5,-180.5"/>
<text text-anchor="middle" x="704.5" y="-187.5" font-family="Helvetica,sans-Serif" font-size="10.00">ec_put</text>
</a>
</g>
</g>
<!-- Node16&#45;&gt;Node24 -->
<g id="edge30" class="edge">
<title>Node16&#45;&gt;Node24</title>
<path fill="none" stroke="midnightblue" d="M784.8,-306.76C782.32,-304.34 779.97,-301.73 778,-299 752.77,-264.08 770.91,-240.94 742,-209 738.07,-204.66 732.91,-201.15 727.72,-198.38"/>
<polygon fill="midnightblue" stroke="midnightblue" points="782.62,-309.5 792.46,-313.43 787.22,-304.22 782.62,-309.5"/>
</g>
<!-- Node25 -->
<g id="node25" class="node">
<title>Node25</title>
<g id="a_node25"><a xlink:href="ex_8c.html#add0e79e1f1e3d45f4eaa6fbe5c1ca443" target="_top" xlink:title=" ">
<polygon fill="white" stroke="black" points="679,-142.5 679,-161.5 730,-161.5 730,-142.5 679,-142.5"/>
<text text-anchor="middle" x="704.5" y="-149.5" font-family="Helvetica,sans-Serif" font-size="10.00">ec_read</text>
</a>
</g>
</g>
<!-- Node16&#45;&gt;Node25 -->
<g id="edge31" class="edge">
<title>Node16&#45;&gt;Node25</title>
<path fill="none" stroke="midnightblue" d="M783.94,-306.36C781.72,-304.07 779.68,-301.6 778,-299 745.98,-249.33 779.27,-216.86 742,-171 738.85,-167.12 734.69,-163.94 730.31,-161.37"/>
<polygon fill="midnightblue" stroke="midnightblue" points="782.06,-309.37 791.85,-313.41 786.72,-304.15 782.06,-309.37"/>
</g>
<!-- Node26 -->
<g id="node26" class="node">
<title>Node26</title>
<g id="a_node26"><a xlink:href="ex_8c.html#a057b67e2d4f23df3ad50a9d3ec86125b" target="_top" xlink:title=" ">
<polygon fill="white" stroke="black" points="678,-104.5 678,-123.5 731,-123.5 731,-104.5 678,-104.5"/>
<text text-anchor="middle" x="704.5" y="-111.5" font-family="Helvetica,sans-Serif" font-size="10.00">ec_write</text>
</a>
</g>
</g>
<!-- Node16&#45;&gt;Node26 -->
<g id="edge33" class="edge">
<title>Node16&#45;&gt;Node26</title>
<path fill="none" stroke="midnightblue" d="M783.65,-306.32C781.51,-304.05 779.56,-301.6 778,-299 739.04,-234.34 787.82,-193 742,-133 739.14,-129.25 735.33,-126.17 731.24,-123.67"/>
<polygon fill="midnightblue" stroke="midnightblue" points="781.6,-309.19 791.37,-313.3 786.3,-303.99 781.6,-309.19"/>
</g>
<!-- Node31 -->
<g id="node31" class="node">
<title>Node31</title>
<g id="a_node31"><a xlink:href="ex_8c.html#a487b22f0ae712d3338f5e9d8d6fa8540" target="_top" xlink:title=" ">
<polygon fill="white" stroke="black" points="678,-66.5 678,-85.5 731,-85.5 731,-66.5 678,-66.5"/>
<text text-anchor="middle" x="704.5" y="-73.5" font-family="Helvetica,sans-Serif" font-size="10.00">ec_yank</text>
</a>
</g>
</g>
<!-- Node16&#45;&gt;Node31 -->
<g id="edge41" class="edge">
<title>Node16&#45;&gt;Node31</title>
<path fill="none" stroke="midnightblue" d="M783.55,-306.38C781.43,-304.1 779.51,-301.63 778,-299 732.03,-219.23 796.45,-169.24 742,-95 739.21,-91.2 735.44,-88.09 731.36,-85.58"/>
<polygon fill="midnightblue" stroke="midnightblue" points="781.49,-309.24 791.25,-313.37 786.2,-304.06 781.49,-309.24"/>
</g>
<!-- Node18&#45;&gt;Node7 -->
<g id="edge22" class="edge">
<title>Node18&#45;&gt;Node7</title>
<path fill="none" stroke="midnightblue" d="M453.34,-434.49C436.06,-449.76 410.97,-471.93 396.8,-484.45"/>
<polygon fill="midnightblue" stroke="midnightblue" points="455.93,-436.87 461.11,-427.63 451.3,-431.62 455.93,-436.87"/>
</g>
<!-- Node23&#45;&gt;Node22 -->
<g id="edge29" class="edge">
<title>Node23&#45;&gt;Node22</title>
<path fill="none" stroke="midnightblue" d="M669.05,-233.52C649.23,-236.7 624.89,-240.6 607.52,-243.39"/>
<polygon fill="midnightblue" stroke="midnightblue" points="669.63,-236.98 678.95,-231.94 668.52,-230.06 669.63,-236.98"/>
</g>
<!-- Node27 -->
<g id="node27" class="node">
<title>Node27</title>
<g id="a_node27"><a xlink:href="ex_8c.html#ab0cb848a971a3b2c09fcb456d887dd6b" target="_top" xlink:title=" ">
<polygon fill="white" stroke="black" points="537,-142.5 537,-161.5 631,-161.5 631,-142.5 537,-142.5"/>
<text text-anchor="middle" x="584" y="-149.5" font-family="Helvetica,sans-Serif" font-size="10.00">ex_modifiedbuffer</text>
</a>
</g>
</g>
<!-- Node26&#45;&gt;Node27 -->
<g id="edge34" class="edge">
<title>Node26&#45;&gt;Node27</title>
<path fill="none" stroke="midnightblue" d="M668.2,-125.32C651.21,-130.77 631.06,-137.23 614.85,-142.43"/>
<polygon fill="midnightblue" stroke="midnightblue" points="669.33,-128.63 677.79,-122.25 667.2,-121.97 669.33,-128.63"/>
</g>
<!-- Node27&#45;&gt;Node18 -->
<g id="edge37" class="edge">
<title>Node27&#45;&gt;Node18</title>
<path fill="none" stroke="midnightblue" d="M570.33,-170.28C560.33,-185.29 546.52,-207.36 537,-228 506.43,-294.27 483.62,-379.67 476.41,-408.22"/>
<polygon fill="midnightblue" stroke="midnightblue" points="573.28,-172.17 575.99,-161.92 567.49,-168.24 573.28,-172.17"/>
</g>
<!-- Node28 -->
<g id="node28" class="node">
<title>Node28</title>
<g id="a_node28"><a xlink:href="ex_8c.html#a8059390ad69866fa8e14bdb2521d4dc2" target="_top" xlink:title=" ">
<polygon fill="white" stroke="black" points="361,-180.5 361,-199.5 409,-199.5 409,-180.5 361,-180.5"/>
<text text-anchor="middle" x="385" y="-187.5" font-family="Helvetica,sans-Serif" font-size="10.00">ec_edit</text>
</a>
</g>
</g>
<!-- Node27&#45;&gt;Node28 -->
<g id="edge35" class="edge">
<title>Node27&#45;&gt;Node28</title>
<path fill="none" stroke="midnightblue" d="M534.13,-163.86C523.25,-166.35 511.76,-168.87 501,-171 469.44,-177.26 432.72,-183.07 409.43,-186.58"/>
<polygon fill="midnightblue" stroke="midnightblue" points="534.95,-167.27 543.9,-161.6 533.37,-160.45 534.95,-167.27"/>
</g>
<!-- Node29 -->
<g id="node29" class="node">
<title>Node29</title>
<g id="a_node29"><a xlink:href="ex_8c.html#aa69f426ff9728078fbb36f448c624a90" target="_top" xlink:title=" ">
<polygon fill="white" stroke="black" points="445,-142.5 445,-161.5 501,-161.5 501,-142.5 445,-142.5"/>
<text text-anchor="middle" x="473" y="-149.5" font-family="Helvetica,sans-Serif" font-size="10.00">ec_make</text>
</a>
</g>
</g>
<!-- Node27&#45;&gt;Node29 -->
<g id="edge38" class="edge">
<title>Node27&#45;&gt;Node29</title>
<path fill="none" stroke="midnightblue" d="M526.7,-152C517.76,-152 508.89,-152 501.04,-152"/>
<polygon fill="midnightblue" stroke="midnightblue" points="526.77,-155.5 536.77,-152 526.77,-148.5 526.77,-155.5"/>
</g>
<!-- Node30 -->
<g id="node30" class="node">
<title>Node30</title>
<g id="a_node30"><a xlink:href="ex_8c.html#a87eef446de152fad41ce88a9a343b87d" target="_top" xlink:title=" ">
<polygon fill="white" stroke="black" points="449,-104.5 449,-123.5 497,-123.5 497,-104.5 449,-104.5"/>
<text text-anchor="middle" x="473" y="-111.5" font-family="Helvetica,sans-Serif" font-size="10.00">ec_quit</text>
</a>
</g>
</g>
<!-- Node27&#45;&gt;Node30 -->
<g id="edge39" class="edge">
<title>Node27&#45;&gt;Node30</title>
<path fill="none" stroke="midnightblue" d="M545.79,-139.03C529.63,-133.39 511.21,-126.97 497.07,-122.04"/>
<polygon fill="midnightblue" stroke="midnightblue" points="544.9,-142.42 555.49,-142.41 547.2,-135.81 544.9,-142.42"/>
</g>
<!-- Node28&#45;&gt;Node11 -->
<g id="edge36" class="edge">
<title>Node28&#45;&gt;Node11</title>
<path fill="none" stroke="midnightblue" d="M350.2,-190C290.72,-190 168.93,-190 119.29,-190"/>
<polygon fill="midnightblue" stroke="midnightblue" points="350.55,-193.5 360.55,-190 350.55,-186.5 350.55,-193.5"/>
</g>
<!-- Node30&#45;&gt;Node26 -->
<g id="edge40" class="edge">
<title>Node30&#45;&gt;Node26</title>
<path fill="none" stroke="midnightblue" d="M507.11,-114C553.2,-114 635.75,-114 677.62,-114"/>
<polygon fill="midnightblue" stroke="midnightblue" points="507.04,-110.5 497.04,-114 507.04,-117.5 507.04,-110.5"/>
</g>
<!-- Node33 -->
<g id="node33" class="node">
<title>Node33</title>
<g id="a_node33"><a xlink:href="vi_8c.html#a631f59a25254f28f308f7de4897e09fa" target="_top" xlink:title=" ">
<polygon fill="white" stroke="black" points="784.5,-270.5 784.5,-289.5 830.5,-289.5 830.5,-270.5 784.5,-270.5"/>
<text text-anchor="middle" x="807.5" y="-277.5" font-family="Helvetica,sans-Serif" font-size="10.00">search</text>
</a>
</g>
</g>
<!-- Node32&#45;&gt;Node33 -->
<g id="edge43" class="edge">
<title>Node32&#45;&gt;Node33</title>
<path fill="none" stroke="midnightblue" d="M862.92,-280C851.83,-280 840.31,-280 830.74,-280"/>
<polygon fill="midnightblue" stroke="midnightblue" points="862.93,-283.5 872.93,-280 862.93,-276.5 862.93,-283.5"/>
</g>
<!-- Node34 -->
<g id="node34" class="node">
<title>Node34</title>
<g id="a_node34"><a xlink:href="vi_8c.html#a93701c59617d4f96cbaa207e89178f87" target="_top" xlink:title=" ">
<polygon fill="white" stroke="black" points="554.5,-37.5 554.5,-56.5 613.5,-56.5 613.5,-37.5 554.5,-37.5"/>
<text text-anchor="middle" x="584" y="-44.5" font-family="Helvetica,sans-Serif" font-size="10.00">vi_search</text>
</a>
</g>
</g>
<!-- Node33&#45;&gt;Node34 -->
<g id="edge44" class="edge">
<title>Node33&#45;&gt;Node34</title>
<path fill="none" stroke="midnightblue" d="M803.73,-260.41C796.3,-210.92 774.29,-82.92 742,-57 705.69,-27.85 648.1,-33.09 613.69,-39.85"/>
<polygon fill="midnightblue" stroke="midnightblue" points="800.29,-261.07 805.2,-270.46 807.22,-260.06 800.29,-261.07"/>
</g>
<!-- Node35 -->
<g id="node35" class="node">
<title>Node35</title>
<g id="a_node35"><a xlink:href="vi_8c.html#aaa4777ea0715ea846346d0f27a0cfa3f" target="_top" xlink:title=" ">
<polygon fill="white" stroke="black" points="266,-104.5 266,-123.5 325,-123.5 325,-104.5 266,-104.5"/>
<text text-anchor="middle" x="295.5" y="-111.5" font-family="Helvetica,sans-Serif" font-size="10.00">vi_motion</text>
</a>
</g>
</g>
<!-- Node34&#45;&gt;Node35 -->
<g id="edge45" class="edge">
<title>Node34&#45;&gt;Node35</title>
<path fill="none" stroke="midnightblue" d="M544.58,-55.99C486.39,-69.59 377.23,-95.12 325.33,-107.26"/>
<polygon fill="midnightblue" stroke="midnightblue" points="545.54,-59.35 554.48,-53.67 543.95,-52.54 545.54,-59.35"/>
</g>
<!-- Node35&#45;&gt;Node12 -->
<g id="edge48" class="edge">
<title>Node35&#45;&gt;Node12</title>
<path fill="none" stroke="midnightblue" d="M256.11,-126.29C247.57,-128.75 238.53,-131.14 230,-133 187.08,-142.35 135.32,-148.25 111.16,-150.7"/>
<polygon fill="midnightblue" stroke="midnightblue" points="257.24,-129.61 265.83,-123.41 255.25,-122.9 257.24,-129.61"/>
</g>
<!-- Node36 -->
<g id="node36" class="node">
<title>Node36</title>
<g id="a_node36"><a xlink:href="vi_8c.html#a06cbc6eb843436a0e77e07cbab0c4538" target="_top" xlink:title=" ">
<polygon fill="white" stroke="black" points="161.5,-104.5 161.5,-123.5 223.5,-123.5 223.5,-104.5 161.5,-104.5"/>
<text text-anchor="middle" x="192.5" y="-111.5" font-family="Helvetica,sans-Serif" font-size="10.00">vc_motion</text>
</a>
</g>
</g>
<!-- Node35&#45;&gt;Node36 -->
<g id="edge46" class="edge">
<title>Node35&#45;&gt;Node36</title>
<path fill="none" stroke="midnightblue" d="M255.56,-114C244.97,-114 233.67,-114 223.65,-114"/>
<polygon fill="midnightblue" stroke="midnightblue" points="255.83,-117.5 265.83,-114 255.83,-110.5 255.83,-117.5"/>
</g>
<!-- Node36&#45;&gt;Node12 -->
<g id="edge47" class="edge">
<title>Node36&#45;&gt;Node12</title>
<path fill="none" stroke="midnightblue" d="M158.07,-127.52C141.85,-134.07 123.28,-141.58 111.02,-146.53"/>
<polygon fill="midnightblue" stroke="midnightblue" points="159.82,-130.58 167.78,-123.59 157.2,-124.09 159.82,-130.58"/>
</g>
<!-- Node37&#45;&gt;Node5 -->
<g id="edge50" class="edge">
<title>Node37&#45;&gt;Node5</title>
<path fill="none" stroke="midnightblue" d="M899.65,-217.55C881.27,-160.91 819.07,0 705.5,0 705.5,0 705.5,0 191.5,0 93.3,0 36.84,-141.6 23.23,-180.32"/>
<polygon fill="midnightblue" stroke="midnightblue" points="896.41,-218.92 902.74,-227.42 903.09,-216.83 896.41,-218.92"/>
</g>
<!-- Node38&#45;&gt;Node37 -->
<g id="edge52" class="edge">
<title>Node38&#45;&gt;Node37</title>
<path fill="none" stroke="midnightblue" d="M968.7,-237C956.26,-237 942.73,-237 931.57,-237"/>
<polygon fill="midnightblue" stroke="midnightblue" points="968.82,-240.5 978.82,-237 968.82,-233.5 968.82,-240.5"/>
</g>
<!-- Node40 -->
<g id="node40" class="node">
<title>Node40</title>
<g id="a_node40"><a xlink:href="regex_8c.html#a0df57dc0ee1beb9018cdd537a58571aa" target="_top" xlink:title=" ">
<polygon fill="white" stroke="black" points="1074,-227.5 1074,-246.5 1142,-246.5 1142,-227.5 1074,-227.5"/>
<text text-anchor="middle" x="1108" y="-234.5" font-family="Helvetica,sans-Serif" font-size="10.00">rnode_atom</text>
</a>
</g>
</g>
<!-- Node39&#45;&gt;Node40 -->
<g id="edge54" class="edge">
<title>Node39&#45;&gt;Node40</title>
<path fill="none" stroke="midnightblue" d="M1167.5,-237C1159.16,-237 1150.43,-237 1142.32,-237"/>
<polygon fill="midnightblue" stroke="midnightblue" points="1167.77,-240.5 1177.77,-237 1167.77,-233.5 1167.77,-240.5"/>
</g>
<!-- Node41 -->
<g id="node41" class="node">
<title>Node41</title>
<g id="a_node41"><a xlink:href="regex_8c.html#abe0c1f4be43ac6d7caa4f95a560f823f" target="_top" xlink:title=" ">
<polygon fill="white" stroke="black" points="976,-189.5 976,-208.5 1038,-208.5 1038,-189.5 976,-189.5"/>
<text text-anchor="middle" x="1007" y="-196.5" font-family="Helvetica,sans-Serif" font-size="10.00">rnode_seq</text>
</a>
</g>
</g>
<!-- Node40&#45;&gt;Node41 -->
<g id="edge55" class="edge">
<title>Node40&#45;&gt;Node41</title>
<path fill="none" stroke="midnightblue" d="M1072.44,-223.74C1059.45,-218.75 1044.93,-213.18 1032.97,-208.59"/>
<polygon fill="midnightblue" stroke="midnightblue" points="1071.43,-227.1 1082.02,-227.41 1073.94,-220.56 1071.43,-227.1"/>
</g>
<!-- Node41&#45;&gt;Node1 -->
<g id="edge56" class="edge">
<title>Node41&#45;&gt;Node1</title>
<path fill="none" stroke="midnightblue" d="M1048.39,-200.13C1094.36,-201.92 1171.57,-206.5 1237,-218 1250.15,-220.31 1264.41,-223.96 1276.61,-227.45"/>
<polygon fill="midnightblue" stroke="midnightblue" points="1048.35,-196.62 1038.23,-199.76 1048.1,-203.62 1048.35,-196.62"/>
</g>
</g>
</svg>
