<?xml version="1.0" encoding="UTF-8" standalone="no"?>
<!DOCTYPE svg PUBLIC "-//W3C//DTD SVG 1.1//EN"
 "http://www.w3.org/Graphics/SVG/1.1/DTD/svg11.dtd">
<!-- Generated by graphviz version 2.44.1 (20200629.0846)
 -->
<!-- Title: ren_cursor Pages: 1 -->
<svg width="901pt" height="333pt"
 viewBox="0.00 0.00 901.00 333.34" xmlns="http://www.w3.org/2000/svg" xmlns:xlink="http://www.w3.org/1999/xlink">
<g id="graph0" class="graph" transform="scale(1 1) rotate(0) translate(4 329.34)">
<title>ren_cursor</title>
<polygon fill="white" stroke="transparent" points="-4,4 -4,-329.34 897,-329.34 897,4 -4,4"/>
<!-- Node1 -->
<g id="node1" class="node">
<title>Node1</title>
<g id="a_node1"><a xlink:title=" ">
<polygon fill="#bfbfbf" stroke="black" points="831,-277.84 831,-296.84 893,-296.84 893,-277.84 831,-277.84"/>
<text text-anchor="middle" x="862" y="-284.84" font-family="Helvetica,sans-Serif" font-size="10.00">ren_cursor</text>
</a>
</g>
</g>
<!-- Node2 -->
<g id="node2" class="node">
<title>Node2</title>
<g id="a_node2"><a xlink:href="led_8c.html#ae938cbff964c214e7e4f6aff4d5ce0f7" target="_top" xlink:title=" ">
<polygon fill="white" stroke="black" points="720,-230.84 720,-249.84 795,-249.84 795,-230.84 720,-230.84"/>
<text text-anchor="middle" x="757.5" y="-237.84" font-family="Helvetica,sans-Serif" font-size="10.00">led_printparts</text>
</a>
</g>
</g>
<!-- Node1&#45;&gt;Node2 -->
<g id="edge1" class="edge">
<title>Node1&#45;&gt;Node2</title>
<path fill="none" stroke="midnightblue" d="M831.02,-273.59C814.5,-266.02 794.41,-256.81 779.56,-250"/>
<polygon fill="midnightblue" stroke="midnightblue" points="829.71,-276.84 840.26,-277.83 832.63,-270.48 829.71,-276.84"/>
</g>
<!-- Node6 -->
<g id="node6" class="node">
<title>Node6</title>
<g id="a_node6"><a xlink:href="vi_8c.html#a8d808e0f3453afe6600673ee1ea5f828" target="_top" xlink:title=" ">
<polygon fill="white" stroke="black" points="74,-168.84 74,-187.84 103,-187.84 103,-168.84 74,-168.84"/>
<text text-anchor="middle" x="88.5" y="-175.84" font-family="Helvetica,sans-Serif" font-size="10.00">vi</text>
</a>
</g>
</g>
<!-- Node1&#45;&gt;Node6 -->
<g id="edge29" class="edge">
<title>Node1&#45;&gt;Node6</title>
<path fill="none" stroke="midnightblue" d="M821.04,-299.21C779.93,-310.36 713.82,-325.34 655.5,-325.34 655.5,-325.34 655.5,-325.34 266.5,-325.34 205.3,-325.34 184.24,-314.56 139,-273.34 112.33,-249.05 97.65,-207.02 92.11,-188.08"/>
<polygon fill="midnightblue" stroke="midnightblue" points="821.98,-302.58 830.69,-296.54 820.11,-295.84 821.98,-302.58"/>
</g>
<!-- Node20 -->
<g id="node20" class="node">
<title>Node20</title>
<g id="a_node20"><a xlink:href="vi_8c.html#ab7d24df5f19f55dae6f719cd5bcfbe6f" target="_top" xlink:title=" ">
<polygon fill="white" stroke="black" points="625,-277.84 625,-296.84 684,-296.84 684,-277.84 625,-277.84"/>
<text text-anchor="middle" x="654.5" y="-284.84" font-family="Helvetica,sans-Serif" font-size="10.00">vc_status</text>
</a>
</g>
</g>
<!-- Node1&#45;&gt;Node20 -->
<g id="edge27" class="edge">
<title>Node1&#45;&gt;Node20</title>
<path fill="none" stroke="midnightblue" d="M820.43,-287.34C780.25,-287.34 719.76,-287.34 684.29,-287.34"/>
<polygon fill="midnightblue" stroke="midnightblue" points="820.68,-290.84 830.68,-287.34 820.68,-283.84 820.68,-290.84"/>
</g>
<!-- Node3 -->
<g id="node3" class="node">
<title>Node3</title>
<g id="a_node3"><a xlink:href="vi_8h.html#ae72255a31cec31233723c101d9465d07" target="_top" xlink:title=" ">
<polygon fill="white" stroke="black" points="528.5,-220.84 528.5,-239.84 584.5,-239.84 584.5,-220.84 528.5,-220.84"/>
<text text-anchor="middle" x="556.5" y="-227.84" font-family="Helvetica,sans-Serif" font-size="10.00">led_input</text>
</a>
</g>
</g>
<!-- Node2&#45;&gt;Node3 -->
<g id="edge2" class="edge">
<title>Node2&#45;&gt;Node3</title>
<path fill="none" stroke="midnightblue" d="M709.5,-237.98C670.62,-236.03 616.76,-233.32 584.68,-231.71"/>
<polygon fill="midnightblue" stroke="midnightblue" points="709.37,-241.48 719.54,-238.48 709.72,-234.49 709.37,-241.48"/>
</g>
<!-- Node10 -->
<g id="node10" class="node">
<title>Node10</title>
<g id="a_node10"><a xlink:href="led_8c.html#a617ec615e86687b5c10df33b271256c8" target="_top" xlink:title=" ">
<polygon fill="white" stroke="black" points="629.5,-192.84 629.5,-211.84 679.5,-211.84 679.5,-192.84 629.5,-192.84"/>
<text text-anchor="middle" x="654.5" y="-199.84" font-family="Helvetica,sans-Serif" font-size="10.00">led_line</text>
</a>
</g>
</g>
<!-- Node2&#45;&gt;Node10 -->
<g id="edge10" class="edge">
<title>Node2&#45;&gt;Node10</title>
<path fill="none" stroke="midnightblue" d="M721.34,-227.11C707.55,-221.92 692.07,-216.1 679.59,-211.41"/>
<polygon fill="midnightblue" stroke="midnightblue" points="720.42,-230.51 731.01,-230.75 722.89,-223.96 720.42,-230.51"/>
</g>
<!-- Node4 -->
<g id="node4" class="node">
<title>Node4</title>
<g id="a_node4"><a xlink:href="vi_8c.html#a653f6b0359cef492e11f404c4bf469b9" target="_top" xlink:title=" ">
<polygon fill="white" stroke="black" points="338.5,-220.84 338.5,-239.84 388.5,-239.84 388.5,-220.84 338.5,-220.84"/>
<text text-anchor="middle" x="363.5" y="-227.84" font-family="Helvetica,sans-Serif" font-size="10.00">vi_input</text>
</a>
</g>
</g>
<!-- Node3&#45;&gt;Node4 -->
<g id="edge3" class="edge">
<title>Node3&#45;&gt;Node4</title>
<path fill="none" stroke="midnightblue" d="M517.9,-230.34C479.62,-230.34 421.39,-230.34 388.79,-230.34"/>
<polygon fill="midnightblue" stroke="midnightblue" points="518.13,-233.84 528.13,-230.34 518.13,-226.84 518.13,-233.84"/>
</g>
<!-- Node5 -->
<g id="node5" class="node">
<title>Node5</title>
<g id="a_node5"><a xlink:href="vi_8c.html#a8bb357a77ed61da8858f138c6fa672a6" target="_top" xlink:title=" ">
<polygon fill="white" stroke="black" points="239.5,-239.84 239.5,-258.84 295.5,-258.84 295.5,-239.84 239.5,-239.84"/>
<text text-anchor="middle" x="267.5" y="-246.84" font-family="Helvetica,sans-Serif" font-size="10.00">vc_insert</text>
</a>
</g>
</g>
<!-- Node4&#45;&gt;Node5 -->
<g id="edge4" class="edge">
<title>Node4&#45;&gt;Node5</title>
<path fill="none" stroke="midnightblue" d="M328.34,-237.25C317.57,-239.42 305.82,-241.8 295.61,-243.86"/>
<polygon fill="midnightblue" stroke="midnightblue" points="329.18,-240.65 338.29,-235.24 327.8,-233.79 329.18,-240.65"/>
</g>
<!-- Node8 -->
<g id="node8" class="node">
<title>Node8</title>
<g id="a_node8"><a xlink:href="vi_8c.html#ae37b094c3bb647d8c1a4ac4e858ce518" target="_top" xlink:title=" ">
<polygon fill="white" stroke="black" points="237,-201.84 237,-220.84 298,-220.84 298,-201.84 237,-201.84"/>
<text text-anchor="middle" x="267.5" y="-208.84" font-family="Helvetica,sans-Serif" font-size="10.00">vi_change</text>
</a>
</g>
</g>
<!-- Node4&#45;&gt;Node8 -->
<g id="edge7" class="edge">
<title>Node4&#45;&gt;Node8</title>
<path fill="none" stroke="midnightblue" d="M328.41,-223.45C318.57,-221.46 307.9,-219.31 298.34,-217.37"/>
<polygon fill="midnightblue" stroke="midnightblue" points="327.8,-226.9 338.29,-225.45 329.18,-220.04 327.8,-226.9"/>
</g>
<!-- Node5&#45;&gt;Node6 -->
<g id="edge5" class="edge">
<title>Node5&#45;&gt;Node6</title>
<path fill="none" stroke="midnightblue" d="M229.37,-243.8C203.17,-238.93 167.75,-230.37 139,-216.34 124.01,-209.03 109.14,-196.76 99.67,-188.15"/>
<polygon fill="midnightblue" stroke="midnightblue" points="228.82,-247.25 239.28,-245.54 230.04,-240.36 228.82,-247.25"/>
</g>
<!-- Node7 -->
<g id="node7" class="node">
<title>Node7</title>
<g id="a_node7"><a xlink:href="vi_8c.html#a0ddf1224851353fc92bfbff6f499fa97" target="_top" xlink:title=" ">
<polygon fill="white" stroke="black" points="0,-92.84 0,-111.84 38,-111.84 38,-92.84 0,-92.84"/>
<text text-anchor="middle" x="19" y="-99.84" font-family="Helvetica,sans-Serif" font-size="10.00">main</text>
</a>
</g>
</g>
<!-- Node6&#45;&gt;Node7 -->
<g id="edge6" class="edge">
<title>Node6&#45;&gt;Node7</title>
<path fill="none" stroke="midnightblue" d="M72.15,-161.06C58.71,-145.92 39.66,-124.48 28.69,-112.13"/>
<polygon fill="midnightblue" stroke="midnightblue" points="69.69,-163.56 78.95,-168.72 74.93,-158.92 69.69,-163.56"/>
</g>
<!-- Node9 -->
<g id="node9" class="node">
<title>Node9</title>
<g id="a_node9"><a xlink:href="vi_8c.html#a06cbc6eb843436a0e77e07cbab0c4538" target="_top" xlink:title=" ">
<polygon fill="white" stroke="black" points="139,-187.84 139,-206.84 201,-206.84 201,-187.84 139,-187.84"/>
<text text-anchor="middle" x="170" y="-194.84" font-family="Helvetica,sans-Serif" font-size="10.00">vc_motion</text>
</a>
</g>
</g>
<!-- Node8&#45;&gt;Node9 -->
<g id="edge8" class="edge">
<title>Node8&#45;&gt;Node9</title>
<path fill="none" stroke="midnightblue" d="M226.89,-205.54C218.23,-204.27 209.21,-202.94 201,-201.74"/>
<polygon fill="midnightblue" stroke="midnightblue" points="226.4,-209 236.81,-206.99 227.42,-202.08 226.4,-209"/>
</g>
<!-- Node9&#45;&gt;Node6 -->
<g id="edge9" class="edge">
<title>Node9&#45;&gt;Node6</title>
<path fill="none" stroke="midnightblue" d="M128.95,-187.77C119.66,-185.55 110.39,-183.33 103.17,-181.61"/>
<polygon fill="midnightblue" stroke="midnightblue" points="128.4,-191.24 138.94,-190.16 130.03,-184.43 128.4,-191.24"/>
</g>
<!-- Node10&#45;&gt;Node3 -->
<g id="edge11" class="edge">
<title>Node10&#45;&gt;Node3</title>
<path fill="none" stroke="midnightblue" d="M619.62,-212.23C608.2,-215.56 595.61,-219.23 584.77,-222.39"/>
<polygon fill="midnightblue" stroke="midnightblue" points="620.66,-215.57 629.28,-209.41 618.7,-208.85 620.66,-215.57"/>
</g>
<!-- Node11 -->
<g id="node11" class="node">
<title>Node11</title>
<g id="a_node11"><a xlink:href="vi_8h.html#a173bb468e1e2a066136316f98b49c108" target="_top" xlink:title=" ">
<polygon fill="white" stroke="black" points="524,-125.84 524,-144.84 589,-144.84 589,-125.84 524,-125.84"/>
<text text-anchor="middle" x="556.5" y="-132.84" font-family="Helvetica,sans-Serif" font-size="10.00">led_prompt</text>
</a>
</g>
</g>
<!-- Node10&#45;&gt;Node11 -->
<g id="edge12" class="edge">
<title>Node10&#45;&gt;Node11</title>
<path fill="none" stroke="midnightblue" d="M631.31,-186.85C612.76,-173.91 586.9,-155.86 571.23,-144.92"/>
<polygon fill="midnightblue" stroke="midnightblue" points="629.54,-189.89 639.75,-192.74 633.55,-184.15 629.54,-189.89"/>
</g>
<!-- Node12 -->
<g id="node12" class="node">
<title>Node12</title>
<g id="a_node12"><a xlink:href="vi_8h.html#a7ba56272fe1a7d523192729a0bb5edf7" target="_top" xlink:title=" ">
<polygon fill="white" stroke="black" points="242,-33.84 242,-52.84 293,-52.84 293,-33.84 242,-33.84"/>
<text text-anchor="middle" x="267.5" y="-40.84" font-family="Helvetica,sans-Serif" font-size="10.00">ex_read</text>
</a>
</g>
</g>
<!-- Node11&#45;&gt;Node12 -->
<g id="edge13" class="edge">
<title>Node11&#45;&gt;Node12</title>
<path fill="none" stroke="midnightblue" d="M516.07,-122.7C456,-103.45 343.26,-67.31 293.36,-51.31"/>
<polygon fill="midnightblue" stroke="midnightblue" points="515.01,-126.04 525.6,-125.76 517.14,-119.37 515.01,-126.04"/>
</g>
<!-- Node16 -->
<g id="node16" class="node">
<title>Node16</title>
<g id="a_node16"><a xlink:href="vi_8c.html#a57965473297aad4c4333fdd3897c11f3" target="_top" xlink:title=" ">
<polygon fill="white" stroke="black" points="429,-125.84 429,-144.84 488,-144.84 488,-125.84 429,-125.84"/>
<text text-anchor="middle" x="458.5" y="-132.84" font-family="Helvetica,sans-Serif" font-size="10.00">vi_prompt</text>
</a>
</g>
</g>
<!-- Node11&#45;&gt;Node16 -->
<g id="edge19" class="edge">
<title>Node11&#45;&gt;Node16</title>
<path fill="none" stroke="midnightblue" d="M513.58,-135.34C505.03,-135.34 496.22,-135.34 488.25,-135.34"/>
<polygon fill="midnightblue" stroke="midnightblue" points="513.8,-138.84 523.8,-135.34 513.8,-131.84 513.8,-138.84"/>
</g>
<!-- Node13 -->
<g id="node13" class="node">
<title>Node13</title>
<g id="a_node13"><a xlink:href="ex_8c.html#a0908784dc65be2da119a6b72ef96dec2" target="_top" xlink:title=" ">
<polygon fill="white" stroke="black" points="142,-54.84 142,-73.84 198,-73.84 198,-54.84 142,-54.84"/>
<text text-anchor="middle" x="170" y="-61.84" font-family="Helvetica,sans-Serif" font-size="10.00">ec_insert</text>
</a>
</g>
</g>
<!-- Node12&#45;&gt;Node13 -->
<g id="edge14" class="edge">
<title>Node12&#45;&gt;Node13</title>
<path fill="none" stroke="midnightblue" d="M232.05,-50.92C220.92,-53.37 208.74,-56.04 198.2,-58.36"/>
<polygon fill="midnightblue" stroke="midnightblue" points="232.89,-54.32 241.91,-48.75 231.39,-47.48 232.89,-54.32"/>
</g>
<!-- Node14 -->
<g id="node14" class="node">
<title>Node14</title>
<g id="a_node14"><a xlink:href="vi_8h.html#ac395e51f25330a6e6033b6d0d22b2076" target="_top" xlink:title=" ">
<polygon fill="white" stroke="black" points="74,-73.84 74,-92.84 103,-92.84 103,-73.84 74,-73.84"/>
<text text-anchor="middle" x="88.5" y="-80.84" font-family="Helvetica,sans-Serif" font-size="10.00">ex</text>
</a>
</g>
</g>
<!-- Node12&#45;&gt;Node14 -->
<g id="edge15" class="edge">
<title>Node12&#45;&gt;Node14</title>
<path fill="none" stroke="midnightblue" d="M245.45,-28.09C219.25,-11.15 173.73,11.48 139,-7.34 112.7,-21.6 98.17,-56.56 92.43,-73.64"/>
<polygon fill="midnightblue" stroke="midnightblue" points="243.61,-31.08 253.86,-33.77 247.53,-25.28 243.61,-31.08"/>
</g>
<!-- Node15 -->
<g id="node15" class="node">
<title>Node15</title>
<g id="a_node15"><a xlink:href="vi_8c.html#a9d85e9ed087401367529ab86a5dbf0c5" target="_top" xlink:title=" ">
<polygon fill="white" stroke="black" points="146.5,-16.84 146.5,-35.84 193.5,-35.84 193.5,-16.84 146.5,-16.84"/>
<text text-anchor="middle" x="170" y="-23.84" font-family="Helvetica,sans-Serif" font-size="10.00">vi_wait</text>
</a>
</g>
</g>
<!-- Node12&#45;&gt;Node15 -->
<g id="edge17" class="edge">
<title>Node12&#45;&gt;Node15</title>
<path fill="none" stroke="midnightblue" d="M232.01,-37.2C219.2,-34.92 205.02,-32.4 193.55,-30.36"/>
<polygon fill="midnightblue" stroke="midnightblue" points="231.45,-40.66 241.91,-38.96 232.67,-33.77 231.45,-40.66"/>
</g>
<!-- Node14&#45;&gt;Node7 -->
<g id="edge16" class="edge">
<title>Node14&#45;&gt;Node7</title>
<path fill="none" stroke="midnightblue" d="M64.14,-89.92C55.67,-92.3 46.22,-94.96 38.25,-97.21"/>
<polygon fill="midnightblue" stroke="midnightblue" points="65.16,-93.27 73.84,-87.19 63.27,-86.53 65.16,-93.27"/>
</g>
<!-- Node15&#45;&gt;Node6 -->
<g id="edge18" class="edge">
<title>Node15&#45;&gt;Node6</title>
<path fill="none" stroke="midnightblue" d="M141.68,-42.39C140.73,-43.33 139.83,-44.32 139,-45.34 107.5,-84.19 94.83,-145.06 90.94,-168.6"/>
<polygon fill="midnightblue" stroke="midnightblue" points="144.14,-44.91 149.74,-35.92 139.75,-39.45 144.14,-44.91"/>
</g>
<!-- Node16&#45;&gt;Node6 -->
<g id="edge20" class="edge">
<title>Node16&#45;&gt;Node6</title>
<path fill="none" stroke="midnightblue" d="M421.83,-122.86C412.56,-120.16 402.5,-117.71 393,-116.34 367.05,-112.6 360.09,-113.68 334,-116.34 243.82,-125.54 139.62,-160.4 103.03,-173.41"/>
<polygon fill="midnightblue" stroke="midnightblue" points="420.93,-126.25 431.52,-125.84 422.99,-119.56 420.93,-126.25"/>
</g>
<!-- Node17 -->
<g id="node17" class="node">
<title>Node17</title>
<g id="a_node17"><a xlink:href="vi_8c.html#ab8e0c9b9d2ef5161c6a3a8828606df5f" target="_top" xlink:title=" ">
<polygon fill="white" stroke="black" points="340,-125.84 340,-144.84 387,-144.84 387,-125.84 340,-125.84"/>
<text text-anchor="middle" x="363.5" y="-132.84" font-family="Helvetica,sans-Serif" font-size="10.00">vi_pipe</text>
</a>
</g>
</g>
<!-- Node16&#45;&gt;Node17 -->
<g id="edge21" class="edge">
<title>Node16&#45;&gt;Node17</title>
<path fill="none" stroke="midnightblue" d="M418.73,-135.34C407.93,-135.34 396.55,-135.34 387.02,-135.34"/>
<polygon fill="midnightblue" stroke="midnightblue" points="418.84,-138.84 428.84,-135.34 418.84,-131.84 418.84,-138.84"/>
</g>
<!-- Node18 -->
<g id="node18" class="node">
<title>Node18</title>
<g id="a_node18"><a xlink:href="vi_8c.html#a93701c59617d4f96cbaa207e89178f87" target="_top" xlink:title=" ">
<polygon fill="white" stroke="black" points="334,-163.84 334,-182.84 393,-182.84 393,-163.84 334,-163.84"/>
<text text-anchor="middle" x="363.5" y="-170.84" font-family="Helvetica,sans-Serif" font-size="10.00">vi_search</text>
</a>
</g>
</g>
<!-- Node16&#45;&gt;Node18 -->
<g id="edge23" class="edge">
<title>Node16&#45;&gt;Node18</title>
<path fill="none" stroke="midnightblue" d="M424.68,-148.75C412.56,-153.7 399.08,-159.21 387.96,-163.76"/>
<polygon fill="midnightblue" stroke="midnightblue" points="426.1,-151.95 434.03,-144.93 423.45,-145.47 426.1,-151.95"/>
</g>
<!-- Node17&#45;&gt;Node9 -->
<g id="edge22" class="edge">
<title>Node17&#45;&gt;Node9</title>
<path fill="none" stroke="midnightblue" d="M329.5,-136.51C303.61,-138.33 267.05,-142.9 237,-154.34 216.04,-162.32 194.85,-177.73 182.32,-187.77"/>
<polygon fill="midnightblue" stroke="midnightblue" points="329.78,-140 339.55,-135.91 329.36,-133.02 329.78,-140"/>
</g>
<!-- Node19 -->
<g id="node19" class="node">
<title>Node19</title>
<g id="a_node19"><a xlink:href="vi_8c.html#aaa4777ea0715ea846346d0f27a0cfa3f" target="_top" xlink:title=" ">
<polygon fill="white" stroke="black" points="238,-163.84 238,-182.84 297,-182.84 297,-163.84 238,-163.84"/>
<text text-anchor="middle" x="267.5" y="-170.84" font-family="Helvetica,sans-Serif" font-size="10.00">vi_motion</text>
</a>
</g>
</g>
<!-- Node18&#45;&gt;Node19 -->
<g id="edge24" class="edge">
<title>Node18&#45;&gt;Node19</title>
<path fill="none" stroke="midnightblue" d="M323.6,-173.34C314.71,-173.34 305.41,-173.34 297.04,-173.34"/>
<polygon fill="midnightblue" stroke="midnightblue" points="323.79,-176.84 333.79,-173.34 323.79,-169.84 323.79,-176.84"/>
</g>
<!-- Node19&#45;&gt;Node6 -->
<g id="edge26" class="edge">
<title>Node19&#45;&gt;Node6</title>
<path fill="none" stroke="midnightblue" d="M227.63,-174.44C188.35,-175.55 129.77,-177.2 103.33,-177.95"/>
<polygon fill="midnightblue" stroke="midnightblue" points="227.77,-177.94 237.67,-174.16 227.57,-170.94 227.77,-177.94"/>
</g>
<!-- Node19&#45;&gt;Node9 -->
<g id="edge25" class="edge">
<title>Node19&#45;&gt;Node9</title>
<path fill="none" stroke="midnightblue" d="M228.05,-183C219.15,-185.24 209.79,-187.59 201.29,-189.73"/>
<polygon fill="midnightblue" stroke="midnightblue" points="229,-186.38 237.85,-180.54 227.3,-179.59 229,-186.38"/>
</g>
<!-- Node20&#45;&gt;Node6 -->
<g id="edge28" class="edge">
<title>Node20&#45;&gt;Node6</title>
<path fill="none" stroke="midnightblue" d="M614.74,-287.34C575.58,-287.34 513.34,-287.34 459.5,-287.34 459.5,-287.34 459.5,-287.34 266.5,-287.34 206.26,-287.34 187.83,-276.62 139,-241.34 118.93,-226.84 102.84,-202.05 94.9,-188.29"/>
<polygon fill="midnightblue" stroke="midnightblue" points="614.9,-290.84 624.9,-287.34 614.9,-283.84 614.9,-290.84"/>
</g>
</g>
</svg>
