<?xml version="1.0" encoding="UTF-8" standalone="no"?>
<!DOCTYPE svg PUBLIC "-//W3C//DTD SVG 1.1//EN"
 "http://www.w3.org/Graphics/SVG/1.1/DTD/svg11.dtd">
<!-- Generated by graphviz version 2.44.1 (20200629.0846)
 -->
<!-- Title: ren_noeol Pages: 1 -->
<svg width="501pt" height="218pt"
 viewBox="0.00 0.00 501.00 218.00" xmlns="http://www.w3.org/2000/svg" xmlns:xlink="http://www.w3.org/1999/xlink">
<g id="graph0" class="graph" transform="scale(1 1) rotate(0) translate(4 214)">
<title>ren_noeol</title>
<polygon fill="white" stroke="transparent" points="-4,4 -4,-214 497,-214 497,4 -4,4"/>
<!-- Node1 -->
<g id="node1" class="node">
<title>Node1</title>
<g id="a_node1"><a xlink:title=" ">
<polygon fill="#bfbfbf" stroke="black" points="434,-95.5 434,-114.5 493,-114.5 493,-95.5 434,-95.5"/>
<text text-anchor="middle" x="463.5" y="-102.5" font-family="Helvetica,sans-Serif" font-size="10.00">ren_noeol</text>
</a>
</g>
</g>
<!-- Node2 -->
<g id="node2" class="node">
<title>Node2</title>
<g id="a_node2"><a xlink:href="vi_8c.html#a8bb357a77ed61da8858f138c6fa672a6" target="_top" xlink:title=" ">
<polygon fill="white" stroke="black" points="240.5,-190.5 240.5,-209.5 296.5,-209.5 296.5,-190.5 240.5,-190.5"/>
<text text-anchor="middle" x="268.5" y="-197.5" font-family="Helvetica,sans-Serif" font-size="10.00">vc_insert</text>
</a>
</g>
</g>
<!-- Node1&#45;&gt;Node2 -->
<g id="edge1" class="edge">
<title>Node1&#45;&gt;Node2</title>
<path fill="none" stroke="midnightblue" d="M450.94,-123.41C439.55,-139.9 420.61,-163.38 398,-176 366.19,-193.75 323.76,-198.68 296.53,-199.88"/>
<polygon fill="midnightblue" stroke="midnightblue" points="454.14,-124.91 456.74,-114.64 448.3,-121.05 454.14,-124.91"/>
</g>
<!-- Node3 -->
<g id="node3" class="node">
<title>Node3</title>
<g id="a_node3"><a xlink:href="vi_8c.html#a8d808e0f3453afe6600673ee1ea5f828" target="_top" xlink:title=" ">
<polygon fill="white" stroke="black" points="74,-95.5 74,-114.5 103,-114.5 103,-95.5 74,-95.5"/>
<text text-anchor="middle" x="88.5" y="-102.5" font-family="Helvetica,sans-Serif" font-size="10.00">vi</text>
</a>
</g>
</g>
<!-- Node1&#45;&gt;Node3 -->
<g id="edge10" class="edge">
<title>Node1&#45;&gt;Node3</title>
<path fill="none" stroke="midnightblue" d="M442.15,-120.82C430.05,-129.2 413.99,-138.64 398,-143 343.66,-157.82 212.14,-141.27 139,-124 126.46,-121.04 112.83,-115.63 103.05,-111.34"/>
<polygon fill="midnightblue" stroke="midnightblue" points="444.52,-123.42 450.56,-114.72 440.41,-117.75 444.52,-123.42"/>
</g>
<!-- Node5 -->
<g id="node5" class="node">
<title>Node5</title>
<g id="a_node5"><a xlink:href="vi_8c.html#a06cbc6eb843436a0e77e07cbab0c4538" target="_top" xlink:title=" ">
<polygon fill="white" stroke="black" points="140,-38.5 140,-57.5 202,-57.5 202,-38.5 140,-38.5"/>
<text text-anchor="middle" x="171" y="-45.5" font-family="Helvetica,sans-Serif" font-size="10.00">vc_motion</text>
</a>
</g>
</g>
<!-- Node1&#45;&gt;Node5 -->
<g id="edge4" class="edge">
<title>Node1&#45;&gt;Node5</title>
<path fill="none" stroke="midnightblue" d="M424.13,-97.22C415.53,-95.49 406.46,-93.68 398,-92 328.01,-78.13 245.75,-62.21 202.35,-53.84"/>
<polygon fill="midnightblue" stroke="midnightblue" points="423.44,-100.65 433.93,-99.2 424.82,-93.79 423.44,-100.65"/>
</g>
<!-- Node6 -->
<g id="node6" class="node">
<title>Node6</title>
<g id="a_node6"><a xlink:href="vi_8c.html#a7611a5bcfe4c4ddc58233c4c52a8fa16" target="_top" xlink:title=" ">
<polygon fill="white" stroke="black" points="343,-114.5 343,-133.5 389,-133.5 389,-114.5 343,-114.5"/>
<text text-anchor="middle" x="366" y="-121.5" font-family="Helvetica,sans-Serif" font-size="10.00">vc_put</text>
</a>
</g>
</g>
<!-- Node1&#45;&gt;Node6 -->
<g id="edge6" class="edge">
<title>Node1&#45;&gt;Node6</title>
<path fill="none" stroke="midnightblue" d="M423.79,-112.7C412.04,-115.04 399.54,-117.53 389.26,-119.57"/>
<polygon fill="midnightblue" stroke="midnightblue" points="424.72,-116.08 433.85,-110.7 423.36,-109.22 424.72,-116.08"/>
</g>
<!-- Node7 -->
<g id="node7" class="node">
<title>Node7</title>
<g id="a_node7"><a xlink:href="vi_8c.html#a3635843354dbb31e3c00efcd5798535a" target="_top" xlink:title=" ">
<polygon fill="white" stroke="black" points="139,-76.5 139,-95.5 203,-95.5 203,-76.5 139,-76.5"/>
<text text-anchor="middle" x="171" y="-83.5" font-family="Helvetica,sans-Serif" font-size="10.00">vc_replace</text>
</a>
</g>
</g>
<!-- Node1&#45;&gt;Node7 -->
<g id="edge8" class="edge">
<title>Node1&#45;&gt;Node7</title>
<path fill="none" stroke="midnightblue" d="M423.57,-102.45C365.26,-98.64 256.38,-91.52 203.05,-88.03"/>
<polygon fill="midnightblue" stroke="midnightblue" points="423.64,-105.97 433.85,-103.13 424.1,-98.98 423.64,-105.97"/>
</g>
<!-- Node8 -->
<g id="node8" class="node">
<title>Node8</title>
<g id="a_node8"><a xlink:href="vi_8c.html#a845a69e411d4378f818ca75e092db7dc" target="_top" xlink:title=" ">
<polygon fill="white" stroke="black" points="334,-0.5 334,-19.5 398,-19.5 398,-0.5 334,-0.5"/>
<text text-anchor="middle" x="366" y="-7.5" font-family="Helvetica,sans-Serif" font-size="10.00">vi_curword</text>
</a>
</g>
</g>
<!-- Node1&#45;&gt;Node8 -->
<g id="edge11" class="edge">
<title>Node1&#45;&gt;Node8</title>
<path fill="none" stroke="midnightblue" d="M448.04,-87.42C435.45,-72.55 416.4,-51.01 398,-34 392.5,-28.92 386.01,-23.77 380.38,-19.56"/>
<polygon fill="midnightblue" stroke="midnightblue" points="445.54,-89.9 454.64,-95.32 450.91,-85.41 445.54,-89.9"/>
</g>
<!-- Node2&#45;&gt;Node3 -->
<g id="edge2" class="edge">
<title>Node2&#45;&gt;Node3</title>
<path fill="none" stroke="midnightblue" d="M230.19,-200.38C202.95,-199 166.18,-193.55 139,-176 115.52,-160.84 100.03,-130.23 93.31,-114.62"/>
<polygon fill="midnightblue" stroke="midnightblue" points="230.37,-203.89 240.48,-200.73 230.61,-196.89 230.37,-203.89"/>
</g>
<!-- Node4 -->
<g id="node4" class="node">
<title>Node4</title>
<g id="a_node4"><a xlink:href="vi_8c.html#a0ddf1224851353fc92bfbff6f499fa97" target="_top" xlink:title=" ">
<polygon fill="white" stroke="black" points="0,-95.5 0,-114.5 38,-114.5 38,-95.5 0,-95.5"/>
<text text-anchor="middle" x="19" y="-102.5" font-family="Helvetica,sans-Serif" font-size="10.00">main</text>
</a>
</g>
</g>
<!-- Node3&#45;&gt;Node4 -->
<g id="edge3" class="edge">
<title>Node3&#45;&gt;Node4</title>
<path fill="none" stroke="midnightblue" d="M63.58,-105C55.25,-105 46.04,-105 38.25,-105"/>
<polygon fill="midnightblue" stroke="midnightblue" points="63.84,-108.5 73.84,-105 63.84,-101.5 63.84,-108.5"/>
</g>
<!-- Node5&#45;&gt;Node3 -->
<g id="edge5" class="edge">
<title>Node5&#45;&gt;Node3</title>
<path fill="none" stroke="midnightblue" d="M144.91,-63.07C142.89,-64.37 140.9,-65.69 139,-67 125.79,-76.08 111.31,-87.37 101.44,-95.27"/>
<polygon fill="midnightblue" stroke="midnightblue" points="147.1,-65.83 153.71,-57.55 143.37,-59.9 147.1,-65.83"/>
</g>
<!-- Node6&#45;&gt;Node3 -->
<g id="edge7" class="edge">
<title>Node6&#45;&gt;Node3</title>
<path fill="none" stroke="midnightblue" d="M332.82,-121.78C272.49,-117.62 144.74,-108.81 103,-105.93"/>
<polygon fill="midnightblue" stroke="midnightblue" points="332.7,-125.28 342.92,-122.48 333.18,-118.3 332.7,-125.28"/>
</g>
<!-- Node7&#45;&gt;Node3 -->
<g id="edge9" class="edge">
<title>Node7&#45;&gt;Node3</title>
<path fill="none" stroke="midnightblue" d="M128.64,-95.76C119.36,-97.95 110.16,-100.12 103.01,-101.81"/>
<polygon fill="midnightblue" stroke="midnightblue" points="129.72,-99.1 138.65,-93.4 128.11,-92.29 129.72,-99.1"/>
</g>
<!-- Node9 -->
<g id="node9" class="node">
<title>Node9</title>
<g id="a_node9"><a xlink:href="vi_8c.html#aaa4777ea0715ea846346d0f27a0cfa3f" target="_top" xlink:title=" ">
<polygon fill="white" stroke="black" points="239,-0.5 239,-19.5 298,-19.5 298,-0.5 239,-0.5"/>
<text text-anchor="middle" x="268.5" y="-7.5" font-family="Helvetica,sans-Serif" font-size="10.00">vi_motion</text>
</a>
</g>
</g>
<!-- Node8&#45;&gt;Node9 -->
<g id="edge12" class="edge">
<title>Node8&#45;&gt;Node9</title>
<path fill="none" stroke="midnightblue" d="M323.97,-10C315.25,-10 306.22,-10 298.09,-10"/>
<polygon fill="midnightblue" stroke="midnightblue" points="323.99,-13.5 333.99,-10 323.99,-6.5 323.99,-13.5"/>
</g>
<!-- Node9&#45;&gt;Node3 -->
<g id="edge14" class="edge">
<title>Node9&#45;&gt;Node3</title>
<path fill="none" stroke="midnightblue" d="M228.59,-7.67C201.48,-7.88 165.56,-11.97 139,-29 113.95,-45.06 98.91,-78.83 92.75,-95.41"/>
<polygon fill="midnightblue" stroke="midnightblue" points="228.84,-11.17 238.87,-7.77 228.91,-4.17 228.84,-11.17"/>
</g>
<!-- Node9&#45;&gt;Node5 -->
<g id="edge13" class="edge">
<title>Node9&#45;&gt;Node5</title>
<path fill="none" stroke="midnightblue" d="M233.79,-23.41C221.35,-28.36 207.51,-33.87 196.09,-38.41"/>
<polygon fill="midnightblue" stroke="midnightblue" points="235.4,-26.54 243.4,-19.59 232.82,-20.03 235.4,-26.54"/>
</g>
</g>
</svg>
