<?xml version="1.0" encoding="UTF-8" standalone="no"?>
<!DOCTYPE svg PUBLIC "-//W3C//DTD SVG 1.1//EN"
 "http://www.w3.org/Graphics/SVG/1.1/DTD/svg11.dtd">
<!-- Generated by graphviz version 2.44.1 (20200629.0846)
 -->
<!-- Title: ren_pos Pages: 1 -->
<!--zoomable 360 -->
<svg id="main" version="1.1" xmlns="http://www.w3.org/2000/svg" xmlns:xlink="http://www.w3.org/1999/xlink" xml:space="preserve" onload="init(evt)">
<style type="text/css"><![CDATA[
.edge:hover path { stroke: red; }
.edge:hover polygon { stroke: red; fill: red; }
]]></style>
<script type="text/javascript"><![CDATA[
var edges = document.getElementsByTagName('g');
if (edges && edges.length) {
  for (var i=0;i<edges.length;i++) {
    if (edges[i].id.substr(0,4)=='edge') {
      edges[i].setAttribute('class','edge');
    }
  }
}
]]></script>
        <defs>
                <circle id="rim" cx="0" cy="0" r="7"/>
                <circle id="rim2" cx="0" cy="0" r="3.5"/>
                <g id="zoomPlus">
                        <use xlink:href="#rim" fill="#404040">
                                <set attributeName="fill" to="#808080" begin="zoomplus.mouseover" end="zoomplus.mouseout"/>
                        </use>
                        <path d="M-4,0h8M0,-4v8" fill="none" stroke="white" stroke-width="1.5" pointer-events="none"/>
                </g>
                <g id="zoomMin">
                        <use xlink:href="#rim" fill="#404040">
                                <set attributeName="fill" to="#808080" begin="zoomminus.mouseover" end="zoomminus.mouseout"/>
                        </use>
                        <path d="M-4,0h8" fill="none" stroke="white" stroke-width="1.5" pointer-events="none"/>
                </g>
                <g id="dirArrow">
                        <path fill="none" stroke="white" stroke-width="1.5" d="M0,-3.0v7 M-2.5,-0.5L0,-3.0L2.5,-0.5"/>
                </g>
               <g id="resetDef">
                       <use xlink:href="#rim2" fill="#404040">
                               <set attributeName="fill" to="#808080" begin="reset.mouseover" end="reset.mouseout"/>
                       </use>
               </g>
        </defs>

<script type="text/javascript">
var viewWidth = 1201;
var viewHeight = 360;
var sectionId = 'dynsection-6';
</script>
<script xlink:href="svgpan.js"/>
<svg id="graph" class="graph">
<g id="viewport">
<title>ren_pos</title>
<polygon fill="white" stroke="transparent" points="-4,4 -4,-356 1197,-356 1197,4 -4,4"/>
<!-- Node1 -->
<g id="node1" class="node">
<title>Node1</title>
<g id="a_node1"><a xlink:title=" ">
<polygon fill="#bfbfbf" stroke="black" points="0,-40.5 0,-59.5 51,-59.5 51,-40.5 0,-40.5"/>
<text text-anchor="middle" x="25.5" y="-47.5" font-family="Helvetica,sans-Serif" font-size="10.00">ren_pos</text>
</a>
</g>
</g>
<!-- Node2 -->
<g id="node2" class="node">
<title>Node2</title>
<g id="a_node2"><a xlink:href="ren_8c.html#af6e197881adec94ce251c84adf3dd495" target="_top" xlink:title=" ">
<polygon fill="white" stroke="black" points="87,-83.5 87,-102.5 156,-102.5 156,-83.5 87,-83.5"/>
<text text-anchor="middle" x="121.5" y="-90.5" font-family="Helvetica,sans-Serif" font-size="10.00">ren_position</text>
</a>
</g>
</g>
<!-- Node1&#45;&gt;Node2 -->
<g id="edge1" class="edge">
<title>Node1&#45;&gt;Node2</title>
<path fill="none" stroke="midnightblue" d="M47.36,-59.54C60.02,-65.33 76.38,-72.82 90.42,-79.24"/>
<polygon fill="midnightblue" stroke="midnightblue" points="89.15,-82.51 99.7,-83.48 92.06,-76.14 89.15,-82.51"/>
</g>
<!-- Node30 -->
<g id="node30" class="node">
<title>Node30</title>
<g id="a_node30"><a xlink:href="uc_8c.html#a8afd7835259109c3ec7bb684d4a1f67f" target="_top" xlink:title=" ">
<polygon fill="white" stroke="black" points="432.5,-0.5 432.5,-19.5 482.5,-19.5 482.5,-0.5 432.5,-0.5"/>
<text text-anchor="middle" x="457.5" y="-7.5" font-family="Helvetica,sans-Serif" font-size="10.00">uc_slen</text>
</a>
</g>
</g>
<!-- Node1&#45;&gt;Node30 -->
<g id="edge41" class="edge">
<title>Node1&#45;&gt;Node30</title>
<path fill="none" stroke="midnightblue" d="M51.16,-47.71C124.07,-40.92 338.69,-20.96 422.46,-13.17"/>
<polygon fill="midnightblue" stroke="midnightblue" points="422.84,-16.65 432.47,-12.24 422.19,-9.68 422.84,-16.65"/>
</g>
<!-- Node3 -->
<g id="node3" class="node">
<title>Node3</title>
<g id="a_node3"><a xlink:href="dir_8c.html#a8703d559ca9c640b8b89c589cf75ac06" target="_top" xlink:title=" ">
<polygon fill="white" stroke="black" points="192,-105.5 192,-124.5 254,-124.5 254,-105.5 192,-105.5"/>
<text text-anchor="middle" x="223" y="-112.5" font-family="Helvetica,sans-Serif" font-size="10.00">dir_reorder</text>
</a>
</g>
</g>
<!-- Node2&#45;&gt;Node3 -->
<g id="edge2" class="edge">
<title>Node2&#45;&gt;Node3</title>
<path fill="none" stroke="midnightblue" d="M156.19,-100.45C164.45,-102.28 173.38,-104.25 181.92,-106.14"/>
<polygon fill="midnightblue" stroke="midnightblue" points="181.17,-109.56 191.69,-108.3 182.68,-102.72 181.17,-109.56"/>
</g>
<!-- Node29 -->
<g id="node29" class="node">
<title>Node29</title>
<g id="a_node29"><a xlink:href="uc_8c.html#a1764c4d0fa27bca336e5ca300ad969e7" target="_top" xlink:title=" ">
<polygon fill="white" stroke="black" points="308.5,-62.5 308.5,-81.5 361.5,-81.5 361.5,-62.5 308.5,-62.5"/>
<text text-anchor="middle" x="335" y="-69.5" font-family="Helvetica,sans-Serif" font-size="10.00">uc_chop</text>
</a>
</g>
</g>
<!-- Node2&#45;&gt;Node29 -->
<g id="edge40" class="edge">
<title>Node2&#45;&gt;Node29</title>
<path fill="none" stroke="midnightblue" d="M156.01,-89.67C194.83,-85.82 258.51,-79.5 298.25,-75.55"/>
<polygon fill="midnightblue" stroke="midnightblue" points="298.69,-79.02 308.29,-74.55 298,-72.06 298.69,-79.02"/>
</g>
<!-- Node31 -->
<g id="node31" class="node">
<title>Node31</title>
<g id="a_node31"><a xlink:href="ren_8c.html#a319a71758607f19d2beedd2bd4d3b369" target="_top" xlink:title=" ">
<polygon fill="white" stroke="black" points="195,-206.5 195,-225.5 251,-225.5 251,-206.5 195,-206.5"/>
<text text-anchor="middle" x="223" y="-213.5" font-family="Helvetica,sans-Serif" font-size="10.00">ren_cwid</text>
</a>
</g>
</g>
<!-- Node2&#45;&gt;Node31 -->
<g id="edge37" class="edge">
<title>Node2&#45;&gt;Node31</title>
<path fill="none" stroke="midnightblue" d="M130.31,-102.65C147.02,-123.31 186.46,-172.06 207.76,-198.4"/>
<polygon fill="midnightblue" stroke="midnightblue" points="205.22,-200.82 214.23,-206.39 210.66,-196.42 205.22,-200.82"/>
</g>
<!-- Node4 -->
<g id="node4" class="node">
<title>Node4</title>
<g id="a_node4"><a xlink:href="dir_8c.html#aba0a553010578626d7148da2b6551321" target="_top" xlink:title=" ">
<polygon fill="white" stroke="black" points="302.5,-168.5 302.5,-187.5 367.5,-187.5 367.5,-168.5 302.5,-168.5"/>
<text text-anchor="middle" x="335" y="-175.5" font-family="Helvetica,sans-Serif" font-size="10.00">dir_context</text>
</a>
</g>
</g>
<!-- Node3&#45;&gt;Node4 -->
<g id="edge3" class="edge">
<title>Node3&#45;&gt;Node4</title>
<path fill="none" stroke="midnightblue" d="M240.71,-124.57C258.64,-134.84 287.34,-151.28 308.18,-163.21"/>
<polygon fill="midnightblue" stroke="midnightblue" points="306.72,-166.41 317.14,-168.34 310.2,-160.33 306.72,-166.41"/>
</g>
<!-- Node17 -->
<g id="node17" class="node">
<title>Node17</title>
<g id="a_node17"><a xlink:href="dir_8c.html#a8dbcb1db32888e71e2702f7173e7cba4" target="_top" xlink:title=" ">
<polygon fill="white" stroke="black" points="313.5,-109.5 313.5,-128.5 356.5,-128.5 356.5,-109.5 313.5,-109.5"/>
<text text-anchor="middle" x="335" y="-116.5" font-family="Helvetica,sans-Serif" font-size="10.00">dir_fix</text>
</a>
</g>
</g>
<!-- Node3&#45;&gt;Node17 -->
<g id="edge19" class="edge">
<title>Node3&#45;&gt;Node17</title>
<path fill="none" stroke="midnightblue" d="M254.06,-116.09C269.36,-116.65 287.92,-117.32 303.31,-117.88"/>
<polygon fill="midnightblue" stroke="midnightblue" points="303.25,-121.38 313.37,-118.25 303.51,-114.39 303.25,-121.38"/>
</g>
<!-- Node3&#45;&gt;Node29 -->
<g id="edge33" class="edge">
<title>Node3&#45;&gt;Node29</title>
<path fill="none" stroke="midnightblue" d="M248.41,-105.46C263.65,-99.5 283.48,-91.75 300.22,-85.21"/>
<polygon fill="midnightblue" stroke="midnightblue" points="301.62,-88.42 309.66,-81.52 299.07,-81.9 301.62,-88.42"/>
</g>
<!-- Node5 -->
<g id="node5" class="node">
<title>Node5</title>
<g id="a_node5"><a xlink:href="conf_8c.html#a9e1bc5ed600c151c51d8e2342454e07c" target="_top" xlink:title=" ">
<polygon fill="white" stroke="black" points="416,-228.5 416,-247.5 499,-247.5 499,-228.5 416,-228.5"/>
<text text-anchor="middle" x="457.5" y="-235.5" font-family="Helvetica,sans-Serif" font-size="10.00">conf_dircontext</text>
</a>
</g>
</g>
<!-- Node4&#45;&gt;Node5 -->
<g id="edge4" class="edge">
<title>Node4&#45;&gt;Node5</title>
<path fill="none" stroke="midnightblue" d="M359.46,-187.69C366.15,-190.58 373.41,-193.82 380,-197 397.14,-205.28 415.99,-215.37 430.7,-223.47"/>
<polygon fill="midnightblue" stroke="midnightblue" points="429.25,-226.67 439.7,-228.47 432.65,-220.55 429.25,-226.67"/>
</g>
<!-- Node6 -->
<g id="node6" class="node">
<title>Node6</title>
<g id="a_node6"><a xlink:href="rset_8c.html#a389ec5abca88adc048a058744f2373eb" target="_top" xlink:title=" ">
<polygon fill="white" stroke="black" points="544.5,-304.5 544.5,-323.5 598.5,-323.5 598.5,-304.5 544.5,-304.5"/>
<text text-anchor="middle" x="571.5" y="-311.5" font-family="Helvetica,sans-Serif" font-size="10.00">rset_find</text>
</a>
</g>
</g>
<!-- Node4&#45;&gt;Node6 -->
<g id="edge5" class="edge">
<title>Node4&#45;&gt;Node6</title>
<path fill="none" stroke="midnightblue" d="M367.75,-178.21C403.45,-180.05 461.34,-188.08 499,-219 527.89,-242.72 509.23,-267.93 535,-295 536.19,-296.25 537.49,-297.44 538.85,-298.57"/>
<polygon fill="midnightblue" stroke="midnightblue" points="537,-301.54 547.22,-304.31 540.96,-295.77 537,-301.54"/>
</g>
<!-- Node7 -->
<g id="node7" class="node">
<title>Node7</title>
<g id="a_node7"><a xlink:href="regex_8c.html#aa085ccd05ec25e3f8053850aebc50fe3" target="_top" xlink:title=" ">
<polygon fill="white" stroke="black" points="653.5,-304.5 653.5,-323.5 704.5,-323.5 704.5,-304.5 653.5,-304.5"/>
<text text-anchor="middle" x="679" y="-311.5" font-family="Helvetica,sans-Serif" font-size="10.00">regexec</text>
</a>
</g>
</g>
<!-- Node6&#45;&gt;Node7 -->
<g id="edge6" class="edge">
<title>Node6&#45;&gt;Node7</title>
<path fill="none" stroke="midnightblue" d="M598.58,-314C612.03,-314 628.63,-314 643.16,-314"/>
<polygon fill="midnightblue" stroke="midnightblue" points="643.31,-317.5 653.31,-314 643.31,-310.5 643.31,-317.5"/>
</g>
<!-- Node8 -->
<g id="node8" class="node">
<title>Node8</title>
<g id="a_node8"><a xlink:href="regex_8c.html#aa5925e49bd18112bb37421dbde29162a" target="_top" xlink:title=" ">
<polygon fill="white" stroke="black" points="750,-266.5 750,-285.5 821,-285.5 821,-266.5 750,-266.5"/>
<text text-anchor="middle" x="785.5" y="-273.5" font-family="Helvetica,sans-Serif" font-size="10.00">re_recmatch</text>
</a>
</g>
</g>
<!-- Node7&#45;&gt;Node8 -->
<g id="edge7" class="edge">
<title>Node7&#45;&gt;Node8</title>
<path fill="none" stroke="midnightblue" d="M704.5,-305.09C717.64,-300.31 734.07,-294.34 748.62,-289.05"/>
<polygon fill="midnightblue" stroke="midnightblue" points="750.12,-292.22 758.33,-285.52 747.73,-285.65 750.12,-292.22"/>
</g>
<!-- Node14 -->
<g id="node14" class="node">
<title>Node14</title>
<g id="a_node14"><a xlink:href="regex_8c.html#a9a0d6d5f93f1eaba8b63b16903c0952d" target="_top" xlink:title=" ">
<polygon fill="white" stroke="black" points="1146.5,-304.5 1146.5,-323.5 1191.5,-323.5 1191.5,-304.5 1146.5,-304.5"/>
<text text-anchor="middle" x="1169" y="-311.5" font-family="Helvetica,sans-Serif" font-size="10.00">uc_len</text>
</a>
</g>
</g>
<!-- Node7&#45;&gt;Node14 -->
<g id="edge18" class="edge">
<title>Node7&#45;&gt;Node14</title>
<path fill="none" stroke="midnightblue" d="M704.71,-321.87C741.9,-333 814.65,-352 878,-352 878,-352 878,-352 975,-352 1032.75,-352 1098.42,-335.42 1136.34,-324.16"/>
<polygon fill="midnightblue" stroke="midnightblue" points="1137.73,-327.4 1146.28,-321.15 1135.69,-320.7 1137.73,-327.4"/>
</g>
<!-- Node9 -->
<g id="node9" class="node">
<title>Node9</title>
<g id="a_node9"><a xlink:href="regex_8c.html#a8e35614ddf21d405773327a52a95a73d" target="_top" xlink:title=" ">
<polygon fill="white" stroke="black" points="857,-256.5 857,-275.5 901,-275.5 901,-256.5 857,-256.5"/>
<text text-anchor="middle" x="879" y="-263.5" font-family="Helvetica,sans-Serif" font-size="10.00">re_rec</text>
</a>
</g>
</g>
<!-- Node8&#45;&gt;Node9 -->
<g id="edge8" class="edge">
<title>Node8&#45;&gt;Node9</title>
<path fill="none" stroke="midnightblue" d="M821.09,-272.22C829.56,-271.29 838.57,-270.31 846.87,-269.4"/>
<polygon fill="midnightblue" stroke="midnightblue" points="847.34,-272.87 856.9,-268.31 846.58,-265.91 847.34,-272.87"/>
</g>
<!-- Node10 -->
<g id="node10" class="node">
<title>Node10</title>
<g id="a_node10"><a xlink:href="regex_8c.html#a24fd1fc7457ff4f03fb384f7170ac395" target="_top" xlink:title=" ">
<polygon fill="white" stroke="black" points="937,-237.5 937,-256.5 1011,-256.5 1011,-237.5 937,-237.5"/>
<text text-anchor="middle" x="974" y="-244.5" font-family="Helvetica,sans-Serif" font-size="10.00">ratom_match</text>
</a>
</g>
</g>
<!-- Node9&#45;&gt;Node10 -->
<g id="edge9" class="edge">
<title>Node9&#45;&gt;Node10</title>
<path fill="none" stroke="midnightblue" d="M901.1,-261.69C908.73,-260.13 917.68,-258.3 926.63,-256.47"/>
<polygon fill="midnightblue" stroke="midnightblue" points="927.55,-259.86 936.65,-254.43 926.15,-253 927.55,-259.86"/>
</g>
<!-- Node11 -->
<g id="node11" class="node">
<title>Node11</title>
<g id="a_node11"><a xlink:href="regex_8c.html#aae17ed73e84075718fb04d131d6ca779" target="_top" xlink:title=" ">
<polygon fill="white" stroke="black" points="1047,-266.5 1047,-285.5 1109,-285.5 1109,-266.5 1047,-266.5"/>
<text text-anchor="middle" x="1078" y="-273.5" font-family="Helvetica,sans-Serif" font-size="10.00">brk_match</text>
</a>
</g>
</g>
<!-- Node10&#45;&gt;Node11 -->
<g id="edge10" class="edge">
<title>Node10&#45;&gt;Node11</title>
<path fill="none" stroke="midnightblue" d="M1008.68,-256.58C1017.72,-259.14 1027.57,-261.95 1036.92,-264.6"/>
<polygon fill="midnightblue" stroke="midnightblue" points="1036.22,-268.04 1046.79,-267.41 1038.13,-261.31 1036.22,-268.04"/>
</g>
<!-- Node13 -->
<g id="node13" class="node">
<title>Node13</title>
<g id="a_node13"><a xlink:href="regex_8c.html#aaf73cdb88048e7f9fd588eb8d5aeb5a3" target="_top" xlink:title=" ">
<polygon fill="white" stroke="black" points="1145,-228.5 1145,-247.5 1193,-247.5 1193,-228.5 1145,-228.5"/>
<text text-anchor="middle" x="1169" y="-235.5" font-family="Helvetica,sans-Serif" font-size="10.00">uc_dec</text>
</a>
</g>
</g>
<!-- Node10&#45;&gt;Node13 -->
<g id="edge16" class="edge">
<title>Node10&#45;&gt;Node13</title>
<path fill="none" stroke="midnightblue" d="M1011.3,-245.31C1046.83,-243.65 1100.48,-241.15 1134.87,-239.54"/>
<polygon fill="midnightblue" stroke="midnightblue" points="1135.06,-243.04 1144.89,-239.08 1134.73,-236.05 1135.06,-243.04"/>
</g>
<!-- Node10&#45;&gt;Node14 -->
<g id="edge17" class="edge">
<title>Node10&#45;&gt;Node14</title>
<path fill="none" stroke="midnightblue" d="M986.34,-256.87C999.83,-268.02 1023.49,-285.83 1047,-295 1075.95,-306.29 1111.27,-310.88 1136.26,-312.74"/>
<polygon fill="midnightblue" stroke="midnightblue" points="1136.09,-316.24 1146.29,-313.39 1136.54,-309.25 1136.09,-316.24"/>
</g>
<!-- Node15 -->
<g id="node15" class="node">
<title>Node15</title>
<g id="a_node15"><a xlink:href="regex_8c.html#a35ad3fd0dbb795e6f30404ce86a7be5b" target="_top" xlink:title=" ">
<polygon fill="white" stroke="black" points="1055.5,-190.5 1055.5,-209.5 1100.5,-209.5 1100.5,-190.5 1055.5,-190.5"/>
<text text-anchor="middle" x="1078" y="-197.5" font-family="Helvetica,sans-Serif" font-size="10.00">isword</text>
</a>
</g>
</g>
<!-- Node10&#45;&gt;Node15 -->
<g id="edge14" class="edge">
<title>Node10&#45;&gt;Node15</title>
<path fill="none" stroke="midnightblue" d="M995.64,-237.49C1010.34,-230.72 1030.32,-221.51 1046.8,-213.91"/>
<polygon fill="midnightblue" stroke="midnightblue" points="1048.42,-217.02 1056.04,-209.66 1045.49,-210.66 1048.42,-217.02"/>
</g>
<!-- Node16 -->
<g id="node16" class="node">
<title>Node16</title>
<g id="a_node16"><a xlink:href="regex_8c.html#ade3e10606e6e8866e6151fe8440d6101" target="_top" xlink:title=" ">
<polygon fill="white" stroke="black" points="1054,-152.5 1054,-171.5 1102,-171.5 1102,-152.5 1054,-152.5"/>
<text text-anchor="middle" x="1078" y="-159.5" font-family="Helvetica,sans-Serif" font-size="10.00">uc_beg</text>
</a>
</g>
</g>
<!-- Node10&#45;&gt;Node16 -->
<g id="edge15" class="edge">
<title>Node10&#45;&gt;Node16</title>
<path fill="none" stroke="midnightblue" d="M984.3,-237.46C997.58,-224.09 1023.03,-199.34 1047,-181 1048.62,-179.76 1050.31,-178.53 1052.04,-177.32"/>
<polygon fill="midnightblue" stroke="midnightblue" points="1054.36,-179.99 1060.76,-171.55 1050.49,-174.15 1054.36,-179.99"/>
</g>
<!-- Node12 -->
<g id="node12" class="node">
<title>Node12</title>
<g id="a_node12"><a xlink:href="regex_8c.html#acc18ff8d2687611a9e221b3329b02413" target="_top" xlink:title=" ">
<polygon fill="white" stroke="black" points="1145,-266.5 1145,-285.5 1193,-285.5 1193,-266.5 1145,-266.5"/>
<text text-anchor="middle" x="1169" y="-273.5" font-family="Helvetica,sans-Serif" font-size="10.00">brk_len</text>
</a>
</g>
</g>
<!-- Node11&#45;&gt;Node12 -->
<g id="edge11" class="edge">
<title>Node11&#45;&gt;Node12</title>
<path fill="none" stroke="midnightblue" d="M1109.13,-276C1117.36,-276 1126.32,-276 1134.71,-276"/>
<polygon fill="midnightblue" stroke="midnightblue" points="1134.94,-279.5 1144.94,-276 1134.94,-272.5 1134.94,-279.5"/>
</g>
<!-- Node11&#45;&gt;Node13 -->
<g id="edge12" class="edge">
<title>Node11&#45;&gt;Node13</title>
<path fill="none" stroke="midnightblue" d="M1101.46,-266.41C1112,-261.91 1124.75,-256.47 1136.25,-251.56"/>
<polygon fill="midnightblue" stroke="midnightblue" points="1137.73,-254.73 1145.55,-247.59 1134.98,-248.29 1137.73,-254.73"/>
</g>
<!-- Node11&#45;&gt;Node14 -->
<g id="edge13" class="edge">
<title>Node11&#45;&gt;Node14</title>
<path fill="none" stroke="midnightblue" d="M1101.46,-285.59C1112.24,-290.19 1125.33,-295.78 1137.04,-300.78"/>
<polygon fill="midnightblue" stroke="midnightblue" points="1135.9,-304.1 1146.47,-304.81 1138.65,-297.66 1135.9,-304.1"/>
</g>
<!-- Node18 -->
<g id="node18" class="node">
<title>Node18</title>
<g id="a_node18"><a xlink:href="dir_8c.html#a3b2f132ebfd084295e89aa35eff56ff4" target="_top" xlink:title=" ">
<polygon fill="white" stroke="black" points="428,-152.5 428,-171.5 487,-171.5 487,-152.5 428,-152.5"/>
<text text-anchor="middle" x="457.5" y="-159.5" font-family="Helvetica,sans-Serif" font-size="10.00">dir_match</text>
</a>
</g>
</g>
<!-- Node17&#45;&gt;Node18 -->
<g id="edge20" class="edge">
<title>Node17&#45;&gt;Node18</title>
<path fill="none" stroke="midnightblue" d="M356.71,-126.39C374.14,-132.61 399.47,-141.65 420.25,-149.06"/>
<polygon fill="midnightblue" stroke="midnightblue" points="419.13,-152.38 429.73,-152.45 421.48,-145.79 419.13,-152.38"/>
</g>
<!-- Node28 -->
<g id="node28" class="node">
<title>Node28</title>
<g id="a_node28"><a xlink:href="dir_8c.html#a83ed34b9263550e2ca9b15cc02294a6b" target="_top" xlink:title=" ">
<polygon fill="white" stroke="black" points="425,-109.5 425,-128.5 490,-128.5 490,-109.5 425,-109.5"/>
<text text-anchor="middle" x="457.5" y="-116.5" font-family="Helvetica,sans-Serif" font-size="10.00">dir_reverse</text>
</a>
</g>
</g>
<!-- Node17&#45;&gt;Node28 -->
<g id="edge32" class="edge">
<title>Node17&#45;&gt;Node28</title>
<path fill="none" stroke="midnightblue" d="M356.71,-119C372.57,-119 394.97,-119 414.53,-119"/>
<polygon fill="midnightblue" stroke="midnightblue" points="414.75,-122.5 424.75,-119 414.75,-115.5 414.75,-122.5"/>
</g>
<!-- Node18&#45;&gt;Node6 -->
<g id="edge22" class="edge">
<title>Node18&#45;&gt;Node6</title>
<path fill="none" stroke="midnightblue" d="M481.27,-171.72C487.73,-175.39 494.29,-180.14 499,-186 530.98,-225.75 502.16,-255.95 535,-295 535.98,-296.17 537.06,-297.28 538.2,-298.33"/>
<polygon fill="midnightblue" stroke="midnightblue" points="536.37,-301.32 546.5,-304.42 540.51,-295.68 536.37,-301.32"/>
</g>
<!-- Node19 -->
<g id="node19" class="node">
<title>Node19</title>
<g id="a_node19"><a xlink:href="conf_8c.html#a3efe6ef9cd3bd043b3df1653265409f2" target="_top" xlink:title=" ">
<polygon fill="white" stroke="black" points="535,-152.5 535,-171.5 608,-171.5 608,-152.5 535,-152.5"/>
<text text-anchor="middle" x="571.5" y="-159.5" font-family="Helvetica,sans-Serif" font-size="10.00">conf_dirmark</text>
</a>
</g>
</g>
<!-- Node18&#45;&gt;Node19 -->
<g id="edge21" class="edge">
<title>Node18&#45;&gt;Node19</title>
<path fill="none" stroke="midnightblue" d="M487.05,-162C498.51,-162 512,-162 524.75,-162"/>
<polygon fill="midnightblue" stroke="midnightblue" points="524.77,-165.5 534.77,-162 524.77,-158.5 524.77,-165.5"/>
</g>
<!-- Node20 -->
<g id="node20" class="node">
<title>Node20</title>
<g id="a_node20"><a xlink:href="sbuf_8c.html#a4e56760893d5a6797626743840c9adf2" target="_top" xlink:title=" ">
<polygon fill="white" stroke="black" points="544.5,-228.5 544.5,-247.5 598.5,-247.5 598.5,-228.5 544.5,-228.5"/>
<text text-anchor="middle" x="571.5" y="-235.5" font-family="Helvetica,sans-Serif" font-size="10.00">sbuf_buf</text>
</a>
</g>
</g>
<!-- Node18&#45;&gt;Node20 -->
<g id="edge23" class="edge">
<title>Node18&#45;&gt;Node20</title>
<path fill="none" stroke="midnightblue" d="M476.35,-171.52C483.6,-175.65 491.91,-180.74 499,-186 516.43,-198.94 517.29,-206.45 535,-219 537.1,-220.49 539.32,-221.94 541.6,-223.33"/>
<polygon fill="midnightblue" stroke="midnightblue" points="540.03,-226.47 550.45,-228.39 543.5,-220.39 540.03,-226.47"/>
</g>
<!-- Node22 -->
<g id="node22" class="node">
<title>Node22</title>
<g id="a_node22"><a xlink:href="sbuf_8c.html#a8c1a89868b1999663effb78b4f3fab32" target="_top" xlink:title=" ">
<polygon fill="white" stroke="black" points="543,-76.5 543,-95.5 600,-95.5 600,-76.5 543,-76.5"/>
<text text-anchor="middle" x="571.5" y="-83.5" font-family="Helvetica,sans-Serif" font-size="10.00">sbuf_free</text>
</a>
</g>
</g>
<!-- Node18&#45;&gt;Node22 -->
<g id="edge25" class="edge">
<title>Node18&#45;&gt;Node22</title>
<path fill="none" stroke="midnightblue" d="M476.35,-152.48C483.6,-148.35 491.91,-143.26 499,-138 516.43,-125.06 517.29,-117.55 535,-105 537.1,-103.51 539.32,-102.06 541.6,-100.67"/>
<polygon fill="midnightblue" stroke="midnightblue" points="543.5,-103.61 550.45,-95.61 540.03,-97.53 543.5,-103.61"/>
</g>
<!-- Node23 -->
<g id="node23" class="node">
<title>Node23</title>
<g id="a_node23"><a xlink:href="sbuf_8c.html#a57748585d6786a2c1aadc2cbe6f2135b" target="_top" xlink:title=" ">
<polygon fill="white" stroke="black" points="539,-266.5 539,-285.5 604,-285.5 604,-266.5 539,-266.5"/>
<text text-anchor="middle" x="571.5" y="-273.5" font-family="Helvetica,sans-Serif" font-size="10.00">sbuf_make</text>
</a>
</g>
</g>
<!-- Node18&#45;&gt;Node23 -->
<g id="edge26" class="edge">
<title>Node18&#45;&gt;Node23</title>
<path fill="none" stroke="midnightblue" d="M479.9,-171.69C486.6,-175.47 493.64,-180.27 499,-186 523.18,-211.83 510.26,-231.71 535,-257 536.24,-258.27 537.59,-259.48 539.01,-260.62"/>
<polygon fill="midnightblue" stroke="midnightblue" points="537.42,-263.77 547.67,-266.45 541.33,-257.96 537.42,-263.77"/>
</g>
<!-- Node24 -->
<g id="node24" class="node">
<title>Node24</title>
<g id="a_node24"><a xlink:href="sbuf_8c.html#aa511ac77d6b486accc01c0512ef27ed2" target="_top" xlink:title=" ">
<polygon fill="white" stroke="black" points="540.5,-190.5 540.5,-209.5 602.5,-209.5 602.5,-190.5 540.5,-190.5"/>
<text text-anchor="middle" x="571.5" y="-197.5" font-family="Helvetica,sans-Serif" font-size="10.00">sbuf_mem</text>
</a>
</g>
</g>
<!-- Node18&#45;&gt;Node24 -->
<g id="edge27" class="edge">
<title>Node18&#45;&gt;Node24</title>
<path fill="none" stroke="midnightblue" d="M486.76,-171.59C500.69,-176.31 517.68,-182.08 532.71,-187.18"/>
<polygon fill="midnightblue" stroke="midnightblue" points="531.65,-190.52 542.25,-190.41 533.9,-183.89 531.65,-190.52"/>
</g>
<!-- Node25 -->
<g id="node25" class="node">
<title>Node25</title>
<g id="a_node25"><a xlink:href="uc_8c.html#a8334cbe4db5e54e19bf79b31f68d9eb8" target="_top" xlink:title=" ">
<polygon fill="white" stroke="black" points="549.5,-114.5 549.5,-133.5 593.5,-133.5 593.5,-114.5 549.5,-114.5"/>
<text text-anchor="middle" x="571.5" y="-121.5" font-family="Helvetica,sans-Serif" font-size="10.00">uc_off</text>
</a>
</g>
</g>
<!-- Node18&#45;&gt;Node25 -->
<g id="edge29" class="edge">
<title>Node18&#45;&gt;Node25</title>
<path fill="none" stroke="midnightblue" d="M486.76,-152.41C502.86,-146.95 523.05,-140.1 539.57,-134.49"/>
<polygon fill="midnightblue" stroke="midnightblue" points="540.97,-137.71 549.32,-131.19 538.72,-131.09 540.97,-137.71"/>
</g>
<!-- Node21 -->
<g id="node21" class="node">
<title>Node21</title>
<g id="a_node21"><a xlink:href="sbuf_8c.html#a4ad75f3948c0340c342a3ea3eb63a6e6" target="_top" xlink:title=" ">
<polygon fill="white" stroke="black" points="644,-209.5 644,-228.5 714,-228.5 714,-209.5 644,-209.5"/>
<text text-anchor="middle" x="679" y="-216.5" font-family="Helvetica,sans-Serif" font-size="10.00">sbuf_extend</text>
</a>
</g>
</g>
<!-- Node20&#45;&gt;Node21 -->
<g id="edge24" class="edge">
<title>Node20&#45;&gt;Node21</title>
<path fill="none" stroke="midnightblue" d="M598.58,-233.3C609.26,-231.38 621.91,-229.1 633.95,-226.93"/>
<polygon fill="midnightblue" stroke="midnightblue" points="634.64,-230.37 643.86,-225.15 633.39,-223.48 634.64,-230.37"/>
</g>
<!-- Node24&#45;&gt;Node21 -->
<g id="edge28" class="edge">
<title>Node24&#45;&gt;Node21</title>
<path fill="none" stroke="midnightblue" d="M602.73,-205.44C612.42,-207.19 623.36,-209.16 633.83,-211.05"/>
<polygon fill="midnightblue" stroke="midnightblue" points="633.22,-214.49 643.68,-212.82 634.46,-207.6 633.22,-214.49"/>
</g>
<!-- Node26 -->
<g id="node26" class="node">
<title>Node26</title>
<g id="a_node26"><a xlink:href="uc_8c.html#a79c7c44c06c1febff5680c19667e2676" target="_top" xlink:title=" ">
<polygon fill="white" stroke="black" points="653.5,-38.5 653.5,-57.5 704.5,-57.5 704.5,-38.5 653.5,-38.5"/>
<text text-anchor="middle" x="679" y="-45.5" font-family="Helvetica,sans-Serif" font-size="10.00">uc_next</text>
</a>
</g>
</g>
<!-- Node25&#45;&gt;Node26 -->
<g id="edge30" class="edge">
<title>Node25&#45;&gt;Node26</title>
<path fill="none" stroke="midnightblue" d="M592.05,-114.4C597.35,-111.57 603,-108.33 608,-105 626.58,-92.63 646.16,-76.38 659.87,-64.4"/>
<polygon fill="midnightblue" stroke="midnightblue" points="662.42,-66.81 667.58,-57.56 657.78,-61.57 662.42,-66.81"/>
</g>
<!-- Node27 -->
<g id="node27" class="node">
<title>Node27</title>
<g id="a_node27"><a xlink:href="uc_8c.html#a616e24870a58b86644c34ee077faca11" target="_top" xlink:title=" ">
<polygon fill="white" stroke="black" points="761.5,-19.5 761.5,-38.5 809.5,-38.5 809.5,-19.5 761.5,-19.5"/>
<text text-anchor="middle" x="785.5" y="-26.5" font-family="Helvetica,sans-Serif" font-size="10.00">uc_end</text>
</a>
</g>
</g>
<!-- Node26&#45;&gt;Node27 -->
<g id="edge31" class="edge">
<title>Node26&#45;&gt;Node27</title>
<path fill="none" stroke="midnightblue" d="M704.5,-43.55C718.42,-41.01 736.04,-37.81 751.2,-35.05"/>
<polygon fill="midnightblue" stroke="midnightblue" points="752.02,-38.46 761.23,-33.23 750.76,-31.58 752.02,-38.46"/>
</g>
<!-- Node29&#45;&gt;Node26 -->
<g id="edge34" class="edge">
<title>Node29&#45;&gt;Node26</title>
<path fill="none" stroke="midnightblue" d="M361.71,-70.2C422.31,-65.94 574.2,-55.28 643.07,-50.45"/>
<polygon fill="midnightblue" stroke="midnightblue" points="643.65,-53.92 653.38,-49.73 643.16,-46.94 643.65,-53.92"/>
</g>
<!-- Node29&#45;&gt;Node30 -->
<g id="edge35" class="edge">
<title>Node29&#45;&gt;Node30</title>
<path fill="none" stroke="midnightblue" d="M354.56,-62.45C374.32,-52.28 405.8,-36.08 428.56,-24.38"/>
<polygon fill="midnightblue" stroke="midnightblue" points="430.43,-27.35 437.72,-19.66 427.22,-21.13 430.43,-27.35"/>
</g>
<!-- Node30&#45;&gt;Node27 -->
<g id="edge36" class="edge">
<title>Node30&#45;&gt;Node27</title>
<path fill="none" stroke="midnightblue" d="M482.74,-11.41C540.33,-14.77 685.45,-23.23 751.21,-27.06"/>
<polygon fill="midnightblue" stroke="midnightblue" points="751.23,-30.57 761.42,-27.65 751.64,-23.58 751.23,-30.57"/>
</g>
<!-- Node32 -->
<g id="node32" class="node">
<title>Node32</title>
<g id="a_node32"><a xlink:href="conf_8c.html#ab1da6502eeb02af2fb9fa8a84515b0b6" target="_top" xlink:title=" ">
<polygon fill="white" stroke="black" points="290,-244.5 290,-263.5 380,-263.5 380,-244.5 290,-244.5"/>
<text text-anchor="middle" x="335" y="-251.5" font-family="Helvetica,sans-Serif" font-size="10.00">conf_placeholder</text>
</a>
</g>
</g>
<!-- Node31&#45;&gt;Node32 -->
<g id="edge38" class="edge">
<title>Node31&#45;&gt;Node32</title>
<path fill="none" stroke="midnightblue" d="M251.19,-225.39C264.97,-230.15 281.91,-236 296.87,-241.17"/>
<polygon fill="midnightblue" stroke="midnightblue" points="295.76,-244.49 306.36,-244.45 298.05,-237.88 295.76,-244.49"/>
</g>
<!-- Node33 -->
<g id="node33" class="node">
<title>Node33</title>
<g id="a_node33"><a xlink:href="uc_8c.html#a45fdc2f2f3cb34515f1014bf754741bb" target="_top" xlink:title=" ">
<polygon fill="white" stroke="black" points="308.5,-206.5 308.5,-225.5 361.5,-225.5 361.5,-206.5 308.5,-206.5"/>
<text text-anchor="middle" x="335" y="-213.5" font-family="Helvetica,sans-Serif" font-size="10.00">uc_code</text>
</a>
</g>
</g>
<!-- Node31&#45;&gt;Node33 -->
<g id="edge39" class="edge">
<title>Node31&#45;&gt;Node33</title>
<path fill="none" stroke="midnightblue" d="M251.19,-216C265.35,-216 282.86,-216 298.12,-216"/>
<polygon fill="midnightblue" stroke="midnightblue" points="298.26,-219.5 308.26,-216 298.26,-212.5 298.26,-219.5"/>
</g>
</g>
</svg>
        <g id="navigator" transform="translate(0 0)" fill="#404254">
                <rect fill="#f2f5e9" fill-opacity="0.5" stroke="#606060" stroke-width=".5" x="0" y="0" width="60" height="60"/>
                <use id="zoomplus" xlink:href="#zoomPlus" x="17" y="9" onmousedown="handleZoom(evt,'in')"/>
                <use id="zoomminus" xlink:href="#zoomMin" x="42" y="9" onmousedown="handleZoom(evt,'out')"/>
                <use id="reset" xlink:href="#resetDef" x="30" y="36" onmousedown="handleReset()"/>
                <g id="arrowUp" xlink:href="#dirArrow" transform="translate(30 24)" onmousedown="handlePan(0,-1)">
                  <use xlink:href="#rim" fill="#404040">
                        <set attributeName="fill" to="#808080" begin="arrowUp.mouseover" end="arrowUp.mouseout"/>
                  </use>
                  <path fill="none" stroke="white" stroke-width="1.5" d="M0,-3.0v7 M-2.5,-0.5L0,-3.0L2.5,-0.5"/>
                </g>
                <g id="arrowRight" xlink:href="#dirArrow" transform="rotate(90) translate(36 -43)" onmousedown="handlePan(1,0)">
                  <use xlink:href="#rim" fill="#404040">
                        <set attributeName="fill" to="#808080" begin="arrowRight.mouseover" end="arrowRight.mouseout"/>
                  </use>
                  <path fill="none" stroke="white" stroke-width="1.5" d="M0,-3.0v7 M-2.5,-0.5L0,-3.0L2.5,-0.5"/>
                </g>
                <g id="arrowDown" xlink:href="#dirArrow" transform="rotate(180) translate(-30 -48)" onmousedown="handlePan(0,1)">
                  <use xlink:href="#rim" fill="#404040">
                        <set attributeName="fill" to="#808080" begin="arrowDown.mouseover" end="arrowDown.mouseout"/>
                  </use>
                  <path fill="none" stroke="white" stroke-width="1.5" d="M0,-3.0v7 M-2.5,-0.5L0,-3.0L2.5,-0.5"/>
                </g>
                <g id="arrowLeft" xlink:href="#dirArrow" transform="rotate(270) translate(-36 17)" onmousedown="handlePan(-1,0)">
                  <use xlink:href="#rim" fill="#404040">
                        <set attributeName="fill" to="#808080" begin="arrowLeft.mouseover" end="arrowLeft.mouseout"/>
                  </use>
                  <path fill="none" stroke="white" stroke-width="1.5" d="M0,-3.0v7 M-2.5,-0.5L0,-3.0L2.5,-0.5"/>
                </g>
        </g>
        <svg viewBox="0 0 15 15" width="100%" height="30px" preserveAspectRatio="xMaxYMin meet">
         <g id="arrow_out" transform="scale(0.3 0.3)">
          <a xlink:href="ren_8c_ab66e6a45a074bd54643b4c6fba4abfe4_cgraph_org.svg" target="_base">
           <rect id="button" ry="5" rx="5" y="6" x="6" height="38" width="38"
                fill="#f2f5e9" fill-opacity="0.5" stroke="#606060" stroke-width="1.0"/>
           <path id="arrow"
             d="M 11.500037,31.436501 C 11.940474,20.09759 22.043105,11.32322 32.158766,21.979434 L 37.068811,17.246167 C 37.068811,17.246167 37.088388,32 37.088388,32 L 22.160133,31.978069 C 22.160133,31.978069 26.997745,27.140456 26.997745,27.140456 C 18.528582,18.264221 13.291696,25.230495 11.500037,31.436501 z"
             style="fill:#404040;"/>
          </a>
         </g>
        </svg>
</svg>
