<?xml version="1.0" encoding="UTF-8" standalone="no"?>
<!DOCTYPE svg PUBLIC "-//W3C//DTD SVG 1.1//EN"
 "http://www.w3.org/Graphics/SVG/1.1/DTD/svg11.dtd">
<!-- Generated by graphviz version 2.44.1 (20200629.0846)
 -->
<!-- Title: rset_find Pages: 1 -->
<svg width="628pt" height="210pt"
 viewBox="0.00 0.00 628.00 209.85" xmlns="http://www.w3.org/2000/svg" xmlns:xlink="http://www.w3.org/1999/xlink">
<g id="graph0" class="graph" transform="scale(1 1) rotate(0) translate(4 205.85)">
<title>rset_find</title>
<polygon fill="white" stroke="transparent" points="-4,4 -4,-205.85 624,-205.85 624,4 -4,4"/>
<!-- Node1 -->
<g id="node1" class="node">
<title>Node1</title>
<g id="a_node1"><a xlink:title=" ">
<polygon fill="#bfbfbf" stroke="black" points="0,-30.35 0,-49.35 54,-49.35 54,-30.35 0,-30.35"/>
<text text-anchor="middle" x="27" y="-37.35" font-family="Helvetica,sans-Serif" font-size="10.00">rset_find</text>
</a>
</g>
</g>
<!-- Node2 -->
<g id="node2" class="node">
<title>Node2</title>
<g id="a_node2"><a xlink:href="regex_8c.html#aa085ccd05ec25e3f8053850aebc50fe3" target="_top" xlink:title=" ">
<polygon fill="white" stroke="black" points="90,-30.35 90,-49.35 141,-49.35 141,-30.35 90,-30.35"/>
<text text-anchor="middle" x="115.5" y="-37.35" font-family="Helvetica,sans-Serif" font-size="10.00">regexec</text>
</a>
</g>
</g>
<!-- Node1&#45;&gt;Node2 -->
<g id="edge1" class="edge">
<title>Node1&#45;&gt;Node2</title>
<path fill="none" stroke="midnightblue" d="M54.42,-39.85C62.32,-39.85 71.1,-39.85 79.46,-39.85"/>
<polygon fill="midnightblue" stroke="midnightblue" points="79.72,-43.35 89.72,-39.85 79.72,-36.35 79.72,-43.35"/>
</g>
<!-- Node3 -->
<g id="node3" class="node">
<title>Node3</title>
<g id="a_node3"><a xlink:href="regex_8c.html#aa5925e49bd18112bb37421dbde29162a" target="_top" xlink:title=" ">
<polygon fill="white" stroke="black" points="177,-59.35 177,-78.35 248,-78.35 248,-59.35 177,-59.35"/>
<text text-anchor="middle" x="212.5" y="-66.35" font-family="Helvetica,sans-Serif" font-size="10.00">re_recmatch</text>
</a>
</g>
</g>
<!-- Node2&#45;&gt;Node3 -->
<g id="edge2" class="edge">
<title>Node2&#45;&gt;Node3</title>
<path fill="none" stroke="midnightblue" d="M141.46,-47.47C150.37,-50.19 160.65,-53.33 170.54,-56.35"/>
<polygon fill="midnightblue" stroke="midnightblue" points="169.66,-59.74 180.25,-59.31 171.7,-53.04 169.66,-59.74"/>
</g>
<!-- Node9 -->
<g id="node9" class="node">
<title>Node9</title>
<g id="a_node9"><a xlink:href="regex_8c.html#a9a0d6d5f93f1eaba8b63b16903c0952d" target="_top" xlink:title=" ">
<polygon fill="white" stroke="black" points="573.5,-68.35 573.5,-87.35 618.5,-87.35 618.5,-68.35 573.5,-68.35"/>
<text text-anchor="middle" x="596" y="-75.35" font-family="Helvetica,sans-Serif" font-size="10.00">uc_len</text>
</a>
</g>
</g>
<!-- Node2&#45;&gt;Node9 -->
<g id="edge13" class="edge">
<title>Node2&#45;&gt;Node9</title>
<path fill="none" stroke="midnightblue" d="M141.18,-31.61C176.89,-20.43 245.24,-1.85 305,-1.85 305,-1.85 305,-1.85 402,-1.85 462.15,-1.85 481.96,5.56 536,-20.85 554.68,-29.98 571.25,-47.24 582.03,-60.38"/>
<polygon fill="midnightblue" stroke="midnightblue" points="579.32,-62.6 588.25,-68.3 584.83,-58.27 579.32,-62.6"/>
</g>
<!-- Node4 -->
<g id="node4" class="node">
<title>Node4</title>
<g id="a_node4"><a xlink:href="regex_8c.html#a8e35614ddf21d405773327a52a95a73d" target="_top" xlink:title=" ">
<polygon fill="white" stroke="black" points="284,-78.35 284,-97.35 328,-97.35 328,-78.35 284,-78.35"/>
<text text-anchor="middle" x="306" y="-85.35" font-family="Helvetica,sans-Serif" font-size="10.00">re_rec</text>
</a>
</g>
</g>
<!-- Node3&#45;&gt;Node4 -->
<g id="edge3" class="edge">
<title>Node3&#45;&gt;Node4</title>
<path fill="none" stroke="midnightblue" d="M248.09,-76.03C256.56,-77.79 265.57,-79.66 273.87,-81.39"/>
<polygon fill="midnightblue" stroke="midnightblue" points="273.4,-84.86 283.9,-83.47 274.82,-78.01 273.4,-84.86"/>
</g>
<!-- Node5 -->
<g id="node5" class="node">
<title>Node5</title>
<g id="a_node5"><a xlink:href="regex_8c.html#a24fd1fc7457ff4f03fb384f7170ac395" target="_top" xlink:title=" ">
<polygon fill="white" stroke="black" points="364,-87.35 364,-106.35 438,-106.35 438,-87.35 364,-87.35"/>
<text text-anchor="middle" x="401" y="-94.35" font-family="Helvetica,sans-Serif" font-size="10.00">ratom_match</text>
</a>
</g>
</g>
<!-- Node4&#45;&gt;Node5 -->
<g id="edge4" class="edge">
<title>Node4&#45;&gt;Node5</title>
<path fill="none" stroke="midnightblue" d="M328.1,-89.89C335.73,-90.63 344.68,-91.5 353.63,-92.36"/>
<polygon fill="midnightblue" stroke="midnightblue" points="353.36,-95.85 363.65,-93.33 354.03,-88.89 353.36,-95.85"/>
</g>
<!-- Node6 -->
<g id="node6" class="node">
<title>Node6</title>
<g id="a_node6"><a xlink:href="regex_8c.html#aae17ed73e84075718fb04d131d6ca779" target="_top" xlink:title=" ">
<polygon fill="white" stroke="black" points="474,-106.35 474,-125.35 536,-125.35 536,-106.35 474,-106.35"/>
<text text-anchor="middle" x="505" y="-113.35" font-family="Helvetica,sans-Serif" font-size="10.00">brk_match</text>
</a>
</g>
</g>
<!-- Node5&#45;&gt;Node6 -->
<g id="edge5" class="edge">
<title>Node5&#45;&gt;Node6</title>
<path fill="none" stroke="midnightblue" d="M438.25,-103.6C446.55,-105.15 455.43,-106.8 463.89,-108.38"/>
<polygon fill="midnightblue" stroke="midnightblue" points="463.45,-111.86 473.93,-110.25 464.74,-104.98 463.45,-111.86"/>
</g>
<!-- Node8 -->
<g id="node8" class="node">
<title>Node8</title>
<g id="a_node8"><a xlink:href="regex_8c.html#aaf73cdb88048e7f9fd588eb8d5aeb5a3" target="_top" xlink:title=" ">
<polygon fill="white" stroke="black" points="572,-144.35 572,-163.35 620,-163.35 620,-144.35 572,-144.35"/>
<text text-anchor="middle" x="596" y="-151.35" font-family="Helvetica,sans-Serif" font-size="10.00">uc_dec</text>
</a>
</g>
</g>
<!-- Node5&#45;&gt;Node8 -->
<g id="edge11" class="edge">
<title>Node5&#45;&gt;Node8</title>
<path fill="none" stroke="midnightblue" d="M416.53,-106.37C430.63,-115.15 452.94,-127.86 474,-134.85 502.65,-144.37 536.75,-149.17 561.43,-151.57"/>
<polygon fill="midnightblue" stroke="midnightblue" points="561.45,-155.08 571.72,-152.48 562.07,-148.11 561.45,-155.08"/>
</g>
<!-- Node5&#45;&gt;Node9 -->
<g id="edge12" class="edge">
<title>Node5&#45;&gt;Node9</title>
<path fill="none" stroke="midnightblue" d="M438.3,-93.28C474.32,-89.73 528.97,-84.35 563.3,-80.97"/>
<polygon fill="midnightblue" stroke="midnightblue" points="563.64,-84.46 573.25,-79.99 562.96,-77.49 563.64,-84.46"/>
</g>
<!-- Node10 -->
<g id="node10" class="node">
<title>Node10</title>
<g id="a_node10"><a xlink:href="regex_8c.html#a35ad3fd0dbb795e6f30404ce86a7be5b" target="_top" xlink:title=" ">
<polygon fill="white" stroke="black" points="482.5,-30.35 482.5,-49.35 527.5,-49.35 527.5,-30.35 482.5,-30.35"/>
<text text-anchor="middle" x="505" y="-37.35" font-family="Helvetica,sans-Serif" font-size="10.00">isword</text>
</a>
</g>
</g>
<!-- Node5&#45;&gt;Node10 -->
<g id="edge9" class="edge">
<title>Node5&#45;&gt;Node10</title>
<path fill="none" stroke="midnightblue" d="M419.3,-87.18C435.45,-78.16 459.74,-64.58 478.18,-54.28"/>
<polygon fill="midnightblue" stroke="midnightblue" points="479.93,-57.31 486.95,-49.38 476.52,-51.2 479.93,-57.31"/>
</g>
<!-- Node11 -->
<g id="node11" class="node">
<title>Node11</title>
<g id="a_node11"><a xlink:href="regex_8c.html#ade3e10606e6e8866e6151fe8440d6101" target="_top" xlink:title=" ">
<polygon fill="white" stroke="black" points="481,-182.35 481,-201.35 529,-201.35 529,-182.35 481,-182.35"/>
<text text-anchor="middle" x="505" y="-189.35" font-family="Helvetica,sans-Serif" font-size="10.00">uc_beg</text>
</a>
</g>
</g>
<!-- Node5&#45;&gt;Node11 -->
<g id="edge10" class="edge">
<title>Node5&#45;&gt;Node11</title>
<path fill="none" stroke="midnightblue" d="M411.02,-106.36C424.38,-120.29 450.38,-146.86 474,-167.85 477.05,-170.57 480.36,-173.35 483.63,-176.03"/>
<polygon fill="midnightblue" stroke="midnightblue" points="481.51,-178.81 491.5,-182.32 485.88,-173.34 481.51,-178.81"/>
</g>
<!-- Node7 -->
<g id="node7" class="node">
<title>Node7</title>
<g id="a_node7"><a xlink:href="regex_8c.html#acc18ff8d2687611a9e221b3329b02413" target="_top" xlink:title=" ">
<polygon fill="white" stroke="black" points="572,-106.35 572,-125.35 620,-125.35 620,-106.35 572,-106.35"/>
<text text-anchor="middle" x="596" y="-113.35" font-family="Helvetica,sans-Serif" font-size="10.00">brk_len</text>
</a>
</g>
</g>
<!-- Node6&#45;&gt;Node7 -->
<g id="edge6" class="edge">
<title>Node6&#45;&gt;Node7</title>
<path fill="none" stroke="midnightblue" d="M536.13,-115.85C544.36,-115.85 553.32,-115.85 561.71,-115.85"/>
<polygon fill="midnightblue" stroke="midnightblue" points="561.94,-119.35 571.94,-115.85 561.94,-112.35 561.94,-119.35"/>
</g>
<!-- Node6&#45;&gt;Node8 -->
<g id="edge7" class="edge">
<title>Node6&#45;&gt;Node8</title>
<path fill="none" stroke="midnightblue" d="M528.46,-125.44C539,-129.94 551.75,-135.38 563.25,-140.3"/>
<polygon fill="midnightblue" stroke="midnightblue" points="561.98,-143.56 572.55,-144.27 564.73,-137.12 561.98,-143.56"/>
</g>
<!-- Node6&#45;&gt;Node9 -->
<g id="edge8" class="edge">
<title>Node6&#45;&gt;Node9</title>
<path fill="none" stroke="midnightblue" d="M528.46,-106.26C539.24,-101.66 552.33,-96.07 564.04,-91.07"/>
<polygon fill="midnightblue" stroke="midnightblue" points="565.65,-94.19 573.47,-87.04 562.9,-87.75 565.65,-94.19"/>
</g>
</g>
</svg>
