<?xml version="1.0" encoding="UTF-8" standalone="no"?>
<!DOCTYPE svg PUBLIC "-//W3C//DTD SVG 1.1//EN"
 "http://www.w3.org/Graphics/SVG/1.1/DTD/svg11.dtd">
<!-- Generated by graphviz version 2.44.1 (20200629.0846)
 -->
<!-- Title: sbuf_printf Pages: 1 -->
<svg width="362pt" height="28pt"
 viewBox="0.00 0.00 362.00 28.00" xmlns="http://www.w3.org/2000/svg" xmlns:xlink="http://www.w3.org/1999/xlink">
<g id="graph0" class="graph" transform="scale(1 1) rotate(0) translate(4 24)">
<title>sbuf_printf</title>
<polygon fill="white" stroke="transparent" points="-4,4 -4,-24 358,-24 358,4 -4,4"/>
<!-- Node1 -->
<g id="node1" class="node">
<title>Node1</title>
<g id="a_node1"><a xlink:title=" ">
<polygon fill="#bfbfbf" stroke="black" points="0,-0.5 0,-19.5 62,-19.5 62,-0.5 0,-0.5"/>
<text text-anchor="middle" x="31" y="-7.5" font-family="Helvetica,sans-Serif" font-size="10.00">sbuf_printf</text>
</a>
</g>
</g>
<!-- Node2 -->
<g id="node2" class="node">
<title>Node2</title>
<g id="a_node2"><a xlink:href="sbuf_8c.html#a603d1d6ab090025f5850f10bfa2dec7a" target="_top" xlink:title=" ">
<polygon fill="white" stroke="black" points="98,-0.5 98,-19.5 150,-19.5 150,-0.5 98,-0.5"/>
<text text-anchor="middle" x="124" y="-7.5" font-family="Helvetica,sans-Serif" font-size="10.00">sbuf_str</text>
</a>
</g>
</g>
<!-- Node1&#45;&gt;Node2 -->
<g id="edge1" class="edge">
<title>Node1&#45;&gt;Node2</title>
<path fill="none" stroke="midnightblue" d="M62.05,-10C70.29,-10 79.31,-10 87.81,-10"/>
<polygon fill="midnightblue" stroke="midnightblue" points="87.85,-13.5 97.85,-10 87.85,-6.5 87.85,-13.5"/>
</g>
<!-- Node3 -->
<g id="node3" class="node">
<title>Node3</title>
<g id="a_node3"><a xlink:href="sbuf_8c.html#aa511ac77d6b486accc01c0512ef27ed2" target="_top" xlink:title=" ">
<polygon fill="white" stroke="black" points="186,-0.5 186,-19.5 248,-19.5 248,-0.5 186,-0.5"/>
<text text-anchor="middle" x="217" y="-7.5" font-family="Helvetica,sans-Serif" font-size="10.00">sbuf_mem</text>
</a>
</g>
</g>
<!-- Node2&#45;&gt;Node3 -->
<g id="edge2" class="edge">
<title>Node2&#45;&gt;Node3</title>
<path fill="none" stroke="midnightblue" d="M150.35,-10C158.29,-10 167.25,-10 175.94,-10"/>
<polygon fill="midnightblue" stroke="midnightblue" points="175.95,-13.5 185.95,-10 175.95,-6.5 175.95,-13.5"/>
</g>
<!-- Node4 -->
<g id="node4" class="node">
<title>Node4</title>
<g id="a_node4"><a xlink:href="sbuf_8c.html#a4ad75f3948c0340c342a3ea3eb63a6e6" target="_top" xlink:title=" ">
<polygon fill="white" stroke="black" points="284,-0.5 284,-19.5 354,-19.5 354,-0.5 284,-0.5"/>
<text text-anchor="middle" x="319" y="-7.5" font-family="Helvetica,sans-Serif" font-size="10.00">sbuf_extend</text>
</a>
</g>
</g>
<!-- Node3&#45;&gt;Node4 -->
<g id="edge3" class="edge">
<title>Node3&#45;&gt;Node4</title>
<path fill="none" stroke="midnightblue" d="M248,-10C256.11,-10 265.05,-10 273.76,-10"/>
<polygon fill="midnightblue" stroke="midnightblue" points="273.81,-13.5 283.81,-10 273.81,-6.5 273.81,-13.5"/>
</g>
</g>
</svg>
