<?xml version="1.0" encoding="UTF-8" standalone="no"?>
<!DOCTYPE svg PUBLIC "-//W3C//DTD SVG 1.1//EN"
 "http://www.w3.org/Graphics/SVG/1.1/DTD/svg11.dtd">
<!-- Generated by graphviz version 2.44.1 (20200629.0846)
 -->
<!-- Title: syn_find Pages: 1 -->
<svg width="1368pt" height="723pt"
 viewBox="0.00 0.00 1368.00 722.85" xmlns="http://www.w3.org/2000/svg" xmlns:xlink="http://www.w3.org/1999/xlink">
<g id="graph0" class="graph" transform="scale(1 1) rotate(0) translate(4 718.85)">
<title>syn_find</title>
<polygon fill="white" stroke="transparent" points="-4,4 -4,-718.85 1364,-718.85 1364,4 -4,4"/>
<!-- Node1 -->
<g id="node1" class="node">
<title>Node1</title>
<g id="a_node1"><a xlink:title=" ">
<polygon fill="#bfbfbf" stroke="black" points="1307,-38.5 1307,-57.5 1360,-57.5 1360,-38.5 1307,-38.5"/>
<text text-anchor="middle" x="1333.5" y="-45.5" font-family="Helvetica,sans-Serif" font-size="10.00">syn_find</text>
</a>
</g>
</g>
<!-- Node2 -->
<g id="node2" class="node">
<title>Node2</title>
<g id="a_node2"><a xlink:href="vi_8h.html#a00a481d2236c7c7fc489606a4ebe6de0" target="_top" xlink:title=" ">
<polygon fill="white" stroke="black" points="1197,-66.5 1197,-85.5 1271,-85.5 1271,-66.5 1197,-66.5"/>
<text text-anchor="middle" x="1234" y="-73.5" font-family="Helvetica,sans-Serif" font-size="10.00">syn_highlight</text>
</a>
</g>
</g>
<!-- Node1&#45;&gt;Node2 -->
<g id="edge1" class="edge">
<title>Node1&#45;&gt;Node2</title>
<path fill="none" stroke="midnightblue" d="M1297.01,-58.19C1287.59,-60.9 1277.45,-63.81 1268.16,-66.48"/>
<polygon fill="midnightblue" stroke="midnightblue" points="1298.24,-61.48 1306.88,-55.36 1296.31,-54.75 1298.24,-61.48"/>
</g>
<!-- Node49 -->
<g id="node49" class="node">
<title>Node49</title>
<g id="a_node49"><a xlink:href="vi_8h.html#a5ca5f67cbe20ba50389c586990d3582c" target="_top" xlink:title=" ">
<polygon fill="white" stroke="black" points="1105,-0.5 1105,-19.5 1155,-19.5 1155,-0.5 1105,-0.5"/>
<text text-anchor="middle" x="1130" y="-7.5" font-family="Helvetica,sans-Serif" font-size="10.00">syn_init</text>
</a>
</g>
</g>
<!-- Node1&#45;&gt;Node49 -->
<g id="edge79" class="edge">
<title>Node1&#45;&gt;Node49</title>
<path fill="none" stroke="midnightblue" d="M1296.92,-41.29C1256.1,-33.59 1190.28,-21.18 1155.06,-14.54"/>
<polygon fill="midnightblue" stroke="midnightblue" points="1296.5,-44.77 1306.98,-43.19 1297.8,-37.89 1296.5,-44.77"/>
</g>
<!-- Node3 -->
<g id="node3" class="node">
<title>Node3</title>
<g id="a_node3"><a xlink:href="led_8c.html#ad30f796594398b70e4ce9687b11bcdd9" target="_top" xlink:title=" ">
<polygon fill="white" stroke="black" points="1099,-71.5 1099,-90.5 1161,-90.5 1161,-71.5 1099,-71.5"/>
<text text-anchor="middle" x="1130" y="-78.5" font-family="Helvetica,sans-Serif" font-size="10.00">led_render</text>
</a>
</g>
</g>
<!-- Node2&#45;&gt;Node3 -->
<g id="edge2" class="edge">
<title>Node2&#45;&gt;Node3</title>
<path fill="none" stroke="midnightblue" d="M1186.69,-78.27C1177.99,-78.7 1169.11,-79.13 1161.07,-79.53"/>
<polygon fill="midnightblue" stroke="midnightblue" points="1186.93,-81.76 1196.75,-77.78 1186.59,-74.77 1186.93,-81.76"/>
</g>
<!-- Node4 -->
<g id="node4" class="node">
<title>Node4</title>
<g id="a_node4"><a xlink:href="vi_8h.html#a4356f8fc86e72c470f35f0a5e4385576" target="_top" xlink:title=" ">
<polygon fill="white" stroke="black" points="1000.5,-204.5 1000.5,-223.5 1053.5,-223.5 1053.5,-204.5 1000.5,-204.5"/>
<text text-anchor="middle" x="1027" y="-211.5" font-family="Helvetica,sans-Serif" font-size="10.00">led_print</text>
</a>
</g>
</g>
<!-- Node3&#45;&gt;Node4 -->
<g id="edge3" class="edge">
<title>Node3&#45;&gt;Node4</title>
<path fill="none" stroke="midnightblue" d="M1115.49,-98.79C1093.92,-127.2 1052.41,-181.86 1035.47,-204.16"/>
<polygon fill="midnightblue" stroke="midnightblue" points="1118.48,-100.65 1121.74,-90.57 1112.9,-96.41 1118.48,-100.65"/>
</g>
<!-- Node47 -->
<g id="node47" class="node">
<title>Node47</title>
<g id="a_node47"><a xlink:href="vi_8h.html#a7838c5ed4623338b3fa9b2c6da4485eb" target="_top" xlink:title=" ">
<polygon fill="white" stroke="black" points="991,-71.5 991,-90.5 1063,-90.5 1063,-71.5 991,-71.5"/>
<text text-anchor="middle" x="1027" y="-78.5" font-family="Helvetica,sans-Serif" font-size="10.00">led_printmsg</text>
</a>
</g>
</g>
<!-- Node3&#45;&gt;Node47 -->
<g id="edge74" class="edge">
<title>Node3&#45;&gt;Node47</title>
<path fill="none" stroke="midnightblue" d="M1088.85,-81C1080.32,-81 1071.39,-81 1063.07,-81"/>
<polygon fill="midnightblue" stroke="midnightblue" points="1088.97,-84.5 1098.97,-81 1088.97,-77.5 1088.97,-84.5"/>
</g>
<!-- Node5 -->
<g id="node5" class="node">
<title>Node5</title>
<g id="a_node5"><a xlink:href="vi_8h.html#a075721180ea187be49c7164dcff34122" target="_top" xlink:title=" ">
<polygon fill="white" stroke="black" points="800,-527.5 800,-546.5 851,-546.5 851,-527.5 800,-527.5"/>
<text text-anchor="middle" x="825.5" y="-534.5" font-family="Helvetica,sans-Serif" font-size="10.00">ex_print</text>
</a>
</g>
</g>
<!-- Node4&#45;&gt;Node5 -->
<g id="edge4" class="edge">
<title>Node4&#45;&gt;Node5</title>
<path fill="none" stroke="midnightblue" d="M1020.11,-233.45C1009.73,-266.18 986.28,-333.72 955,-385 918.83,-444.3 860.24,-504.18 836.74,-527.18"/>
<polygon fill="midnightblue" stroke="midnightblue" points="1023.49,-234.35 1023.12,-223.76 1016.81,-232.27 1023.49,-234.35"/>
</g>
<!-- Node25 -->
<g id="node25" class="node">
<title>Node25</title>
<g id="a_node25"><a xlink:href="vi_8h.html#ad27b2fbb84601eb4c5af3b1f28feac75" target="_top" xlink:title=" ">
<polygon fill="white" stroke="black" points="899,-356.5 899,-375.5 955,-375.5 955,-356.5 899,-356.5"/>
<text text-anchor="middle" x="927" y="-363.5" font-family="Helvetica,sans-Serif" font-size="10.00">ex_show</text>
</a>
</g>
</g>
<!-- Node4&#45;&gt;Node25 -->
<g id="edge31" class="edge">
<title>Node4&#45;&gt;Node25</title>
<path fill="none" stroke="midnightblue" d="M1014.38,-232.03C993.45,-264.48 950.14,-331.65 934.13,-356.5"/>
<polygon fill="midnightblue" stroke="midnightblue" points="1017.39,-233.81 1019.87,-223.51 1011.51,-230.02 1017.39,-233.81"/>
</g>
<!-- Node29 -->
<g id="node29" class="node">
<title>Node29</title>
<g id="a_node29"><a xlink:href="led_8c.html#ae938cbff964c214e7e4f6aff4d5ce0f7" target="_top" xlink:title=" ">
<polygon fill="white" stroke="black" points="788,-204.5 788,-223.5 863,-223.5 863,-204.5 788,-204.5"/>
<text text-anchor="middle" x="825.5" y="-211.5" font-family="Helvetica,sans-Serif" font-size="10.00">led_printparts</text>
</a>
</g>
</g>
<!-- Node4&#45;&gt;Node29 -->
<g id="edge44" class="edge">
<title>Node4&#45;&gt;Node29</title>
<path fill="none" stroke="midnightblue" d="M990.31,-214C954.46,-214 899.47,-214 863.25,-214"/>
<polygon fill="midnightblue" stroke="midnightblue" points="990.33,-217.5 1000.33,-214 990.33,-210.5 990.33,-217.5"/>
</g>
<!-- Node44 -->
<g id="node44" class="node">
<title>Node44</title>
<g id="a_node44"><a xlink:href="vi_8c.html#af48ebb44cac26d2c52f0ada762be5bf6" target="_top" xlink:title=" ">
<polygon fill="white" stroke="black" points="272.5,-109.5 272.5,-128.5 338.5,-128.5 338.5,-109.5 272.5,-109.5"/>
<text text-anchor="middle" x="305.5" y="-116.5" font-family="Helvetica,sans-Serif" font-size="10.00">vi_drawrow</text>
</a>
</g>
</g>
<!-- Node4&#45;&gt;Node44 -->
<g id="edge68" class="edge">
<title>Node4&#45;&gt;Node44</title>
<path fill="none" stroke="midnightblue" d="M1002.94,-198.87C966.87,-176.7 894.21,-138 826.5,-138 826.5,-138 826.5,-138 499.5,-138 442.6,-138 376.71,-129.72 338.51,-124.09"/>
<polygon fill="midnightblue" stroke="midnightblue" points="1001.37,-202.02 1011.7,-204.37 1005.1,-196.09 1001.37,-202.02"/>
</g>
<!-- Node6 -->
<g id="node6" class="node">
<title>Node6</title>
<g id="a_node6"><a xlink:href="ex_8c.html#a86b4adba0c96621f01383b9bacba4a01" target="_top" xlink:title=" ">
<polygon fill="white" stroke="black" points="696,-565.5 696,-584.5 752,-584.5 752,-565.5 696,-565.5"/>
<text text-anchor="middle" x="724" y="-572.5" font-family="Helvetica,sans-Serif" font-size="10.00">ec_cmap</text>
</a>
</g>
</g>
<!-- Node5&#45;&gt;Node6 -->
<g id="edge5" class="edge">
<title>Node5&#45;&gt;Node6</title>
<path fill="none" stroke="midnightblue" d="M790.19,-550.1C776.99,-555.15 762.17,-560.8 750,-565.45"/>
<polygon fill="midnightblue" stroke="midnightblue" points="791.81,-553.23 799.9,-546.39 789.31,-546.69 791.81,-553.23"/>
</g>
<!-- Node7 -->
<g id="node7" class="node">
<title>Node7</title>
<g id="a_node7"><a xlink:href="ex_8c.html#adcd83f163f659bd2596bcfc25d74bde9" target="_top" xlink:title=" ">
<polygon fill="white" stroke="black" points="474,-451.5 474,-470.5 527,-470.5 527,-451.5 474,-451.5"/>
<text text-anchor="middle" x="500.5" y="-458.5" font-family="Helvetica,sans-Serif" font-size="10.00">ec_exec</text>
</a>
</g>
</g>
<!-- Node5&#45;&gt;Node7 -->
<g id="edge6" class="edge">
<title>Node5&#45;&gt;Node7</title>
<path fill="none" stroke="midnightblue" d="M789.66,-531.24C763.72,-526.77 727.51,-520.14 696,-513 634.98,-499.17 564.2,-479.26 527.14,-468.53"/>
<polygon fill="midnightblue" stroke="midnightblue" points="789.3,-534.73 799.75,-532.96 790.48,-527.83 789.3,-534.73"/>
</g>
<!-- Node16 -->
<g id="node16" class="node">
<title>Node16</title>
<g id="a_node16"><a xlink:href="ex_8c.html#a96a40531d1096a618d29639f2e42710b" target="_top" xlink:title=" ">
<polygon fill="white" stroke="black" points="705,-603.5 705,-622.5 743,-622.5 743,-603.5 705,-603.5"/>
<text text-anchor="middle" x="724" y="-610.5" font-family="Helvetica,sans-Serif" font-size="10.00">ec_ft</text>
</a>
</g>
</g>
<!-- Node5&#45;&gt;Node16 -->
<g id="edge18" class="edge">
<title>Node5&#45;&gt;Node16</title>
<path fill="none" stroke="midnightblue" d="M804.54,-553.15C790.1,-564.73 770.04,-580.58 752,-594 747.77,-597.15 743.09,-600.49 738.84,-603.47"/>
<polygon fill="midnightblue" stroke="midnightblue" points="806.74,-555.88 812.34,-546.88 802.35,-550.42 806.74,-555.88"/>
</g>
<!-- Node17 -->
<g id="node17" class="node">
<title>Node17</title>
<g id="a_node17"><a xlink:href="ex_8c.html#a1d45a70b724f4cccae2ab746c711ebb1" target="_top" xlink:title=" ">
<polygon fill="white" stroke="black" points="697.5,-679.5 697.5,-698.5 750.5,-698.5 750.5,-679.5 697.5,-679.5"/>
<text text-anchor="middle" x="724" y="-686.5" font-family="Helvetica,sans-Serif" font-size="10.00">ec_lnum</text>
</a>
</g>
</g>
<!-- Node5&#45;&gt;Node17 -->
<g id="edge19" class="edge">
<title>Node5&#45;&gt;Node17</title>
<path fill="none" stroke="midnightblue" d="M817.31,-556.23C806.35,-583.72 783.37,-634.83 752,-670 748.87,-673.51 744.98,-676.72 741.13,-679.46"/>
<polygon fill="midnightblue" stroke="midnightblue" points="820.69,-557.21 821.03,-546.62 814.16,-554.68 820.69,-557.21"/>
</g>
<!-- Node18 -->
<g id="node18" class="node">
<title>Node18</title>
<g id="a_node18"><a xlink:href="ex_8c.html#aa69f426ff9728078fbb36f448c624a90" target="_top" xlink:title=" ">
<polygon fill="white" stroke="black" points="472.5,-413.5 472.5,-432.5 528.5,-432.5 528.5,-413.5 472.5,-413.5"/>
<text text-anchor="middle" x="500.5" y="-420.5" font-family="Helvetica,sans-Serif" font-size="10.00">ec_make</text>
</a>
</g>
</g>
<!-- Node5&#45;&gt;Node18 -->
<g id="edge20" class="edge">
<title>Node5&#45;&gt;Node18</title>
<path fill="none" stroke="midnightblue" d="M790.44,-523.67C757.28,-510.81 705.39,-490.99 660,-475 614.11,-458.83 560.19,-441.49 528.54,-431.48"/>
<polygon fill="midnightblue" stroke="midnightblue" points="789.51,-527.06 800.1,-527.42 792.04,-520.54 789.51,-527.06"/>
</g>
<!-- Node19 -->
<g id="node19" class="node">
<title>Node19</title>
<g id="a_node19"><a xlink:href="ex_8c.html#ad2c1a9505aa3097bac242b47a367f11d" target="_top" xlink:title=" ">
<polygon fill="white" stroke="black" points="698.5,-641.5 698.5,-660.5 749.5,-660.5 749.5,-641.5 698.5,-641.5"/>
<text text-anchor="middle" x="724" y="-648.5" font-family="Helvetica,sans-Serif" font-size="10.00">ec_print</text>
</a>
</g>
</g>
<!-- Node5&#45;&gt;Node19 -->
<g id="edge21" class="edge">
<title>Node5&#45;&gt;Node19</title>
<path fill="none" stroke="midnightblue" d="M813.06,-555.21C799.87,-575.37 776.78,-608.16 752,-632 748.53,-635.34 744.43,-638.53 740.49,-641.32"/>
<polygon fill="midnightblue" stroke="midnightblue" points="816.09,-556.97 818.55,-546.67 810.2,-553.18 816.09,-556.97"/>
</g>
<!-- Node21 -->
<g id="node21" class="node">
<title>Node21</title>
<g id="a_node21"><a xlink:href="ex_8c.html#a057b67e2d4f23df3ad50a9d3ec86125b" target="_top" xlink:title=" ">
<polygon fill="white" stroke="black" points="697.5,-337.5 697.5,-356.5 750.5,-356.5 750.5,-337.5 697.5,-337.5"/>
<text text-anchor="middle" x="724" y="-344.5" font-family="Helvetica,sans-Serif" font-size="10.00">ec_write</text>
</a>
</g>
</g>
<!-- Node5&#45;&gt;Node21 -->
<g id="edge23" class="edge">
<title>Node5&#45;&gt;Node21</title>
<path fill="none" stroke="midnightblue" d="M814.78,-518.44C794.03,-478.82 746.03,-387.15 730.18,-356.89"/>
<polygon fill="midnightblue" stroke="midnightblue" points="811.69,-520.08 819.43,-527.32 817.89,-516.83 811.69,-520.08"/>
</g>
<!-- Node8 -->
<g id="node8" class="node">
<title>Node8</title>
<g id="a_node8"><a xlink:href="ex_8c.html#a7d848d20211b2e1c868dde98ec5dfae9" target="_top" xlink:title=" ">
<polygon fill="white" stroke="black" points="382,-451.5 382,-470.5 429,-470.5 429,-451.5 382,-451.5"/>
<text text-anchor="middle" x="405.5" y="-458.5" font-family="Helvetica,sans-Serif" font-size="10.00">ex_line</text>
</a>
</g>
</g>
<!-- Node7&#45;&gt;Node8 -->
<g id="edge7" class="edge">
<title>Node7&#45;&gt;Node8</title>
<path fill="none" stroke="midnightblue" d="M463.34,-461C451.81,-461 439.39,-461 429.11,-461"/>
<polygon fill="midnightblue" stroke="midnightblue" points="463.59,-464.5 473.59,-461 463.59,-457.5 463.59,-464.5"/>
</g>
<!-- Node9 -->
<g id="node9" class="node">
<title>Node9</title>
<g id="a_node9"><a xlink:href="ex_8c.html#ab15ebfef933256d9741128e2ddf3f9b5" target="_top" xlink:title=" ">
<polygon fill="white" stroke="black" points="279,-489.5 279,-508.5 332,-508.5 332,-489.5 279,-489.5"/>
<text text-anchor="middle" x="305.5" y="-496.5" font-family="Helvetica,sans-Serif" font-size="10.00">ex_exec</text>
</a>
</g>
</g>
<!-- Node8&#45;&gt;Node9 -->
<g id="edge8" class="edge">
<title>Node8&#45;&gt;Node9</title>
<path fill="none" stroke="midnightblue" d="M372.41,-473.44C359.01,-478.64 343.67,-484.59 331.17,-489.44"/>
<polygon fill="midnightblue" stroke="midnightblue" points="373.71,-476.69 381.77,-469.81 371.18,-470.17 373.71,-476.69"/>
</g>
<!-- Node10 -->
<g id="node10" class="node">
<title>Node10</title>
<g id="a_node10"><a xlink:href="ex_8c.html#a70c571bdde329a65e216c19b4aeaa628" target="_top" xlink:title=" ">
<polygon fill="white" stroke="black" points="170,-451.5 170,-470.5 220,-470.5 220,-451.5 170,-451.5"/>
<text text-anchor="middle" x="195" y="-458.5" font-family="Helvetica,sans-Serif" font-size="10.00">ec_glob</text>
</a>
</g>
</g>
<!-- Node9&#45;&gt;Node10 -->
<g id="edge9" class="edge">
<title>Node9&#45;&gt;Node10</title>
<path fill="none" stroke="midnightblue" d="M269.16,-486.62C253.08,-480.99 234.47,-474.47 220.04,-469.42"/>
<polygon fill="midnightblue" stroke="midnightblue" points="268.19,-489.99 278.79,-489.99 270.51,-483.39 268.19,-489.99"/>
</g>
<!-- Node11 -->
<g id="node11" class="node">
<title>Node11</title>
<g id="a_node11"><a xlink:href="vi_8h.html#aa75c73cccb4878ec06ea5bf5b1b02295" target="_top" xlink:title=" ">
<polygon fill="white" stroke="black" points="157.5,-489.5 157.5,-508.5 232.5,-508.5 232.5,-489.5 157.5,-489.5"/>
<text text-anchor="middle" x="195" y="-496.5" font-family="Helvetica,sans-Serif" font-size="10.00">ex_command</text>
</a>
</g>
</g>
<!-- Node9&#45;&gt;Node11 -->
<g id="edge11" class="edge">
<title>Node9&#45;&gt;Node11</title>
<path fill="none" stroke="midnightblue" d="M268.6,-499C257.04,-499 244.22,-499 232.61,-499"/>
<polygon fill="midnightblue" stroke="midnightblue" points="268.79,-502.5 278.79,-499 268.79,-495.5 268.79,-502.5"/>
</g>
<!-- Node10&#45;&gt;Node8 -->
<g id="edge10" class="edge">
<title>Node10&#45;&gt;Node8</title>
<path fill="none" stroke="midnightblue" d="M230.52,-461C273.39,-461 345.3,-461 381.79,-461"/>
<polygon fill="midnightblue" stroke="midnightblue" points="230.29,-457.5 220.29,-461 230.29,-464.5 230.29,-457.5"/>
</g>
<!-- Node12 -->
<g id="node12" class="node">
<title>Node12</title>
<g id="a_node12"><a xlink:href="vi_8h.html#ac395e51f25330a6e6033b6d0d22b2076" target="_top" xlink:title=" ">
<polygon fill="white" stroke="black" points="82,-413.5 82,-432.5 111,-432.5 111,-413.5 82,-413.5"/>
<text text-anchor="middle" x="96.5" y="-420.5" font-family="Helvetica,sans-Serif" font-size="10.00">ex</text>
</a>
</g>
</g>
<!-- Node11&#45;&gt;Node12 -->
<g id="edge12" class="edge">
<title>Node11&#45;&gt;Node12</title>
<path fill="none" stroke="midnightblue" d="M162.05,-484.53C159.6,-483.09 157.23,-481.58 155,-480 135.28,-466.01 116.1,-445.09 105.64,-432.86"/>
<polygon fill="midnightblue" stroke="midnightblue" points="160.55,-487.7 171.01,-489.35 163.86,-481.53 160.55,-487.7"/>
</g>
<!-- Node14 -->
<g id="node14" class="node">
<title>Node14</title>
<g id="a_node14"><a xlink:href="vi_8h.html#abe53b5c10f94f20cd5ed024371615fa1" target="_top" xlink:title=" ">
<polygon fill="white" stroke="black" points="74,-489.5 74,-508.5 119,-508.5 119,-489.5 74,-489.5"/>
<text text-anchor="middle" x="96.5" y="-496.5" font-family="Helvetica,sans-Serif" font-size="10.00">ex_init</text>
</a>
</g>
</g>
<!-- Node11&#45;&gt;Node14 -->
<g id="edge14" class="edge">
<title>Node11&#45;&gt;Node14</title>
<path fill="none" stroke="midnightblue" d="M147.11,-499C137.29,-499 127.4,-499 119.07,-499"/>
<polygon fill="midnightblue" stroke="midnightblue" points="147.24,-502.5 157.24,-499 147.24,-495.5 147.24,-502.5"/>
</g>
<!-- Node15 -->
<g id="node15" class="node">
<title>Node15</title>
<g id="a_node15"><a xlink:href="vi_8c.html#a8d808e0f3453afe6600673ee1ea5f828" target="_top" xlink:title=" ">
<polygon fill="white" stroke="black" points="82,-223.5 82,-242.5 111,-242.5 111,-223.5 82,-223.5"/>
<text text-anchor="middle" x="96.5" y="-230.5" font-family="Helvetica,sans-Serif" font-size="10.00">vi</text>
</a>
</g>
</g>
<!-- Node11&#45;&gt;Node15 -->
<g id="edge16" class="edge">
<title>Node11&#45;&gt;Node15</title>
<path fill="none" stroke="midnightblue" d="M158.07,-483.33C156.97,-482.29 155.94,-481.18 155,-480 124.46,-441.7 103.57,-283.39 98.63,-242.61"/>
<polygon fill="midnightblue" stroke="midnightblue" points="156.05,-486.19 166.16,-489.33 160.21,-480.56 156.05,-486.19"/>
</g>
<!-- Node13 -->
<g id="node13" class="node">
<title>Node13</title>
<g id="a_node13"><a xlink:href="vi_8c.html#a0ddf1224851353fc92bfbff6f499fa97" target="_top" xlink:title=" ">
<polygon fill="white" stroke="black" points="0,-318.5 0,-337.5 38,-337.5 38,-318.5 0,-318.5"/>
<text text-anchor="middle" x="19" y="-325.5" font-family="Helvetica,sans-Serif" font-size="10.00">main</text>
</a>
</g>
</g>
<!-- Node12&#45;&gt;Node13 -->
<g id="edge13" class="edge">
<title>Node12&#45;&gt;Node13</title>
<path fill="none" stroke="midnightblue" d="M81.33,-405.17C65.42,-385.15 40.21,-353.42 27.64,-337.61"/>
<polygon fill="midnightblue" stroke="midnightblue" points="78.74,-407.54 87.7,-413.19 84.22,-403.18 78.74,-407.54"/>
</g>
<!-- Node14&#45;&gt;Node13 -->
<g id="edge15" class="edge">
<title>Node14&#45;&gt;Node13</title>
<path fill="none" stroke="midnightblue" d="M87.02,-479.8C70.88,-443.24 36.27,-364.84 24.23,-337.58"/>
<polygon fill="midnightblue" stroke="midnightblue" points="83.98,-481.58 91.22,-489.32 90.39,-478.75 83.98,-481.58"/>
</g>
<!-- Node15&#45;&gt;Node13 -->
<g id="edge17" class="edge">
<title>Node15&#45;&gt;Node13</title>
<path fill="none" stroke="midnightblue" d="M81.33,-250.83C65.42,-270.85 40.21,-302.58 27.64,-318.39"/>
<polygon fill="midnightblue" stroke="midnightblue" points="84.22,-252.82 87.7,-242.81 78.74,-248.46 84.22,-252.82"/>
</g>
<!-- Node20 -->
<g id="node20" class="node">
<title>Node20</title>
<g id="a_node20"><a xlink:href="ex_8c.html#affb8197a8f988443aadf1bf2800a0d0b" target="_top" xlink:title=" ">
<polygon fill="white" stroke="black" points="589.5,-641.5 589.5,-660.5 636.5,-660.5 636.5,-641.5 589.5,-641.5"/>
<text text-anchor="middle" x="613" y="-648.5" font-family="Helvetica,sans-Serif" font-size="10.00">ec_null</text>
</a>
</g>
</g>
<!-- Node19&#45;&gt;Node20 -->
<g id="edge22" class="edge">
<title>Node19&#45;&gt;Node20</title>
<path fill="none" stroke="midnightblue" d="M688.23,-651C671.4,-651 651.67,-651 636.78,-651"/>
<polygon fill="midnightblue" stroke="midnightblue" points="688.27,-654.5 698.27,-651 688.27,-647.5 688.27,-654.5"/>
</g>
<!-- Node22 -->
<g id="node22" class="node">
<title>Node22</title>
<g id="a_node22"><a xlink:href="ex_8c.html#ab0cb848a971a3b2c09fcb456d887dd6b" target="_top" xlink:title=" ">
<polygon fill="white" stroke="black" points="566,-375.5 566,-394.5 660,-394.5 660,-375.5 566,-375.5"/>
<text text-anchor="middle" x="613" y="-382.5" font-family="Helvetica,sans-Serif" font-size="10.00">ex_modifiedbuffer</text>
</a>
</g>
</g>
<!-- Node21&#45;&gt;Node22 -->
<g id="edge24" class="edge">
<title>Node21&#45;&gt;Node22</title>
<path fill="none" stroke="midnightblue" d="M687.91,-359.23C672.81,-364.5 655.42,-370.56 641.3,-375.48"/>
<polygon fill="midnightblue" stroke="midnightblue" points="689.15,-362.51 697.44,-355.91 686.85,-355.9 689.15,-362.51"/>
</g>
<!-- Node22&#45;&gt;Node7 -->
<g id="edge27" class="edge">
<title>Node22&#45;&gt;Node7</title>
<path fill="none" stroke="midnightblue" d="M590.01,-400.46C573.55,-411.99 550.44,-428.09 530,-442 525.48,-445.08 520.52,-448.4 516.04,-451.39"/>
<polygon fill="midnightblue" stroke="midnightblue" points="592.24,-403.17 598.42,-394.56 588.22,-397.44 592.24,-403.17"/>
</g>
<!-- Node22&#45;&gt;Node18 -->
<g id="edge28" class="edge">
<title>Node22&#45;&gt;Node18</title>
<path fill="none" stroke="midnightblue" d="M574.55,-397.88C559.49,-403.06 542.44,-408.92 528.61,-413.68"/>
<polygon fill="midnightblue" stroke="midnightblue" points="575.8,-401.15 584.12,-394.59 573.52,-394.53 575.8,-401.15"/>
</g>
<!-- Node23 -->
<g id="node23" class="node">
<title>Node23</title>
<g id="a_node23"><a xlink:href="ex_8c.html#a8059390ad69866fa8e14bdb2521d4dc2" target="_top" xlink:title=" ">
<polygon fill="white" stroke="black" points="476.5,-527.5 476.5,-546.5 524.5,-546.5 524.5,-527.5 476.5,-527.5"/>
<text text-anchor="middle" x="500.5" y="-534.5" font-family="Helvetica,sans-Serif" font-size="10.00">ec_edit</text>
</a>
</g>
</g>
<!-- Node22&#45;&gt;Node23 -->
<g id="edge25" class="edge">
<title>Node22&#45;&gt;Node23</title>
<path fill="none" stroke="midnightblue" d="M599.2,-402.61C575.72,-434.9 526.55,-502.55 508.41,-527.5"/>
<polygon fill="midnightblue" stroke="midnightblue" points="602.04,-404.65 605.09,-394.51 596.38,-400.54 602.04,-404.65"/>
</g>
<!-- Node24 -->
<g id="node24" class="node">
<title>Node24</title>
<g id="a_node24"><a xlink:href="ex_8c.html#a87eef446de152fad41ce88a9a343b87d" target="_top" xlink:title=" ">
<polygon fill="white" stroke="black" points="476.5,-375.5 476.5,-394.5 524.5,-394.5 524.5,-375.5 476.5,-375.5"/>
<text text-anchor="middle" x="500.5" y="-382.5" font-family="Helvetica,sans-Serif" font-size="10.00">ec_quit</text>
</a>
</g>
</g>
<!-- Node22&#45;&gt;Node24 -->
<g id="edge29" class="edge">
<title>Node22&#45;&gt;Node24</title>
<path fill="none" stroke="midnightblue" d="M555.71,-385C544.72,-385 533.77,-385 524.63,-385"/>
<polygon fill="midnightblue" stroke="midnightblue" points="555.78,-388.5 565.78,-385 555.78,-381.5 555.78,-388.5"/>
</g>
<!-- Node23&#45;&gt;Node14 -->
<g id="edge26" class="edge">
<title>Node23&#45;&gt;Node14</title>
<path fill="none" stroke="midnightblue" d="M465.92,-538.06C403.9,-539.38 267.43,-539.29 155,-518 142.91,-515.71 129.86,-511.55 119.26,-507.7"/>
<polygon fill="midnightblue" stroke="midnightblue" points="466.35,-541.55 476.27,-537.81 466.19,-534.56 466.35,-541.55"/>
</g>
<!-- Node24&#45;&gt;Node21 -->
<g id="edge30" class="edge">
<title>Node24&#45;&gt;Node21</title>
<path fill="none" stroke="midnightblue" d="M534.21,-374.22C544.32,-371.2 555.54,-368.16 566,-366 611.71,-356.57 665.95,-351.29 697.23,-348.8"/>
<polygon fill="midnightblue" stroke="midnightblue" points="533.08,-370.91 524.55,-377.2 535.14,-377.6 533.08,-370.91"/>
</g>
<!-- Node25&#45;&gt;Node5 -->
<g id="edge43" class="edge">
<title>Node25&#45;&gt;Node5</title>
<path fill="none" stroke="midnightblue" d="M915.1,-384.73C893.95,-421.08 848,-500.04 832.07,-527.42"/>
<polygon fill="midnightblue" stroke="midnightblue" points="918.36,-386.09 920.37,-375.68 912.31,-382.57 918.36,-386.09"/>
</g>
<!-- Node25&#45;&gt;Node21 -->
<g id="edge35" class="edge">
<title>Node25&#45;&gt;Node21</title>
<path fill="none" stroke="midnightblue" d="M888.7,-362.47C848.54,-358.68 785.72,-352.74 750.73,-349.43"/>
<polygon fill="midnightblue" stroke="midnightblue" points="888.61,-365.98 898.89,-363.44 889.27,-359.01 888.61,-365.98"/>
</g>
<!-- Node25&#45;&gt;Node22 -->
<g id="edge42" class="edge">
<title>Node25&#45;&gt;Node22</title>
<path fill="none" stroke="midnightblue" d="M899.57,-380.66C899.38,-380.77 899.19,-380.89 899,-381 882.69,-390.73 881.22,-398.68 863,-404 787.68,-426.01 694.39,-407.4 646.2,-394.6"/>
<polygon fill="midnightblue" stroke="midnightblue" points="901.56,-383.55 908.48,-375.53 898.07,-377.49 901.56,-383.55"/>
</g>
<!-- Node25&#45;&gt;Node23 -->
<g id="edge32" class="edge">
<title>Node25&#45;&gt;Node23</title>
<path fill="none" stroke="midnightblue" d="M923.71,-385.65C915.19,-448.38 878.92,-643.52 752,-708 701.08,-733.87 571.81,-674.91 566,-670 525.83,-636.04 508.63,-571.18 503.38,-546.69"/>
<polygon fill="midnightblue" stroke="midnightblue" points="927.21,-385.9 925,-375.54 920.27,-385.01 927.21,-385.9"/>
</g>
<!-- Node26 -->
<g id="node26" class="node">
<title>Node26</title>
<g id="a_node26"><a xlink:href="ex_8c.html#add0e79e1f1e3d45f4eaa6fbe5c1ca443" target="_top" xlink:title=" ">
<polygon fill="white" stroke="black" points="698.5,-261.5 698.5,-280.5 749.5,-280.5 749.5,-261.5 698.5,-261.5"/>
<text text-anchor="middle" x="724" y="-268.5" font-family="Helvetica,sans-Serif" font-size="10.00">ec_read</text>
</a>
</g>
</g>
<!-- Node25&#45;&gt;Node26 -->
<g id="edge33" class="edge">
<title>Node25&#45;&gt;Node26</title>
<path fill="none" stroke="midnightblue" d="M896.58,-352.09C855.17,-332.52 780.79,-297.37 745.13,-280.52"/>
<polygon fill="midnightblue" stroke="midnightblue" points="895.08,-355.26 905.62,-356.37 898.08,-348.93 895.08,-355.26"/>
</g>
<!-- Node27 -->
<g id="node27" class="node">
<title>Node27</title>
<g id="a_node27"><a xlink:href="ex_8c.html#a98764f0b4faf5fd4b8baff03a7d73a6e" target="_top" xlink:title=" ">
<polygon fill="white" stroke="black" points="802.5,-261.5 802.5,-280.5 848.5,-280.5 848.5,-261.5 802.5,-261.5"/>
<text text-anchor="middle" x="825.5" y="-268.5" font-family="Helvetica,sans-Serif" font-size="10.00">ec_set</text>
</a>
</g>
</g>
<!-- Node25&#45;&gt;Node27 -->
<g id="edge34" class="edge">
<title>Node25&#45;&gt;Node27</title>
<path fill="none" stroke="midnightblue" d="M912.27,-348.02C900.22,-332.91 881.75,-311.23 863,-295 856.92,-289.74 849.62,-284.72 843.15,-280.65"/>
<polygon fill="midnightblue" stroke="midnightblue" points="909.65,-350.36 918.57,-356.07 915.16,-346.04 909.65,-350.36"/>
</g>
<!-- Node28 -->
<g id="node28" class="node">
<title>Node28</title>
<g id="a_node28"><a xlink:href="ex_8c.html#a2b8907dfb6e95eb16e8a0f1ce0fe5bb6" target="_top" xlink:title=" ">
<polygon fill="white" stroke="black" points="796,-375.5 796,-394.5 855,-394.5 855,-375.5 796,-375.5"/>
<text text-anchor="middle" x="825.5" y="-382.5" font-family="Helvetica,sans-Serif" font-size="10.00">ex_filearg</text>
</a>
</g>
</g>
<!-- Node25&#45;&gt;Node28 -->
<g id="edge36" class="edge">
<title>Node25&#45;&gt;Node28</title>
<path fill="none" stroke="midnightblue" d="M888.87,-373.09C877.68,-375.23 865.58,-377.54 855.05,-379.55"/>
<polygon fill="midnightblue" stroke="midnightblue" points="889.65,-376.51 898.81,-371.19 888.33,-369.63 889.65,-376.51"/>
</g>
<!-- Node28&#45;&gt;Node7 -->
<g id="edge38" class="edge">
<title>Node28&#45;&gt;Node7</title>
<path fill="none" stroke="midnightblue" d="M785.73,-394.12C718.95,-409.84 583.96,-441.6 527.38,-454.91"/>
<polygon fill="midnightblue" stroke="midnightblue" points="786.9,-397.44 795.84,-391.74 785.3,-390.63 786.9,-397.44"/>
</g>
<!-- Node28&#45;&gt;Node18 -->
<g id="edge39" class="edge">
<title>Node28&#45;&gt;Node18</title>
<path fill="none" stroke="midnightblue" d="M809.3,-367.94C795.82,-354.19 774.77,-335.88 752,-328 728.48,-319.86 720.64,-324.47 696,-328 636.41,-336.53 617.37,-334.62 566,-366 546.15,-378.13 547.79,-389.01 530,-404 526.09,-407.3 521.59,-410.52 517.34,-413.35"/>
<polygon fill="midnightblue" stroke="midnightblue" points="806.92,-370.52 816.33,-375.4 812.02,-365.72 806.92,-370.52"/>
</g>
<!-- Node28&#45;&gt;Node21 -->
<g id="edge41" class="edge">
<title>Node28&#45;&gt;Node21</title>
<path fill="none" stroke="midnightblue" d="M789.77,-371.74C776.71,-366.75 762.12,-361.18 750.1,-356.59"/>
<polygon fill="midnightblue" stroke="midnightblue" points="788.8,-375.11 799.39,-375.41 791.3,-368.57 788.8,-375.11"/>
</g>
<!-- Node28&#45;&gt;Node23 -->
<g id="edge37" class="edge">
<title>Node28&#45;&gt;Node23</title>
<path fill="none" stroke="midnightblue" d="M796.92,-399.42C783.44,-406.37 766.94,-414.76 752,-422 668.02,-462.68 566.64,-508.11 523.09,-527.45"/>
<polygon fill="midnightblue" stroke="midnightblue" points="798.86,-402.35 806.13,-394.64 795.64,-396.14 798.86,-402.35"/>
</g>
<!-- Node28&#45;&gt;Node26 -->
<g id="edge40" class="edge">
<title>Node28&#45;&gt;Node26</title>
<path fill="none" stroke="midnightblue" d="M811.53,-367.17C797.62,-348.48 774.48,-318.6 752,-295 747.24,-290 741.59,-284.87 736.69,-280.64"/>
<polygon fill="midnightblue" stroke="midnightblue" points="808.83,-369.4 817.58,-375.37 814.46,-365.25 808.83,-369.4"/>
</g>
<!-- Node30 -->
<g id="node30" class="node">
<title>Node30</title>
<g id="a_node30"><a xlink:href="vi_8h.html#ae72255a31cec31233723c101d9465d07" target="_top" xlink:title=" ">
<polygon fill="white" stroke="black" points="585,-185.5 585,-204.5 641,-204.5 641,-185.5 585,-185.5"/>
<text text-anchor="middle" x="613" y="-192.5" font-family="Helvetica,sans-Serif" font-size="10.00">led_input</text>
</a>
</g>
</g>
<!-- Node29&#45;&gt;Node30 -->
<g id="edge45" class="edge">
<title>Node29&#45;&gt;Node30</title>
<path fill="none" stroke="midnightblue" d="M777.86,-209.79C735.92,-206 675.77,-200.58 641.22,-197.46"/>
<polygon fill="midnightblue" stroke="midnightblue" points="777.56,-213.28 787.83,-210.69 778.19,-206.31 777.56,-213.28"/>
</g>
<!-- Node35 -->
<g id="node35" class="node">
<title>Node35</title>
<g id="a_node35"><a xlink:href="led_8c.html#a617ec615e86687b5c10df33b271256c8" target="_top" xlink:title=" ">
<polygon fill="white" stroke="black" points="699,-223.5 699,-242.5 749,-242.5 749,-223.5 699,-223.5"/>
<text text-anchor="middle" x="724" y="-230.5" font-family="Helvetica,sans-Serif" font-size="10.00">led_line</text>
</a>
</g>
</g>
<!-- Node29&#45;&gt;Node35 -->
<g id="edge52" class="edge">
<title>Node29&#45;&gt;Node35</title>
<path fill="none" stroke="midnightblue" d="M777.62,-222.95C767.79,-224.83 757.82,-226.73 749.24,-228.37"/>
<polygon fill="midnightblue" stroke="midnightblue" points="778.57,-226.33 787.73,-221.02 777.25,-219.46 778.57,-226.33"/>
</g>
<!-- Node31 -->
<g id="node31" class="node">
<title>Node31</title>
<g id="a_node31"><a xlink:href="vi_8c.html#a653f6b0359cef492e11f404c4bf469b9" target="_top" xlink:title=" ">
<polygon fill="white" stroke="black" points="380.5,-185.5 380.5,-204.5 430.5,-204.5 430.5,-185.5 380.5,-185.5"/>
<text text-anchor="middle" x="405.5" y="-192.5" font-family="Helvetica,sans-Serif" font-size="10.00">vi_input</text>
</a>
</g>
</g>
<!-- Node30&#45;&gt;Node31 -->
<g id="edge46" class="edge">
<title>Node30&#45;&gt;Node31</title>
<path fill="none" stroke="midnightblue" d="M574.64,-195C532.81,-195 466.23,-195 430.7,-195"/>
<polygon fill="midnightblue" stroke="midnightblue" points="574.71,-198.5 584.71,-195 574.71,-191.5 574.71,-198.5"/>
</g>
<!-- Node32 -->
<g id="node32" class="node">
<title>Node32</title>
<g id="a_node32"><a xlink:href="vi_8c.html#a8bb357a77ed61da8858f138c6fa672a6" target="_top" xlink:title=" ">
<polygon fill="white" stroke="black" points="277.5,-147.5 277.5,-166.5 333.5,-166.5 333.5,-147.5 277.5,-147.5"/>
<text text-anchor="middle" x="305.5" y="-154.5" font-family="Helvetica,sans-Serif" font-size="10.00">vc_insert</text>
</a>
</g>
</g>
<!-- Node31&#45;&gt;Node32 -->
<g id="edge47" class="edge">
<title>Node31&#45;&gt;Node32</title>
<path fill="none" stroke="midnightblue" d="M370.71,-181.9C357.7,-176.85 343.11,-171.2 331.13,-166.55"/>
<polygon fill="midnightblue" stroke="midnightblue" points="369.69,-185.25 380.28,-185.61 372.22,-178.73 369.69,-185.25"/>
</g>
<!-- Node33 -->
<g id="node33" class="node">
<title>Node33</title>
<g id="a_node33"><a xlink:href="vi_8c.html#ae37b094c3bb647d8c1a4ac4e858ce518" target="_top" xlink:title=" ">
<polygon fill="white" stroke="black" points="275,-185.5 275,-204.5 336,-204.5 336,-185.5 275,-185.5"/>
<text text-anchor="middle" x="305.5" y="-192.5" font-family="Helvetica,sans-Serif" font-size="10.00">vi_change</text>
</a>
</g>
</g>
<!-- Node31&#45;&gt;Node33 -->
<g id="edge49" class="edge">
<title>Node31&#45;&gt;Node33</title>
<path fill="none" stroke="midnightblue" d="M370.05,-195C358.95,-195 346.75,-195 336.04,-195"/>
<polygon fill="midnightblue" stroke="midnightblue" points="370.28,-198.5 380.28,-195 370.28,-191.5 370.28,-198.5"/>
</g>
<!-- Node32&#45;&gt;Node15 -->
<g id="edge48" class="edge">
<title>Node32&#45;&gt;Node15</title>
<path fill="none" stroke="midnightblue" d="M268.89,-170.08C222.39,-187.15 143.19,-216.23 111.35,-227.91"/>
<polygon fill="midnightblue" stroke="midnightblue" points="270.1,-173.36 278.28,-166.63 267.69,-166.79 270.1,-173.36"/>
</g>
<!-- Node34 -->
<g id="node34" class="node">
<title>Node34</title>
<g id="a_node34"><a xlink:href="vi_8c.html#a06cbc6eb843436a0e77e07cbab0c4538" target="_top" xlink:title=" ">
<polygon fill="white" stroke="black" points="164,-223.5 164,-242.5 226,-242.5 226,-223.5 164,-223.5"/>
<text text-anchor="middle" x="195" y="-230.5" font-family="Helvetica,sans-Serif" font-size="10.00">vc_motion</text>
</a>
</g>
</g>
<!-- Node33&#45;&gt;Node34 -->
<g id="edge50" class="edge">
<title>Node33&#45;&gt;Node34</title>
<path fill="none" stroke="midnightblue" d="M267.46,-207.97C253.01,-213.03 236.73,-218.73 223.37,-223.41"/>
<polygon fill="midnightblue" stroke="midnightblue" points="268.84,-211.2 277.12,-204.59 266.53,-204.59 268.84,-211.2"/>
</g>
<!-- Node34&#45;&gt;Node15 -->
<g id="edge51" class="edge">
<title>Node34&#45;&gt;Node15</title>
<path fill="none" stroke="midnightblue" d="M153.71,-233C138.49,-233 122.18,-233 111.07,-233"/>
<polygon fill="midnightblue" stroke="midnightblue" points="154,-236.5 164,-233 154,-229.5 154,-236.5"/>
</g>
<!-- Node35&#45;&gt;Node30 -->
<g id="edge53" class="edge">
<title>Node35&#45;&gt;Node30</title>
<path fill="none" stroke="midnightblue" d="M689.11,-221.19C673.7,-215.81 655.7,-209.54 641.19,-204.48"/>
<polygon fill="midnightblue" stroke="midnightblue" points="688.21,-224.58 698.81,-224.57 690.52,-217.97 688.21,-224.58"/>
</g>
<!-- Node36 -->
<g id="node36" class="node">
<title>Node36</title>
<g id="a_node36"><a xlink:href="vi_8h.html#a173bb468e1e2a066136316f98b49c108" target="_top" xlink:title=" ">
<polygon fill="white" stroke="black" points="580.5,-261.5 580.5,-280.5 645.5,-280.5 645.5,-261.5 580.5,-261.5"/>
<text text-anchor="middle" x="613" y="-268.5" font-family="Helvetica,sans-Serif" font-size="10.00">led_prompt</text>
</a>
</g>
</g>
<!-- Node35&#45;&gt;Node36 -->
<g id="edge54" class="edge">
<title>Node35&#45;&gt;Node36</title>
<path fill="none" stroke="midnightblue" d="M689.19,-244.79C673.89,-250.12 656.05,-256.34 641.58,-261.38"/>
<polygon fill="midnightblue" stroke="midnightblue" points="690.52,-248.03 698.81,-241.43 688.21,-241.42 690.52,-248.03"/>
</g>
<!-- Node37 -->
<g id="node37" class="node">
<title>Node37</title>
<g id="a_node37"><a xlink:href="vi_8h.html#a7ba56272fe1a7d523192729a0bb5edf7" target="_top" xlink:title=" ">
<polygon fill="white" stroke="black" points="280,-356.5 280,-375.5 331,-375.5 331,-356.5 280,-356.5"/>
<text text-anchor="middle" x="305.5" y="-363.5" font-family="Helvetica,sans-Serif" font-size="10.00">ex_read</text>
</a>
</g>
</g>
<!-- Node36&#45;&gt;Node37 -->
<g id="edge55" class="edge">
<title>Node36&#45;&gt;Node37</title>
<path fill="none" stroke="midnightblue" d="M573.37,-283.74C537.57,-295.47 482.79,-313.24 435,-328 398.99,-339.12 357.1,-351.38 331.19,-358.89"/>
<polygon fill="midnightblue" stroke="midnightblue" points="574.53,-287.04 582.94,-280.59 572.35,-280.39 574.53,-287.04"/>
</g>
<!-- Node40 -->
<g id="node40" class="node">
<title>Node40</title>
<g id="a_node40"><a xlink:href="vi_8c.html#a57965473297aad4c4333fdd3897c11f3" target="_top" xlink:title=" ">
<polygon fill="white" stroke="black" points="471,-261.5 471,-280.5 530,-280.5 530,-261.5 471,-261.5"/>
<text text-anchor="middle" x="500.5" y="-268.5" font-family="Helvetica,sans-Serif" font-size="10.00">vi_prompt</text>
</a>
</g>
</g>
<!-- Node36&#45;&gt;Node40 -->
<g id="edge60" class="edge">
<title>Node36&#45;&gt;Node40</title>
<path fill="none" stroke="midnightblue" d="M569.97,-271C556.67,-271 542.28,-271 530.15,-271"/>
<polygon fill="midnightblue" stroke="midnightblue" points="570.34,-274.5 580.34,-271 570.34,-267.5 570.34,-274.5"/>
</g>
<!-- Node37&#45;&gt;Node12 -->
<g id="edge57" class="edge">
<title>Node37&#45;&gt;Node12</title>
<path fill="none" stroke="midnightblue" d="M281.77,-381.18C268.64,-389.23 251.5,-398.55 235,-404 191.29,-418.43 136.26,-421.9 111.14,-422.74"/>
<polygon fill="midnightblue" stroke="midnightblue" points="283.98,-383.92 290.56,-375.62 280.23,-378.01 283.98,-383.92"/>
</g>
<!-- Node38 -->
<g id="node38" class="node">
<title>Node38</title>
<g id="a_node38"><a xlink:href="ex_8c.html#a0908784dc65be2da119a6b72ef96dec2" target="_top" xlink:title=" ">
<polygon fill="white" stroke="black" points="167,-337.5 167,-356.5 223,-356.5 223,-337.5 167,-337.5"/>
<text text-anchor="middle" x="195" y="-344.5" font-family="Helvetica,sans-Serif" font-size="10.00">ec_insert</text>
</a>
</g>
</g>
<!-- Node37&#45;&gt;Node38 -->
<g id="edge56" class="edge">
<title>Node37&#45;&gt;Node38</title>
<path fill="none" stroke="midnightblue" d="M269.87,-359.94C254.77,-357.29 237.33,-354.24 223.19,-351.76"/>
<polygon fill="midnightblue" stroke="midnightblue" points="269.43,-363.41 279.88,-361.69 270.63,-356.52 269.43,-363.41"/>
</g>
<!-- Node39 -->
<g id="node39" class="node">
<title>Node39</title>
<g id="a_node39"><a xlink:href="vi_8c.html#a9d85e9ed087401367529ab86a5dbf0c5" target="_top" xlink:title=" ">
<polygon fill="white" stroke="black" points="171.5,-375.5 171.5,-394.5 218.5,-394.5 218.5,-375.5 171.5,-375.5"/>
<text text-anchor="middle" x="195" y="-382.5" font-family="Helvetica,sans-Serif" font-size="10.00">vi_wait</text>
</a>
</g>
</g>
<!-- Node37&#45;&gt;Node39 -->
<g id="edge58" class="edge">
<title>Node37&#45;&gt;Node39</title>
<path fill="none" stroke="midnightblue" d="M269.89,-372.06C253.14,-374.99 233.49,-378.43 218.67,-381.03"/>
<polygon fill="midnightblue" stroke="midnightblue" points="270.63,-375.48 279.88,-370.31 269.43,-368.59 270.63,-375.48"/>
</g>
<!-- Node39&#45;&gt;Node15 -->
<g id="edge59" class="edge">
<title>Node39&#45;&gt;Node15</title>
<path fill="none" stroke="midnightblue" d="M162.32,-372.12C159.66,-370.3 157.17,-368.27 155,-366 119.54,-328.9 104.08,-266.47 99.26,-242.64"/>
<polygon fill="midnightblue" stroke="midnightblue" points="160.75,-375.25 171.17,-377.19 164.23,-369.18 160.75,-375.25"/>
</g>
<!-- Node40&#45;&gt;Node15 -->
<g id="edge61" class="edge">
<title>Node40&#45;&gt;Node15</title>
<path fill="none" stroke="midnightblue" d="M460.52,-272.17C396.25,-273.36 264.27,-272.69 155,-252 139.71,-249.11 122.88,-243.21 111.4,-238.75"/>
<polygon fill="midnightblue" stroke="midnightblue" points="460.68,-275.67 470.61,-271.96 460.54,-268.67 460.68,-275.67"/>
</g>
<!-- Node41 -->
<g id="node41" class="node">
<title>Node41</title>
<g id="a_node41"><a xlink:href="vi_8c.html#ab8e0c9b9d2ef5161c6a3a8828606df5f" target="_top" xlink:title=" ">
<polygon fill="white" stroke="black" points="382,-223.5 382,-242.5 429,-242.5 429,-223.5 382,-223.5"/>
<text text-anchor="middle" x="405.5" y="-230.5" font-family="Helvetica,sans-Serif" font-size="10.00">vi_pipe</text>
</a>
</g>
</g>
<!-- Node40&#45;&gt;Node41 -->
<g id="edge62" class="edge">
<title>Node40&#45;&gt;Node41</title>
<path fill="none" stroke="midnightblue" d="M466.53,-257.53C454.22,-252.5 440.52,-246.9 429.32,-242.32"/>
<polygon fill="midnightblue" stroke="midnightblue" points="465.45,-260.87 476.03,-261.41 468.1,-254.39 465.45,-260.87"/>
</g>
<!-- Node42 -->
<g id="node42" class="node">
<title>Node42</title>
<g id="a_node42"><a xlink:href="vi_8c.html#a93701c59617d4f96cbaa207e89178f87" target="_top" xlink:title=" ">
<polygon fill="white" stroke="black" points="376,-299.5 376,-318.5 435,-318.5 435,-299.5 376,-299.5"/>
<text text-anchor="middle" x="405.5" y="-306.5" font-family="Helvetica,sans-Serif" font-size="10.00">vi_search</text>
</a>
</g>
</g>
<!-- Node40&#45;&gt;Node42 -->
<g id="edge64" class="edge">
<title>Node40&#45;&gt;Node42</title>
<path fill="none" stroke="midnightblue" d="M466.68,-284.41C454.56,-289.36 441.08,-294.87 429.96,-299.41"/>
<polygon fill="midnightblue" stroke="midnightblue" points="468.1,-287.61 476.03,-280.59 465.45,-281.13 468.1,-287.61"/>
</g>
<!-- Node41&#45;&gt;Node34 -->
<g id="edge63" class="edge">
<title>Node41&#45;&gt;Node34</title>
<path fill="none" stroke="midnightblue" d="M371.76,-233C331.8,-233 264.77,-233 226.06,-233"/>
<polygon fill="midnightblue" stroke="midnightblue" points="371.79,-236.5 381.79,-233 371.79,-229.5 371.79,-236.5"/>
</g>
<!-- Node43 -->
<g id="node43" class="node">
<title>Node43</title>
<g id="a_node43"><a xlink:href="vi_8c.html#aaa4777ea0715ea846346d0f27a0cfa3f" target="_top" xlink:title=" ">
<polygon fill="white" stroke="black" points="276,-299.5 276,-318.5 335,-318.5 335,-299.5 276,-299.5"/>
<text text-anchor="middle" x="305.5" y="-306.5" font-family="Helvetica,sans-Serif" font-size="10.00">vi_motion</text>
</a>
</g>
</g>
<!-- Node42&#45;&gt;Node43 -->
<g id="edge65" class="edge">
<title>Node42&#45;&gt;Node43</title>
<path fill="none" stroke="midnightblue" d="M365.64,-309C355.53,-309 344.81,-309 335.31,-309"/>
<polygon fill="midnightblue" stroke="midnightblue" points="365.89,-312.5 375.89,-309 365.89,-305.5 365.89,-312.5"/>
</g>
<!-- Node43&#45;&gt;Node15 -->
<g id="edge67" class="edge">
<title>Node43&#45;&gt;Node15</title>
<path fill="none" stroke="midnightblue" d="M265.73,-308.77C234.44,-307.2 190.03,-301.8 155,-285 134.13,-274.99 115.35,-254.96 105.27,-242.89"/>
<polygon fill="midnightblue" stroke="midnightblue" points="265.67,-312.27 275.8,-309.16 265.94,-305.27 265.67,-312.27"/>
</g>
<!-- Node43&#45;&gt;Node34 -->
<g id="edge66" class="edge">
<title>Node43&#45;&gt;Node34</title>
<path fill="none" stroke="midnightblue" d="M282.43,-293.54C260.61,-278.25 227.91,-255.36 209.63,-242.55"/>
<polygon fill="midnightblue" stroke="midnightblue" points="280.56,-296.5 290.76,-299.37 284.58,-290.77 280.56,-296.5"/>
</g>
<!-- Node44&#45;&gt;Node15 -->
<g id="edge69" class="edge">
<title>Node44&#45;&gt;Node15</title>
<path fill="none" stroke="midnightblue" d="M262.62,-131.59C231.53,-141.98 188.84,-158.5 155,-180 135.52,-192.38 116.56,-211.69 106.01,-223.27"/>
<polygon fill="midnightblue" stroke="midnightblue" points="263.86,-134.87 272.28,-128.44 261.69,-128.21 263.86,-134.87"/>
</g>
<!-- Node45 -->
<g id="node45" class="node">
<title>Node45</title>
<g id="a_node45"><a xlink:href="vi_8c.html#a2b620fa68325e1b708f07af90f50c3d8" target="_top" xlink:title=" ">
<polygon fill="white" stroke="black" points="158,-109.5 158,-128.5 232,-128.5 232,-109.5 158,-109.5"/>
<text text-anchor="middle" x="195" y="-116.5" font-family="Helvetica,sans-Serif" font-size="10.00">vi_drawagain</text>
</a>
</g>
</g>
<!-- Node44&#45;&gt;Node45 -->
<g id="edge70" class="edge">
<title>Node44&#45;&gt;Node45</title>
<path fill="none" stroke="midnightblue" d="M262.16,-119C252.23,-119 241.75,-119 232.13,-119"/>
<polygon fill="midnightblue" stroke="midnightblue" points="262.24,-122.5 272.24,-119 262.24,-115.5 262.24,-122.5"/>
</g>
<!-- Node46 -->
<g id="node46" class="node">
<title>Node46</title>
<g id="a_node46"><a xlink:href="vi_8c.html#a9896bc9688f6102408f66aa0ad7e64f9" target="_top" xlink:title=" ">
<polygon fill="white" stroke="black" points="155,-71.5 155,-90.5 235,-90.5 235,-71.5 155,-71.5"/>
<text text-anchor="middle" x="195" y="-78.5" font-family="Helvetica,sans-Serif" font-size="10.00">vi_drawupdate</text>
</a>
</g>
</g>
<!-- Node44&#45;&gt;Node46 -->
<g id="edge72" class="edge">
<title>Node44&#45;&gt;Node46</title>
<path fill="none" stroke="midnightblue" d="M267.46,-106.03C253.01,-100.97 236.73,-95.27 223.37,-90.59"/>
<polygon fill="midnightblue" stroke="midnightblue" points="266.53,-109.41 277.12,-109.41 268.84,-102.8 266.53,-109.41"/>
</g>
<!-- Node45&#45;&gt;Node15 -->
<g id="edge71" class="edge">
<title>Node45&#45;&gt;Node15</title>
<path fill="none" stroke="midnightblue" d="M165.96,-134.09C162.06,-136.79 158.28,-139.78 155,-143 129.75,-167.83 110.17,-205.71 101.85,-223.34"/>
<polygon fill="midnightblue" stroke="midnightblue" points="167.94,-136.97 174.52,-128.67 164.2,-131.06 167.94,-136.97"/>
</g>
<!-- Node46&#45;&gt;Node15 -->
<g id="edge73" class="edge">
<title>Node46&#45;&gt;Node15</title>
<path fill="none" stroke="midnightblue" d="M158.93,-96.4C157.54,-97.53 156.22,-98.73 155,-100 119.54,-137.1 104.08,-199.53 99.26,-223.36"/>
<polygon fill="midnightblue" stroke="midnightblue" points="161.12,-99.15 167.52,-90.7 157.25,-93.31 161.12,-99.15"/>
</g>
<!-- Node48 -->
<g id="node48" class="node">
<title>Node48</title>
<g id="a_node48"><a xlink:href="vi_8c.html#aa59b6f8d6056ad376a3a5ec45ce1686b" target="_top" xlink:title=" ">
<polygon fill="white" stroke="black" points="271,-71.5 271,-90.5 340,-90.5 340,-71.5 271,-71.5"/>
<text text-anchor="middle" x="305.5" y="-78.5" font-family="Helvetica,sans-Serif" font-size="10.00">vi_drawmsg</text>
</a>
</g>
</g>
<!-- Node47&#45;&gt;Node48 -->
<g id="edge75" class="edge">
<title>Node47&#45;&gt;Node48</title>
<path fill="none" stroke="midnightblue" d="M980.6,-81C940.17,-81 879.39,-81 826.5,-81 826.5,-81 826.5,-81 499.5,-81 443.71,-81 378.85,-81 340.32,-81"/>
<polygon fill="midnightblue" stroke="midnightblue" points="980.68,-84.5 990.68,-81 980.68,-77.5 980.68,-84.5"/>
</g>
<!-- Node48&#45;&gt;Node15 -->
<g id="edge76" class="edge">
<title>Node48&#45;&gt;Node15</title>
<path fill="none" stroke="midnightblue" d="M277.15,-67.09C244.85,-52.83 191,-36.12 155,-62 100.83,-100.94 97,-193.46 97.24,-223.44"/>
<polygon fill="midnightblue" stroke="midnightblue" points="275.89,-70.36 286.43,-71.38 278.82,-64.01 275.89,-70.36"/>
</g>
<!-- Node48&#45;&gt;Node45 -->
<g id="edge77" class="edge">
<title>Node48&#45;&gt;Node45</title>
<path fill="none" stroke="midnightblue" d="M267.46,-93.97C253.01,-99.03 236.73,-104.73 223.37,-109.41"/>
<polygon fill="midnightblue" stroke="midnightblue" points="268.84,-97.2 277.12,-90.59 266.53,-90.59 268.84,-97.2"/>
</g>
<!-- Node48&#45;&gt;Node46 -->
<g id="edge78" class="edge">
<title>Node48&#45;&gt;Node46</title>
<path fill="none" stroke="midnightblue" d="M260.65,-81C252.17,-81 243.34,-81 235.03,-81"/>
<polygon fill="midnightblue" stroke="midnightblue" points="260.76,-84.5 270.76,-81 260.76,-77.5 260.76,-84.5"/>
</g>
<!-- Node49&#45;&gt;Node13 -->
<g id="edge80" class="edge">
<title>Node49&#45;&gt;Node13</title>
<path fill="none" stroke="midnightblue" d="M1094.86,-8.63C1054.87,-7.15 986.64,-5 928,-5 928,-5 928,-5 194,-5 47.82,-5 23.89,-264.59 20.51,-318.33"/>
<polygon fill="midnightblue" stroke="midnightblue" points="1094.75,-12.13 1104.87,-9.01 1095.01,-5.14 1094.75,-12.13"/>
</g>
</g>
</svg>
