<?xml version="1.0" encoding="UTF-8" standalone="no"?>
<!DOCTYPE svg PUBLIC "-//W3C//DTD SVG 1.1//EN"
 "http://www.w3.org/Graphics/SVG/1.1/DTD/svg11.dtd">
<!-- Generated by graphviz version 2.44.1 (20200629.0846)
 -->
<!-- Title: uc_iszw Pages: 1 -->
<svg width="1579pt" height="633pt"
 viewBox="0.00 0.00 1579.00 632.91" xmlns="http://www.w3.org/2000/svg" xmlns:xlink="http://www.w3.org/1999/xlink">
<g id="graph0" class="graph" transform="scale(1 1) rotate(0) translate(4 628.91)">
<title>uc_iszw</title>
<polygon fill="white" stroke="transparent" points="-4,4 -4,-628.91 1575,-628.91 1575,4 -4,4"/>
<!-- Node1 -->
<g id="node1" class="node">
<title>Node1</title>
<g id="a_node1"><a xlink:title=" ">
<polygon fill="#bfbfbf" stroke="black" points="1518,-487.43 1518,-506.43 1571,-506.43 1571,-487.43 1518,-487.43"/>
<text text-anchor="middle" x="1544.5" y="-494.43" font-family="Helvetica,sans-Serif" font-size="10.00">uc_iszw</text>
</a>
</g>
</g>
<!-- Node2 -->
<g id="node2" class="node">
<title>Node2</title>
<g id="a_node2"><a xlink:href="vi_8h.html#aa36946fae6b9e3989a308ab83f866bd3" target="_top" xlink:title=" ">
<polygon fill="white" stroke="black" points="1427,-506.43 1427,-525.43 1482,-525.43 1482,-506.43 1427,-506.43"/>
<text text-anchor="middle" x="1454.5" y="-513.43" font-family="Helvetica,sans-Serif" font-size="10.00">uc_isbell</text>
</a>
</g>
</g>
<!-- Node1&#45;&gt;Node2 -->
<g id="edge1" class="edge">
<title>Node1&#45;&gt;Node2</title>
<path fill="none" stroke="midnightblue" d="M1507.52,-504.7C1499.04,-506.53 1490.14,-508.45 1482.16,-510.18"/>
<polygon fill="midnightblue" stroke="midnightblue" points="1508.54,-508.06 1517.57,-502.53 1507.06,-501.22 1508.54,-508.06"/>
</g>
<!-- Node51 -->
<g id="node51" class="node">
<title>Node51</title>
<g id="a_node51"><a xlink:href="vi_8h.html#a4fa8a117e881e9072757c68791061fe1" target="_top" xlink:title=" ">
<polygon fill="white" stroke="black" points="1431,-468.43 1431,-487.43 1478,-487.43 1478,-468.43 1431,-468.43"/>
<text text-anchor="middle" x="1454.5" y="-475.43" font-family="Helvetica,sans-Serif" font-size="10.00">uc_wid</text>
</a>
</g>
</g>
<!-- Node1&#45;&gt;Node51 -->
<g id="edge81" class="edge">
<title>Node1&#45;&gt;Node51</title>
<path fill="none" stroke="midnightblue" d="M1507.55,-489.17C1497.65,-487.03 1487.18,-484.77 1478.26,-482.84"/>
<polygon fill="midnightblue" stroke="midnightblue" points="1507.06,-492.64 1517.57,-491.33 1508.54,-485.8 1507.06,-492.64"/>
</g>
<!-- Node3 -->
<g id="node3" class="node">
<title>Node3</title>
<g id="a_node3"><a xlink:href="ren_8c.html#a0b410d82df4f40183b9655f3a0c4750b" target="_top" xlink:title=" ">
<polygon fill="white" stroke="black" points="1306,-506.43 1306,-525.43 1391,-525.43 1391,-506.43 1306,-506.43"/>
<text text-anchor="middle" x="1348.5" y="-513.43" font-family="Helvetica,sans-Serif" font-size="10.00">ren_placeholder</text>
</a>
</g>
</g>
<!-- Node2&#45;&gt;Node3 -->
<g id="edge2" class="edge">
<title>Node2&#45;&gt;Node3</title>
<path fill="none" stroke="midnightblue" d="M1416.89,-515.93C1408.63,-515.93 1399.79,-515.93 1391.33,-515.93"/>
<polygon fill="midnightblue" stroke="midnightblue" points="1416.99,-519.43 1426.99,-515.93 1416.99,-512.43 1416.99,-519.43"/>
</g>
<!-- Node4 -->
<g id="node4" class="node">
<title>Node4</title>
<g id="a_node4"><a xlink:href="vi_8h.html#a51d018012e29caa2b526a949b1f52fab" target="_top" xlink:title=" ">
<polygon fill="white" stroke="black" points="1197,-506.43 1197,-525.43 1270,-525.43 1270,-506.43 1197,-506.43"/>
<text text-anchor="middle" x="1233.5" y="-513.43" font-family="Helvetica,sans-Serif" font-size="10.00">ren_translate</text>
</a>
</g>
</g>
<!-- Node3&#45;&gt;Node4 -->
<g id="edge3" class="edge">
<title>Node3&#45;&gt;Node4</title>
<path fill="none" stroke="midnightblue" d="M1295.71,-515.93C1287.07,-515.93 1278.27,-515.93 1270.15,-515.93"/>
<polygon fill="midnightblue" stroke="midnightblue" points="1295.74,-519.43 1305.74,-515.93 1295.74,-512.43 1295.74,-519.43"/>
</g>
<!-- Node5 -->
<g id="node5" class="node">
<title>Node5</title>
<g id="a_node5"><a xlink:href="led_8c.html#ad30f796594398b70e4ce9687b11bcdd9" target="_top" xlink:title=" ">
<polygon fill="white" stroke="black" points="1099,-506.43 1099,-525.43 1161,-525.43 1161,-506.43 1099,-506.43"/>
<text text-anchor="middle" x="1130" y="-513.43" font-family="Helvetica,sans-Serif" font-size="10.00">led_render</text>
</a>
</g>
</g>
<!-- Node4&#45;&gt;Node5 -->
<g id="edge4" class="edge">
<title>Node4&#45;&gt;Node5</title>
<path fill="none" stroke="midnightblue" d="M1186.68,-515.93C1178,-515.93 1169.13,-515.93 1161.09,-515.93"/>
<polygon fill="midnightblue" stroke="midnightblue" points="1186.71,-519.43 1196.71,-515.93 1186.71,-512.43 1186.71,-519.43"/>
</g>
<!-- Node6 -->
<g id="node6" class="node">
<title>Node6</title>
<g id="a_node6"><a xlink:href="vi_8h.html#a4356f8fc86e72c470f35f0a5e4385576" target="_top" xlink:title=" ">
<polygon fill="white" stroke="black" points="1000.5,-487.43 1000.5,-506.43 1053.5,-506.43 1053.5,-487.43 1000.5,-487.43"/>
<text text-anchor="middle" x="1027" y="-494.43" font-family="Helvetica,sans-Serif" font-size="10.00">led_print</text>
</a>
</g>
</g>
<!-- Node5&#45;&gt;Node6 -->
<g id="edge5" class="edge">
<title>Node5&#45;&gt;Node6</title>
<path fill="none" stroke="midnightblue" d="M1088.83,-508.37C1076.97,-506.14 1064.32,-503.76 1053.65,-501.76"/>
<polygon fill="midnightblue" stroke="midnightblue" points="1088.5,-511.87 1098.97,-510.28 1089.79,-504.99 1088.5,-511.87"/>
</g>
<!-- Node49 -->
<g id="node49" class="node">
<title>Node49</title>
<g id="a_node49"><a xlink:href="vi_8h.html#a7838c5ed4623338b3fa9b2c6da4485eb" target="_top" xlink:title=" ">
<polygon fill="white" stroke="black" points="991,-563.43 991,-582.43 1063,-582.43 1063,-563.43 991,-563.43"/>
<text text-anchor="middle" x="1027" y="-570.43" font-family="Helvetica,sans-Serif" font-size="10.00">led_printmsg</text>
</a>
</g>
</g>
<!-- Node5&#45;&gt;Node49 -->
<g id="edge76" class="edge">
<title>Node5&#45;&gt;Node49</title>
<path fill="none" stroke="midnightblue" d="M1103.14,-530.53C1084.82,-540.86 1060.78,-554.43 1044.88,-563.41"/>
<polygon fill="midnightblue" stroke="midnightblue" points="1104.88,-533.56 1111.87,-525.6 1101.44,-527.47 1104.88,-533.56"/>
</g>
<!-- Node7 -->
<g id="node7" class="node">
<title>Node7</title>
<g id="a_node7"><a xlink:href="vi_8h.html#a075721180ea187be49c7164dcff34122" target="_top" xlink:title=" ">
<polygon fill="white" stroke="black" points="800,-316.43 800,-335.43 851,-335.43 851,-316.43 800,-316.43"/>
<text text-anchor="middle" x="825.5" y="-323.43" font-family="Helvetica,sans-Serif" font-size="10.00">ex_print</text>
</a>
</g>
</g>
<!-- Node6&#45;&gt;Node7 -->
<g id="edge6" class="edge">
<title>Node6&#45;&gt;Node7</title>
<path fill="none" stroke="midnightblue" d="M1007.06,-480.69C966.1,-445.59 870.37,-363.53 837.67,-335.51"/>
<polygon fill="midnightblue" stroke="midnightblue" points="1004.83,-483.4 1014.7,-487.25 1009.39,-478.08 1004.83,-483.4"/>
</g>
<!-- Node27 -->
<g id="node27" class="node">
<title>Node27</title>
<g id="a_node27"><a xlink:href="vi_8h.html#ad27b2fbb84601eb4c5af3b1f28feac75" target="_top" xlink:title=" ">
<polygon fill="white" stroke="black" points="899,-183.43 899,-202.43 955,-202.43 955,-183.43 899,-183.43"/>
<text text-anchor="middle" x="927" y="-190.43" font-family="Helvetica,sans-Serif" font-size="10.00">ex_show</text>
</a>
</g>
</g>
<!-- Node6&#45;&gt;Node27 -->
<g id="edge33" class="edge">
<title>Node6&#45;&gt;Node27</title>
<path fill="none" stroke="midnightblue" d="M1019.66,-477.28C1000.7,-418.45 944.85,-245.19 931.09,-202.51"/>
<polygon fill="midnightblue" stroke="midnightblue" points="1016.45,-478.72 1022.85,-487.16 1023.11,-476.57 1016.45,-478.72"/>
</g>
<!-- Node31 -->
<g id="node31" class="node">
<title>Node31</title>
<g id="a_node31"><a xlink:href="led_8c.html#ae938cbff964c214e7e4f6aff4d5ce0f7" target="_top" xlink:title=" ">
<polygon fill="white" stroke="black" points="788,-487.43 788,-506.43 863,-506.43 863,-487.43 788,-487.43"/>
<text text-anchor="middle" x="825.5" y="-494.43" font-family="Helvetica,sans-Serif" font-size="10.00">led_printparts</text>
</a>
</g>
</g>
<!-- Node6&#45;&gt;Node31 -->
<g id="edge46" class="edge">
<title>Node6&#45;&gt;Node31</title>
<path fill="none" stroke="midnightblue" d="M990.31,-496.93C954.46,-496.93 899.47,-496.93 863.25,-496.93"/>
<polygon fill="midnightblue" stroke="midnightblue" points="990.33,-500.43 1000.33,-496.93 990.33,-493.43 990.33,-500.43"/>
</g>
<!-- Node46 -->
<g id="node46" class="node">
<title>Node46</title>
<g id="a_node46"><a xlink:href="vi_8c.html#af48ebb44cac26d2c52f0ada762be5bf6" target="_top" xlink:title=" ">
<polygon fill="white" stroke="black" points="272.5,-544.43 272.5,-563.43 338.5,-563.43 338.5,-544.43 272.5,-544.43"/>
<text text-anchor="middle" x="305.5" y="-551.43" font-family="Helvetica,sans-Serif" font-size="10.00">vi_drawrow</text>
</a>
</g>
</g>
<!-- Node6&#45;&gt;Node46 -->
<g id="edge70" class="edge">
<title>Node6&#45;&gt;Node46</title>
<path fill="none" stroke="midnightblue" d="M996.97,-510.74C958.78,-527.61 889.16,-553.93 826.5,-553.93 826.5,-553.93 826.5,-553.93 499.5,-553.93 442.87,-553.93 376.9,-553.93 338.6,-553.93"/>
<polygon fill="midnightblue" stroke="midnightblue" points="998.75,-513.78 1006.43,-506.47 995.87,-507.4 998.75,-513.78"/>
</g>
<!-- Node8 -->
<g id="node8" class="node">
<title>Node8</title>
<g id="a_node8"><a xlink:href="ex_8c.html#a86b4adba0c96621f01383b9bacba4a01" target="_top" xlink:title=" ">
<polygon fill="white" stroke="black" points="696,-354.43 696,-373.43 752,-373.43 752,-354.43 696,-354.43"/>
<text text-anchor="middle" x="724" y="-361.43" font-family="Helvetica,sans-Serif" font-size="10.00">ec_cmap</text>
</a>
</g>
</g>
<!-- Node7&#45;&gt;Node8 -->
<g id="edge7" class="edge">
<title>Node7&#45;&gt;Node8</title>
<path fill="none" stroke="midnightblue" d="M790.19,-339.03C776.99,-344.08 762.17,-349.74 750,-354.38"/>
<polygon fill="midnightblue" stroke="midnightblue" points="791.81,-342.16 799.9,-335.32 789.31,-335.62 791.81,-342.16"/>
</g>
<!-- Node9 -->
<g id="node9" class="node">
<title>Node9</title>
<g id="a_node9"><a xlink:href="ex_8c.html#adcd83f163f659bd2596bcfc25d74bde9" target="_top" xlink:title=" ">
<polygon fill="white" stroke="black" points="474,-126.43 474,-145.43 527,-145.43 527,-126.43 474,-126.43"/>
<text text-anchor="middle" x="500.5" y="-133.43" font-family="Helvetica,sans-Serif" font-size="10.00">ec_exec</text>
</a>
</g>
</g>
<!-- Node7&#45;&gt;Node9 -->
<g id="edge8" class="edge">
<title>Node7&#45;&gt;Node9</title>
<path fill="none" stroke="midnightblue" d="M794.29,-311.97C734.92,-284.26 605.39,-222.49 566,-192.93 547.39,-178.97 547.79,-169.92 530,-154.93 526.09,-151.64 521.59,-148.41 517.34,-145.58"/>
<polygon fill="midnightblue" stroke="midnightblue" points="792.98,-315.22 803.53,-316.26 795.94,-308.87 792.98,-315.22"/>
</g>
<!-- Node18 -->
<g id="node18" class="node">
<title>Node18</title>
<g id="a_node18"><a xlink:href="ex_8c.html#a96a40531d1096a618d29639f2e42710b" target="_top" xlink:title=" ">
<polygon fill="white" stroke="black" points="705,-316.43 705,-335.43 743,-335.43 743,-316.43 705,-316.43"/>
<text text-anchor="middle" x="724" y="-323.43" font-family="Helvetica,sans-Serif" font-size="10.00">ec_ft</text>
</a>
</g>
</g>
<!-- Node7&#45;&gt;Node18 -->
<g id="edge20" class="edge">
<title>Node7&#45;&gt;Node18</title>
<path fill="none" stroke="midnightblue" d="M789.48,-325.93C773.81,-325.93 756,-325.93 743.07,-325.93"/>
<polygon fill="midnightblue" stroke="midnightblue" points="789.9,-329.43 799.9,-325.93 789.9,-322.43 789.9,-329.43"/>
</g>
<!-- Node19 -->
<g id="node19" class="node">
<title>Node19</title>
<g id="a_node19"><a xlink:href="ex_8c.html#a1d45a70b724f4cccae2ab746c711ebb1" target="_top" xlink:title=" ">
<polygon fill="white" stroke="black" points="697.5,-430.43 697.5,-449.43 750.5,-449.43 750.5,-430.43 697.5,-430.43"/>
<text text-anchor="middle" x="724" y="-437.43" font-family="Helvetica,sans-Serif" font-size="10.00">ec_lnum</text>
</a>
</g>
</g>
<!-- Node7&#45;&gt;Node19 -->
<g id="edge21" class="edge">
<title>Node7&#45;&gt;Node19</title>
<path fill="none" stroke="midnightblue" d="M813.06,-344.14C799.87,-364.3 776.78,-397.09 752,-420.93 748.53,-424.27 744.43,-427.46 740.49,-430.25"/>
<polygon fill="midnightblue" stroke="midnightblue" points="816.09,-345.9 818.55,-335.6 810.2,-342.11 816.09,-345.9"/>
</g>
<!-- Node20 -->
<g id="node20" class="node">
<title>Node20</title>
<g id="a_node20"><a xlink:href="ex_8c.html#aa69f426ff9728078fbb36f448c624a90" target="_top" xlink:title=" ">
<polygon fill="white" stroke="black" points="472.5,-164.43 472.5,-183.43 528.5,-183.43 528.5,-164.43 472.5,-164.43"/>
<text text-anchor="middle" x="500.5" y="-171.43" font-family="Helvetica,sans-Serif" font-size="10.00">ec_make</text>
</a>
</g>
</g>
<!-- Node7&#45;&gt;Node20 -->
<g id="edge22" class="edge">
<title>Node7&#45;&gt;Node20</title>
<path fill="none" stroke="midnightblue" d="M790.05,-316.68C778.03,-313.52 764.44,-310 752,-306.93 669.62,-286.62 632.8,-316.24 566,-263.93 538.14,-242.12 553.49,-219.39 530,-192.93 526.84,-189.37 522.87,-186.18 518.91,-183.48"/>
<polygon fill="midnightblue" stroke="midnightblue" points="789.15,-320.07 799.72,-319.25 790.95,-313.3 789.15,-320.07"/>
</g>
<!-- Node21 -->
<g id="node21" class="node">
<title>Node21</title>
<g id="a_node21"><a xlink:href="ex_8c.html#ad2c1a9505aa3097bac242b47a367f11d" target="_top" xlink:title=" ">
<polygon fill="white" stroke="black" points="698.5,-392.43 698.5,-411.43 749.5,-411.43 749.5,-392.43 698.5,-392.43"/>
<text text-anchor="middle" x="724" y="-399.43" font-family="Helvetica,sans-Serif" font-size="10.00">ec_print</text>
</a>
</g>
</g>
<!-- Node7&#45;&gt;Node21 -->
<g id="edge23" class="edge">
<title>Node7&#45;&gt;Node21</title>
<path fill="none" stroke="midnightblue" d="M804.54,-342.08C790.1,-353.66 770.04,-369.51 752,-382.93 747.77,-386.08 743.09,-389.42 738.84,-392.41"/>
<polygon fill="midnightblue" stroke="midnightblue" points="806.74,-344.81 812.34,-335.81 802.35,-339.36 806.74,-344.81"/>
</g>
<!-- Node23 -->
<g id="node23" class="node">
<title>Node23</title>
<g id="a_node23"><a xlink:href="ex_8c.html#a057b67e2d4f23df3ad50a9d3ec86125b" target="_top" xlink:title=" ">
<polygon fill="white" stroke="black" points="697.5,-202.43 697.5,-221.43 750.5,-221.43 750.5,-202.43 697.5,-202.43"/>
<text text-anchor="middle" x="724" y="-209.43" font-family="Helvetica,sans-Serif" font-size="10.00">ec_write</text>
</a>
</g>
</g>
<!-- Node7&#45;&gt;Node23 -->
<g id="edge25" class="edge">
<title>Node7&#45;&gt;Node23</title>
<path fill="none" stroke="midnightblue" d="M811.53,-308.1C797.62,-289.41 774.48,-259.53 752,-235.93 747.24,-230.94 741.59,-225.8 736.69,-221.57"/>
<polygon fill="midnightblue" stroke="midnightblue" points="808.83,-310.33 817.58,-316.31 814.46,-306.18 808.83,-310.33"/>
</g>
<!-- Node10 -->
<g id="node10" class="node">
<title>Node10</title>
<g id="a_node10"><a xlink:href="ex_8c.html#a7d848d20211b2e1c868dde98ec5dfae9" target="_top" xlink:title=" ">
<polygon fill="white" stroke="black" points="382,-164.43 382,-183.43 429,-183.43 429,-164.43 382,-164.43"/>
<text text-anchor="middle" x="405.5" y="-171.43" font-family="Helvetica,sans-Serif" font-size="10.00">ex_line</text>
</a>
</g>
</g>
<!-- Node9&#45;&gt;Node10 -->
<g id="edge9" class="edge">
<title>Node9&#45;&gt;Node10</title>
<path fill="none" stroke="midnightblue" d="M466.53,-149.4C454.22,-154.43 440.52,-160.03 429.32,-164.61"/>
<polygon fill="midnightblue" stroke="midnightblue" points="468.1,-152.54 476.03,-145.52 465.45,-146.06 468.1,-152.54"/>
</g>
<!-- Node11 -->
<g id="node11" class="node">
<title>Node11</title>
<g id="a_node11"><a xlink:href="ex_8c.html#ab15ebfef933256d9741128e2ddf3f9b5" target="_top" xlink:title=" ">
<polygon fill="white" stroke="black" points="279,-164.43 279,-183.43 332,-183.43 332,-164.43 279,-164.43"/>
<text text-anchor="middle" x="305.5" y="-171.43" font-family="Helvetica,sans-Serif" font-size="10.00">ex_exec</text>
</a>
</g>
</g>
<!-- Node10&#45;&gt;Node11 -->
<g id="edge10" class="edge">
<title>Node10&#45;&gt;Node11</title>
<path fill="none" stroke="midnightblue" d="M371.48,-173.93C358.68,-173.93 344.23,-173.93 332.22,-173.93"/>
<polygon fill="midnightblue" stroke="midnightblue" points="371.77,-177.43 381.77,-173.93 371.77,-170.43 371.77,-177.43"/>
</g>
<!-- Node12 -->
<g id="node12" class="node">
<title>Node12</title>
<g id="a_node12"><a xlink:href="ex_8c.html#a70c571bdde329a65e216c19b4aeaa628" target="_top" xlink:title=" ">
<polygon fill="white" stroke="black" points="170,-202.43 170,-221.43 220,-221.43 220,-202.43 170,-202.43"/>
<text text-anchor="middle" x="195" y="-209.43" font-family="Helvetica,sans-Serif" font-size="10.00">ec_glob</text>
</a>
</g>
</g>
<!-- Node11&#45;&gt;Node12 -->
<g id="edge11" class="edge">
<title>Node11&#45;&gt;Node12</title>
<path fill="none" stroke="midnightblue" d="M269.16,-186.31C253.08,-191.94 234.47,-198.46 220.04,-203.51"/>
<polygon fill="midnightblue" stroke="midnightblue" points="270.51,-189.55 278.79,-182.94 268.19,-182.94 270.51,-189.55"/>
</g>
<!-- Node13 -->
<g id="node13" class="node">
<title>Node13</title>
<g id="a_node13"><a xlink:href="vi_8h.html#aa75c73cccb4878ec06ea5bf5b1b02295" target="_top" xlink:title=" ">
<polygon fill="white" stroke="black" points="157.5,-164.43 157.5,-183.43 232.5,-183.43 232.5,-164.43 157.5,-164.43"/>
<text text-anchor="middle" x="195" y="-171.43" font-family="Helvetica,sans-Serif" font-size="10.00">ex_command</text>
</a>
</g>
</g>
<!-- Node11&#45;&gt;Node13 -->
<g id="edge13" class="edge">
<title>Node11&#45;&gt;Node13</title>
<path fill="none" stroke="midnightblue" d="M268.6,-173.93C257.04,-173.93 244.22,-173.93 232.61,-173.93"/>
<polygon fill="midnightblue" stroke="midnightblue" points="268.79,-177.43 278.79,-173.93 268.79,-170.43 268.79,-177.43"/>
</g>
<!-- Node12&#45;&gt;Node10 -->
<g id="edge12" class="edge">
<title>Node12&#45;&gt;Node10</title>
<path fill="none" stroke="midnightblue" d="M230.29,-208.92C259.62,-205.98 302.87,-200.8 340,-192.93 354.05,-189.95 369.49,-185.45 381.74,-181.58"/>
<polygon fill="midnightblue" stroke="midnightblue" points="229.76,-205.45 220.14,-209.9 230.43,-212.42 229.76,-205.45"/>
</g>
<!-- Node14 -->
<g id="node14" class="node">
<title>Node14</title>
<g id="a_node14"><a xlink:href="vi_8h.html#ac395e51f25330a6e6033b6d0d22b2076" target="_top" xlink:title=" ">
<polygon fill="white" stroke="black" points="82,-278.43 82,-297.43 111,-297.43 111,-278.43 82,-278.43"/>
<text text-anchor="middle" x="96.5" y="-285.43" font-family="Helvetica,sans-Serif" font-size="10.00">ex</text>
</a>
</g>
</g>
<!-- Node13&#45;&gt;Node14 -->
<g id="edge14" class="edge">
<title>Node13&#45;&gt;Node14</title>
<path fill="none" stroke="midnightblue" d="M159.82,-189.05C158.12,-190.27 156.5,-191.56 155,-192.93 127.38,-218.15 108.6,-259.7 101.12,-278.35"/>
<polygon fill="midnightblue" stroke="midnightblue" points="162.02,-191.8 168.73,-183.6 158.37,-185.83 162.02,-191.8"/>
</g>
<!-- Node16 -->
<g id="node16" class="node">
<title>Node16</title>
<g id="a_node16"><a xlink:href="vi_8h.html#abe53b5c10f94f20cd5ed024371615fa1" target="_top" xlink:title=" ">
<polygon fill="white" stroke="black" points="74,-164.43 74,-183.43 119,-183.43 119,-164.43 74,-164.43"/>
<text text-anchor="middle" x="96.5" y="-171.43" font-family="Helvetica,sans-Serif" font-size="10.00">ex_init</text>
</a>
</g>
</g>
<!-- Node13&#45;&gt;Node16 -->
<g id="edge16" class="edge">
<title>Node13&#45;&gt;Node16</title>
<path fill="none" stroke="midnightblue" d="M147.11,-173.93C137.29,-173.93 127.4,-173.93 119.07,-173.93"/>
<polygon fill="midnightblue" stroke="midnightblue" points="147.24,-177.43 157.24,-173.93 147.24,-170.43 147.24,-177.43"/>
</g>
<!-- Node17 -->
<g id="node17" class="node">
<title>Node17</title>
<g id="a_node17"><a xlink:href="vi_8c.html#a8d808e0f3453afe6600673ee1ea5f828" target="_top" xlink:title=" ">
<polygon fill="white" stroke="black" points="82,-430.43 82,-449.43 111,-449.43 111,-430.43 82,-430.43"/>
<text text-anchor="middle" x="96.5" y="-437.43" font-family="Helvetica,sans-Serif" font-size="10.00">vi</text>
</a>
</g>
</g>
<!-- Node13&#45;&gt;Node17 -->
<g id="edge18" class="edge">
<title>Node13&#45;&gt;Node17</title>
<path fill="none" stroke="midnightblue" d="M158.07,-189.6C156.97,-190.64 155.94,-191.75 155,-192.93 139.63,-212.21 107.13,-386.86 99.25,-430.22"/>
<polygon fill="midnightblue" stroke="midnightblue" points="160.21,-192.37 166.16,-183.6 156.05,-186.74 160.21,-192.37"/>
</g>
<!-- Node15 -->
<g id="node15" class="node">
<title>Node15</title>
<g id="a_node15"><a xlink:href="vi_8c.html#a0ddf1224851353fc92bfbff6f499fa97" target="_top" xlink:title=" ">
<polygon fill="white" stroke="black" points="0,-278.43 0,-297.43 38,-297.43 38,-278.43 0,-278.43"/>
<text text-anchor="middle" x="19" y="-285.43" font-family="Helvetica,sans-Serif" font-size="10.00">main</text>
</a>
</g>
</g>
<!-- Node14&#45;&gt;Node15 -->
<g id="edge15" class="edge">
<title>Node14&#45;&gt;Node15</title>
<path fill="none" stroke="midnightblue" d="M71.55,-287.93C60.69,-287.93 48.07,-287.93 38.04,-287.93"/>
<polygon fill="midnightblue" stroke="midnightblue" points="71.65,-291.43 81.65,-287.93 71.65,-284.43 71.65,-291.43"/>
</g>
<!-- Node16&#45;&gt;Node15 -->
<g id="edge17" class="edge">
<title>Node16&#45;&gt;Node15</title>
<path fill="none" stroke="midnightblue" d="M83.51,-192.04C67.32,-216.48 39.06,-259.16 26.42,-278.24"/>
<polygon fill="midnightblue" stroke="midnightblue" points="86.46,-193.92 89.06,-183.65 80.62,-190.06 86.46,-193.92"/>
</g>
<!-- Node17&#45;&gt;Node15 -->
<g id="edge19" class="edge">
<title>Node17&#45;&gt;Node15</title>
<path fill="none" stroke="midnightblue" d="M86.13,-421.06C69.85,-388.3 36.95,-322.06 24.72,-297.44"/>
<polygon fill="midnightblue" stroke="midnightblue" points="83.19,-423.02 90.78,-430.42 89.46,-419.91 83.19,-423.02"/>
</g>
<!-- Node22 -->
<g id="node22" class="node">
<title>Node22</title>
<g id="a_node22"><a xlink:href="ex_8c.html#affb8197a8f988443aadf1bf2800a0d0b" target="_top" xlink:title=" ">
<polygon fill="white" stroke="black" points="589.5,-373.43 589.5,-392.43 636.5,-392.43 636.5,-373.43 589.5,-373.43"/>
<text text-anchor="middle" x="613" y="-380.43" font-family="Helvetica,sans-Serif" font-size="10.00">ec_null</text>
</a>
</g>
</g>
<!-- Node21&#45;&gt;Node22 -->
<g id="edge24" class="edge">
<title>Node21&#45;&gt;Node22</title>
<path fill="none" stroke="midnightblue" d="M688.23,-395.87C671.4,-392.94 651.67,-389.5 636.78,-386.9"/>
<polygon fill="midnightblue" stroke="midnightblue" points="687.81,-399.35 698.27,-397.62 689.02,-392.45 687.81,-399.35"/>
</g>
<!-- Node24 -->
<g id="node24" class="node">
<title>Node24</title>
<g id="a_node24"><a xlink:href="ex_8c.html#ab0cb848a971a3b2c09fcb456d887dd6b" target="_top" xlink:title=" ">
<polygon fill="white" stroke="black" points="566,-164.43 566,-183.43 660,-183.43 660,-164.43 566,-164.43"/>
<text text-anchor="middle" x="613" y="-171.43" font-family="Helvetica,sans-Serif" font-size="10.00">ex_modifiedbuffer</text>
</a>
</g>
</g>
<!-- Node23&#45;&gt;Node24 -->
<g id="edge26" class="edge">
<title>Node23&#45;&gt;Node24</title>
<path fill="none" stroke="midnightblue" d="M687.91,-199.7C672.81,-194.43 655.42,-188.37 641.3,-183.45"/>
<polygon fill="midnightblue" stroke="midnightblue" points="686.85,-203.04 697.44,-203.02 689.15,-196.43 686.85,-203.04"/>
</g>
<!-- Node24&#45;&gt;Node9 -->
<g id="edge29" class="edge">
<title>Node24&#45;&gt;Node9</title>
<path fill="none" stroke="midnightblue" d="M574.26,-160.95C558.71,-155.61 541.1,-149.55 527.1,-144.74"/>
<polygon fill="midnightblue" stroke="midnightblue" points="573.52,-164.4 584.12,-164.34 575.8,-157.78 573.52,-164.4"/>
</g>
<!-- Node24&#45;&gt;Node20 -->
<g id="edge30" class="edge">
<title>Node24&#45;&gt;Node20</title>
<path fill="none" stroke="midnightblue" d="M555.61,-173.93C546.2,-173.93 536.84,-173.93 528.62,-173.93"/>
<polygon fill="midnightblue" stroke="midnightblue" points="555.78,-177.43 565.78,-173.93 555.78,-170.43 555.78,-177.43"/>
</g>
<!-- Node25 -->
<g id="node25" class="node">
<title>Node25</title>
<g id="a_node25"><a xlink:href="ex_8c.html#a8059390ad69866fa8e14bdb2521d4dc2" target="_top" xlink:title=" ">
<polygon fill="white" stroke="black" points="476.5,-69.43 476.5,-88.43 524.5,-88.43 524.5,-69.43 476.5,-69.43"/>
<text text-anchor="middle" x="500.5" y="-76.43" font-family="Helvetica,sans-Serif" font-size="10.00">ec_edit</text>
</a>
</g>
</g>
<!-- Node24&#45;&gt;Node25 -->
<g id="edge27" class="edge">
<title>Node24&#45;&gt;Node25</title>
<path fill="none" stroke="midnightblue" d="M592.8,-157.43C569.64,-137.52 531.48,-104.71 512.68,-88.55"/>
<polygon fill="midnightblue" stroke="midnightblue" points="590.73,-160.26 600.59,-164.12 595.29,-154.95 590.73,-160.26"/>
</g>
<!-- Node26 -->
<g id="node26" class="node">
<title>Node26</title>
<g id="a_node26"><a xlink:href="ex_8c.html#a87eef446de152fad41ce88a9a343b87d" target="_top" xlink:title=" ">
<polygon fill="white" stroke="black" points="476.5,-202.43 476.5,-221.43 524.5,-221.43 524.5,-202.43 476.5,-202.43"/>
<text text-anchor="middle" x="500.5" y="-209.43" font-family="Helvetica,sans-Serif" font-size="10.00">ec_quit</text>
</a>
</g>
</g>
<!-- Node24&#45;&gt;Node26 -->
<g id="edge31" class="edge">
<title>Node24&#45;&gt;Node26</title>
<path fill="none" stroke="midnightblue" d="M574.2,-186.93C557.7,-192.6 538.88,-199.08 524.53,-204.01"/>
<polygon fill="midnightblue" stroke="midnightblue" points="575.8,-190.08 584.12,-183.52 573.52,-183.46 575.8,-190.08"/>
</g>
<!-- Node25&#45;&gt;Node16 -->
<g id="edge28" class="edge">
<title>Node25&#45;&gt;Node16</title>
<path fill="none" stroke="midnightblue" d="M466.38,-85.07C404.66,-96.77 268.05,-123.87 155,-154.93 143.04,-158.22 129.89,-162.51 119.18,-166.19"/>
<polygon fill="midnightblue" stroke="midnightblue" points="467.14,-88.49 476.32,-83.2 465.85,-81.61 467.14,-88.49"/>
</g>
<!-- Node26&#45;&gt;Node23 -->
<g id="edge32" class="edge">
<title>Node26&#45;&gt;Node23</title>
<path fill="none" stroke="midnightblue" d="M534.77,-211.93C579.18,-211.93 656.88,-211.93 697.16,-211.93"/>
<polygon fill="midnightblue" stroke="midnightblue" points="534.5,-208.43 524.5,-211.93 534.5,-215.43 534.5,-208.43"/>
</g>
<!-- Node27&#45;&gt;Node7 -->
<g id="edge45" class="edge">
<title>Node27&#45;&gt;Node7</title>
<path fill="none" stroke="midnightblue" d="M912.69,-210.72C891.44,-239.13 850.54,-293.79 833.86,-316.09"/>
<polygon fill="midnightblue" stroke="midnightblue" points="915.66,-212.6 918.84,-202.5 910.05,-208.41 915.66,-212.6"/>
</g>
<!-- Node27&#45;&gt;Node23 -->
<g id="edge37" class="edge">
<title>Node27&#45;&gt;Node23</title>
<path fill="none" stroke="midnightblue" d="M888.7,-196.46C848.54,-200.25 785.72,-206.19 750.73,-209.5"/>
<polygon fill="midnightblue" stroke="midnightblue" points="889.27,-199.92 898.89,-195.49 888.61,-192.95 889.27,-199.92"/>
</g>
<!-- Node27&#45;&gt;Node24 -->
<g id="edge44" class="edge">
<title>Node27&#45;&gt;Node24</title>
<path fill="none" stroke="midnightblue" d="M888.81,-190.67C831.6,-187.18 722.14,-180.52 660.02,-176.73"/>
<polygon fill="midnightblue" stroke="midnightblue" points="888.66,-194.16 898.86,-191.28 889.09,-187.18 888.66,-194.16"/>
</g>
<!-- Node27&#45;&gt;Node25 -->
<g id="edge34" class="edge">
<title>Node27&#45;&gt;Node25</title>
<path fill="none" stroke="midnightblue" d="M922.76,-172.86C916.63,-141.22 900.45,-79.69 863,-43.93 824.96,-7.61 803.77,-12.19 752,-2.93 660.06,13.5 554.31,-45.42 516.17,-69.31"/>
<polygon fill="midnightblue" stroke="midnightblue" points="919.38,-173.83 924.58,-183.06 926.27,-172.6 919.38,-173.83"/>
</g>
<!-- Node28 -->
<g id="node28" class="node">
<title>Node28</title>
<g id="a_node28"><a xlink:href="ex_8c.html#add0e79e1f1e3d45f4eaa6fbe5c1ca443" target="_top" xlink:title=" ">
<polygon fill="white" stroke="black" points="698.5,-12.43 698.5,-31.43 749.5,-31.43 749.5,-12.43 698.5,-12.43"/>
<text text-anchor="middle" x="724" y="-19.43" font-family="Helvetica,sans-Serif" font-size="10.00">ec_read</text>
</a>
</g>
</g>
<!-- Node27&#45;&gt;Node28 -->
<g id="edge35" class="edge">
<title>Node27&#45;&gt;Node28</title>
<path fill="none" stroke="midnightblue" d="M917.05,-174.16C906.45,-153.47 887.14,-120.17 863,-97.93 828.8,-66.43 779.17,-43.25 749.68,-31.23"/>
<polygon fill="midnightblue" stroke="midnightblue" points="913.96,-175.8 921.54,-183.2 920.23,-172.69 913.96,-175.8"/>
</g>
<!-- Node29 -->
<g id="node29" class="node">
<title>Node29</title>
<g id="a_node29"><a xlink:href="ex_8c.html#a98764f0b4faf5fd4b8baff03a7d73a6e" target="_top" xlink:title=" ">
<polygon fill="white" stroke="black" points="802.5,-240.43 802.5,-259.43 848.5,-259.43 848.5,-240.43 802.5,-240.43"/>
<text text-anchor="middle" x="825.5" y="-247.43" font-family="Helvetica,sans-Serif" font-size="10.00">ec_set</text>
</a>
</g>
</g>
<!-- Node27&#45;&gt;Node29 -->
<g id="edge36" class="edge">
<title>Node27&#45;&gt;Node29</title>
<path fill="none" stroke="midnightblue" d="M900.28,-207.67C882.26,-217.99 858.72,-231.47 843.13,-240.41"/>
<polygon fill="midnightblue" stroke="midnightblue" points="902.18,-210.61 909.12,-202.6 898.7,-204.53 902.18,-210.61"/>
</g>
<!-- Node30 -->
<g id="node30" class="node">
<title>Node30</title>
<g id="a_node30"><a xlink:href="ex_8c.html#a2b8907dfb6e95eb16e8a0f1ce0fe5bb6" target="_top" xlink:title=" ">
<polygon fill="white" stroke="black" points="796,-107.43 796,-126.43 855,-126.43 855,-107.43 796,-107.43"/>
<text text-anchor="middle" x="825.5" y="-114.43" font-family="Helvetica,sans-Serif" font-size="10.00">ex_filearg</text>
</a>
</g>
</g>
<!-- Node27&#45;&gt;Node30 -->
<g id="edge38" class="edge">
<title>Node27&#45;&gt;Node30</title>
<path fill="none" stroke="midnightblue" d="M905.22,-177.06C885.22,-161.78 855.62,-139.17 839,-126.48"/>
<polygon fill="midnightblue" stroke="midnightblue" points="903.33,-180.02 913.4,-183.31 907.58,-174.45 903.33,-180.02"/>
</g>
<!-- Node30&#45;&gt;Node9 -->
<g id="edge40" class="edge">
<title>Node30&#45;&gt;Node9</title>
<path fill="none" stroke="midnightblue" d="M785.49,-115.34C734.75,-113.8 643.42,-112.87 566,-121.93 553.03,-123.45 538.82,-126.39 527.04,-129.19"/>
<polygon fill="midnightblue" stroke="midnightblue" points="785.58,-118.84 795.69,-115.67 785.81,-111.85 785.58,-118.84"/>
</g>
<!-- Node30&#45;&gt;Node20 -->
<g id="edge41" class="edge">
<title>Node30&#45;&gt;Node20</title>
<path fill="none" stroke="midnightblue" d="M785.75,-120.91C734.93,-126.51 643.14,-137.99 566,-154.93 553.57,-157.66 540.03,-161.51 528.58,-165.03"/>
<polygon fill="midnightblue" stroke="midnightblue" points="786.39,-124.36 795.96,-119.8 785.64,-117.4 786.39,-124.36"/>
</g>
<!-- Node30&#45;&gt;Node23 -->
<g id="edge43" class="edge">
<title>Node30&#45;&gt;Node23</title>
<path fill="none" stroke="midnightblue" d="M806.94,-133.7C786.06,-153.64 751.93,-186.22 735.07,-202.32"/>
<polygon fill="midnightblue" stroke="midnightblue" points="809.41,-136.18 814.23,-126.74 804.58,-131.11 809.41,-136.18"/>
</g>
<!-- Node30&#45;&gt;Node25 -->
<g id="edge39" class="edge">
<title>Node30&#45;&gt;Node25</title>
<path fill="none" stroke="midnightblue" d="M785.57,-112.35C717.68,-104.36 579.67,-88.13 524.78,-81.67"/>
<polygon fill="midnightblue" stroke="midnightblue" points="785.5,-115.87 795.84,-113.56 786.31,-108.91 785.5,-115.87"/>
</g>
<!-- Node30&#45;&gt;Node28 -->
<g id="edge42" class="edge">
<title>Node30&#45;&gt;Node28</title>
<path fill="none" stroke="midnightblue" d="M807.5,-99.82C792.95,-85.29 771.35,-63.98 752,-45.93 746.86,-41.14 741.05,-35.95 736.14,-31.62"/>
<polygon fill="midnightblue" stroke="midnightblue" points="805.25,-102.53 814.8,-107.13 810.21,-97.58 805.25,-102.53"/>
</g>
<!-- Node32 -->
<g id="node32" class="node">
<title>Node32</title>
<g id="a_node32"><a xlink:href="vi_8h.html#ae72255a31cec31233723c101d9465d07" target="_top" xlink:title=" ">
<polygon fill="white" stroke="black" points="585,-468.43 585,-487.43 641,-487.43 641,-468.43 585,-468.43"/>
<text text-anchor="middle" x="613" y="-475.43" font-family="Helvetica,sans-Serif" font-size="10.00">led_input</text>
</a>
</g>
</g>
<!-- Node31&#45;&gt;Node32 -->
<g id="edge47" class="edge">
<title>Node31&#45;&gt;Node32</title>
<path fill="none" stroke="midnightblue" d="M777.74,-499.48C753.31,-500.17 722.96,-500.01 696,-496.93 677.42,-494.81 656.92,-490.06 641.06,-485.84"/>
<polygon fill="midnightblue" stroke="midnightblue" points="777.94,-502.97 787.82,-499.14 777.71,-495.98 777.94,-502.97"/>
</g>
<!-- Node37 -->
<g id="node37" class="node">
<title>Node37</title>
<g id="a_node37"><a xlink:href="led_8c.html#a617ec615e86687b5c10df33b271256c8" target="_top" xlink:title=" ">
<polygon fill="white" stroke="black" points="699,-468.43 699,-487.43 749,-487.43 749,-468.43 699,-468.43"/>
<text text-anchor="middle" x="724" y="-475.43" font-family="Helvetica,sans-Serif" font-size="10.00">led_line</text>
</a>
</g>
</g>
<!-- Node31&#45;&gt;Node37 -->
<g id="edge54" class="edge">
<title>Node31&#45;&gt;Node37</title>
<path fill="none" stroke="midnightblue" d="M777.62,-487.98C767.79,-486.1 757.82,-484.2 749.24,-482.56"/>
<polygon fill="midnightblue" stroke="midnightblue" points="777.25,-491.47 787.73,-489.91 778.57,-484.6 777.25,-491.47"/>
</g>
<!-- Node33 -->
<g id="node33" class="node">
<title>Node33</title>
<g id="a_node33"><a xlink:href="vi_8c.html#a653f6b0359cef492e11f404c4bf469b9" target="_top" xlink:title=" ">
<polygon fill="white" stroke="black" points="380.5,-468.43 380.5,-487.43 430.5,-487.43 430.5,-468.43 380.5,-468.43"/>
<text text-anchor="middle" x="405.5" y="-475.43" font-family="Helvetica,sans-Serif" font-size="10.00">vi_input</text>
</a>
</g>
</g>
<!-- Node32&#45;&gt;Node33 -->
<g id="edge48" class="edge">
<title>Node32&#45;&gt;Node33</title>
<path fill="none" stroke="midnightblue" d="M574.64,-477.93C532.81,-477.93 466.23,-477.93 430.7,-477.93"/>
<polygon fill="midnightblue" stroke="midnightblue" points="574.71,-481.43 584.71,-477.93 574.71,-474.43 574.71,-481.43"/>
</g>
<!-- Node34 -->
<g id="node34" class="node">
<title>Node34</title>
<g id="a_node34"><a xlink:href="vi_8c.html#a8bb357a77ed61da8858f138c6fa672a6" target="_top" xlink:title=" ">
<polygon fill="white" stroke="black" points="277.5,-468.43 277.5,-487.43 333.5,-487.43 333.5,-468.43 277.5,-468.43"/>
<text text-anchor="middle" x="305.5" y="-475.43" font-family="Helvetica,sans-Serif" font-size="10.00">vc_insert</text>
</a>
</g>
</g>
<!-- Node33&#45;&gt;Node34 -->
<g id="edge49" class="edge">
<title>Node33&#45;&gt;Node34</title>
<path fill="none" stroke="midnightblue" d="M370.15,-477.93C358.15,-477.93 344.87,-477.93 333.55,-477.93"/>
<polygon fill="midnightblue" stroke="midnightblue" points="370.28,-481.43 380.28,-477.93 370.28,-474.43 370.28,-481.43"/>
</g>
<!-- Node35 -->
<g id="node35" class="node">
<title>Node35</title>
<g id="a_node35"><a xlink:href="vi_8c.html#ae37b094c3bb647d8c1a4ac4e858ce518" target="_top" xlink:title=" ">
<polygon fill="white" stroke="black" points="275,-354.43 275,-373.43 336,-373.43 336,-354.43 275,-354.43"/>
<text text-anchor="middle" x="305.5" y="-361.43" font-family="Helvetica,sans-Serif" font-size="10.00">vi_change</text>
</a>
</g>
</g>
<!-- Node33&#45;&gt;Node35 -->
<g id="edge51" class="edge">
<title>Node33&#45;&gt;Node35</title>
<path fill="none" stroke="midnightblue" d="M392.78,-459.89C380.63,-441.81 360.56,-413.61 340,-391.93 333.74,-385.33 325.99,-378.77 319.52,-373.66"/>
<polygon fill="midnightblue" stroke="midnightblue" points="389.94,-461.93 398.38,-468.34 395.77,-458.07 389.94,-461.93"/>
</g>
<!-- Node34&#45;&gt;Node17 -->
<g id="edge50" class="edge">
<title>Node34&#45;&gt;Node17</title>
<path fill="none" stroke="midnightblue" d="M267.32,-475.21C236.86,-472.5 192.78,-467.49 155,-458.93 139.82,-455.49 122.98,-449.68 111.46,-445.39"/>
<polygon fill="midnightblue" stroke="midnightblue" points="267.23,-478.72 277.49,-476.07 267.82,-471.74 267.23,-478.72"/>
</g>
<!-- Node36 -->
<g id="node36" class="node">
<title>Node36</title>
<g id="a_node36"><a xlink:href="vi_8c.html#a06cbc6eb843436a0e77e07cbab0c4538" target="_top" xlink:title=" ">
<polygon fill="white" stroke="black" points="164,-316.43 164,-335.43 226,-335.43 226,-316.43 164,-316.43"/>
<text text-anchor="middle" x="195" y="-323.43" font-family="Helvetica,sans-Serif" font-size="10.00">vc_motion</text>
</a>
</g>
</g>
<!-- Node35&#45;&gt;Node36 -->
<g id="edge52" class="edge">
<title>Node35&#45;&gt;Node36</title>
<path fill="none" stroke="midnightblue" d="M267.46,-350.96C253.01,-345.9 236.73,-340.2 223.37,-335.52"/>
<polygon fill="midnightblue" stroke="midnightblue" points="266.53,-354.34 277.12,-354.34 268.84,-347.73 266.53,-354.34"/>
</g>
<!-- Node36&#45;&gt;Node17 -->
<g id="edge53" class="edge">
<title>Node36&#45;&gt;Node17</title>
<path fill="none" stroke="midnightblue" d="M179.22,-343.4C158.62,-367.73 122,-410.99 105.71,-430.24"/>
<polygon fill="midnightblue" stroke="midnightblue" points="181.98,-345.55 185.77,-335.65 176.64,-341.02 181.98,-345.55"/>
</g>
<!-- Node37&#45;&gt;Node32 -->
<g id="edge55" class="edge">
<title>Node37&#45;&gt;Node32</title>
<path fill="none" stroke="midnightblue" d="M688.67,-477.93C673.36,-477.93 655.56,-477.93 641.19,-477.93"/>
<polygon fill="midnightblue" stroke="midnightblue" points="688.81,-481.43 698.81,-477.93 688.81,-474.43 688.81,-481.43"/>
</g>
<!-- Node38 -->
<g id="node38" class="node">
<title>Node38</title>
<g id="a_node38"><a xlink:href="vi_8h.html#a173bb468e1e2a066136316f98b49c108" target="_top" xlink:title=" ">
<polygon fill="white" stroke="black" points="580.5,-411.43 580.5,-430.43 645.5,-430.43 645.5,-411.43 580.5,-411.43"/>
<text text-anchor="middle" x="613" y="-418.43" font-family="Helvetica,sans-Serif" font-size="10.00">led_prompt</text>
</a>
</g>
</g>
<!-- Node37&#45;&gt;Node38 -->
<g id="edge56" class="edge">
<title>Node37&#45;&gt;Node38</title>
<path fill="none" stroke="midnightblue" d="M695.63,-463.62C675.8,-453.25 649.53,-439.51 632.22,-430.46"/>
<polygon fill="midnightblue" stroke="midnightblue" points="694.03,-466.73 704.51,-468.26 697.27,-460.53 694.03,-466.73"/>
</g>
<!-- Node39 -->
<g id="node39" class="node">
<title>Node39</title>
<g id="a_node39"><a xlink:href="vi_8h.html#a7ba56272fe1a7d523192729a0bb5edf7" target="_top" xlink:title=" ">
<polygon fill="white" stroke="black" points="280,-401.43 280,-420.43 331,-420.43 331,-401.43 280,-401.43"/>
<text text-anchor="middle" x="305.5" y="-408.43" font-family="Helvetica,sans-Serif" font-size="10.00">ex_read</text>
</a>
</g>
</g>
<!-- Node38&#45;&gt;Node39 -->
<g id="edge57" class="edge">
<title>Node38&#45;&gt;Node39</title>
<path fill="none" stroke="midnightblue" d="M570.23,-419.56C505.67,-417.45 383.66,-413.46 331.34,-411.74"/>
<polygon fill="midnightblue" stroke="midnightblue" points="570.35,-423.07 580.46,-419.9 570.58,-416.07 570.35,-423.07"/>
</g>
<!-- Node42 -->
<g id="node42" class="node">
<title>Node42</title>
<g id="a_node42"><a xlink:href="vi_8c.html#a57965473297aad4c4333fdd3897c11f3" target="_top" xlink:title=" ">
<polygon fill="white" stroke="black" points="471,-297.43 471,-316.43 530,-316.43 530,-297.43 471,-297.43"/>
<text text-anchor="middle" x="500.5" y="-304.43" font-family="Helvetica,sans-Serif" font-size="10.00">vi_prompt</text>
</a>
</g>
</g>
<!-- Node38&#45;&gt;Node42 -->
<g id="edge62" class="edge">
<title>Node38&#45;&gt;Node42</title>
<path fill="none" stroke="midnightblue" d="M572.39,-406.44C570.15,-405.06 567.99,-403.55 566,-401.93 536,-377.52 514.43,-335.55 505.74,-316.65"/>
<polygon fill="midnightblue" stroke="midnightblue" points="570.92,-409.62 581.39,-411.24 574.21,-403.45 570.92,-409.62"/>
</g>
<!-- Node39&#45;&gt;Node14 -->
<g id="edge59" class="edge">
<title>Node39&#45;&gt;Node14</title>
<path fill="none" stroke="midnightblue" d="M272.45,-397.52C231.68,-380.34 165.28,-351.94 155,-344.93 134.79,-331.15 115.49,-309.77 105.2,-297.49"/>
<polygon fill="midnightblue" stroke="midnightblue" points="271.15,-400.77 281.73,-401.42 273.86,-394.31 271.15,-400.77"/>
</g>
<!-- Node40 -->
<g id="node40" class="node">
<title>Node40</title>
<g id="a_node40"><a xlink:href="ex_8c.html#a0908784dc65be2da119a6b72ef96dec2" target="_top" xlink:title=" ">
<polygon fill="white" stroke="black" points="167,-392.43 167,-411.43 223,-411.43 223,-392.43 167,-392.43"/>
<text text-anchor="middle" x="195" y="-399.43" font-family="Helvetica,sans-Serif" font-size="10.00">ec_insert</text>
</a>
</g>
</g>
<!-- Node39&#45;&gt;Node40 -->
<g id="edge58" class="edge">
<title>Node39&#45;&gt;Node40</title>
<path fill="none" stroke="midnightblue" d="M269.87,-408.06C254.77,-406.81 237.33,-405.36 223.19,-404.19"/>
<polygon fill="midnightblue" stroke="midnightblue" points="269.62,-411.55 279.88,-408.89 270.2,-404.57 269.62,-411.55"/>
</g>
<!-- Node41 -->
<g id="node41" class="node">
<title>Node41</title>
<g id="a_node41"><a xlink:href="vi_8c.html#a9d85e9ed087401367529ab86a5dbf0c5" target="_top" xlink:title=" ">
<polygon fill="white" stroke="black" points="171.5,-430.43 171.5,-449.43 218.5,-449.43 218.5,-430.43 171.5,-430.43"/>
<text text-anchor="middle" x="195" y="-437.43" font-family="Helvetica,sans-Serif" font-size="10.00">vi_wait</text>
</a>
</g>
</g>
<!-- Node39&#45;&gt;Node41 -->
<g id="edge60" class="edge">
<title>Node39&#45;&gt;Node41</title>
<path fill="none" stroke="midnightblue" d="M269.89,-420.18C253.14,-424.66 233.49,-429.91 218.67,-433.87"/>
<polygon fill="midnightblue" stroke="midnightblue" points="271.12,-423.48 279.88,-417.51 269.32,-416.71 271.12,-423.48"/>
</g>
<!-- Node41&#45;&gt;Node17 -->
<g id="edge61" class="edge">
<title>Node41&#45;&gt;Node17</title>
<path fill="none" stroke="midnightblue" d="M160.99,-439.93C143.99,-439.93 124.17,-439.93 111.26,-439.93"/>
<polygon fill="midnightblue" stroke="midnightblue" points="161.13,-443.43 171.13,-439.93 161.13,-436.43 161.13,-443.43"/>
</g>
<!-- Node42&#45;&gt;Node17 -->
<g id="edge63" class="edge">
<title>Node42&#45;&gt;Node17</title>
<path fill="none" stroke="midnightblue" d="M479.15,-291.12C467.05,-282.73 450.99,-273.29 435,-268.93 314.88,-236.18 253.85,-202.23 155,-277.93 105.01,-316.22 98.36,-401.44 97.57,-430.22"/>
<polygon fill="midnightblue" stroke="midnightblue" points="477.41,-294.18 487.56,-297.22 481.52,-288.51 477.41,-294.18"/>
</g>
<!-- Node43 -->
<g id="node43" class="node">
<title>Node43</title>
<g id="a_node43"><a xlink:href="vi_8c.html#ab8e0c9b9d2ef5161c6a3a8828606df5f" target="_top" xlink:title=" ">
<polygon fill="white" stroke="black" points="382,-316.43 382,-335.43 429,-335.43 429,-316.43 382,-316.43"/>
<text text-anchor="middle" x="405.5" y="-323.43" font-family="Helvetica,sans-Serif" font-size="10.00">vi_pipe</text>
</a>
</g>
</g>
<!-- Node42&#45;&gt;Node43 -->
<g id="edge64" class="edge">
<title>Node42&#45;&gt;Node43</title>
<path fill="none" stroke="midnightblue" d="M460.73,-314.85C449.93,-317.06 438.55,-319.38 429.02,-321.33"/>
<polygon fill="midnightblue" stroke="midnightblue" points="461.74,-318.22 470.84,-312.79 460.34,-311.36 461.74,-318.22"/>
</g>
<!-- Node44 -->
<g id="node44" class="node">
<title>Node44</title>
<g id="a_node44"><a xlink:href="vi_8c.html#a93701c59617d4f96cbaa207e89178f87" target="_top" xlink:title=" ">
<polygon fill="white" stroke="black" points="376,-278.43 376,-297.43 435,-297.43 435,-278.43 376,-278.43"/>
<text text-anchor="middle" x="405.5" y="-285.43" font-family="Helvetica,sans-Serif" font-size="10.00">vi_search</text>
</a>
</g>
</g>
<!-- Node42&#45;&gt;Node44 -->
<g id="edge66" class="edge">
<title>Node42&#45;&gt;Node44</title>
<path fill="none" stroke="midnightblue" d="M460.97,-299.06C452.36,-297.3 443.36,-295.46 435.23,-293.8"/>
<polygon fill="midnightblue" stroke="midnightblue" points="460.34,-302.5 470.84,-301.08 461.74,-295.65 460.34,-302.5"/>
</g>
<!-- Node43&#45;&gt;Node36 -->
<g id="edge65" class="edge">
<title>Node43&#45;&gt;Node36</title>
<path fill="none" stroke="midnightblue" d="M371.76,-325.93C331.8,-325.93 264.77,-325.93 226.06,-325.93"/>
<polygon fill="midnightblue" stroke="midnightblue" points="371.79,-329.43 381.79,-325.93 371.79,-322.43 371.79,-329.43"/>
</g>
<!-- Node45 -->
<g id="node45" class="node">
<title>Node45</title>
<g id="a_node45"><a xlink:href="vi_8c.html#aaa4777ea0715ea846346d0f27a0cfa3f" target="_top" xlink:title=" ">
<polygon fill="white" stroke="black" points="276,-278.43 276,-297.43 335,-297.43 335,-278.43 276,-278.43"/>
<text text-anchor="middle" x="305.5" y="-285.43" font-family="Helvetica,sans-Serif" font-size="10.00">vi_motion</text>
</a>
</g>
</g>
<!-- Node44&#45;&gt;Node45 -->
<g id="edge67" class="edge">
<title>Node44&#45;&gt;Node45</title>
<path fill="none" stroke="midnightblue" d="M365.64,-287.93C355.53,-287.93 344.81,-287.93 335.31,-287.93"/>
<polygon fill="midnightblue" stroke="midnightblue" points="365.89,-291.43 375.89,-287.93 365.89,-284.43 365.89,-291.43"/>
</g>
<!-- Node45&#45;&gt;Node17 -->
<g id="edge69" class="edge">
<title>Node45&#45;&gt;Node17</title>
<path fill="none" stroke="midnightblue" d="M265.71,-282.92C233.01,-280.84 186.61,-283.17 155,-306.93 113.58,-338.07 101.59,-405.21 98.48,-430.26"/>
<polygon fill="midnightblue" stroke="midnightblue" points="265.57,-286.42 275.81,-283.73 266.12,-279.45 265.57,-286.42"/>
</g>
<!-- Node45&#45;&gt;Node36 -->
<g id="edge68" class="edge">
<title>Node45&#45;&gt;Node36</title>
<path fill="none" stroke="midnightblue" d="M267.46,-300.9C253.01,-305.97 236.73,-311.67 223.37,-316.35"/>
<polygon fill="midnightblue" stroke="midnightblue" points="268.84,-304.13 277.12,-297.52 266.53,-297.52 268.84,-304.13"/>
</g>
<!-- Node46&#45;&gt;Node17 -->
<g id="edge71" class="edge">
<title>Node46&#45;&gt;Node17</title>
<path fill="none" stroke="midnightblue" d="M273.94,-540.04C243.28,-525.78 195,-502.4 155,-478.93 139.39,-469.78 122.33,-457.96 110.88,-449.75"/>
<polygon fill="midnightblue" stroke="midnightblue" points="272.7,-543.32 283.24,-544.34 275.63,-536.97 272.7,-543.32"/>
</g>
<!-- Node47 -->
<g id="node47" class="node">
<title>Node47</title>
<g id="a_node47"><a xlink:href="vi_8c.html#a2b620fa68325e1b708f07af90f50c3d8" target="_top" xlink:title=" ">
<polygon fill="white" stroke="black" points="158,-582.43 158,-601.43 232,-601.43 232,-582.43 158,-582.43"/>
<text text-anchor="middle" x="195" y="-589.43" font-family="Helvetica,sans-Serif" font-size="10.00">vi_drawagain</text>
</a>
</g>
</g>
<!-- Node46&#45;&gt;Node47 -->
<g id="edge72" class="edge">
<title>Node46&#45;&gt;Node47</title>
<path fill="none" stroke="midnightblue" d="M267.46,-566.9C253.01,-571.97 236.73,-577.67 223.37,-582.35"/>
<polygon fill="midnightblue" stroke="midnightblue" points="268.84,-570.13 277.12,-563.52 266.53,-563.52 268.84,-570.13"/>
</g>
<!-- Node48 -->
<g id="node48" class="node">
<title>Node48</title>
<g id="a_node48"><a xlink:href="vi_8c.html#a9896bc9688f6102408f66aa0ad7e64f9" target="_top" xlink:title=" ">
<polygon fill="white" stroke="black" points="155,-544.43 155,-563.43 235,-563.43 235,-544.43 155,-544.43"/>
<text text-anchor="middle" x="195" y="-551.43" font-family="Helvetica,sans-Serif" font-size="10.00">vi_drawupdate</text>
</a>
</g>
</g>
<!-- Node46&#45;&gt;Node48 -->
<g id="edge74" class="edge">
<title>Node46&#45;&gt;Node48</title>
<path fill="none" stroke="midnightblue" d="M262.11,-553.93C253.26,-553.93 243.97,-553.93 235.23,-553.93"/>
<polygon fill="midnightblue" stroke="midnightblue" points="262.24,-557.43 272.24,-553.93 262.24,-550.43 262.24,-557.43"/>
</g>
<!-- Node47&#45;&gt;Node17 -->
<g id="edge73" class="edge">
<title>Node47&#45;&gt;Node17</title>
<path fill="none" stroke="midnightblue" d="M158.93,-576.53C157.54,-575.4 156.22,-574.2 155,-572.93 119.54,-535.83 104.08,-473.4 99.26,-449.57"/>
<polygon fill="midnightblue" stroke="midnightblue" points="157.25,-579.62 167.52,-582.23 161.12,-573.79 157.25,-579.62"/>
</g>
<!-- Node48&#45;&gt;Node17 -->
<g id="edge75" class="edge">
<title>Node48&#45;&gt;Node17</title>
<path fill="none" stroke="midnightblue" d="M165.96,-538.84C162.06,-536.15 158.28,-533.15 155,-529.93 129.75,-505.1 110.17,-467.22 101.85,-449.59"/>
<polygon fill="midnightblue" stroke="midnightblue" points="164.2,-541.87 174.52,-544.27 167.94,-535.96 164.2,-541.87"/>
</g>
<!-- Node50 -->
<g id="node50" class="node">
<title>Node50</title>
<g id="a_node50"><a xlink:href="vi_8c.html#aa59b6f8d6056ad376a3a5ec45ce1686b" target="_top" xlink:title=" ">
<polygon fill="white" stroke="black" points="271,-582.43 271,-601.43 340,-601.43 340,-582.43 271,-582.43"/>
<text text-anchor="middle" x="305.5" y="-589.43" font-family="Helvetica,sans-Serif" font-size="10.00">vi_drawmsg</text>
</a>
</g>
</g>
<!-- Node49&#45;&gt;Node50 -->
<g id="edge77" class="edge">
<title>Node49&#45;&gt;Node50</title>
<path fill="none" stroke="midnightblue" d="M980.72,-579.72C940.36,-585.17 879.63,-591.93 826.5,-591.93 826.5,-591.93 826.5,-591.93 499.5,-591.93 443.71,-591.93 378.85,-591.93 340.32,-591.93"/>
<polygon fill="midnightblue" stroke="midnightblue" points="981.35,-583.16 990.78,-578.33 980.39,-576.23 981.35,-583.16"/>
</g>
<!-- Node50&#45;&gt;Node17 -->
<g id="edge78" class="edge">
<title>Node50&#45;&gt;Node17</title>
<path fill="none" stroke="midnightblue" d="M277.15,-605.85C244.85,-620.1 191,-636.81 155,-610.93 100.83,-571.99 97,-479.47 97.24,-449.49"/>
<polygon fill="midnightblue" stroke="midnightblue" points="278.82,-608.93 286.43,-601.55 275.89,-602.57 278.82,-608.93"/>
</g>
<!-- Node50&#45;&gt;Node47 -->
<g id="edge79" class="edge">
<title>Node50&#45;&gt;Node47</title>
<path fill="none" stroke="midnightblue" d="M260.76,-591.93C251.33,-591.93 241.46,-591.93 232.35,-591.93"/>
<polygon fill="midnightblue" stroke="midnightblue" points="260.76,-595.43 270.76,-591.93 260.76,-588.43 260.76,-595.43"/>
</g>
<!-- Node50&#45;&gt;Node48 -->
<g id="edge80" class="edge">
<title>Node50&#45;&gt;Node48</title>
<path fill="none" stroke="midnightblue" d="M267.46,-578.96C253.01,-573.9 236.73,-568.2 223.37,-563.52"/>
<polygon fill="midnightblue" stroke="midnightblue" points="266.53,-582.34 277.12,-582.34 268.84,-575.73 266.53,-582.34"/>
</g>
</g>
</svg>
