<?xml version="1.0" encoding="UTF-8" standalone="no"?>
<!DOCTYPE svg PUBLIC "-//W3C//DTD SVG 1.1//EN"
 "http://www.w3.org/Graphics/SVG/1.1/DTD/svg11.dtd">
<!-- Generated by graphviz version 2.44.1 (20200629.0846)
 -->
<!-- Title: uc_kind Pages: 1 -->
<svg width="160pt" height="104pt"
 viewBox="0.00 0.00 160.00 104.00" xmlns="http://www.w3.org/2000/svg" xmlns:xlink="http://www.w3.org/1999/xlink">
<g id="graph0" class="graph" transform="scale(1 1) rotate(0) translate(4 100)">
<title>uc_kind</title>
<polygon fill="white" stroke="transparent" points="-4,4 -4,-100 156,-100 156,4 -4,4"/>
<!-- Node1 -->
<g id="node1" class="node">
<title>Node1</title>
<g id="a_node1"><a xlink:title=" ">
<polygon fill="#bfbfbf" stroke="black" points="0,-38.5 0,-57.5 50,-57.5 50,-38.5 0,-38.5"/>
<text text-anchor="middle" x="25" y="-45.5" font-family="Helvetica,sans-Serif" font-size="10.00">uc_kind</text>
</a>
</g>
</g>
<!-- Node2 -->
<g id="node2" class="node">
<title>Node2</title>
<g id="a_node2"><a xlink:href="uc_8c.html#a111a8afd24172cae38d54d759a5dede5" target="_top" xlink:title=" ">
<polygon fill="white" stroke="black" points="87.5,-76.5 87.5,-95.5 150.5,-95.5 150.5,-76.5 87.5,-76.5"/>
<text text-anchor="middle" x="119" y="-83.5" font-family="Helvetica,sans-Serif" font-size="10.00">uc_isalpha</text>
</a>
</g>
</g>
<!-- Node1&#45;&gt;Node2 -->
<g id="edge1" class="edge">
<title>Node1&#45;&gt;Node2</title>
<path fill="none" stroke="midnightblue" d="M49.22,-57.59C60.22,-62.13 73.55,-67.64 85.54,-72.59"/>
<polygon fill="midnightblue" stroke="midnightblue" points="84.21,-75.83 94.79,-76.41 86.89,-69.36 84.21,-75.83"/>
</g>
<!-- Node3 -->
<g id="node3" class="node">
<title>Node3</title>
<g id="a_node3"><a xlink:href="uc_8c.html#a4beb9f2d6b6701d58f701ea92abcb1da" target="_top" xlink:title=" ">
<polygon fill="white" stroke="black" points="90,-38.5 90,-57.5 148,-57.5 148,-38.5 90,-38.5"/>
<text text-anchor="middle" x="119" y="-45.5" font-family="Helvetica,sans-Serif" font-size="10.00">uc_isdigit</text>
</a>
</g>
</g>
<!-- Node1&#45;&gt;Node3 -->
<g id="edge2" class="edge">
<title>Node1&#45;&gt;Node3</title>
<path fill="none" stroke="midnightblue" d="M50.17,-48C59.18,-48 69.64,-48 79.62,-48"/>
<polygon fill="midnightblue" stroke="midnightblue" points="79.75,-51.5 89.75,-48 79.75,-44.5 79.75,-51.5"/>
</g>
<!-- Node4 -->
<g id="node4" class="node">
<title>Node4</title>
<g id="a_node4"><a xlink:href="uc_8c.html#ab6be7e2b59f79b8952c13488e1cf036a" target="_top" xlink:title=" ">
<polygon fill="white" stroke="black" points="86,-0.5 86,-19.5 152,-19.5 152,-0.5 86,-0.5"/>
<text text-anchor="middle" x="119" y="-7.5" font-family="Helvetica,sans-Serif" font-size="10.00">uc_isspace</text>
</a>
</g>
</g>
<!-- Node1&#45;&gt;Node4 -->
<g id="edge3" class="edge">
<title>Node1&#45;&gt;Node4</title>
<path fill="none" stroke="midnightblue" d="M49.22,-38.41C60.22,-33.87 73.55,-28.36 85.54,-23.41"/>
<polygon fill="midnightblue" stroke="midnightblue" points="86.89,-26.64 94.79,-19.59 84.21,-20.17 86.89,-26.64"/>
</g>
</g>
</svg>
