<?xml version="1.0" encoding="UTF-8" standalone="no"?>
<!DOCTYPE svg PUBLIC "-//W3C//DTD SVG 1.1//EN"
 "http://www.w3.org/Graphics/SVG/1.1/DTD/svg11.dtd">
<!-- Generated by graphviz version 2.44.1 (20200629.0846)
 -->
<!-- Title: syn_highlight Pages: 1 -->
<svg width="761pt" height="223pt"
 viewBox="0.00 0.00 761.00 223.00" xmlns="http://www.w3.org/2000/svg" xmlns:xlink="http://www.w3.org/1999/xlink">
<g id="graph0" class="graph" transform="scale(1 1) rotate(0) translate(4 219)">
<title>syn_highlight</title>
<polygon fill="white" stroke="transparent" points="-4,4 -4,-219 757,-219 757,4 -4,4"/>
<!-- Node1 -->
<g id="node1" class="node">
<title>Node1</title>
<g id="a_node1"><a xlink:title=" ">
<polygon fill="#bfbfbf" stroke="black" points="0,-100.5 0,-119.5 74,-119.5 74,-100.5 0,-100.5"/>
<text text-anchor="middle" x="37" y="-107.5" font-family="Helvetica,sans-Serif" font-size="10.00">syn_highlight</text>
</a>
</g>
</g>
<!-- Node2 -->
<g id="node2" class="node">
<title>Node2</title>
<g id="a_node2"><a xlink:href="conf_8c.html#a16ebf87f52698ee8c6b831cd629fb3b8" target="_top" xlink:title=" ">
<polygon fill="white" stroke="black" points="110,-195.5 110,-214.5 187,-214.5 187,-195.5 110,-195.5"/>
<text text-anchor="middle" x="148.5" y="-202.5" font-family="Helvetica,sans-Serif" font-size="10.00">conf_highlight</text>
</a>
</g>
</g>
<!-- Node1&#45;&gt;Node2 -->
<g id="edge1" class="edge">
<title>Node1&#45;&gt;Node2</title>
<path fill="none" stroke="midnightblue" d="M45.52,-119.91C57.72,-135.49 83.19,-166.01 110,-186 112.05,-187.53 114.24,-188.99 116.49,-190.38"/>
<polygon fill="midnightblue" stroke="midnightblue" points="114.9,-193.51 125.33,-195.36 118.33,-187.4 114.9,-193.51"/>
</g>
<!-- Node3 -->
<g id="node3" class="node">
<title>Node3</title>
<g id="a_node3"><a xlink:href="rset_8c.html#a389ec5abca88adc048a058744f2373eb" target="_top" xlink:title=" ">
<polygon fill="white" stroke="black" points="121.5,-157.5 121.5,-176.5 175.5,-176.5 175.5,-157.5 121.5,-157.5"/>
<text text-anchor="middle" x="148.5" y="-164.5" font-family="Helvetica,sans-Serif" font-size="10.00">rset_find</text>
</a>
</g>
</g>
<!-- Node1&#45;&gt;Node3 -->
<g id="edge2" class="edge">
<title>Node1&#45;&gt;Node3</title>
<path fill="none" stroke="midnightblue" d="M56.01,-119.61C70.54,-127.34 91.54,-138.46 110,-148 112.98,-149.54 116.1,-151.14 119.22,-152.73"/>
<polygon fill="midnightblue" stroke="midnightblue" points="117.89,-155.99 128.39,-157.4 121.06,-149.74 117.89,-155.99"/>
</g>
<!-- Node14 -->
<g id="node14" class="node">
<title>Node14</title>
<g id="a_node14"><a xlink:href="syn_8c.html#aeb0e8fff89077c709508b89c2d80fcd1" target="_top" xlink:title=" ">
<polygon fill="white" stroke="black" points="122,-119.5 122,-138.5 175,-138.5 175,-119.5 122,-119.5"/>
<text text-anchor="middle" x="148.5" y="-126.5" font-family="Helvetica,sans-Serif" font-size="10.00">syn_find</text>
</a>
</g>
</g>
<!-- Node1&#45;&gt;Node14 -->
<g id="edge16" class="edge">
<title>Node1&#45;&gt;Node14</title>
<path fill="none" stroke="midnightblue" d="M74.16,-116.27C86.2,-118.36 99.61,-120.69 111.63,-122.78"/>
<polygon fill="midnightblue" stroke="midnightblue" points="111.32,-126.27 121.77,-124.54 112.52,-119.38 111.32,-126.27"/>
</g>
<!-- Node15 -->
<g id="node15" class="node">
<title>Node15</title>
<g id="a_node15"><a xlink:href="syn_8c.html#a3c3478da43bbbba6173c2cc5e8c0ead3" target="_top" xlink:title=" ">
<polygon fill="white" stroke="black" points="116,-81.5 116,-100.5 181,-100.5 181,-81.5 116,-81.5"/>
<text text-anchor="middle" x="148.5" y="-88.5" font-family="Helvetica,sans-Serif" font-size="10.00">syn_merge</text>
</a>
</g>
</g>
<!-- Node1&#45;&gt;Node15 -->
<g id="edge17" class="edge">
<title>Node1&#45;&gt;Node15</title>
<path fill="none" stroke="midnightblue" d="M74.16,-103.73C84.25,-101.97 95.3,-100.06 105.69,-98.26"/>
<polygon fill="midnightblue" stroke="midnightblue" points="106.54,-101.66 115.8,-96.5 105.34,-94.76 106.54,-101.66"/>
</g>
<!-- Node16 -->
<g id="node16" class="node">
<title>Node16</title>
<g id="a_node16"><a xlink:href="uc_8c.html#a8334cbe4db5e54e19bf79b31f68d9eb8" target="_top" xlink:title=" ">
<polygon fill="white" stroke="black" points="126.5,-43.5 126.5,-62.5 170.5,-62.5 170.5,-43.5 126.5,-43.5"/>
<text text-anchor="middle" x="148.5" y="-50.5" font-family="Helvetica,sans-Serif" font-size="10.00">uc_off</text>
</a>
</g>
</g>
<!-- Node1&#45;&gt;Node16 -->
<g id="edge18" class="edge">
<title>Node1&#45;&gt;Node16</title>
<path fill="none" stroke="midnightblue" d="M56.01,-100.39C70.54,-92.66 91.54,-81.54 110,-72 112.98,-70.46 116.1,-68.86 119.22,-67.27"/>
<polygon fill="midnightblue" stroke="midnightblue" points="121.06,-70.26 128.39,-62.6 117.89,-64.01 121.06,-70.26"/>
</g>
<!-- Node19 -->
<g id="node19" class="node">
<title>Node19</title>
<g id="a_node19"><a xlink:href="uc_8c.html#a8afd7835259109c3ec7bb684d4a1f67f" target="_top" xlink:title=" ">
<polygon fill="white" stroke="black" points="223.5,-5.5 223.5,-24.5 273.5,-24.5 273.5,-5.5 223.5,-5.5"/>
<text text-anchor="middle" x="248.5" y="-12.5" font-family="Helvetica,sans-Serif" font-size="10.00">uc_slen</text>
</a>
</g>
</g>
<!-- Node1&#45;&gt;Node19 -->
<g id="edge21" class="edge">
<title>Node1&#45;&gt;Node19</title>
<path fill="none" stroke="midnightblue" d="M43.94,-100.34C54.76,-83.65 79.45,-49.71 110,-34 142.35,-17.37 184.36,-13.74 213.39,-13.57"/>
<polygon fill="midnightblue" stroke="midnightblue" points="213.43,-17.07 223.46,-13.65 213.48,-10.07 213.43,-17.07"/>
</g>
<!-- Node4 -->
<g id="node4" class="node">
<title>Node4</title>
<g id="a_node4"><a xlink:href="regex_8c.html#aa085ccd05ec25e3f8053850aebc50fe3" target="_top" xlink:title=" ">
<polygon fill="white" stroke="black" points="223,-157.5 223,-176.5 274,-176.5 274,-157.5 223,-157.5"/>
<text text-anchor="middle" x="248.5" y="-164.5" font-family="Helvetica,sans-Serif" font-size="10.00">regexec</text>
</a>
</g>
</g>
<!-- Node3&#45;&gt;Node4 -->
<g id="edge3" class="edge">
<title>Node3&#45;&gt;Node4</title>
<path fill="none" stroke="midnightblue" d="M175.5,-167C186.82,-167 200.25,-167 212.43,-167"/>
<polygon fill="midnightblue" stroke="midnightblue" points="212.73,-170.5 222.73,-167 212.73,-163.5 212.73,-170.5"/>
</g>
<!-- Node5 -->
<g id="node5" class="node">
<title>Node5</title>
<g id="a_node5"><a xlink:href="regex_8c.html#aa5925e49bd18112bb37421dbde29162a" target="_top" xlink:title=" ">
<polygon fill="white" stroke="black" points="310,-124.5 310,-143.5 381,-143.5 381,-124.5 310,-124.5"/>
<text text-anchor="middle" x="345.5" y="-131.5" font-family="Helvetica,sans-Serif" font-size="10.00">re_recmatch</text>
</a>
</g>
</g>
<!-- Node4&#45;&gt;Node5 -->
<g id="edge4" class="edge">
<title>Node4&#45;&gt;Node5</title>
<path fill="none" stroke="midnightblue" d="M274.46,-158.33C284.58,-154.81 296.48,-150.68 307.56,-146.83"/>
<polygon fill="midnightblue" stroke="midnightblue" points="308.74,-150.13 317.03,-143.54 306.44,-143.52 308.74,-150.13"/>
</g>
<!-- Node11 -->
<g id="node11" class="node">
<title>Node11</title>
<g id="a_node11"><a xlink:href="regex_8c.html#a9a0d6d5f93f1eaba8b63b16903c0952d" target="_top" xlink:title=" ">
<polygon fill="white" stroke="black" points="706.5,-152.5 706.5,-171.5 751.5,-171.5 751.5,-152.5 706.5,-152.5"/>
<text text-anchor="middle" x="729" y="-159.5" font-family="Helvetica,sans-Serif" font-size="10.00">uc_len</text>
</a>
</g>
</g>
<!-- Node4&#45;&gt;Node11 -->
<g id="edge15" class="edge">
<title>Node4&#45;&gt;Node11</title>
<path fill="none" stroke="midnightblue" d="M274.26,-174.16C310.07,-183.87 378.53,-200 438,-200 438,-200 438,-200 535,-200 592.75,-200 658.42,-183.42 696.34,-172.16"/>
<polygon fill="midnightblue" stroke="midnightblue" points="697.73,-175.4 706.28,-169.15 695.69,-168.7 697.73,-175.4"/>
</g>
<!-- Node6 -->
<g id="node6" class="node">
<title>Node6</title>
<g id="a_node6"><a xlink:href="regex_8c.html#a8e35614ddf21d405773327a52a95a73d" target="_top" xlink:title=" ">
<polygon fill="white" stroke="black" points="417,-112.5 417,-131.5 461,-131.5 461,-112.5 417,-112.5"/>
<text text-anchor="middle" x="439" y="-119.5" font-family="Helvetica,sans-Serif" font-size="10.00">re_rec</text>
</a>
</g>
</g>
<!-- Node5&#45;&gt;Node6 -->
<g id="edge5" class="edge">
<title>Node5&#45;&gt;Node6</title>
<path fill="none" stroke="midnightblue" d="M381.09,-129.46C389.56,-128.35 398.57,-127.17 406.87,-126.08"/>
<polygon fill="midnightblue" stroke="midnightblue" points="407.44,-129.54 416.9,-124.77 406.53,-122.6 407.44,-129.54"/>
</g>
<!-- Node7 -->
<g id="node7" class="node">
<title>Node7</title>
<g id="a_node7"><a xlink:href="regex_8c.html#a24fd1fc7457ff4f03fb384f7170ac395" target="_top" xlink:title=" ">
<polygon fill="white" stroke="black" points="497,-88.5 497,-107.5 571,-107.5 571,-88.5 497,-88.5"/>
<text text-anchor="middle" x="534" y="-95.5" font-family="Helvetica,sans-Serif" font-size="10.00">ratom_match</text>
</a>
</g>
</g>
<!-- Node6&#45;&gt;Node7 -->
<g id="edge6" class="edge">
<title>Node6&#45;&gt;Node7</title>
<path fill="none" stroke="midnightblue" d="M461.1,-116.55C468.82,-114.56 477.88,-112.23 486.91,-109.89"/>
<polygon fill="midnightblue" stroke="midnightblue" points="487.84,-113.27 496.65,-107.38 486.09,-106.49 487.84,-113.27"/>
</g>
<!-- Node8 -->
<g id="node8" class="node">
<title>Node8</title>
<g id="a_node8"><a xlink:href="regex_8c.html#aae17ed73e84075718fb04d131d6ca779" target="_top" xlink:title=" ">
<polygon fill="white" stroke="black" points="607,-114.5 607,-133.5 669,-133.5 669,-114.5 607,-114.5"/>
<text text-anchor="middle" x="638" y="-121.5" font-family="Helvetica,sans-Serif" font-size="10.00">brk_match</text>
</a>
</g>
</g>
<!-- Node7&#45;&gt;Node8 -->
<g id="edge7" class="edge">
<title>Node7&#45;&gt;Node8</title>
<path fill="none" stroke="midnightblue" d="M571.25,-107.24C579.64,-109.38 588.62,-111.67 597.16,-113.85"/>
<polygon fill="midnightblue" stroke="midnightblue" points="596.37,-117.26 606.93,-116.33 598.1,-110.47 596.37,-117.26"/>
</g>
<!-- Node10 -->
<g id="node10" class="node">
<title>Node10</title>
<g id="a_node10"><a xlink:href="regex_8c.html#aaf73cdb88048e7f9fd588eb8d5aeb5a3" target="_top" xlink:title=" ">
<polygon fill="white" stroke="black" points="705,-76.5 705,-95.5 753,-95.5 753,-76.5 705,-76.5"/>
<text text-anchor="middle" x="729" y="-83.5" font-family="Helvetica,sans-Serif" font-size="10.00">uc_dec</text>
</a>
</g>
</g>
<!-- Node7&#45;&gt;Node10 -->
<g id="edge13" class="edge">
<title>Node7&#45;&gt;Node10</title>
<path fill="none" stroke="midnightblue" d="M571.3,-95.74C606.83,-93.53 660.48,-90.2 694.87,-88.06"/>
<polygon fill="midnightblue" stroke="midnightblue" points="695.12,-91.55 704.89,-87.44 694.69,-84.56 695.12,-91.55"/>
</g>
<!-- Node7&#45;&gt;Node11 -->
<g id="edge14" class="edge">
<title>Node7&#45;&gt;Node11</title>
<path fill="none" stroke="midnightblue" d="M546.94,-107.6C560.61,-118.06 584.07,-134.44 607,-143 636.11,-153.86 671.41,-158.52 696.35,-160.51"/>
<polygon fill="midnightblue" stroke="midnightblue" points="696.14,-164 706.36,-161.21 696.63,-157.02 696.14,-164"/>
</g>
<!-- Node12 -->
<g id="node12" class="node">
<title>Node12</title>
<g id="a_node12"><a xlink:href="regex_8c.html#a35ad3fd0dbb795e6f30404ce86a7be5b" target="_top" xlink:title=" ">
<polygon fill="white" stroke="black" points="615.5,-38.5 615.5,-57.5 660.5,-57.5 660.5,-38.5 615.5,-38.5"/>
<text text-anchor="middle" x="638" y="-45.5" font-family="Helvetica,sans-Serif" font-size="10.00">isword</text>
</a>
</g>
</g>
<!-- Node7&#45;&gt;Node12 -->
<g id="edge11" class="edge">
<title>Node7&#45;&gt;Node12</title>
<path fill="none" stroke="midnightblue" d="M554.67,-88.36C569.91,-80.89 591.24,-70.43 608.37,-62.03"/>
<polygon fill="midnightblue" stroke="midnightblue" points="609.96,-65.16 617.39,-57.61 606.87,-58.87 609.96,-65.16"/>
</g>
<!-- Node13 -->
<g id="node13" class="node">
<title>Node13</title>
<g id="a_node13"><a xlink:href="regex_8c.html#ade3e10606e6e8866e6151fe8440d6101" target="_top" xlink:title=" ">
<polygon fill="white" stroke="black" points="614,-0.5 614,-19.5 662,-19.5 662,-0.5 614,-0.5"/>
<text text-anchor="middle" x="638" y="-7.5" font-family="Helvetica,sans-Serif" font-size="10.00">uc_beg</text>
</a>
</g>
</g>
<!-- Node7&#45;&gt;Node13 -->
<g id="edge12" class="edge">
<title>Node7&#45;&gt;Node13</title>
<path fill="none" stroke="midnightblue" d="M543.78,-88.45C556.84,-74.52 582.46,-48.21 607,-29 608.57,-27.77 610.21,-26.56 611.9,-25.36"/>
<polygon fill="midnightblue" stroke="midnightblue" points="614.03,-28.15 620.4,-19.68 610.14,-22.32 614.03,-28.15"/>
</g>
<!-- Node9 -->
<g id="node9" class="node">
<title>Node9</title>
<g id="a_node9"><a xlink:href="regex_8c.html#acc18ff8d2687611a9e221b3329b02413" target="_top" xlink:title=" ">
<polygon fill="white" stroke="black" points="705,-114.5 705,-133.5 753,-133.5 753,-114.5 705,-114.5"/>
<text text-anchor="middle" x="729" y="-121.5" font-family="Helvetica,sans-Serif" font-size="10.00">brk_len</text>
</a>
</g>
</g>
<!-- Node8&#45;&gt;Node9 -->
<g id="edge8" class="edge">
<title>Node8&#45;&gt;Node9</title>
<path fill="none" stroke="midnightblue" d="M669.13,-124C677.36,-124 686.32,-124 694.71,-124"/>
<polygon fill="midnightblue" stroke="midnightblue" points="694.94,-127.5 704.94,-124 694.94,-120.5 694.94,-127.5"/>
</g>
<!-- Node8&#45;&gt;Node10 -->
<g id="edge9" class="edge">
<title>Node8&#45;&gt;Node10</title>
<path fill="none" stroke="midnightblue" d="M661.46,-114.41C672,-109.91 684.75,-104.47 696.25,-99.56"/>
<polygon fill="midnightblue" stroke="midnightblue" points="697.73,-102.73 705.55,-95.59 694.98,-96.29 697.73,-102.73"/>
</g>
<!-- Node8&#45;&gt;Node11 -->
<g id="edge10" class="edge">
<title>Node8&#45;&gt;Node11</title>
<path fill="none" stroke="midnightblue" d="M661.46,-133.59C672.24,-138.19 685.33,-143.78 697.04,-148.78"/>
<polygon fill="midnightblue" stroke="midnightblue" points="695.9,-152.1 706.47,-152.81 698.65,-145.66 695.9,-152.1"/>
</g>
<!-- Node17 -->
<g id="node17" class="node">
<title>Node17</title>
<g id="a_node17"><a xlink:href="uc_8c.html#a79c7c44c06c1febff5680c19667e2676" target="_top" xlink:title=" ">
<polygon fill="white" stroke="black" points="223,-43.5 223,-62.5 274,-62.5 274,-43.5 223,-43.5"/>
<text text-anchor="middle" x="248.5" y="-50.5" font-family="Helvetica,sans-Serif" font-size="10.00">uc_next</text>
</a>
</g>
</g>
<!-- Node16&#45;&gt;Node17 -->
<g id="edge19" class="edge">
<title>Node16&#45;&gt;Node17</title>
<path fill="none" stroke="midnightblue" d="M170.76,-53C182.97,-53 198.59,-53 212.55,-53"/>
<polygon fill="midnightblue" stroke="midnightblue" points="212.82,-56.5 222.82,-53 212.82,-49.5 212.82,-56.5"/>
</g>
<!-- Node18 -->
<g id="node18" class="node">
<title>Node18</title>
<g id="a_node18"><a xlink:href="uc_8c.html#a616e24870a58b86644c34ee077faca11" target="_top" xlink:title=" ">
<polygon fill="white" stroke="black" points="321.5,-24.5 321.5,-43.5 369.5,-43.5 369.5,-24.5 321.5,-24.5"/>
<text text-anchor="middle" x="345.5" y="-31.5" font-family="Helvetica,sans-Serif" font-size="10.00">uc_end</text>
</a>
</g>
</g>
<!-- Node17&#45;&gt;Node18 -->
<g id="edge20" class="edge">
<title>Node17&#45;&gt;Node18</title>
<path fill="none" stroke="midnightblue" d="M274.46,-48.01C285.8,-45.74 299.37,-43.03 311.53,-40.59"/>
<polygon fill="midnightblue" stroke="midnightblue" points="312.22,-44.03 321.34,-38.63 310.84,-37.16 312.22,-44.03"/>
</g>
<!-- Node19&#45;&gt;Node18 -->
<g id="edge22" class="edge">
<title>Node19&#45;&gt;Node18</title>
<path fill="none" stroke="midnightblue" d="M273.96,-19.89C285.39,-22.18 299.16,-24.93 311.49,-27.4"/>
<polygon fill="midnightblue" stroke="midnightblue" points="310.93,-30.86 321.43,-29.39 312.31,-23.99 310.93,-30.86"/>
</g>
</g>
</svg>
