<?xml version="1.0" encoding="UTF-8" standalone="no"?>
<!DOCTYPE svg PUBLIC "-//W3C//DTD SVG 1.1//EN"
 "http://www.w3.org/Graphics/SVG/1.1/DTD/svg11.dtd">
<!-- Generated by graphviz version 2.44.1 (20200629.0846)
 -->
<!-- Title: vi_findchar Pages: 1 -->
<svg width="449pt" height="180pt"
 viewBox="0.00 0.00 449.00 180.00" xmlns="http://www.w3.org/2000/svg" xmlns:xlink="http://www.w3.org/1999/xlink">
<g id="graph0" class="graph" transform="scale(1 1) rotate(0) translate(4 176)">
<title>vi_findchar</title>
<polygon fill="white" stroke="transparent" points="-4,4 -4,-176 445,-176 445,4 -4,4"/>
<!-- Node1 -->
<g id="node1" class="node">
<title>Node1</title>
<g id="a_node1"><a xlink:title=" ">
<polygon fill="#bfbfbf" stroke="black" points="0,-76.5 0,-95.5 64,-95.5 64,-76.5 0,-76.5"/>
<text text-anchor="middle" x="32" y="-83.5" font-family="Helvetica,sans-Serif" font-size="10.00">vi_findchar</text>
</a>
</g>
</g>
<!-- Node2 -->
<g id="node2" class="node">
<title>Node2</title>
<g id="a_node2"><a xlink:href="mot_8c.html#ae933c20eb7ae006da32ec3542133413a" target="_top" xlink:title=" ">
<polygon fill="white" stroke="black" points="100,-76.5 100,-95.5 172,-95.5 172,-76.5 100,-76.5"/>
<text text-anchor="middle" x="136" y="-83.5" font-family="Helvetica,sans-Serif" font-size="10.00">lbuf_findchar</text>
</a>
</g>
</g>
<!-- Node1&#45;&gt;Node2 -->
<g id="edge1" class="edge">
<title>Node1&#45;&gt;Node2</title>
<path fill="none" stroke="midnightblue" d="M64.16,-86C72.15,-86 80.92,-86 89.48,-86"/>
<polygon fill="midnightblue" stroke="midnightblue" points="89.75,-89.5 99.75,-86 89.75,-82.5 89.75,-89.5"/>
</g>
<!-- Node3 -->
<g id="node3" class="node">
<title>Node3</title>
<g id="a_node3"><a xlink:href="lbuf_8c.html#ad0f45475ddc6eb82ecedf63ed1b914d4" target="_top" xlink:title=" ">
<polygon fill="white" stroke="black" points="213.5,-152.5 213.5,-171.5 264.5,-171.5 264.5,-152.5 213.5,-152.5"/>
<text text-anchor="middle" x="239" y="-159.5" font-family="Helvetica,sans-Serif" font-size="10.00">lbuf_get</text>
</a>
</g>
</g>
<!-- Node2&#45;&gt;Node3 -->
<g id="edge2" class="edge">
<title>Node2&#45;&gt;Node3</title>
<path fill="none" stroke="midnightblue" d="M148.25,-95.69C162,-107.37 186.14,-127.38 208,-143 209.83,-144.31 211.76,-145.63 213.7,-146.94"/>
<polygon fill="midnightblue" stroke="midnightblue" points="211.92,-149.95 222.21,-152.46 215.73,-144.08 211.92,-149.95"/>
</g>
<!-- Node4 -->
<g id="node4" class="node">
<title>Node4</title>
<g id="a_node4"><a xlink:href="uc_8c.html#a2fecd1fc98475ece5f529da3315a9553" target="_top" xlink:title=" ">
<polygon fill="white" stroke="black" points="216,-114.5 216,-133.5 262,-133.5 262,-114.5 216,-114.5"/>
<text text-anchor="middle" x="239" y="-121.5" font-family="Helvetica,sans-Serif" font-size="10.00">uc_chr</text>
</a>
</g>
</g>
<!-- Node2&#45;&gt;Node4 -->
<g id="edge3" class="edge">
<title>Node2&#45;&gt;Node4</title>
<path fill="none" stroke="midnightblue" d="M162.49,-95.59C175.88,-100.63 192.4,-106.85 206.58,-112.18"/>
<polygon fill="midnightblue" stroke="midnightblue" points="205.36,-115.46 215.95,-115.7 207.83,-108.91 205.36,-115.46"/>
</g>
<!-- Node7 -->
<g id="node7" class="node">
<title>Node7</title>
<g id="a_node7"><a xlink:href="uc_8c.html#a45fdc2f2f3cb34515f1014bf754741bb" target="_top" xlink:title=" ">
<polygon fill="white" stroke="black" points="212.5,-76.5 212.5,-95.5 265.5,-95.5 265.5,-76.5 212.5,-76.5"/>
<text text-anchor="middle" x="239" y="-83.5" font-family="Helvetica,sans-Serif" font-size="10.00">uc_code</text>
</a>
</g>
</g>
<!-- Node2&#45;&gt;Node7 -->
<g id="edge6" class="edge">
<title>Node2&#45;&gt;Node7</title>
<path fill="none" stroke="midnightblue" d="M172.04,-86C181.75,-86 192.3,-86 202.06,-86"/>
<polygon fill="midnightblue" stroke="midnightblue" points="202.26,-89.5 212.26,-86 202.26,-82.5 202.26,-89.5"/>
</g>
<!-- Node8 -->
<g id="node8" class="node">
<title>Node8</title>
<g id="a_node8"><a xlink:href="mot_8c.html#a578119637568baec7a95210a4e7030aa" target="_top" xlink:title=" ">
<polygon fill="white" stroke="black" points="208,-0.5 208,-19.5 270,-19.5 270,-0.5 208,-0.5"/>
<text text-anchor="middle" x="239" y="-7.5" font-family="Helvetica,sans-Serif" font-size="10.00">uc_nextdir</text>
</a>
</g>
</g>
<!-- Node2&#45;&gt;Node8 -->
<g id="edge7" class="edge">
<title>Node2&#45;&gt;Node8</title>
<path fill="none" stroke="midnightblue" d="M148.25,-76.31C162,-64.63 186.14,-44.62 208,-29 209.83,-27.69 211.76,-26.37 213.7,-25.06"/>
<polygon fill="midnightblue" stroke="midnightblue" points="215.73,-27.92 222.21,-19.54 211.92,-22.05 215.73,-27.92"/>
</g>
<!-- Node11 -->
<g id="node11" class="node">
<title>Node11</title>
<g id="a_node11"><a xlink:href="uc_8c.html#a8334cbe4db5e54e19bf79b31f68d9eb8" target="_top" xlink:title=" ">
<polygon fill="white" stroke="black" points="217,-38.5 217,-57.5 261,-57.5 261,-38.5 217,-38.5"/>
<text text-anchor="middle" x="239" y="-45.5" font-family="Helvetica,sans-Serif" font-size="10.00">uc_off</text>
</a>
</g>
</g>
<!-- Node2&#45;&gt;Node11 -->
<g id="edge11" class="edge">
<title>Node2&#45;&gt;Node11</title>
<path fill="none" stroke="midnightblue" d="M162.49,-76.41C176.16,-71.27 193.11,-64.89 207.48,-59.48"/>
<polygon fill="midnightblue" stroke="midnightblue" points="208.82,-62.72 216.95,-55.92 206.36,-56.17 208.82,-62.72"/>
</g>
<!-- Node5 -->
<g id="node5" class="node">
<title>Node5</title>
<g id="a_node5"><a xlink:href="uc_8c.html#a79c7c44c06c1febff5680c19667e2676" target="_top" xlink:title=" ">
<polygon fill="white" stroke="black" points="306,-38.5 306,-57.5 357,-57.5 357,-38.5 306,-38.5"/>
<text text-anchor="middle" x="331.5" y="-45.5" font-family="Helvetica,sans-Serif" font-size="10.00">uc_next</text>
</a>
</g>
</g>
<!-- Node4&#45;&gt;Node5 -->
<g id="edge4" class="edge">
<title>Node4&#45;&gt;Node5</title>
<path fill="none" stroke="midnightblue" d="M256.27,-114.49C260.83,-111.61 265.71,-108.33 270,-105 285.75,-92.78 302.11,-77.15 313.85,-65.35"/>
<polygon fill="midnightblue" stroke="midnightblue" points="316.67,-67.48 321.17,-57.88 311.67,-62.58 316.67,-67.48"/>
</g>
<!-- Node6 -->
<g id="node6" class="node">
<title>Node6</title>
<g id="a_node6"><a xlink:href="uc_8c.html#a616e24870a58b86644c34ee077faca11" target="_top" xlink:title=" ">
<polygon fill="white" stroke="black" points="393,-38.5 393,-57.5 441,-57.5 441,-38.5 393,-38.5"/>
<text text-anchor="middle" x="417" y="-45.5" font-family="Helvetica,sans-Serif" font-size="10.00">uc_end</text>
</a>
</g>
</g>
<!-- Node5&#45;&gt;Node6 -->
<g id="edge5" class="edge">
<title>Node5&#45;&gt;Node6</title>
<path fill="none" stroke="midnightblue" d="M357.1,-48C365.1,-48 374.12,-48 382.66,-48"/>
<polygon fill="midnightblue" stroke="midnightblue" points="382.72,-51.5 392.72,-48 382.72,-44.5 382.72,-51.5"/>
</g>
<!-- Node8&#45;&gt;Node5 -->
<g id="edge8" class="edge">
<title>Node8&#45;&gt;Node5</title>
<path fill="none" stroke="midnightblue" d="M262.84,-19.59C273.56,-24.09 286.52,-29.53 298.22,-34.44"/>
<polygon fill="midnightblue" stroke="midnightblue" points="297.1,-37.77 307.67,-38.41 299.81,-31.32 297.1,-37.77"/>
</g>
<!-- Node9 -->
<g id="node9" class="node">
<title>Node9</title>
<g id="a_node9"><a xlink:href="uc_8c.html#a9b07ee95acfa0268aace779a00beb177" target="_top" xlink:title=" ">
<polygon fill="white" stroke="black" points="306,-0.5 306,-19.5 357,-19.5 357,-0.5 306,-0.5"/>
<text text-anchor="middle" x="331.5" y="-7.5" font-family="Helvetica,sans-Serif" font-size="10.00">uc_prev</text>
</a>
</g>
</g>
<!-- Node8&#45;&gt;Node9 -->
<g id="edge9" class="edge">
<title>Node8&#45;&gt;Node9</title>
<path fill="none" stroke="midnightblue" d="M270.14,-10C278.4,-10 287.42,-10 295.91,-10"/>
<polygon fill="midnightblue" stroke="midnightblue" points="295.91,-13.5 305.91,-10 295.91,-6.5 295.91,-13.5"/>
</g>
<!-- Node10 -->
<g id="node10" class="node">
<title>Node10</title>
<g id="a_node10"><a xlink:href="uc_8c.html#a8b9e268743fd7af03b099072154fbb18" target="_top" xlink:title=" ">
<polygon fill="white" stroke="black" points="393,-0.5 393,-19.5 441,-19.5 441,-0.5 393,-0.5"/>
<text text-anchor="middle" x="417" y="-7.5" font-family="Helvetica,sans-Serif" font-size="10.00">uc_beg</text>
</a>
</g>
</g>
<!-- Node9&#45;&gt;Node10 -->
<g id="edge10" class="edge">
<title>Node9&#45;&gt;Node10</title>
<path fill="none" stroke="midnightblue" d="M357.1,-10C365.1,-10 374.12,-10 382.66,-10"/>
<polygon fill="midnightblue" stroke="midnightblue" points="382.72,-13.5 392.72,-10 382.72,-6.5 382.72,-13.5"/>
</g>
<!-- Node11&#45;&gt;Node5 -->
<g id="edge12" class="edge">
<title>Node11&#45;&gt;Node5</title>
<path fill="none" stroke="midnightblue" d="M261.45,-48C271.61,-48 284.02,-48 295.49,-48"/>
<polygon fill="midnightblue" stroke="midnightblue" points="295.68,-51.5 305.68,-48 295.68,-44.5 295.68,-51.5"/>
</g>
</g>
</svg>
