<?xml version="1.0" encoding="UTF-8" standalone="no"?>
<!DOCTYPE svg PUBLIC "-//W3C//DTD SVG 1.1//EN"
 "http://www.w3.org/Graphics/SVG/1.1/DTD/svg11.dtd">
<!-- Generated by graphviz version 2.44.1 (20200629.0846)
 -->
<!-- Title: vc_put Pages: 1 -->
<!--zoomable 590 -->
<svg id="main" version="1.1" xmlns="http://www.w3.org/2000/svg" xmlns:xlink="http://www.w3.org/1999/xlink" xml:space="preserve" onload="init(evt)">
<style type="text/css"><![CDATA[
.edge:hover path { stroke: red; }
.edge:hover polygon { stroke: red; fill: red; }
]]></style>
<script type="text/javascript"><![CDATA[
var edges = document.getElementsByTagName('g');
if (edges && edges.length) {
  for (var i=0;i<edges.length;i++) {
    if (edges[i].id.substr(0,4)=='edge') {
      edges[i].setAttribute('class','edge');
    }
  }
}
]]></script>
        <defs>
                <circle id="rim" cx="0" cy="0" r="7"/>
                <circle id="rim2" cx="0" cy="0" r="3.5"/>
                <g id="zoomPlus">
                        <use xlink:href="#rim" fill="#404040">
                                <set attributeName="fill" to="#808080" begin="zoomplus.mouseover" end="zoomplus.mouseout"/>
                        </use>
                        <path d="M-4,0h8M0,-4v8" fill="none" stroke="white" stroke-width="1.5" pointer-events="none"/>
                </g>
                <g id="zoomMin">
                        <use xlink:href="#rim" fill="#404040">
                                <set attributeName="fill" to="#808080" begin="zoomminus.mouseover" end="zoomminus.mouseout"/>
                        </use>
                        <path d="M-4,0h8" fill="none" stroke="white" stroke-width="1.5" pointer-events="none"/>
                </g>
                <g id="dirArrow">
                        <path fill="none" stroke="white" stroke-width="1.5" d="M0,-3.0v7 M-2.5,-0.5L0,-3.0L2.5,-0.5"/>
                </g>
               <g id="resetDef">
                       <use xlink:href="#rim2" fill="#404040">
                               <set attributeName="fill" to="#808080" begin="reset.mouseover" end="reset.mouseout"/>
                       </use>
               </g>
        </defs>

<script type="text/javascript">
var viewWidth = 685;
var viewHeight = 590;
var sectionId = 'dynsection-76';
</script>
<script xlink:href="svgpan.js"/>
<svg id="graph" class="graph">
<g id="viewport">
<title>vc_put</title>
<polygon fill="white" stroke="transparent" points="-4,4 -4,-585.7 681,-585.7 681,4 -4,4"/>
<!-- Node1 -->
<g id="node1" class="node">
<title>Node1</title>
<g id="a_node1"><a xlink:title=" ">
<polygon fill="#bfbfbf" stroke="black" points="0,-209.5 0,-228.5 46,-228.5 46,-209.5 0,-209.5"/>
<text text-anchor="middle" x="23" y="-216.5" font-family="Helvetica,sans-Serif" font-size="10.00">vc_put</text>
</a>
</g>
</g>
<!-- Node2 -->
<g id="node2" class="node">
<title>Node2</title>
<g id="a_node2"><a xlink:href="lbuf_8c.html#ac261b7344d70724c31f360a5dd8e2ffc" target="_top" xlink:title=" ">
<polygon fill="white" stroke="black" points="90,-304.5 90,-323.5 143,-323.5 143,-304.5 90,-304.5"/>
<text text-anchor="middle" x="116.5" y="-311.5" font-family="Helvetica,sans-Serif" font-size="10.00">lbuf_edit</text>
</a>
</g>
</g>
<!-- Node1&#45;&gt;Node2 -->
<g id="edge1" class="edge">
<title>Node1&#45;&gt;Node2</title>
<path fill="none" stroke="midnightblue" d="M30.78,-228.87C40.92,-243.26 61.11,-270.39 82,-290 85.02,-292.84 88.4,-295.62 91.8,-298.23"/>
<polygon fill="midnightblue" stroke="midnightblue" points="90.02,-301.26 100.17,-304.28 94.12,-295.58 90.02,-301.26"/>
</g>
<!-- Node6 -->
<g id="node6" class="node">
<title>Node6</title>
<g id="a_node6"><a xlink:href="sbuf_8c.html#a4e56760893d5a6797626743840c9adf2" target="_top" xlink:title=" ">
<polygon fill="white" stroke="black" points="513,-494.5 513,-513.5 567,-513.5 567,-494.5 513,-494.5"/>
<text text-anchor="middle" x="540" y="-501.5" font-family="Helvetica,sans-Serif" font-size="10.00">sbuf_buf</text>
</a>
</g>
</g>
<!-- Node1&#45;&gt;Node6 -->
<g id="edge36" class="edge">
<title>Node1&#45;&gt;Node6</title>
<path fill="none" stroke="midnightblue" d="M24.54,-228.66C28.31,-286.07 55.67,-580 220.5,-580 220.5,-580 220.5,-580 333,-580 395.79,-580 415.76,-586.81 473,-561 493.34,-551.83 512.14,-534.32 524.43,-521.12"/>
<polygon fill="midnightblue" stroke="midnightblue" points="527.13,-523.35 531.19,-513.56 521.91,-518.68 527.13,-523.35"/>
</g>
<!-- Node8 -->
<g id="node8" class="node">
<title>Node8</title>
<g id="a_node8"><a xlink:href="sbuf_8c.html#a57748585d6786a2c1aadc2cbe6f2135b" target="_top" xlink:title=" ">
<polygon fill="white" stroke="black" points="408,-532.5 408,-551.5 473,-551.5 473,-532.5 408,-532.5"/>
<text text-anchor="middle" x="440.5" y="-539.5" font-family="Helvetica,sans-Serif" font-size="10.00">sbuf_make</text>
</a>
</g>
</g>
<!-- Node1&#45;&gt;Node8 -->
<g id="edge38" class="edge">
<title>Node1&#45;&gt;Node8</title>
<path fill="none" stroke="midnightblue" d="M25.52,-228.82C30.02,-255.12 45.27,-328.37 82,-376 151.58,-466.21 185.76,-481.86 292,-523 326.03,-536.18 367.44,-540.59 397.72,-541.91"/>
<polygon fill="midnightblue" stroke="midnightblue" points="397.82,-545.41 407.93,-542.25 398.05,-538.42 397.82,-545.41"/>
</g>
<!-- Node9 -->
<g id="node9" class="node">
<title>Node9</title>
<g id="a_node9"><a xlink:href="sbuf_8c.html#a603d1d6ab090025f5850f10bfa2dec7a" target="_top" xlink:title=" ">
<polygon fill="white" stroke="black" points="414.5,-456.5 414.5,-475.5 466.5,-475.5 466.5,-456.5 414.5,-456.5"/>
<text text-anchor="middle" x="440.5" y="-463.5" font-family="Helvetica,sans-Serif" font-size="10.00">sbuf_str</text>
</a>
</g>
</g>
<!-- Node1&#45;&gt;Node9 -->
<g id="edge39" class="edge">
<title>Node1&#45;&gt;Node9</title>
<path fill="none" stroke="midnightblue" d="M26.76,-228.73C33.23,-250.01 51.17,-301.34 82,-333 156.08,-409.09 190.95,-414.33 292,-447 329.14,-459.01 373.85,-463.46 404.24,-465.09"/>
<polygon fill="midnightblue" stroke="midnightblue" points="404.21,-468.59 414.36,-465.56 404.53,-461.6 404.21,-468.59"/>
</g>
<!-- Node20 -->
<g id="node20" class="node">
<title>Node20</title>
<g id="a_node20"><a xlink:href="lbuf_8c.html#ad0f45475ddc6eb82ecedf63ed1b914d4" target="_top" xlink:title=" ">
<polygon fill="white" stroke="black" points="196,-266.5 196,-285.5 247,-285.5 247,-266.5 196,-266.5"/>
<text text-anchor="middle" x="221.5" y="-273.5" font-family="Helvetica,sans-Serif" font-size="10.00">lbuf_get</text>
</a>
</g>
</g>
<!-- Node1&#45;&gt;Node20 -->
<g id="edge23" class="edge">
<title>Node1&#45;&gt;Node20</title>
<path fill="none" stroke="midnightblue" d="M35.16,-228.51C46.27,-237.42 64.19,-250.33 82,-257 115.76,-269.64 156.97,-274.01 185.61,-275.45"/>
<polygon fill="midnightblue" stroke="midnightblue" points="185.8,-278.96 195.94,-275.87 186.09,-271.96 185.8,-278.96"/>
</g>
<!-- Node21 -->
<g id="node21" class="node">
<title>Node21</title>
<g id="a_node21"><a xlink:href="mot_8c.html#a813931c130c89b7e9e71f3d524b92705" target="_top" xlink:title=" ">
<polygon fill="white" stroke="black" points="82,-228.5 82,-247.5 151,-247.5 151,-228.5 82,-228.5"/>
<text text-anchor="middle" x="116.5" y="-235.5" font-family="Helvetica,sans-Serif" font-size="10.00">lbuf_indents</text>
</a>
</g>
</g>
<!-- Node1&#45;&gt;Node21 -->
<g id="edge24" class="edge">
<title>Node1&#45;&gt;Node21</title>
<path fill="none" stroke="midnightblue" d="M46.15,-223.6C53.91,-225.21 62.92,-227.08 71.83,-228.93"/>
<polygon fill="midnightblue" stroke="midnightblue" points="71.26,-232.39 81.77,-231 72.69,-225.53 71.26,-232.39"/>
</g>
<!-- Node25 -->
<g id="node25" class="node">
<title>Node25</title>
<g id="a_node25"><a xlink:href="lbuf_8c.html#ae74f0372b69451ac877a76505b05874f" target="_top" xlink:title=" ">
<polygon fill="white" stroke="black" points="91.5,-76.5 91.5,-95.5 141.5,-95.5 141.5,-76.5 91.5,-76.5"/>
<text text-anchor="middle" x="116.5" y="-83.5" font-family="Helvetica,sans-Serif" font-size="10.00">lbuf_len</text>
</a>
</g>
</g>
<!-- Node1&#45;&gt;Node25 -->
<g id="edge29" class="edge">
<title>Node1&#45;&gt;Node25</title>
<path fill="none" stroke="midnightblue" d="M27.39,-209.36C34.83,-189.19 54.18,-141.77 82,-110 84.55,-107.08 87.53,-104.33 90.63,-101.79"/>
<polygon fill="midnightblue" stroke="midnightblue" points="92.98,-104.41 98.94,-95.64 88.81,-98.78 92.98,-104.41"/>
</g>
<!-- Node26 -->
<g id="node26" class="node">
<title>Node26</title>
<g id="a_node26"><a xlink:href="reg_8c.html#a6eaa41c69e0e22bcbb189eaf4ff0feae" target="_top" xlink:title=" ">
<polygon fill="white" stroke="black" points="92,-38.5 92,-57.5 141,-57.5 141,-38.5 92,-38.5"/>
<text text-anchor="middle" x="116.5" y="-45.5" font-family="Helvetica,sans-Serif" font-size="10.00">reg_get</text>
</a>
</g>
</g>
<!-- Node1&#45;&gt;Node26 -->
<g id="edge30" class="edge">
<title>Node1&#45;&gt;Node26</title>
<path fill="none" stroke="midnightblue" d="M25.37,-209.3C29.49,-183.36 43.9,-111.35 82,-67 82.98,-65.86 84.05,-64.77 85.18,-63.74"/>
<polygon fill="midnightblue" stroke="midnightblue" points="87.39,-66.46 93.32,-57.68 83.21,-60.84 87.39,-66.46"/>
</g>
<!-- Node27 -->
<g id="node27" class="node">
<title>Node27</title>
<g id="a_node27"><a xlink:href="ren_8c.html#a28bfe0435a7922335e67ebd5258beb13" target="_top" xlink:title=" ">
<polygon fill="white" stroke="black" points="87,-152.5 87,-171.5 146,-171.5 146,-152.5 87,-152.5"/>
<text text-anchor="middle" x="116.5" y="-159.5" font-family="Helvetica,sans-Serif" font-size="10.00">ren_noeol</text>
</a>
</g>
</g>
<!-- Node1&#45;&gt;Node27 -->
<g id="edge31" class="edge">
<title>Node1&#45;&gt;Node27</title>
<path fill="none" stroke="midnightblue" d="M38.14,-209.37C49.78,-201.53 66.79,-190.28 82,-181 84.33,-179.58 86.76,-178.13 89.21,-176.7"/>
<polygon fill="midnightblue" stroke="midnightblue" points="91.06,-179.67 97.99,-171.65 87.58,-173.6 91.06,-179.67"/>
</g>
<!-- Node29 -->
<g id="node29" class="node">
<title>Node29</title>
<g id="a_node29"><a xlink:href="uc_8c.html#a8afd7835259109c3ec7bb684d4a1f67f" target="_top" xlink:title=" ">
<polygon fill="white" stroke="black" points="196.5,-114.5 196.5,-133.5 246.5,-133.5 246.5,-114.5 196.5,-114.5"/>
<text text-anchor="middle" x="221.5" y="-121.5" font-family="Helvetica,sans-Serif" font-size="10.00">uc_slen</text>
</a>
</g>
</g>
<!-- Node1&#45;&gt;Node29 -->
<g id="edge40" class="edge">
<title>Node1&#45;&gt;Node29</title>
<path fill="none" stroke="midnightblue" d="M28.27,-209.35C36.2,-192.69 54.9,-158.79 82,-143 113.84,-124.44 156.64,-121.22 186.19,-121.66"/>
<polygon fill="midnightblue" stroke="midnightblue" points="186.34,-125.17 196.44,-121.97 186.55,-118.17 186.34,-125.17"/>
</g>
<!-- Node30 -->
<g id="node30" class="node">
<title>Node30</title>
<g id="a_node30"><a xlink:href="sbuf_8c.html#a8c1a89868b1999663effb78b4f3fab32" target="_top" xlink:title=" ">
<polygon fill="white" stroke="black" points="88,-0.5 88,-19.5 145,-19.5 145,-0.5 88,-0.5"/>
<text text-anchor="middle" x="116.5" y="-7.5" font-family="Helvetica,sans-Serif" font-size="10.00">sbuf_free</text>
</a>
</g>
</g>
<!-- Node1&#45;&gt;Node30 -->
<g id="edge37" class="edge">
<title>Node1&#45;&gt;Node30</title>
<path fill="none" stroke="midnightblue" d="M24.5,-209.15C26.51,-178.91 36.28,-86.06 82,-29 82.94,-27.83 83.97,-26.71 85.08,-25.66"/>
<polygon fill="midnightblue" stroke="midnightblue" points="87.3,-28.36 93.12,-19.51 83.05,-22.8 87.3,-28.36"/>
</g>
<!-- Node31 -->
<g id="node31" class="node">
<title>Node31</title>
<g id="a_node31"><a xlink:href="uc_8c.html#a12e27a6877e4a8705aeabfae5ae507db" target="_top" xlink:title=" ">
<polygon fill="white" stroke="black" points="92.5,-190.5 92.5,-209.5 140.5,-209.5 140.5,-190.5 92.5,-190.5"/>
<text text-anchor="middle" x="116.5" y="-197.5" font-family="Helvetica,sans-Serif" font-size="10.00">uc_sub</text>
</a>
</g>
</g>
<!-- Node1&#45;&gt;Node31 -->
<g id="edge41" class="edge">
<title>Node1&#45;&gt;Node31</title>
<path fill="none" stroke="midnightblue" d="M46.15,-214.4C56.95,-212.16 70.16,-209.41 82.15,-206.92"/>
<polygon fill="midnightblue" stroke="midnightblue" points="83.2,-210.28 92.28,-204.82 81.77,-203.43 83.2,-210.28"/>
</g>
<!-- Node3 -->
<g id="node3" class="node">
<title>Node3</title>
<g id="a_node3"><a xlink:href="lbuf_8c.html#a7882079a375d5591a9f384a80a5599ff" target="_top" xlink:title=" ">
<polygon fill="white" stroke="black" points="196,-342.5 196,-361.5 247,-361.5 247,-342.5 196,-342.5"/>
<text text-anchor="middle" x="221.5" y="-349.5" font-family="Helvetica,sans-Serif" font-size="10.00">lbuf_opt</text>
</a>
</g>
</g>
<!-- Node2&#45;&gt;Node3 -->
<g id="edge2" class="edge">
<title>Node2&#45;&gt;Node3</title>
<path fill="none" stroke="midnightblue" d="M143.23,-323.49C156.17,-328.27 172.05,-334.12 186.03,-339.28"/>
<polygon fill="midnightblue" stroke="midnightblue" points="185.22,-342.71 195.81,-342.89 187.64,-336.15 185.22,-342.71"/>
</g>
<!-- Node18 -->
<g id="node18" class="node">
<title>Node18</title>
<g id="a_node18"><a xlink:href="lbuf_8c.html#a7d6629efef5a5cbd324d82e2b0c07c5d" target="_top" xlink:title=" ">
<polygon fill="white" stroke="black" points="187,-304.5 187,-323.5 256,-323.5 256,-304.5 187,-304.5"/>
<text text-anchor="middle" x="221.5" y="-311.5" font-family="Helvetica,sans-Serif" font-size="10.00">lbuf_replace</text>
</a>
</g>
</g>
<!-- Node2&#45;&gt;Node18 -->
<g id="edge18" class="edge">
<title>Node2&#45;&gt;Node18</title>
<path fill="none" stroke="midnightblue" d="M143.23,-314C153.35,-314 165.27,-314 176.68,-314"/>
<polygon fill="midnightblue" stroke="midnightblue" points="176.94,-317.5 186.94,-314 176.94,-310.5 176.94,-317.5"/>
</g>
<!-- Node4 -->
<g id="node4" class="node">
<title>Node4</title>
<g id="a_node4"><a xlink:href="lbuf_8c.html#ad5f7a537d1c72f485481fc22cb8361a6" target="_top" xlink:title=" ">
<polygon fill="white" stroke="black" points="308,-494.5 308,-513.5 356,-513.5 356,-494.5 308,-494.5"/>
<text text-anchor="middle" x="332" y="-501.5" font-family="Helvetica,sans-Serif" font-size="10.00">lbuf_cp</text>
</a>
</g>
</g>
<!-- Node3&#45;&gt;Node4 -->
<g id="edge3" class="edge">
<title>Node3&#45;&gt;Node4</title>
<path fill="none" stroke="midnightblue" d="M229.29,-361.51C247.02,-386.35 294.97,-453.53 318.13,-485.98"/>
<polygon fill="midnightblue" stroke="midnightblue" points="315.56,-488.39 324.22,-494.5 321.25,-484.32 315.56,-488.39"/>
</g>
<!-- Node11 -->
<g id="node11" class="node">
<title>Node11</title>
<g id="a_node11"><a xlink:href="lbuf_8c.html#aedcad8ccce5993eacce71ffc80aaab87" target="_top" xlink:title=" ">
<polygon fill="white" stroke="black" points="292,-418.5 292,-437.5 372,-437.5 372,-418.5 292,-418.5"/>
<text text-anchor="middle" x="332" y="-425.5" font-family="Helvetica,sans-Serif" font-size="10.00">lbuf_savemark</text>
</a>
</g>
</g>
<!-- Node3&#45;&gt;Node11 -->
<g id="edge11" class="edge">
<title>Node3&#45;&gt;Node11</title>
<path fill="none" stroke="midnightblue" d="M232.74,-361.7C245.8,-373.76 269.4,-394.51 292,-409 294.58,-410.65 297.32,-412.26 300.12,-413.8"/>
<polygon fill="midnightblue" stroke="midnightblue" points="298.56,-416.93 309.05,-418.42 301.78,-410.72 298.56,-416.93"/>
</g>
<!-- Node12 -->
<g id="node12" class="node">
<title>Node12</title>
<g id="a_node12"><a xlink:href="lbuf_8c.html#a46670f1a015007134b0d5a07ea258fcc" target="_top" xlink:title=" ">
<polygon fill="white" stroke="black" points="295,-380.5 295,-399.5 369,-399.5 369,-380.5 295,-380.5"/>
<text text-anchor="middle" x="332" y="-387.5" font-family="Helvetica,sans-Serif" font-size="10.00">lbuf_savepos</text>
</a>
</g>
</g>
<!-- Node3&#45;&gt;Node12 -->
<g id="edge12" class="edge">
<title>Node3&#45;&gt;Node12</title>
<path fill="none" stroke="midnightblue" d="M247.12,-360.62C260.97,-365.47 278.53,-371.62 294.01,-377.04"/>
<polygon fill="midnightblue" stroke="midnightblue" points="293.22,-380.48 303.81,-380.48 295.53,-373.87 293.22,-380.48"/>
</g>
<!-- Node14 -->
<g id="node14" class="node">
<title>Node14</title>
<g id="a_node14"><a xlink:href="lbuf_8c.html#ab41193f3312b21588338e92e1b144f87" target="_top" xlink:title=" ">
<polygon fill="white" stroke="black" points="304,-266.5 304,-285.5 360,-285.5 360,-266.5 304,-266.5"/>
<text text-anchor="middle" x="332" y="-273.5" font-family="Helvetica,sans-Serif" font-size="10.00">linecount</text>
</a>
</g>
</g>
<!-- Node3&#45;&gt;Node14 -->
<g id="edge14" class="edge">
<title>Node3&#45;&gt;Node14</title>
<path fill="none" stroke="midnightblue" d="M241.56,-342.48C246.45,-339.7 251.58,-336.46 256,-333 274.32,-318.66 273.24,-308.76 292,-295 294.2,-293.39 296.56,-291.85 298.99,-290.4"/>
<polygon fill="midnightblue" stroke="midnightblue" points="300.82,-293.39 307.93,-285.54 297.48,-287.24 300.82,-293.39"/>
</g>
<!-- Node16 -->
<g id="node16" class="node">
<title>Node16</title>
<g id="a_node16"><a xlink:href="lbuf_8c.html#a94a520edd0e2f60713523483cf01c7de" target="_top" xlink:title=" ">
<polygon fill="white" stroke="black" points="302.5,-342.5 302.5,-361.5 361.5,-361.5 361.5,-342.5 302.5,-342.5"/>
<text text-anchor="middle" x="332" y="-349.5" font-family="Helvetica,sans-Serif" font-size="10.00">lopt_done</text>
</a>
</g>
</g>
<!-- Node3&#45;&gt;Node16 -->
<g id="edge16" class="edge">
<title>Node3&#45;&gt;Node16</title>
<path fill="none" stroke="midnightblue" d="M247.12,-352C260.43,-352 277.17,-352 292.19,-352"/>
<polygon fill="midnightblue" stroke="midnightblue" points="292.25,-355.5 302.25,-352 292.25,-348.5 292.25,-355.5"/>
</g>
<!-- Node17 -->
<g id="node17" class="node">
<title>Node17</title>
<g id="a_node17"><a xlink:href="uc_8c.html#a2844d125d9a2c1d03848dcdf952b0edb" target="_top" xlink:title=" ">
<polygon fill="white" stroke="black" points="308,-304.5 308,-323.5 356,-323.5 356,-304.5 308,-304.5"/>
<text text-anchor="middle" x="332" y="-311.5" font-family="Helvetica,sans-Serif" font-size="10.00">uc_dup</text>
</a>
</g>
</g>
<!-- Node3&#45;&gt;Node17 -->
<g id="edge17" class="edge">
<title>Node3&#45;&gt;Node17</title>
<path fill="none" stroke="midnightblue" d="M247.12,-343.38C262.24,-338.08 281.79,-331.24 298.21,-325.48"/>
<polygon fill="midnightblue" stroke="midnightblue" points="299.68,-328.68 307.96,-322.07 297.37,-322.07 299.68,-328.68"/>
</g>
<!-- Node5 -->
<g id="node5" class="node">
<title>Node5</title>
<g id="a_node5"><a xlink:href="sbuf_8c.html#a7bf14d501d36ce36ee269d77cf2c3fc6" target="_top" xlink:title=" ">
<polygon fill="white" stroke="black" points="409.5,-494.5 409.5,-513.5 471.5,-513.5 471.5,-494.5 409.5,-494.5"/>
<text text-anchor="middle" x="440.5" y="-501.5" font-family="Helvetica,sans-Serif" font-size="10.00">sbuf_done</text>
</a>
</g>
</g>
<!-- Node4&#45;&gt;Node5 -->
<g id="edge4" class="edge">
<title>Node4&#45;&gt;Node5</title>
<path fill="none" stroke="midnightblue" d="M356.11,-504C368.61,-504 384.42,-504 398.91,-504"/>
<polygon fill="midnightblue" stroke="midnightblue" points="399.15,-507.5 409.15,-504 399.15,-500.5 399.15,-507.5"/>
</g>
<!-- Node4&#45;&gt;Node8 -->
<g id="edge7" class="edge">
<title>Node4&#45;&gt;Node8</title>
<path fill="none" stroke="midnightblue" d="M356.11,-512.25C369.76,-517.12 387.35,-523.39 402.85,-528.92"/>
<polygon fill="midnightblue" stroke="midnightblue" points="402.08,-532.37 412.68,-532.43 404.43,-525.77 402.08,-532.37"/>
</g>
<!-- Node4&#45;&gt;Node9 -->
<g id="edge8" class="edge">
<title>Node4&#45;&gt;Node9</title>
<path fill="none" stroke="midnightblue" d="M356.11,-495.75C370.29,-490.69 388.73,-484.11 404.67,-478.43"/>
<polygon fill="midnightblue" stroke="midnightblue" points="405.96,-481.68 414.2,-475.03 403.61,-475.09 405.96,-481.68"/>
</g>
<!-- Node5&#45;&gt;Node6 -->
<g id="edge5" class="edge">
<title>Node5&#45;&gt;Node6</title>
<path fill="none" stroke="midnightblue" d="M471.55,-504C481.35,-504 492.34,-504 502.56,-504"/>
<polygon fill="midnightblue" stroke="midnightblue" points="502.84,-507.5 512.84,-504 502.84,-500.5 502.84,-507.5"/>
</g>
<!-- Node7 -->
<g id="node7" class="node">
<title>Node7</title>
<g id="a_node7"><a xlink:href="sbuf_8c.html#a4ad75f3948c0340c342a3ea3eb63a6e6" target="_top" xlink:title=" ">
<polygon fill="white" stroke="black" points="607,-475.5 607,-494.5 677,-494.5 677,-475.5 607,-475.5"/>
<text text-anchor="middle" x="642" y="-482.5" font-family="Helvetica,sans-Serif" font-size="10.00">sbuf_extend</text>
</a>
</g>
</g>
<!-- Node6&#45;&gt;Node7 -->
<g id="edge6" class="edge">
<title>Node6&#45;&gt;Node7</title>
<path fill="none" stroke="midnightblue" d="M567.01,-499.06C576.13,-497.33 586.64,-495.33 596.82,-493.39"/>
<polygon fill="midnightblue" stroke="midnightblue" points="597.66,-496.8 606.83,-491.49 596.35,-489.92 597.66,-496.8"/>
</g>
<!-- Node10 -->
<g id="node10" class="node">
<title>Node10</title>
<g id="a_node10"><a xlink:href="sbuf_8c.html#aa511ac77d6b486accc01c0512ef27ed2" target="_top" xlink:title=" ">
<polygon fill="white" stroke="black" points="509,-456.5 509,-475.5 571,-475.5 571,-456.5 509,-456.5"/>
<text text-anchor="middle" x="540" y="-463.5" font-family="Helvetica,sans-Serif" font-size="10.00">sbuf_mem</text>
</a>
</g>
</g>
<!-- Node9&#45;&gt;Node10 -->
<g id="edge9" class="edge">
<title>Node9&#45;&gt;Node10</title>
<path fill="none" stroke="midnightblue" d="M466.61,-466C476.36,-466 487.77,-466 498.61,-466"/>
<polygon fill="midnightblue" stroke="midnightblue" points="498.76,-469.5 508.76,-466 498.76,-462.5 498.76,-469.5"/>
</g>
<!-- Node10&#45;&gt;Node7 -->
<g id="edge10" class="edge">
<title>Node10&#45;&gt;Node7</title>
<path fill="none" stroke="midnightblue" d="M571,-471.7C579.11,-473.24 588.05,-474.94 596.76,-476.59"/>
<polygon fill="midnightblue" stroke="midnightblue" points="596.33,-480.08 606.81,-478.5 597.64,-473.2 596.33,-480.08"/>
</g>
<!-- Node13 -->
<g id="node13" class="node">
<title>Node13</title>
<g id="a_node13"><a xlink:href="lbuf_8c.html#a69221917b521da2cd5f804a9f4694f1a" target="_top" xlink:title=" ">
<polygon fill="white" stroke="black" points="415,-323.5 415,-342.5 466,-342.5 466,-323.5 415,-323.5"/>
<text text-anchor="middle" x="440.5" y="-330.5" font-family="Helvetica,sans-Serif" font-size="10.00">markidx</text>
</a>
</g>
</g>
<!-- Node12&#45;&gt;Node13 -->
<g id="edge13" class="edge">
<title>Node12&#45;&gt;Node13</title>
<path fill="none" stroke="midnightblue" d="M353.36,-380.37C359.39,-377.43 366,-374.15 372,-371 386.05,-363.63 401.48,-354.99 414.03,-347.81"/>
<polygon fill="midnightblue" stroke="midnightblue" points="416.08,-350.67 423.01,-342.65 412.59,-344.6 416.08,-350.67"/>
</g>
<!-- Node15 -->
<g id="node15" class="node">
<title>Node15</title>
<g id="a_node15"><a xlink:href="lbuf_8c.html#ac559857979b20ce0c64638c9e3e4edec" target="_top" xlink:title=" ">
<polygon fill="white" stroke="black" points="411.5,-228.5 411.5,-247.5 469.5,-247.5 469.5,-228.5 411.5,-228.5"/>
<text text-anchor="middle" x="440.5" y="-235.5" font-family="Helvetica,sans-Serif" font-size="10.00">linelength</text>
</a>
</g>
</g>
<!-- Node14&#45;&gt;Node15 -->
<g id="edge15" class="edge">
<title>Node14&#45;&gt;Node15</title>
<path fill="none" stroke="midnightblue" d="M359.87,-266.41C372.99,-261.73 388.97,-256.03 403.15,-250.97"/>
<polygon fill="midnightblue" stroke="midnightblue" points="404.39,-254.24 412.63,-247.59 402.04,-247.65 404.39,-254.24"/>
</g>
<!-- Node18&#45;&gt;Node14 -->
<g id="edge21" class="edge">
<title>Node18&#45;&gt;Node14</title>
<path fill="none" stroke="midnightblue" d="M249.88,-304.41C263.24,-299.73 279.52,-294.03 293.97,-288.97"/>
<polygon fill="midnightblue" stroke="midnightblue" points="295.35,-292.19 303.63,-285.59 293.03,-285.59 295.35,-292.19"/>
</g>
<!-- Node18&#45;&gt;Node15 -->
<g id="edge22" class="edge">
<title>Node18&#45;&gt;Node15</title>
<path fill="none" stroke="midnightblue" d="M244.11,-304.34C248.41,-301.74 252.63,-298.62 256,-295 281.44,-267.62 260.42,-238.99 292,-219 328.22,-196.08 379.5,-210.88 411.07,-224.12"/>
<polygon fill="midnightblue" stroke="midnightblue" points="410.02,-227.48 420.59,-228.31 412.85,-221.07 410.02,-227.48"/>
</g>
<!-- Node19 -->
<g id="node19" class="node">
<title>Node19</title>
<g id="a_node19"><a xlink:href="lbuf_8c.html#a5a34f3f60dfd5ea06207d96d821da368" target="_top" xlink:title=" ">
<polygon fill="white" stroke="black" points="302.5,-228.5 302.5,-247.5 361.5,-247.5 361.5,-228.5 302.5,-228.5"/>
<text text-anchor="middle" x="332" y="-235.5" font-family="Helvetica,sans-Serif" font-size="10.00">lbuf_mark</text>
</a>
</g>
</g>
<!-- Node18&#45;&gt;Node19 -->
<g id="edge19" class="edge">
<title>Node18&#45;&gt;Node19</title>
<path fill="none" stroke="midnightblue" d="M241.56,-304.48C246.45,-301.7 251.58,-298.46 256,-295 274.32,-280.66 273.24,-270.76 292,-257 294.2,-255.39 296.56,-253.85 298.99,-252.4"/>
<polygon fill="midnightblue" stroke="midnightblue" points="300.82,-255.39 307.93,-247.54 297.48,-249.24 300.82,-255.39"/>
</g>
<!-- Node19&#45;&gt;Node13 -->
<g id="edge20" class="edge">
<title>Node19&#45;&gt;Node13</title>
<path fill="none" stroke="midnightblue" d="M356.56,-247.63C361.87,-250.3 367.32,-253.45 372,-257 393.83,-273.56 414.01,-297.98 426.51,-314.64"/>
<polygon fill="midnightblue" stroke="midnightblue" points="423.89,-317 432.62,-323 429.54,-312.87 423.89,-317"/>
</g>
<!-- Node21&#45;&gt;Node20 -->
<g id="edge25" class="edge">
<title>Node21&#45;&gt;Node20</title>
<path fill="none" stroke="midnightblue" d="M143.49,-247.59C156.44,-252.37 172.27,-258.2 186.2,-263.34"/>
<polygon fill="midnightblue" stroke="midnightblue" points="185.34,-266.76 195.94,-266.94 187.76,-260.19 185.34,-266.76"/>
</g>
<!-- Node22 -->
<g id="node22" class="node">
<title>Node22</title>
<g id="a_node22"><a xlink:href="uc_8c.html#ab6be7e2b59f79b8952c13488e1cf036a" target="_top" xlink:title=" ">
<polygon fill="white" stroke="black" points="188.5,-228.5 188.5,-247.5 254.5,-247.5 254.5,-228.5 188.5,-228.5"/>
<text text-anchor="middle" x="221.5" y="-235.5" font-family="Helvetica,sans-Serif" font-size="10.00">uc_isspace</text>
</a>
</g>
</g>
<!-- Node21&#45;&gt;Node22 -->
<g id="edge26" class="edge">
<title>Node21&#45;&gt;Node22</title>
<path fill="none" stroke="midnightblue" d="M151.23,-238C159.83,-238 169.19,-238 178.16,-238"/>
<polygon fill="midnightblue" stroke="midnightblue" points="178.45,-241.5 188.45,-238 178.45,-234.5 178.45,-241.5"/>
</g>
<!-- Node23 -->
<g id="node23" class="node">
<title>Node23</title>
<g id="a_node23"><a xlink:href="uc_8c.html#a79c7c44c06c1febff5680c19667e2676" target="_top" xlink:title=" ">
<polygon fill="white" stroke="black" points="306.5,-152.5 306.5,-171.5 357.5,-171.5 357.5,-152.5 306.5,-152.5"/>
<text text-anchor="middle" x="332" y="-159.5" font-family="Helvetica,sans-Serif" font-size="10.00">uc_next</text>
</a>
</g>
</g>
<!-- Node21&#45;&gt;Node23 -->
<g id="edge27" class="edge">
<title>Node21&#45;&gt;Node23</title>
<path fill="none" stroke="midnightblue" d="M144.54,-228.37C183.29,-214.58 254.58,-189.2 296.9,-174.14"/>
<polygon fill="midnightblue" stroke="midnightblue" points="298.24,-177.38 306.49,-170.73 295.89,-170.78 298.24,-177.38"/>
</g>
<!-- Node24 -->
<g id="node24" class="node">
<title>Node24</title>
<g id="a_node24"><a xlink:href="uc_8c.html#a616e24870a58b86644c34ee077faca11" target="_top" xlink:title=" ">
<polygon fill="white" stroke="black" points="416.5,-133.5 416.5,-152.5 464.5,-152.5 464.5,-133.5 416.5,-133.5"/>
<text text-anchor="middle" x="440.5" y="-140.5" font-family="Helvetica,sans-Serif" font-size="10.00">uc_end</text>
</a>
</g>
</g>
<!-- Node23&#45;&gt;Node24 -->
<g id="edge28" class="edge">
<title>Node23&#45;&gt;Node24</title>
<path fill="none" stroke="midnightblue" d="M357.7,-157.59C372.22,-155 390.75,-151.7 406.51,-148.89"/>
<polygon fill="midnightblue" stroke="midnightblue" points="407.16,-152.32 416.39,-147.12 405.93,-145.43 407.16,-152.32"/>
</g>
<!-- Node28 -->
<g id="node28" class="node">
<title>Node28</title>
<g id="a_node28"><a xlink:href="uc_8c.html#a2fecd1fc98475ece5f529da3315a9553" target="_top" xlink:title=" ">
<polygon fill="white" stroke="black" points="198.5,-152.5 198.5,-171.5 244.5,-171.5 244.5,-152.5 198.5,-152.5"/>
<text text-anchor="middle" x="221.5" y="-159.5" font-family="Helvetica,sans-Serif" font-size="10.00">uc_chr</text>
</a>
</g>
</g>
<!-- Node27&#45;&gt;Node28 -->
<g id="edge32" class="edge">
<title>Node27&#45;&gt;Node28</title>
<path fill="none" stroke="midnightblue" d="M146.19,-162C159.25,-162 174.76,-162 188.22,-162"/>
<polygon fill="midnightblue" stroke="midnightblue" points="188.49,-165.5 198.49,-162 188.49,-158.5 188.49,-165.5"/>
</g>
<!-- Node27&#45;&gt;Node29 -->
<g id="edge34" class="edge">
<title>Node27&#45;&gt;Node29</title>
<path fill="none" stroke="midnightblue" d="M143.49,-152.41C156.54,-147.6 172.5,-141.71 186.5,-136.54"/>
<polygon fill="midnightblue" stroke="midnightblue" points="188.12,-139.68 196.29,-132.93 185.69,-133.11 188.12,-139.68"/>
</g>
<!-- Node28&#45;&gt;Node23 -->
<g id="edge33" class="edge">
<title>Node28&#45;&gt;Node23</title>
<path fill="none" stroke="midnightblue" d="M244.72,-162C259.5,-162 279.24,-162 296.1,-162"/>
<polygon fill="midnightblue" stroke="midnightblue" points="296.16,-165.5 306.16,-162 296.16,-158.5 296.16,-165.5"/>
</g>
<!-- Node29&#45;&gt;Node24 -->
<g id="edge35" class="edge">
<title>Node29&#45;&gt;Node24</title>
<path fill="none" stroke="midnightblue" d="M246.55,-126.11C285.39,-129.51 362.02,-136.22 406.12,-140.08"/>
<polygon fill="midnightblue" stroke="midnightblue" points="406.06,-143.59 416.33,-140.97 406.67,-136.61 406.06,-143.59"/>
</g>
<!-- Node31&#45;&gt;Node28 -->
<g id="edge42" class="edge">
<title>Node31&#45;&gt;Node28</title>
<path fill="none" stroke="midnightblue" d="M140.62,-191.47C154.73,-186.27 172.97,-179.54 188.46,-173.82"/>
<polygon fill="midnightblue" stroke="midnightblue" points="190,-176.98 198.17,-170.24 187.58,-170.42 190,-176.98"/>
</g>
</g>
</svg>
        <g id="navigator" transform="translate(0 0)" fill="#404254">
                <rect fill="#f2f5e9" fill-opacity="0.5" stroke="#606060" stroke-width=".5" x="0" y="0" width="60" height="60"/>
                <use id="zoomplus" xlink:href="#zoomPlus" x="17" y="9" onmousedown="handleZoom(evt,'in')"/>
                <use id="zoomminus" xlink:href="#zoomMin" x="42" y="9" onmousedown="handleZoom(evt,'out')"/>
                <use id="reset" xlink:href="#resetDef" x="30" y="36" onmousedown="handleReset()"/>
                <g id="arrowUp" xlink:href="#dirArrow" transform="translate(30 24)" onmousedown="handlePan(0,-1)">
                  <use xlink:href="#rim" fill="#404040">
                        <set attributeName="fill" to="#808080" begin="arrowUp.mouseover" end="arrowUp.mouseout"/>
                  </use>
                  <path fill="none" stroke="white" stroke-width="1.5" d="M0,-3.0v7 M-2.5,-0.5L0,-3.0L2.5,-0.5"/>
                </g>
                <g id="arrowRight" xlink:href="#dirArrow" transform="rotate(90) translate(36 -43)" onmousedown="handlePan(1,0)">
                  <use xlink:href="#rim" fill="#404040">
                        <set attributeName="fill" to="#808080" begin="arrowRight.mouseover" end="arrowRight.mouseout"/>
                  </use>
                  <path fill="none" stroke="white" stroke-width="1.5" d="M0,-3.0v7 M-2.5,-0.5L0,-3.0L2.5,-0.5"/>
                </g>
                <g id="arrowDown" xlink:href="#dirArrow" transform="rotate(180) translate(-30 -48)" onmousedown="handlePan(0,1)">
                  <use xlink:href="#rim" fill="#404040">
                        <set attributeName="fill" to="#808080" begin="arrowDown.mouseover" end="arrowDown.mouseout"/>
                  </use>
                  <path fill="none" stroke="white" stroke-width="1.5" d="M0,-3.0v7 M-2.5,-0.5L0,-3.0L2.5,-0.5"/>
                </g>
                <g id="arrowLeft" xlink:href="#dirArrow" transform="rotate(270) translate(-36 17)" onmousedown="handlePan(-1,0)">
                  <use xlink:href="#rim" fill="#404040">
                        <set attributeName="fill" to="#808080" begin="arrowLeft.mouseover" end="arrowLeft.mouseout"/>
                  </use>
                  <path fill="none" stroke="white" stroke-width="1.5" d="M0,-3.0v7 M-2.5,-0.5L0,-3.0L2.5,-0.5"/>
                </g>
        </g>
        <svg viewBox="0 0 15 15" width="100%" height="30px" preserveAspectRatio="xMaxYMin meet">
         <g id="arrow_out" transform="scale(0.3 0.3)">
          <a xlink:href="vi_8c_a7611a5bcfe4c4ddc58233c4c52a8fa16_cgraph_org.svg" target="_base">
           <rect id="button" ry="5" rx="5" y="6" x="6" height="38" width="38"
                fill="#f2f5e9" fill-opacity="0.5" stroke="#606060" stroke-width="1.0"/>
           <path id="arrow"
             d="M 11.500037,31.436501 C 11.940474,20.09759 22.043105,11.32322 32.158766,21.979434 L 37.068811,17.246167 C 37.068811,17.246167 37.088388,32 37.088388,32 L 22.160133,31.978069 C 22.160133,31.978069 26.997745,27.140456 26.997745,27.140456 C 18.528582,18.264221 13.291696,25.230495 11.500037,31.436501 z"
             style="fill:#404040;"/>
          </a>
         </g>
        </svg>
</svg>
