<?xml version="1.0" encoding="UTF-8" standalone="no"?>
<!DOCTYPE svg PUBLIC "-//W3C//DTD SVG 1.1//EN"
 "http://www.w3.org/Graphics/SVG/1.1/DTD/svg11.dtd">
<!-- Generated by graphviz version 2.44.1 (20200629.0846)
 -->
<!-- Title: vi_curword Pages: 1 -->
<svg width="465pt" height="408pt"
 viewBox="0.00 0.00 465.00 408.00" xmlns="http://www.w3.org/2000/svg" xmlns:xlink="http://www.w3.org/1999/xlink">
<g id="graph0" class="graph" transform="scale(1 1) rotate(0) translate(4 404)">
<title>vi_curword</title>
<polygon fill="white" stroke="transparent" points="-4,4 -4,-404 461,-404 461,4 -4,4"/>
<!-- Node1 -->
<g id="node1" class="node">
<title>Node1</title>
<g id="a_node1"><a xlink:title=" ">
<polygon fill="#bfbfbf" stroke="black" points="0,-209.5 0,-228.5 64,-228.5 64,-209.5 0,-209.5"/>
<text text-anchor="middle" x="32" y="-216.5" font-family="Helvetica,sans-Serif" font-size="10.00">vi_curword</text>
</a>
</g>
</g>
<!-- Node2 -->
<g id="node2" class="node">
<title>Node2</title>
<g id="a_node2"><a xlink:href="lbuf_8c.html#ad0f45475ddc6eb82ecedf63ed1b914d4" target="_top" xlink:title=" ">
<polygon fill="white" stroke="black" points="107,-380.5 107,-399.5 158,-399.5 158,-380.5 107,-380.5"/>
<text text-anchor="middle" x="132.5" y="-387.5" font-family="Helvetica,sans-Serif" font-size="10.00">lbuf_get</text>
</a>
</g>
</g>
<!-- Node1&#45;&gt;Node2 -->
<g id="edge1" class="edge">
<title>Node1&#45;&gt;Node2</title>
<path fill="none" stroke="midnightblue" d="M35.65,-228.83C42.74,-253.83 64.13,-321.07 100,-366 102.26,-368.83 104.91,-371.5 107.71,-373.97"/>
<polygon fill="midnightblue" stroke="midnightblue" points="105.75,-376.89 115.77,-380.34 110.1,-371.4 105.75,-376.89"/>
</g>
<!-- Node3 -->
<g id="node3" class="node">
<title>Node3</title>
<g id="a_node3"><a xlink:href="ren_8c.html#a28bfe0435a7922335e67ebd5258beb13" target="_top" xlink:title=" ">
<polygon fill="white" stroke="black" points="103,-266.5 103,-285.5 162,-285.5 162,-266.5 103,-266.5"/>
<text text-anchor="middle" x="132.5" y="-273.5" font-family="Helvetica,sans-Serif" font-size="10.00">ren_noeol</text>
</a>
</g>
</g>
<!-- Node1&#45;&gt;Node3 -->
<g id="edge2" class="edge">
<title>Node1&#45;&gt;Node3</title>
<path fill="none" stroke="midnightblue" d="M49.71,-228.67C65.23,-237.65 88.55,-251.14 106.32,-261.43"/>
<polygon fill="midnightblue" stroke="midnightblue" points="104.63,-264.49 115.04,-266.47 108.14,-258.44 104.63,-264.49"/>
</g>
<!-- Node4 -->
<g id="node4" class="node">
<title>Node4</title>
<g id="a_node4"><a xlink:href="uc_8c.html#a2fecd1fc98475ece5f529da3315a9553" target="_top" xlink:title=" ">
<polygon fill="white" stroke="black" points="211,-304.5 211,-323.5 257,-323.5 257,-304.5 211,-304.5"/>
<text text-anchor="middle" x="234" y="-311.5" font-family="Helvetica,sans-Serif" font-size="10.00">uc_chr</text>
</a>
</g>
</g>
<!-- Node1&#45;&gt;Node4 -->
<g id="edge17" class="edge">
<title>Node1&#45;&gt;Node4</title>
<path fill="none" stroke="midnightblue" d="M38.35,-228.65C48.17,-245.31 70.75,-279.21 100,-295 131.3,-311.9 172.51,-315.41 200.72,-315.48"/>
<polygon fill="midnightblue" stroke="midnightblue" points="200.88,-318.98 210.84,-315.36 200.8,-311.98 200.88,-318.98"/>
</g>
<!-- Node5 -->
<g id="node5" class="node">
<title>Node5</title>
<g id="a_node5"><a xlink:href="uc_8c.html#a79c7c44c06c1febff5680c19667e2676" target="_top" xlink:title=" ">
<polygon fill="white" stroke="black" points="312.5,-304.5 312.5,-323.5 363.5,-323.5 363.5,-304.5 312.5,-304.5"/>
<text text-anchor="middle" x="338" y="-311.5" font-family="Helvetica,sans-Serif" font-size="10.00">uc_next</text>
</a>
</g>
</g>
<!-- Node1&#45;&gt;Node5 -->
<g id="edge22" class="edge">
<title>Node1&#45;&gt;Node5</title>
<path fill="none" stroke="midnightblue" d="M36.4,-228.57C44.16,-248.86 65.22,-296.12 100,-318 162.27,-357.18 253.16,-339.69 302.32,-325.57"/>
<polygon fill="midnightblue" stroke="midnightblue" points="303.57,-328.84 312.15,-322.63 301.57,-322.14 303.57,-328.84"/>
</g>
<!-- Node8 -->
<g id="node8" class="node">
<title>Node8</title>
<g id="a_node8"><a xlink:href="sbuf_8c.html#a7bf14d501d36ce36ee269d77cf2c3fc6" target="_top" xlink:title=" ">
<polygon fill="white" stroke="black" points="101.5,-228.5 101.5,-247.5 163.5,-247.5 163.5,-228.5 101.5,-228.5"/>
<text text-anchor="middle" x="132.5" y="-235.5" font-family="Helvetica,sans-Serif" font-size="10.00">sbuf_done</text>
</a>
</g>
</g>
<!-- Node1&#45;&gt;Node8 -->
<g id="edge8" class="edge">
<title>Node1&#45;&gt;Node8</title>
<path fill="none" stroke="midnightblue" d="M64.17,-225.01C72.77,-226.67 82.22,-228.49 91.25,-230.24"/>
<polygon fill="midnightblue" stroke="midnightblue" points="90.73,-233.7 101.21,-232.16 92.05,-226.83 90.73,-233.7"/>
</g>
<!-- Node11 -->
<g id="node11" class="node">
<title>Node11</title>
<g id="a_node11"><a xlink:href="sbuf_8c.html#a57748585d6786a2c1aadc2cbe6f2135b" target="_top" xlink:title=" ">
<polygon fill="white" stroke="black" points="100,-114.5 100,-133.5 165,-133.5 165,-114.5 100,-114.5"/>
<text text-anchor="middle" x="132.5" y="-121.5" font-family="Helvetica,sans-Serif" font-size="10.00">sbuf_make</text>
</a>
</g>
</g>
<!-- Node1&#45;&gt;Node11 -->
<g id="edge11" class="edge">
<title>Node1&#45;&gt;Node11</title>
<path fill="none" stroke="midnightblue" d="M40.02,-209.27C51.41,-193.93 75.15,-163.74 100,-143 101.54,-141.71 103.19,-140.45 104.88,-139.23"/>
<polygon fill="midnightblue" stroke="midnightblue" points="107.09,-141.97 113.53,-133.55 103.25,-136.12 107.09,-141.97"/>
</g>
<!-- Node12 -->
<g id="node12" class="node">
<title>Node12</title>
<g id="a_node12"><a xlink:href="sbuf_8c.html#aa511ac77d6b486accc01c0512ef27ed2" target="_top" xlink:title=" ">
<polygon fill="white" stroke="black" points="203,-190.5 203,-209.5 265,-209.5 265,-190.5 203,-190.5"/>
<text text-anchor="middle" x="234" y="-197.5" font-family="Helvetica,sans-Serif" font-size="10.00">sbuf_mem</text>
</a>
</g>
</g>
<!-- Node1&#45;&gt;Node12 -->
<g id="edge12" class="edge">
<title>Node1&#45;&gt;Node12</title>
<path fill="none" stroke="midnightblue" d="M64.25,-216.03C98.9,-212.74 154.88,-207.42 192.77,-203.82"/>
<polygon fill="midnightblue" stroke="midnightblue" points="193.33,-207.28 202.95,-202.85 192.66,-200.32 193.33,-207.28"/>
</g>
<!-- Node13 -->
<g id="node13" class="node">
<title>Node13</title>
<g id="a_node13"><a xlink:href="sbuf_8c.html#a603d1d6ab090025f5850f10bfa2dec7a" target="_top" xlink:title=" ">
<polygon fill="white" stroke="black" points="106.5,-152.5 106.5,-171.5 158.5,-171.5 158.5,-152.5 106.5,-152.5"/>
<text text-anchor="middle" x="132.5" y="-159.5" font-family="Helvetica,sans-Serif" font-size="10.00">sbuf_str</text>
</a>
</g>
</g>
<!-- Node1&#45;&gt;Node13 -->
<g id="edge14" class="edge">
<title>Node1&#45;&gt;Node13</title>
<path fill="none" stroke="midnightblue" d="M49.71,-209.33C65.23,-200.35 88.55,-186.86 106.32,-176.57"/>
<polygon fill="midnightblue" stroke="midnightblue" points="108.14,-179.56 115.04,-171.53 104.63,-173.51 108.14,-179.56"/>
</g>
<!-- Node14 -->
<g id="node14" class="node">
<title>Node14</title>
<g id="a_node14"><a xlink:href="regex_8c.html#ade3e10606e6e8866e6151fe8440d6101" target="_top" xlink:title=" ">
<polygon fill="white" stroke="black" points="108.5,-76.5 108.5,-95.5 156.5,-95.5 156.5,-76.5 108.5,-76.5"/>
<text text-anchor="middle" x="132.5" y="-83.5" font-family="Helvetica,sans-Serif" font-size="10.00">uc_beg</text>
</a>
</g>
</g>
<!-- Node1&#45;&gt;Node14 -->
<g id="edge16" class="edge">
<title>Node1&#45;&gt;Node14</title>
<path fill="none" stroke="midnightblue" d="M36.71,-209.39C45.21,-188.35 67.88,-137.49 100,-105 101.2,-103.78 102.5,-102.61 103.86,-101.49"/>
<polygon fill="midnightblue" stroke="midnightblue" points="105.95,-104.3 112.07,-95.65 101.89,-98.59 105.95,-104.3"/>
</g>
<!-- Node15 -->
<g id="node15" class="node">
<title>Node15</title>
<g id="a_node15"><a xlink:href="uc_8c.html#a11275a0a4c95061c99fe7462ef3cf1b3" target="_top" xlink:title=" ">
<polygon fill="white" stroke="black" points="107.5,-38.5 107.5,-57.5 157.5,-57.5 157.5,-38.5 107.5,-38.5"/>
<text text-anchor="middle" x="132.5" y="-45.5" font-family="Helvetica,sans-Serif" font-size="10.00">uc_kind</text>
</a>
</g>
</g>
<!-- Node1&#45;&gt;Node15 -->
<g id="edge18" class="edge">
<title>Node1&#45;&gt;Node15</title>
<path fill="none" stroke="midnightblue" d="M35.09,-209.35C41.1,-183.54 60.57,-111.82 100,-67 101,-65.86 102.09,-64.77 103.24,-63.73"/>
<polygon fill="midnightblue" stroke="midnightblue" points="105.54,-66.37 111.44,-57.57 101.34,-60.78 105.54,-66.37"/>
</g>
<!-- Node3&#45;&gt;Node4 -->
<g id="edge3" class="edge">
<title>Node3&#45;&gt;Node4</title>
<path fill="none" stroke="midnightblue" d="M158.61,-285.59C171.58,-290.54 187.54,-296.64 201.35,-301.91"/>
<polygon fill="midnightblue" stroke="midnightblue" points="200.36,-305.28 210.95,-305.58 202.86,-298.74 200.36,-305.28"/>
</g>
<!-- Node7 -->
<g id="node7" class="node">
<title>Node7</title>
<g id="a_node7"><a xlink:href="uc_8c.html#a8afd7835259109c3ec7bb684d4a1f67f" target="_top" xlink:title=" ">
<polygon fill="white" stroke="black" points="313,-266.5 313,-285.5 363,-285.5 363,-266.5 313,-266.5"/>
<text text-anchor="middle" x="338" y="-273.5" font-family="Helvetica,sans-Serif" font-size="10.00">uc_slen</text>
</a>
</g>
</g>
<!-- Node3&#45;&gt;Node7 -->
<g id="edge6" class="edge">
<title>Node3&#45;&gt;Node7</title>
<path fill="none" stroke="midnightblue" d="M162.22,-276C199.16,-276 263.22,-276 302.68,-276"/>
<polygon fill="midnightblue" stroke="midnightblue" points="302.87,-279.5 312.87,-276 302.87,-272.5 302.87,-279.5"/>
</g>
<!-- Node4&#45;&gt;Node5 -->
<g id="edge4" class="edge">
<title>Node4&#45;&gt;Node5</title>
<path fill="none" stroke="midnightblue" d="M257.13,-314C270.24,-314 287.14,-314 302.02,-314"/>
<polygon fill="midnightblue" stroke="midnightblue" points="302.41,-317.5 312.41,-314 302.41,-310.5 302.41,-317.5"/>
</g>
<!-- Node6 -->
<g id="node6" class="node">
<title>Node6</title>
<g id="a_node6"><a xlink:href="uc_8c.html#a616e24870a58b86644c34ee077faca11" target="_top" xlink:title=" ">
<polygon fill="white" stroke="black" points="409,-285.5 409,-304.5 457,-304.5 457,-285.5 409,-285.5"/>
<text text-anchor="middle" x="433" y="-292.5" font-family="Helvetica,sans-Serif" font-size="10.00">uc_end</text>
</a>
</g>
</g>
<!-- Node5&#45;&gt;Node6 -->
<g id="edge5" class="edge">
<title>Node5&#45;&gt;Node6</title>
<path fill="none" stroke="midnightblue" d="M363.92,-308.91C374.63,-306.72 387.31,-304.13 398.8,-301.78"/>
<polygon fill="midnightblue" stroke="midnightblue" points="399.83,-305.15 408.93,-299.71 398.43,-298.29 399.83,-305.15"/>
</g>
<!-- Node7&#45;&gt;Node6 -->
<g id="edge7" class="edge">
<title>Node7&#45;&gt;Node6</title>
<path fill="none" stroke="midnightblue" d="M363.43,-280.99C374.26,-283.2 387.16,-285.84 398.83,-288.22"/>
<polygon fill="midnightblue" stroke="midnightblue" points="398.19,-291.67 408.69,-290.24 399.59,-284.81 398.19,-291.67"/>
</g>
<!-- Node9 -->
<g id="node9" class="node">
<title>Node9</title>
<g id="a_node9"><a xlink:href="sbuf_8c.html#a4e56760893d5a6797626743840c9adf2" target="_top" xlink:title=" ">
<polygon fill="white" stroke="black" points="207,-228.5 207,-247.5 261,-247.5 261,-228.5 207,-228.5"/>
<text text-anchor="middle" x="234" y="-235.5" font-family="Helvetica,sans-Serif" font-size="10.00">sbuf_buf</text>
</a>
</g>
</g>
<!-- Node8&#45;&gt;Node9 -->
<g id="edge9" class="edge">
<title>Node8&#45;&gt;Node9</title>
<path fill="none" stroke="midnightblue" d="M163.62,-238C174.03,-238 185.79,-238 196.64,-238"/>
<polygon fill="midnightblue" stroke="midnightblue" points="196.69,-241.5 206.69,-238 196.69,-234.5 196.69,-241.5"/>
</g>
<!-- Node10 -->
<g id="node10" class="node">
<title>Node10</title>
<g id="a_node10"><a xlink:href="sbuf_8c.html#a4ad75f3948c0340c342a3ea3eb63a6e6" target="_top" xlink:title=" ">
<polygon fill="white" stroke="black" points="303,-209.5 303,-228.5 373,-228.5 373,-209.5 303,-209.5"/>
<text text-anchor="middle" x="338" y="-216.5" font-family="Helvetica,sans-Serif" font-size="10.00">sbuf_extend</text>
</a>
</g>
</g>
<!-- Node9&#45;&gt;Node10 -->
<g id="edge10" class="edge">
<title>Node9&#45;&gt;Node10</title>
<path fill="none" stroke="midnightblue" d="M261,-233.16C270.76,-231.34 282.15,-229.22 293.09,-227.18"/>
<polygon fill="midnightblue" stroke="midnightblue" points="293.76,-230.61 302.95,-225.34 292.48,-223.73 293.76,-230.61"/>
</g>
<!-- Node12&#45;&gt;Node10 -->
<g id="edge13" class="edge">
<title>Node12&#45;&gt;Node10</title>
<path fill="none" stroke="midnightblue" d="M265.05,-205.6C273.77,-207.22 283.47,-209.03 292.86,-210.78"/>
<polygon fill="midnightblue" stroke="midnightblue" points="292.4,-214.25 302.87,-212.64 293.68,-207.37 292.4,-214.25"/>
</g>
<!-- Node13&#45;&gt;Node12 -->
<g id="edge15" class="edge">
<title>Node13&#45;&gt;Node12</title>
<path fill="none" stroke="midnightblue" d="M158.61,-171.59C170.63,-176.18 185.21,-181.75 198.28,-186.74"/>
<polygon fill="midnightblue" stroke="midnightblue" points="197.31,-190.12 207.9,-190.41 199.81,-183.58 197.31,-190.12"/>
</g>
<!-- Node16 -->
<g id="node16" class="node">
<title>Node16</title>
<g id="a_node16"><a xlink:href="uc_8c.html#a111a8afd24172cae38d54d759a5dede5" target="_top" xlink:title=" ">
<polygon fill="white" stroke="black" points="202.5,-76.5 202.5,-95.5 265.5,-95.5 265.5,-76.5 202.5,-76.5"/>
<text text-anchor="middle" x="234" y="-83.5" font-family="Helvetica,sans-Serif" font-size="10.00">uc_isalpha</text>
</a>
</g>
</g>
<!-- Node15&#45;&gt;Node16 -->
<g id="edge19" class="edge">
<title>Node15&#45;&gt;Node16</title>
<path fill="none" stroke="midnightblue" d="M157.59,-57.2C169.9,-61.9 185.09,-67.7 198.61,-72.87"/>
<polygon fill="midnightblue" stroke="midnightblue" points="197.51,-76.19 208.1,-76.49 200,-69.65 197.51,-76.19"/>
</g>
<!-- Node17 -->
<g id="node17" class="node">
<title>Node17</title>
<g id="a_node17"><a xlink:href="uc_8c.html#a4beb9f2d6b6701d58f701ea92abcb1da" target="_top" xlink:title=" ">
<polygon fill="white" stroke="black" points="205,-38.5 205,-57.5 263,-57.5 263,-38.5 205,-38.5"/>
<text text-anchor="middle" x="234" y="-45.5" font-family="Helvetica,sans-Serif" font-size="10.00">uc_isdigit</text>
</a>
</g>
</g>
<!-- Node15&#45;&gt;Node17 -->
<g id="edge20" class="edge">
<title>Node15&#45;&gt;Node17</title>
<path fill="none" stroke="midnightblue" d="M157.59,-48C168.73,-48 182.24,-48 194.73,-48"/>
<polygon fill="midnightblue" stroke="midnightblue" points="194.9,-51.5 204.9,-48 194.9,-44.5 194.9,-51.5"/>
</g>
<!-- Node18 -->
<g id="node18" class="node">
<title>Node18</title>
<g id="a_node18"><a xlink:href="uc_8c.html#ab6be7e2b59f79b8952c13488e1cf036a" target="_top" xlink:title=" ">
<polygon fill="white" stroke="black" points="201,-0.5 201,-19.5 267,-19.5 267,-0.5 201,-0.5"/>
<text text-anchor="middle" x="234" y="-7.5" font-family="Helvetica,sans-Serif" font-size="10.00">uc_isspace</text>
</a>
</g>
</g>
<!-- Node15&#45;&gt;Node18 -->
<g id="edge21" class="edge">
<title>Node15&#45;&gt;Node18</title>
<path fill="none" stroke="midnightblue" d="M157.59,-38.8C169.9,-34.1 185.09,-28.3 198.61,-23.13"/>
<polygon fill="midnightblue" stroke="midnightblue" points="200,-26.35 208.1,-19.51 197.51,-19.81 200,-26.35"/>
</g>
</g>
</svg>
