<?xml version="1.0" encoding="UTF-8" standalone="no"?>
<!DOCTYPE svg PUBLIC "-//W3C//DTD SVG 1.1//EN"
 "http://www.w3.org/Graphics/SVG/1.1/DTD/svg11.dtd">
<!-- Generated by graphviz version 2.44.1 (20200629.0846)
 -->
<!-- Title: uc_isspace Pages: 1 -->
<!--zoomable 524 -->
<svg id="main" version="1.1" xmlns="http://www.w3.org/2000/svg" xmlns:xlink="http://www.w3.org/1999/xlink" xml:space="preserve" onload="init(evt)">
<style type="text/css"><![CDATA[
.edge:hover path { stroke: red; }
.edge:hover polygon { stroke: red; fill: red; }
]]></style>
<script type="text/javascript"><![CDATA[
var edges = document.getElementsByTagName('g');
if (edges && edges.length) {
  for (var i=0;i<edges.length;i++) {
    if (edges[i].id.substr(0,4)=='edge') {
      edges[i].setAttribute('class','edge');
    }
  }
}
]]></script>
        <defs>
                <circle id="rim" cx="0" cy="0" r="7"/>
                <circle id="rim2" cx="0" cy="0" r="3.5"/>
                <g id="zoomPlus">
                        <use xlink:href="#rim" fill="#404040">
                                <set attributeName="fill" to="#808080" begin="zoomplus.mouseover" end="zoomplus.mouseout"/>
                        </use>
                        <path d="M-4,0h8M0,-4v8" fill="none" stroke="white" stroke-width="1.5" pointer-events="none"/>
                </g>
                <g id="zoomMin">
                        <use xlink:href="#rim" fill="#404040">
                                <set attributeName="fill" to="#808080" begin="zoomminus.mouseover" end="zoomminus.mouseout"/>
                        </use>
                        <path d="M-4,0h8" fill="none" stroke="white" stroke-width="1.5" pointer-events="none"/>
                </g>
                <g id="dirArrow">
                        <path fill="none" stroke="white" stroke-width="1.5" d="M0,-3.0v7 M-2.5,-0.5L0,-3.0L2.5,-0.5"/>
                </g>
               <g id="resetDef">
                       <use xlink:href="#rim2" fill="#404040">
                               <set attributeName="fill" to="#808080" begin="reset.mouseover" end="reset.mouseout"/>
                       </use>
               </g>
        </defs>

<script type="text/javascript">
var viewWidth = 1015;
var viewHeight = 524;
var sectionId = 'dynsection-108';
</script>
<script xlink:href="svgpan.js"/>
<svg id="graph" class="graph">
<g id="viewport">
<title>uc_isspace</title>
<polygon fill="white" stroke="transparent" points="-4,4 -4,-520.13 1011,-520.13 1011,4 -4,4"/>
<!-- Node1 -->
<g id="node1" class="node">
<title>Node1</title>
<g id="a_node1"><a xlink:title=" ">
<polygon fill="#bfbfbf" stroke="black" points="941,-315.63 941,-334.63 1007,-334.63 1007,-315.63 941,-315.63"/>
<text text-anchor="middle" x="974" y="-322.63" font-family="Helvetica,sans-Serif" font-size="10.00">uc_isspace</text>
</a>
</g>
</g>
<!-- Node2 -->
<g id="node2" class="node">
<title>Node2</title>
<g id="a_node2"><a xlink:href="vi_8h.html#a813931c130c89b7e9e71f3d524b92705" target="_top" xlink:title=" ">
<polygon fill="white" stroke="black" points="334,-296.63 334,-315.63 403,-315.63 403,-296.63 334,-296.63"/>
<text text-anchor="middle" x="368.5" y="-303.63" font-family="Helvetica,sans-Serif" font-size="10.00">lbuf_indents</text>
</a>
</g>
</g>
<!-- Node1&#45;&gt;Node2 -->
<g id="edge1" class="edge">
<title>Node1&#45;&gt;Node2</title>
<path fill="none" stroke="midnightblue" d="M934.07,-312.67C895.99,-301.59 836.11,-287.13 783,-287.13 783,-287.13 783,-287.13 565.5,-287.13 508.24,-287.13 442,-295.27 403.05,-300.89"/>
<polygon fill="midnightblue" stroke="midnightblue" points="933.16,-316.05 943.74,-315.54 935.16,-309.34 933.16,-316.05"/>
</g>
<!-- Node12 -->
<g id="node12" class="node">
<title>Node12</title>
<g id="a_node12"><a xlink:href="vi_8h.html#a1bd5b9a4117b7cc986675b27e20059be" target="_top" xlink:title=" ">
<polygon fill="white" stroke="black" points="635,-429.63 635,-448.63 709,-448.63 709,-429.63 635,-429.63"/>
<text text-anchor="middle" x="672" y="-436.63" font-family="Helvetica,sans-Serif" font-size="10.00">lbuf_wordbeg</text>
</a>
</g>
</g>
<!-- Node1&#45;&gt;Node12 -->
<g id="edge18" class="edge">
<title>Node1&#45;&gt;Node12</title>
<path fill="none" stroke="midnightblue" d="M960.36,-343.03C947.83,-359.76 927.32,-384.58 905,-401.13 871.14,-426.24 860.16,-432.03 819,-441.13 782.24,-449.26 739,-447.29 709.17,-444.19"/>
<polygon fill="midnightblue" stroke="midnightblue" points="963.39,-344.81 966.46,-334.67 957.74,-340.68 963.39,-344.81"/>
</g>
<!-- Node13 -->
<g id="node13" class="node">
<title>Node13</title>
<g id="a_node13"><a xlink:href="vi_8h.html#a94c2499e381bfa3497978110b44fc71d" target="_top" xlink:title=" ">
<polygon fill="white" stroke="black" points="635,-372.63 635,-391.63 709,-391.63 709,-372.63 635,-372.63"/>
<text text-anchor="middle" x="672" y="-379.63" font-family="Helvetica,sans-Serif" font-size="10.00">lbuf_wordend</text>
</a>
</g>
</g>
<!-- Node1&#45;&gt;Node13 -->
<g id="edge20" class="edge">
<title>Node1&#45;&gt;Node13</title>
<path fill="none" stroke="midnightblue" d="M930.76,-333.16C871.51,-344.41 764.76,-364.7 709.05,-375.28"/>
<polygon fill="midnightblue" stroke="midnightblue" points="931.72,-336.54 940.89,-331.23 930.42,-329.66 931.72,-336.54"/>
</g>
<!-- Node14 -->
<g id="node14" class="node">
<title>Node14</title>
<g id="a_node14"><a xlink:href="led_8c.html#a402675adfde0f512af50ca2e7a656601" target="_top" xlink:title=" ">
<polygon fill="white" stroke="black" points="746.5,-239.63 746.5,-258.63 817.5,-258.63 817.5,-239.63 746.5,-239.63"/>
<text text-anchor="middle" x="782" y="-246.63" font-family="Helvetica,sans-Serif" font-size="10.00">led_lastword</text>
</a>
</g>
</g>
<!-- Node1&#45;&gt;Node14 -->
<g id="edge22" class="edge">
<title>Node1&#45;&gt;Node14</title>
<path fill="none" stroke="midnightblue" d="M955.75,-308.32C942.82,-296.66 924.12,-281.75 905,-273.13 877.15,-260.58 842.82,-254.57 817.67,-251.71"/>
<polygon fill="midnightblue" stroke="midnightblue" points="953.66,-311.15 963.37,-315.4 958.43,-306.03 953.66,-311.15"/>
</g>
<!-- Node27 -->
<g id="node27" class="node">
<title>Node27</title>
<g id="a_node27"><a xlink:href="vi_8h.html#a11275a0a4c95061c99fe7462ef3cf1b3" target="_top" xlink:title=" ">
<polygon fill="white" stroke="black" points="855,-372.63 855,-391.63 905,-391.63 905,-372.63 855,-372.63"/>
<text text-anchor="middle" x="880" y="-379.63" font-family="Helvetica,sans-Serif" font-size="10.00">uc_kind</text>
</a>
</g>
</g>
<!-- Node1&#45;&gt;Node27 -->
<g id="edge42" class="edge">
<title>Node1&#45;&gt;Node27</title>
<path fill="none" stroke="midnightblue" d="M948.76,-340.15C932.16,-350.43 910.66,-363.76 896.38,-372.61"/>
<polygon fill="midnightblue" stroke="midnightblue" points="950.74,-343.04 957.39,-334.8 947.05,-337.09 950.74,-343.04"/>
</g>
<!-- Node3 -->
<g id="node3" class="node">
<title>Node3</title>
<g id="a_node3"><a xlink:href="vi_8c.html#a8bb357a77ed61da8858f138c6fa672a6" target="_top" xlink:title=" ">
<polygon fill="white" stroke="black" points="239.5,-125.63 239.5,-144.63 295.5,-144.63 295.5,-125.63 239.5,-125.63"/>
<text text-anchor="middle" x="267.5" y="-132.63" font-family="Helvetica,sans-Serif" font-size="10.00">vc_insert</text>
</a>
</g>
</g>
<!-- Node2&#45;&gt;Node3 -->
<g id="edge2" class="edge">
<title>Node2&#45;&gt;Node3</title>
<path fill="none" stroke="midnightblue" d="M359.21,-287.26C341.82,-247.77 302.71,-159.57 298,-154.13 294.89,-150.54 290.94,-147.37 286.94,-144.71"/>
<polygon fill="midnightblue" stroke="midnightblue" points="356.09,-288.85 363.32,-296.59 362.49,-286.03 356.09,-288.85"/>
</g>
<!-- Node4 -->
<g id="node4" class="node">
<title>Node4</title>
<g id="a_node4"><a xlink:href="vi_8c.html#a8d808e0f3453afe6600673ee1ea5f828" target="_top" xlink:title=" ">
<polygon fill="white" stroke="black" points="74,-177.63 74,-196.63 103,-196.63 103,-177.63 74,-177.63"/>
<text text-anchor="middle" x="88.5" y="-184.63" font-family="Helvetica,sans-Serif" font-size="10.00">vi</text>
</a>
</g>
</g>
<!-- Node2&#45;&gt;Node4 -->
<g id="edge7" class="edge">
<title>Node2&#45;&gt;Node4</title>
<path fill="none" stroke="midnightblue" d="M345.52,-321.61C341.65,-324.41 337.69,-327.33 334,-330.13 317.64,-342.56 317.38,-352.3 298,-359.13 231.06,-382.74 192.89,-390.33 139,-344.13 93.43,-305.07 89.31,-224.45 89.31,-196.73"/>
<polygon fill="midnightblue" stroke="midnightblue" points="347.59,-324.43 353.68,-315.77 343.51,-318.74 347.59,-324.43"/>
</g>
<!-- Node6 -->
<g id="node6" class="node">
<title>Node6</title>
<g id="a_node6"><a xlink:href="vi_8c.html#a7611a5bcfe4c4ddc58233c4c52a8fa16" target="_top" xlink:title=" ">
<polygon fill="white" stroke="black" points="147,-315.63 147,-334.63 193,-334.63 193,-315.63 147,-315.63"/>
<text text-anchor="middle" x="170" y="-322.63" font-family="Helvetica,sans-Serif" font-size="10.00">vc_put</text>
</a>
</g>
</g>
<!-- Node2&#45;&gt;Node6 -->
<g id="edge5" class="edge">
<title>Node2&#45;&gt;Node6</title>
<path fill="none" stroke="midnightblue" d="M346.15,-321.47C332.97,-329.98 315.32,-339.71 298,-344.13 261.93,-353.35 218.87,-342.46 193.3,-333.77"/>
<polygon fill="midnightblue" stroke="midnightblue" points="348.16,-324.34 354.5,-315.86 344.25,-318.53 348.16,-324.34"/>
</g>
<!-- Node7 -->
<g id="node7" class="node">
<title>Node7</title>
<g id="a_node7"><a xlink:href="vi_8c.html#a4e8a00c8cdffacf0c69c3901cdcdf059" target="_top" xlink:title=" ">
<polygon fill="white" stroke="black" points="242.5,-277.63 242.5,-296.63 292.5,-296.63 292.5,-277.63 242.5,-277.63"/>
<text text-anchor="middle" x="267.5" y="-284.63" font-family="Helvetica,sans-Serif" font-size="10.00">vi_case</text>
</a>
</g>
</g>
<!-- Node2&#45;&gt;Node7 -->
<g id="edge8" class="edge">
<title>Node2&#45;&gt;Node7</title>
<path fill="none" stroke="midnightblue" d="M323.87,-297.76C313.13,-295.7 302.02,-293.57 292.6,-291.76"/>
<polygon fill="midnightblue" stroke="midnightblue" points="323.5,-301.25 333.98,-299.7 324.82,-294.38 323.5,-301.25"/>
</g>
<!-- Node9 -->
<g id="node9" class="node">
<title>Node9</title>
<g id="a_node9"><a xlink:href="vi_8c.html#abfa30fc2e2b4b8b24e2ee5d4bd54f2eb" target="_top" xlink:title=" ">
<polygon fill="white" stroke="black" points="239.5,-239.63 239.5,-258.63 295.5,-258.63 295.5,-239.63 239.5,-239.63"/>
<text text-anchor="middle" x="267.5" y="-246.63" font-family="Helvetica,sans-Serif" font-size="10.00">vi_delete</text>
</a>
</g>
</g>
<!-- Node2&#45;&gt;Node9 -->
<g id="edge11" class="edge">
<title>Node2&#45;&gt;Node9</title>
<path fill="none" stroke="midnightblue" d="M341.91,-291.4C323.98,-281.08 300.56,-267.59 285.05,-258.66"/>
<polygon fill="midnightblue" stroke="midnightblue" points="340.29,-294.51 350.71,-296.46 343.79,-288.44 340.29,-294.51"/>
</g>
<!-- Node10 -->
<g id="node10" class="node">
<title>Node10</title>
<g id="a_node10"><a xlink:href="vi_8c.html#aaa4777ea0715ea846346d0f27a0cfa3f" target="_top" xlink:title=" ">
<polygon fill="white" stroke="black" points="238,-429.63 238,-448.63 297,-448.63 297,-429.63 238,-429.63"/>
<text text-anchor="middle" x="267.5" y="-436.63" font-family="Helvetica,sans-Serif" font-size="10.00">vi_motion</text>
</a>
</g>
</g>
<!-- Node2&#45;&gt;Node10 -->
<g id="edge13" class="edge">
<title>Node2&#45;&gt;Node10</title>
<path fill="none" stroke="midnightblue" d="M342.2,-321.87C339.21,-324.39 336.37,-327.16 334,-330.13 308.37,-362.16 322.64,-382.33 298,-415.13 293.88,-420.62 288.23,-425.61 282.99,-429.6"/>
<polygon fill="midnightblue" stroke="midnightblue" points="344.42,-324.58 350.32,-315.78 340.22,-318.98 344.42,-324.58"/>
</g>
<!-- Node11 -->
<g id="node11" class="node">
<title>Node11</title>
<g id="a_node11"><a xlink:href="vi_8c.html#a48860be78b002b73335ae1b47dd56929" target="_top" xlink:title=" ">
<polygon fill="white" stroke="black" points="243.5,-315.63 243.5,-334.63 291.5,-334.63 291.5,-315.63 243.5,-315.63"/>
<text text-anchor="middle" x="267.5" y="-322.63" font-family="Helvetica,sans-Serif" font-size="10.00">vi_shift</text>
</a>
</g>
</g>
<!-- Node2&#45;&gt;Node11 -->
<g id="edge16" class="edge">
<title>Node2&#45;&gt;Node11</title>
<path fill="none" stroke="midnightblue" d="M323.96,-314.49C312.84,-316.62 301.32,-318.83 291.68,-320.68"/>
<polygon fill="midnightblue" stroke="midnightblue" points="324.82,-317.89 333.98,-312.56 323.5,-311.01 324.82,-317.89"/>
</g>
<!-- Node3&#45;&gt;Node4 -->
<g id="edge3" class="edge">
<title>Node3&#45;&gt;Node4</title>
<path fill="none" stroke="midnightblue" d="M229.46,-146.01C190.1,-157.58 129.93,-175.25 103.16,-183.12"/>
<polygon fill="midnightblue" stroke="midnightblue" points="230.62,-149.32 239.23,-143.14 228.65,-142.6 230.62,-149.32"/>
</g>
<!-- Node5 -->
<g id="node5" class="node">
<title>Node5</title>
<g id="a_node5"><a xlink:href="vi_8c.html#a0ddf1224851353fc92bfbff6f499fa97" target="_top" xlink:title=" ">
<polygon fill="white" stroke="black" points="0,-92.63 0,-111.63 38,-111.63 38,-92.63 0,-92.63"/>
<text text-anchor="middle" x="19" y="-99.63" font-family="Helvetica,sans-Serif" font-size="10.00">main</text>
</a>
</g>
</g>
<!-- Node4&#45;&gt;Node5 -->
<g id="edge4" class="edge">
<title>Node4&#45;&gt;Node5</title>
<path fill="none" stroke="midnightblue" d="M73.18,-169.1C59.27,-151.58 38.69,-125.67 27.65,-111.77"/>
<polygon fill="midnightblue" stroke="midnightblue" points="70.8,-171.73 79.76,-177.38 76.28,-167.37 70.8,-171.73"/>
</g>
<!-- Node6&#45;&gt;Node4 -->
<g id="edge6" class="edge">
<title>Node6&#45;&gt;Node4</title>
<path fill="none" stroke="midnightblue" d="M158.12,-306.24C140.98,-276.49 108.29,-219.75 95.17,-196.97"/>
<polygon fill="midnightblue" stroke="midnightblue" points="155.26,-308.29 163.28,-315.21 161.32,-304.8 155.26,-308.29"/>
</g>
<!-- Node8 -->
<g id="node8" class="node">
<title>Node8</title>
<g id="a_node8"><a xlink:href="vi_8c.html#a06cbc6eb843436a0e77e07cbab0c4538" target="_top" xlink:title=" ">
<polygon fill="white" stroke="black" points="139,-239.63 139,-258.63 201,-258.63 201,-239.63 139,-239.63"/>
<text text-anchor="middle" x="170" y="-246.63" font-family="Helvetica,sans-Serif" font-size="10.00">vc_motion</text>
</a>
</g>
</g>
<!-- Node7&#45;&gt;Node8 -->
<g id="edge9" class="edge">
<title>Node7&#45;&gt;Node8</title>
<path fill="none" stroke="midnightblue" d="M232.79,-273.72C220.35,-268.77 206.51,-263.26 195.09,-258.72"/>
<polygon fill="midnightblue" stroke="midnightblue" points="231.82,-277.1 242.4,-277.54 234.4,-270.59 231.82,-277.1"/>
</g>
<!-- Node8&#45;&gt;Node4 -->
<g id="edge10" class="edge">
<title>Node8&#45;&gt;Node4</title>
<path fill="none" stroke="midnightblue" d="M148.51,-233.15C133.74,-221.63 114.29,-206.46 101.83,-196.75"/>
<polygon fill="midnightblue" stroke="midnightblue" points="146.54,-236.05 156.58,-239.44 150.85,-230.53 146.54,-236.05"/>
</g>
<!-- Node9&#45;&gt;Node8 -->
<g id="edge12" class="edge">
<title>Node9&#45;&gt;Node8</title>
<path fill="none" stroke="midnightblue" d="M229.22,-249.13C219.94,-249.13 210.1,-249.13 201.2,-249.13"/>
<polygon fill="midnightblue" stroke="midnightblue" points="229.39,-252.63 239.39,-249.13 229.39,-245.63 229.39,-252.63"/>
</g>
<!-- Node10&#45;&gt;Node4 -->
<g id="edge15" class="edge">
<title>Node10&#45;&gt;Node4</title>
<path fill="none" stroke="midnightblue" d="M227.52,-442.36C199.27,-442.46 162.12,-437.62 139,-415.13 106.84,-383.85 93.28,-236.01 90.2,-196.73"/>
<polygon fill="midnightblue" stroke="midnightblue" points="227.95,-445.85 237.87,-442.1 227.78,-438.85 227.95,-445.85"/>
</g>
<!-- Node10&#45;&gt;Node8 -->
<g id="edge14" class="edge">
<title>Node10&#45;&gt;Node8</title>
<path fill="none" stroke="midnightblue" d="M257.45,-420.36C244.96,-394.53 221.62,-346.63 201,-306.13 192.47,-289.39 182.22,-270.07 176.18,-258.77"/>
<polygon fill="midnightblue" stroke="midnightblue" points="254.32,-421.93 261.82,-429.41 260.62,-418.88 254.32,-421.93"/>
</g>
<!-- Node11&#45;&gt;Node8 -->
<g id="edge17" class="edge">
<title>Node11&#45;&gt;Node8</title>
<path fill="none" stroke="midnightblue" d="M242.01,-309.74C240.29,-308.55 238.61,-307.34 237,-306.13 216.39,-290.71 194.05,-270.64 181.36,-258.89"/>
<polygon fill="midnightblue" stroke="midnightblue" points="240.35,-312.84 250.61,-315.47 244.23,-307.01 240.35,-312.84"/>
</g>
<!-- Node12&#45;&gt;Node10 -->
<g id="edge19" class="edge">
<title>Node12&#45;&gt;Node10</title>
<path fill="none" stroke="midnightblue" d="M624.67,-439.13C540.76,-439.13 365.95,-439.13 297.18,-439.13"/>
<polygon fill="midnightblue" stroke="midnightblue" points="624.93,-442.63 634.93,-439.13 624.93,-435.63 624.93,-442.63"/>
</g>
<!-- Node13&#45;&gt;Node10 -->
<g id="edge21" class="edge">
<title>Node13&#45;&gt;Node10</title>
<path fill="none" stroke="midnightblue" d="M624.93,-388.66C541.12,-400.52 366.02,-425.32 297.18,-435.07"/>
<polygon fill="midnightblue" stroke="midnightblue" points="625.52,-392.11 634.93,-387.24 624.53,-385.18 625.52,-392.11"/>
</g>
<!-- Node15 -->
<g id="node15" class="node">
<title>Node15</title>
<g id="a_node15"><a xlink:href="led_8c.html#a617ec615e86687b5c10df33b271256c8" target="_top" xlink:title=" ">
<polygon fill="white" stroke="black" points="647,-201.63 647,-220.63 697,-220.63 697,-201.63 647,-201.63"/>
<text text-anchor="middle" x="672" y="-208.63" font-family="Helvetica,sans-Serif" font-size="10.00">led_line</text>
</a>
</g>
</g>
<!-- Node14&#45;&gt;Node15 -->
<g id="edge23" class="edge">
<title>Node14&#45;&gt;Node15</title>
<path fill="none" stroke="midnightblue" d="M743.96,-236.1C728.54,-230.67 711.05,-224.52 697.3,-219.68"/>
<polygon fill="midnightblue" stroke="midnightblue" points="743.15,-239.53 753.75,-239.54 745.48,-232.92 743.15,-239.53"/>
</g>
<!-- Node16 -->
<g id="node16" class="node">
<title>Node16</title>
<g id="a_node16"><a xlink:href="vi_8h.html#ae72255a31cec31233723c101d9465d07" target="_top" xlink:title=" ">
<polygon fill="white" stroke="black" points="538.5,-163.63 538.5,-182.63 594.5,-182.63 594.5,-163.63 538.5,-163.63"/>
<text text-anchor="middle" x="566.5" y="-170.63" font-family="Helvetica,sans-Serif" font-size="10.00">led_input</text>
</a>
</g>
</g>
<!-- Node15&#45;&gt;Node16 -->
<g id="edge24" class="edge">
<title>Node15&#45;&gt;Node16</title>
<path fill="none" stroke="midnightblue" d="M637.53,-198.84C623.27,-193.61 606.88,-187.59 593.55,-182.7"/>
<polygon fill="midnightblue" stroke="midnightblue" points="636.4,-202.16 646.99,-202.32 638.81,-195.59 636.4,-202.16"/>
</g>
<!-- Node19 -->
<g id="node19" class="node">
<title>Node19</title>
<g id="a_node19"><a xlink:href="vi_8h.html#a173bb468e1e2a066136316f98b49c108" target="_top" xlink:title=" ">
<polygon fill="white" stroke="black" points="534,-201.63 534,-220.63 599,-220.63 599,-201.63 534,-201.63"/>
<text text-anchor="middle" x="566.5" y="-208.63" font-family="Helvetica,sans-Serif" font-size="10.00">led_prompt</text>
</a>
</g>
</g>
<!-- Node15&#45;&gt;Node19 -->
<g id="edge29" class="edge">
<title>Node15&#45;&gt;Node19</title>
<path fill="none" stroke="midnightblue" d="M636.8,-211.13C624.69,-211.13 611.12,-211.13 599.22,-211.13"/>
<polygon fill="midnightblue" stroke="midnightblue" points="636.99,-214.63 646.99,-211.13 636.99,-207.63 636.99,-214.63"/>
</g>
<!-- Node17 -->
<g id="node17" class="node">
<title>Node17</title>
<g id="a_node17"><a xlink:href="vi_8c.html#a653f6b0359cef492e11f404c4bf469b9" target="_top" xlink:title=" ">
<polygon fill="white" stroke="black" points="343.5,-163.63 343.5,-182.63 393.5,-182.63 393.5,-163.63 343.5,-163.63"/>
<text text-anchor="middle" x="368.5" y="-170.63" font-family="Helvetica,sans-Serif" font-size="10.00">vi_input</text>
</a>
</g>
</g>
<!-- Node16&#45;&gt;Node17 -->
<g id="edge25" class="edge">
<title>Node16&#45;&gt;Node17</title>
<path fill="none" stroke="midnightblue" d="M528.21,-173.13C488.69,-173.13 427.43,-173.13 393.75,-173.13"/>
<polygon fill="midnightblue" stroke="midnightblue" points="528.25,-176.63 538.25,-173.13 528.25,-169.63 528.25,-176.63"/>
</g>
<!-- Node17&#45;&gt;Node3 -->
<g id="edge26" class="edge">
<title>Node17&#45;&gt;Node3</title>
<path fill="none" stroke="midnightblue" d="M333.61,-160.12C320.46,-155.07 305.66,-149.4 293.5,-144.73"/>
<polygon fill="midnightblue" stroke="midnightblue" points="332.69,-163.52 343.28,-163.84 335.2,-156.98 332.69,-163.52"/>
</g>
<!-- Node18 -->
<g id="node18" class="node">
<title>Node18</title>
<g id="a_node18"><a xlink:href="vi_8c.html#ae37b094c3bb647d8c1a4ac4e858ce518" target="_top" xlink:title=" ">
<polygon fill="white" stroke="black" points="237,-163.63 237,-182.63 298,-182.63 298,-163.63 237,-163.63"/>
<text text-anchor="middle" x="267.5" y="-170.63" font-family="Helvetica,sans-Serif" font-size="10.00">vi_change</text>
</a>
</g>
</g>
<!-- Node17&#45;&gt;Node18 -->
<g id="edge27" class="edge">
<title>Node17&#45;&gt;Node18</title>
<path fill="none" stroke="midnightblue" d="M333.21,-173.13C321.78,-173.13 309.16,-173.13 298.12,-173.13"/>
<polygon fill="midnightblue" stroke="midnightblue" points="333.28,-176.63 343.28,-173.13 333.28,-169.63 333.28,-176.63"/>
</g>
<!-- Node18&#45;&gt;Node8 -->
<g id="edge28" class="edge">
<title>Node18&#45;&gt;Node8</title>
<path fill="none" stroke="midnightblue" d="M246.56,-189C227.35,-204.28 198.95,-226.89 183,-239.58"/>
<polygon fill="midnightblue" stroke="midnightblue" points="248.76,-191.72 254.4,-182.76 244.4,-186.25 248.76,-191.72"/>
</g>
<!-- Node20 -->
<g id="node20" class="node">
<title>Node20</title>
<g id="a_node20"><a xlink:href="vi_8h.html#a7ba56272fe1a7d523192729a0bb5edf7" target="_top" xlink:title=" ">
<polygon fill="white" stroke="black" points="242,-35.63 242,-54.63 293,-54.63 293,-35.63 242,-35.63"/>
<text text-anchor="middle" x="267.5" y="-42.63" font-family="Helvetica,sans-Serif" font-size="10.00">ex_read</text>
</a>
</g>
</g>
<!-- Node19&#45;&gt;Node20 -->
<g id="edge30" class="edge">
<title>Node19&#45;&gt;Node20</title>
<path fill="none" stroke="midnightblue" d="M539.8,-196.08C537.82,-194.78 535.86,-193.46 534,-192.13 472.28,-148.22 470.02,-118.42 403,-83.13 367.25,-64.31 321.11,-53.9 293.22,-48.92"/>
<polygon fill="midnightblue" stroke="midnightblue" points="538.19,-199.2 548.52,-201.53 541.9,-193.26 538.19,-199.2"/>
</g>
<!-- Node24 -->
<g id="node24" class="node">
<title>Node24</title>
<g id="a_node24"><a xlink:href="vi_8c.html#a57965473297aad4c4333fdd3897c11f3" target="_top" xlink:title=" ">
<polygon fill="white" stroke="black" points="439,-201.63 439,-220.63 498,-220.63 498,-201.63 439,-201.63"/>
<text text-anchor="middle" x="468.5" y="-208.63" font-family="Helvetica,sans-Serif" font-size="10.00">vi_prompt</text>
</a>
</g>
</g>
<!-- Node19&#45;&gt;Node24 -->
<g id="edge36" class="edge">
<title>Node19&#45;&gt;Node24</title>
<path fill="none" stroke="midnightblue" d="M523.58,-211.13C515.03,-211.13 506.22,-211.13 498.25,-211.13"/>
<polygon fill="midnightblue" stroke="midnightblue" points="523.8,-214.63 533.8,-211.13 523.8,-207.63 523.8,-214.63"/>
</g>
<!-- Node21 -->
<g id="node21" class="node">
<title>Node21</title>
<g id="a_node21"><a xlink:href="ex_8c.html#a0908784dc65be2da119a6b72ef96dec2" target="_top" xlink:title=" ">
<polygon fill="white" stroke="black" points="142,-16.63 142,-35.63 198,-35.63 198,-16.63 142,-16.63"/>
<text text-anchor="middle" x="170" y="-23.63" font-family="Helvetica,sans-Serif" font-size="10.00">ec_insert</text>
</a>
</g>
</g>
<!-- Node20&#45;&gt;Node21 -->
<g id="edge31" class="edge">
<title>Node20&#45;&gt;Node21</title>
<path fill="none" stroke="midnightblue" d="M232.05,-38.28C220.92,-36.06 208.74,-33.64 198.2,-31.54"/>
<polygon fill="midnightblue" stroke="midnightblue" points="231.42,-41.72 241.91,-40.24 232.78,-34.85 231.42,-41.72"/>
</g>
<!-- Node22 -->
<g id="node22" class="node">
<title>Node22</title>
<g id="a_node22"><a xlink:href="vi_8h.html#ac395e51f25330a6e6033b6d0d22b2076" target="_top" xlink:title=" ">
<polygon fill="white" stroke="black" points="74,-73.63 74,-92.63 103,-92.63 103,-73.63 74,-73.63"/>
<text text-anchor="middle" x="88.5" y="-80.63" font-family="Helvetica,sans-Serif" font-size="10.00">ex</text>
</a>
</g>
</g>
<!-- Node20&#45;&gt;Node22 -->
<g id="edge32" class="edge">
<title>Node20&#45;&gt;Node22</title>
<path fill="none" stroke="midnightblue" d="M245.9,-29.62C219.82,-12.04 174.06,11.87 139,-7.13 112.7,-21.39 98.17,-56.35 92.43,-73.43"/>
<polygon fill="midnightblue" stroke="midnightblue" points="244.06,-32.61 254.26,-35.5 248.09,-26.89 244.06,-32.61"/>
</g>
<!-- Node23 -->
<g id="node23" class="node">
<title>Node23</title>
<g id="a_node23"><a xlink:href="vi_8c.html#a9d85e9ed087401367529ab86a5dbf0c5" target="_top" xlink:title=" ">
<polygon fill="white" stroke="black" points="146.5,-54.63 146.5,-73.63 193.5,-73.63 193.5,-54.63 146.5,-54.63"/>
<text text-anchor="middle" x="170" y="-61.63" font-family="Helvetica,sans-Serif" font-size="10.00">vi_wait</text>
</a>
</g>
</g>
<!-- Node20&#45;&gt;Node23 -->
<g id="edge34" class="edge">
<title>Node20&#45;&gt;Node23</title>
<path fill="none" stroke="midnightblue" d="M232.01,-51.99C219.2,-54.54 205.02,-57.36 193.55,-59.65"/>
<polygon fill="midnightblue" stroke="midnightblue" points="232.78,-55.41 241.91,-50.02 231.42,-48.54 232.78,-55.41"/>
</g>
<!-- Node22&#45;&gt;Node5 -->
<g id="edge33" class="edge">
<title>Node22&#45;&gt;Node5</title>
<path fill="none" stroke="midnightblue" d="M64.14,-89.71C55.67,-92.09 46.22,-94.75 38.25,-97"/>
<polygon fill="midnightblue" stroke="midnightblue" points="65.16,-93.06 73.84,-86.98 63.27,-86.32 65.16,-93.06"/>
</g>
<!-- Node23&#45;&gt;Node4 -->
<g id="edge35" class="edge">
<title>Node23&#45;&gt;Node4</title>
<path fill="none" stroke="midnightblue" d="M146.61,-80.2C143.87,-82.68 141.25,-85.35 139,-88.13 115.56,-117.12 99.22,-159.03 92.68,-177.63"/>
<polygon fill="midnightblue" stroke="midnightblue" points="148.94,-82.82 154.44,-73.76 144.5,-77.41 148.94,-82.82"/>
</g>
<!-- Node24&#45;&gt;Node4 -->
<g id="edge37" class="edge">
<title>Node24&#45;&gt;Node4</title>
<path fill="none" stroke="midnightblue" d="M451.57,-193.92C439.28,-181.48 421.34,-165.02 403,-154.13 360.32,-128.81 346.88,-124.71 298,-116.13 226.82,-103.65 202.83,-116.26 139,-150.13 124.59,-157.78 109.84,-169.39 100.24,-177.56"/>
<polygon fill="midnightblue" stroke="midnightblue" points="449.32,-196.63 458.77,-201.42 454.36,-191.78 449.32,-196.63"/>
</g>
<!-- Node25 -->
<g id="node25" class="node">
<title>Node25</title>
<g id="a_node25"><a xlink:href="vi_8c.html#ab8e0c9b9d2ef5161c6a3a8828606df5f" target="_top" xlink:title=" ">
<polygon fill="white" stroke="black" points="345,-201.63 345,-220.63 392,-220.63 392,-201.63 345,-201.63"/>
<text text-anchor="middle" x="368.5" y="-208.63" font-family="Helvetica,sans-Serif" font-size="10.00">vi_pipe</text>
</a>
</g>
</g>
<!-- Node24&#45;&gt;Node25 -->
<g id="edge38" class="edge">
<title>Node24&#45;&gt;Node25</title>
<path fill="none" stroke="midnightblue" d="M428.74,-211.13C416.3,-211.13 402.95,-211.13 392.07,-211.13"/>
<polygon fill="midnightblue" stroke="midnightblue" points="428.89,-214.63 438.89,-211.13 428.89,-207.63 428.89,-214.63"/>
</g>
<!-- Node26 -->
<g id="node26" class="node">
<title>Node26</title>
<g id="a_node26"><a xlink:href="vi_8c.html#a93701c59617d4f96cbaa207e89178f87" target="_top" xlink:title=" ">
<polygon fill="white" stroke="black" points="339,-339.63 339,-358.63 398,-358.63 398,-339.63 339,-339.63"/>
<text text-anchor="middle" x="368.5" y="-346.63" font-family="Helvetica,sans-Serif" font-size="10.00">vi_search</text>
</a>
</g>
</g>
<!-- Node24&#45;&gt;Node26 -->
<g id="edge40" class="edge">
<title>Node24&#45;&gt;Node26</title>
<path fill="none" stroke="midnightblue" d="M459.75,-230.3C449.38,-254.35 429.21,-295.96 403,-325.13 398.12,-330.56 391.81,-335.47 385.99,-339.42"/>
<polygon fill="midnightblue" stroke="midnightblue" points="463.07,-231.45 463.7,-220.88 456.61,-228.75 463.07,-231.45"/>
</g>
<!-- Node25&#45;&gt;Node8 -->
<g id="edge39" class="edge">
<title>Node25&#45;&gt;Node8</title>
<path fill="none" stroke="midnightblue" d="M334.44,-214.69C307.93,-217.84 269.85,-223.05 237,-230.13 225.11,-232.7 212.22,-236.23 201.01,-239.56"/>
<polygon fill="midnightblue" stroke="midnightblue" points="335.17,-218.13 344.7,-213.5 334.36,-211.17 335.17,-218.13"/>
</g>
<!-- Node26&#45;&gt;Node10 -->
<g id="edge41" class="edge">
<title>Node26&#45;&gt;Node10</title>
<path fill="none" stroke="midnightblue" d="M350.46,-366.02C336.59,-379.58 316.38,-398.97 298,-415.13 292.45,-420.01 286.11,-425.22 280.73,-429.53"/>
<polygon fill="midnightblue" stroke="midnightblue" points="353.15,-368.28 357.82,-358.77 348.24,-363.29 353.15,-368.28"/>
</g>
<!-- Node27&#45;&gt;Node12 -->
<g id="edge43" class="edge">
<title>Node27&#45;&gt;Node12</title>
<path fill="none" stroke="midnightblue" d="M859.24,-397.75C848.06,-405.76 833.46,-414.9 819,-420.13 783.06,-433.13 739.31,-437.42 709.12,-438.75"/>
<polygon fill="midnightblue" stroke="midnightblue" points="861.48,-400.44 867.41,-391.66 857.3,-394.83 861.48,-400.44"/>
</g>
<!-- Node27&#45;&gt;Node13 -->
<g id="edge44" class="edge">
<title>Node27&#45;&gt;Node13</title>
<path fill="none" stroke="midnightblue" d="M844.57,-382.13C807.12,-382.13 747.51,-382.13 709.33,-382.13"/>
<polygon fill="midnightblue" stroke="midnightblue" points="844.97,-385.63 854.97,-382.13 844.97,-378.63 844.97,-385.63"/>
</g>
<!-- Node27&#45;&gt;Node14 -->
<g id="edge48" class="edge">
<title>Node27&#45;&gt;Node14</title>
<path fill="none" stroke="midnightblue" d="M866.16,-364.34C845.66,-335.94 806.2,-281.27 790.1,-258.97"/>
<polygon fill="midnightblue" stroke="midnightblue" points="863.41,-366.51 872.1,-372.57 869.08,-362.41 863.41,-366.51"/>
</g>
<!-- Node28 -->
<g id="node28" class="node">
<title>Node28</title>
<g id="a_node28"><a xlink:href="mot_8c.html#a644f779e0e815979c646ea210c3a1594" target="_top" xlink:title=" ">
<polygon fill="white" stroke="black" points="745,-391.63 745,-410.63 819,-410.63 819,-391.63 745,-391.63"/>
<text text-anchor="middle" x="782" y="-398.63" font-family="Helvetica,sans-Serif" font-size="10.00">lbuf_wordlast</text>
</a>
</g>
</g>
<!-- Node27&#45;&gt;Node28 -->
<g id="edge45" class="edge">
<title>Node27&#45;&gt;Node28</title>
<path fill="none" stroke="midnightblue" d="M844.7,-388.92C836.42,-390.56 827.56,-392.31 819.2,-393.97"/>
<polygon fill="midnightblue" stroke="midnightblue" points="845.64,-392.3 854.78,-386.93 844.29,-385.43 845.64,-392.3"/>
</g>
<!-- Node29 -->
<g id="node29" class="node">
<title>Node29</title>
<g id="a_node29"><a xlink:href="vi_8c.html#a845a69e411d4378f818ca75e092db7dc" target="_top" xlink:title=" ">
<polygon fill="white" stroke="black" points="534.5,-496.63 534.5,-515.63 598.5,-515.63 598.5,-496.63 534.5,-496.63"/>
<text text-anchor="middle" x="566.5" y="-503.63" font-family="Helvetica,sans-Serif" font-size="10.00">vi_curword</text>
</a>
</g>
</g>
<!-- Node27&#45;&gt;Node29 -->
<g id="edge49" class="edge">
<title>Node27&#45;&gt;Node29</title>
<path fill="none" stroke="midnightblue" d="M865.57,-399.63C854.47,-412.91 837.57,-430.63 819,-441.13 746.78,-482 648.45,-497.7 598.85,-503.3"/>
<polygon fill="midnightblue" stroke="midnightblue" points="868.44,-401.64 871.99,-391.66 862.99,-397.25 868.44,-401.64"/>
</g>
<!-- Node28&#45;&gt;Node12 -->
<g id="edge46" class="edge">
<title>Node28&#45;&gt;Node12</title>
<path fill="none" stroke="midnightblue" d="M744.13,-414.1C729.74,-419.17 713.55,-424.87 700.24,-429.55"/>
<polygon fill="midnightblue" stroke="midnightblue" points="745.48,-417.34 753.75,-410.72 743.15,-410.74 745.48,-417.34"/>
</g>
<!-- Node28&#45;&gt;Node13 -->
<g id="edge47" class="edge">
<title>Node28&#45;&gt;Node13</title>
<path fill="none" stroke="midnightblue" d="M734.61,-392.97C726.16,-391.48 717.46,-389.95 709.35,-388.53"/>
<polygon fill="midnightblue" stroke="midnightblue" points="734.28,-396.47 744.74,-394.75 735.49,-389.57 734.28,-396.47"/>
</g>
<!-- Node29&#45;&gt;Node10 -->
<g id="edge50" class="edge">
<title>Node29&#45;&gt;Node10</title>
<path fill="none" stroke="midnightblue" d="M524.21,-496.82C463.06,-483.02 349.97,-457.51 297.12,-445.59"/>
<polygon fill="midnightblue" stroke="midnightblue" points="523.75,-500.3 534.28,-499.09 525.29,-493.47 523.75,-500.3"/>
</g>
</g>
</svg>
        <g id="navigator" transform="translate(0 0)" fill="#404254">
                <rect fill="#f2f5e9" fill-opacity="0.5" stroke="#606060" stroke-width=".5" x="0" y="0" width="60" height="60"/>
                <use id="zoomplus" xlink:href="#zoomPlus" x="17" y="9" onmousedown="handleZoom(evt,'in')"/>
                <use id="zoomminus" xlink:href="#zoomMin" x="42" y="9" onmousedown="handleZoom(evt,'out')"/>
                <use id="reset" xlink:href="#resetDef" x="30" y="36" onmousedown="handleReset()"/>
                <g id="arrowUp" xlink:href="#dirArrow" transform="translate(30 24)" onmousedown="handlePan(0,-1)">
                  <use xlink:href="#rim" fill="#404040">
                        <set attributeName="fill" to="#808080" begin="arrowUp.mouseover" end="arrowUp.mouseout"/>
                  </use>
                  <path fill="none" stroke="white" stroke-width="1.5" d="M0,-3.0v7 M-2.5,-0.5L0,-3.0L2.5,-0.5"/>
                </g>
                <g id="arrowRight" xlink:href="#dirArrow" transform="rotate(90) translate(36 -43)" onmousedown="handlePan(1,0)">
                  <use xlink:href="#rim" fill="#404040">
                        <set attributeName="fill" to="#808080" begin="arrowRight.mouseover" end="arrowRight.mouseout"/>
                  </use>
                  <path fill="none" stroke="white" stroke-width="1.5" d="M0,-3.0v7 M-2.5,-0.5L0,-3.0L2.5,-0.5"/>
                </g>
                <g id="arrowDown" xlink:href="#dirArrow" transform="rotate(180) translate(-30 -48)" onmousedown="handlePan(0,1)">
                  <use xlink:href="#rim" fill="#404040">
                        <set attributeName="fill" to="#808080" begin="arrowDown.mouseover" end="arrowDown.mouseout"/>
                  </use>
                  <path fill="none" stroke="white" stroke-width="1.5" d="M0,-3.0v7 M-2.5,-0.5L0,-3.0L2.5,-0.5"/>
                </g>
                <g id="arrowLeft" xlink:href="#dirArrow" transform="rotate(270) translate(-36 17)" onmousedown="handlePan(-1,0)">
                  <use xlink:href="#rim" fill="#404040">
                        <set attributeName="fill" to="#808080" begin="arrowLeft.mouseover" end="arrowLeft.mouseout"/>
                  </use>
                  <path fill="none" stroke="white" stroke-width="1.5" d="M0,-3.0v7 M-2.5,-0.5L0,-3.0L2.5,-0.5"/>
                </g>
        </g>
        <svg viewBox="0 0 15 15" width="100%" height="30px" preserveAspectRatio="xMaxYMin meet">
         <g id="arrow_out" transform="scale(0.3 0.3)">
          <a xlink:href="vi_8h_ab6be7e2b59f79b8952c13488e1cf036a_icgraph_org.svg" target="_base">
           <rect id="button" ry="5" rx="5" y="6" x="6" height="38" width="38"
                fill="#f2f5e9" fill-opacity="0.5" stroke="#606060" stroke-width="1.0"/>
           <path id="arrow"
             d="M 11.500037,31.436501 C 11.940474,20.09759 22.043105,11.32322 32.158766,21.979434 L 37.068811,17.246167 C 37.068811,17.246167 37.088388,32 37.088388,32 L 22.160133,31.978069 C 22.160133,31.978069 26.997745,27.140456 26.997745,27.140456 C 18.528582,18.264221 13.291696,25.230495 11.500037,31.436501 z"
             style="fill:#404040;"/>
          </a>
         </g>
        </svg>
</svg>
