<?xml version="1.0" encoding="UTF-8" standalone="no"?>
<!DOCTYPE svg PUBLIC "-//W3C//DTD SVG 1.1//EN"
 "http://www.w3.org/Graphics/SVG/1.1/DTD/svg11.dtd">
<!-- Generated by graphviz version 2.44.1 (20200629.0846)
 -->
<!-- Title: re_read Pages: 1 -->
<svg width="624pt" height="142pt"
 viewBox="0.00 0.00 624.00 142.00" xmlns="http://www.w3.org/2000/svg" xmlns:xlink="http://www.w3.org/1999/xlink">
<g id="graph0" class="graph" transform="scale(1 1) rotate(0) translate(4 138)">
<title>re_read</title>
<polygon fill="white" stroke="transparent" points="-4,4 -4,-138 620,-138 620,4 -4,4"/>
<!-- Node1 -->
<g id="node1" class="node">
<title>Node1</title>
<g id="a_node1"><a xlink:title=" ">
<polygon fill="#bfbfbf" stroke="black" points="567,-48.5 567,-67.5 616,-67.5 616,-48.5 567,-48.5"/>
<text text-anchor="middle" x="591.5" y="-55.5" font-family="Helvetica,sans-Serif" font-size="10.00">re_read</text>
</a>
</g>
</g>
<!-- Node2 -->
<g id="node2" class="node">
<title>Node2</title>
<g id="a_node2"><a xlink:href="ex_8c.html#a70c571bdde329a65e216c19b4aeaa628" target="_top" xlink:title=" ">
<polygon fill="white" stroke="black" points="468.5,-86.5 468.5,-105.5 518.5,-105.5 518.5,-86.5 468.5,-86.5"/>
<text text-anchor="middle" x="493.5" y="-93.5" font-family="Helvetica,sans-Serif" font-size="10.00">ec_glob</text>
</a>
</g>
</g>
<!-- Node1&#45;&gt;Node2 -->
<g id="edge1" class="edge">
<title>Node1&#45;&gt;Node2</title>
<path fill="none" stroke="midnightblue" d="M557.4,-71.1C544.66,-76.15 530.36,-81.8 518.62,-86.45"/>
<polygon fill="midnightblue" stroke="midnightblue" points="558.76,-74.33 566.77,-67.39 556.18,-67.82 558.76,-74.33"/>
</g>
<!-- Node10 -->
<g id="node10" class="node">
<title>Node10</title>
<g id="a_node10"><a xlink:href="ex_8c.html#aaf4e813ce4370aa859181d22de51576b" target="_top" xlink:title=" ">
<polygon fill="white" stroke="black" points="456,-48.5 456,-67.5 531,-67.5 531,-48.5 456,-48.5"/>
<text text-anchor="middle" x="493.5" y="-55.5" font-family="Helvetica,sans-Serif" font-size="10.00">ec_substitute</text>
</a>
</g>
</g>
<!-- Node1&#45;&gt;Node10 -->
<g id="edge12" class="edge">
<title>Node1&#45;&gt;Node10</title>
<path fill="none" stroke="midnightblue" d="M556.68,-58C548.38,-58 539.46,-58 531.04,-58"/>
<polygon fill="midnightblue" stroke="midnightblue" points="556.77,-61.5 566.77,-58 556.77,-54.5 556.77,-61.5"/>
</g>
<!-- Node11 -->
<g id="node11" class="node">
<title>Node11</title>
<g id="a_node11"><a xlink:href="vi_8c.html#a631f59a25254f28f308f7de4897e09fa" target="_top" xlink:title=" ">
<polygon fill="white" stroke="black" points="470.5,-10.5 470.5,-29.5 516.5,-29.5 516.5,-10.5 470.5,-10.5"/>
<text text-anchor="middle" x="493.5" y="-17.5" font-family="Helvetica,sans-Serif" font-size="10.00">search</text>
</a>
</g>
</g>
<!-- Node1&#45;&gt;Node11 -->
<g id="edge13" class="edge">
<title>Node1&#45;&gt;Node11</title>
<path fill="none" stroke="midnightblue" d="M557.35,-44.88C543.89,-39.55 528.71,-33.54 516.64,-28.76"/>
<polygon fill="midnightblue" stroke="midnightblue" points="556.18,-48.18 566.77,-48.61 558.76,-41.67 556.18,-48.18"/>
</g>
<!-- Node3 -->
<g id="node3" class="node">
<title>Node3</title>
<g id="a_node3"><a xlink:href="ex_8c.html#a7d848d20211b2e1c868dde98ec5dfae9" target="_top" xlink:title=" ">
<polygon fill="white" stroke="black" points="367,-95.5 367,-114.5 414,-114.5 414,-95.5 367,-95.5"/>
<text text-anchor="middle" x="390.5" y="-102.5" font-family="Helvetica,sans-Serif" font-size="10.00">ex_line</text>
</a>
</g>
</g>
<!-- Node2&#45;&gt;Node3 -->
<g id="edge2" class="edge">
<title>Node2&#45;&gt;Node3</title>
<path fill="none" stroke="midnightblue" d="M458.15,-99.06C443.61,-100.36 427.07,-101.83 414.11,-102.99"/>
<polygon fill="midnightblue" stroke="midnightblue" points="458.66,-102.53 468.31,-98.16 458.04,-95.56 458.66,-102.53"/>
</g>
<!-- Node4 -->
<g id="node4" class="node">
<title>Node4</title>
<g id="a_node4"><a xlink:href="ex_8c.html#ab15ebfef933256d9741128e2ddf3f9b5" target="_top" xlink:title=" ">
<polygon fill="white" stroke="black" points="269,-76.5 269,-95.5 322,-95.5 322,-76.5 269,-76.5"/>
<text text-anchor="middle" x="295.5" y="-83.5" font-family="Helvetica,sans-Serif" font-size="10.00">ex_exec</text>
</a>
</g>
</g>
<!-- Node3&#45;&gt;Node4 -->
<g id="edge3" class="edge">
<title>Node3&#45;&gt;Node4</title>
<path fill="none" stroke="midnightblue" d="M356.94,-98.35C345.51,-96.01 332.86,-93.43 322.09,-91.23"/>
<polygon fill="midnightblue" stroke="midnightblue" points="356.49,-101.83 366.99,-100.4 357.89,-94.97 356.49,-101.83"/>
</g>
<!-- Node4&#45;&gt;Node2 -->
<g id="edge4" class="edge">
<title>Node4&#45;&gt;Node2</title>
<path fill="none" stroke="midnightblue" d="M332.08,-84.71C356.78,-84.13 390.43,-83.97 420,-86 436.23,-87.11 454.35,-89.61 468.42,-91.84"/>
<polygon fill="midnightblue" stroke="midnightblue" points="331.98,-81.21 322.08,-84.98 332.17,-88.21 331.98,-81.21"/>
</g>
<!-- Node5 -->
<g id="node5" class="node">
<title>Node5</title>
<g id="a_node5"><a xlink:href="vi_8h.html#aa75c73cccb4878ec06ea5bf5b1b02295" target="_top" xlink:title=" ">
<polygon fill="white" stroke="black" points="155,-76.5 155,-95.5 230,-95.5 230,-76.5 155,-76.5"/>
<text text-anchor="middle" x="192.5" y="-83.5" font-family="Helvetica,sans-Serif" font-size="10.00">ex_command</text>
</a>
</g>
</g>
<!-- Node4&#45;&gt;Node5 -->
<g id="edge5" class="edge">
<title>Node4&#45;&gt;Node5</title>
<path fill="none" stroke="midnightblue" d="M258.71,-86C249.48,-86 239.53,-86 230.25,-86"/>
<polygon fill="midnightblue" stroke="midnightblue" points="258.75,-89.5 268.75,-86 258.75,-82.5 258.75,-89.5"/>
</g>
<!-- Node6 -->
<g id="node6" class="node">
<title>Node6</title>
<g id="a_node6"><a xlink:href="vi_8h.html#ac395e51f25330a6e6033b6d0d22b2076" target="_top" xlink:title=" ">
<polygon fill="white" stroke="black" points="82,-114.5 82,-133.5 111,-133.5 111,-114.5 82,-114.5"/>
<text text-anchor="middle" x="96.5" y="-121.5" font-family="Helvetica,sans-Serif" font-size="10.00">ex</text>
</a>
</g>
</g>
<!-- Node5&#45;&gt;Node6 -->
<g id="edge6" class="edge">
<title>Node5&#45;&gt;Node6</title>
<path fill="none" stroke="midnightblue" d="M158.07,-99.52C141.85,-106.07 123.28,-113.58 111.02,-118.53"/>
<polygon fill="midnightblue" stroke="midnightblue" points="159.82,-102.58 167.78,-95.59 157.2,-96.09 159.82,-102.58"/>
</g>
<!-- Node8 -->
<g id="node8" class="node">
<title>Node8</title>
<g id="a_node8"><a xlink:href="vi_8h.html#abe53b5c10f94f20cd5ed024371615fa1" target="_top" xlink:title=" ">
<polygon fill="white" stroke="black" points="74,-76.5 74,-95.5 119,-95.5 119,-76.5 74,-76.5"/>
<text text-anchor="middle" x="96.5" y="-83.5" font-family="Helvetica,sans-Serif" font-size="10.00">ex_init</text>
</a>
</g>
</g>
<!-- Node5&#45;&gt;Node8 -->
<g id="edge8" class="edge">
<title>Node5&#45;&gt;Node8</title>
<path fill="none" stroke="midnightblue" d="M144.85,-86C135.89,-86 126.91,-86 119.21,-86"/>
<polygon fill="midnightblue" stroke="midnightblue" points="144.89,-89.5 154.89,-86 144.89,-82.5 144.89,-89.5"/>
</g>
<!-- Node9 -->
<g id="node9" class="node">
<title>Node9</title>
<g id="a_node9"><a xlink:href="vi_8c.html#a8d808e0f3453afe6600673ee1ea5f828" target="_top" xlink:title=" ">
<polygon fill="white" stroke="black" points="82,-38.5 82,-57.5 111,-57.5 111,-38.5 82,-38.5"/>
<text text-anchor="middle" x="96.5" y="-45.5" font-family="Helvetica,sans-Serif" font-size="10.00">vi</text>
</a>
</g>
</g>
<!-- Node5&#45;&gt;Node9 -->
<g id="edge10" class="edge">
<title>Node5&#45;&gt;Node9</title>
<path fill="none" stroke="midnightblue" d="M158.07,-72.48C141.85,-65.93 123.28,-58.42 111.02,-53.47"/>
<polygon fill="midnightblue" stroke="midnightblue" points="157.2,-75.91 167.78,-76.41 159.82,-69.42 157.2,-75.91"/>
</g>
<!-- Node7 -->
<g id="node7" class="node">
<title>Node7</title>
<g id="a_node7"><a xlink:href="vi_8c.html#a0ddf1224851353fc92bfbff6f499fa97" target="_top" xlink:title=" ">
<polygon fill="white" stroke="black" points="0,-76.5 0,-95.5 38,-95.5 38,-76.5 0,-76.5"/>
<text text-anchor="middle" x="19" y="-83.5" font-family="Helvetica,sans-Serif" font-size="10.00">main</text>
</a>
</g>
</g>
<!-- Node6&#45;&gt;Node7 -->
<g id="edge7" class="edge">
<title>Node6&#45;&gt;Node7</title>
<path fill="none" stroke="midnightblue" d="M72.56,-112.45C61.48,-106.88 48.39,-100.29 38.04,-95.08"/>
<polygon fill="midnightblue" stroke="midnightblue" points="71.15,-115.66 81.65,-117.03 74.29,-109.41 71.15,-115.66"/>
</g>
<!-- Node8&#45;&gt;Node7 -->
<g id="edge9" class="edge">
<title>Node8&#45;&gt;Node7</title>
<path fill="none" stroke="midnightblue" d="M63.55,-86C54.99,-86 46.03,-86 38.47,-86"/>
<polygon fill="midnightblue" stroke="midnightblue" points="63.66,-89.5 73.66,-86 63.66,-82.5 63.66,-89.5"/>
</g>
<!-- Node9&#45;&gt;Node7 -->
<g id="edge11" class="edge">
<title>Node9&#45;&gt;Node7</title>
<path fill="none" stroke="midnightblue" d="M72.56,-59.55C61.48,-65.12 48.39,-71.71 38.04,-76.92"/>
<polygon fill="midnightblue" stroke="midnightblue" points="74.29,-62.59 81.65,-54.97 71.15,-56.34 74.29,-62.59"/>
</g>
<!-- Node12 -->
<g id="node12" class="node">
<title>Node12</title>
<g id="a_node12"><a xlink:href="vi_8c.html#a93701c59617d4f96cbaa207e89178f87" target="_top" xlink:title=" ">
<polygon fill="white" stroke="black" points="361,-10.5 361,-29.5 420,-29.5 420,-10.5 361,-10.5"/>
<text text-anchor="middle" x="390.5" y="-17.5" font-family="Helvetica,sans-Serif" font-size="10.00">vi_search</text>
</a>
</g>
</g>
<!-- Node11&#45;&gt;Node12 -->
<g id="edge14" class="edge">
<title>Node11&#45;&gt;Node12</title>
<path fill="none" stroke="midnightblue" d="M459.81,-20C446.98,-20 432.4,-20 420.01,-20"/>
<polygon fill="midnightblue" stroke="midnightblue" points="460.08,-23.5 470.08,-20 460.08,-16.5 460.08,-23.5"/>
</g>
<!-- Node13 -->
<g id="node13" class="node">
<title>Node13</title>
<g id="a_node13"><a xlink:href="vi_8c.html#aaa4777ea0715ea846346d0f27a0cfa3f" target="_top" xlink:title=" ">
<polygon fill="white" stroke="black" points="266,-10.5 266,-29.5 325,-29.5 325,-10.5 266,-10.5"/>
<text text-anchor="middle" x="295.5" y="-17.5" font-family="Helvetica,sans-Serif" font-size="10.00">vi_motion</text>
</a>
</g>
</g>
<!-- Node12&#45;&gt;Node13 -->
<g id="edge15" class="edge">
<title>Node12&#45;&gt;Node13</title>
<path fill="none" stroke="midnightblue" d="M350.69,-20C342.16,-20 333.28,-20 325.23,-20"/>
<polygon fill="midnightblue" stroke="midnightblue" points="350.84,-23.5 360.84,-20 350.84,-16.5 350.84,-23.5"/>
</g>
<!-- Node13&#45;&gt;Node9 -->
<g id="edge18" class="edge">
<title>Node13&#45;&gt;Node9</title>
<path fill="none" stroke="midnightblue" d="M255.68,-25.52C211.15,-31.85 140.49,-41.89 111.06,-46.07"/>
<polygon fill="midnightblue" stroke="midnightblue" points="256.45,-28.94 265.85,-24.07 255.46,-22.01 256.45,-28.94"/>
</g>
<!-- Node14 -->
<g id="node14" class="node">
<title>Node14</title>
<g id="a_node14"><a xlink:href="vi_8c.html#a06cbc6eb843436a0e77e07cbab0c4538" target="_top" xlink:title=" ">
<polygon fill="white" stroke="black" points="161.5,-0.5 161.5,-19.5 223.5,-19.5 223.5,-0.5 161.5,-0.5"/>
<text text-anchor="middle" x="192.5" y="-7.5" font-family="Helvetica,sans-Serif" font-size="10.00">vc_motion</text>
</a>
</g>
</g>
<!-- Node13&#45;&gt;Node14 -->
<g id="edge16" class="edge">
<title>Node13&#45;&gt;Node14</title>
<path fill="none" stroke="midnightblue" d="M255.56,-16.14C244.97,-15.1 233.67,-13.98 223.65,-12.99"/>
<polygon fill="midnightblue" stroke="midnightblue" points="255.53,-19.66 265.83,-17.16 256.22,-12.69 255.53,-19.66"/>
</g>
<!-- Node14&#45;&gt;Node9 -->
<g id="edge17" class="edge">
<title>Node14&#45;&gt;Node9</title>
<path fill="none" stroke="midnightblue" d="M158.07,-23.52C141.85,-30.07 123.28,-37.58 111.02,-42.53"/>
<polygon fill="midnightblue" stroke="midnightblue" points="159.82,-26.58 167.78,-19.59 157.2,-20.09 159.82,-26.58"/>
</g>
</g>
</svg>
