<?xml version="1.0" encoding="UTF-8" standalone="no"?>
<!DOCTYPE svg PUBLIC "-//W3C//DTD SVG 1.1//EN"
 "http://www.w3.org/Graphics/SVG/1.1/DTD/svg11.dtd">
<!-- Generated by graphviz version 2.44.1 (20200629.0846)
 -->
<!-- Title: vc_charinfo Pages: 1 -->
<svg width="335pt" height="142pt"
 viewBox="0.00 0.00 335.00 142.00" xmlns="http://www.w3.org/2000/svg" xmlns:xlink="http://www.w3.org/1999/xlink">
<g id="graph0" class="graph" transform="scale(1 1) rotate(0) translate(4 138)">
<title>vc_charinfo</title>
<polygon fill="white" stroke="transparent" points="-4,4 -4,-138 331,-138 331,4 -4,4"/>
<!-- Node1 -->
<g id="node1" class="node">
<title>Node1</title>
<g id="a_node1"><a xlink:title=" ">
<polygon fill="#bfbfbf" stroke="black" points="0,-57.5 0,-76.5 67,-76.5 67,-57.5 0,-57.5"/>
<text text-anchor="middle" x="33.5" y="-64.5" font-family="Helvetica,sans-Serif" font-size="10.00">vc_charinfo</text>
</a>
</g>
</g>
<!-- Node2 -->
<g id="node2" class="node">
<title>Node2</title>
<g id="a_node2"><a xlink:href="lbuf_8c.html#ad0f45475ddc6eb82ecedf63ed1b914d4" target="_top" xlink:title=" ">
<polygon fill="white" stroke="black" points="104,-114.5 104,-133.5 155,-133.5 155,-114.5 104,-114.5"/>
<text text-anchor="middle" x="129.5" y="-121.5" font-family="Helvetica,sans-Serif" font-size="10.00">lbuf_get</text>
</a>
</g>
</g>
<!-- Node1&#45;&gt;Node2 -->
<g id="edge1" class="edge">
<title>Node1&#45;&gt;Node2</title>
<path fill="none" stroke="midnightblue" d="M50.45,-76.67C65.12,-85.57 87.1,-98.9 104,-109.14"/>
<polygon fill="midnightblue" stroke="midnightblue" points="102.42,-112.28 112.79,-114.47 106.05,-106.3 102.42,-112.28"/>
</g>
<!-- Node3 -->
<g id="node3" class="node">
<title>Node3</title>
<g id="a_node3"><a xlink:href="uc_8c.html#a2fecd1fc98475ece5f529da3315a9553" target="_top" xlink:title=" ">
<polygon fill="white" stroke="black" points="106.5,-76.5 106.5,-95.5 152.5,-95.5 152.5,-76.5 106.5,-76.5"/>
<text text-anchor="middle" x="129.5" y="-83.5" font-family="Helvetica,sans-Serif" font-size="10.00">uc_chr</text>
</a>
</g>
</g>
<!-- Node1&#45;&gt;Node3 -->
<g id="edge2" class="edge">
<title>Node1&#45;&gt;Node3</title>
<path fill="none" stroke="midnightblue" d="M67.11,-73.59C76.61,-75.51 86.98,-77.61 96.45,-79.52"/>
<polygon fill="midnightblue" stroke="midnightblue" points="95.79,-82.96 106.28,-81.51 97.18,-76.1 95.79,-82.96"/>
</g>
<!-- Node6 -->
<g id="node6" class="node">
<title>Node6</title>
<g id="a_node6"><a xlink:href="uc_8c.html#a45fdc2f2f3cb34515f1014bf754741bb" target="_top" xlink:title=" ">
<polygon fill="white" stroke="black" points="103,-38.5 103,-57.5 156,-57.5 156,-38.5 103,-38.5"/>
<text text-anchor="middle" x="129.5" y="-45.5" font-family="Helvetica,sans-Serif" font-size="10.00">uc_code</text>
</a>
</g>
</g>
<!-- Node1&#45;&gt;Node6 -->
<g id="edge5" class="edge">
<title>Node1&#45;&gt;Node6</title>
<path fill="none" stroke="midnightblue" d="M67.11,-60.41C75.41,-58.73 84.36,-56.92 92.8,-55.22"/>
<polygon fill="midnightblue" stroke="midnightblue" points="93.65,-58.62 102.76,-53.2 92.26,-51.75 93.65,-58.62"/>
</g>
<!-- Node7 -->
<g id="node7" class="node">
<title>Node7</title>
<g id="a_node7"><a xlink:href="regex_8c.html#a9a0d6d5f93f1eaba8b63b16903c0952d" target="_top" xlink:title=" ">
<polygon fill="white" stroke="black" points="107,-0.5 107,-19.5 152,-19.5 152,-0.5 107,-0.5"/>
<text text-anchor="middle" x="129.5" y="-7.5" font-family="Helvetica,sans-Serif" font-size="10.00">uc_len</text>
</a>
</g>
</g>
<!-- Node1&#45;&gt;Node7 -->
<g id="edge6" class="edge">
<title>Node1&#45;&gt;Node7</title>
<path fill="none" stroke="midnightblue" d="M50.45,-57.33C65.12,-48.43 87.1,-35.1 104,-24.86"/>
<polygon fill="midnightblue" stroke="midnightblue" points="106.05,-27.7 112.79,-19.53 102.42,-21.72 106.05,-27.7"/>
</g>
<!-- Node4 -->
<g id="node4" class="node">
<title>Node4</title>
<g id="a_node4"><a xlink:href="uc_8c.html#a79c7c44c06c1febff5680c19667e2676" target="_top" xlink:title=" ">
<polygon fill="white" stroke="black" points="192,-76.5 192,-95.5 243,-95.5 243,-76.5 192,-76.5"/>
<text text-anchor="middle" x="217.5" y="-83.5" font-family="Helvetica,sans-Serif" font-size="10.00">uc_next</text>
</a>
</g>
</g>
<!-- Node3&#45;&gt;Node4 -->
<g id="edge3" class="edge">
<title>Node3&#45;&gt;Node4</title>
<path fill="none" stroke="midnightblue" d="M152.65,-86C161.42,-86 171.72,-86 181.45,-86"/>
<polygon fill="midnightblue" stroke="midnightblue" points="181.7,-89.5 191.7,-86 181.7,-82.5 181.7,-89.5"/>
</g>
<!-- Node5 -->
<g id="node5" class="node">
<title>Node5</title>
<g id="a_node5"><a xlink:href="uc_8c.html#a616e24870a58b86644c34ee077faca11" target="_top" xlink:title=" ">
<polygon fill="white" stroke="black" points="279,-76.5 279,-95.5 327,-95.5 327,-76.5 279,-76.5"/>
<text text-anchor="middle" x="303" y="-83.5" font-family="Helvetica,sans-Serif" font-size="10.00">uc_end</text>
</a>
</g>
</g>
<!-- Node4&#45;&gt;Node5 -->
<g id="edge4" class="edge">
<title>Node4&#45;&gt;Node5</title>
<path fill="none" stroke="midnightblue" d="M243.1,-86C251.1,-86 260.12,-86 268.66,-86"/>
<polygon fill="midnightblue" stroke="midnightblue" points="268.72,-89.5 278.72,-86 268.72,-82.5 268.72,-89.5"/>
</g>
</g>
</svg>
