<?xml version="1.0" encoding="UTF-8" standalone="no"?>
<!DOCTYPE svg PUBLIC "-//W3C//DTD SVG 1.1//EN"
 "http://www.w3.org/Graphics/SVG/1.1/DTD/svg11.dtd">
<!-- Generated by graphviz version 2.44.1 (20200629.0846)
 -->
<!-- Title: uc_prev Pages: 1 -->
<svg width="697pt" height="47pt"
 viewBox="0.00 0.00 697.00 47.00" xmlns="http://www.w3.org/2000/svg" xmlns:xlink="http://www.w3.org/1999/xlink">
<g id="graph0" class="graph" transform="scale(1 1) rotate(0) translate(4 43)">
<title>uc_prev</title>
<polygon fill="white" stroke="transparent" points="-4,4 -4,-43 693,-43 693,4 -4,4"/>
<!-- Node1 -->
<g id="node1" class="node">
<title>Node1</title>
<g id="a_node1"><a xlink:title=" ">
<polygon fill="#bfbfbf" stroke="black" points="638,-0.5 638,-19.5 689,-19.5 689,-0.5 638,-0.5"/>
<text text-anchor="middle" x="663.5" y="-7.5" font-family="Helvetica,sans-Serif" font-size="10.00">uc_prev</text>
</a>
</g>
</g>
<!-- Node2 -->
<g id="node2" class="node">
<title>Node2</title>
<g id="a_node2"><a xlink:href="mot_8c.html#a578119637568baec7a95210a4e7030aa" target="_top" xlink:title=" ">
<polygon fill="white" stroke="black" points="540,-0.5 540,-19.5 602,-19.5 602,-0.5 540,-0.5"/>
<text text-anchor="middle" x="571" y="-7.5" font-family="Helvetica,sans-Serif" font-size="10.00">uc_nextdir</text>
</a>
</g>
</g>
<!-- Node1&#45;&gt;Node2 -->
<g id="edge1" class="edge">
<title>Node1&#45;&gt;Node2</title>
<path fill="none" stroke="midnightblue" d="M627.53,-10C619.17,-10 610.31,-10 602.18,-10"/>
<polygon fill="midnightblue" stroke="midnightblue" points="627.77,-13.5 637.77,-10 627.77,-6.5 627.77,-13.5"/>
</g>
<!-- Node3 -->
<g id="node3" class="node">
<title>Node3</title>
<g id="a_node3"><a xlink:href="vi_8h.html#af03e9c2c66d9a39e9f5afa231ec1c6e3" target="_top" xlink:title=" ">
<polygon fill="white" stroke="black" points="432,-0.5 432,-19.5 504,-19.5 504,-0.5 432,-0.5"/>
<text text-anchor="middle" x="468" y="-7.5" font-family="Helvetica,sans-Serif" font-size="10.00">lbuf_findchar</text>
</a>
</g>
</g>
<!-- Node2&#45;&gt;Node3 -->
<g id="edge2" class="edge">
<title>Node2&#45;&gt;Node3</title>
<path fill="none" stroke="midnightblue" d="M529.85,-10C521.32,-10 512.39,-10 504.07,-10"/>
<polygon fill="midnightblue" stroke="midnightblue" points="529.97,-13.5 539.97,-10 529.97,-6.5 529.97,-13.5"/>
</g>
<!-- Node4 -->
<g id="node4" class="node">
<title>Node4</title>
<g id="a_node4"><a xlink:href="vi_8c.html#a79aea4fe01714877e4d3db4a11923376" target="_top" xlink:title=" ">
<polygon fill="white" stroke="black" points="332,-0.5 332,-19.5 396,-19.5 396,-0.5 332,-0.5"/>
<text text-anchor="middle" x="364" y="-7.5" font-family="Helvetica,sans-Serif" font-size="10.00">vi_findchar</text>
</a>
</g>
</g>
<!-- Node3&#45;&gt;Node4 -->
<g id="edge3" class="edge">
<title>Node3&#45;&gt;Node4</title>
<path fill="none" stroke="midnightblue" d="M421.85,-10C413.14,-10 404.21,-10 396.07,-10"/>
<polygon fill="midnightblue" stroke="midnightblue" points="421.9,-13.5 431.9,-10 421.9,-6.5 421.9,-13.5"/>
</g>
<!-- Node5 -->
<g id="node5" class="node">
<title>Node5</title>
<g id="a_node5"><a xlink:href="vi_8c.html#aaa4777ea0715ea846346d0f27a0cfa3f" target="_top" xlink:title=" ">
<polygon fill="white" stroke="black" points="237,-0.5 237,-19.5 296,-19.5 296,-0.5 237,-0.5"/>
<text text-anchor="middle" x="266.5" y="-7.5" font-family="Helvetica,sans-Serif" font-size="10.00">vi_motion</text>
</a>
</g>
</g>
<!-- Node4&#45;&gt;Node5 -->
<g id="edge4" class="edge">
<title>Node4&#45;&gt;Node5</title>
<path fill="none" stroke="midnightblue" d="M321.97,-10C313.25,-10 304.22,-10 296.09,-10"/>
<polygon fill="midnightblue" stroke="midnightblue" points="321.99,-13.5 331.99,-10 321.99,-6.5 321.99,-13.5"/>
</g>
<!-- Node6 -->
<g id="node6" class="node">
<title>Node6</title>
<g id="a_node6"><a xlink:href="vi_8c.html#a06cbc6eb843436a0e77e07cbab0c4538" target="_top" xlink:title=" ">
<polygon fill="white" stroke="black" points="139,-19.5 139,-38.5 201,-38.5 201,-19.5 139,-19.5"/>
<text text-anchor="middle" x="170" y="-26.5" font-family="Helvetica,sans-Serif" font-size="10.00">vc_motion</text>
</a>
</g>
</g>
<!-- Node5&#45;&gt;Node6 -->
<g id="edge5" class="edge">
<title>Node5&#45;&gt;Node6</title>
<path fill="none" stroke="midnightblue" d="M227.03,-17.74C218.4,-19.47 209.38,-21.28 201.15,-22.94"/>
<polygon fill="midnightblue" stroke="midnightblue" points="227.78,-21.15 236.89,-15.75 226.4,-14.29 227.78,-21.15"/>
</g>
<!-- Node7 -->
<g id="node7" class="node">
<title>Node7</title>
<g id="a_node7"><a xlink:href="vi_8c.html#a8d808e0f3453afe6600673ee1ea5f828" target="_top" xlink:title=" ">
<polygon fill="white" stroke="black" points="74,-0.5 74,-19.5 103,-19.5 103,-0.5 74,-0.5"/>
<text text-anchor="middle" x="88.5" y="-7.5" font-family="Helvetica,sans-Serif" font-size="10.00">vi</text>
</a>
</g>
</g>
<!-- Node5&#45;&gt;Node7 -->
<g id="edge8" class="edge">
<title>Node5&#45;&gt;Node7</title>
<path fill="none" stroke="midnightblue" d="M226.35,-10C187.29,-10 129.43,-10 103.25,-10"/>
<polygon fill="midnightblue" stroke="midnightblue" points="226.83,-13.5 236.83,-10 226.83,-6.5 226.83,-13.5"/>
</g>
<!-- Node6&#45;&gt;Node7 -->
<g id="edge6" class="edge">
<title>Node6&#45;&gt;Node7</title>
<path fill="none" stroke="midnightblue" d="M128.95,-19.43C119.66,-17.21 110.39,-14.99 103.17,-13.27"/>
<polygon fill="midnightblue" stroke="midnightblue" points="128.4,-22.9 138.94,-21.82 130.03,-16.09 128.4,-22.9"/>
</g>
<!-- Node8 -->
<g id="node8" class="node">
<title>Node8</title>
<g id="a_node8"><a xlink:href="vi_8c.html#a0ddf1224851353fc92bfbff6f499fa97" target="_top" xlink:title=" ">
<polygon fill="white" stroke="black" points="0,-0.5 0,-19.5 38,-19.5 38,-0.5 0,-0.5"/>
<text text-anchor="middle" x="19" y="-7.5" font-family="Helvetica,sans-Serif" font-size="10.00">main</text>
</a>
</g>
</g>
<!-- Node7&#45;&gt;Node8 -->
<g id="edge7" class="edge">
<title>Node7&#45;&gt;Node8</title>
<path fill="none" stroke="midnightblue" d="M63.58,-10C55.25,-10 46.04,-10 38.25,-10"/>
<polygon fill="midnightblue" stroke="midnightblue" points="63.84,-13.5 73.84,-10 63.84,-6.5 63.84,-13.5"/>
</g>
</g>
</svg>
