<?xml version="1.0" encoding="UTF-8" standalone="no"?>
<!DOCTYPE svg PUBLIC "-//W3C//DTD SVG 1.1//EN"
 "http://www.w3.org/Graphics/SVG/1.1/DTD/svg11.dtd">
<!-- Generated by graphviz version 2.44.1 (20200629.0846)
 -->
<!-- Title: vi_off2col Pages: 1 -->
<svg width="301pt" height="47pt"
 viewBox="0.00 0.00 301.00 47.00" xmlns="http://www.w3.org/2000/svg" xmlns:xlink="http://www.w3.org/1999/xlink">
<g id="graph0" class="graph" transform="scale(1 1) rotate(0) translate(4 43)">
<title>vi_off2col</title>
<polygon fill="white" stroke="transparent" points="-4,4 -4,-43 297,-43 297,4 -4,4"/>
<!-- Node1 -->
<g id="node1" class="node">
<title>Node1</title>
<g id="a_node1"><a xlink:title=" ">
<polygon fill="#bfbfbf" stroke="black" points="234,-0.5 234,-19.5 293,-19.5 293,-0.5 234,-0.5"/>
<text text-anchor="middle" x="263.5" y="-7.5" font-family="Helvetica,sans-Serif" font-size="10.00">vi_off2col</text>
</a>
</g>
</g>
<!-- Node2 -->
<g id="node2" class="node">
<title>Node2</title>
<g id="a_node2"><a xlink:href="vi_8c.html#ab7d24df5f19f55dae6f719cd5bcfbe6f" target="_top" xlink:title=" ">
<polygon fill="white" stroke="black" points="139,-19.5 139,-38.5 198,-38.5 198,-19.5 139,-19.5"/>
<text text-anchor="middle" x="168.5" y="-26.5" font-family="Helvetica,sans-Serif" font-size="10.00">vc_status</text>
</a>
</g>
</g>
<!-- Node1&#45;&gt;Node2 -->
<g id="edge1" class="edge">
<title>Node1&#45;&gt;Node2</title>
<path fill="none" stroke="midnightblue" d="M223.97,-17.87C215.36,-19.63 206.36,-21.47 198.23,-23.13"/>
<polygon fill="midnightblue" stroke="midnightblue" points="224.74,-21.29 233.84,-15.86 223.34,-14.43 224.74,-21.29"/>
</g>
<!-- Node3 -->
<g id="node3" class="node">
<title>Node3</title>
<g id="a_node3"><a xlink:href="vi_8c.html#a8d808e0f3453afe6600673ee1ea5f828" target="_top" xlink:title=" ">
<polygon fill="white" stroke="black" points="74,-0.5 74,-19.5 103,-19.5 103,-0.5 74,-0.5"/>
<text text-anchor="middle" x="88.5" y="-7.5" font-family="Helvetica,sans-Serif" font-size="10.00">vi</text>
</a>
</g>
</g>
<!-- Node1&#45;&gt;Node3 -->
<g id="edge4" class="edge">
<title>Node1&#45;&gt;Node3</title>
<path fill="none" stroke="midnightblue" d="M223.67,-10C185.46,-10 129.21,-10 103.38,-10"/>
<polygon fill="midnightblue" stroke="midnightblue" points="223.93,-13.5 233.93,-10 223.93,-6.5 223.93,-13.5"/>
</g>
<!-- Node2&#45;&gt;Node3 -->
<g id="edge2" class="edge">
<title>Node2&#45;&gt;Node3</title>
<path fill="none" stroke="midnightblue" d="M128.99,-19.62C119.75,-17.37 110.47,-15.11 103.24,-13.35"/>
<polygon fill="midnightblue" stroke="midnightblue" points="128.35,-23.07 138.9,-22.03 130.01,-16.27 128.35,-23.07"/>
</g>
<!-- Node4 -->
<g id="node4" class="node">
<title>Node4</title>
<g id="a_node4"><a xlink:href="vi_8c.html#a0ddf1224851353fc92bfbff6f499fa97" target="_top" xlink:title=" ">
<polygon fill="white" stroke="black" points="0,-0.5 0,-19.5 38,-19.5 38,-0.5 0,-0.5"/>
<text text-anchor="middle" x="19" y="-7.5" font-family="Helvetica,sans-Serif" font-size="10.00">main</text>
</a>
</g>
</g>
<!-- Node3&#45;&gt;Node4 -->
<g id="edge3" class="edge">
<title>Node3&#45;&gt;Node4</title>
<path fill="none" stroke="midnightblue" d="M63.58,-10C55.25,-10 46.04,-10 38.25,-10"/>
<polygon fill="midnightblue" stroke="midnightblue" points="63.84,-13.5 73.84,-10 63.84,-6.5 63.84,-13.5"/>
</g>
</g>
</svg>
