<?xml version="1.0" encoding="UTF-8" standalone="no"?>
<!DOCTYPE svg PUBLIC "-//W3C//DTD SVG 1.1//EN"
 "http://www.w3.org/Graphics/SVG/1.1/DTD/svg11.dtd">
<!-- Generated by graphviz version 2.44.1 (20200629.0846)
 -->
<!-- Title: ex_exec Pages: 1 -->
<svg width="329pt" height="142pt"
 viewBox="0.00 0.00 329.00 142.00" xmlns="http://www.w3.org/2000/svg" xmlns:xlink="http://www.w3.org/1999/xlink">
<g id="graph0" class="graph" transform="scale(1 1) rotate(0) translate(4 138)">
<title>ex_exec</title>
<polygon fill="white" stroke="transparent" points="-4,4 -4,-138 325,-138 325,4 -4,4"/>
<!-- Node1 -->
<g id="node1" class="node">
<title>Node1</title>
<g id="a_node1"><a xlink:title=" ">
<polygon fill="#bfbfbf" stroke="black" points="268,-76.5 268,-95.5 321,-95.5 321,-76.5 268,-76.5"/>
<text text-anchor="middle" x="294.5" y="-83.5" font-family="Helvetica,sans-Serif" font-size="10.00">ex_exec</text>
</a>
</g>
</g>
<!-- Node2 -->
<g id="node2" class="node">
<title>Node2</title>
<g id="a_node2"><a xlink:href="ex_8c.html#a70c571bdde329a65e216c19b4aeaa628" target="_top" xlink:title=" ">
<polygon fill="white" stroke="black" points="169.5,-114.5 169.5,-133.5 219.5,-133.5 219.5,-114.5 169.5,-114.5"/>
<text text-anchor="middle" x="194.5" y="-121.5" font-family="Helvetica,sans-Serif" font-size="10.00">ec_glob</text>
</a>
</g>
</g>
<!-- Node1&#45;&gt;Node2 -->
<g id="edge1" class="edge">
<title>Node1&#45;&gt;Node2</title>
<path fill="none" stroke="midnightblue" d="M259.14,-99.32C246.07,-104.39 231.46,-110.06 219.54,-114.68"/>
<polygon fill="midnightblue" stroke="midnightblue" points="260.71,-102.47 268.77,-95.59 258.18,-95.94 260.71,-102.47"/>
</g>
<!-- Node4 -->
<g id="node4" class="node">
<title>Node4</title>
<g id="a_node4"><a xlink:href="vi_8h.html#aa75c73cccb4878ec06ea5bf5b1b02295" target="_top" xlink:title=" ">
<polygon fill="white" stroke="black" points="157,-38.5 157,-57.5 232,-57.5 232,-38.5 157,-38.5"/>
<text text-anchor="middle" x="194.5" y="-45.5" font-family="Helvetica,sans-Serif" font-size="10.00">ex_command</text>
</a>
</g>
</g>
<!-- Node1&#45;&gt;Node4 -->
<g id="edge4" class="edge">
<title>Node1&#45;&gt;Node4</title>
<path fill="none" stroke="midnightblue" d="M259.29,-72.74C246.43,-67.75 232.06,-62.18 220.22,-57.59"/>
<polygon fill="midnightblue" stroke="midnightblue" points="258.18,-76.06 268.77,-76.41 260.71,-69.53 258.18,-76.06"/>
</g>
<!-- Node3 -->
<g id="node3" class="node">
<title>Node3</title>
<g id="a_node3"><a xlink:href="ex_8c.html#a7d848d20211b2e1c868dde98ec5dfae9" target="_top" xlink:title=" ">
<polygon fill="white" stroke="black" points="74,-114.5 74,-133.5 121,-133.5 121,-114.5 74,-114.5"/>
<text text-anchor="middle" x="97.5" y="-121.5" font-family="Helvetica,sans-Serif" font-size="10.00">ex_line</text>
</a>
</g>
</g>
<!-- Node2&#45;&gt;Node3 -->
<g id="edge2" class="edge">
<title>Node2&#45;&gt;Node3</title>
<path fill="none" stroke="midnightblue" d="M158.89,-124C146.35,-124 132.51,-124 121.25,-124"/>
<polygon fill="midnightblue" stroke="midnightblue" points="159.04,-127.5 169.04,-124 159.04,-120.5 159.04,-127.5"/>
</g>
<!-- Node3&#45;&gt;Node1 -->
<g id="edge3" class="edge">
<title>Node3&#45;&gt;Node1</title>
<path fill="none" stroke="midnightblue" d="M130.59,-112.46C139.09,-109.71 148.32,-107 157,-105 195.12,-96.23 240.23,-90.91 267.85,-88.21"/>
<polygon fill="midnightblue" stroke="midnightblue" points="129.39,-109.17 121.02,-115.66 131.61,-115.81 129.39,-109.17"/>
</g>
<!-- Node5 -->
<g id="node5" class="node">
<title>Node5</title>
<g id="a_node5"><a xlink:href="vi_8h.html#ac395e51f25330a6e6033b6d0d22b2076" target="_top" xlink:title=" ">
<polygon fill="white" stroke="black" points="83,-76.5 83,-95.5 112,-95.5 112,-76.5 83,-76.5"/>
<text text-anchor="middle" x="97.5" y="-83.5" font-family="Helvetica,sans-Serif" font-size="10.00">ex</text>
</a>
</g>
</g>
<!-- Node4&#45;&gt;Node5 -->
<g id="edge5" class="edge">
<title>Node4&#45;&gt;Node5</title>
<path fill="none" stroke="midnightblue" d="M160.17,-61.33C143.68,-67.93 124.67,-75.53 112.17,-80.53"/>
<polygon fill="midnightblue" stroke="midnightblue" points="161.54,-64.55 169.53,-57.59 158.94,-58.05 161.54,-64.55"/>
</g>
<!-- Node7 -->
<g id="node7" class="node">
<title>Node7</title>
<g id="a_node7"><a xlink:href="vi_8h.html#abe53b5c10f94f20cd5ed024371615fa1" target="_top" xlink:title=" ">
<polygon fill="white" stroke="black" points="75,-38.5 75,-57.5 120,-57.5 120,-38.5 75,-38.5"/>
<text text-anchor="middle" x="97.5" y="-45.5" font-family="Helvetica,sans-Serif" font-size="10.00">ex_init</text>
</a>
</g>
</g>
<!-- Node4&#45;&gt;Node7 -->
<g id="edge7" class="edge">
<title>Node4&#45;&gt;Node7</title>
<path fill="none" stroke="midnightblue" d="M146.72,-48C137.37,-48 128,-48 120.03,-48"/>
<polygon fill="midnightblue" stroke="midnightblue" points="146.77,-51.5 156.77,-48 146.77,-44.5 146.77,-51.5"/>
</g>
<!-- Node8 -->
<g id="node8" class="node">
<title>Node8</title>
<g id="a_node8"><a xlink:href="vi_8c.html#a8d808e0f3453afe6600673ee1ea5f828" target="_top" xlink:title=" ">
<polygon fill="white" stroke="black" points="83,-0.5 83,-19.5 112,-19.5 112,-0.5 83,-0.5"/>
<text text-anchor="middle" x="97.5" y="-7.5" font-family="Helvetica,sans-Serif" font-size="10.00">vi</text>
</a>
</g>
</g>
<!-- Node4&#45;&gt;Node8 -->
<g id="edge9" class="edge">
<title>Node4&#45;&gt;Node8</title>
<path fill="none" stroke="midnightblue" d="M160.17,-34.67C143.68,-28.07 124.67,-20.47 112.17,-15.47"/>
<polygon fill="midnightblue" stroke="midnightblue" points="158.94,-37.95 169.53,-38.41 161.54,-31.45 158.94,-37.95"/>
</g>
<!-- Node6 -->
<g id="node6" class="node">
<title>Node6</title>
<g id="a_node6"><a xlink:href="vi_8c.html#a0ddf1224851353fc92bfbff6f499fa97" target="_top" xlink:title=" ">
<polygon fill="white" stroke="black" points="0,-38.5 0,-57.5 38,-57.5 38,-38.5 0,-38.5"/>
<text text-anchor="middle" x="19" y="-45.5" font-family="Helvetica,sans-Serif" font-size="10.00">main</text>
</a>
</g>
</g>
<!-- Node5&#45;&gt;Node6 -->
<g id="edge6" class="edge">
<title>Node5&#45;&gt;Node6</title>
<path fill="none" stroke="midnightblue" d="M73.55,-74.6C62.22,-68.97 48.76,-62.28 38.16,-57.02"/>
<polygon fill="midnightblue" stroke="midnightblue" points="72.31,-77.89 82.82,-79.21 75.42,-71.62 72.31,-77.89"/>
</g>
<!-- Node7&#45;&gt;Node6 -->
<g id="edge8" class="edge">
<title>Node7&#45;&gt;Node6</title>
<path fill="none" stroke="midnightblue" d="M64.55,-48C55.54,-48 46.05,-48 38.15,-48"/>
<polygon fill="midnightblue" stroke="midnightblue" points="64.78,-51.5 74.78,-48 64.78,-44.5 64.78,-51.5"/>
</g>
<!-- Node8&#45;&gt;Node6 -->
<g id="edge10" class="edge">
<title>Node8&#45;&gt;Node6</title>
<path fill="none" stroke="midnightblue" d="M73.55,-21.4C62.22,-27.03 48.76,-33.72 38.16,-38.98"/>
<polygon fill="midnightblue" stroke="midnightblue" points="75.42,-24.38 82.82,-16.79 72.31,-18.11 75.42,-24.38"/>
</g>
</g>
</svg>
