<?xml version="1.0" encoding="UTF-8" standalone="no"?>
<!DOCTYPE svg PUBLIC "-//W3C//DTD SVG 1.1//EN"
 "http://www.w3.org/Graphics/SVG/1.1/DTD/svg11.dtd">
<!-- Generated by graphviz version 2.44.1 (20200629.0846)
 -->
<!-- Title: ex_filearg Pages: 1 -->
<svg width="816pt" height="199pt"
 viewBox="0.00 0.00 816.00 199.00" xmlns="http://www.w3.org/2000/svg" xmlns:xlink="http://www.w3.org/1999/xlink">
<g id="graph0" class="graph" transform="scale(1 1) rotate(0) translate(4 195)">
<title>ex_filearg</title>
<polygon fill="white" stroke="transparent" points="-4,4 -4,-195 812,-195 812,4 -4,4"/>
<!-- Node1 -->
<g id="node1" class="node">
<title>Node1</title>
<g id="a_node1"><a xlink:title=" ">
<polygon fill="#bfbfbf" stroke="black" points="749,-76.5 749,-95.5 808,-95.5 808,-76.5 749,-76.5"/>
<text text-anchor="middle" x="778.5" y="-83.5" font-family="Helvetica,sans-Serif" font-size="10.00">ex_filearg</text>
</a>
</g>
</g>
<!-- Node2 -->
<g id="node2" class="node">
<title>Node2</title>
<g id="a_node2"><a xlink:href="ex_8c.html#a8059390ad69866fa8e14bdb2521d4dc2" target="_top" xlink:title=" ">
<polygon fill="white" stroke="black" points="442,-171.5 442,-190.5 490,-190.5 490,-171.5 442,-171.5"/>
<text text-anchor="middle" x="466" y="-178.5" font-family="Helvetica,sans-Serif" font-size="10.00">ec_edit</text>
</a>
</g>
</g>
<!-- Node1&#45;&gt;Node2 -->
<g id="edge1" class="edge">
<title>Node1&#45;&gt;Node2</title>
<path fill="none" stroke="midnightblue" d="M762.82,-103.33C750.79,-116.35 732.6,-133.51 713,-143 637.54,-179.53 535.18,-182.52 490.02,-181.82"/>
<polygon fill="midnightblue" stroke="midnightblue" points="765.44,-105.66 769.48,-95.86 760.21,-101 765.44,-105.66"/>
</g>
<!-- Node5 -->
<g id="node5" class="node">
<title>Node5</title>
<g id="a_node5"><a xlink:href="ex_8c.html#adcd83f163f659bd2596bcfc25d74bde9" target="_top" xlink:title=" ">
<polygon fill="white" stroke="black" points="439.5,-95.5 439.5,-114.5 492.5,-114.5 492.5,-95.5 439.5,-95.5"/>
<text text-anchor="middle" x="466" y="-102.5" font-family="Helvetica,sans-Serif" font-size="10.00">ec_exec</text>
</a>
</g>
</g>
<!-- Node1&#45;&gt;Node5 -->
<g id="edge4" class="edge">
<title>Node1&#45;&gt;Node5</title>
<path fill="none" stroke="midnightblue" d="M738.69,-88.37C674.23,-92.32 546.83,-100.11 492.51,-103.44"/>
<polygon fill="midnightblue" stroke="midnightblue" points="739.08,-91.86 748.85,-87.75 738.65,-84.87 739.08,-91.86"/>
</g>
<!-- Node12 -->
<g id="node12" class="node">
<title>Node12</title>
<g id="a_node12"><a xlink:href="ex_8c.html#aa69f426ff9728078fbb36f448c624a90" target="_top" xlink:title=" ">
<polygon fill="white" stroke="black" points="438,-57.5 438,-76.5 494,-76.5 494,-57.5 438,-57.5"/>
<text text-anchor="middle" x="466" y="-64.5" font-family="Helvetica,sans-Serif" font-size="10.00">ec_make</text>
</a>
</g>
</g>
<!-- Node1&#45;&gt;Node12 -->
<g id="edge15" class="edge">
<title>Node1&#45;&gt;Node12</title>
<path fill="none" stroke="midnightblue" d="M738.8,-83.63C675.05,-79.73 549.54,-72.05 494.25,-68.67"/>
<polygon fill="midnightblue" stroke="midnightblue" points="738.65,-87.13 748.85,-84.25 739.08,-80.14 738.65,-87.13"/>
</g>
<!-- Node13 -->
<g id="node13" class="node">
<title>Node13</title>
<g id="a_node13"><a xlink:href="ex_8c.html#add0e79e1f1e3d45f4eaa6fbe5c1ca443" target="_top" xlink:title=" ">
<polygon fill="white" stroke="black" points="661,-0.5 661,-19.5 712,-19.5 712,-0.5 661,-0.5"/>
<text text-anchor="middle" x="686.5" y="-7.5" font-family="Helvetica,sans-Serif" font-size="10.00">ec_read</text>
</a>
</g>
</g>
<!-- Node1&#45;&gt;Node13 -->
<g id="edge16" class="edge">
<title>Node1&#45;&gt;Node13</title>
<path fill="none" stroke="midnightblue" d="M758.46,-69.92C740.37,-54.65 713.77,-32.18 698.81,-19.55"/>
<polygon fill="midnightblue" stroke="midnightblue" points="756.2,-72.6 766.1,-76.37 760.72,-67.25 756.2,-72.6"/>
</g>
<!-- Node14 -->
<g id="node14" class="node">
<title>Node14</title>
<g id="a_node14"><a xlink:href="ex_8c.html#a057b67e2d4f23df3ad50a9d3ec86125b" target="_top" xlink:title=" ">
<polygon fill="white" stroke="black" points="660,-114.5 660,-133.5 713,-133.5 713,-114.5 660,-114.5"/>
<text text-anchor="middle" x="686.5" y="-121.5" font-family="Helvetica,sans-Serif" font-size="10.00">ec_write</text>
</a>
</g>
</g>
<!-- Node1&#45;&gt;Node14 -->
<g id="edge17" class="edge">
<title>Node1&#45;&gt;Node14</title>
<path fill="none" stroke="midnightblue" d="M745.39,-99.56C733.75,-104.47 720.86,-109.91 710.2,-114.41"/>
<polygon fill="midnightblue" stroke="midnightblue" points="746.94,-102.7 754.79,-95.59 744.22,-96.25 746.94,-102.7"/>
</g>
<!-- Node3 -->
<g id="node3" class="node">
<title>Node3</title>
<g id="a_node3"><a xlink:href="vi_8h.html#abe53b5c10f94f20cd5ed024371615fa1" target="_top" xlink:title=" ">
<polygon fill="white" stroke="black" points="74,-152.5 74,-171.5 119,-171.5 119,-152.5 74,-152.5"/>
<text text-anchor="middle" x="96.5" y="-159.5" font-family="Helvetica,sans-Serif" font-size="10.00">ex_init</text>
</a>
</g>
</g>
<!-- Node2&#45;&gt;Node3 -->
<g id="edge2" class="edge">
<title>Node2&#45;&gt;Node3</title>
<path fill="none" stroke="midnightblue" d="M431.55,-179.27C357.32,-175.43 180.55,-166.29 119.04,-163.11"/>
<polygon fill="midnightblue" stroke="midnightblue" points="431.57,-182.78 441.73,-179.8 431.93,-175.79 431.57,-182.78"/>
</g>
<!-- Node4 -->
<g id="node4" class="node">
<title>Node4</title>
<g id="a_node4"><a xlink:href="vi_8c.html#a0ddf1224851353fc92bfbff6f499fa97" target="_top" xlink:title=" ">
<polygon fill="white" stroke="black" points="0,-114.5 0,-133.5 38,-133.5 38,-114.5 0,-114.5"/>
<text text-anchor="middle" x="19" y="-121.5" font-family="Helvetica,sans-Serif" font-size="10.00">main</text>
</a>
</g>
</g>
<!-- Node3&#45;&gt;Node4 -->
<g id="edge3" class="edge">
<title>Node3&#45;&gt;Node4</title>
<path fill="none" stroke="midnightblue" d="M67.4,-147.86C57.57,-142.91 46.79,-137.49 38.01,-133.06"/>
<polygon fill="midnightblue" stroke="midnightblue" points="65.94,-151.04 76.45,-152.41 69.09,-144.79 65.94,-151.04"/>
</g>
<!-- Node6 -->
<g id="node6" class="node">
<title>Node6</title>
<g id="a_node6"><a xlink:href="ex_8c.html#a7d848d20211b2e1c868dde98ec5dfae9" target="_top" xlink:title=" ">
<polygon fill="white" stroke="black" points="355,-95.5 355,-114.5 402,-114.5 402,-95.5 355,-95.5"/>
<text text-anchor="middle" x="378.5" y="-102.5" font-family="Helvetica,sans-Serif" font-size="10.00">ex_line</text>
</a>
</g>
</g>
<!-- Node5&#45;&gt;Node6 -->
<g id="edge5" class="edge">
<title>Node5&#45;&gt;Node6</title>
<path fill="none" stroke="midnightblue" d="M429.29,-105C420.13,-105 410.53,-105 402.23,-105"/>
<polygon fill="midnightblue" stroke="midnightblue" points="429.35,-108.5 439.35,-105 429.35,-101.5 429.35,-108.5"/>
</g>
<!-- Node7 -->
<g id="node7" class="node">
<title>Node7</title>
<g id="a_node7"><a xlink:href="ex_8c.html#ab15ebfef933256d9741128e2ddf3f9b5" target="_top" xlink:title=" ">
<polygon fill="white" stroke="black" points="266,-95.5 266,-114.5 319,-114.5 319,-95.5 266,-95.5"/>
<text text-anchor="middle" x="292.5" y="-102.5" font-family="Helvetica,sans-Serif" font-size="10.00">ex_exec</text>
</a>
</g>
</g>
<!-- Node6&#45;&gt;Node7 -->
<g id="edge6" class="edge">
<title>Node6&#45;&gt;Node7</title>
<path fill="none" stroke="midnightblue" d="M344.9,-105C336.32,-105 327.19,-105 319.04,-105"/>
<polygon fill="midnightblue" stroke="midnightblue" points="344.99,-108.5 354.99,-105 344.99,-101.5 344.99,-108.5"/>
</g>
<!-- Node8 -->
<g id="node8" class="node">
<title>Node8</title>
<g id="a_node8"><a xlink:href="ex_8c.html#a70c571bdde329a65e216c19b4aeaa628" target="_top" xlink:title=" ">
<polygon fill="white" stroke="black" points="167.5,-133.5 167.5,-152.5 217.5,-152.5 217.5,-133.5 167.5,-133.5"/>
<text text-anchor="middle" x="192.5" y="-140.5" font-family="Helvetica,sans-Serif" font-size="10.00">ec_glob</text>
</a>
</g>
</g>
<!-- Node7&#45;&gt;Node8 -->
<g id="edge7" class="edge">
<title>Node7&#45;&gt;Node8</title>
<path fill="none" stroke="midnightblue" d="M257.14,-118.32C244.07,-123.39 229.46,-129.06 217.54,-133.68"/>
<polygon fill="midnightblue" stroke="midnightblue" points="258.71,-121.47 266.77,-114.59 256.18,-114.94 258.71,-121.47"/>
</g>
<!-- Node9 -->
<g id="node9" class="node">
<title>Node9</title>
<g id="a_node9"><a xlink:href="vi_8h.html#aa75c73cccb4878ec06ea5bf5b1b02295" target="_top" xlink:title=" ">
<polygon fill="white" stroke="black" points="155,-95.5 155,-114.5 230,-114.5 230,-95.5 155,-95.5"/>
<text text-anchor="middle" x="192.5" y="-102.5" font-family="Helvetica,sans-Serif" font-size="10.00">ex_command</text>
</a>
</g>
</g>
<!-- Node7&#45;&gt;Node9 -->
<g id="edge9" class="edge">
<title>Node7&#45;&gt;Node9</title>
<path fill="none" stroke="midnightblue" d="M255.61,-105C247.31,-105 238.46,-105 230.13,-105"/>
<polygon fill="midnightblue" stroke="midnightblue" points="255.75,-108.5 265.75,-105 255.75,-101.5 255.75,-108.5"/>
</g>
<!-- Node8&#45;&gt;Node6 -->
<g id="edge8" class="edge">
<title>Node8&#45;&gt;Node6</title>
<path fill="none" stroke="midnightblue" d="M228.01,-139.32C253.39,-136.24 288.6,-131.19 319,-124 331.05,-121.15 344.2,-116.98 354.96,-113.28"/>
<polygon fill="midnightblue" stroke="midnightblue" points="227.31,-135.88 217.78,-140.52 228.12,-142.83 227.31,-135.88"/>
</g>
<!-- Node9&#45;&gt;Node3 -->
<g id="edge12" class="edge">
<title>Node9&#45;&gt;Node3</title>
<path fill="none" stroke="midnightblue" d="M162.9,-119.52C160.21,-121 157.54,-122.51 155,-124 139.74,-132.98 122.9,-144.28 111.42,-152.21"/>
<polygon fill="midnightblue" stroke="midnightblue" points="164.79,-122.48 171.97,-114.69 161.5,-116.3 164.79,-122.48"/>
</g>
<!-- Node10 -->
<g id="node10" class="node">
<title>Node10</title>
<g id="a_node10"><a xlink:href="vi_8h.html#ac395e51f25330a6e6033b6d0d22b2076" target="_top" xlink:title=" ">
<polygon fill="white" stroke="black" points="82,-76.5 82,-95.5 111,-95.5 111,-76.5 82,-76.5"/>
<text text-anchor="middle" x="96.5" y="-83.5" font-family="Helvetica,sans-Serif" font-size="10.00">ex</text>
</a>
</g>
</g>
<!-- Node9&#45;&gt;Node10 -->
<g id="edge10" class="edge">
<title>Node9&#45;&gt;Node10</title>
<path fill="none" stroke="midnightblue" d="M144.73,-95.55C132.54,-93.08 120.33,-90.61 111.38,-88.8"/>
<polygon fill="midnightblue" stroke="midnightblue" points="144.39,-99.05 154.89,-97.6 145.78,-92.19 144.39,-99.05"/>
</g>
<!-- Node11 -->
<g id="node11" class="node">
<title>Node11</title>
<g id="a_node11"><a xlink:href="vi_8c.html#a8d808e0f3453afe6600673ee1ea5f828" target="_top" xlink:title=" ">
<polygon fill="white" stroke="black" points="82,-114.5 82,-133.5 111,-133.5 111,-114.5 82,-114.5"/>
<text text-anchor="middle" x="96.5" y="-121.5" font-family="Helvetica,sans-Serif" font-size="10.00">vi</text>
</a>
</g>
</g>
<!-- Node9&#45;&gt;Node11 -->
<g id="edge13" class="edge">
<title>Node9&#45;&gt;Node11</title>
<path fill="none" stroke="midnightblue" d="M144.73,-114.45C132.54,-116.92 120.33,-119.39 111.38,-121.2"/>
<polygon fill="midnightblue" stroke="midnightblue" points="145.78,-117.81 154.89,-112.4 144.39,-110.95 145.78,-117.81"/>
</g>
<!-- Node10&#45;&gt;Node4 -->
<g id="edge11" class="edge">
<title>Node10&#45;&gt;Node4</title>
<path fill="none" stroke="midnightblue" d="M72.56,-97.55C61.48,-103.12 48.39,-109.71 38.04,-114.92"/>
<polygon fill="midnightblue" stroke="midnightblue" points="74.29,-100.59 81.65,-92.97 71.15,-94.34 74.29,-100.59"/>
</g>
<!-- Node11&#45;&gt;Node4 -->
<g id="edge14" class="edge">
<title>Node11&#45;&gt;Node4</title>
<path fill="none" stroke="midnightblue" d="M71.55,-124C60.69,-124 48.07,-124 38.04,-124"/>
<polygon fill="midnightblue" stroke="midnightblue" points="71.65,-127.5 81.65,-124 71.65,-120.5 71.65,-127.5"/>
</g>
<!-- Node15 -->
<g id="node15" class="node">
<title>Node15</title>
<g id="a_node15"><a xlink:href="ex_8c.html#ab0cb848a971a3b2c09fcb456d887dd6b" target="_top" xlink:title=" ">
<polygon fill="white" stroke="black" points="530,-114.5 530,-133.5 624,-133.5 624,-114.5 530,-114.5"/>
<text text-anchor="middle" x="577" y="-121.5" font-family="Helvetica,sans-Serif" font-size="10.00">ex_modifiedbuffer</text>
</a>
</g>
</g>
<!-- Node14&#45;&gt;Node15 -->
<g id="edge18" class="edge">
<title>Node14&#45;&gt;Node15</title>
<path fill="none" stroke="midnightblue" d="M649.49,-124C641.36,-124 632.62,-124 624.14,-124"/>
<polygon fill="midnightblue" stroke="midnightblue" points="649.75,-127.5 659.75,-124 649.75,-120.5 649.75,-127.5"/>
</g>
<!-- Node15&#45;&gt;Node2 -->
<g id="edge19" class="edge">
<title>Node15&#45;&gt;Node2</title>
<path fill="none" stroke="midnightblue" d="M548.63,-138.31C528.8,-148.68 502.53,-162.42 485.22,-171.47"/>
<polygon fill="midnightblue" stroke="midnightblue" points="550.27,-141.4 557.51,-133.67 547.03,-135.2 550.27,-141.4"/>
</g>
<!-- Node15&#45;&gt;Node5 -->
<g id="edge20" class="edge">
<title>Node15&#45;&gt;Node5</title>
<path fill="none" stroke="midnightblue" d="M519.83,-114.21C510.26,-112.54 500.76,-110.88 492.51,-109.45"/>
<polygon fill="midnightblue" stroke="midnightblue" points="519.32,-117.67 529.77,-115.94 520.52,-110.78 519.32,-117.67"/>
</g>
<!-- Node15&#45;&gt;Node12 -->
<g id="edge21" class="edge">
<title>Node15&#45;&gt;Node12</title>
<path fill="none" stroke="midnightblue" d="M548.63,-109.69C528.8,-99.32 502.53,-85.58 485.22,-76.53"/>
<polygon fill="midnightblue" stroke="midnightblue" points="547.03,-112.8 557.51,-114.33 550.27,-106.6 547.03,-112.8"/>
</g>
<!-- Node16 -->
<g id="node16" class="node">
<title>Node16</title>
<g id="a_node16"><a xlink:href="ex_8c.html#a87eef446de152fad41ce88a9a343b87d" target="_top" xlink:title=" ">
<polygon fill="white" stroke="black" points="442,-133.5 442,-152.5 490,-152.5 490,-133.5 442,-133.5"/>
<text text-anchor="middle" x="466" y="-140.5" font-family="Helvetica,sans-Serif" font-size="10.00">ec_quit</text>
</a>
</g>
</g>
<!-- Node15&#45;&gt;Node16 -->
<g id="edge22" class="edge">
<title>Node15&#45;&gt;Node16</title>
<path fill="none" stroke="midnightblue" d="M519.75,-133.81C509.27,-135.63 498.88,-137.44 490.12,-138.97"/>
<polygon fill="midnightblue" stroke="midnightblue" points="520.52,-137.22 529.77,-132.06 519.32,-130.33 520.52,-137.22"/>
</g>
<!-- Node16&#45;&gt;Node14 -->
<g id="edge23" class="edge">
<title>Node16&#45;&gt;Node14</title>
<path fill="none" stroke="midnightblue" d="M500.16,-145.86C532.08,-147.94 581.62,-149.4 624,-143 636.27,-141.15 649.46,-137.33 660.46,-133.6"/>
<polygon fill="midnightblue" stroke="midnightblue" points="500.26,-142.36 490.04,-145.14 499.77,-149.34 500.26,-142.36"/>
</g>
</g>
</svg>
