<?xml version="1.0" encoding="UTF-8" standalone="no"?>
<!DOCTYPE svg PUBLIC "-//W3C//DTD SVG 1.1//EN"
 "http://www.w3.org/Graphics/SVG/1.1/DTD/svg11.dtd">
<!-- Generated by graphviz version 2.44.1 (20200629.0846)
 -->
<!-- Title: ex_loc Pages: 1 -->
<svg width="1023pt" height="893pt"
 viewBox="0.00 0.00 1023.00 893.21" xmlns="http://www.w3.org/2000/svg" xmlns:xlink="http://www.w3.org/1999/xlink">
<g id="graph0" class="graph" transform="scale(1 1) rotate(0) translate(4 889.21)">
<title>ex_loc</title>
<polygon fill="white" stroke="transparent" points="-4,4 -4,-889.21 1019,-889.21 1019,4 -4,4"/>
<!-- Node1 -->
<g id="node1" class="node">
<title>Node1</title>
<g id="a_node1"><a xlink:title=" ">
<polygon fill="#bfbfbf" stroke="black" points="970,-494.5 970,-513.5 1015,-513.5 1015,-494.5 970,-494.5"/>
<text text-anchor="middle" x="992.5" y="-501.5" font-family="Helvetica,sans-Serif" font-size="10.00">ex_loc</text>
</a>
</g>
</g>
<!-- Node2 -->
<g id="node2" class="node">
<title>Node2</title>
<g id="a_node2"><a xlink:href="ex_8c.html#a4cd0748447515b7a935e4bb41424a9e4" target="_top" xlink:title=" ">
<polygon fill="white" stroke="black" points="675.5,-646.5 675.5,-665.5 734.5,-665.5 734.5,-646.5 675.5,-646.5"/>
<text text-anchor="middle" x="705" y="-653.5" font-family="Helvetica,sans-Serif" font-size="10.00">ec_delete</text>
</a>
</g>
</g>
<!-- Node1&#45;&gt;Node2 -->
<g id="edge1" class="edge">
<title>Node1&#45;&gt;Node2</title>
<path fill="none" stroke="midnightblue" d="M989.24,-523.89C984.66,-553.93 971.32,-610.19 934,-637 874.16,-679.99 781.33,-670.65 734.74,-662.25"/>
<polygon fill="midnightblue" stroke="midnightblue" points="992.73,-524.16 990.59,-513.78 985.79,-523.22 992.73,-524.16"/>
</g>
<!-- Node3 -->
<g id="node3" class="node">
<title>Node3</title>
<g id="a_node3"><a xlink:href="ex_8c.html#adcd83f163f659bd2596bcfc25d74bde9" target="_top" xlink:title=" ">
<polygon fill="white" stroke="black" points="439.5,-541.5 439.5,-560.5 492.5,-560.5 492.5,-541.5 439.5,-541.5"/>
<text text-anchor="middle" x="466" y="-548.5" font-family="Helvetica,sans-Serif" font-size="10.00">ec_exec</text>
</a>
</g>
</g>
<!-- Node1&#45;&gt;Node3 -->
<g id="edge2" class="edge">
<title>Node1&#45;&gt;Node3</title>
<path fill="none" stroke="midnightblue" d="M989.51,-484.41C983.65,-430.4 964.97,-280.98 934,-244 853.77,-148.21 765.91,-114.68 660,-181 516.8,-270.67 590.73,-384.47 494,-523 489.36,-529.64 483.14,-536.21 477.84,-541.31"/>
<polygon fill="midnightblue" stroke="midnightblue" points="986.03,-484.83 990.56,-494.41 992.99,-484.1 986.03,-484.83"/>
</g>
<!-- Node6 -->
<g id="node6" class="node">
<title>Node6</title>
<g id="a_node6"><a xlink:href="ex_8c.html#a70c571bdde329a65e216c19b4aeaa628" target="_top" xlink:title=" ">
<polygon fill="white" stroke="black" points="167.5,-577.5 167.5,-596.5 217.5,-596.5 217.5,-577.5 167.5,-577.5"/>
<text text-anchor="middle" x="192.5" y="-584.5" font-family="Helvetica,sans-Serif" font-size="10.00">ec_glob</text>
</a>
</g>
</g>
<!-- Node1&#45;&gt;Node6 -->
<g id="edge14" class="edge">
<title>Node1&#45;&gt;Node6</title>
<path fill="none" stroke="midnightblue" d="M989.65,-523.94C982.19,-591.57 948.04,-808 816.5,-808 816.5,-808 816.5,-808 377.5,-808 265.92,-808 208.92,-639.55 196.25,-596.78"/>
<polygon fill="midnightblue" stroke="midnightblue" points="993.16,-524.07 990.69,-513.77 986.19,-523.36 993.16,-524.07"/>
</g>
<!-- Node12 -->
<g id="node12" class="node">
<title>Node12</title>
<g id="a_node12"><a xlink:href="ex_8c.html#a0908784dc65be2da119a6b72ef96dec2" target="_top" xlink:title=" ">
<polygon fill="white" stroke="black" points="677,-228.5 677,-247.5 733,-247.5 733,-228.5 677,-228.5"/>
<text text-anchor="middle" x="705" y="-235.5" font-family="Helvetica,sans-Serif" font-size="10.00">ec_insert</text>
</a>
</g>
</g>
<!-- Node1&#45;&gt;Node12 -->
<g id="edge15" class="edge">
<title>Node1&#45;&gt;Node12</title>
<path fill="none" stroke="midnightblue" d="M986.31,-484.53C972.52,-437.18 930.1,-316.23 845,-266 810.13,-245.42 762.68,-239.72 733.21,-238.29"/>
<polygon fill="midnightblue" stroke="midnightblue" points="983.01,-485.74 989.08,-494.42 989.75,-483.85 983.01,-485.74"/>
</g>
<!-- Node13 -->
<g id="node13" class="node">
<title>Node13</title>
<g id="a_node13"><a xlink:href="ex_8c.html#a1d45a70b724f4cccae2ab746c711ebb1" target="_top" xlink:title=" ">
<polygon fill="white" stroke="black" points="881,-608.5 881,-627.5 934,-627.5 934,-608.5 881,-608.5"/>
<text text-anchor="middle" x="907.5" y="-615.5" font-family="Helvetica,sans-Serif" font-size="10.00">ec_lnum</text>
</a>
</g>
</g>
<!-- Node1&#45;&gt;Node13 -->
<g id="edge16" class="edge">
<title>Node1&#45;&gt;Node13</title>
<path fill="none" stroke="midnightblue" d="M981.48,-522.51C970.87,-541.37 953.04,-571.02 934,-594 929.81,-599.06 924.62,-604.12 920.01,-608.28"/>
<polygon fill="midnightblue" stroke="midnightblue" points="984.56,-524.17 986.34,-513.72 978.44,-520.78 984.56,-524.17"/>
</g>
<!-- Node14 -->
<g id="node14" class="node">
<title>Node14</title>
<g id="a_node14"><a xlink:href="ex_8c.html#ab95c9f0f009989c44f3ebb5abae4054d" target="_top" xlink:title=" ">
<polygon fill="white" stroke="black" points="678,-456.5 678,-475.5 732,-475.5 732,-456.5 678,-456.5"/>
<text text-anchor="middle" x="705" y="-463.5" font-family="Helvetica,sans-Serif" font-size="10.00">ec_mark</text>
</a>
</g>
</g>
<!-- Node1&#45;&gt;Node14 -->
<g id="edge17" class="edge">
<title>Node1&#45;&gt;Node14</title>
<path fill="none" stroke="midnightblue" d="M959.33,-499.72C902.27,-492.12 784.44,-476.44 732.07,-469.47"/>
<polygon fill="midnightblue" stroke="midnightblue" points="959.2,-503.23 969.57,-501.08 960.12,-496.29 959.2,-503.23"/>
</g>
<!-- Node15 -->
<g id="node15" class="node">
<title>Node15</title>
<g id="a_node15"><a xlink:href="ex_8c.html#affb8197a8f988443aadf1bf2800a0d0b" target="_top" xlink:title=" ">
<polygon fill="white" stroke="black" points="681.5,-855.5 681.5,-874.5 728.5,-874.5 728.5,-855.5 681.5,-855.5"/>
<text text-anchor="middle" x="705" y="-862.5" font-family="Helvetica,sans-Serif" font-size="10.00">ec_null</text>
</a>
</g>
</g>
<!-- Node1&#45;&gt;Node15 -->
<g id="edge18" class="edge">
<title>Node1&#45;&gt;Node15</title>
<path fill="none" stroke="midnightblue" d="M991.02,-523.91C989.02,-589.96 979.14,-800.32 934,-847 879.9,-902.94 774.99,-883.77 728.79,-871.72"/>
<polygon fill="midnightblue" stroke="midnightblue" points="994.53,-523.73 991.3,-513.64 987.53,-523.54 994.53,-523.73"/>
</g>
<!-- Node16 -->
<g id="node16" class="node">
<title>Node16</title>
<g id="a_node16"><a xlink:href="ex_8c.html#ad2c1a9505aa3097bac242b47a367f11d" target="_top" xlink:title=" ">
<polygon fill="white" stroke="black" points="790,-836.5 790,-855.5 841,-855.5 841,-836.5 790,-836.5"/>
<text text-anchor="middle" x="815.5" y="-843.5" font-family="Helvetica,sans-Serif" font-size="10.00">ec_print</text>
</a>
</g>
</g>
<!-- Node1&#45;&gt;Node16 -->
<g id="edge19" class="edge">
<title>Node1&#45;&gt;Node16</title>
<path fill="none" stroke="midnightblue" d="M990.74,-523.67C987.92,-586.24 975.91,-779.14 934,-822 909.98,-846.56 868.11,-849.43 841.38,-848.37"/>
<polygon fill="midnightblue" stroke="midnightblue" points="994.24,-523.7 991.17,-513.56 987.25,-523.41 994.24,-523.7"/>
</g>
<!-- Node17 -->
<g id="node17" class="node">
<title>Node17</title>
<g id="a_node17"><a xlink:href="ex_8c.html#ab417867ff867aff9f7277229990cd1b8" target="_top" xlink:title=" ">
<polygon fill="white" stroke="black" points="682,-418.5 682,-437.5 728,-437.5 728,-418.5 682,-418.5"/>
<text text-anchor="middle" x="705" y="-425.5" font-family="Helvetica,sans-Serif" font-size="10.00">ec_put</text>
</a>
</g>
</g>
<!-- Node1&#45;&gt;Node17 -->
<g id="edge21" class="edge">
<title>Node1&#45;&gt;Node17</title>
<path fill="none" stroke="midnightblue" d="M960.24,-493.2C951.77,-490.4 942.56,-487.48 934,-485 859.15,-463.31 769.07,-442.26 728.16,-432.96"/>
<polygon fill="midnightblue" stroke="midnightblue" points="959.18,-496.54 969.78,-496.4 961.41,-489.9 959.18,-496.54"/>
</g>
<!-- Node18 -->
<g id="node18" class="node">
<title>Node18</title>
<g id="a_node18"><a xlink:href="ex_8c.html#add0e79e1f1e3d45f4eaa6fbe5c1ca443" target="_top" xlink:title=" ">
<polygon fill="white" stroke="black" points="679.5,-532.5 679.5,-551.5 730.5,-551.5 730.5,-532.5 679.5,-532.5"/>
<text text-anchor="middle" x="705" y="-539.5" font-family="Helvetica,sans-Serif" font-size="10.00">ec_read</text>
</a>
</g>
</g>
<!-- Node1&#45;&gt;Node18 -->
<g id="edge22" class="edge">
<title>Node1&#45;&gt;Node18</title>
<path fill="none" stroke="midnightblue" d="M959.99,-512.48C951.59,-514.51 942.49,-516.53 934,-518 860.67,-530.73 772.81,-537.67 730.78,-540.48"/>
<polygon fill="midnightblue" stroke="midnightblue" points="960.96,-515.84 969.8,-510.01 959.25,-509.05 960.96,-515.84"/>
</g>
<!-- Node19 -->
<g id="node19" class="node">
<title>Node19</title>
<g id="a_node19"><a xlink:href="ex_8c.html#aaf4e813ce4370aa859181d22de51576b" target="_top" xlink:title=" ">
<polygon fill="white" stroke="black" points="667.5,-0.5 667.5,-19.5 742.5,-19.5 742.5,-0.5 667.5,-0.5"/>
<text text-anchor="middle" x="705" y="-7.5" font-family="Helvetica,sans-Serif" font-size="10.00">ec_substitute</text>
</a>
</g>
</g>
<!-- Node1&#45;&gt;Node19 -->
<g id="edge23" class="edge">
<title>Node1&#45;&gt;Node19</title>
<path fill="none" stroke="midnightblue" d="M991.29,-484.02C990.14,-408.21 982.64,-139.2 934,-72 890.71,-12.19 795.57,-5.83 742.91,-7.33"/>
<polygon fill="midnightblue" stroke="midnightblue" points="987.8,-484.52 991.43,-494.47 994.8,-484.43 987.8,-484.52"/>
</g>
<!-- Node20 -->
<g id="node20" class="node">
<title>Node20</title>
<g id="a_node20"><a xlink:href="ex_8c.html#a057b67e2d4f23df3ad50a9d3ec86125b" target="_top" xlink:title=" ">
<polygon fill="white" stroke="black" points="678.5,-494.5 678.5,-513.5 731.5,-513.5 731.5,-494.5 678.5,-494.5"/>
<text text-anchor="middle" x="705" y="-501.5" font-family="Helvetica,sans-Serif" font-size="10.00">ec_write</text>
</a>
</g>
</g>
<!-- Node1&#45;&gt;Node20 -->
<g id="edge24" class="edge">
<title>Node1&#45;&gt;Node20</title>
<path fill="none" stroke="midnightblue" d="M959.3,-504C902.08,-504 783.8,-504 731.65,-504"/>
<polygon fill="midnightblue" stroke="midnightblue" points="959.57,-507.5 969.57,-504 959.57,-500.5 959.57,-507.5"/>
</g>
<!-- Node25 -->
<g id="node25" class="node">
<title>Node25</title>
<g id="a_node25"><a xlink:href="ex_8c.html#a487b22f0ae712d3338f5e9d8d6fa8540" target="_top" xlink:title=" ">
<polygon fill="white" stroke="black" points="678.5,-190.5 678.5,-209.5 731.5,-209.5 731.5,-190.5 678.5,-190.5"/>
<text text-anchor="middle" x="705" y="-197.5" font-family="Helvetica,sans-Serif" font-size="10.00">ec_yank</text>
</a>
</g>
</g>
<!-- Node1&#45;&gt;Node25 -->
<g id="edge32" class="edge">
<title>Node1&#45;&gt;Node25</title>
<path fill="none" stroke="midnightblue" d="M991.11,-484.21C989.33,-443.73 980.13,-350.28 934,-291 883.61,-226.25 780.08,-207.42 731.82,-202.07"/>
<polygon fill="midnightblue" stroke="midnightblue" points="987.61,-484.48 991.44,-494.36 994.61,-484.25 987.61,-484.48"/>
</g>
<!-- Node26 -->
<g id="node26" class="node">
<title>Node26</title>
<g id="a_node26"><a xlink:href="ex_8c.html#ac81e7e5f5a7172bb68069a443e15d8c1" target="_top" xlink:title=" ">
<polygon fill="white" stroke="black" points="882,-380.5 882,-399.5 933,-399.5 933,-380.5 882,-380.5"/>
<text text-anchor="middle" x="907.5" y="-387.5" font-family="Helvetica,sans-Serif" font-size="10.00">ex_cmd</text>
</a>
</g>
</g>
<!-- Node1&#45;&gt;Node26 -->
<g id="edge33" class="edge">
<title>Node1&#45;&gt;Node26</title>
<path fill="none" stroke="midnightblue" d="M981.48,-485.49C970.87,-466.63 953.04,-436.98 934,-414 929.81,-408.94 924.62,-403.88 920.01,-399.72"/>
<polygon fill="midnightblue" stroke="midnightblue" points="978.44,-487.22 986.34,-494.28 984.56,-483.83 978.44,-487.22"/>
</g>
<!-- Node4 -->
<g id="node4" class="node">
<title>Node4</title>
<g id="a_node4"><a xlink:href="ex_8c.html#a7d848d20211b2e1c868dde98ec5dfae9" target="_top" xlink:title=" ">
<polygon fill="white" stroke="black" points="355,-577.5 355,-596.5 402,-596.5 402,-577.5 355,-577.5"/>
<text text-anchor="middle" x="378.5" y="-584.5" font-family="Helvetica,sans-Serif" font-size="10.00">ex_line</text>
</a>
</g>
</g>
<!-- Node3&#45;&gt;Node4 -->
<g id="edge3" class="edge">
<title>Node3&#45;&gt;Node4</title>
<path fill="none" stroke="midnightblue" d="M432.68,-564.61C422.52,-568.89 411.52,-573.52 402.18,-577.45"/>
<polygon fill="midnightblue" stroke="midnightblue" points="434.23,-567.75 442.09,-560.65 431.51,-561.3 434.23,-567.75"/>
</g>
<!-- Node5 -->
<g id="node5" class="node">
<title>Node5</title>
<g id="a_node5"><a xlink:href="ex_8c.html#ab15ebfef933256d9741128e2ddf3f9b5" target="_top" xlink:title=" ">
<polygon fill="white" stroke="black" points="266,-651.5 266,-670.5 319,-670.5 319,-651.5 266,-651.5"/>
<text text-anchor="middle" x="292.5" y="-658.5" font-family="Helvetica,sans-Serif" font-size="10.00">ex_exec</text>
</a>
</g>
</g>
<!-- Node4&#45;&gt;Node5 -->
<g id="edge4" class="edge">
<title>Node4&#45;&gt;Node5</title>
<path fill="none" stroke="midnightblue" d="M358.99,-603.31C342.3,-618.01 318.32,-639.13 304.48,-651.32"/>
<polygon fill="midnightblue" stroke="midnightblue" points="361.33,-605.91 366.52,-596.67 356.7,-600.66 361.33,-605.91"/>
</g>
<!-- Node5&#45;&gt;Node6 -->
<g id="edge5" class="edge">
<title>Node5&#45;&gt;Node6</title>
<path fill="none" stroke="midnightblue" d="M270.69,-645.29C251.2,-630.57 222.68,-609.03 206.31,-596.68"/>
<polygon fill="midnightblue" stroke="midnightblue" points="268.6,-648.09 278.69,-651.33 272.82,-642.51 268.6,-648.09"/>
</g>
<!-- Node7 -->
<g id="node7" class="node">
<title>Node7</title>
<g id="a_node7"><a xlink:href="vi_8h.html#aa75c73cccb4878ec06ea5bf5b1b02295" target="_top" xlink:title=" ">
<polygon fill="white" stroke="black" points="155,-722.5 155,-741.5 230,-741.5 230,-722.5 155,-722.5"/>
<text text-anchor="middle" x="192.5" y="-729.5" font-family="Helvetica,sans-Serif" font-size="10.00">ex_command</text>
</a>
</g>
</g>
<!-- Node5&#45;&gt;Node7 -->
<g id="edge7" class="edge">
<title>Node5&#45;&gt;Node7</title>
<path fill="none" stroke="midnightblue" d="M270.09,-676.51C250.82,-690.47 223.09,-710.56 206.82,-722.35"/>
<polygon fill="midnightblue" stroke="midnightblue" points="272.24,-679.28 278.28,-670.58 268.13,-673.61 272.24,-679.28"/>
</g>
<!-- Node6&#45;&gt;Node4 -->
<g id="edge6" class="edge">
<title>Node6&#45;&gt;Node4</title>
<path fill="none" stroke="midnightblue" d="M228.06,-587C265.22,-587 323.23,-587 354.94,-587"/>
<polygon fill="midnightblue" stroke="midnightblue" points="227.71,-583.5 217.71,-587 227.71,-590.5 227.71,-583.5"/>
</g>
<!-- Node8 -->
<g id="node8" class="node">
<title>Node8</title>
<g id="a_node8"><a xlink:href="vi_8h.html#ac395e51f25330a6e6033b6d0d22b2076" target="_top" xlink:title=" ">
<polygon fill="white" stroke="black" points="82,-722.5 82,-741.5 111,-741.5 111,-722.5 82,-722.5"/>
<text text-anchor="middle" x="96.5" y="-729.5" font-family="Helvetica,sans-Serif" font-size="10.00">ex</text>
</a>
</g>
</g>
<!-- Node7&#45;&gt;Node8 -->
<g id="edge8" class="edge">
<title>Node7&#45;&gt;Node8</title>
<path fill="none" stroke="midnightblue" d="M144.73,-732C132.54,-732 120.33,-732 111.38,-732"/>
<polygon fill="midnightblue" stroke="midnightblue" points="144.89,-735.5 154.89,-732 144.89,-728.5 144.89,-735.5"/>
</g>
<!-- Node10 -->
<g id="node10" class="node">
<title>Node10</title>
<g id="a_node10"><a xlink:href="vi_8h.html#abe53b5c10f94f20cd5ed024371615fa1" target="_top" xlink:title=" ">
<polygon fill="white" stroke="black" points="74,-760.5 74,-779.5 119,-779.5 119,-760.5 74,-760.5"/>
<text text-anchor="middle" x="96.5" y="-767.5" font-family="Helvetica,sans-Serif" font-size="10.00">ex_init</text>
</a>
</g>
</g>
<!-- Node7&#45;&gt;Node10 -->
<g id="edge10" class="edge">
<title>Node7&#45;&gt;Node10</title>
<path fill="none" stroke="midnightblue" d="M158.25,-745.44C145.31,-750.67 130.85,-756.52 119.28,-761.2"/>
<polygon fill="midnightblue" stroke="midnightblue" points="159.82,-748.58 167.78,-741.59 157.2,-742.09 159.82,-748.58"/>
</g>
<!-- Node11 -->
<g id="node11" class="node">
<title>Node11</title>
<g id="a_node11"><a xlink:href="vi_8c.html#a8d808e0f3453afe6600673ee1ea5f828" target="_top" xlink:title=" ">
<polygon fill="white" stroke="black" points="82,-684.5 82,-703.5 111,-703.5 111,-684.5 82,-684.5"/>
<text text-anchor="middle" x="96.5" y="-691.5" font-family="Helvetica,sans-Serif" font-size="10.00">vi</text>
</a>
</g>
</g>
<!-- Node7&#45;&gt;Node11 -->
<g id="edge12" class="edge">
<title>Node7&#45;&gt;Node11</title>
<path fill="none" stroke="midnightblue" d="M158.07,-718.48C141.85,-711.93 123.28,-704.42 111.02,-699.47"/>
<polygon fill="midnightblue" stroke="midnightblue" points="157.2,-721.91 167.78,-722.41 159.82,-715.42 157.2,-721.91"/>
</g>
<!-- Node9 -->
<g id="node9" class="node">
<title>Node9</title>
<g id="a_node9"><a xlink:href="vi_8c.html#a0ddf1224851353fc92bfbff6f499fa97" target="_top" xlink:title=" ">
<polygon fill="white" stroke="black" points="0,-722.5 0,-741.5 38,-741.5 38,-722.5 0,-722.5"/>
<text text-anchor="middle" x="19" y="-729.5" font-family="Helvetica,sans-Serif" font-size="10.00">main</text>
</a>
</g>
</g>
<!-- Node8&#45;&gt;Node9 -->
<g id="edge9" class="edge">
<title>Node8&#45;&gt;Node9</title>
<path fill="none" stroke="midnightblue" d="M71.55,-732C60.69,-732 48.07,-732 38.04,-732"/>
<polygon fill="midnightblue" stroke="midnightblue" points="71.65,-735.5 81.65,-732 71.65,-728.5 71.65,-735.5"/>
</g>
<!-- Node10&#45;&gt;Node9 -->
<g id="edge11" class="edge">
<title>Node10&#45;&gt;Node9</title>
<path fill="none" stroke="midnightblue" d="M67.4,-755.86C57.57,-750.91 46.79,-745.49 38.01,-741.06"/>
<polygon fill="midnightblue" stroke="midnightblue" points="65.94,-759.04 76.45,-760.41 69.09,-752.79 65.94,-759.04"/>
</g>
<!-- Node11&#45;&gt;Node9 -->
<g id="edge13" class="edge">
<title>Node11&#45;&gt;Node9</title>
<path fill="none" stroke="midnightblue" d="M72.56,-705.55C61.48,-711.12 48.39,-717.71 38.04,-722.92"/>
<polygon fill="midnightblue" stroke="midnightblue" points="74.29,-708.59 81.65,-700.97 71.15,-702.34 74.29,-708.59"/>
</g>
<!-- Node16&#45;&gt;Node15 -->
<g id="edge20" class="edge">
<title>Node16&#45;&gt;Node15</title>
<path fill="none" stroke="midnightblue" d="M779.89,-852.06C763.14,-854.99 743.49,-858.43 728.67,-861.03"/>
<polygon fill="midnightblue" stroke="midnightblue" points="780.63,-855.48 789.88,-850.31 779.43,-848.59 780.63,-855.48"/>
</g>
<!-- Node21 -->
<g id="node21" class="node">
<title>Node21</title>
<g id="a_node21"><a xlink:href="ex_8c.html#ab0cb848a971a3b2c09fcb456d887dd6b" target="_top" xlink:title=" ">
<polygon fill="white" stroke="black" points="530,-570.5 530,-589.5 624,-589.5 624,-570.5 530,-570.5"/>
<text text-anchor="middle" x="577" y="-577.5" font-family="Helvetica,sans-Serif" font-size="10.00">ex_modifiedbuffer</text>
</a>
</g>
</g>
<!-- Node20&#45;&gt;Node21 -->
<g id="edge25" class="edge">
<title>Node20&#45;&gt;Node21</title>
<path fill="none" stroke="midnightblue" d="M670.18,-517.78C666.7,-519.44 663.25,-521.2 660,-523 633.94,-537.49 605.88,-558.24 590.27,-570.3"/>
<polygon fill="midnightblue" stroke="midnightblue" points="671.72,-520.93 679.38,-513.61 668.82,-514.55 671.72,-520.93"/>
</g>
<!-- Node21&#45;&gt;Node3 -->
<g id="edge28" class="edge">
<title>Node21&#45;&gt;Node3</title>
<path fill="none" stroke="midnightblue" d="M530.33,-567.85C517.44,-564.42 503.87,-560.81 492.61,-557.81"/>
<polygon fill="midnightblue" stroke="midnightblue" points="529.44,-571.24 540.01,-570.42 531.24,-564.47 529.44,-571.24"/>
</g>
<!-- Node22 -->
<g id="node22" class="node">
<title>Node22</title>
<g id="a_node22"><a xlink:href="ex_8c.html#a8059390ad69866fa8e14bdb2521d4dc2" target="_top" xlink:title=" ">
<polygon fill="white" stroke="black" points="442,-694.5 442,-713.5 490,-713.5 490,-694.5 442,-694.5"/>
<text text-anchor="middle" x="466" y="-701.5" font-family="Helvetica,sans-Serif" font-size="10.00">ec_edit</text>
</a>
</g>
</g>
<!-- Node21&#45;&gt;Node22 -->
<g id="edge26" class="edge">
<title>Node21&#45;&gt;Node22</title>
<path fill="none" stroke="midnightblue" d="M560.65,-597.46C537.36,-623.96 493.86,-673.44 475.51,-694.32"/>
<polygon fill="midnightblue" stroke="midnightblue" points="563.47,-599.55 567.45,-589.73 558.22,-594.93 563.47,-599.55"/>
</g>
<!-- Node23 -->
<g id="node23" class="node">
<title>Node23</title>
<g id="a_node23"><a xlink:href="ex_8c.html#aa69f426ff9728078fbb36f448c624a90" target="_top" xlink:title=" ">
<polygon fill="white" stroke="black" points="438,-589.5 438,-608.5 494,-608.5 494,-589.5 438,-589.5"/>
<text text-anchor="middle" x="466" y="-596.5" font-family="Helvetica,sans-Serif" font-size="10.00">ec_make</text>
</a>
</g>
</g>
<!-- Node21&#45;&gt;Node23 -->
<g id="edge29" class="edge">
<title>Node21&#45;&gt;Node23</title>
<path fill="none" stroke="midnightblue" d="M519.7,-589.81C510.76,-591.37 501.89,-592.92 494.04,-594.29"/>
<polygon fill="midnightblue" stroke="midnightblue" points="520.52,-593.22 529.77,-588.06 519.32,-586.33 520.52,-593.22"/>
</g>
<!-- Node24 -->
<g id="node24" class="node">
<title>Node24</title>
<g id="a_node24"><a xlink:href="ex_8c.html#a87eef446de152fad41ce88a9a343b87d" target="_top" xlink:title=" ">
<polygon fill="white" stroke="black" points="442,-494.5 442,-513.5 490,-513.5 490,-494.5 442,-494.5"/>
<text text-anchor="middle" x="466" y="-501.5" font-family="Helvetica,sans-Serif" font-size="10.00">ec_quit</text>
</a>
</g>
</g>
<!-- Node21&#45;&gt;Node24 -->
<g id="edge30" class="edge">
<title>Node21&#45;&gt;Node24</title>
<path fill="none" stroke="midnightblue" d="M553.82,-564.54C531.9,-549.25 499.06,-526.36 480.69,-513.55"/>
<polygon fill="midnightblue" stroke="midnightblue" points="551.99,-567.53 562.2,-570.37 555.99,-561.78 551.99,-567.53"/>
</g>
<!-- Node22&#45;&gt;Node10 -->
<g id="edge27" class="edge">
<title>Node22&#45;&gt;Node10</title>
<path fill="none" stroke="midnightblue" d="M431.85,-711.23C386.44,-720.99 302.28,-738.6 230,-751 191.06,-757.68 145.41,-763.87 119.13,-767.27"/>
<polygon fill="midnightblue" stroke="midnightblue" points="432.69,-714.63 441.73,-709.1 431.22,-707.78 432.69,-714.63"/>
</g>
<!-- Node24&#45;&gt;Node20 -->
<g id="edge31" class="edge">
<title>Node24&#45;&gt;Node20</title>
<path fill="none" stroke="midnightblue" d="M500.45,-504C548.24,-504 635.02,-504 678.19,-504"/>
<polygon fill="midnightblue" stroke="midnightblue" points="500.31,-500.5 490.31,-504 500.31,-507.5 500.31,-500.5"/>
</g>
<!-- Node26&#45;&gt;Node5 -->
<g id="edge57" class="edge">
<title>Node26&#45;&gt;Node5</title>
<path fill="none" stroke="midnightblue" d="M904.56,-409.75C898.5,-467.8 878.37,-636.42 845,-679 816.06,-715.92 795.37,-713.07 750,-725 615.89,-760.27 572.12,-758.22 438,-723 390.21,-710.45 337.76,-684.65 311.13,-670.62"/>
<polygon fill="midnightblue" stroke="midnightblue" points="908.05,-409.99 905.58,-399.69 901.09,-409.28 908.05,-409.99"/>
</g>
<!-- Node26&#45;&gt;Node6 -->
<g id="edge36" class="edge">
<title>Node26&#45;&gt;Node6</title>
<path fill="none" stroke="midnightblue" d="M905.68,-369.99C903.04,-331.13 891.9,-244.83 845,-194 758.19,-99.92 706.01,-86 578,-86 578,-86 578,-86 377.5,-86 268.62,-86 204.59,-508.18 194.81,-577.44"/>
<polygon fill="midnightblue" stroke="midnightblue" points="902.21,-370.64 906.26,-380.43 909.2,-370.26 902.21,-370.64"/>
</g>
<!-- Node26&#45;&gt;Node12 -->
<g id="edge37" class="edge">
<title>Node26&#45;&gt;Node12</title>
<path fill="none" stroke="midnightblue" d="M896.12,-371.44C885.24,-353.25 866.71,-325.62 845,-307 811.15,-277.98 762.97,-257.64 733.14,-246.89"/>
<polygon fill="midnightblue" stroke="midnightblue" points="893.31,-373.56 901.36,-380.45 899.36,-370.05 893.31,-373.56"/>
</g>
<!-- Node26&#45;&gt;Node16 -->
<g id="edge38" class="edge">
<title>Node26&#45;&gt;Node16</title>
<path fill="none" stroke="midnightblue" d="M904.15,-409.71C895.78,-479.15 866.68,-712.11 845,-784 839.19,-803.28 828.53,-824.3 822.02,-836.24"/>
<polygon fill="midnightblue" stroke="midnightblue" points="907.64,-410.04 905.36,-399.69 900.69,-409.2 907.64,-410.04"/>
</g>
<!-- Node26&#45;&gt;Node20 -->
<g id="edge40" class="edge">
<title>Node26&#45;&gt;Node20</title>
<path fill="none" stroke="midnightblue" d="M883.74,-405.19C853.78,-424.86 799.14,-459.63 750,-485 743.64,-488.28 736.59,-491.5 730.03,-494.33"/>
<polygon fill="midnightblue" stroke="midnightblue" points="885.8,-408.02 892.21,-399.59 881.94,-402.18 885.8,-408.02"/>
</g>
<!-- Node26&#45;&gt;Node22 -->
<g id="edge35" class="edge">
<title>Node26&#45;&gt;Node22</title>
<path fill="none" stroke="midnightblue" d="M906.23,-410.15C904.69,-454.99 895.61,-564.74 845,-637 784.99,-722.69 728.38,-710.99 624,-718 582.32,-720.8 571.53,-722.56 530,-718 516.64,-716.53 501.96,-713.37 490.13,-710.41"/>
<polygon fill="midnightblue" stroke="midnightblue" points="909.73,-410.07 906.48,-399.98 902.73,-409.89 909.73,-410.07"/>
</g>
<!-- Node26&#45;&gt;Node24 -->
<g id="edge39" class="edge">
<title>Node26&#45;&gt;Node24</title>
<path fill="none" stroke="midnightblue" d="M899.58,-370.66C889.86,-345.12 870.47,-299.46 845,-266 790.19,-194 738.7,-136.35 660,-181 531.88,-253.69 479.72,-448.94 469.11,-494.43"/>
<polygon fill="midnightblue" stroke="midnightblue" points="896.38,-372.12 903.14,-380.28 902.95,-369.69 896.38,-372.12"/>
</g>
<!-- Node27 -->
<g id="node27" class="node">
<title>Node27</title>
<g id="a_node27"><a xlink:href="ex_8c.html#a86b4adba0c96621f01383b9bacba4a01" target="_top" xlink:title=" ">
<polygon fill="white" stroke="black" points="677,-304.5 677,-323.5 733,-323.5 733,-304.5 677,-304.5"/>
<text text-anchor="middle" x="705" y="-311.5" font-family="Helvetica,sans-Serif" font-size="10.00">ec_cmap</text>
</a>
</g>
</g>
<!-- Node26&#45;&gt;Node27 -->
<g id="edge34" class="edge">
<title>Node26&#45;&gt;Node27</title>
<path fill="none" stroke="midnightblue" d="M872.56,-377.14C832.51,-361.95 766.85,-337.06 731.1,-323.51"/>
<polygon fill="midnightblue" stroke="midnightblue" points="871.32,-380.41 881.91,-380.68 873.8,-373.86 871.32,-380.41"/>
</g>
<!-- Node28 -->
<g id="node28" class="node">
<title>Node28</title>
<g id="a_node28"><a xlink:href="ex_8c.html#a2446caa3d19e3467ba6999396de39109" target="_top" xlink:title=" ">
<polygon fill="white" stroke="black" points="660,-266.5 660,-285.5 750,-285.5 750,-266.5 660,-266.5"/>
<text text-anchor="middle" x="705" y="-273.5" font-family="Helvetica,sans-Serif" font-size="10.00">ec_write_archive</text>
</a>
</g>
</g>
<!-- Node26&#45;&gt;Node28 -->
<g id="edge41" class="edge">
<title>Node26&#45;&gt;Node28</title>
<path fill="none" stroke="midnightblue" d="M887.92,-373.4C876.12,-363.32 860.25,-350.6 845,-341 805.3,-316.01 792.65,-314.53 750,-295 743.19,-291.88 735.73,-288.61 728.92,-285.67"/>
<polygon fill="midnightblue" stroke="midnightblue" points="885.88,-376.26 895.72,-380.18 890.47,-370.98 885.88,-376.26"/>
</g>
<!-- Node29 -->
<g id="node29" class="node">
<title>Node29</title>
<g id="a_node29"><a xlink:href="ex_8c.html#a2b06ebeff542dc0173dd4735f1f7fecf" target="_top" xlink:title=" ">
<polygon fill="white" stroke="black" points="792.5,-380.5 792.5,-399.5 838.5,-399.5 838.5,-380.5 792.5,-380.5"/>
<text text-anchor="middle" x="815.5" y="-387.5" font-family="Helvetica,sans-Serif" font-size="10.00">ex_arg</text>
</a>
</g>
</g>
<!-- Node26&#45;&gt;Node29 -->
<g id="edge42" class="edge">
<title>Node26&#45;&gt;Node29</title>
<path fill="none" stroke="midnightblue" d="M871.62,-390C860.52,-390 848.54,-390 838.6,-390"/>
<polygon fill="midnightblue" stroke="midnightblue" points="871.91,-393.5 881.91,-390 871.91,-386.5 871.91,-393.5"/>
</g>
<!-- Node32 -->
<g id="node32" class="node">
<title>Node32</title>
<g id="a_node32"><a xlink:href="ex_8c.html#a4db51aacca9cc82009fe471ad7b4fcb8" target="_top" xlink:title=" ">
<polygon fill="white" stroke="black" points="786,-38.5 786,-57.5 845,-57.5 845,-38.5 786,-38.5"/>
<text text-anchor="middle" x="815.5" y="-45.5" font-family="Helvetica,sans-Serif" font-size="10.00">ex_argeol</text>
</a>
</g>
</g>
<!-- Node26&#45;&gt;Node32 -->
<g id="edge54" class="edge">
<title>Node26&#45;&gt;Node32</title>
<path fill="none" stroke="midnightblue" d="M901.74,-370.47C891.65,-329.26 867.22,-230.43 845,-148 836.03,-114.71 824.58,-75.43 819.34,-57.63"/>
<polygon fill="midnightblue" stroke="midnightblue" points="898.37,-371.41 904.14,-380.29 905.17,-369.75 898.37,-371.41"/>
</g>
<!-- Node33 -->
<g id="node33" class="node">
<title>Node33</title>
<g id="a_node33"><a xlink:href="ex_8c.html#a2b8907dfb6e95eb16e8a0f1ce0fe5bb6" target="_top" xlink:title=" ">
<polygon fill="white" stroke="black" points="786,-608.5 786,-627.5 845,-627.5 845,-608.5 786,-608.5"/>
<text text-anchor="middle" x="815.5" y="-615.5" font-family="Helvetica,sans-Serif" font-size="10.00">ex_filearg</text>
</a>
</g>
</g>
<!-- Node26&#45;&gt;Node33 -->
<g id="edge58" class="edge">
<title>Node26&#45;&gt;Node33</title>
<path fill="none" stroke="midnightblue" d="M899,-409C880.63,-455.55 833.87,-573.98 820.27,-608.45"/>
<polygon fill="midnightblue" stroke="midnightblue" points="902.33,-410.09 902.75,-399.51 895.82,-407.52 902.33,-410.09"/>
</g>
<!-- Node29&#45;&gt;Node2 -->
<g id="edge44" class="edge">
<title>Node29&#45;&gt;Node2</title>
<path fill="none" stroke="midnightblue" d="M807.64,-409.59C796.32,-441.56 772.73,-506.82 750,-561 736.71,-592.68 719.06,-629.36 710.73,-646.39"/>
<polygon fill="midnightblue" stroke="midnightblue" points="811.09,-410.33 811.11,-399.74 804.48,-408.01 811.09,-410.33"/>
</g>
<!-- Node29&#45;&gt;Node12 -->
<g id="edge46" class="edge">
<title>Node29&#45;&gt;Node12</title>
<path fill="none" stroke="midnightblue" d="M809.66,-370.28C801.72,-341.77 783.39,-288.95 750,-257 745.31,-252.51 739.39,-249 733.43,-246.27"/>
<polygon fill="midnightblue" stroke="midnightblue" points="806.35,-371.47 812.28,-380.25 813.12,-369.69 806.35,-371.47"/>
</g>
<!-- Node29&#45;&gt;Node14 -->
<g id="edge47" class="edge">
<title>Node29&#45;&gt;Node14</title>
<path fill="none" stroke="midnightblue" d="M798.37,-406.89C785.99,-419.16 768.01,-435.57 750,-447 744.38,-450.57 737.98,-453.76 731.83,-456.47"/>
<polygon fill="midnightblue" stroke="midnightblue" points="801.11,-409.09 805.64,-399.51 796.13,-404.17 801.11,-409.09"/>
</g>
<!-- Node29&#45;&gt;Node17 -->
<g id="edge48" class="edge">
<title>Node29&#45;&gt;Node17</title>
<path fill="none" stroke="midnightblue" d="M782.5,-401.21C765.03,-407.33 743.83,-414.75 728.19,-420.23"/>
<polygon fill="midnightblue" stroke="midnightblue" points="784,-404.39 792.28,-397.78 781.69,-397.78 784,-404.39"/>
</g>
<!-- Node29&#45;&gt;Node18 -->
<g id="edge49" class="edge">
<title>Node29&#45;&gt;Node18</title>
<path fill="none" stroke="midnightblue" d="M809.66,-409.72C801.72,-438.23 783.39,-491.05 750,-523 744.59,-528.18 737.55,-532.06 730.68,-534.93"/>
<polygon fill="midnightblue" stroke="midnightblue" points="813.12,-410.31 812.28,-399.75 806.35,-408.53 813.12,-410.31"/>
</g>
<!-- Node29&#45;&gt;Node20 -->
<g id="edge51" class="edge">
<title>Node29&#45;&gt;Node20</title>
<path fill="none" stroke="midnightblue" d="M805.78,-408.88C795.22,-429.93 775.61,-463.82 750,-485 744.61,-489.45 738.03,-493.03 731.6,-495.83"/>
<polygon fill="midnightblue" stroke="midnightblue" points="809.03,-410.21 810.23,-399.68 802.72,-407.16 809.03,-410.21"/>
</g>
<!-- Node29&#45;&gt;Node25 -->
<g id="edge53" class="edge">
<title>Node29&#45;&gt;Node25</title>
<path fill="none" stroke="midnightblue" d="M812.11,-370.22C806.92,-335.35 791.52,-262.52 750,-219 745.06,-213.82 738.47,-209.98 731.9,-207.16"/>
<polygon fill="midnightblue" stroke="midnightblue" points="808.69,-371.06 813.51,-380.5 815.63,-370.12 808.69,-371.06"/>
</g>
<!-- Node29&#45;&gt;Node27 -->
<g id="edge43" class="edge">
<title>Node29&#45;&gt;Node27</title>
<path fill="none" stroke="midnightblue" d="M795.01,-373.78C791.98,-371.2 788.89,-368.54 786,-366 769.7,-351.67 768.22,-344.8 750,-333 744.55,-329.47 738.34,-326.33 732.33,-323.67"/>
<polygon fill="midnightblue" stroke="midnightblue" points="792.85,-376.54 802.76,-380.3 797.36,-371.18 792.85,-376.54"/>
</g>
<!-- Node29&#45;&gt;Node28 -->
<g id="edge52" class="edge">
<title>Node29&#45;&gt;Node28</title>
<path fill="none" stroke="midnightblue" d="M805.78,-371.12C795.22,-350.07 775.61,-316.18 750,-295 745.51,-291.29 740.19,-288.19 734.82,-285.64"/>
<polygon fill="midnightblue" stroke="midnightblue" points="802.72,-372.84 810.23,-380.32 809.03,-369.79 802.72,-372.84"/>
</g>
<!-- Node30 -->
<g id="node30" class="node">
<title>Node30</title>
<g id="a_node30"><a xlink:href="ex_8c.html#a96a40531d1096a618d29639f2e42710b" target="_top" xlink:title=" ">
<polygon fill="white" stroke="black" points="686,-342.5 686,-361.5 724,-361.5 724,-342.5 686,-342.5"/>
<text text-anchor="middle" x="705" y="-349.5" font-family="Helvetica,sans-Serif" font-size="10.00">ec_ft</text>
</a>
</g>
</g>
<!-- Node29&#45;&gt;Node30 -->
<g id="edge45" class="edge">
<title>Node29&#45;&gt;Node30</title>
<path fill="none" stroke="midnightblue" d="M782.8,-378.9C763.75,-372.23 740.2,-363.98 724.23,-358.39"/>
<polygon fill="midnightblue" stroke="midnightblue" points="781.69,-382.22 792.28,-382.22 784,-375.61 781.69,-382.22"/>
</g>
<!-- Node31 -->
<g id="node31" class="node">
<title>Node31</title>
<g id="a_node31"><a xlink:href="ex_8c.html#a98764f0b4faf5fd4b8baff03a7d73a6e" target="_top" xlink:title=" ">
<polygon fill="white" stroke="black" points="682,-380.5 682,-399.5 728,-399.5 728,-380.5 682,-380.5"/>
<text text-anchor="middle" x="705" y="-387.5" font-family="Helvetica,sans-Serif" font-size="10.00">ec_set</text>
</a>
</g>
</g>
<!-- Node29&#45;&gt;Node31 -->
<g id="edge50" class="edge">
<title>Node29&#45;&gt;Node31</title>
<path fill="none" stroke="midnightblue" d="M782.01,-390C764.63,-390 743.69,-390 728.19,-390"/>
<polygon fill="midnightblue" stroke="midnightblue" points="782.28,-393.5 792.28,-390 782.28,-386.5 782.28,-393.5"/>
</g>
<!-- Node32&#45;&gt;Node6 -->
<g id="edge55" class="edge">
<title>Node32&#45;&gt;Node6</title>
<path fill="none" stroke="midnightblue" d="M775.72,-48C728.87,-48 647.66,-48 578,-48 578,-48 578,-48 377.5,-48 326.81,-48 300.53,-34.89 266,-72 194.35,-149.01 193.07,-512.46 193.42,-577.14"/>
<polygon fill="midnightblue" stroke="midnightblue" points="775.74,-51.5 785.74,-48 775.74,-44.5 775.74,-51.5"/>
</g>
<!-- Node32&#45;&gt;Node19 -->
<g id="edge56" class="edge">
<title>Node32&#45;&gt;Node19</title>
<path fill="none" stroke="midnightblue" d="M777.46,-35.03C763.01,-29.97 746.73,-24.27 733.37,-19.59"/>
<polygon fill="midnightblue" stroke="midnightblue" points="776.53,-38.41 787.12,-38.41 778.84,-31.8 776.53,-38.41"/>
</g>
<!-- Node33&#45;&gt;Node3 -->
<g id="edge60" class="edge">
<title>Node33&#45;&gt;Node3</title>
<path fill="none" stroke="midnightblue" d="M779.87,-605.04C742.13,-591.53 679.68,-570.97 624,-561 578.16,-552.79 523.74,-551.08 492.5,-550.85"/>
<polygon fill="midnightblue" stroke="midnightblue" points="778.78,-608.36 789.37,-608.48 781.16,-601.78 778.78,-608.36"/>
</g>
<!-- Node33&#45;&gt;Node18 -->
<g id="edge62" class="edge">
<title>Node33&#45;&gt;Node18</title>
<path fill="none" stroke="midnightblue" d="M795.15,-601.77C779.62,-588.86 758.98,-572 750,-566 742.19,-560.78 733.13,-555.69 725.28,-551.56"/>
<polygon fill="midnightblue" stroke="midnightblue" points="793.23,-604.72 803.15,-608.44 797.71,-599.35 793.23,-604.72"/>
</g>
<!-- Node33&#45;&gt;Node20 -->
<g id="edge63" class="edge">
<title>Node33&#45;&gt;Node20</title>
<path fill="none" stroke="midnightblue" d="M805.78,-599.12C795.22,-578.07 775.61,-544.18 750,-523 744.61,-518.55 738.03,-514.97 731.6,-512.17"/>
<polygon fill="midnightblue" stroke="midnightblue" points="802.72,-600.84 810.23,-608.32 809.03,-597.79 802.72,-600.84"/>
</g>
<!-- Node33&#45;&gt;Node22 -->
<g id="edge59" class="edge">
<title>Node33&#45;&gt;Node22</title>
<path fill="none" stroke="midnightblue" d="M800.42,-635.3C788.5,-648.6 770.18,-666.16 750,-675 660.43,-714.24 540.12,-710.13 490.2,-706.25"/>
<polygon fill="midnightblue" stroke="midnightblue" points="803.11,-637.54 806.97,-627.68 797.8,-632.98 803.11,-637.54"/>
</g>
<!-- Node33&#45;&gt;Node23 -->
<g id="edge61" class="edge">
<title>Node33&#45;&gt;Node23</title>
<path fill="none" stroke="midnightblue" d="M775.46,-615.87C704.41,-611.98 555.64,-603.85 494.32,-600.49"/>
<polygon fill="midnightblue" stroke="midnightblue" points="775.59,-619.38 785.77,-616.43 775.97,-612.39 775.59,-619.38"/>
</g>
</g>
</svg>
