<?xml version="1.0" encoding="UTF-8" standalone="no"?>
<!DOCTYPE svg PUBLIC "-//W3C//DTD SVG 1.1//EN"
 "http://www.w3.org/Graphics/SVG/1.1/DTD/svg11.dtd">
<!-- Generated by graphviz version 2.44.1 (20200629.0846)
 -->
<!-- Title: ec_glob Pages: 1 -->
<svg width="496pt" height="104pt"
 viewBox="0.00 0.00 496.00 104.00" xmlns="http://www.w3.org/2000/svg" xmlns:xlink="http://www.w3.org/1999/xlink">
<g id="graph0" class="graph" transform="scale(1 1) rotate(0) translate(4 100)">
<title>ec_glob</title>
<polygon fill="white" stroke="transparent" points="-4,4 -4,-100 492,-100 492,4 -4,4"/>
<!-- Node1 -->
<g id="node1" class="node">
<title>Node1</title>
<g id="a_node1"><a xlink:title=" ">
<polygon fill="#bfbfbf" stroke="black" points="438,-38.5 438,-57.5 488,-57.5 488,-38.5 438,-38.5"/>
<text text-anchor="middle" x="463" y="-45.5" font-family="Helvetica,sans-Serif" font-size="10.00">ec_glob</text>
</a>
</g>
</g>
<!-- Node2 -->
<g id="node2" class="node">
<title>Node2</title>
<g id="a_node2"><a xlink:href="ex_8c.html#a7d848d20211b2e1c868dde98ec5dfae9" target="_top" xlink:title=" ">
<polygon fill="white" stroke="black" points="355,-57.5 355,-76.5 402,-76.5 402,-57.5 355,-57.5"/>
<text text-anchor="middle" x="378.5" y="-64.5" font-family="Helvetica,sans-Serif" font-size="10.00">ex_line</text>
</a>
</g>
</g>
<!-- Node1&#45;&gt;Node2 -->
<g id="edge1" class="edge">
<title>Node1&#45;&gt;Node2</title>
<path fill="none" stroke="midnightblue" d="M427.84,-55.87C419.2,-57.86 410.14,-59.94 402.22,-61.77"/>
<polygon fill="midnightblue" stroke="midnightblue" points="428.73,-59.25 437.69,-53.6 427.16,-52.43 428.73,-59.25"/>
</g>
<!-- Node3 -->
<g id="node3" class="node">
<title>Node3</title>
<g id="a_node3"><a xlink:href="ex_8c.html#ab15ebfef933256d9741128e2ddf3f9b5" target="_top" xlink:title=" ">
<polygon fill="white" stroke="black" points="266,-38.5 266,-57.5 319,-57.5 319,-38.5 266,-38.5"/>
<text text-anchor="middle" x="292.5" y="-45.5" font-family="Helvetica,sans-Serif" font-size="10.00">ex_exec</text>
</a>
</g>
</g>
<!-- Node2&#45;&gt;Node3 -->
<g id="edge2" class="edge">
<title>Node2&#45;&gt;Node3</title>
<path fill="none" stroke="midnightblue" d="M345.18,-59.69C336.52,-57.73 327.28,-55.64 319.04,-53.78"/>
<polygon fill="midnightblue" stroke="midnightblue" points="344.46,-63.12 354.99,-61.91 346.01,-56.29 344.46,-63.12"/>
</g>
<!-- Node3&#45;&gt;Node1 -->
<g id="edge3" class="edge">
<title>Node3&#45;&gt;Node1</title>
<path fill="none" stroke="midnightblue" d="M329.31,-48C362.01,-48 409.45,-48 437.86,-48"/>
<polygon fill="midnightblue" stroke="midnightblue" points="329.25,-44.5 319.25,-48 329.25,-51.5 329.25,-44.5"/>
</g>
<!-- Node4 -->
<g id="node4" class="node">
<title>Node4</title>
<g id="a_node4"><a xlink:href="vi_8h.html#aa75c73cccb4878ec06ea5bf5b1b02295" target="_top" xlink:title=" ">
<polygon fill="white" stroke="black" points="155,-38.5 155,-57.5 230,-57.5 230,-38.5 155,-38.5"/>
<text text-anchor="middle" x="192.5" y="-45.5" font-family="Helvetica,sans-Serif" font-size="10.00">ex_command</text>
</a>
</g>
</g>
<!-- Node3&#45;&gt;Node4 -->
<g id="edge4" class="edge">
<title>Node3&#45;&gt;Node4</title>
<path fill="none" stroke="midnightblue" d="M255.61,-48C247.31,-48 238.46,-48 230.13,-48"/>
<polygon fill="midnightblue" stroke="midnightblue" points="255.75,-51.5 265.75,-48 255.75,-44.5 255.75,-51.5"/>
</g>
<!-- Node5 -->
<g id="node5" class="node">
<title>Node5</title>
<g id="a_node5"><a xlink:href="vi_8h.html#ac395e51f25330a6e6033b6d0d22b2076" target="_top" xlink:title=" ">
<polygon fill="white" stroke="black" points="82,-76.5 82,-95.5 111,-95.5 111,-76.5 82,-76.5"/>
<text text-anchor="middle" x="96.5" y="-83.5" font-family="Helvetica,sans-Serif" font-size="10.00">ex</text>
</a>
</g>
</g>
<!-- Node4&#45;&gt;Node5 -->
<g id="edge5" class="edge">
<title>Node4&#45;&gt;Node5</title>
<path fill="none" stroke="midnightblue" d="M158.07,-61.52C141.85,-68.07 123.28,-75.58 111.02,-80.53"/>
<polygon fill="midnightblue" stroke="midnightblue" points="159.82,-64.58 167.78,-57.59 157.2,-58.09 159.82,-64.58"/>
</g>
<!-- Node7 -->
<g id="node7" class="node">
<title>Node7</title>
<g id="a_node7"><a xlink:href="vi_8h.html#abe53b5c10f94f20cd5ed024371615fa1" target="_top" xlink:title=" ">
<polygon fill="white" stroke="black" points="74,-38.5 74,-57.5 119,-57.5 119,-38.5 74,-38.5"/>
<text text-anchor="middle" x="96.5" y="-45.5" font-family="Helvetica,sans-Serif" font-size="10.00">ex_init</text>
</a>
</g>
</g>
<!-- Node4&#45;&gt;Node7 -->
<g id="edge7" class="edge">
<title>Node4&#45;&gt;Node7</title>
<path fill="none" stroke="midnightblue" d="M144.85,-48C135.89,-48 126.91,-48 119.21,-48"/>
<polygon fill="midnightblue" stroke="midnightblue" points="144.89,-51.5 154.89,-48 144.89,-44.5 144.89,-51.5"/>
</g>
<!-- Node8 -->
<g id="node8" class="node">
<title>Node8</title>
<g id="a_node8"><a xlink:href="vi_8c.html#a8d808e0f3453afe6600673ee1ea5f828" target="_top" xlink:title=" ">
<polygon fill="white" stroke="black" points="82,-0.5 82,-19.5 111,-19.5 111,-0.5 82,-0.5"/>
<text text-anchor="middle" x="96.5" y="-7.5" font-family="Helvetica,sans-Serif" font-size="10.00">vi</text>
</a>
</g>
</g>
<!-- Node4&#45;&gt;Node8 -->
<g id="edge9" class="edge">
<title>Node4&#45;&gt;Node8</title>
<path fill="none" stroke="midnightblue" d="M158.07,-34.48C141.85,-27.93 123.28,-20.42 111.02,-15.47"/>
<polygon fill="midnightblue" stroke="midnightblue" points="157.2,-37.91 167.78,-38.41 159.82,-31.42 157.2,-37.91"/>
</g>
<!-- Node6 -->
<g id="node6" class="node">
<title>Node6</title>
<g id="a_node6"><a xlink:href="vi_8c.html#a0ddf1224851353fc92bfbff6f499fa97" target="_top" xlink:title=" ">
<polygon fill="white" stroke="black" points="0,-38.5 0,-57.5 38,-57.5 38,-38.5 0,-38.5"/>
<text text-anchor="middle" x="19" y="-45.5" font-family="Helvetica,sans-Serif" font-size="10.00">main</text>
</a>
</g>
</g>
<!-- Node5&#45;&gt;Node6 -->
<g id="edge6" class="edge">
<title>Node5&#45;&gt;Node6</title>
<path fill="none" stroke="midnightblue" d="M72.56,-74.45C61.48,-68.88 48.39,-62.29 38.04,-57.08"/>
<polygon fill="midnightblue" stroke="midnightblue" points="71.15,-77.66 81.65,-79.03 74.29,-71.41 71.15,-77.66"/>
</g>
<!-- Node7&#45;&gt;Node6 -->
<g id="edge8" class="edge">
<title>Node7&#45;&gt;Node6</title>
<path fill="none" stroke="midnightblue" d="M63.55,-48C54.99,-48 46.03,-48 38.47,-48"/>
<polygon fill="midnightblue" stroke="midnightblue" points="63.66,-51.5 73.66,-48 63.66,-44.5 63.66,-51.5"/>
</g>
<!-- Node8&#45;&gt;Node6 -->
<g id="edge10" class="edge">
<title>Node8&#45;&gt;Node6</title>
<path fill="none" stroke="midnightblue" d="M72.56,-21.55C61.48,-27.12 48.39,-33.71 38.04,-38.92"/>
<polygon fill="midnightblue" stroke="midnightblue" points="74.29,-24.59 81.65,-16.97 71.15,-18.34 74.29,-24.59"/>
</g>
</g>
</svg>
