<?xml version="1.0" encoding="UTF-8" standalone="no"?>
<!DOCTYPE svg PUBLIC "-//W3C//DTD SVG 1.1//EN"
 "http://www.w3.org/Graphics/SVG/1.1/DTD/svg11.dtd">
<!-- Generated by graphviz version 2.44.1 (20200629.0846)
 -->
<!-- Title: ex_search Pages: 1 -->
<!--zoomable 552 -->
<svg id="main" version="1.1" xmlns="http://www.w3.org/2000/svg" xmlns:xlink="http://www.w3.org/1999/xlink" xml:space="preserve" onload="init(evt)">
<style type="text/css"><![CDATA[
.edge:hover path { stroke: red; }
.edge:hover polygon { stroke: red; fill: red; }
]]></style>
<script type="text/javascript"><![CDATA[
var edges = document.getElementsByTagName('g');
if (edges && edges.length) {
  for (var i=0;i<edges.length;i++) {
    if (edges[i].id.substr(0,4)=='edge') {
      edges[i].setAttribute('class','edge');
    }
  }
}
]]></script>
        <defs>
                <circle id="rim" cx="0" cy="0" r="7"/>
                <circle id="rim2" cx="0" cy="0" r="3.5"/>
                <g id="zoomPlus">
                        <use xlink:href="#rim" fill="#404040">
                                <set attributeName="fill" to="#808080" begin="zoomplus.mouseover" end="zoomplus.mouseout"/>
                        </use>
                        <path d="M-4,0h8M0,-4v8" fill="none" stroke="white" stroke-width="1.5" pointer-events="none"/>
                </g>
                <g id="zoomMin">
                        <use xlink:href="#rim" fill="#404040">
                                <set attributeName="fill" to="#808080" begin="zoomminus.mouseover" end="zoomminus.mouseout"/>
                        </use>
                        <path d="M-4,0h8" fill="none" stroke="white" stroke-width="1.5" pointer-events="none"/>
                </g>
                <g id="dirArrow">
                        <path fill="none" stroke="white" stroke-width="1.5" d="M0,-3.0v7 M-2.5,-0.5L0,-3.0L2.5,-0.5"/>
                </g>
               <g id="resetDef">
                       <use xlink:href="#rim2" fill="#404040">
                               <set attributeName="fill" to="#808080" begin="reset.mouseover" end="reset.mouseout"/>
                       </use>
               </g>
        </defs>

<script type="text/javascript">
var viewWidth = 926;
var viewHeight = 552;
var sectionId = 'dynsection-25';
</script>
<script xlink:href="svgpan.js"/>
<svg id="graph" class="graph">
<g id="viewport">
<title>ex_search</title>
<polygon fill="white" stroke="transparent" points="-4,4 -4,-547.81 922,-547.81 922,4 -4,4"/>
<!-- Node1 -->
<g id="node1" class="node">
<title>Node1</title>
<g id="a_node1"><a xlink:title=" ">
<polygon fill="#bfbfbf" stroke="black" points="0,-255.69 0,-274.69 62,-274.69 62,-255.69 0,-255.69"/>
<text text-anchor="middle" x="31" y="-262.69" font-family="Helvetica,sans-Serif" font-size="10.00">ex_search</text>
</a>
</g>
</g>
<!-- Node2 -->
<g id="node2" class="node">
<title>Node2</title>
<g id="a_node2"><a xlink:href="ex_8c.html#a34fd1f4ef88c0e8d346dbcb9699e3762" target="_top" xlink:title=" ">
<polygon fill="white" stroke="black" points="105,-464.69 105,-483.69 155,-483.69 155,-464.69 105,-464.69"/>
<text text-anchor="middle" x="130" y="-471.69" font-family="Helvetica,sans-Serif" font-size="10.00">ex_kwd</text>
</a>
</g>
</g>
<!-- Node1&#45;&gt;Node2 -->
<g id="edge1" class="edge">
<title>Node1&#45;&gt;Node2</title>
<path fill="none" stroke="midnightblue" d="M33.07,-274.99C36.78,-305.06 51.59,-397.52 98,-455.19 98.82,-456.21 99.72,-457.2 100.67,-458.14"/>
<polygon fill="midnightblue" stroke="midnightblue" points="98.71,-461.06 108.71,-464.55 103.08,-455.58 98.71,-461.06"/>
</g>
<!-- Node3 -->
<g id="node3" class="node">
<title>Node3</title>
<g id="a_node3"><a xlink:href="ex_8c.html#aff6b33b5c383668577090507620d7b17" target="_top" xlink:title=" ">
<polygon fill="white" stroke="black" points="98,-426.69 98,-445.69 162,-445.69 162,-426.69 98,-426.69"/>
<text text-anchor="middle" x="130" y="-433.69" font-family="Helvetica,sans-Serif" font-size="10.00">ex_kwdset</text>
</a>
</g>
</g>
<!-- Node1&#45;&gt;Node3 -->
<g id="edge2" class="edge">
<title>Node1&#45;&gt;Node3</title>
<path fill="none" stroke="midnightblue" d="M34.04,-274.82C39.9,-300.6 58.94,-372.23 98,-417.19 98.98,-418.32 100.05,-419.41 101.18,-420.44"/>
<polygon fill="midnightblue" stroke="midnightblue" points="99.17,-423.31 109.24,-426.59 103.41,-417.74 99.17,-423.31"/>
</g>
<!-- Node7 -->
<g id="node7" class="node">
<title>Node7</title>
<g id="a_node7"><a xlink:href="lbuf_8c.html#ad0f45475ddc6eb82ecedf63ed1b914d4" target="_top" xlink:title=" ">
<polygon fill="white" stroke="black" points="104.5,-388.69 104.5,-407.69 155.5,-407.69 155.5,-388.69 104.5,-388.69"/>
<text text-anchor="middle" x="130" y="-395.69" font-family="Helvetica,sans-Serif" font-size="10.00">lbuf_get</text>
</a>
</g>
</g>
<!-- Node1&#45;&gt;Node7 -->
<g id="edge6" class="edge">
<title>Node1&#45;&gt;Node7</title>
<path fill="none" stroke="midnightblue" d="M35.63,-274.78C43.97,-295.8 66.23,-346.61 98,-379.19 99.07,-380.29 100.23,-381.36 101.43,-382.38"/>
<polygon fill="midnightblue" stroke="midnightblue" points="99.72,-385.47 109.87,-388.52 103.84,-379.81 99.72,-385.47"/>
</g>
<!-- Node8 -->
<g id="node8" class="node">
<title>Node8</title>
<g id="a_node8"><a xlink:href="lbuf_8c.html#ae74f0372b69451ac877a76505b05874f" target="_top" xlink:title=" ">
<polygon fill="white" stroke="black" points="105,-350.69 105,-369.69 155,-369.69 155,-350.69 105,-350.69"/>
<text text-anchor="middle" x="130" y="-357.69" font-family="Helvetica,sans-Serif" font-size="10.00">lbuf_len</text>
</a>
</g>
</g>
<!-- Node1&#45;&gt;Node8 -->
<g id="edge7" class="edge">
<title>Node1&#45;&gt;Node8</title>
<path fill="none" stroke="midnightblue" d="M38.9,-274.91C50.1,-290.24 73.46,-320.41 98,-341.19 99.52,-342.48 101.13,-343.73 102.79,-344.95"/>
<polygon fill="midnightblue" stroke="midnightblue" points="101.04,-347.99 111.3,-350.63 104.93,-342.16 101.04,-347.99"/>
</g>
<!-- Node9 -->
<g id="node9" class="node">
<title>Node9</title>
<g id="a_node9"><a xlink:href="rset_8c.html#a389ec5abca88adc048a058744f2373eb" target="_top" xlink:title=" ">
<polygon fill="white" stroke="black" points="103,-312.69 103,-331.69 157,-331.69 157,-312.69 103,-312.69"/>
<text text-anchor="middle" x="130" y="-319.69" font-family="Helvetica,sans-Serif" font-size="10.00">rset_find</text>
</a>
</g>
</g>
<!-- Node1&#45;&gt;Node9 -->
<g id="edge8" class="edge">
<title>Node1&#45;&gt;Node9</title>
<path fill="none" stroke="midnightblue" d="M48.45,-274.86C63.6,-283.76 86.28,-297.09 103.72,-307.33"/>
<polygon fill="midnightblue" stroke="midnightblue" points="102.39,-310.61 112.79,-312.66 105.94,-304.58 102.39,-310.61"/>
</g>
<!-- Node20 -->
<g id="node20" class="node">
<title>Node20</title>
<g id="a_node20"><a xlink:href="rset_8c.html#aa904e3bea523f18e4940e3a848abaaa1" target="_top" xlink:title=" ">
<polygon fill="white" stroke="black" points="102.5,-32.69 102.5,-51.69 157.5,-51.69 157.5,-32.69 102.5,-32.69"/>
<text text-anchor="middle" x="130" y="-39.69" font-family="Helvetica,sans-Serif" font-size="10.00">rset_free</text>
</a>
</g>
</g>
<!-- Node1&#45;&gt;Node20 -->
<g id="edge22" class="edge">
<title>Node1&#45;&gt;Node20</title>
<path fill="none" stroke="midnightblue" d="M33.17,-255.59C37.26,-225.21 53.2,-129.46 98,-66.19 99.97,-63.41 102.35,-60.8 104.91,-58.41"/>
<polygon fill="midnightblue" stroke="midnightblue" points="107.36,-60.92 112.88,-51.88 102.92,-55.51 107.36,-60.92"/>
</g>
<!-- Node22 -->
<g id="node22" class="node">
<title>Node22</title>
<g id="a_node22"><a xlink:href="rset_8c.html#a01a879f1a8002d2fb591b604b2ca3704" target="_top" xlink:title=" ">
<polygon fill="white" stroke="black" points="99,-198.69 99,-217.69 161,-217.69 161,-198.69 99,-198.69"/>
<text text-anchor="middle" x="130" y="-205.69" font-family="Helvetica,sans-Serif" font-size="10.00">rset_make</text>
</a>
</g>
</g>
<!-- Node1&#45;&gt;Node22 -->
<g id="edge24" class="edge">
<title>Node1&#45;&gt;Node22</title>
<path fill="none" stroke="midnightblue" d="M48.45,-255.52C63.6,-246.62 86.28,-233.29 103.72,-223.05"/>
<polygon fill="midnightblue" stroke="midnightblue" points="105.94,-225.8 112.79,-217.72 102.39,-219.77 105.94,-225.8"/>
</g>
<!-- Node38 -->
<g id="node38" class="node">
<title>Node38</title>
<g id="a_node38"><a xlink:href="sbuf_8c.html#a4e56760893d5a6797626743840c9adf2" target="_top" xlink:title=" ">
<polygon fill="white" stroke="black" points="210,-317.69 210,-336.69 264,-336.69 264,-317.69 210,-317.69"/>
<text text-anchor="middle" x="237" y="-324.69" font-family="Helvetica,sans-Serif" font-size="10.00">sbuf_buf</text>
</a>
</g>
</g>
<!-- Node1&#45;&gt;Node38 -->
<g id="edge61" class="edge">
<title>Node1&#45;&gt;Node38</title>
<path fill="none" stroke="midnightblue" d="M62.02,-273.7C88.42,-281.24 127.84,-292.66 162,-303.19 174.4,-307.01 187.92,-311.35 199.97,-315.27"/>
<polygon fill="midnightblue" stroke="midnightblue" points="199.1,-318.67 209.69,-318.45 201.27,-312.01 199.1,-318.67"/>
</g>
<!-- Node40 -->
<g id="node40" class="node">
<title>Node40</title>
<g id="a_node40"><a xlink:href="sbuf_8c.html#a3f9aa15ca1d73f585d7a4a9d023e58ce" target="_top" xlink:title=" ">
<polygon fill="white" stroke="black" points="210,-279.69 210,-298.69 264,-298.69 264,-279.69 210,-279.69"/>
<text text-anchor="middle" x="237" y="-286.69" font-family="Helvetica,sans-Serif" font-size="10.00">sbuf_chr</text>
</a>
</g>
</g>
<!-- Node1&#45;&gt;Node40 -->
<g id="edge62" class="edge">
<title>Node1&#45;&gt;Node40</title>
<path fill="none" stroke="midnightblue" d="M62.11,-264.54C88.57,-264.4 128.03,-265.23 162,-270.19 174.61,-272.03 188.18,-275.17 200.21,-278.37"/>
<polygon fill="midnightblue" stroke="midnightblue" points="199.33,-281.75 209.91,-281.04 201.2,-275.01 199.33,-281.75"/>
</g>
<!-- Node41 -->
<g id="node41" class="node">
<title>Node41</title>
<g id="a_node41"><a xlink:href="sbuf_8c.html#a8c1a89868b1999663effb78b4f3fab32" target="_top" xlink:title=" ">
<polygon fill="white" stroke="black" points="208.5,-127.69 208.5,-146.69 265.5,-146.69 265.5,-127.69 208.5,-127.69"/>
<text text-anchor="middle" x="237" y="-134.69" font-family="Helvetica,sans-Serif" font-size="10.00">sbuf_free</text>
</a>
</g>
</g>
<!-- Node1&#45;&gt;Node41 -->
<g id="edge63" class="edge">
<title>Node1&#45;&gt;Node41</title>
<path fill="none" stroke="midnightblue" d="M37.95,-255.67C48.32,-239.81 71.18,-207.86 98,-189.19 128.73,-167.8 169.39,-153.88 198.61,-145.87"/>
<polygon fill="midnightblue" stroke="midnightblue" points="199.65,-149.22 208.43,-143.28 197.86,-142.45 199.65,-149.22"/>
</g>
<!-- Node42 -->
<g id="node42" class="node">
<title>Node42</title>
<g id="a_node42"><a xlink:href="sbuf_8c.html#af4ad9608dfc956bbedc19df5c8256fc4" target="_top" xlink:title=" ">
<polygon fill="white" stroke="black" points="210.5,-89.69 210.5,-108.69 263.5,-108.69 263.5,-89.69 210.5,-89.69"/>
<text text-anchor="middle" x="237" y="-96.69" font-family="Helvetica,sans-Serif" font-size="10.00">sbuf_len</text>
</a>
</g>
</g>
<!-- Node1&#45;&gt;Node42 -->
<g id="edge64" class="edge">
<title>Node1&#45;&gt;Node42</title>
<path fill="none" stroke="midnightblue" d="M35.31,-255.44C43.01,-234.17 64.07,-183.16 98,-154.19 127.56,-128.94 170.15,-114.36 200.18,-106.64"/>
<polygon fill="midnightblue" stroke="midnightblue" points="201.35,-109.95 210.24,-104.18 199.69,-103.15 201.35,-109.95"/>
</g>
<!-- Node43 -->
<g id="node43" class="node">
<title>Node43</title>
<g id="a_node43"><a xlink:href="sbuf_8c.html#a57748585d6786a2c1aadc2cbe6f2135b" target="_top" xlink:title=" ">
<polygon fill="white" stroke="black" points="204.5,-51.69 204.5,-70.69 269.5,-70.69 269.5,-51.69 204.5,-51.69"/>
<text text-anchor="middle" x="237" y="-58.69" font-family="Helvetica,sans-Serif" font-size="10.00">sbuf_make</text>
</a>
</g>
</g>
<!-- Node1&#45;&gt;Node43 -->
<g id="edge65" class="edge">
<title>Node1&#45;&gt;Node43</title>
<path fill="none" stroke="midnightblue" d="M33.55,-255.59C38.3,-229.29 54.98,-155.3 98,-114.19 124.51,-88.86 164.4,-75.3 194.49,-68.25"/>
<polygon fill="midnightblue" stroke="midnightblue" points="195.26,-71.67 204.28,-66.11 193.77,-64.83 195.26,-71.67"/>
</g>
<!-- Node4 -->
<g id="node4" class="node">
<title>Node4</title>
<g id="a_node4"><a xlink:href="reg_8c.html#a4a1ad2201f6bc8ca5faf958f146883d5" target="_top" xlink:title=" ">
<polygon fill="white" stroke="black" points="212.5,-431.69 212.5,-450.69 261.5,-450.69 261.5,-431.69 212.5,-431.69"/>
<text text-anchor="middle" x="237" y="-438.69" font-family="Helvetica,sans-Serif" font-size="10.00">reg_put</text>
</a>
</g>
</g>
<!-- Node3&#45;&gt;Node4 -->
<g id="edge3" class="edge">
<title>Node3&#45;&gt;Node4</title>
<path fill="none" stroke="midnightblue" d="M162.22,-437.68C174.78,-438.27 189.3,-438.97 202.12,-439.58"/>
<polygon fill="midnightblue" stroke="midnightblue" points="202.25,-443.09 212.41,-440.07 202.58,-436.09 202.25,-443.09"/>
</g>
<!-- Node5 -->
<g id="node5" class="node">
<title>Node5</title>
<g id="a_node5"><a xlink:href="reg_8c.html#a6eaa41c69e0e22bcbb189eaf4ff0feae" target="_top" xlink:title=" ">
<polygon fill="white" stroke="black" points="323,-469.69 323,-488.69 372,-488.69 372,-469.69 323,-469.69"/>
<text text-anchor="middle" x="347.5" y="-476.69" font-family="Helvetica,sans-Serif" font-size="10.00">reg_get</text>
</a>
</g>
</g>
<!-- Node4&#45;&gt;Node5 -->
<g id="edge4" class="edge">
<title>Node4&#45;&gt;Node5</title>
<path fill="none" stroke="midnightblue" d="M261.54,-449.44C276.51,-454.68 296.13,-461.55 312.74,-467.37"/>
<polygon fill="midnightblue" stroke="midnightblue" points="312.03,-470.83 322.63,-470.83 314.35,-464.22 312.03,-470.83"/>
</g>
<!-- Node6 -->
<g id="node6" class="node">
<title>Node6</title>
<g id="a_node6"><a xlink:href="reg_8c.html#a7d863266d9fa9455f0ffa968f51d0ce3" target="_top" xlink:title=" ">
<polygon fill="white" stroke="black" points="315,-431.69 315,-450.69 380,-450.69 380,-431.69 315,-431.69"/>
<text text-anchor="middle" x="347.5" y="-438.69" font-family="Helvetica,sans-Serif" font-size="10.00">reg_putraw</text>
</a>
</g>
</g>
<!-- Node4&#45;&gt;Node6 -->
<g id="edge5" class="edge">
<title>Node4&#45;&gt;Node6</title>
<path fill="none" stroke="midnightblue" d="M261.54,-441.19C274.08,-441.19 289.88,-441.19 304.45,-441.19"/>
<polygon fill="midnightblue" stroke="midnightblue" points="304.77,-444.69 314.77,-441.19 304.77,-437.69 304.77,-444.69"/>
</g>
<!-- Node10 -->
<g id="node10" class="node">
<title>Node10</title>
<g id="a_node10"><a xlink:href="regex_8c.html#aa085ccd05ec25e3f8053850aebc50fe3" target="_top" xlink:title=" ">
<polygon fill="white" stroke="black" points="211.5,-355.69 211.5,-374.69 262.5,-374.69 262.5,-355.69 211.5,-355.69"/>
<text text-anchor="middle" x="237" y="-362.69" font-family="Helvetica,sans-Serif" font-size="10.00">regexec</text>
</a>
</g>
</g>
<!-- Node9&#45;&gt;Node10 -->
<g id="edge9" class="edge">
<title>Node9&#45;&gt;Node10</title>
<path fill="none" stroke="midnightblue" d="M154.3,-331.73C168.71,-337.63 187.42,-345.3 203.3,-351.8"/>
<polygon fill="midnightblue" stroke="midnightblue" points="202.18,-355.12 212.76,-355.67 204.83,-348.64 202.18,-355.12"/>
</g>
<!-- Node11 -->
<g id="node11" class="node">
<title>Node11</title>
<g id="a_node11"><a xlink:href="regex_8c.html#aa5925e49bd18112bb37421dbde29162a" target="_top" xlink:title=" ">
<polygon fill="white" stroke="black" points="312,-393.69 312,-412.69 383,-412.69 383,-393.69 312,-393.69"/>
<text text-anchor="middle" x="347.5" y="-400.69" font-family="Helvetica,sans-Serif" font-size="10.00">re_recmatch</text>
</a>
</g>
</g>
<!-- Node10&#45;&gt;Node11 -->
<g id="edge10" class="edge">
<title>Node10&#45;&gt;Node11</title>
<path fill="none" stroke="midnightblue" d="M262.62,-373.81C276.47,-378.66 294.03,-384.81 309.51,-390.23"/>
<polygon fill="midnightblue" stroke="midnightblue" points="308.72,-393.67 319.31,-393.67 311.03,-387.06 308.72,-393.67"/>
</g>
<!-- Node17 -->
<g id="node17" class="node">
<title>Node17</title>
<g id="a_node17"><a xlink:href="regex_8c.html#a9a0d6d5f93f1eaba8b63b16903c0952d" target="_top" xlink:title=" ">
<polygon fill="white" stroke="black" points="772,-386.69 772,-405.69 817,-405.69 817,-386.69 772,-386.69"/>
<text text-anchor="middle" x="794.5" y="-393.69" font-family="Helvetica,sans-Serif" font-size="10.00">uc_len</text>
</a>
</g>
</g>
<!-- Node10&#45;&gt;Node17 -->
<g id="edge21" class="edge">
<title>Node10&#45;&gt;Node17</title>
<path fill="none" stroke="midnightblue" d="M262.58,-365.19C303.88,-365.19 389.81,-365.19 462.5,-365.19 462.5,-365.19 462.5,-365.19 582,-365.19 646.35,-365.19 720.57,-379.41 761.75,-388.59"/>
<polygon fill="midnightblue" stroke="midnightblue" points="761.2,-392.06 771.73,-390.86 762.76,-385.23 761.2,-392.06"/>
</g>
<!-- Node12 -->
<g id="node12" class="node">
<title>Node12</title>
<g id="a_node12"><a xlink:href="regex_8c.html#a8e35614ddf21d405773327a52a95a73d" target="_top" xlink:title=" ">
<polygon fill="white" stroke="black" points="441.5,-421.69 441.5,-440.69 485.5,-440.69 485.5,-421.69 441.5,-421.69"/>
<text text-anchor="middle" x="463.5" y="-428.69" font-family="Helvetica,sans-Serif" font-size="10.00">re_rec</text>
</a>
</g>
</g>
<!-- Node11&#45;&gt;Node12 -->
<g id="edge11" class="edge">
<title>Node11&#45;&gt;Node12</title>
<path fill="none" stroke="midnightblue" d="M383.01,-411.67C398.45,-415.46 416.52,-419.9 431.52,-423.58"/>
<polygon fill="midnightblue" stroke="midnightblue" points="430.8,-427.01 441.35,-425.99 432.47,-420.21 430.8,-427.01"/>
</g>
<!-- Node13 -->
<g id="node13" class="node">
<title>Node13</title>
<g id="a_node13"><a xlink:href="regex_8c.html#a24fd1fc7457ff4f03fb384f7170ac395" target="_top" xlink:title=" ">
<polygon fill="white" stroke="black" points="544,-450.69 544,-469.69 618,-469.69 618,-450.69 544,-450.69"/>
<text text-anchor="middle" x="581" y="-457.69" font-family="Helvetica,sans-Serif" font-size="10.00">ratom_match</text>
</a>
</g>
</g>
<!-- Node12&#45;&gt;Node13 -->
<g id="edge12" class="edge">
<title>Node12&#45;&gt;Node13</title>
<path fill="none" stroke="midnightblue" d="M485.68,-436.51C499.17,-439.89 517.17,-444.41 533.83,-448.6"/>
<polygon fill="midnightblue" stroke="midnightblue" points="533.42,-452.1 543.97,-451.14 535.13,-445.31 533.42,-452.1"/>
</g>
<!-- Node14 -->
<g id="node14" class="node">
<title>Node14</title>
<g id="a_node14"><a xlink:href="regex_8c.html#aae17ed73e84075718fb04d131d6ca779" target="_top" xlink:title=" ">
<polygon fill="white" stroke="black" points="655.5,-469.69 655.5,-488.69 717.5,-488.69 717.5,-469.69 655.5,-469.69"/>
<text text-anchor="middle" x="686.5" y="-476.69" font-family="Helvetica,sans-Serif" font-size="10.00">brk_match</text>
</a>
</g>
</g>
<!-- Node13&#45;&gt;Node14 -->
<g id="edge13" class="edge">
<title>Node13&#45;&gt;Node14</title>
<path fill="none" stroke="midnightblue" d="M618.2,-466.84C627.01,-468.45 636.48,-470.19 645.46,-471.84"/>
<polygon fill="midnightblue" stroke="midnightblue" points="644.85,-475.29 655.32,-473.65 646.12,-468.4 644.85,-475.29"/>
</g>
<!-- Node16 -->
<g id="node16" class="node">
<title>Node16</title>
<g id="a_node16"><a xlink:href="regex_8c.html#aaf73cdb88048e7f9fd588eb8d5aeb5a3" target="_top" xlink:title=" ">
<polygon fill="white" stroke="black" points="770.5,-476.69 770.5,-495.69 818.5,-495.69 818.5,-476.69 770.5,-476.69"/>
<text text-anchor="middle" x="794.5" y="-483.69" font-family="Helvetica,sans-Serif" font-size="10.00">uc_dec</text>
</a>
</g>
</g>
<!-- Node13&#45;&gt;Node16 -->
<g id="edge19" class="edge">
<title>Node13&#45;&gt;Node16</title>
<path fill="none" stroke="midnightblue" d="M587.4,-469.75C597.73,-486.92 622.11,-522.47 654,-536.19 680.54,-547.6 691.36,-544.6 719,-536.19 740.47,-529.65 761.38,-514.63 775.55,-502.75"/>
<polygon fill="midnightblue" stroke="midnightblue" points="778.21,-505.07 783.45,-495.86 773.61,-499.8 778.21,-505.07"/>
</g>
<!-- Node13&#45;&gt;Node17 -->
<g id="edge20" class="edge">
<title>Node13&#45;&gt;Node17</title>
<path fill="none" stroke="midnightblue" d="M596.84,-450.64C610.99,-441.96 633.18,-429.44 654,-422.19 689.69,-409.77 732.7,-402.9 761.44,-399.39"/>
<polygon fill="midnightblue" stroke="midnightblue" points="762.18,-402.82 771.71,-398.2 761.37,-395.87 762.18,-402.82"/>
</g>
<!-- Node18 -->
<g id="node18" class="node">
<title>Node18</title>
<g id="a_node18"><a xlink:href="regex_8c.html#a35ad3fd0dbb795e6f30404ce86a7be5b" target="_top" xlink:title=" ">
<polygon fill="white" stroke="black" points="664,-507.69 664,-526.69 709,-526.69 709,-507.69 664,-507.69"/>
<text text-anchor="middle" x="686.5" y="-514.69" font-family="Helvetica,sans-Serif" font-size="10.00">isword</text>
</a>
</g>
</g>
<!-- Node13&#45;&gt;Node18 -->
<g id="edge17" class="edge">
<title>Node13&#45;&gt;Node18</title>
<path fill="none" stroke="midnightblue" d="M599.56,-469.86C615.94,-478.88 640.59,-492.46 659.3,-502.76"/>
<polygon fill="midnightblue" stroke="midnightblue" points="657.75,-505.91 668.2,-507.66 661.13,-499.77 657.75,-505.91"/>
</g>
<!-- Node19 -->
<g id="node19" class="node">
<title>Node19</title>
<g id="a_node19"><a xlink:href="regex_8c.html#ade3e10606e6e8866e6151fe8440d6101" target="_top" xlink:title=" ">
<polygon fill="white" stroke="black" points="662.5,-431.69 662.5,-450.69 710.5,-450.69 710.5,-431.69 662.5,-431.69"/>
<text text-anchor="middle" x="686.5" y="-438.69" font-family="Helvetica,sans-Serif" font-size="10.00">uc_beg</text>
</a>
</g>
</g>
<!-- Node13&#45;&gt;Node19 -->
<g id="edge18" class="edge">
<title>Node13&#45;&gt;Node19</title>
<path fill="none" stroke="midnightblue" d="M618.2,-453.54C629.33,-451.5 641.52,-449.26 652.43,-447.26"/>
<polygon fill="midnightblue" stroke="midnightblue" points="653.22,-450.67 662.43,-445.43 651.96,-443.79 653.22,-450.67"/>
</g>
<!-- Node15 -->
<g id="node15" class="node">
<title>Node15</title>
<g id="a_node15"><a xlink:href="regex_8c.html#acc18ff8d2687611a9e221b3329b02413" target="_top" xlink:title=" ">
<polygon fill="white" stroke="black" points="870,-381.69 870,-400.69 918,-400.69 918,-381.69 870,-381.69"/>
<text text-anchor="middle" x="894" y="-388.69" font-family="Helvetica,sans-Serif" font-size="10.00">brk_len</text>
</a>
</g>
</g>
<!-- Node14&#45;&gt;Node15 -->
<g id="edge14" class="edge">
<title>Node14&#45;&gt;Node15</title>
<path fill="none" stroke="midnightblue" d="M709.88,-469.61C746.56,-453.9 819.54,-422.65 861.45,-404.7"/>
<polygon fill="midnightblue" stroke="midnightblue" points="862.83,-407.92 870.64,-400.76 860.07,-401.48 862.83,-407.92"/>
</g>
<!-- Node14&#45;&gt;Node16 -->
<g id="edge15" class="edge">
<title>Node14&#45;&gt;Node16</title>
<path fill="none" stroke="midnightblue" d="M717.59,-481.18C730.96,-482.06 746.73,-483.1 760.42,-484.01"/>
<polygon fill="midnightblue" stroke="midnightblue" points="760.2,-487.5 770.41,-484.67 760.67,-480.51 760.2,-487.5"/>
</g>
<!-- Node14&#45;&gt;Node17 -->
<g id="edge16" class="edge">
<title>Node14&#45;&gt;Node17</title>
<path fill="none" stroke="midnightblue" d="M704.51,-469.64C709.3,-466.76 714.45,-463.49 719,-460.19 736.1,-447.8 738.98,-442.95 755,-429.19 761.34,-423.75 768.26,-417.81 774.47,-412.48"/>
<polygon fill="midnightblue" stroke="midnightblue" points="777.06,-414.88 782.37,-405.71 772.5,-409.56 777.06,-414.88"/>
</g>
<!-- Node21 -->
<g id="node21" class="node">
<title>Node21</title>
<g id="a_node21"><a xlink:href="regex_8c.html#ad94d0de532eaa4fd959b8adde4d64898" target="_top" xlink:title=" ">
<polygon fill="white" stroke="black" points="213.5,-13.69 213.5,-32.69 260.5,-32.69 260.5,-13.69 213.5,-13.69"/>
<text text-anchor="middle" x="237" y="-20.69" font-family="Helvetica,sans-Serif" font-size="10.00">regfree</text>
</a>
</g>
</g>
<!-- Node20&#45;&gt;Node21 -->
<g id="edge23" class="edge">
<title>Node20&#45;&gt;Node21</title>
<path fill="none" stroke="midnightblue" d="M157.77,-37.35C171.56,-34.85 188.49,-31.79 203.07,-29.15"/>
<polygon fill="midnightblue" stroke="midnightblue" points="203.98,-32.54 213.2,-27.32 202.73,-25.65 203.98,-32.54"/>
</g>
<!-- Node23 -->
<g id="node23" class="node">
<title>Node23</title>
<g id="a_node23"><a xlink:href="rset_8c.html#a8a35950ab3896c3d568af835385cc12f" target="_top" xlink:title=" ">
<polygon fill="white" stroke="black" points="198,-165.69 198,-184.69 276,-184.69 276,-165.69 198,-165.69"/>
<text text-anchor="middle" x="237" y="-172.69" font-family="Helvetica,sans-Serif" font-size="10.00">re_groupcount</text>
</a>
</g>
</g>
<!-- Node22&#45;&gt;Node23 -->
<g id="edge25" class="edge">
<title>Node22&#45;&gt;Node23</title>
<path fill="none" stroke="midnightblue" d="M161.09,-198.73C171.87,-195.35 184.2,-191.47 195.71,-187.85"/>
<polygon fill="midnightblue" stroke="midnightblue" points="197.05,-191.1 205.54,-184.76 194.95,-184.42 197.05,-191.1"/>
</g>
<!-- Node24 -->
<g id="node24" class="node">
<title>Node24</title>
<g id="a_node24"><a xlink:href="regex_8c.html#a5b590271eb220f4e019e76cfb950eb69" target="_top" xlink:title=" ">
<polygon fill="white" stroke="black" points="210,-203.69 210,-222.69 264,-222.69 264,-203.69 210,-203.69"/>
<text text-anchor="middle" x="237" y="-210.69" font-family="Helvetica,sans-Serif" font-size="10.00">regcomp</text>
</a>
</g>
</g>
<!-- Node22&#45;&gt;Node24 -->
<g id="edge26" class="edge">
<title>Node22&#45;&gt;Node24</title>
<path fill="none" stroke="midnightblue" d="M161.09,-209.62C173.11,-210.2 187.07,-210.86 199.66,-211.46"/>
<polygon fill="midnightblue" stroke="midnightblue" points="199.68,-214.96 209.83,-211.94 200.01,-207.97 199.68,-214.96"/>
</g>
<!-- Node22&#45;&gt;Node38 -->
<g id="edge51" class="edge">
<title>Node22&#45;&gt;Node38</title>
<path fill="none" stroke="midnightblue" d="M135.39,-217.93C144.55,-237.33 167.42,-281.26 198,-308.19 199.66,-309.66 201.46,-311.04 203.34,-312.34"/>
<polygon fill="midnightblue" stroke="midnightblue" points="201.53,-315.34 211.9,-317.51 205.15,-309.34 201.53,-315.34"/>
</g>
<!-- Node22&#45;&gt;Node40 -->
<g id="edge53" class="edge">
<title>Node22&#45;&gt;Node40</title>
<path fill="none" stroke="midnightblue" d="M144.33,-217.8C149.94,-222.03 156.45,-227.17 162,-232.19 179.25,-247.8 179.31,-256.33 198,-270.19 200.07,-271.73 202.29,-273.2 204.57,-274.6"/>
<polygon fill="midnightblue" stroke="midnightblue" points="203.09,-277.78 213.53,-279.58 206.5,-271.66 203.09,-277.78"/>
</g>
<!-- Node22&#45;&gt;Node41 -->
<g id="edge55" class="edge">
<title>Node22&#45;&gt;Node41</title>
<path fill="none" stroke="midnightblue" d="M141.89,-198.65C154.75,-187.64 177.07,-169.37 198,-156.19 200.6,-154.55 203.36,-152.95 206.16,-151.4"/>
<polygon fill="midnightblue" stroke="midnightblue" points="207.85,-154.47 215.09,-146.73 204.6,-148.27 207.85,-154.47"/>
</g>
<!-- Node22&#45;&gt;Node42 -->
<g id="edge56" class="edge">
<title>Node22&#45;&gt;Node42</title>
<path fill="none" stroke="midnightblue" d="M136.09,-198.63C145.98,-180.82 169.33,-142.21 198,-118.19 199.75,-116.73 201.62,-115.34 203.58,-114.04"/>
<polygon fill="midnightblue" stroke="midnightblue" points="205.59,-116.91 212.43,-108.82 202.04,-110.88 205.59,-116.91"/>
</g>
<!-- Node22&#45;&gt;Node43 -->
<g id="edge57" class="edge">
<title>Node22&#45;&gt;Node43</title>
<path fill="none" stroke="midnightblue" d="M133.75,-198.59C140.82,-175.45 161.66,-115.86 198,-80.19 199.42,-78.8 200.97,-77.48 202.59,-76.25"/>
<polygon fill="midnightblue" stroke="midnightblue" points="204.65,-79.09 211.2,-70.76 200.89,-73.19 204.65,-79.09"/>
</g>
<!-- Node44 -->
<g id="node44" class="node">
<title>Node44</title>
<g id="a_node44"><a xlink:href="sbuf_8c.html#a603d1d6ab090025f5850f10bfa2dec7a" target="_top" xlink:title=" ">
<polygon fill="white" stroke="black" points="211,-241.69 211,-260.69 263,-260.69 263,-241.69 211,-241.69"/>
<text text-anchor="middle" x="237" y="-248.69" font-family="Helvetica,sans-Serif" font-size="10.00">sbuf_str</text>
</a>
</g>
</g>
<!-- Node22&#45;&gt;Node44 -->
<g id="edge58" class="edge">
<title>Node22&#45;&gt;Node44</title>
<path fill="none" stroke="midnightblue" d="M154.3,-217.73C168.71,-223.63 187.42,-231.3 203.3,-237.8"/>
<polygon fill="midnightblue" stroke="midnightblue" points="202.18,-241.12 212.76,-241.67 204.83,-234.64 202.18,-241.12"/>
</g>
<!-- Node25 -->
<g id="node25" class="node">
<title>Node25</title>
<g id="a_node25"><a xlink:href="regex_8c.html#ad3bbf549eef0fe517e9f213c5eadbb0c" target="_top" xlink:title=" ">
<polygon fill="white" stroke="black" points="554,-13.69 554,-32.69 608,-32.69 608,-13.69 554,-13.69"/>
<text text-anchor="middle" x="581" y="-20.69" font-family="Helvetica,sans-Serif" font-size="10.00">re_insert</text>
</a>
</g>
</g>
<!-- Node24&#45;&gt;Node25 -->
<g id="edge27" class="edge">
<title>Node24&#45;&gt;Node25</title>
<path fill="none" stroke="midnightblue" d="M264.34,-203.86C268.75,-201.31 272.89,-198.12 276,-194.19 319.1,-139.77 260.89,-89.17 312,-42.19 375.36,16.06 486.61,0.21 543.8,-13.18"/>
<polygon fill="midnightblue" stroke="midnightblue" points="543.28,-16.66 553.83,-15.64 544.95,-9.86 543.28,-16.66"/>
</g>
<!-- Node26 -->
<g id="node26" class="node">
<title>Node26</title>
<g id="a_node26"><a xlink:href="regex_8c.html#ac00e60e2e4bce1edcd55ffa8b9086ac5" target="_top" xlink:title=" ">
<polygon fill="white" stroke="black" points="312.5,-127.69 312.5,-146.69 382.5,-146.69 382.5,-127.69 312.5,-127.69"/>
<text text-anchor="middle" x="347.5" y="-134.69" font-family="Helvetica,sans-Serif" font-size="10.00">rnode_count</text>
</a>
</g>
</g>
<!-- Node24&#45;&gt;Node26 -->
<g id="edge28" class="edge">
<title>Node24&#45;&gt;Node26</title>
<path fill="none" stroke="midnightblue" d="M260.47,-203.58C265.77,-200.88 271.26,-197.7 276,-194.19 294.69,-180.33 293.59,-170.42 312,-156.19 313.8,-154.8 315.72,-153.45 317.69,-152.15"/>
<polygon fill="midnightblue" stroke="midnightblue" points="319.74,-155 326.5,-146.84 316.13,-149 319.74,-155"/>
</g>
<!-- Node27 -->
<g id="node27" class="node">
<title>Node27</title>
<g id="a_node27"><a xlink:href="regex_8c.html#a7be1fd2247ffed1699d3be12c04fe9c6" target="_top" xlink:title=" ">
<polygon fill="white" stroke="black" points="315,-51.69 315,-70.69 380,-70.69 380,-51.69 315,-51.69"/>
<text text-anchor="middle" x="347.5" y="-58.69" font-family="Helvetica,sans-Serif" font-size="10.00">rnode_emit</text>
</a>
</g>
</g>
<!-- Node24&#45;&gt;Node27 -->
<g id="edge29" class="edge">
<title>Node24&#45;&gt;Node27</title>
<path fill="none" stroke="midnightblue" d="M263.31,-203.52C267.91,-200.97 272.39,-197.88 276,-194.19 302.15,-167.48 294.3,-151.11 312,-118.19 319.12,-104.95 327.9,-90.47 334.82,-79.41"/>
<polygon fill="midnightblue" stroke="midnightblue" points="337.94,-81.02 340.34,-70.7 332.03,-77.28 337.94,-81.02"/>
</g>
<!-- Node30 -->
<g id="node30" class="node">
<title>Node30</title>
<g id="a_node30"><a xlink:href="regex_8c.html#aabe89a3a22bc0fdc0329cf29ec80ad76" target="_top" xlink:title=" ">
<polygon fill="white" stroke="black" points="763.5,-241.69 763.5,-260.69 825.5,-260.69 825.5,-241.69 763.5,-241.69"/>
<text text-anchor="middle" x="794.5" y="-248.69" font-family="Helvetica,sans-Serif" font-size="10.00">rnode_free</text>
</a>
</g>
</g>
<!-- Node24&#45;&gt;Node30 -->
<g id="edge35" class="edge">
<title>Node24&#45;&gt;Node30</title>
<path fill="none" stroke="midnightblue" d="M264.26,-215.67C329.89,-221.78 506.45,-237.7 654,-246.19 687.36,-248.11 725.25,-249.41 753.12,-250.21"/>
<polygon fill="midnightblue" stroke="midnightblue" points="753.18,-253.71 763.28,-250.48 753.38,-246.71 753.18,-253.71"/>
</g>
<!-- Node31 -->
<g id="node31" class="node">
<title>Node31</title>
<g id="a_node31"><a xlink:href="regex_8c.html#ac19329676c1426f2b24af24e33e3a845" target="_top" xlink:title=" ">
<polygon fill="white" stroke="black" points="312.5,-165.69 312.5,-184.69 382.5,-184.69 382.5,-165.69 312.5,-165.69"/>
<text text-anchor="middle" x="347.5" y="-172.69" font-family="Helvetica,sans-Serif" font-size="10.00">rnode_parse</text>
</a>
</g>
</g>
<!-- Node24&#45;&gt;Node31 -->
<g id="edge36" class="edge">
<title>Node24&#45;&gt;Node31</title>
<path fill="none" stroke="midnightblue" d="M264.26,-203.99C277.95,-199.2 294.91,-193.26 309.86,-188.02"/>
<polygon fill="midnightblue" stroke="midnightblue" points="311.06,-191.31 319.34,-184.7 308.75,-184.7 311.06,-191.31"/>
</g>
<!-- Node27&#45;&gt;Node25 -->
<g id="edge30" class="edge">
<title>Node27&#45;&gt;Node25</title>
<path fill="none" stroke="midnightblue" d="M379.86,-51.69C391.99,-48.29 406.05,-44.68 419,-42.19 461.52,-34 511.08,-28.79 543.86,-25.94"/>
<polygon fill="midnightblue" stroke="midnightblue" points="544.22,-29.42 553.89,-25.09 543.63,-22.45 544.22,-29.42"/>
</g>
<!-- Node28 -->
<g id="node28" class="node">
<title>Node28</title>
<g id="a_node28"><a xlink:href="regex_8c.html#afdf3c7adbb2060b793cf83c5312321c8" target="_top" xlink:title=" ">
<polygon fill="white" stroke="black" points="419,-51.69 419,-70.69 508,-70.69 508,-51.69 419,-51.69"/>
<text text-anchor="middle" x="463.5" y="-58.69" font-family="Helvetica,sans-Serif" font-size="10.00">rnode_emitnorep</text>
</a>
</g>
</g>
<!-- Node27&#45;&gt;Node28 -->
<g id="edge31" class="edge">
<title>Node27&#45;&gt;Node28</title>
<path fill="none" stroke="midnightblue" d="M380.26,-55.07C389.15,-54.59 399.08,-54.39 408.88,-54.45"/>
<polygon fill="midnightblue" stroke="midnightblue" points="408.93,-57.95 418.99,-54.61 409.04,-50.95 408.93,-57.95"/>
</g>
<!-- Node28&#45;&gt;Node25 -->
<g id="edge33" class="edge">
<title>Node28&#45;&gt;Node25</title>
<path fill="none" stroke="midnightblue" d="M493.65,-51.6C508.92,-46.58 527.77,-40.38 543.95,-35.05"/>
<polygon fill="midnightblue" stroke="midnightblue" points="545.22,-38.32 553.63,-31.87 543.04,-31.67 545.22,-38.32"/>
</g>
<!-- Node28&#45;&gt;Node27 -->
<g id="edge34" class="edge">
<title>Node28&#45;&gt;Node27</title>
<path fill="none" stroke="midnightblue" d="M418.99,-67.77C409.63,-68.01 399.75,-68 390.45,-67.73"/>
<polygon fill="midnightblue" stroke="midnightblue" points="390.39,-64.22 380.26,-67.31 390.11,-71.22 390.39,-64.22"/>
</g>
<!-- Node29 -->
<g id="node29" class="node">
<title>Node29</title>
<g id="a_node29"><a xlink:href="regex_8c.html#a71b5a38b3a51e761aaa959a89e7cae55" target="_top" xlink:title=" ">
<polygon fill="white" stroke="black" points="547,-51.69 547,-70.69 615,-70.69 615,-51.69 547,-51.69"/>
<text text-anchor="middle" x="581" y="-58.69" font-family="Helvetica,sans-Serif" font-size="10.00">ratom_copy</text>
</a>
</g>
</g>
<!-- Node28&#45;&gt;Node29 -->
<g id="edge32" class="edge">
<title>Node28&#45;&gt;Node29</title>
<path fill="none" stroke="midnightblue" d="M508.17,-61.19C517.45,-61.19 527.25,-61.19 536.52,-61.19"/>
<polygon fill="midnightblue" stroke="midnightblue" points="536.72,-64.69 546.72,-61.19 536.72,-57.69 536.72,-64.69"/>
</g>
<!-- Node32 -->
<g id="node32" class="node">
<title>Node32</title>
<g id="a_node32"><a xlink:href="regex_8c.html#a39869d385d8410ffb9d5bf74c778c6ce" target="_top" xlink:title=" ">
<polygon fill="white" stroke="black" points="759.5,-146.69 759.5,-165.69 829.5,-165.69 829.5,-146.69 759.5,-146.69"/>
<text text-anchor="middle" x="794.5" y="-153.69" font-family="Helvetica,sans-Serif" font-size="10.00">rnode_make</text>
</a>
</g>
</g>
<!-- Node31&#45;&gt;Node32 -->
<g id="edge37" class="edge">
<title>Node31&#45;&gt;Node32</title>
<path fill="none" stroke="midnightblue" d="M367.06,-165.57C380.95,-158.93 400.63,-150.7 419,-147.19 536.42,-124.73 678.29,-139.16 748.97,-149.09"/>
<polygon fill="midnightblue" stroke="midnightblue" points="748.88,-152.61 759.28,-150.58 749.88,-145.68 748.88,-152.61"/>
</g>
<!-- Node33 -->
<g id="node33" class="node">
<title>Node33</title>
<g id="a_node33"><a xlink:href="regex_8c.html#abe0c1f4be43ac6d7caa4f95a560f823f" target="_top" xlink:title=" ">
<polygon fill="white" stroke="black" points="432.5,-165.69 432.5,-184.69 494.5,-184.69 494.5,-165.69 432.5,-165.69"/>
<text text-anchor="middle" x="463.5" y="-172.69" font-family="Helvetica,sans-Serif" font-size="10.00">rnode_seq</text>
</a>
</g>
</g>
<!-- Node31&#45;&gt;Node33 -->
<g id="edge38" class="edge">
<title>Node31&#45;&gt;Node33</title>
<path fill="none" stroke="midnightblue" d="M382.7,-175.19C395.12,-175.19 409.27,-175.19 422.17,-175.19"/>
<polygon fill="midnightblue" stroke="midnightblue" points="422.19,-178.69 432.19,-175.19 422.19,-171.69 422.19,-178.69"/>
</g>
<!-- Node33&#45;&gt;Node32 -->
<g id="edge50" class="edge">
<title>Node33&#45;&gt;Node32</title>
<path fill="none" stroke="midnightblue" d="M494.62,-171.23C531.95,-166.54 597.53,-159.01 654,-156.19 685.85,-154.6 721.84,-154.64 749.29,-155.06"/>
<polygon fill="midnightblue" stroke="midnightblue" points="749.3,-158.56 759.36,-155.24 749.43,-151.56 749.3,-158.56"/>
</g>
<!-- Node34 -->
<g id="node34" class="node">
<title>Node34</title>
<g id="a_node34"><a xlink:href="regex_8c.html#a0df57dc0ee1beb9018cdd537a58571aa" target="_top" xlink:title=" ">
<polygon fill="white" stroke="black" points="547,-203.69 547,-222.69 615,-222.69 615,-203.69 547,-203.69"/>
<text text-anchor="middle" x="581" y="-210.69" font-family="Helvetica,sans-Serif" font-size="10.00">rnode_atom</text>
</a>
</g>
</g>
<!-- Node33&#45;&gt;Node34 -->
<g id="edge39" class="edge">
<title>Node33&#45;&gt;Node34</title>
<path fill="none" stroke="midnightblue" d="M493.65,-184.78C508.01,-189.5 525.53,-195.27 541.03,-200.37"/>
<polygon fill="midnightblue" stroke="midnightblue" points="540.27,-203.8 550.86,-203.6 542.46,-197.15 540.27,-203.8"/>
</g>
<!-- Node34&#45;&gt;Node30 -->
<g id="edge44" class="edge">
<title>Node34&#45;&gt;Node30</title>
<path fill="none" stroke="midnightblue" d="M615.31,-219.82C627.47,-222.2 641.35,-224.87 654,-227.19 687.33,-233.3 725.23,-239.79 753.1,-244.48"/>
<polygon fill="midnightblue" stroke="midnightblue" points="752.82,-247.98 763.26,-246.18 753.98,-241.08 752.82,-247.98"/>
</g>
<!-- Node34&#45;&gt;Node32 -->
<g id="edge49" class="edge">
<title>Node34&#45;&gt;Node32</title>
<path fill="none" stroke="midnightblue" d="M615.06,-211.69C643.24,-209.69 684.53,-205.03 719,-194.19 736.84,-188.58 755.58,-179 769.81,-170.86"/>
<polygon fill="midnightblue" stroke="midnightblue" points="771.6,-173.86 778.45,-165.77 768.05,-167.83 771.6,-173.86"/>
</g>
<!-- Node35 -->
<g id="node35" class="node">
<title>Node35</title>
<g id="a_node35"><a xlink:href="regex_8c.html#a8b5ae269a79b320da8e87712e2051d1c" target="_top" xlink:title=" ">
<polygon fill="white" stroke="black" points="654,-317.69 654,-336.69 719,-336.69 719,-317.69 654,-317.69"/>
<text text-anchor="middle" x="686.5" y="-324.69" font-family="Helvetica,sans-Serif" font-size="10.00">ratom_read</text>
</a>
</g>
</g>
<!-- Node34&#45;&gt;Node35 -->
<g id="edge40" class="edge">
<title>Node34&#45;&gt;Node35</title>
<path fill="none" stroke="midnightblue" d="M590.82,-222.91C608.39,-242.26 647.94,-285.82 669.96,-310.07"/>
<polygon fill="midnightblue" stroke="midnightblue" points="667.38,-312.44 676.7,-317.5 672.57,-307.74 667.38,-312.44"/>
</g>
<!-- Node37 -->
<g id="node37" class="node">
<title>Node37</title>
<g id="a_node37"><a xlink:href="regex_8c.html#aaeda19c8b3704252a342cdcc7fc3591c" target="_top" xlink:title=" ">
<polygon fill="white" stroke="black" points="657,-165.69 657,-184.69 716,-184.69 716,-165.69 657,-165.69"/>
<text text-anchor="middle" x="686.5" y="-172.69" font-family="Helvetica,sans-Serif" font-size="10.00">rnode_grp</text>
</a>
</g>
</g>
<!-- Node34&#45;&gt;Node37 -->
<g id="edge45" class="edge">
<title>Node34&#45;&gt;Node37</title>
<path fill="none" stroke="midnightblue" d="M608.12,-203.6C620.74,-198.97 636.09,-193.33 649.78,-188.3"/>
<polygon fill="midnightblue" stroke="midnightblue" points="651.21,-191.51 659.39,-184.78 648.8,-184.94 651.21,-191.51"/>
</g>
<!-- Node35&#45;&gt;Node17 -->
<g id="edge43" class="edge">
<title>Node35&#45;&gt;Node17</title>
<path fill="none" stroke="midnightblue" d="M702.24,-336.78C719.88,-348.27 749.63,-367.63 770.35,-381.12"/>
<polygon fill="midnightblue" stroke="midnightblue" points="768.6,-384.16 778.89,-386.68 772.41,-378.29 768.6,-384.16"/>
</g>
<!-- Node36 -->
<g id="node36" class="node">
<title>Node36</title>
<g id="a_node36"><a xlink:href="regex_8c.html#a1904288a4b4c7b7d0666c3d85d438e1a" target="_top" xlink:title=" ">
<polygon fill="white" stroke="black" points="755,-329.69 755,-348.69 834,-348.69 834,-329.69 755,-329.69"/>
<text text-anchor="middle" x="794.5" y="-336.69" font-family="Helvetica,sans-Serif" font-size="10.00">ratom_readbrk</text>
</a>
</g>
</g>
<!-- Node35&#45;&gt;Node36 -->
<g id="edge41" class="edge">
<title>Node35&#45;&gt;Node36</title>
<path fill="none" stroke="midnightblue" d="M719.02,-330.76C727.09,-331.67 735.96,-332.68 744.68,-333.66"/>
<polygon fill="midnightblue" stroke="midnightblue" points="744.46,-337.16 754.79,-334.81 745.24,-330.2 744.46,-337.16"/>
</g>
<!-- Node36&#45;&gt;Node15 -->
<g id="edge42" class="edge">
<title>Node36&#45;&gt;Node15</title>
<path fill="none" stroke="midnightblue" d="M813.38,-348.73C828,-356.52 848.9,-367.67 865.62,-376.59"/>
<polygon fill="midnightblue" stroke="midnightblue" points="864.43,-379.92 874.9,-381.54 867.72,-373.74 864.43,-379.92"/>
</g>
<!-- Node37&#45;&gt;Node30 -->
<g id="edge46" class="edge">
<title>Node37&#45;&gt;Node30</title>
<path fill="none" stroke="midnightblue" d="M700.92,-184.82C718.77,-197.61 750.51,-220.36 771.78,-235.62"/>
<polygon fill="midnightblue" stroke="midnightblue" points="770.02,-238.66 780.18,-241.64 774.1,-232.97 770.02,-238.66"/>
</g>
<!-- Node37&#45;&gt;Node31 -->
<g id="edge48" class="edge">
<title>Node37&#45;&gt;Node31</title>
<path fill="none" stroke="midnightblue" d="M656.99,-169.39C608.1,-160.27 505.22,-144.78 419,-156.19 408.33,-157.6 396.99,-160.17 386.59,-162.96"/>
<polygon fill="midnightblue" stroke="midnightblue" points="385.63,-159.6 376.97,-165.69 387.54,-166.33 385.63,-159.6"/>
</g>
<!-- Node37&#45;&gt;Node32 -->
<g id="edge47" class="edge">
<title>Node37&#45;&gt;Node32</title>
<path fill="none" stroke="midnightblue" d="M716.19,-170.05C726.32,-168.23 737.98,-166.14 749.11,-164.15"/>
<polygon fill="midnightblue" stroke="midnightblue" points="749.91,-167.56 759.14,-162.35 748.67,-160.67 749.91,-167.56"/>
</g>
<!-- Node39 -->
<g id="node39" class="node">
<title>Node39</title>
<g id="a_node39"><a xlink:href="sbuf_8c.html#a4ad75f3948c0340c342a3ea3eb63a6e6" target="_top" xlink:title=" ">
<polygon fill="white" stroke="black" points="428.5,-279.69 428.5,-298.69 498.5,-298.69 498.5,-279.69 428.5,-279.69"/>
<text text-anchor="middle" x="463.5" y="-286.69" font-family="Helvetica,sans-Serif" font-size="10.00">sbuf_extend</text>
</a>
</g>
</g>
<!-- Node38&#45;&gt;Node39 -->
<g id="edge52" class="edge">
<title>Node38&#45;&gt;Node39</title>
<path fill="none" stroke="midnightblue" d="M264.21,-322.94C293.26,-318.2 341.5,-310.28 383,-303.19 394.54,-301.22 407.01,-299.04 418.58,-297.01"/>
<polygon fill="midnightblue" stroke="midnightblue" points="419.23,-300.45 428.47,-295.26 418.01,-293.55 419.23,-300.45"/>
</g>
<!-- Node40&#45;&gt;Node39 -->
<g id="edge54" class="edge">
<title>Node40&#45;&gt;Node39</title>
<path fill="none" stroke="midnightblue" d="M264.19,-289.19C301.96,-289.19 372.23,-289.19 418.17,-289.19"/>
<polygon fill="midnightblue" stroke="midnightblue" points="418.43,-292.69 428.43,-289.19 418.43,-285.69 418.43,-292.69"/>
</g>
<!-- Node45 -->
<g id="node45" class="node">
<title>Node45</title>
<g id="a_node45"><a xlink:href="sbuf_8c.html#aa511ac77d6b486accc01c0512ef27ed2" target="_top" xlink:title=" ">
<polygon fill="white" stroke="black" points="316.5,-241.69 316.5,-260.69 378.5,-260.69 378.5,-241.69 316.5,-241.69"/>
<text text-anchor="middle" x="347.5" y="-248.69" font-family="Helvetica,sans-Serif" font-size="10.00">sbuf_mem</text>
</a>
</g>
</g>
<!-- Node44&#45;&gt;Node45 -->
<g id="edge59" class="edge">
<title>Node44&#45;&gt;Node45</title>
<path fill="none" stroke="midnightblue" d="M263.16,-251.19C275.96,-251.19 291.82,-251.19 306.26,-251.19"/>
<polygon fill="midnightblue" stroke="midnightblue" points="306.46,-254.69 316.46,-251.19 306.46,-247.69 306.46,-254.69"/>
</g>
<!-- Node45&#45;&gt;Node39 -->
<g id="edge60" class="edge">
<title>Node45&#45;&gt;Node39</title>
<path fill="none" stroke="midnightblue" d="M377.27,-260.78C391.44,-265.5 408.74,-271.27 424.03,-276.37"/>
<polygon fill="midnightblue" stroke="midnightblue" points="423.15,-279.76 433.74,-279.6 425.36,-273.12 423.15,-279.76"/>
</g>
</g>
</svg>
        <g id="navigator" transform="translate(0 0)" fill="#404254">
                <rect fill="#f2f5e9" fill-opacity="0.5" stroke="#606060" stroke-width=".5" x="0" y="0" width="60" height="60"/>
                <use id="zoomplus" xlink:href="#zoomPlus" x="17" y="9" onmousedown="handleZoom(evt,'in')"/>
                <use id="zoomminus" xlink:href="#zoomMin" x="42" y="9" onmousedown="handleZoom(evt,'out')"/>
                <use id="reset" xlink:href="#resetDef" x="30" y="36" onmousedown="handleReset()"/>
                <g id="arrowUp" xlink:href="#dirArrow" transform="translate(30 24)" onmousedown="handlePan(0,-1)">
                  <use xlink:href="#rim" fill="#404040">
                        <set attributeName="fill" to="#808080" begin="arrowUp.mouseover" end="arrowUp.mouseout"/>
                  </use>
                  <path fill="none" stroke="white" stroke-width="1.5" d="M0,-3.0v7 M-2.5,-0.5L0,-3.0L2.5,-0.5"/>
                </g>
                <g id="arrowRight" xlink:href="#dirArrow" transform="rotate(90) translate(36 -43)" onmousedown="handlePan(1,0)">
                  <use xlink:href="#rim" fill="#404040">
                        <set attributeName="fill" to="#808080" begin="arrowRight.mouseover" end="arrowRight.mouseout"/>
                  </use>
                  <path fill="none" stroke="white" stroke-width="1.5" d="M0,-3.0v7 M-2.5,-0.5L0,-3.0L2.5,-0.5"/>
                </g>
                <g id="arrowDown" xlink:href="#dirArrow" transform="rotate(180) translate(-30 -48)" onmousedown="handlePan(0,1)">
                  <use xlink:href="#rim" fill="#404040">
                        <set attributeName="fill" to="#808080" begin="arrowDown.mouseover" end="arrowDown.mouseout"/>
                  </use>
                  <path fill="none" stroke="white" stroke-width="1.5" d="M0,-3.0v7 M-2.5,-0.5L0,-3.0L2.5,-0.5"/>
                </g>
                <g id="arrowLeft" xlink:href="#dirArrow" transform="rotate(270) translate(-36 17)" onmousedown="handlePan(-1,0)">
                  <use xlink:href="#rim" fill="#404040">
                        <set attributeName="fill" to="#808080" begin="arrowLeft.mouseover" end="arrowLeft.mouseout"/>
                  </use>
                  <path fill="none" stroke="white" stroke-width="1.5" d="M0,-3.0v7 M-2.5,-0.5L0,-3.0L2.5,-0.5"/>
                </g>
        </g>
        <svg viewBox="0 0 15 15" width="100%" height="30px" preserveAspectRatio="xMaxYMin meet">
         <g id="arrow_out" transform="scale(0.3 0.3)">
          <a xlink:href="ex_8c_af441de070082a23574854f6a2e5cd08a_cgraph_org.svg" target="_base">
           <rect id="button" ry="5" rx="5" y="6" x="6" height="38" width="38"
                fill="#f2f5e9" fill-opacity="0.5" stroke="#606060" stroke-width="1.0"/>
           <path id="arrow"
             d="M 11.500037,31.436501 C 11.940474,20.09759 22.043105,11.32322 32.158766,21.979434 L 37.068811,17.246167 C 37.068811,17.246167 37.088388,32 37.088388,32 L 22.160133,31.978069 C 22.160133,31.978069 26.997745,27.140456 26.997745,27.140456 C 18.528582,18.264221 13.291696,25.230495 11.500037,31.436501 z"
             style="fill:#404040;"/>
          </a>
         </g>
        </svg>
</svg>
