<?xml version="1.0" encoding="UTF-8" standalone="no"?>
<!DOCTYPE svg PUBLIC "-//W3C//DTD SVG 1.1//EN"
 "http://www.w3.org/Graphics/SVG/1.1/DTD/svg11.dtd">
<!-- Generated by graphviz version 2.44.1 (20200629.0846)
 -->
<!-- Title: lbuf_replace Pages: 1 -->
<svg width="266pt" height="85pt"
 viewBox="0.00 0.00 266.00 85.00" xmlns="http://www.w3.org/2000/svg" xmlns:xlink="http://www.w3.org/1999/xlink">
<g id="graph0" class="graph" transform="scale(1 1) rotate(0) translate(4 81)">
<title>lbuf_replace</title>
<polygon fill="white" stroke="transparent" points="-4,4 -4,-81 262,-81 262,4 -4,4"/>
<!-- Node1 -->
<g id="node1" class="node">
<title>Node1</title>
<g id="a_node1"><a xlink:title=" ">
<polygon fill="#bfbfbf" stroke="black" points="0,-19.5 0,-38.5 69,-38.5 69,-19.5 0,-19.5"/>
<text text-anchor="middle" x="34.5" y="-26.5" font-family="Helvetica,sans-Serif" font-size="10.00">lbuf_replace</text>
</a>
</g>
</g>
<!-- Node2 -->
<g id="node2" class="node">
<title>Node2</title>
<g id="a_node2"><a xlink:href="lbuf_8c.html#a5a34f3f60dfd5ea06207d96d821da368" target="_top" xlink:title=" ">
<polygon fill="white" stroke="black" points="105,-57.5 105,-76.5 164,-76.5 164,-57.5 105,-57.5"/>
<text text-anchor="middle" x="134.5" y="-64.5" font-family="Helvetica,sans-Serif" font-size="10.00">lbuf_mark</text>
</a>
</g>
</g>
<!-- Node1&#45;&gt;Node2 -->
<g id="edge1" class="edge">
<title>Node1&#45;&gt;Node2</title>
<path fill="none" stroke="midnightblue" d="M60.23,-38.59C72.07,-43.18 86.44,-48.75 99.3,-53.74"/>
<polygon fill="midnightblue" stroke="midnightblue" points="98.19,-57.06 108.78,-57.41 100.72,-50.54 98.19,-57.06"/>
</g>
<!-- Node4 -->
<g id="node4" class="node">
<title>Node4</title>
<g id="a_node4"><a xlink:href="lbuf_8c.html#ab41193f3312b21588338e92e1b144f87" target="_top" xlink:title=" ">
<polygon fill="white" stroke="black" points="106.5,-19.5 106.5,-38.5 162.5,-38.5 162.5,-19.5 106.5,-19.5"/>
<text text-anchor="middle" x="134.5" y="-26.5" font-family="Helvetica,sans-Serif" font-size="10.00">linecount</text>
</a>
</g>
</g>
<!-- Node1&#45;&gt;Node4 -->
<g id="edge3" class="edge">
<title>Node1&#45;&gt;Node4</title>
<path fill="none" stroke="midnightblue" d="M69.23,-29C77.9,-29 87.29,-29 96.13,-29"/>
<polygon fill="midnightblue" stroke="midnightblue" points="96.2,-32.5 106.2,-29 96.2,-25.5 96.2,-32.5"/>
</g>
<!-- Node5 -->
<g id="node5" class="node">
<title>Node5</title>
<g id="a_node5"><a xlink:href="lbuf_8c.html#ac559857979b20ce0c64638c9e3e4edec" target="_top" xlink:title=" ">
<polygon fill="white" stroke="black" points="200,-0.5 200,-19.5 258,-19.5 258,-0.5 200,-0.5"/>
<text text-anchor="middle" x="229" y="-7.5" font-family="Helvetica,sans-Serif" font-size="10.00">linelength</text>
</a>
</g>
</g>
<!-- Node1&#45;&gt;Node5 -->
<g id="edge5" class="edge">
<title>Node1&#45;&gt;Node5</title>
<path fill="none" stroke="midnightblue" d="M63.55,-19.5C76.08,-15.73 91.11,-11.86 105,-10 133.02,-6.24 164.96,-6.37 189.27,-7.37"/>
<polygon fill="midnightblue" stroke="midnightblue" points="189.37,-10.88 199.52,-7.86 189.7,-3.89 189.37,-10.88"/>
</g>
<!-- Node3 -->
<g id="node3" class="node">
<title>Node3</title>
<g id="a_node3"><a xlink:href="lbuf_8c.html#a69221917b521da2cd5f804a9f4694f1a" target="_top" xlink:title=" ">
<polygon fill="white" stroke="black" points="203.5,-57.5 203.5,-76.5 254.5,-76.5 254.5,-57.5 203.5,-57.5"/>
<text text-anchor="middle" x="229" y="-64.5" font-family="Helvetica,sans-Serif" font-size="10.00">markidx</text>
</a>
</g>
</g>
<!-- Node2&#45;&gt;Node3 -->
<g id="edge2" class="edge">
<title>Node2&#45;&gt;Node3</title>
<path fill="none" stroke="midnightblue" d="M164.01,-67C173.29,-67 183.69,-67 193.36,-67"/>
<polygon fill="midnightblue" stroke="midnightblue" points="193.49,-70.5 203.49,-67 193.49,-63.5 193.49,-70.5"/>
</g>
<!-- Node4&#45;&gt;Node5 -->
<g id="edge4" class="edge">
<title>Node4&#45;&gt;Node5</title>
<path fill="none" stroke="midnightblue" d="M162.75,-23.4C171.27,-21.65 180.83,-19.69 189.95,-17.82"/>
<polygon fill="midnightblue" stroke="midnightblue" points="190.89,-21.2 199.98,-15.76 189.48,-14.34 190.89,-21.2"/>
</g>
</g>
</svg>
