<?xml version="1.0" encoding="UTF-8" standalone="no"?>
<!DOCTYPE svg PUBLIC "-//W3C//DTD SVG 1.1//EN"
 "http://www.w3.org/Graphics/SVG/1.1/DTD/svg11.dtd">
<!-- Generated by graphviz version 2.44.1 (20200629.0846)
 -->
<!-- Title: lbuf_loadpos Pages: 1 -->
<svg width="343pt" height="142pt"
 viewBox="0.00 0.00 343.00 142.00" xmlns="http://www.w3.org/2000/svg" xmlns:xlink="http://www.w3.org/1999/xlink">
<g id="graph0" class="graph" transform="scale(1 1) rotate(0) translate(4 138)">
<title>lbuf_loadpos</title>
<polygon fill="white" stroke="transparent" points="-4,4 -4,-138 339,-138 339,4 -4,4"/>
<!-- Node1 -->
<g id="node1" class="node">
<title>Node1</title>
<g id="a_node1"><a xlink:title=" ">
<polygon fill="#bfbfbf" stroke="black" points="264,-57.5 264,-76.5 335,-76.5 335,-57.5 264,-57.5"/>
<text text-anchor="middle" x="299.5" y="-64.5" font-family="Helvetica,sans-Serif" font-size="10.00">lbuf_loadpos</text>
</a>
</g>
</g>
<!-- Node2 -->
<g id="node2" class="node">
<title>Node2</title>
<g id="a_node2"><a xlink:href="vi_8h.html#ae61371650c4ebd59ce9f51b82a4f334b" target="_top" xlink:title=" ">
<polygon fill="white" stroke="black" points="170.5,-76.5 170.5,-95.5 226.5,-95.5 226.5,-76.5 170.5,-76.5"/>
<text text-anchor="middle" x="198.5" y="-83.5" font-family="Helvetica,sans-Serif" font-size="10.00">lbuf_redo</text>
</a>
</g>
</g>
<!-- Node1&#45;&gt;Node2 -->
<g id="edge1" class="edge">
<title>Node1&#45;&gt;Node2</title>
<path fill="none" stroke="midnightblue" d="M253.97,-75.55C244.7,-77.32 235.2,-79.15 226.78,-80.76"/>
<polygon fill="midnightblue" stroke="midnightblue" points="254.71,-78.97 263.87,-73.65 253.39,-72.09 254.71,-78.97"/>
</g>
<!-- Node6 -->
<g id="node6" class="node">
<title>Node6</title>
<g id="a_node6"><a xlink:href="vi_8h.html#a223f8c6109580a4e06c8f104ac1346ae" target="_top" xlink:title=" ">
<polygon fill="white" stroke="black" points="169,-38.5 169,-57.5 228,-57.5 228,-38.5 169,-38.5"/>
<text text-anchor="middle" x="198.5" y="-45.5" font-family="Helvetica,sans-Serif" font-size="10.00">lbuf_undo</text>
</a>
</g>
</g>
<!-- Node1&#45;&gt;Node6 -->
<g id="edge5" class="edge">
<title>Node1&#45;&gt;Node6</title>
<path fill="none" stroke="midnightblue" d="M253.77,-58.42C245.03,-56.74 236.09,-55.02 228.05,-53.48"/>
<polygon fill="midnightblue" stroke="midnightblue" points="253.39,-61.91 263.87,-60.35 254.71,-55.03 253.39,-61.91"/>
</g>
<!-- Node3 -->
<g id="node3" class="node">
<title>Node3</title>
<g id="a_node3"><a xlink:href="ex_8c.html#a39d0bccce28c5531c38fa56b7882857d" target="_top" xlink:title=" ">
<polygon fill="white" stroke="black" points="78,-114.5 78,-133.5 129,-133.5 129,-114.5 78,-114.5"/>
<text text-anchor="middle" x="103.5" y="-121.5" font-family="Helvetica,sans-Serif" font-size="10.00">ec_redo</text>
</a>
</g>
</g>
<!-- Node2&#45;&gt;Node3 -->
<g id="edge2" class="edge">
<title>Node2&#45;&gt;Node3</title>
<path fill="none" stroke="midnightblue" d="M164.68,-99.41C152.56,-104.36 139.08,-109.87 127.96,-114.41"/>
<polygon fill="midnightblue" stroke="midnightblue" points="166.1,-102.61 174.03,-95.59 163.45,-96.13 166.1,-102.61"/>
</g>
<!-- Node4 -->
<g id="node4" class="node">
<title>Node4</title>
<g id="a_node4"><a xlink:href="vi_8c.html#a8d808e0f3453afe6600673ee1ea5f828" target="_top" xlink:title=" ">
<polygon fill="white" stroke="black" points="89,-76.5 89,-95.5 118,-95.5 118,-76.5 89,-76.5"/>
<text text-anchor="middle" x="103.5" y="-83.5" font-family="Helvetica,sans-Serif" font-size="10.00">vi</text>
</a>
</g>
</g>
<!-- Node2&#45;&gt;Node4 -->
<g id="edge3" class="edge">
<title>Node2&#45;&gt;Node4</title>
<path fill="none" stroke="midnightblue" d="M160.09,-86C145.22,-86 129.07,-86 118.02,-86"/>
<polygon fill="midnightblue" stroke="midnightblue" points="160.1,-89.5 170.1,-86 160.1,-82.5 160.1,-89.5"/>
</g>
<!-- Node5 -->
<g id="node5" class="node">
<title>Node5</title>
<g id="a_node5"><a xlink:href="vi_8c.html#a0ddf1224851353fc92bfbff6f499fa97" target="_top" xlink:title=" ">
<polygon fill="white" stroke="black" points="0,-76.5 0,-95.5 38,-95.5 38,-76.5 0,-76.5"/>
<text text-anchor="middle" x="19" y="-83.5" font-family="Helvetica,sans-Serif" font-size="10.00">main</text>
</a>
</g>
</g>
<!-- Node4&#45;&gt;Node5 -->
<g id="edge4" class="edge">
<title>Node4&#45;&gt;Node5</title>
<path fill="none" stroke="midnightblue" d="M78.85,-86C65.95,-86 50.23,-86 38.28,-86"/>
<polygon fill="midnightblue" stroke="midnightblue" points="78.88,-89.5 88.88,-86 78.88,-82.5 78.88,-89.5"/>
</g>
<!-- Node6&#45;&gt;Node4 -->
<g id="edge8" class="edge">
<title>Node6&#45;&gt;Node4</title>
<path fill="none" stroke="midnightblue" d="M164.48,-61.49C148.54,-68 130.29,-75.46 118.15,-80.42"/>
<polygon fill="midnightblue" stroke="midnightblue" points="166.1,-64.61 174.03,-57.59 163.45,-58.13 166.1,-64.61"/>
</g>
<!-- Node7 -->
<g id="node7" class="node">
<title>Node7</title>
<g id="a_node7"><a xlink:href="ex_8c.html#a0f6c94c34d1bc97a9051aceb7bda7ff0" target="_top" xlink:title=" ">
<polygon fill="white" stroke="black" points="77,-38.5 77,-57.5 130,-57.5 130,-38.5 77,-38.5"/>
<text text-anchor="middle" x="103.5" y="-45.5" font-family="Helvetica,sans-Serif" font-size="10.00">ec_undo</text>
</a>
</g>
</g>
<!-- Node6&#45;&gt;Node7 -->
<g id="edge6" class="edge">
<title>Node6&#45;&gt;Node7</title>
<path fill="none" stroke="midnightblue" d="M158.63,-48C148.99,-48 138.89,-48 130.07,-48"/>
<polygon fill="midnightblue" stroke="midnightblue" points="158.84,-51.5 168.84,-48 158.84,-44.5 158.84,-51.5"/>
</g>
<!-- Node8 -->
<g id="node8" class="node">
<title>Node8</title>
<g id="a_node8"><a xlink:href="ex_8c.html#a0d61b907b63c575f18728b9b166f2b16" target="_top" xlink:title=" ">
<polygon fill="white" stroke="black" points="74,-0.5 74,-19.5 133,-19.5 133,-0.5 74,-0.5"/>
<text text-anchor="middle" x="103.5" y="-7.5" font-family="Helvetica,sans-Serif" font-size="10.00">ec_undo1</text>
</a>
</g>
</g>
<!-- Node6&#45;&gt;Node8 -->
<g id="edge7" class="edge">
<title>Node6&#45;&gt;Node8</title>
<path fill="none" stroke="midnightblue" d="M164.68,-34.59C152.56,-29.64 139.08,-24.13 127.96,-19.59"/>
<polygon fill="midnightblue" stroke="midnightblue" points="163.45,-37.87 174.03,-38.41 166.1,-31.39 163.45,-37.87"/>
</g>
</g>
</svg>
