<?xml version="1.0" encoding="UTF-8" standalone="no"?>
<!DOCTYPE svg PUBLIC "-//W3C//DTD SVG 1.1//EN"
 "http://www.w3.org/Graphics/SVG/1.1/DTD/svg11.dtd">
<!-- Generated by graphviz version 2.44.1 (20200629.0846)
 -->
<!-- Title: led_posctx Pages: 1 -->
<svg width="1274pt" height="827pt"
 viewBox="0.00 0.00 1274.00 827.19" xmlns="http://www.w3.org/2000/svg" xmlns:xlink="http://www.w3.org/1999/xlink">
<g id="graph0" class="graph" transform="scale(1 1) rotate(0) translate(4 823.19)">
<title>led_posctx</title>
<polygon fill="white" stroke="transparent" points="-4,4 -4,-823.19 1270,-823.19 1270,4 -4,4"/>
<!-- Node1 -->
<g id="node1" class="node">
<title>Node1</title>
<g id="a_node1"><a xlink:title=" ">
<polygon fill="#bfbfbf" stroke="black" points="1202,-600.69 1202,-619.69 1266,-619.69 1266,-600.69 1202,-600.69"/>
<text text-anchor="middle" x="1234" y="-607.69" font-family="Helvetica,sans-Serif" font-size="10.00">led_posctx</text>
</a>
</g>
</g>
<!-- Node2 -->
<g id="node2" class="node">
<title>Node2</title>
<g id="a_node2"><a xlink:href="vi_8h.html#ad28a8cfbca68058d859c97d73d9121c5" target="_top" xlink:title=" ">
<polygon fill="white" stroke="black" points="900.5,-619.69 900.5,-638.69 950.5,-638.69 950.5,-619.69 900.5,-619.69"/>
<text text-anchor="middle" x="925.5" y="-626.69" font-family="Helvetica,sans-Serif" font-size="10.00">led_pos</text>
</a>
</g>
</g>
<!-- Node1&#45;&gt;Node2 -->
<g id="edge1" class="edge">
<title>Node1&#45;&gt;Node2</title>
<path fill="none" stroke="midnightblue" d="M1191.65,-612.75C1126.74,-616.78 1002.94,-624.45 950.7,-627.69"/>
<polygon fill="midnightblue" stroke="midnightblue" points="1192.16,-616.23 1201.92,-612.11 1191.73,-609.24 1192.16,-616.23"/>
</g>
<!-- Node23 -->
<g id="node23" class="node">
<title>Node23</title>
<g id="a_node23"><a xlink:href="led_8c.html#ad30f796594398b70e4ce9687b11bcdd9" target="_top" xlink:title=" ">
<polygon fill="white" stroke="black" points="1104,-581.69 1104,-600.69 1166,-600.69 1166,-581.69 1104,-581.69"/>
<text text-anchor="middle" x="1135" y="-588.69" font-family="Helvetica,sans-Serif" font-size="10.00">led_render</text>
</a>
</g>
</g>
<!-- Node1&#45;&gt;Node23 -->
<g id="edge34" class="edge">
<title>Node1&#45;&gt;Node23</title>
<path fill="none" stroke="midnightblue" d="M1191.87,-602.13C1183.25,-600.44 1174.31,-598.69 1166.17,-597.1"/>
<polygon fill="midnightblue" stroke="midnightblue" points="1191.29,-605.58 1201.77,-604.07 1192.63,-598.72 1191.29,-605.58"/>
</g>
<!-- Node3 -->
<g id="node3" class="node">
<title>Node3</title>
<g id="a_node3"><a xlink:href="led_8c.html#ae938cbff964c214e7e4f6aff4d5ce0f7" target="_top" xlink:title=" ">
<polygon fill="white" stroke="black" points="777.5,-581.69 777.5,-600.69 852.5,-600.69 852.5,-581.69 777.5,-581.69"/>
<text text-anchor="middle" x="815" y="-588.69" font-family="Helvetica,sans-Serif" font-size="10.00">led_printparts</text>
</a>
</g>
</g>
<!-- Node2&#45;&gt;Node3 -->
<g id="edge2" class="edge">
<title>Node2&#45;&gt;Node3</title>
<path fill="none" stroke="midnightblue" d="M890.84,-617.4C875.62,-612.07 857.85,-605.85 843.45,-600.8"/>
<polygon fill="midnightblue" stroke="midnightblue" points="889.83,-620.75 900.42,-620.75 892.14,-614.15 889.83,-620.75"/>
</g>
<!-- Node7 -->
<g id="node7" class="node">
<title>Node7</title>
<g id="a_node7"><a xlink:href="vi_8c.html#a8d808e0f3453afe6600673ee1ea5f828" target="_top" xlink:title=" ">
<polygon fill="white" stroke="black" points="82,-562.69 82,-581.69 111,-581.69 111,-562.69 82,-562.69"/>
<text text-anchor="middle" x="96.5" y="-569.69" font-family="Helvetica,sans-Serif" font-size="10.00">vi</text>
</a>
</g>
</g>
<!-- Node2&#45;&gt;Node7 -->
<g id="edge28" class="edge">
<title>Node2&#45;&gt;Node7</title>
<path fill="none" stroke="midnightblue" d="M896.68,-644.1C894.71,-645.41 892.8,-646.78 891,-648.19 872.68,-662.53 872.8,-671.21 855,-686.19 796.61,-735.31 788.3,-781.19 712,-781.19 712,-781.19 712,-781.19 295.5,-781.19 229.22,-781.19 201.99,-777.94 155,-731.19 111.51,-687.92 100.71,-609.32 98.2,-581.92"/>
<polygon fill="midnightblue" stroke="midnightblue" points="898.76,-646.92 905.44,-638.71 895.09,-640.96 898.76,-646.92"/>
</g>
<!-- Node17 -->
<g id="node17" class="node">
<title>Node17</title>
<g id="a_node17"><a xlink:href="vi_8c.html#a57965473297aad4c4333fdd3897c11f3" target="_top" xlink:title=" ">
<polygon fill="white" stroke="black" points="458,-619.69 458,-638.69 517,-638.69 517,-619.69 458,-619.69"/>
<text text-anchor="middle" x="487.5" y="-626.69" font-family="Helvetica,sans-Serif" font-size="10.00">vi_prompt</text>
</a>
</g>
</g>
<!-- Node2&#45;&gt;Node17 -->
<g id="edge33" class="edge">
<title>Node2&#45;&gt;Node17</title>
<path fill="none" stroke="midnightblue" d="M890.24,-629.19C806.85,-629.19 594.54,-629.19 517.22,-629.19"/>
<polygon fill="midnightblue" stroke="midnightblue" points="890.44,-632.69 900.44,-629.19 890.44,-625.69 890.44,-632.69"/>
</g>
<!-- Node21 -->
<g id="node21" class="node">
<title>Node21</title>
<g id="a_node21"><a xlink:href="vi_8c.html#a2b620fa68325e1b708f07af90f50c3d8" target="_top" xlink:title=" ">
<polygon fill="white" stroke="black" points="778,-657.69 778,-676.69 852,-676.69 852,-657.69 778,-657.69"/>
<text text-anchor="middle" x="815" y="-664.69" font-family="Helvetica,sans-Serif" font-size="10.00">vi_drawagain</text>
</a>
</g>
</g>
<!-- Node2&#45;&gt;Node21 -->
<g id="edge29" class="edge">
<title>Node2&#45;&gt;Node21</title>
<path fill="none" stroke="midnightblue" d="M890.84,-640.98C875.62,-646.31 857.85,-652.53 843.45,-657.57"/>
<polygon fill="midnightblue" stroke="midnightblue" points="892.14,-644.23 900.42,-637.62 889.83,-637.62 892.14,-644.23"/>
</g>
<!-- Node22 -->
<g id="node22" class="node">
<title>Node22</title>
<g id="a_node22"><a xlink:href="vi_8c.html#a9896bc9688f6102408f66aa0ad7e64f9" target="_top" xlink:title=" ">
<polygon fill="white" stroke="black" points="775,-543.69 775,-562.69 855,-562.69 855,-543.69 775,-543.69"/>
<text text-anchor="middle" x="815" y="-550.69" font-family="Helvetica,sans-Serif" font-size="10.00">vi_drawupdate</text>
</a>
</g>
</g>
<!-- Node2&#45;&gt;Node22 -->
<g id="edge31" class="edge">
<title>Node2&#45;&gt;Node22</title>
<path fill="none" stroke="midnightblue" d="M906.65,-612.57C893.12,-600.48 873.71,-584.19 855,-572.19 849.67,-568.77 843.64,-565.55 837.95,-562.77"/>
<polygon fill="midnightblue" stroke="midnightblue" points="904.5,-615.35 914.26,-619.48 909.21,-610.17 904.5,-615.35"/>
</g>
<!-- Node4 -->
<g id="node4" class="node">
<title>Node4</title>
<g id="a_node4"><a xlink:href="vi_8h.html#ae72255a31cec31233723c101d9465d07" target="_top" xlink:title=" ">
<polygon fill="white" stroke="black" points="572,-581.69 572,-600.69 628,-600.69 628,-581.69 572,-581.69"/>
<text text-anchor="middle" x="600" y="-588.69" font-family="Helvetica,sans-Serif" font-size="10.00">led_input</text>
</a>
</g>
</g>
<!-- Node3&#45;&gt;Node4 -->
<g id="edge3" class="edge">
<title>Node3&#45;&gt;Node4</title>
<path fill="none" stroke="midnightblue" d="M767.24,-591.19C724.59,-591.19 663.03,-591.19 628.03,-591.19"/>
<polygon fill="midnightblue" stroke="midnightblue" points="767.38,-594.69 777.38,-591.19 767.38,-587.69 767.38,-594.69"/>
</g>
<!-- Node11 -->
<g id="node11" class="node">
<title>Node11</title>
<g id="a_node11"><a xlink:href="led_8c.html#a617ec615e86687b5c10df33b271256c8" target="_top" xlink:title=" ">
<polygon fill="white" stroke="black" points="686,-543.69 686,-562.69 736,-562.69 736,-543.69 686,-543.69"/>
<text text-anchor="middle" x="711" y="-550.69" font-family="Helvetica,sans-Serif" font-size="10.00">led_line</text>
</a>
</g>
</g>
<!-- Node3&#45;&gt;Node11 -->
<g id="edge11" class="edge">
<title>Node3&#45;&gt;Node11</title>
<path fill="none" stroke="midnightblue" d="M778.49,-577.96C764.56,-572.77 748.93,-566.95 736.33,-562.25"/>
<polygon fill="midnightblue" stroke="midnightblue" points="777.67,-581.39 788.26,-581.6 780.11,-574.83 777.67,-581.39"/>
</g>
<!-- Node5 -->
<g id="node5" class="node">
<title>Node5</title>
<g id="a_node5"><a xlink:href="vi_8c.html#a653f6b0359cef492e11f404c4bf469b9" target="_top" xlink:title=" ">
<polygon fill="white" stroke="black" points="367.5,-543.69 367.5,-562.69 417.5,-562.69 417.5,-543.69 367.5,-543.69"/>
<text text-anchor="middle" x="392.5" y="-550.69" font-family="Helvetica,sans-Serif" font-size="10.00">vi_input</text>
</a>
</g>
</g>
<!-- Node4&#45;&gt;Node5 -->
<g id="edge4" class="edge">
<title>Node4&#45;&gt;Node5</title>
<path fill="none" stroke="midnightblue" d="M561.97,-585.35C533.49,-580.75 493.17,-574 458,-567.19 444.61,-564.6 429.73,-561.39 417.64,-558.7"/>
<polygon fill="midnightblue" stroke="midnightblue" points="561.48,-588.82 571.9,-586.95 562.58,-581.91 561.48,-588.82"/>
</g>
<!-- Node6 -->
<g id="node6" class="node">
<title>Node6</title>
<g id="a_node6"><a xlink:href="vi_8c.html#a8bb357a77ed61da8858f138c6fa672a6" target="_top" xlink:title=" ">
<polygon fill="white" stroke="black" points="268.5,-543.69 268.5,-562.69 324.5,-562.69 324.5,-543.69 268.5,-543.69"/>
<text text-anchor="middle" x="296.5" y="-550.69" font-family="Helvetica,sans-Serif" font-size="10.00">vc_insert</text>
</a>
</g>
</g>
<!-- Node5&#45;&gt;Node6 -->
<g id="edge5" class="edge">
<title>Node5&#45;&gt;Node6</title>
<path fill="none" stroke="midnightblue" d="M357.01,-553.19C346.33,-553.19 334.72,-553.19 324.61,-553.19"/>
<polygon fill="midnightblue" stroke="midnightblue" points="357.29,-556.69 367.29,-553.19 357.29,-549.69 357.29,-556.69"/>
</g>
<!-- Node9 -->
<g id="node9" class="node">
<title>Node9</title>
<g id="a_node9"><a xlink:href="vi_8c.html#ae37b094c3bb647d8c1a4ac4e858ce518" target="_top" xlink:title=" ">
<polygon fill="white" stroke="black" points="266,-619.69 266,-638.69 327,-638.69 327,-619.69 266,-619.69"/>
<text text-anchor="middle" x="296.5" y="-626.69" font-family="Helvetica,sans-Serif" font-size="10.00">vi_change</text>
</a>
</g>
</g>
<!-- Node5&#45;&gt;Node9 -->
<g id="edge8" class="edge">
<title>Node5&#45;&gt;Node9</title>
<path fill="none" stroke="midnightblue" d="M371.61,-569.27C352.72,-584.54 324.94,-607 309.31,-619.64"/>
<polygon fill="midnightblue" stroke="midnightblue" points="374.02,-571.82 379.59,-562.81 369.62,-566.38 374.02,-571.82"/>
</g>
<!-- Node6&#45;&gt;Node7 -->
<g id="edge6" class="edge">
<title>Node6&#45;&gt;Node7</title>
<path fill="none" stroke="midnightblue" d="M258.25,-556.76C213.74,-561.03 141.52,-567.96 111.39,-570.86"/>
<polygon fill="midnightblue" stroke="midnightblue" points="258.76,-560.23 268.38,-555.79 258.1,-553.26 258.76,-560.23"/>
</g>
<!-- Node8 -->
<g id="node8" class="node">
<title>Node8</title>
<g id="a_node8"><a xlink:href="vi_8c.html#a0ddf1224851353fc92bfbff6f499fa97" target="_top" xlink:title=" ">
<polygon fill="white" stroke="black" points="0,-353.69 0,-372.69 38,-372.69 38,-353.69 0,-353.69"/>
<text text-anchor="middle" x="19" y="-360.69" font-family="Helvetica,sans-Serif" font-size="10.00">main</text>
</a>
</g>
</g>
<!-- Node7&#45;&gt;Node8 -->
<g id="edge7" class="edge">
<title>Node7&#45;&gt;Node8</title>
<path fill="none" stroke="midnightblue" d="M88.58,-553.02C72.89,-509.59 35.09,-404.95 23.46,-372.77"/>
<polygon fill="midnightblue" stroke="midnightblue" points="85.37,-554.45 92.06,-562.67 91.95,-552.07 85.37,-554.45"/>
</g>
<!-- Node10 -->
<g id="node10" class="node">
<title>Node10</title>
<g id="a_node10"><a xlink:href="vi_8c.html#a06cbc6eb843436a0e77e07cbab0c4538" target="_top" xlink:title=" ">
<polygon fill="white" stroke="black" points="161.5,-638.69 161.5,-657.69 223.5,-657.69 223.5,-638.69 161.5,-638.69"/>
<text text-anchor="middle" x="192.5" y="-645.69" font-family="Helvetica,sans-Serif" font-size="10.00">vc_motion</text>
</a>
</g>
</g>
<!-- Node9&#45;&gt;Node10 -->
<g id="edge9" class="edge">
<title>Node9&#45;&gt;Node10</title>
<path fill="none" stroke="midnightblue" d="M255.98,-636.55C245.24,-638.55 233.78,-640.69 223.64,-642.57"/>
<polygon fill="midnightblue" stroke="midnightblue" points="256.81,-639.96 266,-634.68 255.53,-633.07 256.81,-639.96"/>
</g>
<!-- Node10&#45;&gt;Node7 -->
<g id="edge10" class="edge">
<title>Node10&#45;&gt;Node7</title>
<path fill="none" stroke="midnightblue" d="M171.61,-632.11C152.72,-616.83 124.94,-594.37 109.31,-581.74"/>
<polygon fill="midnightblue" stroke="midnightblue" points="169.62,-635 179.59,-638.56 174.02,-629.55 169.62,-635"/>
</g>
<!-- Node11&#45;&gt;Node4 -->
<g id="edge12" class="edge">
<title>Node11&#45;&gt;Node4</title>
<path fill="none" stroke="midnightblue" d="M676.11,-565C660.7,-570.38 642.7,-576.65 628.19,-581.71"/>
<polygon fill="midnightblue" stroke="midnightblue" points="677.52,-568.22 685.81,-561.62 675.21,-561.61 677.52,-568.22"/>
</g>
<!-- Node12 -->
<g id="node12" class="node">
<title>Node12</title>
<g id="a_node12"><a xlink:href="vi_8h.html#a173bb468e1e2a066136316f98b49c108" target="_top" xlink:title=" ">
<polygon fill="white" stroke="black" points="567.5,-543.69 567.5,-562.69 632.5,-562.69 632.5,-543.69 567.5,-543.69"/>
<text text-anchor="middle" x="600" y="-550.69" font-family="Helvetica,sans-Serif" font-size="10.00">led_prompt</text>
</a>
</g>
</g>
<!-- Node11&#45;&gt;Node12 -->
<g id="edge13" class="edge">
<title>Node11&#45;&gt;Node12</title>
<path fill="none" stroke="midnightblue" d="M675.72,-553.19C661.92,-553.19 646.1,-553.19 632.58,-553.19"/>
<polygon fill="midnightblue" stroke="midnightblue" points="675.81,-556.69 685.81,-553.19 675.81,-549.69 675.81,-556.69"/>
</g>
<!-- Node13 -->
<g id="node13" class="node">
<title>Node13</title>
<g id="a_node13"><a xlink:href="vi_8h.html#a7ba56272fe1a7d523192729a0bb5edf7" target="_top" xlink:title=" ">
<polygon fill="white" stroke="black" points="271,-438.69 271,-457.69 322,-457.69 322,-438.69 271,-438.69"/>
<text text-anchor="middle" x="296.5" y="-445.69" font-family="Helvetica,sans-Serif" font-size="10.00">ex_read</text>
</a>
</g>
</g>
<!-- Node12&#45;&gt;Node13 -->
<g id="edge14" class="edge">
<title>Node12&#45;&gt;Node13</title>
<path fill="none" stroke="midnightblue" d="M561.9,-540.27C499.54,-518.55 375.36,-475.3 322.38,-456.85"/>
<polygon fill="midnightblue" stroke="midnightblue" points="561.12,-543.7 571.71,-543.69 563.42,-537.09 561.12,-543.7"/>
</g>
<!-- Node12&#45;&gt;Node17 -->
<g id="edge20" class="edge">
<title>Node12&#45;&gt;Node17</title>
<path fill="none" stroke="midnightblue" d="M562.33,-567.01C559.11,-568.62 555.95,-570.35 553,-572.19 530.94,-585.95 509.07,-607.34 497.32,-619.63"/>
<polygon fill="midnightblue" stroke="midnightblue" points="563.88,-570.15 571.5,-562.8 560.95,-563.79 563.88,-570.15"/>
</g>
<!-- Node14 -->
<g id="node14" class="node">
<title>Node14</title>
<g id="a_node14"><a xlink:href="ex_8c.html#a0908784dc65be2da119a6b72ef96dec2" target="_top" xlink:title=" ">
<polygon fill="white" stroke="black" points="164.5,-429.69 164.5,-448.69 220.5,-448.69 220.5,-429.69 164.5,-429.69"/>
<text text-anchor="middle" x="192.5" y="-436.69" font-family="Helvetica,sans-Serif" font-size="10.00">ec_insert</text>
</a>
</g>
</g>
<!-- Node13&#45;&gt;Node14 -->
<g id="edge15" class="edge">
<title>Node13&#45;&gt;Node14</title>
<path fill="none" stroke="midnightblue" d="M260.77,-445.12C247.73,-443.97 233.11,-442.68 220.83,-441.6"/>
<polygon fill="midnightblue" stroke="midnightblue" points="260.54,-448.62 270.81,-446.01 261.16,-441.64 260.54,-448.62"/>
</g>
<!-- Node15 -->
<g id="node15" class="node">
<title>Node15</title>
<g id="a_node15"><a xlink:href="vi_8h.html#ac395e51f25330a6e6033b6d0d22b2076" target="_top" xlink:title=" ">
<polygon fill="white" stroke="black" points="82,-353.69 82,-372.69 111,-372.69 111,-353.69 82,-353.69"/>
<text text-anchor="middle" x="96.5" y="-360.69" font-family="Helvetica,sans-Serif" font-size="10.00">ex</text>
</a>
</g>
</g>
<!-- Node13&#45;&gt;Node15 -->
<g id="edge16" class="edge">
<title>Node13&#45;&gt;Node15</title>
<path fill="none" stroke="midnightblue" d="M263.82,-434.59C219.93,-415.75 142.49,-382.5 111.19,-369.07"/>
<polygon fill="midnightblue" stroke="midnightblue" points="262.6,-437.87 273.17,-438.6 265.36,-431.44 262.6,-437.87"/>
</g>
<!-- Node16 -->
<g id="node16" class="node">
<title>Node16</title>
<g id="a_node16"><a xlink:href="vi_8c.html#a9d85e9ed087401367529ab86a5dbf0c5" target="_top" xlink:title=" ">
<polygon fill="white" stroke="black" points="169,-467.69 169,-486.69 216,-486.69 216,-467.69 169,-467.69"/>
<text text-anchor="middle" x="192.5" y="-474.69" font-family="Helvetica,sans-Serif" font-size="10.00">vi_wait</text>
</a>
</g>
</g>
<!-- Node13&#45;&gt;Node16 -->
<g id="edge18" class="edge">
<title>Node13&#45;&gt;Node16</title>
<path fill="none" stroke="midnightblue" d="M260.98,-458C246.22,-462.2 229.38,-466.99 216.22,-470.73"/>
<polygon fill="midnightblue" stroke="midnightblue" points="262.15,-461.31 270.81,-455.21 260.23,-454.58 262.15,-461.31"/>
</g>
<!-- Node15&#45;&gt;Node8 -->
<g id="edge17" class="edge">
<title>Node15&#45;&gt;Node8</title>
<path fill="none" stroke="midnightblue" d="M71.55,-363.19C60.69,-363.19 48.07,-363.19 38.04,-363.19"/>
<polygon fill="midnightblue" stroke="midnightblue" points="71.65,-366.69 81.65,-363.19 71.65,-359.69 71.65,-366.69"/>
</g>
<!-- Node16&#45;&gt;Node7 -->
<g id="edge19" class="edge">
<title>Node16&#45;&gt;Node7</title>
<path fill="none" stroke="midnightblue" d="M166.25,-492.31C162.33,-495.07 158.44,-498.07 155,-501.19 133.6,-520.57 113.57,-548.28 103.77,-562.68"/>
<polygon fill="midnightblue" stroke="midnightblue" points="168.32,-495.13 174.73,-486.69 164.46,-489.3 168.32,-495.13"/>
</g>
<!-- Node17&#45;&gt;Node7 -->
<g id="edge21" class="edge">
<title>Node17&#45;&gt;Node7</title>
<path fill="none" stroke="midnightblue" d="M447.85,-623.13C439.34,-621.82 430.37,-620.44 422,-619.19 301.53,-601.13 155.71,-580.42 111.11,-574.11"/>
<polygon fill="midnightblue" stroke="midnightblue" points="447.51,-626.62 457.93,-624.7 448.59,-619.7 447.51,-626.62"/>
</g>
<!-- Node18 -->
<g id="node18" class="node">
<title>Node18</title>
<g id="a_node18"><a xlink:href="vi_8c.html#ab8e0c9b9d2ef5161c6a3a8828606df5f" target="_top" xlink:title=" ">
<polygon fill="white" stroke="black" points="369,-628.69 369,-647.69 416,-647.69 416,-628.69 369,-628.69"/>
<text text-anchor="middle" x="392.5" y="-635.69" font-family="Helvetica,sans-Serif" font-size="10.00">vi_pipe</text>
</a>
</g>
</g>
<!-- Node17&#45;&gt;Node18 -->
<g id="edge22" class="edge">
<title>Node17&#45;&gt;Node18</title>
<path fill="none" stroke="midnightblue" d="M447.73,-632.94C436.93,-633.99 425.55,-635.09 416.02,-636.01"/>
<polygon fill="midnightblue" stroke="midnightblue" points="448.22,-636.41 457.84,-631.96 447.55,-629.44 448.22,-636.41"/>
</g>
<!-- Node19 -->
<g id="node19" class="node">
<title>Node19</title>
<g id="a_node19"><a xlink:href="vi_8c.html#a93701c59617d4f96cbaa207e89178f87" target="_top" xlink:title=" ">
<polygon fill="white" stroke="black" points="363,-685.69 363,-704.69 422,-704.69 422,-685.69 363,-685.69"/>
<text text-anchor="middle" x="392.5" y="-692.69" font-family="Helvetica,sans-Serif" font-size="10.00">vi_search</text>
</a>
</g>
</g>
<!-- Node17&#45;&gt;Node19 -->
<g id="edge24" class="edge">
<title>Node17&#45;&gt;Node19</title>
<path fill="none" stroke="midnightblue" d="M464.14,-645.06C446.31,-657.71 421.93,-675.01 406.98,-685.62"/>
<polygon fill="midnightblue" stroke="midnightblue" points="466.65,-647.57 472.78,-638.93 462.6,-641.86 466.65,-647.57"/>
</g>
<!-- Node18&#45;&gt;Node10 -->
<g id="edge23" class="edge">
<title>Node18&#45;&gt;Node10</title>
<path fill="none" stroke="midnightblue" d="M358.81,-644.25C348.66,-645.87 337.4,-647.39 327,-648.19 291.53,-650.92 250.6,-650.38 223.51,-649.5"/>
<polygon fill="midnightblue" stroke="midnightblue" points="359.63,-647.67 368.91,-642.56 358.47,-640.76 359.63,-647.67"/>
</g>
<!-- Node20 -->
<g id="node20" class="node">
<title>Node20</title>
<g id="a_node20"><a xlink:href="vi_8c.html#aaa4777ea0715ea846346d0f27a0cfa3f" target="_top" xlink:title=" ">
<polygon fill="white" stroke="black" points="267,-695.69 267,-714.69 326,-714.69 326,-695.69 267,-695.69"/>
<text text-anchor="middle" x="296.5" y="-702.69" font-family="Helvetica,sans-Serif" font-size="10.00">vi_motion</text>
</a>
</g>
</g>
<!-- Node19&#45;&gt;Node20 -->
<g id="edge25" class="edge">
<title>Node19&#45;&gt;Node20</title>
<path fill="none" stroke="midnightblue" d="M352.6,-699.33C343.71,-700.27 334.41,-701.26 326.04,-702.15"/>
<polygon fill="midnightblue" stroke="midnightblue" points="353.21,-702.78 362.79,-698.24 352.47,-695.82 353.21,-702.78"/>
</g>
<!-- Node20&#45;&gt;Node7 -->
<g id="edge27" class="edge">
<title>Node20&#45;&gt;Node7</title>
<path fill="none" stroke="midnightblue" d="M256.73,-702.52C226.43,-698.71 184.62,-689.48 155,-667.19 124.97,-644.58 107.32,-601.29 100.62,-581.95"/>
<polygon fill="midnightblue" stroke="midnightblue" points="256.61,-706.02 266.93,-703.65 257.38,-699.07 256.61,-706.02"/>
</g>
<!-- Node20&#45;&gt;Node10 -->
<g id="edge26" class="edge">
<title>Node20&#45;&gt;Node10</title>
<path fill="none" stroke="midnightblue" d="M269.38,-690.59C250.89,-680.26 226.6,-666.69 210.55,-657.71"/>
<polygon fill="midnightblue" stroke="midnightblue" points="267.76,-693.7 278.2,-695.52 271.18,-687.59 267.76,-693.7"/>
</g>
<!-- Node21&#45;&gt;Node7 -->
<g id="edge30" class="edge">
<title>Node21&#45;&gt;Node7</title>
<path fill="none" stroke="midnightblue" d="M789.73,-682.04C751.21,-704.16 673.03,-743.19 601,-743.19 601,-743.19 601,-743.19 295.5,-743.19 229.65,-743.19 204.08,-740.08 155,-696.19 119.09,-664.07 103.98,-604.92 99.26,-581.8"/>
<polygon fill="midnightblue" stroke="midnightblue" points="791.79,-684.89 798.64,-676.81 788.25,-678.85 791.79,-684.89"/>
</g>
<!-- Node22&#45;&gt;Node7 -->
<g id="edge32" class="edge">
<title>Node22&#45;&gt;Node7</title>
<path fill="none" stroke="midnightblue" d="M771.35,-541C728.63,-529.89 660.81,-515.19 601,-515.19 601,-515.19 601,-515.19 295.5,-515.19 223.6,-515.19 142.54,-550.33 111.03,-565.43"/>
<polygon fill="midnightblue" stroke="midnightblue" points="770.56,-544.42 781.12,-543.6 772.35,-537.65 770.56,-544.42"/>
</g>
<!-- Node24 -->
<g id="node24" class="node">
<title>Node24</title>
<g id="a_node24"><a xlink:href="vi_8h.html#a4356f8fc86e72c470f35f0a5e4385576" target="_top" xlink:title=" ">
<polygon fill="white" stroke="black" points="1005.5,-543.69 1005.5,-562.69 1058.5,-562.69 1058.5,-543.69 1005.5,-543.69"/>
<text text-anchor="middle" x="1032" y="-550.69" font-family="Helvetica,sans-Serif" font-size="10.00">led_print</text>
</a>
</g>
</g>
<!-- Node23&#45;&gt;Node24 -->
<g id="edge35" class="edge">
<title>Node23&#45;&gt;Node24</title>
<path fill="none" stroke="midnightblue" d="M1099.13,-578.07C1085.78,-573.04 1070.8,-567.41 1058.48,-562.77"/>
<polygon fill="midnightblue" stroke="midnightblue" points="1097.92,-581.35 1108.51,-581.6 1100.39,-574.8 1097.92,-581.35"/>
</g>
<!-- Node47 -->
<g id="node47" class="node">
<title>Node47</title>
<g id="a_node47"><a xlink:href="vi_8h.html#a7838c5ed4623338b3fa9b2c6da4485eb" target="_top" xlink:title=" ">
<polygon fill="white" stroke="black" points="996,-581.69 996,-600.69 1068,-600.69 1068,-581.69 996,-581.69"/>
<text text-anchor="middle" x="1032" y="-588.69" font-family="Helvetica,sans-Serif" font-size="10.00">led_printmsg</text>
</a>
</g>
</g>
<!-- Node23&#45;&gt;Node47 -->
<g id="edge79" class="edge">
<title>Node23&#45;&gt;Node47</title>
<path fill="none" stroke="midnightblue" d="M1093.85,-591.19C1085.32,-591.19 1076.39,-591.19 1068.07,-591.19"/>
<polygon fill="midnightblue" stroke="midnightblue" points="1093.97,-594.69 1103.97,-591.19 1093.97,-587.69 1093.97,-594.69"/>
</g>
<!-- Node24&#45;&gt;Node3 -->
<g id="edge74" class="edge">
<title>Node24&#45;&gt;Node3</title>
<path fill="none" stroke="midnightblue" d="M995.33,-563.71C984.09,-566.76 971.59,-569.88 960,-572.19 923.77,-579.39 881.85,-584.58 852.61,-587.69"/>
<polygon fill="midnightblue" stroke="midnightblue" points="996.53,-567.01 1005.22,-560.95 994.65,-560.26 996.53,-567.01"/>
</g>
<!-- Node25 -->
<g id="node25" class="node">
<title>Node25</title>
<g id="a_node25"><a xlink:href="vi_8h.html#a075721180ea187be49c7164dcff34122" target="_top" xlink:title=" ">
<polygon fill="white" stroke="black" points="789.5,-315.69 789.5,-334.69 840.5,-334.69 840.5,-315.69 789.5,-315.69"/>
<text text-anchor="middle" x="815" y="-322.69" font-family="Helvetica,sans-Serif" font-size="10.00">ex_print</text>
</a>
</g>
</g>
<!-- Node24&#45;&gt;Node25 -->
<g id="edge36" class="edge">
<title>Node24&#45;&gt;Node25</title>
<path fill="none" stroke="midnightblue" d="M1014.98,-536.2C972.5,-491.15 857.99,-369.71 825,-334.74"/>
<polygon fill="midnightblue" stroke="midnightblue" points="1012.63,-538.81 1022.04,-543.68 1017.72,-534.01 1012.63,-538.81"/>
</g>
<!-- Node42 -->
<g id="node42" class="node">
<title>Node42</title>
<g id="a_node42"><a xlink:href="vi_8h.html#ad27b2fbb84601eb4c5af3b1f28feac75" target="_top" xlink:title=" ">
<polygon fill="white" stroke="black" points="897.5,-144.69 897.5,-163.69 953.5,-163.69 953.5,-144.69 897.5,-144.69"/>
<text text-anchor="middle" x="925.5" y="-151.69" font-family="Helvetica,sans-Serif" font-size="10.00">ex_show</text>
</a>
</g>
</g>
<!-- Node24&#45;&gt;Node42 -->
<g id="edge61" class="edge">
<title>Node24&#45;&gt;Node42</title>
<path fill="none" stroke="midnightblue" d="M1025.79,-533.31C1006.92,-461.25 942.49,-215.25 928.99,-163.71"/>
<polygon fill="midnightblue" stroke="midnightblue" points="1022.5,-534.54 1028.42,-543.33 1029.27,-532.76 1022.5,-534.54"/>
</g>
<!-- Node46 -->
<g id="node46" class="node">
<title>Node46</title>
<g id="a_node46"><a xlink:href="vi_8c.html#af48ebb44cac26d2c52f0ada762be5bf6" target="_top" xlink:title=" ">
<polygon fill="white" stroke="black" points="892.5,-543.69 892.5,-562.69 958.5,-562.69 958.5,-543.69 892.5,-543.69"/>
<text text-anchor="middle" x="925.5" y="-550.69" font-family="Helvetica,sans-Serif" font-size="10.00">vi_drawrow</text>
</a>
</g>
</g>
<!-- Node24&#45;&gt;Node46 -->
<g id="edge75" class="edge">
<title>Node24&#45;&gt;Node46</title>
<path fill="none" stroke="midnightblue" d="M995.35,-553.19C983.41,-553.19 970.18,-553.19 958.54,-553.19"/>
<polygon fill="midnightblue" stroke="midnightblue" points="995.44,-556.69 1005.44,-553.19 995.44,-549.69 995.44,-556.69"/>
</g>
<!-- Node26 -->
<g id="node26" class="node">
<title>Node26</title>
<g id="a_node26"><a xlink:href="ex_8c.html#a86b4adba0c96621f01383b9bacba4a01" target="_top" xlink:title=" ">
<polygon fill="white" stroke="black" points="683,-391.69 683,-410.69 739,-410.69 739,-391.69 683,-391.69"/>
<text text-anchor="middle" x="711" y="-398.69" font-family="Helvetica,sans-Serif" font-size="10.00">ec_cmap</text>
</a>
</g>
</g>
<!-- Node25&#45;&gt;Node26 -->
<g id="edge37" class="edge">
<title>Node25&#45;&gt;Node26</title>
<path fill="none" stroke="midnightblue" d="M793.55,-341.05C778.55,-352.6 757.65,-368.55 739,-382.19 734.74,-385.3 730.06,-388.63 725.8,-391.62"/>
<polygon fill="midnightblue" stroke="midnightblue" points="795.86,-343.69 801.63,-334.81 791.58,-338.15 795.86,-343.69"/>
</g>
<!-- Node27 -->
<g id="node27" class="node">
<title>Node27</title>
<g id="a_node27"><a xlink:href="ex_8c.html#adcd83f163f659bd2596bcfc25d74bde9" target="_top" xlink:title=" ">
<polygon fill="white" stroke="black" points="461,-135.69 461,-154.69 514,-154.69 514,-135.69 461,-135.69"/>
<text text-anchor="middle" x="487.5" y="-142.69" font-family="Helvetica,sans-Serif" font-size="10.00">ec_exec</text>
</a>
</g>
</g>
<!-- Node25&#45;&gt;Node27 -->
<g id="edge38" class="edge">
<title>Node25&#45;&gt;Node27</title>
<path fill="none" stroke="midnightblue" d="M787.36,-310.46C722.76,-274.73 559.15,-184.26 505.69,-154.7"/>
<polygon fill="midnightblue" stroke="midnightblue" points="786.05,-313.73 796.5,-315.51 789.44,-307.61 786.05,-313.73"/>
</g>
<!-- Node33 -->
<g id="node33" class="node">
<title>Node33</title>
<g id="a_node33"><a xlink:href="ex_8c.html#a96a40531d1096a618d29639f2e42710b" target="_top" xlink:title=" ">
<polygon fill="white" stroke="black" points="692,-353.69 692,-372.69 730,-372.69 730,-353.69 692,-353.69"/>
<text text-anchor="middle" x="711" y="-360.69" font-family="Helvetica,sans-Serif" font-size="10.00">ec_ft</text>
</a>
</g>
</g>
<!-- Node25&#45;&gt;Node33 -->
<g id="edge48" class="edge">
<title>Node25&#45;&gt;Node33</title>
<path fill="none" stroke="midnightblue" d="M779.87,-337.9C763.21,-344.11 743.84,-351.33 730.07,-356.46"/>
<polygon fill="midnightblue" stroke="midnightblue" points="781.16,-341.16 789.31,-334.39 778.72,-334.6 781.16,-341.16"/>
</g>
<!-- Node34 -->
<g id="node34" class="node">
<title>Node34</title>
<g id="a_node34"><a xlink:href="ex_8c.html#a1d45a70b724f4cccae2ab746c711ebb1" target="_top" xlink:title=" ">
<polygon fill="white" stroke="black" points="684.5,-315.69 684.5,-334.69 737.5,-334.69 737.5,-315.69 684.5,-315.69"/>
<text text-anchor="middle" x="711" y="-322.69" font-family="Helvetica,sans-Serif" font-size="10.00">ec_lnum</text>
</a>
</g>
</g>
<!-- Node25&#45;&gt;Node34 -->
<g id="edge49" class="edge">
<title>Node25&#45;&gt;Node34</title>
<path fill="none" stroke="midnightblue" d="M779.26,-325.19C765.58,-325.19 750.15,-325.19 737.53,-325.19"/>
<polygon fill="midnightblue" stroke="midnightblue" points="779.31,-328.69 789.31,-325.19 779.31,-321.69 779.31,-328.69"/>
</g>
<!-- Node35 -->
<g id="node35" class="node">
<title>Node35</title>
<g id="a_node35"><a xlink:href="ex_8c.html#aa69f426ff9728078fbb36f448c624a90" target="_top" xlink:title=" ">
<polygon fill="white" stroke="black" points="459.5,-239.69 459.5,-258.69 515.5,-258.69 515.5,-239.69 459.5,-239.69"/>
<text text-anchor="middle" x="487.5" y="-246.69" font-family="Helvetica,sans-Serif" font-size="10.00">ec_make</text>
</a>
</g>
</g>
<!-- Node25&#45;&gt;Node35 -->
<g id="edge50" class="edge">
<title>Node25&#45;&gt;Node35</title>
<path fill="none" stroke="midnightblue" d="M779.61,-316.29C766.87,-313.04 752.29,-309.38 739,-306.19 657.91,-286.69 561.62,-265.27 515.61,-255.13"/>
<polygon fill="midnightblue" stroke="midnightblue" points="778.82,-319.7 789.38,-318.79 780.56,-312.92 778.82,-319.7"/>
</g>
<!-- Node36 -->
<g id="node36" class="node">
<title>Node36</title>
<g id="a_node36"><a xlink:href="ex_8c.html#ad2c1a9505aa3097bac242b47a367f11d" target="_top" xlink:title=" ">
<polygon fill="white" stroke="black" points="685.5,-429.69 685.5,-448.69 736.5,-448.69 736.5,-429.69 685.5,-429.69"/>
<text text-anchor="middle" x="711" y="-436.69" font-family="Helvetica,sans-Serif" font-size="10.00">ec_print</text>
</a>
</g>
</g>
<!-- Node25&#45;&gt;Node36 -->
<g id="edge51" class="edge">
<title>Node25&#45;&gt;Node36</title>
<path fill="none" stroke="midnightblue" d="M802.04,-343.36C788.28,-363.48 764.3,-396.25 739,-420.19 735.42,-423.58 731.2,-426.83 727.17,-429.66"/>
<polygon fill="midnightblue" stroke="midnightblue" points="805.1,-345.08 807.78,-334.83 799.29,-341.18 805.1,-345.08"/>
</g>
<!-- Node38 -->
<g id="node38" class="node">
<title>Node38</title>
<g id="a_node38"><a xlink:href="ex_8c.html#a057b67e2d4f23df3ad50a9d3ec86125b" target="_top" xlink:title=" ">
<polygon fill="white" stroke="black" points="684.5,-201.69 684.5,-220.69 737.5,-220.69 737.5,-201.69 684.5,-201.69"/>
<text text-anchor="middle" x="711" y="-208.69" font-family="Helvetica,sans-Serif" font-size="10.00">ec_write</text>
</a>
</g>
</g>
<!-- Node25&#45;&gt;Node38 -->
<g id="edge53" class="edge">
<title>Node25&#45;&gt;Node38</title>
<path fill="none" stroke="midnightblue" d="M800.67,-307.67C786.21,-289.04 762.09,-259.03 739,-235.19 734.2,-230.23 728.54,-225.11 723.65,-220.87"/>
<polygon fill="midnightblue" stroke="midnightblue" points="797.9,-309.81 806.77,-315.6 803.45,-305.54 797.9,-309.81"/>
</g>
<!-- Node28 -->
<g id="node28" class="node">
<title>Node28</title>
<g id="a_node28"><a xlink:href="ex_8c.html#a7d848d20211b2e1c868dde98ec5dfae9" target="_top" xlink:title=" ">
<polygon fill="white" stroke="black" points="369,-196.69 369,-215.69 416,-215.69 416,-196.69 369,-196.69"/>
<text text-anchor="middle" x="392.5" y="-203.69" font-family="Helvetica,sans-Serif" font-size="10.00">ex_line</text>
</a>
</g>
</g>
<!-- Node27&#45;&gt;Node28 -->
<g id="edge39" class="edge">
<title>Node27&#45;&gt;Node28</title>
<path fill="none" stroke="midnightblue" d="M463.55,-160.24C446.27,-171.58 423.1,-186.77 408.24,-196.52"/>
<polygon fill="midnightblue" stroke="midnightblue" points="465.53,-163.13 471.97,-154.72 461.69,-157.28 465.53,-163.13"/>
</g>
<!-- Node29 -->
<g id="node29" class="node">
<title>Node29</title>
<g id="a_node29"><a xlink:href="ex_8c.html#ab15ebfef933256d9741128e2ddf3f9b5" target="_top" xlink:title=" ">
<polygon fill="white" stroke="black" points="270,-234.69 270,-253.69 323,-253.69 323,-234.69 270,-234.69"/>
<text text-anchor="middle" x="296.5" y="-241.69" font-family="Helvetica,sans-Serif" font-size="10.00">ex_exec</text>
</a>
</g>
</g>
<!-- Node28&#45;&gt;Node29 -->
<g id="edge40" class="edge">
<title>Node28&#45;&gt;Node29</title>
<path fill="none" stroke="midnightblue" d="M359.11,-219.28C346.6,-224.34 332.55,-230.02 321.03,-234.68"/>
<polygon fill="midnightblue" stroke="midnightblue" points="360.79,-222.38 368.75,-215.39 358.16,-215.89 360.79,-222.38"/>
</g>
<!-- Node30 -->
<g id="node30" class="node">
<title>Node30</title>
<g id="a_node30"><a xlink:href="ex_8c.html#a70c571bdde329a65e216c19b4aeaa628" target="_top" xlink:title=" ">
<polygon fill="white" stroke="black" points="167.5,-215.69 167.5,-234.69 217.5,-234.69 217.5,-215.69 167.5,-215.69"/>
<text text-anchor="middle" x="192.5" y="-222.69" font-family="Helvetica,sans-Serif" font-size="10.00">ec_glob</text>
</a>
</g>
</g>
<!-- Node29&#45;&gt;Node30 -->
<g id="edge41" class="edge">
<title>Node29&#45;&gt;Node30</title>
<path fill="none" stroke="midnightblue" d="M259.58,-237.5C245.76,-234.92 230.31,-232.04 217.83,-229.72"/>
<polygon fill="midnightblue" stroke="midnightblue" points="259.29,-241 269.76,-239.39 260.57,-234.12 259.29,-241"/>
</g>
<!-- Node31 -->
<g id="node31" class="node">
<title>Node31</title>
<g id="a_node31"><a xlink:href="vi_8h.html#aa75c73cccb4878ec06ea5bf5b1b02295" target="_top" xlink:title=" ">
<polygon fill="white" stroke="black" points="155,-315.69 155,-334.69 230,-334.69 230,-315.69 155,-315.69"/>
<text text-anchor="middle" x="192.5" y="-322.69" font-family="Helvetica,sans-Serif" font-size="10.00">ex_command</text>
</a>
</g>
</g>
<!-- Node29&#45;&gt;Node31 -->
<g id="edge43" class="edge">
<title>Node29&#45;&gt;Node31</title>
<path fill="none" stroke="midnightblue" d="M275.5,-260.07C254.71,-276.58 222.83,-301.9 205.59,-315.59"/>
<polygon fill="midnightblue" stroke="midnightblue" points="277.74,-262.76 283.4,-253.8 273.39,-257.28 277.74,-262.76"/>
</g>
<!-- Node30&#45;&gt;Node28 -->
<g id="edge42" class="edge">
<title>Node30&#45;&gt;Node28</title>
<path fill="none" stroke="midnightblue" d="M227.99,-221.88C268.42,-218 334.29,-211.68 368.79,-208.37"/>
<polygon fill="midnightblue" stroke="midnightblue" points="227.42,-218.42 217.8,-222.86 228.09,-225.39 227.42,-218.42"/>
</g>
<!-- Node31&#45;&gt;Node7 -->
<g id="edge47" class="edge">
<title>Node31&#45;&gt;Node7</title>
<path fill="none" stroke="midnightblue" d="M179.17,-343.54C171.48,-355.58 161.78,-371.87 155,-387.19 126.41,-451.77 106.03,-534.89 99.63,-562.67"/>
<polygon fill="midnightblue" stroke="midnightblue" points="182.28,-345.19 184.82,-334.9 176.42,-341.36 182.28,-345.19"/>
</g>
<!-- Node31&#45;&gt;Node15 -->
<g id="edge44" class="edge">
<title>Node31&#45;&gt;Node15</title>
<path fill="none" stroke="midnightblue" d="M158.07,-338.7C141.85,-345.26 123.28,-352.77 111.02,-357.72"/>
<polygon fill="midnightblue" stroke="midnightblue" points="159.82,-341.77 167.78,-334.78 157.2,-335.28 159.82,-341.77"/>
</g>
<!-- Node32 -->
<g id="node32" class="node">
<title>Node32</title>
<g id="a_node32"><a xlink:href="vi_8h.html#abe53b5c10f94f20cd5ed024371615fa1" target="_top" xlink:title=" ">
<polygon fill="white" stroke="black" points="74,-315.69 74,-334.69 119,-334.69 119,-315.69 74,-315.69"/>
<text text-anchor="middle" x="96.5" y="-322.69" font-family="Helvetica,sans-Serif" font-size="10.00">ex_init</text>
</a>
</g>
</g>
<!-- Node31&#45;&gt;Node32 -->
<g id="edge45" class="edge">
<title>Node31&#45;&gt;Node32</title>
<path fill="none" stroke="midnightblue" d="M144.85,-325.19C135.89,-325.19 126.91,-325.19 119.21,-325.19"/>
<polygon fill="midnightblue" stroke="midnightblue" points="144.89,-328.69 154.89,-325.19 144.89,-321.69 144.89,-328.69"/>
</g>
<!-- Node32&#45;&gt;Node8 -->
<g id="edge46" class="edge">
<title>Node32&#45;&gt;Node8</title>
<path fill="none" stroke="midnightblue" d="M67.4,-339.33C57.57,-344.28 46.79,-349.7 38.01,-354.13"/>
<polygon fill="midnightblue" stroke="midnightblue" points="69.09,-342.4 76.45,-334.78 65.94,-336.15 69.09,-342.4"/>
</g>
<!-- Node37 -->
<g id="node37" class="node">
<title>Node37</title>
<g id="a_node37"><a xlink:href="ex_8c.html#affb8197a8f988443aadf1bf2800a0d0b" target="_top" xlink:title=" ">
<polygon fill="white" stroke="black" points="576.5,-429.69 576.5,-448.69 623.5,-448.69 623.5,-429.69 576.5,-429.69"/>
<text text-anchor="middle" x="600" y="-436.69" font-family="Helvetica,sans-Serif" font-size="10.00">ec_null</text>
</a>
</g>
</g>
<!-- Node36&#45;&gt;Node37 -->
<g id="edge52" class="edge">
<title>Node36&#45;&gt;Node37</title>
<path fill="none" stroke="midnightblue" d="M675.23,-439.19C658.4,-439.19 638.67,-439.19 623.78,-439.19"/>
<polygon fill="midnightblue" stroke="midnightblue" points="675.27,-442.69 685.27,-439.19 675.27,-435.69 675.27,-442.69"/>
</g>
<!-- Node39 -->
<g id="node39" class="node">
<title>Node39</title>
<g id="a_node39"><a xlink:href="ex_8c.html#ab0cb848a971a3b2c09fcb456d887dd6b" target="_top" xlink:title=" ">
<polygon fill="white" stroke="black" points="553,-125.69 553,-144.69 647,-144.69 647,-125.69 553,-125.69"/>
<text text-anchor="middle" x="600" y="-132.69" font-family="Helvetica,sans-Serif" font-size="10.00">ex_modifiedbuffer</text>
</a>
</g>
</g>
<!-- Node38&#45;&gt;Node39 -->
<g id="edge54" class="edge">
<title>Node38&#45;&gt;Node39</title>
<path fill="none" stroke="midnightblue" d="M691.16,-194.9C676.02,-181.95 655.88,-165.07 647,-159.19 639.04,-153.91 629.79,-148.89 621.67,-144.82"/>
<polygon fill="midnightblue" stroke="midnightblue" points="689.08,-197.73 698.95,-201.59 693.64,-192.42 689.08,-197.73"/>
</g>
<!-- Node39&#45;&gt;Node27 -->
<g id="edge57" class="edge">
<title>Node39&#45;&gt;Node27</title>
<path fill="none" stroke="midnightblue" d="M542.76,-140.28C532.7,-141.19 522.69,-142.09 514.06,-142.88"/>
<polygon fill="midnightblue" stroke="midnightblue" points="543.13,-143.76 552.78,-139.37 542.5,-136.79 543.13,-143.76"/>
</g>
<!-- Node39&#45;&gt;Node35 -->
<g id="edge58" class="edge">
<title>Node39&#45;&gt;Node35</title>
<path fill="none" stroke="midnightblue" d="M582.78,-152.53C566.35,-170.01 540.14,-197.7 517,-221.19 510.87,-227.41 503.87,-234.29 498.34,-239.68"/>
<polygon fill="midnightblue" stroke="midnightblue" points="585.71,-154.52 590,-144.83 580.61,-149.73 585.71,-154.52"/>
</g>
<!-- Node40 -->
<g id="node40" class="node">
<title>Node40</title>
<g id="a_node40"><a xlink:href="ex_8c.html#a8059390ad69866fa8e14bdb2521d4dc2" target="_top" xlink:title=" ">
<polygon fill="white" stroke="black" points="463.5,-73.69 463.5,-92.69 511.5,-92.69 511.5,-73.69 463.5,-73.69"/>
<text text-anchor="middle" x="487.5" y="-80.69" font-family="Helvetica,sans-Serif" font-size="10.00">ec_edit</text>
</a>
</g>
</g>
<!-- Node39&#45;&gt;Node40 -->
<g id="edge55" class="edge">
<title>Node39&#45;&gt;Node40</title>
<path fill="none" stroke="midnightblue" d="M569.56,-121.34C550.46,-112.34 526.03,-100.85 509.01,-92.84"/>
<polygon fill="midnightblue" stroke="midnightblue" points="568.19,-124.56 578.73,-125.65 571.17,-118.23 568.19,-124.56"/>
</g>
<!-- Node41 -->
<g id="node41" class="node">
<title>Node41</title>
<g id="a_node41"><a xlink:href="ex_8c.html#a87eef446de152fad41ce88a9a343b87d" target="_top" xlink:title=" ">
<polygon fill="white" stroke="black" points="463.5,-192.69 463.5,-211.69 511.5,-211.69 511.5,-192.69 463.5,-192.69"/>
<text text-anchor="middle" x="487.5" y="-199.69" font-family="Helvetica,sans-Serif" font-size="10.00">ec_quit</text>
</a>
</g>
</g>
<!-- Node39&#45;&gt;Node41 -->
<g id="edge59" class="edge">
<title>Node39&#45;&gt;Node41</title>
<path fill="none" stroke="midnightblue" d="M574.61,-149.98C553.19,-162.96 522.67,-181.47 504.3,-192.61"/>
<polygon fill="midnightblue" stroke="midnightblue" points="576.43,-152.97 583.17,-144.79 572.8,-146.98 576.43,-152.97"/>
</g>
<!-- Node40&#45;&gt;Node32 -->
<g id="edge56" class="edge">
<title>Node40&#45;&gt;Node32</title>
<path fill="none" stroke="midnightblue" d="M453.28,-87.21C388.33,-96.69 243.19,-125.99 155,-206.19 120.88,-237.22 104.89,-292.88 99.6,-315.37"/>
<polygon fill="midnightblue" stroke="midnightblue" points="453.94,-90.65 463.36,-85.81 452.97,-83.72 453.94,-90.65"/>
</g>
<!-- Node41&#45;&gt;Node38 -->
<g id="edge60" class="edge">
<title>Node41&#45;&gt;Node38</title>
<path fill="none" stroke="midnightblue" d="M521.77,-203.54C566.18,-205.34 643.88,-208.5 684.16,-210.14"/>
<polygon fill="midnightblue" stroke="midnightblue" points="521.64,-200.03 511.5,-203.12 521.35,-207.03 521.64,-200.03"/>
</g>
<!-- Node42&#45;&gt;Node25 -->
<g id="edge73" class="edge">
<title>Node42&#45;&gt;Node25</title>
<path fill="none" stroke="midnightblue" d="M912.91,-172.45C889.98,-208.6 839.52,-288.12 822.08,-315.61"/>
<polygon fill="midnightblue" stroke="midnightblue" points="915.95,-174.19 918.36,-163.87 910.04,-170.44 915.95,-174.19"/>
</g>
<!-- Node42&#45;&gt;Node38 -->
<g id="edge65" class="edge">
<title>Node42&#45;&gt;Node38</title>
<path fill="none" stroke="midnightblue" d="M898.51,-168.64C885.74,-175.19 869.93,-182.49 855,-187.19 815.02,-199.77 766.55,-206.14 737.55,-209.05"/>
<polygon fill="midnightblue" stroke="midnightblue" points="900.4,-171.6 907.62,-163.84 897.14,-165.41 900.4,-171.6"/>
</g>
<!-- Node42&#45;&gt;Node39 -->
<g id="edge72" class="edge">
<title>Node42&#45;&gt;Node39</title>
<path fill="none" stroke="midnightblue" d="M887.36,-155.31C857.09,-155.95 813.25,-156.27 775,-154.19 731.46,-151.82 682.06,-146.14 647.05,-141.6"/>
<polygon fill="midnightblue" stroke="midnightblue" points="887.55,-158.81 897.47,-155.07 887.39,-151.81 887.55,-158.81"/>
</g>
<!-- Node42&#45;&gt;Node40 -->
<g id="edge62" class="edge">
<title>Node42&#45;&gt;Node40</title>
<path fill="none" stroke="midnightblue" d="M918.3,-135.04C908.84,-108.84 888.3,-62.13 855,-36.19 812.62,-3.17 792.18,-9.82 739,-2.19 645.8,11.19 540.39,-49.41 502.77,-73.59"/>
<polygon fill="midnightblue" stroke="midnightblue" points="915.02,-136.27 921.58,-144.59 921.64,-134 915.02,-136.27"/>
</g>
<!-- Node43 -->
<g id="node43" class="node">
<title>Node43</title>
<g id="a_node43"><a xlink:href="ex_8c.html#add0e79e1f1e3d45f4eaa6fbe5c1ca443" target="_top" xlink:title=" ">
<polygon fill="white" stroke="black" points="685.5,-11.69 685.5,-30.69 736.5,-30.69 736.5,-11.69 685.5,-11.69"/>
<text text-anchor="middle" x="711" y="-18.69" font-family="Helvetica,sans-Serif" font-size="10.00">ec_read</text>
</a>
</g>
</g>
<!-- Node42&#45;&gt;Node43 -->
<g id="edge63" class="edge">
<title>Node42&#45;&gt;Node43</title>
<path fill="none" stroke="midnightblue" d="M911.7,-136.02C898.98,-119.1 878.08,-94.14 855,-78.19 817.51,-52.28 766.53,-35.6 736.65,-27.35"/>
<polygon fill="midnightblue" stroke="midnightblue" points="909.16,-138.48 917.89,-144.49 914.82,-134.35 909.16,-138.48"/>
</g>
<!-- Node44 -->
<g id="node44" class="node">
<title>Node44</title>
<g id="a_node44"><a xlink:href="ex_8c.html#a98764f0b4faf5fd4b8baff03a7d73a6e" target="_top" xlink:title=" ">
<polygon fill="white" stroke="black" points="792,-87.69 792,-106.69 838,-106.69 838,-87.69 792,-87.69"/>
<text text-anchor="middle" x="815" y="-94.69" font-family="Helvetica,sans-Serif" font-size="10.00">ec_set</text>
</a>
</g>
</g>
<!-- Node42&#45;&gt;Node44 -->
<g id="edge64" class="edge">
<title>Node42&#45;&gt;Node44</title>
<path fill="none" stroke="midnightblue" d="M898.61,-139.66C885.6,-132.45 869.55,-123.71 855,-116.19 848.98,-113.08 842.37,-109.81 836.33,-106.87"/>
<polygon fill="midnightblue" stroke="midnightblue" points="897.04,-142.79 907.48,-144.59 900.45,-136.67 897.04,-142.79"/>
</g>
<!-- Node45 -->
<g id="node45" class="node">
<title>Node45</title>
<g id="a_node45"><a xlink:href="ex_8c.html#a2b8907dfb6e95eb16e8a0f1ce0fe5bb6" target="_top" xlink:title=" ">
<polygon fill="white" stroke="black" points="785.5,-125.69 785.5,-144.69 844.5,-144.69 844.5,-125.69 785.5,-125.69"/>
<text text-anchor="middle" x="815" y="-132.69" font-family="Helvetica,sans-Serif" font-size="10.00">ex_filearg</text>
</a>
</g>
</g>
<!-- Node42&#45;&gt;Node45 -->
<g id="edge66" class="edge">
<title>Node42&#45;&gt;Node45</title>
<path fill="none" stroke="midnightblue" d="M887.15,-147.65C873.23,-145.21 857.66,-142.48 844.65,-140.21"/>
<polygon fill="midnightblue" stroke="midnightblue" points="886.95,-151.17 897.4,-149.44 888.15,-144.27 886.95,-151.17"/>
</g>
<!-- Node45&#45;&gt;Node27 -->
<g id="edge68" class="edge">
<title>Node45&#45;&gt;Node27</title>
<path fill="none" stroke="midnightblue" d="M775.45,-125.67C724.1,-114.51 630.72,-99.52 553,-116.19 535.59,-119.92 517.21,-128.73 504.55,-135.67"/>
<polygon fill="midnightblue" stroke="midnightblue" points="774.92,-129.14 785.44,-127.91 776.45,-122.31 774.92,-129.14"/>
</g>
<!-- Node45&#45;&gt;Node35 -->
<g id="edge69" class="edge">
<title>Node45&#45;&gt;Node35</title>
<path fill="none" stroke="midnightblue" d="M777.23,-148.07C711.26,-171.17 574.26,-219.15 515.84,-239.61"/>
<polygon fill="midnightblue" stroke="midnightblue" points="778.53,-151.32 786.81,-144.71 776.21,-144.71 778.53,-151.32"/>
</g>
<!-- Node45&#45;&gt;Node38 -->
<g id="edge71" class="edge">
<title>Node45&#45;&gt;Node38</title>
<path fill="none" stroke="midnightblue" d="M792.97,-150.86C772.46,-166.14 741.93,-188.89 724.81,-201.64"/>
<polygon fill="midnightblue" stroke="midnightblue" points="795.15,-153.6 801.08,-144.81 790.97,-147.98 795.15,-153.6"/>
</g>
<!-- Node45&#45;&gt;Node40 -->
<g id="edge67" class="edge">
<title>Node45&#45;&gt;Node40</title>
<path fill="none" stroke="midnightblue" d="M782.24,-121.8C769.08,-116.77 753.52,-111.47 739,-108.19 656.73,-89.57 556.13,-84.82 511.6,-83.6"/>
<polygon fill="midnightblue" stroke="midnightblue" points="781.2,-125.15 791.79,-125.56 783.77,-118.64 781.2,-125.15"/>
</g>
<!-- Node45&#45;&gt;Node43 -->
<g id="edge70" class="edge">
<title>Node45&#45;&gt;Node43</title>
<path fill="none" stroke="midnightblue" d="M779.55,-120.1C777.94,-118.88 776.41,-117.58 775,-116.19 749.78,-91.37 760.6,-73.21 739,-45.19 734.94,-39.92 729.61,-34.9 724.77,-30.83"/>
<polygon fill="midnightblue" stroke="midnightblue" points="777.79,-123.12 788.1,-125.53 781.54,-117.21 777.79,-123.12"/>
</g>
<!-- Node46&#45;&gt;Node7 -->
<g id="edge76" class="edge">
<title>Node46&#45;&gt;Node7</title>
<path fill="none" stroke="midnightblue" d="M882.79,-541.27C873.66,-538.81 864.03,-536.32 855,-534.19 778.3,-516.1 219.83,-375.4 155,-420.19 106.25,-453.87 98.79,-534.57 97.68,-562.49"/>
<polygon fill="midnightblue" stroke="midnightblue" points="881.87,-544.65 892.44,-543.92 883.72,-537.9 881.87,-544.65"/>
</g>
<!-- Node46&#45;&gt;Node21 -->
<g id="edge77" class="edge">
<title>Node46&#45;&gt;Node21</title>
<path fill="none" stroke="midnightblue" d="M908.18,-570.34C885.08,-594.6 843.62,-638.16 825.23,-657.49"/>
<polygon fill="midnightblue" stroke="midnightblue" points="910.89,-572.56 915.25,-562.91 905.82,-567.74 910.89,-572.56"/>
</g>
<!-- Node46&#45;&gt;Node22 -->
<g id="edge78" class="edge">
<title>Node46&#45;&gt;Node22</title>
<path fill="none" stroke="midnightblue" d="M882.11,-553.19C873.26,-553.19 863.97,-553.19 855.23,-553.19"/>
<polygon fill="midnightblue" stroke="midnightblue" points="882.24,-556.69 892.24,-553.19 882.24,-549.69 882.24,-556.69"/>
</g>
<!-- Node48 -->
<g id="node48" class="node">
<title>Node48</title>
<g id="a_node48"><a xlink:href="vi_8c.html#aa59b6f8d6056ad376a3a5ec45ce1686b" target="_top" xlink:title=" ">
<polygon fill="white" stroke="black" points="891,-657.69 891,-676.69 960,-676.69 960,-657.69 891,-657.69"/>
<text text-anchor="middle" x="925.5" y="-664.69" font-family="Helvetica,sans-Serif" font-size="10.00">vi_drawmsg</text>
</a>
</g>
</g>
<!-- Node47&#45;&gt;Node48 -->
<g id="edge80" class="edge">
<title>Node47&#45;&gt;Node48</title>
<path fill="none" stroke="midnightblue" d="M1011.99,-607.84C998.05,-619.7 978.41,-635.69 960,-648.19 955.13,-651.49 949.65,-654.77 944.56,-657.65"/>
<polygon fill="midnightblue" stroke="midnightblue" points="1014.58,-610.23 1019.87,-601.06 1010.01,-604.93 1014.58,-610.23"/>
</g>
<!-- Node48&#45;&gt;Node7 -->
<g id="edge81" class="edge">
<title>Node48&#45;&gt;Node7</title>
<path fill="none" stroke="midnightblue" d="M912.05,-685.03C882.43,-725.19 803.32,-819.19 712,-819.19 712,-819.19 712,-819.19 295.5,-819.19 228.92,-819.19 200.46,-815.84 155,-767.19 103.43,-712 97.9,-612.82 97.47,-581.76"/>
<polygon fill="midnightblue" stroke="midnightblue" points="915.05,-686.86 918.06,-676.7 909.37,-682.76 915.05,-686.86"/>
</g>
<!-- Node48&#45;&gt;Node21 -->
<g id="edge82" class="edge">
<title>Node48&#45;&gt;Node21</title>
<path fill="none" stroke="midnightblue" d="M880.76,-667.19C871.33,-667.19 861.46,-667.19 852.35,-667.19"/>
<polygon fill="midnightblue" stroke="midnightblue" points="880.76,-670.69 890.76,-667.19 880.76,-663.69 880.76,-670.69"/>
</g>
<!-- Node48&#45;&gt;Node22 -->
<g id="edge83" class="edge">
<title>Node48&#45;&gt;Node22</title>
<path fill="none" stroke="midnightblue" d="M894.38,-651.44C893.19,-650.4 892.05,-649.32 891,-648.19 865.56,-620.81 881.28,-598.76 855,-572.19 851.29,-568.44 846.7,-565.32 841.98,-562.77"/>
<polygon fill="midnightblue" stroke="midnightblue" points="892.72,-654.55 902.89,-657.53 896.8,-648.86 892.72,-654.55"/>
</g>
</g>
</svg>
