<?xml version="1.0" encoding="UTF-8" standalone="no"?>
<!DOCTYPE svg PUBLIC "-//W3C//DTD SVG 1.1//EN"
 "http://www.w3.org/Graphics/SVG/1.1/DTD/svg11.dtd">
<!-- Generated by graphviz version 2.44.1 (20200629.0846)
 -->
<!-- Title: led_prompt Pages: 1 -->
<svg width="595pt" height="218pt"
 viewBox="0.00 0.00 595.00 218.00" xmlns="http://www.w3.org/2000/svg" xmlns:xlink="http://www.w3.org/1999/xlink">
<g id="graph0" class="graph" transform="scale(1 1) rotate(0) translate(4 214)">
<title>led_prompt</title>
<polygon fill="white" stroke="transparent" points="-4,4 -4,-214 591,-214 591,4 -4,4"/>
<!-- Node1 -->
<g id="node1" class="node">
<title>Node1</title>
<g id="a_node1"><a xlink:title=" ">
<polygon fill="#bfbfbf" stroke="black" points="522,-85.5 522,-104.5 587,-104.5 587,-85.5 522,-85.5"/>
<text text-anchor="middle" x="554.5" y="-92.5" font-family="Helvetica,sans-Serif" font-size="10.00">led_prompt</text>
</a>
</g>
</g>
<!-- Node2 -->
<g id="node2" class="node">
<title>Node2</title>
<g id="a_node2"><a xlink:href="vi_8h.html#a7ba56272fe1a7d523192729a0bb5edf7" target="_top" xlink:title=" ">
<polygon fill="white" stroke="black" points="241,-137.5 241,-156.5 292,-156.5 292,-137.5 241,-137.5"/>
<text text-anchor="middle" x="266.5" y="-144.5" font-family="Helvetica,sans-Serif" font-size="10.00">ex_read</text>
</a>
</g>
</g>
<!-- Node1&#45;&gt;Node2 -->
<g id="edge1" class="edge">
<title>Node1&#45;&gt;Node2</title>
<path fill="none" stroke="midnightblue" d="M511.83,-102.58C451.41,-113.56 341.35,-133.57 292.27,-142.5"/>
<polygon fill="midnightblue" stroke="midnightblue" points="512.59,-106 521.8,-100.76 511.34,-99.11 512.59,-106"/>
</g>
<!-- Node8 -->
<g id="node8" class="node">
<title>Node8</title>
<g id="a_node8"><a xlink:href="vi_8c.html#a57965473297aad4c4333fdd3897c11f3" target="_top" xlink:title=" ">
<polygon fill="white" stroke="black" points="427,-66.5 427,-85.5 486,-85.5 486,-66.5 427,-66.5"/>
<text text-anchor="middle" x="456.5" y="-73.5" font-family="Helvetica,sans-Serif" font-size="10.00">vi_prompt</text>
</a>
</g>
</g>
<!-- Node1&#45;&gt;Node8 -->
<g id="edge8" class="edge">
<title>Node1&#45;&gt;Node8</title>
<path fill="none" stroke="midnightblue" d="M511.86,-86.76C503.22,-85.05 494.3,-83.28 486.25,-81.69"/>
<polygon fill="midnightblue" stroke="midnightblue" points="511.31,-90.22 521.8,-88.73 512.67,-83.35 511.31,-90.22"/>
</g>
<!-- Node3 -->
<g id="node3" class="node">
<title>Node3</title>
<g id="a_node3"><a xlink:href="ex_8c.html#a0908784dc65be2da119a6b72ef96dec2" target="_top" xlink:title=" ">
<polygon fill="white" stroke="black" points="142,-190.5 142,-209.5 198,-209.5 198,-190.5 142,-190.5"/>
<text text-anchor="middle" x="170" y="-197.5" font-family="Helvetica,sans-Serif" font-size="10.00">ec_insert</text>
</a>
</g>
</g>
<!-- Node2&#45;&gt;Node3 -->
<g id="edge2" class="edge">
<title>Node2&#45;&gt;Node3</title>
<path fill="none" stroke="midnightblue" d="M239.14,-161.78C222.86,-170.91 202.44,-182.36 188.22,-190.34"/>
<polygon fill="midnightblue" stroke="midnightblue" points="241.16,-164.67 248.17,-156.72 237.73,-158.56 241.16,-164.67"/>
</g>
<!-- Node4 -->
<g id="node4" class="node">
<title>Node4</title>
<g id="a_node4"><a xlink:href="vi_8h.html#ac395e51f25330a6e6033b6d0d22b2076" target="_top" xlink:title=" ">
<polygon fill="white" stroke="black" points="74,-133.5 74,-152.5 103,-152.5 103,-133.5 74,-133.5"/>
<text text-anchor="middle" x="88.5" y="-140.5" font-family="Helvetica,sans-Serif" font-size="10.00">ex</text>
</a>
</g>
</g>
<!-- Node2&#45;&gt;Node4 -->
<g id="edge3" class="edge">
<title>Node2&#45;&gt;Node4</title>
<path fill="none" stroke="midnightblue" d="M230.51,-146.2C191.4,-145.32 130.05,-143.92 103.04,-143.31"/>
<polygon fill="midnightblue" stroke="midnightblue" points="230.58,-149.71 240.66,-146.44 230.74,-142.71 230.58,-149.71"/>
</g>
<!-- Node6 -->
<g id="node6" class="node">
<title>Node6</title>
<g id="a_node6"><a xlink:href="vi_8c.html#a9d85e9ed087401367529ab86a5dbf0c5" target="_top" xlink:title=" ">
<polygon fill="white" stroke="black" points="146.5,-114.5 146.5,-133.5 193.5,-133.5 193.5,-114.5 146.5,-114.5"/>
<text text-anchor="middle" x="170" y="-121.5" font-family="Helvetica,sans-Serif" font-size="10.00">vi_wait</text>
</a>
</g>
</g>
<!-- Node2&#45;&gt;Node6 -->
<g id="edge5" class="edge">
<title>Node2&#45;&gt;Node6</title>
<path fill="none" stroke="midnightblue" d="M230.68,-138.52C218.34,-135.52 204.79,-132.22 193.72,-129.53"/>
<polygon fill="midnightblue" stroke="midnightblue" points="230.13,-141.99 240.67,-140.96 231.78,-135.19 230.13,-141.99"/>
</g>
<!-- Node5 -->
<g id="node5" class="node">
<title>Node5</title>
<g id="a_node5"><a xlink:href="vi_8c.html#a0ddf1224851353fc92bfbff6f499fa97" target="_top" xlink:title=" ">
<polygon fill="white" stroke="black" points="0,-95.5 0,-114.5 38,-114.5 38,-95.5 0,-95.5"/>
<text text-anchor="middle" x="19" y="-102.5" font-family="Helvetica,sans-Serif" font-size="10.00">main</text>
</a>
</g>
</g>
<!-- Node4&#45;&gt;Node5 -->
<g id="edge4" class="edge">
<title>Node4&#45;&gt;Node5</title>
<path fill="none" stroke="midnightblue" d="M64.91,-130.28C55.8,-125.15 45.45,-119.33 36.99,-114.57"/>
<polygon fill="midnightblue" stroke="midnightblue" points="63.41,-133.45 73.84,-135.31 66.84,-127.35 63.41,-133.45"/>
</g>
<!-- Node7 -->
<g id="node7" class="node">
<title>Node7</title>
<g id="a_node7"><a xlink:href="vi_8c.html#a8d808e0f3453afe6600673ee1ea5f828" target="_top" xlink:title=" ">
<polygon fill="white" stroke="black" points="74,-76.5 74,-95.5 103,-95.5 103,-76.5 74,-76.5"/>
<text text-anchor="middle" x="88.5" y="-83.5" font-family="Helvetica,sans-Serif" font-size="10.00">vi</text>
</a>
</g>
</g>
<!-- Node6&#45;&gt;Node7 -->
<g id="edge6" class="edge">
<title>Node6&#45;&gt;Node7</title>
<path fill="none" stroke="midnightblue" d="M139.72,-110C127.16,-104 113.1,-97.28 103.05,-92.48"/>
<polygon fill="midnightblue" stroke="midnightblue" points="138.41,-113.26 148.94,-114.41 141.43,-106.94 138.41,-113.26"/>
</g>
<!-- Node7&#45;&gt;Node5 -->
<g id="edge7" class="edge">
<title>Node7&#45;&gt;Node5</title>
<path fill="none" stroke="midnightblue" d="M64.14,-92.57C55.67,-94.96 46.22,-97.62 38.25,-99.86"/>
<polygon fill="midnightblue" stroke="midnightblue" points="65.16,-95.92 73.84,-89.84 63.27,-89.19 65.16,-95.92"/>
</g>
<!-- Node8&#45;&gt;Node7 -->
<g id="edge9" class="edge">
<title>Node8&#45;&gt;Node7</title>
<path fill="none" stroke="midnightblue" d="M416.57,-77.06C336.07,-79.26 154.53,-84.22 103.23,-85.62"/>
<polygon fill="midnightblue" stroke="midnightblue" points="416.88,-80.56 426.78,-76.78 416.69,-73.56 416.88,-80.56"/>
</g>
<!-- Node9 -->
<g id="node9" class="node">
<title>Node9</title>
<g id="a_node9"><a xlink:href="vi_8c.html#ab8e0c9b9d2ef5161c6a3a8828606df5f" target="_top" xlink:title=" ">
<polygon fill="white" stroke="black" points="338,-38.5 338,-57.5 385,-57.5 385,-38.5 338,-38.5"/>
<text text-anchor="middle" x="361.5" y="-45.5" font-family="Helvetica,sans-Serif" font-size="10.00">vi_pipe</text>
</a>
</g>
</g>
<!-- Node8&#45;&gt;Node9 -->
<g id="edge10" class="edge">
<title>Node8&#45;&gt;Node9</title>
<path fill="none" stroke="midnightblue" d="M417.07,-64.43C406.16,-61.15 394.65,-57.68 385.02,-54.78"/>
<polygon fill="midnightblue" stroke="midnightblue" points="416.25,-67.84 426.84,-67.37 418.27,-61.14 416.25,-67.84"/>
</g>
<!-- Node11 -->
<g id="node11" class="node">
<title>Node11</title>
<g id="a_node11"><a xlink:href="vi_8c.html#a93701c59617d4f96cbaa207e89178f87" target="_top" xlink:title=" ">
<polygon fill="white" stroke="black" points="332,-0.5 332,-19.5 391,-19.5 391,-0.5 332,-0.5"/>
<text text-anchor="middle" x="361.5" y="-7.5" font-family="Helvetica,sans-Serif" font-size="10.00">vi_search</text>
</a>
</g>
</g>
<!-- Node8&#45;&gt;Node11 -->
<g id="edge13" class="edge">
<title>Node8&#45;&gt;Node11</title>
<path fill="none" stroke="midnightblue" d="M434.38,-60.27C421.86,-51.03 405.63,-39.2 391,-29 386.51,-25.87 381.57,-22.54 377.08,-19.55"/>
<polygon fill="midnightblue" stroke="midnightblue" points="432.64,-63.34 442.76,-66.48 436.81,-57.71 432.64,-63.34"/>
</g>
<!-- Node10 -->
<g id="node10" class="node">
<title>Node10</title>
<g id="a_node10"><a xlink:href="vi_8c.html#a06cbc6eb843436a0e77e07cbab0c4538" target="_top" xlink:title=" ">
<polygon fill="white" stroke="black" points="139,-38.5 139,-57.5 201,-57.5 201,-38.5 139,-38.5"/>
<text text-anchor="middle" x="170" y="-45.5" font-family="Helvetica,sans-Serif" font-size="10.00">vc_motion</text>
</a>
</g>
</g>
<!-- Node9&#45;&gt;Node10 -->
<g id="edge11" class="edge">
<title>Node9&#45;&gt;Node10</title>
<path fill="none" stroke="midnightblue" d="M327.28,-48C291.64,-48 235.52,-48 201.12,-48"/>
<polygon fill="midnightblue" stroke="midnightblue" points="327.64,-51.5 337.64,-48 327.64,-44.5 327.64,-51.5"/>
</g>
<!-- Node10&#45;&gt;Node7 -->
<g id="edge12" class="edge">
<title>Node10&#45;&gt;Node7</title>
<path fill="none" stroke="midnightblue" d="M139.72,-62C127.16,-68 113.1,-74.72 103.05,-79.52"/>
<polygon fill="midnightblue" stroke="midnightblue" points="141.43,-65.06 148.94,-57.59 138.41,-58.74 141.43,-65.06"/>
</g>
<!-- Node12 -->
<g id="node12" class="node">
<title>Node12</title>
<g id="a_node12"><a xlink:href="vi_8c.html#aaa4777ea0715ea846346d0f27a0cfa3f" target="_top" xlink:title=" ">
<polygon fill="white" stroke="black" points="237,-0.5 237,-19.5 296,-19.5 296,-0.5 237,-0.5"/>
<text text-anchor="middle" x="266.5" y="-7.5" font-family="Helvetica,sans-Serif" font-size="10.00">vi_motion</text>
</a>
</g>
</g>
<!-- Node11&#45;&gt;Node12 -->
<g id="edge14" class="edge">
<title>Node11&#45;&gt;Node12</title>
<path fill="none" stroke="midnightblue" d="M321.69,-10C313.16,-10 304.28,-10 296.23,-10"/>
<polygon fill="midnightblue" stroke="midnightblue" points="321.84,-13.5 331.84,-10 321.84,-6.5 321.84,-13.5"/>
</g>
<!-- Node12&#45;&gt;Node7 -->
<g id="edge16" class="edge">
<title>Node12&#45;&gt;Node7</title>
<path fill="none" stroke="midnightblue" d="M226.51,-8.99C200.29,-9.9 165.77,-14.29 139,-29 118.55,-40.23 102.61,-63.4 94.79,-76.48"/>
<polygon fill="midnightblue" stroke="midnightblue" points="226.9,-12.48 236.83,-8.79 226.77,-5.49 226.9,-12.48"/>
</g>
<!-- Node12&#45;&gt;Node10 -->
<g id="edge15" class="edge">
<title>Node12&#45;&gt;Node10</title>
<path fill="none" stroke="midnightblue" d="M232.15,-23.41C219.84,-28.36 206.14,-33.87 194.84,-38.41"/>
<polygon fill="midnightblue" stroke="midnightblue" points="233.68,-26.57 241.65,-19.59 231.07,-20.07 233.68,-26.57"/>
</g>
</g>
</svg>
