<?xml version="1.0" encoding="UTF-8" standalone="no"?>
<!DOCTYPE svg PUBLIC "-//W3C//DTD SVG 1.1//EN"
 "http://www.w3.org/Graphics/SVG/1.1/DTD/svg11.dtd">
<!-- Generated by graphviz version 2.44.1 (20200629.0846)
 -->
<!-- Title: lbuf_search Pages: 1 -->
<svg width="929pt" height="846pt"
 viewBox="0.00 0.00 929.00 846.33" xmlns="http://www.w3.org/2000/svg" xmlns:xlink="http://www.w3.org/1999/xlink">
<g id="graph0" class="graph" transform="scale(1 1) rotate(0) translate(4 842.33)">
<title>lbuf_search</title>
<polygon fill="white" stroke="transparent" points="-4,4 -4,-842.33 925,-842.33 925,4 -4,4"/>
<!-- Node1 -->
<g id="node1" class="node">
<title>Node1</title>
<g id="a_node1"><a xlink:title=" ">
<polygon fill="#bfbfbf" stroke="black" points="0,-171.5 0,-190.5 67,-190.5 67,-171.5 0,-171.5"/>
<text text-anchor="middle" x="33.5" y="-178.5" font-family="Helvetica,sans-Serif" font-size="10.00">lbuf_search</text>
</a>
</g>
</g>
<!-- Node2 -->
<g id="node2" class="node">
<title>Node2</title>
<g id="a_node2"><a xlink:href="lbuf_8c.html#ad0f45475ddc6eb82ecedf63ed1b914d4" target="_top" xlink:title=" ">
<polygon fill="white" stroke="black" points="108.5,-285.5 108.5,-304.5 159.5,-304.5 159.5,-285.5 108.5,-285.5"/>
<text text-anchor="middle" x="134" y="-292.5" font-family="Helvetica,sans-Serif" font-size="10.00">lbuf_get</text>
</a>
</g>
</g>
<!-- Node1&#45;&gt;Node2 -->
<g id="edge1" class="edge">
<title>Node1&#45;&gt;Node2</title>
<path fill="none" stroke="midnightblue" d="M39.71,-190.54C50,-208.76 74.43,-249.1 103,-276 104.27,-277.19 105.62,-278.35 107.02,-279.47"/>
<polygon fill="midnightblue" stroke="midnightblue" points="105.18,-282.46 115.36,-285.4 109.24,-276.76 105.18,-282.46"/>
</g>
<!-- Node3 -->
<g id="node3" class="node">
<title>Node3</title>
<g id="a_node3"><a xlink:href="lbuf_8c.html#ae74f0372b69451ac877a76505b05874f" target="_top" xlink:title=" ">
<polygon fill="white" stroke="black" points="109,-247.5 109,-266.5 159,-266.5 159,-247.5 109,-247.5"/>
<text text-anchor="middle" x="134" y="-254.5" font-family="Helvetica,sans-Serif" font-size="10.00">lbuf_len</text>
</a>
</g>
</g>
<!-- Node1&#45;&gt;Node3 -->
<g id="edge2" class="edge">
<title>Node1&#45;&gt;Node3</title>
<path fill="none" stroke="midnightblue" d="M45.3,-190.74C58.51,-202.46 81.74,-222.52 103,-238 104.64,-239.2 106.36,-240.4 108.11,-241.59"/>
<polygon fill="midnightblue" stroke="midnightblue" points="106.58,-244.77 116.86,-247.32 110.41,-238.91 106.58,-244.77"/>
</g>
<!-- Node4 -->
<g id="node4" class="node">
<title>Node4</title>
<g id="a_node4"><a xlink:href="rset_8c.html#a389ec5abca88adc048a058744f2373eb" target="_top" xlink:title=" ">
<polygon fill="white" stroke="black" points="107,-209.5 107,-228.5 161,-228.5 161,-209.5 107,-209.5"/>
<text text-anchor="middle" x="134" y="-216.5" font-family="Helvetica,sans-Serif" font-size="10.00">rset_find</text>
</a>
</g>
</g>
<!-- Node1&#45;&gt;Node4 -->
<g id="edge3" class="edge">
<title>Node1&#45;&gt;Node4</title>
<path fill="none" stroke="midnightblue" d="M59.36,-190.59C71.25,-195.18 85.69,-200.75 98.63,-205.74"/>
<polygon fill="midnightblue" stroke="midnightblue" points="97.56,-209.08 108.15,-209.41 100.08,-202.55 97.56,-209.08"/>
</g>
<!-- Node15 -->
<g id="node15" class="node">
<title>Node15</title>
<g id="a_node15"><a xlink:href="rset_8c.html#aa904e3bea523f18e4940e3a848abaaa1" target="_top" xlink:title=" ">
<polygon fill="white" stroke="black" points="106.5,-128.5 106.5,-147.5 161.5,-147.5 161.5,-128.5 106.5,-128.5"/>
<text text-anchor="middle" x="134" y="-135.5" font-family="Helvetica,sans-Serif" font-size="10.00">rset_free</text>
</a>
</g>
</g>
<!-- Node1&#45;&gt;Node15 -->
<g id="edge17" class="edge">
<title>Node1&#45;&gt;Node15</title>
<path fill="none" stroke="midnightblue" d="M56.36,-171.46C69.75,-165.61 87.1,-158.04 101.91,-151.57"/>
<polygon fill="midnightblue" stroke="midnightblue" points="103.44,-154.73 111.2,-147.52 100.64,-148.31 103.44,-154.73"/>
</g>
<!-- Node17 -->
<g id="node17" class="node">
<title>Node17</title>
<g id="a_node17"><a xlink:href="rset_8c.html#a01a879f1a8002d2fb591b604b2ca3704" target="_top" xlink:title=" ">
<polygon fill="white" stroke="black" points="103,-171.5 103,-190.5 165,-190.5 165,-171.5 103,-171.5"/>
<text text-anchor="middle" x="134" y="-178.5" font-family="Helvetica,sans-Serif" font-size="10.00">rset_make</text>
</a>
</g>
</g>
<!-- Node1&#45;&gt;Node17 -->
<g id="edge19" class="edge">
<title>Node1&#45;&gt;Node17</title>
<path fill="none" stroke="midnightblue" d="M67.03,-181C75.23,-181 84.14,-181 92.68,-181"/>
<polygon fill="midnightblue" stroke="midnightblue" points="92.84,-184.5 102.84,-181 92.84,-177.5 92.84,-184.5"/>
</g>
<!-- Node41 -->
<g id="node41" class="node">
<title>Node41</title>
<g id="a_node41"><a xlink:href="uc_8c.html#a2fecd1fc98475ece5f529da3315a9553" target="_top" xlink:title=" ">
<polygon fill="white" stroke="black" points="111,-24.5 111,-43.5 157,-43.5 157,-24.5 111,-24.5"/>
<text text-anchor="middle" x="134" y="-31.5" font-family="Helvetica,sans-Serif" font-size="10.00">uc_chr</text>
</a>
</g>
</g>
<!-- Node1&#45;&gt;Node41 -->
<g id="edge56" class="edge">
<title>Node1&#45;&gt;Node41</title>
<path fill="none" stroke="midnightblue" d="M40.03,-171.45C51.28,-152.21 77.87,-107.61 103,-72 107.8,-65.2 113.37,-57.98 118.4,-51.68"/>
<polygon fill="midnightblue" stroke="midnightblue" points="121.23,-53.75 124.81,-43.78 115.79,-49.34 121.23,-53.75"/>
</g>
<!-- Node44 -->
<g id="node44" class="node">
<title>Node44</title>
<g id="a_node44"><a xlink:href="uc_8c.html#a8334cbe4db5e54e19bf79b31f68d9eb8" target="_top" xlink:title=" ">
<polygon fill="white" stroke="black" points="112,-81.5 112,-100.5 156,-100.5 156,-81.5 112,-81.5"/>
<text text-anchor="middle" x="134" y="-88.5" font-family="Helvetica,sans-Serif" font-size="10.00">uc_off</text>
</a>
</g>
</g>
<!-- Node1&#45;&gt;Node44 -->
<g id="edge59" class="edge">
<title>Node1&#45;&gt;Node44</title>
<path fill="none" stroke="midnightblue" d="M45.04,-171.37C61.78,-156.08 94.63,-126.06 115.1,-107.35"/>
<polygon fill="midnightblue" stroke="midnightblue" points="117.51,-109.89 122.53,-100.56 112.79,-104.72 117.51,-109.89"/>
</g>
<!-- Node5 -->
<g id="node5" class="node">
<title>Node5</title>
<g id="a_node5"><a xlink:href="regex_8c.html#aa085ccd05ec25e3f8053850aebc50fe3" target="_top" xlink:title=" ">
<polygon fill="white" stroke="black" points="214.5,-646.5 214.5,-665.5 265.5,-665.5 265.5,-646.5 214.5,-646.5"/>
<text text-anchor="middle" x="240" y="-653.5" font-family="Helvetica,sans-Serif" font-size="10.00">regexec</text>
</a>
</g>
</g>
<!-- Node4&#45;&gt;Node5 -->
<g id="edge4" class="edge">
<title>Node4&#45;&gt;Node5</title>
<path fill="none" stroke="midnightblue" d="M155.38,-228.62C159.07,-231.2 162.53,-234.31 165,-238 187.64,-271.76 226.23,-557.85 236.45,-636.22"/>
<polygon fill="midnightblue" stroke="midnightblue" points="232.99,-636.75 237.75,-646.22 239.93,-635.85 232.99,-636.75"/>
</g>
<!-- Node6 -->
<g id="node6" class="node">
<title>Node6</title>
<g id="a_node6"><a xlink:href="regex_8c.html#aa5925e49bd18112bb37421dbde29162a" target="_top" xlink:title=" ">
<polygon fill="white" stroke="black" points="315,-703.5 315,-722.5 386,-722.5 386,-703.5 315,-703.5"/>
<text text-anchor="middle" x="350.5" y="-710.5" font-family="Helvetica,sans-Serif" font-size="10.00">re_recmatch</text>
</a>
</g>
</g>
<!-- Node5&#45;&gt;Node6 -->
<g id="edge5" class="edge">
<title>Node5&#45;&gt;Node6</title>
<path fill="none" stroke="midnightblue" d="M259.41,-665.67C276.66,-674.73 302.66,-688.39 322.3,-698.71"/>
<polygon fill="midnightblue" stroke="midnightblue" points="320.89,-701.92 331.37,-703.47 324.14,-695.72 320.89,-701.92"/>
</g>
<!-- Node12 -->
<g id="node12" class="node">
<title>Node12</title>
<g id="a_node12"><a xlink:href="regex_8c.html#a9a0d6d5f93f1eaba8b63b16903c0952d" target="_top" xlink:title=" ">
<polygon fill="white" stroke="black" points="775,-674.5 775,-693.5 820,-693.5 820,-674.5 775,-674.5"/>
<text text-anchor="middle" x="797.5" y="-681.5" font-family="Helvetica,sans-Serif" font-size="10.00">uc_len</text>
</a>
</g>
</g>
<!-- Node5&#45;&gt;Node12 -->
<g id="edge16" class="edge">
<title>Node5&#45;&gt;Node12</title>
<path fill="none" stroke="midnightblue" d="M265.58,-656C306.88,-656 392.81,-656 465.5,-656 465.5,-656 465.5,-656 585,-656 649.23,-656 723.49,-668.85 764.72,-677.14"/>
<polygon fill="midnightblue" stroke="midnightblue" points="764.2,-680.6 774.7,-679.19 765.61,-673.75 764.2,-680.6"/>
</g>
<!-- Node7 -->
<g id="node7" class="node">
<title>Node7</title>
<g id="a_node7"><a xlink:href="regex_8c.html#a8e35614ddf21d405773327a52a95a73d" target="_top" xlink:title=" ">
<polygon fill="white" stroke="black" points="444.5,-732.5 444.5,-751.5 488.5,-751.5 488.5,-732.5 444.5,-732.5"/>
<text text-anchor="middle" x="466.5" y="-739.5" font-family="Helvetica,sans-Serif" font-size="10.00">re_rec</text>
</a>
</g>
</g>
<!-- Node6&#45;&gt;Node7 -->
<g id="edge6" class="edge">
<title>Node6&#45;&gt;Node7</title>
<path fill="none" stroke="midnightblue" d="M386.01,-721.78C401.45,-725.71 419.52,-730.3 434.52,-734.12"/>
<polygon fill="midnightblue" stroke="midnightblue" points="433.79,-737.55 444.35,-736.62 435.52,-730.76 433.79,-737.55"/>
</g>
<!-- Node8 -->
<g id="node8" class="node">
<title>Node8</title>
<g id="a_node8"><a xlink:href="regex_8c.html#a24fd1fc7457ff4f03fb384f7170ac395" target="_top" xlink:title=" ">
<polygon fill="white" stroke="black" points="547,-741.5 547,-760.5 621,-760.5 621,-741.5 547,-741.5"/>
<text text-anchor="middle" x="584" y="-748.5" font-family="Helvetica,sans-Serif" font-size="10.00">ratom_match</text>
</a>
</g>
</g>
<!-- Node7&#45;&gt;Node8 -->
<g id="edge7" class="edge">
<title>Node7&#45;&gt;Node8</title>
<path fill="none" stroke="midnightblue" d="M488.68,-743.65C502.17,-744.7 520.17,-746.1 536.83,-747.4"/>
<polygon fill="midnightblue" stroke="midnightblue" points="536.73,-750.91 546.97,-748.19 537.28,-743.93 536.73,-750.91"/>
</g>
<!-- Node9 -->
<g id="node9" class="node">
<title>Node9</title>
<g id="a_node9"><a xlink:href="regex_8c.html#aae17ed73e84075718fb04d131d6ca779" target="_top" xlink:title=" ">
<polygon fill="white" stroke="black" points="658.5,-798.5 658.5,-817.5 720.5,-817.5 720.5,-798.5 658.5,-798.5"/>
<text text-anchor="middle" x="689.5" y="-805.5" font-family="Helvetica,sans-Serif" font-size="10.00">brk_match</text>
</a>
</g>
</g>
<!-- Node8&#45;&gt;Node9 -->
<g id="edge8" class="edge">
<title>Node8&#45;&gt;Node9</title>
<path fill="none" stroke="midnightblue" d="M602.56,-760.67C618.94,-769.69 643.59,-783.27 662.3,-793.57"/>
<polygon fill="midnightblue" stroke="midnightblue" points="660.75,-796.72 671.2,-798.47 664.13,-790.58 660.75,-796.72"/>
</g>
<!-- Node11 -->
<g id="node11" class="node">
<title>Node11</title>
<g id="a_node11"><a xlink:href="regex_8c.html#aaf73cdb88048e7f9fd588eb8d5aeb5a3" target="_top" xlink:title=" ">
<polygon fill="white" stroke="black" points="773.5,-817.5 773.5,-836.5 821.5,-836.5 821.5,-817.5 773.5,-817.5"/>
<text text-anchor="middle" x="797.5" y="-824.5" font-family="Helvetica,sans-Serif" font-size="10.00">uc_dec</text>
</a>
</g>
</g>
<!-- Node8&#45;&gt;Node11 -->
<g id="edge14" class="edge">
<title>Node8&#45;&gt;Node11</title>
<path fill="none" stroke="midnightblue" d="M590.4,-760.56C600.73,-777.73 625.11,-813.28 657,-827 690.98,-841.62 734.07,-838.79 763.31,-834.13"/>
<polygon fill="midnightblue" stroke="midnightblue" points="764.16,-837.54 773.41,-832.36 762.95,-830.64 764.16,-837.54"/>
</g>
<!-- Node8&#45;&gt;Node12 -->
<g id="edge15" class="edge">
<title>Node8&#45;&gt;Node12</title>
<path fill="none" stroke="midnightblue" d="M600.15,-741.39C614.34,-732.78 636.39,-720.42 657,-713 692.71,-700.16 735.71,-692.29 764.45,-688.05"/>
<polygon fill="midnightblue" stroke="midnightblue" points="765.3,-691.47 774.72,-686.6 764.32,-684.53 765.3,-691.47"/>
</g>
<!-- Node13 -->
<g id="node13" class="node">
<title>Node13</title>
<g id="a_node13"><a xlink:href="regex_8c.html#a35ad3fd0dbb795e6f30404ce86a7be5b" target="_top" xlink:title=" ">
<polygon fill="white" stroke="black" points="667,-760.5 667,-779.5 712,-779.5 712,-760.5 667,-760.5"/>
<text text-anchor="middle" x="689.5" y="-767.5" font-family="Helvetica,sans-Serif" font-size="10.00">isword</text>
</a>
</g>
</g>
<!-- Node8&#45;&gt;Node13 -->
<g id="edge12" class="edge">
<title>Node8&#45;&gt;Node13</title>
<path fill="none" stroke="midnightblue" d="M621.2,-757.65C632.89,-759.79 645.75,-762.15 657.07,-764.23"/>
<polygon fill="midnightblue" stroke="midnightblue" points="656.49,-767.68 666.96,-766.05 657.75,-760.8 656.49,-767.68"/>
</g>
<!-- Node14 -->
<g id="node14" class="node">
<title>Node14</title>
<g id="a_node14"><a xlink:href="regex_8c.html#ade3e10606e6e8866e6151fe8440d6101" target="_top" xlink:title=" ">
<polygon fill="white" stroke="black" points="665.5,-722.5 665.5,-741.5 713.5,-741.5 713.5,-722.5 665.5,-722.5"/>
<text text-anchor="middle" x="689.5" y="-729.5" font-family="Helvetica,sans-Serif" font-size="10.00">uc_beg</text>
</a>
</g>
</g>
<!-- Node8&#45;&gt;Node14 -->
<g id="edge13" class="edge">
<title>Node8&#45;&gt;Node14</title>
<path fill="none" stroke="midnightblue" d="M621.2,-744.35C632.33,-742.31 644.52,-740.07 655.43,-738.07"/>
<polygon fill="midnightblue" stroke="midnightblue" points="656.22,-741.48 665.43,-736.24 654.96,-734.6 656.22,-741.48"/>
</g>
<!-- Node10 -->
<g id="node10" class="node">
<title>Node10</title>
<g id="a_node10"><a xlink:href="regex_8c.html#acc18ff8d2687611a9e221b3329b02413" target="_top" xlink:title=" ">
<polygon fill="white" stroke="black" points="873,-683.5 873,-702.5 921,-702.5 921,-683.5 873,-683.5"/>
<text text-anchor="middle" x="897" y="-690.5" font-family="Helvetica,sans-Serif" font-size="10.00">brk_len</text>
</a>
</g>
</g>
<!-- Node9&#45;&gt;Node10 -->
<g id="edge9" class="edge">
<title>Node9&#45;&gt;Node10</title>
<path fill="none" stroke="midnightblue" d="M707.67,-798.39C743.63,-778.27 827.07,-731.57 869.78,-707.67"/>
<polygon fill="midnightblue" stroke="midnightblue" points="871.72,-710.6 878.74,-702.66 868.3,-704.49 871.72,-710.6"/>
</g>
<!-- Node9&#45;&gt;Node11 -->
<g id="edge10" class="edge">
<title>Node9&#45;&gt;Node11</title>
<path fill="none" stroke="midnightblue" d="M720.59,-813.39C733.96,-815.79 749.73,-818.62 763.42,-821.07"/>
<polygon fill="midnightblue" stroke="midnightblue" points="762.95,-824.54 773.41,-822.86 764.19,-817.65 762.95,-824.54"/>
</g>
<!-- Node9&#45;&gt;Node12 -->
<g id="edge11" class="edge">
<title>Node9&#45;&gt;Node12</title>
<path fill="none" stroke="midnightblue" d="M709.38,-798.34C713.78,-795.64 718.26,-792.48 722,-789 736.81,-775.25 767.86,-728.55 784.82,-702.3"/>
<polygon fill="midnightblue" stroke="midnightblue" points="787.92,-703.96 790.38,-693.65 782.03,-700.17 787.92,-703.96"/>
</g>
<!-- Node16 -->
<g id="node16" class="node">
<title>Node16</title>
<g id="a_node16"><a xlink:href="regex_8c.html#ad94d0de532eaa4fd959b8adde4d64898" target="_top" xlink:title=" ">
<polygon fill="white" stroke="black" points="216.5,-38.5 216.5,-57.5 263.5,-57.5 263.5,-38.5 216.5,-38.5"/>
<text text-anchor="middle" x="240" y="-45.5" font-family="Helvetica,sans-Serif" font-size="10.00">regfree</text>
</a>
</g>
</g>
<!-- Node15&#45;&gt;Node16 -->
<g id="edge18" class="edge">
<title>Node15&#45;&gt;Node16</title>
<path fill="none" stroke="midnightblue" d="M145.86,-128.46C151.7,-123.18 158.92,-116.41 165,-110 182.14,-91.91 181.44,-82.45 201,-67 203.03,-65.4 205.21,-63.88 207.47,-62.45"/>
<polygon fill="midnightblue" stroke="midnightblue" points="209.4,-65.38 216.38,-57.41 205.95,-59.29 209.4,-65.38"/>
</g>
<!-- Node18 -->
<g id="node18" class="node">
<title>Node18</title>
<g id="a_node18"><a xlink:href="rset_8c.html#a8a35950ab3896c3d568af835385cc12f" target="_top" xlink:title=" ">
<polygon fill="white" stroke="black" points="201,-266.5 201,-285.5 279,-285.5 279,-266.5 201,-266.5"/>
<text text-anchor="middle" x="240" y="-273.5" font-family="Helvetica,sans-Serif" font-size="10.00">re_groupcount</text>
</a>
</g>
</g>
<!-- Node17&#45;&gt;Node18 -->
<g id="edge20" class="edge">
<title>Node17&#45;&gt;Node18</title>
<path fill="none" stroke="midnightblue" d="M152.68,-190.55C156.96,-193.29 161.35,-196.5 165,-200 185.28,-219.46 180.71,-232.55 201,-252 204.32,-255.18 208.13,-258.17 212.02,-260.89"/>
<polygon fill="midnightblue" stroke="midnightblue" points="210.23,-263.9 220.53,-266.37 214.02,-258.01 210.23,-263.9"/>
</g>
<!-- Node19 -->
<g id="node19" class="node">
<title>Node19</title>
<g id="a_node19"><a xlink:href="regex_8c.html#a5b590271eb220f4e019e76cfb950eb69" target="_top" xlink:title=" ">
<polygon fill="white" stroke="black" points="213,-304.5 213,-323.5 267,-323.5 267,-304.5 213,-304.5"/>
<text text-anchor="middle" x="240" y="-311.5" font-family="Helvetica,sans-Serif" font-size="10.00">regcomp</text>
</a>
</g>
</g>
<!-- Node17&#45;&gt;Node19 -->
<g id="edge21" class="edge">
<title>Node17&#45;&gt;Node19</title>
<path fill="none" stroke="midnightblue" d="M154.25,-190.59C158.19,-193.22 162.04,-196.37 165,-200 193.54,-234.99 170.73,-261.5 201,-295 202.16,-296.28 203.42,-297.48 204.76,-298.62"/>
<polygon fill="midnightblue" stroke="midnightblue" points="202.84,-301.54 213.06,-304.33 206.81,-295.78 202.84,-301.54"/>
</g>
<!-- Node33 -->
<g id="node33" class="node">
<title>Node33</title>
<g id="a_node33"><a xlink:href="sbuf_8c.html#a4e56760893d5a6797626743840c9adf2" target="_top" xlink:title=" ">
<polygon fill="white" stroke="black" points="323.5,-228.5 323.5,-247.5 377.5,-247.5 377.5,-228.5 323.5,-228.5"/>
<text text-anchor="middle" x="350.5" y="-235.5" font-family="Helvetica,sans-Serif" font-size="10.00">sbuf_buf</text>
</a>
</g>
</g>
<!-- Node17&#45;&gt;Node33 -->
<g id="edge46" class="edge">
<title>Node17&#45;&gt;Node33</title>
<path fill="none" stroke="midnightblue" d="M160.18,-190.51C172.4,-194.93 187.36,-200.07 201,-204 238.86,-214.89 282.93,-224.62 313.17,-230.85"/>
<polygon fill="midnightblue" stroke="midnightblue" points="312.76,-234.34 323.26,-232.9 314.16,-227.48 312.76,-234.34"/>
</g>
<!-- Node35 -->
<g id="node35" class="node">
<title>Node35</title>
<g id="a_node35"><a xlink:href="sbuf_8c.html#a3f9aa15ca1d73f585d7a4a9d023e58ce" target="_top" xlink:title=" ">
<polygon fill="white" stroke="black" points="323.5,-190.5 323.5,-209.5 377.5,-209.5 377.5,-190.5 323.5,-190.5"/>
<text text-anchor="middle" x="350.5" y="-197.5" font-family="Helvetica,sans-Serif" font-size="10.00">sbuf_chr</text>
</a>
</g>
</g>
<!-- Node17&#45;&gt;Node35 -->
<g id="edge48" class="edge">
<title>Node17&#45;&gt;Node35</title>
<path fill="none" stroke="midnightblue" d="M165.28,-183.68C204.24,-187.13 271.86,-193.12 313.44,-196.81"/>
<polygon fill="midnightblue" stroke="midnightblue" points="313.14,-200.29 323.41,-197.69 313.76,-193.32 313.14,-200.29"/>
</g>
<!-- Node36 -->
<g id="node36" class="node">
<title>Node36</title>
<g id="a_node36"><a xlink:href="sbuf_8c.html#a8c1a89868b1999663effb78b4f3fab32" target="_top" xlink:title=" ">
<polygon fill="white" stroke="black" points="211.5,-114.5 211.5,-133.5 268.5,-133.5 268.5,-114.5 211.5,-114.5"/>
<text text-anchor="middle" x="240" y="-121.5" font-family="Helvetica,sans-Serif" font-size="10.00">sbuf_free</text>
</a>
</g>
</g>
<!-- Node17&#45;&gt;Node36 -->
<g id="edge50" class="edge">
<title>Node17&#45;&gt;Node36</title>
<path fill="none" stroke="midnightblue" d="M151.12,-171.36C164.4,-163.52 183.76,-152.26 201,-143 203.92,-141.43 206.99,-139.82 210.07,-138.24"/>
<polygon fill="midnightblue" stroke="midnightblue" points="211.82,-141.28 219.16,-133.64 208.66,-135.03 211.82,-141.28"/>
</g>
<!-- Node37 -->
<g id="node37" class="node">
<title>Node37</title>
<g id="a_node37"><a xlink:href="sbuf_8c.html#af4ad9608dfc956bbedc19df5c8256fc4" target="_top" xlink:title=" ">
<polygon fill="white" stroke="black" points="213.5,-76.5 213.5,-95.5 266.5,-95.5 266.5,-76.5 213.5,-76.5"/>
<text text-anchor="middle" x="240" y="-83.5" font-family="Helvetica,sans-Serif" font-size="10.00">sbuf_len</text>
</a>
</g>
</g>
<!-- Node17&#45;&gt;Node37 -->
<g id="edge51" class="edge">
<title>Node17&#45;&gt;Node37</title>
<path fill="none" stroke="midnightblue" d="M148.56,-171.49C153.98,-167.36 160.09,-162.27 165,-157 184.18,-136.45 179.76,-123.42 201,-105 202.72,-103.51 204.58,-102.1 206.52,-100.78"/>
<polygon fill="midnightblue" stroke="midnightblue" points="208.54,-103.65 215.34,-95.52 204.96,-97.63 208.54,-103.65"/>
</g>
<!-- Node38 -->
<g id="node38" class="node">
<title>Node38</title>
<g id="a_node38"><a xlink:href="sbuf_8c.html#a57748585d6786a2c1aadc2cbe6f2135b" target="_top" xlink:title=" ">
<polygon fill="white" stroke="black" points="207.5,-342.5 207.5,-361.5 272.5,-361.5 272.5,-342.5 207.5,-342.5"/>
<text text-anchor="middle" x="240" y="-349.5" font-family="Helvetica,sans-Serif" font-size="10.00">sbuf_make</text>
</a>
</g>
</g>
<!-- Node17&#45;&gt;Node38 -->
<g id="edge52" class="edge">
<title>Node17&#45;&gt;Node38</title>
<path fill="none" stroke="midnightblue" d="M154.82,-190.59C158.64,-193.19 162.29,-196.33 165,-200 201.34,-249.29 162.22,-285.6 201,-333 201.96,-334.18 203.02,-335.29 204.14,-336.34"/>
<polygon fill="midnightblue" stroke="midnightblue" points="202.23,-339.28 212.37,-342.36 206.37,-333.63 202.23,-339.28"/>
</g>
<!-- Node39 -->
<g id="node39" class="node">
<title>Node39</title>
<g id="a_node39"><a xlink:href="sbuf_8c.html#a603d1d6ab090025f5850f10bfa2dec7a" target="_top" xlink:title=" ">
<polygon fill="white" stroke="black" points="214,-152.5 214,-171.5 266,-171.5 266,-152.5 214,-152.5"/>
<text text-anchor="middle" x="240" y="-159.5" font-family="Helvetica,sans-Serif" font-size="10.00">sbuf_str</text>
</a>
</g>
</g>
<!-- Node17&#45;&gt;Node39 -->
<g id="edge53" class="edge">
<title>Node17&#45;&gt;Node39</title>
<path fill="none" stroke="midnightblue" d="M165.08,-175.5C177.17,-173.3 191.2,-170.73 203.77,-168.44"/>
<polygon fill="midnightblue" stroke="midnightblue" points="204.69,-171.83 213.9,-166.59 203.43,-164.94 204.69,-171.83"/>
</g>
<!-- Node20 -->
<g id="node20" class="node">
<title>Node20</title>
<g id="a_node20"><a xlink:href="regex_8c.html#ad3bbf549eef0fe517e9f213c5eadbb0c" target="_top" xlink:title=" ">
<polygon fill="white" stroke="black" points="557,-304.5 557,-323.5 611,-323.5 611,-304.5 557,-304.5"/>
<text text-anchor="middle" x="584" y="-311.5" font-family="Helvetica,sans-Serif" font-size="10.00">re_insert</text>
</a>
</g>
</g>
<!-- Node19&#45;&gt;Node20 -->
<g id="edge22" class="edge">
<title>Node19&#45;&gt;Node20</title>
<path fill="none" stroke="midnightblue" d="M267.06,-322.4C281.1,-326.49 298.81,-330.96 315,-333 351.66,-337.63 509.02,-328.23 511,-328 522.72,-326.63 535.38,-324.42 546.78,-322.16"/>
<polygon fill="midnightblue" stroke="midnightblue" points="547.73,-325.54 556.82,-320.09 546.32,-318.68 547.73,-325.54"/>
</g>
<!-- Node21 -->
<g id="node21" class="node">
<title>Node21</title>
<g id="a_node21"><a xlink:href="regex_8c.html#ac00e60e2e4bce1edcd55ffa8b9086ac5" target="_top" xlink:title=" ">
<polygon fill="white" stroke="black" points="315.5,-266.5 315.5,-285.5 385.5,-285.5 385.5,-266.5 315.5,-266.5"/>
<text text-anchor="middle" x="350.5" y="-273.5" font-family="Helvetica,sans-Serif" font-size="10.00">rnode_count</text>
</a>
</g>
</g>
<!-- Node19&#45;&gt;Node21 -->
<g id="edge23" class="edge">
<title>Node19&#45;&gt;Node21</title>
<path fill="none" stroke="midnightblue" d="M267.26,-304.8C280.95,-300.01 297.91,-294.07 312.86,-288.83"/>
<polygon fill="midnightblue" stroke="midnightblue" points="314.06,-292.12 322.34,-285.51 311.75,-285.51 314.06,-292.12"/>
</g>
<!-- Node22 -->
<g id="node22" class="node">
<title>Node22</title>
<g id="a_node22"><a xlink:href="regex_8c.html#a7be1fd2247ffed1699d3be12c04fe9c6" target="_top" xlink:title=" ">
<polygon fill="white" stroke="black" points="318,-304.5 318,-323.5 383,-323.5 383,-304.5 318,-304.5"/>
<text text-anchor="middle" x="350.5" y="-311.5" font-family="Helvetica,sans-Serif" font-size="10.00">rnode_emit</text>
</a>
</g>
</g>
<!-- Node19&#45;&gt;Node22 -->
<g id="edge24" class="edge">
<title>Node19&#45;&gt;Node22</title>
<path fill="none" stroke="midnightblue" d="M267.26,-314C279.36,-314 294.01,-314 307.57,-314"/>
<polygon fill="midnightblue" stroke="midnightblue" points="307.68,-317.5 317.67,-314 307.67,-310.5 307.68,-317.5"/>
</g>
<!-- Node25 -->
<g id="node25" class="node">
<title>Node25</title>
<g id="a_node25"><a xlink:href="regex_8c.html#aabe89a3a22bc0fdc0329cf29ec80ad76" target="_top" xlink:title=" ">
<polygon fill="white" stroke="black" points="766.5,-532.5 766.5,-551.5 828.5,-551.5 828.5,-532.5 766.5,-532.5"/>
<text text-anchor="middle" x="797.5" y="-539.5" font-family="Helvetica,sans-Serif" font-size="10.00">rnode_free</text>
</a>
</g>
</g>
<!-- Node19&#45;&gt;Node25 -->
<g id="edge30" class="edge">
<title>Node19&#45;&gt;Node25</title>
<path fill="none" stroke="midnightblue" d="M266.94,-323.67C271.38,-326.19 275.64,-329.28 279,-333 309.27,-366.5 290.58,-390.02 315,-428 366.41,-507.97 370.43,-580 465.5,-580 465.5,-580 465.5,-580 585,-580 645.49,-580 714.19,-564.76 756.44,-553.58"/>
<polygon fill="midnightblue" stroke="midnightblue" points="757.59,-556.9 766.33,-550.91 755.77,-550.14 757.59,-556.9"/>
</g>
<!-- Node26 -->
<g id="node26" class="node">
<title>Node26</title>
<g id="a_node26"><a xlink:href="regex_8c.html#ac19329676c1426f2b24af24e33e3a845" target="_top" xlink:title=" ">
<polygon fill="white" stroke="black" points="315.5,-399.5 315.5,-418.5 385.5,-418.5 385.5,-399.5 315.5,-399.5"/>
<text text-anchor="middle" x="350.5" y="-406.5" font-family="Helvetica,sans-Serif" font-size="10.00">rnode_parse</text>
</a>
</g>
</g>
<!-- Node19&#45;&gt;Node26 -->
<g id="edge31" class="edge">
<title>Node19&#45;&gt;Node26</title>
<path fill="none" stroke="midnightblue" d="M263.49,-323.57C268.8,-326.28 274.28,-329.46 279,-333 301.36,-349.76 322.52,-374.14 335.72,-390.74"/>
<polygon fill="midnightblue" stroke="midnightblue" points="333.29,-393.31 342.19,-399.06 338.82,-389.02 333.29,-393.31"/>
</g>
<!-- Node22&#45;&gt;Node20 -->
<g id="edge25" class="edge">
<title>Node22&#45;&gt;Node20</title>
<path fill="none" stroke="midnightblue" d="M383.2,-314C425.85,-314 501.52,-314 546.5,-314"/>
<polygon fill="midnightblue" stroke="midnightblue" points="546.69,-317.5 556.69,-314 546.69,-310.5 546.69,-317.5"/>
</g>
<!-- Node23 -->
<g id="node23" class="node">
<title>Node23</title>
<g id="a_node23"><a xlink:href="regex_8c.html#afdf3c7adbb2060b793cf83c5312321c8" target="_top" xlink:title=" ">
<polygon fill="white" stroke="black" points="422,-266.5 422,-285.5 511,-285.5 511,-266.5 422,-266.5"/>
<text text-anchor="middle" x="466.5" y="-273.5" font-family="Helvetica,sans-Serif" font-size="10.00">rnode_emitnorep</text>
</a>
</g>
</g>
<!-- Node22&#45;&gt;Node23 -->
<g id="edge26" class="edge">
<title>Node22&#45;&gt;Node23</title>
<path fill="none" stroke="midnightblue" d="M366.4,-304.3C378.16,-298.93 395.31,-292.55 412.05,-287.08"/>
<polygon fill="midnightblue" stroke="midnightblue" points="413.35,-290.34 421.82,-283.98 411.23,-283.67 413.35,-290.34"/>
</g>
<!-- Node23&#45;&gt;Node20 -->
<g id="edge28" class="edge">
<title>Node23&#45;&gt;Node20</title>
<path fill="none" stroke="midnightblue" d="M496.65,-285.59C511.92,-290.61 530.77,-296.81 546.95,-302.14"/>
<polygon fill="midnightblue" stroke="midnightblue" points="546.04,-305.52 556.63,-305.32 548.22,-298.87 546.04,-305.52"/>
</g>
<!-- Node23&#45;&gt;Node22 -->
<g id="edge29" class="edge">
<title>Node23&#45;&gt;Node22</title>
<path fill="none" stroke="midnightblue" d="M450.87,-285.57C436.28,-292.26 413.18,-300.57 392.92,-306.71"/>
<polygon fill="midnightblue" stroke="midnightblue" points="391.87,-303.37 383.26,-309.54 393.84,-310.09 391.87,-303.37"/>
</g>
<!-- Node24 -->
<g id="node24" class="node">
<title>Node24</title>
<g id="a_node24"><a xlink:href="regex_8c.html#a71b5a38b3a51e761aaa959a89e7cae55" target="_top" xlink:title=" ">
<polygon fill="white" stroke="black" points="550,-266.5 550,-285.5 618,-285.5 618,-266.5 550,-266.5"/>
<text text-anchor="middle" x="584" y="-273.5" font-family="Helvetica,sans-Serif" font-size="10.00">ratom_copy</text>
</a>
</g>
</g>
<!-- Node23&#45;&gt;Node24 -->
<g id="edge27" class="edge">
<title>Node23&#45;&gt;Node24</title>
<path fill="none" stroke="midnightblue" d="M511.17,-276C520.45,-276 530.25,-276 539.52,-276"/>
<polygon fill="midnightblue" stroke="midnightblue" points="539.72,-279.5 549.72,-276 539.72,-272.5 539.72,-279.5"/>
</g>
<!-- Node27 -->
<g id="node27" class="node">
<title>Node27</title>
<g id="a_node27"><a xlink:href="regex_8c.html#a39869d385d8410ffb9d5bf74c778c6ce" target="_top" xlink:title=" ">
<polygon fill="white" stroke="black" points="762.5,-437.5 762.5,-456.5 832.5,-456.5 832.5,-437.5 762.5,-437.5"/>
<text text-anchor="middle" x="797.5" y="-444.5" font-family="Helvetica,sans-Serif" font-size="10.00">rnode_make</text>
</a>
</g>
</g>
<!-- Node26&#45;&gt;Node27 -->
<g id="edge32" class="edge">
<title>Node26&#45;&gt;Node27</title>
<path fill="none" stroke="midnightblue" d="M385.76,-410.18C418.08,-411.42 467.88,-413.66 511,-417 596.6,-423.64 696.29,-434.93 752.33,-441.6"/>
<polygon fill="midnightblue" stroke="midnightblue" points="751.93,-445.08 762.28,-442.79 752.76,-438.13 751.93,-445.08"/>
</g>
<!-- Node28 -->
<g id="node28" class="node">
<title>Node28</title>
<g id="a_node28"><a xlink:href="regex_8c.html#abe0c1f4be43ac6d7caa4f95a560f823f" target="_top" xlink:title=" ">
<polygon fill="white" stroke="black" points="435.5,-456.5 435.5,-475.5 497.5,-475.5 497.5,-456.5 435.5,-456.5"/>
<text text-anchor="middle" x="466.5" y="-463.5" font-family="Helvetica,sans-Serif" font-size="10.00">rnode_seq</text>
</a>
</g>
</g>
<!-- Node26&#45;&gt;Node28 -->
<g id="edge33" class="edge">
<title>Node26&#45;&gt;Node28</title>
<path fill="none" stroke="midnightblue" d="M370.58,-418.54C388.83,-427.66 416.57,-441.53 437.35,-451.93"/>
<polygon fill="midnightblue" stroke="midnightblue" points="435.85,-455.09 446.36,-456.43 438.98,-448.83 435.85,-455.09"/>
</g>
<!-- Node28&#45;&gt;Node27 -->
<g id="edge45" class="edge">
<title>Node28&#45;&gt;Node27</title>
<path fill="none" stroke="midnightblue" d="M497.62,-462.04C534.95,-457.35 600.53,-449.82 657,-447 688.85,-445.41 724.84,-445.45 752.29,-445.87"/>
<polygon fill="midnightblue" stroke="midnightblue" points="752.3,-449.37 762.36,-446.05 752.43,-442.37 752.3,-449.37"/>
</g>
<!-- Node29 -->
<g id="node29" class="node">
<title>Node29</title>
<g id="a_node29"><a xlink:href="regex_8c.html#a0df57dc0ee1beb9018cdd537a58571aa" target="_top" xlink:title=" ">
<polygon fill="white" stroke="black" points="550,-494.5 550,-513.5 618,-513.5 618,-494.5 550,-494.5"/>
<text text-anchor="middle" x="584" y="-501.5" font-family="Helvetica,sans-Serif" font-size="10.00">rnode_atom</text>
</a>
</g>
</g>
<!-- Node28&#45;&gt;Node29 -->
<g id="edge34" class="edge">
<title>Node28&#45;&gt;Node29</title>
<path fill="none" stroke="midnightblue" d="M496.65,-475.59C511.01,-480.31 528.53,-486.08 544.03,-491.18"/>
<polygon fill="midnightblue" stroke="midnightblue" points="543.27,-494.61 553.86,-494.41 545.46,-487.96 543.27,-494.61"/>
</g>
<!-- Node29&#45;&gt;Node25 -->
<g id="edge39" class="edge">
<title>Node29&#45;&gt;Node25</title>
<path fill="none" stroke="midnightblue" d="M618.31,-510.63C630.47,-513.01 644.35,-515.68 657,-518 690.33,-524.11 728.23,-530.6 756.1,-535.29"/>
<polygon fill="midnightblue" stroke="midnightblue" points="755.82,-538.79 766.26,-536.99 756.98,-531.89 755.82,-538.79"/>
</g>
<!-- Node29&#45;&gt;Node27 -->
<g id="edge44" class="edge">
<title>Node29&#45;&gt;Node27</title>
<path fill="none" stroke="midnightblue" d="M618.06,-502.5C646.24,-500.5 687.53,-495.84 722,-485 739.84,-479.39 758.58,-469.81 772.81,-461.67"/>
<polygon fill="midnightblue" stroke="midnightblue" points="774.6,-464.67 781.45,-456.58 771.05,-458.64 774.6,-464.67"/>
</g>
<!-- Node30 -->
<g id="node30" class="node">
<title>Node30</title>
<g id="a_node30"><a xlink:href="regex_8c.html#a8b5ae269a79b320da8e87712e2051d1c" target="_top" xlink:title=" ">
<polygon fill="white" stroke="black" points="657,-608.5 657,-627.5 722,-627.5 722,-608.5 657,-608.5"/>
<text text-anchor="middle" x="689.5" y="-615.5" font-family="Helvetica,sans-Serif" font-size="10.00">ratom_read</text>
</a>
</g>
</g>
<!-- Node29&#45;&gt;Node30 -->
<g id="edge35" class="edge">
<title>Node29&#45;&gt;Node30</title>
<path fill="none" stroke="midnightblue" d="M593.82,-513.72C611.39,-533.07 650.94,-576.63 672.96,-600.88"/>
<polygon fill="midnightblue" stroke="midnightblue" points="670.38,-603.25 679.7,-608.31 675.57,-598.55 670.38,-603.25"/>
</g>
<!-- Node32 -->
<g id="node32" class="node">
<title>Node32</title>
<g id="a_node32"><a xlink:href="regex_8c.html#aaeda19c8b3704252a342cdcc7fc3591c" target="_top" xlink:title=" ">
<polygon fill="white" stroke="black" points="660,-456.5 660,-475.5 719,-475.5 719,-456.5 660,-456.5"/>
<text text-anchor="middle" x="689.5" y="-463.5" font-family="Helvetica,sans-Serif" font-size="10.00">rnode_grp</text>
</a>
</g>
</g>
<!-- Node29&#45;&gt;Node32 -->
<g id="edge40" class="edge">
<title>Node29&#45;&gt;Node32</title>
<path fill="none" stroke="midnightblue" d="M611.12,-494.41C623.74,-489.78 639.09,-484.14 652.78,-479.11"/>
<polygon fill="midnightblue" stroke="midnightblue" points="654.21,-482.32 662.39,-475.59 651.8,-475.75 654.21,-482.32"/>
</g>
<!-- Node30&#45;&gt;Node12 -->
<g id="edge38" class="edge">
<title>Node30&#45;&gt;Node12</title>
<path fill="none" stroke="midnightblue" d="M706.14,-627.74C723.62,-638.62 752.13,-656.37 772.45,-669.02"/>
<polygon fill="midnightblue" stroke="midnightblue" points="770.8,-672.12 781.14,-674.44 774.5,-666.18 770.8,-672.12"/>
</g>
<!-- Node31 -->
<g id="node31" class="node">
<title>Node31</title>
<g id="a_node31"><a xlink:href="regex_8c.html#a1904288a4b4c7b7d0666c3d85d438e1a" target="_top" xlink:title=" ">
<polygon fill="white" stroke="black" points="758,-617.5 758,-636.5 837,-636.5 837,-617.5 758,-617.5"/>
<text text-anchor="middle" x="797.5" y="-624.5" font-family="Helvetica,sans-Serif" font-size="10.00">ratom_readbrk</text>
</a>
</g>
</g>
<!-- Node30&#45;&gt;Node31 -->
<g id="edge36" class="edge">
<title>Node30&#45;&gt;Node31</title>
<path fill="none" stroke="midnightblue" d="M722.02,-620.68C730.09,-621.36 738.96,-622.11 747.68,-622.85"/>
<polygon fill="midnightblue" stroke="midnightblue" points="747.53,-626.35 757.79,-623.71 748.12,-619.38 747.53,-626.35"/>
</g>
<!-- Node31&#45;&gt;Node10 -->
<g id="edge37" class="edge">
<title>Node31&#45;&gt;Node10</title>
<path fill="none" stroke="midnightblue" d="M812.89,-636.74C828.82,-647.52 854.72,-665.05 873.37,-677.68"/>
<polygon fill="midnightblue" stroke="midnightblue" points="871.63,-680.73 881.87,-683.44 875.55,-674.93 871.63,-680.73"/>
</g>
<!-- Node32&#45;&gt;Node25 -->
<g id="edge41" class="edge">
<title>Node32&#45;&gt;Node25</title>
<path fill="none" stroke="midnightblue" d="M703.92,-475.63C721.77,-488.42 753.51,-511.17 774.78,-526.43"/>
<polygon fill="midnightblue" stroke="midnightblue" points="773.02,-529.47 783.18,-532.45 777.1,-523.78 773.02,-529.47"/>
</g>
<!-- Node32&#45;&gt;Node26 -->
<g id="edge43" class="edge">
<title>Node32&#45;&gt;Node26</title>
<path fill="none" stroke="midnightblue" d="M659.58,-461.11C600.61,-451.13 466.11,-428.38 395.95,-416.52"/>
<polygon fill="midnightblue" stroke="midnightblue" points="396.11,-413 385.67,-414.78 394.94,-419.9 396.11,-413"/>
</g>
<!-- Node32&#45;&gt;Node27 -->
<g id="edge42" class="edge">
<title>Node32&#45;&gt;Node27</title>
<path fill="none" stroke="midnightblue" d="M719.19,-460.86C729.32,-459.04 740.98,-456.95 752.11,-454.96"/>
<polygon fill="midnightblue" stroke="midnightblue" points="752.91,-458.37 762.14,-453.16 751.67,-451.48 752.91,-458.37"/>
</g>
<!-- Node34 -->
<g id="node34" class="node">
<title>Node34</title>
<g id="a_node34"><a xlink:href="sbuf_8c.html#a4ad75f3948c0340c342a3ea3eb63a6e6" target="_top" xlink:title=" ">
<polygon fill="white" stroke="black" points="431.5,-190.5 431.5,-209.5 501.5,-209.5 501.5,-190.5 431.5,-190.5"/>
<text text-anchor="middle" x="466.5" y="-197.5" font-family="Helvetica,sans-Serif" font-size="10.00">sbuf_extend</text>
</a>
</g>
</g>
<!-- Node33&#45;&gt;Node34 -->
<g id="edge47" class="edge">
<title>Node33&#45;&gt;Node34</title>
<path fill="none" stroke="midnightblue" d="M377.65,-229.28C392.24,-224.42 410.69,-218.27 426.91,-212.86"/>
<polygon fill="midnightblue" stroke="midnightblue" points="428.29,-216.09 436.67,-209.61 426.07,-209.45 428.29,-216.09"/>
</g>
<!-- Node35&#45;&gt;Node34 -->
<g id="edge49" class="edge">
<title>Node35&#45;&gt;Node34</title>
<path fill="none" stroke="midnightblue" d="M377.65,-200C390.45,-200 406.23,-200 420.86,-200"/>
<polygon fill="midnightblue" stroke="midnightblue" points="421.25,-203.5 431.25,-200 421.25,-196.5 421.25,-203.5"/>
</g>
<!-- Node40 -->
<g id="node40" class="node">
<title>Node40</title>
<g id="a_node40"><a xlink:href="sbuf_8c.html#aa511ac77d6b486accc01c0512ef27ed2" target="_top" xlink:title=" ">
<polygon fill="white" stroke="black" points="319.5,-152.5 319.5,-171.5 381.5,-171.5 381.5,-152.5 319.5,-152.5"/>
<text text-anchor="middle" x="350.5" y="-159.5" font-family="Helvetica,sans-Serif" font-size="10.00">sbuf_mem</text>
</a>
</g>
</g>
<!-- Node39&#45;&gt;Node40 -->
<g id="edge54" class="edge">
<title>Node39&#45;&gt;Node40</title>
<path fill="none" stroke="midnightblue" d="M266.16,-162C278.96,-162 294.82,-162 309.26,-162"/>
<polygon fill="midnightblue" stroke="midnightblue" points="309.46,-165.5 319.46,-162 309.46,-158.5 309.46,-165.5"/>
</g>
<!-- Node40&#45;&gt;Node34 -->
<g id="edge55" class="edge">
<title>Node40&#45;&gt;Node34</title>
<path fill="none" stroke="midnightblue" d="M380.27,-171.59C394.44,-176.31 411.74,-182.08 427.03,-187.18"/>
<polygon fill="midnightblue" stroke="midnightblue" points="426.15,-190.57 436.74,-190.41 428.36,-183.93 426.15,-190.57"/>
</g>
<!-- Node42 -->
<g id="node42" class="node">
<title>Node42</title>
<g id="a_node42"><a xlink:href="uc_8c.html#a79c7c44c06c1febff5680c19667e2676" target="_top" xlink:title=" ">
<polygon fill="white" stroke="black" points="214.5,-0.5 214.5,-19.5 265.5,-19.5 265.5,-0.5 214.5,-0.5"/>
<text text-anchor="middle" x="240" y="-7.5" font-family="Helvetica,sans-Serif" font-size="10.00">uc_next</text>
</a>
</g>
</g>
<!-- Node41&#45;&gt;Node42 -->
<g id="edge57" class="edge">
<title>Node41&#45;&gt;Node42</title>
<path fill="none" stroke="midnightblue" d="M157.06,-28.91C170.85,-25.73 188.91,-21.56 204.56,-17.95"/>
<polygon fill="midnightblue" stroke="midnightblue" points="205.47,-21.33 214.43,-15.67 203.9,-14.51 205.47,-21.33"/>
</g>
<!-- Node43 -->
<g id="node43" class="node">
<title>Node43</title>
<g id="a_node43"><a xlink:href="uc_8c.html#a616e24870a58b86644c34ee077faca11" target="_top" xlink:title=" ">
<polygon fill="white" stroke="black" points="326.5,-0.5 326.5,-19.5 374.5,-19.5 374.5,-0.5 326.5,-0.5"/>
<text text-anchor="middle" x="350.5" y="-7.5" font-family="Helvetica,sans-Serif" font-size="10.00">uc_end</text>
</a>
</g>
</g>
<!-- Node42&#45;&gt;Node43 -->
<g id="edge58" class="edge">
<title>Node42&#45;&gt;Node43</title>
<path fill="none" stroke="midnightblue" d="M265.62,-10C280.6,-10 299.92,-10 316.24,-10"/>
<polygon fill="midnightblue" stroke="midnightblue" points="316.46,-13.5 326.46,-10 316.46,-6.5 316.46,-13.5"/>
</g>
<!-- Node44&#45;&gt;Node42 -->
<g id="edge60" class="edge">
<title>Node44&#45;&gt;Node42</title>
<path fill="none" stroke="midnightblue" d="M143.66,-81.26C155.62,-68.2 178.3,-44.83 201,-29 203.25,-27.43 205.64,-25.92 208.1,-24.48"/>
<polygon fill="midnightblue" stroke="midnightblue" points="209.96,-27.45 217.07,-19.61 206.62,-21.3 209.96,-27.45"/>
</g>
</g>
</svg>
