<?xml version="1.0" encoding="UTF-8" standalone="no"?>
<!DOCTYPE svg PUBLIC "-//W3C//DTD SVG 1.1//EN"
 "http://www.w3.org/Graphics/SVG/1.1/DTD/svg11.dtd">
<!-- Generated by graphviz version 2.44.1 (20200629.0846)
 -->
<!-- Title: rnode_emitnorep Pages: 1 -->
<svg width="291pt" height="104pt"
 viewBox="0.00 0.00 291.00 104.00" xmlns="http://www.w3.org/2000/svg" xmlns:xlink="http://www.w3.org/1999/xlink">
<g id="graph0" class="graph" transform="scale(1 1) rotate(0) translate(4 100)">
<title>rnode_emitnorep</title>
<polygon fill="white" stroke="transparent" points="-4,4 -4,-100 287,-100 287,4 -4,4"/>
<!-- Node1 -->
<g id="node1" class="node">
<title>Node1</title>
<g id="a_node1"><a xlink:title=" ">
<polygon fill="#bfbfbf" stroke="black" points="0,-19.5 0,-38.5 89,-38.5 89,-19.5 0,-19.5"/>
<text text-anchor="middle" x="44.5" y="-26.5" font-family="Helvetica,sans-Serif" font-size="10.00">rnode_emitnorep</text>
</a>
</g>
</g>
<!-- Node2 -->
<g id="node2" class="node">
<title>Node2</title>
<g id="a_node2"><a xlink:href="regex_8c.html#a71b5a38b3a51e761aaa959a89e7cae55" target="_top" xlink:title=" ">
<polygon fill="white" stroke="black" points="125,-76.5 125,-95.5 193,-95.5 193,-76.5 125,-76.5"/>
<text text-anchor="middle" x="159" y="-83.5" font-family="Helvetica,sans-Serif" font-size="10.00">ratom_copy</text>
</a>
</g>
</g>
<!-- Node1&#45;&gt;Node2 -->
<g id="edge1" class="edge">
<title>Node1&#45;&gt;Node2</title>
<path fill="none" stroke="midnightblue" d="M64.33,-38.54C82.26,-47.62 109.47,-61.41 129.95,-71.79"/>
<polygon fill="midnightblue" stroke="midnightblue" points="128.61,-75.03 139.11,-76.43 131.77,-68.79 128.61,-75.03"/>
</g>
<!-- Node3 -->
<g id="node3" class="node">
<title>Node3</title>
<g id="a_node3"><a xlink:href="regex_8c.html#ad3bbf549eef0fe517e9f213c5eadbb0c" target="_top" xlink:title=" ">
<polygon fill="white" stroke="black" points="229,-19.5 229,-38.5 283,-38.5 283,-19.5 229,-19.5"/>
<text text-anchor="middle" x="256" y="-26.5" font-family="Helvetica,sans-Serif" font-size="10.00">re_insert</text>
</a>
</g>
</g>
<!-- Node1&#45;&gt;Node3 -->
<g id="edge2" class="edge">
<title>Node1&#45;&gt;Node3</title>
<path fill="none" stroke="midnightblue" d="M89.16,-29C127.58,-29 182.85,-29 218.84,-29"/>
<polygon fill="midnightblue" stroke="midnightblue" points="218.9,-32.5 228.9,-29 218.9,-25.5 218.9,-32.5"/>
</g>
<!-- Node4 -->
<g id="node4" class="node">
<title>Node4</title>
<g id="a_node4"><a xlink:href="regex_8c.html#a7be1fd2247ffed1699d3be12c04fe9c6" target="_top" xlink:title=" ">
<polygon fill="white" stroke="black" points="126.5,-0.5 126.5,-19.5 191.5,-19.5 191.5,-0.5 126.5,-0.5"/>
<text text-anchor="middle" x="159" y="-7.5" font-family="Helvetica,sans-Serif" font-size="10.00">rnode_emit</text>
</a>
</g>
</g>
<!-- Node1&#45;&gt;Node4 -->
<g id="edge3" class="edge">
<title>Node1&#45;&gt;Node4</title>
<path fill="none" stroke="midnightblue" d="M68.81,-19.47C82.43,-16.08 100.03,-12.79 115.99,-10.54"/>
<polygon fill="midnightblue" stroke="midnightblue" points="116.72,-13.98 126.19,-9.22 115.82,-7.03 116.72,-13.98"/>
</g>
<!-- Node4&#45;&gt;Node1 -->
<g id="edge5" class="edge">
<title>Node4&#45;&gt;Node1</title>
<path fill="none" stroke="midnightblue" d="M134.57,-19.56C124.24,-22.13 111.64,-24.63 99.21,-26.67"/>
<polygon fill="midnightblue" stroke="midnightblue" points="98.67,-23.22 89.32,-28.2 99.73,-30.13 98.67,-23.22"/>
</g>
<!-- Node4&#45;&gt;Node3 -->
<g id="edge4" class="edge">
<title>Node4&#45;&gt;Node3</title>
<path fill="none" stroke="midnightblue" d="M191.63,-16.33C200.42,-18.08 210.02,-20 219.03,-21.81"/>
<polygon fill="midnightblue" stroke="midnightblue" points="218.39,-25.25 228.88,-23.78 219.76,-18.38 218.39,-25.25"/>
</g>
</g>
</svg>
