<?xml version="1.0" encoding="UTF-8" standalone="no"?>
<!DOCTYPE svg PUBLIC "-//W3C//DTD SVG 1.1//EN"
 "http://www.w3.org/Graphics/SVG/1.1/DTD/svg11.dtd">
<!-- Generated by graphviz version 2.44.1 (20200629.0846)
 -->
<!-- Title: re_rec Pages: 1 -->
<svg width="344pt" height="180pt"
 viewBox="0.00 0.00 344.00 180.00" xmlns="http://www.w3.org/2000/svg" xmlns:xlink="http://www.w3.org/1999/xlink">
<g id="graph0" class="graph" transform="scale(1 1) rotate(0) translate(4 176)">
<title>re_rec</title>
<polygon fill="white" stroke="transparent" points="-4,4 -4,-176 340,-176 340,4 -4,4"/>
<!-- Node1 -->
<g id="node1" class="node">
<title>Node1</title>
<g id="a_node1"><a xlink:title=" ">
<polygon fill="#bfbfbf" stroke="black" points="0,-76.5 0,-95.5 44,-95.5 44,-76.5 0,-76.5"/>
<text text-anchor="middle" x="22" y="-83.5" font-family="Helvetica,sans-Serif" font-size="10.00">re_rec</text>
</a>
</g>
</g>
<!-- Node2 -->
<g id="node2" class="node">
<title>Node2</title>
<g id="a_node2"><a xlink:href="regex_8c.html#a24fd1fc7457ff4f03fb384f7170ac395" target="_top" xlink:title=" ">
<polygon fill="white" stroke="black" points="80,-76.5 80,-95.5 154,-95.5 154,-76.5 80,-76.5"/>
<text text-anchor="middle" x="117" y="-83.5" font-family="Helvetica,sans-Serif" font-size="10.00">ratom_match</text>
</a>
</g>
</g>
<!-- Node1&#45;&gt;Node2 -->
<g id="edge1" class="edge">
<title>Node1&#45;&gt;Node2</title>
<path fill="none" stroke="midnightblue" d="M44.1,-86C51.73,-86 60.68,-86 69.63,-86"/>
<polygon fill="midnightblue" stroke="midnightblue" points="69.65,-89.5 79.65,-86 69.65,-82.5 69.65,-89.5"/>
</g>
<!-- Node3 -->
<g id="node3" class="node">
<title>Node3</title>
<g id="a_node3"><a xlink:href="regex_8c.html#aae17ed73e84075718fb04d131d6ca779" target="_top" xlink:title=" ">
<polygon fill="white" stroke="black" points="190,-114.5 190,-133.5 252,-133.5 252,-114.5 190,-114.5"/>
<text text-anchor="middle" x="221" y="-121.5" font-family="Helvetica,sans-Serif" font-size="10.00">brk_match</text>
</a>
</g>
</g>
<!-- Node2&#45;&gt;Node3 -->
<g id="edge2" class="edge">
<title>Node2&#45;&gt;Node3</title>
<path fill="none" stroke="midnightblue" d="M143.74,-95.59C156.18,-100.22 171.31,-105.86 184.8,-110.89"/>
<polygon fill="midnightblue" stroke="midnightblue" points="183.68,-114.2 194.27,-114.41 186.12,-107.64 183.68,-114.2"/>
</g>
<!-- Node5 -->
<g id="node5" class="node">
<title>Node5</title>
<g id="a_node5"><a xlink:href="regex_8c.html#aaf73cdb88048e7f9fd588eb8d5aeb5a3" target="_top" xlink:title=" ">
<polygon fill="white" stroke="black" points="288,-152.5 288,-171.5 336,-171.5 336,-152.5 288,-152.5"/>
<text text-anchor="middle" x="312" y="-159.5" font-family="Helvetica,sans-Serif" font-size="10.00">uc_dec</text>
</a>
</g>
</g>
<!-- Node2&#45;&gt;Node5 -->
<g id="edge8" class="edge">
<title>Node2&#45;&gt;Node5</title>
<path fill="none" stroke="midnightblue" d="M127.17,-95.92C139.9,-109.02 164.3,-131.75 190,-143 217.95,-155.24 252.59,-159.73 277.63,-161.31"/>
<polygon fill="midnightblue" stroke="midnightblue" points="277.56,-164.81 287.73,-161.82 277.92,-157.82 277.56,-164.81"/>
</g>
<!-- Node6 -->
<g id="node6" class="node">
<title>Node6</title>
<g id="a_node6"><a xlink:href="regex_8c.html#a9a0d6d5f93f1eaba8b63b16903c0952d" target="_top" xlink:title=" ">
<polygon fill="white" stroke="black" points="289.5,-76.5 289.5,-95.5 334.5,-95.5 334.5,-76.5 289.5,-76.5"/>
<text text-anchor="middle" x="312" y="-83.5" font-family="Helvetica,sans-Serif" font-size="10.00">uc_len</text>
</a>
</g>
</g>
<!-- Node2&#45;&gt;Node6 -->
<g id="edge9" class="edge">
<title>Node2&#45;&gt;Node6</title>
<path fill="none" stroke="midnightblue" d="M154.3,-86C190.17,-86 244.5,-86 278.85,-86"/>
<polygon fill="midnightblue" stroke="midnightblue" points="279.25,-89.5 289.25,-86 279.25,-82.5 279.25,-89.5"/>
</g>
<!-- Node7 -->
<g id="node7" class="node">
<title>Node7</title>
<g id="a_node7"><a xlink:href="regex_8c.html#a35ad3fd0dbb795e6f30404ce86a7be5b" target="_top" xlink:title=" ">
<polygon fill="white" stroke="black" points="198.5,-38.5 198.5,-57.5 243.5,-57.5 243.5,-38.5 198.5,-38.5"/>
<text text-anchor="middle" x="221" y="-45.5" font-family="Helvetica,sans-Serif" font-size="10.00">isword</text>
</a>
</g>
</g>
<!-- Node2&#45;&gt;Node7 -->
<g id="edge6" class="edge">
<title>Node2&#45;&gt;Node7</title>
<path fill="none" stroke="midnightblue" d="M143.74,-76.41C157.45,-71.3 174.43,-64.98 188.88,-59.59"/>
<polygon fill="midnightblue" stroke="midnightblue" points="190.26,-62.82 198.41,-56.04 187.81,-56.26 190.26,-62.82"/>
</g>
<!-- Node8 -->
<g id="node8" class="node">
<title>Node8</title>
<g id="a_node8"><a xlink:href="regex_8c.html#ade3e10606e6e8866e6151fe8440d6101" target="_top" xlink:title=" ">
<polygon fill="white" stroke="black" points="197,-0.5 197,-19.5 245,-19.5 245,-0.5 197,-0.5"/>
<text text-anchor="middle" x="221" y="-7.5" font-family="Helvetica,sans-Serif" font-size="10.00">uc_beg</text>
</a>
</g>
</g>
<!-- Node2&#45;&gt;Node8 -->
<g id="edge7" class="edge">
<title>Node2&#45;&gt;Node8</title>
<path fill="none" stroke="midnightblue" d="M129.43,-76.33C143.4,-64.67 167.9,-44.68 190,-29 191.84,-27.7 193.76,-26.38 195.71,-25.07"/>
<polygon fill="midnightblue" stroke="midnightblue" points="197.74,-27.93 204.22,-19.56 193.93,-22.06 197.74,-27.93"/>
</g>
<!-- Node4 -->
<g id="node4" class="node">
<title>Node4</title>
<g id="a_node4"><a xlink:href="regex_8c.html#acc18ff8d2687611a9e221b3329b02413" target="_top" xlink:title=" ">
<polygon fill="white" stroke="black" points="288,-114.5 288,-133.5 336,-133.5 336,-114.5 288,-114.5"/>
<text text-anchor="middle" x="312" y="-121.5" font-family="Helvetica,sans-Serif" font-size="10.00">brk_len</text>
</a>
</g>
</g>
<!-- Node3&#45;&gt;Node4 -->
<g id="edge3" class="edge">
<title>Node3&#45;&gt;Node4</title>
<path fill="none" stroke="midnightblue" d="M252.13,-124C260.36,-124 269.32,-124 277.71,-124"/>
<polygon fill="midnightblue" stroke="midnightblue" points="277.94,-127.5 287.94,-124 277.94,-120.5 277.94,-127.5"/>
</g>
<!-- Node3&#45;&gt;Node5 -->
<g id="edge4" class="edge">
<title>Node3&#45;&gt;Node5</title>
<path fill="none" stroke="midnightblue" d="M244.46,-133.59C255,-138.09 267.75,-143.53 279.25,-148.44"/>
<polygon fill="midnightblue" stroke="midnightblue" points="277.98,-151.71 288.55,-152.41 280.73,-145.27 277.98,-151.71"/>
</g>
<!-- Node3&#45;&gt;Node6 -->
<g id="edge5" class="edge">
<title>Node3&#45;&gt;Node6</title>
<path fill="none" stroke="midnightblue" d="M244.46,-114.41C255.24,-109.81 268.33,-104.22 280.04,-99.22"/>
<polygon fill="midnightblue" stroke="midnightblue" points="281.65,-102.34 289.47,-95.19 278.9,-95.9 281.65,-102.34"/>
</g>
</g>
</svg>
