<?xml version="1.0" encoding="UTF-8" standalone="no"?>
<!DOCTYPE svg PUBLIC "-//W3C//DTD SVG 1.1//EN"
 "http://www.w3.org/Graphics/SVG/1.1/DTD/svg11.dtd">
<!-- Generated by graphviz version 2.44.1 (20200629.0846)
 -->
<!-- Title: pos_next Pages: 1 -->
<!--zoomable 338 -->
<svg id="main" version="1.1" xmlns="http://www.w3.org/2000/svg" xmlns:xlink="http://www.w3.org/1999/xlink" xml:space="preserve" onload="init(evt)">
<style type="text/css"><![CDATA[
.edge:hover path { stroke: red; }
.edge:hover polygon { stroke: red; fill: red; }
]]></style>
<script type="text/javascript"><![CDATA[
var edges = document.getElementsByTagName('g');
if (edges && edges.length) {
  for (var i=0;i<edges.length;i++) {
    if (edges[i].id.substr(0,4)=='edge') {
      edges[i].setAttribute('class','edge');
    }
  }
}
]]></script>
        <defs>
                <circle id="rim" cx="0" cy="0" r="7"/>
                <circle id="rim2" cx="0" cy="0" r="3.5"/>
                <g id="zoomPlus">
                        <use xlink:href="#rim" fill="#404040">
                                <set attributeName="fill" to="#808080" begin="zoomplus.mouseover" end="zoomplus.mouseout"/>
                        </use>
                        <path d="M-4,0h8M0,-4v8" fill="none" stroke="white" stroke-width="1.5" pointer-events="none"/>
                </g>
                <g id="zoomMin">
                        <use xlink:href="#rim" fill="#404040">
                                <set attributeName="fill" to="#808080" begin="zoomminus.mouseover" end="zoomminus.mouseout"/>
                        </use>
                        <path d="M-4,0h8" fill="none" stroke="white" stroke-width="1.5" pointer-events="none"/>
                </g>
                <g id="dirArrow">
                        <path fill="none" stroke="white" stroke-width="1.5" d="M0,-3.0v7 M-2.5,-0.5L0,-3.0L2.5,-0.5"/>
                </g>
               <g id="resetDef">
                       <use xlink:href="#rim2" fill="#404040">
                               <set attributeName="fill" to="#808080" begin="reset.mouseover" end="reset.mouseout"/>
                       </use>
               </g>
        </defs>

<script type="text/javascript">
var viewWidth = 995;
var viewHeight = 338;
var sectionId = 'dynsection-4';
</script>
<script xlink:href="svgpan.js"/>
<svg id="graph" class="graph">
<g id="viewport">
<title>pos_next</title>
<polygon fill="white" stroke="transparent" points="-4,4 -4,-334.24 991,-334.24 991,4 -4,4"/>
<!-- Node1 -->
<g id="node1" class="node">
<title>Node1</title>
<g id="a_node1"><a xlink:title=" ">
<polygon fill="#bfbfbf" stroke="black" points="931,-164.74 931,-183.74 987,-183.74 987,-164.74 931,-164.74"/>
<text text-anchor="middle" x="959" y="-171.74" font-family="Helvetica,sans-Serif" font-size="10.00">pos_next</text>
</a>
</g>
</g>
<!-- Node2 -->
<g id="node2" class="node">
<title>Node2</title>
<g id="a_node2"><a xlink:href="vi_8h.html#a60f81bf9835d8eee93b82d5236763c83" target="_top" xlink:title=" ">
<polygon fill="white" stroke="black" points="833,-245.74 833,-264.74 895,-264.74 895,-245.74 833,-245.74"/>
<text text-anchor="middle" x="864" y="-252.74" font-family="Helvetica,sans-Serif" font-size="10.00">ren_cursor</text>
</a>
</g>
</g>
<!-- Node1&#45;&gt;Node2 -->
<g id="edge1" class="edge">
<title>Node1&#45;&gt;Node2</title>
<path fill="none" stroke="midnightblue" d="M939.26,-190.56C920.29,-207.08 891.6,-232.07 876.02,-245.64"/>
<polygon fill="midnightblue" stroke="midnightblue" points="941.72,-193.06 946.97,-183.85 937.13,-187.78 941.72,-193.06"/>
</g>
<!-- Node22 -->
<g id="node22" class="node">
<title>Node22</title>
<g id="a_node22"><a xlink:href="vi_8h.html#aa288077162077d17ddd836c0167a2ad0" target="_top" xlink:title=" ">
<polygon fill="white" stroke="black" points="837,-145.74 837,-164.74 891,-164.74 891,-145.74 837,-145.74"/>
<text text-anchor="middle" x="864" y="-152.74" font-family="Helvetica,sans-Serif" font-size="10.00">ren_next</text>
</a>
</g>
</g>
<!-- Node1&#45;&gt;Node22 -->
<g id="edge31" class="edge">
<title>Node1&#45;&gt;Node22</title>
<path fill="none" stroke="midnightblue" d="M920.62,-166.6C910.78,-164.59 900.37,-162.46 891.25,-160.6"/>
<polygon fill="midnightblue" stroke="midnightblue" points="920.1,-170.07 930.6,-168.64 921.5,-163.21 920.1,-170.07"/>
</g>
<!-- Node3 -->
<g id="node3" class="node">
<title>Node3</title>
<g id="a_node3"><a xlink:href="led_8c.html#ae938cbff964c214e7e4f6aff4d5ce0f7" target="_top" xlink:title=" ">
<polygon fill="white" stroke="black" points="722,-217.74 722,-236.74 797,-236.74 797,-217.74 722,-217.74"/>
<text text-anchor="middle" x="759.5" y="-224.74" font-family="Helvetica,sans-Serif" font-size="10.00">led_printparts</text>
</a>
</g>
</g>
<!-- Node2&#45;&gt;Node3 -->
<g id="edge2" class="edge">
<title>Node2&#45;&gt;Node3</title>
<path fill="none" stroke="midnightblue" d="M822.88,-244.28C813.85,-241.81 804.33,-239.21 795.53,-236.81"/>
<polygon fill="midnightblue" stroke="midnightblue" points="822.23,-247.73 832.8,-246.99 824.08,-240.98 822.23,-247.73"/>
</g>
<!-- Node7 -->
<g id="node7" class="node">
<title>Node7</title>
<g id="a_node7"><a xlink:href="vi_8c.html#a8d808e0f3453afe6600673ee1ea5f828" target="_top" xlink:title=" ">
<polygon fill="white" stroke="black" points="74,-149.74 74,-168.74 103,-168.74 103,-149.74 74,-149.74"/>
<text text-anchor="middle" x="88.5" y="-156.74" font-family="Helvetica,sans-Serif" font-size="10.00">vi</text>
</a>
</g>
</g>
<!-- Node2&#45;&gt;Node7 -->
<g id="edge30" class="edge">
<title>Node2&#45;&gt;Node7</title>
<path fill="none" stroke="midnightblue" d="M839.07,-270.23C801.76,-292.11 726.82,-330.24 657.5,-330.24 657.5,-330.24 657.5,-330.24 266.5,-330.24 202.49,-330.24 183.36,-309.39 139,-263.24 111.7,-234.84 97.1,-188.56 91.83,-168.74"/>
<polygon fill="midnightblue" stroke="midnightblue" points="840.94,-273.19 847.71,-265.04 837.34,-267.18 840.94,-273.19"/>
</g>
<!-- Node21 -->
<g id="node21" class="node">
<title>Node21</title>
<g id="a_node21"><a xlink:href="vi_8c.html#ab7d24df5f19f55dae6f719cd5bcfbe6f" target="_top" xlink:title=" ">
<polygon fill="white" stroke="black" points="627,-277.74 627,-296.74 686,-296.74 686,-277.74 627,-277.74"/>
<text text-anchor="middle" x="656.5" y="-284.74" font-family="Helvetica,sans-Serif" font-size="10.00">vc_status</text>
</a>
</g>
</g>
<!-- Node2&#45;&gt;Node21 -->
<g id="edge28" class="edge">
<title>Node2&#45;&gt;Node21</title>
<path fill="none" stroke="midnightblue" d="M822.68,-261.52C782.51,-267.77 721.84,-277.22 686.29,-282.76"/>
<polygon fill="midnightblue" stroke="midnightblue" points="823.34,-264.96 832.68,-259.96 822.26,-258.04 823.34,-264.96"/>
</g>
<!-- Node4 -->
<g id="node4" class="node">
<title>Node4</title>
<g id="a_node4"><a xlink:href="vi_8h.html#ae72255a31cec31233723c101d9465d07" target="_top" xlink:title=" ">
<polygon fill="white" stroke="black" points="530.5,-208.74 530.5,-227.74 586.5,-227.74 586.5,-208.74 530.5,-208.74"/>
<text text-anchor="middle" x="558.5" y="-215.74" font-family="Helvetica,sans-Serif" font-size="10.00">led_input</text>
</a>
</g>
</g>
<!-- Node3&#45;&gt;Node4 -->
<g id="edge3" class="edge">
<title>Node3&#45;&gt;Node4</title>
<path fill="none" stroke="midnightblue" d="M711.5,-225.11C672.62,-223.36 618.76,-220.92 586.68,-219.47"/>
<polygon fill="midnightblue" stroke="midnightblue" points="711.39,-228.61 721.54,-225.57 711.7,-221.62 711.39,-228.61"/>
</g>
<!-- Node11 -->
<g id="node11" class="node">
<title>Node11</title>
<g id="a_node11"><a xlink:href="led_8c.html#a617ec615e86687b5c10df33b271256c8" target="_top" xlink:title=" ">
<polygon fill="white" stroke="black" points="631.5,-179.74 631.5,-198.74 681.5,-198.74 681.5,-179.74 631.5,-179.74"/>
<text text-anchor="middle" x="656.5" y="-186.74" font-family="Helvetica,sans-Serif" font-size="10.00">led_line</text>
</a>
</g>
</g>
<!-- Node3&#45;&gt;Node11 -->
<g id="edge11" class="edge">
<title>Node3&#45;&gt;Node11</title>
<path fill="none" stroke="midnightblue" d="M723.34,-214.01C709.55,-208.82 694.07,-203 681.59,-198.3"/>
<polygon fill="midnightblue" stroke="midnightblue" points="722.42,-217.4 733.01,-217.65 724.89,-210.85 722.42,-217.4"/>
</g>
<!-- Node5 -->
<g id="node5" class="node">
<title>Node5</title>
<g id="a_node5"><a xlink:href="vi_8c.html#a653f6b0359cef492e11f404c4bf469b9" target="_top" xlink:title=" ">
<polygon fill="white" stroke="black" points="338.5,-208.74 338.5,-227.74 388.5,-227.74 388.5,-208.74 338.5,-208.74"/>
<text text-anchor="middle" x="363.5" y="-215.74" font-family="Helvetica,sans-Serif" font-size="10.00">vi_input</text>
</a>
</g>
</g>
<!-- Node4&#45;&gt;Node5 -->
<g id="edge4" class="edge">
<title>Node4&#45;&gt;Node5</title>
<path fill="none" stroke="midnightblue" d="M519.88,-218.24C481.01,-218.24 421.51,-218.24 388.56,-218.24"/>
<polygon fill="midnightblue" stroke="midnightblue" points="520.26,-221.74 530.26,-218.24 520.26,-214.74 520.26,-221.74"/>
</g>
<!-- Node6 -->
<g id="node6" class="node">
<title>Node6</title>
<g id="a_node6"><a xlink:href="vi_8c.html#a8bb357a77ed61da8858f138c6fa672a6" target="_top" xlink:title=" ">
<polygon fill="white" stroke="black" points="239.5,-244.74 239.5,-263.74 295.5,-263.74 295.5,-244.74 239.5,-244.74"/>
<text text-anchor="middle" x="267.5" y="-251.74" font-family="Helvetica,sans-Serif" font-size="10.00">vc_insert</text>
</a>
</g>
</g>
<!-- Node5&#45;&gt;Node6 -->
<g id="edge5" class="edge">
<title>Node5&#45;&gt;Node6</title>
<path fill="none" stroke="midnightblue" d="M328.88,-231.12C317.25,-235.57 304.43,-240.48 293.61,-244.62"/>
<polygon fill="midnightblue" stroke="midnightblue" points="330.21,-234.36 338.29,-227.51 327.7,-227.82 330.21,-234.36"/>
</g>
<!-- Node9 -->
<g id="node9" class="node">
<title>Node9</title>
<g id="a_node9"><a xlink:href="vi_8c.html#ae37b094c3bb647d8c1a4ac4e858ce518" target="_top" xlink:title=" ">
<polygon fill="white" stroke="black" points="237,-206.74 237,-225.74 298,-225.74 298,-206.74 237,-206.74"/>
<text text-anchor="middle" x="267.5" y="-213.74" font-family="Helvetica,sans-Serif" font-size="10.00">vi_change</text>
</a>
</g>
</g>
<!-- Node5&#45;&gt;Node9 -->
<g id="edge8" class="edge">
<title>Node5&#45;&gt;Node9</title>
<path fill="none" stroke="midnightblue" d="M328.1,-217.51C318.34,-217.3 307.8,-217.08 298.34,-216.87"/>
<polygon fill="midnightblue" stroke="midnightblue" points="328.22,-221.01 338.29,-217.72 328.37,-214.01 328.22,-221.01"/>
</g>
<!-- Node6&#45;&gt;Node7 -->
<g id="edge6" class="edge">
<title>Node6&#45;&gt;Node7</title>
<path fill="none" stroke="midnightblue" d="M234.96,-240.35C208.78,-228.48 170.81,-210.47 139,-192.24 126.45,-185.05 112.83,-175.86 103.05,-169"/>
<polygon fill="midnightblue" stroke="midnightblue" points="233.82,-243.68 244.38,-244.59 236.69,-237.29 233.82,-243.68"/>
</g>
<!-- Node8 -->
<g id="node8" class="node">
<title>Node8</title>
<g id="a_node8"><a xlink:href="vi_8c.html#a0ddf1224851353fc92bfbff6f499fa97" target="_top" xlink:title=" ">
<polygon fill="white" stroke="black" points="0,-73.74 0,-92.74 38,-92.74 38,-73.74 0,-73.74"/>
<text text-anchor="middle" x="19" y="-80.74" font-family="Helvetica,sans-Serif" font-size="10.00">main</text>
</a>
</g>
</g>
<!-- Node7&#45;&gt;Node8 -->
<g id="edge7" class="edge">
<title>Node7&#45;&gt;Node8</title>
<path fill="none" stroke="midnightblue" d="M72.15,-141.95C58.71,-126.82 39.66,-105.37 28.69,-93.03"/>
<polygon fill="midnightblue" stroke="midnightblue" points="69.69,-144.46 78.95,-149.61 74.93,-139.81 69.69,-144.46"/>
</g>
<!-- Node10 -->
<g id="node10" class="node">
<title>Node10</title>
<g id="a_node10"><a xlink:href="vi_8c.html#a06cbc6eb843436a0e77e07cbab0c4538" target="_top" xlink:title=" ">
<polygon fill="white" stroke="black" points="139,-130.74 139,-149.74 201,-149.74 201,-130.74 139,-130.74"/>
<text text-anchor="middle" x="170" y="-137.74" font-family="Helvetica,sans-Serif" font-size="10.00">vc_motion</text>
</a>
</g>
</g>
<!-- Node9&#45;&gt;Node10 -->
<g id="edge9" class="edge">
<title>Node9&#45;&gt;Node10</title>
<path fill="none" stroke="midnightblue" d="M246.56,-200.37C227.35,-185.09 198.95,-162.48 183,-149.79"/>
<polygon fill="midnightblue" stroke="midnightblue" points="244.4,-203.13 254.4,-206.61 248.76,-197.65 244.4,-203.13"/>
</g>
<!-- Node10&#45;&gt;Node7 -->
<g id="edge10" class="edge">
<title>Node10&#45;&gt;Node7</title>
<path fill="none" stroke="midnightblue" d="M128.95,-149.81C119.66,-152.03 110.39,-154.25 103.17,-155.97"/>
<polygon fill="midnightblue" stroke="midnightblue" points="130.03,-153.15 138.94,-147.42 128.4,-146.34 130.03,-153.15"/>
</g>
<!-- Node11&#45;&gt;Node4 -->
<g id="edge12" class="edge">
<title>Node11&#45;&gt;Node4</title>
<path fill="none" stroke="midnightblue" d="M621.62,-199.48C610.2,-202.92 597.61,-206.73 586.77,-210"/>
<polygon fill="midnightblue" stroke="midnightblue" points="622.71,-202.8 631.28,-196.56 620.69,-196.1 622.71,-202.8"/>
</g>
<!-- Node12 -->
<g id="node12" class="node">
<title>Node12</title>
<g id="a_node12"><a xlink:href="vi_8h.html#a173bb468e1e2a066136316f98b49c108" target="_top" xlink:title=" ">
<polygon fill="white" stroke="black" points="526,-130.74 526,-149.74 591,-149.74 591,-130.74 526,-130.74"/>
<text text-anchor="middle" x="558.5" y="-137.74" font-family="Helvetica,sans-Serif" font-size="10.00">led_prompt</text>
</a>
</g>
</g>
<!-- Node11&#45;&gt;Node12 -->
<g id="edge13" class="edge">
<title>Node11&#45;&gt;Node12</title>
<path fill="none" stroke="midnightblue" d="M627.26,-174.82C611.52,-166.79 592.35,-157.01 578.43,-149.9"/>
<polygon fill="midnightblue" stroke="midnightblue" points="626.04,-178.13 636.53,-179.56 629.22,-171.9 626.04,-178.13"/>
</g>
<!-- Node13 -->
<g id="node13" class="node">
<title>Node13</title>
<g id="a_node13"><a xlink:href="vi_8h.html#a7ba56272fe1a7d523192729a0bb5edf7" target="_top" xlink:title=" ">
<polygon fill="white" stroke="black" points="242,-35.74 242,-54.74 293,-54.74 293,-35.74 242,-35.74"/>
<text text-anchor="middle" x="267.5" y="-42.74" font-family="Helvetica,sans-Serif" font-size="10.00">ex_read</text>
</a>
</g>
</g>
<!-- Node12&#45;&gt;Node13 -->
<g id="edge14" class="edge">
<title>Node12&#45;&gt;Node13</title>
<path fill="none" stroke="midnightblue" d="M521.08,-127.18C487.84,-115.37 437.28,-97.66 393,-83.24 358.62,-72.04 318.58,-60 293.39,-52.54"/>
<polygon fill="midnightblue" stroke="midnightblue" points="520.23,-130.59 530.82,-130.65 522.57,-124 520.23,-130.59"/>
</g>
<!-- Node17 -->
<g id="node17" class="node">
<title>Node17</title>
<g id="a_node17"><a xlink:href="vi_8c.html#a57965473297aad4c4333fdd3897c11f3" target="_top" xlink:title=" ">
<polygon fill="white" stroke="black" points="430,-130.74 430,-149.74 489,-149.74 489,-130.74 430,-130.74"/>
<text text-anchor="middle" x="459.5" y="-137.74" font-family="Helvetica,sans-Serif" font-size="10.00">vi_prompt</text>
</a>
</g>
</g>
<!-- Node12&#45;&gt;Node17 -->
<g id="edge20" class="edge">
<title>Node12&#45;&gt;Node17</title>
<path fill="none" stroke="midnightblue" d="M515.48,-140.24C506.56,-140.24 497.34,-140.24 489.06,-140.24"/>
<polygon fill="midnightblue" stroke="midnightblue" points="515.74,-143.74 525.74,-140.24 515.74,-136.74 515.74,-143.74"/>
</g>
<!-- Node14 -->
<g id="node14" class="node">
<title>Node14</title>
<g id="a_node14"><a xlink:href="ex_8c.html#a0908784dc65be2da119a6b72ef96dec2" target="_top" xlink:title=" ">
<polygon fill="white" stroke="black" points="142,-16.74 142,-35.74 198,-35.74 198,-16.74 142,-16.74"/>
<text text-anchor="middle" x="170" y="-23.74" font-family="Helvetica,sans-Serif" font-size="10.00">ec_insert</text>
</a>
</g>
</g>
<!-- Node13&#45;&gt;Node14 -->
<g id="edge15" class="edge">
<title>Node13&#45;&gt;Node14</title>
<path fill="none" stroke="midnightblue" d="M232.05,-38.39C220.92,-36.17 208.74,-33.75 198.2,-31.65"/>
<polygon fill="midnightblue" stroke="midnightblue" points="231.42,-41.83 241.91,-40.35 232.78,-34.96 231.42,-41.83"/>
</g>
<!-- Node15 -->
<g id="node15" class="node">
<title>Node15</title>
<g id="a_node15"><a xlink:href="vi_8h.html#ac395e51f25330a6e6033b6d0d22b2076" target="_top" xlink:title=" ">
<polygon fill="white" stroke="black" points="74,-54.74 74,-73.74 103,-73.74 103,-54.74 74,-54.74"/>
<text text-anchor="middle" x="88.5" y="-61.74" font-family="Helvetica,sans-Serif" font-size="10.00">ex</text>
</a>
</g>
</g>
<!-- Node13&#45;&gt;Node15 -->
<g id="edge16" class="edge">
<title>Node13&#45;&gt;Node15</title>
<path fill="none" stroke="midnightblue" d="M246.15,-29.67C233.82,-21.22 217.34,-11.64 201,-7.24 174.39,-0.08 164.07,4.19 139,-7.24 117.53,-17.03 101.78,-41.23 94.32,-54.74"/>
<polygon fill="midnightblue" stroke="midnightblue" points="244.17,-32.55 254.34,-35.52 248.24,-26.86 244.17,-32.55"/>
</g>
<!-- Node16 -->
<g id="node16" class="node">
<title>Node16</title>
<g id="a_node16"><a xlink:href="vi_8c.html#a9d85e9ed087401367529ab86a5dbf0c5" target="_top" xlink:title=" ">
<polygon fill="white" stroke="black" points="146.5,-54.74 146.5,-73.74 193.5,-73.74 193.5,-54.74 146.5,-54.74"/>
<text text-anchor="middle" x="170" y="-61.74" font-family="Helvetica,sans-Serif" font-size="10.00">vi_wait</text>
</a>
</g>
</g>
<!-- Node13&#45;&gt;Node16 -->
<g id="edge18" class="edge">
<title>Node13&#45;&gt;Node16</title>
<path fill="none" stroke="midnightblue" d="M232.01,-52.1C219.2,-54.65 205.02,-57.47 193.55,-59.75"/>
<polygon fill="midnightblue" stroke="midnightblue" points="232.78,-55.52 241.91,-50.13 231.42,-48.65 232.78,-55.52"/>
</g>
<!-- Node15&#45;&gt;Node8 -->
<g id="edge17" class="edge">
<title>Node15&#45;&gt;Node8</title>
<path fill="none" stroke="midnightblue" d="M64.14,-70.81C55.67,-73.2 46.22,-75.86 38.25,-78.1"/>
<polygon fill="midnightblue" stroke="midnightblue" points="65.16,-74.16 73.84,-68.08 63.27,-67.42 65.16,-74.16"/>
</g>
<!-- Node16&#45;&gt;Node7 -->
<g id="edge19" class="edge">
<title>Node16&#45;&gt;Node7</title>
<path fill="none" stroke="midnightblue" d="M147.57,-80.12C144.57,-82.7 141.62,-85.45 139,-88.24 120.52,-107.98 103.55,-135.06 95.11,-149.4"/>
<polygon fill="midnightblue" stroke="midnightblue" points="149.87,-82.76 155.45,-73.76 145.47,-77.31 149.87,-82.76"/>
</g>
<!-- Node17&#45;&gt;Node7 -->
<g id="edge21" class="edge">
<title>Node17&#45;&gt;Node7</title>
<path fill="none" stroke="midnightblue" d="M422.26,-152.72C412.85,-155.42 402.64,-157.87 393,-159.24 282.15,-174.99 146.21,-164.59 103.21,-160.6"/>
<polygon fill="midnightblue" stroke="midnightblue" points="423.55,-155.99 432.1,-149.74 421.52,-149.29 423.55,-155.99"/>
</g>
<!-- Node18 -->
<g id="node18" class="node">
<title>Node18</title>
<g id="a_node18"><a xlink:href="vi_8c.html#ab8e0c9b9d2ef5161c6a3a8828606df5f" target="_top" xlink:title=" ">
<polygon fill="white" stroke="black" points="340,-130.74 340,-149.74 387,-149.74 387,-130.74 340,-130.74"/>
<text text-anchor="middle" x="363.5" y="-137.74" font-family="Helvetica,sans-Serif" font-size="10.00">vi_pipe</text>
</a>
</g>
</g>
<!-- Node17&#45;&gt;Node18 -->
<g id="edge22" class="edge">
<title>Node17&#45;&gt;Node18</title>
<path fill="none" stroke="midnightblue" d="M419.47,-140.24C408.43,-140.24 396.79,-140.24 387.08,-140.24"/>
<polygon fill="midnightblue" stroke="midnightblue" points="419.79,-143.74 429.79,-140.24 419.79,-136.74 419.79,-143.74"/>
</g>
<!-- Node19 -->
<g id="node19" class="node">
<title>Node19</title>
<g id="a_node19"><a xlink:href="vi_8c.html#a93701c59617d4f96cbaa207e89178f87" target="_top" xlink:title=" ">
<polygon fill="white" stroke="black" points="334,-92.74 334,-111.74 393,-111.74 393,-92.74 334,-92.74"/>
<text text-anchor="middle" x="363.5" y="-99.74" font-family="Helvetica,sans-Serif" font-size="10.00">vi_search</text>
</a>
</g>
</g>
<!-- Node17&#45;&gt;Node19 -->
<g id="edge24" class="edge">
<title>Node17&#45;&gt;Node19</title>
<path fill="none" stroke="midnightblue" d="M425.32,-126.83C413.08,-121.88 399.46,-116.37 388.21,-111.83"/>
<polygon fill="midnightblue" stroke="midnightblue" points="424.2,-130.15 434.78,-130.65 426.82,-123.66 424.2,-130.15"/>
</g>
<!-- Node18&#45;&gt;Node10 -->
<g id="edge23" class="edge">
<title>Node18&#45;&gt;Node10</title>
<path fill="none" stroke="midnightblue" d="M329.78,-140.24C293.74,-140.24 236.26,-140.24 201.24,-140.24"/>
<polygon fill="midnightblue" stroke="midnightblue" points="329.78,-143.74 339.78,-140.24 329.78,-136.74 329.78,-143.74"/>
</g>
<!-- Node20 -->
<g id="node20" class="node">
<title>Node20</title>
<g id="a_node20"><a xlink:href="vi_8c.html#aaa4777ea0715ea846346d0f27a0cfa3f" target="_top" xlink:title=" ">
<polygon fill="white" stroke="black" points="238,-92.74 238,-111.74 297,-111.74 297,-92.74 238,-92.74"/>
<text text-anchor="middle" x="267.5" y="-99.74" font-family="Helvetica,sans-Serif" font-size="10.00">vi_motion</text>
</a>
</g>
</g>
<!-- Node19&#45;&gt;Node20 -->
<g id="edge25" class="edge">
<title>Node19&#45;&gt;Node20</title>
<path fill="none" stroke="midnightblue" d="M323.6,-102.24C314.71,-102.24 305.41,-102.24 297.04,-102.24"/>
<polygon fill="midnightblue" stroke="midnightblue" points="323.79,-105.74 333.79,-102.24 323.79,-98.74 323.79,-105.74"/>
</g>
<!-- Node20&#45;&gt;Node7 -->
<g id="edge27" class="edge">
<title>Node20&#45;&gt;Node7</title>
<path fill="none" stroke="midnightblue" d="M227.57,-102.99C201.59,-104.69 167.16,-109.29 139,-121.24 123.24,-127.93 108.08,-140.83 98.78,-149.74"/>
<polygon fill="midnightblue" stroke="midnightblue" points="227.99,-106.47 237.79,-102.44 227.62,-99.48 227.99,-106.47"/>
</g>
<!-- Node20&#45;&gt;Node10 -->
<g id="edge26" class="edge">
<title>Node20&#45;&gt;Node10</title>
<path fill="none" stroke="midnightblue" d="M232.79,-115.65C220.35,-120.6 206.51,-126.11 195.09,-130.65"/>
<polygon fill="midnightblue" stroke="midnightblue" points="234.4,-118.78 242.4,-111.83 231.82,-112.27 234.4,-118.78"/>
</g>
<!-- Node21&#45;&gt;Node7 -->
<g id="edge29" class="edge">
<title>Node21&#45;&gt;Node7</title>
<path fill="none" stroke="midnightblue" d="M616.55,-288.83C577.19,-290.29 514.63,-292.24 460.5,-292.24 460.5,-292.24 460.5,-292.24 266.5,-292.24 184.24,-292.24 115.82,-199.3 95.59,-168.8"/>
<polygon fill="midnightblue" stroke="midnightblue" points="616.9,-292.31 626.76,-288.44 616.64,-285.32 616.9,-292.31"/>
</g>
<!-- Node23 -->
<g id="node23" class="node">
<title>Node23</title>
<g id="a_node23"><a xlink:href="vi_8c.html#a7ace2fb061a4295d64c45c1eecae3bfb" target="_top" xlink:title=" ">
<polygon fill="white" stroke="black" points="429,-16.74 429,-35.74 490,-35.74 490,-16.74 429,-16.74"/>
<text text-anchor="middle" x="459.5" y="-23.74" font-family="Helvetica,sans-Serif" font-size="10.00">vi_nextcol</text>
</a>
</g>
</g>
<!-- Node22&#45;&gt;Node23 -->
<g id="edge32" class="edge">
<title>Node22&#45;&gt;Node23</title>
<path fill="none" stroke="midnightblue" d="M826.97,-143.69C748.29,-118.48 562.37,-58.89 490.03,-35.7"/>
<polygon fill="midnightblue" stroke="midnightblue" points="826.31,-147.16 836.9,-146.87 828.45,-140.49 826.31,-147.16"/>
</g>
<!-- Node23&#45;&gt;Node20 -->
<g id="edge33" class="edge">
<title>Node23&#45;&gt;Node20</title>
<path fill="none" stroke="midnightblue" d="M424.82,-39.71C386.77,-54.93 325.81,-79.32 292.37,-92.69"/>
<polygon fill="midnightblue" stroke="midnightblue" points="426.45,-42.83 434.44,-35.86 423.85,-36.33 426.45,-42.83"/>
</g>
</g>
</svg>
        <g id="navigator" transform="translate(0 0)" fill="#404254">
                <rect fill="#f2f5e9" fill-opacity="0.5" stroke="#606060" stroke-width=".5" x="0" y="0" width="60" height="60"/>
                <use id="zoomplus" xlink:href="#zoomPlus" x="17" y="9" onmousedown="handleZoom(evt,'in')"/>
                <use id="zoomminus" xlink:href="#zoomMin" x="42" y="9" onmousedown="handleZoom(evt,'out')"/>
                <use id="reset" xlink:href="#resetDef" x="30" y="36" onmousedown="handleReset()"/>
                <g id="arrowUp" xlink:href="#dirArrow" transform="translate(30 24)" onmousedown="handlePan(0,-1)">
                  <use xlink:href="#rim" fill="#404040">
                        <set attributeName="fill" to="#808080" begin="arrowUp.mouseover" end="arrowUp.mouseout"/>
                  </use>
                  <path fill="none" stroke="white" stroke-width="1.5" d="M0,-3.0v7 M-2.5,-0.5L0,-3.0L2.5,-0.5"/>
                </g>
                <g id="arrowRight" xlink:href="#dirArrow" transform="rotate(90) translate(36 -43)" onmousedown="handlePan(1,0)">
                  <use xlink:href="#rim" fill="#404040">
                        <set attributeName="fill" to="#808080" begin="arrowRight.mouseover" end="arrowRight.mouseout"/>
                  </use>
                  <path fill="none" stroke="white" stroke-width="1.5" d="M0,-3.0v7 M-2.5,-0.5L0,-3.0L2.5,-0.5"/>
                </g>
                <g id="arrowDown" xlink:href="#dirArrow" transform="rotate(180) translate(-30 -48)" onmousedown="handlePan(0,1)">
                  <use xlink:href="#rim" fill="#404040">
                        <set attributeName="fill" to="#808080" begin="arrowDown.mouseover" end="arrowDown.mouseout"/>
                  </use>
                  <path fill="none" stroke="white" stroke-width="1.5" d="M0,-3.0v7 M-2.5,-0.5L0,-3.0L2.5,-0.5"/>
                </g>
                <g id="arrowLeft" xlink:href="#dirArrow" transform="rotate(270) translate(-36 17)" onmousedown="handlePan(-1,0)">
                  <use xlink:href="#rim" fill="#404040">
                        <set attributeName="fill" to="#808080" begin="arrowLeft.mouseover" end="arrowLeft.mouseout"/>
                  </use>
                  <path fill="none" stroke="white" stroke-width="1.5" d="M0,-3.0v7 M-2.5,-0.5L0,-3.0L2.5,-0.5"/>
                </g>
        </g>
        <svg viewBox="0 0 15 15" width="100%" height="30px" preserveAspectRatio="xMaxYMin meet">
         <g id="arrow_out" transform="scale(0.3 0.3)">
          <a xlink:href="ren_8c_ae6c30ee4fcc67460391eaa8adc182241_icgraph_org.svg" target="_base">
           <rect id="button" ry="5" rx="5" y="6" x="6" height="38" width="38"
                fill="#f2f5e9" fill-opacity="0.5" stroke="#606060" stroke-width="1.0"/>
           <path id="arrow"
             d="M 11.500037,31.436501 C 11.940474,20.09759 22.043105,11.32322 32.158766,21.979434 L 37.068811,17.246167 C 37.068811,17.246167 37.088388,32 37.088388,32 L 22.160133,31.978069 C 22.160133,31.978069 26.997745,27.140456 26.997745,27.140456 C 18.528582,18.264221 13.291696,25.230495 11.500037,31.436501 z"
             style="fill:#404040;"/>
          </a>
         </g>
        </svg>
</svg>
