<?xml version="1.0" encoding="UTF-8" standalone="no"?>
<!DOCTYPE svg PUBLIC "-//W3C//DTD SVG 1.1//EN"
 "http://www.w3.org/Graphics/SVG/1.1/DTD/svg11.dtd">
<!-- Generated by graphviz version 2.44.1 (20200629.0846)
 -->
<!-- Title: ren_wid Pages: 1 -->
<svg width="1200pt" height="360pt"
 viewBox="0.00 0.00 1200.00 360.00" xmlns="http://www.w3.org/2000/svg" xmlns:xlink="http://www.w3.org/1999/xlink">
<g id="graph0" class="graph" transform="scale(1 1) rotate(0) translate(4 356)">
<title>ren_wid</title>
<polygon fill="white" stroke="transparent" points="-4,4 -4,-356 1196,-356 1196,4 -4,4"/>
<!-- Node1 -->
<g id="node1" class="node">
<title>Node1</title>
<g id="a_node1"><a xlink:title=" ">
<polygon fill="#bfbfbf" stroke="black" points="0,-40.5 0,-59.5 50,-59.5 50,-40.5 0,-40.5"/>
<text text-anchor="middle" x="25" y="-47.5" font-family="Helvetica,sans-Serif" font-size="10.00">ren_wid</text>
</a>
</g>
</g>
<!-- Node2 -->
<g id="node2" class="node">
<title>Node2</title>
<g id="a_node2"><a xlink:href="ren_8c.html#af6e197881adec94ce251c84adf3dd495" target="_top" xlink:title=" ">
<polygon fill="white" stroke="black" points="86,-83.5 86,-102.5 155,-102.5 155,-83.5 86,-83.5"/>
<text text-anchor="middle" x="120.5" y="-90.5" font-family="Helvetica,sans-Serif" font-size="10.00">ren_position</text>
</a>
</g>
</g>
<!-- Node1&#45;&gt;Node2 -->
<g id="edge1" class="edge">
<title>Node1&#45;&gt;Node2</title>
<path fill="none" stroke="midnightblue" d="M46.75,-59.54C59.34,-65.33 75.62,-72.82 89.58,-79.24"/>
<polygon fill="midnightblue" stroke="midnightblue" points="88.26,-82.49 98.81,-83.48 91.18,-76.13 88.26,-82.49"/>
</g>
<!-- Node30 -->
<g id="node30" class="node">
<title>Node30</title>
<g id="a_node30"><a xlink:href="uc_8c.html#a8afd7835259109c3ec7bb684d4a1f67f" target="_top" xlink:title=" ">
<polygon fill="white" stroke="black" points="431.5,-0.5 431.5,-19.5 481.5,-19.5 481.5,-0.5 431.5,-0.5"/>
<text text-anchor="middle" x="456.5" y="-7.5" font-family="Helvetica,sans-Serif" font-size="10.00">uc_slen</text>
</a>
</g>
</g>
<!-- Node1&#45;&gt;Node30 -->
<g id="edge41" class="edge">
<title>Node1&#45;&gt;Node30</title>
<path fill="none" stroke="midnightblue" d="M50.01,-47.76C122.18,-41.04 337.34,-21 421.35,-13.18"/>
<polygon fill="midnightblue" stroke="midnightblue" points="421.76,-16.66 431.39,-12.25 421.11,-9.69 421.76,-16.66"/>
</g>
<!-- Node3 -->
<g id="node3" class="node">
<title>Node3</title>
<g id="a_node3"><a xlink:href="dir_8c.html#a8703d559ca9c640b8b89c589cf75ac06" target="_top" xlink:title=" ">
<polygon fill="white" stroke="black" points="191,-105.5 191,-124.5 253,-124.5 253,-105.5 191,-105.5"/>
<text text-anchor="middle" x="222" y="-112.5" font-family="Helvetica,sans-Serif" font-size="10.00">dir_reorder</text>
</a>
</g>
</g>
<!-- Node2&#45;&gt;Node3 -->
<g id="edge2" class="edge">
<title>Node2&#45;&gt;Node3</title>
<path fill="none" stroke="midnightblue" d="M155.19,-100.45C163.45,-102.28 172.38,-104.25 180.92,-106.14"/>
<polygon fill="midnightblue" stroke="midnightblue" points="180.17,-109.56 190.69,-108.3 181.68,-102.72 180.17,-109.56"/>
</g>
<!-- Node29 -->
<g id="node29" class="node">
<title>Node29</title>
<g id="a_node29"><a xlink:href="uc_8c.html#a1764c4d0fa27bca336e5ca300ad969e7" target="_top" xlink:title=" ">
<polygon fill="white" stroke="black" points="307.5,-62.5 307.5,-81.5 360.5,-81.5 360.5,-62.5 307.5,-62.5"/>
<text text-anchor="middle" x="334" y="-69.5" font-family="Helvetica,sans-Serif" font-size="10.00">uc_chop</text>
</a>
</g>
</g>
<!-- Node2&#45;&gt;Node29 -->
<g id="edge40" class="edge">
<title>Node2&#45;&gt;Node29</title>
<path fill="none" stroke="midnightblue" d="M155.01,-89.67C193.83,-85.82 257.51,-79.5 297.25,-75.55"/>
<polygon fill="midnightblue" stroke="midnightblue" points="297.69,-79.02 307.29,-74.55 297,-72.06 297.69,-79.02"/>
</g>
<!-- Node31 -->
<g id="node31" class="node">
<title>Node31</title>
<g id="a_node31"><a xlink:href="ren_8c.html#a319a71758607f19d2beedd2bd4d3b369" target="_top" xlink:title=" ">
<polygon fill="white" stroke="black" points="194,-206.5 194,-225.5 250,-225.5 250,-206.5 194,-206.5"/>
<text text-anchor="middle" x="222" y="-213.5" font-family="Helvetica,sans-Serif" font-size="10.00">ren_cwid</text>
</a>
</g>
</g>
<!-- Node2&#45;&gt;Node31 -->
<g id="edge37" class="edge">
<title>Node2&#45;&gt;Node31</title>
<path fill="none" stroke="midnightblue" d="M129.31,-102.65C146.02,-123.31 185.46,-172.06 206.76,-198.4"/>
<polygon fill="midnightblue" stroke="midnightblue" points="204.22,-200.82 213.23,-206.39 209.66,-196.42 204.22,-200.82"/>
</g>
<!-- Node4 -->
<g id="node4" class="node">
<title>Node4</title>
<g id="a_node4"><a xlink:href="dir_8c.html#aba0a553010578626d7148da2b6551321" target="_top" xlink:title=" ">
<polygon fill="white" stroke="black" points="301.5,-168.5 301.5,-187.5 366.5,-187.5 366.5,-168.5 301.5,-168.5"/>
<text text-anchor="middle" x="334" y="-175.5" font-family="Helvetica,sans-Serif" font-size="10.00">dir_context</text>
</a>
</g>
</g>
<!-- Node3&#45;&gt;Node4 -->
<g id="edge3" class="edge">
<title>Node3&#45;&gt;Node4</title>
<path fill="none" stroke="midnightblue" d="M239.71,-124.57C257.64,-134.84 286.34,-151.28 307.18,-163.21"/>
<polygon fill="midnightblue" stroke="midnightblue" points="305.72,-166.41 316.14,-168.34 309.2,-160.33 305.72,-166.41"/>
</g>
<!-- Node17 -->
<g id="node17" class="node">
<title>Node17</title>
<g id="a_node17"><a xlink:href="dir_8c.html#a8dbcb1db32888e71e2702f7173e7cba4" target="_top" xlink:title=" ">
<polygon fill="white" stroke="black" points="312.5,-109.5 312.5,-128.5 355.5,-128.5 355.5,-109.5 312.5,-109.5"/>
<text text-anchor="middle" x="334" y="-116.5" font-family="Helvetica,sans-Serif" font-size="10.00">dir_fix</text>
</a>
</g>
</g>
<!-- Node3&#45;&gt;Node17 -->
<g id="edge19" class="edge">
<title>Node3&#45;&gt;Node17</title>
<path fill="none" stroke="midnightblue" d="M253.06,-116.09C268.36,-116.65 286.92,-117.32 302.31,-117.88"/>
<polygon fill="midnightblue" stroke="midnightblue" points="302.25,-121.38 312.37,-118.25 302.51,-114.39 302.25,-121.38"/>
</g>
<!-- Node3&#45;&gt;Node29 -->
<g id="edge33" class="edge">
<title>Node3&#45;&gt;Node29</title>
<path fill="none" stroke="midnightblue" d="M247.41,-105.46C262.65,-99.5 282.48,-91.75 299.22,-85.21"/>
<polygon fill="midnightblue" stroke="midnightblue" points="300.62,-88.42 308.66,-81.52 298.07,-81.9 300.62,-88.42"/>
</g>
<!-- Node5 -->
<g id="node5" class="node">
<title>Node5</title>
<g id="a_node5"><a xlink:href="conf_8c.html#a9e1bc5ed600c151c51d8e2342454e07c" target="_top" xlink:title=" ">
<polygon fill="white" stroke="black" points="415,-228.5 415,-247.5 498,-247.5 498,-228.5 415,-228.5"/>
<text text-anchor="middle" x="456.5" y="-235.5" font-family="Helvetica,sans-Serif" font-size="10.00">conf_dircontext</text>
</a>
</g>
</g>
<!-- Node4&#45;&gt;Node5 -->
<g id="edge4" class="edge">
<title>Node4&#45;&gt;Node5</title>
<path fill="none" stroke="midnightblue" d="M358.46,-187.69C365.15,-190.58 372.41,-193.82 379,-197 396.14,-205.28 414.99,-215.37 429.7,-223.47"/>
<polygon fill="midnightblue" stroke="midnightblue" points="428.25,-226.67 438.7,-228.47 431.65,-220.55 428.25,-226.67"/>
</g>
<!-- Node6 -->
<g id="node6" class="node">
<title>Node6</title>
<g id="a_node6"><a xlink:href="rset_8c.html#a389ec5abca88adc048a058744f2373eb" target="_top" xlink:title=" ">
<polygon fill="white" stroke="black" points="543.5,-304.5 543.5,-323.5 597.5,-323.5 597.5,-304.5 543.5,-304.5"/>
<text text-anchor="middle" x="570.5" y="-311.5" font-family="Helvetica,sans-Serif" font-size="10.00">rset_find</text>
</a>
</g>
</g>
<!-- Node4&#45;&gt;Node6 -->
<g id="edge5" class="edge">
<title>Node4&#45;&gt;Node6</title>
<path fill="none" stroke="midnightblue" d="M366.75,-178.21C402.45,-180.05 460.34,-188.08 498,-219 526.89,-242.72 508.23,-267.93 534,-295 535.19,-296.25 536.49,-297.44 537.85,-298.57"/>
<polygon fill="midnightblue" stroke="midnightblue" points="536,-301.54 546.22,-304.31 539.96,-295.77 536,-301.54"/>
</g>
<!-- Node7 -->
<g id="node7" class="node">
<title>Node7</title>
<g id="a_node7"><a xlink:href="regex_8c.html#aa085ccd05ec25e3f8053850aebc50fe3" target="_top" xlink:title=" ">
<polygon fill="white" stroke="black" points="652.5,-304.5 652.5,-323.5 703.5,-323.5 703.5,-304.5 652.5,-304.5"/>
<text text-anchor="middle" x="678" y="-311.5" font-family="Helvetica,sans-Serif" font-size="10.00">regexec</text>
</a>
</g>
</g>
<!-- Node6&#45;&gt;Node7 -->
<g id="edge6" class="edge">
<title>Node6&#45;&gt;Node7</title>
<path fill="none" stroke="midnightblue" d="M597.58,-314C611.03,-314 627.63,-314 642.16,-314"/>
<polygon fill="midnightblue" stroke="midnightblue" points="642.31,-317.5 652.31,-314 642.31,-310.5 642.31,-317.5"/>
</g>
<!-- Node8 -->
<g id="node8" class="node">
<title>Node8</title>
<g id="a_node8"><a xlink:href="regex_8c.html#aa5925e49bd18112bb37421dbde29162a" target="_top" xlink:title=" ">
<polygon fill="white" stroke="black" points="749,-266.5 749,-285.5 820,-285.5 820,-266.5 749,-266.5"/>
<text text-anchor="middle" x="784.5" y="-273.5" font-family="Helvetica,sans-Serif" font-size="10.00">re_recmatch</text>
</a>
</g>
</g>
<!-- Node7&#45;&gt;Node8 -->
<g id="edge7" class="edge">
<title>Node7&#45;&gt;Node8</title>
<path fill="none" stroke="midnightblue" d="M703.5,-305.09C716.64,-300.31 733.07,-294.34 747.62,-289.05"/>
<polygon fill="midnightblue" stroke="midnightblue" points="749.12,-292.22 757.33,-285.52 746.73,-285.65 749.12,-292.22"/>
</g>
<!-- Node14 -->
<g id="node14" class="node">
<title>Node14</title>
<g id="a_node14"><a xlink:href="regex_8c.html#a9a0d6d5f93f1eaba8b63b16903c0952d" target="_top" xlink:title=" ">
<polygon fill="white" stroke="black" points="1145.5,-304.5 1145.5,-323.5 1190.5,-323.5 1190.5,-304.5 1145.5,-304.5"/>
<text text-anchor="middle" x="1168" y="-311.5" font-family="Helvetica,sans-Serif" font-size="10.00">uc_len</text>
</a>
</g>
</g>
<!-- Node7&#45;&gt;Node14 -->
<g id="edge18" class="edge">
<title>Node7&#45;&gt;Node14</title>
<path fill="none" stroke="midnightblue" d="M703.71,-321.87C740.9,-333 813.65,-352 877,-352 877,-352 877,-352 974,-352 1031.75,-352 1097.42,-335.42 1135.34,-324.16"/>
<polygon fill="midnightblue" stroke="midnightblue" points="1136.73,-327.4 1145.28,-321.15 1134.69,-320.7 1136.73,-327.4"/>
</g>
<!-- Node9 -->
<g id="node9" class="node">
<title>Node9</title>
<g id="a_node9"><a xlink:href="regex_8c.html#a8e35614ddf21d405773327a52a95a73d" target="_top" xlink:title=" ">
<polygon fill="white" stroke="black" points="856,-256.5 856,-275.5 900,-275.5 900,-256.5 856,-256.5"/>
<text text-anchor="middle" x="878" y="-263.5" font-family="Helvetica,sans-Serif" font-size="10.00">re_rec</text>
</a>
</g>
</g>
<!-- Node8&#45;&gt;Node9 -->
<g id="edge8" class="edge">
<title>Node8&#45;&gt;Node9</title>
<path fill="none" stroke="midnightblue" d="M820.09,-272.22C828.56,-271.29 837.57,-270.31 845.87,-269.4"/>
<polygon fill="midnightblue" stroke="midnightblue" points="846.34,-272.87 855.9,-268.31 845.58,-265.91 846.34,-272.87"/>
</g>
<!-- Node10 -->
<g id="node10" class="node">
<title>Node10</title>
<g id="a_node10"><a xlink:href="regex_8c.html#a24fd1fc7457ff4f03fb384f7170ac395" target="_top" xlink:title=" ">
<polygon fill="white" stroke="black" points="936,-237.5 936,-256.5 1010,-256.5 1010,-237.5 936,-237.5"/>
<text text-anchor="middle" x="973" y="-244.5" font-family="Helvetica,sans-Serif" font-size="10.00">ratom_match</text>
</a>
</g>
</g>
<!-- Node9&#45;&gt;Node10 -->
<g id="edge9" class="edge">
<title>Node9&#45;&gt;Node10</title>
<path fill="none" stroke="midnightblue" d="M900.1,-261.69C907.73,-260.13 916.68,-258.3 925.63,-256.47"/>
<polygon fill="midnightblue" stroke="midnightblue" points="926.55,-259.86 935.65,-254.43 925.15,-253 926.55,-259.86"/>
</g>
<!-- Node11 -->
<g id="node11" class="node">
<title>Node11</title>
<g id="a_node11"><a xlink:href="regex_8c.html#aae17ed73e84075718fb04d131d6ca779" target="_top" xlink:title=" ">
<polygon fill="white" stroke="black" points="1046,-266.5 1046,-285.5 1108,-285.5 1108,-266.5 1046,-266.5"/>
<text text-anchor="middle" x="1077" y="-273.5" font-family="Helvetica,sans-Serif" font-size="10.00">brk_match</text>
</a>
</g>
</g>
<!-- Node10&#45;&gt;Node11 -->
<g id="edge10" class="edge">
<title>Node10&#45;&gt;Node11</title>
<path fill="none" stroke="midnightblue" d="M1007.68,-256.58C1016.72,-259.14 1026.57,-261.95 1035.92,-264.6"/>
<polygon fill="midnightblue" stroke="midnightblue" points="1035.22,-268.04 1045.79,-267.41 1037.13,-261.31 1035.22,-268.04"/>
</g>
<!-- Node13 -->
<g id="node13" class="node">
<title>Node13</title>
<g id="a_node13"><a xlink:href="regex_8c.html#aaf73cdb88048e7f9fd588eb8d5aeb5a3" target="_top" xlink:title=" ">
<polygon fill="white" stroke="black" points="1144,-228.5 1144,-247.5 1192,-247.5 1192,-228.5 1144,-228.5"/>
<text text-anchor="middle" x="1168" y="-235.5" font-family="Helvetica,sans-Serif" font-size="10.00">uc_dec</text>
</a>
</g>
</g>
<!-- Node10&#45;&gt;Node13 -->
<g id="edge16" class="edge">
<title>Node10&#45;&gt;Node13</title>
<path fill="none" stroke="midnightblue" d="M1010.3,-245.31C1045.83,-243.65 1099.48,-241.15 1133.87,-239.54"/>
<polygon fill="midnightblue" stroke="midnightblue" points="1134.06,-243.04 1143.89,-239.08 1133.73,-236.05 1134.06,-243.04"/>
</g>
<!-- Node10&#45;&gt;Node14 -->
<g id="edge17" class="edge">
<title>Node10&#45;&gt;Node14</title>
<path fill="none" stroke="midnightblue" d="M985.34,-256.87C998.83,-268.02 1022.49,-285.83 1046,-295 1074.95,-306.29 1110.27,-310.88 1135.26,-312.74"/>
<polygon fill="midnightblue" stroke="midnightblue" points="1135.09,-316.24 1145.29,-313.39 1135.54,-309.25 1135.09,-316.24"/>
</g>
<!-- Node15 -->
<g id="node15" class="node">
<title>Node15</title>
<g id="a_node15"><a xlink:href="regex_8c.html#a35ad3fd0dbb795e6f30404ce86a7be5b" target="_top" xlink:title=" ">
<polygon fill="white" stroke="black" points="1054.5,-190.5 1054.5,-209.5 1099.5,-209.5 1099.5,-190.5 1054.5,-190.5"/>
<text text-anchor="middle" x="1077" y="-197.5" font-family="Helvetica,sans-Serif" font-size="10.00">isword</text>
</a>
</g>
</g>
<!-- Node10&#45;&gt;Node15 -->
<g id="edge14" class="edge">
<title>Node10&#45;&gt;Node15</title>
<path fill="none" stroke="midnightblue" d="M994.64,-237.49C1009.34,-230.72 1029.32,-221.51 1045.8,-213.91"/>
<polygon fill="midnightblue" stroke="midnightblue" points="1047.42,-217.02 1055.04,-209.66 1044.49,-210.66 1047.42,-217.02"/>
</g>
<!-- Node16 -->
<g id="node16" class="node">
<title>Node16</title>
<g id="a_node16"><a xlink:href="regex_8c.html#ade3e10606e6e8866e6151fe8440d6101" target="_top" xlink:title=" ">
<polygon fill="white" stroke="black" points="1053,-152.5 1053,-171.5 1101,-171.5 1101,-152.5 1053,-152.5"/>
<text text-anchor="middle" x="1077" y="-159.5" font-family="Helvetica,sans-Serif" font-size="10.00">uc_beg</text>
</a>
</g>
</g>
<!-- Node10&#45;&gt;Node16 -->
<g id="edge15" class="edge">
<title>Node10&#45;&gt;Node16</title>
<path fill="none" stroke="midnightblue" d="M983.3,-237.46C996.58,-224.09 1022.03,-199.34 1046,-181 1047.62,-179.76 1049.31,-178.53 1051.04,-177.32"/>
<polygon fill="midnightblue" stroke="midnightblue" points="1053.36,-179.99 1059.76,-171.55 1049.49,-174.15 1053.36,-179.99"/>
</g>
<!-- Node12 -->
<g id="node12" class="node">
<title>Node12</title>
<g id="a_node12"><a xlink:href="regex_8c.html#acc18ff8d2687611a9e221b3329b02413" target="_top" xlink:title=" ">
<polygon fill="white" stroke="black" points="1144,-266.5 1144,-285.5 1192,-285.5 1192,-266.5 1144,-266.5"/>
<text text-anchor="middle" x="1168" y="-273.5" font-family="Helvetica,sans-Serif" font-size="10.00">brk_len</text>
</a>
</g>
</g>
<!-- Node11&#45;&gt;Node12 -->
<g id="edge11" class="edge">
<title>Node11&#45;&gt;Node12</title>
<path fill="none" stroke="midnightblue" d="M1108.13,-276C1116.36,-276 1125.32,-276 1133.71,-276"/>
<polygon fill="midnightblue" stroke="midnightblue" points="1133.94,-279.5 1143.94,-276 1133.94,-272.5 1133.94,-279.5"/>
</g>
<!-- Node11&#45;&gt;Node13 -->
<g id="edge12" class="edge">
<title>Node11&#45;&gt;Node13</title>
<path fill="none" stroke="midnightblue" d="M1100.46,-266.41C1111,-261.91 1123.75,-256.47 1135.25,-251.56"/>
<polygon fill="midnightblue" stroke="midnightblue" points="1136.73,-254.73 1144.55,-247.59 1133.98,-248.29 1136.73,-254.73"/>
</g>
<!-- Node11&#45;&gt;Node14 -->
<g id="edge13" class="edge">
<title>Node11&#45;&gt;Node14</title>
<path fill="none" stroke="midnightblue" d="M1100.46,-285.59C1111.24,-290.19 1124.33,-295.78 1136.04,-300.78"/>
<polygon fill="midnightblue" stroke="midnightblue" points="1134.9,-304.1 1145.47,-304.81 1137.65,-297.66 1134.9,-304.1"/>
</g>
<!-- Node18 -->
<g id="node18" class="node">
<title>Node18</title>
<g id="a_node18"><a xlink:href="dir_8c.html#a3b2f132ebfd084295e89aa35eff56ff4" target="_top" xlink:title=" ">
<polygon fill="white" stroke="black" points="427,-152.5 427,-171.5 486,-171.5 486,-152.5 427,-152.5"/>
<text text-anchor="middle" x="456.5" y="-159.5" font-family="Helvetica,sans-Serif" font-size="10.00">dir_match</text>
</a>
</g>
</g>
<!-- Node17&#45;&gt;Node18 -->
<g id="edge20" class="edge">
<title>Node17&#45;&gt;Node18</title>
<path fill="none" stroke="midnightblue" d="M355.71,-126.39C373.14,-132.61 398.47,-141.65 419.25,-149.06"/>
<polygon fill="midnightblue" stroke="midnightblue" points="418.13,-152.38 428.73,-152.45 420.48,-145.79 418.13,-152.38"/>
</g>
<!-- Node28 -->
<g id="node28" class="node">
<title>Node28</title>
<g id="a_node28"><a xlink:href="dir_8c.html#a83ed34b9263550e2ca9b15cc02294a6b" target="_top" xlink:title=" ">
<polygon fill="white" stroke="black" points="424,-109.5 424,-128.5 489,-128.5 489,-109.5 424,-109.5"/>
<text text-anchor="middle" x="456.5" y="-116.5" font-family="Helvetica,sans-Serif" font-size="10.00">dir_reverse</text>
</a>
</g>
</g>
<!-- Node17&#45;&gt;Node28 -->
<g id="edge32" class="edge">
<title>Node17&#45;&gt;Node28</title>
<path fill="none" stroke="midnightblue" d="M355.71,-119C371.57,-119 393.97,-119 413.53,-119"/>
<polygon fill="midnightblue" stroke="midnightblue" points="413.75,-122.5 423.75,-119 413.75,-115.5 413.75,-122.5"/>
</g>
<!-- Node18&#45;&gt;Node6 -->
<g id="edge22" class="edge">
<title>Node18&#45;&gt;Node6</title>
<path fill="none" stroke="midnightblue" d="M480.27,-171.72C486.73,-175.39 493.29,-180.14 498,-186 529.98,-225.75 501.16,-255.95 534,-295 534.98,-296.17 536.06,-297.28 537.2,-298.33"/>
<polygon fill="midnightblue" stroke="midnightblue" points="535.37,-301.32 545.5,-304.42 539.51,-295.68 535.37,-301.32"/>
</g>
<!-- Node19 -->
<g id="node19" class="node">
<title>Node19</title>
<g id="a_node19"><a xlink:href="conf_8c.html#a3efe6ef9cd3bd043b3df1653265409f2" target="_top" xlink:title=" ">
<polygon fill="white" stroke="black" points="534,-152.5 534,-171.5 607,-171.5 607,-152.5 534,-152.5"/>
<text text-anchor="middle" x="570.5" y="-159.5" font-family="Helvetica,sans-Serif" font-size="10.00">conf_dirmark</text>
</a>
</g>
</g>
<!-- Node18&#45;&gt;Node19 -->
<g id="edge21" class="edge">
<title>Node18&#45;&gt;Node19</title>
<path fill="none" stroke="midnightblue" d="M486.05,-162C497.51,-162 511,-162 523.75,-162"/>
<polygon fill="midnightblue" stroke="midnightblue" points="523.77,-165.5 533.77,-162 523.77,-158.5 523.77,-165.5"/>
</g>
<!-- Node20 -->
<g id="node20" class="node">
<title>Node20</title>
<g id="a_node20"><a xlink:href="sbuf_8c.html#a4e56760893d5a6797626743840c9adf2" target="_top" xlink:title=" ">
<polygon fill="white" stroke="black" points="543.5,-228.5 543.5,-247.5 597.5,-247.5 597.5,-228.5 543.5,-228.5"/>
<text text-anchor="middle" x="570.5" y="-235.5" font-family="Helvetica,sans-Serif" font-size="10.00">sbuf_buf</text>
</a>
</g>
</g>
<!-- Node18&#45;&gt;Node20 -->
<g id="edge23" class="edge">
<title>Node18&#45;&gt;Node20</title>
<path fill="none" stroke="midnightblue" d="M475.35,-171.52C482.6,-175.65 490.91,-180.74 498,-186 515.43,-198.94 516.29,-206.45 534,-219 536.1,-220.49 538.32,-221.94 540.6,-223.33"/>
<polygon fill="midnightblue" stroke="midnightblue" points="539.03,-226.47 549.45,-228.39 542.5,-220.39 539.03,-226.47"/>
</g>
<!-- Node22 -->
<g id="node22" class="node">
<title>Node22</title>
<g id="a_node22"><a xlink:href="sbuf_8c.html#a8c1a89868b1999663effb78b4f3fab32" target="_top" xlink:title=" ">
<polygon fill="white" stroke="black" points="542,-76.5 542,-95.5 599,-95.5 599,-76.5 542,-76.5"/>
<text text-anchor="middle" x="570.5" y="-83.5" font-family="Helvetica,sans-Serif" font-size="10.00">sbuf_free</text>
</a>
</g>
</g>
<!-- Node18&#45;&gt;Node22 -->
<g id="edge25" class="edge">
<title>Node18&#45;&gt;Node22</title>
<path fill="none" stroke="midnightblue" d="M475.35,-152.48C482.6,-148.35 490.91,-143.26 498,-138 515.43,-125.06 516.29,-117.55 534,-105 536.1,-103.51 538.32,-102.06 540.6,-100.67"/>
<polygon fill="midnightblue" stroke="midnightblue" points="542.5,-103.61 549.45,-95.61 539.03,-97.53 542.5,-103.61"/>
</g>
<!-- Node23 -->
<g id="node23" class="node">
<title>Node23</title>
<g id="a_node23"><a xlink:href="sbuf_8c.html#a57748585d6786a2c1aadc2cbe6f2135b" target="_top" xlink:title=" ">
<polygon fill="white" stroke="black" points="538,-266.5 538,-285.5 603,-285.5 603,-266.5 538,-266.5"/>
<text text-anchor="middle" x="570.5" y="-273.5" font-family="Helvetica,sans-Serif" font-size="10.00">sbuf_make</text>
</a>
</g>
</g>
<!-- Node18&#45;&gt;Node23 -->
<g id="edge26" class="edge">
<title>Node18&#45;&gt;Node23</title>
<path fill="none" stroke="midnightblue" d="M478.9,-171.69C485.6,-175.47 492.64,-180.27 498,-186 522.18,-211.83 509.26,-231.71 534,-257 535.24,-258.27 536.59,-259.48 538.01,-260.62"/>
<polygon fill="midnightblue" stroke="midnightblue" points="536.42,-263.77 546.67,-266.45 540.33,-257.96 536.42,-263.77"/>
</g>
<!-- Node24 -->
<g id="node24" class="node">
<title>Node24</title>
<g id="a_node24"><a xlink:href="sbuf_8c.html#aa511ac77d6b486accc01c0512ef27ed2" target="_top" xlink:title=" ">
<polygon fill="white" stroke="black" points="539.5,-190.5 539.5,-209.5 601.5,-209.5 601.5,-190.5 539.5,-190.5"/>
<text text-anchor="middle" x="570.5" y="-197.5" font-family="Helvetica,sans-Serif" font-size="10.00">sbuf_mem</text>
</a>
</g>
</g>
<!-- Node18&#45;&gt;Node24 -->
<g id="edge27" class="edge">
<title>Node18&#45;&gt;Node24</title>
<path fill="none" stroke="midnightblue" d="M485.76,-171.59C499.69,-176.31 516.68,-182.08 531.71,-187.18"/>
<polygon fill="midnightblue" stroke="midnightblue" points="530.65,-190.52 541.25,-190.41 532.9,-183.89 530.65,-190.52"/>
</g>
<!-- Node25 -->
<g id="node25" class="node">
<title>Node25</title>
<g id="a_node25"><a xlink:href="uc_8c.html#a8334cbe4db5e54e19bf79b31f68d9eb8" target="_top" xlink:title=" ">
<polygon fill="white" stroke="black" points="548.5,-114.5 548.5,-133.5 592.5,-133.5 592.5,-114.5 548.5,-114.5"/>
<text text-anchor="middle" x="570.5" y="-121.5" font-family="Helvetica,sans-Serif" font-size="10.00">uc_off</text>
</a>
</g>
</g>
<!-- Node18&#45;&gt;Node25 -->
<g id="edge29" class="edge">
<title>Node18&#45;&gt;Node25</title>
<path fill="none" stroke="midnightblue" d="M485.76,-152.41C501.86,-146.95 522.05,-140.1 538.57,-134.49"/>
<polygon fill="midnightblue" stroke="midnightblue" points="539.97,-137.71 548.32,-131.19 537.72,-131.09 539.97,-137.71"/>
</g>
<!-- Node21 -->
<g id="node21" class="node">
<title>Node21</title>
<g id="a_node21"><a xlink:href="sbuf_8c.html#a4ad75f3948c0340c342a3ea3eb63a6e6" target="_top" xlink:title=" ">
<polygon fill="white" stroke="black" points="643,-209.5 643,-228.5 713,-228.5 713,-209.5 643,-209.5"/>
<text text-anchor="middle" x="678" y="-216.5" font-family="Helvetica,sans-Serif" font-size="10.00">sbuf_extend</text>
</a>
</g>
</g>
<!-- Node20&#45;&gt;Node21 -->
<g id="edge24" class="edge">
<title>Node20&#45;&gt;Node21</title>
<path fill="none" stroke="midnightblue" d="M597.58,-233.3C608.26,-231.38 620.91,-229.1 632.95,-226.93"/>
<polygon fill="midnightblue" stroke="midnightblue" points="633.64,-230.37 642.86,-225.15 632.39,-223.48 633.64,-230.37"/>
</g>
<!-- Node24&#45;&gt;Node21 -->
<g id="edge28" class="edge">
<title>Node24&#45;&gt;Node21</title>
<path fill="none" stroke="midnightblue" d="M601.73,-205.44C611.42,-207.19 622.36,-209.16 632.83,-211.05"/>
<polygon fill="midnightblue" stroke="midnightblue" points="632.22,-214.49 642.68,-212.82 633.46,-207.6 632.22,-214.49"/>
</g>
<!-- Node26 -->
<g id="node26" class="node">
<title>Node26</title>
<g id="a_node26"><a xlink:href="uc_8c.html#a79c7c44c06c1febff5680c19667e2676" target="_top" xlink:title=" ">
<polygon fill="white" stroke="black" points="652.5,-38.5 652.5,-57.5 703.5,-57.5 703.5,-38.5 652.5,-38.5"/>
<text text-anchor="middle" x="678" y="-45.5" font-family="Helvetica,sans-Serif" font-size="10.00">uc_next</text>
</a>
</g>
</g>
<!-- Node25&#45;&gt;Node26 -->
<g id="edge30" class="edge">
<title>Node25&#45;&gt;Node26</title>
<path fill="none" stroke="midnightblue" d="M591.05,-114.4C596.35,-111.57 602,-108.33 607,-105 625.58,-92.63 645.16,-76.38 658.87,-64.4"/>
<polygon fill="midnightblue" stroke="midnightblue" points="661.42,-66.81 666.58,-57.56 656.78,-61.57 661.42,-66.81"/>
</g>
<!-- Node27 -->
<g id="node27" class="node">
<title>Node27</title>
<g id="a_node27"><a xlink:href="uc_8c.html#a616e24870a58b86644c34ee077faca11" target="_top" xlink:title=" ">
<polygon fill="white" stroke="black" points="760.5,-19.5 760.5,-38.5 808.5,-38.5 808.5,-19.5 760.5,-19.5"/>
<text text-anchor="middle" x="784.5" y="-26.5" font-family="Helvetica,sans-Serif" font-size="10.00">uc_end</text>
</a>
</g>
</g>
<!-- Node26&#45;&gt;Node27 -->
<g id="edge31" class="edge">
<title>Node26&#45;&gt;Node27</title>
<path fill="none" stroke="midnightblue" d="M703.5,-43.55C717.42,-41.01 735.04,-37.81 750.2,-35.05"/>
<polygon fill="midnightblue" stroke="midnightblue" points="751.02,-38.46 760.23,-33.23 749.76,-31.58 751.02,-38.46"/>
</g>
<!-- Node29&#45;&gt;Node26 -->
<g id="edge34" class="edge">
<title>Node29&#45;&gt;Node26</title>
<path fill="none" stroke="midnightblue" d="M360.71,-70.2C421.31,-65.94 573.2,-55.28 642.07,-50.45"/>
<polygon fill="midnightblue" stroke="midnightblue" points="642.65,-53.92 652.38,-49.73 642.16,-46.94 642.65,-53.92"/>
</g>
<!-- Node29&#45;&gt;Node30 -->
<g id="edge35" class="edge">
<title>Node29&#45;&gt;Node30</title>
<path fill="none" stroke="midnightblue" d="M353.56,-62.45C373.32,-52.28 404.8,-36.08 427.56,-24.38"/>
<polygon fill="midnightblue" stroke="midnightblue" points="429.43,-27.35 436.72,-19.66 426.22,-21.13 429.43,-27.35"/>
</g>
<!-- Node30&#45;&gt;Node27 -->
<g id="edge36" class="edge">
<title>Node30&#45;&gt;Node27</title>
<path fill="none" stroke="midnightblue" d="M481.74,-11.41C539.33,-14.77 684.45,-23.23 750.21,-27.06"/>
<polygon fill="midnightblue" stroke="midnightblue" points="750.23,-30.57 760.42,-27.65 750.64,-23.58 750.23,-30.57"/>
</g>
<!-- Node32 -->
<g id="node32" class="node">
<title>Node32</title>
<g id="a_node32"><a xlink:href="conf_8c.html#ab1da6502eeb02af2fb9fa8a84515b0b6" target="_top" xlink:title=" ">
<polygon fill="white" stroke="black" points="289,-244.5 289,-263.5 379,-263.5 379,-244.5 289,-244.5"/>
<text text-anchor="middle" x="334" y="-251.5" font-family="Helvetica,sans-Serif" font-size="10.00">conf_placeholder</text>
</a>
</g>
</g>
<!-- Node31&#45;&gt;Node32 -->
<g id="edge38" class="edge">
<title>Node31&#45;&gt;Node32</title>
<path fill="none" stroke="midnightblue" d="M250.19,-225.39C263.97,-230.15 280.91,-236 295.87,-241.17"/>
<polygon fill="midnightblue" stroke="midnightblue" points="294.76,-244.49 305.36,-244.45 297.05,-237.88 294.76,-244.49"/>
</g>
<!-- Node33 -->
<g id="node33" class="node">
<title>Node33</title>
<g id="a_node33"><a xlink:href="uc_8c.html#a45fdc2f2f3cb34515f1014bf754741bb" target="_top" xlink:title=" ">
<polygon fill="white" stroke="black" points="307.5,-206.5 307.5,-225.5 360.5,-225.5 360.5,-206.5 307.5,-206.5"/>
<text text-anchor="middle" x="334" y="-213.5" font-family="Helvetica,sans-Serif" font-size="10.00">uc_code</text>
</a>
</g>
</g>
<!-- Node31&#45;&gt;Node33 -->
<g id="edge39" class="edge">
<title>Node31&#45;&gt;Node33</title>
<path fill="none" stroke="midnightblue" d="M250.19,-216C264.35,-216 281.86,-216 297.12,-216"/>
<polygon fill="midnightblue" stroke="midnightblue" points="297.26,-219.5 307.26,-216 297.26,-212.5 297.26,-219.5"/>
</g>
</g>
</svg>
