<?xml version="1.0" encoding="UTF-8" standalone="no"?>
<!DOCTYPE svg PUBLIC "-//W3C//DTD SVG 1.1//EN"
 "http://www.w3.org/Graphics/SVG/1.1/DTD/svg11.dtd">
<!-- Generated by graphviz version 2.44.1 (20200629.0846)
 -->
<!-- Title: term_init Pages: 1 -->
<!--zoomable 256 -->
<svg id="main" version="1.1" xmlns="http://www.w3.org/2000/svg" xmlns:xlink="http://www.w3.org/1999/xlink" xml:space="preserve" onload="init(evt)">
<style type="text/css"><![CDATA[
.edge:hover path { stroke: red; }
.edge:hover polygon { stroke: red; fill: red; }
]]></style>
<script type="text/javascript"><![CDATA[
var edges = document.getElementsByTagName('g');
if (edges && edges.length) {
  for (var i=0;i<edges.length;i++) {
    if (edges[i].id.substr(0,4)=='edge') {
      edges[i].setAttribute('class','edge');
    }
  }
}
]]></script>
        <defs>
                <circle id="rim" cx="0" cy="0" r="7"/>
                <circle id="rim2" cx="0" cy="0" r="3.5"/>
                <g id="zoomPlus">
                        <use xlink:href="#rim" fill="#404040">
                                <set attributeName="fill" to="#808080" begin="zoomplus.mouseover" end="zoomplus.mouseout"/>
                        </use>
                        <path d="M-4,0h8M0,-4v8" fill="none" stroke="white" stroke-width="1.5" pointer-events="none"/>
                </g>
                <g id="zoomMin">
                        <use xlink:href="#rim" fill="#404040">
                                <set attributeName="fill" to="#808080" begin="zoomminus.mouseover" end="zoomminus.mouseout"/>
                        </use>
                        <path d="M-4,0h8" fill="none" stroke="white" stroke-width="1.5" pointer-events="none"/>
                </g>
                <g id="dirArrow">
                        <path fill="none" stroke="white" stroke-width="1.5" d="M0,-3.0v7 M-2.5,-0.5L0,-3.0L2.5,-0.5"/>
                </g>
               <g id="resetDef">
                       <use xlink:href="#rim2" fill="#404040">
                               <set attributeName="fill" to="#808080" begin="reset.mouseover" end="reset.mouseout"/>
                       </use>
               </g>
        </defs>

<script type="text/javascript">
var viewWidth = 946;
var viewHeight = 256;
var sectionId = 'dynsection-2';
</script>
<script xlink:href="svgpan.js"/>
<svg id="graph" class="graph">
<g id="viewport">
<title>term_init</title>
<polygon fill="white" stroke="transparent" points="-4,4 -4,-252 942,-252 942,4 -4,4"/>
<!-- Node1 -->
<g id="node1" class="node">
<title>Node1</title>
<g id="a_node1"><a xlink:title=" ">
<polygon fill="#bfbfbf" stroke="black" points="884,-38.5 884,-57.5 938,-57.5 938,-38.5 884,-38.5"/>
<text text-anchor="middle" x="911" y="-45.5" font-family="Helvetica,sans-Serif" font-size="10.00">term_init</text>
</a>
</g>
</g>
<!-- Node2 -->
<g id="node2" class="node">
<title>Node2</title>
<g id="a_node2"><a xlink:href="vi_8h.html#a9d4dfeb0bf734650c92cdc08c208e846" target="_top" xlink:title=" ">
<polygon fill="white" stroke="black" points="789,-133.5 789,-152.5 848,-152.5 848,-133.5 789,-133.5"/>
<text text-anchor="middle" x="818.5" y="-140.5" font-family="Helvetica,sans-Serif" font-size="10.00">cmd_pipe</text>
</a>
</g>
</g>
<!-- Node1&#45;&gt;Node2 -->
<g id="edge1" class="edge">
<title>Node1&#45;&gt;Node2</title>
<path fill="none" stroke="midnightblue" d="M893.52,-65.3C874.49,-85.28 843.86,-117.43 828.66,-133.39"/>
<polygon fill="midnightblue" stroke="midnightblue" points="896.29,-67.46 900.66,-57.81 891.22,-62.64 896.29,-67.46"/>
</g>
<!-- Node12 -->
<g id="node12" class="node">
<title>Node12</title>
<g id="a_node12"><a xlink:href="vi_8c.html#a8d808e0f3453afe6600673ee1ea5f828" target="_top" xlink:title=" ">
<polygon fill="white" stroke="black" points="82,-76.5 82,-95.5 111,-95.5 111,-76.5 82,-76.5"/>
<text text-anchor="middle" x="96.5" y="-83.5" font-family="Helvetica,sans-Serif" font-size="10.00">vi</text>
</a>
</g>
</g>
<!-- Node1&#45;&gt;Node12 -->
<g id="edge31" class="edge">
<title>Node1&#45;&gt;Node12</title>
<path fill="none" stroke="midnightblue" d="M873.46,-48C836.61,-48 778.11,-48 727.5,-48 727.5,-48 727.5,-48 296,-48 225.47,-48 143.33,-71.43 111.28,-81.49"/>
<polygon fill="midnightblue" stroke="midnightblue" points="873.71,-51.5 883.71,-48 873.71,-44.5 873.71,-51.5"/>
</g>
<!-- Node21 -->
<g id="node21" class="node">
<title>Node21</title>
<g id="a_node21"><a xlink:href="vi_8h.html#a9c73cda93070687cc3b42273d6e6f981" target="_top" xlink:title=" ">
<polygon fill="white" stroke="black" points="364,-0.5 364,-19.5 442,-19.5 442,-0.5 364,-0.5"/>
<text text-anchor="middle" x="403" y="-7.5" font-family="Helvetica,sans-Serif" font-size="10.00">term_suspend</text>
</a>
</g>
</g>
<!-- Node1&#45;&gt;Node21 -->
<g id="edge29" class="edge">
<title>Node1&#45;&gt;Node21</title>
<path fill="none" stroke="midnightblue" d="M874.07,-35.97C837.6,-24.84 779.27,-10 727.5,-10 727.5,-10 727.5,-10 616,-10 555.27,-10 484.76,-10 442.3,-10"/>
<polygon fill="midnightblue" stroke="midnightblue" points="873.17,-39.35 883.76,-38.99 875.26,-32.67 873.17,-39.35"/>
</g>
<!-- Node3 -->
<g id="node3" class="node">
<title>Node3</title>
<g id="a_node3"><a xlink:href="vi_8h.html#aa87e7b54b5a848dc2120731a0e59e09a" target="_top" xlink:title=" ">
<polygon fill="white" stroke="black" points="586,-152.5 586,-171.5 648,-171.5 648,-152.5 586,-152.5"/>
<text text-anchor="middle" x="617" y="-159.5" font-family="Helvetica,sans-Serif" font-size="10.00">cmd_exec</text>
</a>
</g>
</g>
<!-- Node2&#45;&gt;Node3 -->
<g id="edge2" class="edge">
<title>Node2&#45;&gt;Node3</title>
<path fill="none" stroke="midnightblue" d="M778.7,-146.7C740.52,-150.33 683.04,-155.81 648.16,-159.13"/>
<polygon fill="midnightblue" stroke="midnightblue" points="779.29,-150.15 788.92,-145.72 778.63,-143.19 779.29,-150.15"/>
</g>
<!-- Node4 -->
<g id="node4" class="node">
<title>Node4</title>
<g id="a_node4"><a xlink:href="ex_8c.html#adcd83f163f659bd2596bcfc25d74bde9" target="_top" xlink:title=" ">
<polygon fill="white" stroke="black" points="479.5,-114.5 479.5,-133.5 532.5,-133.5 532.5,-114.5 479.5,-114.5"/>
<text text-anchor="middle" x="506" y="-121.5" font-family="Helvetica,sans-Serif" font-size="10.00">ec_exec</text>
</a>
</g>
</g>
<!-- Node2&#45;&gt;Node4 -->
<g id="edge16" class="edge">
<title>Node2&#45;&gt;Node4</title>
<path fill="none" stroke="midnightblue" d="M778.69,-140.63C714.23,-136.68 586.83,-128.89 532.51,-125.56"/>
<polygon fill="midnightblue" stroke="midnightblue" points="778.65,-144.13 788.85,-141.25 779.08,-137.14 778.65,-144.13"/>
</g>
<!-- Node14 -->
<g id="node14" class="node">
<title>Node14</title>
<g id="a_node14"><a xlink:href="ex_8c.html#add0e79e1f1e3d45f4eaa6fbe5c1ca443" target="_top" xlink:title=" ">
<polygon fill="white" stroke="black" points="701,-228.5 701,-247.5 752,-247.5 752,-228.5 701,-228.5"/>
<text text-anchor="middle" x="726.5" y="-235.5" font-family="Helvetica,sans-Serif" font-size="10.00">ec_read</text>
</a>
</g>
</g>
<!-- Node2&#45;&gt;Node14 -->
<g id="edge17" class="edge">
<title>Node2&#45;&gt;Node14</title>
<path fill="none" stroke="midnightblue" d="M804.29,-160.77C791.93,-176.84 772.48,-200.71 753,-219 749.46,-222.32 745.34,-225.61 741.46,-228.49"/>
<polygon fill="midnightblue" stroke="midnightblue" points="807.14,-162.81 810.39,-152.73 801.56,-158.58 807.14,-162.81"/>
</g>
<!-- Node15 -->
<g id="node15" class="node">
<title>Node15</title>
<g id="a_node15"><a xlink:href="ex_8c.html#a057b67e2d4f23df3ad50a9d3ec86125b" target="_top" xlink:title=" ">
<polygon fill="white" stroke="black" points="700,-190.5 700,-209.5 753,-209.5 753,-190.5 700,-190.5"/>
<text text-anchor="middle" x="726.5" y="-197.5" font-family="Helvetica,sans-Serif" font-size="10.00">ec_write</text>
</a>
</g>
</g>
<!-- Node2&#45;&gt;Node15 -->
<g id="edge18" class="edge">
<title>Node2&#45;&gt;Node15</title>
<path fill="none" stroke="midnightblue" d="M793.78,-158.02C777.55,-168.3 756.51,-181.62 742.54,-190.47"/>
<polygon fill="midnightblue" stroke="midnightblue" points="795.66,-160.98 802.23,-152.67 791.91,-155.06 795.66,-160.98"/>
</g>
<!-- Node19 -->
<g id="node19" class="node">
<title>Node19</title>
<g id="a_node19"><a xlink:href="vi_8c.html#ab8e0c9b9d2ef5161c6a3a8828606df5f" target="_top" xlink:title=" ">
<polygon fill="white" stroke="black" points="703,-76.5 703,-95.5 750,-95.5 750,-76.5 703,-76.5"/>
<text text-anchor="middle" x="726.5" y="-83.5" font-family="Helvetica,sans-Serif" font-size="10.00">vi_pipe</text>
</a>
</g>
</g>
<!-- Node2&#45;&gt;Node19 -->
<g id="edge26" class="edge">
<title>Node2&#45;&gt;Node19</title>
<path fill="none" stroke="midnightblue" d="M793.78,-127.98C777.55,-117.7 756.51,-104.38 742.54,-95.53"/>
<polygon fill="midnightblue" stroke="midnightblue" points="791.91,-130.94 802.23,-133.33 795.66,-125.02 791.91,-130.94"/>
</g>
<!-- Node3&#45;&gt;Node4 -->
<g id="edge3" class="edge">
<title>Node3&#45;&gt;Node4</title>
<path fill="none" stroke="midnightblue" d="M578.84,-149.05C563.63,-143.74 546.4,-137.73 532.62,-132.93"/>
<polygon fill="midnightblue" stroke="midnightblue" points="577.9,-152.42 588.49,-152.41 580.2,-145.81 577.9,-152.42"/>
</g>
<!-- Node13 -->
<g id="node13" class="node">
<title>Node13</title>
<g id="a_node13"><a xlink:href="ex_8c.html#aa69f426ff9728078fbb36f448c624a90" target="_top" xlink:title=" ">
<polygon fill="white" stroke="black" points="478,-152.5 478,-171.5 534,-171.5 534,-152.5 478,-152.5"/>
<text text-anchor="middle" x="506" y="-159.5" font-family="Helvetica,sans-Serif" font-size="10.00">ec_make</text>
</a>
</g>
</g>
<!-- Node3&#45;&gt;Node13 -->
<g id="edge15" class="edge">
<title>Node3&#45;&gt;Node13</title>
<path fill="none" stroke="midnightblue" d="M575.71,-162C561.95,-162 546.87,-162 534.36,-162"/>
<polygon fill="midnightblue" stroke="midnightblue" points="575.93,-165.5 585.93,-162 575.93,-158.5 575.93,-165.5"/>
</g>
<!-- Node5 -->
<g id="node5" class="node">
<title>Node5</title>
<g id="a_node5"><a xlink:href="ex_8c.html#a7d848d20211b2e1c868dde98ec5dfae9" target="_top" xlink:title=" ">
<polygon fill="white" stroke="black" points="379.5,-114.5 379.5,-133.5 426.5,-133.5 426.5,-114.5 379.5,-114.5"/>
<text text-anchor="middle" x="403" y="-121.5" font-family="Helvetica,sans-Serif" font-size="10.00">ex_line</text>
</a>
</g>
</g>
<!-- Node4&#45;&gt;Node5 -->
<g id="edge4" class="edge">
<title>Node4&#45;&gt;Node5</title>
<path fill="none" stroke="midnightblue" d="M468.87,-124C454.77,-124 439.04,-124 426.61,-124"/>
<polygon fill="midnightblue" stroke="midnightblue" points="469.25,-127.5 479.25,-124 469.25,-120.5 469.25,-127.5"/>
</g>
<!-- Node6 -->
<g id="node6" class="node">
<title>Node6</title>
<g id="a_node6"><a xlink:href="ex_8c.html#ab15ebfef933256d9741128e2ddf3f9b5" target="_top" xlink:title=" ">
<polygon fill="white" stroke="black" points="270.5,-152.5 270.5,-171.5 323.5,-171.5 323.5,-152.5 270.5,-152.5"/>
<text text-anchor="middle" x="297" y="-159.5" font-family="Helvetica,sans-Serif" font-size="10.00">ex_exec</text>
</a>
</g>
</g>
<!-- Node5&#45;&gt;Node6 -->
<g id="edge5" class="edge">
<title>Node5&#45;&gt;Node6</title>
<path fill="none" stroke="midnightblue" d="M369.69,-135.81C354.93,-141.2 337.69,-147.5 323.82,-152.57"/>
<polygon fill="midnightblue" stroke="midnightblue" points="371.24,-138.96 379.43,-132.25 368.84,-132.39 371.24,-138.96"/>
</g>
<!-- Node7 -->
<g id="node7" class="node">
<title>Node7</title>
<g id="a_node7"><a xlink:href="ex_8c.html#a70c571bdde329a65e216c19b4aeaa628" target="_top" xlink:title=" ">
<polygon fill="white" stroke="black" points="167.5,-114.5 167.5,-133.5 217.5,-133.5 217.5,-114.5 167.5,-114.5"/>
<text text-anchor="middle" x="192.5" y="-121.5" font-family="Helvetica,sans-Serif" font-size="10.00">ec_glob</text>
</a>
</g>
</g>
<!-- Node6&#45;&gt;Node7 -->
<g id="edge6" class="edge">
<title>Node6&#45;&gt;Node7</title>
<path fill="none" stroke="midnightblue" d="M260.91,-148.99C246.68,-143.72 230.6,-137.76 217.72,-132.98"/>
<polygon fill="midnightblue" stroke="midnightblue" points="259.81,-152.31 270.4,-152.51 262.24,-145.75 259.81,-152.31"/>
</g>
<!-- Node8 -->
<g id="node8" class="node">
<title>Node8</title>
<g id="a_node8"><a xlink:href="vi_8h.html#aa75c73cccb4878ec06ea5bf5b1b02295" target="_top" xlink:title=" ">
<polygon fill="white" stroke="black" points="155,-152.5 155,-171.5 230,-171.5 230,-152.5 155,-152.5"/>
<text text-anchor="middle" x="192.5" y="-159.5" font-family="Helvetica,sans-Serif" font-size="10.00">ex_command</text>
</a>
</g>
</g>
<!-- Node6&#45;&gt;Node8 -->
<g id="edge8" class="edge">
<title>Node6&#45;&gt;Node8</title>
<path fill="none" stroke="midnightblue" d="M260.29,-162C250.61,-162 240.11,-162 230.37,-162"/>
<polygon fill="midnightblue" stroke="midnightblue" points="260.4,-165.5 270.4,-162 260.4,-158.5 260.4,-165.5"/>
</g>
<!-- Node7&#45;&gt;Node5 -->
<g id="edge7" class="edge">
<title>Node7&#45;&gt;Node5</title>
<path fill="none" stroke="midnightblue" d="M228.02,-124C270.89,-124 342.8,-124 379.29,-124"/>
<polygon fill="midnightblue" stroke="midnightblue" points="227.79,-120.5 217.79,-124 227.79,-127.5 227.79,-120.5"/>
</g>
<!-- Node9 -->
<g id="node9" class="node">
<title>Node9</title>
<g id="a_node9"><a xlink:href="vi_8h.html#ac395e51f25330a6e6033b6d0d22b2076" target="_top" xlink:title=" ">
<polygon fill="white" stroke="black" points="82,-133.5 82,-152.5 111,-152.5 111,-133.5 82,-133.5"/>
<text text-anchor="middle" x="96.5" y="-140.5" font-family="Helvetica,sans-Serif" font-size="10.00">ex</text>
</a>
</g>
</g>
<!-- Node8&#45;&gt;Node9 -->
<g id="edge9" class="edge">
<title>Node8&#45;&gt;Node9</title>
<path fill="none" stroke="midnightblue" d="M144.73,-152.55C132.54,-150.08 120.33,-147.61 111.38,-145.8"/>
<polygon fill="midnightblue" stroke="midnightblue" points="144.39,-156.05 154.89,-154.6 145.78,-149.19 144.39,-156.05"/>
</g>
<!-- Node11 -->
<g id="node11" class="node">
<title>Node11</title>
<g id="a_node11"><a xlink:href="vi_8h.html#abe53b5c10f94f20cd5ed024371615fa1" target="_top" xlink:title=" ">
<polygon fill="white" stroke="black" points="74,-171.5 74,-190.5 119,-190.5 119,-171.5 74,-171.5"/>
<text text-anchor="middle" x="96.5" y="-178.5" font-family="Helvetica,sans-Serif" font-size="10.00">ex_init</text>
</a>
</g>
</g>
<!-- Node8&#45;&gt;Node11 -->
<g id="edge11" class="edge">
<title>Node8&#45;&gt;Node11</title>
<path fill="none" stroke="midnightblue" d="M144.85,-171.43C135.89,-173.24 126.91,-175.06 119.21,-176.61"/>
<polygon fill="midnightblue" stroke="midnightblue" points="145.78,-174.81 154.89,-169.4 144.39,-167.95 145.78,-174.81"/>
</g>
<!-- Node8&#45;&gt;Node12 -->
<g id="edge13" class="edge">
<title>Node8&#45;&gt;Node12</title>
<path fill="none" stroke="midnightblue" d="M161.54,-147.37C159.28,-145.97 157.07,-144.51 155,-143 135.47,-128.75 116.23,-107.92 105.7,-95.78"/>
<polygon fill="midnightblue" stroke="midnightblue" points="159.97,-150.5 170.39,-152.39 163.42,-144.41 159.97,-150.5"/>
</g>
<!-- Node10 -->
<g id="node10" class="node">
<title>Node10</title>
<g id="a_node10"><a xlink:href="vi_8c.html#a0ddf1224851353fc92bfbff6f499fa97" target="_top" xlink:title=" ">
<polygon fill="white" stroke="black" points="0,-133.5 0,-152.5 38,-152.5 38,-133.5 0,-133.5"/>
<text text-anchor="middle" x="19" y="-140.5" font-family="Helvetica,sans-Serif" font-size="10.00">main</text>
</a>
</g>
</g>
<!-- Node9&#45;&gt;Node10 -->
<g id="edge10" class="edge">
<title>Node9&#45;&gt;Node10</title>
<path fill="none" stroke="midnightblue" d="M71.55,-143C60.69,-143 48.07,-143 38.04,-143"/>
<polygon fill="midnightblue" stroke="midnightblue" points="71.65,-146.5 81.65,-143 71.65,-139.5 71.65,-146.5"/>
</g>
<!-- Node11&#45;&gt;Node10 -->
<g id="edge12" class="edge">
<title>Node11&#45;&gt;Node10</title>
<path fill="none" stroke="midnightblue" d="M67.4,-166.86C57.57,-161.91 46.79,-156.49 38.01,-152.06"/>
<polygon fill="midnightblue" stroke="midnightblue" points="65.94,-170.04 76.45,-171.41 69.09,-163.79 65.94,-170.04"/>
</g>
<!-- Node12&#45;&gt;Node10 -->
<g id="edge14" class="edge">
<title>Node12&#45;&gt;Node10</title>
<path fill="none" stroke="midnightblue" d="M74.46,-101.88C61.01,-112.04 44.01,-124.87 32.62,-133.47"/>
<polygon fill="midnightblue" stroke="midnightblue" points="76.82,-104.49 82.69,-95.67 72.6,-98.9 76.82,-104.49"/>
</g>
<!-- Node16 -->
<g id="node16" class="node">
<title>Node16</title>
<g id="a_node16"><a xlink:href="ex_8c.html#ab0cb848a971a3b2c09fcb456d887dd6b" target="_top" xlink:title=" ">
<polygon fill="white" stroke="black" points="570,-190.5 570,-209.5 664,-209.5 664,-190.5 570,-190.5"/>
<text text-anchor="middle" x="617" y="-197.5" font-family="Helvetica,sans-Serif" font-size="10.00">ex_modifiedbuffer</text>
</a>
</g>
</g>
<!-- Node15&#45;&gt;Node16 -->
<g id="edge19" class="edge">
<title>Node15&#45;&gt;Node16</title>
<path fill="none" stroke="midnightblue" d="M689.49,-200C681.36,-200 672.62,-200 664.14,-200"/>
<polygon fill="midnightblue" stroke="midnightblue" points="689.75,-203.5 699.75,-200 689.75,-196.5 689.75,-203.5"/>
</g>
<!-- Node16&#45;&gt;Node4 -->
<g id="edge22" class="edge">
<title>Node16&#45;&gt;Node4</title>
<path fill="none" stroke="midnightblue" d="M578.12,-185.9C575.29,-184.39 572.55,-182.75 570,-181 550.83,-167.82 551.6,-158.21 534,-143 530.18,-139.7 525.8,-136.43 521.69,-133.55"/>
<polygon fill="midnightblue" stroke="midnightblue" points="576.77,-189.14 587.3,-190.34 579.81,-182.84 576.77,-189.14"/>
</g>
<!-- Node16&#45;&gt;Node13 -->
<g id="edge23" class="edge">
<title>Node16&#45;&gt;Node13</title>
<path fill="none" stroke="midnightblue" d="M578.71,-187C564.08,-181.9 547.59,-176.15 534.12,-171.45"/>
<polygon fill="midnightblue" stroke="midnightblue" points="577.9,-190.42 588.49,-190.41 580.2,-183.81 577.9,-190.42"/>
</g>
<!-- Node17 -->
<g id="node17" class="node">
<title>Node17</title>
<g id="a_node17"><a xlink:href="ex_8c.html#a8059390ad69866fa8e14bdb2521d4dc2" target="_top" xlink:title=" ">
<polygon fill="white" stroke="black" points="379,-190.5 379,-209.5 427,-209.5 427,-190.5 379,-190.5"/>
<text text-anchor="middle" x="403" y="-197.5" font-family="Helvetica,sans-Serif" font-size="10.00">ec_edit</text>
</a>
</g>
</g>
<!-- Node16&#45;&gt;Node17 -->
<g id="edge20" class="edge">
<title>Node16&#45;&gt;Node17</title>
<path fill="none" stroke="midnightblue" d="M559.86,-200C516.48,-200 458.65,-200 427.04,-200"/>
<polygon fill="midnightblue" stroke="midnightblue" points="560,-203.5 570,-200 560,-196.5 560,-203.5"/>
</g>
<!-- Node18 -->
<g id="node18" class="node">
<title>Node18</title>
<g id="a_node18"><a xlink:href="ex_8c.html#a87eef446de152fad41ce88a9a343b87d" target="_top" xlink:title=" ">
<polygon fill="white" stroke="black" points="482,-228.5 482,-247.5 530,-247.5 530,-228.5 482,-228.5"/>
<text text-anchor="middle" x="506" y="-235.5" font-family="Helvetica,sans-Serif" font-size="10.00">ec_quit</text>
</a>
</g>
</g>
<!-- Node16&#45;&gt;Node18 -->
<g id="edge24" class="edge">
<title>Node16&#45;&gt;Node18</title>
<path fill="none" stroke="midnightblue" d="M578.79,-212.97C562.63,-218.61 544.21,-225.03 530.07,-229.96"/>
<polygon fill="midnightblue" stroke="midnightblue" points="580.2,-216.19 588.49,-209.59 577.9,-209.58 580.2,-216.19"/>
</g>
<!-- Node17&#45;&gt;Node11 -->
<g id="edge21" class="edge">
<title>Node17&#45;&gt;Node11</title>
<path fill="none" stroke="midnightblue" d="M368.73,-197.92C306.04,-194.01 172.01,-185.65 119.37,-182.36"/>
<polygon fill="midnightblue" stroke="midnightblue" points="368.66,-201.43 378.86,-198.56 369.1,-194.44 368.66,-201.43"/>
</g>
<!-- Node18&#45;&gt;Node15 -->
<g id="edge25" class="edge">
<title>Node18&#45;&gt;Node15</title>
<path fill="none" stroke="midnightblue" d="M540.23,-235.72C572.2,-233.11 621.78,-228 664,-219 675.91,-216.46 688.83,-212.64 699.74,-209.09"/>
<polygon fill="midnightblue" stroke="midnightblue" points="539.79,-232.24 530.09,-236.51 540.33,-239.22 539.79,-232.24"/>
</g>
<!-- Node20 -->
<g id="node20" class="node">
<title>Node20</title>
<g id="a_node20"><a xlink:href="vi_8c.html#a06cbc6eb843436a0e77e07cbab0c4538" target="_top" xlink:title=" ">
<polygon fill="white" stroke="black" points="266,-76.5 266,-95.5 328,-95.5 328,-76.5 266,-76.5"/>
<text text-anchor="middle" x="297" y="-83.5" font-family="Helvetica,sans-Serif" font-size="10.00">vc_motion</text>
</a>
</g>
</g>
<!-- Node19&#45;&gt;Node20 -->
<g id="edge27" class="edge">
<title>Node19&#45;&gt;Node20</title>
<path fill="none" stroke="midnightblue" d="M692.76,-86C612.28,-86 405.7,-86 328.08,-86"/>
<polygon fill="midnightblue" stroke="midnightblue" points="692.82,-89.5 702.82,-86 692.82,-82.5 692.82,-89.5"/>
</g>
<!-- Node20&#45;&gt;Node12 -->
<g id="edge28" class="edge">
<title>Node20&#45;&gt;Node12</title>
<path fill="none" stroke="midnightblue" d="M255.59,-86C210.8,-86 140.97,-86 111.44,-86"/>
<polygon fill="midnightblue" stroke="midnightblue" points="255.85,-89.5 265.85,-86 255.85,-82.5 255.85,-89.5"/>
</g>
<!-- Node21&#45;&gt;Node12 -->
<g id="edge30" class="edge">
<title>Node21&#45;&gt;Node12</title>
<path fill="none" stroke="midnightblue" d="M353.56,-5.97C302.06,-3.64 219.34,-5.57 155,-34 133.58,-43.46 114.71,-64.09 104.83,-76.33"/>
<polygon fill="midnightblue" stroke="midnightblue" points="353.58,-9.48 363.75,-6.51 353.94,-2.49 353.58,-9.48"/>
</g>
</g>
</svg>
        <g id="navigator" transform="translate(0 0)" fill="#404254">
                <rect fill="#f2f5e9" fill-opacity="0.5" stroke="#606060" stroke-width=".5" x="0" y="0" width="60" height="60"/>
                <use id="zoomplus" xlink:href="#zoomPlus" x="17" y="9" onmousedown="handleZoom(evt,'in')"/>
                <use id="zoomminus" xlink:href="#zoomMin" x="42" y="9" onmousedown="handleZoom(evt,'out')"/>
                <use id="reset" xlink:href="#resetDef" x="30" y="36" onmousedown="handleReset()"/>
                <g id="arrowUp" xlink:href="#dirArrow" transform="translate(30 24)" onmousedown="handlePan(0,-1)">
                  <use xlink:href="#rim" fill="#404040">
                        <set attributeName="fill" to="#808080" begin="arrowUp.mouseover" end="arrowUp.mouseout"/>
                  </use>
                  <path fill="none" stroke="white" stroke-width="1.5" d="M0,-3.0v7 M-2.5,-0.5L0,-3.0L2.5,-0.5"/>
                </g>
                <g id="arrowRight" xlink:href="#dirArrow" transform="rotate(90) translate(36 -43)" onmousedown="handlePan(1,0)">
                  <use xlink:href="#rim" fill="#404040">
                        <set attributeName="fill" to="#808080" begin="arrowRight.mouseover" end="arrowRight.mouseout"/>
                  </use>
                  <path fill="none" stroke="white" stroke-width="1.5" d="M0,-3.0v7 M-2.5,-0.5L0,-3.0L2.5,-0.5"/>
                </g>
                <g id="arrowDown" xlink:href="#dirArrow" transform="rotate(180) translate(-30 -48)" onmousedown="handlePan(0,1)">
                  <use xlink:href="#rim" fill="#404040">
                        <set attributeName="fill" to="#808080" begin="arrowDown.mouseover" end="arrowDown.mouseout"/>
                  </use>
                  <path fill="none" stroke="white" stroke-width="1.5" d="M0,-3.0v7 M-2.5,-0.5L0,-3.0L2.5,-0.5"/>
                </g>
                <g id="arrowLeft" xlink:href="#dirArrow" transform="rotate(270) translate(-36 17)" onmousedown="handlePan(-1,0)">
                  <use xlink:href="#rim" fill="#404040">
                        <set attributeName="fill" to="#808080" begin="arrowLeft.mouseover" end="arrowLeft.mouseout"/>
                  </use>
                  <path fill="none" stroke="white" stroke-width="1.5" d="M0,-3.0v7 M-2.5,-0.5L0,-3.0L2.5,-0.5"/>
                </g>
        </g>
        <svg viewBox="0 0 15 15" width="100%" height="30px" preserveAspectRatio="xMaxYMin meet">
         <g id="arrow_out" transform="scale(0.3 0.3)">
          <a xlink:href="term_8c_ac7072b9c76dd77ce9900197d0133b0ba_icgraph_org.svg" target="_base">
           <rect id="button" ry="5" rx="5" y="6" x="6" height="38" width="38"
                fill="#f2f5e9" fill-opacity="0.5" stroke="#606060" stroke-width="1.0"/>
           <path id="arrow"
             d="M 11.500037,31.436501 C 11.940474,20.09759 22.043105,11.32322 32.158766,21.979434 L 37.068811,17.246167 C 37.068811,17.246167 37.088388,32 37.088388,32 L 22.160133,31.978069 C 22.160133,31.978069 26.997745,27.140456 26.997745,27.140456 C 18.528582,18.264221 13.291696,25.230495 11.500037,31.436501 z"
             style="fill:#404040;"/>
          </a>
         </g>
        </svg>
</svg>
