<?xml version="1.0" encoding="UTF-8" standalone="no"?>
<!DOCTYPE svg PUBLIC "-//W3C//DTD SVG 1.1//EN"
 "http://www.w3.org/Graphics/SVG/1.1/DTD/svg11.dtd">
<!-- Generated by graphviz version 2.44.1 (20200629.0846)
 -->
<!-- Title: term_chr Pages: 1 -->
<!--zoomable 540 -->
<svg id="main" version="1.1" xmlns="http://www.w3.org/2000/svg" xmlns:xlink="http://www.w3.org/1999/xlink" xml:space="preserve" onload="init(evt)">
<style type="text/css"><![CDATA[
.edge:hover path { stroke: red; }
.edge:hover polygon { stroke: red; fill: red; }
]]></style>
<script type="text/javascript"><![CDATA[
var edges = document.getElementsByTagName('g');
if (edges && edges.length) {
  for (var i=0;i<edges.length;i++) {
    if (edges[i].id.substr(0,4)=='edge') {
      edges[i].setAttribute('class','edge');
    }
  }
}
]]></script>
        <defs>
                <circle id="rim" cx="0" cy="0" r="7"/>
                <circle id="rim2" cx="0" cy="0" r="3.5"/>
                <g id="zoomPlus">
                        <use xlink:href="#rim" fill="#404040">
                                <set attributeName="fill" to="#808080" begin="zoomplus.mouseover" end="zoomplus.mouseout"/>
                        </use>
                        <path d="M-4,0h8M0,-4v8" fill="none" stroke="white" stroke-width="1.5" pointer-events="none"/>
                </g>
                <g id="zoomMin">
                        <use xlink:href="#rim" fill="#404040">
                                <set attributeName="fill" to="#808080" begin="zoomminus.mouseover" end="zoomminus.mouseout"/>
                        </use>
                        <path d="M-4,0h8" fill="none" stroke="white" stroke-width="1.5" pointer-events="none"/>
                </g>
                <g id="dirArrow">
                        <path fill="none" stroke="white" stroke-width="1.5" d="M0,-3.0v7 M-2.5,-0.5L0,-3.0L2.5,-0.5"/>
                </g>
               <g id="resetDef">
                       <use xlink:href="#rim2" fill="#404040">
                               <set attributeName="fill" to="#808080" begin="reset.mouseover" end="reset.mouseout"/>
                       </use>
               </g>
        </defs>

<script type="text/javascript">
var viewWidth = 1013;
var viewHeight = 540;
var sectionId = 'dynsection-16';
</script>
<script xlink:href="svgpan.js"/>
<svg id="graph" class="graph">
<g id="viewport">
<title>term_chr</title>
<polygon fill="white" stroke="transparent" points="-4,4 -4,-536 1009,-536 1009,4 -4,4"/>
<!-- Node1 -->
<g id="node1" class="node">
<title>Node1</title>
<g id="a_node1"><a xlink:title=" ">
<polygon fill="#bfbfbf" stroke="black" points="950,-256.5 950,-275.5 1005,-275.5 1005,-256.5 950,-256.5"/>
<text text-anchor="middle" x="977.5" y="-263.5" font-family="Helvetica,sans-Serif" font-size="10.00">term_chr</text>
</a>
</g>
</g>
<!-- Node2 -->
<g id="node2" class="node">
<title>Node2</title>
<g id="a_node2"><a xlink:href="vi_8h.html#a075721180ea187be49c7164dcff34122" target="_top" xlink:title=" ">
<polygon fill="white" stroke="black" points="767,-332.5 767,-351.5 818,-351.5 818,-332.5 767,-332.5"/>
<text text-anchor="middle" x="792.5" y="-339.5" font-family="Helvetica,sans-Serif" font-size="10.00">ex_print</text>
</a>
</g>
</g>
<!-- Node1&#45;&gt;Node2 -->
<g id="edge1" class="edge">
<title>Node1&#45;&gt;Node2</title>
<path fill="none" stroke="midnightblue" d="M944.06,-279.47C907.42,-294.69 848.7,-319.08 816.49,-332.45"/>
<polygon fill="midnightblue" stroke="midnightblue" points="945.43,-282.69 953.32,-275.63 942.75,-276.23 945.43,-282.69"/>
</g>
<!-- Node22 -->
<g id="node22" class="node">
<title>Node22</title>
<g id="a_node22"><a xlink:href="vi_8h.html#a7ba56272fe1a7d523192729a0bb5edf7" target="_top" xlink:title=" ">
<polygon fill="white" stroke="black" points="271,-275.5 271,-294.5 322,-294.5 322,-275.5 271,-275.5"/>
<text text-anchor="middle" x="296.5" y="-282.5" font-family="Helvetica,sans-Serif" font-size="10.00">ex_read</text>
</a>
</g>
</g>
<!-- Node1&#45;&gt;Node22 -->
<g id="edge28" class="edge">
<title>Node1&#45;&gt;Node22</title>
<path fill="none" stroke="midnightblue" d="M972.89,-285.79C960.4,-347.46 913.02,-532 793.5,-532 793.5,-532 793.5,-532 476,-532 356.69,-532 309.07,-340.35 299.42,-294.68"/>
<polygon fill="midnightblue" stroke="midnightblue" points="976.36,-286.27 974.83,-275.78 969.49,-284.94 976.36,-286.27"/>
</g>
<!-- Node25 -->
<g id="node25" class="node">
<title>Node25</title>
<g id="a_node25"><a xlink:href="vi_8h.html#ad27b2fbb84601eb4c5af3b1f28feac75" target="_top" xlink:title=" ">
<polygon fill="white" stroke="black" points="858,-199.5 858,-218.5 914,-218.5 914,-199.5 858,-199.5"/>
<text text-anchor="middle" x="886" y="-206.5" font-family="Helvetica,sans-Serif" font-size="10.00">ex_show</text>
</a>
</g>
</g>
<!-- Node1&#45;&gt;Node25 -->
<g id="edge33" class="edge">
<title>Node1&#45;&gt;Node25</title>
<path fill="none" stroke="midnightblue" d="M952.47,-250.69C936.38,-240.45 915.73,-227.29 901.96,-218.53"/>
<polygon fill="midnightblue" stroke="midnightblue" points="951,-253.91 961.32,-256.33 954.76,-248.01 951,-253.91"/>
</g>
<!-- Node29 -->
<g id="node29" class="node">
<title>Node29</title>
<g id="a_node29"><a xlink:href="vi_8h.html#ae72255a31cec31233723c101d9465d07" target="_top" xlink:title=" ">
<polygon fill="white" stroke="black" points="858,-66.5 858,-85.5 914,-85.5 914,-66.5 858,-66.5"/>
<text text-anchor="middle" x="886" y="-73.5" font-family="Helvetica,sans-Serif" font-size="10.00">led_input</text>
</a>
</g>
</g>
<!-- Node1&#45;&gt;Node29 -->
<g id="edge46" class="edge">
<title>Node1&#45;&gt;Node29</title>
<path fill="none" stroke="midnightblue" d="M967.64,-247.18C948.91,-207.43 905.88,-116.09 891.66,-85.89"/>
<polygon fill="midnightblue" stroke="midnightblue" points="964.51,-248.76 971.94,-256.32 970.84,-245.78 964.51,-248.76"/>
</g>
<!-- Node3 -->
<g id="node3" class="node">
<title>Node3</title>
<g id="a_node3"><a xlink:href="ex_8c.html#a86b4adba0c96621f01383b9bacba4a01" target="_top" xlink:title=" ">
<polygon fill="white" stroke="black" points="671,-408.5 671,-427.5 727,-427.5 727,-408.5 671,-408.5"/>
<text text-anchor="middle" x="699" y="-415.5" font-family="Helvetica,sans-Serif" font-size="10.00">ec_cmap</text>
</a>
</g>
</g>
<!-- Node2&#45;&gt;Node3 -->
<g id="edge2" class="edge">
<title>Node2&#45;&gt;Node3</title>
<path fill="none" stroke="midnightblue" d="M772.14,-358.08C753.75,-373.35 726.71,-395.82 711.49,-408.45"/>
<polygon fill="midnightblue" stroke="midnightblue" points="774.46,-360.71 779.91,-351.63 769.98,-355.32 774.46,-360.71"/>
</g>
<!-- Node4 -->
<g id="node4" class="node">
<title>Node4</title>
<g id="a_node4"><a xlink:href="ex_8c.html#adcd83f163f659bd2596bcfc25d74bde9" target="_top" xlink:title=" ">
<polygon fill="white" stroke="black" points="450.5,-180.5 450.5,-199.5 503.5,-199.5 503.5,-180.5 450.5,-180.5"/>
<text text-anchor="middle" x="477" y="-187.5" font-family="Helvetica,sans-Serif" font-size="10.00">ec_exec</text>
</a>
</g>
</g>
<!-- Node2&#45;&gt;Node4 -->
<g id="edge3" class="edge">
<title>Node2&#45;&gt;Node4</title>
<path fill="none" stroke="midnightblue" d="M757.03,-331.05C697.36,-311.76 577.69,-271.43 541,-247 521.64,-234.11 522.6,-224.21 505,-209 501.18,-205.7 496.8,-202.43 492.69,-199.55"/>
<polygon fill="midnightblue" stroke="midnightblue" points="756.16,-334.45 766.76,-334.18 758.31,-327.79 756.16,-334.45"/>
</g>
<!-- Node13 -->
<g id="node13" class="node">
<title>Node13</title>
<g id="a_node13"><a xlink:href="ex_8c.html#a96a40531d1096a618d29639f2e42710b" target="_top" xlink:title=" ">
<polygon fill="white" stroke="black" points="680,-332.5 680,-351.5 718,-351.5 718,-332.5 680,-332.5"/>
<text text-anchor="middle" x="699" y="-339.5" font-family="Helvetica,sans-Serif" font-size="10.00">ec_ft</text>
</a>
</g>
</g>
<!-- Node2&#45;&gt;Node13 -->
<g id="edge15" class="edge">
<title>Node2&#45;&gt;Node13</title>
<path fill="none" stroke="midnightblue" d="M756.81,-342C743.67,-342 729.23,-342 718.2,-342"/>
<polygon fill="midnightblue" stroke="midnightblue" points="756.98,-345.5 766.98,-342 756.98,-338.5 756.98,-345.5"/>
</g>
<!-- Node14 -->
<g id="node14" class="node">
<title>Node14</title>
<g id="a_node14"><a xlink:href="ex_8c.html#a1d45a70b724f4cccae2ab746c711ebb1" target="_top" xlink:title=" ">
<polygon fill="white" stroke="black" points="672.5,-484.5 672.5,-503.5 725.5,-503.5 725.5,-484.5 672.5,-484.5"/>
<text text-anchor="middle" x="699" y="-491.5" font-family="Helvetica,sans-Serif" font-size="10.00">ec_lnum</text>
</a>
</g>
</g>
<!-- Node2&#45;&gt;Node14 -->
<g id="edge16" class="edge">
<title>Node2&#45;&gt;Node14</title>
<path fill="none" stroke="midnightblue" d="M785.61,-361.26C776.48,-388.8 756.79,-439.96 727,-475 724.03,-478.49 720.28,-481.66 716.53,-484.36"/>
<polygon fill="midnightblue" stroke="midnightblue" points="788.98,-362.23 788.69,-351.64 782.31,-360.1 788.98,-362.23"/>
</g>
<!-- Node15 -->
<g id="node15" class="node">
<title>Node15</title>
<g id="a_node15"><a xlink:href="ex_8c.html#aa69f426ff9728078fbb36f448c624a90" target="_top" xlink:title=" ">
<polygon fill="white" stroke="black" points="449,-218.5 449,-237.5 505,-237.5 505,-218.5 449,-218.5"/>
<text text-anchor="middle" x="477" y="-225.5" font-family="Helvetica,sans-Serif" font-size="10.00">ec_make</text>
</a>
</g>
</g>
<!-- Node2&#45;&gt;Node15 -->
<g id="edge17" class="edge">
<title>Node2&#45;&gt;Node15</title>
<path fill="none" stroke="midnightblue" d="M757.12,-354.1C747.5,-356.95 736.95,-359.57 727,-361 643.02,-373.11 609.07,-368.65 541,-318 511.47,-296.02 490.66,-256.03 482.2,-237.68"/>
<polygon fill="midnightblue" stroke="midnightblue" points="758.25,-357.42 766.75,-351.1 756.16,-350.74 758.25,-357.42"/>
</g>
<!-- Node16 -->
<g id="node16" class="node">
<title>Node16</title>
<g id="a_node16"><a xlink:href="ex_8c.html#ad2c1a9505aa3097bac242b47a367f11d" target="_top" xlink:title=" ">
<polygon fill="white" stroke="black" points="673.5,-446.5 673.5,-465.5 724.5,-465.5 724.5,-446.5 673.5,-446.5"/>
<text text-anchor="middle" x="699" y="-453.5" font-family="Helvetica,sans-Serif" font-size="10.00">ec_print</text>
</a>
</g>
</g>
<!-- Node2&#45;&gt;Node16 -->
<g id="edge18" class="edge">
<title>Node2&#45;&gt;Node16</title>
<path fill="none" stroke="midnightblue" d="M781.59,-360.59C770.19,-380.86 750.06,-413.55 727,-437 723.62,-440.43 719.56,-443.66 715.61,-446.44"/>
<polygon fill="midnightblue" stroke="midnightblue" points="784.71,-362.18 786.45,-351.73 778.57,-358.81 784.71,-362.18"/>
</g>
<!-- Node18 -->
<g id="node18" class="node">
<title>Node18</title>
<g id="a_node18"><a xlink:href="ex_8c.html#a057b67e2d4f23df3ad50a9d3ec86125b" target="_top" xlink:title=" ">
<polygon fill="white" stroke="black" points="672.5,-256.5 672.5,-275.5 725.5,-275.5 725.5,-256.5 672.5,-256.5"/>
<text text-anchor="middle" x="699" y="-263.5" font-family="Helvetica,sans-Serif" font-size="10.00">ec_write</text>
</a>
</g>
</g>
<!-- Node2&#45;&gt;Node18 -->
<g id="edge20" class="edge">
<title>Node2&#45;&gt;Node18</title>
<path fill="none" stroke="midnightblue" d="M772.14,-325.92C753.75,-310.65 726.71,-288.18 711.49,-275.55"/>
<polygon fill="midnightblue" stroke="midnightblue" points="769.98,-328.68 779.91,-332.37 774.46,-323.29 769.98,-328.68"/>
</g>
<!-- Node5 -->
<g id="node5" class="node">
<title>Node5</title>
<g id="a_node5"><a xlink:href="ex_8c.html#a7d848d20211b2e1c868dde98ec5dfae9" target="_top" xlink:title=" ">
<polygon fill="white" stroke="black" points="364.5,-180.5 364.5,-199.5 411.5,-199.5 411.5,-180.5 364.5,-180.5"/>
<text text-anchor="middle" x="388" y="-187.5" font-family="Helvetica,sans-Serif" font-size="10.00">ex_line</text>
</a>
</g>
</g>
<!-- Node4&#45;&gt;Node5 -->
<g id="edge4" class="edge">
<title>Node4&#45;&gt;Node5</title>
<path fill="none" stroke="midnightblue" d="M440.23,-190C430.62,-190 420.48,-190 411.79,-190"/>
<polygon fill="midnightblue" stroke="midnightblue" points="440.37,-193.5 450.37,-190 440.37,-186.5 440.37,-193.5"/>
</g>
<!-- Node6 -->
<g id="node6" class="node">
<title>Node6</title>
<g id="a_node6"><a xlink:href="ex_8c.html#ab15ebfef933256d9741128e2ddf3f9b5" target="_top" xlink:title=" ">
<polygon fill="white" stroke="black" points="270,-180.5 270,-199.5 323,-199.5 323,-180.5 270,-180.5"/>
<text text-anchor="middle" x="296.5" y="-187.5" font-family="Helvetica,sans-Serif" font-size="10.00">ex_exec</text>
</a>
</g>
</g>
<!-- Node5&#45;&gt;Node6 -->
<g id="edge5" class="edge">
<title>Node5&#45;&gt;Node6</title>
<path fill="none" stroke="midnightblue" d="M354.2,-190C344,-190 332.9,-190 323.24,-190"/>
<polygon fill="midnightblue" stroke="midnightblue" points="354.42,-193.5 364.42,-190 354.42,-186.5 354.42,-193.5"/>
</g>
<!-- Node7 -->
<g id="node7" class="node">
<title>Node7</title>
<g id="a_node7"><a xlink:href="ex_8c.html#a70c571bdde329a65e216c19b4aeaa628" target="_top" xlink:title=" ">
<polygon fill="white" stroke="black" points="167.5,-142.5 167.5,-161.5 217.5,-161.5 217.5,-142.5 167.5,-142.5"/>
<text text-anchor="middle" x="192.5" y="-149.5" font-family="Helvetica,sans-Serif" font-size="10.00">ec_glob</text>
</a>
</g>
</g>
<!-- Node6&#45;&gt;Node7 -->
<g id="edge6" class="edge">
<title>Node6&#45;&gt;Node7</title>
<path fill="none" stroke="midnightblue" d="M259.99,-176.77C246.06,-171.58 230.43,-165.76 217.83,-161.06"/>
<polygon fill="midnightblue" stroke="midnightblue" points="259.17,-180.2 269.76,-180.41 261.61,-173.64 259.17,-180.2"/>
</g>
<!-- Node8 -->
<g id="node8" class="node">
<title>Node8</title>
<g id="a_node8"><a xlink:href="vi_8h.html#aa75c73cccb4878ec06ea5bf5b1b02295" target="_top" xlink:title=" ">
<polygon fill="white" stroke="black" points="155,-218.5 155,-237.5 230,-237.5 230,-218.5 155,-218.5"/>
<text text-anchor="middle" x="192.5" y="-225.5" font-family="Helvetica,sans-Serif" font-size="10.00">ex_command</text>
</a>
</g>
</g>
<!-- Node6&#45;&gt;Node8 -->
<g id="edge8" class="edge">
<title>Node6&#45;&gt;Node8</title>
<path fill="none" stroke="midnightblue" d="M260.29,-203.12C246.8,-208.14 231.67,-213.78 219.23,-218.41"/>
<polygon fill="midnightblue" stroke="midnightblue" points="261.61,-206.36 269.76,-199.59 259.17,-199.8 261.61,-206.36"/>
</g>
<!-- Node7&#45;&gt;Node5 -->
<g id="edge7" class="edge">
<title>Node7&#45;&gt;Node5</title>
<path fill="none" stroke="midnightblue" d="M227.99,-155.32C255.12,-158.32 293.75,-163.42 327,-171 339.57,-173.86 353.3,-178.12 364.45,-181.89"/>
<polygon fill="midnightblue" stroke="midnightblue" points="228.15,-151.82 217.84,-154.24 227.41,-158.78 228.15,-151.82"/>
</g>
<!-- Node9 -->
<g id="node9" class="node">
<title>Node9</title>
<g id="a_node9"><a xlink:href="vi_8h.html#ac395e51f25330a6e6033b6d0d22b2076" target="_top" xlink:title=" ">
<polygon fill="white" stroke="black" points="82,-237.5 82,-256.5 111,-256.5 111,-237.5 82,-237.5"/>
<text text-anchor="middle" x="96.5" y="-244.5" font-family="Helvetica,sans-Serif" font-size="10.00">ex</text>
</a>
</g>
</g>
<!-- Node8&#45;&gt;Node9 -->
<g id="edge9" class="edge">
<title>Node8&#45;&gt;Node9</title>
<path fill="none" stroke="midnightblue" d="M144.73,-237.45C132.54,-239.92 120.33,-242.39 111.38,-244.2"/>
<polygon fill="midnightblue" stroke="midnightblue" points="145.78,-240.81 154.89,-235.4 144.39,-233.95 145.78,-240.81"/>
</g>
<!-- Node11 -->
<g id="node11" class="node">
<title>Node11</title>
<g id="a_node11"><a xlink:href="vi_8h.html#abe53b5c10f94f20cd5ed024371615fa1" target="_top" xlink:title=" ">
<polygon fill="white" stroke="black" points="74,-199.5 74,-218.5 119,-218.5 119,-199.5 74,-199.5"/>
<text text-anchor="middle" x="96.5" y="-206.5" font-family="Helvetica,sans-Serif" font-size="10.00">ex_init</text>
</a>
</g>
</g>
<!-- Node8&#45;&gt;Node11 -->
<g id="edge11" class="edge">
<title>Node8&#45;&gt;Node11</title>
<path fill="none" stroke="midnightblue" d="M144.85,-218.57C135.89,-216.76 126.91,-214.94 119.21,-213.39"/>
<polygon fill="midnightblue" stroke="midnightblue" points="144.39,-222.05 154.89,-220.6 145.78,-215.19 144.39,-222.05"/>
</g>
<!-- Node12 -->
<g id="node12" class="node">
<title>Node12</title>
<g id="a_node12"><a xlink:href="vi_8c.html#a8d808e0f3453afe6600673ee1ea5f828" target="_top" xlink:title=" ">
<polygon fill="white" stroke="black" points="82,-161.5 82,-180.5 111,-180.5 111,-161.5 82,-161.5"/>
<text text-anchor="middle" x="96.5" y="-168.5" font-family="Helvetica,sans-Serif" font-size="10.00">vi</text>
</a>
</g>
</g>
<!-- Node8&#45;&gt;Node12 -->
<g id="edge13" class="edge">
<title>Node8&#45;&gt;Node12</title>
<path fill="none" stroke="midnightblue" d="M162.9,-213.48C160.21,-212 157.54,-210.49 155,-209 139.74,-200.02 122.9,-188.72 111.42,-180.79"/>
<polygon fill="midnightblue" stroke="midnightblue" points="161.5,-216.7 171.97,-218.31 164.79,-210.52 161.5,-216.7"/>
</g>
<!-- Node10 -->
<g id="node10" class="node">
<title>Node10</title>
<g id="a_node10"><a xlink:href="vi_8c.html#a0ddf1224851353fc92bfbff6f499fa97" target="_top" xlink:title=" ">
<polygon fill="white" stroke="black" points="0,-199.5 0,-218.5 38,-218.5 38,-199.5 0,-199.5"/>
<text text-anchor="middle" x="19" y="-206.5" font-family="Helvetica,sans-Serif" font-size="10.00">main</text>
</a>
</g>
</g>
<!-- Node9&#45;&gt;Node10 -->
<g id="edge10" class="edge">
<title>Node9&#45;&gt;Node10</title>
<path fill="none" stroke="midnightblue" d="M72.56,-235.45C61.48,-229.88 48.39,-223.29 38.04,-218.08"/>
<polygon fill="midnightblue" stroke="midnightblue" points="71.15,-238.66 81.65,-240.03 74.29,-232.41 71.15,-238.66"/>
</g>
<!-- Node11&#45;&gt;Node10 -->
<g id="edge12" class="edge">
<title>Node11&#45;&gt;Node10</title>
<path fill="none" stroke="midnightblue" d="M63.55,-209C54.99,-209 46.03,-209 38.47,-209"/>
<polygon fill="midnightblue" stroke="midnightblue" points="63.66,-212.5 73.66,-209 63.66,-205.5 63.66,-212.5"/>
</g>
<!-- Node12&#45;&gt;Node10 -->
<g id="edge14" class="edge">
<title>Node12&#45;&gt;Node10</title>
<path fill="none" stroke="midnightblue" d="M72.56,-182.55C61.48,-188.12 48.39,-194.71 38.04,-199.92"/>
<polygon fill="midnightblue" stroke="midnightblue" points="74.29,-185.59 81.65,-177.97 71.15,-179.34 74.29,-185.59"/>
</g>
<!-- Node17 -->
<g id="node17" class="node">
<title>Node17</title>
<g id="a_node17"><a xlink:href="ex_8c.html#affb8197a8f988443aadf1bf2800a0d0b" target="_top" xlink:title=" ">
<polygon fill="white" stroke="black" points="564.5,-446.5 564.5,-465.5 611.5,-465.5 611.5,-446.5 564.5,-446.5"/>
<text text-anchor="middle" x="588" y="-453.5" font-family="Helvetica,sans-Serif" font-size="10.00">ec_null</text>
</a>
</g>
</g>
<!-- Node16&#45;&gt;Node17 -->
<g id="edge19" class="edge">
<title>Node16&#45;&gt;Node17</title>
<path fill="none" stroke="midnightblue" d="M663.23,-456C646.4,-456 626.67,-456 611.78,-456"/>
<polygon fill="midnightblue" stroke="midnightblue" points="663.27,-459.5 673.27,-456 663.27,-452.5 663.27,-459.5"/>
</g>
<!-- Node19 -->
<g id="node19" class="node">
<title>Node19</title>
<g id="a_node19"><a xlink:href="ex_8c.html#ab0cb848a971a3b2c09fcb456d887dd6b" target="_top" xlink:title=" ">
<polygon fill="white" stroke="black" points="541,-218.5 541,-237.5 635,-237.5 635,-218.5 541,-218.5"/>
<text text-anchor="middle" x="588" y="-225.5" font-family="Helvetica,sans-Serif" font-size="10.00">ex_modifiedbuffer</text>
</a>
</g>
</g>
<!-- Node18&#45;&gt;Node19 -->
<g id="edge21" class="edge">
<title>Node18&#45;&gt;Node19</title>
<path fill="none" stroke="midnightblue" d="M662.91,-253.77C647.81,-248.5 630.42,-242.44 616.3,-237.52"/>
<polygon fill="midnightblue" stroke="midnightblue" points="661.85,-257.1 672.44,-257.09 664.15,-250.49 661.85,-257.1"/>
</g>
<!-- Node19&#45;&gt;Node4 -->
<g id="edge24" class="edge">
<title>Node19&#45;&gt;Node4</title>
<path fill="none" stroke="midnightblue" d="M549.84,-215.05C534.63,-209.74 517.4,-203.73 503.62,-198.93"/>
<polygon fill="midnightblue" stroke="midnightblue" points="548.9,-218.42 559.49,-218.41 551.2,-211.81 548.9,-218.42"/>
</g>
<!-- Node19&#45;&gt;Node15 -->
<g id="edge25" class="edge">
<title>Node19&#45;&gt;Node15</title>
<path fill="none" stroke="midnightblue" d="M530.7,-228C521.76,-228 512.89,-228 505.04,-228"/>
<polygon fill="midnightblue" stroke="midnightblue" points="530.77,-231.5 540.77,-228 530.77,-224.5 530.77,-231.5"/>
</g>
<!-- Node20 -->
<g id="node20" class="node">
<title>Node20</title>
<g id="a_node20"><a xlink:href="ex_8c.html#a8059390ad69866fa8e14bdb2521d4dc2" target="_top" xlink:title=" ">
<polygon fill="white" stroke="black" points="453,-104.5 453,-123.5 501,-123.5 501,-104.5 453,-104.5"/>
<text text-anchor="middle" x="477" y="-111.5" font-family="Helvetica,sans-Serif" font-size="10.00">ec_edit</text>
</a>
</g>
</g>
<!-- Node19&#45;&gt;Node20 -->
<g id="edge22" class="edge">
<title>Node19&#45;&gt;Node20</title>
<path fill="none" stroke="midnightblue" d="M570.6,-210.85C547.4,-186.58 505.75,-143.02 487.27,-123.69"/>
<polygon fill="midnightblue" stroke="midnightblue" points="568.27,-213.47 577.71,-218.28 573.33,-208.63 568.27,-213.47"/>
</g>
<!-- Node21 -->
<g id="node21" class="node">
<title>Node21</title>
<g id="a_node21"><a xlink:href="ex_8c.html#a87eef446de152fad41ce88a9a343b87d" target="_top" xlink:title=" ">
<polygon fill="white" stroke="black" points="453,-294.5 453,-313.5 501,-313.5 501,-294.5 453,-294.5"/>
<text text-anchor="middle" x="477" y="-301.5" font-family="Helvetica,sans-Serif" font-size="10.00">ec_quit</text>
</a>
</g>
</g>
<!-- Node19&#45;&gt;Node21 -->
<g id="edge26" class="edge">
<title>Node19&#45;&gt;Node21</title>
<path fill="none" stroke="midnightblue" d="M564.82,-243.46C542.9,-258.75 510.06,-281.64 491.69,-294.45"/>
<polygon fill="midnightblue" stroke="midnightblue" points="566.99,-246.22 573.2,-237.63 562.99,-240.47 566.99,-246.22"/>
</g>
<!-- Node20&#45;&gt;Node11 -->
<g id="edge23" class="edge">
<title>Node20&#45;&gt;Node11</title>
<path fill="none" stroke="midnightblue" d="M442.24,-112.2C369.92,-108.94 202.78,-104.79 155,-133 129.2,-148.23 138.42,-167.18 119,-190 116.29,-193.19 113.04,-196.33 109.9,-199.11"/>
<polygon fill="midnightblue" stroke="midnightblue" points="442.44,-115.71 452.59,-112.69 442.77,-108.72 442.44,-115.71"/>
</g>
<!-- Node21&#45;&gt;Node18 -->
<g id="edge27" class="edge">
<title>Node21&#45;&gt;Node18</title>
<path fill="none" stroke="midnightblue" d="M511.11,-298.28C555.23,-290.66 632.35,-277.34 672.33,-270.43"/>
<polygon fill="midnightblue" stroke="midnightblue" points="510.43,-294.85 501.17,-300 511.62,-301.74 510.43,-294.85"/>
</g>
<!-- Node22&#45;&gt;Node9 -->
<g id="edge30" class="edge">
<title>Node22&#45;&gt;Node9</title>
<path fill="none" stroke="midnightblue" d="M260.73,-290.47C231.79,-293.74 189.85,-295.47 155,-285 136.67,-279.49 118.79,-266.02 107.96,-256.7"/>
<polygon fill="midnightblue" stroke="midnightblue" points="261.28,-293.93 270.76,-289.22 260.41,-286.98 261.28,-293.93"/>
</g>
<!-- Node23 -->
<g id="node23" class="node">
<title>Node23</title>
<g id="a_node23"><a xlink:href="ex_8c.html#a0908784dc65be2da119a6b72ef96dec2" target="_top" xlink:title=" ">
<polygon fill="white" stroke="black" points="164.5,-256.5 164.5,-275.5 220.5,-275.5 220.5,-256.5 164.5,-256.5"/>
<text text-anchor="middle" x="192.5" y="-263.5" font-family="Helvetica,sans-Serif" font-size="10.00">ec_insert</text>
</a>
</g>
</g>
<!-- Node22&#45;&gt;Node23 -->
<g id="edge29" class="edge">
<title>Node22&#45;&gt;Node23</title>
<path fill="none" stroke="midnightblue" d="M260.77,-278.53C247.73,-276.1 233.11,-273.38 220.83,-271.09"/>
<polygon fill="midnightblue" stroke="midnightblue" points="260.34,-282.01 270.81,-280.4 261.62,-275.13 260.34,-282.01"/>
</g>
<!-- Node24 -->
<g id="node24" class="node">
<title>Node24</title>
<g id="a_node24"><a xlink:href="vi_8c.html#a9d85e9ed087401367529ab86a5dbf0c5" target="_top" xlink:title=" ">
<polygon fill="white" stroke="black" points="169,-180.5 169,-199.5 216,-199.5 216,-180.5 169,-180.5"/>
<text text-anchor="middle" x="192.5" y="-187.5" font-family="Helvetica,sans-Serif" font-size="10.00">vi_wait</text>
</a>
</g>
</g>
<!-- Node22&#45;&gt;Node24 -->
<g id="edge31" class="edge">
<title>Node22&#45;&gt;Node24</title>
<path fill="none" stroke="midnightblue" d="M282.9,-266.75C270.78,-250.16 251.2,-225.79 230,-209 225.52,-205.45 220.27,-202.27 215.18,-199.56"/>
<polygon fill="midnightblue" stroke="midnightblue" points="280.18,-268.96 288.83,-275.07 285.88,-264.89 280.18,-268.96"/>
</g>
<!-- Node24&#45;&gt;Node12 -->
<g id="edge32" class="edge">
<title>Node24&#45;&gt;Node12</title>
<path fill="none" stroke="midnightblue" d="M158.48,-183.33C142.17,-180.03 123.4,-176.23 111.04,-173.74"/>
<polygon fill="midnightblue" stroke="midnightblue" points="158.25,-186.85 168.75,-185.4 159.64,-179.99 158.25,-186.85"/>
</g>
<!-- Node25&#45;&gt;Node2 -->
<g id="edge45" class="edge">
<title>Node25&#45;&gt;Node2</title>
<path fill="none" stroke="midnightblue" d="M872.51,-227.16C852.89,-255.67 815.54,-309.96 800.27,-332.16"/>
<polygon fill="midnightblue" stroke="midnightblue" points="875.64,-228.79 878.42,-218.57 869.87,-224.82 875.64,-228.79"/>
</g>
<!-- Node25&#45;&gt;Node18 -->
<g id="edge37" class="edge">
<title>Node25&#45;&gt;Node18</title>
<path fill="none" stroke="midnightblue" d="M860.86,-223.74C849.43,-230.17 835.38,-237.29 822,-242 789.83,-253.32 750.9,-259.81 725.8,-263.12"/>
<polygon fill="midnightblue" stroke="midnightblue" points="862.88,-226.62 869.77,-218.58 859.37,-220.56 862.88,-226.62"/>
</g>
<!-- Node25&#45;&gt;Node19 -->
<g id="edge44" class="edge">
<title>Node25&#45;&gt;Node19</title>
<path fill="none" stroke="midnightblue" d="M847.78,-211.39C793.75,-214.86 693.67,-221.28 635.07,-225.04"/>
<polygon fill="midnightblue" stroke="midnightblue" points="848.19,-214.87 857.95,-210.74 847.74,-207.88 848.19,-214.87"/>
</g>
<!-- Node25&#45;&gt;Node20 -->
<g id="edge34" class="edge">
<title>Node25&#45;&gt;Node20</title>
<path fill="none" stroke="midnightblue" d="M878.86,-189.51C870.05,-164.46 851.53,-121.07 822,-95 787.91,-64.9 771.65,-65.6 727,-57 640.12,-40.27 537.43,-84.23 496.34,-104.45"/>
<polygon fill="midnightblue" stroke="midnightblue" points="875.65,-190.95 882.14,-199.32 882.29,-188.72 875.65,-190.95"/>
</g>
<!-- Node26 -->
<g id="node26" class="node">
<title>Node26</title>
<g id="a_node26"><a xlink:href="ex_8c.html#add0e79e1f1e3d45f4eaa6fbe5c1ca443" target="_top" xlink:title=" ">
<polygon fill="white" stroke="black" points="673.5,-66.5 673.5,-85.5 724.5,-85.5 724.5,-66.5 673.5,-66.5"/>
<text text-anchor="middle" x="699" y="-73.5" font-family="Helvetica,sans-Serif" font-size="10.00">ec_read</text>
</a>
</g>
</g>
<!-- Node25&#45;&gt;Node26 -->
<g id="edge35" class="edge">
<title>Node25&#45;&gt;Node26</title>
<path fill="none" stroke="midnightblue" d="M860.52,-194.09C827.52,-173.93 771.86,-139.73 763,-133 745.71,-119.87 743.11,-114.54 727,-100 721.69,-95.21 715.76,-89.93 710.81,-85.54"/>
<polygon fill="midnightblue" stroke="midnightblue" points="858.81,-197.14 869.17,-199.36 862.46,-191.17 858.81,-197.14"/>
</g>
<!-- Node27 -->
<g id="node27" class="node">
<title>Node27</title>
<g id="a_node27"><a xlink:href="ex_8c.html#a98764f0b4faf5fd4b8baff03a7d73a6e" target="_top" xlink:title=" ">
<polygon fill="white" stroke="black" points="769.5,-104.5 769.5,-123.5 815.5,-123.5 815.5,-104.5 769.5,-104.5"/>
<text text-anchor="middle" x="792.5" y="-111.5" font-family="Helvetica,sans-Serif" font-size="10.00">ec_set</text>
</a>
</g>
</g>
<!-- Node25&#45;&gt;Node27 -->
<g id="edge36" class="edge">
<title>Node25&#45;&gt;Node27</title>
<path fill="none" stroke="midnightblue" d="M870.76,-191.57C858.41,-176.8 839.76,-155.31 822,-138 816.9,-133.03 810.93,-127.9 805.76,-123.67"/>
<polygon fill="midnightblue" stroke="midnightblue" points="868.18,-193.95 877.26,-199.42 873.57,-189.48 868.18,-193.95"/>
</g>
<!-- Node28 -->
<g id="node28" class="node">
<title>Node28</title>
<g id="a_node28"><a xlink:href="ex_8c.html#a2b8907dfb6e95eb16e8a0f1ce0fe5bb6" target="_top" xlink:title=" ">
<polygon fill="white" stroke="black" points="763,-180.5 763,-199.5 822,-199.5 822,-180.5 763,-180.5"/>
<text text-anchor="middle" x="792.5" y="-187.5" font-family="Helvetica,sans-Serif" font-size="10.00">ex_filearg</text>
</a>
</g>
</g>
<!-- Node25&#45;&gt;Node28 -->
<g id="edge38" class="edge">
<title>Node25&#45;&gt;Node28</title>
<path fill="none" stroke="midnightblue" d="M847.51,-201.22C839.06,-199.46 830.23,-197.63 822.2,-195.96"/>
<polygon fill="midnightblue" stroke="midnightblue" points="847.04,-204.69 857.55,-203.3 848.47,-197.84 847.04,-204.69"/>
</g>
<!-- Node28&#45;&gt;Node4 -->
<g id="edge40" class="edge">
<title>Node28&#45;&gt;Node4</title>
<path fill="none" stroke="midnightblue" d="M752.82,-180.2C744.36,-178.45 735.42,-176.9 727,-176 644.8,-167.18 623.17,-166.98 541,-176 528.53,-177.37 514.91,-180.22 503.54,-182.99"/>
<polygon fill="midnightblue" stroke="midnightblue" points="752.3,-183.67 762.82,-182.4 753.8,-176.83 752.3,-183.67"/>
</g>
<!-- Node28&#45;&gt;Node15 -->
<g id="edge41" class="edge">
<title>Node28&#45;&gt;Node15</title>
<path fill="none" stroke="midnightblue" d="M752.41,-190.35C702.84,-191.39 614.9,-195.22 541,-209 528.98,-211.24 516.01,-214.93 504.97,-218.46"/>
<polygon fill="midnightblue" stroke="midnightblue" points="752.75,-193.84 762.69,-190.16 752.62,-186.84 752.75,-193.84"/>
</g>
<!-- Node28&#45;&gt;Node18 -->
<g id="edge43" class="edge">
<title>Node28&#45;&gt;Node18</title>
<path fill="none" stroke="midnightblue" d="M772.14,-206.08C753.75,-221.35 726.71,-243.82 711.49,-256.45"/>
<polygon fill="midnightblue" stroke="midnightblue" points="774.46,-208.71 779.91,-199.63 769.98,-203.32 774.46,-208.71"/>
</g>
<!-- Node28&#45;&gt;Node20 -->
<g id="edge39" class="edge">
<title>Node28&#45;&gt;Node20</title>
<path fill="none" stroke="midnightblue" d="M759.16,-176.88C748.97,-173.04 737.61,-169.06 727,-166 645.32,-142.42 545.69,-124.9 501.28,-117.66"/>
<polygon fill="midnightblue" stroke="midnightblue" points="757.91,-180.15 768.5,-180.48 760.42,-173.62 757.91,-180.15"/>
</g>
<!-- Node28&#45;&gt;Node26 -->
<g id="edge42" class="edge">
<title>Node28&#45;&gt;Node26</title>
<path fill="none" stroke="midnightblue" d="M770.25,-173.67C767.66,-171.24 765.17,-168.65 763,-166 741.86,-140.13 747.79,-126.15 727,-100 722.86,-94.8 717.52,-89.79 712.68,-85.7"/>
<polygon fill="midnightblue" stroke="midnightblue" points="768.22,-176.54 778.08,-180.41 772.78,-171.23 768.22,-176.54"/>
</g>
<!-- Node30 -->
<g id="node30" class="node">
<title>Node30</title>
<g id="a_node30"><a xlink:href="vi_8c.html#a653f6b0359cef492e11f404c4bf469b9" target="_top" xlink:title=" ">
<polygon fill="white" stroke="black" points="363,-28.5 363,-47.5 413,-47.5 413,-28.5 363,-28.5"/>
<text text-anchor="middle" x="388" y="-35.5" font-family="Helvetica,sans-Serif" font-size="10.00">vi_input</text>
</a>
</g>
</g>
<!-- Node29&#45;&gt;Node30 -->
<g id="edge47" class="edge">
<title>Node29&#45;&gt;Node30</title>
<path fill="none" stroke="midnightblue" d="M863.35,-60.58C829.97,-38.37 763.16,0 700,0 700,0 700,0 587,0 523.3,0 450.1,-19.21 413.1,-30.31"/>
<polygon fill="midnightblue" stroke="midnightblue" points="861.61,-63.64 871.85,-66.37 865.55,-57.85 861.61,-63.64"/>
</g>
<!-- Node31 -->
<g id="node31" class="node">
<title>Node31</title>
<g id="a_node31"><a xlink:href="vi_8c.html#a8bb357a77ed61da8858f138c6fa672a6" target="_top" xlink:title=" ">
<polygon fill="white" stroke="black" points="268.5,-66.5 268.5,-85.5 324.5,-85.5 324.5,-66.5 268.5,-66.5"/>
<text text-anchor="middle" x="296.5" y="-73.5" font-family="Helvetica,sans-Serif" font-size="10.00">vc_insert</text>
</a>
</g>
</g>
<!-- Node30&#45;&gt;Node31 -->
<g id="edge48" class="edge">
<title>Node30&#45;&gt;Node31</title>
<path fill="none" stroke="midnightblue" d="M355.07,-51.56C343.5,-56.47 330.68,-61.91 320.08,-66.41"/>
<polygon fill="midnightblue" stroke="midnightblue" points="356.58,-54.72 364.42,-47.59 353.84,-48.28 356.58,-54.72"/>
</g>
<!-- Node32 -->
<g id="node32" class="node">
<title>Node32</title>
<g id="a_node32"><a xlink:href="vi_8c.html#ae37b094c3bb647d8c1a4ac4e858ce518" target="_top" xlink:title=" ">
<polygon fill="white" stroke="black" points="266,-28.5 266,-47.5 327,-47.5 327,-28.5 266,-28.5"/>
<text text-anchor="middle" x="296.5" y="-35.5" font-family="Helvetica,sans-Serif" font-size="10.00">vi_change</text>
</a>
</g>
</g>
<!-- Node30&#45;&gt;Node32 -->
<g id="edge50" class="edge">
<title>Node30&#45;&gt;Node32</title>
<path fill="none" stroke="midnightblue" d="M352.32,-38C343.96,-38 335.12,-38 327.02,-38"/>
<polygon fill="midnightblue" stroke="midnightblue" points="352.54,-41.5 362.54,-38 352.54,-34.5 352.54,-41.5"/>
</g>
<!-- Node31&#45;&gt;Node12 -->
<g id="edge49" class="edge">
<title>Node31&#45;&gt;Node12</title>
<path fill="none" stroke="midnightblue" d="M258.48,-75.33C228.65,-76.36 186.62,-81.49 155,-100 129.54,-114.91 110.72,-145.63 102.34,-161.32"/>
<polygon fill="midnightblue" stroke="midnightblue" points="258.56,-78.83 268.49,-75.12 258.42,-71.83 258.56,-78.83"/>
</g>
<!-- Node33 -->
<g id="node33" class="node">
<title>Node33</title>
<g id="a_node33"><a xlink:href="vi_8c.html#a06cbc6eb843436a0e77e07cbab0c4538" target="_top" xlink:title=" ">
<polygon fill="white" stroke="black" points="161.5,-28.5 161.5,-47.5 223.5,-47.5 223.5,-28.5 161.5,-28.5"/>
<text text-anchor="middle" x="192.5" y="-35.5" font-family="Helvetica,sans-Serif" font-size="10.00">vc_motion</text>
</a>
</g>
</g>
<!-- Node32&#45;&gt;Node33 -->
<g id="edge51" class="edge">
<title>Node32&#45;&gt;Node33</title>
<path fill="none" stroke="midnightblue" d="M255.98,-38C245.24,-38 233.78,-38 223.64,-38"/>
<polygon fill="midnightblue" stroke="midnightblue" points="256,-41.5 266,-38 256,-34.5 256,-41.5"/>
</g>
<!-- Node33&#45;&gt;Node12 -->
<g id="edge52" class="edge">
<title>Node33&#45;&gt;Node12</title>
<path fill="none" stroke="midnightblue" d="M164.75,-53.26C161.24,-55.91 157.87,-58.84 155,-62 126.66,-93.2 107.89,-140.93 100.74,-161.27"/>
<polygon fill="midnightblue" stroke="midnightblue" points="166.74,-56.14 173.04,-47.62 162.8,-50.36 166.74,-56.14"/>
</g>
</g>
</svg>
        <g id="navigator" transform="translate(0 0)" fill="#404254">
                <rect fill="#f2f5e9" fill-opacity="0.5" stroke="#606060" stroke-width=".5" x="0" y="0" width="60" height="60"/>
                <use id="zoomplus" xlink:href="#zoomPlus" x="17" y="9" onmousedown="handleZoom(evt,'in')"/>
                <use id="zoomminus" xlink:href="#zoomMin" x="42" y="9" onmousedown="handleZoom(evt,'out')"/>
                <use id="reset" xlink:href="#resetDef" x="30" y="36" onmousedown="handleReset()"/>
                <g id="arrowUp" xlink:href="#dirArrow" transform="translate(30 24)" onmousedown="handlePan(0,-1)">
                  <use xlink:href="#rim" fill="#404040">
                        <set attributeName="fill" to="#808080" begin="arrowUp.mouseover" end="arrowUp.mouseout"/>
                  </use>
                  <path fill="none" stroke="white" stroke-width="1.5" d="M0,-3.0v7 M-2.5,-0.5L0,-3.0L2.5,-0.5"/>
                </g>
                <g id="arrowRight" xlink:href="#dirArrow" transform="rotate(90) translate(36 -43)" onmousedown="handlePan(1,0)">
                  <use xlink:href="#rim" fill="#404040">
                        <set attributeName="fill" to="#808080" begin="arrowRight.mouseover" end="arrowRight.mouseout"/>
                  </use>
                  <path fill="none" stroke="white" stroke-width="1.5" d="M0,-3.0v7 M-2.5,-0.5L0,-3.0L2.5,-0.5"/>
                </g>
                <g id="arrowDown" xlink:href="#dirArrow" transform="rotate(180) translate(-30 -48)" onmousedown="handlePan(0,1)">
                  <use xlink:href="#rim" fill="#404040">
                        <set attributeName="fill" to="#808080" begin="arrowDown.mouseover" end="arrowDown.mouseout"/>
                  </use>
                  <path fill="none" stroke="white" stroke-width="1.5" d="M0,-3.0v7 M-2.5,-0.5L0,-3.0L2.5,-0.5"/>
                </g>
                <g id="arrowLeft" xlink:href="#dirArrow" transform="rotate(270) translate(-36 17)" onmousedown="handlePan(-1,0)">
                  <use xlink:href="#rim" fill="#404040">
                        <set attributeName="fill" to="#808080" begin="arrowLeft.mouseover" end="arrowLeft.mouseout"/>
                  </use>
                  <path fill="none" stroke="white" stroke-width="1.5" d="M0,-3.0v7 M-2.5,-0.5L0,-3.0L2.5,-0.5"/>
                </g>
        </g>
        <svg viewBox="0 0 15 15" width="100%" height="30px" preserveAspectRatio="xMaxYMin meet">
         <g id="arrow_out" transform="scale(0.3 0.3)">
          <a xlink:href="term_8c_aa47a46a9a390024a045e8f4e7aae8992_icgraph_org.svg" target="_base">
           <rect id="button" ry="5" rx="5" y="6" x="6" height="38" width="38"
                fill="#f2f5e9" fill-opacity="0.5" stroke="#606060" stroke-width="1.0"/>
           <path id="arrow"
             d="M 11.500037,31.436501 C 11.940474,20.09759 22.043105,11.32322 32.158766,21.979434 L 37.068811,17.246167 C 37.068811,17.246167 37.088388,32 37.088388,32 L 22.160133,31.978069 C 22.160133,31.978069 26.997745,27.140456 26.997745,27.140456 C 18.528582,18.264221 13.291696,25.230495 11.500037,31.436501 z"
             style="fill:#404040;"/>
          </a>
         </g>
        </svg>
</svg>
