<?xml version="1.0" encoding="UTF-8" standalone="no"?>
<!DOCTYPE svg PUBLIC "-//W3C//DTD SVG 1.1//EN"
 "http://www.w3.org/Graphics/SVG/1.1/DTD/svg11.dtd">
<!-- Generated by graphviz version 2.44.1 (20200629.0846)
 -->
<!-- Title: vc_replace Pages: 1 -->
<!--zoomable 740 -->
<svg id="main" version="1.1" xmlns="http://www.w3.org/2000/svg" xmlns:xlink="http://www.w3.org/1999/xlink" xml:space="preserve" onload="init(evt)">
<style type="text/css"><![CDATA[
.edge:hover path { stroke: red; }
.edge:hover polygon { stroke: red; fill: red; }
]]></style>
<script type="text/javascript"><![CDATA[
var edges = document.getElementsByTagName('g');
if (edges && edges.length) {
  for (var i=0;i<edges.length;i++) {
    if (edges[i].id.substr(0,4)=='edge') {
      edges[i].setAttribute('class','edge');
    }
  }
}
]]></script>
        <defs>
                <circle id="rim" cx="0" cy="0" r="7"/>
                <circle id="rim2" cx="0" cy="0" r="3.5"/>
                <g id="zoomPlus">
                        <use xlink:href="#rim" fill="#404040">
                                <set attributeName="fill" to="#808080" begin="zoomplus.mouseover" end="zoomplus.mouseout"/>
                        </use>
                        <path d="M-4,0h8M0,-4v8" fill="none" stroke="white" stroke-width="1.5" pointer-events="none"/>
                </g>
                <g id="zoomMin">
                        <use xlink:href="#rim" fill="#404040">
                                <set attributeName="fill" to="#808080" begin="zoomminus.mouseover" end="zoomminus.mouseout"/>
                        </use>
                        <path d="M-4,0h8" fill="none" stroke="white" stroke-width="1.5" pointer-events="none"/>
                </g>
                <g id="dirArrow">
                        <path fill="none" stroke="white" stroke-width="1.5" d="M0,-3.0v7 M-2.5,-0.5L0,-3.0L2.5,-0.5"/>
                </g>
               <g id="resetDef">
                       <use xlink:href="#rim2" fill="#404040">
                               <set attributeName="fill" to="#808080" begin="reset.mouseover" end="reset.mouseout"/>
                       </use>
               </g>
        </defs>

<script type="text/javascript">
var viewWidth = 703;
var viewHeight = 740;
var sectionId = 'dynsection-88';
</script>
<script xlink:href="svgpan.js"/>
<svg id="graph" class="graph">
<g id="viewport">
<title>vc_replace</title>
<polygon fill="white" stroke="transparent" points="-4,4 -4,-736.16 699,-736.16 699,4 -4,4"/>
<!-- Node1 -->
<g id="node1" class="node">
<title>Node1</title>
<g id="a_node1"><a xlink:title=" ">
<polygon fill="#bfbfbf" stroke="black" points="0,-266.5 0,-285.5 64,-285.5 64,-266.5 0,-266.5"/>
<text text-anchor="middle" x="32" y="-273.5" font-family="Helvetica,sans-Serif" font-size="10.00">vc_replace</text>
</a>
</g>
</g>
<!-- Node2 -->
<g id="node2" class="node">
<title>Node2</title>
<g id="a_node2"><a xlink:href="lbuf_8c.html#ac261b7344d70724c31f360a5dd8e2ffc" target="_top" xlink:title=" ">
<polygon fill="white" stroke="black" points="103,-513.5 103,-532.5 156,-532.5 156,-513.5 103,-513.5"/>
<text text-anchor="middle" x="129.5" y="-520.5" font-family="Helvetica,sans-Serif" font-size="10.00">lbuf_edit</text>
</a>
</g>
</g>
<!-- Node1&#45;&gt;Node2 -->
<g id="edge1" class="edge">
<title>Node1&#45;&gt;Node2</title>
<path fill="none" stroke="midnightblue" d="M36.74,-285.68C50.98,-322.49 101.88,-454.16 121.09,-503.84"/>
<polygon fill="midnightblue" stroke="midnightblue" points="117.91,-505.32 124.78,-513.38 124.44,-502.79 117.91,-505.32"/>
</g>
<!-- Node6 -->
<g id="node6" class="node">
<title>Node6</title>
<g id="a_node6"><a xlink:href="sbuf_8c.html#a4e56760893d5a6797626743840c9adf2" target="_top" xlink:title=" ">
<polygon fill="white" stroke="black" points="529.5,-513.5 529.5,-532.5 583.5,-532.5 583.5,-513.5 529.5,-513.5"/>
<text text-anchor="middle" x="556.5" y="-520.5" font-family="Helvetica,sans-Serif" font-size="10.00">sbuf_buf</text>
</a>
</g>
</g>
<!-- Node1&#45;&gt;Node6 -->
<g id="edge30" class="edge">
<title>Node1&#45;&gt;Node6</title>
<path fill="none" stroke="midnightblue" d="M32.62,-285.52C30.52,-351.01 26.94,-732 228.5,-732 228.5,-732 228.5,-732 341,-732 409.07,-732 437.48,-734.63 488,-689 531.77,-649.47 547.73,-577.46 553.06,-542.75"/>
<polygon fill="midnightblue" stroke="midnightblue" points="556.58,-542.89 554.49,-532.51 549.65,-541.93 556.58,-542.89"/>
</g>
<!-- Node8 -->
<g id="node8" class="node">
<title>Node8</title>
<g id="a_node8"><a xlink:href="sbuf_8c.html#a57748585d6786a2c1aadc2cbe6f2135b" target="_top" xlink:title=" ">
<polygon fill="white" stroke="black" points="419.5,-399.5 419.5,-418.5 484.5,-418.5 484.5,-399.5 419.5,-399.5"/>
<text text-anchor="middle" x="452" y="-406.5" font-family="Helvetica,sans-Serif" font-size="10.00">sbuf_make</text>
</a>
</g>
</g>
<!-- Node1&#45;&gt;Node8 -->
<g id="edge32" class="edge">
<title>Node1&#45;&gt;Node8</title>
<path fill="none" stroke="midnightblue" d="M40.98,-285.5C52.54,-298.56 75.28,-321.7 100,-333 214.51,-385.33 259.49,-339.55 380,-376 395.49,-380.69 411.94,-388.15 425.1,-394.8"/>
<polygon fill="midnightblue" stroke="midnightblue" points="423.55,-397.94 434.03,-399.45 426.77,-391.73 423.55,-397.94"/>
</g>
<!-- Node9 -->
<g id="node9" class="node">
<title>Node9</title>
<g id="a_node9"><a xlink:href="sbuf_8c.html#a603d1d6ab090025f5850f10bfa2dec7a" target="_top" xlink:title=" ">
<polygon fill="white" stroke="black" points="426,-475.5 426,-494.5 478,-494.5 478,-475.5 426,-475.5"/>
<text text-anchor="middle" x="452" y="-482.5" font-family="Helvetica,sans-Serif" font-size="10.00">sbuf_str</text>
</a>
</g>
</g>
<!-- Node1&#45;&gt;Node9 -->
<g id="edge33" class="edge">
<title>Node1&#45;&gt;Node9</title>
<path fill="none" stroke="midnightblue" d="M37.95,-285.6C47.45,-302.94 69.95,-339.33 100,-357 209.1,-421.17 269.01,-348.15 380,-409 405.48,-422.97 426.99,-449.41 439.44,-467.13"/>
<polygon fill="midnightblue" stroke="midnightblue" points="436.6,-469.17 445.1,-475.48 442.39,-465.24 436.6,-469.17"/>
</g>
<!-- Node20 -->
<g id="node20" class="node">
<title>Node20</title>
<g id="a_node20"><a xlink:href="lbuf_8c.html#ad0f45475ddc6eb82ecedf63ed1b914d4" target="_top" xlink:title=" ">
<polygon fill="white" stroke="black" points="104,-304.5 104,-323.5 155,-323.5 155,-304.5 104,-304.5"/>
<text text-anchor="middle" x="129.5" y="-311.5" font-family="Helvetica,sans-Serif" font-size="10.00">lbuf_get</text>
</a>
</g>
</g>
<!-- Node1&#45;&gt;Node20 -->
<g id="edge23" class="edge">
<title>Node1&#45;&gt;Node20</title>
<path fill="none" stroke="midnightblue" d="M57.1,-285.59C68.52,-290.13 82.36,-295.64 94.8,-300.59"/>
<polygon fill="midnightblue" stroke="midnightblue" points="93.82,-303.97 104.41,-304.41 96.41,-297.46 93.82,-303.97"/>
</g>
<!-- Node21 -->
<g id="node21" class="node">
<title>Node21</title>
<g id="a_node21"><a xlink:href="ren_8c.html#a28bfe0435a7922335e67ebd5258beb13" target="_top" xlink:title=" ">
<polygon fill="white" stroke="black" points="100,-152.5 100,-171.5 159,-171.5 159,-152.5 100,-152.5"/>
<text text-anchor="middle" x="129.5" y="-159.5" font-family="Helvetica,sans-Serif" font-size="10.00">ren_noeol</text>
</a>
</g>
</g>
<!-- Node1&#45;&gt;Node21 -->
<g id="edge24" class="edge">
<title>Node1&#45;&gt;Node21</title>
<path fill="none" stroke="midnightblue" d="M38.26,-266.23C48.43,-247.96 72.24,-208.04 100,-181 101.09,-179.94 102.25,-178.9 103.45,-177.88"/>
<polygon fill="midnightblue" stroke="midnightblue" points="105.83,-180.48 111.74,-171.69 101.64,-174.87 105.83,-180.48"/>
</g>
<!-- Node22 -->
<g id="node22" class="node">
<title>Node22</title>
<g id="a_node22"><a xlink:href="uc_8c.html#a2fecd1fc98475ece5f529da3315a9553" target="_top" xlink:title=" ">
<polygon fill="white" stroke="black" points="206.5,-190.5 206.5,-209.5 252.5,-209.5 252.5,-190.5 206.5,-190.5"/>
<text text-anchor="middle" x="229.5" y="-197.5" font-family="Helvetica,sans-Serif" font-size="10.00">uc_chr</text>
</a>
</g>
</g>
<!-- Node1&#45;&gt;Node22 -->
<g id="edge34" class="edge">
<title>Node1&#45;&gt;Node22</title>
<path fill="none" stroke="midnightblue" d="M57.76,-266.37C93.04,-252.66 157.77,-227.49 196.6,-212.4"/>
<polygon fill="midnightblue" stroke="midnightblue" points="198.3,-215.5 206.35,-208.61 195.76,-208.97 198.3,-215.5"/>
</g>
<!-- Node23 -->
<g id="node23" class="node">
<title>Node23</title>
<g id="a_node23"><a xlink:href="uc_8c.html#a79c7c44c06c1febff5680c19667e2676" target="_top" xlink:title=" ">
<polygon fill="white" stroke="black" points="314.5,-190.5 314.5,-209.5 365.5,-209.5 365.5,-190.5 314.5,-190.5"/>
<text text-anchor="middle" x="340" y="-197.5" font-family="Helvetica,sans-Serif" font-size="10.00">uc_next</text>
</a>
</g>
</g>
<!-- Node1&#45;&gt;Node23 -->
<g id="edge35" class="edge">
<title>Node1&#45;&gt;Node23</title>
<path fill="none" stroke="midnightblue" d="M64,-271.28C89.62,-267.15 126.87,-260.64 159,-253 210.42,-240.77 268.96,-222.76 304.95,-211.2"/>
<polygon fill="midnightblue" stroke="midnightblue" points="306.03,-214.53 314.47,-208.12 303.88,-207.87 306.03,-214.53"/>
</g>
<!-- Node26 -->
<g id="node26" class="node">
<title>Node26</title>
<g id="a_node26"><a xlink:href="sbuf_8c.html#a8c1a89868b1999663effb78b4f3fab32" target="_top" xlink:title=" ">
<polygon fill="white" stroke="black" points="101,-114.5 101,-133.5 158,-133.5 158,-114.5 101,-114.5"/>
<text text-anchor="middle" x="129.5" y="-121.5" font-family="Helvetica,sans-Serif" font-size="10.00">sbuf_free</text>
</a>
</g>
</g>
<!-- Node1&#45;&gt;Node26 -->
<g id="edge31" class="edge">
<title>Node1&#45;&gt;Node26</title>
<path fill="none" stroke="midnightblue" d="M35.95,-266.31C43.46,-242.9 65.21,-182.29 100,-143 100.99,-141.89 102.05,-140.81 103.17,-139.77"/>
<polygon fill="midnightblue" stroke="midnightblue" points="105.39,-142.48 111.08,-133.54 101.06,-136.98 105.39,-142.48"/>
</g>
<!-- Node27 -->
<g id="node27" class="node">
<title>Node27</title>
<g id="a_node27"><a xlink:href="uc_8c.html#a12e27a6877e4a8705aeabfae5ae507db" target="_top" xlink:title=" ">
<polygon fill="white" stroke="black" points="105.5,-190.5 105.5,-209.5 153.5,-209.5 153.5,-190.5 105.5,-190.5"/>
<text text-anchor="middle" x="129.5" y="-197.5" font-family="Helvetica,sans-Serif" font-size="10.00">uc_sub</text>
</a>
</g>
</g>
<!-- Node1&#45;&gt;Node27 -->
<g id="edge36" class="edge">
<title>Node1&#45;&gt;Node27</title>
<path fill="none" stroke="midnightblue" d="M45.1,-266.37C61.1,-253.64 89.51,-231.03 108.67,-215.78"/>
<polygon fill="midnightblue" stroke="midnightblue" points="110.86,-218.51 116.5,-209.55 106.5,-213.04 110.86,-218.51"/>
</g>
<!-- Node28 -->
<g id="node28" class="node">
<title>Node28</title>
<g id="a_node28"><a xlink:href="vi_8c.html#a7162c1758b29682a16b65bc9766309f4" target="_top" xlink:title=" ">
<polygon fill="white" stroke="black" points="105.5,-76.5 105.5,-95.5 153.5,-95.5 153.5,-76.5 105.5,-76.5"/>
<text text-anchor="middle" x="129.5" y="-83.5" font-family="Helvetica,sans-Serif" font-size="10.00">vi_char</text>
</a>
</g>
</g>
<!-- Node1&#45;&gt;Node28 -->
<g id="edge38" class="edge">
<title>Node1&#45;&gt;Node28</title>
<path fill="none" stroke="midnightblue" d="M34.64,-266.47C39.82,-238.81 58,-157.14 100,-105 100.82,-103.98 101.71,-103 102.64,-102.06"/>
<polygon fill="midnightblue" stroke="midnightblue" points="105.06,-104.61 110.55,-95.54 100.6,-99.2 105.06,-104.61"/>
</g>
<!-- Node3 -->
<g id="node3" class="node">
<title>Node3</title>
<g id="a_node3"><a xlink:href="lbuf_8c.html#a7882079a375d5591a9f384a80a5599ff" target="_top" xlink:title=" ">
<polygon fill="white" stroke="black" points="204,-513.5 204,-532.5 255,-532.5 255,-513.5 204,-513.5"/>
<text text-anchor="middle" x="229.5" y="-520.5" font-family="Helvetica,sans-Serif" font-size="10.00">lbuf_opt</text>
</a>
</g>
</g>
<!-- Node2&#45;&gt;Node3 -->
<g id="edge2" class="edge">
<title>Node2&#45;&gt;Node3</title>
<path fill="none" stroke="midnightblue" d="M156.25,-523C167.77,-523 181.52,-523 193.92,-523"/>
<polygon fill="midnightblue" stroke="midnightblue" points="193.94,-526.5 203.94,-523 193.94,-519.5 193.94,-526.5"/>
</g>
<!-- Node18 -->
<g id="node18" class="node">
<title>Node18</title>
<g id="a_node18"><a xlink:href="lbuf_8c.html#a7d6629efef5a5cbd324d82e2b0c07c5d" target="_top" xlink:title=" ">
<polygon fill="white" stroke="black" points="195,-627.5 195,-646.5 264,-646.5 264,-627.5 195,-627.5"/>
<text text-anchor="middle" x="229.5" y="-634.5" font-family="Helvetica,sans-Serif" font-size="10.00">lbuf_replace</text>
</a>
</g>
</g>
<!-- Node2&#45;&gt;Node18 -->
<g id="edge18" class="edge">
<title>Node2&#45;&gt;Node18</title>
<path fill="none" stroke="midnightblue" d="M138.86,-532.72C155.42,-551.99 192.61,-595.25 213.51,-619.57"/>
<polygon fill="midnightblue" stroke="midnightblue" points="210.99,-622 220.17,-627.31 216.3,-617.44 210.99,-622"/>
</g>
<!-- Node4 -->
<g id="node4" class="node">
<title>Node4</title>
<g id="a_node4"><a xlink:href="lbuf_8c.html#ad5f7a537d1c72f485481fc22cb8361a6" target="_top" xlink:title=" ">
<polygon fill="white" stroke="black" points="316,-494.5 316,-513.5 364,-513.5 364,-494.5 316,-494.5"/>
<text text-anchor="middle" x="340" y="-501.5" font-family="Helvetica,sans-Serif" font-size="10.00">lbuf_cp</text>
</a>
</g>
</g>
<!-- Node3&#45;&gt;Node4 -->
<g id="edge3" class="edge">
<title>Node3&#45;&gt;Node4</title>
<path fill="none" stroke="midnightblue" d="M255.12,-518.69C270.1,-516.07 289.42,-512.68 305.74,-509.82"/>
<polygon fill="midnightblue" stroke="midnightblue" points="306.71,-513.21 315.96,-508.03 305.51,-506.31 306.71,-513.21"/>
</g>
<!-- Node11 -->
<g id="node11" class="node">
<title>Node11</title>
<g id="a_node11"><a xlink:href="lbuf_8c.html#aedcad8ccce5993eacce71ffc80aaab87" target="_top" xlink:title=" ">
<polygon fill="white" stroke="black" points="300,-570.5 300,-589.5 380,-589.5 380,-570.5 300,-570.5"/>
<text text-anchor="middle" x="340" y="-577.5" font-family="Helvetica,sans-Serif" font-size="10.00">lbuf_savemark</text>
</a>
</g>
</g>
<!-- Node3&#45;&gt;Node11 -->
<g id="edge11" class="edge">
<title>Node3&#45;&gt;Node11</title>
<path fill="none" stroke="midnightblue" d="M247.52,-532.6C261.51,-540.42 281.92,-551.66 300,-561 303.11,-562.6 306.37,-564.25 309.62,-565.87"/>
<polygon fill="midnightblue" stroke="midnightblue" points="308.15,-569.05 318.67,-570.32 311.24,-562.77 308.15,-569.05"/>
</g>
<!-- Node12 -->
<g id="node12" class="node">
<title>Node12</title>
<g id="a_node12"><a xlink:href="lbuf_8c.html#a46670f1a015007134b0d5a07ea258fcc" target="_top" xlink:title=" ">
<polygon fill="white" stroke="black" points="303,-532.5 303,-551.5 377,-551.5 377,-532.5 303,-532.5"/>
<text text-anchor="middle" x="340" y="-539.5" font-family="Helvetica,sans-Serif" font-size="10.00">lbuf_savepos</text>
</a>
</g>
</g>
<!-- Node3&#45;&gt;Node12 -->
<g id="edge12" class="edge">
<title>Node3&#45;&gt;Node12</title>
<path fill="none" stroke="midnightblue" d="M255.12,-527.31C266.27,-529.26 279.83,-531.64 292.77,-533.9"/>
<polygon fill="midnightblue" stroke="midnightblue" points="292.49,-537.41 302.95,-535.69 293.7,-530.51 292.49,-537.41"/>
</g>
<!-- Node14 -->
<g id="node14" class="node">
<title>Node14</title>
<g id="a_node14"><a xlink:href="lbuf_8c.html#ab41193f3312b21588338e92e1b144f87" target="_top" xlink:title=" ">
<polygon fill="white" stroke="black" points="312,-608.5 312,-627.5 368,-627.5 368,-608.5 312,-608.5"/>
<text text-anchor="middle" x="340" y="-615.5" font-family="Helvetica,sans-Serif" font-size="10.00">linecount</text>
</a>
</g>
</g>
<!-- Node3&#45;&gt;Node14 -->
<g id="edge14" class="edge">
<title>Node3&#45;&gt;Node14</title>
<path fill="none" stroke="midnightblue" d="M237.65,-532.98C249.27,-548.66 273.65,-579.31 300,-599 302.06,-600.54 304.26,-602 306.53,-603.39"/>
<polygon fill="midnightblue" stroke="midnightblue" points="305.03,-606.56 315.48,-608.32 308.41,-600.43 305.03,-606.56"/>
</g>
<!-- Node16 -->
<g id="node16" class="node">
<title>Node16</title>
<g id="a_node16"><a xlink:href="lbuf_8c.html#a94a520edd0e2f60713523483cf01c7de" target="_top" xlink:title=" ">
<polygon fill="white" stroke="black" points="310.5,-456.5 310.5,-475.5 369.5,-475.5 369.5,-456.5 310.5,-456.5"/>
<text text-anchor="middle" x="340" y="-463.5" font-family="Helvetica,sans-Serif" font-size="10.00">lopt_done</text>
</a>
</g>
</g>
<!-- Node3&#45;&gt;Node16 -->
<g id="edge16" class="edge">
<title>Node3&#45;&gt;Node16</title>
<path fill="none" stroke="midnightblue" d="M247.52,-513.4C261.51,-505.58 281.92,-494.34 300,-485 303.11,-483.4 306.37,-481.75 309.62,-480.13"/>
<polygon fill="midnightblue" stroke="midnightblue" points="311.24,-483.23 318.67,-475.68 308.15,-476.95 311.24,-483.23"/>
</g>
<!-- Node17 -->
<g id="node17" class="node">
<title>Node17</title>
<g id="a_node17"><a xlink:href="uc_8c.html#a2844d125d9a2c1d03848dcdf952b0edb" target="_top" xlink:title=" ">
<polygon fill="white" stroke="black" points="316,-418.5 316,-437.5 364,-437.5 364,-418.5 316,-418.5"/>
<text text-anchor="middle" x="340" y="-425.5" font-family="Helvetica,sans-Serif" font-size="10.00">uc_dup</text>
</a>
</g>
</g>
<!-- Node3&#45;&gt;Node17 -->
<g id="edge17" class="edge">
<title>Node3&#45;&gt;Node17</title>
<path fill="none" stroke="midnightblue" d="M237.65,-513.02C249.27,-497.34 273.65,-466.69 300,-447 302.19,-445.37 304.54,-443.81 306.96,-442.35"/>
<polygon fill="midnightblue" stroke="midnightblue" points="308.79,-445.34 315.89,-437.48 305.43,-439.2 308.79,-445.34"/>
</g>
<!-- Node5 -->
<g id="node5" class="node">
<title>Node5</title>
<g id="a_node5"><a xlink:href="sbuf_8c.html#a7bf14d501d36ce36ee269d77cf2c3fc6" target="_top" xlink:title=" ">
<polygon fill="white" stroke="black" points="421,-513.5 421,-532.5 483,-532.5 483,-513.5 421,-513.5"/>
<text text-anchor="middle" x="452" y="-520.5" font-family="Helvetica,sans-Serif" font-size="10.00">sbuf_done</text>
</a>
</g>
</g>
<!-- Node4&#45;&gt;Node5 -->
<g id="edge4" class="edge">
<title>Node4&#45;&gt;Node5</title>
<path fill="none" stroke="midnightblue" d="M364.06,-507.98C377.6,-510.32 395.09,-513.34 410.83,-516.06"/>
<polygon fill="midnightblue" stroke="midnightblue" points="410.41,-519.54 420.86,-517.79 411.61,-512.64 410.41,-519.54"/>
</g>
<!-- Node4&#45;&gt;Node8 -->
<g id="edge7" class="edge">
<title>Node4&#45;&gt;Node8</title>
<path fill="none" stroke="midnightblue" d="M364.08,-494.48C369.53,-491.78 375.15,-488.58 380,-485 402.55,-468.34 423.86,-443.94 437.14,-427.31"/>
<polygon fill="midnightblue" stroke="midnightblue" points="440.26,-429 443.65,-418.97 434.74,-424.7 440.26,-429"/>
</g>
<!-- Node4&#45;&gt;Node9 -->
<g id="edge8" class="edge">
<title>Node4&#45;&gt;Node9</title>
<path fill="none" stroke="midnightblue" d="M364.06,-500.02C378.98,-497.44 398.7,-494.03 415.59,-491.12"/>
<polygon fill="midnightblue" stroke="midnightblue" points="416.41,-494.53 425.67,-489.38 415.22,-487.63 416.41,-494.53"/>
</g>
<!-- Node5&#45;&gt;Node6 -->
<g id="edge5" class="edge">
<title>Node5&#45;&gt;Node6</title>
<path fill="none" stroke="midnightblue" d="M483.2,-523C494.53,-523 507.51,-523 519.33,-523"/>
<polygon fill="midnightblue" stroke="midnightblue" points="519.34,-526.5 529.34,-523 519.34,-519.5 519.34,-526.5"/>
</g>
<!-- Node7 -->
<g id="node7" class="node">
<title>Node7</title>
<g id="a_node7"><a xlink:href="sbuf_8c.html#a4ad75f3948c0340c342a3ea3eb63a6e6" target="_top" xlink:title=" ">
<polygon fill="white" stroke="black" points="625,-494.5 625,-513.5 695,-513.5 695,-494.5 625,-494.5"/>
<text text-anchor="middle" x="660" y="-501.5" font-family="Helvetica,sans-Serif" font-size="10.00">sbuf_extend</text>
</a>
</g>
</g>
<!-- Node6&#45;&gt;Node7 -->
<g id="edge6" class="edge">
<title>Node6&#45;&gt;Node7</title>
<path fill="none" stroke="midnightblue" d="M583.64,-518.11C593.16,-516.32 604.22,-514.26 614.87,-512.26"/>
<polygon fill="midnightblue" stroke="midnightblue" points="615.72,-515.66 624.9,-510.38 614.43,-508.78 615.72,-515.66"/>
</g>
<!-- Node10 -->
<g id="node10" class="node">
<title>Node10</title>
<g id="a_node10"><a xlink:href="sbuf_8c.html#aa511ac77d6b486accc01c0512ef27ed2" target="_top" xlink:title=" ">
<polygon fill="white" stroke="black" points="525.5,-475.5 525.5,-494.5 587.5,-494.5 587.5,-475.5 525.5,-475.5"/>
<text text-anchor="middle" x="556.5" y="-482.5" font-family="Helvetica,sans-Serif" font-size="10.00">sbuf_mem</text>
</a>
</g>
</g>
<!-- Node9&#45;&gt;Node10 -->
<g id="edge9" class="edge">
<title>Node9&#45;&gt;Node10</title>
<path fill="none" stroke="midnightblue" d="M478.07,-485C489.19,-485 502.54,-485 515.01,-485"/>
<polygon fill="midnightblue" stroke="midnightblue" points="515.21,-488.5 525.21,-485 515.21,-481.5 515.21,-488.5"/>
</g>
<!-- Node10&#45;&gt;Node7 -->
<g id="edge10" class="edge">
<title>Node10&#45;&gt;Node7</title>
<path fill="none" stroke="midnightblue" d="M587.68,-490.65C596.26,-492.26 605.79,-494.04 615.01,-495.77"/>
<polygon fill="midnightblue" stroke="midnightblue" points="614.37,-499.21 624.84,-497.61 615.66,-492.33 614.37,-499.21"/>
</g>
<!-- Node13 -->
<g id="node13" class="node">
<title>Node13</title>
<g id="a_node13"><a xlink:href="lbuf_8c.html#a69221917b521da2cd5f804a9f4694f1a" target="_top" xlink:title=" ">
<polygon fill="white" stroke="black" points="426.5,-575.5 426.5,-594.5 477.5,-594.5 477.5,-575.5 426.5,-575.5"/>
<text text-anchor="middle" x="452" y="-582.5" font-family="Helvetica,sans-Serif" font-size="10.00">markidx</text>
</a>
</g>
</g>
<!-- Node12&#45;&gt;Node13 -->
<g id="edge13" class="edge">
<title>Node12&#45;&gt;Node13</title>
<path fill="none" stroke="midnightblue" d="M365.41,-551.54C380.65,-557.5 400.48,-565.25 417.22,-571.79"/>
<polygon fill="midnightblue" stroke="midnightblue" points="416.07,-575.1 426.66,-575.48 418.62,-568.58 416.07,-575.1"/>
</g>
<!-- Node15 -->
<g id="node15" class="node">
<title>Node15</title>
<g id="a_node15"><a xlink:href="lbuf_8c.html#ac559857979b20ce0c64638c9e3e4edec" target="_top" xlink:title=" ">
<polygon fill="white" stroke="black" points="423,-660.5 423,-679.5 481,-679.5 481,-660.5 423,-660.5"/>
<text text-anchor="middle" x="452" y="-667.5" font-family="Helvetica,sans-Serif" font-size="10.00">linelength</text>
</a>
</g>
</g>
<!-- Node14&#45;&gt;Node15 -->
<g id="edge15" class="edge">
<title>Node14&#45;&gt;Node15</title>
<path fill="none" stroke="midnightblue" d="M361.18,-627.54C378.05,-635.51 402.35,-647 421.42,-656.02"/>
<polygon fill="midnightblue" stroke="midnightblue" points="420.04,-659.24 430.58,-660.35 423.03,-652.91 420.04,-659.24"/>
</g>
<!-- Node18&#45;&gt;Node14 -->
<g id="edge21" class="edge">
<title>Node18&#45;&gt;Node14</title>
<path fill="none" stroke="midnightblue" d="M264.24,-631.09C276.19,-629 289.71,-626.63 301.92,-624.49"/>
<polygon fill="midnightblue" stroke="midnightblue" points="302.57,-627.93 311.82,-622.76 301.37,-621.04 302.57,-627.93"/>
</g>
<!-- Node18&#45;&gt;Node15 -->
<g id="edge22" class="edge">
<title>Node18&#45;&gt;Node15</title>
<path fill="none" stroke="midnightblue" d="M243.5,-646.73C256.86,-656.07 278.68,-669.55 300,-675 337.56,-684.6 382.08,-681.45 413,-677.07"/>
<polygon fill="midnightblue" stroke="midnightblue" points="413.58,-680.52 422.94,-675.55 412.53,-673.6 413.58,-680.52"/>
</g>
<!-- Node19 -->
<g id="node19" class="node">
<title>Node19</title>
<g id="a_node19"><a xlink:href="lbuf_8c.html#a5a34f3f60dfd5ea06207d96d821da368" target="_top" xlink:title=" ">
<polygon fill="white" stroke="black" points="310.5,-646.5 310.5,-665.5 369.5,-665.5 369.5,-646.5 310.5,-646.5"/>
<text text-anchor="middle" x="340" y="-653.5" font-family="Helvetica,sans-Serif" font-size="10.00">lbuf_mark</text>
</a>
</g>
</g>
<!-- Node18&#45;&gt;Node19 -->
<g id="edge19" class="edge">
<title>Node18&#45;&gt;Node19</title>
<path fill="none" stroke="midnightblue" d="M264.24,-642.91C275.69,-644.91 288.57,-647.17 300.37,-649.24"/>
<polygon fill="midnightblue" stroke="midnightblue" points="299.95,-652.71 310.4,-650.99 301.16,-645.82 299.95,-652.71"/>
</g>
<!-- Node19&#45;&gt;Node13 -->
<g id="edge20" class="edge">
<title>Node19&#45;&gt;Node13</title>
<path fill="none" stroke="midnightblue" d="M362.42,-646.42C368.23,-643.59 374.45,-640.35 380,-637 398.2,-626.02 417.59,-611.62 431.5,-600.75"/>
<polygon fill="midnightblue" stroke="midnightblue" points="433.72,-603.46 439.39,-594.51 429.38,-597.97 433.72,-603.46"/>
</g>
<!-- Node21&#45;&gt;Node22 -->
<g id="edge25" class="edge">
<title>Node21&#45;&gt;Node22</title>
<path fill="none" stroke="midnightblue" d="M155.23,-171.59C167.91,-176.51 183.5,-182.55 197.03,-187.8"/>
<polygon fill="midnightblue" stroke="midnightblue" points="195.86,-191.1 206.45,-191.45 198.4,-184.57 195.86,-191.1"/>
</g>
<!-- Node25 -->
<g id="node25" class="node">
<title>Node25</title>
<g id="a_node25"><a xlink:href="uc_8c.html#a8afd7835259109c3ec7bb684d4a1f67f" target="_top" xlink:title=" ">
<polygon fill="white" stroke="black" points="204.5,-152.5 204.5,-171.5 254.5,-171.5 254.5,-152.5 204.5,-152.5"/>
<text text-anchor="middle" x="229.5" y="-159.5" font-family="Helvetica,sans-Serif" font-size="10.00">uc_slen</text>
</a>
</g>
</g>
<!-- Node21&#45;&gt;Node25 -->
<g id="edge28" class="edge">
<title>Node21&#45;&gt;Node25</title>
<path fill="none" stroke="midnightblue" d="M159.11,-162C170.1,-162 182.75,-162 194.21,-162"/>
<polygon fill="midnightblue" stroke="midnightblue" points="194.33,-165.5 204.33,-162 194.33,-158.5 194.33,-165.5"/>
</g>
<!-- Node22&#45;&gt;Node23 -->
<g id="edge26" class="edge">
<title>Node22&#45;&gt;Node23</title>
<path fill="none" stroke="midnightblue" d="M252.72,-200C267.5,-200 287.24,-200 304.1,-200"/>
<polygon fill="midnightblue" stroke="midnightblue" points="304.16,-203.5 314.16,-200 304.16,-196.5 304.16,-203.5"/>
</g>
<!-- Node24 -->
<g id="node24" class="node">
<title>Node24</title>
<g id="a_node24"><a xlink:href="uc_8c.html#a616e24870a58b86644c34ee077faca11" target="_top" xlink:title=" ">
<polygon fill="white" stroke="black" points="428,-171.5 428,-190.5 476,-190.5 476,-171.5 428,-171.5"/>
<text text-anchor="middle" x="452" y="-178.5" font-family="Helvetica,sans-Serif" font-size="10.00">uc_end</text>
</a>
</g>
</g>
<!-- Node23&#45;&gt;Node24 -->
<g id="edge27" class="edge">
<title>Node23&#45;&gt;Node24</title>
<path fill="none" stroke="midnightblue" d="M365.69,-195.74C381.11,-193.07 401.15,-189.61 417.94,-186.71"/>
<polygon fill="midnightblue" stroke="midnightblue" points="418.64,-190.14 427.9,-184.99 417.45,-183.24 418.64,-190.14"/>
</g>
<!-- Node25&#45;&gt;Node24 -->
<g id="edge29" class="edge">
<title>Node25&#45;&gt;Node24</title>
<path fill="none" stroke="midnightblue" d="M254.52,-164.07C293.99,-167.47 372.67,-174.25 417.57,-178.12"/>
<polygon fill="midnightblue" stroke="midnightblue" points="417.41,-181.62 427.68,-178.99 418.02,-174.64 417.41,-181.62"/>
</g>
<!-- Node27&#45;&gt;Node22 -->
<g id="edge37" class="edge">
<title>Node27&#45;&gt;Node22</title>
<path fill="none" stroke="midnightblue" d="M153.72,-200C166.44,-200 182.4,-200 196.31,-200"/>
<polygon fill="midnightblue" stroke="midnightblue" points="196.45,-203.5 206.45,-200 196.45,-196.5 196.45,-203.5"/>
</g>
<!-- Node29 -->
<g id="node29" class="node">
<title>Node29</title>
<g id="a_node29"><a xlink:href="led_8c.html#a1924b949e033052323dd2153d88e6001" target="_top" xlink:title=" ">
<polygon fill="white" stroke="black" points="203,-76.5 203,-95.5 256,-95.5 256,-76.5 203,-76.5"/>
<text text-anchor="middle" x="229.5" y="-83.5" font-family="Helvetica,sans-Serif" font-size="10.00">led_read</text>
</a>
</g>
</g>
<!-- Node28&#45;&gt;Node29 -->
<g id="edge39" class="edge">
<title>Node28&#45;&gt;Node29</title>
<path fill="none" stroke="midnightblue" d="M153.72,-86C165.34,-86 179.65,-86 192.63,-86"/>
<polygon fill="midnightblue" stroke="midnightblue" points="192.68,-89.5 202.68,-86 192.68,-82.5 192.68,-89.5"/>
</g>
<!-- Node30 -->
<g id="node30" class="node">
<title>Node30</title>
<g id="a_node30"><a xlink:href="led_8c.html#a8bbdff3c2783b27081d76136774c5dbf" target="_top" xlink:title=" ">
<polygon fill="white" stroke="black" points="304,-76.5 304,-95.5 376,-95.5 376,-76.5 304,-76.5"/>
<text text-anchor="middle" x="340" y="-83.5" font-family="Helvetica,sans-Serif" font-size="10.00">led_readchar</text>
</a>
</g>
</g>
<!-- Node29&#45;&gt;Node30 -->
<g id="edge40" class="edge">
<title>Node29&#45;&gt;Node30</title>
<path fill="none" stroke="midnightblue" d="M256.21,-86C267.39,-86 280.82,-86 293.58,-86"/>
<polygon fill="midnightblue" stroke="midnightblue" points="293.62,-89.5 303.62,-86 293.62,-82.5 293.62,-89.5"/>
</g>
<!-- Node34 -->
<g id="node34" class="node">
<title>Node34</title>
<g id="a_node34"><a xlink:href="term_8c.html#ab37222c9b84980b0492b34d0a4e32f12" target="_top" xlink:title=" ">
<polygon fill="white" stroke="black" points="422,-114.5 422,-133.5 482,-133.5 482,-114.5 422,-114.5"/>
<text text-anchor="middle" x="452" y="-121.5" font-family="Helvetica,sans-Serif" font-size="10.00">term_read</text>
</a>
</g>
</g>
<!-- Node29&#45;&gt;Node34 -->
<g id="edge46" class="edge">
<title>Node29&#45;&gt;Node34</title>
<path fill="none" stroke="midnightblue" d="M256.04,-93.91C269.09,-97.72 285.28,-102.08 300,-105 337.56,-112.46 380.98,-117.56 411.59,-120.58"/>
<polygon fill="midnightblue" stroke="midnightblue" points="411.57,-124.1 421.86,-121.57 412.24,-117.13 411.57,-124.1"/>
</g>
<!-- Node31 -->
<g id="node31" class="node">
<title>Node31</title>
<g id="a_node31"><a xlink:href="conf_8c.html#acbeed8b0b62960a541af67e17d6c7131" target="_top" xlink:title=" ">
<polygon fill="white" stroke="black" points="416,-38.5 416,-57.5 488,-57.5 488,-38.5 416,-38.5"/>
<text text-anchor="middle" x="452" y="-45.5" font-family="Helvetica,sans-Serif" font-size="10.00">conf_digraph</text>
</a>
</g>
</g>
<!-- Node30&#45;&gt;Node31 -->
<g id="edge41" class="edge">
<title>Node30&#45;&gt;Node31</title>
<path fill="none" stroke="midnightblue" d="M368.76,-76.41C382.31,-71.73 398.81,-66.03 413.46,-60.97"/>
<polygon fill="midnightblue" stroke="midnightblue" points="414.94,-64.16 423.25,-57.59 412.66,-57.54 414.94,-64.16"/>
</g>
<!-- Node32 -->
<g id="node32" class="node">
<title>Node32</title>
<g id="a_node32"><a xlink:href="led_8c.html#a1b9303e418de8d39a47db9256cfd9765" target="_top" xlink:title=" ">
<polygon fill="white" stroke="black" points="419.5,-0.5 419.5,-19.5 484.5,-19.5 484.5,-0.5 419.5,-0.5"/>
<text text-anchor="middle" x="452" y="-7.5" font-family="Helvetica,sans-Serif" font-size="10.00">kmap_map</text>
</a>
</g>
</g>
<!-- Node30&#45;&gt;Node32 -->
<g id="edge42" class="edge">
<title>Node30&#45;&gt;Node32</title>
<path fill="none" stroke="midnightblue" d="M352.55,-76.34C366.94,-64.51 392.51,-44.18 416,-29 418.32,-27.5 420.76,-26.01 423.23,-24.56"/>
<polygon fill="midnightblue" stroke="midnightblue" points="425.16,-27.49 432.17,-19.54 421.73,-21.39 425.16,-27.49"/>
</g>
<!-- Node30&#45;&gt;Node34 -->
<g id="edge44" class="edge">
<title>Node30&#45;&gt;Node34</title>
<path fill="none" stroke="midnightblue" d="M368.76,-95.59C382.31,-100.27 398.81,-105.97 413.46,-111.03"/>
<polygon fill="midnightblue" stroke="midnightblue" points="412.66,-114.46 423.25,-114.41 414.94,-107.84 412.66,-114.46"/>
</g>
<!-- Node35 -->
<g id="node35" class="node">
<title>Node35</title>
<g id="a_node35"><a xlink:href="regex_8c.html#a9a0d6d5f93f1eaba8b63b16903c0952d" target="_top" xlink:title=" ">
<polygon fill="white" stroke="black" points="429.5,-76.5 429.5,-95.5 474.5,-95.5 474.5,-76.5 429.5,-76.5"/>
<text text-anchor="middle" x="452" y="-83.5" font-family="Helvetica,sans-Serif" font-size="10.00">uc_len</text>
</a>
</g>
</g>
<!-- Node30&#45;&gt;Node35 -->
<g id="edge45" class="edge">
<title>Node30&#45;&gt;Node35</title>
<path fill="none" stroke="midnightblue" d="M376.11,-86C389.9,-86 405.62,-86 419.09,-86"/>
<polygon fill="midnightblue" stroke="midnightblue" points="419.32,-89.5 429.32,-86 419.32,-82.5 419.32,-89.5"/>
</g>
<!-- Node33 -->
<g id="node33" class="node">
<title>Node33</title>
<g id="a_node33"><a xlink:href="conf_8c.html#a701ceb92f75bae1a0d9d805796eb2f84" target="_top" xlink:title=" ">
<polygon fill="white" stroke="black" points="524,-0.5 524,-19.5 589,-19.5 589,-0.5 524,-0.5"/>
<text text-anchor="middle" x="556.5" y="-7.5" font-family="Helvetica,sans-Serif" font-size="10.00">conf_kmap</text>
</a>
</g>
</g>
<!-- Node32&#45;&gt;Node33 -->
<g id="edge43" class="edge">
<title>Node32&#45;&gt;Node33</title>
<path fill="none" stroke="midnightblue" d="M484.59,-10C493.75,-10 503.89,-10 513.58,-10"/>
<polygon fill="midnightblue" stroke="midnightblue" points="513.84,-13.5 523.84,-10 513.84,-6.5 513.84,-13.5"/>
</g>
</g>
</svg>
        <g id="navigator" transform="translate(0 0)" fill="#404254">
                <rect fill="#f2f5e9" fill-opacity="0.5" stroke="#606060" stroke-width=".5" x="0" y="0" width="60" height="60"/>
                <use id="zoomplus" xlink:href="#zoomPlus" x="17" y="9" onmousedown="handleZoom(evt,'in')"/>
                <use id="zoomminus" xlink:href="#zoomMin" x="42" y="9" onmousedown="handleZoom(evt,'out')"/>
                <use id="reset" xlink:href="#resetDef" x="30" y="36" onmousedown="handleReset()"/>
                <g id="arrowUp" xlink:href="#dirArrow" transform="translate(30 24)" onmousedown="handlePan(0,-1)">
                  <use xlink:href="#rim" fill="#404040">
                        <set attributeName="fill" to="#808080" begin="arrowUp.mouseover" end="arrowUp.mouseout"/>
                  </use>
                  <path fill="none" stroke="white" stroke-width="1.5" d="M0,-3.0v7 M-2.5,-0.5L0,-3.0L2.5,-0.5"/>
                </g>
                <g id="arrowRight" xlink:href="#dirArrow" transform="rotate(90) translate(36 -43)" onmousedown="handlePan(1,0)">
                  <use xlink:href="#rim" fill="#404040">
                        <set attributeName="fill" to="#808080" begin="arrowRight.mouseover" end="arrowRight.mouseout"/>
                  </use>
                  <path fill="none" stroke="white" stroke-width="1.5" d="M0,-3.0v7 M-2.5,-0.5L0,-3.0L2.5,-0.5"/>
                </g>
                <g id="arrowDown" xlink:href="#dirArrow" transform="rotate(180) translate(-30 -48)" onmousedown="handlePan(0,1)">
                  <use xlink:href="#rim" fill="#404040">
                        <set attributeName="fill" to="#808080" begin="arrowDown.mouseover" end="arrowDown.mouseout"/>
                  </use>
                  <path fill="none" stroke="white" stroke-width="1.5" d="M0,-3.0v7 M-2.5,-0.5L0,-3.0L2.5,-0.5"/>
                </g>
                <g id="arrowLeft" xlink:href="#dirArrow" transform="rotate(270) translate(-36 17)" onmousedown="handlePan(-1,0)">
                  <use xlink:href="#rim" fill="#404040">
                        <set attributeName="fill" to="#808080" begin="arrowLeft.mouseover" end="arrowLeft.mouseout"/>
                  </use>
                  <path fill="none" stroke="white" stroke-width="1.5" d="M0,-3.0v7 M-2.5,-0.5L0,-3.0L2.5,-0.5"/>
                </g>
        </g>
        <svg viewBox="0 0 15 15" width="100%" height="30px" preserveAspectRatio="xMaxYMin meet">
         <g id="arrow_out" transform="scale(0.3 0.3)">
          <a xlink:href="vi_8c_a3635843354dbb31e3c00efcd5798535a_cgraph_org.svg" target="_base">
           <rect id="button" ry="5" rx="5" y="6" x="6" height="38" width="38"
                fill="#f2f5e9" fill-opacity="0.5" stroke="#606060" stroke-width="1.0"/>
           <path id="arrow"
             d="M 11.500037,31.436501 C 11.940474,20.09759 22.043105,11.32322 32.158766,21.979434 L 37.068811,17.246167 C 37.068811,17.246167 37.088388,32 37.088388,32 L 22.160133,31.978069 C 22.160133,31.978069 26.997745,27.140456 26.997745,27.140456 C 18.528582,18.264221 13.291696,25.230495 11.500037,31.436501 z"
             style="fill:#404040;"/>
          </a>
         </g>
        </svg>
</svg>
