<?xml version="1.0" encoding="UTF-8" standalone="no"?>
<!DOCTYPE svg PUBLIC "-//W3C//DTD SVG 1.1//EN"
 "http://www.w3.org/Graphics/SVG/1.1/DTD/svg11.dtd">
<!-- Generated by graphviz version 2.44.1 (20200629.0846)
 -->
<!-- Title: vi_case Pages: 1 -->
<svg width="689pt" height="726pt"
 viewBox="0.00 0.00 689.00 725.58" xmlns="http://www.w3.org/2000/svg" xmlns:xlink="http://www.w3.org/1999/xlink">
<g id="graph0" class="graph" transform="scale(1 1) rotate(0) translate(4 721.58)">
<title>vi_case</title>
<polygon fill="white" stroke="transparent" points="-4,4 -4,-721.58 685,-721.58 685,4 -4,4"/>
<!-- Node1 -->
<g id="node1" class="node">
<title>Node1</title>
<g id="a_node1"><a xlink:title=" ">
<polygon fill="#bfbfbf" stroke="black" points="0,-228.5 0,-247.5 50,-247.5 50,-228.5 0,-228.5"/>
<text text-anchor="middle" x="25" y="-235.5" font-family="Helvetica,sans-Serif" font-size="10.00">vi_case</text>
</a>
</g>
</g>
<!-- Node2 -->
<g id="node2" class="node">
<title>Node2</title>
<g id="a_node2"><a xlink:href="lbuf_8c.html#ac261b7344d70724c31f360a5dd8e2ffc" target="_top" xlink:title=" ">
<polygon fill="white" stroke="black" points="94,-551.5 94,-570.5 147,-570.5 147,-551.5 94,-551.5"/>
<text text-anchor="middle" x="120.5" y="-558.5" font-family="Helvetica,sans-Serif" font-size="10.00">lbuf_edit</text>
</a>
</g>
</g>
<!-- Node1&#45;&gt;Node2 -->
<g id="edge1" class="edge">
<title>Node1&#45;&gt;Node2</title>
<path fill="none" stroke="midnightblue" d="M26.51,-247.67C28.79,-284.57 39.97,-419.33 86,-518 90.26,-527.12 96.76,-536.09 102.91,-543.45"/>
<polygon fill="midnightblue" stroke="midnightblue" points="100.57,-546.09 109.81,-551.28 105.82,-541.46 100.57,-546.09"/>
</g>
<!-- Node6 -->
<g id="node6" class="node">
<title>Node6</title>
<g id="a_node6"><a xlink:href="sbuf_8c.html#a4e56760893d5a6797626743840c9adf2" target="_top" xlink:title=" ">
<polygon fill="white" stroke="black" points="517,-333.5 517,-352.5 571,-352.5 571,-333.5 517,-333.5"/>
<text text-anchor="middle" x="544" y="-340.5" font-family="Helvetica,sans-Serif" font-size="10.00">sbuf_buf</text>
</a>
</g>
</g>
<!-- Node1&#45;&gt;Node6 -->
<g id="edge38" class="edge">
<title>Node1&#45;&gt;Node6</title>
<path fill="none" stroke="midnightblue" d="M28.92,-247.51C42.85,-290.66 106.68,-466 224.5,-466 224.5,-466 224.5,-466 337,-466 404.18,-466 421.03,-446.16 477,-409 497.31,-395.52 516.55,-375.08 528.96,-360.53"/>
<polygon fill="midnightblue" stroke="midnightblue" points="531.73,-362.66 535.43,-352.73 526.35,-358.19 531.73,-362.66"/>
</g>
<!-- Node8 -->
<g id="node8" class="node">
<title>Node8</title>
<g id="a_node8"><a xlink:href="sbuf_8c.html#a57748585d6786a2c1aadc2cbe6f2135b" target="_top" xlink:title=" ">
<polygon fill="white" stroke="black" points="412,-380.5 412,-399.5 477,-399.5 477,-380.5 412,-380.5"/>
<text text-anchor="middle" x="444.5" y="-387.5" font-family="Helvetica,sans-Serif" font-size="10.00">sbuf_make</text>
</a>
</g>
</g>
<!-- Node1&#45;&gt;Node8 -->
<g id="edge40" class="edge">
<title>Node1&#45;&gt;Node8</title>
<path fill="none" stroke="midnightblue" d="M34.14,-247.63C56.37,-273.25 121.13,-343.39 191,-377 265.77,-412.97 293.35,-409.29 376,-402 384.34,-401.26 393.2,-400.03 401.66,-398.62"/>
<polygon fill="midnightblue" stroke="midnightblue" points="402.48,-402.03 411.72,-396.84 401.26,-395.13 402.48,-402.03"/>
</g>
<!-- Node9 -->
<g id="node9" class="node">
<title>Node9</title>
<g id="a_node9"><a xlink:href="sbuf_8c.html#a603d1d6ab090025f5850f10bfa2dec7a" target="_top" xlink:title=" ">
<polygon fill="white" stroke="black" points="418.5,-276.5 418.5,-295.5 470.5,-295.5 470.5,-276.5 418.5,-276.5"/>
<text text-anchor="middle" x="444.5" y="-283.5" font-family="Helvetica,sans-Serif" font-size="10.00">sbuf_str</text>
</a>
</g>
</g>
<!-- Node1&#45;&gt;Node9 -->
<g id="edge41" class="edge">
<title>Node1&#45;&gt;Node9</title>
<path fill="none" stroke="midnightblue" d="M50.21,-240.52C107.09,-246.47 253.72,-262.04 376,-277 386.47,-278.28 397.85,-279.76 408.22,-281.15"/>
<polygon fill="midnightblue" stroke="midnightblue" points="407.82,-284.63 418.19,-282.49 408.75,-277.69 407.82,-284.63"/>
</g>
<!-- Node17 -->
<g id="node17" class="node">
<title>Node17</title>
<g id="a_node17"><a xlink:href="uc_8c.html#a2844d125d9a2c1d03848dcdf952b0edb" target="_top" xlink:title=" ">
<polygon fill="white" stroke="black" points="312,-494.5 312,-513.5 360,-513.5 360,-494.5 312,-494.5"/>
<text text-anchor="middle" x="336" y="-501.5" font-family="Helvetica,sans-Serif" font-size="10.00">uc_dup</text>
</a>
</g>
</g>
<!-- Node1&#45;&gt;Node17 -->
<g id="edge42" class="edge">
<title>Node1&#45;&gt;Node17</title>
<path fill="none" stroke="midnightblue" d="M26.94,-247.73C31.13,-288.96 49.54,-448.54 86,-480 146.73,-532.4 249.43,-521.68 301.94,-511.65"/>
<polygon fill="midnightblue" stroke="midnightblue" points="302.63,-515.08 311.74,-509.67 301.25,-508.22 302.63,-515.08"/>
</g>
<!-- Node20 -->
<g id="node20" class="node">
<title>Node20</title>
<g id="a_node20"><a xlink:href="lbuf_8c.html#ad0f45475ddc6eb82ecedf63ed1b914d4" target="_top" xlink:title=" ">
<polygon fill="white" stroke="black" points="200,-190.5 200,-209.5 251,-209.5 251,-190.5 200,-190.5"/>
<text text-anchor="middle" x="225.5" y="-197.5" font-family="Helvetica,sans-Serif" font-size="10.00">lbuf_get</text>
</a>
</g>
</g>
<!-- Node1&#45;&gt;Node20 -->
<g id="edge23" class="edge">
<title>Node1&#45;&gt;Node20</title>
<path fill="none" stroke="midnightblue" d="M50.16,-232.03C61.08,-229.42 74.15,-226.41 86,-224 121.2,-216.85 161.71,-209.99 189.79,-205.45"/>
<polygon fill="midnightblue" stroke="midnightblue" points="190.58,-208.86 199.9,-203.82 189.47,-201.95 190.58,-208.86"/>
</g>
<!-- Node21 -->
<g id="node21" class="node">
<title>Node21</title>
<g id="a_node21"><a xlink:href="mot_8c.html#a813931c130c89b7e9e71f3d524b92705" target="_top" xlink:title=" ">
<polygon fill="white" stroke="black" points="86,-152.5 86,-171.5 155,-171.5 155,-152.5 86,-152.5"/>
<text text-anchor="middle" x="120.5" y="-159.5" font-family="Helvetica,sans-Serif" font-size="10.00">lbuf_indents</text>
</a>
</g>
</g>
<!-- Node1&#45;&gt;Node21 -->
<g id="edge24" class="edge">
<title>Node1&#45;&gt;Node21</title>
<path fill="none" stroke="midnightblue" d="M36.37,-228.49C48.14,-217.83 68.03,-200.17 86,-186 89.64,-183.13 93.58,-180.18 97.44,-177.37"/>
<polygon fill="midnightblue" stroke="midnightblue" points="99.5,-180.19 105.6,-171.53 95.43,-174.5 99.5,-180.19"/>
</g>
<!-- Node23 -->
<g id="node23" class="node">
<title>Node23</title>
<g id="a_node23"><a xlink:href="uc_8c.html#a79c7c44c06c1febff5680c19667e2676" target="_top" xlink:title=" ">
<polygon fill="white" stroke="black" points="419,-76.5 419,-95.5 470,-95.5 470,-76.5 419,-76.5"/>
<text text-anchor="middle" x="444.5" y="-83.5" font-family="Helvetica,sans-Serif" font-size="10.00">uc_next</text>
</a>
</g>
</g>
<!-- Node1&#45;&gt;Node23 -->
<g id="edge43" class="edge">
<title>Node1&#45;&gt;Node23</title>
<path fill="none" stroke="midnightblue" d="M27.54,-228.2C31.94,-203.4 46.88,-137.61 86,-102 176.2,-19.88 338.34,-54.31 409,-74.82"/>
<polygon fill="midnightblue" stroke="midnightblue" points="408.16,-78.23 418.75,-77.73 410.16,-71.52 408.16,-78.23"/>
</g>
<!-- Node25 -->
<g id="node25" class="node">
<title>Node25</title>
<g id="a_node25"><a xlink:href="vi_8c.html#a2d2d2965bc8143e80182d0205d32bdc4" target="_top" xlink:title=" ">
<polygon fill="white" stroke="black" points="88.5,-266.5 88.5,-285.5 152.5,-285.5 152.5,-266.5 88.5,-266.5"/>
<text text-anchor="middle" x="120.5" y="-273.5" font-family="Helvetica,sans-Serif" font-size="10.00">lbuf_region</text>
</a>
</g>
</g>
<!-- Node1&#45;&gt;Node25 -->
<g id="edge29" class="edge">
<title>Node1&#45;&gt;Node25</title>
<path fill="none" stroke="midnightblue" d="M49.59,-247.59C60.78,-252.13 74.33,-257.64 86.51,-262.59"/>
<polygon fill="midnightblue" stroke="midnightblue" points="85.33,-265.89 95.91,-266.41 87.97,-259.41 85.33,-265.89"/>
</g>
<!-- Node26 -->
<g id="node26" class="node">
<title>Node26</title>
<g id="a_node26"><a xlink:href="uc_8c.html#a12e27a6877e4a8705aeabfae5ae507db" target="_top" xlink:title=" ">
<polygon fill="white" stroke="black" points="201.5,-76.5 201.5,-95.5 249.5,-95.5 249.5,-76.5 201.5,-76.5"/>
<text text-anchor="middle" x="225.5" y="-83.5" font-family="Helvetica,sans-Serif" font-size="10.00">uc_sub</text>
</a>
</g>
</g>
<!-- Node1&#45;&gt;Node26 -->
<g id="edge44" class="edge">
<title>Node1&#45;&gt;Node26</title>
<path fill="none" stroke="midnightblue" d="M29.76,-228.27C37.51,-209.35 57.03,-167.35 86,-143 116.89,-117.03 161.23,-101.6 191.36,-93.48"/>
<polygon fill="midnightblue" stroke="midnightblue" points="192.57,-96.78 201.38,-90.9 190.82,-90 192.57,-96.78"/>
</g>
<!-- Node28 -->
<g id="node28" class="node">
<title>Node28</title>
<g id="a_node28"><a xlink:href="sbuf_8c.html#a8c1a89868b1999663effb78b4f3fab32" target="_top" xlink:title=" ">
<polygon fill="white" stroke="black" points="92,-0.5 92,-19.5 149,-19.5 149,-0.5 92,-0.5"/>
<text text-anchor="middle" x="120.5" y="-7.5" font-family="Helvetica,sans-Serif" font-size="10.00">sbuf_free</text>
</a>
</g>
</g>
<!-- Node1&#45;&gt;Node28 -->
<g id="edge39" class="edge">
<title>Node1&#45;&gt;Node28</title>
<path fill="none" stroke="midnightblue" d="M26.66,-228.09C29.17,-196.76 40.47,-98.11 86,-34 88.09,-31.05 90.67,-28.33 93.45,-25.87"/>
<polygon fill="midnightblue" stroke="midnightblue" points="95.8,-28.47 101.61,-19.61 91.54,-22.92 95.8,-28.47"/>
</g>
<!-- Node3 -->
<g id="node3" class="node">
<title>Node3</title>
<g id="a_node3"><a xlink:href="lbuf_8c.html#a7882079a375d5591a9f384a80a5599ff" target="_top" xlink:title=" ">
<polygon fill="white" stroke="black" points="200,-551.5 200,-570.5 251,-570.5 251,-551.5 200,-551.5"/>
<text text-anchor="middle" x="225.5" y="-558.5" font-family="Helvetica,sans-Serif" font-size="10.00">lbuf_opt</text>
</a>
</g>
</g>
<!-- Node2&#45;&gt;Node3 -->
<g id="edge2" class="edge">
<title>Node2&#45;&gt;Node3</title>
<path fill="none" stroke="midnightblue" d="M147.23,-561C160.05,-561 175.74,-561 189.62,-561"/>
<polygon fill="midnightblue" stroke="midnightblue" points="189.81,-564.5 199.81,-561 189.81,-557.5 189.81,-564.5"/>
</g>
<!-- Node18 -->
<g id="node18" class="node">
<title>Node18</title>
<g id="a_node18"><a xlink:href="lbuf_8c.html#a7d6629efef5a5cbd324d82e2b0c07c5d" target="_top" xlink:title=" ">
<polygon fill="white" stroke="black" points="191,-665.5 191,-684.5 260,-684.5 260,-665.5 191,-665.5"/>
<text text-anchor="middle" x="225.5" y="-672.5" font-family="Helvetica,sans-Serif" font-size="10.00">lbuf_replace</text>
</a>
</g>
</g>
<!-- Node2&#45;&gt;Node18 -->
<g id="edge18" class="edge">
<title>Node2&#45;&gt;Node18</title>
<path fill="none" stroke="midnightblue" d="M130.28,-570.72C147.76,-590.07 187.12,-633.63 209.04,-657.88"/>
<polygon fill="midnightblue" stroke="midnightblue" points="206.44,-660.23 215.74,-665.31 211.63,-655.54 206.44,-660.23"/>
</g>
<!-- Node4 -->
<g id="node4" class="node">
<title>Node4</title>
<g id="a_node4"><a xlink:href="lbuf_8c.html#ad5f7a537d1c72f485481fc22cb8361a6" target="_top" xlink:title=" ">
<polygon fill="white" stroke="black" points="312,-342.5 312,-361.5 360,-361.5 360,-342.5 312,-342.5"/>
<text text-anchor="middle" x="336" y="-349.5" font-family="Helvetica,sans-Serif" font-size="10.00">lbuf_cp</text>
</a>
</g>
</g>
<!-- Node3&#45;&gt;Node4 -->
<g id="edge3" class="edge">
<title>Node3&#45;&gt;Node4</title>
<path fill="none" stroke="midnightblue" d="M231.44,-551.48C248.18,-519.24 302.89,-413.86 325.3,-370.69"/>
<polygon fill="midnightblue" stroke="midnightblue" points="328.53,-372.07 330.03,-361.58 322.31,-368.84 328.53,-372.07"/>
</g>
<!-- Node11 -->
<g id="node11" class="node">
<title>Node11</title>
<g id="a_node11"><a xlink:href="lbuf_8c.html#aedcad8ccce5993eacce71ffc80aaab87" target="_top" xlink:title=" ">
<polygon fill="white" stroke="black" points="296,-608.5 296,-627.5 376,-627.5 376,-608.5 296,-608.5"/>
<text text-anchor="middle" x="336" y="-615.5" font-family="Helvetica,sans-Serif" font-size="10.00">lbuf_savemark</text>
</a>
</g>
</g>
<!-- Node3&#45;&gt;Node11 -->
<g id="edge11" class="edge">
<title>Node3&#45;&gt;Node11</title>
<path fill="none" stroke="midnightblue" d="M243.52,-570.6C257.51,-578.42 277.92,-589.66 296,-599 299.11,-600.6 302.37,-602.25 305.62,-603.87"/>
<polygon fill="midnightblue" stroke="midnightblue" points="304.15,-607.05 314.67,-608.32 307.24,-600.77 304.15,-607.05"/>
</g>
<!-- Node12 -->
<g id="node12" class="node">
<title>Node12</title>
<g id="a_node12"><a xlink:href="lbuf_8c.html#a46670f1a015007134b0d5a07ea258fcc" target="_top" xlink:title=" ">
<polygon fill="white" stroke="black" points="299,-570.5 299,-589.5 373,-589.5 373,-570.5 299,-570.5"/>
<text text-anchor="middle" x="336" y="-577.5" font-family="Helvetica,sans-Serif" font-size="10.00">lbuf_savepos</text>
</a>
</g>
</g>
<!-- Node3&#45;&gt;Node12 -->
<g id="edge12" class="edge">
<title>Node3&#45;&gt;Node12</title>
<path fill="none" stroke="midnightblue" d="M251.12,-565.31C262.27,-567.26 275.83,-569.64 288.77,-571.9"/>
<polygon fill="midnightblue" stroke="midnightblue" points="288.49,-575.41 298.95,-573.69 289.7,-568.51 288.49,-575.41"/>
</g>
<!-- Node14 -->
<g id="node14" class="node">
<title>Node14</title>
<g id="a_node14"><a xlink:href="lbuf_8c.html#ab41193f3312b21588338e92e1b144f87" target="_top" xlink:title=" ">
<polygon fill="white" stroke="black" points="308,-646.5 308,-665.5 364,-665.5 364,-646.5 308,-646.5"/>
<text text-anchor="middle" x="336" y="-653.5" font-family="Helvetica,sans-Serif" font-size="10.00">linecount</text>
</a>
</g>
</g>
<!-- Node3&#45;&gt;Node14 -->
<g id="edge14" class="edge">
<title>Node3&#45;&gt;Node14</title>
<path fill="none" stroke="midnightblue" d="M233.65,-570.98C245.27,-586.66 269.65,-617.31 296,-637 298.06,-638.54 300.26,-640 302.53,-641.39"/>
<polygon fill="midnightblue" stroke="midnightblue" points="301.03,-644.56 311.48,-646.32 304.41,-638.43 301.03,-644.56"/>
</g>
<!-- Node16 -->
<g id="node16" class="node">
<title>Node16</title>
<g id="a_node16"><a xlink:href="lbuf_8c.html#a94a520edd0e2f60713523483cf01c7de" target="_top" xlink:title=" ">
<polygon fill="white" stroke="black" points="306.5,-532.5 306.5,-551.5 365.5,-551.5 365.5,-532.5 306.5,-532.5"/>
<text text-anchor="middle" x="336" y="-539.5" font-family="Helvetica,sans-Serif" font-size="10.00">lopt_done</text>
</a>
</g>
</g>
<!-- Node3&#45;&gt;Node16 -->
<g id="edge16" class="edge">
<title>Node3&#45;&gt;Node16</title>
<path fill="none" stroke="midnightblue" d="M251.12,-556.69C264.43,-554.36 281.17,-551.43 296.19,-548.8"/>
<polygon fill="midnightblue" stroke="midnightblue" points="297,-552.21 306.25,-547.03 295.8,-545.31 297,-552.21"/>
</g>
<!-- Node3&#45;&gt;Node17 -->
<g id="edge17" class="edge">
<title>Node3&#45;&gt;Node17</title>
<path fill="none" stroke="midnightblue" d="M243.52,-551.4C257.51,-543.58 277.92,-532.34 296,-523 299.11,-521.4 302.37,-519.75 305.62,-518.13"/>
<polygon fill="midnightblue" stroke="midnightblue" points="307.24,-521.23 314.67,-513.68 304.15,-514.95 307.24,-521.23"/>
</g>
<!-- Node5 -->
<g id="node5" class="node">
<title>Node5</title>
<g id="a_node5"><a xlink:href="sbuf_8c.html#a7bf14d501d36ce36ee269d77cf2c3fc6" target="_top" xlink:title=" ">
<polygon fill="white" stroke="black" points="413.5,-333.5 413.5,-352.5 475.5,-352.5 475.5,-333.5 413.5,-333.5"/>
<text text-anchor="middle" x="444.5" y="-340.5" font-family="Helvetica,sans-Serif" font-size="10.00">sbuf_done</text>
</a>
</g>
</g>
<!-- Node4&#45;&gt;Node5 -->
<g id="edge4" class="edge">
<title>Node4&#45;&gt;Node5</title>
<path fill="none" stroke="midnightblue" d="M360.11,-350.05C372.61,-348.99 388.42,-347.65 402.91,-346.43"/>
<polygon fill="midnightblue" stroke="midnightblue" points="403.48,-349.89 413.15,-345.56 402.89,-342.92 403.48,-349.89"/>
</g>
<!-- Node4&#45;&gt;Node8 -->
<g id="edge7" class="edge">
<title>Node4&#45;&gt;Node8</title>
<path fill="none" stroke="midnightblue" d="M360.11,-360.25C373.76,-365.12 391.35,-371.39 406.85,-376.92"/>
<polygon fill="midnightblue" stroke="midnightblue" points="406.08,-380.37 416.68,-380.43 408.43,-373.77 406.08,-380.37"/>
</g>
<!-- Node4&#45;&gt;Node9 -->
<g id="edge8" class="edge">
<title>Node4&#45;&gt;Node9</title>
<path fill="none" stroke="midnightblue" d="M352.71,-342.26C370.28,-331.38 398.92,-313.63 419.34,-300.98"/>
<polygon fill="midnightblue" stroke="midnightblue" points="421.41,-303.81 428.07,-295.56 417.72,-297.86 421.41,-303.81"/>
</g>
<!-- Node5&#45;&gt;Node6 -->
<g id="edge5" class="edge">
<title>Node5&#45;&gt;Node6</title>
<path fill="none" stroke="midnightblue" d="M475.55,-343C485.35,-343 496.34,-343 506.56,-343"/>
<polygon fill="midnightblue" stroke="midnightblue" points="506.84,-346.5 516.84,-343 506.84,-339.5 506.84,-346.5"/>
</g>
<!-- Node7 -->
<g id="node7" class="node">
<title>Node7</title>
<g id="a_node7"><a xlink:href="sbuf_8c.html#a4ad75f3948c0340c342a3ea3eb63a6e6" target="_top" xlink:title=" ">
<polygon fill="white" stroke="black" points="611,-304.5 611,-323.5 681,-323.5 681,-304.5 611,-304.5"/>
<text text-anchor="middle" x="646" y="-311.5" font-family="Helvetica,sans-Serif" font-size="10.00">sbuf_extend</text>
</a>
</g>
</g>
<!-- Node6&#45;&gt;Node7 -->
<g id="edge6" class="edge">
<title>Node6&#45;&gt;Node7</title>
<path fill="none" stroke="midnightblue" d="M571.01,-335.46C580.49,-332.71 591.46,-329.53 602.02,-326.47"/>
<polygon fill="midnightblue" stroke="midnightblue" points="603.31,-329.73 611.94,-323.59 601.36,-323.01 603.31,-329.73"/>
</g>
<!-- Node10 -->
<g id="node10" class="node">
<title>Node10</title>
<g id="a_node10"><a xlink:href="sbuf_8c.html#aa511ac77d6b486accc01c0512ef27ed2" target="_top" xlink:title=" ">
<polygon fill="white" stroke="black" points="513,-276.5 513,-295.5 575,-295.5 575,-276.5 513,-276.5"/>
<text text-anchor="middle" x="544" y="-283.5" font-family="Helvetica,sans-Serif" font-size="10.00">sbuf_mem</text>
</a>
</g>
</g>
<!-- Node9&#45;&gt;Node10 -->
<g id="edge9" class="edge">
<title>Node9&#45;&gt;Node10</title>
<path fill="none" stroke="midnightblue" d="M470.61,-286C480.36,-286 491.77,-286 502.61,-286"/>
<polygon fill="midnightblue" stroke="midnightblue" points="502.76,-289.5 512.76,-286 502.76,-282.5 502.76,-289.5"/>
</g>
<!-- Node10&#45;&gt;Node7 -->
<g id="edge10" class="edge">
<title>Node10&#45;&gt;Node7</title>
<path fill="none" stroke="midnightblue" d="M575,-294.4C583.2,-296.69 592.25,-299.23 601.04,-301.69"/>
<polygon fill="midnightblue" stroke="midnightblue" points="600.24,-305.1 610.81,-304.43 602.12,-298.36 600.24,-305.1"/>
</g>
<!-- Node13 -->
<g id="node13" class="node">
<title>Node13</title>
<g id="a_node13"><a xlink:href="lbuf_8c.html#a69221917b521da2cd5f804a9f4694f1a" target="_top" xlink:title=" ">
<polygon fill="white" stroke="black" points="419,-627.5 419,-646.5 470,-646.5 470,-627.5 419,-627.5"/>
<text text-anchor="middle" x="444.5" y="-634.5" font-family="Helvetica,sans-Serif" font-size="10.00">markidx</text>
</a>
</g>
</g>
<!-- Node12&#45;&gt;Node13 -->
<g id="edge13" class="edge">
<title>Node12&#45;&gt;Node13</title>
<path fill="none" stroke="midnightblue" d="M357.36,-589.63C363.39,-592.57 370,-595.85 376,-599 390.05,-606.37 405.48,-615.01 418.03,-622.19"/>
<polygon fill="midnightblue" stroke="midnightblue" points="416.59,-625.4 427.01,-627.35 420.08,-619.33 416.59,-625.4"/>
</g>
<!-- Node15 -->
<g id="node15" class="node">
<title>Node15</title>
<g id="a_node15"><a xlink:href="lbuf_8c.html#ac559857979b20ce0c64638c9e3e4edec" target="_top" xlink:title=" ">
<polygon fill="white" stroke="black" points="415.5,-684.5 415.5,-703.5 473.5,-703.5 473.5,-684.5 415.5,-684.5"/>
<text text-anchor="middle" x="444.5" y="-691.5" font-family="Helvetica,sans-Serif" font-size="10.00">linelength</text>
</a>
</g>
</g>
<!-- Node14&#45;&gt;Node15 -->
<g id="edge15" class="edge">
<title>Node14&#45;&gt;Node15</title>
<path fill="none" stroke="midnightblue" d="M363.87,-665.59C376.99,-670.27 392.97,-675.97 407.15,-681.03"/>
<polygon fill="midnightblue" stroke="midnightblue" points="406.04,-684.35 416.63,-684.41 408.39,-677.76 406.04,-684.35"/>
</g>
<!-- Node18&#45;&gt;Node14 -->
<g id="edge21" class="edge">
<title>Node18&#45;&gt;Node14</title>
<path fill="none" stroke="midnightblue" d="M260.24,-669.09C272.19,-667 285.71,-664.63 297.92,-662.49"/>
<polygon fill="midnightblue" stroke="midnightblue" points="298.57,-665.93 307.82,-660.76 297.37,-659.04 298.57,-665.93"/>
</g>
<!-- Node18&#45;&gt;Node15 -->
<g id="edge22" class="edge">
<title>Node18&#45;&gt;Node15</title>
<path fill="none" stroke="midnightblue" d="M239.5,-684.73C252.86,-694.07 274.68,-707.55 296,-713 332.97,-722.45 376.41,-714.65 406.54,-706.38"/>
<polygon fill="midnightblue" stroke="midnightblue" points="407.58,-709.72 416.21,-703.58 405.63,-703 407.58,-709.72"/>
</g>
<!-- Node19 -->
<g id="node19" class="node">
<title>Node19</title>
<g id="a_node19"><a xlink:href="lbuf_8c.html#a5a34f3f60dfd5ea06207d96d821da368" target="_top" xlink:title=" ">
<polygon fill="white" stroke="black" points="306.5,-684.5 306.5,-703.5 365.5,-703.5 365.5,-684.5 306.5,-684.5"/>
<text text-anchor="middle" x="336" y="-691.5" font-family="Helvetica,sans-Serif" font-size="10.00">lbuf_mark</text>
</a>
</g>
</g>
<!-- Node18&#45;&gt;Node19 -->
<g id="edge19" class="edge">
<title>Node18&#45;&gt;Node19</title>
<path fill="none" stroke="midnightblue" d="M260.24,-680.91C271.69,-682.91 284.57,-685.17 296.37,-687.24"/>
<polygon fill="midnightblue" stroke="midnightblue" points="295.95,-690.71 306.4,-688.99 297.16,-683.82 295.95,-690.71"/>
</g>
<!-- Node19&#45;&gt;Node13 -->
<g id="edge20" class="edge">
<title>Node19&#45;&gt;Node13</title>
<path fill="none" stroke="midnightblue" d="M357.36,-684.37C363.39,-681.43 370,-678.15 376,-675 390.05,-667.63 405.48,-658.99 418.03,-651.81"/>
<polygon fill="midnightblue" stroke="midnightblue" points="420.08,-654.67 427.01,-646.65 416.59,-648.6 420.08,-654.67"/>
</g>
<!-- Node21&#45;&gt;Node20 -->
<g id="edge25" class="edge">
<title>Node21&#45;&gt;Node20</title>
<path fill="none" stroke="midnightblue" d="M147.49,-171.59C160.44,-176.37 176.27,-182.2 190.2,-187.34"/>
<polygon fill="midnightblue" stroke="midnightblue" points="189.34,-190.76 199.94,-190.94 191.76,-184.19 189.34,-190.76"/>
</g>
<!-- Node22 -->
<g id="node22" class="node">
<title>Node22</title>
<g id="a_node22"><a xlink:href="uc_8c.html#ab6be7e2b59f79b8952c13488e1cf036a" target="_top" xlink:title=" ">
<polygon fill="white" stroke="black" points="192.5,-114.5 192.5,-133.5 258.5,-133.5 258.5,-114.5 192.5,-114.5"/>
<text text-anchor="middle" x="225.5" y="-121.5" font-family="Helvetica,sans-Serif" font-size="10.00">uc_isspace</text>
</a>
</g>
</g>
<!-- Node21&#45;&gt;Node22 -->
<g id="edge26" class="edge">
<title>Node21&#45;&gt;Node22</title>
<path fill="none" stroke="midnightblue" d="M147.49,-152.41C160.06,-147.78 175.33,-142.14 188.95,-137.11"/>
<polygon fill="midnightblue" stroke="midnightblue" points="190.35,-140.33 198.52,-133.59 187.92,-133.76 190.35,-140.33"/>
</g>
<!-- Node21&#45;&gt;Node23 -->
<g id="edge27" class="edge">
<title>Node21&#45;&gt;Node23</title>
<path fill="none" stroke="midnightblue" d="M155.08,-158.96C183.3,-156.03 224.58,-150.87 260,-143 312.98,-131.22 372.74,-111.39 409.26,-98.5"/>
<polygon fill="midnightblue" stroke="midnightblue" points="410.67,-101.71 418.92,-95.06 408.32,-95.12 410.67,-101.71"/>
</g>
<!-- Node24 -->
<g id="node24" class="node">
<title>Node24</title>
<g id="a_node24"><a xlink:href="uc_8c.html#a616e24870a58b86644c34ee077faca11" target="_top" xlink:title=" ">
<polygon fill="white" stroke="black" points="520,-76.5 520,-95.5 568,-95.5 568,-76.5 520,-76.5"/>
<text text-anchor="middle" x="544" y="-83.5" font-family="Helvetica,sans-Serif" font-size="10.00">uc_end</text>
</a>
</g>
</g>
<!-- Node23&#45;&gt;Node24 -->
<g id="edge28" class="edge">
<title>Node23&#45;&gt;Node24</title>
<path fill="none" stroke="midnightblue" d="M470.1,-86C482,-86 496.47,-86 509.37,-86"/>
<polygon fill="midnightblue" stroke="midnightblue" points="509.75,-89.5 519.75,-86 509.75,-82.5 509.75,-89.5"/>
</g>
<!-- Node25&#45;&gt;Node4 -->
<g id="edge30" class="edge">
<title>Node25&#45;&gt;Node4</title>
<path fill="none" stroke="midnightblue" d="M131.34,-285.83C143.98,-297.84 167.16,-317.82 191,-328 226.81,-343.3 271.5,-348.88 301.52,-350.89"/>
<polygon fill="midnightblue" stroke="midnightblue" points="301.68,-354.41 311.87,-351.49 302.08,-347.42 301.68,-354.41"/>
</g>
<!-- Node25&#45;&gt;Node5 -->
<g id="edge32" class="edge">
<title>Node25&#45;&gt;Node5</title>
<path fill="none" stroke="midnightblue" d="M152.57,-283.91C164.55,-286.88 178.39,-290.21 191,-293 265.75,-309.53 353.53,-326.33 403.43,-335.63"/>
<polygon fill="midnightblue" stroke="midnightblue" points="403.01,-339.12 413.48,-337.5 404.29,-332.23 403.01,-339.12"/>
</g>
<!-- Node25&#45;&gt;Node8 -->
<g id="edge33" class="edge">
<title>Node25&#45;&gt;Node8</title>
<path fill="none" stroke="midnightblue" d="M127.43,-285.64C138.01,-301.96 161.81,-334.83 191,-351 257.79,-388 348.93,-392.87 401.47,-392.1"/>
<polygon fill="midnightblue" stroke="midnightblue" points="401.84,-395.59 411.76,-391.86 401.68,-388.59 401.84,-395.59"/>
</g>
<!-- Node25&#45;&gt;Node9 -->
<g id="edge34" class="edge">
<title>Node25&#45;&gt;Node9</title>
<path fill="none" stroke="midnightblue" d="M152.67,-276.97C212.79,-278.84 344.46,-282.92 407.92,-284.89"/>
<polygon fill="midnightblue" stroke="midnightblue" points="408.11,-288.4 418.22,-285.21 408.33,-281.41 408.11,-288.4"/>
</g>
<!-- Node25&#45;&gt;Node20 -->
<g id="edge31" class="edge">
<title>Node25&#45;&gt;Node20</title>
<path fill="none" stroke="midnightblue" d="M134.55,-266.37C151.88,-253.58 182.72,-230.83 203.39,-215.57"/>
<polygon fill="midnightblue" stroke="midnightblue" points="205.59,-218.3 211.56,-209.55 201.44,-212.67 205.59,-218.3"/>
</g>
<!-- Node25&#45;&gt;Node26 -->
<g id="edge35" class="edge">
<title>Node25&#45;&gt;Node26</title>
<path fill="none" stroke="midnightblue" d="M125.05,-266.21C137.57,-231.85 179.53,-118.06 191,-105 192.02,-103.84 193.13,-102.73 194.3,-101.68"/>
<polygon fill="midnightblue" stroke="midnightblue" points="196.72,-104.24 202.73,-95.52 192.59,-98.59 196.72,-104.24"/>
</g>
<!-- Node27 -->
<g id="node27" class="node">
<title>Node27</title>
<g id="a_node27"><a xlink:href="uc_8c.html#a2fecd1fc98475ece5f529da3315a9553" target="_top" xlink:title=" ">
<polygon fill="white" stroke="black" points="313,-76.5 313,-95.5 359,-95.5 359,-76.5 313,-76.5"/>
<text text-anchor="middle" x="336" y="-83.5" font-family="Helvetica,sans-Serif" font-size="10.00">uc_chr</text>
</a>
</g>
</g>
<!-- Node26&#45;&gt;Node27 -->
<g id="edge36" class="edge">
<title>Node26&#45;&gt;Node27</title>
<path fill="none" stroke="midnightblue" d="M249.51,-86C264.96,-86 285.55,-86 302.65,-86"/>
<polygon fill="midnightblue" stroke="midnightblue" points="302.77,-89.5 312.77,-86 302.77,-82.5 302.77,-89.5"/>
</g>
<!-- Node27&#45;&gt;Node23 -->
<g id="edge37" class="edge">
<title>Node27&#45;&gt;Node23</title>
<path fill="none" stroke="midnightblue" d="M359.07,-86C373.36,-86 392.28,-86 408.59,-86"/>
<polygon fill="midnightblue" stroke="midnightblue" points="408.86,-89.5 418.86,-86 408.86,-82.5 408.86,-89.5"/>
</g>
</g>
</svg>
