<?xml version="1.0" encoding="UTF-8" standalone="no"?>
<!DOCTYPE svg PUBLIC "-//W3C//DTD SVG 1.1//EN"
 "http://www.w3.org/Graphics/SVG/1.1/DTD/svg11.dtd">
<!-- Generated by graphviz version 2.44.1 (20200629.0846)
 -->
<!-- Title: vi_read Pages: 1 -->
<svg width="495pt" height="256pt"
 viewBox="0.00 0.00 495.00 256.00" xmlns="http://www.w3.org/2000/svg" xmlns:xlink="http://www.w3.org/1999/xlink">
<g id="graph0" class="graph" transform="scale(1 1) rotate(0) translate(4 252)">
<title>vi_read</title>
<polygon fill="white" stroke="transparent" points="-4,4 -4,-252 491,-252 491,4 -4,4"/>
<!-- Node1 -->
<g id="node1" class="node">
<title>Node1</title>
<g id="a_node1"><a xlink:title=" ">
<polygon fill="#bfbfbf" stroke="black" points="439,-114.5 439,-133.5 487,-133.5 487,-114.5 439,-114.5"/>
<text text-anchor="middle" x="463" y="-121.5" font-family="Helvetica,sans-Serif" font-size="10.00">vi_read</text>
</a>
</g>
</g>
<!-- Node2 -->
<g id="node2" class="node">
<title>Node2</title>
<g id="a_node2"><a xlink:href="vi_8c.html#a645d411d7e83bf0ebca310f731577a63" target="_top" xlink:title=" ">
<polygon fill="white" stroke="black" points="139,-228.5 139,-247.5 206,-247.5 206,-228.5 139,-228.5"/>
<text text-anchor="middle" x="172.5" y="-235.5" font-family="Helvetica,sans-Serif" font-size="10.00">vc_execute</text>
</a>
</g>
</g>
<!-- Node1&#45;&gt;Node2 -->
<g id="edge1" class="edge">
<title>Node1&#45;&gt;Node2</title>
<path fill="none" stroke="midnightblue" d="M455.2,-143.25C446.6,-164.48 429.61,-197.78 403,-214 341.6,-251.42 253.47,-248.17 206.28,-242.88"/>
<polygon fill="midnightblue" stroke="midnightblue" points="458.56,-144.26 458.85,-133.67 452.02,-141.77 458.56,-144.26"/>
</g>
<!-- Node3 -->
<g id="node3" class="node">
<title>Node3</title>
<g id="a_node3"><a xlink:href="vi_8c.html#a8d808e0f3453afe6600673ee1ea5f828" target="_top" xlink:title=" ">
<polygon fill="white" stroke="black" points="74,-133.5 74,-152.5 103,-152.5 103,-133.5 74,-133.5"/>
<text text-anchor="middle" x="88.5" y="-140.5" font-family="Helvetica,sans-Serif" font-size="10.00">vi</text>
</a>
</g>
</g>
<!-- Node1&#45;&gt;Node3 -->
<g id="edge6" class="edge">
<title>Node1&#45;&gt;Node3</title>
<path fill="none" stroke="midnightblue" d="M442.07,-139.61C431.11,-147.46 416.94,-156.46 403,-162 360.15,-179.03 346.92,-176.76 301,-181 228.96,-187.65 208.41,-185.42 139,-165 126.55,-161.34 113.14,-155.23 103.42,-150.38"/>
<polygon fill="midnightblue" stroke="midnightblue" points="444.17,-142.42 450.11,-133.65 439.99,-136.8 444.17,-142.42"/>
</g>
<!-- Node5 -->
<g id="node5" class="node">
<title>Node5</title>
<g id="a_node5"><a xlink:href="vi_8c.html#a06cbc6eb843436a0e77e07cbab0c4538" target="_top" xlink:title=" ">
<polygon fill="white" stroke="black" points="141.5,-114.5 141.5,-133.5 203.5,-133.5 203.5,-114.5 141.5,-114.5"/>
<text text-anchor="middle" x="172.5" y="-121.5" font-family="Helvetica,sans-Serif" font-size="10.00">vc_motion</text>
</a>
</g>
</g>
<!-- Node1&#45;&gt;Node5 -->
<g id="edge4" class="edge">
<title>Node1&#45;&gt;Node5</title>
<path fill="none" stroke="midnightblue" d="M429.34,-111.49C420.89,-108.81 411.71,-106.37 403,-105 332.1,-93.87 247.8,-107.69 203.74,-116.94"/>
<polygon fill="midnightblue" stroke="midnightblue" points="428.27,-114.82 438.87,-114.7 430.51,-108.19 428.27,-114.82"/>
</g>
<!-- Node6 -->
<g id="node6" class="node">
<title>Node6</title>
<g id="a_node6"><a xlink:href="vi_8c.html#aaa4777ea0715ea846346d0f27a0cfa3f" target="_top" xlink:title=" ">
<polygon fill="white" stroke="black" points="242,-152.5 242,-171.5 301,-171.5 301,-152.5 242,-152.5"/>
<text text-anchor="middle" x="271.5" y="-159.5" font-family="Helvetica,sans-Serif" font-size="10.00">vi_motion</text>
</a>
</g>
</g>
<!-- Node1&#45;&gt;Node6 -->
<g id="edge7" class="edge">
<title>Node1&#45;&gt;Node6</title>
<path fill="none" stroke="midnightblue" d="M429.4,-135.57C420.88,-138.3 411.66,-140.99 403,-143 368.32,-151.05 327.62,-156.33 301.01,-159.24"/>
<polygon fill="midnightblue" stroke="midnightblue" points="430.6,-138.86 438.99,-132.4 428.4,-132.21 430.6,-138.86"/>
</g>
<!-- Node7 -->
<g id="node7" class="node">
<title>Node7</title>
<g id="a_node7"><a xlink:href="vi_8c.html#acf58ed4f9b3a9a6e3d56f397eeb04aee" target="_top" xlink:title=" ">
<polygon fill="white" stroke="black" points="337,-114.5 337,-133.5 403,-133.5 403,-114.5 337,-114.5"/>
<text text-anchor="middle" x="370" y="-121.5" font-family="Helvetica,sans-Serif" font-size="10.00">vi_motionln</text>
</a>
</g>
</g>
<!-- Node1&#45;&gt;Node7 -->
<g id="edge10" class="edge">
<title>Node1&#45;&gt;Node7</title>
<path fill="none" stroke="midnightblue" d="M428.51,-124C420.27,-124 411.46,-124 403.27,-124"/>
<polygon fill="midnightblue" stroke="midnightblue" points="428.57,-127.5 438.57,-124 428.57,-120.5 428.57,-127.5"/>
</g>
<!-- Node8 -->
<g id="node8" class="node">
<title>Node8</title>
<g id="a_node8"><a xlink:href="vi_8c.html#a1ce3135fabc2e901d51574b21feecaa1" target="_top" xlink:title=" ">
<polygon fill="white" stroke="black" points="245,-38.5 245,-57.5 298,-57.5 298,-38.5 245,-38.5"/>
<text text-anchor="middle" x="271.5" y="-45.5" font-family="Helvetica,sans-Serif" font-size="10.00">vi_prefix</text>
</a>
</g>
</g>
<!-- Node1&#45;&gt;Node8 -->
<g id="edge13" class="edge">
<title>Node1&#45;&gt;Node8</title>
<path fill="none" stroke="midnightblue" d="M447.17,-106.73C436.17,-95.07 420.16,-80.34 403,-72 369.12,-55.54 325.29,-50.32 298.03,-48.69"/>
<polygon fill="midnightblue" stroke="midnightblue" points="444.63,-109.13 453.93,-114.19 449.81,-104.43 444.63,-109.13"/>
</g>
<!-- Node9 -->
<g id="node9" class="node">
<title>Node9</title>
<g id="a_node9"><a xlink:href="vi_8c.html#a5a0eb4f7849bc6c82e2b4d449e7ff0be" target="_top" xlink:title=" ">
<polygon fill="white" stroke="black" points="338,-0.5 338,-19.5 402,-19.5 402,-0.5 338,-0.5"/>
<text text-anchor="middle" x="370" y="-7.5" font-family="Helvetica,sans-Serif" font-size="10.00">vi_yankbuf</text>
</a>
</g>
</g>
<!-- Node1&#45;&gt;Node9 -->
<g id="edge16" class="edge">
<title>Node1&#45;&gt;Node9</title>
<path fill="none" stroke="midnightblue" d="M452.32,-105.36C441.79,-86.17 423.69,-56.04 403,-34 397.96,-28.63 391.61,-23.6 385.9,-19.54"/>
<polygon fill="midnightblue" stroke="midnightblue" points="449.3,-107.14 457.1,-114.3 455.47,-103.83 449.3,-107.14"/>
</g>
<!-- Node2&#45;&gt;Node3 -->
<g id="edge2" class="edge">
<title>Node2&#45;&gt;Node3</title>
<path fill="none" stroke="midnightblue" d="M148.34,-222.37C145.05,-219.74 141.84,-216.91 139,-214 120.14,-194.62 103.33,-167.39 95.01,-152.93"/>
<polygon fill="midnightblue" stroke="midnightblue" points="146.34,-225.24 156.44,-228.42 150.53,-219.63 146.34,-225.24"/>
</g>
<!-- Node4 -->
<g id="node4" class="node">
<title>Node4</title>
<g id="a_node4"><a xlink:href="vi_8c.html#a0ddf1224851353fc92bfbff6f499fa97" target="_top" xlink:title=" ">
<polygon fill="white" stroke="black" points="0,-133.5 0,-152.5 38,-152.5 38,-133.5 0,-133.5"/>
<text text-anchor="middle" x="19" y="-140.5" font-family="Helvetica,sans-Serif" font-size="10.00">main</text>
</a>
</g>
</g>
<!-- Node3&#45;&gt;Node4 -->
<g id="edge3" class="edge">
<title>Node3&#45;&gt;Node4</title>
<path fill="none" stroke="midnightblue" d="M63.58,-143C55.25,-143 46.04,-143 38.25,-143"/>
<polygon fill="midnightblue" stroke="midnightblue" points="63.84,-146.5 73.84,-143 63.84,-139.5 63.84,-146.5"/>
</g>
<!-- Node5&#45;&gt;Node3 -->
<g id="edge5" class="edge">
<title>Node5&#45;&gt;Node3</title>
<path fill="none" stroke="midnightblue" d="M131.67,-133.23C121.36,-135.62 110.96,-138.03 103.06,-139.86"/>
<polygon fill="midnightblue" stroke="midnightblue" points="132.48,-136.63 141.43,-130.97 130.9,-129.81 132.48,-136.63"/>
</g>
<!-- Node6&#45;&gt;Node3 -->
<g id="edge9" class="edge">
<title>Node6&#45;&gt;Node3</title>
<path fill="none" stroke="midnightblue" d="M231.79,-157.94C191.47,-153.7 130.45,-147.3 103.33,-144.45"/>
<polygon fill="midnightblue" stroke="midnightblue" points="231.51,-161.43 241.82,-158.99 232.24,-154.46 231.51,-161.43"/>
</g>
<!-- Node6&#45;&gt;Node5 -->
<g id="edge8" class="edge">
<title>Node6&#45;&gt;Node5</title>
<path fill="none" stroke="midnightblue" d="M236.64,-148.74C223.91,-143.75 209.69,-138.18 197.97,-133.59"/>
<polygon fill="midnightblue" stroke="midnightblue" points="235.44,-152.02 246.02,-152.41 237.99,-145.5 235.44,-152.02"/>
</g>
<!-- Node7&#45;&gt;Node5 -->
<g id="edge11" class="edge">
<title>Node7&#45;&gt;Node5</title>
<path fill="none" stroke="midnightblue" d="M326.7,-124C289.58,-124 236.52,-124 203.58,-124"/>
<polygon fill="midnightblue" stroke="midnightblue" points="326.72,-127.5 336.72,-124 326.72,-120.5 326.72,-127.5"/>
</g>
<!-- Node7&#45;&gt;Node6 -->
<g id="edge12" class="edge">
<title>Node7&#45;&gt;Node6</title>
<path fill="none" stroke="midnightblue" d="M335.32,-137.26C322.65,-142.25 308.5,-147.82 296.84,-152.41"/>
<polygon fill="midnightblue" stroke="midnightblue" points="336.63,-140.51 344.65,-133.59 334.06,-134 336.63,-140.51"/>
</g>
<!-- Node8&#45;&gt;Node3 -->
<g id="edge15" class="edge">
<title>Node8&#45;&gt;Node3</title>
<path fill="none" stroke="midnightblue" d="M235.41,-60.5C208.24,-70.81 170.13,-86.68 139,-105 124.81,-113.35 110.02,-125.18 100.34,-133.42"/>
<polygon fill="midnightblue" stroke="midnightblue" points="236.74,-63.74 244.89,-56.96 234.29,-57.18 236.74,-63.74"/>
</g>
<!-- Node8&#45;&gt;Node5 -->
<g id="edge14" class="edge">
<title>Node8&#45;&gt;Node5</title>
<path fill="none" stroke="midnightblue" d="M250.24,-63.87C230.74,-79.15 201.89,-101.76 185.69,-114.45"/>
<polygon fill="midnightblue" stroke="midnightblue" points="252.5,-66.55 258.21,-57.63 248.18,-61.04 252.5,-66.55"/>
</g>
<!-- Node9&#45;&gt;Node3 -->
<g id="edge17" class="edge">
<title>Node9&#45;&gt;Node3</title>
<path fill="none" stroke="midnightblue" d="M327.82,-10.4C277.99,-12.93 193.94,-24.05 139,-68 116.34,-86.13 100.48,-117.5 93.5,-133.31"/>
<polygon fill="midnightblue" stroke="midnightblue" points="328.07,-13.89 337.92,-9.98 327.78,-6.89 328.07,-13.89"/>
</g>
</g>
</svg>
