<?xml version="1.0" encoding="UTF-8" standalone="no"?>
<!DOCTYPE svg PUBLIC "-//W3C//DTD SVG 1.1//EN"
 "http://www.w3.org/Graphics/SVG/1.1/DTD/svg11.dtd">
<!-- Generated by graphviz version 2.44.1 (20200629.0846)
 -->
<!-- Title: ren_cwid Pages: 1 -->
<svg width="190pt" height="66pt"
 viewBox="0.00 0.00 190.00 66.00" xmlns="http://www.w3.org/2000/svg" xmlns:xlink="http://www.w3.org/1999/xlink">
<g id="graph0" class="graph" transform="scale(1 1) rotate(0) translate(4 62)">
<title>ren_cwid</title>
<polygon fill="white" stroke="transparent" points="-4,4 -4,-62 186,-62 186,4 -4,4"/>
<!-- Node1 -->
<g id="node1" class="node">
<title>Node1</title>
<g id="a_node1"><a xlink:title=" ">
<polygon fill="#bfbfbf" stroke="black" points="0,-19.5 0,-38.5 56,-38.5 56,-19.5 0,-19.5"/>
<text text-anchor="middle" x="28" y="-26.5" font-family="Helvetica,sans-Serif" font-size="10.00">ren_cwid</text>
</a>
</g>
</g>
<!-- Node2 -->
<g id="node2" class="node">
<title>Node2</title>
<g id="a_node2"><a xlink:href="conf_8c.html#ab1da6502eeb02af2fb9fa8a84515b0b6" target="_top" xlink:title=" ">
<polygon fill="white" stroke="black" points="92,-38.5 92,-57.5 182,-57.5 182,-38.5 92,-38.5"/>
<text text-anchor="middle" x="137" y="-45.5" font-family="Helvetica,sans-Serif" font-size="10.00">conf_placeholder</text>
</a>
</g>
</g>
<!-- Node1&#45;&gt;Node2 -->
<g id="edge1" class="edge">
<title>Node1&#45;&gt;Node2</title>
<path fill="none" stroke="midnightblue" d="M56,-33.79C63.92,-35.2 72.87,-36.79 81.85,-38.38"/>
<polygon fill="midnightblue" stroke="midnightblue" points="81.48,-41.87 91.94,-40.18 82.7,-34.98 81.48,-41.87"/>
</g>
<!-- Node3 -->
<g id="node3" class="node">
<title>Node3</title>
<g id="a_node3"><a xlink:href="uc_8c.html#a45fdc2f2f3cb34515f1014bf754741bb" target="_top" xlink:title=" ">
<polygon fill="white" stroke="black" points="110.5,-0.5 110.5,-19.5 163.5,-19.5 163.5,-0.5 110.5,-0.5"/>
<text text-anchor="middle" x="137" y="-7.5" font-family="Helvetica,sans-Serif" font-size="10.00">uc_code</text>
</a>
</g>
</g>
<!-- Node1&#45;&gt;Node3 -->
<g id="edge2" class="edge">
<title>Node1&#45;&gt;Node3</title>
<path fill="none" stroke="midnightblue" d="M56,-24.21C69.45,-21.82 85.89,-18.9 100.36,-16.33"/>
<polygon fill="midnightblue" stroke="midnightblue" points="101.25,-19.73 110.48,-14.53 100.02,-12.83 101.25,-19.73"/>
</g>
</g>
</svg>
