<?xml version="1.0" encoding="UTF-8" standalone="no"?>
<!DOCTYPE svg PUBLIC "-//W3C//DTD SVG 1.1//EN"
 "http://www.w3.org/Graphics/SVG/1.1/DTD/svg11.dtd">
<!-- Generated by graphviz version 2.44.1 (20200629.0846)
 -->
<!-- Title: vi_drawmsg Pages: 1 -->
<svg width="332pt" height="79pt"
 viewBox="0.00 0.00 332.00 79.42" xmlns="http://www.w3.org/2000/svg" xmlns:xlink="http://www.w3.org/1999/xlink">
<g id="graph0" class="graph" transform="scale(1 1) rotate(0) translate(4 75.42)">
<title>vi_drawmsg</title>
<polygon fill="white" stroke="transparent" points="-4,4 -4,-75.42 328,-75.42 328,4 -4,4"/>
<!-- Node1 -->
<g id="node1" class="node">
<title>Node1</title>
<g id="a_node1"><a xlink:title=" ">
<polygon fill="#bfbfbf" stroke="black" points="255,-38.5 255,-57.5 324,-57.5 324,-38.5 255,-38.5"/>
<text text-anchor="middle" x="289.5" y="-45.5" font-family="Helvetica,sans-Serif" font-size="10.00">vi_drawmsg</text>
</a>
</g>
</g>
<!-- Node2 -->
<g id="node2" class="node">
<title>Node2</title>
<g id="a_node2"><a xlink:href="vi_8c.html#a8d808e0f3453afe6600673ee1ea5f828" target="_top" xlink:title=" ">
<polygon fill="white" stroke="black" points="74,-38.5 74,-57.5 103,-57.5 103,-38.5 74,-38.5"/>
<text text-anchor="middle" x="88.5" y="-45.5" font-family="Helvetica,sans-Serif" font-size="10.00">vi</text>
</a>
</g>
</g>
<!-- Node1&#45;&gt;Node2 -->
<g id="edge1" class="edge">
<title>Node1&#45;&gt;Node2</title>
<path fill="none" stroke="midnightblue" d="M250.64,-60.31C240.48,-63.08 229.41,-65.6 219,-67 183.76,-71.73 173.96,-73.48 139,-67 126.51,-64.69 113.1,-59.34 103.39,-54.91"/>
<polygon fill="midnightblue" stroke="midnightblue" points="251.8,-63.62 260.45,-57.5 249.87,-56.89 251.8,-63.62"/>
</g>
<!-- Node4 -->
<g id="node4" class="node">
<title>Node4</title>
<g id="a_node4"><a xlink:href="vi_8c.html#a2b620fa68325e1b708f07af90f50c3d8" target="_top" xlink:title=" ">
<polygon fill="white" stroke="black" points="142,-38.5 142,-57.5 216,-57.5 216,-38.5 142,-38.5"/>
<text text-anchor="middle" x="179" y="-45.5" font-family="Helvetica,sans-Serif" font-size="10.00">vi_drawagain</text>
</a>
</g>
</g>
<!-- Node1&#45;&gt;Node4 -->
<g id="edge3" class="edge">
<title>Node1&#45;&gt;Node4</title>
<path fill="none" stroke="midnightblue" d="M244.76,-48C235.33,-48 225.46,-48 216.35,-48"/>
<polygon fill="midnightblue" stroke="midnightblue" points="244.76,-51.5 254.76,-48 244.76,-44.5 244.76,-51.5"/>
</g>
<!-- Node5 -->
<g id="node5" class="node">
<title>Node5</title>
<g id="a_node5"><a xlink:href="vi_8c.html#a9896bc9688f6102408f66aa0ad7e64f9" target="_top" xlink:title=" ">
<polygon fill="white" stroke="black" points="139,-0.5 139,-19.5 219,-19.5 219,-0.5 139,-0.5"/>
<text text-anchor="middle" x="179" y="-7.5" font-family="Helvetica,sans-Serif" font-size="10.00">vi_drawupdate</text>
</a>
</g>
</g>
<!-- Node1&#45;&gt;Node5 -->
<g id="edge5" class="edge">
<title>Node1&#45;&gt;Node5</title>
<path fill="none" stroke="midnightblue" d="M251.46,-35.03C237.01,-29.97 220.73,-24.27 207.37,-19.59"/>
<polygon fill="midnightblue" stroke="midnightblue" points="250.53,-38.41 261.12,-38.41 252.84,-31.8 250.53,-38.41"/>
</g>
<!-- Node3 -->
<g id="node3" class="node">
<title>Node3</title>
<g id="a_node3"><a xlink:href="vi_8c.html#a0ddf1224851353fc92bfbff6f499fa97" target="_top" xlink:title=" ">
<polygon fill="white" stroke="black" points="0,-38.5 0,-57.5 38,-57.5 38,-38.5 0,-38.5"/>
<text text-anchor="middle" x="19" y="-45.5" font-family="Helvetica,sans-Serif" font-size="10.00">main</text>
</a>
</g>
</g>
<!-- Node2&#45;&gt;Node3 -->
<g id="edge2" class="edge">
<title>Node2&#45;&gt;Node3</title>
<path fill="none" stroke="midnightblue" d="M63.58,-48C55.25,-48 46.04,-48 38.25,-48"/>
<polygon fill="midnightblue" stroke="midnightblue" points="63.84,-51.5 73.84,-48 63.84,-44.5 63.84,-51.5"/>
</g>
<!-- Node4&#45;&gt;Node2 -->
<g id="edge4" class="edge">
<title>Node4&#45;&gt;Node2</title>
<path fill="none" stroke="midnightblue" d="M131.47,-48C121.16,-48 111.02,-48 103.29,-48"/>
<polygon fill="midnightblue" stroke="midnightblue" points="131.75,-51.5 141.75,-48 131.75,-44.5 131.75,-51.5"/>
</g>
<!-- Node5&#45;&gt;Node2 -->
<g id="edge6" class="edge">
<title>Node5&#45;&gt;Node2</title>
<path fill="none" stroke="midnightblue" d="M146.27,-23.62C131.4,-30.01 114.47,-37.28 103,-42.2"/>
<polygon fill="midnightblue" stroke="midnightblue" points="147.86,-26.75 155.67,-19.59 145.1,-20.32 147.86,-26.75"/>
</g>
</g>
</svg>
