<?xml version="1.0" encoding="UTF-8" standalone="no"?>
<!DOCTYPE svg PUBLIC "-//W3C//DTD SVG 1.1//EN"
 "http://www.w3.org/Graphics/SVG/1.1/DTD/svg11.dtd">
<!-- Generated by graphviz version 2.44.1 (20200629.0846)
 -->
<!-- Title: ren_position Pages: 1 -->
<!--zoomable 488 -->
<svg id="main" version="1.1" xmlns="http://www.w3.org/2000/svg" xmlns:xlink="http://www.w3.org/1999/xlink" xml:space="preserve" onload="init(evt)">
<style type="text/css"><![CDATA[
.edge:hover path { stroke: red; }
.edge:hover polygon { stroke: red; fill: red; }
]]></style>
<script type="text/javascript"><![CDATA[
var edges = document.getElementsByTagName('g');
if (edges && edges.length) {
  for (var i=0;i<edges.length;i++) {
    if (edges[i].id.substr(0,4)=='edge') {
      edges[i].setAttribute('class','edge');
    }
  }
}
]]></script>
        <defs>
                <circle id="rim" cx="0" cy="0" r="7"/>
                <circle id="rim2" cx="0" cy="0" r="3.5"/>
                <g id="zoomPlus">
                        <use xlink:href="#rim" fill="#404040">
                                <set attributeName="fill" to="#808080" begin="zoomplus.mouseover" end="zoomplus.mouseout"/>
                        </use>
                        <path d="M-4,0h8M0,-4v8" fill="none" stroke="white" stroke-width="1.5" pointer-events="none"/>
                </g>
                <g id="zoomMin">
                        <use xlink:href="#rim" fill="#404040">
                                <set attributeName="fill" to="#808080" begin="zoomminus.mouseover" end="zoomminus.mouseout"/>
                        </use>
                        <path d="M-4,0h8" fill="none" stroke="white" stroke-width="1.5" pointer-events="none"/>
                </g>
                <g id="dirArrow">
                        <path fill="none" stroke="white" stroke-width="1.5" d="M0,-3.0v7 M-2.5,-0.5L0,-3.0L2.5,-0.5"/>
                </g>
               <g id="resetDef">
                       <use xlink:href="#rim2" fill="#404040">
                               <set attributeName="fill" to="#808080" begin="reset.mouseover" end="reset.mouseout"/>
                       </use>
               </g>
        </defs>

<script type="text/javascript">
var viewWidth = 1114;
var viewHeight = 488;
var sectionId = 'dynsection-68';
</script>
<script xlink:href="svgpan.js"/>
<svg id="graph" class="graph">
<g id="viewport">
<title>ren_position</title>
<polygon fill="white" stroke="transparent" points="-4,4 -4,-484 1110,-484 1110,4 -4,4"/>
<!-- Node1 -->
<g id="node1" class="node">
<title>Node1</title>
<g id="a_node1"><a xlink:title=" ">
<polygon fill="#bfbfbf" stroke="black" points="0,-76.5 0,-95.5 69,-95.5 69,-76.5 0,-76.5"/>
<text text-anchor="middle" x="34.5" y="-83.5" font-family="Helvetica,sans-Serif" font-size="10.00">ren_position</text>
</a>
</g>
</g>
<!-- Node2 -->
<g id="node2" class="node">
<title>Node2</title>
<g id="a_node2"><a xlink:href="dir_8c.html#a8703d559ca9c640b8b89c589cf75ac06" target="_top" xlink:title=" ">
<polygon fill="white" stroke="black" points="105,-123.5 105,-142.5 167,-142.5 167,-123.5 105,-123.5"/>
<text text-anchor="middle" x="136" y="-130.5" font-family="Helvetica,sans-Serif" font-size="10.00">dir_reorder</text>
</a>
</g>
</g>
<!-- Node1&#45;&gt;Node2 -->
<g id="edge1" class="edge">
<title>Node1&#45;&gt;Node2</title>
<path fill="none" stroke="midnightblue" d="M55.64,-95.51C69.84,-102.22 89.1,-111.32 105.09,-118.87"/>
<polygon fill="midnightblue" stroke="midnightblue" points="104.02,-122.24 114.55,-123.34 107.01,-115.91 104.02,-122.24"/>
</g>
<!-- Node28 -->
<g id="node28" class="node">
<title>Node28</title>
<g id="a_node28"><a xlink:href="uc_8c.html#a1764c4d0fa27bca336e5ca300ad969e7" target="_top" xlink:title=" ">
<polygon fill="white" stroke="black" points="221.5,-76.5 221.5,-95.5 274.5,-95.5 274.5,-76.5 221.5,-76.5"/>
<text text-anchor="middle" x="248" y="-83.5" font-family="Helvetica,sans-Serif" font-size="10.00">uc_chop</text>
</a>
</g>
</g>
<!-- Node1&#45;&gt;Node28 -->
<g id="edge39" class="edge">
<title>Node1&#45;&gt;Node28</title>
<path fill="none" stroke="midnightblue" d="M69.01,-86C107.83,-86 171.51,-86 211.25,-86"/>
<polygon fill="midnightblue" stroke="midnightblue" points="211.29,-89.5 221.29,-86 211.29,-82.5 211.29,-89.5"/>
</g>
<!-- Node30 -->
<g id="node30" class="node">
<title>Node30</title>
<g id="a_node30"><a xlink:href="ren_8c.html#a319a71758607f19d2beedd2bd4d3b369" target="_top" xlink:title=" ">
<polygon fill="white" stroke="black" points="108,-38.5 108,-57.5 164,-57.5 164,-38.5 108,-38.5"/>
<text text-anchor="middle" x="136" y="-45.5" font-family="Helvetica,sans-Serif" font-size="10.00">ren_cwid</text>
</a>
</g>
</g>
<!-- Node1&#45;&gt;Node30 -->
<g id="edge36" class="edge">
<title>Node1&#45;&gt;Node30</title>
<path fill="none" stroke="midnightblue" d="M60.61,-76.41C72.63,-71.82 87.21,-66.25 100.28,-61.26"/>
<polygon fill="midnightblue" stroke="midnightblue" points="101.81,-64.42 109.9,-57.59 99.31,-57.88 101.81,-64.42"/>
</g>
<!-- Node3 -->
<g id="node3" class="node">
<title>Node3</title>
<g id="a_node3"><a xlink:href="dir_8c.html#aba0a553010578626d7148da2b6551321" target="_top" xlink:title=" ">
<polygon fill="white" stroke="black" points="215.5,-270.5 215.5,-289.5 280.5,-289.5 280.5,-270.5 215.5,-270.5"/>
<text text-anchor="middle" x="248" y="-277.5" font-family="Helvetica,sans-Serif" font-size="10.00">dir_context</text>
</a>
</g>
</g>
<!-- Node2&#45;&gt;Node3 -->
<g id="edge2" class="edge">
<title>Node2&#45;&gt;Node3</title>
<path fill="none" stroke="midnightblue" d="M144.22,-142.65C162.31,-166.83 209.85,-230.36 233.39,-261.82"/>
<polygon fill="midnightblue" stroke="midnightblue" points="230.82,-264.22 239.61,-270.13 236.42,-260.02 230.82,-264.22"/>
</g>
<!-- Node16 -->
<g id="node16" class="node">
<title>Node16</title>
<g id="a_node16"><a xlink:href="dir_8c.html#a8dbcb1db32888e71e2702f7173e7cba4" target="_top" xlink:title=" ">
<polygon fill="white" stroke="black" points="226.5,-142.5 226.5,-161.5 269.5,-161.5 269.5,-142.5 226.5,-142.5"/>
<text text-anchor="middle" x="248" y="-149.5" font-family="Helvetica,sans-Serif" font-size="10.00">dir_fix</text>
</a>
</g>
</g>
<!-- Node2&#45;&gt;Node16 -->
<g id="edge18" class="edge">
<title>Node2&#45;&gt;Node16</title>
<path fill="none" stroke="midnightblue" d="M167.06,-138.19C182.36,-140.83 200.92,-144.04 216.31,-146.7"/>
<polygon fill="midnightblue" stroke="midnightblue" points="215.92,-150.18 226.37,-148.44 217.12,-143.29 215.92,-150.18"/>
</g>
<!-- Node2&#45;&gt;Node28 -->
<g id="edge32" class="edge">
<title>Node2&#45;&gt;Node28</title>
<path fill="none" stroke="midnightblue" d="M159.26,-123.49C175.26,-116.65 197.06,-107.34 214.93,-99.7"/>
<polygon fill="midnightblue" stroke="midnightblue" points="216.57,-102.81 224.4,-95.66 213.82,-96.37 216.57,-102.81"/>
</g>
<!-- Node4 -->
<g id="node4" class="node">
<title>Node4</title>
<g id="a_node4"><a xlink:href="conf_8c.html#a9e1bc5ed600c151c51d8e2342454e07c" target="_top" xlink:title=" ">
<polygon fill="white" stroke="black" points="329,-308.5 329,-327.5 412,-327.5 412,-308.5 329,-308.5"/>
<text text-anchor="middle" x="370.5" y="-315.5" font-family="Helvetica,sans-Serif" font-size="10.00">conf_dircontext</text>
</a>
</g>
</g>
<!-- Node3&#45;&gt;Node4 -->
<g id="edge3" class="edge">
<title>Node3&#45;&gt;Node4</title>
<path fill="none" stroke="midnightblue" d="M279.41,-289.59C294.53,-294.36 313.02,-300.19 329.3,-305.32"/>
<polygon fill="midnightblue" stroke="midnightblue" points="328.51,-308.74 339.1,-308.41 330.62,-302.07 328.51,-308.74"/>
</g>
<!-- Node5 -->
<g id="node5" class="node">
<title>Node5</title>
<g id="a_node5"><a xlink:href="rset_8c.html#a389ec5abca88adc048a058744f2373eb" target="_top" xlink:title=" ">
<polygon fill="white" stroke="black" points="457.5,-318.5 457.5,-337.5 511.5,-337.5 511.5,-318.5 457.5,-318.5"/>
<text text-anchor="middle" x="484.5" y="-325.5" font-family="Helvetica,sans-Serif" font-size="10.00">rset_find</text>
</a>
</g>
</g>
<!-- Node3&#45;&gt;Node5 -->
<g id="edge4" class="edge">
<title>Node3&#45;&gt;Node5</title>
<path fill="none" stroke="midnightblue" d="M280.71,-281.17C313.89,-282.98 367.29,-287.55 412,-299 426.48,-302.71 441.92,-308.69 454.73,-314.26"/>
<polygon fill="midnightblue" stroke="midnightblue" points="453.4,-317.5 463.95,-318.4 456.26,-311.11 453.4,-317.5"/>
</g>
<!-- Node6 -->
<g id="node6" class="node">
<title>Node6</title>
<g id="a_node6"><a xlink:href="regex_8c.html#aa085ccd05ec25e3f8053850aebc50fe3" target="_top" xlink:title=" ">
<polygon fill="white" stroke="black" points="566.5,-318.5 566.5,-337.5 617.5,-337.5 617.5,-318.5 566.5,-318.5"/>
<text text-anchor="middle" x="592" y="-325.5" font-family="Helvetica,sans-Serif" font-size="10.00">regexec</text>
</a>
</g>
</g>
<!-- Node5&#45;&gt;Node6 -->
<g id="edge5" class="edge">
<title>Node5&#45;&gt;Node6</title>
<path fill="none" stroke="midnightblue" d="M511.58,-328C525.03,-328 541.63,-328 556.16,-328"/>
<polygon fill="midnightblue" stroke="midnightblue" points="556.31,-331.5 566.31,-328 556.31,-324.5 556.31,-331.5"/>
</g>
<!-- Node7 -->
<g id="node7" class="node">
<title>Node7</title>
<g id="a_node7"><a xlink:href="regex_8c.html#aa5925e49bd18112bb37421dbde29162a" target="_top" xlink:title=" ">
<polygon fill="white" stroke="black" points="663,-356.5 663,-375.5 734,-375.5 734,-356.5 663,-356.5"/>
<text text-anchor="middle" x="698.5" y="-363.5" font-family="Helvetica,sans-Serif" font-size="10.00">re_recmatch</text>
</a>
</g>
</g>
<!-- Node6&#45;&gt;Node7 -->
<g id="edge6" class="edge">
<title>Node6&#45;&gt;Node7</title>
<path fill="none" stroke="midnightblue" d="M617.5,-336.91C630.64,-341.69 647.07,-347.66 661.62,-352.95"/>
<polygon fill="midnightblue" stroke="midnightblue" points="660.73,-356.35 671.33,-356.48 663.12,-349.78 660.73,-356.35"/>
</g>
<!-- Node13 -->
<g id="node13" class="node">
<title>Node13</title>
<g id="a_node13"><a xlink:href="regex_8c.html#a9a0d6d5f93f1eaba8b63b16903c0952d" target="_top" xlink:title=" ">
<polygon fill="white" stroke="black" points="1059.5,-365.5 1059.5,-384.5 1104.5,-384.5 1104.5,-365.5 1059.5,-365.5"/>
<text text-anchor="middle" x="1082" y="-372.5" font-family="Helvetica,sans-Serif" font-size="10.00">uc_len</text>
</a>
</g>
</g>
<!-- Node6&#45;&gt;Node13 -->
<g id="edge17" class="edge">
<title>Node6&#45;&gt;Node13</title>
<path fill="none" stroke="midnightblue" d="M617.53,-322.06C654.77,-313.58 727.94,-299 791,-299 791,-299 791,-299 888,-299 948.15,-299 967.96,-291.59 1022,-318 1040.68,-327.13 1057.25,-344.39 1068.03,-357.53"/>
<polygon fill="midnightblue" stroke="midnightblue" points="1065.32,-359.75 1074.25,-365.45 1070.83,-355.42 1065.32,-359.75"/>
</g>
<!-- Node8 -->
<g id="node8" class="node">
<title>Node8</title>
<g id="a_node8"><a xlink:href="regex_8c.html#a8e35614ddf21d405773327a52a95a73d" target="_top" xlink:title=" ">
<polygon fill="white" stroke="black" points="770,-375.5 770,-394.5 814,-394.5 814,-375.5 770,-375.5"/>
<text text-anchor="middle" x="792" y="-382.5" font-family="Helvetica,sans-Serif" font-size="10.00">re_rec</text>
</a>
</g>
</g>
<!-- Node7&#45;&gt;Node8 -->
<g id="edge7" class="edge">
<title>Node7&#45;&gt;Node8</title>
<path fill="none" stroke="midnightblue" d="M734.09,-373.18C742.56,-374.94 751.57,-376.81 759.87,-378.54"/>
<polygon fill="midnightblue" stroke="midnightblue" points="759.4,-382.01 769.9,-380.62 760.82,-375.16 759.4,-382.01"/>
</g>
<!-- Node9 -->
<g id="node9" class="node">
<title>Node9</title>
<g id="a_node9"><a xlink:href="regex_8c.html#a24fd1fc7457ff4f03fb384f7170ac395" target="_top" xlink:title=" ">
<polygon fill="white" stroke="black" points="850,-384.5 850,-403.5 924,-403.5 924,-384.5 850,-384.5"/>
<text text-anchor="middle" x="887" y="-391.5" font-family="Helvetica,sans-Serif" font-size="10.00">ratom_match</text>
</a>
</g>
</g>
<!-- Node8&#45;&gt;Node9 -->
<g id="edge8" class="edge">
<title>Node8&#45;&gt;Node9</title>
<path fill="none" stroke="midnightblue" d="M814.1,-387.04C821.73,-387.78 830.68,-388.65 839.63,-389.51"/>
<polygon fill="midnightblue" stroke="midnightblue" points="839.36,-393 849.65,-390.48 840.03,-386.04 839.36,-393"/>
</g>
<!-- Node10 -->
<g id="node10" class="node">
<title>Node10</title>
<g id="a_node10"><a xlink:href="regex_8c.html#aae17ed73e84075718fb04d131d6ca779" target="_top" xlink:title=" ">
<polygon fill="white" stroke="black" points="960,-403.5 960,-422.5 1022,-422.5 1022,-403.5 960,-403.5"/>
<text text-anchor="middle" x="991" y="-410.5" font-family="Helvetica,sans-Serif" font-size="10.00">brk_match</text>
</a>
</g>
</g>
<!-- Node9&#45;&gt;Node10 -->
<g id="edge9" class="edge">
<title>Node9&#45;&gt;Node10</title>
<path fill="none" stroke="midnightblue" d="M924.25,-400.75C932.55,-402.3 941.43,-403.95 949.89,-405.53"/>
<polygon fill="midnightblue" stroke="midnightblue" points="949.45,-409.01 959.93,-407.4 950.74,-402.13 949.45,-409.01"/>
</g>
<!-- Node12 -->
<g id="node12" class="node">
<title>Node12</title>
<g id="a_node12"><a xlink:href="regex_8c.html#aaf73cdb88048e7f9fd588eb8d5aeb5a3" target="_top" xlink:title=" ">
<polygon fill="white" stroke="black" points="1058,-460.5 1058,-479.5 1106,-479.5 1106,-460.5 1058,-460.5"/>
<text text-anchor="middle" x="1082" y="-467.5" font-family="Helvetica,sans-Serif" font-size="10.00">uc_dec</text>
</a>
</g>
</g>
<!-- Node9&#45;&gt;Node12 -->
<g id="edge15" class="edge">
<title>Node9&#45;&gt;Node12</title>
<path fill="none" stroke="midnightblue" d="M893.4,-403.56C903.73,-420.73 928.11,-456.28 960,-470 987.69,-481.91 1022.36,-480.47 1047.48,-476.9"/>
<polygon fill="midnightblue" stroke="midnightblue" points="1048.29,-480.31 1057.61,-475.27 1047.18,-473.4 1048.29,-480.31"/>
</g>
<!-- Node9&#45;&gt;Node13 -->
<g id="edge16" class="edge">
<title>Node9&#45;&gt;Node13</title>
<path fill="none" stroke="midnightblue" d="M924.3,-390.43C960.32,-386.88 1014.97,-381.5 1049.3,-378.12"/>
<polygon fill="midnightblue" stroke="midnightblue" points="1049.64,-381.6 1059.25,-377.14 1048.96,-374.64 1049.64,-381.6"/>
</g>
<!-- Node14 -->
<g id="node14" class="node">
<title>Node14</title>
<g id="a_node14"><a xlink:href="regex_8c.html#a35ad3fd0dbb795e6f30404ce86a7be5b" target="_top" xlink:title=" ">
<polygon fill="white" stroke="black" points="968.5,-327.5 968.5,-346.5 1013.5,-346.5 1013.5,-327.5 968.5,-327.5"/>
<text text-anchor="middle" x="991" y="-334.5" font-family="Helvetica,sans-Serif" font-size="10.00">isword</text>
</a>
</g>
</g>
<!-- Node9&#45;&gt;Node14 -->
<g id="edge13" class="edge">
<title>Node9&#45;&gt;Node14</title>
<path fill="none" stroke="midnightblue" d="M905.3,-384.33C921.45,-375.31 945.74,-361.73 964.18,-351.43"/>
<polygon fill="midnightblue" stroke="midnightblue" points="965.93,-354.46 972.95,-346.53 962.52,-348.35 965.93,-354.46"/>
</g>
<!-- Node15 -->
<g id="node15" class="node">
<title>Node15</title>
<g id="a_node15"><a xlink:href="regex_8c.html#ade3e10606e6e8866e6151fe8440d6101" target="_top" xlink:title=" ">
<polygon fill="white" stroke="black" points="967,-441.5 967,-460.5 1015,-460.5 1015,-441.5 967,-441.5"/>
<text text-anchor="middle" x="991" y="-448.5" font-family="Helvetica,sans-Serif" font-size="10.00">uc_beg</text>
</a>
</g>
</g>
<!-- Node9&#45;&gt;Node15 -->
<g id="edge14" class="edge">
<title>Node9&#45;&gt;Node15</title>
<path fill="none" stroke="midnightblue" d="M905.3,-403.67C921.45,-412.69 945.74,-426.27 964.18,-436.57"/>
<polygon fill="midnightblue" stroke="midnightblue" points="962.52,-439.65 972.95,-441.47 965.93,-433.54 962.52,-439.65"/>
</g>
<!-- Node11 -->
<g id="node11" class="node">
<title>Node11</title>
<g id="a_node11"><a xlink:href="regex_8c.html#acc18ff8d2687611a9e221b3329b02413" target="_top" xlink:title=" ">
<polygon fill="white" stroke="black" points="1058,-403.5 1058,-422.5 1106,-422.5 1106,-403.5 1058,-403.5"/>
<text text-anchor="middle" x="1082" y="-410.5" font-family="Helvetica,sans-Serif" font-size="10.00">brk_len</text>
</a>
</g>
</g>
<!-- Node10&#45;&gt;Node11 -->
<g id="edge10" class="edge">
<title>Node10&#45;&gt;Node11</title>
<path fill="none" stroke="midnightblue" d="M1022.13,-413C1030.36,-413 1039.32,-413 1047.71,-413"/>
<polygon fill="midnightblue" stroke="midnightblue" points="1047.94,-416.5 1057.94,-413 1047.94,-409.5 1047.94,-416.5"/>
</g>
<!-- Node10&#45;&gt;Node12 -->
<g id="edge11" class="edge">
<title>Node10&#45;&gt;Node12</title>
<path fill="none" stroke="midnightblue" d="M1007.28,-422.64C1012,-425.63 1017.22,-428.95 1022,-432 1033.71,-439.48 1046.7,-447.84 1057.5,-454.81"/>
<polygon fill="midnightblue" stroke="midnightblue" points="1055.69,-457.8 1065.99,-460.28 1059.48,-451.92 1055.69,-457.8"/>
</g>
<!-- Node10&#45;&gt;Node13 -->
<g id="edge12" class="edge">
<title>Node10&#45;&gt;Node13</title>
<path fill="none" stroke="midnightblue" d="M1014.46,-403.41C1025.24,-398.81 1038.33,-393.22 1050.04,-388.22"/>
<polygon fill="midnightblue" stroke="midnightblue" points="1051.65,-391.34 1059.47,-384.19 1048.9,-384.9 1051.65,-391.34"/>
</g>
<!-- Node17 -->
<g id="node17" class="node">
<title>Node17</title>
<g id="a_node17"><a xlink:href="dir_8c.html#a3b2f132ebfd084295e89aa35eff56ff4" target="_top" xlink:title=" ">
<polygon fill="white" stroke="black" points="341,-185.5 341,-204.5 400,-204.5 400,-185.5 341,-185.5"/>
<text text-anchor="middle" x="370.5" y="-192.5" font-family="Helvetica,sans-Serif" font-size="10.00">dir_match</text>
</a>
</g>
</g>
<!-- Node16&#45;&gt;Node17 -->
<g id="edge19" class="edge">
<title>Node16&#45;&gt;Node17</title>
<path fill="none" stroke="midnightblue" d="M269.71,-159.39C287.14,-165.61 312.47,-174.65 333.25,-182.06"/>
<polygon fill="midnightblue" stroke="midnightblue" points="332.13,-185.38 342.73,-185.45 334.48,-178.79 332.13,-185.38"/>
</g>
<!-- Node27 -->
<g id="node27" class="node">
<title>Node27</title>
<g id="a_node27"><a xlink:href="dir_8c.html#a83ed34b9263550e2ca9b15cc02294a6b" target="_top" xlink:title=" ">
<polygon fill="white" stroke="black" points="338,-142.5 338,-161.5 403,-161.5 403,-142.5 338,-142.5"/>
<text text-anchor="middle" x="370.5" y="-149.5" font-family="Helvetica,sans-Serif" font-size="10.00">dir_reverse</text>
</a>
</g>
</g>
<!-- Node16&#45;&gt;Node27 -->
<g id="edge31" class="edge">
<title>Node16&#45;&gt;Node27</title>
<path fill="none" stroke="midnightblue" d="M269.71,-152C285.57,-152 307.97,-152 327.53,-152"/>
<polygon fill="midnightblue" stroke="midnightblue" points="327.75,-155.5 337.75,-152 327.75,-148.5 327.75,-155.5"/>
</g>
<!-- Node17&#45;&gt;Node5 -->
<g id="edge21" class="edge">
<title>Node17&#45;&gt;Node5</title>
<path fill="none" stroke="midnightblue" d="M377.24,-204.82C391.73,-229.37 429.89,-292.61 448,-309 449.48,-310.34 451.07,-311.61 452.72,-312.82"/>
<polygon fill="midnightblue" stroke="midnightblue" points="451.05,-315.91 461.37,-318.32 454.81,-310 451.05,-315.91"/>
</g>
<!-- Node18 -->
<g id="node18" class="node">
<title>Node18</title>
<g id="a_node18"><a xlink:href="conf_8c.html#a3efe6ef9cd3bd043b3df1653265409f2" target="_top" xlink:title=" ">
<polygon fill="white" stroke="black" points="448,-90.5 448,-109.5 521,-109.5 521,-90.5 448,-90.5"/>
<text text-anchor="middle" x="484.5" y="-97.5" font-family="Helvetica,sans-Serif" font-size="10.00">conf_dirmark</text>
</a>
</g>
</g>
<!-- Node17&#45;&gt;Node18 -->
<g id="edge20" class="edge">
<title>Node17&#45;&gt;Node18</title>
<path fill="none" stroke="midnightblue" d="M391.63,-185.33C398.53,-181.45 406.02,-176.57 412,-171 432.57,-151.84 427.02,-137.71 448,-119 449.53,-117.64 451.17,-116.34 452.88,-115.11"/>
<polygon fill="midnightblue" stroke="midnightblue" points="455.17,-117.8 461.78,-109.52 451.45,-111.87 455.17,-117.8"/>
</g>
<!-- Node19 -->
<g id="node19" class="node">
<title>Node19</title>
<g id="a_node19"><a xlink:href="sbuf_8c.html#a4e56760893d5a6797626743840c9adf2" target="_top" xlink:title=" ">
<polygon fill="white" stroke="black" points="457.5,-242.5 457.5,-261.5 511.5,-261.5 511.5,-242.5 457.5,-242.5"/>
<text text-anchor="middle" x="484.5" y="-249.5" font-family="Helvetica,sans-Serif" font-size="10.00">sbuf_buf</text>
</a>
</g>
</g>
<!-- Node17&#45;&gt;Node19 -->
<g id="edge22" class="edge">
<title>Node17&#45;&gt;Node19</title>
<path fill="none" stroke="midnightblue" d="M390.25,-204.54C408.09,-213.62 435.18,-227.41 455.57,-237.79"/>
<polygon fill="midnightblue" stroke="midnightblue" points="454.19,-241.01 464.69,-242.43 457.37,-234.77 454.19,-241.01"/>
</g>
<!-- Node21 -->
<g id="node21" class="node">
<title>Node21</title>
<g id="a_node21"><a xlink:href="sbuf_8c.html#a8c1a89868b1999663effb78b4f3fab32" target="_top" xlink:title=" ">
<polygon fill="white" stroke="black" points="456,-204.5 456,-223.5 513,-223.5 513,-204.5 456,-204.5"/>
<text text-anchor="middle" x="484.5" y="-211.5" font-family="Helvetica,sans-Serif" font-size="10.00">sbuf_free</text>
</a>
</g>
</g>
<!-- Node17&#45;&gt;Node21 -->
<g id="edge24" class="edge">
<title>Node17&#45;&gt;Node21</title>
<path fill="none" stroke="midnightblue" d="M400.05,-199.84C413.95,-202.2 430.85,-205.07 445.8,-207.6"/>
<polygon fill="midnightblue" stroke="midnightblue" points="445.33,-211.07 455.77,-209.3 446.5,-204.17 445.33,-211.07"/>
</g>
<!-- Node22 -->
<g id="node22" class="node">
<title>Node22</title>
<g id="a_node22"><a xlink:href="sbuf_8c.html#a57748585d6786a2c1aadc2cbe6f2135b" target="_top" xlink:title=" ">
<polygon fill="white" stroke="black" points="452,-166.5 452,-185.5 517,-185.5 517,-166.5 452,-166.5"/>
<text text-anchor="middle" x="484.5" y="-173.5" font-family="Helvetica,sans-Serif" font-size="10.00">sbuf_make</text>
</a>
</g>
</g>
<!-- Node17&#45;&gt;Node22 -->
<g id="edge25" class="edge">
<title>Node17&#45;&gt;Node22</title>
<path fill="none" stroke="midnightblue" d="M400.05,-190.16C412.78,-188 428.01,-185.41 441.97,-183.05"/>
<polygon fill="midnightblue" stroke="midnightblue" points="442.57,-186.49 451.84,-181.37 441.4,-179.59 442.57,-186.49"/>
</g>
<!-- Node23 -->
<g id="node23" class="node">
<title>Node23</title>
<g id="a_node23"><a xlink:href="sbuf_8c.html#aa511ac77d6b486accc01c0512ef27ed2" target="_top" xlink:title=" ">
<polygon fill="white" stroke="black" points="453.5,-280.5 453.5,-299.5 515.5,-299.5 515.5,-280.5 453.5,-280.5"/>
<text text-anchor="middle" x="484.5" y="-287.5" font-family="Helvetica,sans-Serif" font-size="10.00">sbuf_mem</text>
</a>
</g>
</g>
<!-- Node17&#45;&gt;Node23 -->
<g id="edge26" class="edge">
<title>Node17&#45;&gt;Node23</title>
<path fill="none" stroke="midnightblue" d="M379.68,-204.79C392.9,-220.22 420.3,-250.52 448,-271 449.87,-272.38 451.86,-273.73 453.9,-275.02"/>
<polygon fill="midnightblue" stroke="midnightblue" points="452.58,-278.31 462.98,-280.32 456.11,-272.26 452.58,-278.31"/>
</g>
<!-- Node24 -->
<g id="node24" class="node">
<title>Node24</title>
<g id="a_node24"><a xlink:href="uc_8c.html#a8334cbe4db5e54e19bf79b31f68d9eb8" target="_top" xlink:title=" ">
<polygon fill="white" stroke="black" points="462.5,-128.5 462.5,-147.5 506.5,-147.5 506.5,-128.5 462.5,-128.5"/>
<text text-anchor="middle" x="484.5" y="-135.5" font-family="Helvetica,sans-Serif" font-size="10.00">uc_off</text>
</a>
</g>
</g>
<!-- Node17&#45;&gt;Node24 -->
<g id="edge28" class="edge">
<title>Node17&#45;&gt;Node24</title>
<path fill="none" stroke="midnightblue" d="M390.25,-185.46C408.09,-176.38 435.18,-162.59 455.57,-152.21"/>
<polygon fill="midnightblue" stroke="midnightblue" points="457.37,-155.23 464.69,-147.57 454.19,-148.99 457.37,-155.23"/>
</g>
<!-- Node20 -->
<g id="node20" class="node">
<title>Node20</title>
<g id="a_node20"><a xlink:href="sbuf_8c.html#a4ad75f3948c0340c342a3ea3eb63a6e6" target="_top" xlink:title=" ">
<polygon fill="white" stroke="black" points="557,-261.5 557,-280.5 627,-280.5 627,-261.5 557,-261.5"/>
<text text-anchor="middle" x="592" y="-268.5" font-family="Helvetica,sans-Serif" font-size="10.00">sbuf_extend</text>
</a>
</g>
</g>
<!-- Node19&#45;&gt;Node20 -->
<g id="edge23" class="edge">
<title>Node19&#45;&gt;Node20</title>
<path fill="none" stroke="midnightblue" d="M511.58,-256.7C522.26,-258.62 534.91,-260.9 546.95,-263.07"/>
<polygon fill="midnightblue" stroke="midnightblue" points="546.39,-266.52 556.86,-264.85 547.64,-259.63 546.39,-266.52"/>
</g>
<!-- Node23&#45;&gt;Node20 -->
<g id="edge27" class="edge">
<title>Node23&#45;&gt;Node20</title>
<path fill="none" stroke="midnightblue" d="M515.73,-284.56C525.42,-282.81 536.36,-280.84 546.83,-278.95"/>
<polygon fill="midnightblue" stroke="midnightblue" points="547.46,-282.4 556.68,-277.18 546.22,-275.51 547.46,-282.4"/>
</g>
<!-- Node25 -->
<g id="node25" class="node">
<title>Node25</title>
<g id="a_node25"><a xlink:href="uc_8c.html#a79c7c44c06c1febff5680c19667e2676" target="_top" xlink:title=" ">
<polygon fill="white" stroke="black" points="566.5,-52.5 566.5,-71.5 617.5,-71.5 617.5,-52.5 566.5,-52.5"/>
<text text-anchor="middle" x="592" y="-59.5" font-family="Helvetica,sans-Serif" font-size="10.00">uc_next</text>
</a>
</g>
</g>
<!-- Node24&#45;&gt;Node25 -->
<g id="edge29" class="edge">
<title>Node24&#45;&gt;Node25</title>
<path fill="none" stroke="midnightblue" d="M505.05,-128.4C510.35,-125.57 516,-122.33 521,-119 539.58,-106.63 559.16,-90.38 572.87,-78.4"/>
<polygon fill="midnightblue" stroke="midnightblue" points="575.42,-80.81 580.58,-71.56 570.78,-75.57 575.42,-80.81"/>
</g>
<!-- Node26 -->
<g id="node26" class="node">
<title>Node26</title>
<g id="a_node26"><a xlink:href="uc_8c.html#a616e24870a58b86644c34ee077faca11" target="_top" xlink:title=" ">
<polygon fill="white" stroke="black" points="674.5,-33.5 674.5,-52.5 722.5,-52.5 722.5,-33.5 674.5,-33.5"/>
<text text-anchor="middle" x="698.5" y="-40.5" font-family="Helvetica,sans-Serif" font-size="10.00">uc_end</text>
</a>
</g>
</g>
<!-- Node25&#45;&gt;Node26 -->
<g id="edge30" class="edge">
<title>Node25&#45;&gt;Node26</title>
<path fill="none" stroke="midnightblue" d="M617.5,-57.55C631.42,-55.01 649.04,-51.81 664.2,-49.05"/>
<polygon fill="midnightblue" stroke="midnightblue" points="665.02,-52.46 674.23,-47.23 663.76,-45.58 665.02,-52.46"/>
</g>
<!-- Node28&#45;&gt;Node25 -->
<g id="edge33" class="edge">
<title>Node28&#45;&gt;Node25</title>
<path fill="none" stroke="midnightblue" d="M274.71,-84.2C335.31,-79.94 487.2,-69.28 556.07,-64.45"/>
<polygon fill="midnightblue" stroke="midnightblue" points="556.65,-67.92 566.38,-63.73 556.16,-60.94 556.65,-67.92"/>
</g>
<!-- Node29 -->
<g id="node29" class="node">
<title>Node29</title>
<g id="a_node29"><a xlink:href="uc_8c.html#a8afd7835259109c3ec7bb684d4a1f67f" target="_top" xlink:title=" ">
<polygon fill="white" stroke="black" points="567,-14.5 567,-33.5 617,-33.5 617,-14.5 567,-14.5"/>
<text text-anchor="middle" x="592" y="-21.5" font-family="Helvetica,sans-Serif" font-size="10.00">uc_slen</text>
</a>
</g>
</g>
<!-- Node28&#45;&gt;Node29 -->
<g id="edge34" class="edge">
<title>Node28&#45;&gt;Node29</title>
<path fill="none" stroke="midnightblue" d="M274.57,-81.15C290.27,-78.19 310.79,-74.34 329,-71 410.69,-56.02 506.8,-38.91 556.83,-30.04"/>
<polygon fill="midnightblue" stroke="midnightblue" points="557.55,-33.47 566.79,-28.28 556.33,-26.58 557.55,-33.47"/>
</g>
<!-- Node29&#45;&gt;Node26 -->
<g id="edge35" class="edge">
<title>Node29&#45;&gt;Node26</title>
<path fill="none" stroke="midnightblue" d="M617.24,-28.41C631.25,-30.95 649.07,-34.2 664.37,-36.98"/>
<polygon fill="midnightblue" stroke="midnightblue" points="664.01,-40.47 674.47,-38.81 665.26,-33.58 664.01,-40.47"/>
</g>
<!-- Node31 -->
<g id="node31" class="node">
<title>Node31</title>
<g id="a_node31"><a xlink:href="conf_8c.html#ab1da6502eeb02af2fb9fa8a84515b0b6" target="_top" xlink:title=" ">
<polygon fill="white" stroke="black" points="203,-38.5 203,-57.5 293,-57.5 293,-38.5 203,-38.5"/>
<text text-anchor="middle" x="248" y="-45.5" font-family="Helvetica,sans-Serif" font-size="10.00">conf_placeholder</text>
</a>
</g>
</g>
<!-- Node30&#45;&gt;Node31 -->
<g id="edge37" class="edge">
<title>Node30&#45;&gt;Node31</title>
<path fill="none" stroke="midnightblue" d="M164.19,-48C172.78,-48 182.61,-48 192.41,-48"/>
<polygon fill="midnightblue" stroke="midnightblue" points="192.57,-51.5 202.57,-48 192.57,-44.5 192.57,-51.5"/>
</g>
<!-- Node32 -->
<g id="node32" class="node">
<title>Node32</title>
<g id="a_node32"><a xlink:href="uc_8c.html#a45fdc2f2f3cb34515f1014bf754741bb" target="_top" xlink:title=" ">
<polygon fill="white" stroke="black" points="221.5,-0.5 221.5,-19.5 274.5,-19.5 274.5,-0.5 221.5,-0.5"/>
<text text-anchor="middle" x="248" y="-7.5" font-family="Helvetica,sans-Serif" font-size="10.00">uc_code</text>
</a>
</g>
</g>
<!-- Node30&#45;&gt;Node32 -->
<g id="edge38" class="edge">
<title>Node30&#45;&gt;Node32</title>
<path fill="none" stroke="midnightblue" d="M164.19,-38.61C178.49,-33.67 196.19,-27.55 211.56,-22.24"/>
<polygon fill="midnightblue" stroke="midnightblue" points="212.95,-25.47 221.26,-18.89 210.66,-18.85 212.95,-25.47"/>
</g>
</g>
</svg>
        <g id="navigator" transform="translate(0 0)" fill="#404254">
                <rect fill="#f2f5e9" fill-opacity="0.5" stroke="#606060" stroke-width=".5" x="0" y="0" width="60" height="60"/>
                <use id="zoomplus" xlink:href="#zoomPlus" x="17" y="9" onmousedown="handleZoom(evt,'in')"/>
                <use id="zoomminus" xlink:href="#zoomMin" x="42" y="9" onmousedown="handleZoom(evt,'out')"/>
                <use id="reset" xlink:href="#resetDef" x="30" y="36" onmousedown="handleReset()"/>
                <g id="arrowUp" xlink:href="#dirArrow" transform="translate(30 24)" onmousedown="handlePan(0,-1)">
                  <use xlink:href="#rim" fill="#404040">
                        <set attributeName="fill" to="#808080" begin="arrowUp.mouseover" end="arrowUp.mouseout"/>
                  </use>
                  <path fill="none" stroke="white" stroke-width="1.5" d="M0,-3.0v7 M-2.5,-0.5L0,-3.0L2.5,-0.5"/>
                </g>
                <g id="arrowRight" xlink:href="#dirArrow" transform="rotate(90) translate(36 -43)" onmousedown="handlePan(1,0)">
                  <use xlink:href="#rim" fill="#404040">
                        <set attributeName="fill" to="#808080" begin="arrowRight.mouseover" end="arrowRight.mouseout"/>
                  </use>
                  <path fill="none" stroke="white" stroke-width="1.5" d="M0,-3.0v7 M-2.5,-0.5L0,-3.0L2.5,-0.5"/>
                </g>
                <g id="arrowDown" xlink:href="#dirArrow" transform="rotate(180) translate(-30 -48)" onmousedown="handlePan(0,1)">
                  <use xlink:href="#rim" fill="#404040">
                        <set attributeName="fill" to="#808080" begin="arrowDown.mouseover" end="arrowDown.mouseout"/>
                  </use>
                  <path fill="none" stroke="white" stroke-width="1.5" d="M0,-3.0v7 M-2.5,-0.5L0,-3.0L2.5,-0.5"/>
                </g>
                <g id="arrowLeft" xlink:href="#dirArrow" transform="rotate(270) translate(-36 17)" onmousedown="handlePan(-1,0)">
                  <use xlink:href="#rim" fill="#404040">
                        <set attributeName="fill" to="#808080" begin="arrowLeft.mouseover" end="arrowLeft.mouseout"/>
                  </use>
                  <path fill="none" stroke="white" stroke-width="1.5" d="M0,-3.0v7 M-2.5,-0.5L0,-3.0L2.5,-0.5"/>
                </g>
        </g>
        <svg viewBox="0 0 15 15" width="100%" height="30px" preserveAspectRatio="xMaxYMin meet">
         <g id="arrow_out" transform="scale(0.3 0.3)">
          <a xlink:href="vi_8h_af6e197881adec94ce251c84adf3dd495_cgraph_org.svg" target="_base">
           <rect id="button" ry="5" rx="5" y="6" x="6" height="38" width="38"
                fill="#f2f5e9" fill-opacity="0.5" stroke="#606060" stroke-width="1.0"/>
           <path id="arrow"
             d="M 11.500037,31.436501 C 11.940474,20.09759 22.043105,11.32322 32.158766,21.979434 L 37.068811,17.246167 C 37.068811,17.246167 37.088388,32 37.088388,32 L 22.160133,31.978069 C 22.160133,31.978069 26.997745,27.140456 26.997745,27.140456 C 18.528582,18.264221 13.291696,25.230495 11.500037,31.436501 z"
             style="fill:#404040;"/>
          </a>
         </g>
        </svg>
</svg>
