<?xml version="1.0" encoding="UTF-8" standalone="no"?>
<!DOCTYPE svg PUBLIC "-//W3C//DTD SVG 1.1//EN"
 "http://www.w3.org/Graphics/SVG/1.1/DTD/svg11.dtd">
<!-- Generated by graphviz version 2.44.1 (20200629.0846)
 -->
<!-- Title: lbuf_edit Pages: 1 -->
<!--zoomable 596 -->
<svg id="main" version="1.1" xmlns="http://www.w3.org/2000/svg" xmlns:xlink="http://www.w3.org/1999/xlink" xml:space="preserve" onload="init(evt)">
<style type="text/css"><![CDATA[
.edge:hover path { stroke: red; }
.edge:hover polygon { stroke: red; fill: red; }
]]></style>
<script type="text/javascript"><![CDATA[
var edges = document.getElementsByTagName('g');
if (edges && edges.length) {
  for (var i=0;i<edges.length;i++) {
    if (edges[i].id.substr(0,4)=='edge') {
      edges[i].setAttribute('class','edge');
    }
  }
}
]]></script>
        <defs>
                <circle id="rim" cx="0" cy="0" r="7"/>
                <circle id="rim2" cx="0" cy="0" r="3.5"/>
                <g id="zoomPlus">
                        <use xlink:href="#rim" fill="#404040">
                                <set attributeName="fill" to="#808080" begin="zoomplus.mouseover" end="zoomplus.mouseout"/>
                        </use>
                        <path d="M-4,0h8M0,-4v8" fill="none" stroke="white" stroke-width="1.5" pointer-events="none"/>
                </g>
                <g id="zoomMin">
                        <use xlink:href="#rim" fill="#404040">
                                <set attributeName="fill" to="#808080" begin="zoomminus.mouseover" end="zoomminus.mouseout"/>
                        </use>
                        <path d="M-4,0h8" fill="none" stroke="white" stroke-width="1.5" pointer-events="none"/>
                </g>
                <g id="dirArrow">
                        <path fill="none" stroke="white" stroke-width="1.5" d="M0,-3.0v7 M-2.5,-0.5L0,-3.0L2.5,-0.5"/>
                </g>
               <g id="resetDef">
                       <use xlink:href="#rim2" fill="#404040">
                               <set attributeName="fill" to="#808080" begin="reset.mouseover" end="reset.mouseout"/>
                       </use>
               </g>
        </defs>

<script type="text/javascript">
var viewWidth = 636;
var viewHeight = 596;
var sectionId = 'dynsection-8';
</script>
<script xlink:href="svgpan.js"/>
<svg id="graph" class="graph">
<g id="viewport">
<title>lbuf_edit</title>
<polygon fill="white" stroke="transparent" points="-4,4 -4,-592.32 632,-592.32 632,4 -4,4"/>
<!-- Node1 -->
<g id="node1" class="node">
<title>Node1</title>
<g id="a_node1"><a xlink:title=" ">
<polygon fill="#bfbfbf" stroke="black" points="575,-283.82 575,-302.82 628,-302.82 628,-283.82 575,-283.82"/>
<text text-anchor="middle" x="601.5" y="-290.82" font-family="Helvetica,sans-Serif" font-size="10.00">lbuf_edit</text>
</a>
</g>
</g>
<!-- Node2 -->
<g id="node2" class="node">
<title>Node2</title>
<g id="a_node2"><a xlink:href="ex_8c.html#a4cd0748447515b7a935e4bb41424a9e4" target="_top" xlink:title=" ">
<polygon fill="white" stroke="black" points="472,-568.82 472,-587.82 531,-587.82 531,-568.82 472,-568.82"/>
<text text-anchor="middle" x="501.5" y="-575.82" font-family="Helvetica,sans-Serif" font-size="10.00">ec_delete</text>
</a>
</g>
</g>
<!-- Node1&#45;&gt;Node2 -->
<g id="edge1" class="edge">
<title>Node1&#45;&gt;Node2</title>
<path fill="none" stroke="midnightblue" d="M601.26,-313.17C602.06,-360.83 597.86,-483.33 539,-559.32 536.11,-563.05 532.29,-566.11 528.2,-568.62"/>
<polygon fill="midnightblue" stroke="midnightblue" points="604.76,-312.89 600.99,-302.98 597.76,-313.07 604.76,-312.89"/>
</g>
<!-- Node3 -->
<g id="node3" class="node">
<title>Node3</title>
<g id="a_node3"><a xlink:href="ex_8c.html#adcd83f163f659bd2596bcfc25d74bde9" target="_top" xlink:title=" ">
<polygon fill="white" stroke="black" points="475,-530.82 475,-549.82 528,-549.82 528,-530.82 475,-530.82"/>
<text text-anchor="middle" x="501.5" y="-537.82" font-family="Helvetica,sans-Serif" font-size="10.00">ec_exec</text>
</a>
</g>
</g>
<!-- Node1&#45;&gt;Node3 -->
<g id="edge2" class="edge">
<title>Node1&#45;&gt;Node3</title>
<path fill="none" stroke="midnightblue" d="M600.29,-313.47C598.82,-356.4 589.83,-458.1 539,-521.32 535.96,-525.1 531.95,-528.22 527.72,-530.75"/>
<polygon fill="midnightblue" stroke="midnightblue" points="603.79,-313.3 600.53,-303.22 596.8,-313.14 603.79,-313.3"/>
</g>
<!-- Node12 -->
<g id="node12" class="node">
<title>Node12</title>
<g id="a_node12"><a xlink:href="ex_8c.html#a0908784dc65be2da119a6b72ef96dec2" target="_top" xlink:title=" ">
<polygon fill="white" stroke="black" points="473.5,-492.82 473.5,-511.82 529.5,-511.82 529.5,-492.82 473.5,-492.82"/>
<text text-anchor="middle" x="501.5" y="-499.82" font-family="Helvetica,sans-Serif" font-size="10.00">ec_insert</text>
</a>
</g>
</g>
<!-- Node1&#45;&gt;Node12 -->
<g id="edge14" class="edge">
<title>Node1&#45;&gt;Node12</title>
<path fill="none" stroke="midnightblue" d="M599.01,-312.87C595.23,-350.15 582.21,-432.21 539,-483.32 535.86,-487.03 531.82,-490.11 527.57,-492.63"/>
<polygon fill="midnightblue" stroke="midnightblue" points="602.51,-313.1 599.91,-302.83 595.53,-312.47 602.51,-313.1"/>
</g>
<!-- Node13 -->
<g id="node13" class="node">
<title>Node13</title>
<g id="a_node13"><a xlink:href="ex_8c.html#ab417867ff867aff9f7277229990cd1b8" target="_top" xlink:title=" ">
<polygon fill="white" stroke="black" points="478.5,-454.82 478.5,-473.82 524.5,-473.82 524.5,-454.82 478.5,-454.82"/>
<text text-anchor="middle" x="501.5" y="-461.82" font-family="Helvetica,sans-Serif" font-size="10.00">ec_put</text>
</a>
</g>
</g>
<!-- Node1&#45;&gt;Node13 -->
<g id="edge15" class="edge">
<title>Node1&#45;&gt;Node13</title>
<path fill="none" stroke="midnightblue" d="M596.2,-313.02C588.8,-343.2 571.27,-401.43 539,-440.32 534.25,-446.04 527.79,-450.89 521.62,-454.71"/>
<polygon fill="midnightblue" stroke="midnightblue" points="599.69,-313.46 598.54,-302.93 592.87,-311.88 599.69,-313.46"/>
</g>
<!-- Node14 -->
<g id="node14" class="node">
<title>Node14</title>
<g id="a_node14"><a xlink:href="ex_8c.html#add0e79e1f1e3d45f4eaa6fbe5c1ca443" target="_top" xlink:title=" ">
<polygon fill="white" stroke="black" points="371.5,-378.82 371.5,-397.82 422.5,-397.82 422.5,-378.82 371.5,-378.82"/>
<text text-anchor="middle" x="397" y="-385.82" font-family="Helvetica,sans-Serif" font-size="10.00">ec_read</text>
</a>
</g>
</g>
<!-- Node1&#45;&gt;Node14 -->
<g id="edge16" class="edge">
<title>Node1&#45;&gt;Node14</title>
<path fill="none" stroke="midnightblue" d="M596.47,-312.72C589.76,-339.48 573.45,-386.76 539,-407.32 500.4,-430.35 445.42,-411.03 416.86,-397.94"/>
<polygon fill="midnightblue" stroke="midnightblue" points="599.89,-313.48 598.72,-302.95 593.07,-311.9 599.89,-313.48"/>
</g>
<!-- Node15 -->
<g id="node15" class="node">
<title>Node15</title>
<g id="a_node15"><a xlink:href="ex_8c.html#aaf4e813ce4370aa859181d22de51576b" target="_top" xlink:title=" ">
<polygon fill="white" stroke="black" points="464,-378.82 464,-397.82 539,-397.82 539,-378.82 464,-378.82"/>
<text text-anchor="middle" x="501.5" y="-385.82" font-family="Helvetica,sans-Serif" font-size="10.00">ec_substitute</text>
</a>
</g>
</g>
<!-- Node1&#45;&gt;Node15 -->
<g id="edge17" class="edge">
<title>Node1&#45;&gt;Node15</title>
<path fill="none" stroke="midnightblue" d="M588.59,-312.08C577.34,-328.69 559.21,-352.8 539,-369.32 534.69,-372.84 529.61,-375.99 524.64,-378.65"/>
<polygon fill="midnightblue" stroke="midnightblue" points="591.81,-313.56 594.38,-303.28 585.96,-309.71 591.81,-313.56"/>
</g>
<!-- Node16 -->
<g id="node16" class="node">
<title>Node16</title>
<g id="a_node16"><a xlink:href="vi_8h.html#a73da27946270b153994b708a93095bc6" target="_top" xlink:title=" ">
<polygon fill="white" stroke="black" points="478.5,-340.82 478.5,-359.82 524.5,-359.82 524.5,-340.82 478.5,-340.82"/>
<text text-anchor="middle" x="501.5" y="-347.82" font-family="Helvetica,sans-Serif" font-size="10.00">lbuf_rd</text>
</a>
</g>
</g>
<!-- Node1&#45;&gt;Node16 -->
<g id="edge18" class="edge">
<title>Node1&#45;&gt;Node16</title>
<path fill="none" stroke="midnightblue" d="M575.16,-308.05C557.42,-318.37 534.23,-331.86 518.88,-340.79"/>
<polygon fill="midnightblue" stroke="midnightblue" points="576.99,-311.04 583.88,-302.99 573.47,-304.99 576.99,-311.04"/>
</g>
<!-- Node18 -->
<g id="node18" class="node">
<title>Node18</title>
<g id="a_node18"><a xlink:href="vi_8c.html#a8bb357a77ed61da8858f138c6fa672a6" target="_top" xlink:title=" ">
<polygon fill="white" stroke="black" points="270,-27.82 270,-46.82 326,-46.82 326,-27.82 270,-27.82"/>
<text text-anchor="middle" x="298" y="-34.82" font-family="Helvetica,sans-Serif" font-size="10.00">vc_insert</text>
</a>
</g>
</g>
<!-- Node1&#45;&gt;Node18 -->
<g id="edge22" class="edge">
<title>Node1&#45;&gt;Node18</title>
<path fill="none" stroke="midnightblue" d="M599.03,-273.66C594.39,-217.49 577.96,-58.3 539,-27.32 474.86,23.68 367.78,-9.5 321.47,-27.68"/>
<polygon fill="midnightblue" stroke="midnightblue" points="595.55,-274.04 599.83,-283.73 602.53,-273.49 595.55,-274.04"/>
</g>
<!-- Node19 -->
<g id="node19" class="node">
<title>Node19</title>
<g id="a_node19"><a xlink:href="vi_8c.html#a3d105f7bfebd8365af5b66d6dedf184e" target="_top" xlink:title=" ">
<polygon fill="white" stroke="black" points="274.5,-302.82 274.5,-321.82 321.5,-321.82 321.5,-302.82 274.5,-302.82"/>
<text text-anchor="middle" x="298" y="-309.82" font-family="Helvetica,sans-Serif" font-size="10.00">vc_join</text>
</a>
</g>
</g>
<!-- Node1&#45;&gt;Node19 -->
<g id="edge24" class="edge">
<title>Node1&#45;&gt;Node19</title>
<path fill="none" stroke="midnightblue" d="M564.58,-295.58C501.77,-299.54 373.74,-307.61 321.73,-310.89"/>
<polygon fill="midnightblue" stroke="midnightblue" points="565.03,-299.06 574.79,-294.94 564.59,-292.07 565.03,-299.06"/>
</g>
<!-- Node20 -->
<g id="node20" class="node">
<title>Node20</title>
<g id="a_node20"><a xlink:href="vi_8c.html#a7611a5bcfe4c4ddc58233c4c52a8fa16" target="_top" xlink:title=" ">
<polygon fill="white" stroke="black" points="169.5,-264.82 169.5,-283.82 215.5,-283.82 215.5,-264.82 169.5,-264.82"/>
<text text-anchor="middle" x="192.5" y="-271.82" font-family="Helvetica,sans-Serif" font-size="10.00">vc_put</text>
</a>
</g>
</g>
<!-- Node1&#45;&gt;Node20 -->
<g id="edge26" class="edge">
<title>Node1&#45;&gt;Node20</title>
<path fill="none" stroke="midnightblue" d="M564.63,-291.64C482.53,-287.81 282.87,-278.49 215.85,-275.36"/>
<polygon fill="midnightblue" stroke="midnightblue" points="564.58,-295.14 574.73,-292.11 564.91,-288.15 564.58,-295.14"/>
</g>
<!-- Node21 -->
<g id="node21" class="node">
<title>Node21</title>
<g id="a_node21"><a xlink:href="vi_8c.html#a3635843354dbb31e3c00efcd5798535a" target="_top" xlink:title=" ">
<polygon fill="white" stroke="black" points="266,-226.82 266,-245.82 330,-245.82 330,-226.82 266,-226.82"/>
<text text-anchor="middle" x="298" y="-233.82" font-family="Helvetica,sans-Serif" font-size="10.00">vc_replace</text>
</a>
</g>
</g>
<!-- Node1&#45;&gt;Node21 -->
<g id="edge28" class="edge">
<title>Node1&#45;&gt;Node21</title>
<path fill="none" stroke="midnightblue" d="M577.84,-278.39C566.62,-271.73 552.58,-264.46 539,-260.32 466.51,-238.2 376.55,-235.36 330.06,-235.6"/>
<polygon fill="midnightblue" stroke="midnightblue" points="576.19,-281.48 586.54,-283.76 579.87,-275.53 576.19,-281.48"/>
</g>
<!-- Node22 -->
<g id="node22" class="node">
<title>Node22</title>
<g id="a_node22"><a xlink:href="vi_8c.html#a4e8a00c8cdffacf0c69c3901cdcdf059" target="_top" xlink:title=" ">
<polygon fill="white" stroke="black" points="476.5,-188.82 476.5,-207.82 526.5,-207.82 526.5,-188.82 476.5,-188.82"/>
<text text-anchor="middle" x="501.5" y="-195.82" font-family="Helvetica,sans-Serif" font-size="10.00">vi_case</text>
</a>
</g>
</g>
<!-- Node1&#45;&gt;Node22 -->
<g id="edge30" class="edge">
<title>Node1&#45;&gt;Node22</title>
<path fill="none" stroke="midnightblue" d="M587.17,-275.31C575.47,-260.18 557.46,-238.49 539,-222.32 532.95,-217.02 525.66,-212 519.18,-207.93"/>
<polygon fill="midnightblue" stroke="midnightblue" points="584.46,-277.53 593.3,-283.37 590.04,-273.29 584.46,-277.53"/>
</g>
<!-- Node24 -->
<g id="node24" class="node">
<title>Node24</title>
<g id="a_node24"><a xlink:href="vi_8c.html#ae37b094c3bb647d8c1a4ac4e858ce518" target="_top" xlink:title=" ">
<polygon fill="white" stroke="black" points="471,-150.82 471,-169.82 532,-169.82 532,-150.82 471,-150.82"/>
<text text-anchor="middle" x="501.5" y="-157.82" font-family="Helvetica,sans-Serif" font-size="10.00">vi_change</text>
</a>
</g>
</g>
<!-- Node1&#45;&gt;Node24 -->
<g id="edge33" class="edge">
<title>Node1&#45;&gt;Node24</title>
<path fill="none" stroke="midnightblue" d="M594.09,-273.9C585.13,-249.26 566.77,-206.68 539,-179.32 535.23,-175.61 530.6,-172.45 525.9,-169.85"/>
<polygon fill="midnightblue" stroke="midnightblue" points="590.86,-275.26 597.45,-283.55 597.47,-272.96 590.86,-275.26"/>
</g>
<!-- Node25 -->
<g id="node25" class="node">
<title>Node25</title>
<g id="a_node25"><a xlink:href="vi_8c.html#abfa30fc2e2b4b8b24e2ee5d4bd54f2eb" target="_top" xlink:title=" ">
<polygon fill="white" stroke="black" points="473.5,-112.82 473.5,-131.82 529.5,-131.82 529.5,-112.82 473.5,-112.82"/>
<text text-anchor="middle" x="501.5" y="-119.82" font-family="Helvetica,sans-Serif" font-size="10.00">vi_delete</text>
</a>
</g>
</g>
<!-- Node1&#45;&gt;Node25 -->
<g id="edge35" class="edge">
<title>Node1&#45;&gt;Node25</title>
<path fill="none" stroke="midnightblue" d="M597.04,-273.39C590.65,-241.89 574.3,-180.16 539,-141.32 535.64,-137.62 531.38,-134.52 526.98,-131.97"/>
<polygon fill="midnightblue" stroke="midnightblue" points="593.66,-274.36 598.96,-283.54 600.54,-273.06 593.66,-274.36"/>
</g>
<!-- Node26 -->
<g id="node26" class="node">
<title>Node26</title>
<g id="a_node26"><a xlink:href="vi_8c.html#ab8e0c9b9d2ef5161c6a3a8828606df5f" target="_top" xlink:title=" ">
<polygon fill="white" stroke="black" points="478,-74.82 478,-93.82 525,-93.82 525,-74.82 478,-74.82"/>
<text text-anchor="middle" x="501.5" y="-81.82" font-family="Helvetica,sans-Serif" font-size="10.00">vi_pipe</text>
</a>
</g>
</g>
<!-- Node1&#45;&gt;Node26 -->
<g id="edge37" class="edge">
<title>Node1&#45;&gt;Node26</title>
<path fill="none" stroke="midnightblue" d="M599.01,-273.76C595.23,-236.48 582.21,-154.42 539,-103.32 535.31,-98.95 530.36,-95.46 525.3,-92.72"/>
<polygon fill="midnightblue" stroke="midnightblue" points="595.53,-274.16 599.91,-283.81 602.51,-273.54 595.53,-274.16"/>
</g>
<!-- Node27 -->
<g id="node27" class="node">
<title>Node27</title>
<g id="a_node27"><a xlink:href="vi_8c.html#a48860be78b002b73335ae1b47dd56929" target="_top" xlink:title=" ">
<polygon fill="white" stroke="black" points="477.5,-36.82 477.5,-55.82 525.5,-55.82 525.5,-36.82 477.5,-36.82"/>
<text text-anchor="middle" x="501.5" y="-43.82" font-family="Helvetica,sans-Serif" font-size="10.00">vi_shift</text>
</a>
</g>
</g>
<!-- Node1&#45;&gt;Node27 -->
<g id="edge39" class="edge">
<title>Node1&#45;&gt;Node27</title>
<path fill="none" stroke="midnightblue" d="M600.29,-273.16C598.82,-230.23 589.83,-128.54 539,-65.32 535.51,-60.98 530.76,-57.51 525.84,-54.8"/>
<polygon fill="midnightblue" stroke="midnightblue" points="596.8,-273.5 600.53,-283.41 603.79,-273.33 596.8,-273.5"/>
</g>
<!-- Node4 -->
<g id="node4" class="node">
<title>Node4</title>
<g id="a_node4"><a xlink:href="ex_8c.html#a7d848d20211b2e1c868dde98ec5dfae9" target="_top" xlink:title=" ">
<polygon fill="white" stroke="black" points="373.5,-416.82 373.5,-435.82 420.5,-435.82 420.5,-416.82 373.5,-416.82"/>
<text text-anchor="middle" x="397" y="-423.82" font-family="Helvetica,sans-Serif" font-size="10.00">ex_line</text>
</a>
</g>
</g>
<!-- Node3&#45;&gt;Node4 -->
<g id="edge3" class="edge">
<title>Node3&#45;&gt;Node4</title>
<path fill="none" stroke="midnightblue" d="M468.88,-525.16C467.17,-523.94 465.53,-522.66 464,-521.32 434.91,-495.71 412.17,-454.72 402.74,-436.09"/>
<polygon fill="midnightblue" stroke="midnightblue" points="467.44,-528.38 477.79,-530.67 471.12,-522.43 467.44,-528.38"/>
</g>
<!-- Node5 -->
<g id="node5" class="node">
<title>Node5</title>
<g id="a_node5"><a xlink:href="ex_8c.html#ab15ebfef933256d9741128e2ddf3f9b5" target="_top" xlink:title=" ">
<polygon fill="white" stroke="black" points="271.5,-378.82 271.5,-397.82 324.5,-397.82 324.5,-378.82 271.5,-378.82"/>
<text text-anchor="middle" x="298" y="-385.82" font-family="Helvetica,sans-Serif" font-size="10.00">ex_exec</text>
</a>
</g>
</g>
<!-- Node4&#45;&gt;Node5 -->
<g id="edge4" class="edge">
<title>Node4&#45;&gt;Node5</title>
<path fill="none" stroke="midnightblue" d="M363.45,-413.57C350.4,-408.46 335.63,-402.67 323.52,-397.92"/>
<polygon fill="midnightblue" stroke="midnightblue" points="362.42,-416.92 373.01,-417.31 364.98,-410.41 362.42,-416.92"/>
</g>
<!-- Node6 -->
<g id="node6" class="node">
<title>Node6</title>
<g id="a_node6"><a xlink:href="ex_8c.html#a70c571bdde329a65e216c19b4aeaa628" target="_top" xlink:title=" ">
<polygon fill="white" stroke="black" points="167.5,-416.82 167.5,-435.82 217.5,-435.82 217.5,-416.82 167.5,-416.82"/>
<text text-anchor="middle" x="192.5" y="-423.82" font-family="Helvetica,sans-Serif" font-size="10.00">ec_glob</text>
</a>
</g>
</g>
<!-- Node5&#45;&gt;Node6 -->
<g id="edge5" class="edge">
<title>Node5&#45;&gt;Node6</title>
<path fill="none" stroke="midnightblue" d="M261.75,-401.26C247.26,-406.58 230.83,-412.61 217.72,-417.42"/>
<polygon fill="midnightblue" stroke="midnightblue" points="263.23,-404.44 271.42,-397.71 260.82,-397.87 263.23,-404.44"/>
</g>
<!-- Node7 -->
<g id="node7" class="node">
<title>Node7</title>
<g id="a_node7"><a xlink:href="vi_8h.html#aa75c73cccb4878ec06ea5bf5b1b02295" target="_top" xlink:title=" ">
<polygon fill="white" stroke="black" points="155,-378.82 155,-397.82 230,-397.82 230,-378.82 155,-378.82"/>
<text text-anchor="middle" x="192.5" y="-385.82" font-family="Helvetica,sans-Serif" font-size="10.00">ex_command</text>
</a>
</g>
</g>
<!-- Node5&#45;&gt;Node7 -->
<g id="edge7" class="edge">
<title>Node5&#45;&gt;Node7</title>
<path fill="none" stroke="midnightblue" d="M261.31,-388.32C251.23,-388.32 240.25,-388.32 230.12,-388.32"/>
<polygon fill="midnightblue" stroke="midnightblue" points="261.42,-391.82 271.42,-388.32 261.42,-384.82 261.42,-391.82"/>
</g>
<!-- Node6&#45;&gt;Node4 -->
<g id="edge6" class="edge">
<title>Node6&#45;&gt;Node4</title>
<path fill="none" stroke="midnightblue" d="M227.66,-426.32C269.06,-426.32 337.67,-426.32 373.16,-426.32"/>
<polygon fill="midnightblue" stroke="midnightblue" points="227.51,-422.82 217.51,-426.32 227.51,-429.82 227.51,-422.82"/>
</g>
<!-- Node8 -->
<g id="node8" class="node">
<title>Node8</title>
<g id="a_node8"><a xlink:href="vi_8h.html#ac395e51f25330a6e6033b6d0d22b2076" target="_top" xlink:title=" ">
<polygon fill="white" stroke="black" points="82,-378.82 82,-397.82 111,-397.82 111,-378.82 82,-378.82"/>
<text text-anchor="middle" x="96.5" y="-385.82" font-family="Helvetica,sans-Serif" font-size="10.00">ex</text>
</a>
</g>
</g>
<!-- Node7&#45;&gt;Node8 -->
<g id="edge8" class="edge">
<title>Node7&#45;&gt;Node8</title>
<path fill="none" stroke="midnightblue" d="M144.73,-388.32C132.54,-388.32 120.33,-388.32 111.38,-388.32"/>
<polygon fill="midnightblue" stroke="midnightblue" points="144.89,-391.82 154.89,-388.32 144.89,-384.82 144.89,-391.82"/>
</g>
<!-- Node10 -->
<g id="node10" class="node">
<title>Node10</title>
<g id="a_node10"><a xlink:href="vi_8h.html#abe53b5c10f94f20cd5ed024371615fa1" target="_top" xlink:title=" ">
<polygon fill="white" stroke="black" points="74,-340.82 74,-359.82 119,-359.82 119,-340.82 74,-340.82"/>
<text text-anchor="middle" x="96.5" y="-347.82" font-family="Helvetica,sans-Serif" font-size="10.00">ex_init</text>
</a>
</g>
</g>
<!-- Node7&#45;&gt;Node10 -->
<g id="edge10" class="edge">
<title>Node7&#45;&gt;Node10</title>
<path fill="none" stroke="midnightblue" d="M158.25,-374.88C145.31,-369.65 130.85,-363.8 119.28,-359.12"/>
<polygon fill="midnightblue" stroke="midnightblue" points="157.2,-378.23 167.78,-378.73 159.82,-371.74 157.2,-378.23"/>
</g>
<!-- Node11 -->
<g id="node11" class="node">
<title>Node11</title>
<g id="a_node11"><a xlink:href="vi_8c.html#a8d808e0f3453afe6600673ee1ea5f828" target="_top" xlink:title=" ">
<polygon fill="white" stroke="black" points="82,-264.82 82,-283.82 111,-283.82 111,-264.82 82,-264.82"/>
<text text-anchor="middle" x="96.5" y="-271.82" font-family="Helvetica,sans-Serif" font-size="10.00">vi</text>
</a>
</g>
</g>
<!-- Node7&#45;&gt;Node11 -->
<g id="edge12" class="edge">
<title>Node7&#45;&gt;Node11</title>
<path fill="none" stroke="midnightblue" d="M159.64,-373.17C158.01,-371.96 156.45,-370.67 155,-369.32 127.72,-343.74 108.76,-302.37 101.18,-283.83"/>
<polygon fill="midnightblue" stroke="midnightblue" points="157.92,-376.23 168.23,-378.65 161.68,-370.32 157.92,-376.23"/>
</g>
<!-- Node9 -->
<g id="node9" class="node">
<title>Node9</title>
<g id="a_node9"><a xlink:href="vi_8c.html#a0ddf1224851353fc92bfbff6f499fa97" target="_top" xlink:title=" ">
<polygon fill="white" stroke="black" points="0,-340.82 0,-359.82 38,-359.82 38,-340.82 0,-340.82"/>
<text text-anchor="middle" x="19" y="-347.82" font-family="Helvetica,sans-Serif" font-size="10.00">main</text>
</a>
</g>
</g>
<!-- Node8&#45;&gt;Node9 -->
<g id="edge9" class="edge">
<title>Node8&#45;&gt;Node9</title>
<path fill="none" stroke="midnightblue" d="M72.56,-376.77C61.48,-371.2 48.39,-364.6 38.04,-359.4"/>
<polygon fill="midnightblue" stroke="midnightblue" points="71.15,-379.98 81.65,-381.35 74.29,-373.73 71.15,-379.98"/>
</g>
<!-- Node10&#45;&gt;Node9 -->
<g id="edge11" class="edge">
<title>Node10&#45;&gt;Node9</title>
<path fill="none" stroke="midnightblue" d="M63.55,-350.32C54.99,-350.32 46.03,-350.32 38.47,-350.32"/>
<polygon fill="midnightblue" stroke="midnightblue" points="63.66,-353.82 73.66,-350.32 63.66,-346.82 63.66,-353.82"/>
</g>
<!-- Node11&#45;&gt;Node9 -->
<g id="edge13" class="edge">
<title>Node11&#45;&gt;Node9</title>
<path fill="none" stroke="midnightblue" d="M78.74,-291.18C63.69,-306.34 42.1,-328.07 29.72,-340.53"/>
<polygon fill="midnightblue" stroke="midnightblue" points="81.37,-293.5 85.94,-283.94 76.41,-288.57 81.37,-293.5"/>
</g>
<!-- Node16&#45;&gt;Node14 -->
<g id="edge21" class="edge">
<title>Node16&#45;&gt;Node14</title>
<path fill="none" stroke="midnightblue" d="M468.5,-362.18C453.73,-367.66 436.46,-374.06 422.71,-379.16"/>
<polygon fill="midnightblue" stroke="midnightblue" points="470.1,-365.32 478.26,-358.56 467.67,-358.76 470.1,-365.32"/>
</g>
<!-- Node17 -->
<g id="node17" class="node">
<title>Node17</title>
<g id="a_node17"><a xlink:href="ex_8c.html#a8059390ad69866fa8e14bdb2521d4dc2" target="_top" xlink:title=" ">
<polygon fill="white" stroke="black" points="168.5,-340.82 168.5,-359.82 216.5,-359.82 216.5,-340.82 168.5,-340.82"/>
<text text-anchor="middle" x="192.5" y="-347.82" font-family="Helvetica,sans-Serif" font-size="10.00">ec_edit</text>
</a>
</g>
</g>
<!-- Node16&#45;&gt;Node17 -->
<g id="edge19" class="edge">
<title>Node16&#45;&gt;Node17</title>
<path fill="none" stroke="midnightblue" d="M468.4,-350.32C406.25,-350.32 270.84,-350.32 216.63,-350.32"/>
<polygon fill="midnightblue" stroke="midnightblue" points="468.42,-353.82 478.42,-350.32 468.42,-346.82 468.42,-353.82"/>
</g>
<!-- Node17&#45;&gt;Node10 -->
<g id="edge20" class="edge">
<title>Node17&#45;&gt;Node10</title>
<path fill="none" stroke="midnightblue" d="M157.88,-350.32C145,-350.32 130.65,-350.32 119.18,-350.32"/>
<polygon fill="midnightblue" stroke="midnightblue" points="158.26,-353.82 168.26,-350.32 158.26,-346.82 158.26,-353.82"/>
</g>
<!-- Node18&#45;&gt;Node11 -->
<g id="edge23" class="edge">
<title>Node18&#45;&gt;Node11</title>
<path fill="none" stroke="midnightblue" d="M270.49,-52.1C239.32,-70.62 187.67,-105.01 155,-146.32 124.47,-184.92 106.32,-242.3 100.02,-264.79"/>
<polygon fill="midnightblue" stroke="midnightblue" points="272.59,-54.93 279.47,-46.87 269.07,-48.88 272.59,-54.93"/>
</g>
<!-- Node19&#45;&gt;Node11 -->
<g id="edge25" class="edge">
<title>Node19&#45;&gt;Node11</title>
<path fill="none" stroke="midnightblue" d="M264.15,-309.67C235.16,-306.92 191.92,-301.81 155,-293.32 139.63,-289.78 122.53,-283.87 111.01,-279.57"/>
<polygon fill="midnightblue" stroke="midnightblue" points="263.86,-313.16 274.14,-310.58 264.5,-306.19 263.86,-313.16"/>
</g>
<!-- Node20&#45;&gt;Node11 -->
<g id="edge27" class="edge">
<title>Node20&#45;&gt;Node11</title>
<path fill="none" stroke="midnightblue" d="M158.94,-274.32C142.59,-274.32 123.66,-274.32 111.18,-274.32"/>
<polygon fill="midnightblue" stroke="midnightblue" points="159.22,-277.82 169.22,-274.32 159.22,-270.82 159.22,-277.82"/>
</g>
<!-- Node21&#45;&gt;Node11 -->
<g id="edge29" class="edge">
<title>Node21&#45;&gt;Node11</title>
<path fill="none" stroke="midnightblue" d="M255.93,-239.77C227.38,-242.67 188.57,-247.6 155,-255.32 139.63,-258.85 122.53,-264.77 111.01,-269.06"/>
<polygon fill="midnightblue" stroke="midnightblue" points="256.34,-243.25 265.96,-238.8 255.66,-236.28 256.34,-243.25"/>
</g>
<!-- Node23 -->
<g id="node23" class="node">
<title>Node23</title>
<g id="a_node23"><a xlink:href="vi_8c.html#a06cbc6eb843436a0e77e07cbab0c4538" target="_top" xlink:title=" ">
<polygon fill="white" stroke="black" points="366,-131.82 366,-150.82 428,-150.82 428,-131.82 366,-131.82"/>
<text text-anchor="middle" x="397" y="-138.82" font-family="Helvetica,sans-Serif" font-size="10.00">vc_motion</text>
</a>
</g>
</g>
<!-- Node22&#45;&gt;Node23 -->
<g id="edge31" class="edge">
<title>Node22&#45;&gt;Node23</title>
<path fill="none" stroke="midnightblue" d="M472.93,-184.13C469.91,-182.52 466.88,-180.9 464,-179.32 446.84,-169.92 427.46,-158.68 414.17,-150.88"/>
<polygon fill="midnightblue" stroke="midnightblue" points="471.37,-187.26 481.85,-188.8 474.62,-181.06 471.37,-187.26"/>
</g>
<!-- Node23&#45;&gt;Node11 -->
<g id="edge32" class="edge">
<title>Node23&#45;&gt;Node11</title>
<path fill="none" stroke="midnightblue" d="M358.11,-154.21C309.86,-171.17 224.42,-202.97 155,-238.32 139.47,-246.23 122.68,-257.02 111.27,-264.73"/>
<polygon fill="midnightblue" stroke="midnightblue" points="359.54,-157.42 367.83,-150.83 357.23,-150.81 359.54,-157.42"/>
</g>
<!-- Node24&#45;&gt;Node23 -->
<g id="edge34" class="edge">
<title>Node24&#45;&gt;Node23</title>
<path fill="none" stroke="midnightblue" d="M460.79,-152.96C449.99,-150.96 438.48,-148.82 428.29,-146.93"/>
<polygon fill="midnightblue" stroke="midnightblue" points="460.38,-156.44 470.85,-154.82 461.66,-149.56 460.38,-156.44"/>
</g>
<!-- Node25&#45;&gt;Node23 -->
<g id="edge36" class="edge">
<title>Node25&#45;&gt;Node23</title>
<path fill="none" stroke="midnightblue" d="M463.47,-129.18C451.89,-131.33 439.27,-133.67 428.22,-135.72"/>
<polygon fill="midnightblue" stroke="midnightblue" points="464.11,-132.62 473.3,-127.36 462.83,-125.74 464.11,-132.62"/>
</g>
<!-- Node26&#45;&gt;Node23 -->
<g id="edge38" class="edge">
<title>Node26&#45;&gt;Node23</title>
<path fill="none" stroke="midnightblue" d="M472.93,-98.51C469.91,-100.11 466.88,-101.74 464,-103.32 446.84,-112.72 427.46,-123.95 414.17,-131.75"/>
<polygon fill="midnightblue" stroke="midnightblue" points="474.62,-101.58 481.85,-93.83 471.37,-95.38 474.62,-101.58"/>
</g>
<!-- Node27&#45;&gt;Node23 -->
<g id="edge40" class="edge">
<title>Node27&#45;&gt;Node23</title>
<path fill="none" stroke="midnightblue" d="M469.78,-61.19C467.77,-62.5 465.82,-63.88 464,-65.32 438.75,-85.23 415.7,-115.78 404.73,-131.39"/>
<polygon fill="midnightblue" stroke="midnightblue" points="471.97,-63.97 478.83,-55.89 468.43,-57.93 471.97,-63.97"/>
</g>
</g>
</svg>
        <g id="navigator" transform="translate(0 0)" fill="#404254">
                <rect fill="#f2f5e9" fill-opacity="0.5" stroke="#606060" stroke-width=".5" x="0" y="0" width="60" height="60"/>
                <use id="zoomplus" xlink:href="#zoomPlus" x="17" y="9" onmousedown="handleZoom(evt,'in')"/>
                <use id="zoomminus" xlink:href="#zoomMin" x="42" y="9" onmousedown="handleZoom(evt,'out')"/>
                <use id="reset" xlink:href="#resetDef" x="30" y="36" onmousedown="handleReset()"/>
                <g id="arrowUp" xlink:href="#dirArrow" transform="translate(30 24)" onmousedown="handlePan(0,-1)">
                  <use xlink:href="#rim" fill="#404040">
                        <set attributeName="fill" to="#808080" begin="arrowUp.mouseover" end="arrowUp.mouseout"/>
                  </use>
                  <path fill="none" stroke="white" stroke-width="1.5" d="M0,-3.0v7 M-2.5,-0.5L0,-3.0L2.5,-0.5"/>
                </g>
                <g id="arrowRight" xlink:href="#dirArrow" transform="rotate(90) translate(36 -43)" onmousedown="handlePan(1,0)">
                  <use xlink:href="#rim" fill="#404040">
                        <set attributeName="fill" to="#808080" begin="arrowRight.mouseover" end="arrowRight.mouseout"/>
                  </use>
                  <path fill="none" stroke="white" stroke-width="1.5" d="M0,-3.0v7 M-2.5,-0.5L0,-3.0L2.5,-0.5"/>
                </g>
                <g id="arrowDown" xlink:href="#dirArrow" transform="rotate(180) translate(-30 -48)" onmousedown="handlePan(0,1)">
                  <use xlink:href="#rim" fill="#404040">
                        <set attributeName="fill" to="#808080" begin="arrowDown.mouseover" end="arrowDown.mouseout"/>
                  </use>
                  <path fill="none" stroke="white" stroke-width="1.5" d="M0,-3.0v7 M-2.5,-0.5L0,-3.0L2.5,-0.5"/>
                </g>
                <g id="arrowLeft" xlink:href="#dirArrow" transform="rotate(270) translate(-36 17)" onmousedown="handlePan(-1,0)">
                  <use xlink:href="#rim" fill="#404040">
                        <set attributeName="fill" to="#808080" begin="arrowLeft.mouseover" end="arrowLeft.mouseout"/>
                  </use>
                  <path fill="none" stroke="white" stroke-width="1.5" d="M0,-3.0v7 M-2.5,-0.5L0,-3.0L2.5,-0.5"/>
                </g>
        </g>
        <svg viewBox="0 0 15 15" width="100%" height="30px" preserveAspectRatio="xMaxYMin meet">
         <g id="arrow_out" transform="scale(0.3 0.3)">
          <a xlink:href="vi_8h_ace23fcf99b4a5bb0e4da7bfbeb292a7d_icgraph_org.svg" target="_base">
           <rect id="button" ry="5" rx="5" y="6" x="6" height="38" width="38"
                fill="#f2f5e9" fill-opacity="0.5" stroke="#606060" stroke-width="1.0"/>
           <path id="arrow"
             d="M 11.500037,31.436501 C 11.940474,20.09759 22.043105,11.32322 32.158766,21.979434 L 37.068811,17.246167 C 37.068811,17.246167 37.088388,32 37.088388,32 L 22.160133,31.978069 C 22.160133,31.978069 26.997745,27.140456 26.997745,27.140456 C 18.528582,18.264221 13.291696,25.230495 11.500037,31.436501 z"
             style="fill:#404040;"/>
          </a>
         </g>
        </svg>
</svg>
