<?xml version="1.0" encoding="UTF-8" standalone="no"?>
<!DOCTYPE svg PUBLIC "-//W3C//DTD SVG 1.1//EN"
 "http://www.w3.org/Graphics/SVG/1.1/DTD/svg11.dtd">
<!-- Generated by graphviz version 2.44.1 (20200629.0846)
 -->
<!-- Title: ren_translate Pages: 1 -->
<svg width="615pt" height="332pt"
 viewBox="0.00 0.00 615.00 332.00" xmlns="http://www.w3.org/2000/svg" xmlns:xlink="http://www.w3.org/1999/xlink">
<g id="graph0" class="graph" transform="scale(1 1) rotate(0) translate(4 328)">
<title>ren_translate</title>
<polygon fill="white" stroke="transparent" points="-4,4 -4,-328 611,-328 611,4 -4,4"/>
<!-- Node1 -->
<g id="node1" class="node">
<title>Node1</title>
<g id="a_node1"><a xlink:title=" ">
<polygon fill="#bfbfbf" stroke="black" points="0,-171.5 0,-190.5 73,-190.5 73,-171.5 0,-171.5"/>
<text text-anchor="middle" x="36.5" y="-178.5" font-family="Helvetica,sans-Serif" font-size="10.00">ren_translate</text>
</a>
</g>
</g>
<!-- Node2 -->
<g id="node2" class="node">
<title>Node2</title>
<g id="a_node2"><a xlink:href="ren_8c.html#a0b410d82df4f40183b9655f3a0c4750b" target="_top" xlink:title=" ">
<polygon fill="white" stroke="black" points="109,-209.5 109,-228.5 194,-228.5 194,-209.5 109,-209.5"/>
<text text-anchor="middle" x="151.5" y="-216.5" font-family="Helvetica,sans-Serif" font-size="10.00">ren_placeholder</text>
</a>
</g>
</g>
<!-- Node1&#45;&gt;Node2 -->
<g id="edge1" class="edge">
<title>Node1&#45;&gt;Node2</title>
<path fill="none" stroke="midnightblue" d="M66.01,-190.59C80.07,-195.31 97.21,-201.08 112.37,-206.18"/>
<polygon fill="midnightblue" stroke="midnightblue" points="111.4,-209.54 121.99,-209.41 113.63,-202.91 111.4,-209.54"/>
</g>
<!-- Node12 -->
<g id="node12" class="node">
<title>Node12</title>
<g id="a_node12"><a xlink:href="uc_8c.html#ac581b74acc43801487e37a4dcfabaac3" target="_top" xlink:title=" ">
<polygon fill="white" stroke="black" points="245.5,-114.5 245.5,-133.5 304.5,-133.5 304.5,-114.5 245.5,-114.5"/>
<text text-anchor="middle" x="275" y="-121.5" font-family="Helvetica,sans-Serif" font-size="10.00">uc_shape</text>
</a>
</g>
</g>
<!-- Node1&#45;&gt;Node12 -->
<g id="edge15" class="edge">
<title>Node1&#45;&gt;Node12</title>
<path fill="none" stroke="midnightblue" d="M73.16,-172.4C116.86,-161.87 190.6,-144.1 235.54,-133.27"/>
<polygon fill="midnightblue" stroke="midnightblue" points="236.59,-136.62 245.49,-130.87 234.95,-129.81 236.59,-136.62"/>
</g>
<!-- Node3 -->
<g id="node3" class="node">
<title>Node3</title>
<g id="a_node3"><a xlink:href="conf_8c.html#ab1da6502eeb02af2fb9fa8a84515b0b6" target="_top" xlink:title=" ">
<polygon fill="white" stroke="black" points="230,-266.5 230,-285.5 320,-285.5 320,-266.5 230,-266.5"/>
<text text-anchor="middle" x="275" y="-273.5" font-family="Helvetica,sans-Serif" font-size="10.00">conf_placeholder</text>
</a>
</g>
</g>
<!-- Node2&#45;&gt;Node3 -->
<g id="edge2" class="edge">
<title>Node2&#45;&gt;Node3</title>
<path fill="none" stroke="midnightblue" d="M171.49,-228.63C187.1,-236.47 209.86,-247.72 230,-257 233.83,-258.76 237.86,-260.57 241.87,-262.34"/>
<polygon fill="midnightblue" stroke="midnightblue" points="240.5,-265.56 251.07,-266.35 243.3,-259.14 240.5,-265.56"/>
</g>
<!-- Node4 -->
<g id="node4" class="node">
<title>Node4</title>
<g id="a_node4"><a xlink:href="uc_8c.html#a45fdc2f2f3cb34515f1014bf754741bb" target="_top" xlink:title=" ">
<polygon fill="white" stroke="black" points="361.5,-190.5 361.5,-209.5 414.5,-209.5 414.5,-190.5 361.5,-190.5"/>
<text text-anchor="middle" x="388" y="-197.5" font-family="Helvetica,sans-Serif" font-size="10.00">uc_code</text>
</a>
</g>
</g>
<!-- Node2&#45;&gt;Node4 -->
<g id="edge3" class="edge">
<title>Node2&#45;&gt;Node4</title>
<path fill="none" stroke="midnightblue" d="M194.15,-215.63C238.8,-212.01 308.95,-206.32 351.2,-202.9"/>
<polygon fill="midnightblue" stroke="midnightblue" points="351.63,-206.38 361.31,-202.08 351.06,-199.4 351.63,-206.38"/>
</g>
<!-- Node5 -->
<g id="node5" class="node">
<title>Node5</title>
<g id="a_node5"><a xlink:href="uc_8c.html#ad0a3bced19585fa779b48845746583e8" target="_top" xlink:title=" ">
<polygon fill="white" stroke="black" points="247.5,-228.5 247.5,-247.5 302.5,-247.5 302.5,-228.5 247.5,-228.5"/>
<text text-anchor="middle" x="275" y="-235.5" font-family="Helvetica,sans-Serif" font-size="10.00">uc_isbell</text>
</a>
</g>
</g>
<!-- Node2&#45;&gt;Node5 -->
<g id="edge4" class="edge">
<title>Node2&#45;&gt;Node5</title>
<path fill="none" stroke="midnightblue" d="M194.31,-225.54C208.32,-227.73 223.81,-230.15 237.39,-232.27"/>
<polygon fill="midnightblue" stroke="midnightblue" points="236.92,-235.74 247.34,-233.83 238,-228.83 236.92,-235.74"/>
</g>
<!-- Node9 -->
<g id="node9" class="node">
<title>Node9</title>
<g id="a_node9"><a xlink:href="uc_8c.html#ae861c9bb1e8c19383bda8fddfacc95d3" target="_top" xlink:title=" ">
<polygon fill="white" stroke="black" points="243,-152.5 243,-171.5 307,-171.5 307,-152.5 243,-152.5"/>
<text text-anchor="middle" x="275" y="-159.5" font-family="Helvetica,sans-Serif" font-size="10.00">uc_iscomb</text>
</a>
</g>
</g>
<!-- Node2&#45;&gt;Node9 -->
<g id="edge11" class="edge">
<title>Node2&#45;&gt;Node9</title>
<path fill="none" stroke="midnightblue" d="M172.84,-209.46C192.37,-200.29 222.12,-186.34 244.3,-175.93"/>
<polygon fill="midnightblue" stroke="midnightblue" points="246.03,-178.99 253.6,-171.57 243.06,-172.65 246.03,-178.99"/>
</g>
<!-- Node11 -->
<g id="node11" class="node">
<title>Node11</title>
<g id="a_node11"><a xlink:href="regex_8c.html#a9a0d6d5f93f1eaba8b63b16903c0952d" target="_top" xlink:title=" ">
<polygon fill="white" stroke="black" points="252.5,-304.5 252.5,-323.5 297.5,-323.5 297.5,-304.5 252.5,-304.5"/>
<text text-anchor="middle" x="275" y="-311.5" font-family="Helvetica,sans-Serif" font-size="10.00">uc_len</text>
</a>
</g>
</g>
<!-- Node2&#45;&gt;Node11 -->
<g id="edge14" class="edge">
<title>Node2&#45;&gt;Node11</title>
<path fill="none" stroke="midnightblue" d="M160.19,-228.55C173.18,-244.19 200.91,-275.45 230,-295 234.02,-297.7 238.48,-300.15 242.98,-302.34"/>
<polygon fill="midnightblue" stroke="midnightblue" points="241.58,-305.54 252.14,-306.42 244.43,-299.15 241.58,-305.54"/>
</g>
<!-- Node5&#45;&gt;Node4 -->
<g id="edge6" class="edge">
<title>Node5&#45;&gt;Node4</title>
<path fill="none" stroke="midnightblue" d="M302.59,-228.9C317.35,-223.84 335.91,-217.49 351.86,-212.03"/>
<polygon fill="midnightblue" stroke="midnightblue" points="353.07,-215.32 361.39,-208.77 350.8,-208.69 353.07,-215.32"/>
</g>
<!-- Node6 -->
<g id="node6" class="node">
<title>Node6</title>
<g id="a_node6"><a xlink:href="uc_8c.html#a26b3c1840a578dd97a58069e0af2168c" target="_top" xlink:title=" ">
<polygon fill="white" stroke="black" points="466.5,-266.5 466.5,-285.5 498.5,-285.5 498.5,-266.5 466.5,-266.5"/>
<text text-anchor="middle" x="482.5" y="-273.5" font-family="Helvetica,sans-Serif" font-size="10.00">find</text>
</a>
</g>
</g>
<!-- Node5&#45;&gt;Node6 -->
<g id="edge5" class="edge">
<title>Node5&#45;&gt;Node6</title>
<path fill="none" stroke="midnightblue" d="M302.52,-247.39C308.52,-250.07 314.68,-253.28 320,-257 339.07,-270.33 334.63,-285.81 356,-295 388.88,-309.14 430.56,-297.69 456.64,-287.43"/>
<polygon fill="midnightblue" stroke="midnightblue" points="458.26,-290.54 466.14,-283.47 455.56,-284.08 458.26,-290.54"/>
</g>
<!-- Node7 -->
<g id="node7" class="node">
<title>Node7</title>
<g id="a_node7"><a xlink:href="uc_8c.html#a0f3be4d499b9b3469d03114386b386a2" target="_top" xlink:title=" ">
<polygon fill="white" stroke="black" points="361.5,-266.5 361.5,-285.5 414.5,-285.5 414.5,-266.5 361.5,-266.5"/>
<text text-anchor="middle" x="388" y="-273.5" font-family="Helvetica,sans-Serif" font-size="10.00">uc_isdw</text>
</a>
</g>
</g>
<!-- Node5&#45;&gt;Node7 -->
<g id="edge7" class="edge">
<title>Node5&#45;&gt;Node7</title>
<path fill="none" stroke="midnightblue" d="M302.59,-247.1C317.35,-252.16 335.91,-258.51 351.86,-263.97"/>
<polygon fill="midnightblue" stroke="midnightblue" points="350.8,-267.31 361.39,-267.23 353.07,-260.68 350.8,-267.31"/>
</g>
<!-- Node8 -->
<g id="node8" class="node">
<title>Node8</title>
<g id="a_node8"><a xlink:href="uc_8c.html#aef404add952e41075b8871fefaaba669" target="_top" xlink:title=" ">
<polygon fill="white" stroke="black" points="361.5,-228.5 361.5,-247.5 414.5,-247.5 414.5,-228.5 361.5,-228.5"/>
<text text-anchor="middle" x="388" y="-235.5" font-family="Helvetica,sans-Serif" font-size="10.00">uc_iszw</text>
</a>
</g>
</g>
<!-- Node5&#45;&gt;Node8 -->
<g id="edge9" class="edge">
<title>Node5&#45;&gt;Node8</title>
<path fill="none" stroke="midnightblue" d="M302.59,-238C317.07,-238 335.21,-238 350.95,-238"/>
<polygon fill="midnightblue" stroke="midnightblue" points="351.39,-241.5 361.39,-238 351.39,-234.5 351.39,-241.5"/>
</g>
<!-- Node7&#45;&gt;Node6 -->
<g id="edge8" class="edge">
<title>Node7&#45;&gt;Node6</title>
<path fill="none" stroke="midnightblue" d="M414.77,-276C427.71,-276 443.34,-276 456.22,-276"/>
<polygon fill="midnightblue" stroke="midnightblue" points="456.27,-279.5 466.27,-276 456.27,-272.5 456.27,-279.5"/>
</g>
<!-- Node8&#45;&gt;Node6 -->
<g id="edge10" class="edge">
<title>Node8&#45;&gt;Node6</title>
<path fill="none" stroke="midnightblue" d="M412.34,-247.59C425.95,-253.18 443.1,-260.23 456.92,-265.9"/>
<polygon fill="midnightblue" stroke="midnightblue" points="455.71,-269.19 466.29,-269.75 458.37,-262.71 455.71,-269.19"/>
</g>
<!-- Node9&#45;&gt;Node4 -->
<g id="edge13" class="edge">
<title>Node9&#45;&gt;Node4</title>
<path fill="none" stroke="midnightblue" d="M304.01,-171.59C318.45,-176.53 336.2,-182.61 351.58,-187.87"/>
<polygon fill="midnightblue" stroke="midnightblue" points="350.69,-191.27 361.28,-191.2 352.95,-184.65 350.69,-191.27"/>
</g>
<!-- Node10 -->
<g id="node10" class="node">
<title>Node10</title>
<g id="a_node10"><a xlink:href="uc_8c.html#af4546620f966c0c94ca5980dd2fb9a04" target="_top" xlink:title=" ">
<polygon fill="white" stroke="black" points="357,-152.5 357,-171.5 419,-171.5 419,-152.5 357,-152.5"/>
<text text-anchor="middle" x="388" y="-159.5" font-family="Helvetica,sans-Serif" font-size="10.00">uc_acomb</text>
</a>
</g>
</g>
<!-- Node9&#45;&gt;Node10 -->
<g id="edge12" class="edge">
<title>Node9&#45;&gt;Node10</title>
<path fill="none" stroke="midnightblue" d="M307.22,-162C319.46,-162 333.67,-162 346.67,-162"/>
<polygon fill="midnightblue" stroke="midnightblue" points="346.78,-165.5 356.78,-162 346.78,-158.5 346.78,-165.5"/>
</g>
<!-- Node12&#45;&gt;Node4 -->
<g id="edge18" class="edge">
<title>Node12&#45;&gt;Node4</title>
<path fill="none" stroke="midnightblue" d="M302.98,-133.6C308.83,-136.23 314.82,-139.38 320,-143 339.07,-156.33 337.93,-166.35 356,-181 357.54,-182.25 359.18,-183.48 360.86,-184.68"/>
<polygon fill="midnightblue" stroke="midnightblue" points="359.13,-187.73 369.4,-190.32 362.98,-181.89 359.13,-187.73"/>
</g>
<!-- Node12&#45;&gt;Node10 -->
<g id="edge16" class="edge">
<title>Node12&#45;&gt;Node10</title>
<path fill="none" stroke="midnightblue" d="M304.01,-133.59C317.68,-138.27 334.33,-143.97 349.12,-149.03"/>
<polygon fill="midnightblue" stroke="midnightblue" points="348.4,-152.49 359,-152.41 350.67,-145.86 348.4,-152.49"/>
</g>
<!-- Node13 -->
<g id="node13" class="node">
<title>Node13</title>
<g id="a_node13"><a xlink:href="uc_8c.html#a8b9e268743fd7af03b099072154fbb18" target="_top" xlink:title=" ">
<polygon fill="white" stroke="black" points="364,-76.5 364,-95.5 412,-95.5 412,-76.5 364,-76.5"/>
<text text-anchor="middle" x="388" y="-83.5" font-family="Helvetica,sans-Serif" font-size="10.00">uc_beg</text>
</a>
</g>
</g>
<!-- Node12&#45;&gt;Node13 -->
<g id="edge17" class="edge">
<title>Node12&#45;&gt;Node13</title>
<path fill="none" stroke="midnightblue" d="M304.01,-114.41C319.33,-109.17 338.38,-102.64 354.37,-97.17"/>
<polygon fill="midnightblue" stroke="midnightblue" points="355.54,-100.47 363.87,-93.92 353.27,-93.85 355.54,-100.47"/>
</g>
<!-- Node14 -->
<g id="node14" class="node">
<title>Node14</title>
<g id="a_node14"><a xlink:href="uc_8c.html#a5d2103c722f8e189605495695c2c7149" target="_top" xlink:title=" ">
<polygon fill="white" stroke="black" points="362.5,-38.5 362.5,-57.5 413.5,-57.5 413.5,-38.5 362.5,-38.5"/>
<text text-anchor="middle" x="388" y="-45.5" font-family="Helvetica,sans-Serif" font-size="10.00">uc_cput</text>
</a>
</g>
</g>
<!-- Node12&#45;&gt;Node14 -->
<g id="edge19" class="edge">
<title>Node12&#45;&gt;Node14</title>
<path fill="none" stroke="midnightblue" d="M288.83,-114.44C304.48,-102.88 331.82,-83 356,-67 357.92,-65.73 359.93,-64.43 361.96,-63.14"/>
<polygon fill="midnightblue" stroke="midnightblue" points="364.14,-65.91 370.78,-57.65 360.44,-59.97 364.14,-65.91"/>
</g>
<!-- Node15 -->
<g id="node15" class="node">
<title>Node15</title>
<g id="a_node15"><a xlink:href="uc_8c.html#acc1b453dfceccc257cb0f8bf9822ed01" target="_top" xlink:title=" ">
<polygon fill="white" stroke="black" points="356,-0.5 356,-19.5 420,-19.5 420,-0.5 356,-0.5"/>
<text text-anchor="middle" x="388" y="-7.5" font-family="Helvetica,sans-Serif" font-size="10.00">uc_cshape</text>
</a>
</g>
</g>
<!-- Node12&#45;&gt;Node15 -->
<g id="edge20" class="edge">
<title>Node12&#45;&gt;Node15</title>
<path fill="none" stroke="midnightblue" d="M282.62,-114.22C295.31,-95.94 324.61,-56 356,-29 357.51,-27.7 359.11,-26.44 360.77,-25.22"/>
<polygon fill="midnightblue" stroke="midnightblue" points="362.91,-28 369.27,-19.52 359.01,-22.18 362.91,-28"/>
</g>
<!-- Node18 -->
<g id="node18" class="node">
<title>Node18</title>
<g id="a_node18"><a xlink:href="uc_8c.html#a79c7c44c06c1febff5680c19667e2676" target="_top" xlink:title=" ">
<polygon fill="white" stroke="black" points="362.5,-114.5 362.5,-133.5 413.5,-133.5 413.5,-114.5 362.5,-114.5"/>
<text text-anchor="middle" x="388" y="-121.5" font-family="Helvetica,sans-Serif" font-size="10.00">uc_next</text>
</a>
</g>
</g>
<!-- Node12&#45;&gt;Node18 -->
<g id="edge24" class="edge">
<title>Node12&#45;&gt;Node18</title>
<path fill="none" stroke="midnightblue" d="M304.59,-124C319.09,-124 336.84,-124 352.15,-124"/>
<polygon fill="midnightblue" stroke="midnightblue" points="352.28,-127.5 362.28,-124 352.28,-120.5 352.28,-127.5"/>
</g>
<!-- Node16 -->
<g id="node16" class="node">
<title>Node16</title>
<g id="a_node16"><a xlink:href="uc_8c.html#a5b0fb710352596f49590c0ab690ced77" target="_top" xlink:title=" ">
<polygon fill="white" stroke="black" points="456,-19.5 456,-38.5 509,-38.5 509,-19.5 456,-19.5"/>
<text text-anchor="middle" x="482.5" y="-26.5" font-family="Helvetica,sans-Serif" font-size="10.00">can_join</text>
</a>
</g>
</g>
<!-- Node15&#45;&gt;Node16 -->
<g id="edge21" class="edge">
<title>Node15&#45;&gt;Node16</title>
<path fill="none" stroke="midnightblue" d="M420.06,-16.38C428.34,-18.08 437.36,-19.93 445.87,-21.68"/>
<polygon fill="midnightblue" stroke="midnightblue" points="445.41,-25.16 455.91,-23.74 446.82,-18.3 445.41,-25.16"/>
</g>
<!-- Node17 -->
<g id="node17" class="node">
<title>Node17</title>
<g id="a_node17"><a xlink:href="uc_8c.html#ad4c5b7208072ca00e1454e27bda0294c" target="_top" xlink:title=" ">
<polygon fill="white" stroke="black" points="545,-0.5 545,-19.5 607,-19.5 607,-0.5 545,-0.5"/>
<text text-anchor="middle" x="576" y="-7.5" font-family="Helvetica,sans-Serif" font-size="10.00">find_achar</text>
</a>
</g>
</g>
<!-- Node15&#45;&gt;Node17 -->
<g id="edge23" class="edge">
<title>Node15&#45;&gt;Node17</title>
<path fill="none" stroke="midnightblue" d="M420.13,-10C451.62,-10 500.43,-10 534.82,-10"/>
<polygon fill="midnightblue" stroke="midnightblue" points="535,-13.5 545,-10 535,-6.5 535,-13.5"/>
</g>
<!-- Node16&#45;&gt;Node17 -->
<g id="edge22" class="edge">
<title>Node16&#45;&gt;Node17</title>
<path fill="none" stroke="midnightblue" d="M509.48,-23.61C517.37,-21.97 526.25,-20.12 534.85,-18.34"/>
<polygon fill="midnightblue" stroke="midnightblue" points="535.67,-21.74 544.75,-16.28 534.25,-14.89 535.67,-21.74"/>
</g>
<!-- Node19 -->
<g id="node19" class="node">
<title>Node19</title>
<g id="a_node19"><a xlink:href="uc_8c.html#a616e24870a58b86644c34ee077faca11" target="_top" xlink:title=" ">
<polygon fill="white" stroke="black" points="458.5,-114.5 458.5,-133.5 506.5,-133.5 506.5,-114.5 458.5,-114.5"/>
<text text-anchor="middle" x="482.5" y="-121.5" font-family="Helvetica,sans-Serif" font-size="10.00">uc_end</text>
</a>
</g>
</g>
<!-- Node18&#45;&gt;Node19 -->
<g id="edge25" class="edge">
<title>Node18&#45;&gt;Node19</title>
<path fill="none" stroke="midnightblue" d="M413.79,-124C424.36,-124 436.85,-124 448.21,-124"/>
<polygon fill="midnightblue" stroke="midnightblue" points="448.23,-127.5 458.23,-124 448.23,-120.5 448.23,-127.5"/>
</g>
</g>
</svg>
