<?xml version="1.0" encoding="UTF-8" standalone="no"?>
<!DOCTYPE svg PUBLIC "-//W3C//DTD SVG 1.1//EN"
 "http://www.w3.org/Graphics/SVG/1.1/DTD/svg11.dtd">
<!-- Generated by graphviz version 2.44.1 (20200629.0846)
 -->
<!-- Title: vc_status Pages: 1 -->
<svg width="1411pt" height="522pt"
 viewBox="0.00 0.00 1411.00 522.00" xmlns="http://www.w3.org/2000/svg" xmlns:xlink="http://www.w3.org/1999/xlink">
<g id="graph0" class="graph" transform="scale(1 1) rotate(0) translate(4 518)">
<title>vc_status</title>
<polygon fill="white" stroke="transparent" points="-4,4 -4,-518 1407,-518 1407,4 -4,4"/>
<!-- Node1 -->
<g id="node1" class="node">
<title>Node1</title>
<g id="a_node1"><a xlink:title=" ">
<polygon fill="#bfbfbf" stroke="black" points="0,-209.5 0,-228.5 59,-228.5 59,-209.5 0,-209.5"/>
<text text-anchor="middle" x="29.5" y="-216.5" font-family="Helvetica,sans-Serif" font-size="10.00">vc_status</text>
</a>
</g>
</g>
<!-- Node2 -->
<g id="node2" class="node">
<title>Node2</title>
<g id="a_node2"><a xlink:href="ex_8c.html#a4b34b803f07935eef6f7f842a276c09d" target="_top" xlink:title=" ">
<polygon fill="white" stroke="black" points="106.5,-342.5 106.5,-361.5 157.5,-361.5 157.5,-342.5 106.5,-342.5"/>
<text text-anchor="middle" x="132" y="-349.5" font-family="Helvetica,sans-Serif" font-size="10.00">ex_path</text>
</a>
</g>
</g>
<!-- Node1&#45;&gt;Node2 -->
<g id="edge1" class="edge">
<title>Node1&#45;&gt;Node2</title>
<path fill="none" stroke="midnightblue" d="M34.45,-228.69C43.07,-248.96 65.2,-296.56 95,-328 97.96,-331.13 101.41,-334.06 104.97,-336.73"/>
<polygon fill="midnightblue" stroke="midnightblue" points="103.08,-339.68 113.31,-342.43 107.03,-333.9 103.08,-339.68"/>
</g>
<!-- Node3 -->
<g id="node3" class="node">
<title>Node3</title>
<g id="a_node3"><a xlink:href="lbuf_8c.html#ad0f45475ddc6eb82ecedf63ed1b914d4" target="_top" xlink:title=" ">
<polygon fill="white" stroke="black" points="207.5,-342.5 207.5,-361.5 258.5,-361.5 258.5,-342.5 207.5,-342.5"/>
<text text-anchor="middle" x="233" y="-349.5" font-family="Helvetica,sans-Serif" font-size="10.00">lbuf_get</text>
</a>
</g>
</g>
<!-- Node1&#45;&gt;Node3 -->
<g id="edge2" class="edge">
<title>Node1&#45;&gt;Node3</title>
<path fill="none" stroke="midnightblue" d="M36.5,-228.68C46.73,-244.5 69,-276.02 95,-295 126.45,-317.97 168.53,-333.68 197.72,-342.71"/>
<polygon fill="midnightblue" stroke="midnightblue" points="196.89,-346.11 207.47,-345.62 198.89,-339.4 196.89,-346.11"/>
</g>
<!-- Node4 -->
<g id="node4" class="node">
<title>Node4</title>
<g id="a_node4"><a xlink:href="lbuf_8c.html#ae74f0372b69451ac877a76505b05874f" target="_top" xlink:title=" ">
<polygon fill="white" stroke="black" points="107,-152.5 107,-171.5 157,-171.5 157,-152.5 107,-152.5"/>
<text text-anchor="middle" x="132" y="-159.5" font-family="Helvetica,sans-Serif" font-size="10.00">lbuf_len</text>
</a>
</g>
</g>
<!-- Node1&#45;&gt;Node4 -->
<g id="edge3" class="edge">
<title>Node1&#45;&gt;Node4</title>
<path fill="none" stroke="midnightblue" d="M46.28,-209.42C59.27,-201.61 78.2,-190.37 95,-181 97.75,-179.47 100.63,-177.89 103.52,-176.33"/>
<polygon fill="midnightblue" stroke="midnightblue" points="105.41,-179.29 112.6,-171.5 102.12,-173.11 105.41,-179.29"/>
</g>
<!-- Node5 -->
<g id="node5" class="node">
<title>Node5</title>
<g id="a_node5"><a xlink:href="lbuf_8c.html#a56119cc892be0598811f8f80d31a06d6" target="_top" xlink:title=" ">
<polygon fill="white" stroke="black" points="95,-57.5 95,-76.5 169,-76.5 169,-57.5 95,-57.5"/>
<text text-anchor="middle" x="132" y="-64.5" font-family="Helvetica,sans-Serif" font-size="10.00">lbuf_modified</text>
</a>
</g>
</g>
<!-- Node1&#45;&gt;Node5 -->
<g id="edge4" class="edge">
<title>Node1&#45;&gt;Node5</title>
<path fill="none" stroke="midnightblue" d="M36.79,-209.49C53.21,-184.65 97.63,-117.47 119.08,-85.02"/>
<polygon fill="midnightblue" stroke="midnightblue" points="122.12,-86.78 124.72,-76.5 116.28,-82.92 122.12,-86.78"/>
</g>
<!-- Node7 -->
<g id="node7" class="node">
<title>Node7</title>
<g id="a_node7"><a xlink:href="ren_8c.html#aa37d51760ec8c06d251bfb9f4a134f7a" target="_top" xlink:title=" ">
<polygon fill="white" stroke="black" points="101,-190.5 101,-209.5 163,-209.5 163,-190.5 101,-190.5"/>
<text text-anchor="middle" x="132" y="-197.5" font-family="Helvetica,sans-Serif" font-size="10.00">ren_cursor</text>
</a>
</g>
</g>
<!-- Node1&#45;&gt;Node7 -->
<g id="edge6" class="edge">
<title>Node1&#45;&gt;Node7</title>
<path fill="none" stroke="midnightblue" d="M59.03,-213.61C68.97,-211.73 80.31,-209.58 91.01,-207.56"/>
<polygon fill="midnightblue" stroke="midnightblue" points="91.82,-210.97 101,-205.67 90.52,-204.09 91.82,-210.97"/>
</g>
<!-- Node44 -->
<g id="node44" class="node">
<title>Node44</title>
<g id="a_node44"><a xlink:href="vi_8c.html#a399ec531a29a3e8915287df4c855acf6" target="_top" xlink:title=" ">
<polygon fill="white" stroke="black" points="102.5,-266.5 102.5,-285.5 161.5,-285.5 161.5,-266.5 102.5,-266.5"/>
<text text-anchor="middle" x="132" y="-273.5" font-family="Helvetica,sans-Serif" font-size="10.00">vi_off2col</text>
</a>
</g>
</g>
<!-- Node1&#45;&gt;Node44 -->
<g id="edge57" class="edge">
<title>Node1&#45;&gt;Node44</title>
<path fill="none" stroke="midnightblue" d="M47.55,-228.67C63.38,-237.65 87.17,-251.14 105.31,-261.43"/>
<polygon fill="midnightblue" stroke="midnightblue" points="103.78,-264.58 114.2,-266.47 107.23,-258.5 103.78,-264.58"/>
</g>
<!-- Node6 -->
<g id="node6" class="node">
<title>Node6</title>
<g id="a_node6"><a xlink:href="lbuf_8c.html#a0d1b3b3730f77fc08811b3e5f9e9ddae" target="_top" xlink:title=" ">
<polygon fill="white" stroke="black" points="206.5,-0.5 206.5,-19.5 259.5,-19.5 259.5,-0.5 206.5,-0.5"/>
<text text-anchor="middle" x="233" y="-7.5" font-family="Helvetica,sans-Serif" font-size="10.00">lbuf_seq</text>
</a>
</g>
</g>
<!-- Node5&#45;&gt;Node6 -->
<g id="edge5" class="edge">
<title>Node5&#45;&gt;Node6</title>
<path fill="none" stroke="midnightblue" d="M149.79,-57.33C165.39,-48.35 188.83,-34.86 206.69,-24.57"/>
<polygon fill="midnightblue" stroke="midnightblue" points="208.53,-27.55 215.45,-19.53 205.04,-21.48 208.53,-27.55"/>
</g>
<!-- Node8 -->
<g id="node8" class="node">
<title>Node8</title>
<g id="a_node8"><a xlink:href="ren_8c.html#ae6c30ee4fcc67460391eaa8adc182241" target="_top" xlink:title=" ">
<polygon fill="white" stroke="black" points="205,-228.5 205,-247.5 261,-247.5 261,-228.5 205,-228.5"/>
<text text-anchor="middle" x="233" y="-235.5" font-family="Helvetica,sans-Serif" font-size="10.00">pos_next</text>
</a>
</g>
</g>
<!-- Node7&#45;&gt;Node8 -->
<g id="edge7" class="edge">
<title>Node7&#45;&gt;Node8</title>
<path fill="none" stroke="midnightblue" d="M157.98,-209.59C169.94,-214.18 184.45,-219.75 197.45,-224.74"/>
<polygon fill="midnightblue" stroke="midnightblue" points="196.44,-228.1 207.03,-228.41 198.94,-221.56 196.44,-228.1"/>
</g>
<!-- Node9 -->
<g id="node9" class="node">
<title>Node9</title>
<g id="a_node9"><a xlink:href="ren_8c.html#af4201a7e1018cbf68ff5e009005ff8bd" target="_top" xlink:title=" ">
<polygon fill="white" stroke="black" points="303.5,-76.5 303.5,-95.5 359.5,-95.5 359.5,-76.5 303.5,-76.5"/>
<text text-anchor="middle" x="331.5" y="-83.5" font-family="Helvetica,sans-Serif" font-size="10.00">pos_prev</text>
</a>
</g>
</g>
<!-- Node7&#45;&gt;Node9 -->
<g id="edge8" class="edge">
<title>Node7&#45;&gt;Node9</title>
<path fill="none" stroke="midnightblue" d="M156.6,-190.36C161.09,-187.79 165.48,-184.67 169,-181 194.85,-154.01 175.01,-127.3 205,-105 230.21,-86.25 266.27,-82.5 293.27,-82.84"/>
<polygon fill="midnightblue" stroke="midnightblue" points="293.39,-86.35 303.5,-83.18 293.62,-79.35 293.39,-86.35"/>
</g>
<!-- Node10 -->
<g id="node10" class="node">
<title>Node10</title>
<g id="a_node10"><a xlink:href="ren_8c.html#a6fb670084750c8934454722b630e0caa" target="_top" xlink:title=" ">
<polygon fill="white" stroke="black" points="209.5,-114.5 209.5,-133.5 256.5,-133.5 256.5,-114.5 209.5,-114.5"/>
<text text-anchor="middle" x="233" y="-121.5" font-family="Helvetica,sans-Serif" font-size="10.00">ren_off</text>
</a>
</g>
</g>
<!-- Node7&#45;&gt;Node10 -->
<g id="edge9" class="edge">
<title>Node7&#45;&gt;Node10</title>
<path fill="none" stroke="midnightblue" d="M153.34,-190.42C158.6,-187.64 164.15,-184.42 169,-181 186.74,-168.5 188.89,-162.54 205,-148 207.74,-145.53 210.64,-142.93 213.49,-140.39"/>
<polygon fill="midnightblue" stroke="midnightblue" points="216.04,-142.8 221.19,-133.54 211.39,-137.57 216.04,-142.8"/>
</g>
<!-- Node11 -->
<g id="node11" class="node">
<title>Node11</title>
<g id="a_node11"><a xlink:href="ren_8c.html#af6e197881adec94ce251c84adf3dd495" target="_top" xlink:title=" ">
<polygon fill="white" stroke="black" points="297,-228.5 297,-247.5 366,-247.5 366,-228.5 297,-228.5"/>
<text text-anchor="middle" x="331.5" y="-235.5" font-family="Helvetica,sans-Serif" font-size="10.00">ren_position</text>
</a>
</g>
</g>
<!-- Node7&#45;&gt;Node11 -->
<g id="edge52" class="edge">
<title>Node7&#45;&gt;Node11</title>
<path fill="none" stroke="midnightblue" d="M141.1,-209.59C153.31,-223.22 177.9,-247.57 205,-257 235.87,-267.74 273.09,-259.66 298.95,-250.96"/>
<polygon fill="midnightblue" stroke="midnightblue" points="300.37,-254.17 308.6,-247.5 298.01,-247.58 300.37,-254.17"/>
</g>
<!-- Node39 -->
<g id="node39" class="node">
<title>Node39</title>
<g id="a_node39"><a xlink:href="uc_8c.html#a8afd7835259109c3ec7bb684d4a1f67f" target="_top" xlink:title=" ">
<polygon fill="white" stroke="black" points="642.5,-114.5 642.5,-133.5 692.5,-133.5 692.5,-114.5 642.5,-114.5"/>
<text text-anchor="middle" x="667.5" y="-121.5" font-family="Helvetica,sans-Serif" font-size="10.00">uc_slen</text>
</a>
</g>
</g>
<!-- Node7&#45;&gt;Node39 -->
<g id="edge56" class="edge">
<title>Node7&#45;&gt;Node39</title>
<path fill="none" stroke="midnightblue" d="M157.27,-190.41C161.6,-187.85 165.76,-184.74 169,-181 200.2,-144.98 169.78,-112.1 205,-80 247.55,-41.23 272.94,-48 330.5,-48 330.5,-48 330.5,-48 434,-48 512.4,-48 598.64,-87.53 640.64,-109.57"/>
<polygon fill="midnightblue" stroke="midnightblue" points="639.15,-112.74 649.62,-114.37 642.46,-106.57 639.15,-112.74"/>
</g>
<!-- Node42 -->
<g id="node42" class="node">
<title>Node42</title>
<g id="a_node42"><a xlink:href="uc_8c.html#a45fdc2f2f3cb34515f1014bf754741bb" target="_top" xlink:title=" ">
<polygon fill="white" stroke="black" points="518.5,-190.5 518.5,-209.5 571.5,-209.5 571.5,-190.5 518.5,-190.5"/>
<text text-anchor="middle" x="545" y="-197.5" font-family="Helvetica,sans-Serif" font-size="10.00">uc_code</text>
</a>
</g>
</g>
<!-- Node7&#45;&gt;Node42 -->
<g id="edge55" class="edge">
<title>Node7&#45;&gt;Node42</title>
<path fill="none" stroke="midnightblue" d="M163.22,-200C237.47,-200 428.57,-200 508.26,-200"/>
<polygon fill="midnightblue" stroke="midnightblue" points="508.3,-203.5 518.3,-200 508.3,-196.5 508.3,-203.5"/>
</g>
<!-- Node43 -->
<g id="node43" class="node">
<title>Node43</title>
<g id="a_node43"><a xlink:href="uc_8c.html#a2fecd1fc98475ece5f529da3315a9553" target="_top" xlink:title=" ">
<polygon fill="white" stroke="black" points="308.5,-152.5 308.5,-171.5 354.5,-171.5 354.5,-152.5 308.5,-152.5"/>
<text text-anchor="middle" x="331.5" y="-159.5" font-family="Helvetica,sans-Serif" font-size="10.00">uc_chr</text>
</a>
</g>
</g>
<!-- Node7&#45;&gt;Node43 -->
<g id="edge53" class="edge">
<title>Node7&#45;&gt;Node43</title>
<path fill="none" stroke="midnightblue" d="M163.12,-194.12C176.02,-191.61 191.25,-188.65 205,-186 236.64,-179.9 272.78,-173 298.12,-168.16"/>
<polygon fill="midnightblue" stroke="midnightblue" points="299.11,-171.54 308.28,-166.23 297.8,-164.66 299.11,-171.54"/>
</g>
<!-- Node10&#45;&gt;Node9 -->
<g id="edge10" class="edge">
<title>Node10&#45;&gt;Node9</title>
<path fill="none" stroke="midnightblue" d="M256.87,-114.99C268.68,-110.34 283.34,-104.57 296.45,-99.41"/>
<polygon fill="midnightblue" stroke="midnightblue" points="298.09,-102.53 306.11,-95.61 295.52,-96.01 298.09,-102.53"/>
</g>
<!-- Node10&#45;&gt;Node11 -->
<g id="edge11" class="edge">
<title>Node10&#45;&gt;Node11</title>
<path fill="none" stroke="midnightblue" d="M242.23,-133.72C258.54,-152.99 295.16,-196.25 315.74,-220.57"/>
<polygon fill="midnightblue" stroke="midnightblue" points="313.16,-222.93 322.29,-228.31 318.5,-218.41 313.16,-222.93"/>
</g>
<!-- Node10&#45;&gt;Node39 -->
<g id="edge51" class="edge">
<title>Node10&#45;&gt;Node39</title>
<path fill="none" stroke="midnightblue" d="M256.64,-124C327.82,-124 547.31,-124 632.35,-124"/>
<polygon fill="midnightblue" stroke="midnightblue" points="632.5,-127.5 642.5,-124 632.5,-120.5 632.5,-127.5"/>
</g>
<!-- Node12 -->
<g id="node12" class="node">
<title>Node12</title>
<g id="a_node12"><a xlink:href="dir_8c.html#a8703d559ca9c640b8b89c589cf75ac06" target="_top" xlink:title=" ">
<polygon fill="white" stroke="black" points="402,-342.5 402,-361.5 464,-361.5 464,-342.5 402,-342.5"/>
<text text-anchor="middle" x="433" y="-349.5" font-family="Helvetica,sans-Serif" font-size="10.00">dir_reorder</text>
</a>
</g>
</g>
<!-- Node11&#45;&gt;Node12 -->
<g id="edge12" class="edge">
<title>Node11&#45;&gt;Node12</title>
<path fill="none" stroke="midnightblue" d="M338.73,-247.53C350.16,-264.63 375.71,-301.25 402,-328 404.68,-330.73 407.67,-333.44 410.69,-336"/>
<polygon fill="midnightblue" stroke="midnightblue" points="408.59,-338.81 418.58,-342.36 412.99,-333.36 408.59,-338.81"/>
</g>
<!-- Node38 -->
<g id="node38" class="node">
<title>Node38</title>
<g id="a_node38"><a xlink:href="uc_8c.html#a1764c4d0fa27bca336e5ca300ad969e7" target="_top" xlink:title=" ">
<polygon fill="white" stroke="black" points="518.5,-304.5 518.5,-323.5 571.5,-323.5 571.5,-304.5 518.5,-304.5"/>
<text text-anchor="middle" x="545" y="-311.5" font-family="Helvetica,sans-Serif" font-size="10.00">uc_chop</text>
</a>
</g>
</g>
<!-- Node11&#45;&gt;Node38 -->
<g id="edge50" class="edge">
<title>Node11&#45;&gt;Node38</title>
<path fill="none" stroke="midnightblue" d="M359.29,-247.63C397.26,-261.27 466.79,-286.26 508.86,-301.37"/>
<polygon fill="midnightblue" stroke="midnightblue" points="507.83,-304.72 518.42,-304.81 510.19,-298.13 507.83,-304.72"/>
</g>
<!-- Node40 -->
<g id="node40" class="node">
<title>Node40</title>
<g id="a_node40"><a xlink:href="ren_8c.html#a319a71758607f19d2beedd2bd4d3b369" target="_top" xlink:title=" ">
<polygon fill="white" stroke="black" points="405,-228.5 405,-247.5 461,-247.5 461,-228.5 405,-228.5"/>
<text text-anchor="middle" x="433" y="-235.5" font-family="Helvetica,sans-Serif" font-size="10.00">ren_cwid</text>
</a>
</g>
</g>
<!-- Node11&#45;&gt;Node40 -->
<g id="edge47" class="edge">
<title>Node11&#45;&gt;Node40</title>
<path fill="none" stroke="midnightblue" d="M366.19,-238C375.36,-238 385.35,-238 394.72,-238"/>
<polygon fill="midnightblue" stroke="midnightblue" points="394.94,-241.5 404.94,-238 394.94,-234.5 394.94,-241.5"/>
</g>
<!-- Node13 -->
<g id="node13" class="node">
<title>Node13</title>
<g id="a_node13"><a xlink:href="dir_8c.html#aba0a553010578626d7148da2b6551321" target="_top" xlink:title=" ">
<polygon fill="white" stroke="black" points="512.5,-342.5 512.5,-361.5 577.5,-361.5 577.5,-342.5 512.5,-342.5"/>
<text text-anchor="middle" x="545" y="-349.5" font-family="Helvetica,sans-Serif" font-size="10.00">dir_context</text>
</a>
</g>
</g>
<!-- Node12&#45;&gt;Node13 -->
<g id="edge13" class="edge">
<title>Node12&#45;&gt;Node13</title>
<path fill="none" stroke="midnightblue" d="M464.06,-352C475.79,-352 489.43,-352 502.1,-352"/>
<polygon fill="midnightblue" stroke="midnightblue" points="502.44,-355.5 512.44,-352 502.44,-348.5 502.44,-355.5"/>
</g>
<!-- Node26 -->
<g id="node26" class="node">
<title>Node26</title>
<g id="a_node26"><a xlink:href="dir_8c.html#a8dbcb1db32888e71e2702f7173e7cba4" target="_top" xlink:title=" ">
<polygon fill="white" stroke="black" points="523.5,-380.5 523.5,-399.5 566.5,-399.5 566.5,-380.5 523.5,-380.5"/>
<text text-anchor="middle" x="545" y="-387.5" font-family="Helvetica,sans-Serif" font-size="10.00">dir_fix</text>
</a>
</g>
</g>
<!-- Node12&#45;&gt;Node26 -->
<g id="edge29" class="edge">
<title>Node12&#45;&gt;Node26</title>
<path fill="none" stroke="midnightblue" d="M461.76,-361.59C477.57,-367.05 497.4,-373.9 513.63,-379.51"/>
<polygon fill="midnightblue" stroke="midnightblue" points="512.6,-382.86 523.2,-382.81 514.89,-376.24 512.6,-382.86"/>
</g>
<!-- Node12&#45;&gt;Node38 -->
<g id="edge43" class="edge">
<title>Node12&#45;&gt;Node38</title>
<path fill="none" stroke="midnightblue" d="M461.76,-342.41C475.96,-337.51 493.4,-331.48 508.56,-326.24"/>
<polygon fill="midnightblue" stroke="midnightblue" points="509.83,-329.51 518.14,-322.93 507.55,-322.89 509.83,-329.51"/>
</g>
<!-- Node14 -->
<g id="node14" class="node">
<title>Node14</title>
<g id="a_node14"><a xlink:href="conf_8c.html#a9e1bc5ed600c151c51d8e2342454e07c" target="_top" xlink:title=" ">
<polygon fill="white" stroke="black" points="626,-304.5 626,-323.5 709,-323.5 709,-304.5 626,-304.5"/>
<text text-anchor="middle" x="667.5" y="-311.5" font-family="Helvetica,sans-Serif" font-size="10.00">conf_dircontext</text>
</a>
</g>
</g>
<!-- Node13&#45;&gt;Node14 -->
<g id="edge14" class="edge">
<title>Node13&#45;&gt;Node14</title>
<path fill="none" stroke="midnightblue" d="M576.41,-342.41C591.53,-337.64 610.02,-331.81 626.3,-326.68"/>
<polygon fill="midnightblue" stroke="midnightblue" points="627.62,-329.93 636.1,-323.59 625.51,-323.26 627.62,-329.93"/>
</g>
<!-- Node15 -->
<g id="node15" class="node">
<title>Node15</title>
<g id="a_node15"><a xlink:href="rset_8c.html#a389ec5abca88adc048a058744f2373eb" target="_top" xlink:title=" ">
<polygon fill="white" stroke="black" points="754.5,-266.5 754.5,-285.5 808.5,-285.5 808.5,-266.5 754.5,-266.5"/>
<text text-anchor="middle" x="781.5" y="-273.5" font-family="Helvetica,sans-Serif" font-size="10.00">rset_find</text>
</a>
</g>
</g>
<!-- Node13&#45;&gt;Node15 -->
<g id="edge15" class="edge">
<title>Node13&#45;&gt;Node15</title>
<path fill="none" stroke="midnightblue" d="M577.52,-354.5C611.74,-355.85 667.09,-353.98 709,-333 729.8,-322.58 726.51,-309.11 745,-295 746.85,-293.59 748.82,-292.22 750.85,-290.91"/>
<polygon fill="midnightblue" stroke="midnightblue" points="753.06,-293.67 759.91,-285.58 749.51,-287.64 753.06,-293.67"/>
</g>
<!-- Node16 -->
<g id="node16" class="node">
<title>Node16</title>
<g id="a_node16"><a xlink:href="regex_8c.html#aa085ccd05ec25e3f8053850aebc50fe3" target="_top" xlink:title=" ">
<polygon fill="white" stroke="black" points="863.5,-266.5 863.5,-285.5 914.5,-285.5 914.5,-266.5 863.5,-266.5"/>
<text text-anchor="middle" x="889" y="-273.5" font-family="Helvetica,sans-Serif" font-size="10.00">regexec</text>
</a>
</g>
</g>
<!-- Node15&#45;&gt;Node16 -->
<g id="edge16" class="edge">
<title>Node15&#45;&gt;Node16</title>
<path fill="none" stroke="midnightblue" d="M808.58,-276C822.03,-276 838.63,-276 853.16,-276"/>
<polygon fill="midnightblue" stroke="midnightblue" points="853.31,-279.5 863.31,-276 853.31,-272.5 853.31,-279.5"/>
</g>
<!-- Node17 -->
<g id="node17" class="node">
<title>Node17</title>
<g id="a_node17"><a xlink:href="regex_8c.html#aa5925e49bd18112bb37421dbde29162a" target="_top" xlink:title=" ">
<polygon fill="white" stroke="black" points="960,-199.5 960,-218.5 1031,-218.5 1031,-199.5 960,-199.5"/>
<text text-anchor="middle" x="995.5" y="-206.5" font-family="Helvetica,sans-Serif" font-size="10.00">re_recmatch</text>
</a>
</g>
</g>
<!-- Node16&#45;&gt;Node17 -->
<g id="edge17" class="edge">
<title>Node16&#45;&gt;Node17</title>
<path fill="none" stroke="midnightblue" d="M904.97,-266.4C922.2,-255.36 950.71,-237.08 970.92,-224.12"/>
<polygon fill="midnightblue" stroke="midnightblue" points="973.03,-226.93 979.56,-218.58 969.25,-221.03 973.03,-226.93"/>
</g>
<!-- Node23 -->
<g id="node23" class="node">
<title>Node23</title>
<g id="a_node23"><a xlink:href="regex_8c.html#a9a0d6d5f93f1eaba8b63b16903c0952d" target="_top" xlink:title=" ">
<polygon fill="white" stroke="black" points="1356.5,-251.5 1356.5,-270.5 1401.5,-270.5 1401.5,-251.5 1356.5,-251.5"/>
<text text-anchor="middle" x="1379" y="-258.5" font-family="Helvetica,sans-Serif" font-size="10.00">uc_len</text>
</a>
</g>
</g>
<!-- Node16&#45;&gt;Node23 -->
<g id="edge28" class="edge">
<title>Node16&#45;&gt;Node23</title>
<path fill="none" stroke="midnightblue" d="M914.59,-280.71C951.92,-287.44 1025.19,-299 1088,-299 1088,-299 1088,-299 1185,-299 1242.75,-299 1308.42,-282.42 1346.34,-271.16"/>
<polygon fill="midnightblue" stroke="midnightblue" points="1347.73,-274.4 1356.28,-268.15 1345.69,-267.7 1347.73,-274.4"/>
</g>
<!-- Node18 -->
<g id="node18" class="node">
<title>Node18</title>
<g id="a_node18"><a xlink:href="regex_8c.html#a8e35614ddf21d405773327a52a95a73d" target="_top" xlink:title=" ">
<polygon fill="white" stroke="black" points="1067,-193.5 1067,-212.5 1111,-212.5 1111,-193.5 1067,-193.5"/>
<text text-anchor="middle" x="1089" y="-200.5" font-family="Helvetica,sans-Serif" font-size="10.00">re_rec</text>
</a>
</g>
</g>
<!-- Node17&#45;&gt;Node18 -->
<g id="edge18" class="edge">
<title>Node17&#45;&gt;Node18</title>
<path fill="none" stroke="midnightblue" d="M1031.09,-206.73C1039.56,-206.18 1048.57,-205.59 1056.87,-205.04"/>
<polygon fill="midnightblue" stroke="midnightblue" points="1057.15,-208.53 1066.9,-204.38 1056.69,-201.55 1057.15,-208.53"/>
</g>
<!-- Node19 -->
<g id="node19" class="node">
<title>Node19</title>
<g id="a_node19"><a xlink:href="regex_8c.html#a24fd1fc7457ff4f03fb384f7170ac395" target="_top" xlink:title=" ">
<polygon fill="white" stroke="black" points="1147,-181.5 1147,-200.5 1221,-200.5 1221,-181.5 1147,-181.5"/>
<text text-anchor="middle" x="1184" y="-188.5" font-family="Helvetica,sans-Serif" font-size="10.00">ratom_match</text>
</a>
</g>
</g>
<!-- Node18&#45;&gt;Node19 -->
<g id="edge19" class="edge">
<title>Node18&#45;&gt;Node19</title>
<path fill="none" stroke="midnightblue" d="M1111.1,-200.28C1118.73,-199.29 1127.68,-198.14 1136.63,-196.98"/>
<polygon fill="midnightblue" stroke="midnightblue" points="1137.18,-200.44 1146.65,-195.69 1136.28,-193.5 1137.18,-200.44"/>
</g>
<!-- Node20 -->
<g id="node20" class="node">
<title>Node20</title>
<g id="a_node20"><a xlink:href="regex_8c.html#aae17ed73e84075718fb04d131d6ca779" target="_top" xlink:title=" ">
<polygon fill="white" stroke="black" points="1257,-213.5 1257,-232.5 1319,-232.5 1319,-213.5 1257,-213.5"/>
<text text-anchor="middle" x="1288" y="-220.5" font-family="Helvetica,sans-Serif" font-size="10.00">brk_match</text>
</a>
</g>
</g>
<!-- Node19&#45;&gt;Node20 -->
<g id="edge20" class="edge">
<title>Node19&#45;&gt;Node20</title>
<path fill="none" stroke="midnightblue" d="M1215.33,-200.51C1225.3,-203.64 1236.53,-207.17 1247.1,-210.48"/>
<polygon fill="midnightblue" stroke="midnightblue" points="1246.38,-213.92 1256.97,-213.58 1248.47,-207.24 1246.38,-213.92"/>
</g>
<!-- Node22 -->
<g id="node22" class="node">
<title>Node22</title>
<g id="a_node22"><a xlink:href="regex_8c.html#aaf73cdb88048e7f9fd588eb8d5aeb5a3" target="_top" xlink:title=" ">
<polygon fill="white" stroke="black" points="1355,-175.5 1355,-194.5 1403,-194.5 1403,-175.5 1355,-175.5"/>
<text text-anchor="middle" x="1379" y="-182.5" font-family="Helvetica,sans-Serif" font-size="10.00">uc_dec</text>
</a>
</g>
</g>
<!-- Node19&#45;&gt;Node22 -->
<g id="edge26" class="edge">
<title>Node19&#45;&gt;Node22</title>
<path fill="none" stroke="midnightblue" d="M1221.3,-189.87C1256.83,-188.77 1310.48,-187.1 1344.87,-186.03"/>
<polygon fill="midnightblue" stroke="midnightblue" points="1345,-189.53 1354.89,-185.72 1344.78,-182.53 1345,-189.53"/>
</g>
<!-- Node19&#45;&gt;Node23 -->
<g id="edge27" class="edge">
<title>Node19&#45;&gt;Node23</title>
<path fill="none" stroke="midnightblue" d="M1195.28,-200.67C1208.48,-212.47 1232.59,-232.08 1257,-242 1285.79,-253.7 1321.13,-258.23 1346.17,-259.97"/>
<polygon fill="midnightblue" stroke="midnightblue" points="1346.04,-263.47 1356.22,-260.56 1346.44,-256.48 1346.04,-263.47"/>
</g>
<!-- Node24 -->
<g id="node24" class="node">
<title>Node24</title>
<g id="a_node24"><a xlink:href="regex_8c.html#a35ad3fd0dbb795e6f30404ce86a7be5b" target="_top" xlink:title=" ">
<polygon fill="white" stroke="black" points="1265.5,-137.5 1265.5,-156.5 1310.5,-156.5 1310.5,-137.5 1265.5,-137.5"/>
<text text-anchor="middle" x="1288" y="-144.5" font-family="Helvetica,sans-Serif" font-size="10.00">isword</text>
</a>
</g>
</g>
<!-- Node19&#45;&gt;Node24 -->
<g id="edge24" class="edge">
<title>Node19&#45;&gt;Node24</title>
<path fill="none" stroke="midnightblue" d="M1207.13,-181.45C1221.4,-175.3 1240.16,-167.21 1255.91,-160.41"/>
<polygon fill="midnightblue" stroke="midnightblue" points="1257.47,-163.55 1265.26,-156.38 1254.69,-157.12 1257.47,-163.55"/>
</g>
<!-- Node25 -->
<g id="node25" class="node">
<title>Node25</title>
<g id="a_node25"><a xlink:href="regex_8c.html#ade3e10606e6e8866e6151fe8440d6101" target="_top" xlink:title=" ">
<polygon fill="white" stroke="black" points="1264,-99.5 1264,-118.5 1312,-118.5 1312,-99.5 1264,-99.5"/>
<text text-anchor="middle" x="1288" y="-106.5" font-family="Helvetica,sans-Serif" font-size="10.00">uc_beg</text>
</a>
</g>
</g>
<!-- Node19&#45;&gt;Node25 -->
<g id="edge25" class="edge">
<title>Node19&#45;&gt;Node25</title>
<path fill="none" stroke="midnightblue" d="M1195.3,-181.07C1208.91,-168.19 1233.85,-145.3 1257,-128 1258.63,-126.78 1260.34,-125.56 1262.08,-124.36"/>
<polygon fill="midnightblue" stroke="midnightblue" points="1264.38,-127.03 1270.81,-118.61 1260.54,-121.19 1264.38,-127.03"/>
</g>
<!-- Node21 -->
<g id="node21" class="node">
<title>Node21</title>
<g id="a_node21"><a xlink:href="regex_8c.html#acc18ff8d2687611a9e221b3329b02413" target="_top" xlink:title=" ">
<polygon fill="white" stroke="black" points="1355,-213.5 1355,-232.5 1403,-232.5 1403,-213.5 1355,-213.5"/>
<text text-anchor="middle" x="1379" y="-220.5" font-family="Helvetica,sans-Serif" font-size="10.00">brk_len</text>
</a>
</g>
</g>
<!-- Node20&#45;&gt;Node21 -->
<g id="edge21" class="edge">
<title>Node20&#45;&gt;Node21</title>
<path fill="none" stroke="midnightblue" d="M1319.13,-223C1327.36,-223 1336.32,-223 1344.71,-223"/>
<polygon fill="midnightblue" stroke="midnightblue" points="1344.94,-226.5 1354.94,-223 1344.94,-219.5 1344.94,-226.5"/>
</g>
<!-- Node20&#45;&gt;Node22 -->
<g id="edge22" class="edge">
<title>Node20&#45;&gt;Node22</title>
<path fill="none" stroke="midnightblue" d="M1311.46,-213.41C1322,-208.91 1334.75,-203.47 1346.25,-198.56"/>
<polygon fill="midnightblue" stroke="midnightblue" points="1347.73,-201.73 1355.55,-194.59 1344.98,-195.29 1347.73,-201.73"/>
</g>
<!-- Node20&#45;&gt;Node23 -->
<g id="edge23" class="edge">
<title>Node20&#45;&gt;Node23</title>
<path fill="none" stroke="midnightblue" d="M1311.46,-232.59C1322.24,-237.19 1335.33,-242.78 1347.04,-247.78"/>
<polygon fill="midnightblue" stroke="midnightblue" points="1345.9,-251.1 1356.47,-251.81 1348.65,-244.66 1345.9,-251.1"/>
</g>
<!-- Node27 -->
<g id="node27" class="node">
<title>Node27</title>
<g id="a_node27"><a xlink:href="dir_8c.html#a3b2f132ebfd084295e89aa35eff56ff4" target="_top" xlink:title=" ">
<polygon fill="white" stroke="black" points="638,-380.5 638,-399.5 697,-399.5 697,-380.5 638,-380.5"/>
<text text-anchor="middle" x="667.5" y="-387.5" font-family="Helvetica,sans-Serif" font-size="10.00">dir_match</text>
</a>
</g>
</g>
<!-- Node26&#45;&gt;Node27 -->
<g id="edge30" class="edge">
<title>Node26&#45;&gt;Node27</title>
<path fill="none" stroke="midnightblue" d="M566.71,-390C583.45,-390 607.46,-390 627.74,-390"/>
<polygon fill="midnightblue" stroke="midnightblue" points="627.95,-393.5 637.95,-390 627.95,-386.5 627.95,-393.5"/>
</g>
<!-- Node37 -->
<g id="node37" class="node">
<title>Node37</title>
<g id="a_node37"><a xlink:href="dir_8c.html#a83ed34b9263550e2ca9b15cc02294a6b" target="_top" xlink:title=" ">
<polygon fill="white" stroke="black" points="635,-418.5 635,-437.5 700,-437.5 700,-418.5 635,-418.5"/>
<text text-anchor="middle" x="667.5" y="-425.5" font-family="Helvetica,sans-Serif" font-size="10.00">dir_reverse</text>
</a>
</g>
</g>
<!-- Node26&#45;&gt;Node37 -->
<g id="edge42" class="edge">
<title>Node26&#45;&gt;Node37</title>
<path fill="none" stroke="midnightblue" d="M566.71,-396.53C583.06,-401.69 606.36,-409.04 626.34,-415.34"/>
<polygon fill="midnightblue" stroke="midnightblue" points="625.54,-418.75 636.13,-418.42 627.64,-412.08 625.54,-418.75"/>
</g>
<!-- Node27&#45;&gt;Node15 -->
<g id="edge32" class="edge">
<title>Node27&#45;&gt;Node15</title>
<path fill="none" stroke="midnightblue" d="M689.9,-380.31C696.6,-376.53 703.64,-371.73 709,-366 733.18,-340.17 720.26,-320.29 745,-295 746.24,-293.73 747.59,-292.52 749.01,-291.38"/>
<polygon fill="midnightblue" stroke="midnightblue" points="751.33,-294.04 757.67,-285.55 747.42,-288.23 751.33,-294.04"/>
</g>
<!-- Node28 -->
<g id="node28" class="node">
<title>Node28</title>
<g id="a_node28"><a xlink:href="conf_8c.html#a3efe6ef9cd3bd043b3df1653265409f2" target="_top" xlink:title=" ">
<polygon fill="white" stroke="black" points="745,-342.5 745,-361.5 818,-361.5 818,-342.5 745,-342.5"/>
<text text-anchor="middle" x="781.5" y="-349.5" font-family="Helvetica,sans-Serif" font-size="10.00">conf_dirmark</text>
</a>
</g>
</g>
<!-- Node27&#45;&gt;Node28 -->
<g id="edge31" class="edge">
<title>Node27&#45;&gt;Node28</title>
<path fill="none" stroke="midnightblue" d="M696.76,-380.41C710.69,-375.69 727.68,-369.92 742.71,-364.82"/>
<polygon fill="midnightblue" stroke="midnightblue" points="743.9,-368.11 752.25,-361.59 741.65,-361.48 743.9,-368.11"/>
</g>
<!-- Node29 -->
<g id="node29" class="node">
<title>Node29</title>
<g id="a_node29"><a xlink:href="sbuf_8c.html#a4e56760893d5a6797626743840c9adf2" target="_top" xlink:title=" ">
<polygon fill="white" stroke="black" points="754.5,-380.5 754.5,-399.5 808.5,-399.5 808.5,-380.5 754.5,-380.5"/>
<text text-anchor="middle" x="781.5" y="-387.5" font-family="Helvetica,sans-Serif" font-size="10.00">sbuf_buf</text>
</a>
</g>
</g>
<!-- Node27&#45;&gt;Node29 -->
<g id="edge33" class="edge">
<title>Node27&#45;&gt;Node29</title>
<path fill="none" stroke="midnightblue" d="M697.05,-390C711.38,-390 728.88,-390 744.15,-390"/>
<polygon fill="midnightblue" stroke="midnightblue" points="744.3,-393.5 754.3,-390 744.3,-386.5 744.3,-393.5"/>
</g>
<!-- Node31 -->
<g id="node31" class="node">
<title>Node31</title>
<g id="a_node31"><a xlink:href="sbuf_8c.html#a8c1a89868b1999663effb78b4f3fab32" target="_top" xlink:title=" ">
<polygon fill="white" stroke="black" points="753,-456.5 753,-475.5 810,-475.5 810,-456.5 753,-456.5"/>
<text text-anchor="middle" x="781.5" y="-463.5" font-family="Helvetica,sans-Serif" font-size="10.00">sbuf_free</text>
</a>
</g>
</g>
<!-- Node27&#45;&gt;Node31 -->
<g id="edge35" class="edge">
<title>Node27&#45;&gt;Node31</title>
<path fill="none" stroke="midnightblue" d="M692.89,-399.64C698.41,-402.3 704.09,-405.45 709,-409 727.86,-422.62 726.51,-432.89 745,-447 746.85,-448.41 748.82,-449.78 750.85,-451.09"/>
<polygon fill="midnightblue" stroke="midnightblue" points="749.51,-454.36 759.91,-456.42 753.06,-448.33 749.51,-454.36"/>
</g>
<!-- Node32 -->
<g id="node32" class="node">
<title>Node32</title>
<g id="a_node32"><a xlink:href="sbuf_8c.html#a57748585d6786a2c1aadc2cbe6f2135b" target="_top" xlink:title=" ">
<polygon fill="white" stroke="black" points="749,-418.5 749,-437.5 814,-437.5 814,-418.5 749,-418.5"/>
<text text-anchor="middle" x="781.5" y="-425.5" font-family="Helvetica,sans-Serif" font-size="10.00">sbuf_make</text>
</a>
</g>
</g>
<!-- Node27&#45;&gt;Node32 -->
<g id="edge36" class="edge">
<title>Node27&#45;&gt;Node32</title>
<path fill="none" stroke="midnightblue" d="M696.76,-399.59C710.69,-404.31 727.68,-410.08 742.71,-415.18"/>
<polygon fill="midnightblue" stroke="midnightblue" points="741.65,-418.52 752.25,-418.41 743.9,-411.89 741.65,-418.52"/>
</g>
<!-- Node33 -->
<g id="node33" class="node">
<title>Node33</title>
<g id="a_node33"><a xlink:href="sbuf_8c.html#aa511ac77d6b486accc01c0512ef27ed2" target="_top" xlink:title=" ">
<polygon fill="white" stroke="black" points="750.5,-494.5 750.5,-513.5 812.5,-513.5 812.5,-494.5 750.5,-494.5"/>
<text text-anchor="middle" x="781.5" y="-501.5" font-family="Helvetica,sans-Serif" font-size="10.00">sbuf_mem</text>
</a>
</g>
</g>
<!-- Node27&#45;&gt;Node33 -->
<g id="edge37" class="edge">
<title>Node27&#45;&gt;Node33</title>
<path fill="none" stroke="midnightblue" d="M695.89,-399.66C700.65,-402.18 705.26,-405.27 709,-409 735.48,-435.38 719.23,-457.93 745,-485 746.19,-486.25 747.49,-487.44 748.85,-488.57"/>
<polygon fill="midnightblue" stroke="midnightblue" points="747,-491.54 757.22,-494.31 750.96,-485.77 747,-491.54"/>
</g>
<!-- Node34 -->
<g id="node34" class="node">
<title>Node34</title>
<g id="a_node34"><a xlink:href="uc_8c.html#a8334cbe4db5e54e19bf79b31f68d9eb8" target="_top" xlink:title=" ">
<polygon fill="white" stroke="black" points="759.5,-304.5 759.5,-323.5 803.5,-323.5 803.5,-304.5 759.5,-304.5"/>
<text text-anchor="middle" x="781.5" y="-311.5" font-family="Helvetica,sans-Serif" font-size="10.00">uc_off</text>
</a>
</g>
</g>
<!-- Node27&#45;&gt;Node34 -->
<g id="edge39" class="edge">
<title>Node27&#45;&gt;Node34</title>
<path fill="none" stroke="midnightblue" d="M686.35,-380.48C693.6,-376.35 701.91,-371.26 709,-366 726.43,-353.06 727.29,-345.55 745,-333 747.1,-331.51 749.32,-330.06 751.6,-328.67"/>
<polygon fill="midnightblue" stroke="midnightblue" points="753.5,-331.61 760.45,-323.61 750.03,-325.53 753.5,-331.61"/>
</g>
<!-- Node30 -->
<g id="node30" class="node">
<title>Node30</title>
<g id="a_node30"><a xlink:href="sbuf_8c.html#a4ad75f3948c0340c342a3ea3eb63a6e6" target="_top" xlink:title=" ">
<polygon fill="white" stroke="black" points="854,-437.5 854,-456.5 924,-456.5 924,-437.5 854,-437.5"/>
<text text-anchor="middle" x="889" y="-444.5" font-family="Helvetica,sans-Serif" font-size="10.00">sbuf_extend</text>
</a>
</g>
</g>
<!-- Node29&#45;&gt;Node30 -->
<g id="edge34" class="edge">
<title>Node29&#45;&gt;Node30</title>
<path fill="none" stroke="midnightblue" d="M800.57,-399.65C806.16,-402.64 812.34,-405.95 818,-409 832.4,-416.76 848.44,-425.46 861.52,-432.58"/>
<polygon fill="midnightblue" stroke="midnightblue" points="860.01,-435.74 870.47,-437.44 863.36,-429.59 860.01,-435.74"/>
</g>
<!-- Node33&#45;&gt;Node30 -->
<g id="edge38" class="edge">
<title>Node33&#45;&gt;Node30</title>
<path fill="none" stroke="midnightblue" d="M800.57,-494.35C806.16,-491.36 812.34,-488.05 818,-485 832.4,-477.24 848.44,-468.54 861.52,-461.42"/>
<polygon fill="midnightblue" stroke="midnightblue" points="863.36,-464.41 870.47,-456.56 860.01,-458.26 863.36,-464.41"/>
</g>
<!-- Node35 -->
<g id="node35" class="node">
<title>Node35</title>
<g id="a_node35"><a xlink:href="uc_8c.html#a79c7c44c06c1febff5680c19667e2676" target="_top" xlink:title=" ">
<polygon fill="white" stroke="black" points="863.5,-152.5 863.5,-171.5 914.5,-171.5 914.5,-152.5 863.5,-152.5"/>
<text text-anchor="middle" x="889" y="-159.5" font-family="Helvetica,sans-Serif" font-size="10.00">uc_next</text>
</a>
</g>
</g>
<!-- Node34&#45;&gt;Node35 -->
<g id="edge40" class="edge">
<title>Node34&#45;&gt;Node35</title>
<path fill="none" stroke="midnightblue" d="M803.81,-305.24C808.87,-302.48 813.96,-299.07 818,-295 851.11,-261.66 872.28,-209.41 881.92,-181.35"/>
<polygon fill="midnightblue" stroke="midnightblue" points="885.34,-182.15 885.15,-171.56 878.69,-179.96 885.34,-182.15"/>
</g>
<!-- Node36 -->
<g id="node36" class="node">
<title>Node36</title>
<g id="a_node36"><a xlink:href="uc_8c.html#a616e24870a58b86644c34ee077faca11" target="_top" xlink:title=" ">
<polygon fill="white" stroke="black" points="971.5,-133.5 971.5,-152.5 1019.5,-152.5 1019.5,-133.5 971.5,-133.5"/>
<text text-anchor="middle" x="995.5" y="-140.5" font-family="Helvetica,sans-Serif" font-size="10.00">uc_end</text>
</a>
</g>
</g>
<!-- Node35&#45;&gt;Node36 -->
<g id="edge41" class="edge">
<title>Node35&#45;&gt;Node36</title>
<path fill="none" stroke="midnightblue" d="M914.5,-157.55C928.42,-155.01 946.04,-151.81 961.2,-149.05"/>
<polygon fill="midnightblue" stroke="midnightblue" points="962.02,-152.46 971.23,-147.23 960.76,-145.58 962.02,-152.46"/>
</g>
<!-- Node38&#45;&gt;Node35 -->
<g id="edge44" class="edge">
<title>Node38&#45;&gt;Node35</title>
<path fill="none" stroke="midnightblue" d="M567.39,-304.49C625.93,-278.47 788.92,-206.03 857.24,-175.67"/>
<polygon fill="midnightblue" stroke="midnightblue" points="858.9,-178.76 866.61,-171.5 856.05,-172.37 858.9,-178.76"/>
</g>
<!-- Node38&#45;&gt;Node39 -->
<g id="edge45" class="edge">
<title>Node38&#45;&gt;Node39</title>
<path fill="none" stroke="midnightblue" d="M570.42,-304.38C577.43,-300.7 584.63,-295.93 590,-290 617.54,-259.59 608.82,-242.25 626,-205 635.98,-183.36 648.34,-158.96 656.76,-142.64"/>
<polygon fill="midnightblue" stroke="midnightblue" points="659.94,-144.12 661.44,-133.63 653.72,-140.89 659.94,-144.12"/>
</g>
<!-- Node39&#45;&gt;Node36 -->
<g id="edge46" class="edge">
<title>Node39&#45;&gt;Node36</title>
<path fill="none" stroke="midnightblue" d="M692.74,-125.41C750.33,-128.77 895.45,-137.23 961.21,-141.06"/>
<polygon fill="midnightblue" stroke="midnightblue" points="961.23,-144.57 971.42,-141.65 961.64,-137.58 961.23,-144.57"/>
</g>
<!-- Node41 -->
<g id="node41" class="node">
<title>Node41</title>
<g id="a_node41"><a xlink:href="conf_8c.html#ab1da6502eeb02af2fb9fa8a84515b0b6" target="_top" xlink:title=" ">
<polygon fill="white" stroke="black" points="500,-228.5 500,-247.5 590,-247.5 590,-228.5 500,-228.5"/>
<text text-anchor="middle" x="545" y="-235.5" font-family="Helvetica,sans-Serif" font-size="10.00">conf_placeholder</text>
</a>
</g>
</g>
<!-- Node40&#45;&gt;Node41 -->
<g id="edge48" class="edge">
<title>Node40&#45;&gt;Node41</title>
<path fill="none" stroke="midnightblue" d="M461.19,-238C469.78,-238 479.61,-238 489.41,-238"/>
<polygon fill="midnightblue" stroke="midnightblue" points="489.57,-241.5 499.57,-238 489.57,-234.5 489.57,-241.5"/>
</g>
<!-- Node40&#45;&gt;Node42 -->
<g id="edge49" class="edge">
<title>Node40&#45;&gt;Node42</title>
<path fill="none" stroke="midnightblue" d="M461.19,-228.61C475.49,-223.67 493.19,-217.55 508.56,-212.24"/>
<polygon fill="midnightblue" stroke="midnightblue" points="509.95,-215.47 518.26,-208.89 507.66,-208.85 509.95,-215.47"/>
</g>
<!-- Node43&#45;&gt;Node35 -->
<g id="edge54" class="edge">
<title>Node43&#45;&gt;Node35</title>
<path fill="none" stroke="midnightblue" d="M354.73,-162C393.26,-162 474.97,-162 544,-162 544,-162 544,-162 668.5,-162 733.81,-162 810.04,-162 853.31,-162"/>
<polygon fill="midnightblue" stroke="midnightblue" points="853.31,-165.5 863.31,-162 853.31,-158.5 853.31,-165.5"/>
</g>
<!-- Node44&#45;&gt;Node3 -->
<g id="edge58" class="edge">
<title>Node44&#45;&gt;Node3</title>
<path fill="none" stroke="midnightblue" d="M148.43,-285.54C154.94,-289.75 162.5,-294.9 169,-300 186.08,-313.39 188.09,-319.39 205,-333 206.38,-334.11 207.82,-335.23 209.29,-336.34"/>
<polygon fill="midnightblue" stroke="midnightblue" points="207.59,-339.43 217.73,-342.47 211.7,-333.77 207.59,-339.43"/>
</g>
<!-- Node45 -->
<g id="node45" class="node">
<title>Node45</title>
<g id="a_node45"><a xlink:href="ren_8c.html#ab66e6a45a074bd54643b4c6fba4abfe4" target="_top" xlink:title=" ">
<polygon fill="white" stroke="black" points="207.5,-304.5 207.5,-323.5 258.5,-323.5 258.5,-304.5 207.5,-304.5"/>
<text text-anchor="middle" x="233" y="-311.5" font-family="Helvetica,sans-Serif" font-size="10.00">ren_pos</text>
</a>
</g>
</g>
<!-- Node44&#45;&gt;Node45 -->
<g id="edge59" class="edge">
<title>Node44&#45;&gt;Node45</title>
<path fill="none" stroke="midnightblue" d="M157.98,-285.59C170.03,-290.21 184.68,-295.84 197.75,-300.85"/>
<polygon fill="midnightblue" stroke="midnightblue" points="196.78,-304.23 207.37,-304.55 199.29,-297.69 196.78,-304.23"/>
</g>
<!-- Node45&#45;&gt;Node11 -->
<g id="edge60" class="edge">
<title>Node45&#45;&gt;Node11</title>
<path fill="none" stroke="midnightblue" d="M245.42,-304.18C257.9,-293.54 278.57,-276.18 297,-262 300.67,-259.17 304.63,-256.24 308.49,-253.44"/>
<polygon fill="midnightblue" stroke="midnightblue" points="310.56,-256.27 316.65,-247.6 306.48,-250.57 310.56,-256.27"/>
</g>
<!-- Node45&#45;&gt;Node39 -->
<g id="edge61" class="edge">
<title>Node45&#45;&gt;Node39</title>
<path fill="none" stroke="midnightblue" d="M258.6,-312.78C330.02,-308.83 535.77,-294.4 590,-257 630.23,-229.25 652.09,-172.96 661.25,-143.3"/>
<polygon fill="midnightblue" stroke="midnightblue" points="664.61,-144.25 664.05,-133.67 657.89,-142.29 664.61,-144.25"/>
</g>
</g>
</svg>
