<?xml version="1.0" encoding="UTF-8" standalone="no"?>
<!DOCTYPE svg PUBLIC "-//W3C//DTD SVG 1.1//EN"
 "http://www.w3.org/Graphics/SVG/1.1/DTD/svg11.dtd">
<!-- Generated by graphviz version 2.44.1 (20200629.0846)
 -->
<!-- Title: lbuf_free Pages: 1 -->
<svg width="497pt" height="66pt"
 viewBox="0.00 0.00 497.00 66.00" xmlns="http://www.w3.org/2000/svg" xmlns:xlink="http://www.w3.org/1999/xlink">
<g id="graph0" class="graph" transform="scale(1 1) rotate(0) translate(4 62)">
<title>lbuf_free</title>
<polygon fill="white" stroke="transparent" points="-4,4 -4,-62 493,-62 493,4 -4,4"/>
<!-- Node1 -->
<g id="node1" class="node">
<title>Node1</title>
<g id="a_node1"><a xlink:title=" ">
<polygon fill="#bfbfbf" stroke="black" points="435,-19.5 435,-38.5 489,-38.5 489,-19.5 435,-19.5"/>
<text text-anchor="middle" x="462" y="-26.5" font-family="Helvetica,sans-Serif" font-size="10.00">lbuf_free</text>
</a>
</g>
</g>
<!-- Node2 -->
<g id="node2" class="node">
<title>Node2</title>
<g id="a_node2"><a xlink:href="ex_8c.html#ad97bbe76b7cfe1a3f86e404fd876c4e1" target="_top" xlink:title=" ">
<polygon fill="white" stroke="black" points="342,-19.5 342,-38.5 399,-38.5 399,-19.5 342,-19.5"/>
<text text-anchor="middle" x="370.5" y="-26.5" font-family="Helvetica,sans-Serif" font-size="10.00">bufs_free</text>
</a>
</g>
</g>
<!-- Node1&#45;&gt;Node2 -->
<g id="edge1" class="edge">
<title>Node1&#45;&gt;Node2</title>
<path fill="none" stroke="midnightblue" d="M424.6,-29C416.13,-29 407.26,-29 399.24,-29"/>
<polygon fill="midnightblue" stroke="midnightblue" points="424.63,-32.5 434.63,-29 424.63,-25.5 424.63,-32.5"/>
</g>
<!-- Node3 -->
<g id="node3" class="node">
<title>Node3</title>
<g id="a_node3"><a xlink:href="ex_8c.html#a1857a36a25629d552700d0e3a19ce2c3" target="_top" xlink:title=" ">
<polygon fill="white" stroke="black" points="244,-38.5 244,-57.5 306,-57.5 306,-38.5 244,-38.5"/>
<text text-anchor="middle" x="275" y="-45.5" font-family="Helvetica,sans-Serif" font-size="10.00">bufs_open</text>
</a>
</g>
</g>
<!-- Node2&#45;&gt;Node3 -->
<g id="edge2" class="edge">
<title>Node2&#45;&gt;Node3</title>
<path fill="none" stroke="midnightblue" d="M332.15,-36.59C323.56,-38.33 314.54,-40.17 306.29,-41.84"/>
<polygon fill="midnightblue" stroke="midnightblue" points="332.85,-40.02 341.95,-34.6 331.46,-33.16 332.85,-40.02"/>
</g>
<!-- Node7 -->
<g id="node7" class="node">
<title>Node7</title>
<g id="a_node7"><a xlink:href="vi_8h.html#a515f0d6caaba6720f340e5b317b07080" target="_top" xlink:title=" ">
<polygon fill="white" stroke="black" points="155,-0.5 155,-19.5 208,-19.5 208,-0.5 155,-0.5"/>
<text text-anchor="middle" x="181.5" y="-7.5" font-family="Helvetica,sans-Serif" font-size="10.00">ex_done</text>
</a>
</g>
</g>
<!-- Node2&#45;&gt;Node7 -->
<g id="edge6" class="edge">
<title>Node2&#45;&gt;Node7</title>
<path fill="none" stroke="midnightblue" d="M331.58,-25.15C294.8,-21.41 240,-15.84 208.1,-12.6"/>
<polygon fill="midnightblue" stroke="midnightblue" points="331.6,-28.67 341.91,-26.2 332.31,-21.7 331.6,-28.67"/>
</g>
<!-- Node4 -->
<g id="node4" class="node">
<title>Node4</title>
<g id="a_node4"><a xlink:href="ex_8c.html#a8059390ad69866fa8e14bdb2521d4dc2" target="_top" xlink:title=" ">
<polygon fill="white" stroke="black" points="157.5,-38.5 157.5,-57.5 205.5,-57.5 205.5,-38.5 157.5,-38.5"/>
<text text-anchor="middle" x="181.5" y="-45.5" font-family="Helvetica,sans-Serif" font-size="10.00">ec_edit</text>
</a>
</g>
</g>
<!-- Node3&#45;&gt;Node4 -->
<g id="edge3" class="edge">
<title>Node3&#45;&gt;Node4</title>
<path fill="none" stroke="midnightblue" d="M233.63,-48C224.08,-48 214.21,-48 205.73,-48"/>
<polygon fill="midnightblue" stroke="midnightblue" points="233.79,-51.5 243.79,-48 233.79,-44.5 233.79,-51.5"/>
</g>
<!-- Node5 -->
<g id="node5" class="node">
<title>Node5</title>
<g id="a_node5"><a xlink:href="vi_8h.html#abe53b5c10f94f20cd5ed024371615fa1" target="_top" xlink:title=" ">
<polygon fill="white" stroke="black" points="74,-38.5 74,-57.5 119,-57.5 119,-38.5 74,-38.5"/>
<text text-anchor="middle" x="96.5" y="-45.5" font-family="Helvetica,sans-Serif" font-size="10.00">ex_init</text>
</a>
</g>
</g>
<!-- Node4&#45;&gt;Node5 -->
<g id="edge4" class="edge">
<title>Node4&#45;&gt;Node5</title>
<path fill="none" stroke="midnightblue" d="M147.08,-48C137.64,-48 127.62,-48 119.07,-48"/>
<polygon fill="midnightblue" stroke="midnightblue" points="147.38,-51.5 157.38,-48 147.38,-44.5 147.38,-51.5"/>
</g>
<!-- Node6 -->
<g id="node6" class="node">
<title>Node6</title>
<g id="a_node6"><a xlink:href="vi_8c.html#a0ddf1224851353fc92bfbff6f499fa97" target="_top" xlink:title=" ">
<polygon fill="white" stroke="black" points="0,-19.5 0,-38.5 38,-38.5 38,-19.5 0,-19.5"/>
<text text-anchor="middle" x="19" y="-26.5" font-family="Helvetica,sans-Serif" font-size="10.00">main</text>
</a>
</g>
</g>
<!-- Node5&#45;&gt;Node6 -->
<g id="edge5" class="edge">
<title>Node5&#45;&gt;Node6</title>
<path fill="none" stroke="midnightblue" d="M63.83,-40.03C55.19,-37.86 46.11,-35.57 38.47,-33.65"/>
<polygon fill="midnightblue" stroke="midnightblue" points="63.11,-43.46 73.66,-42.5 64.82,-36.67 63.11,-43.46"/>
</g>
<!-- Node7&#45;&gt;Node6 -->
<g id="edge7" class="edge">
<title>Node7&#45;&gt;Node6</title>
<path fill="none" stroke="midnightblue" d="M144.56,-14.26C111.55,-18.16 63.99,-23.79 38.24,-26.84"/>
<polygon fill="midnightblue" stroke="midnightblue" points="145.19,-17.7 154.71,-13.05 144.37,-10.75 145.19,-17.7"/>
</g>
</g>
</svg>
