<?xml version="1.0" encoding="UTF-8" standalone="no"?>
<!DOCTYPE svg PUBLIC "-//W3C//DTD SVG 1.1//EN"
 "http://www.w3.org/Graphics/SVG/1.1/DTD/svg11.dtd">
<!-- Generated by graphviz version 2.44.1 (20200629.0846)
 -->
<!-- Title: uc_isbell Pages: 1 -->
<svg width="220pt" height="119pt"
 viewBox="0.00 0.00 220.00 119.19" xmlns="http://www.w3.org/2000/svg" xmlns:xlink="http://www.w3.org/1999/xlink">
<g id="graph0" class="graph" transform="scale(1 1) rotate(0) translate(4 115.19)">
<title>uc_isbell</title>
<polygon fill="white" stroke="transparent" points="-4,4 -4,-115.19 216,-115.19 216,4 -4,4"/>
<!-- Node1 -->
<g id="node1" class="node">
<title>Node1</title>
<g id="a_node1"><a xlink:title=" ">
<polygon fill="#bfbfbf" stroke="black" points="0,-57.5 0,-76.5 55,-76.5 55,-57.5 0,-57.5"/>
<text text-anchor="middle" x="27.5" y="-64.5" font-family="Helvetica,sans-Serif" font-size="10.00">uc_isbell</text>
</a>
</g>
</g>
<!-- Node2 -->
<g id="node2" class="node">
<title>Node2</title>
<g id="a_node2"><a xlink:href="uc_8c.html#a26b3c1840a578dd97a58069e0af2168c" target="_top" xlink:title=" ">
<polygon fill="white" stroke="black" points="180,-38.5 180,-57.5 212,-57.5 212,-38.5 180,-38.5"/>
<text text-anchor="middle" x="196" y="-45.5" font-family="Helvetica,sans-Serif" font-size="10.00">find</text>
</a>
</g>
</g>
<!-- Node1&#45;&gt;Node2 -->
<g id="edge1" class="edge">
<title>Node1&#45;&gt;Node2</title>
<path fill="none" stroke="midnightblue" d="M40.02,-76.71C51.91,-86.05 71.44,-99.52 91,-105 113.68,-111.35 122.5,-114.61 144,-105 161.73,-97.07 175.85,-79.6 184.69,-66.08"/>
<polygon fill="midnightblue" stroke="midnightblue" points="187.7,-67.86 189.95,-57.51 181.74,-64.2 187.7,-67.86"/>
</g>
<!-- Node3 -->
<g id="node3" class="node">
<title>Node3</title>
<g id="a_node3"><a xlink:href="uc_8c.html#a45fdc2f2f3cb34515f1014bf754741bb" target="_top" xlink:title=" ">
<polygon fill="white" stroke="black" points="91,-76.5 91,-95.5 144,-95.5 144,-76.5 91,-76.5"/>
<text text-anchor="middle" x="117.5" y="-83.5" font-family="Helvetica,sans-Serif" font-size="10.00">uc_code</text>
</a>
</g>
</g>
<!-- Node1&#45;&gt;Node3 -->
<g id="edge2" class="edge">
<title>Node1&#45;&gt;Node3</title>
<path fill="none" stroke="midnightblue" d="M55.38,-72.8C63.52,-74.56 72.58,-76.52 81.18,-78.38"/>
<polygon fill="midnightblue" stroke="midnightblue" points="80.47,-81.8 90.99,-80.49 81.95,-74.96 80.47,-81.8"/>
</g>
<!-- Node4 -->
<g id="node4" class="node">
<title>Node4</title>
<g id="a_node4"><a xlink:href="uc_8c.html#a0f3be4d499b9b3469d03114386b386a2" target="_top" xlink:title=" ">
<polygon fill="white" stroke="black" points="91,-38.5 91,-57.5 144,-57.5 144,-38.5 91,-38.5"/>
<text text-anchor="middle" x="117.5" y="-45.5" font-family="Helvetica,sans-Serif" font-size="10.00">uc_isdw</text>
</a>
</g>
</g>
<!-- Node1&#45;&gt;Node4 -->
<g id="edge3" class="edge">
<title>Node1&#45;&gt;Node4</title>
<path fill="none" stroke="midnightblue" d="M55.38,-61.2C63.52,-59.44 72.58,-57.48 81.18,-55.62"/>
<polygon fill="midnightblue" stroke="midnightblue" points="81.95,-59.04 90.99,-53.51 80.47,-52.2 81.95,-59.04"/>
</g>
<!-- Node5 -->
<g id="node5" class="node">
<title>Node5</title>
<g id="a_node5"><a xlink:href="uc_8c.html#aef404add952e41075b8871fefaaba669" target="_top" xlink:title=" ">
<polygon fill="white" stroke="black" points="91,-0.5 91,-19.5 144,-19.5 144,-0.5 91,-0.5"/>
<text text-anchor="middle" x="117.5" y="-7.5" font-family="Helvetica,sans-Serif" font-size="10.00">uc_iszw</text>
</a>
</g>
</g>
<!-- Node1&#45;&gt;Node5 -->
<g id="edge5" class="edge">
<title>Node1&#45;&gt;Node5</title>
<path fill="none" stroke="midnightblue" d="M43.43,-57.33C57.04,-48.52 77.36,-35.35 93.12,-25.14"/>
<polygon fill="midnightblue" stroke="midnightblue" points="95.3,-27.9 101.79,-19.53 91.5,-22.03 95.3,-27.9"/>
</g>
<!-- Node4&#45;&gt;Node2 -->
<g id="edge4" class="edge">
<title>Node4&#45;&gt;Node2</title>
<path fill="none" stroke="midnightblue" d="M144.4,-48C152.6,-48 161.64,-48 169.79,-48"/>
<polygon fill="midnightblue" stroke="midnightblue" points="169.84,-51.5 179.84,-48 169.84,-44.5 169.84,-51.5"/>
</g>
<!-- Node5&#45;&gt;Node2 -->
<g id="edge6" class="edge">
<title>Node5&#45;&gt;Node2</title>
<path fill="none" stroke="midnightblue" d="M137.8,-19.59C147.7,-24.5 159.86,-30.54 170.42,-35.79"/>
<polygon fill="midnightblue" stroke="midnightblue" points="169.04,-39.01 179.55,-40.33 172.15,-32.74 169.04,-39.01"/>
</g>
</g>
</svg>
