<?xml version="1.0" encoding="UTF-8" standalone="no"?>
<!DOCTYPE svg PUBLIC "-//W3C//DTD SVG 1.1//EN"
 "http://www.w3.org/Graphics/SVG/1.1/DTD/svg11.dtd">
<!-- Generated by graphviz version 2.44.1 (20200629.0846)
 -->
<!-- Title: vi_delete Pages: 1 -->
<!--zoomable 608 -->
<svg id="main" version="1.1" xmlns="http://www.w3.org/2000/svg" xmlns:xlink="http://www.w3.org/1999/xlink" xml:space="preserve" onload="init(evt)">
<style type="text/css"><![CDATA[
.edge:hover path { stroke: red; }
.edge:hover polygon { stroke: red; fill: red; }
]]></style>
<script type="text/javascript"><![CDATA[
var edges = document.getElementsByTagName('g');
if (edges && edges.length) {
  for (var i=0;i<edges.length;i++) {
    if (edges[i].id.substr(0,4)=='edge') {
      edges[i].setAttribute('class','edge');
    }
  }
}
]]></script>
        <defs>
                <circle id="rim" cx="0" cy="0" r="7"/>
                <circle id="rim2" cx="0" cy="0" r="3.5"/>
                <g id="zoomPlus">
                        <use xlink:href="#rim" fill="#404040">
                                <set attributeName="fill" to="#808080" begin="zoomplus.mouseover" end="zoomplus.mouseout"/>
                        </use>
                        <path d="M-4,0h8M0,-4v8" fill="none" stroke="white" stroke-width="1.5" pointer-events="none"/>
                </g>
                <g id="zoomMin">
                        <use xlink:href="#rim" fill="#404040">
                                <set attributeName="fill" to="#808080" begin="zoomminus.mouseover" end="zoomminus.mouseout"/>
                        </use>
                        <path d="M-4,0h8" fill="none" stroke="white" stroke-width="1.5" pointer-events="none"/>
                </g>
                <g id="dirArrow">
                        <path fill="none" stroke="white" stroke-width="1.5" d="M0,-3.0v7 M-2.5,-0.5L0,-3.0L2.5,-0.5"/>
                </g>
               <g id="resetDef">
                       <use xlink:href="#rim2" fill="#404040">
                               <set attributeName="fill" to="#808080" begin="reset.mouseover" end="reset.mouseout"/>
                       </use>
               </g>
        </defs>

<script type="text/javascript">
var viewWidth = 695;
var viewHeight = 608;
var sectionId = 'dynsection-55';
</script>
<script xlink:href="svgpan.js"/>
<svg id="graph" class="graph">
<g id="viewport">
<title>vi_delete</title>
<polygon fill="white" stroke="transparent" points="-4,4 -4,-603.92 691,-603.92 691,4 -4,4"/>
<!-- Node1 -->
<g id="node1" class="node">
<title>Node1</title>
<g id="a_node1"><a xlink:title=" ">
<polygon fill="#bfbfbf" stroke="black" points="0,-286.42 0,-305.42 56,-305.42 56,-286.42 0,-286.42"/>
<text text-anchor="middle" x="28" y="-293.42" font-family="Helvetica,sans-Serif" font-size="10.00">vi_delete</text>
</a>
</g>
</g>
<!-- Node2 -->
<g id="node2" class="node">
<title>Node2</title>
<g id="a_node2"><a xlink:href="lbuf_8c.html#ac261b7344d70724c31f360a5dd8e2ffc" target="_top" xlink:title=" ">
<polygon fill="white" stroke="black" points="100,-134.42 100,-153.42 153,-153.42 153,-134.42 100,-134.42"/>
<text text-anchor="middle" x="126.5" y="-141.42" font-family="Helvetica,sans-Serif" font-size="10.00">lbuf_edit</text>
</a>
</g>
</g>
<!-- Node1&#45;&gt;Node2 -->
<g id="edge1" class="edge">
<title>Node1&#45;&gt;Node2</title>
<path fill="none" stroke="midnightblue" d="M31.91,-286.33C39.12,-263.72 59.64,-206.08 92,-167.92 94.51,-164.96 97.45,-162.18 100.54,-159.64"/>
<polygon fill="midnightblue" stroke="midnightblue" points="102.89,-162.25 108.84,-153.48 98.72,-156.63 102.89,-162.25"/>
</g>
<!-- Node6 -->
<g id="node6" class="node">
<title>Node6</title>
<g id="a_node6"><a xlink:href="sbuf_8c.html#a4e56760893d5a6797626743840c9adf2" target="_top" xlink:title=" ">
<polygon fill="white" stroke="black" points="523,-471.42 523,-490.42 577,-490.42 577,-471.42 523,-471.42"/>
<text text-anchor="middle" x="550" y="-478.42" font-family="Helvetica,sans-Serif" font-size="10.00">sbuf_buf</text>
</a>
</g>
</g>
<!-- Node1&#45;&gt;Node6 -->
<g id="edge41" class="edge">
<title>Node1&#45;&gt;Node6</title>
<path fill="none" stroke="midnightblue" d="M30.47,-305.69C38.88,-357.73 85.82,-599.92 230.5,-599.92 230.5,-599.92 230.5,-599.92 343,-599.92 410.18,-599.92 426.45,-579.2 483,-542.92 502.51,-530.41 521.43,-511.75 533.98,-498.17"/>
<polygon fill="midnightblue" stroke="midnightblue" points="536.82,-500.24 540.91,-490.47 531.62,-495.56 536.82,-500.24"/>
</g>
<!-- Node8 -->
<g id="node8" class="node">
<title>Node8</title>
<g id="a_node8"><a xlink:href="sbuf_8c.html#a57748585d6786a2c1aadc2cbe6f2135b" target="_top" xlink:title=" ">
<polygon fill="white" stroke="black" points="418,-514.42 418,-533.42 483,-533.42 483,-514.42 418,-514.42"/>
<text text-anchor="middle" x="450.5" y="-521.42" font-family="Helvetica,sans-Serif" font-size="10.00">sbuf_make</text>
</a>
</g>
</g>
<!-- Node1&#45;&gt;Node8 -->
<g id="edge43" class="edge">
<title>Node1&#45;&gt;Node8</title>
<path fill="none" stroke="midnightblue" d="M31.5,-305.72C37.96,-329.38 57.17,-390.49 92,-428.92 128.55,-469.24 147.17,-470.04 197,-491.92 241.55,-511.48 253.87,-515.8 302,-522.92 337.46,-528.17 378.25,-527.98 407.93,-526.72"/>
<polygon fill="midnightblue" stroke="midnightblue" points="408.12,-530.22 417.94,-526.24 407.79,-523.23 408.12,-530.22"/>
</g>
<!-- Node9 -->
<g id="node9" class="node">
<title>Node9</title>
<g id="a_node9"><a xlink:href="sbuf_8c.html#a603d1d6ab090025f5850f10bfa2dec7a" target="_top" xlink:title=" ">
<polygon fill="white" stroke="black" points="424.5,-419.42 424.5,-438.42 476.5,-438.42 476.5,-419.42 424.5,-419.42"/>
<text text-anchor="middle" x="450.5" y="-426.42" font-family="Helvetica,sans-Serif" font-size="10.00">sbuf_str</text>
</a>
</g>
</g>
<!-- Node1&#45;&gt;Node9 -->
<g id="edge44" class="edge">
<title>Node1&#45;&gt;Node9</title>
<path fill="none" stroke="midnightblue" d="M44.32,-305.45C56.79,-312.9 75.05,-323.1 92,-329.92 206.04,-375.8 348.77,-408.3 414,-421.87"/>
<polygon fill="midnightblue" stroke="midnightblue" points="413.66,-425.37 424.16,-423.96 415.07,-418.51 413.66,-425.37"/>
</g>
<!-- Node17 -->
<g id="node17" class="node">
<title>Node17</title>
<g id="a_node17"><a xlink:href="uc_8c.html#a2844d125d9a2c1d03848dcdf952b0edb" target="_top" xlink:title=" ">
<polygon fill="white" stroke="black" points="318,-210.42 318,-229.42 366,-229.42 366,-210.42 318,-210.42"/>
<text text-anchor="middle" x="342" y="-217.42" font-family="Helvetica,sans-Serif" font-size="10.00">uc_dup</text>
</a>
</g>
</g>
<!-- Node1&#45;&gt;Node17 -->
<g id="edge45" class="edge">
<title>Node1&#45;&gt;Node17</title>
<path fill="none" stroke="midnightblue" d="M37.48,-286.19C48.8,-273.73 70,-252.15 92,-238.92 134.53,-213.35 148.12,-209.49 197,-200.92 227.21,-195.62 235.57,-197.13 266,-200.92 279.99,-202.67 295.11,-206.17 308.09,-209.7"/>
<polygon fill="midnightblue" stroke="midnightblue" points="307.4,-213.15 317.97,-212.51 309.31,-206.41 307.4,-213.15"/>
</g>
<!-- Node20 -->
<g id="node20" class="node">
<title>Node20</title>
<g id="a_node20"><a xlink:href="lbuf_8c.html#ad0f45475ddc6eb82ecedf63ed1b914d4" target="_top" xlink:title=" ">
<polygon fill="white" stroke="black" points="206,-286.42 206,-305.42 257,-305.42 257,-286.42 206,-286.42"/>
<text text-anchor="middle" x="231.5" y="-293.42" font-family="Helvetica,sans-Serif" font-size="10.00">lbuf_get</text>
</a>
</g>
</g>
<!-- Node1&#45;&gt;Node20 -->
<g id="edge23" class="edge">
<title>Node1&#45;&gt;Node20</title>
<path fill="none" stroke="midnightblue" d="M56.18,-295.92C92.29,-295.92 156.13,-295.92 195.72,-295.92"/>
<polygon fill="midnightblue" stroke="midnightblue" points="195.96,-299.42 205.96,-295.92 195.96,-292.42 195.96,-299.42"/>
</g>
<!-- Node21 -->
<g id="node21" class="node">
<title>Node21</title>
<g id="a_node21"><a xlink:href="mot_8c.html#a813931c130c89b7e9e71f3d524b92705" target="_top" xlink:title=" ">
<polygon fill="white" stroke="black" points="92,-248.42 92,-267.42 161,-267.42 161,-248.42 92,-248.42"/>
<text text-anchor="middle" x="126.5" y="-255.42" font-family="Helvetica,sans-Serif" font-size="10.00">lbuf_indents</text>
</a>
</g>
</g>
<!-- Node1&#45;&gt;Node21 -->
<g id="edge24" class="edge">
<title>Node1&#45;&gt;Node21</title>
<path fill="none" stroke="midnightblue" d="M53.35,-286.33C65.01,-281.74 79.16,-276.17 91.82,-271.18"/>
<polygon fill="midnightblue" stroke="midnightblue" points="93.13,-274.43 101.16,-267.51 90.57,-267.91 93.13,-274.43"/>
</g>
<!-- Node25 -->
<g id="node25" class="node">
<title>Node25</title>
<g id="a_node25"><a xlink:href="vi_8c.html#a2d2d2965bc8143e80182d0205d32bdc4" target="_top" xlink:title=" ">
<polygon fill="white" stroke="black" points="94.5,-400.42 94.5,-419.42 158.5,-419.42 158.5,-400.42 94.5,-400.42"/>
<text text-anchor="middle" x="126.5" y="-407.42" font-family="Helvetica,sans-Serif" font-size="10.00">lbuf_region</text>
</a>
</g>
</g>
<!-- Node1&#45;&gt;Node25 -->
<g id="edge29" class="edge">
<title>Node1&#45;&gt;Node25</title>
<path fill="none" stroke="midnightblue" d="M34.32,-305.65C44.16,-323.06 66.52,-360.16 92,-385.92 94.92,-388.87 98.23,-391.71 101.61,-394.35"/>
<polygon fill="midnightblue" stroke="midnightblue" points="99.82,-397.37 109.97,-400.41 103.93,-391.71 99.82,-397.37"/>
</g>
<!-- Node26 -->
<g id="node26" class="node">
<title>Node26</title>
<g id="a_node26"><a xlink:href="uc_8c.html#a12e27a6877e4a8705aeabfae5ae507db" target="_top" xlink:title=" ">
<polygon fill="white" stroke="black" points="207.5,-324.42 207.5,-343.42 255.5,-343.42 255.5,-324.42 207.5,-324.42"/>
<text text-anchor="middle" x="231.5" y="-331.42" font-family="Helvetica,sans-Serif" font-size="10.00">uc_sub</text>
</a>
</g>
</g>
<!-- Node1&#45;&gt;Node26 -->
<g id="edge46" class="edge">
<title>Node1&#45;&gt;Node26</title>
<path fill="none" stroke="midnightblue" d="M56.23,-302.27C67.3,-304.77 80.24,-307.6 92,-309.92 127.88,-317.01 169.21,-324.02 197.32,-328.62"/>
<polygon fill="midnightblue" stroke="midnightblue" points="196.97,-332.11 207.4,-330.26 198.09,-325.2 196.97,-332.11"/>
</g>
<!-- Node28 -->
<g id="node28" class="node">
<title>Node28</title>
<g id="a_node28"><a xlink:href="reg_8c.html#a4a1ad2201f6bc8ca5faf958f146883d5" target="_top" xlink:title=" ">
<polygon fill="white" stroke="black" points="102,-58.42 102,-77.42 151,-77.42 151,-58.42 102,-58.42"/>
<text text-anchor="middle" x="126.5" y="-65.42" font-family="Helvetica,sans-Serif" font-size="10.00">reg_put</text>
</a>
</g>
</g>
<!-- Node1&#45;&gt;Node28 -->
<g id="edge38" class="edge">
<title>Node1&#45;&gt;Node28</title>
<path fill="none" stroke="midnightblue" d="M31.84,-286.41C39.85,-260.11 63.84,-184.4 92,-124.92 98.31,-111.6 106.71,-97.3 113.53,-86.36"/>
<polygon fill="midnightblue" stroke="midnightblue" points="116.61,-88.04 119.01,-77.72 110.7,-84.29 116.61,-88.04"/>
</g>
<!-- Node31 -->
<g id="node31" class="node">
<title>Node31</title>
<g id="a_node31"><a xlink:href="sbuf_8c.html#a8c1a89868b1999663effb78b4f3fab32" target="_top" xlink:title=" ">
<polygon fill="white" stroke="black" points="98,-20.42 98,-39.42 155,-39.42 155,-20.42 98,-20.42"/>
<text text-anchor="middle" x="126.5" y="-27.42" font-family="Helvetica,sans-Serif" font-size="10.00">sbuf_free</text>
</a>
</g>
</g>
<!-- Node1&#45;&gt;Node31 -->
<g id="edge42" class="edge">
<title>Node1&#45;&gt;Node31</title>
<path fill="none" stroke="midnightblue" d="M28.88,-286.28C28.93,-250.8 33.44,-125.59 92,-48.92 92.8,-47.87 93.67,-46.88 94.61,-45.93"/>
<polygon fill="midnightblue" stroke="midnightblue" points="96.99,-48.5 102.64,-39.55 92.64,-43.02 96.99,-48.5"/>
</g>
<!-- Node3 -->
<g id="node3" class="node">
<title>Node3</title>
<g id="a_node3"><a xlink:href="lbuf_8c.html#a7882079a375d5591a9f384a80a5599ff" target="_top" xlink:title=" ">
<polygon fill="white" stroke="black" points="206,-134.42 206,-153.42 257,-153.42 257,-134.42 206,-134.42"/>
<text text-anchor="middle" x="231.5" y="-141.42" font-family="Helvetica,sans-Serif" font-size="10.00">lbuf_opt</text>
</a>
</g>
</g>
<!-- Node2&#45;&gt;Node3 -->
<g id="edge2" class="edge">
<title>Node2&#45;&gt;Node3</title>
<path fill="none" stroke="midnightblue" d="M153.23,-143.92C166.05,-143.92 181.74,-143.92 195.62,-143.92"/>
<polygon fill="midnightblue" stroke="midnightblue" points="195.81,-147.42 205.81,-143.92 195.81,-140.42 195.81,-147.42"/>
</g>
<!-- Node18 -->
<g id="node18" class="node">
<title>Node18</title>
<g id="a_node18"><a xlink:href="lbuf_8c.html#a7d6629efef5a5cbd324d82e2b0c07c5d" target="_top" xlink:title=" ">
<polygon fill="white" stroke="black" points="197,-77.42 197,-96.42 266,-96.42 266,-77.42 197,-77.42"/>
<text text-anchor="middle" x="231.5" y="-84.42" font-family="Helvetica,sans-Serif" font-size="10.00">lbuf_replace</text>
</a>
</g>
</g>
<!-- Node2&#45;&gt;Node18 -->
<g id="edge18" class="edge">
<title>Node2&#45;&gt;Node18</title>
<path fill="none" stroke="midnightblue" d="M144.97,-134.25C161.27,-125.23 185.81,-111.65 204.42,-101.35"/>
<polygon fill="midnightblue" stroke="midnightblue" points="206.23,-104.35 213.29,-96.45 202.84,-98.23 206.23,-104.35"/>
</g>
<!-- Node4 -->
<g id="node4" class="node">
<title>Node4</title>
<g id="a_node4"><a xlink:href="lbuf_8c.html#ad5f7a537d1c72f485481fc22cb8361a6" target="_top" xlink:title=" ">
<polygon fill="white" stroke="black" points="318,-438.42 318,-457.42 366,-457.42 366,-438.42 318,-438.42"/>
<text text-anchor="middle" x="342" y="-445.42" font-family="Helvetica,sans-Serif" font-size="10.00">lbuf_cp</text>
</a>
</g>
</g>
<!-- Node3&#45;&gt;Node4 -->
<g id="edge3" class="edge">
<title>Node3&#45;&gt;Node4</title>
<path fill="none" stroke="midnightblue" d="M239.27,-153.59C246.72,-164.6 258.62,-183.35 266,-200.92 289.73,-257.38 284.08,-275.36 302,-333.92 312.3,-367.59 325.92,-406.28 334.04,-428.82"/>
<polygon fill="midnightblue" stroke="midnightblue" points="330.75,-430.02 337.45,-438.23 337.33,-427.64 330.75,-430.02"/>
</g>
<!-- Node11 -->
<g id="node11" class="node">
<title>Node11</title>
<g id="a_node11"><a xlink:href="lbuf_8c.html#aedcad8ccce5993eacce71ffc80aaab87" target="_top" xlink:title=" ">
<polygon fill="white" stroke="black" points="302,-96.42 302,-115.42 382,-115.42 382,-96.42 302,-96.42"/>
<text text-anchor="middle" x="342" y="-103.42" font-family="Helvetica,sans-Serif" font-size="10.00">lbuf_savemark</text>
</a>
</g>
</g>
<!-- Node3&#45;&gt;Node11 -->
<g id="edge11" class="edge">
<title>Node3&#45;&gt;Node11</title>
<path fill="none" stroke="midnightblue" d="M257.12,-135.3C270.97,-130.45 288.53,-124.3 304.01,-118.88"/>
<polygon fill="midnightblue" stroke="midnightblue" points="305.53,-122.05 313.81,-115.44 303.22,-115.45 305.53,-122.05"/>
</g>
<!-- Node12 -->
<g id="node12" class="node">
<title>Node12</title>
<g id="a_node12"><a xlink:href="lbuf_8c.html#a46670f1a015007134b0d5a07ea258fcc" target="_top" xlink:title=" ">
<polygon fill="white" stroke="black" points="305,-172.42 305,-191.42 379,-191.42 379,-172.42 305,-172.42"/>
<text text-anchor="middle" x="342" y="-179.42" font-family="Helvetica,sans-Serif" font-size="10.00">lbuf_savepos</text>
</a>
</g>
</g>
<!-- Node3&#45;&gt;Node12 -->
<g id="edge12" class="edge">
<title>Node3&#45;&gt;Node12</title>
<path fill="none" stroke="midnightblue" d="M257.12,-152.54C270.97,-157.39 288.53,-163.55 304.01,-168.96"/>
<polygon fill="midnightblue" stroke="midnightblue" points="303.22,-172.4 313.81,-172.4 305.53,-165.79 303.22,-172.4"/>
</g>
<!-- Node14 -->
<g id="node14" class="node">
<title>Node14</title>
<g id="a_node14"><a xlink:href="lbuf_8c.html#ab41193f3312b21588338e92e1b144f87" target="_top" xlink:title=" ">
<polygon fill="white" stroke="black" points="314,-58.42 314,-77.42 370,-77.42 370,-58.42 314,-58.42"/>
<text text-anchor="middle" x="342" y="-65.42" font-family="Helvetica,sans-Serif" font-size="10.00">linecount</text>
</a>
</g>
</g>
<!-- Node3&#45;&gt;Node14 -->
<g id="edge14" class="edge">
<title>Node3&#45;&gt;Node14</title>
<path fill="none" stroke="midnightblue" d="M242.74,-134.22C255.8,-122.16 279.4,-101.41 302,-86.92 304.58,-85.27 307.32,-83.66 310.12,-82.12"/>
<polygon fill="midnightblue" stroke="midnightblue" points="311.78,-85.2 319.05,-77.5 308.56,-78.99 311.78,-85.2"/>
</g>
<!-- Node16 -->
<g id="node16" class="node">
<title>Node16</title>
<g id="a_node16"><a xlink:href="lbuf_8c.html#a94a520edd0e2f60713523483cf01c7de" target="_top" xlink:title=" ">
<polygon fill="white" stroke="black" points="312.5,-134.42 312.5,-153.42 371.5,-153.42 371.5,-134.42 312.5,-134.42"/>
<text text-anchor="middle" x="342" y="-141.42" font-family="Helvetica,sans-Serif" font-size="10.00">lopt_done</text>
</a>
</g>
</g>
<!-- Node3&#45;&gt;Node16 -->
<g id="edge16" class="edge">
<title>Node3&#45;&gt;Node16</title>
<path fill="none" stroke="midnightblue" d="M257.12,-143.92C270.43,-143.92 287.17,-143.92 302.19,-143.92"/>
<polygon fill="midnightblue" stroke="midnightblue" points="302.25,-147.42 312.25,-143.92 302.25,-140.42 302.25,-147.42"/>
</g>
<!-- Node3&#45;&gt;Node17 -->
<g id="edge17" class="edge">
<title>Node3&#45;&gt;Node17</title>
<path fill="none" stroke="midnightblue" d="M246.8,-153.6C252.85,-157.83 259.89,-162.96 266,-167.92 282.85,-181.6 284.06,-188.71 302,-200.92 304.39,-202.55 306.95,-204.12 309.56,-205.61"/>
<polygon fill="midnightblue" stroke="midnightblue" points="308.04,-208.76 318.52,-210.34 311.31,-202.57 308.04,-208.76"/>
</g>
<!-- Node5 -->
<g id="node5" class="node">
<title>Node5</title>
<g id="a_node5"><a xlink:href="sbuf_8c.html#a7bf14d501d36ce36ee269d77cf2c3fc6" target="_top" xlink:title=" ">
<polygon fill="white" stroke="black" points="419.5,-471.42 419.5,-490.42 481.5,-490.42 481.5,-471.42 419.5,-471.42"/>
<text text-anchor="middle" x="450.5" y="-478.42" font-family="Helvetica,sans-Serif" font-size="10.00">sbuf_done</text>
</a>
</g>
</g>
<!-- Node4&#45;&gt;Node5 -->
<g id="edge4" class="edge">
<title>Node4&#45;&gt;Node5</title>
<path fill="none" stroke="midnightblue" d="M366.11,-455.08C378.73,-458.99 394.73,-463.95 409.33,-468.47"/>
<polygon fill="midnightblue" stroke="midnightblue" points="408.56,-471.9 419.15,-471.52 410.64,-465.21 408.56,-471.9"/>
</g>
<!-- Node4&#45;&gt;Node8 -->
<g id="edge7" class="edge">
<title>Node4&#45;&gt;Node8</title>
<path fill="none" stroke="midnightblue" d="M356.49,-457.55C374.49,-470.4 406.59,-493.3 427.96,-508.55"/>
<polygon fill="midnightblue" stroke="midnightblue" points="425.95,-511.41 436.12,-514.37 430.01,-505.72 425.95,-511.41"/>
</g>
<!-- Node4&#45;&gt;Node9 -->
<g id="edge8" class="edge">
<title>Node4&#45;&gt;Node9</title>
<path fill="none" stroke="midnightblue" d="M366.11,-443.8C380.16,-441.29 398.39,-438.04 414.22,-435.22"/>
<polygon fill="midnightblue" stroke="midnightblue" points="414.97,-438.64 424.2,-433.43 413.74,-431.75 414.97,-438.64"/>
</g>
<!-- Node5&#45;&gt;Node6 -->
<g id="edge5" class="edge">
<title>Node5&#45;&gt;Node6</title>
<path fill="none" stroke="midnightblue" d="M481.55,-480.92C491.35,-480.92 502.34,-480.92 512.56,-480.92"/>
<polygon fill="midnightblue" stroke="midnightblue" points="512.84,-484.42 522.84,-480.92 512.84,-477.42 512.84,-484.42"/>
</g>
<!-- Node7 -->
<g id="node7" class="node">
<title>Node7</title>
<g id="a_node7"><a xlink:href="sbuf_8c.html#a4ad75f3948c0340c342a3ea3eb63a6e6" target="_top" xlink:title=" ">
<polygon fill="white" stroke="black" points="617,-447.42 617,-466.42 687,-466.42 687,-447.42 617,-447.42"/>
<text text-anchor="middle" x="652" y="-454.42" font-family="Helvetica,sans-Serif" font-size="10.00">sbuf_extend</text>
</a>
</g>
</g>
<!-- Node6&#45;&gt;Node7 -->
<g id="edge6" class="edge">
<title>Node6&#45;&gt;Node7</title>
<path fill="none" stroke="midnightblue" d="M577.01,-474.68C586.13,-472.49 596.64,-469.97 606.82,-467.52"/>
<polygon fill="midnightblue" stroke="midnightblue" points="607.92,-470.86 616.83,-465.12 606.29,-464.05 607.92,-470.86"/>
</g>
<!-- Node10 -->
<g id="node10" class="node">
<title>Node10</title>
<g id="a_node10"><a xlink:href="sbuf_8c.html#aa511ac77d6b486accc01c0512ef27ed2" target="_top" xlink:title=" ">
<polygon fill="white" stroke="black" points="519,-424.42 519,-443.42 581,-443.42 581,-424.42 519,-424.42"/>
<text text-anchor="middle" x="550" y="-431.42" font-family="Helvetica,sans-Serif" font-size="10.00">sbuf_mem</text>
</a>
</g>
</g>
<!-- Node9&#45;&gt;Node10 -->
<g id="edge9" class="edge">
<title>Node9&#45;&gt;Node10</title>
<path fill="none" stroke="midnightblue" d="M476.61,-430.21C486.36,-430.71 497.77,-431.29 508.61,-431.85"/>
<polygon fill="midnightblue" stroke="midnightblue" points="508.6,-435.35 518.76,-432.37 508.96,-428.36 508.6,-435.35"/>
</g>
<!-- Node10&#45;&gt;Node7 -->
<g id="edge10" class="edge">
<title>Node10&#45;&gt;Node7</title>
<path fill="none" stroke="midnightblue" d="M581,-440.82C589.2,-442.71 598.25,-444.79 607.04,-446.81"/>
<polygon fill="midnightblue" stroke="midnightblue" points="606.28,-450.23 616.81,-449.06 607.85,-443.4 606.28,-450.23"/>
</g>
<!-- Node13 -->
<g id="node13" class="node">
<title>Node13</title>
<g id="a_node13"><a xlink:href="lbuf_8c.html#a69221917b521da2cd5f804a9f4694f1a" target="_top" xlink:title=" ">
<polygon fill="white" stroke="black" points="425,-134.42 425,-153.42 476,-153.42 476,-134.42 425,-134.42"/>
<text text-anchor="middle" x="450.5" y="-141.42" font-family="Helvetica,sans-Serif" font-size="10.00">markidx</text>
</a>
</g>
</g>
<!-- Node12&#45;&gt;Node13 -->
<g id="edge13" class="edge">
<title>Node12&#45;&gt;Node13</title>
<path fill="none" stroke="midnightblue" d="M369.87,-172.33C383.59,-167.44 400.44,-161.43 415.09,-156.2"/>
<polygon fill="midnightblue" stroke="midnightblue" points="416.58,-159.38 424.82,-152.73 414.23,-152.79 416.58,-159.38"/>
</g>
<!-- Node15 -->
<g id="node15" class="node">
<title>Node15</title>
<g id="a_node15"><a xlink:href="lbuf_8c.html#ac559857979b20ce0c64638c9e3e4edec" target="_top" xlink:title=" ">
<polygon fill="white" stroke="black" points="421.5,-20.42 421.5,-39.42 479.5,-39.42 479.5,-20.42 421.5,-20.42"/>
<text text-anchor="middle" x="450.5" y="-27.42" font-family="Helvetica,sans-Serif" font-size="10.00">linelength</text>
</a>
</g>
</g>
<!-- Node14&#45;&gt;Node15 -->
<g id="edge15" class="edge">
<title>Node14&#45;&gt;Node15</title>
<path fill="none" stroke="midnightblue" d="M369.87,-58.33C382.99,-53.65 398.97,-47.95 413.15,-42.89"/>
<polygon fill="midnightblue" stroke="midnightblue" points="414.39,-46.16 422.63,-39.51 412.04,-39.57 414.39,-46.16"/>
</g>
<!-- Node18&#45;&gt;Node14 -->
<g id="edge21" class="edge">
<title>Node18&#45;&gt;Node14</title>
<path fill="none" stroke="midnightblue" d="M266.24,-81.01C278.19,-78.92 291.71,-76.55 303.92,-74.41"/>
<polygon fill="midnightblue" stroke="midnightblue" points="304.57,-77.85 313.82,-72.68 303.37,-70.96 304.57,-77.85"/>
</g>
<!-- Node18&#45;&gt;Node15 -->
<g id="edge22" class="edge">
<title>Node18&#45;&gt;Node15</title>
<path fill="none" stroke="midnightblue" d="M253.09,-77.36C257.64,-74.69 262.23,-71.52 266,-67.92 287.68,-47.24 275.76,-25.38 302,-10.92 339.13,9.55 389.33,-4.07 420.54,-16.46"/>
<polygon fill="midnightblue" stroke="midnightblue" points="419.39,-19.77 429.97,-20.39 422.09,-13.31 419.39,-19.77"/>
</g>
<!-- Node19 -->
<g id="node19" class="node">
<title>Node19</title>
<g id="a_node19"><a xlink:href="lbuf_8c.html#a5a34f3f60dfd5ea06207d96d821da368" target="_top" xlink:title=" ">
<polygon fill="white" stroke="black" points="312.5,-20.42 312.5,-39.42 371.5,-39.42 371.5,-20.42 312.5,-20.42"/>
<text text-anchor="middle" x="342" y="-27.42" font-family="Helvetica,sans-Serif" font-size="10.00">lbuf_mark</text>
</a>
</g>
</g>
<!-- Node18&#45;&gt;Node19 -->
<g id="edge19" class="edge">
<title>Node18&#45;&gt;Node19</title>
<path fill="none" stroke="midnightblue" d="M249.52,-77.33C263.51,-69.5 283.92,-58.26 302,-48.92 305.11,-47.32 308.37,-45.67 311.62,-44.05"/>
<polygon fill="midnightblue" stroke="midnightblue" points="313.24,-47.16 320.67,-39.6 310.15,-40.87 313.24,-47.16"/>
</g>
<!-- Node19&#45;&gt;Node13 -->
<g id="edge20" class="edge">
<title>Node19&#45;&gt;Node13</title>
<path fill="none" stroke="midnightblue" d="M367.66,-39.61C372.7,-42.21 377.75,-45.32 382,-48.92 407.73,-70.73 428.57,-104.43 439.98,-125.28"/>
<polygon fill="midnightblue" stroke="midnightblue" points="437.03,-127.18 444.81,-134.37 443.21,-123.9 437.03,-127.18"/>
</g>
<!-- Node21&#45;&gt;Node20 -->
<g id="edge25" class="edge">
<title>Node21&#45;&gt;Node20</title>
<path fill="none" stroke="midnightblue" d="M153.49,-267.51C166.44,-272.29 182.27,-278.13 196.2,-283.26"/>
<polygon fill="midnightblue" stroke="midnightblue" points="195.34,-286.68 205.94,-286.86 197.76,-280.11 195.34,-286.68"/>
</g>
<!-- Node22 -->
<g id="node22" class="node">
<title>Node22</title>
<g id="a_node22"><a xlink:href="uc_8c.html#ab6be7e2b59f79b8952c13488e1cf036a" target="_top" xlink:title=" ">
<polygon fill="white" stroke="black" points="198.5,-210.42 198.5,-229.42 264.5,-229.42 264.5,-210.42 198.5,-210.42"/>
<text text-anchor="middle" x="231.5" y="-217.42" font-family="Helvetica,sans-Serif" font-size="10.00">uc_isspace</text>
</a>
</g>
</g>
<!-- Node21&#45;&gt;Node22 -->
<g id="edge26" class="edge">
<title>Node21&#45;&gt;Node22</title>
<path fill="none" stroke="midnightblue" d="M153.49,-248.33C166.06,-243.7 181.33,-238.06 194.95,-233.04"/>
<polygon fill="midnightblue" stroke="midnightblue" points="196.35,-236.25 204.52,-229.51 193.92,-229.68 196.35,-236.25"/>
</g>
<!-- Node23 -->
<g id="node23" class="node">
<title>Node23</title>
<g id="a_node23"><a xlink:href="uc_8c.html#a79c7c44c06c1febff5680c19667e2676" target="_top" xlink:title=" ">
<polygon fill="white" stroke="black" points="425,-267.42 425,-286.42 476,-286.42 476,-267.42 425,-267.42"/>
<text text-anchor="middle" x="450.5" y="-274.42" font-family="Helvetica,sans-Serif" font-size="10.00">uc_next</text>
</a>
</g>
</g>
<!-- Node21&#45;&gt;Node23 -->
<g id="edge27" class="edge">
<title>Node21&#45;&gt;Node23</title>
<path fill="none" stroke="midnightblue" d="M161.05,-259.9C222.41,-263.52 352.16,-271.18 414.55,-274.86"/>
<polygon fill="midnightblue" stroke="midnightblue" points="414.48,-278.36 424.67,-275.46 414.9,-271.37 414.48,-278.36"/>
</g>
<!-- Node24 -->
<g id="node24" class="node">
<title>Node24</title>
<g id="a_node24"><a xlink:href="uc_8c.html#a616e24870a58b86644c34ee077faca11" target="_top" xlink:title=" ">
<polygon fill="white" stroke="black" points="526,-267.42 526,-286.42 574,-286.42 574,-267.42 526,-267.42"/>
<text text-anchor="middle" x="550" y="-274.42" font-family="Helvetica,sans-Serif" font-size="10.00">uc_end</text>
</a>
</g>
</g>
<!-- Node23&#45;&gt;Node24 -->
<g id="edge28" class="edge">
<title>Node23&#45;&gt;Node24</title>
<path fill="none" stroke="midnightblue" d="M476.1,-276.92C488,-276.92 502.47,-276.92 515.37,-276.92"/>
<polygon fill="midnightblue" stroke="midnightblue" points="515.75,-280.42 525.75,-276.92 515.75,-273.42 515.75,-280.42"/>
</g>
<!-- Node25&#45;&gt;Node4 -->
<g id="edge30" class="edge">
<title>Node25&#45;&gt;Node4</title>
<path fill="none" stroke="midnightblue" d="M158.59,-416.42C170.58,-418.86 184.41,-421.6 197,-423.92 234.85,-430.89 278.46,-438.03 307.69,-442.69"/>
<polygon fill="midnightblue" stroke="midnightblue" points="307.34,-446.18 317.76,-444.29 308.44,-439.27 307.34,-446.18"/>
</g>
<!-- Node25&#45;&gt;Node5 -->
<g id="edge32" class="edge">
<title>Node25&#45;&gt;Node5</title>
<path fill="none" stroke="midnightblue" d="M144.76,-419.42C158.56,-426.69 178.58,-436.53 197,-442.92 269.14,-467.95 358.51,-476.5 409.27,-479.42"/>
<polygon fill="midnightblue" stroke="midnightblue" points="409.32,-482.93 419.5,-479.96 409.69,-475.94 409.32,-482.93"/>
</g>
<!-- Node25&#45;&gt;Node8 -->
<g id="edge33" class="edge">
<title>Node25&#45;&gt;Node8</title>
<path fill="none" stroke="midnightblue" d="M136.86,-419.85C149.35,-432.51 172.75,-454.14 197,-465.92 266.27,-499.56 355.82,-514.14 407.54,-520.12"/>
<polygon fill="midnightblue" stroke="midnightblue" points="407.35,-523.62 417.68,-521.23 408.12,-516.66 407.35,-523.62"/>
</g>
<!-- Node25&#45;&gt;Node9 -->
<g id="edge34" class="edge">
<title>Node25&#45;&gt;Node9</title>
<path fill="none" stroke="midnightblue" d="M158.67,-411.76C218.79,-415.31 350.46,-423.08 413.92,-426.82"/>
<polygon fill="midnightblue" stroke="midnightblue" points="414.03,-430.33 424.22,-427.43 414.44,-423.35 414.03,-430.33"/>
</g>
<!-- Node25&#45;&gt;Node20 -->
<g id="edge31" class="edge">
<title>Node25&#45;&gt;Node20</title>
<path fill="none" stroke="midnightblue" d="M132.7,-400.26C143,-381.83 167.55,-341.15 197,-314.92 198.5,-313.59 200.1,-312.3 201.77,-311.08"/>
<polygon fill="midnightblue" stroke="midnightblue" points="203.94,-313.84 210.43,-305.47 200.14,-307.97 203.94,-313.84"/>
</g>
<!-- Node25&#45;&gt;Node26 -->
<g id="edge35" class="edge">
<title>Node25&#45;&gt;Node26</title>
<path fill="none" stroke="midnightblue" d="M140.55,-400.3C157.88,-387.5 188.72,-364.75 209.39,-349.49"/>
<polygon fill="midnightblue" stroke="midnightblue" points="211.59,-352.22 217.56,-343.47 207.44,-346.59 211.59,-352.22"/>
</g>
<!-- Node27 -->
<g id="node27" class="node">
<title>Node27</title>
<g id="a_node27"><a xlink:href="uc_8c.html#a2fecd1fc98475ece5f529da3315a9553" target="_top" xlink:title=" ">
<polygon fill="white" stroke="black" points="319,-305.42 319,-324.42 365,-324.42 365,-305.42 319,-305.42"/>
<text text-anchor="middle" x="342" y="-312.42" font-family="Helvetica,sans-Serif" font-size="10.00">uc_chr</text>
</a>
</g>
</g>
<!-- Node26&#45;&gt;Node27 -->
<g id="edge36" class="edge">
<title>Node26&#45;&gt;Node27</title>
<path fill="none" stroke="midnightblue" d="M255.51,-329.89C270.96,-327.19 291.55,-323.58 308.65,-320.59"/>
<polygon fill="midnightblue" stroke="midnightblue" points="309.52,-323.99 318.77,-318.81 308.31,-317.09 309.52,-323.99"/>
</g>
<!-- Node27&#45;&gt;Node23 -->
<g id="edge37" class="edge">
<title>Node27&#45;&gt;Node23</title>
<path fill="none" stroke="midnightblue" d="M365.07,-307.05C379.5,-301.9 398.64,-295.07 415.06,-289.21"/>
<polygon fill="midnightblue" stroke="midnightblue" points="416.61,-292.37 424.86,-285.71 414.26,-285.78 416.61,-292.37"/>
</g>
<!-- Node29 -->
<g id="node29" class="node">
<title>Node29</title>
<g id="a_node29"><a xlink:href="reg_8c.html#a6eaa41c69e0e22bcbb189eaf4ff0feae" target="_top" xlink:title=" ">
<polygon fill="white" stroke="black" points="207,-39.42 207,-58.42 256,-58.42 256,-39.42 207,-39.42"/>
<text text-anchor="middle" x="231.5" y="-46.42" font-family="Helvetica,sans-Serif" font-size="10.00">reg_get</text>
</a>
</g>
</g>
<!-- Node28&#45;&gt;Node29 -->
<g id="edge39" class="edge">
<title>Node28&#45;&gt;Node29</title>
<path fill="none" stroke="midnightblue" d="M151.13,-63.56C164.74,-61.05 182.06,-57.86 197.05,-55.09"/>
<polygon fill="midnightblue" stroke="midnightblue" points="197.78,-58.52 206.98,-53.26 196.51,-51.63 197.78,-58.52"/>
</g>
<!-- Node30 -->
<g id="node30" class="node">
<title>Node30</title>
<g id="a_node30"><a xlink:href="reg_8c.html#a7d863266d9fa9455f0ffa968f51d0ce3" target="_top" xlink:title=" ">
<polygon fill="white" stroke="black" points="199,-1.42 199,-20.42 264,-20.42 264,-1.42 199,-1.42"/>
<text text-anchor="middle" x="231.5" y="-8.42" font-family="Helvetica,sans-Serif" font-size="10.00">reg_putraw</text>
</a>
</g>
</g>
<!-- Node28&#45;&gt;Node30 -->
<g id="edge40" class="edge">
<title>Node28&#45;&gt;Node30</title>
<path fill="none" stroke="midnightblue" d="M144.97,-58.25C161.27,-49.23 185.81,-35.65 204.42,-25.35"/>
<polygon fill="midnightblue" stroke="midnightblue" points="206.23,-28.35 213.29,-20.45 202.84,-22.23 206.23,-28.35"/>
</g>
</g>
</svg>
        <g id="navigator" transform="translate(0 0)" fill="#404254">
                <rect fill="#f2f5e9" fill-opacity="0.5" stroke="#606060" stroke-width=".5" x="0" y="0" width="60" height="60"/>
                <use id="zoomplus" xlink:href="#zoomPlus" x="17" y="9" onmousedown="handleZoom(evt,'in')"/>
                <use id="zoomminus" xlink:href="#zoomMin" x="42" y="9" onmousedown="handleZoom(evt,'out')"/>
                <use id="reset" xlink:href="#resetDef" x="30" y="36" onmousedown="handleReset()"/>
                <g id="arrowUp" xlink:href="#dirArrow" transform="translate(30 24)" onmousedown="handlePan(0,-1)">
                  <use xlink:href="#rim" fill="#404040">
                        <set attributeName="fill" to="#808080" begin="arrowUp.mouseover" end="arrowUp.mouseout"/>
                  </use>
                  <path fill="none" stroke="white" stroke-width="1.5" d="M0,-3.0v7 M-2.5,-0.5L0,-3.0L2.5,-0.5"/>
                </g>
                <g id="arrowRight" xlink:href="#dirArrow" transform="rotate(90) translate(36 -43)" onmousedown="handlePan(1,0)">
                  <use xlink:href="#rim" fill="#404040">
                        <set attributeName="fill" to="#808080" begin="arrowRight.mouseover" end="arrowRight.mouseout"/>
                  </use>
                  <path fill="none" stroke="white" stroke-width="1.5" d="M0,-3.0v7 M-2.5,-0.5L0,-3.0L2.5,-0.5"/>
                </g>
                <g id="arrowDown" xlink:href="#dirArrow" transform="rotate(180) translate(-30 -48)" onmousedown="handlePan(0,1)">
                  <use xlink:href="#rim" fill="#404040">
                        <set attributeName="fill" to="#808080" begin="arrowDown.mouseover" end="arrowDown.mouseout"/>
                  </use>
                  <path fill="none" stroke="white" stroke-width="1.5" d="M0,-3.0v7 M-2.5,-0.5L0,-3.0L2.5,-0.5"/>
                </g>
                <g id="arrowLeft" xlink:href="#dirArrow" transform="rotate(270) translate(-36 17)" onmousedown="handlePan(-1,0)">
                  <use xlink:href="#rim" fill="#404040">
                        <set attributeName="fill" to="#808080" begin="arrowLeft.mouseover" end="arrowLeft.mouseout"/>
                  </use>
                  <path fill="none" stroke="white" stroke-width="1.5" d="M0,-3.0v7 M-2.5,-0.5L0,-3.0L2.5,-0.5"/>
                </g>
        </g>
        <svg viewBox="0 0 15 15" width="100%" height="30px" preserveAspectRatio="xMaxYMin meet">
         <g id="arrow_out" transform="scale(0.3 0.3)">
          <a xlink:href="vi_8c_abfa30fc2e2b4b8b24e2ee5d4bd54f2eb_cgraph_org.svg" target="_base">
           <rect id="button" ry="5" rx="5" y="6" x="6" height="38" width="38"
                fill="#f2f5e9" fill-opacity="0.5" stroke="#606060" stroke-width="1.0"/>
           <path id="arrow"
             d="M 11.500037,31.436501 C 11.940474,20.09759 22.043105,11.32322 32.158766,21.979434 L 37.068811,17.246167 C 37.068811,17.246167 37.088388,32 37.088388,32 L 22.160133,31.978069 C 22.160133,31.978069 26.997745,27.140456 26.997745,27.140456 C 18.528582,18.264221 13.291696,25.230495 11.500037,31.436501 z"
             style="fill:#404040;"/>
          </a>
         </g>
        </svg>
</svg>
