<?xml version="1.0" encoding="UTF-8" standalone="no"?>
<!DOCTYPE svg PUBLIC "-//W3C//DTD SVG 1.1//EN"
 "http://www.w3.org/Graphics/SVG/1.1/DTD/svg11.dtd">
<!-- Generated by graphviz version 2.44.1 (20200629.0846)
 -->
<!-- Title: term_commit Pages: 1 -->
<!--zoomable 578 -->
<svg id="main" version="1.1" xmlns="http://www.w3.org/2000/svg" xmlns:xlink="http://www.w3.org/1999/xlink" xml:space="preserve" onload="init(evt)">
<style type="text/css"><![CDATA[
.edge:hover path { stroke: red; }
.edge:hover polygon { stroke: red; fill: red; }
]]></style>
<script type="text/javascript"><![CDATA[
var edges = document.getElementsByTagName('g');
if (edges && edges.length) {
  for (var i=0;i<edges.length;i++) {
    if (edges[i].id.substr(0,4)=='edge') {
      edges[i].setAttribute('class','edge');
    }
  }
}
]]></script>
        <defs>
                <circle id="rim" cx="0" cy="0" r="7"/>
                <circle id="rim2" cx="0" cy="0" r="3.5"/>
                <g id="zoomPlus">
                        <use xlink:href="#rim" fill="#404040">
                                <set attributeName="fill" to="#808080" begin="zoomplus.mouseover" end="zoomplus.mouseout"/>
                        </use>
                        <path d="M-4,0h8M0,-4v8" fill="none" stroke="white" stroke-width="1.5" pointer-events="none"/>
                </g>
                <g id="zoomMin">
                        <use xlink:href="#rim" fill="#404040">
                                <set attributeName="fill" to="#808080" begin="zoomminus.mouseover" end="zoomminus.mouseout"/>
                        </use>
                        <path d="M-4,0h8" fill="none" stroke="white" stroke-width="1.5" pointer-events="none"/>
                </g>
                <g id="dirArrow">
                        <path fill="none" stroke="white" stroke-width="1.5" d="M0,-3.0v7 M-2.5,-0.5L0,-3.0L2.5,-0.5"/>
                </g>
               <g id="resetDef">
                       <use xlink:href="#rim2" fill="#404040">
                               <set attributeName="fill" to="#808080" begin="reset.mouseover" end="reset.mouseout"/>
                       </use>
               </g>
        </defs>

<script type="text/javascript">
var viewWidth = 1084;
var viewHeight = 578;
var sectionId = 'dynsection-149';
</script>
<script xlink:href="svgpan.js"/>
<svg id="graph" class="graph">
<g id="viewport">
<title>term_commit</title>
<polygon fill="white" stroke="transparent" points="-4,4 -4,-574 1080,-574 1080,4 -4,4"/>
<!-- Node1 -->
<g id="node1" class="node">
<title>Node1</title>
<g id="a_node1"><a xlink:title=" ">
<polygon fill="#bfbfbf" stroke="black" points="1002,-57.5 1002,-76.5 1076,-76.5 1076,-57.5 1002,-57.5"/>
<text text-anchor="middle" x="1039" y="-64.5" font-family="Helvetica,sans-Serif" font-size="10.00">term_commit</text>
</a>
</g>
</g>
<!-- Node2 -->
<g id="node2" class="node">
<title>Node2</title>
<g id="a_node2"><a xlink:href="led_8c.html#ae938cbff964c214e7e4f6aff4d5ce0f7" target="_top" xlink:title=" ">
<polygon fill="white" stroke="black" points="773.5,-76.5 773.5,-95.5 848.5,-95.5 848.5,-76.5 773.5,-76.5"/>
<text text-anchor="middle" x="811" y="-83.5" font-family="Helvetica,sans-Serif" font-size="10.00">led_printparts</text>
</a>
</g>
</g>
<!-- Node1&#45;&gt;Node2 -->
<g id="edge1" class="edge">
<title>Node1&#45;&gt;Node2</title>
<path fill="none" stroke="midnightblue" d="M991.9,-70.88C949.59,-74.43 887.72,-79.63 848.68,-82.92"/>
<polygon fill="midnightblue" stroke="midnightblue" points="992.27,-74.36 1001.94,-70.03 991.68,-67.38 992.27,-74.36"/>
</g>
<!-- Node20 -->
<g id="node20" class="node">
<title>Node20</title>
<g id="a_node20"><a xlink:href="vi_8h.html#af75f29a5ad723ab7a7f1ae4769daaa8f" target="_top" xlink:title=" ">
<polygon fill="white" stroke="black" points="895,-408.5 895,-427.5 957,-427.5 957,-408.5 895,-408.5"/>
<text text-anchor="middle" x="926" y="-415.5" font-family="Helvetica,sans-Serif" font-size="10.00">term_done</text>
</a>
</g>
</g>
<!-- Node1&#45;&gt;Node20 -->
<g id="edge27" class="edge">
<title>Node1&#45;&gt;Node20</title>
<path fill="none" stroke="midnightblue" d="M1031.8,-86.6C1011.12,-151.99 944.96,-361.21 930.02,-408.46"/>
<polygon fill="midnightblue" stroke="midnightblue" points="1035.24,-87.34 1034.92,-76.75 1028.56,-85.23 1035.24,-87.34"/>
</g>
<!-- Node36 -->
<g id="node36" class="node">
<title>Node36</title>
<g id="a_node36"><a xlink:href="vi_8c.html#a2b620fa68325e1b708f07af90f50c3d8" target="_top" xlink:title=" ">
<polygon fill="white" stroke="black" points="889,-38.5 889,-57.5 963,-57.5 963,-38.5 889,-38.5"/>
<text text-anchor="middle" x="926" y="-45.5" font-family="Helvetica,sans-Serif" font-size="10.00">vi_drawagain</text>
</a>
</g>
</g>
<!-- Node1&#45;&gt;Node36 -->
<g id="edge56" class="edge">
<title>Node1&#45;&gt;Node36</title>
<path fill="none" stroke="midnightblue" d="M991.82,-59.09C982.28,-57.46 972.36,-55.76 963.24,-54.2"/>
<polygon fill="midnightblue" stroke="midnightblue" points="991.51,-62.59 1001.96,-60.83 992.7,-55.69 991.51,-62.59"/>
</g>
<!-- Node37 -->
<g id="node37" class="node">
<title>Node37</title>
<g id="a_node37"><a xlink:href="vi_8c.html#a9896bc9688f6102408f66aa0ad7e64f9" target="_top" xlink:title=" ">
<polygon fill="white" stroke="black" points="886,-0.5 886,-19.5 966,-19.5 966,-0.5 886,-0.5"/>
<text text-anchor="middle" x="926" y="-7.5" font-family="Helvetica,sans-Serif" font-size="10.00">vi_drawupdate</text>
</a>
</g>
</g>
<!-- Node1&#45;&gt;Node37 -->
<g id="edge58" class="edge">
<title>Node1&#45;&gt;Node37</title>
<path fill="none" stroke="midnightblue" d="M1011.13,-52.55C997.64,-45.37 981.01,-36.62 966,-29 959.82,-25.87 953.05,-22.53 946.9,-19.54"/>
<polygon fill="midnightblue" stroke="midnightblue" points="1009.86,-55.84 1020.33,-57.47 1013.16,-49.67 1009.86,-55.84"/>
</g>
<!-- Node3 -->
<g id="node3" class="node">
<title>Node3</title>
<g id="a_node3"><a xlink:href="vi_8h.html#ae72255a31cec31233723c101d9465d07" target="_top" xlink:title=" ">
<polygon fill="white" stroke="black" points="572,-95.5 572,-114.5 628,-114.5 628,-95.5 572,-95.5"/>
<text text-anchor="middle" x="600" y="-102.5" font-family="Helvetica,sans-Serif" font-size="10.00">led_input</text>
</a>
</g>
</g>
<!-- Node2&#45;&gt;Node3 -->
<g id="edge2" class="edge">
<title>Node2&#45;&gt;Node3</title>
<path fill="none" stroke="midnightblue" d="M762.96,-90.28C721.44,-94.05 662.34,-99.42 628.2,-102.53"/>
<polygon fill="midnightblue" stroke="midnightblue" points="763.47,-93.74 773.12,-89.35 762.84,-86.77 763.47,-93.74"/>
</g>
<!-- Node10 -->
<g id="node10" class="node">
<title>Node10</title>
<g id="a_node10"><a xlink:href="led_8c.html#a617ec615e86687b5c10df33b271256c8" target="_top" xlink:title=" ">
<polygon fill="white" stroke="black" points="684.5,-114.5 684.5,-133.5 734.5,-133.5 734.5,-114.5 684.5,-114.5"/>
<text text-anchor="middle" x="709.5" y="-121.5" font-family="Helvetica,sans-Serif" font-size="10.00">led_line</text>
</a>
</g>
</g>
<!-- Node2&#45;&gt;Node10 -->
<g id="edge10" class="edge">
<title>Node2&#45;&gt;Node10</title>
<path fill="none" stroke="midnightblue" d="M775.43,-99.2C761.95,-104.35 746.83,-110.13 734.57,-114.81"/>
<polygon fill="midnightblue" stroke="midnightblue" points="776.8,-102.43 784.89,-95.59 774.3,-95.89 776.8,-102.43"/>
</g>
<!-- Node4 -->
<g id="node4" class="node">
<title>Node4</title>
<g id="a_node4"><a xlink:href="vi_8c.html#a653f6b0359cef492e11f404c4bf469b9" target="_top" xlink:title=" ">
<polygon fill="white" stroke="black" points="367.5,-95.5 367.5,-114.5 417.5,-114.5 417.5,-95.5 367.5,-95.5"/>
<text text-anchor="middle" x="392.5" y="-102.5" font-family="Helvetica,sans-Serif" font-size="10.00">vi_input</text>
</a>
</g>
</g>
<!-- Node3&#45;&gt;Node4 -->
<g id="edge3" class="edge">
<title>Node3&#45;&gt;Node4</title>
<path fill="none" stroke="midnightblue" d="M561.64,-105C519.81,-105 453.23,-105 417.7,-105"/>
<polygon fill="midnightblue" stroke="midnightblue" points="561.71,-108.5 571.71,-105 561.71,-101.5 561.71,-108.5"/>
</g>
<!-- Node5 -->
<g id="node5" class="node">
<title>Node5</title>
<g id="a_node5"><a xlink:href="vi_8c.html#a8bb357a77ed61da8858f138c6fa672a6" target="_top" xlink:title=" ">
<polygon fill="white" stroke="black" points="268.5,-76.5 268.5,-95.5 324.5,-95.5 324.5,-76.5 268.5,-76.5"/>
<text text-anchor="middle" x="296.5" y="-83.5" font-family="Helvetica,sans-Serif" font-size="10.00">vc_insert</text>
</a>
</g>
</g>
<!-- Node4&#45;&gt;Node5 -->
<g id="edge4" class="edge">
<title>Node4&#45;&gt;Node5</title>
<path fill="none" stroke="midnightblue" d="M357.34,-98.1C346.57,-95.92 334.82,-93.54 324.61,-91.48"/>
<polygon fill="midnightblue" stroke="midnightblue" points="356.8,-101.56 367.29,-100.11 358.18,-94.7 356.8,-101.56"/>
</g>
<!-- Node8 -->
<g id="node8" class="node">
<title>Node8</title>
<g id="a_node8"><a xlink:href="vi_8c.html#ae37b094c3bb647d8c1a4ac4e858ce518" target="_top" xlink:title=" ">
<polygon fill="white" stroke="black" points="266,-114.5 266,-133.5 327,-133.5 327,-114.5 266,-114.5"/>
<text text-anchor="middle" x="296.5" y="-121.5" font-family="Helvetica,sans-Serif" font-size="10.00">vi_change</text>
</a>
</g>
</g>
<!-- Node4&#45;&gt;Node8 -->
<g id="edge7" class="edge">
<title>Node4&#45;&gt;Node8</title>
<path fill="none" stroke="midnightblue" d="M357.41,-111.89C347.57,-113.88 336.9,-116.04 327.34,-117.97"/>
<polygon fill="midnightblue" stroke="midnightblue" points="358.18,-115.3 367.29,-109.89 356.8,-108.44 358.18,-115.3"/>
</g>
<!-- Node6 -->
<g id="node6" class="node">
<title>Node6</title>
<g id="a_node6"><a xlink:href="vi_8c.html#a8d808e0f3453afe6600673ee1ea5f828" target="_top" xlink:title=" ">
<polygon fill="white" stroke="black" points="82,-218.5 82,-237.5 111,-237.5 111,-218.5 82,-218.5"/>
<text text-anchor="middle" x="96.5" y="-225.5" font-family="Helvetica,sans-Serif" font-size="10.00">vi</text>
</a>
</g>
</g>
<!-- Node5&#45;&gt;Node6 -->
<g id="edge5" class="edge">
<title>Node5&#45;&gt;Node6</title>
<path fill="none" stroke="midnightblue" d="M258.03,-91.23C227.58,-97.08 184.92,-109.07 155,-133 125.64,-156.48 107.65,-199.31 100.74,-218.39"/>
<polygon fill="midnightblue" stroke="midnightblue" points="259.02,-94.61 268.25,-89.41 257.79,-87.72 259.02,-94.61"/>
</g>
<!-- Node7 -->
<g id="node7" class="node">
<title>Node7</title>
<g id="a_node7"><a xlink:href="vi_8c.html#a0ddf1224851353fc92bfbff6f499fa97" target="_top" xlink:title=" ">
<polygon fill="white" stroke="black" points="0,-484.5 0,-503.5 38,-503.5 38,-484.5 0,-484.5"/>
<text text-anchor="middle" x="19" y="-491.5" font-family="Helvetica,sans-Serif" font-size="10.00">main</text>
</a>
</g>
</g>
<!-- Node6&#45;&gt;Node7 -->
<g id="edge6" class="edge">
<title>Node6&#45;&gt;Node7</title>
<path fill="none" stroke="midnightblue" d="M89.92,-247.65C74.85,-300.75 33.7,-445.73 22.72,-484.41"/>
<polygon fill="midnightblue" stroke="midnightblue" points="93.36,-248.36 92.72,-237.78 86.63,-246.45 93.36,-248.36"/>
</g>
<!-- Node9 -->
<g id="node9" class="node">
<title>Node9</title>
<g id="a_node9"><a xlink:href="vi_8c.html#a06cbc6eb843436a0e77e07cbab0c4538" target="_top" xlink:title=" ">
<polygon fill="white" stroke="black" points="161.5,-142.5 161.5,-161.5 223.5,-161.5 223.5,-142.5 161.5,-142.5"/>
<text text-anchor="middle" x="192.5" y="-149.5" font-family="Helvetica,sans-Serif" font-size="10.00">vc_motion</text>
</a>
</g>
</g>
<!-- Node8&#45;&gt;Node9 -->
<g id="edge8" class="edge">
<title>Node8&#45;&gt;Node9</title>
<path fill="none" stroke="midnightblue" d="M256.32,-134.76C245.48,-137.73 233.88,-140.91 223.64,-143.73"/>
<polygon fill="midnightblue" stroke="midnightblue" points="257.28,-138.12 266,-132.1 255.43,-131.37 257.28,-138.12"/>
</g>
<!-- Node9&#45;&gt;Node6 -->
<g id="edge9" class="edge">
<title>Node9&#45;&gt;Node6</title>
<path fill="none" stroke="midnightblue" d="M167.44,-167.07C163.21,-169.92 158.92,-172.97 155,-176 137.33,-189.67 118.4,-207.48 107.27,-218.31"/>
<polygon fill="midnightblue" stroke="midnightblue" points="169.42,-169.95 175.86,-161.53 165.58,-164.1 169.42,-169.95"/>
</g>
<!-- Node10&#45;&gt;Node3 -->
<g id="edge11" class="edge">
<title>Node10&#45;&gt;Node3</title>
<path fill="none" stroke="midnightblue" d="M674.46,-117.98C659.48,-115.34 642.14,-112.27 628.07,-109.78"/>
<polygon fill="midnightblue" stroke="midnightblue" points="673.92,-121.44 684.37,-119.74 675.14,-114.55 673.92,-121.44"/>
</g>
<!-- Node11 -->
<g id="node11" class="node">
<title>Node11</title>
<g id="a_node11"><a xlink:href="vi_8h.html#a173bb468e1e2a066136316f98b49c108" target="_top" xlink:title=" ">
<polygon fill="white" stroke="black" points="567.5,-190.5 567.5,-209.5 632.5,-209.5 632.5,-190.5 567.5,-190.5"/>
<text text-anchor="middle" x="600" y="-197.5" font-family="Helvetica,sans-Serif" font-size="10.00">led_prompt</text>
</a>
</g>
</g>
<!-- Node10&#45;&gt;Node11 -->
<g id="edge12" class="edge">
<title>Node10&#45;&gt;Node11</title>
<path fill="none" stroke="midnightblue" d="M686.63,-139.46C665.01,-154.75 632.62,-177.64 614.5,-190.45"/>
<polygon fill="midnightblue" stroke="midnightblue" points="688.74,-142.26 694.89,-133.63 684.7,-136.54 688.74,-142.26"/>
</g>
<!-- Node12 -->
<g id="node12" class="node">
<title>Node12</title>
<g id="a_node12"><a xlink:href="vi_8h.html#a7ba56272fe1a7d523192729a0bb5edf7" target="_top" xlink:title=" ">
<polygon fill="white" stroke="black" points="271,-294.5 271,-313.5 322,-313.5 322,-294.5 271,-294.5"/>
<text text-anchor="middle" x="296.5" y="-301.5" font-family="Helvetica,sans-Serif" font-size="10.00">ex_read</text>
</a>
</g>
</g>
<!-- Node11&#45;&gt;Node12 -->
<g id="edge13" class="edge">
<title>Node11&#45;&gt;Node12</title>
<path fill="none" stroke="midnightblue" d="M561.99,-212.77C499.64,-234.27 375.3,-277.16 322.32,-295.44"/>
<polygon fill="midnightblue" stroke="midnightblue" points="563.13,-216.07 571.44,-209.51 560.85,-209.46 563.13,-216.07"/>
</g>
<!-- Node16 -->
<g id="node16" class="node">
<title>Node16</title>
<g id="a_node16"><a xlink:href="vi_8c.html#a57965473297aad4c4333fdd3897c11f3" target="_top" xlink:title=" ">
<polygon fill="white" stroke="black" points="458,-190.5 458,-209.5 517,-209.5 517,-190.5 458,-190.5"/>
<text text-anchor="middle" x="487.5" y="-197.5" font-family="Helvetica,sans-Serif" font-size="10.00">vi_prompt</text>
</a>
</g>
</g>
<!-- Node11&#45;&gt;Node16 -->
<g id="edge19" class="edge">
<title>Node11&#45;&gt;Node16</title>
<path fill="none" stroke="midnightblue" d="M556.97,-200C543.67,-200 529.28,-200 517.15,-200"/>
<polygon fill="midnightblue" stroke="midnightblue" points="557.34,-203.5 567.34,-200 557.34,-196.5 557.34,-203.5"/>
</g>
<!-- Node13 -->
<g id="node13" class="node">
<title>Node13</title>
<g id="a_node13"><a xlink:href="ex_8c.html#a0908784dc65be2da119a6b72ef96dec2" target="_top" xlink:title=" ">
<polygon fill="white" stroke="black" points="164.5,-294.5 164.5,-313.5 220.5,-313.5 220.5,-294.5 164.5,-294.5"/>
<text text-anchor="middle" x="192.5" y="-301.5" font-family="Helvetica,sans-Serif" font-size="10.00">ec_insert</text>
</a>
</g>
</g>
<!-- Node12&#45;&gt;Node13 -->
<g id="edge14" class="edge">
<title>Node12&#45;&gt;Node13</title>
<path fill="none" stroke="midnightblue" d="M260.77,-304C247.73,-304 233.11,-304 220.83,-304"/>
<polygon fill="midnightblue" stroke="midnightblue" points="260.81,-307.5 270.81,-304 260.81,-300.5 260.81,-307.5"/>
</g>
<!-- Node14 -->
<g id="node14" class="node">
<title>Node14</title>
<g id="a_node14"><a xlink:href="vi_8h.html#ac395e51f25330a6e6033b6d0d22b2076" target="_top" xlink:title=" ">
<polygon fill="white" stroke="black" points="82,-465.5 82,-484.5 111,-484.5 111,-465.5 82,-465.5"/>
<text text-anchor="middle" x="96.5" y="-472.5" font-family="Helvetica,sans-Serif" font-size="10.00">ex</text>
</a>
</g>
</g>
<!-- Node12&#45;&gt;Node14 -->
<g id="edge15" class="edge">
<title>Node12&#45;&gt;Node14</title>
<path fill="none" stroke="midnightblue" d="M268.3,-318.77C238.51,-335.72 190.28,-365.54 155,-399 132.91,-419.95 112.87,-450.04 103.34,-465.32"/>
<polygon fill="midnightblue" stroke="midnightblue" points="270.27,-321.67 277.28,-313.72 266.85,-315.57 270.27,-321.67"/>
</g>
<!-- Node15 -->
<g id="node15" class="node">
<title>Node15</title>
<g id="a_node15"><a xlink:href="vi_8c.html#a9d85e9ed087401367529ab86a5dbf0c5" target="_top" xlink:title=" ">
<polygon fill="white" stroke="black" points="169,-256.5 169,-275.5 216,-275.5 216,-256.5 169,-256.5"/>
<text text-anchor="middle" x="192.5" y="-263.5" font-family="Helvetica,sans-Serif" font-size="10.00">vi_wait</text>
</a>
</g>
</g>
<!-- Node12&#45;&gt;Node15 -->
<g id="edge17" class="edge">
<title>Node12&#45;&gt;Node15</title>
<path fill="none" stroke="midnightblue" d="M261.41,-291.3C246.54,-285.76 229.51,-279.41 216.22,-274.46"/>
<polygon fill="midnightblue" stroke="midnightblue" points="260.22,-294.59 270.81,-294.8 262.66,-288.03 260.22,-294.59"/>
</g>
<!-- Node14&#45;&gt;Node7 -->
<g id="edge16" class="edge">
<title>Node14&#45;&gt;Node7</title>
<path fill="none" stroke="midnightblue" d="M71.89,-480.94C60.95,-483.69 48.18,-486.91 38.04,-489.46"/>
<polygon fill="midnightblue" stroke="midnightblue" points="72.81,-484.32 81.65,-478.48 71.1,-477.53 72.81,-484.32"/>
</g>
<!-- Node15&#45;&gt;Node6 -->
<g id="edge18" class="edge">
<title>Node15&#45;&gt;Node6</title>
<path fill="none" stroke="midnightblue" d="M159.41,-253.03C142.89,-246.35 123.63,-238.56 111.04,-233.47"/>
<polygon fill="midnightblue" stroke="midnightblue" points="158.16,-256.3 168.75,-256.8 160.79,-249.81 158.16,-256.3"/>
</g>
<!-- Node16&#45;&gt;Node6 -->
<g id="edge20" class="edge">
<title>Node16&#45;&gt;Node6</title>
<path fill="none" stroke="midnightblue" d="M450.01,-212.53C440.96,-215.14 431.21,-217.54 422,-219 302.88,-237.87 156.16,-231.48 111.22,-228.88"/>
<polygon fill="midnightblue" stroke="midnightblue" points="451.32,-215.79 459.87,-209.53 449.28,-209.09 451.32,-215.79"/>
</g>
<!-- Node17 -->
<g id="node17" class="node">
<title>Node17</title>
<g id="a_node17"><a xlink:href="vi_8c.html#ab8e0c9b9d2ef5161c6a3a8828606df5f" target="_top" xlink:title=" ">
<polygon fill="white" stroke="black" points="369,-152.5 369,-171.5 416,-171.5 416,-152.5 369,-152.5"/>
<text text-anchor="middle" x="392.5" y="-159.5" font-family="Helvetica,sans-Serif" font-size="10.00">vi_pipe</text>
</a>
</g>
</g>
<!-- Node16&#45;&gt;Node17 -->
<g id="edge21" class="edge">
<title>Node16&#45;&gt;Node17</title>
<path fill="none" stroke="midnightblue" d="M453.53,-186.53C441.22,-181.5 427.52,-175.9 416.32,-171.32"/>
<polygon fill="midnightblue" stroke="midnightblue" points="452.45,-189.87 463.03,-190.41 455.1,-183.39 452.45,-189.87"/>
</g>
<!-- Node18 -->
<g id="node18" class="node">
<title>Node18</title>
<g id="a_node18"><a xlink:href="vi_8c.html#a93701c59617d4f96cbaa207e89178f87" target="_top" xlink:title=" ">
<polygon fill="white" stroke="black" points="363,-190.5 363,-209.5 422,-209.5 422,-190.5 363,-190.5"/>
<text text-anchor="middle" x="392.5" y="-197.5" font-family="Helvetica,sans-Serif" font-size="10.00">vi_search</text>
</a>
</g>
</g>
<!-- Node16&#45;&gt;Node18 -->
<g id="edge23" class="edge">
<title>Node16&#45;&gt;Node18</title>
<path fill="none" stroke="midnightblue" d="M447.69,-200C439.16,-200 430.28,-200 422.23,-200"/>
<polygon fill="midnightblue" stroke="midnightblue" points="447.84,-203.5 457.84,-200 447.84,-196.5 447.84,-203.5"/>
</g>
<!-- Node17&#45;&gt;Node9 -->
<g id="edge22" class="edge">
<title>Node17&#45;&gt;Node9</title>
<path fill="none" stroke="midnightblue" d="M358.38,-160.33C320.79,-158.43 260,-155.36 223.68,-153.52"/>
<polygon fill="midnightblue" stroke="midnightblue" points="358.62,-163.84 368.79,-160.85 358.98,-156.85 358.62,-163.84"/>
</g>
<!-- Node19 -->
<g id="node19" class="node">
<title>Node19</title>
<g id="a_node19"><a xlink:href="vi_8c.html#aaa4777ea0715ea846346d0f27a0cfa3f" target="_top" xlink:title=" ">
<polygon fill="white" stroke="black" points="267,-190.5 267,-209.5 326,-209.5 326,-190.5 267,-190.5"/>
<text text-anchor="middle" x="296.5" y="-197.5" font-family="Helvetica,sans-Serif" font-size="10.00">vi_motion</text>
</a>
</g>
</g>
<!-- Node18&#45;&gt;Node19 -->
<g id="edge24" class="edge">
<title>Node18&#45;&gt;Node19</title>
<path fill="none" stroke="midnightblue" d="M352.6,-200C343.71,-200 334.41,-200 326.04,-200"/>
<polygon fill="midnightblue" stroke="midnightblue" points="352.79,-203.5 362.79,-200 352.79,-196.5 352.79,-203.5"/>
</g>
<!-- Node19&#45;&gt;Node6 -->
<g id="edge26" class="edge">
<title>Node19&#45;&gt;Node6</title>
<path fill="none" stroke="midnightblue" d="M256.53,-202.42C228.23,-204.53 189.07,-208.18 155,-214 139.81,-216.59 122.68,-220.95 111.1,-224.12"/>
<polygon fill="midnightblue" stroke="midnightblue" points="257.09,-205.89 266.82,-201.68 256.6,-198.9 257.09,-205.89"/>
</g>
<!-- Node19&#45;&gt;Node9 -->
<g id="edge25" class="edge">
<title>Node19&#45;&gt;Node9</title>
<path fill="none" stroke="midnightblue" d="M265.53,-185.9C248.86,-178.05 228.56,-168.5 213.76,-161.54"/>
<polygon fill="midnightblue" stroke="midnightblue" points="264.32,-189.2 274.86,-190.29 267.3,-182.86 264.32,-189.2"/>
</g>
<!-- Node20&#45;&gt;Node6 -->
<g id="edge55" class="edge">
<title>Node20&#45;&gt;Node6</title>
<path fill="none" stroke="midnightblue" d="M900.55,-403.15C861.73,-381.03 782.98,-342 710.5,-342 710.5,-342 710.5,-342 295.5,-342 232.49,-342 207.69,-357.56 155,-323 123.4,-302.28 106.48,-257.6 100.29,-237.79"/>
<polygon fill="midnightblue" stroke="midnightblue" points="899.12,-406.37 909.53,-408.37 902.64,-400.32 899.12,-406.37"/>
</g>
<!-- Node20&#45;&gt;Node7 -->
<g id="edge52" class="edge">
<title>Node20&#45;&gt;Node7</title>
<path fill="none" stroke="midnightblue" d="M914.56,-436.35C901.76,-457.4 878.25,-491.74 850,-513 796.49,-553.28 777.48,-570 710.5,-570 710.5,-570 710.5,-570 191.5,-570 136.61,-570 123.11,-556.51 74,-532 58.2,-524.12 41.87,-511.97 31.36,-503.54"/>
<polygon fill="midnightblue" stroke="midnightblue" points="917.59,-438.09 919.66,-427.7 911.56,-434.53 917.59,-438.09"/>
</g>
<!-- Node21 -->
<g id="node21" class="node">
<title>Node21</title>
<g id="a_node21"><a xlink:href="vi_8h.html#a9d4dfeb0bf734650c92cdc08c208e846" target="_top" xlink:title=" ">
<polygon fill="white" stroke="black" points="781.5,-408.5 781.5,-427.5 840.5,-427.5 840.5,-408.5 781.5,-408.5"/>
<text text-anchor="middle" x="811" y="-415.5" font-family="Helvetica,sans-Serif" font-size="10.00">cmd_pipe</text>
</a>
</g>
</g>
<!-- Node20&#45;&gt;Node21 -->
<g id="edge28" class="edge">
<title>Node20&#45;&gt;Node21</title>
<path fill="none" stroke="midnightblue" d="M884.52,-418C870.06,-418 854.08,-418 840.81,-418"/>
<polygon fill="midnightblue" stroke="midnightblue" points="884.72,-421.5 894.72,-418 884.72,-414.5 884.72,-421.5"/>
</g>
<!-- Node35 -->
<g id="node35" class="node">
<title>Node35</title>
<g id="a_node35"><a xlink:href="vi_8h.html#a9c73cda93070687cc3b42273d6e6f981" target="_top" xlink:title=" ">
<polygon fill="white" stroke="black" points="772,-484.5 772,-503.5 850,-503.5 850,-484.5 772,-484.5"/>
<text text-anchor="middle" x="811" y="-491.5" font-family="Helvetica,sans-Serif" font-size="10.00">term_suspend</text>
</a>
</g>
</g>
<!-- Node20&#45;&gt;Node35 -->
<g id="edge53" class="edge">
<title>Node20&#45;&gt;Node35</title>
<path fill="none" stroke="midnightblue" d="M902.31,-433.26C879.59,-448.54 845.32,-471.59 826.2,-484.45"/>
<polygon fill="midnightblue" stroke="midnightblue" points="904.34,-436.11 910.69,-427.63 900.44,-430.3 904.34,-436.11"/>
</g>
<!-- Node21&#45;&gt;Node17 -->
<g id="edge51" class="edge">
<title>Node21&#45;&gt;Node17</title>
<path fill="none" stroke="midnightblue" d="M803.4,-398.67C786.21,-351.69 735.17,-231.67 647,-181 571.81,-137.79 462.69,-149.72 416.03,-157.6"/>
<polygon fill="midnightblue" stroke="midnightblue" points="800.16,-400 806.8,-408.25 806.75,-397.66 800.16,-400"/>
</g>
<!-- Node22 -->
<g id="node22" class="node">
<title>Node22</title>
<g id="a_node22"><a xlink:href="vi_8h.html#aa87e7b54b5a848dc2120731a0e59e09a" target="_top" xlink:title=" ">
<polygon fill="white" stroke="black" points="569,-408.5 569,-427.5 631,-427.5 631,-408.5 569,-408.5"/>
<text text-anchor="middle" x="600" y="-415.5" font-family="Helvetica,sans-Serif" font-size="10.00">cmd_exec</text>
</a>
</g>
</g>
<!-- Node21&#45;&gt;Node22 -->
<g id="edge29" class="edge">
<title>Node21&#45;&gt;Node22</title>
<path fill="none" stroke="midnightblue" d="M771.36,-418C730.93,-418 668.31,-418 631.31,-418"/>
<polygon fill="midnightblue" stroke="midnightblue" points="771.38,-421.5 781.38,-418 771.38,-414.5 771.38,-421.5"/>
</g>
<!-- Node23 -->
<g id="node23" class="node">
<title>Node23</title>
<g id="a_node23"><a xlink:href="ex_8c.html#adcd83f163f659bd2596bcfc25d74bde9" target="_top" xlink:title=" ">
<polygon fill="white" stroke="black" points="461,-370.5 461,-389.5 514,-389.5 514,-370.5 461,-370.5"/>
<text text-anchor="middle" x="487.5" y="-377.5" font-family="Helvetica,sans-Serif" font-size="10.00">ec_exec</text>
</a>
</g>
</g>
<!-- Node21&#45;&gt;Node23 -->
<g id="edge41" class="edge">
<title>Node21&#45;&gt;Node23</title>
<path fill="none" stroke="midnightblue" d="M771.41,-413.44C704.94,-405.58 570.58,-389.7 514.26,-383.04"/>
<polygon fill="midnightblue" stroke="midnightblue" points="771.13,-416.93 781.47,-414.63 771.95,-409.98 771.13,-416.93"/>
</g>
<!-- Node30 -->
<g id="node30" class="node">
<title>Node30</title>
<g id="a_node30"><a xlink:href="ex_8c.html#add0e79e1f1e3d45f4eaa6fbe5c1ca443" target="_top" xlink:title=" ">
<polygon fill="white" stroke="black" points="684,-446.5 684,-465.5 735,-465.5 735,-446.5 684,-446.5"/>
<text text-anchor="middle" x="709.5" y="-453.5" font-family="Helvetica,sans-Serif" font-size="10.00">ec_read</text>
</a>
</g>
</g>
<!-- Node21&#45;&gt;Node30 -->
<g id="edge42" class="edge">
<title>Node21&#45;&gt;Node30</title>
<path fill="none" stroke="midnightblue" d="M775.19,-431.29C762.02,-436.32 747.32,-441.94 735.26,-446.55"/>
<polygon fill="midnightblue" stroke="midnightblue" points="776.8,-434.43 784.89,-427.59 774.3,-427.89 776.8,-434.43"/>
</g>
<!-- Node31 -->
<g id="node31" class="node">
<title>Node31</title>
<g id="a_node31"><a xlink:href="ex_8c.html#a057b67e2d4f23df3ad50a9d3ec86125b" target="_top" xlink:title=" ">
<polygon fill="white" stroke="black" points="683,-484.5 683,-503.5 736,-503.5 736,-484.5 683,-484.5"/>
<text text-anchor="middle" x="709.5" y="-491.5" font-family="Helvetica,sans-Serif" font-size="10.00">ec_write</text>
</a>
</g>
</g>
<!-- Node21&#45;&gt;Node31 -->
<g id="edge43" class="edge">
<title>Node21&#45;&gt;Node31</title>
<path fill="none" stroke="midnightblue" d="M789.74,-433.75C774.9,-445.24 754.26,-461.17 736,-475 731.95,-478.07 727.52,-481.38 723.5,-484.37"/>
<polygon fill="midnightblue" stroke="midnightblue" points="791.98,-436.44 797.74,-427.54 787.69,-430.9 791.98,-436.44"/>
</g>
<!-- Node22&#45;&gt;Node23 -->
<g id="edge30" class="edge">
<title>Node22&#45;&gt;Node23</title>
<path fill="none" stroke="midnightblue" d="M561.26,-405.02C545.71,-399.67 528.1,-393.62 514.1,-388.8"/>
<polygon fill="midnightblue" stroke="midnightblue" points="560.52,-408.47 571.12,-408.41 562.8,-401.85 560.52,-408.47"/>
</g>
<!-- Node29 -->
<g id="node29" class="node">
<title>Node29</title>
<g id="a_node29"><a xlink:href="ex_8c.html#aa69f426ff9728078fbb36f448c624a90" target="_top" xlink:title=" ">
<polygon fill="white" stroke="black" points="459.5,-408.5 459.5,-427.5 515.5,-427.5 515.5,-408.5 459.5,-408.5"/>
<text text-anchor="middle" x="487.5" y="-415.5" font-family="Helvetica,sans-Serif" font-size="10.00">ec_make</text>
</a>
</g>
</g>
<!-- Node22&#45;&gt;Node29 -->
<g id="edge40" class="edge">
<title>Node22&#45;&gt;Node29</title>
<path fill="none" stroke="midnightblue" d="M558.69,-418C544.37,-418 528.6,-418 515.64,-418"/>
<polygon fill="midnightblue" stroke="midnightblue" points="558.81,-421.5 568.81,-418 558.81,-414.5 558.81,-421.5"/>
</g>
<!-- Node24 -->
<g id="node24" class="node">
<title>Node24</title>
<g id="a_node24"><a xlink:href="ex_8c.html#a7d848d20211b2e1c868dde98ec5dfae9" target="_top" xlink:title=" ">
<polygon fill="white" stroke="black" points="369,-389.5 369,-408.5 416,-408.5 416,-389.5 369,-389.5"/>
<text text-anchor="middle" x="392.5" y="-396.5" font-family="Helvetica,sans-Serif" font-size="10.00">ex_line</text>
</a>
</g>
</g>
<!-- Node23&#45;&gt;Node24 -->
<g id="edge31" class="edge">
<title>Node23&#45;&gt;Node24</title>
<path fill="none" stroke="midnightblue" d="M450.7,-387.31C439.07,-389.69 426.49,-392.26 416.11,-394.38"/>
<polygon fill="midnightblue" stroke="midnightblue" points="451.5,-390.72 460.59,-385.29 450.1,-383.87 451.5,-390.72"/>
</g>
<!-- Node25 -->
<g id="node25" class="node">
<title>Node25</title>
<g id="a_node25"><a xlink:href="ex_8c.html#ab15ebfef933256d9741128e2ddf3f9b5" target="_top" xlink:title=" ">
<polygon fill="white" stroke="black" points="270,-427.5 270,-446.5 323,-446.5 323,-427.5 270,-427.5"/>
<text text-anchor="middle" x="296.5" y="-434.5" font-family="Helvetica,sans-Serif" font-size="10.00">ex_exec</text>
</a>
</g>
</g>
<!-- Node24&#45;&gt;Node25 -->
<g id="edge32" class="edge">
<title>Node24&#45;&gt;Node25</title>
<path fill="none" stroke="midnightblue" d="M359.11,-412.09C346.6,-417.15 332.55,-422.83 321.03,-427.49"/>
<polygon fill="midnightblue" stroke="midnightblue" points="360.79,-415.19 368.75,-408.2 358.16,-408.7 360.79,-415.19"/>
</g>
<!-- Node26 -->
<g id="node26" class="node">
<title>Node26</title>
<g id="a_node26"><a xlink:href="ex_8c.html#a70c571bdde329a65e216c19b4aeaa628" target="_top" xlink:title=" ">
<polygon fill="white" stroke="black" points="167.5,-408.5 167.5,-427.5 217.5,-427.5 217.5,-408.5 167.5,-408.5"/>
<text text-anchor="middle" x="192.5" y="-415.5" font-family="Helvetica,sans-Serif" font-size="10.00">ec_glob</text>
</a>
</g>
</g>
<!-- Node25&#45;&gt;Node26 -->
<g id="edge33" class="edge">
<title>Node25&#45;&gt;Node26</title>
<path fill="none" stroke="midnightblue" d="M259.58,-430.31C245.76,-427.73 230.31,-424.86 217.83,-422.53"/>
<polygon fill="midnightblue" stroke="midnightblue" points="259.29,-433.81 269.76,-432.21 260.57,-426.93 259.29,-433.81"/>
</g>
<!-- Node27 -->
<g id="node27" class="node">
<title>Node27</title>
<g id="a_node27"><a xlink:href="vi_8h.html#aa75c73cccb4878ec06ea5bf5b1b02295" target="_top" xlink:title=" ">
<polygon fill="white" stroke="black" points="155,-484.5 155,-503.5 230,-503.5 230,-484.5 155,-484.5"/>
<text text-anchor="middle" x="192.5" y="-491.5" font-family="Helvetica,sans-Serif" font-size="10.00">ex_command</text>
</a>
</g>
</g>
<!-- Node25&#45;&gt;Node27 -->
<g id="edge35" class="edge">
<title>Node25&#45;&gt;Node27</title>
<path fill="none" stroke="midnightblue" d="M269.38,-451.59C250.89,-461.93 226.6,-475.5 210.55,-484.47"/>
<polygon fill="midnightblue" stroke="midnightblue" points="271.18,-454.6 278.2,-446.67 267.76,-448.49 271.18,-454.6"/>
</g>
<!-- Node26&#45;&gt;Node24 -->
<g id="edge34" class="edge">
<title>Node26&#45;&gt;Node24</title>
<path fill="none" stroke="midnightblue" d="M227.99,-414.69C268.42,-410.81 334.29,-404.49 368.79,-401.18"/>
<polygon fill="midnightblue" stroke="midnightblue" points="227.42,-411.23 217.8,-415.67 228.09,-418.2 227.42,-411.23"/>
</g>
<!-- Node27&#45;&gt;Node6 -->
<g id="edge39" class="edge">
<title>Node27&#45;&gt;Node6</title>
<path fill="none" stroke="midnightblue" d="M162.85,-478.41C159.89,-475.91 157.17,-473.1 155,-470 101.22,-393.26 97.3,-272.74 97.35,-237.79"/>
<polygon fill="midnightblue" stroke="midnightblue" points="160.91,-481.33 171.06,-484.35 165.01,-475.65 160.91,-481.33"/>
</g>
<!-- Node27&#45;&gt;Node14 -->
<g id="edge36" class="edge">
<title>Node27&#45;&gt;Node14</title>
<path fill="none" stroke="midnightblue" d="M144.73,-484.55C132.54,-482.08 120.33,-479.61 111.38,-477.8"/>
<polygon fill="midnightblue" stroke="midnightblue" points="144.39,-488.05 154.89,-486.6 145.78,-481.19 144.39,-488.05"/>
</g>
<!-- Node28 -->
<g id="node28" class="node">
<title>Node28</title>
<g id="a_node28"><a xlink:href="vi_8h.html#abe53b5c10f94f20cd5ed024371615fa1" target="_top" xlink:title=" ">
<polygon fill="white" stroke="black" points="74,-503.5 74,-522.5 119,-522.5 119,-503.5 74,-503.5"/>
<text text-anchor="middle" x="96.5" y="-510.5" font-family="Helvetica,sans-Serif" font-size="10.00">ex_init</text>
</a>
</g>
</g>
<!-- Node27&#45;&gt;Node28 -->
<g id="edge37" class="edge">
<title>Node27&#45;&gt;Node28</title>
<path fill="none" stroke="midnightblue" d="M144.85,-503.43C135.89,-505.24 126.91,-507.06 119.21,-508.61"/>
<polygon fill="midnightblue" stroke="midnightblue" points="145.78,-506.81 154.89,-501.4 144.39,-499.95 145.78,-506.81"/>
</g>
<!-- Node28&#45;&gt;Node7 -->
<g id="edge38" class="edge">
<title>Node28&#45;&gt;Node7</title>
<path fill="none" stroke="midnightblue" d="M63.83,-505.03C55.19,-502.86 46.11,-500.57 38.47,-498.65"/>
<polygon fill="midnightblue" stroke="midnightblue" points="63.11,-508.46 73.66,-507.5 64.82,-501.67 63.11,-508.46"/>
</g>
<!-- Node32 -->
<g id="node32" class="node">
<title>Node32</title>
<g id="a_node32"><a xlink:href="ex_8c.html#ab0cb848a971a3b2c09fcb456d887dd6b" target="_top" xlink:title=" ">
<polygon fill="white" stroke="black" points="553,-446.5 553,-465.5 647,-465.5 647,-446.5 553,-446.5"/>
<text text-anchor="middle" x="600" y="-453.5" font-family="Helvetica,sans-Serif" font-size="10.00">ex_modifiedbuffer</text>
</a>
</g>
</g>
<!-- Node31&#45;&gt;Node32 -->
<g id="edge44" class="edge">
<title>Node31&#45;&gt;Node32</title>
<path fill="none" stroke="midnightblue" d="M673,-481.45C658.36,-476.28 641.66,-470.37 628.04,-465.56"/>
<polygon fill="midnightblue" stroke="midnightblue" points="672.16,-484.87 682.75,-484.9 674.49,-478.27 672.16,-484.87"/>
</g>
<!-- Node32&#45;&gt;Node23 -->
<g id="edge47" class="edge">
<title>Node32&#45;&gt;Node23</title>
<path fill="none" stroke="midnightblue" d="M561.12,-441.9C558.29,-440.39 555.55,-438.75 553,-437 533.83,-423.82 534.79,-413.99 517,-399 513.09,-395.7 508.59,-392.48 504.34,-389.65"/>
<polygon fill="midnightblue" stroke="midnightblue" points="559.77,-445.14 570.3,-446.34 562.81,-438.84 559.77,-445.14"/>
</g>
<!-- Node32&#45;&gt;Node29 -->
<g id="edge48" class="edge">
<title>Node32&#45;&gt;Node29</title>
<path fill="none" stroke="midnightblue" d="M561.55,-443.12C546.49,-437.94 529.44,-432.08 515.61,-427.32"/>
<polygon fill="midnightblue" stroke="midnightblue" points="560.52,-446.47 571.12,-446.41 562.8,-439.85 560.52,-446.47"/>
</g>
<!-- Node33 -->
<g id="node33" class="node">
<title>Node33</title>
<g id="a_node33"><a xlink:href="ex_8c.html#a8059390ad69866fa8e14bdb2521d4dc2" target="_top" xlink:title=" ">
<polygon fill="white" stroke="black" points="368.5,-465.5 368.5,-484.5 416.5,-484.5 416.5,-465.5 368.5,-465.5"/>
<text text-anchor="middle" x="392.5" y="-472.5" font-family="Helvetica,sans-Serif" font-size="10.00">ec_edit</text>
</a>
</g>
</g>
<!-- Node32&#45;&gt;Node33 -->
<g id="edge45" class="edge">
<title>Node32&#45;&gt;Node33</title>
<path fill="none" stroke="midnightblue" d="M542.9,-461.19C501.38,-465.03 446.97,-470.06 416.59,-472.87"/>
<polygon fill="midnightblue" stroke="midnightblue" points="543.25,-464.67 552.88,-460.26 542.6,-457.7 543.25,-464.67"/>
</g>
<!-- Node34 -->
<g id="node34" class="node">
<title>Node34</title>
<g id="a_node34"><a xlink:href="ex_8c.html#a87eef446de152fad41ce88a9a343b87d" target="_top" xlink:title=" ">
<polygon fill="white" stroke="black" points="463.5,-484.5 463.5,-503.5 511.5,-503.5 511.5,-484.5 463.5,-484.5"/>
<text text-anchor="middle" x="487.5" y="-491.5" font-family="Helvetica,sans-Serif" font-size="10.00">ec_quit</text>
</a>
</g>
</g>
<!-- Node32&#45;&gt;Node34 -->
<g id="edge49" class="edge">
<title>Node32&#45;&gt;Node34</title>
<path fill="none" stroke="midnightblue" d="M561.2,-469C544.7,-474.67 525.88,-481.14 511.53,-486.08"/>
<polygon fill="midnightblue" stroke="midnightblue" points="562.8,-472.15 571.12,-465.59 560.52,-465.53 562.8,-472.15"/>
</g>
<!-- Node33&#45;&gt;Node28 -->
<g id="edge46" class="edge">
<title>Node33&#45;&gt;Node28</title>
<path fill="none" stroke="midnightblue" d="M358.44,-485.15C326.07,-494.52 275.18,-507.76 230,-513 191.15,-517.51 145.47,-516.03 119.16,-514.53"/>
<polygon fill="midnightblue" stroke="midnightblue" points="359.66,-488.44 368.26,-482.26 357.68,-481.73 359.66,-488.44"/>
</g>
<!-- Node34&#45;&gt;Node31 -->
<g id="edge50" class="edge">
<title>Node34&#45;&gt;Node31</title>
<path fill="none" stroke="midnightblue" d="M521.89,-494C566.05,-494 642.94,-494 682.83,-494"/>
<polygon fill="midnightblue" stroke="midnightblue" points="521.67,-490.5 511.67,-494 521.67,-497.5 521.67,-490.5"/>
</g>
<!-- Node35&#45;&gt;Node6 -->
<g id="edge54" class="edge">
<title>Node35&#45;&gt;Node6</title>
<path fill="none" stroke="midnightblue" d="M767.9,-506.25C725.98,-517.36 659.6,-532 601,-532 601,-532 601,-532 391.5,-532 377.34,-532 164.43,-447.56 155,-437 101.12,-376.63 97.19,-270.25 97.31,-237.72"/>
<polygon fill="midnightblue" stroke="midnightblue" points="769.01,-509.58 777.75,-503.59 767.18,-502.82 769.01,-509.58"/>
</g>
<!-- Node36&#45;&gt;Node6 -->
<g id="edge57" class="edge">
<title>Node36&#45;&gt;Node6</title>
<path fill="none" stroke="midnightblue" d="M878.69,-48C835.25,-48 768.47,-48 710.5,-48 710.5,-48 710.5,-48 295.5,-48 229.79,-48 203.48,-49.65 155,-94 116.71,-129.03 102.87,-193.88 98.88,-218.34"/>
<polygon fill="midnightblue" stroke="midnightblue" points="878.95,-51.5 888.95,-48 878.95,-44.5 878.95,-51.5"/>
</g>
<!-- Node37&#45;&gt;Node6 -->
<g id="edge59" class="edge">
<title>Node37&#45;&gt;Node6</title>
<path fill="none" stroke="midnightblue" d="M875.84,-10C832.36,-10 767.21,-10 710.5,-10 710.5,-10 710.5,-10 295.5,-10 230.93,-10 201.79,-2.5 155,-47 104.11,-95.4 98.1,-188.56 97.51,-218.49"/>
<polygon fill="midnightblue" stroke="midnightblue" points="875.86,-13.5 885.86,-10 875.86,-6.5 875.86,-13.5"/>
</g>
</g>
</svg>
        <g id="navigator" transform="translate(0 0)" fill="#404254">
                <rect fill="#f2f5e9" fill-opacity="0.5" stroke="#606060" stroke-width=".5" x="0" y="0" width="60" height="60"/>
                <use id="zoomplus" xlink:href="#zoomPlus" x="17" y="9" onmousedown="handleZoom(evt,'in')"/>
                <use id="zoomminus" xlink:href="#zoomMin" x="42" y="9" onmousedown="handleZoom(evt,'out')"/>
                <use id="reset" xlink:href="#resetDef" x="30" y="36" onmousedown="handleReset()"/>
                <g id="arrowUp" xlink:href="#dirArrow" transform="translate(30 24)" onmousedown="handlePan(0,-1)">
                  <use xlink:href="#rim" fill="#404040">
                        <set attributeName="fill" to="#808080" begin="arrowUp.mouseover" end="arrowUp.mouseout"/>
                  </use>
                  <path fill="none" stroke="white" stroke-width="1.5" d="M0,-3.0v7 M-2.5,-0.5L0,-3.0L2.5,-0.5"/>
                </g>
                <g id="arrowRight" xlink:href="#dirArrow" transform="rotate(90) translate(36 -43)" onmousedown="handlePan(1,0)">
                  <use xlink:href="#rim" fill="#404040">
                        <set attributeName="fill" to="#808080" begin="arrowRight.mouseover" end="arrowRight.mouseout"/>
                  </use>
                  <path fill="none" stroke="white" stroke-width="1.5" d="M0,-3.0v7 M-2.5,-0.5L0,-3.0L2.5,-0.5"/>
                </g>
                <g id="arrowDown" xlink:href="#dirArrow" transform="rotate(180) translate(-30 -48)" onmousedown="handlePan(0,1)">
                  <use xlink:href="#rim" fill="#404040">
                        <set attributeName="fill" to="#808080" begin="arrowDown.mouseover" end="arrowDown.mouseout"/>
                  </use>
                  <path fill="none" stroke="white" stroke-width="1.5" d="M0,-3.0v7 M-2.5,-0.5L0,-3.0L2.5,-0.5"/>
                </g>
                <g id="arrowLeft" xlink:href="#dirArrow" transform="rotate(270) translate(-36 17)" onmousedown="handlePan(-1,0)">
                  <use xlink:href="#rim" fill="#404040">
                        <set attributeName="fill" to="#808080" begin="arrowLeft.mouseover" end="arrowLeft.mouseout"/>
                  </use>
                  <path fill="none" stroke="white" stroke-width="1.5" d="M0,-3.0v7 M-2.5,-0.5L0,-3.0L2.5,-0.5"/>
                </g>
        </g>
        <svg viewBox="0 0 15 15" width="100%" height="30px" preserveAspectRatio="xMaxYMin meet">
         <g id="arrow_out" transform="scale(0.3 0.3)">
          <a xlink:href="vi_8h_ac34816f514affc4dfb9d34f361175bf9_icgraph_org.svg" target="_base">
           <rect id="button" ry="5" rx="5" y="6" x="6" height="38" width="38"
                fill="#f2f5e9" fill-opacity="0.5" stroke="#606060" stroke-width="1.0"/>
           <path id="arrow"
             d="M 11.500037,31.436501 C 11.940474,20.09759 22.043105,11.32322 32.158766,21.979434 L 37.068811,17.246167 C 37.068811,17.246167 37.088388,32 37.088388,32 L 22.160133,31.978069 C 22.160133,31.978069 26.997745,27.140456 26.997745,27.140456 C 18.528582,18.264221 13.291696,25.230495 11.500037,31.436501 z"
             style="fill:#404040;"/>
          </a>
         </g>
        </svg>
</svg>
