<?xml version="1.0" encoding="UTF-8" standalone="no"?>
<!DOCTYPE svg PUBLIC "-//W3C//DTD SVG 1.1//EN"
 "http://www.w3.org/Graphics/SVG/1.1/DTD/svg11.dtd">
<!-- Generated by graphviz version 2.44.1 (20200629.0846)
 -->
<!-- Title: syn_init Pages: 1 -->
<!--zoomable 408 -->
<svg id="main" version="1.1" xmlns="http://www.w3.org/2000/svg" xmlns:xlink="http://www.w3.org/1999/xlink" xml:space="preserve" onload="init(evt)">
<style type="text/css"><![CDATA[
.edge:hover path { stroke: red; }
.edge:hover polygon { stroke: red; fill: red; }
]]></style>
<script type="text/javascript"><![CDATA[
var edges = document.getElementsByTagName('g');
if (edges && edges.length) {
  for (var i=0;i<edges.length;i++) {
    if (edges[i].id.substr(0,4)=='edge') {
      edges[i].setAttribute('class','edge');
    }
  }
}
]]></script>
        <defs>
                <circle id="rim" cx="0" cy="0" r="7"/>
                <circle id="rim2" cx="0" cy="0" r="3.5"/>
                <g id="zoomPlus">
                        <use xlink:href="#rim" fill="#404040">
                                <set attributeName="fill" to="#808080" begin="zoomplus.mouseover" end="zoomplus.mouseout"/>
                        </use>
                        <path d="M-4,0h8M0,-4v8" fill="none" stroke="white" stroke-width="1.5" pointer-events="none"/>
                </g>
                <g id="zoomMin">
                        <use xlink:href="#rim" fill="#404040">
                                <set attributeName="fill" to="#808080" begin="zoomminus.mouseover" end="zoomminus.mouseout"/>
                        </use>
                        <path d="M-4,0h8" fill="none" stroke="white" stroke-width="1.5" pointer-events="none"/>
                </g>
                <g id="dirArrow">
                        <path fill="none" stroke="white" stroke-width="1.5" d="M0,-3.0v7 M-2.5,-0.5L0,-3.0L2.5,-0.5"/>
                </g>
               <g id="resetDef">
                       <use xlink:href="#rim2" fill="#404040">
                               <set attributeName="fill" to="#808080" begin="reset.mouseover" end="reset.mouseout"/>
                       </use>
               </g>
        </defs>

<script type="text/javascript">
var viewWidth = 1028;
var viewHeight = 408;
var sectionId = 'dynsection-195';
</script>
<script xlink:href="svgpan.js"/>
<svg id="graph" class="graph">
<g id="viewport">
<title>syn_init</title>
<polygon fill="white" stroke="transparent" points="-4,4 -4,-404 1024,-404 1024,4 -4,4"/>
<!-- Node1 -->
<g id="node1" class="node">
<title>Node1</title>
<g id="a_node1"><a xlink:title=" ">
<polygon fill="#bfbfbf" stroke="black" points="0,-171.5 0,-190.5 50,-190.5 50,-171.5 0,-171.5"/>
<text text-anchor="middle" x="25" y="-178.5" font-family="Helvetica,sans-Serif" font-size="10.00">syn_init</text>
</a>
</g>
</g>
<!-- Node2 -->
<g id="node2" class="node">
<title>Node2</title>
<g id="a_node2"><a xlink:href="conf_8c.html#a1a3b977b82bc19d19926e54e4f9de9ba" target="_top" xlink:title=" ">
<polygon fill="white" stroke="black" points="86,-247.5 86,-266.5 158,-266.5 158,-247.5 86,-247.5"/>
<text text-anchor="middle" x="122" y="-254.5" font-family="Helvetica,sans-Serif" font-size="10.00">conf_filetype</text>
</a>
</g>
</g>
<!-- Node1&#45;&gt;Node2 -->
<g id="edge1" class="edge">
<title>Node1&#45;&gt;Node2</title>
<path fill="none" stroke="midnightblue" d="M36.32,-190.58C48.04,-201.3 67.89,-219.01 86,-233 89.71,-235.86 93.73,-238.79 97.69,-241.56"/>
<polygon fill="midnightblue" stroke="midnightblue" points="95.86,-244.55 106.09,-247.32 99.82,-238.78 95.86,-244.55"/>
</g>
<!-- Node3 -->
<g id="node3" class="node">
<title>Node3</title>
<g id="a_node3"><a xlink:href="conf_8c.html#a16ebf87f52698ee8c6b831cd629fb3b8" target="_top" xlink:title=" ">
<polygon fill="white" stroke="black" points="194,-190.5 194,-209.5 271,-209.5 271,-190.5 194,-190.5"/>
<text text-anchor="middle" x="232.5" y="-197.5" font-family="Helvetica,sans-Serif" font-size="10.00">conf_highlight</text>
</a>
</g>
</g>
<!-- Node1&#45;&gt;Node3 -->
<g id="edge2" class="edge">
<title>Node1&#45;&gt;Node3</title>
<path fill="none" stroke="midnightblue" d="M50.12,-190.5C60.91,-194.26 73.91,-198.13 86,-200 118.35,-205 155.23,-204.94 183.77,-203.66"/>
<polygon fill="midnightblue" stroke="midnightblue" points="184.07,-207.15 193.88,-203.14 183.71,-200.16 184.07,-207.15"/>
</g>
<!-- Node4 -->
<g id="node4" class="node">
<title>Node4</title>
<g id="a_node4"><a xlink:href="rset_8c.html#a01a879f1a8002d2fb591b604b2ca3704" target="_top" xlink:title=" ">
<polygon fill="white" stroke="black" points="201.5,-133.5 201.5,-152.5 263.5,-152.5 263.5,-133.5 201.5,-133.5"/>
<text text-anchor="middle" x="232.5" y="-140.5" font-family="Helvetica,sans-Serif" font-size="10.00">rset_make</text>
</a>
</g>
</g>
<!-- Node1&#45;&gt;Node4 -->
<g id="edge3" class="edge">
<title>Node1&#45;&gt;Node4</title>
<path fill="none" stroke="midnightblue" d="M32.37,-171.45C42.08,-157.87 61.98,-133.59 86,-124 123.09,-109.19 169.32,-119.65 199.59,-129.98"/>
<polygon fill="midnightblue" stroke="midnightblue" points="198.61,-133.34 209.2,-133.44 200.98,-126.76 198.61,-133.34"/>
</g>
<!-- Node30 -->
<g id="node30" class="node">
<title>Node30</title>
<g id="a_node30"><a xlink:href="syn_8c.html#aeb0e8fff89077c709508b89c2d80fcd1" target="_top" xlink:title=" ">
<polygon fill="white" stroke="black" points="95.5,-133.5 95.5,-152.5 148.5,-152.5 148.5,-133.5 95.5,-133.5"/>
<text text-anchor="middle" x="122" y="-140.5" font-family="Helvetica,sans-Serif" font-size="10.00">syn_find</text>
</a>
</g>
</g>
<!-- Node1&#45;&gt;Node30 -->
<g id="edge40" class="edge">
<title>Node1&#45;&gt;Node30</title>
<path fill="none" stroke="midnightblue" d="M49.97,-171.41C61.34,-166.87 75.1,-161.36 87.48,-156.41"/>
<polygon fill="midnightblue" stroke="midnightblue" points="89.05,-159.55 97.04,-152.59 86.45,-153.05 89.05,-159.55"/>
</g>
<!-- Node31 -->
<g id="node31" class="node">
<title>Node31</title>
<g id="a_node31"><a xlink:href="syn_8c.html#a6e5fc3b0777302300322f64f2c7f0142" target="_top" xlink:title=" ">
<polygon fill="white" stroke="black" points="94,-171.5 94,-190.5 150,-190.5 150,-171.5 94,-171.5"/>
<text text-anchor="middle" x="122" y="-178.5" font-family="Helvetica,sans-Serif" font-size="10.00">syn_initft</text>
</a>
</g>
</g>
<!-- Node1&#45;&gt;Node31 -->
<g id="edge41" class="edge">
<title>Node1&#45;&gt;Node31</title>
<path fill="none" stroke="midnightblue" d="M50.46,-181C60.65,-181 72.7,-181 83.93,-181"/>
<polygon fill="midnightblue" stroke="midnightblue" points="83.94,-184.5 93.94,-181 83.94,-177.5 83.94,-184.5"/>
</g>
<!-- Node5 -->
<g id="node5" class="node">
<title>Node5</title>
<g id="a_node5"><a xlink:href="rset_8c.html#a8a35950ab3896c3d568af835385cc12f" target="_top" xlink:title=" ">
<polygon fill="white" stroke="black" points="307,-266.5 307,-285.5 385,-285.5 385,-266.5 307,-266.5"/>
<text text-anchor="middle" x="346" y="-273.5" font-family="Helvetica,sans-Serif" font-size="10.00">re_groupcount</text>
</a>
</g>
</g>
<!-- Node4&#45;&gt;Node5 -->
<g id="edge4" class="edge">
<title>Node4&#45;&gt;Node5</title>
<path fill="none" stroke="midnightblue" d="M245.04,-152.79C253.04,-160 263.56,-170.37 271,-181 292.43,-211.62 280.85,-230.29 307,-257 308.24,-258.27 309.59,-259.47 311,-260.6"/>
<polygon fill="midnightblue" stroke="midnightblue" points="309.42,-263.74 319.69,-266.33 313.27,-257.9 309.42,-263.74"/>
</g>
<!-- Node6 -->
<g id="node6" class="node">
<title>Node6</title>
<g id="a_node6"><a xlink:href="regex_8c.html#a5b590271eb220f4e019e76cfb950eb69" target="_top" xlink:title=" ">
<polygon fill="white" stroke="black" points="319,-228.5 319,-247.5 373,-247.5 373,-228.5 319,-228.5"/>
<text text-anchor="middle" x="346" y="-235.5" font-family="Helvetica,sans-Serif" font-size="10.00">regcomp</text>
</a>
</g>
</g>
<!-- Node4&#45;&gt;Node6 -->
<g id="edge5" class="edge">
<title>Node4&#45;&gt;Node6</title>
<path fill="none" stroke="midnightblue" d="M242.99,-152.65C259.68,-169.52 293.74,-203.59 307,-214 310.94,-217.09 315.28,-220.14 319.59,-222.97"/>
<polygon fill="midnightblue" stroke="midnightblue" points="317.91,-226.05 328.23,-228.43 321.64,-220.13 317.91,-226.05"/>
</g>
<!-- Node22 -->
<g id="node22" class="node">
<title>Node22</title>
<g id="a_node22"><a xlink:href="sbuf_8c.html#a4e56760893d5a6797626743840c9adf2" target="_top" xlink:title=" ">
<polygon fill="white" stroke="black" points="429,-0.5 429,-19.5 483,-19.5 483,-0.5 429,-0.5"/>
<text text-anchor="middle" x="456" y="-7.5" font-family="Helvetica,sans-Serif" font-size="10.00">sbuf_buf</text>
</a>
</g>
</g>
<!-- Node4&#45;&gt;Node22 -->
<g id="edge30" class="edge">
<title>Node4&#45;&gt;Node22</title>
<path fill="none" stroke="midnightblue" d="M236.56,-133.31C244.27,-110.69 266.77,-54.38 307,-29 340.46,-7.89 386.68,-5.2 418.52,-6.47"/>
<polygon fill="midnightblue" stroke="midnightblue" points="418.55,-9.98 428.72,-7.04 418.93,-2.99 418.55,-9.98"/>
</g>
<!-- Node24 -->
<g id="node24" class="node">
<title>Node24</title>
<g id="a_node24"><a xlink:href="sbuf_8c.html#a3f9aa15ca1d73f585d7a4a9d023e58ce" target="_top" xlink:title=" ">
<polygon fill="white" stroke="black" points="429,-114.5 429,-133.5 483,-133.5 483,-114.5 429,-114.5"/>
<text text-anchor="middle" x="456" y="-121.5" font-family="Helvetica,sans-Serif" font-size="10.00">sbuf_chr</text>
</a>
</g>
</g>
<!-- Node4&#45;&gt;Node24 -->
<g id="edge32" class="edge">
<title>Node4&#45;&gt;Node24</title>
<path fill="none" stroke="midnightblue" d="M247.07,-152.56C261.25,-161.91 284.53,-175.53 307,-181 340.68,-189.19 352.34,-192.62 385,-181 407.22,-173.1 427.5,-154.79 440.45,-141.04"/>
<polygon fill="midnightblue" stroke="midnightblue" points="443.08,-143.36 447.18,-133.59 437.88,-138.66 443.08,-143.36"/>
</g>
<!-- Node25 -->
<g id="node25" class="node">
<title>Node25</title>
<g id="a_node25"><a xlink:href="sbuf_8c.html#a8c1a89868b1999663effb78b4f3fab32" target="_top" xlink:title=" ">
<polygon fill="white" stroke="black" points="317.5,-114.5 317.5,-133.5 374.5,-133.5 374.5,-114.5 317.5,-114.5"/>
<text text-anchor="middle" x="346" y="-121.5" font-family="Helvetica,sans-Serif" font-size="10.00">sbuf_free</text>
</a>
</g>
</g>
<!-- Node4&#45;&gt;Node25 -->
<g id="edge34" class="edge">
<title>Node4&#45;&gt;Node25</title>
<path fill="none" stroke="midnightblue" d="M263.67,-137.86C277.17,-135.56 293.21,-132.82 307.47,-130.4"/>
<polygon fill="midnightblue" stroke="midnightblue" points="308.21,-133.82 317.48,-128.69 307.03,-126.92 308.21,-133.82"/>
</g>
<!-- Node26 -->
<g id="node26" class="node">
<title>Node26</title>
<g id="a_node26"><a xlink:href="sbuf_8c.html#af4ad9608dfc956bbedc19df5c8256fc4" target="_top" xlink:title=" ">
<polygon fill="white" stroke="black" points="319.5,-76.5 319.5,-95.5 372.5,-95.5 372.5,-76.5 319.5,-76.5"/>
<text text-anchor="middle" x="346" y="-83.5" font-family="Helvetica,sans-Serif" font-size="10.00">sbuf_len</text>
</a>
</g>
</g>
<!-- Node4&#45;&gt;Node26 -->
<g id="edge35" class="edge">
<title>Node4&#45;&gt;Node26</title>
<path fill="none" stroke="midnightblue" d="M251.89,-133.4C266.74,-125.68 288.18,-114.57 307,-105 310.12,-103.41 313.39,-101.76 316.64,-100.13"/>
<polygon fill="midnightblue" stroke="midnightblue" points="318.27,-103.22 325.64,-95.62 315.13,-96.97 318.27,-103.22"/>
</g>
<!-- Node27 -->
<g id="node27" class="node">
<title>Node27</title>
<g id="a_node27"><a xlink:href="sbuf_8c.html#a57748585d6786a2c1aadc2cbe6f2135b" target="_top" xlink:title=" ">
<polygon fill="white" stroke="black" points="313.5,-38.5 313.5,-57.5 378.5,-57.5 378.5,-38.5 313.5,-38.5"/>
<text text-anchor="middle" x="346" y="-45.5" font-family="Helvetica,sans-Serif" font-size="10.00">sbuf_make</text>
</a>
</g>
</g>
<!-- Node4&#45;&gt;Node27 -->
<g id="edge36" class="edge">
<title>Node4&#45;&gt;Node27</title>
<path fill="none" stroke="midnightblue" d="M241.21,-133.09C253.71,-117.5 279.77,-86.98 307,-67 309.08,-65.47 311.3,-64.01 313.59,-62.62"/>
<polygon fill="midnightblue" stroke="midnightblue" points="315.51,-65.55 322.56,-57.64 312.12,-59.43 315.51,-65.55"/>
</g>
<!-- Node28 -->
<g id="node28" class="node">
<title>Node28</title>
<g id="a_node28"><a xlink:href="sbuf_8c.html#a603d1d6ab090025f5850f10bfa2dec7a" target="_top" xlink:title=" ">
<polygon fill="white" stroke="black" points="320,-152.5 320,-171.5 372,-171.5 372,-152.5 320,-152.5"/>
<text text-anchor="middle" x="346" y="-159.5" font-family="Helvetica,sans-Serif" font-size="10.00">sbuf_str</text>
</a>
</g>
</g>
<!-- Node4&#45;&gt;Node28 -->
<g id="edge37" class="edge">
<title>Node4&#45;&gt;Node28</title>
<path fill="none" stroke="midnightblue" d="M263.67,-148.14C277.79,-150.55 294.7,-153.43 309.43,-155.94"/>
<polygon fill="midnightblue" stroke="midnightblue" points="309.26,-159.46 319.71,-157.69 310.44,-152.56 309.26,-159.46"/>
</g>
<!-- Node7 -->
<g id="node7" class="node">
<title>Node7</title>
<g id="a_node7"><a xlink:href="regex_8c.html#ad3bbf549eef0fe517e9f213c5eadbb0c" target="_top" xlink:title=" ">
<polygon fill="white" stroke="black" points="659,-342.5 659,-361.5 713,-361.5 713,-342.5 659,-342.5"/>
<text text-anchor="middle" x="686" y="-349.5" font-family="Helvetica,sans-Serif" font-size="10.00">re_insert</text>
</a>
</g>
</g>
<!-- Node6&#45;&gt;Node7 -->
<g id="edge6" class="edge">
<title>Node6&#45;&gt;Node7</title>
<path fill="none" stroke="midnightblue" d="M368.9,-247.65C374.33,-250.39 380.02,-253.57 385,-257 402.88,-269.31 401.81,-279.86 421,-290 495.76,-329.52 595.58,-344.11 648.49,-349.29"/>
<polygon fill="midnightblue" stroke="midnightblue" points="648.46,-352.8 658.73,-350.23 649.1,-345.83 648.46,-352.8"/>
</g>
<!-- Node8 -->
<g id="node8" class="node">
<title>Node8</title>
<g id="a_node8"><a xlink:href="regex_8c.html#ac00e60e2e4bce1edcd55ffa8b9086ac5" target="_top" xlink:title=" ">
<polygon fill="white" stroke="black" points="421,-190.5 421,-209.5 491,-209.5 491,-190.5 421,-190.5"/>
<text text-anchor="middle" x="456" y="-197.5" font-family="Helvetica,sans-Serif" font-size="10.00">rnode_count</text>
</a>
</g>
</g>
<!-- Node6&#45;&gt;Node8 -->
<g id="edge7" class="edge">
<title>Node6&#45;&gt;Node8</title>
<path fill="none" stroke="midnightblue" d="M373.14,-228.8C386.77,-224.01 403.64,-218.07 418.53,-212.83"/>
<polygon fill="midnightblue" stroke="midnightblue" points="419.7,-216.13 427.97,-209.51 417.37,-209.53 419.7,-216.13"/>
</g>
<!-- Node9 -->
<g id="node9" class="node">
<title>Node9</title>
<g id="a_node9"><a xlink:href="regex_8c.html#a7be1fd2247ffed1699d3be12c04fe9c6" target="_top" xlink:title=" ">
<polygon fill="white" stroke="black" points="423.5,-361.5 423.5,-380.5 488.5,-380.5 488.5,-361.5 423.5,-361.5"/>
<text text-anchor="middle" x="456" y="-368.5" font-family="Helvetica,sans-Serif" font-size="10.00">rnode_emit</text>
</a>
</g>
</g>
<!-- Node6&#45;&gt;Node9 -->
<g id="edge8" class="edge">
<title>Node6&#45;&gt;Node9</title>
<path fill="none" stroke="midnightblue" d="M371.84,-247.53C376.58,-250.11 381.23,-253.26 385,-257 410.09,-281.95 401.93,-298.2 421,-328 426.53,-336.64 433.43,-345.63 439.57,-353.14"/>
<polygon fill="midnightblue" stroke="midnightblue" points="437.19,-355.76 446.3,-361.17 442.56,-351.26 437.19,-355.76"/>
</g>
<!-- Node12 -->
<g id="node12" class="node">
<title>Node12</title>
<g id="a_node12"><a xlink:href="regex_8c.html#aabe89a3a22bc0fdc0329cf29ec80ad76" target="_top" xlink:title=" ">
<polygon fill="white" stroke="black" points="865.5,-228.5 865.5,-247.5 927.5,-247.5 927.5,-228.5 865.5,-228.5"/>
<text text-anchor="middle" x="896.5" y="-235.5" font-family="Helvetica,sans-Serif" font-size="10.00">rnode_free</text>
</a>
</g>
</g>
<!-- Node6&#45;&gt;Node12 -->
<g id="edge14" class="edge">
<title>Node6&#45;&gt;Node12</title>
<path fill="none" stroke="midnightblue" d="M373.25,-245.42C414.76,-256.48 498.28,-276 570.5,-276 570.5,-276 570.5,-276 687,-276 746.49,-276 813.99,-260.84 855.66,-249.68"/>
<polygon fill="midnightblue" stroke="midnightblue" points="856.71,-253.02 865.43,-247.01 854.86,-246.27 856.71,-253.02"/>
</g>
<!-- Node13 -->
<g id="node13" class="node">
<title>Node13</title>
<g id="a_node13"><a xlink:href="regex_8c.html#ac19329676c1426f2b24af24e33e3a845" target="_top" xlink:title=" ">
<polygon fill="white" stroke="black" points="421,-228.5 421,-247.5 491,-247.5 491,-228.5 421,-228.5"/>
<text text-anchor="middle" x="456" y="-235.5" font-family="Helvetica,sans-Serif" font-size="10.00">rnode_parse</text>
</a>
</g>
</g>
<!-- Node6&#45;&gt;Node13 -->
<g id="edge15" class="edge">
<title>Node6&#45;&gt;Node13</title>
<path fill="none" stroke="midnightblue" d="M373.14,-238C384.47,-238 398.06,-238 410.87,-238"/>
<polygon fill="midnightblue" stroke="midnightblue" points="410.93,-241.5 420.93,-238 410.93,-234.5 410.93,-241.5"/>
</g>
<!-- Node9&#45;&gt;Node7 -->
<g id="edge9" class="edge">
<title>Node9&#45;&gt;Node7</title>
<path fill="none" stroke="midnightblue" d="M488.7,-368.36C530.73,-364.86 604.71,-358.69 648.86,-355.01"/>
<polygon fill="midnightblue" stroke="midnightblue" points="649.19,-358.5 658.87,-354.18 648.61,-351.52 649.19,-358.5"/>
</g>
<!-- Node10 -->
<g id="node10" class="node">
<title>Node10</title>
<g id="a_node10"><a xlink:href="regex_8c.html#afdf3c7adbb2060b793cf83c5312321c8" target="_top" xlink:title=" ">
<polygon fill="white" stroke="black" points="527,-380.5 527,-399.5 616,-399.5 616,-380.5 527,-380.5"/>
<text text-anchor="middle" x="571.5" y="-387.5" font-family="Helvetica,sans-Serif" font-size="10.00">rnode_emitnorep</text>
</a>
</g>
</g>
<!-- Node9&#45;&gt;Node10 -->
<g id="edge10" class="edge">
<title>Node9&#45;&gt;Node10</title>
<path fill="none" stroke="midnightblue" d="M488.62,-370.17C503.65,-371.88 521.62,-374.86 536.9,-378.15"/>
<polygon fill="midnightblue" stroke="midnightblue" points="536.44,-381.64 546.97,-380.47 538.01,-374.82 536.44,-381.64"/>
</g>
<!-- Node10&#45;&gt;Node7 -->
<g id="edge12" class="edge">
<title>Node10&#45;&gt;Node7</title>
<path fill="none" stroke="midnightblue" d="M600.89,-380.41C615.52,-375.47 633.51,-369.39 649.1,-364.13"/>
<polygon fill="midnightblue" stroke="midnightblue" points="650.58,-367.32 658.93,-360.8 648.34,-360.69 650.58,-367.32"/>
</g>
<!-- Node10&#45;&gt;Node9 -->
<g id="edge13" class="edge">
<title>Node10&#45;&gt;Node9</title>
<path fill="none" stroke="midnightblue" d="M526.83,-389.28C514.76,-387.56 501.87,-385.28 490.48,-382.82"/>
<polygon fill="midnightblue" stroke="midnightblue" points="491.05,-379.36 480.52,-380.53 489.48,-386.18 491.05,-379.36"/>
</g>
<!-- Node11 -->
<g id="node11" class="node">
<title>Node11</title>
<g id="a_node11"><a xlink:href="regex_8c.html#a71b5a38b3a51e761aaa959a89e7cae55" target="_top" xlink:title=" ">
<polygon fill="white" stroke="black" points="652,-380.5 652,-399.5 720,-399.5 720,-380.5 652,-380.5"/>
<text text-anchor="middle" x="686" y="-387.5" font-family="Helvetica,sans-Serif" font-size="10.00">ratom_copy</text>
</a>
</g>
</g>
<!-- Node10&#45;&gt;Node11 -->
<g id="edge11" class="edge">
<title>Node10&#45;&gt;Node11</title>
<path fill="none" stroke="midnightblue" d="M616.32,-390C624.65,-390 633.36,-390 641.67,-390"/>
<polygon fill="midnightblue" stroke="midnightblue" points="641.93,-393.5 651.93,-390 641.93,-386.5 641.93,-393.5"/>
</g>
<!-- Node14 -->
<g id="node14" class="node">
<title>Node14</title>
<g id="a_node14"><a xlink:href="regex_8c.html#a39869d385d8410ffb9d5bf74c778c6ce" target="_top" xlink:title=" ">
<polygon fill="white" stroke="black" points="861.5,-86.5 861.5,-105.5 931.5,-105.5 931.5,-86.5 861.5,-86.5"/>
<text text-anchor="middle" x="896.5" y="-93.5" font-family="Helvetica,sans-Serif" font-size="10.00">rnode_make</text>
</a>
</g>
</g>
<!-- Node13&#45;&gt;Node14 -->
<g id="edge16" class="edge">
<title>Node13&#45;&gt;Node14</title>
<path fill="none" stroke="midnightblue" d="M477.9,-228.48C482.52,-225.81 487.17,-222.63 491,-219 512.75,-198.39 503.3,-180.34 527,-162 623.46,-87.35 776.54,-86.68 851.38,-91.64"/>
<polygon fill="midnightblue" stroke="midnightblue" points="851.17,-95.14 861.4,-92.37 851.68,-88.15 851.17,-95.14"/>
</g>
<!-- Node15 -->
<g id="node15" class="node">
<title>Node15</title>
<g id="a_node15"><a xlink:href="regex_8c.html#abe0c1f4be43ac6d7caa4f95a560f823f" target="_top" xlink:title=" ">
<polygon fill="white" stroke="black" points="540.5,-171.5 540.5,-190.5 602.5,-190.5 602.5,-171.5 540.5,-171.5"/>
<text text-anchor="middle" x="571.5" y="-178.5" font-family="Helvetica,sans-Serif" font-size="10.00">rnode_seq</text>
</a>
</g>
</g>
<!-- Node13&#45;&gt;Node15 -->
<g id="edge17" class="edge">
<title>Node13&#45;&gt;Node15</title>
<path fill="none" stroke="midnightblue" d="M476,-228.46C494.17,-219.34 521.78,-205.47 542.48,-195.07"/>
<polygon fill="midnightblue" stroke="midnightblue" points="544.08,-198.19 551.44,-190.57 540.93,-191.93 544.08,-198.19"/>
</g>
<!-- Node15&#45;&gt;Node14 -->
<g id="edge29" class="edge">
<title>Node15&#45;&gt;Node14</title>
<path fill="none" stroke="midnightblue" d="M594.35,-171.44C628.28,-156.99 695.99,-129.71 756,-115 787.37,-107.31 823.51,-102.5 851.15,-99.64"/>
<polygon fill="midnightblue" stroke="midnightblue" points="851.69,-103.11 861.3,-98.64 851,-96.14 851.69,-103.11"/>
</g>
<!-- Node16 -->
<g id="node16" class="node">
<title>Node16</title>
<g id="a_node16"><a xlink:href="regex_8c.html#a0df57dc0ee1beb9018cdd537a58571aa" target="_top" xlink:title=" ">
<polygon fill="white" stroke="black" points="652,-171.5 652,-190.5 720,-190.5 720,-171.5 652,-171.5"/>
<text text-anchor="middle" x="686" y="-178.5" font-family="Helvetica,sans-Serif" font-size="10.00">rnode_atom</text>
</a>
</g>
</g>
<!-- Node15&#45;&gt;Node16 -->
<g id="edge18" class="edge">
<title>Node15&#45;&gt;Node16</title>
<path fill="none" stroke="midnightblue" d="M602.65,-181C614.67,-181 628.73,-181 641.79,-181"/>
<polygon fill="midnightblue" stroke="midnightblue" points="642,-184.5 652,-181 642,-177.5 642,-184.5"/>
</g>
<!-- Node16&#45;&gt;Node12 -->
<g id="edge23" class="edge">
<title>Node16&#45;&gt;Node12</title>
<path fill="none" stroke="midnightblue" d="M720.04,-190.03C756.8,-200.08 816.19,-216.32 855.53,-227.07"/>
<polygon fill="midnightblue" stroke="midnightblue" points="854.76,-230.49 865.33,-229.75 856.6,-223.74 854.76,-230.49"/>
</g>
<!-- Node16&#45;&gt;Node14 -->
<g id="edge28" class="edge">
<title>Node16&#45;&gt;Node14</title>
<path fill="none" stroke="midnightblue" d="M702.49,-171.42C716.21,-163.19 736.97,-151.37 756,-143 787.25,-129.26 823.88,-117.06 851.76,-108.54"/>
<polygon fill="midnightblue" stroke="midnightblue" points="853.04,-111.8 861.61,-105.57 851.02,-105.1 853.04,-111.8"/>
</g>
<!-- Node17 -->
<g id="node17" class="node">
<title>Node17</title>
<g id="a_node17"><a xlink:href="regex_8c.html#a8b5ae269a79b320da8e87712e2051d1c" target="_top" xlink:title=" ">
<polygon fill="white" stroke="black" points="756,-152.5 756,-171.5 821,-171.5 821,-152.5 756,-152.5"/>
<text text-anchor="middle" x="788.5" y="-159.5" font-family="Helvetica,sans-Serif" font-size="10.00">ratom_read</text>
</a>
</g>
</g>
<!-- Node16&#45;&gt;Node17 -->
<g id="edge19" class="edge">
<title>Node16&#45;&gt;Node17</title>
<path fill="none" stroke="midnightblue" d="M720.19,-174.73C728.4,-173.17 737.31,-171.49 745.88,-169.87"/>
<polygon fill="midnightblue" stroke="midnightblue" points="746.54,-173.31 755.71,-168.01 745.24,-166.43 746.54,-173.31"/>
</g>
<!-- Node21 -->
<g id="node21" class="node">
<title>Node21</title>
<g id="a_node21"><a xlink:href="regex_8c.html#aaeda19c8b3704252a342cdcc7fc3591c" target="_top" xlink:title=" ">
<polygon fill="white" stroke="black" points="759,-228.5 759,-247.5 818,-247.5 818,-228.5 759,-228.5"/>
<text text-anchor="middle" x="788.5" y="-235.5" font-family="Helvetica,sans-Serif" font-size="10.00">rnode_grp</text>
</a>
</g>
</g>
<!-- Node16&#45;&gt;Node21 -->
<g id="edge24" class="edge">
<title>Node16&#45;&gt;Node21</title>
<path fill="none" stroke="midnightblue" d="M704.05,-190.67C719.88,-199.65 743.67,-213.14 761.81,-223.43"/>
<polygon fill="midnightblue" stroke="midnightblue" points="760.28,-226.58 770.7,-228.47 763.73,-220.5 760.28,-226.58"/>
</g>
<!-- Node18 -->
<g id="node18" class="node">
<title>Node18</title>
<g id="a_node18"><a xlink:href="regex_8c.html#a1904288a4b4c7b7d0666c3d85d438e1a" target="_top" xlink:title=" ">
<polygon fill="white" stroke="black" points="857,-181.5 857,-200.5 936,-200.5 936,-181.5 857,-181.5"/>
<text text-anchor="middle" x="896.5" y="-188.5" font-family="Helvetica,sans-Serif" font-size="10.00">ratom_readbrk</text>
</a>
</g>
</g>
<!-- Node17&#45;&gt;Node18 -->
<g id="edge20" class="edge">
<title>Node17&#45;&gt;Node18</title>
<path fill="none" stroke="midnightblue" d="M821.02,-170.62C830.35,-173.18 840.76,-176.02 850.77,-178.76"/>
<polygon fill="midnightblue" stroke="midnightblue" points="850.01,-182.18 860.58,-181.45 851.86,-175.43 850.01,-182.18"/>
</g>
<!-- Node20 -->
<g id="node20" class="node">
<title>Node20</title>
<g id="a_node20"><a xlink:href="regex_8c.html#a9a0d6d5f93f1eaba8b63b16903c0952d" target="_top" xlink:title=" ">
<polygon fill="white" stroke="black" points="874,-143.5 874,-162.5 919,-162.5 919,-143.5 874,-143.5"/>
<text text-anchor="middle" x="896.5" y="-150.5" font-family="Helvetica,sans-Serif" font-size="10.00">uc_len</text>
</a>
</g>
</g>
<!-- Node17&#45;&gt;Node20 -->
<g id="edge22" class="edge">
<title>Node17&#45;&gt;Node20</title>
<path fill="none" stroke="midnightblue" d="M821.02,-159.32C834.4,-158.19 849.99,-156.86 863.44,-155.72"/>
<polygon fill="midnightblue" stroke="midnightblue" points="864.01,-159.19 873.68,-154.85 863.42,-152.21 864.01,-159.19"/>
</g>
<!-- Node19 -->
<g id="node19" class="node">
<title>Node19</title>
<g id="a_node19"><a xlink:href="regex_8c.html#acc18ff8d2687611a9e221b3329b02413" target="_top" xlink:title=" ">
<polygon fill="white" stroke="black" points="972,-181.5 972,-200.5 1020,-200.5 1020,-181.5 972,-181.5"/>
<text text-anchor="middle" x="996" y="-188.5" font-family="Helvetica,sans-Serif" font-size="10.00">brk_len</text>
</a>
</g>
</g>
<!-- Node18&#45;&gt;Node19 -->
<g id="edge21" class="edge">
<title>Node18&#45;&gt;Node19</title>
<path fill="none" stroke="midnightblue" d="M936.03,-191C944.57,-191 953.54,-191 961.84,-191"/>
<polygon fill="midnightblue" stroke="midnightblue" points="961.9,-194.5 971.9,-191 961.9,-187.5 961.9,-194.5"/>
</g>
<!-- Node21&#45;&gt;Node12 -->
<g id="edge25" class="edge">
<title>Node21&#45;&gt;Node12</title>
<path fill="none" stroke="midnightblue" d="M818.19,-238C829.59,-238 842.9,-238 855.24,-238"/>
<polygon fill="midnightblue" stroke="midnightblue" points="855.31,-241.5 865.31,-238 855.31,-234.5 855.31,-241.5"/>
</g>
<!-- Node21&#45;&gt;Node13 -->
<g id="edge27" class="edge">
<title>Node21&#45;&gt;Node13</title>
<path fill="none" stroke="midnightblue" d="M758.81,-238C700.98,-238 570.07,-238 501.22,-238"/>
<polygon fill="midnightblue" stroke="midnightblue" points="501.12,-234.5 491.12,-238 501.12,-241.5 501.12,-234.5"/>
</g>
<!-- Node21&#45;&gt;Node14 -->
<g id="edge26" class="edge">
<title>Node21&#45;&gt;Node14</title>
<path fill="none" stroke="midnightblue" d="M794.82,-228.35C805.46,-209.4 830.62,-166.37 857,-134 863.06,-126.57 870.4,-119.02 877.05,-112.64"/>
<polygon fill="midnightblue" stroke="midnightblue" points="879.5,-115.13 884.41,-105.75 874.72,-110.02 879.5,-115.13"/>
</g>
<!-- Node23 -->
<g id="node23" class="node">
<title>Node23</title>
<g id="a_node23"><a xlink:href="sbuf_8c.html#a4ad75f3948c0340c342a3ea3eb63a6e6" target="_top" xlink:title=" ">
<polygon fill="white" stroke="black" points="536.5,-0.5 536.5,-19.5 606.5,-19.5 606.5,-0.5 536.5,-0.5"/>
<text text-anchor="middle" x="571.5" y="-7.5" font-family="Helvetica,sans-Serif" font-size="10.00">sbuf_extend</text>
</a>
</g>
</g>
<!-- Node22&#45;&gt;Node23 -->
<g id="edge31" class="edge">
<title>Node22&#45;&gt;Node23</title>
<path fill="none" stroke="midnightblue" d="M483.04,-10C495.78,-10 511.49,-10 526.05,-10"/>
<polygon fill="midnightblue" stroke="midnightblue" points="526.4,-13.5 536.4,-10 526.4,-6.5 526.4,-13.5"/>
</g>
<!-- Node24&#45;&gt;Node23 -->
<g id="edge33" class="edge">
<title>Node24&#45;&gt;Node23</title>
<path fill="none" stroke="midnightblue" d="M466.3,-114.29C473.34,-106.78 483.11,-96.01 491,-86 508.41,-63.93 506.14,-52.84 527,-34 530.72,-30.64 535,-27.56 539.39,-24.82"/>
<polygon fill="midnightblue" stroke="midnightblue" points="541.46,-27.66 548.41,-19.67 537.99,-21.59 541.46,-27.66"/>
</g>
<!-- Node29 -->
<g id="node29" class="node">
<title>Node29</title>
<g id="a_node29"><a xlink:href="sbuf_8c.html#aa511ac77d6b486accc01c0512ef27ed2" target="_top" xlink:title=" ">
<polygon fill="white" stroke="black" points="425,-57.5 425,-76.5 487,-76.5 487,-57.5 425,-57.5"/>
<text text-anchor="middle" x="456" y="-64.5" font-family="Helvetica,sans-Serif" font-size="10.00">sbuf_mem</text>
</a>
</g>
</g>
<!-- Node28&#45;&gt;Node29 -->
<g id="edge38" class="edge">
<title>Node28&#45;&gt;Node29</title>
<path fill="none" stroke="midnightblue" d="M369.5,-152.44C374.81,-149.73 380.28,-146.55 385,-143 388.15,-140.63 419.9,-105.77 439.54,-84.09"/>
<polygon fill="midnightblue" stroke="midnightblue" points="442.28,-86.29 446.4,-76.52 437.09,-81.59 442.28,-86.29"/>
</g>
<!-- Node29&#45;&gt;Node23 -->
<g id="edge39" class="edge">
<title>Node29&#45;&gt;Node23</title>
<path fill="none" stroke="midnightblue" d="M476,-57.46C494.17,-48.34 521.78,-34.47 542.48,-24.07"/>
<polygon fill="midnightblue" stroke="midnightblue" points="544.08,-27.19 551.44,-19.57 540.93,-20.93 544.08,-27.19"/>
</g>
<!-- Node31&#45;&gt;Node3 -->
<g id="edge42" class="edge">
<title>Node31&#45;&gt;Node3</title>
<path fill="none" stroke="midnightblue" d="M150.1,-185.75C160.29,-187.53 172.21,-189.62 183.73,-191.64"/>
<polygon fill="midnightblue" stroke="midnightblue" points="183.25,-195.1 193.71,-193.38 184.46,-188.21 183.25,-195.1"/>
</g>
<!-- Node31&#45;&gt;Node4 -->
<g id="edge43" class="edge">
<title>Node31&#45;&gt;Node4</title>
<path fill="none" stroke="midnightblue" d="M150.1,-171.51C163.56,-166.79 180.03,-161.03 194.63,-155.91"/>
<polygon fill="midnightblue" stroke="midnightblue" points="196.09,-159.11 204.37,-152.5 193.78,-152.5 196.09,-159.11"/>
</g>
</g>
</svg>
        <g id="navigator" transform="translate(0 0)" fill="#404254">
                <rect fill="#f2f5e9" fill-opacity="0.5" stroke="#606060" stroke-width=".5" x="0" y="0" width="60" height="60"/>
                <use id="zoomplus" xlink:href="#zoomPlus" x="17" y="9" onmousedown="handleZoom(evt,'in')"/>
                <use id="zoomminus" xlink:href="#zoomMin" x="42" y="9" onmousedown="handleZoom(evt,'out')"/>
                <use id="reset" xlink:href="#resetDef" x="30" y="36" onmousedown="handleReset()"/>
                <g id="arrowUp" xlink:href="#dirArrow" transform="translate(30 24)" onmousedown="handlePan(0,-1)">
                  <use xlink:href="#rim" fill="#404040">
                        <set attributeName="fill" to="#808080" begin="arrowUp.mouseover" end="arrowUp.mouseout"/>
                  </use>
                  <path fill="none" stroke="white" stroke-width="1.5" d="M0,-3.0v7 M-2.5,-0.5L0,-3.0L2.5,-0.5"/>
                </g>
                <g id="arrowRight" xlink:href="#dirArrow" transform="rotate(90) translate(36 -43)" onmousedown="handlePan(1,0)">
                  <use xlink:href="#rim" fill="#404040">
                        <set attributeName="fill" to="#808080" begin="arrowRight.mouseover" end="arrowRight.mouseout"/>
                  </use>
                  <path fill="none" stroke="white" stroke-width="1.5" d="M0,-3.0v7 M-2.5,-0.5L0,-3.0L2.5,-0.5"/>
                </g>
                <g id="arrowDown" xlink:href="#dirArrow" transform="rotate(180) translate(-30 -48)" onmousedown="handlePan(0,1)">
                  <use xlink:href="#rim" fill="#404040">
                        <set attributeName="fill" to="#808080" begin="arrowDown.mouseover" end="arrowDown.mouseout"/>
                  </use>
                  <path fill="none" stroke="white" stroke-width="1.5" d="M0,-3.0v7 M-2.5,-0.5L0,-3.0L2.5,-0.5"/>
                </g>
                <g id="arrowLeft" xlink:href="#dirArrow" transform="rotate(270) translate(-36 17)" onmousedown="handlePan(-1,0)">
                  <use xlink:href="#rim" fill="#404040">
                        <set attributeName="fill" to="#808080" begin="arrowLeft.mouseover" end="arrowLeft.mouseout"/>
                  </use>
                  <path fill="none" stroke="white" stroke-width="1.5" d="M0,-3.0v7 M-2.5,-0.5L0,-3.0L2.5,-0.5"/>
                </g>
        </g>
        <svg viewBox="0 0 15 15" width="100%" height="30px" preserveAspectRatio="xMaxYMin meet">
         <g id="arrow_out" transform="scale(0.3 0.3)">
          <a xlink:href="vi_8h_a5ca5f67cbe20ba50389c586990d3582c_cgraph_org.svg" target="_base">
           <rect id="button" ry="5" rx="5" y="6" x="6" height="38" width="38"
                fill="#f2f5e9" fill-opacity="0.5" stroke="#606060" stroke-width="1.0"/>
           <path id="arrow"
             d="M 11.500037,31.436501 C 11.940474,20.09759 22.043105,11.32322 32.158766,21.979434 L 37.068811,17.246167 C 37.068811,17.246167 37.088388,32 37.088388,32 L 22.160133,31.978069 C 22.160133,31.978069 26.997745,27.140456 26.997745,27.140456 C 18.528582,18.264221 13.291696,25.230495 11.500037,31.436501 z"
             style="fill:#404040;"/>
          </a>
         </g>
        </svg>
</svg>
