<?xml version="1.0" encoding="UTF-8" standalone="no"?>
<!DOCTYPE svg PUBLIC "-//W3C//DTD SVG 1.1//EN"
 "http://www.w3.org/Graphics/SVG/1.1/DTD/svg11.dtd">
<!-- Generated by graphviz version 2.44.1 (20200629.0846)
 -->
<!-- Title: lbuf_edit Pages: 1 -->
<svg width="587pt" height="308pt"
 viewBox="0.00 0.00 587.00 307.58" xmlns="http://www.w3.org/2000/svg" xmlns:xlink="http://www.w3.org/1999/xlink">
<g id="graph0" class="graph" transform="scale(1 1) rotate(0) translate(4 303.58)">
<title>lbuf_edit</title>
<polygon fill="white" stroke="transparent" points="-4,4 -4,-303.58 583,-303.58 583,4 -4,4"/>
<!-- Node1 -->
<g id="node1" class="node">
<title>Node1</title>
<g id="a_node1"><a xlink:title=" ">
<polygon fill="#bfbfbf" stroke="black" points="0,-71.08 0,-90.08 53,-90.08 53,-71.08 0,-71.08"/>
<text text-anchor="middle" x="26.5" y="-78.08" font-family="Helvetica,sans-Serif" font-size="10.00">lbuf_edit</text>
</a>
</g>
</g>
<!-- Node2 -->
<g id="node2" class="node">
<title>Node2</title>
<g id="a_node2"><a xlink:href="lbuf_8c.html#a7882079a375d5591a9f384a80a5599ff" target="_top" xlink:title=" ">
<polygon fill="white" stroke="black" points="98,-128.08 98,-147.08 149,-147.08 149,-128.08 98,-128.08"/>
<text text-anchor="middle" x="123.5" y="-135.08" font-family="Helvetica,sans-Serif" font-size="10.00">lbuf_opt</text>
</a>
</g>
</g>
<!-- Node1&#45;&gt;Node2 -->
<g id="edge1" class="edge">
<title>Node1&#45;&gt;Node2</title>
<path fill="none" stroke="midnightblue" d="M43.62,-90.25C58.44,-99.15 80.66,-112.48 97.74,-122.73"/>
<polygon fill="midnightblue" stroke="midnightblue" points="96.25,-125.91 106.62,-128.06 99.85,-119.91 96.25,-125.91"/>
</g>
<!-- Node17 -->
<g id="node17" class="node">
<title>Node17</title>
<g id="a_node17"><a xlink:href="lbuf_8c.html#a7d6629efef5a5cbd324d82e2b0c07c5d" target="_top" xlink:title=" ">
<polygon fill="white" stroke="black" points="89,-33.08 89,-52.08 158,-52.08 158,-33.08 89,-33.08"/>
<text text-anchor="middle" x="123.5" y="-40.08" font-family="Helvetica,sans-Serif" font-size="10.00">lbuf_replace</text>
</a>
</g>
</g>
<!-- Node1&#45;&gt;Node17 -->
<g id="edge17" class="edge">
<title>Node1&#45;&gt;Node17</title>
<path fill="none" stroke="midnightblue" d="M51.47,-70.99C62.84,-66.45 76.6,-60.94 88.98,-55.99"/>
<polygon fill="midnightblue" stroke="midnightblue" points="90.55,-59.13 98.54,-52.17 87.95,-52.63 90.55,-59.13"/>
</g>
<!-- Node3 -->
<g id="node3" class="node">
<title>Node3</title>
<g id="a_node3"><a xlink:href="lbuf_8c.html#ad5f7a537d1c72f485481fc22cb8361a6" target="_top" xlink:title=" ">
<polygon fill="white" stroke="black" points="210,-242.08 210,-261.08 258,-261.08 258,-242.08 210,-242.08"/>
<text text-anchor="middle" x="234" y="-249.08" font-family="Helvetica,sans-Serif" font-size="10.00">lbuf_cp</text>
</a>
</g>
</g>
<!-- Node2&#45;&gt;Node3 -->
<g id="edge2" class="edge">
<title>Node2&#45;&gt;Node3</title>
<path fill="none" stroke="midnightblue" d="M129.4,-147.13C139.35,-165.71 163.58,-207.16 194,-232.58 196.02,-234.27 198.22,-235.86 200.51,-237.33"/>
<polygon fill="midnightblue" stroke="midnightblue" points="199.17,-240.6 209.6,-242.47 202.62,-234.5 199.17,-240.6"/>
</g>
<!-- Node10 -->
<g id="node10" class="node">
<title>Node10</title>
<g id="a_node10"><a xlink:href="lbuf_8c.html#aedcad8ccce5993eacce71ffc80aaab87" target="_top" xlink:title=" ">
<polygon fill="white" stroke="black" points="194,-90.08 194,-109.08 274,-109.08 274,-90.08 194,-90.08"/>
<text text-anchor="middle" x="234" y="-97.08" font-family="Helvetica,sans-Serif" font-size="10.00">lbuf_savemark</text>
</a>
</g>
</g>
<!-- Node2&#45;&gt;Node10 -->
<g id="edge10" class="edge">
<title>Node2&#45;&gt;Node10</title>
<path fill="none" stroke="midnightblue" d="M149.12,-128.96C162.97,-124.11 180.53,-117.96 196.01,-112.54"/>
<polygon fill="midnightblue" stroke="midnightblue" points="197.53,-115.71 205.81,-109.11 195.22,-109.11 197.53,-115.71"/>
</g>
<!-- Node11 -->
<g id="node11" class="node">
<title>Node11</title>
<g id="a_node11"><a xlink:href="lbuf_8c.html#a46670f1a015007134b0d5a07ea258fcc" target="_top" xlink:title=" ">
<polygon fill="white" stroke="black" points="197,-204.08 197,-223.08 271,-223.08 271,-204.08 197,-204.08"/>
<text text-anchor="middle" x="234" y="-211.08" font-family="Helvetica,sans-Serif" font-size="10.00">lbuf_savepos</text>
</a>
</g>
</g>
<!-- Node2&#45;&gt;Node11 -->
<g id="edge11" class="edge">
<title>Node2&#45;&gt;Node11</title>
<path fill="none" stroke="midnightblue" d="M134.74,-147.29C147.8,-159.35 171.4,-180.1 194,-194.58 196.58,-196.24 199.32,-197.85 202.12,-199.38"/>
<polygon fill="midnightblue" stroke="midnightblue" points="200.56,-202.52 211.05,-204 203.78,-196.3 200.56,-202.52"/>
</g>
<!-- Node13 -->
<g id="node13" class="node">
<title>Node13</title>
<g id="a_node13"><a xlink:href="lbuf_8c.html#ab41193f3312b21588338e92e1b144f87" target="_top" xlink:title=" ">
<polygon fill="white" stroke="black" points="206,-52.08 206,-71.08 262,-71.08 262,-52.08 206,-52.08"/>
<text text-anchor="middle" x="234" y="-59.08" font-family="Helvetica,sans-Serif" font-size="10.00">linecount</text>
</a>
</g>
</g>
<!-- Node2&#45;&gt;Node13 -->
<g id="edge13" class="edge">
<title>Node2&#45;&gt;Node13</title>
<path fill="none" stroke="midnightblue" d="M134.74,-127.88C147.8,-115.82 171.4,-95.07 194,-80.58 196.58,-78.93 199.32,-77.32 202.12,-75.79"/>
<polygon fill="midnightblue" stroke="midnightblue" points="203.78,-78.87 211.05,-71.16 200.56,-72.65 203.78,-78.87"/>
</g>
<!-- Node15 -->
<g id="node15" class="node">
<title>Node15</title>
<g id="a_node15"><a xlink:href="lbuf_8c.html#a94a520edd0e2f60713523483cf01c7de" target="_top" xlink:title=" ">
<polygon fill="white" stroke="black" points="204.5,-166.08 204.5,-185.08 263.5,-185.08 263.5,-166.08 204.5,-166.08"/>
<text text-anchor="middle" x="234" y="-173.08" font-family="Helvetica,sans-Serif" font-size="10.00">lopt_done</text>
</a>
</g>
</g>
<!-- Node2&#45;&gt;Node15 -->
<g id="edge15" class="edge">
<title>Node2&#45;&gt;Node15</title>
<path fill="none" stroke="midnightblue" d="M149.12,-146.21C162.97,-151.06 180.53,-157.21 196.01,-162.63"/>
<polygon fill="midnightblue" stroke="midnightblue" points="195.22,-166.06 205.81,-166.06 197.53,-159.45 195.22,-166.06"/>
</g>
<!-- Node16 -->
<g id="node16" class="node">
<title>Node16</title>
<g id="a_node16"><a xlink:href="uc_8c.html#a2844d125d9a2c1d03848dcdf952b0edb" target="_top" xlink:title=" ">
<polygon fill="white" stroke="black" points="210,-128.08 210,-147.08 258,-147.08 258,-128.08 210,-128.08"/>
<text text-anchor="middle" x="234" y="-135.08" font-family="Helvetica,sans-Serif" font-size="10.00">uc_dup</text>
</a>
</g>
</g>
<!-- Node2&#45;&gt;Node16 -->
<g id="edge16" class="edge">
<title>Node2&#45;&gt;Node16</title>
<path fill="none" stroke="midnightblue" d="M149.12,-137.58C164.1,-137.58 183.42,-137.58 199.74,-137.58"/>
<polygon fill="midnightblue" stroke="midnightblue" points="199.96,-141.08 209.96,-137.58 199.96,-134.08 199.96,-141.08"/>
</g>
<!-- Node4 -->
<g id="node4" class="node">
<title>Node4</title>
<g id="a_node4"><a xlink:href="sbuf_8c.html#a7bf14d501d36ce36ee269d77cf2c3fc6" target="_top" xlink:title=" ">
<polygon fill="white" stroke="black" points="311.5,-280.08 311.5,-299.08 373.5,-299.08 373.5,-280.08 311.5,-280.08"/>
<text text-anchor="middle" x="342.5" y="-287.08" font-family="Helvetica,sans-Serif" font-size="10.00">sbuf_done</text>
</a>
</g>
</g>
<!-- Node3&#45;&gt;Node4 -->
<g id="edge3" class="edge">
<title>Node3&#45;&gt;Node4</title>
<path fill="none" stroke="midnightblue" d="M258.11,-259.83C271.76,-264.7 289.35,-270.98 304.85,-276.51"/>
<polygon fill="midnightblue" stroke="midnightblue" points="304.08,-279.95 314.68,-280.01 306.43,-273.36 304.08,-279.95"/>
</g>
<!-- Node7 -->
<g id="node7" class="node">
<title>Node7</title>
<g id="a_node7"><a xlink:href="sbuf_8c.html#a57748585d6786a2c1aadc2cbe6f2135b" target="_top" xlink:title=" ">
<polygon fill="white" stroke="black" points="310,-204.08 310,-223.08 375,-223.08 375,-204.08 310,-204.08"/>
<text text-anchor="middle" x="342.5" y="-211.08" font-family="Helvetica,sans-Serif" font-size="10.00">sbuf_make</text>
</a>
</g>
</g>
<!-- Node3&#45;&gt;Node7 -->
<g id="edge6" class="edge">
<title>Node3&#45;&gt;Node7</title>
<path fill="none" stroke="midnightblue" d="M258.11,-243.34C271.76,-238.47 289.35,-232.19 304.85,-226.66"/>
<polygon fill="midnightblue" stroke="midnightblue" points="306.43,-229.81 314.68,-223.15 304.08,-223.22 306.43,-229.81"/>
</g>
<!-- Node8 -->
<g id="node8" class="node">
<title>Node8</title>
<g id="a_node8"><a xlink:href="sbuf_8c.html#a603d1d6ab090025f5850f10bfa2dec7a" target="_top" xlink:title=" ">
<polygon fill="white" stroke="black" points="316.5,-242.08 316.5,-261.08 368.5,-261.08 368.5,-242.08 316.5,-242.08"/>
<text text-anchor="middle" x="342.5" y="-249.08" font-family="Helvetica,sans-Serif" font-size="10.00">sbuf_str</text>
</a>
</g>
</g>
<!-- Node3&#45;&gt;Node8 -->
<g id="edge7" class="edge">
<title>Node3&#45;&gt;Node8</title>
<path fill="none" stroke="midnightblue" d="M258.11,-251.58C272.03,-251.58 290.04,-251.58 305.76,-251.58"/>
<polygon fill="midnightblue" stroke="midnightblue" points="306.2,-255.08 316.2,-251.58 306.2,-248.08 306.2,-255.08"/>
</g>
<!-- Node5 -->
<g id="node5" class="node">
<title>Node5</title>
<g id="a_node5"><a xlink:href="sbuf_8c.html#a4e56760893d5a6797626743840c9adf2" target="_top" xlink:title=" ">
<polygon fill="white" stroke="black" points="415,-280.08 415,-299.08 469,-299.08 469,-280.08 415,-280.08"/>
<text text-anchor="middle" x="442" y="-287.08" font-family="Helvetica,sans-Serif" font-size="10.00">sbuf_buf</text>
</a>
</g>
</g>
<!-- Node4&#45;&gt;Node5 -->
<g id="edge4" class="edge">
<title>Node4&#45;&gt;Node5</title>
<path fill="none" stroke="midnightblue" d="M373.55,-289.58C383.35,-289.58 394.34,-289.58 404.56,-289.58"/>
<polygon fill="midnightblue" stroke="midnightblue" points="404.84,-293.08 414.84,-289.58 404.84,-286.08 404.84,-293.08"/>
</g>
<!-- Node6 -->
<g id="node6" class="node">
<title>Node6</title>
<g id="a_node6"><a xlink:href="sbuf_8c.html#a4ad75f3948c0340c342a3ea3eb63a6e6" target="_top" xlink:title=" ">
<polygon fill="white" stroke="black" points="509,-261.08 509,-280.08 579,-280.08 579,-261.08 509,-261.08"/>
<text text-anchor="middle" x="544" y="-268.08" font-family="Helvetica,sans-Serif" font-size="10.00">sbuf_extend</text>
</a>
</g>
</g>
<!-- Node5&#45;&gt;Node6 -->
<g id="edge5" class="edge">
<title>Node5&#45;&gt;Node6</title>
<path fill="none" stroke="midnightblue" d="M469.01,-284.64C478.13,-282.91 488.64,-280.91 498.82,-278.98"/>
<polygon fill="midnightblue" stroke="midnightblue" points="499.66,-282.38 508.83,-277.08 498.35,-275.5 499.66,-282.38"/>
</g>
<!-- Node9 -->
<g id="node9" class="node">
<title>Node9</title>
<g id="a_node9"><a xlink:href="sbuf_8c.html#aa511ac77d6b486accc01c0512ef27ed2" target="_top" xlink:title=" ">
<polygon fill="white" stroke="black" points="411,-242.08 411,-261.08 473,-261.08 473,-242.08 411,-242.08"/>
<text text-anchor="middle" x="442" y="-249.08" font-family="Helvetica,sans-Serif" font-size="10.00">sbuf_mem</text>
</a>
</g>
</g>
<!-- Node8&#45;&gt;Node9 -->
<g id="edge8" class="edge">
<title>Node8&#45;&gt;Node9</title>
<path fill="none" stroke="midnightblue" d="M368.61,-251.58C378.36,-251.58 389.77,-251.58 400.61,-251.58"/>
<polygon fill="midnightblue" stroke="midnightblue" points="400.76,-255.08 410.76,-251.58 400.76,-248.08 400.76,-255.08"/>
</g>
<!-- Node9&#45;&gt;Node6 -->
<g id="edge9" class="edge">
<title>Node9&#45;&gt;Node6</title>
<path fill="none" stroke="midnightblue" d="M473,-257.28C481.11,-258.82 490.05,-260.52 498.76,-262.18"/>
<polygon fill="midnightblue" stroke="midnightblue" points="498.33,-265.66 508.81,-264.09 499.64,-258.78 498.33,-265.66"/>
</g>
<!-- Node12 -->
<g id="node12" class="node">
<title>Node12</title>
<g id="a_node12"><a xlink:href="lbuf_8c.html#a69221917b521da2cd5f804a9f4694f1a" target="_top" xlink:title=" ">
<polygon fill="white" stroke="black" points="317,-109.08 317,-128.08 368,-128.08 368,-109.08 317,-109.08"/>
<text text-anchor="middle" x="342.5" y="-116.08" font-family="Helvetica,sans-Serif" font-size="10.00">markidx</text>
</a>
</g>
</g>
<!-- Node11&#45;&gt;Node12 -->
<g id="edge12" class="edge">
<title>Node11&#45;&gt;Node12</title>
<path fill="none" stroke="midnightblue" d="M258.56,-203.95C263.87,-201.28 269.32,-198.13 274,-194.58 295.83,-178.03 316.01,-153.6 328.51,-136.94"/>
<polygon fill="midnightblue" stroke="midnightblue" points="331.54,-138.72 334.62,-128.58 325.89,-134.58 331.54,-138.72"/>
</g>
<!-- Node14 -->
<g id="node14" class="node">
<title>Node14</title>
<g id="a_node14"><a xlink:href="lbuf_8c.html#ac559857979b20ce0c64638c9e3e4edec" target="_top" xlink:title=" ">
<polygon fill="white" stroke="black" points="313.5,-14.08 313.5,-33.08 371.5,-33.08 371.5,-14.08 313.5,-14.08"/>
<text text-anchor="middle" x="342.5" y="-21.08" font-family="Helvetica,sans-Serif" font-size="10.00">linelength</text>
</a>
</g>
</g>
<!-- Node13&#45;&gt;Node14 -->
<g id="edge14" class="edge">
<title>Node13&#45;&gt;Node14</title>
<path fill="none" stroke="midnightblue" d="M261.87,-51.99C274.99,-47.31 290.97,-41.61 305.15,-36.55"/>
<polygon fill="midnightblue" stroke="midnightblue" points="306.39,-39.83 314.63,-33.17 304.04,-33.23 306.39,-39.83"/>
</g>
<!-- Node17&#45;&gt;Node13 -->
<g id="edge20" class="edge">
<title>Node17&#45;&gt;Node13</title>
<path fill="none" stroke="midnightblue" d="M158.24,-48.49C170.19,-50.58 183.71,-52.95 195.92,-55.09"/>
<polygon fill="midnightblue" stroke="midnightblue" points="195.37,-58.55 205.82,-56.82 196.57,-51.65 195.37,-58.55"/>
</g>
<!-- Node17&#45;&gt;Node14 -->
<g id="edge21" class="edge">
<title>Node17&#45;&gt;Node14</title>
<path fill="none" stroke="midnightblue" d="M137.5,-32.86C150.86,-23.51 172.68,-10.03 194,-4.58 230.97,4.86 274.41,-2.93 304.54,-11.21"/>
<polygon fill="midnightblue" stroke="midnightblue" points="303.63,-14.59 314.21,-14.01 305.58,-7.86 303.63,-14.59"/>
</g>
<!-- Node18 -->
<g id="node18" class="node">
<title>Node18</title>
<g id="a_node18"><a xlink:href="lbuf_8c.html#a5a34f3f60dfd5ea06207d96d821da368" target="_top" xlink:title=" ">
<polygon fill="white" stroke="black" points="204.5,-14.08 204.5,-33.08 263.5,-33.08 263.5,-14.08 204.5,-14.08"/>
<text text-anchor="middle" x="234" y="-21.08" font-family="Helvetica,sans-Serif" font-size="10.00">lbuf_mark</text>
</a>
</g>
</g>
<!-- Node17&#45;&gt;Node18 -->
<g id="edge18" class="edge">
<title>Node17&#45;&gt;Node18</title>
<path fill="none" stroke="midnightblue" d="M158.24,-36.68C169.69,-34.67 182.57,-32.41 194.37,-30.35"/>
<polygon fill="midnightblue" stroke="midnightblue" points="195.16,-33.76 204.4,-28.59 193.95,-26.87 195.16,-33.76"/>
</g>
<!-- Node18&#45;&gt;Node12 -->
<g id="edge19" class="edge">
<title>Node18&#45;&gt;Node12</title>
<path fill="none" stroke="midnightblue" d="M258.56,-33.22C263.87,-35.88 269.32,-39.03 274,-42.58 295.83,-59.14 316.01,-83.57 328.51,-100.23"/>
<polygon fill="midnightblue" stroke="midnightblue" points="325.89,-102.58 334.62,-108.59 331.54,-98.45 325.89,-102.58"/>
</g>
</g>
</svg>
