<?xml version="1.0" encoding="UTF-8" standalone="no"?>
<!DOCTYPE svg PUBLIC "-//W3C//DTD SVG 1.1//EN"
 "http://www.w3.org/Graphics/SVG/1.1/DTD/svg11.dtd">
<!-- Generated by graphviz version 2.44.1 (20200629.0846)
 -->
<!-- Title: dir_context Pages: 1 -->
<!--zoomable 210 -->
<svg id="main" version="1.1" xmlns="http://www.w3.org/2000/svg" xmlns:xlink="http://www.w3.org/1999/xlink" xml:space="preserve" onload="init(evt)">
<style type="text/css"><![CDATA[
.edge:hover path { stroke: red; }
.edge:hover polygon { stroke: red; fill: red; }
]]></style>
<script type="text/javascript"><![CDATA[
var edges = document.getElementsByTagName('g');
if (edges && edges.length) {
  for (var i=0;i<edges.length;i++) {
    if (edges[i].id.substr(0,4)=='edge') {
      edges[i].setAttribute('class','edge');
    }
  }
}
]]></script>
        <defs>
                <circle id="rim" cx="0" cy="0" r="7"/>
                <circle id="rim2" cx="0" cy="0" r="3.5"/>
                <g id="zoomPlus">
                        <use xlink:href="#rim" fill="#404040">
                                <set attributeName="fill" to="#808080" begin="zoomplus.mouseover" end="zoomplus.mouseout"/>
                        </use>
                        <path d="M-4,0h8M0,-4v8" fill="none" stroke="white" stroke-width="1.5" pointer-events="none"/>
                </g>
                <g id="zoomMin">
                        <use xlink:href="#rim" fill="#404040">
                                <set attributeName="fill" to="#808080" begin="zoomminus.mouseover" end="zoomminus.mouseout"/>
                        </use>
                        <path d="M-4,0h8" fill="none" stroke="white" stroke-width="1.5" pointer-events="none"/>
                </g>
                <g id="dirArrow">
                        <path fill="none" stroke="white" stroke-width="1.5" d="M0,-3.0v7 M-2.5,-0.5L0,-3.0L2.5,-0.5"/>
                </g>
               <g id="resetDef">
                       <use xlink:href="#rim2" fill="#404040">
                               <set attributeName="fill" to="#808080" begin="reset.mouseover" end="reset.mouseout"/>
                       </use>
               </g>
        </defs>

<script type="text/javascript">
var viewWidth = 758;
var viewHeight = 210;
var sectionId = 'dynsection-85';
</script>
<script xlink:href="svgpan.js"/>
<svg id="graph" class="graph">
<g id="viewport">
<title>dir_context</title>
<polygon fill="white" stroke="transparent" points="-4,4 -4,-205.85 754,-205.85 754,4 -4,4"/>
<!-- Node1 -->
<g id="node1" class="node">
<title>Node1</title>
<g id="a_node1"><a xlink:title=" ">
<polygon fill="#bfbfbf" stroke="black" points="0,-49.35 0,-68.35 65,-68.35 65,-49.35 0,-49.35"/>
<text text-anchor="middle" x="32.5" y="-56.35" font-family="Helvetica,sans-Serif" font-size="10.00">dir_context</text>
</a>
</g>
</g>
<!-- Node2 -->
<g id="node2" class="node">
<title>Node2</title>
<g id="a_node2"><a xlink:href="conf_8c.html#a9e1bc5ed600c151c51d8e2342454e07c" target="_top" xlink:title=" ">
<polygon fill="white" stroke="black" points="101,-68.35 101,-87.35 184,-87.35 184,-68.35 101,-68.35"/>
<text text-anchor="middle" x="142.5" y="-75.35" font-family="Helvetica,sans-Serif" font-size="10.00">conf_dircontext</text>
</a>
</g>
</g>
<!-- Node1&#45;&gt;Node2 -->
<g id="edge1" class="edge">
<title>Node1&#45;&gt;Node2</title>
<path fill="none" stroke="midnightblue" d="M65.03,-64.4C73.17,-65.83 82.14,-67.41 90.99,-68.97"/>
<polygon fill="midnightblue" stroke="midnightblue" points="90.42,-72.42 100.87,-70.7 91.63,-65.52 90.42,-72.42"/>
</g>
<!-- Node3 -->
<g id="node3" class="node">
<title>Node3</title>
<g id="a_node3"><a xlink:href="rset_8c.html#a389ec5abca88adc048a058744f2373eb" target="_top" xlink:title=" ">
<polygon fill="white" stroke="black" points="115.5,-30.35 115.5,-49.35 169.5,-49.35 169.5,-30.35 115.5,-30.35"/>
<text text-anchor="middle" x="142.5" y="-37.35" font-family="Helvetica,sans-Serif" font-size="10.00">rset_find</text>
</a>
</g>
</g>
<!-- Node1&#45;&gt;Node3 -->
<g id="edge2" class="edge">
<title>Node1&#45;&gt;Node3</title>
<path fill="none" stroke="midnightblue" d="M65.03,-53.31C77.61,-51.09 92.16,-48.53 105.18,-46.24"/>
<polygon fill="midnightblue" stroke="midnightblue" points="105.98,-49.66 115.22,-44.48 104.76,-42.76 105.98,-49.66"/>
</g>
<!-- Node4 -->
<g id="node4" class="node">
<title>Node4</title>
<g id="a_node4"><a xlink:href="regex_8c.html#aa085ccd05ec25e3f8053850aebc50fe3" target="_top" xlink:title=" ">
<polygon fill="white" stroke="black" points="220,-30.35 220,-49.35 271,-49.35 271,-30.35 220,-30.35"/>
<text text-anchor="middle" x="245.5" y="-37.35" font-family="Helvetica,sans-Serif" font-size="10.00">regexec</text>
</a>
</g>
</g>
<!-- Node3&#45;&gt;Node4 -->
<g id="edge3" class="edge">
<title>Node3&#45;&gt;Node4</title>
<path fill="none" stroke="midnightblue" d="M169.51,-39.85C181.78,-39.85 196.59,-39.85 209.8,-39.85"/>
<polygon fill="midnightblue" stroke="midnightblue" points="209.97,-43.35 219.97,-39.85 209.97,-36.35 209.97,-43.35"/>
</g>
<!-- Node5 -->
<g id="node5" class="node">
<title>Node5</title>
<g id="a_node5"><a xlink:href="regex_8c.html#aa5925e49bd18112bb37421dbde29162a" target="_top" xlink:title=" ">
<polygon fill="white" stroke="black" points="307,-59.35 307,-78.35 378,-78.35 378,-59.35 307,-59.35"/>
<text text-anchor="middle" x="342.5" y="-66.35" font-family="Helvetica,sans-Serif" font-size="10.00">re_recmatch</text>
</a>
</g>
</g>
<!-- Node4&#45;&gt;Node5 -->
<g id="edge4" class="edge">
<title>Node4&#45;&gt;Node5</title>
<path fill="none" stroke="midnightblue" d="M271.46,-47.47C280.37,-50.19 290.65,-53.33 300.54,-56.35"/>
<polygon fill="midnightblue" stroke="midnightblue" points="299.66,-59.74 310.25,-59.31 301.7,-53.04 299.66,-59.74"/>
</g>
<!-- Node11 -->
<g id="node11" class="node">
<title>Node11</title>
<g id="a_node11"><a xlink:href="regex_8c.html#a9a0d6d5f93f1eaba8b63b16903c0952d" target="_top" xlink:title=" ">
<polygon fill="white" stroke="black" points="703.5,-68.35 703.5,-87.35 748.5,-87.35 748.5,-68.35 703.5,-68.35"/>
<text text-anchor="middle" x="726" y="-75.35" font-family="Helvetica,sans-Serif" font-size="10.00">uc_len</text>
</a>
</g>
</g>
<!-- Node4&#45;&gt;Node11 -->
<g id="edge15" class="edge">
<title>Node4&#45;&gt;Node11</title>
<path fill="none" stroke="midnightblue" d="M271.18,-31.61C306.89,-20.43 375.24,-1.85 435,-1.85 435,-1.85 435,-1.85 532,-1.85 592.15,-1.85 611.96,5.56 666,-20.85 684.68,-29.98 701.25,-47.24 712.03,-60.38"/>
<polygon fill="midnightblue" stroke="midnightblue" points="709.32,-62.6 718.25,-68.3 714.83,-58.27 709.32,-62.6"/>
</g>
<!-- Node6 -->
<g id="node6" class="node">
<title>Node6</title>
<g id="a_node6"><a xlink:href="regex_8c.html#a8e35614ddf21d405773327a52a95a73d" target="_top" xlink:title=" ">
<polygon fill="white" stroke="black" points="414,-78.35 414,-97.35 458,-97.35 458,-78.35 414,-78.35"/>
<text text-anchor="middle" x="436" y="-85.35" font-family="Helvetica,sans-Serif" font-size="10.00">re_rec</text>
</a>
</g>
</g>
<!-- Node5&#45;&gt;Node6 -->
<g id="edge5" class="edge">
<title>Node5&#45;&gt;Node6</title>
<path fill="none" stroke="midnightblue" d="M378.09,-76.03C386.56,-77.79 395.57,-79.66 403.87,-81.39"/>
<polygon fill="midnightblue" stroke="midnightblue" points="403.4,-84.86 413.9,-83.47 404.82,-78.01 403.4,-84.86"/>
</g>
<!-- Node7 -->
<g id="node7" class="node">
<title>Node7</title>
<g id="a_node7"><a xlink:href="regex_8c.html#a24fd1fc7457ff4f03fb384f7170ac395" target="_top" xlink:title=" ">
<polygon fill="white" stroke="black" points="494,-87.35 494,-106.35 568,-106.35 568,-87.35 494,-87.35"/>
<text text-anchor="middle" x="531" y="-94.35" font-family="Helvetica,sans-Serif" font-size="10.00">ratom_match</text>
</a>
</g>
</g>
<!-- Node6&#45;&gt;Node7 -->
<g id="edge6" class="edge">
<title>Node6&#45;&gt;Node7</title>
<path fill="none" stroke="midnightblue" d="M458.1,-89.89C465.73,-90.63 474.68,-91.5 483.63,-92.36"/>
<polygon fill="midnightblue" stroke="midnightblue" points="483.36,-95.85 493.65,-93.33 484.03,-88.89 483.36,-95.85"/>
</g>
<!-- Node8 -->
<g id="node8" class="node">
<title>Node8</title>
<g id="a_node8"><a xlink:href="regex_8c.html#aae17ed73e84075718fb04d131d6ca779" target="_top" xlink:title=" ">
<polygon fill="white" stroke="black" points="604,-106.35 604,-125.35 666,-125.35 666,-106.35 604,-106.35"/>
<text text-anchor="middle" x="635" y="-113.35" font-family="Helvetica,sans-Serif" font-size="10.00">brk_match</text>
</a>
</g>
</g>
<!-- Node7&#45;&gt;Node8 -->
<g id="edge7" class="edge">
<title>Node7&#45;&gt;Node8</title>
<path fill="none" stroke="midnightblue" d="M568.25,-103.6C576.55,-105.15 585.43,-106.8 593.89,-108.38"/>
<polygon fill="midnightblue" stroke="midnightblue" points="593.45,-111.86 603.93,-110.25 594.74,-104.98 593.45,-111.86"/>
</g>
<!-- Node10 -->
<g id="node10" class="node">
<title>Node10</title>
<g id="a_node10"><a xlink:href="regex_8c.html#aaf73cdb88048e7f9fd588eb8d5aeb5a3" target="_top" xlink:title=" ">
<polygon fill="white" stroke="black" points="702,-144.35 702,-163.35 750,-163.35 750,-144.35 702,-144.35"/>
<text text-anchor="middle" x="726" y="-151.35" font-family="Helvetica,sans-Serif" font-size="10.00">uc_dec</text>
</a>
</g>
</g>
<!-- Node7&#45;&gt;Node10 -->
<g id="edge13" class="edge">
<title>Node7&#45;&gt;Node10</title>
<path fill="none" stroke="midnightblue" d="M546.53,-106.37C560.63,-115.15 582.94,-127.86 604,-134.85 632.65,-144.37 666.75,-149.17 691.43,-151.57"/>
<polygon fill="midnightblue" stroke="midnightblue" points="691.45,-155.08 701.72,-152.48 692.07,-148.11 691.45,-155.08"/>
</g>
<!-- Node7&#45;&gt;Node11 -->
<g id="edge14" class="edge">
<title>Node7&#45;&gt;Node11</title>
<path fill="none" stroke="midnightblue" d="M568.3,-93.28C604.32,-89.73 658.97,-84.35 693.3,-80.97"/>
<polygon fill="midnightblue" stroke="midnightblue" points="693.64,-84.46 703.25,-79.99 692.96,-77.49 693.64,-84.46"/>
</g>
<!-- Node12 -->
<g id="node12" class="node">
<title>Node12</title>
<g id="a_node12"><a xlink:href="regex_8c.html#a35ad3fd0dbb795e6f30404ce86a7be5b" target="_top" xlink:title=" ">
<polygon fill="white" stroke="black" points="612.5,-30.35 612.5,-49.35 657.5,-49.35 657.5,-30.35 612.5,-30.35"/>
<text text-anchor="middle" x="635" y="-37.35" font-family="Helvetica,sans-Serif" font-size="10.00">isword</text>
</a>
</g>
</g>
<!-- Node7&#45;&gt;Node12 -->
<g id="edge11" class="edge">
<title>Node7&#45;&gt;Node12</title>
<path fill="none" stroke="midnightblue" d="M549.3,-87.18C565.45,-78.16 589.74,-64.58 608.18,-54.28"/>
<polygon fill="midnightblue" stroke="midnightblue" points="609.93,-57.31 616.95,-49.38 606.52,-51.2 609.93,-57.31"/>
</g>
<!-- Node13 -->
<g id="node13" class="node">
<title>Node13</title>
<g id="a_node13"><a xlink:href="regex_8c.html#ade3e10606e6e8866e6151fe8440d6101" target="_top" xlink:title=" ">
<polygon fill="white" stroke="black" points="611,-182.35 611,-201.35 659,-201.35 659,-182.35 611,-182.35"/>
<text text-anchor="middle" x="635" y="-189.35" font-family="Helvetica,sans-Serif" font-size="10.00">uc_beg</text>
</a>
</g>
</g>
<!-- Node7&#45;&gt;Node13 -->
<g id="edge12" class="edge">
<title>Node7&#45;&gt;Node13</title>
<path fill="none" stroke="midnightblue" d="M541.02,-106.36C554.38,-120.29 580.38,-146.86 604,-167.85 607.05,-170.57 610.36,-173.35 613.63,-176.03"/>
<polygon fill="midnightblue" stroke="midnightblue" points="611.51,-178.81 621.5,-182.32 615.88,-173.34 611.51,-178.81"/>
</g>
<!-- Node9 -->
<g id="node9" class="node">
<title>Node9</title>
<g id="a_node9"><a xlink:href="regex_8c.html#acc18ff8d2687611a9e221b3329b02413" target="_top" xlink:title=" ">
<polygon fill="white" stroke="black" points="702,-106.35 702,-125.35 750,-125.35 750,-106.35 702,-106.35"/>
<text text-anchor="middle" x="726" y="-113.35" font-family="Helvetica,sans-Serif" font-size="10.00">brk_len</text>
</a>
</g>
</g>
<!-- Node8&#45;&gt;Node9 -->
<g id="edge8" class="edge">
<title>Node8&#45;&gt;Node9</title>
<path fill="none" stroke="midnightblue" d="M666.13,-115.85C674.36,-115.85 683.32,-115.85 691.71,-115.85"/>
<polygon fill="midnightblue" stroke="midnightblue" points="691.94,-119.35 701.94,-115.85 691.94,-112.35 691.94,-119.35"/>
</g>
<!-- Node8&#45;&gt;Node10 -->
<g id="edge9" class="edge">
<title>Node8&#45;&gt;Node10</title>
<path fill="none" stroke="midnightblue" d="M658.46,-125.44C669,-129.94 681.75,-135.38 693.25,-140.3"/>
<polygon fill="midnightblue" stroke="midnightblue" points="691.98,-143.56 702.55,-144.27 694.73,-137.12 691.98,-143.56"/>
</g>
<!-- Node8&#45;&gt;Node11 -->
<g id="edge10" class="edge">
<title>Node8&#45;&gt;Node11</title>
<path fill="none" stroke="midnightblue" d="M658.46,-106.26C669.24,-101.66 682.33,-96.07 694.04,-91.07"/>
<polygon fill="midnightblue" stroke="midnightblue" points="695.65,-94.19 703.47,-87.04 692.9,-87.75 695.65,-94.19"/>
</g>
</g>
</svg>
        <g id="navigator" transform="translate(0 0)" fill="#404254">
                <rect fill="#f2f5e9" fill-opacity="0.5" stroke="#606060" stroke-width=".5" x="0" y="0" width="60" height="60"/>
                <use id="zoomplus" xlink:href="#zoomPlus" x="17" y="9" onmousedown="handleZoom(evt,'in')"/>
                <use id="zoomminus" xlink:href="#zoomMin" x="42" y="9" onmousedown="handleZoom(evt,'out')"/>
                <use id="reset" xlink:href="#resetDef" x="30" y="36" onmousedown="handleReset()"/>
                <g id="arrowUp" xlink:href="#dirArrow" transform="translate(30 24)" onmousedown="handlePan(0,-1)">
                  <use xlink:href="#rim" fill="#404040">
                        <set attributeName="fill" to="#808080" begin="arrowUp.mouseover" end="arrowUp.mouseout"/>
                  </use>
                  <path fill="none" stroke="white" stroke-width="1.5" d="M0,-3.0v7 M-2.5,-0.5L0,-3.0L2.5,-0.5"/>
                </g>
                <g id="arrowRight" xlink:href="#dirArrow" transform="rotate(90) translate(36 -43)" onmousedown="handlePan(1,0)">
                  <use xlink:href="#rim" fill="#404040">
                        <set attributeName="fill" to="#808080" begin="arrowRight.mouseover" end="arrowRight.mouseout"/>
                  </use>
                  <path fill="none" stroke="white" stroke-width="1.5" d="M0,-3.0v7 M-2.5,-0.5L0,-3.0L2.5,-0.5"/>
                </g>
                <g id="arrowDown" xlink:href="#dirArrow" transform="rotate(180) translate(-30 -48)" onmousedown="handlePan(0,1)">
                  <use xlink:href="#rim" fill="#404040">
                        <set attributeName="fill" to="#808080" begin="arrowDown.mouseover" end="arrowDown.mouseout"/>
                  </use>
                  <path fill="none" stroke="white" stroke-width="1.5" d="M0,-3.0v7 M-2.5,-0.5L0,-3.0L2.5,-0.5"/>
                </g>
                <g id="arrowLeft" xlink:href="#dirArrow" transform="rotate(270) translate(-36 17)" onmousedown="handlePan(-1,0)">
                  <use xlink:href="#rim" fill="#404040">
                        <set attributeName="fill" to="#808080" begin="arrowLeft.mouseover" end="arrowLeft.mouseout"/>
                  </use>
                  <path fill="none" stroke="white" stroke-width="1.5" d="M0,-3.0v7 M-2.5,-0.5L0,-3.0L2.5,-0.5"/>
                </g>
        </g>
        <svg viewBox="0 0 15 15" width="100%" height="30px" preserveAspectRatio="xMaxYMin meet">
         <g id="arrow_out" transform="scale(0.3 0.3)">
          <a xlink:href="vi_8h_aba0a553010578626d7148da2b6551321_cgraph_org.svg" target="_base">
           <rect id="button" ry="5" rx="5" y="6" x="6" height="38" width="38"
                fill="#f2f5e9" fill-opacity="0.5" stroke="#606060" stroke-width="1.0"/>
           <path id="arrow"
             d="M 11.500037,31.436501 C 11.940474,20.09759 22.043105,11.32322 32.158766,21.979434 L 37.068811,17.246167 C 37.068811,17.246167 37.088388,32 37.088388,32 L 22.160133,31.978069 C 22.160133,31.978069 26.997745,27.140456 26.997745,27.140456 C 18.528582,18.264221 13.291696,25.230495 11.500037,31.436501 z"
             style="fill:#404040;"/>
          </a>
         </g>
        </svg>
</svg>
