<?xml version="1.0" encoding="UTF-8" standalone="no"?>
<!DOCTYPE svg PUBLIC "-//W3C//DTD SVG 1.1//EN"
 "http://www.w3.org/Graphics/SVG/1.1/DTD/svg11.dtd">
<!-- Generated by graphviz version 2.44.1 (20200629.0846)
 -->
<!-- Title: led_read Pages: 1 -->
<svg width="479pt" height="104pt"
 viewBox="0.00 0.00 479.00 104.00" xmlns="http://www.w3.org/2000/svg" xmlns:xlink="http://www.w3.org/1999/xlink">
<g id="graph0" class="graph" transform="scale(1 1) rotate(0) translate(4 100)">
<title>led_read</title>
<polygon fill="white" stroke="transparent" points="-4,4 -4,-100 475,-100 475,4 -4,4"/>
<!-- Node1 -->
<g id="node1" class="node">
<title>Node1</title>
<g id="a_node1"><a xlink:title=" ">
<polygon fill="#bfbfbf" stroke="black" points="418,-57.5 418,-76.5 471,-76.5 471,-57.5 418,-57.5"/>
<text text-anchor="middle" x="444.5" y="-64.5" font-family="Helvetica,sans-Serif" font-size="10.00">led_read</text>
</a>
</g>
</g>
<!-- Node2 -->
<g id="node2" class="node">
<title>Node2</title>
<g id="a_node2"><a xlink:href="vi_8c.html#a7162c1758b29682a16b65bc9766309f4" target="_top" xlink:title=" ">
<polygon fill="white" stroke="black" points="334,-57.5 334,-76.5 382,-76.5 382,-57.5 334,-57.5"/>
<text text-anchor="middle" x="358" y="-64.5" font-family="Helvetica,sans-Serif" font-size="10.00">vi_char</text>
</a>
</g>
</g>
<!-- Node1&#45;&gt;Node2 -->
<g id="edge1" class="edge">
<title>Node1&#45;&gt;Node2</title>
<path fill="none" stroke="midnightblue" d="M407.47,-67C398.86,-67 389.91,-67 382.07,-67"/>
<polygon fill="midnightblue" stroke="midnightblue" points="407.69,-70.5 417.69,-67 407.69,-63.5 407.69,-70.5"/>
</g>
<!-- Node3 -->
<g id="node3" class="node">
<title>Node3</title>
<g id="a_node3"><a xlink:href="vi_8c.html#a3635843354dbb31e3c00efcd5798535a" target="_top" xlink:title=" ">
<polygon fill="white" stroke="black" points="139,-76.5 139,-95.5 203,-95.5 203,-76.5 139,-76.5"/>
<text text-anchor="middle" x="171" y="-83.5" font-family="Helvetica,sans-Serif" font-size="10.00">vc_replace</text>
</a>
</g>
</g>
<!-- Node2&#45;&gt;Node3 -->
<g id="edge2" class="edge">
<title>Node2&#45;&gt;Node3</title>
<path fill="none" stroke="midnightblue" d="M323.96,-70.39C289.71,-73.91 236.58,-79.37 203.07,-82.81"/>
<polygon fill="midnightblue" stroke="midnightblue" points="324.35,-73.87 333.94,-69.37 323.64,-66.91 324.35,-73.87"/>
</g>
<!-- Node6 -->
<g id="node6" class="node">
<title>Node6</title>
<g id="a_node6"><a xlink:href="vi_8c.html#aaa4777ea0715ea846346d0f27a0cfa3f" target="_top" xlink:title=" ">
<polygon fill="white" stroke="black" points="239,-38.5 239,-57.5 298,-57.5 298,-38.5 239,-38.5"/>
<text text-anchor="middle" x="268.5" y="-45.5" font-family="Helvetica,sans-Serif" font-size="10.00">vi_motion</text>
</a>
</g>
</g>
<!-- Node2&#45;&gt;Node6 -->
<g id="edge5" class="edge">
<title>Node2&#45;&gt;Node6</title>
<path fill="none" stroke="midnightblue" d="M323.62,-59.75C315.17,-57.92 306.18,-55.97 298.01,-54.19"/>
<polygon fill="midnightblue" stroke="midnightblue" points="323.04,-63.21 333.55,-61.91 324.52,-56.37 323.04,-63.21"/>
</g>
<!-- Node4 -->
<g id="node4" class="node">
<title>Node4</title>
<g id="a_node4"><a xlink:href="vi_8c.html#a8d808e0f3453afe6600673ee1ea5f828" target="_top" xlink:title=" ">
<polygon fill="white" stroke="black" points="74,-38.5 74,-57.5 103,-57.5 103,-38.5 74,-38.5"/>
<text text-anchor="middle" x="88.5" y="-45.5" font-family="Helvetica,sans-Serif" font-size="10.00">vi</text>
</a>
</g>
</g>
<!-- Node3&#45;&gt;Node4 -->
<g id="edge3" class="edge">
<title>Node3&#45;&gt;Node4</title>
<path fill="none" stroke="midnightblue" d="M140.35,-72C127.63,-66 113.39,-59.28 103.22,-54.48"/>
<polygon fill="midnightblue" stroke="midnightblue" points="139.15,-75.31 149.69,-76.41 142.14,-68.98 139.15,-75.31"/>
</g>
<!-- Node5 -->
<g id="node5" class="node">
<title>Node5</title>
<g id="a_node5"><a xlink:href="vi_8c.html#a0ddf1224851353fc92bfbff6f499fa97" target="_top" xlink:title=" ">
<polygon fill="white" stroke="black" points="0,-38.5 0,-57.5 38,-57.5 38,-38.5 0,-38.5"/>
<text text-anchor="middle" x="19" y="-45.5" font-family="Helvetica,sans-Serif" font-size="10.00">main</text>
</a>
</g>
</g>
<!-- Node4&#45;&gt;Node5 -->
<g id="edge4" class="edge">
<title>Node4&#45;&gt;Node5</title>
<path fill="none" stroke="midnightblue" d="M63.58,-48C55.25,-48 46.04,-48 38.25,-48"/>
<polygon fill="midnightblue" stroke="midnightblue" points="63.84,-51.5 73.84,-48 63.84,-44.5 63.84,-51.5"/>
</g>
<!-- Node6&#45;&gt;Node4 -->
<g id="edge8" class="edge">
<title>Node6&#45;&gt;Node4</title>
<path fill="none" stroke="midnightblue" d="M228.77,-48C189.08,-48 129.53,-48 103.04,-48"/>
<polygon fill="midnightblue" stroke="midnightblue" points="228.9,-51.5 238.9,-48 228.9,-44.5 228.9,-51.5"/>
</g>
<!-- Node7 -->
<g id="node7" class="node">
<title>Node7</title>
<g id="a_node7"><a xlink:href="vi_8c.html#a06cbc6eb843436a0e77e07cbab0c4538" target="_top" xlink:title=" ">
<polygon fill="white" stroke="black" points="140,-0.5 140,-19.5 202,-19.5 202,-0.5 140,-0.5"/>
<text text-anchor="middle" x="171" y="-7.5" font-family="Helvetica,sans-Serif" font-size="10.00">vc_motion</text>
</a>
</g>
</g>
<!-- Node6&#45;&gt;Node7 -->
<g id="edge6" class="edge">
<title>Node6&#45;&gt;Node7</title>
<path fill="none" stroke="midnightblue" d="M233.79,-34.59C221.35,-29.64 207.51,-24.13 196.09,-19.59"/>
<polygon fill="midnightblue" stroke="midnightblue" points="232.82,-37.97 243.4,-38.41 235.4,-31.46 232.82,-37.97"/>
</g>
<!-- Node7&#45;&gt;Node4 -->
<g id="edge7" class="edge">
<title>Node7&#45;&gt;Node4</title>
<path fill="none" stroke="midnightblue" d="M140.35,-24C127.63,-30 113.39,-36.72 103.22,-41.52"/>
<polygon fill="midnightblue" stroke="midnightblue" points="142.14,-27.02 149.69,-19.59 139.15,-20.69 142.14,-27.02"/>
</g>
</g>
</svg>
