<?xml version="1.0" encoding="UTF-8" standalone="no"?>
<!DOCTYPE svg PUBLIC "-//W3C//DTD SVG 1.1//EN"
 "http://www.w3.org/Graphics/SVG/1.1/DTD/svg11.dtd">
<!-- Generated by graphviz version 2.44.1 (20200629.0846)
 -->
<!-- Title: cmd_make Pages: 1 -->
<svg width="932pt" height="180pt"
 viewBox="0.00 0.00 932.00 180.00" xmlns="http://www.w3.org/2000/svg" xmlns:xlink="http://www.w3.org/1999/xlink">
<g id="graph0" class="graph" transform="scale(1 1) rotate(0) translate(4 176)">
<title>cmd_make</title>
<polygon fill="white" stroke="transparent" points="-4,4 -4,-176 928,-176 928,4 -4,4"/>
<!-- Node1 -->
<g id="node1" class="node">
<title>Node1</title>
<g id="a_node1"><a xlink:title=" ">
<polygon fill="#bfbfbf" stroke="black" points="859,-76.5 859,-95.5 924,-95.5 924,-76.5 859,-76.5"/>
<text text-anchor="middle" x="891.5" y="-83.5" font-family="Helvetica,sans-Serif" font-size="10.00">cmd_make</text>
</a>
</g>
</g>
<!-- Node2 -->
<g id="node2" class="node">
<title>Node2</title>
<g id="a_node2"><a xlink:href="vi_8h.html#a9d4dfeb0bf734650c92cdc08c208e846" target="_top" xlink:title=" ">
<polygon fill="white" stroke="black" points="764,-76.5 764,-95.5 823,-95.5 823,-76.5 764,-76.5"/>
<text text-anchor="middle" x="793.5" y="-83.5" font-family="Helvetica,sans-Serif" font-size="10.00">cmd_pipe</text>
</a>
</g>
</g>
<!-- Node1&#45;&gt;Node2 -->
<g id="edge1" class="edge">
<title>Node1&#45;&gt;Node2</title>
<path fill="none" stroke="midnightblue" d="M848.58,-86C840.03,-86 831.22,-86 823.25,-86"/>
<polygon fill="midnightblue" stroke="midnightblue" points="848.8,-89.5 858.8,-86 848.8,-82.5 848.8,-89.5"/>
</g>
<!-- Node3 -->
<g id="node3" class="node">
<title>Node3</title>
<g id="a_node3"><a xlink:href="vi_8h.html#aa87e7b54b5a848dc2120731a0e59e09a" target="_top" xlink:title=" ">
<polygon fill="white" stroke="black" points="561,-114.5 561,-133.5 623,-133.5 623,-114.5 561,-114.5"/>
<text text-anchor="middle" x="592" y="-121.5" font-family="Helvetica,sans-Serif" font-size="10.00">cmd_exec</text>
</a>
</g>
</g>
<!-- Node2&#45;&gt;Node3 -->
<g id="edge2" class="edge">
<title>Node2&#45;&gt;Node3</title>
<path fill="none" stroke="midnightblue" d="M754.11,-98.31C745.58,-100.77 736.53,-103.15 728,-105 692.38,-112.71 650.76,-118.02 623.25,-121.03"/>
<polygon fill="midnightblue" stroke="midnightblue" points="755.24,-101.63 763.84,-95.42 753.25,-94.91 755.24,-101.63"/>
</g>
<!-- Node4 -->
<g id="node4" class="node">
<title>Node4</title>
<g id="a_node4"><a xlink:href="ex_8c.html#adcd83f163f659bd2596bcfc25d74bde9" target="_top" xlink:title=" ">
<polygon fill="white" stroke="black" points="454.5,-152.5 454.5,-171.5 507.5,-171.5 507.5,-152.5 454.5,-152.5"/>
<text text-anchor="middle" x="481" y="-159.5" font-family="Helvetica,sans-Serif" font-size="10.00">ec_exec</text>
</a>
</g>
</g>
<!-- Node2&#45;&gt;Node4 -->
<g id="edge16" class="edge">
<title>Node2&#45;&gt;Node4</title>
<path fill="none" stroke="midnightblue" d="M770.26,-100.97C758.2,-108.52 742.76,-117.26 728,-123 651.63,-152.7 553.53,-159.8 507.71,-161.49"/>
<polygon fill="midnightblue" stroke="midnightblue" points="772.25,-103.86 778.77,-95.51 768.46,-97.97 772.25,-103.86"/>
</g>
<!-- Node14 -->
<g id="node14" class="node">
<title>Node14</title>
<g id="a_node14"><a xlink:href="ex_8c.html#add0e79e1f1e3d45f4eaa6fbe5c1ca443" target="_top" xlink:title=" ">
<polygon fill="white" stroke="black" points="676,-0.5 676,-19.5 727,-19.5 727,-0.5 676,-0.5"/>
<text text-anchor="middle" x="701.5" y="-7.5" font-family="Helvetica,sans-Serif" font-size="10.00">ec_read</text>
</a>
</g>
</g>
<!-- Node2&#45;&gt;Node14 -->
<g id="edge17" class="edge">
<title>Node2&#45;&gt;Node14</title>
<path fill="none" stroke="midnightblue" d="M774.63,-69.48C761.87,-57.88 744.18,-42.14 728,-29 724.14,-25.87 719.85,-22.59 715.9,-19.66"/>
<polygon fill="midnightblue" stroke="midnightblue" points="772.49,-72.27 782.23,-76.45 777.22,-67.11 772.49,-72.27"/>
</g>
<!-- Node15 -->
<g id="node15" class="node">
<title>Node15</title>
<g id="a_node15"><a xlink:href="ex_8c.html#a057b67e2d4f23df3ad50a9d3ec86125b" target="_top" xlink:title=" ">
<polygon fill="white" stroke="black" points="675,-76.5 675,-95.5 728,-95.5 728,-76.5 675,-76.5"/>
<text text-anchor="middle" x="701.5" y="-83.5" font-family="Helvetica,sans-Serif" font-size="10.00">ec_write</text>
</a>
</g>
</g>
<!-- Node2&#45;&gt;Node15 -->
<g id="edge18" class="edge">
<title>Node2&#45;&gt;Node15</title>
<path fill="none" stroke="midnightblue" d="M753.32,-86C744.77,-86 735.94,-86 728.08,-86"/>
<polygon fill="midnightblue" stroke="midnightblue" points="753.53,-89.5 763.53,-86 753.53,-82.5 753.53,-89.5"/>
</g>
<!-- Node19 -->
<g id="node19" class="node">
<title>Node19</title>
<g id="a_node19"><a xlink:href="vi_8c.html#ab8e0c9b9d2ef5161c6a3a8828606df5f" target="_top" xlink:title=" ">
<polygon fill="white" stroke="black" points="678,-38.5 678,-57.5 725,-57.5 725,-38.5 678,-38.5"/>
<text text-anchor="middle" x="701.5" y="-45.5" font-family="Helvetica,sans-Serif" font-size="10.00">vi_pipe</text>
</a>
</g>
</g>
<!-- Node2&#45;&gt;Node19 -->
<g id="edge26" class="edge">
<title>Node2&#45;&gt;Node19</title>
<path fill="none" stroke="midnightblue" d="M760.39,-72.44C748.75,-67.53 735.86,-62.09 725.2,-57.59"/>
<polygon fill="midnightblue" stroke="midnightblue" points="759.22,-75.75 769.79,-76.41 761.94,-69.3 759.22,-75.75"/>
</g>
<!-- Node3&#45;&gt;Node4 -->
<g id="edge3" class="edge">
<title>Node3&#45;&gt;Node4</title>
<path fill="none" stroke="midnightblue" d="M553.84,-136.95C538.63,-142.26 521.4,-148.27 507.62,-153.07"/>
<polygon fill="midnightblue" stroke="midnightblue" points="555.2,-140.19 563.49,-133.59 552.9,-133.58 555.2,-140.19"/>
</g>
<!-- Node13 -->
<g id="node13" class="node">
<title>Node13</title>
<g id="a_node13"><a xlink:href="ex_8c.html#aa69f426ff9728078fbb36f448c624a90" target="_top" xlink:title=" ">
<polygon fill="white" stroke="black" points="453,-114.5 453,-133.5 509,-133.5 509,-114.5 453,-114.5"/>
<text text-anchor="middle" x="481" y="-121.5" font-family="Helvetica,sans-Serif" font-size="10.00">ec_make</text>
</a>
</g>
</g>
<!-- Node3&#45;&gt;Node13 -->
<g id="edge15" class="edge">
<title>Node3&#45;&gt;Node13</title>
<path fill="none" stroke="midnightblue" d="M550.71,-124C536.95,-124 521.87,-124 509.36,-124"/>
<polygon fill="midnightblue" stroke="midnightblue" points="550.93,-127.5 560.93,-124 550.93,-120.5 550.93,-127.5"/>
</g>
<!-- Node5 -->
<g id="node5" class="node">
<title>Node5</title>
<g id="a_node5"><a xlink:href="ex_8c.html#a7d848d20211b2e1c868dde98ec5dfae9" target="_top" xlink:title=" ">
<polygon fill="white" stroke="black" points="362.5,-152.5 362.5,-171.5 409.5,-171.5 409.5,-152.5 362.5,-152.5"/>
<text text-anchor="middle" x="386" y="-159.5" font-family="Helvetica,sans-Serif" font-size="10.00">ex_line</text>
</a>
</g>
</g>
<!-- Node4&#45;&gt;Node5 -->
<g id="edge4" class="edge">
<title>Node4&#45;&gt;Node5</title>
<path fill="none" stroke="midnightblue" d="M443.84,-162C432.31,-162 419.89,-162 409.61,-162"/>
<polygon fill="midnightblue" stroke="midnightblue" points="444.09,-165.5 454.09,-162 444.09,-158.5 444.09,-165.5"/>
</g>
<!-- Node6 -->
<g id="node6" class="node">
<title>Node6</title>
<g id="a_node6"><a xlink:href="ex_8c.html#ab15ebfef933256d9741128e2ddf3f9b5" target="_top" xlink:title=" ">
<polygon fill="white" stroke="black" points="266,-114.5 266,-133.5 319,-133.5 319,-114.5 266,-114.5"/>
<text text-anchor="middle" x="292.5" y="-121.5" font-family="Helvetica,sans-Serif" font-size="10.00">ex_exec</text>
</a>
</g>
</g>
<!-- Node5&#45;&gt;Node6 -->
<g id="edge5" class="edge">
<title>Node5&#45;&gt;Node6</title>
<path fill="none" stroke="midnightblue" d="M353.09,-148.75C341.04,-143.74 327.57,-138.15 316.49,-133.55"/>
<polygon fill="midnightblue" stroke="midnightblue" points="351.8,-152 362.38,-152.61 354.49,-145.54 351.8,-152"/>
</g>
<!-- Node7 -->
<g id="node7" class="node">
<title>Node7</title>
<g id="a_node7"><a xlink:href="ex_8c.html#a70c571bdde329a65e216c19b4aeaa628" target="_top" xlink:title=" ">
<polygon fill="white" stroke="black" points="167.5,-152.5 167.5,-171.5 217.5,-171.5 217.5,-152.5 167.5,-152.5"/>
<text text-anchor="middle" x="192.5" y="-159.5" font-family="Helvetica,sans-Serif" font-size="10.00">ec_glob</text>
</a>
</g>
</g>
<!-- Node6&#45;&gt;Node7 -->
<g id="edge6" class="edge">
<title>Node6&#45;&gt;Node7</title>
<path fill="none" stroke="midnightblue" d="M257.14,-137.32C244.07,-142.39 229.46,-148.06 217.54,-152.68"/>
<polygon fill="midnightblue" stroke="midnightblue" points="258.71,-140.47 266.77,-133.59 256.18,-133.94 258.71,-140.47"/>
</g>
<!-- Node8 -->
<g id="node8" class="node">
<title>Node8</title>
<g id="a_node8"><a xlink:href="vi_8h.html#aa75c73cccb4878ec06ea5bf5b1b02295" target="_top" xlink:title=" ">
<polygon fill="white" stroke="black" points="155,-114.5 155,-133.5 230,-133.5 230,-114.5 155,-114.5"/>
<text text-anchor="middle" x="192.5" y="-121.5" font-family="Helvetica,sans-Serif" font-size="10.00">ex_command</text>
</a>
</g>
</g>
<!-- Node6&#45;&gt;Node8 -->
<g id="edge8" class="edge">
<title>Node6&#45;&gt;Node8</title>
<path fill="none" stroke="midnightblue" d="M255.61,-124C247.31,-124 238.46,-124 230.13,-124"/>
<polygon fill="midnightblue" stroke="midnightblue" points="255.75,-127.5 265.75,-124 255.75,-120.5 255.75,-127.5"/>
</g>
<!-- Node7&#45;&gt;Node5 -->
<g id="edge7" class="edge">
<title>Node7&#45;&gt;Node5</title>
<path fill="none" stroke="midnightblue" d="M228.01,-162C266.91,-162 329.04,-162 362.28,-162"/>
<polygon fill="midnightblue" stroke="midnightblue" points="227.69,-158.5 217.69,-162 227.69,-165.5 227.69,-158.5"/>
</g>
<!-- Node9 -->
<g id="node9" class="node">
<title>Node9</title>
<g id="a_node9"><a xlink:href="vi_8h.html#ac395e51f25330a6e6033b6d0d22b2076" target="_top" xlink:title=" ">
<polygon fill="white" stroke="black" points="82,-114.5 82,-133.5 111,-133.5 111,-114.5 82,-114.5"/>
<text text-anchor="middle" x="96.5" y="-121.5" font-family="Helvetica,sans-Serif" font-size="10.00">ex</text>
</a>
</g>
</g>
<!-- Node8&#45;&gt;Node9 -->
<g id="edge9" class="edge">
<title>Node8&#45;&gt;Node9</title>
<path fill="none" stroke="midnightblue" d="M144.73,-124C132.54,-124 120.33,-124 111.38,-124"/>
<polygon fill="midnightblue" stroke="midnightblue" points="144.89,-127.5 154.89,-124 144.89,-120.5 144.89,-127.5"/>
</g>
<!-- Node11 -->
<g id="node11" class="node">
<title>Node11</title>
<g id="a_node11"><a xlink:href="vi_8h.html#abe53b5c10f94f20cd5ed024371615fa1" target="_top" xlink:title=" ">
<polygon fill="white" stroke="black" points="74,-76.5 74,-95.5 119,-95.5 119,-76.5 74,-76.5"/>
<text text-anchor="middle" x="96.5" y="-83.5" font-family="Helvetica,sans-Serif" font-size="10.00">ex_init</text>
</a>
</g>
</g>
<!-- Node8&#45;&gt;Node11 -->
<g id="edge11" class="edge">
<title>Node8&#45;&gt;Node11</title>
<path fill="none" stroke="midnightblue" d="M158.25,-110.56C145.31,-105.33 130.85,-99.48 119.28,-94.8"/>
<polygon fill="midnightblue" stroke="midnightblue" points="157.2,-113.91 167.78,-114.41 159.82,-107.42 157.2,-113.91"/>
</g>
<!-- Node12 -->
<g id="node12" class="node">
<title>Node12</title>
<g id="a_node12"><a xlink:href="vi_8c.html#a8d808e0f3453afe6600673ee1ea5f828" target="_top" xlink:title=" ">
<polygon fill="white" stroke="black" points="82,-38.5 82,-57.5 111,-57.5 111,-38.5 82,-38.5"/>
<text text-anchor="middle" x="96.5" y="-45.5" font-family="Helvetica,sans-Serif" font-size="10.00">vi</text>
</a>
</g>
</g>
<!-- Node8&#45;&gt;Node12 -->
<g id="edge13" class="edge">
<title>Node8&#45;&gt;Node12</title>
<path fill="none" stroke="midnightblue" d="M171.61,-107.92C152.72,-92.65 124.94,-70.18 109.31,-57.55"/>
<polygon fill="midnightblue" stroke="midnightblue" points="169.62,-110.81 179.59,-114.37 174.02,-105.37 169.62,-110.81"/>
</g>
<!-- Node10 -->
<g id="node10" class="node">
<title>Node10</title>
<g id="a_node10"><a xlink:href="vi_8c.html#a0ddf1224851353fc92bfbff6f499fa97" target="_top" xlink:title=" ">
<polygon fill="white" stroke="black" points="0,-76.5 0,-95.5 38,-95.5 38,-76.5 0,-76.5"/>
<text text-anchor="middle" x="19" y="-83.5" font-family="Helvetica,sans-Serif" font-size="10.00">main</text>
</a>
</g>
</g>
<!-- Node9&#45;&gt;Node10 -->
<g id="edge10" class="edge">
<title>Node9&#45;&gt;Node10</title>
<path fill="none" stroke="midnightblue" d="M72.56,-112.45C61.48,-106.88 48.39,-100.29 38.04,-95.08"/>
<polygon fill="midnightblue" stroke="midnightblue" points="71.15,-115.66 81.65,-117.03 74.29,-109.41 71.15,-115.66"/>
</g>
<!-- Node11&#45;&gt;Node10 -->
<g id="edge12" class="edge">
<title>Node11&#45;&gt;Node10</title>
<path fill="none" stroke="midnightblue" d="M63.55,-86C54.99,-86 46.03,-86 38.47,-86"/>
<polygon fill="midnightblue" stroke="midnightblue" points="63.66,-89.5 73.66,-86 63.66,-82.5 63.66,-89.5"/>
</g>
<!-- Node12&#45;&gt;Node10 -->
<g id="edge14" class="edge">
<title>Node12&#45;&gt;Node10</title>
<path fill="none" stroke="midnightblue" d="M72.56,-59.55C61.48,-65.12 48.39,-71.71 38.04,-76.92"/>
<polygon fill="midnightblue" stroke="midnightblue" points="74.29,-62.59 81.65,-54.97 71.15,-56.34 74.29,-62.59"/>
</g>
<!-- Node16 -->
<g id="node16" class="node">
<title>Node16</title>
<g id="a_node16"><a xlink:href="ex_8c.html#ab0cb848a971a3b2c09fcb456d887dd6b" target="_top" xlink:title=" ">
<polygon fill="white" stroke="black" points="545,-76.5 545,-95.5 639,-95.5 639,-76.5 545,-76.5"/>
<text text-anchor="middle" x="592" y="-83.5" font-family="Helvetica,sans-Serif" font-size="10.00">ex_modifiedbuffer</text>
</a>
</g>
</g>
<!-- Node15&#45;&gt;Node16 -->
<g id="edge19" class="edge">
<title>Node15&#45;&gt;Node16</title>
<path fill="none" stroke="midnightblue" d="M664.49,-86C656.36,-86 647.62,-86 639.14,-86"/>
<polygon fill="midnightblue" stroke="midnightblue" points="664.75,-89.5 674.75,-86 664.75,-82.5 664.75,-89.5"/>
</g>
<!-- Node16&#45;&gt;Node4 -->
<g id="edge22" class="edge">
<title>Node16&#45;&gt;Node4</title>
<path fill="none" stroke="midnightblue" d="M553.12,-100.1C550.29,-101.61 547.55,-103.25 545,-105 525.83,-118.18 526.6,-127.79 509,-143 505.18,-146.3 500.8,-149.57 496.69,-152.45"/>
<polygon fill="midnightblue" stroke="midnightblue" points="554.81,-103.16 562.3,-95.66 551.77,-96.86 554.81,-103.16"/>
</g>
<!-- Node16&#45;&gt;Node13 -->
<g id="edge23" class="edge">
<title>Node16&#45;&gt;Node13</title>
<path fill="none" stroke="midnightblue" d="M553.71,-99C539.08,-104.1 522.59,-109.85 509.12,-114.55"/>
<polygon fill="midnightblue" stroke="midnightblue" points="555.2,-102.19 563.49,-95.59 552.9,-95.58 555.2,-102.19"/>
</g>
<!-- Node17 -->
<g id="node17" class="node">
<title>Node17</title>
<g id="a_node17"><a xlink:href="ex_8c.html#a8059390ad69866fa8e14bdb2521d4dc2" target="_top" xlink:title=" ">
<polygon fill="white" stroke="black" points="268.5,-76.5 268.5,-95.5 316.5,-95.5 316.5,-76.5 268.5,-76.5"/>
<text text-anchor="middle" x="292.5" y="-83.5" font-family="Helvetica,sans-Serif" font-size="10.00">ec_edit</text>
</a>
</g>
</g>
<!-- Node16&#45;&gt;Node17 -->
<g id="edge20" class="edge">
<title>Node16&#45;&gt;Node17</title>
<path fill="none" stroke="midnightblue" d="M534.65,-86C468.91,-86 363.29,-86 316.78,-86"/>
<polygon fill="midnightblue" stroke="midnightblue" points="534.84,-89.5 544.84,-86 534.84,-82.5 534.84,-89.5"/>
</g>
<!-- Node18 -->
<g id="node18" class="node">
<title>Node18</title>
<g id="a_node18"><a xlink:href="ex_8c.html#a87eef446de152fad41ce88a9a343b87d" target="_top" xlink:title=" ">
<polygon fill="white" stroke="black" points="457,-38.5 457,-57.5 505,-57.5 505,-38.5 457,-38.5"/>
<text text-anchor="middle" x="481" y="-45.5" font-family="Helvetica,sans-Serif" font-size="10.00">ec_quit</text>
</a>
</g>
</g>
<!-- Node16&#45;&gt;Node18 -->
<g id="edge24" class="edge">
<title>Node16&#45;&gt;Node18</title>
<path fill="none" stroke="midnightblue" d="M553.79,-73.03C537.63,-67.39 519.21,-60.97 505.07,-56.04"/>
<polygon fill="midnightblue" stroke="midnightblue" points="552.9,-76.42 563.49,-76.41 555.2,-69.81 552.9,-76.42"/>
</g>
<!-- Node17&#45;&gt;Node11 -->
<g id="edge21" class="edge">
<title>Node17&#45;&gt;Node11</title>
<path fill="none" stroke="midnightblue" d="M258.47,-86C218.63,-86 152.81,-86 119,-86"/>
<polygon fill="midnightblue" stroke="midnightblue" points="258.48,-89.5 268.48,-86 258.48,-82.5 258.48,-89.5"/>
</g>
<!-- Node18&#45;&gt;Node15 -->
<g id="edge25" class="edge">
<title>Node18&#45;&gt;Node15</title>
<path fill="none" stroke="midnightblue" d="M515.23,-50.28C547.2,-52.89 596.78,-58 639,-67 650.91,-69.54 663.83,-73.36 674.74,-76.91"/>
<polygon fill="midnightblue" stroke="midnightblue" points="515.33,-46.78 505.09,-49.49 514.79,-53.76 515.33,-46.78"/>
</g>
<!-- Node20 -->
<g id="node20" class="node">
<title>Node20</title>
<g id="a_node20"><a xlink:href="vi_8c.html#a06cbc6eb843436a0e77e07cbab0c4538" target="_top" xlink:title=" ">
<polygon fill="white" stroke="black" points="355,-10.5 355,-29.5 417,-29.5 417,-10.5 355,-10.5"/>
<text text-anchor="middle" x="386" y="-17.5" font-family="Helvetica,sans-Serif" font-size="10.00">vc_motion</text>
</a>
</g>
</g>
<!-- Node19&#45;&gt;Node20 -->
<g id="edge27" class="edge">
<title>Node19&#45;&gt;Node20</title>
<path fill="none" stroke="midnightblue" d="M667.81,-44.5C629.71,-40.49 564.83,-33.83 509,-29 477.68,-26.29 441.8,-23.71 417.1,-22.01"/>
<polygon fill="midnightblue" stroke="midnightblue" points="667.51,-47.99 677.82,-45.56 668.24,-41.03 667.51,-47.99"/>
</g>
<!-- Node20&#45;&gt;Node12 -->
<g id="edge28" class="edge">
<title>Node20&#45;&gt;Node12</title>
<path fill="none" stroke="midnightblue" d="M344.81,-23.91C279.27,-30.3 152.53,-42.64 111.02,-46.68"/>
<polygon fill="midnightblue" stroke="midnightblue" points="345.16,-27.4 354.78,-22.94 344.48,-20.43 345.16,-27.4"/>
</g>
</g>
</svg>
