<?xml version="1.0" encoding="UTF-8" standalone="no"?>
<!DOCTYPE svg PUBLIC "-//W3C//DTD SVG 1.1//EN"
 "http://www.w3.org/Graphics/SVG/1.1/DTD/svg11.dtd">
<!-- Generated by graphviz version 2.44.1 (20200629.0846)
 -->
<!-- Title: conf_digraph Pages: 1 -->
<!--zoomable 304 -->
<svg id="main" version="1.1" xmlns="http://www.w3.org/2000/svg" xmlns:xlink="http://www.w3.org/1999/xlink" xml:space="preserve" onload="init(evt)">
<style type="text/css"><![CDATA[
.edge:hover path { stroke: red; }
.edge:hover polygon { stroke: red; fill: red; }
]]></style>
<script type="text/javascript"><![CDATA[
var edges = document.getElementsByTagName('g');
if (edges && edges.length) {
  for (var i=0;i<edges.length;i++) {
    if (edges[i].id.substr(0,4)=='edge') {
      edges[i].setAttribute('class','edge');
    }
  }
}
]]></script>
        <defs>
                <circle id="rim" cx="0" cy="0" r="7"/>
                <circle id="rim2" cx="0" cy="0" r="3.5"/>
                <g id="zoomPlus">
                        <use xlink:href="#rim" fill="#404040">
                                <set attributeName="fill" to="#808080" begin="zoomplus.mouseover" end="zoomplus.mouseout"/>
                        </use>
                        <path d="M-4,0h8M0,-4v8" fill="none" stroke="white" stroke-width="1.5" pointer-events="none"/>
                </g>
                <g id="zoomMin">
                        <use xlink:href="#rim" fill="#404040">
                                <set attributeName="fill" to="#808080" begin="zoomminus.mouseover" end="zoomminus.mouseout"/>
                        </use>
                        <path d="M-4,0h8" fill="none" stroke="white" stroke-width="1.5" pointer-events="none"/>
                </g>
                <g id="dirArrow">
                        <path fill="none" stroke="white" stroke-width="1.5" d="M0,-3.0v7 M-2.5,-0.5L0,-3.0L2.5,-0.5"/>
                </g>
               <g id="resetDef">
                       <use xlink:href="#rim2" fill="#404040">
                               <set attributeName="fill" to="#808080" begin="reset.mouseover" end="reset.mouseout"/>
                       </use>
               </g>
        </defs>

<script type="text/javascript">
var viewWidth = 904;
var viewHeight = 304;
var sectionId = 'dynsection-11';
</script>
<script xlink:href="svgpan.js"/>
<svg id="graph" class="graph">
<g id="viewport">
<title>conf_digraph</title>
<polygon fill="white" stroke="transparent" points="-4,4 -4,-300.42 900,-300.42 900,4 -4,4"/>
<!-- Node1 -->
<g id="node1" class="node">
<title>Node1</title>
<g id="a_node1"><a xlink:title=" ">
<polygon fill="#bfbfbf" stroke="black" points="824,-109.5 824,-128.5 896,-128.5 896,-109.5 824,-109.5"/>
<text text-anchor="middle" x="860" y="-116.5" font-family="Helvetica,sans-Serif" font-size="10.00">conf_digraph</text>
</a>
</g>
</g>
<!-- Node2 -->
<g id="node2" class="node">
<title>Node2</title>
<g id="a_node2"><a xlink:href="led_8c.html#a8bbdff3c2783b27081d76136774c5dbf" target="_top" xlink:title=" ">
<polygon fill="white" stroke="black" points="716,-109.5 716,-128.5 788,-128.5 788,-109.5 716,-109.5"/>
<text text-anchor="middle" x="752" y="-116.5" font-family="Helvetica,sans-Serif" font-size="10.00">led_readchar</text>
</a>
</g>
</g>
<!-- Node1&#45;&gt;Node2 -->
<g id="edge1" class="edge">
<title>Node1&#45;&gt;Node2</title>
<path fill="none" stroke="midnightblue" d="M813.8,-119C805.28,-119 796.49,-119 788.33,-119"/>
<polygon fill="midnightblue" stroke="midnightblue" points="814,-122.5 824,-119 814,-115.5 814,-122.5"/>
</g>
<!-- Node3 -->
<g id="node3" class="node">
<title>Node3</title>
<g id="a_node3"><a xlink:href="led_8c.html#a617ec615e86687b5c10df33b271256c8" target="_top" xlink:title=" ">
<polygon fill="white" stroke="black" points="628.5,-166.5 628.5,-185.5 678.5,-185.5 678.5,-166.5 628.5,-166.5"/>
<text text-anchor="middle" x="653.5" y="-173.5" font-family="Helvetica,sans-Serif" font-size="10.00">led_line</text>
</a>
</g>
</g>
<!-- Node2&#45;&gt;Node3 -->
<g id="edge2" class="edge">
<title>Node2&#45;&gt;Node3</title>
<path fill="none" stroke="midnightblue" d="M725.57,-134.02C708.16,-144.3 685.61,-157.62 670.63,-166.47"/>
<polygon fill="midnightblue" stroke="midnightblue" points="727.8,-136.77 734.63,-128.67 724.24,-130.74 727.8,-136.77"/>
</g>
<!-- Node20 -->
<g id="node20" class="node">
<title>Node20</title>
<g id="a_node20"><a xlink:href="vi_8h.html#a1924b949e033052323dd2153d88e6001" target="_top" xlink:title=" ">
<polygon fill="white" stroke="black" points="627,-90.5 627,-109.5 680,-109.5 680,-90.5 627,-90.5"/>
<text text-anchor="middle" x="653.5" y="-97.5" font-family="Helvetica,sans-Serif" font-size="10.00">led_read</text>
</a>
</g>
</g>
<!-- Node2&#45;&gt;Node20 -->
<g id="edge26" class="edge">
<title>Node2&#45;&gt;Node20</title>
<path fill="none" stroke="midnightblue" d="M705.97,-110.13C697.07,-108.38 688.03,-106.6 680.06,-105.03"/>
<polygon fill="midnightblue" stroke="midnightblue" points="705.4,-113.59 715.89,-112.09 706.75,-106.72 705.4,-113.59"/>
</g>
<!-- Node4 -->
<g id="node4" class="node">
<title>Node4</title>
<g id="a_node4"><a xlink:href="vi_8h.html#ae72255a31cec31233723c101d9465d07" target="_top" xlink:title=" ">
<polygon fill="white" stroke="black" points="530.5,-232.5 530.5,-251.5 586.5,-251.5 586.5,-232.5 530.5,-232.5"/>
<text text-anchor="middle" x="558.5" y="-239.5" font-family="Helvetica,sans-Serif" font-size="10.00">led_input</text>
</a>
</g>
</g>
<!-- Node3&#45;&gt;Node4 -->
<g id="edge3" class="edge">
<title>Node3&#45;&gt;Node4</title>
<path fill="none" stroke="midnightblue" d="M630.14,-191.87C612.31,-204.52 587.93,-221.82 572.98,-232.44"/>
<polygon fill="midnightblue" stroke="midnightblue" points="632.65,-194.38 638.78,-185.74 628.6,-188.67 632.65,-194.38"/>
</g>
<!-- Node11 -->
<g id="node11" class="node">
<title>Node11</title>
<g id="a_node11"><a xlink:href="vi_8h.html#a173bb468e1e2a066136316f98b49c108" target="_top" xlink:title=" ">
<polygon fill="white" stroke="black" points="526,-166.5 526,-185.5 591,-185.5 591,-166.5 526,-166.5"/>
<text text-anchor="middle" x="558.5" y="-173.5" font-family="Helvetica,sans-Serif" font-size="10.00">led_prompt</text>
</a>
</g>
</g>
<!-- Node3&#45;&gt;Node11 -->
<g id="edge11" class="edge">
<title>Node3&#45;&gt;Node11</title>
<path fill="none" stroke="midnightblue" d="M617.79,-176C609.05,-176 599.71,-176 591.13,-176"/>
<polygon fill="midnightblue" stroke="midnightblue" points="618.07,-179.5 628.07,-176 618.07,-172.5 618.07,-179.5"/>
</g>
<!-- Node5 -->
<g id="node5" class="node">
<title>Node5</title>
<g id="a_node5"><a xlink:href="vi_8c.html#a653f6b0359cef492e11f404c4bf469b9" target="_top" xlink:title=" ">
<polygon fill="white" stroke="black" points="340.5,-185.5 340.5,-204.5 390.5,-204.5 390.5,-185.5 340.5,-185.5"/>
<text text-anchor="middle" x="365.5" y="-192.5" font-family="Helvetica,sans-Serif" font-size="10.00">vi_input</text>
</a>
</g>
</g>
<!-- Node4&#45;&gt;Node5 -->
<g id="edge4" class="edge">
<title>Node4&#45;&gt;Node5</title>
<path fill="none" stroke="midnightblue" d="M520.39,-232.87C482.12,-223.45 423.53,-209.03 390.79,-200.98"/>
<polygon fill="midnightblue" stroke="midnightblue" points="519.59,-236.28 530.13,-235.27 521.26,-229.48 519.59,-236.28"/>
</g>
<!-- Node6 -->
<g id="node6" class="node">
<title>Node6</title>
<g id="a_node6"><a xlink:href="vi_8c.html#a8bb357a77ed61da8858f138c6fa672a6" target="_top" xlink:title=" ">
<polygon fill="white" stroke="black" points="241.5,-185.5 241.5,-204.5 297.5,-204.5 297.5,-185.5 241.5,-185.5"/>
<text text-anchor="middle" x="269.5" y="-192.5" font-family="Helvetica,sans-Serif" font-size="10.00">vc_insert</text>
</a>
</g>
</g>
<!-- Node5&#45;&gt;Node6 -->
<g id="edge5" class="edge">
<title>Node5&#45;&gt;Node6</title>
<path fill="none" stroke="midnightblue" d="M330.01,-195C319.33,-195 307.72,-195 297.61,-195"/>
<polygon fill="midnightblue" stroke="midnightblue" points="330.29,-198.5 340.29,-195 330.29,-191.5 330.29,-198.5"/>
</g>
<!-- Node9 -->
<g id="node9" class="node">
<title>Node9</title>
<g id="a_node9"><a xlink:href="vi_8c.html#ae37b094c3bb647d8c1a4ac4e858ce518" target="_top" xlink:title=" ">
<polygon fill="white" stroke="black" points="239,-109.5 239,-128.5 300,-128.5 300,-109.5 239,-109.5"/>
<text text-anchor="middle" x="269.5" y="-116.5" font-family="Helvetica,sans-Serif" font-size="10.00">vi_change</text>
</a>
</g>
</g>
<!-- Node5&#45;&gt;Node9 -->
<g id="edge8" class="edge">
<title>Node5&#45;&gt;Node9</title>
<path fill="none" stroke="midnightblue" d="M344.61,-178.92C325.72,-163.65 297.94,-141.18 282.31,-128.55"/>
<polygon fill="midnightblue" stroke="midnightblue" points="342.62,-181.81 352.59,-185.37 347.02,-176.37 342.62,-181.81"/>
</g>
<!-- Node7 -->
<g id="node7" class="node">
<title>Node7</title>
<g id="a_node7"><a xlink:href="vi_8c.html#a8d808e0f3453afe6600673ee1ea5f828" target="_top" xlink:title=" ">
<polygon fill="white" stroke="black" points="74,-147.5 74,-166.5 103,-166.5 103,-147.5 74,-147.5"/>
<text text-anchor="middle" x="88.5" y="-154.5" font-family="Helvetica,sans-Serif" font-size="10.00">vi</text>
</a>
</g>
</g>
<!-- Node6&#45;&gt;Node7 -->
<g id="edge6" class="edge">
<title>Node6&#45;&gt;Node7</title>
<path fill="none" stroke="midnightblue" d="M231.15,-189.02C205.18,-184.63 169.82,-178.2 139,-171 126.82,-168.16 113.16,-164.24 103.28,-161.27"/>
<polygon fill="midnightblue" stroke="midnightblue" points="230.87,-192.52 241.31,-190.71 232.03,-185.62 230.87,-192.52"/>
</g>
<!-- Node8 -->
<g id="node8" class="node">
<title>Node8</title>
<g id="a_node8"><a xlink:href="vi_8c.html#a0ddf1224851353fc92bfbff6f499fa97" target="_top" xlink:title=" ">
<polygon fill="white" stroke="black" points="0,-166.5 0,-185.5 38,-185.5 38,-166.5 0,-166.5"/>
<text text-anchor="middle" x="19" y="-173.5" font-family="Helvetica,sans-Serif" font-size="10.00">main</text>
</a>
</g>
</g>
<!-- Node7&#45;&gt;Node8 -->
<g id="edge7" class="edge">
<title>Node7&#45;&gt;Node8</title>
<path fill="none" stroke="midnightblue" d="M64.14,-163.57C55.67,-165.96 46.22,-168.62 38.25,-170.86"/>
<polygon fill="midnightblue" stroke="midnightblue" points="65.16,-166.92 73.84,-160.84 63.27,-160.19 65.16,-166.92"/>
</g>
<!-- Node10 -->
<g id="node10" class="node">
<title>Node10</title>
<g id="a_node10"><a xlink:href="vi_8c.html#a06cbc6eb843436a0e77e07cbab0c4538" target="_top" xlink:title=" ">
<polygon fill="white" stroke="black" points="140,-90.5 140,-109.5 202,-109.5 202,-90.5 140,-90.5"/>
<text text-anchor="middle" x="171" y="-97.5" font-family="Helvetica,sans-Serif" font-size="10.00">vc_motion</text>
</a>
</g>
</g>
<!-- Node9&#45;&gt;Node10 -->
<g id="edge9" class="edge">
<title>Node9&#45;&gt;Node10</title>
<path fill="none" stroke="midnightblue" d="M228.91,-111.2C219.97,-109.44 210.62,-107.6 202.14,-105.93"/>
<polygon fill="midnightblue" stroke="midnightblue" points="228.27,-114.65 238.76,-113.14 229.62,-107.78 228.27,-114.65"/>
</g>
<!-- Node10&#45;&gt;Node7 -->
<g id="edge10" class="edge">
<title>Node10&#45;&gt;Node7</title>
<path fill="none" stroke="midnightblue" d="M147.98,-115.59C133.57,-125.79 115.22,-138.79 102.95,-147.47"/>
<polygon fill="midnightblue" stroke="midnightblue" points="150.21,-118.3 156.34,-109.67 146.16,-112.59 150.21,-118.3"/>
</g>
<!-- Node12 -->
<g id="node12" class="node">
<title>Node12</title>
<g id="a_node12"><a xlink:href="vi_8h.html#a7ba56272fe1a7d523192729a0bb5edf7" target="_top" xlink:title=" ">
<polygon fill="white" stroke="black" points="244,-242.5 244,-261.5 295,-261.5 295,-242.5 244,-242.5"/>
<text text-anchor="middle" x="269.5" y="-249.5" font-family="Helvetica,sans-Serif" font-size="10.00">ex_read</text>
</a>
</g>
</g>
<!-- Node11&#45;&gt;Node12 -->
<g id="edge12" class="edge">
<title>Node11&#45;&gt;Node12</title>
<path fill="none" stroke="midnightblue" d="M515.96,-187C455.24,-203.08 344.17,-232.49 295.02,-245.51"/>
<polygon fill="midnightblue" stroke="midnightblue" points="517.19,-190.29 525.97,-184.35 515.4,-183.53 517.19,-190.29"/>
</g>
<!-- Node16 -->
<g id="node16" class="node">
<title>Node16</title>
<g id="a_node16"><a xlink:href="vi_8c.html#a57965473297aad4c4333fdd3897c11f3" target="_top" xlink:title=" ">
<polygon fill="white" stroke="black" points="431,-128.5 431,-147.5 490,-147.5 490,-128.5 431,-128.5"/>
<text text-anchor="middle" x="460.5" y="-135.5" font-family="Helvetica,sans-Serif" font-size="10.00">vi_prompt</text>
</a>
</g>
</g>
<!-- Node11&#45;&gt;Node16 -->
<g id="edge18" class="edge">
<title>Node11&#45;&gt;Node16</title>
<path fill="none" stroke="midnightblue" d="M523.62,-162.59C511.11,-157.64 497.2,-152.13 485.72,-147.59"/>
<polygon fill="midnightblue" stroke="midnightblue" points="522.69,-165.98 533.28,-166.41 525.27,-159.48 522.69,-165.98"/>
</g>
<!-- Node13 -->
<g id="node13" class="node">
<title>Node13</title>
<g id="a_node13"><a xlink:href="ex_8c.html#a0908784dc65be2da119a6b72ef96dec2" target="_top" xlink:title=" ">
<polygon fill="white" stroke="black" points="143,-261.5 143,-280.5 199,-280.5 199,-261.5 143,-261.5"/>
<text text-anchor="middle" x="171" y="-268.5" font-family="Helvetica,sans-Serif" font-size="10.00">ec_insert</text>
</a>
</g>
</g>
<!-- Node12&#45;&gt;Node13 -->
<g id="edge13" class="edge">
<title>Node12&#45;&gt;Node13</title>
<path fill="none" stroke="midnightblue" d="M233.85,-258.82C222.48,-261.06 210.02,-263.51 199.28,-265.63"/>
<polygon fill="midnightblue" stroke="midnightblue" points="234.76,-262.21 243.9,-256.84 233.41,-255.34 234.76,-262.21"/>
</g>
<!-- Node14 -->
<g id="node14" class="node">
<title>Node14</title>
<g id="a_node14"><a xlink:href="vi_8h.html#ac395e51f25330a6e6033b6d0d22b2076" target="_top" xlink:title=" ">
<polygon fill="white" stroke="black" points="74,-242.5 74,-261.5 103,-261.5 103,-242.5 74,-242.5"/>
<text text-anchor="middle" x="88.5" y="-249.5" font-family="Helvetica,sans-Serif" font-size="10.00">ex</text>
</a>
</g>
</g>
<!-- Node12&#45;&gt;Node14 -->
<g id="edge14" class="edge">
<title>Node12&#45;&gt;Node14</title>
<path fill="none" stroke="midnightblue" d="M248.15,-267.57C235.82,-276.02 219.34,-285.6 203,-290 175.53,-297.39 165.93,-299.15 139,-290 122.59,-284.43 107.35,-270.98 98.24,-261.67"/>
<polygon fill="midnightblue" stroke="midnightblue" points="250.24,-270.38 256.34,-261.72 246.17,-264.69 250.24,-270.38"/>
</g>
<!-- Node15 -->
<g id="node15" class="node">
<title>Node15</title>
<g id="a_node15"><a xlink:href="vi_8c.html#a9d85e9ed087401367529ab86a5dbf0c5" target="_top" xlink:title=" ">
<polygon fill="white" stroke="black" points="147.5,-223.5 147.5,-242.5 194.5,-242.5 194.5,-223.5 147.5,-223.5"/>
<text text-anchor="middle" x="171" y="-230.5" font-family="Helvetica,sans-Serif" font-size="10.00">vi_wait</text>
</a>
</g>
</g>
<!-- Node12&#45;&gt;Node15 -->
<g id="edge16" class="edge">
<title>Node12&#45;&gt;Node15</title>
<path fill="none" stroke="midnightblue" d="M233.81,-245.17C220.75,-242.6 206.25,-239.74 194.57,-237.44"/>
<polygon fill="midnightblue" stroke="midnightblue" points="233.41,-248.66 243.9,-247.16 234.76,-241.79 233.41,-248.66"/>
</g>
<!-- Node14&#45;&gt;Node8 -->
<g id="edge15" class="edge">
<title>Node14&#45;&gt;Node8</title>
<path fill="none" stroke="midnightblue" d="M72.15,-234.71C58.71,-219.58 39.66,-198.13 28.69,-185.79"/>
<polygon fill="midnightblue" stroke="midnightblue" points="69.69,-237.22 78.95,-242.37 74.93,-232.57 69.69,-237.22"/>
</g>
<!-- Node15&#45;&gt;Node7 -->
<g id="edge17" class="edge">
<title>Node15&#45;&gt;Node7</title>
<path fill="none" stroke="midnightblue" d="M148.67,-217.17C145.36,-214.52 142.04,-211.74 139,-209 123.64,-195.13 107.39,-177.39 97.86,-166.62"/>
<polygon fill="midnightblue" stroke="midnightblue" points="146.63,-220.02 156.67,-223.38 150.92,-214.49 146.63,-220.02"/>
</g>
<!-- Node16&#45;&gt;Node7 -->
<g id="edge19" class="edge">
<title>Node16&#45;&gt;Node7</title>
<path fill="none" stroke="midnightblue" d="M420.46,-140C339.06,-144.18 154.51,-153.66 103.05,-156.3"/>
<polygon fill="midnightblue" stroke="midnightblue" points="420.97,-143.48 430.77,-139.48 420.61,-136.49 420.97,-143.48"/>
</g>
<!-- Node17 -->
<g id="node17" class="node">
<title>Node17</title>
<g id="a_node17"><a xlink:href="vi_8c.html#ab8e0c9b9d2ef5161c6a3a8828606df5f" target="_top" xlink:title=" ">
<polygon fill="white" stroke="black" points="342,-109.5 342,-128.5 389,-128.5 389,-109.5 342,-109.5"/>
<text text-anchor="middle" x="365.5" y="-116.5" font-family="Helvetica,sans-Serif" font-size="10.00">vi_pipe</text>
</a>
</g>
</g>
<!-- Node16&#45;&gt;Node17 -->
<g id="edge20" class="edge">
<title>Node16&#45;&gt;Node17</title>
<path fill="none" stroke="midnightblue" d="M420.73,-130.08C409.93,-127.87 398.55,-125.55 389.02,-123.6"/>
<polygon fill="midnightblue" stroke="midnightblue" points="420.34,-133.57 430.84,-132.14 421.74,-126.71 420.34,-133.57"/>
</g>
<!-- Node18 -->
<g id="node18" class="node">
<title>Node18</title>
<g id="a_node18"><a xlink:href="vi_8c.html#a93701c59617d4f96cbaa207e89178f87" target="_top" xlink:title=" ">
<polygon fill="white" stroke="black" points="336,-71.5 336,-90.5 395,-90.5 395,-71.5 336,-71.5"/>
<text text-anchor="middle" x="365.5" y="-78.5" font-family="Helvetica,sans-Serif" font-size="10.00">vi_search</text>
</a>
</g>
</g>
<!-- Node16&#45;&gt;Node18 -->
<g id="edge22" class="edge">
<title>Node16&#45;&gt;Node18</title>
<path fill="none" stroke="midnightblue" d="M434.99,-122.98C418.22,-112.7 396.48,-99.38 382.04,-90.53"/>
<polygon fill="midnightblue" stroke="midnightblue" points="433.37,-126.09 443.72,-128.33 437.03,-120.12 433.37,-126.09"/>
</g>
<!-- Node17&#45;&gt;Node10 -->
<g id="edge21" class="edge">
<title>Node17&#45;&gt;Node10</title>
<path fill="none" stroke="midnightblue" d="M332.17,-107.51C322.01,-104.43 310.66,-101.54 300,-100 266.79,-95.21 228.22,-96.07 202.17,-97.58"/>
<polygon fill="midnightblue" stroke="midnightblue" points="331.28,-110.9 341.87,-110.6 333.41,-104.23 331.28,-110.9"/>
</g>
<!-- Node19 -->
<g id="node19" class="node">
<title>Node19</title>
<g id="a_node19"><a xlink:href="vi_8c.html#aaa4777ea0715ea846346d0f27a0cfa3f" target="_top" xlink:title=" ">
<polygon fill="white" stroke="black" points="240,-33.5 240,-52.5 299,-52.5 299,-33.5 240,-33.5"/>
<text text-anchor="middle" x="269.5" y="-40.5" font-family="Helvetica,sans-Serif" font-size="10.00">vi_motion</text>
</a>
</g>
</g>
<!-- Node18&#45;&gt;Node19 -->
<g id="edge23" class="edge">
<title>Node18&#45;&gt;Node19</title>
<path fill="none" stroke="midnightblue" d="M331.32,-67.59C319.08,-62.64 305.46,-57.13 294.21,-52.59"/>
<polygon fill="midnightblue" stroke="midnightblue" points="330.2,-70.91 340.78,-71.41 332.82,-64.42 330.2,-70.91"/>
</g>
<!-- Node19&#45;&gt;Node7 -->
<g id="edge25" class="edge">
<title>Node19&#45;&gt;Node7</title>
<path fill="none" stroke="midnightblue" d="M229.88,-47.14C202.33,-51.7 165.59,-61.22 139,-81 115.37,-98.57 99.85,-131.02 93.2,-147.24"/>
<polygon fill="midnightblue" stroke="midnightblue" points="230.59,-50.57 239.95,-45.62 229.54,-43.65 230.59,-50.57"/>
</g>
<!-- Node19&#45;&gt;Node10 -->
<g id="edge24" class="edge">
<title>Node19&#45;&gt;Node10</title>
<path fill="none" stroke="midnightblue" d="M243.07,-58.02C225.66,-68.3 203.11,-81.62 188.13,-90.47"/>
<polygon fill="midnightblue" stroke="midnightblue" points="245.3,-60.77 252.13,-52.67 241.74,-54.74 245.3,-60.77"/>
</g>
<!-- Node21 -->
<g id="node21" class="node">
<title>Node21</title>
<g id="a_node21"><a xlink:href="vi_8c.html#a7162c1758b29682a16b65bc9766309f4" target="_top" xlink:title=" ">
<polygon fill="white" stroke="black" points="341.5,-33.5 341.5,-52.5 389.5,-52.5 389.5,-33.5 341.5,-33.5"/>
<text text-anchor="middle" x="365.5" y="-40.5" font-family="Helvetica,sans-Serif" font-size="10.00">vi_char</text>
</a>
</g>
</g>
<!-- Node20&#45;&gt;Node21 -->
<g id="edge27" class="edge">
<title>Node20&#45;&gt;Node21</title>
<path fill="none" stroke="midnightblue" d="M616.82,-92.89C557.37,-81.04 439.68,-57.58 389.76,-47.64"/>
<polygon fill="midnightblue" stroke="midnightblue" points="616.38,-96.37 626.87,-94.89 617.74,-89.5 616.38,-96.37"/>
</g>
<!-- Node21&#45;&gt;Node19 -->
<g id="edge30" class="edge">
<title>Node21&#45;&gt;Node19</title>
<path fill="none" stroke="midnightblue" d="M331.22,-43C320.75,-43 309.3,-43 299.18,-43"/>
<polygon fill="midnightblue" stroke="midnightblue" points="331.26,-46.5 341.26,-43 331.26,-39.5 331.26,-46.5"/>
</g>
<!-- Node22 -->
<g id="node22" class="node">
<title>Node22</title>
<g id="a_node22"><a xlink:href="vi_8c.html#a3635843354dbb31e3c00efcd5798535a" target="_top" xlink:title=" ">
<polygon fill="white" stroke="black" points="139,-0.5 139,-19.5 203,-19.5 203,-0.5 139,-0.5"/>
<text text-anchor="middle" x="171" y="-7.5" font-family="Helvetica,sans-Serif" font-size="10.00">vc_replace</text>
</a>
</g>
</g>
<!-- Node21&#45;&gt;Node22 -->
<g id="edge28" class="edge">
<title>Node21&#45;&gt;Node22</title>
<path fill="none" stroke="midnightblue" d="M331.8,-32.15C321.7,-29.12 310.47,-26.1 300,-24 267.23,-17.44 229.08,-13.76 203.01,-11.84"/>
<polygon fill="midnightblue" stroke="midnightblue" points="330.87,-35.52 341.46,-35.13 332.94,-28.83 330.87,-35.52"/>
</g>
<!-- Node22&#45;&gt;Node7 -->
<g id="edge29" class="edge">
<title>Node22&#45;&gt;Node7</title>
<path fill="none" stroke="midnightblue" d="M152.16,-26.75C147.5,-31.69 142.74,-37.31 139,-43 115.64,-78.51 98.92,-126.88 92.45,-147.28"/>
<polygon fill="midnightblue" stroke="midnightblue" points="154.68,-29.19 159.24,-19.63 149.71,-24.25 154.68,-29.19"/>
</g>
</g>
</svg>
        <g id="navigator" transform="translate(0 0)" fill="#404254">
                <rect fill="#f2f5e9" fill-opacity="0.5" stroke="#606060" stroke-width=".5" x="0" y="0" width="60" height="60"/>
                <use id="zoomplus" xlink:href="#zoomPlus" x="17" y="9" onmousedown="handleZoom(evt,'in')"/>
                <use id="zoomminus" xlink:href="#zoomMin" x="42" y="9" onmousedown="handleZoom(evt,'out')"/>
                <use id="reset" xlink:href="#resetDef" x="30" y="36" onmousedown="handleReset()"/>
                <g id="arrowUp" xlink:href="#dirArrow" transform="translate(30 24)" onmousedown="handlePan(0,-1)">
                  <use xlink:href="#rim" fill="#404040">
                        <set attributeName="fill" to="#808080" begin="arrowUp.mouseover" end="arrowUp.mouseout"/>
                  </use>
                  <path fill="none" stroke="white" stroke-width="1.5" d="M0,-3.0v7 M-2.5,-0.5L0,-3.0L2.5,-0.5"/>
                </g>
                <g id="arrowRight" xlink:href="#dirArrow" transform="rotate(90) translate(36 -43)" onmousedown="handlePan(1,0)">
                  <use xlink:href="#rim" fill="#404040">
                        <set attributeName="fill" to="#808080" begin="arrowRight.mouseover" end="arrowRight.mouseout"/>
                  </use>
                  <path fill="none" stroke="white" stroke-width="1.5" d="M0,-3.0v7 M-2.5,-0.5L0,-3.0L2.5,-0.5"/>
                </g>
                <g id="arrowDown" xlink:href="#dirArrow" transform="rotate(180) translate(-30 -48)" onmousedown="handlePan(0,1)">
                  <use xlink:href="#rim" fill="#404040">
                        <set attributeName="fill" to="#808080" begin="arrowDown.mouseover" end="arrowDown.mouseout"/>
                  </use>
                  <path fill="none" stroke="white" stroke-width="1.5" d="M0,-3.0v7 M-2.5,-0.5L0,-3.0L2.5,-0.5"/>
                </g>
                <g id="arrowLeft" xlink:href="#dirArrow" transform="rotate(270) translate(-36 17)" onmousedown="handlePan(-1,0)">
                  <use xlink:href="#rim" fill="#404040">
                        <set attributeName="fill" to="#808080" begin="arrowLeft.mouseover" end="arrowLeft.mouseout"/>
                  </use>
                  <path fill="none" stroke="white" stroke-width="1.5" d="M0,-3.0v7 M-2.5,-0.5L0,-3.0L2.5,-0.5"/>
                </g>
        </g>
        <svg viewBox="0 0 15 15" width="100%" height="30px" preserveAspectRatio="xMaxYMin meet">
         <g id="arrow_out" transform="scale(0.3 0.3)">
          <a xlink:href="conf_8c_acbeed8b0b62960a541af67e17d6c7131_icgraph_org.svg" target="_base">
           <rect id="button" ry="5" rx="5" y="6" x="6" height="38" width="38"
                fill="#f2f5e9" fill-opacity="0.5" stroke="#606060" stroke-width="1.0"/>
           <path id="arrow"
             d="M 11.500037,31.436501 C 11.940474,20.09759 22.043105,11.32322 32.158766,21.979434 L 37.068811,17.246167 C 37.068811,17.246167 37.088388,32 37.088388,32 L 22.160133,31.978069 C 22.160133,31.978069 26.997745,27.140456 26.997745,27.140456 C 18.528582,18.264221 13.291696,25.230495 11.500037,31.436501 z"
             style="fill:#404040;"/>
          </a>
         </g>
        </svg>
</svg>
