<?xml version="1.0" encoding="UTF-8" standalone="no"?>
<!DOCTYPE svg PUBLIC "-//W3C//DTD SVG 1.1//EN"
 "http://www.w3.org/Graphics/SVG/1.1/DTD/svg11.dtd">
<!-- Generated by graphviz version 2.44.1 (20200629.0846)
 -->
<!-- Title: ex_arg Pages: 1 -->
<!--zoomable 408 -->
<svg id="main" version="1.1" xmlns="http://www.w3.org/2000/svg" xmlns:xlink="http://www.w3.org/1999/xlink" xml:space="preserve" onload="init(evt)">
<style type="text/css"><![CDATA[
.edge:hover path { stroke: red; }
.edge:hover polygon { stroke: red; fill: red; }
]]></style>
<script type="text/javascript"><![CDATA[
var edges = document.getElementsByTagName('g');
if (edges && edges.length) {
  for (var i=0;i<edges.length;i++) {
    if (edges[i].id.substr(0,4)=='edge') {
      edges[i].setAttribute('class','edge');
    }
  }
}
]]></script>
        <defs>
                <circle id="rim" cx="0" cy="0" r="7"/>
                <circle id="rim2" cx="0" cy="0" r="3.5"/>
                <g id="zoomPlus">
                        <use xlink:href="#rim" fill="#404040">
                                <set attributeName="fill" to="#808080" begin="zoomplus.mouseover" end="zoomplus.mouseout"/>
                        </use>
                        <path d="M-4,0h8M0,-4v8" fill="none" stroke="white" stroke-width="1.5" pointer-events="none"/>
                </g>
                <g id="zoomMin">
                        <use xlink:href="#rim" fill="#404040">
                                <set attributeName="fill" to="#808080" begin="zoomminus.mouseover" end="zoomminus.mouseout"/>
                        </use>
                        <path d="M-4,0h8" fill="none" stroke="white" stroke-width="1.5" pointer-events="none"/>
                </g>
                <g id="dirArrow">
                        <path fill="none" stroke="white" stroke-width="1.5" d="M0,-3.0v7 M-2.5,-0.5L0,-3.0L2.5,-0.5"/>
                </g>
               <g id="resetDef">
                       <use xlink:href="#rim2" fill="#404040">
                               <set attributeName="fill" to="#808080" begin="reset.mouseover" end="reset.mouseout"/>
                       </use>
               </g>
        </defs>

<script type="text/javascript">
var viewWidth = 841;
var viewHeight = 408;
var sectionId = 'dynsection-17';
</script>
<script xlink:href="svgpan.js"/>
<svg id="graph" class="graph">
<g id="viewport">
<title>ex_arg</title>
<polygon fill="white" stroke="transparent" points="-4,4 -4,-404 837,-404 837,4 -4,4"/>
<!-- Node1 -->
<g id="node1" class="node">
<title>Node1</title>
<g id="a_node1"><a xlink:title=" ">
<polygon fill="#bfbfbf" stroke="black" points="787,-190.5 787,-209.5 833,-209.5 833,-190.5 787,-190.5"/>
<text text-anchor="middle" x="810" y="-197.5" font-family="Helvetica,sans-Serif" font-size="10.00">ex_arg</text>
</a>
</g>
</g>
<!-- Node2 -->
<g id="node2" class="node">
<title>Node2</title>
<g id="a_node2"><a xlink:href="ex_8c.html#a86b4adba0c96621f01383b9bacba4a01" target="_top" xlink:title=" ">
<polygon fill="white" stroke="black" points="678,-380.5 678,-399.5 734,-399.5 734,-380.5 678,-380.5"/>
<text text-anchor="middle" x="706" y="-387.5" font-family="Helvetica,sans-Serif" font-size="10.00">ec_cmap</text>
</a>
</g>
</g>
<!-- Node1&#45;&gt;Node2 -->
<g id="edge1" class="edge">
<title>Node1&#45;&gt;Node2</title>
<path fill="none" stroke="midnightblue" d="M807.4,-220.24C803.6,-255.25 791.1,-327.53 751,-371 746.49,-375.89 740.5,-379.58 734.4,-382.34"/>
<polygon fill="midnightblue" stroke="midnightblue" points="810.92,-220.18 808.38,-209.89 803.95,-219.52 810.92,-220.18"/>
</g>
<!-- Node3 -->
<g id="node3" class="node">
<title>Node3</title>
<g id="a_node3"><a xlink:href="ex_8c.html#a4cd0748447515b7a935e4bb41424a9e4" target="_top" xlink:title=" ">
<polygon fill="white" stroke="black" points="676.5,-342.5 676.5,-361.5 735.5,-361.5 735.5,-342.5 676.5,-342.5"/>
<text text-anchor="middle" x="706" y="-349.5" font-family="Helvetica,sans-Serif" font-size="10.00">ec_delete</text>
</a>
</g>
</g>
<!-- Node1&#45;&gt;Node3 -->
<g id="edge2" class="edge">
<title>Node1&#45;&gt;Node3</title>
<path fill="none" stroke="midnightblue" d="M805.2,-219.7C798.76,-248.19 783.14,-300.98 751,-333 746.76,-337.23 741.42,-340.58 735.94,-343.22"/>
<polygon fill="midnightblue" stroke="midnightblue" points="808.66,-220.25 807.3,-209.74 801.81,-218.81 808.66,-220.25"/>
</g>
<!-- Node4 -->
<g id="node4" class="node">
<title>Node4</title>
<g id="a_node4"><a xlink:href="ex_8c.html#a96a40531d1096a618d29639f2e42710b" target="_top" xlink:title=" ">
<polygon fill="white" stroke="black" points="687,-304.5 687,-323.5 725,-323.5 725,-304.5 687,-304.5"/>
<text text-anchor="middle" x="706" y="-311.5" font-family="Helvetica,sans-Serif" font-size="10.00">ec_ft</text>
</a>
</g>
</g>
<!-- Node1&#45;&gt;Node4 -->
<g id="edge3" class="edge">
<title>Node1&#45;&gt;Node4</title>
<path fill="none" stroke="midnightblue" d="M801.51,-219.18C792.41,-240.28 775.21,-273.97 751,-295 743.59,-301.44 733.66,-305.98 725.11,-309"/>
<polygon fill="midnightblue" stroke="midnightblue" points="804.85,-220.27 805.42,-209.69 798.37,-217.6 804.85,-220.27"/>
</g>
<!-- Node5 -->
<g id="node5" class="node">
<title>Node5</title>
<g id="a_node5"><a xlink:href="ex_8c.html#a0908784dc65be2da119a6b72ef96dec2" target="_top" xlink:title=" ">
<polygon fill="white" stroke="black" points="678,-266.5 678,-285.5 734,-285.5 734,-266.5 678,-266.5"/>
<text text-anchor="middle" x="706" y="-273.5" font-family="Helvetica,sans-Serif" font-size="10.00">ec_insert</text>
</a>
</g>
</g>
<!-- Node1&#45;&gt;Node5 -->
<g id="edge4" class="edge">
<title>Node1&#45;&gt;Node5</title>
<path fill="none" stroke="midnightblue" d="M794.49,-217.35C783.52,-229.64 767.56,-245.86 751,-257 745.61,-260.62 739.43,-263.8 733.42,-266.47"/>
<polygon fill="midnightblue" stroke="midnightblue" points="797.32,-219.42 801.23,-209.58 792.04,-214.84 797.32,-219.42"/>
</g>
<!-- Node6 -->
<g id="node6" class="node">
<title>Node6</title>
<g id="a_node6"><a xlink:href="ex_8c.html#ab95c9f0f009989c44f3ebb5abae4054d" target="_top" xlink:title=" ">
<polygon fill="white" stroke="black" points="679,-228.5 679,-247.5 733,-247.5 733,-228.5 679,-228.5"/>
<text text-anchor="middle" x="706" y="-235.5" font-family="Helvetica,sans-Serif" font-size="10.00">ec_mark</text>
</a>
</g>
</g>
<!-- Node1&#45;&gt;Node6 -->
<g id="edge5" class="edge">
<title>Node1&#45;&gt;Node6</title>
<path fill="none" stroke="midnightblue" d="M777.38,-211.78C763.02,-217.13 746.26,-223.38 732.69,-228.43"/>
<polygon fill="midnightblue" stroke="midnightblue" points="778.72,-215.02 786.87,-208.25 776.27,-208.46 778.72,-215.02"/>
</g>
<!-- Node7 -->
<g id="node7" class="node">
<title>Node7</title>
<g id="a_node7"><a xlink:href="ex_8c.html#ab417867ff867aff9f7277229990cd1b8" target="_top" xlink:title=" ">
<polygon fill="white" stroke="black" points="683,-190.5 683,-209.5 729,-209.5 729,-190.5 683,-190.5"/>
<text text-anchor="middle" x="706" y="-197.5" font-family="Helvetica,sans-Serif" font-size="10.00">ec_put</text>
</a>
</g>
</g>
<!-- Node1&#45;&gt;Node7 -->
<g id="edge6" class="edge">
<title>Node1&#45;&gt;Node7</title>
<path fill="none" stroke="midnightblue" d="M776.65,-200C761.15,-200 742.98,-200 729.09,-200"/>
<polygon fill="midnightblue" stroke="midnightblue" points="776.87,-203.5 786.87,-200 776.87,-196.5 776.87,-203.5"/>
</g>
<!-- Node8 -->
<g id="node8" class="node">
<title>Node8</title>
<g id="a_node8"><a xlink:href="ex_8c.html#add0e79e1f1e3d45f4eaa6fbe5c1ca443" target="_top" xlink:title=" ">
<polygon fill="white" stroke="black" points="680.5,-152.5 680.5,-171.5 731.5,-171.5 731.5,-152.5 680.5,-152.5"/>
<text text-anchor="middle" x="706" y="-159.5" font-family="Helvetica,sans-Serif" font-size="10.00">ec_read</text>
</a>
</g>
</g>
<!-- Node1&#45;&gt;Node8 -->
<g id="edge7" class="edge">
<title>Node1&#45;&gt;Node8</title>
<path fill="none" stroke="midnightblue" d="M777.16,-188.14C762.46,-182.66 745.27,-176.26 731.59,-171.16"/>
<polygon fill="midnightblue" stroke="midnightblue" points="776.27,-191.54 786.87,-191.75 778.72,-184.98 776.27,-191.54"/>
</g>
<!-- Node9 -->
<g id="node9" class="node">
<title>Node9</title>
<g id="a_node9"><a xlink:href="ex_8c.html#a98764f0b4faf5fd4b8baff03a7d73a6e" target="_top" xlink:title=" ">
<polygon fill="white" stroke="black" points="683,-114.5 683,-133.5 729,-133.5 729,-114.5 683,-114.5"/>
<text text-anchor="middle" x="706" y="-121.5" font-family="Helvetica,sans-Serif" font-size="10.00">ec_set</text>
</a>
</g>
</g>
<!-- Node1&#45;&gt;Node9 -->
<g id="edge8" class="edge">
<title>Node1&#45;&gt;Node9</title>
<path fill="none" stroke="midnightblue" d="M794.49,-182.65C783.52,-170.36 767.56,-154.14 751,-143 744.37,-138.54 736.53,-134.76 729.31,-131.76"/>
<polygon fill="midnightblue" stroke="midnightblue" points="792.04,-185.16 801.23,-190.42 797.32,-180.58 792.04,-185.16"/>
</g>
<!-- Node10 -->
<g id="node10" class="node">
<title>Node10</title>
<g id="a_node10"><a xlink:href="ex_8c.html#a057b67e2d4f23df3ad50a9d3ec86125b" target="_top" xlink:title=" ">
<polygon fill="white" stroke="black" points="679.5,-76.5 679.5,-95.5 732.5,-95.5 732.5,-76.5 679.5,-76.5"/>
<text text-anchor="middle" x="706" y="-83.5" font-family="Helvetica,sans-Serif" font-size="10.00">ec_write</text>
</a>
</g>
</g>
<!-- Node1&#45;&gt;Node10 -->
<g id="edge9" class="edge">
<title>Node1&#45;&gt;Node10</title>
<path fill="none" stroke="midnightblue" d="M801.51,-180.82C792.41,-159.72 775.21,-126.03 751,-105 745.72,-100.42 739.17,-96.8 732.75,-94"/>
<polygon fill="midnightblue" stroke="midnightblue" points="798.37,-182.4 805.42,-190.31 804.85,-179.73 798.37,-182.4"/>
</g>
<!-- Node24 -->
<g id="node24" class="node">
<title>Node24</title>
<g id="a_node24"><a xlink:href="ex_8c.html#a2446caa3d19e3467ba6999396de39109" target="_top" xlink:title=" ">
<polygon fill="white" stroke="black" points="661,-38.5 661,-57.5 751,-57.5 751,-38.5 661,-38.5"/>
<text text-anchor="middle" x="706" y="-45.5" font-family="Helvetica,sans-Serif" font-size="10.00">ec_write_archive</text>
</a>
</g>
</g>
<!-- Node1&#45;&gt;Node24 -->
<g id="edge28" class="edge">
<title>Node1&#45;&gt;Node24</title>
<path fill="none" stroke="midnightblue" d="M805.2,-180.3C798.76,-151.81 783.14,-99.02 751,-67 747.23,-63.24 742.59,-60.17 737.76,-57.69"/>
<polygon fill="midnightblue" stroke="midnightblue" points="801.81,-181.19 807.3,-190.26 808.66,-179.75 801.81,-181.19"/>
</g>
<!-- Node25 -->
<g id="node25" class="node">
<title>Node25</title>
<g id="a_node25"><a xlink:href="ex_8c.html#a487b22f0ae712d3338f5e9d8d6fa8540" target="_top" xlink:title=" ">
<polygon fill="white" stroke="black" points="679.5,-0.5 679.5,-19.5 732.5,-19.5 732.5,-0.5 679.5,-0.5"/>
<text text-anchor="middle" x="706" y="-7.5" font-family="Helvetica,sans-Serif" font-size="10.00">ec_yank</text>
</a>
</g>
</g>
<!-- Node1&#45;&gt;Node25 -->
<g id="edge29" class="edge">
<title>Node1&#45;&gt;Node25</title>
<path fill="none" stroke="midnightblue" d="M807.4,-179.76C803.6,-144.75 791.1,-72.47 751,-29 746.04,-23.62 739.28,-19.69 732.56,-16.85"/>
<polygon fill="midnightblue" stroke="midnightblue" points="803.95,-180.48 808.38,-190.11 810.92,-179.82 803.95,-180.48"/>
</g>
<!-- Node11 -->
<g id="node11" class="node">
<title>Node11</title>
<g id="a_node11"><a xlink:href="ex_8c.html#ab0cb848a971a3b2c09fcb456d887dd6b" target="_top" xlink:title=" ">
<polygon fill="white" stroke="black" points="531,-95.5 531,-114.5 625,-114.5 625,-95.5 531,-95.5"/>
<text text-anchor="middle" x="578" y="-102.5" font-family="Helvetica,sans-Serif" font-size="10.00">ex_modifiedbuffer</text>
</a>
</g>
</g>
<!-- Node10&#45;&gt;Node11 -->
<g id="edge10" class="edge">
<title>Node10&#45;&gt;Node11</title>
<path fill="none" stroke="midnightblue" d="M669.19,-91.4C655.5,-93.46 639.68,-95.85 625.15,-98.04"/>
<polygon fill="midnightblue" stroke="midnightblue" points="669.83,-94.84 679.2,-89.89 668.79,-87.92 669.83,-94.84"/>
</g>
<!-- Node12 -->
<g id="node12" class="node">
<title>Node12</title>
<g id="a_node12"><a xlink:href="ex_8c.html#a8059390ad69866fa8e14bdb2521d4dc2" target="_top" xlink:title=" ">
<polygon fill="white" stroke="black" points="355,-171.5 355,-190.5 403,-190.5 403,-171.5 355,-171.5"/>
<text text-anchor="middle" x="379" y="-178.5" font-family="Helvetica,sans-Serif" font-size="10.00">ec_edit</text>
</a>
</g>
</g>
<!-- Node11&#45;&gt;Node12 -->
<g id="edge11" class="edge">
<title>Node11&#45;&gt;Node12</title>
<path fill="none" stroke="midnightblue" d="M558.39,-121.59C542.63,-134.69 518.86,-152.32 495,-162 464.81,-174.25 427.11,-178.61 403.28,-180.15"/>
<polygon fill="midnightblue" stroke="midnightblue" points="560.93,-124.01 566.26,-114.86 556.39,-118.69 560.93,-124.01"/>
</g>
<!-- Node15 -->
<g id="node15" class="node">
<title>Node15</title>
<g id="a_node15"><a xlink:href="ex_8c.html#adcd83f163f659bd2596bcfc25d74bde9" target="_top" xlink:title=" ">
<polygon fill="white" stroke="black" points="440.5,-133.5 440.5,-152.5 493.5,-152.5 493.5,-133.5 440.5,-133.5"/>
<text text-anchor="middle" x="467" y="-140.5" font-family="Helvetica,sans-Serif" font-size="10.00">ec_exec</text>
</a>
</g>
</g>
<!-- Node11&#45;&gt;Node15 -->
<g id="edge14" class="edge">
<title>Node11&#45;&gt;Node15</title>
<path fill="none" stroke="midnightblue" d="M539.84,-117.95C524.63,-123.26 507.4,-129.27 493.62,-134.07"/>
<polygon fill="midnightblue" stroke="midnightblue" points="541.2,-121.19 549.49,-114.59 538.9,-114.58 541.2,-121.19"/>
</g>
<!-- Node22 -->
<g id="node22" class="node">
<title>Node22</title>
<g id="a_node22"><a xlink:href="ex_8c.html#aa69f426ff9728078fbb36f448c624a90" target="_top" xlink:title=" ">
<polygon fill="white" stroke="black" points="439,-95.5 439,-114.5 495,-114.5 495,-95.5 439,-95.5"/>
<text text-anchor="middle" x="467" y="-102.5" font-family="Helvetica,sans-Serif" font-size="10.00">ec_make</text>
</a>
</g>
</g>
<!-- Node11&#45;&gt;Node22 -->
<g id="edge25" class="edge">
<title>Node11&#45;&gt;Node22</title>
<path fill="none" stroke="midnightblue" d="M520.7,-105C511.76,-105 502.89,-105 495.04,-105"/>
<polygon fill="midnightblue" stroke="midnightblue" points="520.77,-108.5 530.77,-105 520.77,-101.5 520.77,-108.5"/>
</g>
<!-- Node23 -->
<g id="node23" class="node">
<title>Node23</title>
<g id="a_node23"><a xlink:href="ex_8c.html#a87eef446de152fad41ce88a9a343b87d" target="_top" xlink:title=" ">
<polygon fill="white" stroke="black" points="443,-57.5 443,-76.5 491,-76.5 491,-57.5 443,-57.5"/>
<text text-anchor="middle" x="467" y="-64.5" font-family="Helvetica,sans-Serif" font-size="10.00">ec_quit</text>
</a>
</g>
</g>
<!-- Node11&#45;&gt;Node23 -->
<g id="edge26" class="edge">
<title>Node11&#45;&gt;Node23</title>
<path fill="none" stroke="midnightblue" d="M539.79,-92.03C523.63,-86.39 505.21,-79.97 491.07,-75.04"/>
<polygon fill="midnightblue" stroke="midnightblue" points="538.9,-95.42 549.49,-95.41 541.2,-88.81 538.9,-95.42"/>
</g>
<!-- Node13 -->
<g id="node13" class="node">
<title>Node13</title>
<g id="a_node13"><a xlink:href="vi_8h.html#abe53b5c10f94f20cd5ed024371615fa1" target="_top" xlink:title=" ">
<polygon fill="white" stroke="black" points="74,-152.5 74,-171.5 119,-171.5 119,-152.5 74,-152.5"/>
<text text-anchor="middle" x="96.5" y="-159.5" font-family="Helvetica,sans-Serif" font-size="10.00">ex_init</text>
</a>
</g>
</g>
<!-- Node12&#45;&gt;Node13 -->
<g id="edge12" class="edge">
<title>Node12&#45;&gt;Node13</title>
<path fill="none" stroke="midnightblue" d="M344.41,-178.72C286.11,-174.78 167.76,-166.76 119.12,-163.46"/>
<polygon fill="midnightblue" stroke="midnightblue" points="344.35,-182.23 354.57,-179.41 344.83,-175.24 344.35,-182.23"/>
</g>
<!-- Node14 -->
<g id="node14" class="node">
<title>Node14</title>
<g id="a_node14"><a xlink:href="vi_8c.html#a0ddf1224851353fc92bfbff6f499fa97" target="_top" xlink:title=" ">
<polygon fill="white" stroke="black" points="0,-114.5 0,-133.5 38,-133.5 38,-114.5 0,-114.5"/>
<text text-anchor="middle" x="19" y="-121.5" font-family="Helvetica,sans-Serif" font-size="10.00">main</text>
</a>
</g>
</g>
<!-- Node13&#45;&gt;Node14 -->
<g id="edge13" class="edge">
<title>Node13&#45;&gt;Node14</title>
<path fill="none" stroke="midnightblue" d="M67.4,-147.86C57.57,-142.91 46.79,-137.49 38.01,-133.06"/>
<polygon fill="midnightblue" stroke="midnightblue" points="65.94,-151.04 76.45,-152.41 69.09,-144.79 65.94,-151.04"/>
</g>
<!-- Node16 -->
<g id="node16" class="node">
<title>Node16</title>
<g id="a_node16"><a xlink:href="ex_8c.html#a7d848d20211b2e1c868dde98ec5dfae9" target="_top" xlink:title=" ">
<polygon fill="white" stroke="black" points="355.5,-133.5 355.5,-152.5 402.5,-152.5 402.5,-133.5 355.5,-133.5"/>
<text text-anchor="middle" x="379" y="-140.5" font-family="Helvetica,sans-Serif" font-size="10.00">ex_line</text>
</a>
</g>
</g>
<!-- Node15&#45;&gt;Node16 -->
<g id="edge15" class="edge">
<title>Node15&#45;&gt;Node16</title>
<path fill="none" stroke="midnightblue" d="M429.99,-143C420.7,-143 410.96,-143 402.58,-143"/>
<polygon fill="midnightblue" stroke="midnightblue" points="430.2,-146.5 440.2,-143 430.2,-139.5 430.2,-146.5"/>
</g>
<!-- Node17 -->
<g id="node17" class="node">
<title>Node17</title>
<g id="a_node17"><a xlink:href="ex_8c.html#ab15ebfef933256d9741128e2ddf3f9b5" target="_top" xlink:title=" ">
<polygon fill="white" stroke="black" points="266,-95.5 266,-114.5 319,-114.5 319,-95.5 266,-95.5"/>
<text text-anchor="middle" x="292.5" y="-102.5" font-family="Helvetica,sans-Serif" font-size="10.00">ex_exec</text>
</a>
</g>
</g>
<!-- Node16&#45;&gt;Node17 -->
<g id="edge16" class="edge">
<title>Node16&#45;&gt;Node17</title>
<path fill="none" stroke="midnightblue" d="M347.52,-129.29C336.68,-124.42 324.72,-119.04 314.82,-114.59"/>
<polygon fill="midnightblue" stroke="midnightblue" points="346.12,-132.5 356.68,-133.41 348.99,-126.12 346.12,-132.5"/>
</g>
<!-- Node18 -->
<g id="node18" class="node">
<title>Node18</title>
<g id="a_node18"><a xlink:href="ex_8c.html#a70c571bdde329a65e216c19b4aeaa628" target="_top" xlink:title=" ">
<polygon fill="white" stroke="black" points="167.5,-133.5 167.5,-152.5 217.5,-152.5 217.5,-133.5 167.5,-133.5"/>
<text text-anchor="middle" x="192.5" y="-140.5" font-family="Helvetica,sans-Serif" font-size="10.00">ec_glob</text>
</a>
</g>
</g>
<!-- Node17&#45;&gt;Node18 -->
<g id="edge17" class="edge">
<title>Node17&#45;&gt;Node18</title>
<path fill="none" stroke="midnightblue" d="M257.14,-118.32C244.07,-123.39 229.46,-129.06 217.54,-133.68"/>
<polygon fill="midnightblue" stroke="midnightblue" points="258.71,-121.47 266.77,-114.59 256.18,-114.94 258.71,-121.47"/>
</g>
<!-- Node19 -->
<g id="node19" class="node">
<title>Node19</title>
<g id="a_node19"><a xlink:href="vi_8h.html#aa75c73cccb4878ec06ea5bf5b1b02295" target="_top" xlink:title=" ">
<polygon fill="white" stroke="black" points="155,-95.5 155,-114.5 230,-114.5 230,-95.5 155,-95.5"/>
<text text-anchor="middle" x="192.5" y="-102.5" font-family="Helvetica,sans-Serif" font-size="10.00">ex_command</text>
</a>
</g>
</g>
<!-- Node17&#45;&gt;Node19 -->
<g id="edge19" class="edge">
<title>Node17&#45;&gt;Node19</title>
<path fill="none" stroke="midnightblue" d="M255.61,-105C247.31,-105 238.46,-105 230.13,-105"/>
<polygon fill="midnightblue" stroke="midnightblue" points="255.75,-108.5 265.75,-105 255.75,-101.5 255.75,-108.5"/>
</g>
<!-- Node18&#45;&gt;Node16 -->
<g id="edge18" class="edge">
<title>Node18&#45;&gt;Node16</title>
<path fill="none" stroke="midnightblue" d="M228.15,-143C265.42,-143 323.59,-143 355.38,-143"/>
<polygon fill="midnightblue" stroke="midnightblue" points="227.77,-139.5 217.77,-143 227.77,-146.5 227.77,-139.5"/>
</g>
<!-- Node19&#45;&gt;Node13 -->
<g id="edge22" class="edge">
<title>Node19&#45;&gt;Node13</title>
<path fill="none" stroke="midnightblue" d="M162.9,-119.52C160.21,-121 157.54,-122.51 155,-124 139.74,-132.98 122.9,-144.28 111.42,-152.21"/>
<polygon fill="midnightblue" stroke="midnightblue" points="164.79,-122.48 171.97,-114.69 161.5,-116.3 164.79,-122.48"/>
</g>
<!-- Node20 -->
<g id="node20" class="node">
<title>Node20</title>
<g id="a_node20"><a xlink:href="vi_8h.html#ac395e51f25330a6e6033b6d0d22b2076" target="_top" xlink:title=" ">
<polygon fill="white" stroke="black" points="82,-114.5 82,-133.5 111,-133.5 111,-114.5 82,-114.5"/>
<text text-anchor="middle" x="96.5" y="-121.5" font-family="Helvetica,sans-Serif" font-size="10.00">ex</text>
</a>
</g>
</g>
<!-- Node19&#45;&gt;Node20 -->
<g id="edge20" class="edge">
<title>Node19&#45;&gt;Node20</title>
<path fill="none" stroke="midnightblue" d="M144.73,-114.45C132.54,-116.92 120.33,-119.39 111.38,-121.2"/>
<polygon fill="midnightblue" stroke="midnightblue" points="145.78,-117.81 154.89,-112.4 144.39,-110.95 145.78,-117.81"/>
</g>
<!-- Node21 -->
<g id="node21" class="node">
<title>Node21</title>
<g id="a_node21"><a xlink:href="vi_8c.html#a8d808e0f3453afe6600673ee1ea5f828" target="_top" xlink:title=" ">
<polygon fill="white" stroke="black" points="82,-76.5 82,-95.5 111,-95.5 111,-76.5 82,-76.5"/>
<text text-anchor="middle" x="96.5" y="-83.5" font-family="Helvetica,sans-Serif" font-size="10.00">vi</text>
</a>
</g>
</g>
<!-- Node19&#45;&gt;Node21 -->
<g id="edge23" class="edge">
<title>Node19&#45;&gt;Node21</title>
<path fill="none" stroke="midnightblue" d="M144.73,-95.55C132.54,-93.08 120.33,-90.61 111.38,-88.8"/>
<polygon fill="midnightblue" stroke="midnightblue" points="144.39,-99.05 154.89,-97.6 145.78,-92.19 144.39,-99.05"/>
</g>
<!-- Node20&#45;&gt;Node14 -->
<g id="edge21" class="edge">
<title>Node20&#45;&gt;Node14</title>
<path fill="none" stroke="midnightblue" d="M71.55,-124C60.69,-124 48.07,-124 38.04,-124"/>
<polygon fill="midnightblue" stroke="midnightblue" points="71.65,-127.5 81.65,-124 71.65,-120.5 71.65,-127.5"/>
</g>
<!-- Node21&#45;&gt;Node14 -->
<g id="edge24" class="edge">
<title>Node21&#45;&gt;Node14</title>
<path fill="none" stroke="midnightblue" d="M72.56,-97.55C61.48,-103.12 48.39,-109.71 38.04,-114.92"/>
<polygon fill="midnightblue" stroke="midnightblue" points="74.29,-100.59 81.65,-92.97 71.15,-94.34 74.29,-100.59"/>
</g>
<!-- Node23&#45;&gt;Node10 -->
<g id="edge27" class="edge">
<title>Node23&#45;&gt;Node10</title>
<path fill="none" stroke="midnightblue" d="M501.45,-69.68C549.24,-73.51 636.02,-80.47 679.19,-83.93"/>
<polygon fill="midnightblue" stroke="midnightblue" points="501.56,-66.18 491.31,-68.87 501,-73.16 501.56,-66.18"/>
</g>
</g>
</svg>
        <g id="navigator" transform="translate(0 0)" fill="#404254">
                <rect fill="#f2f5e9" fill-opacity="0.5" stroke="#606060" stroke-width=".5" x="0" y="0" width="60" height="60"/>
                <use id="zoomplus" xlink:href="#zoomPlus" x="17" y="9" onmousedown="handleZoom(evt,'in')"/>
                <use id="zoomminus" xlink:href="#zoomMin" x="42" y="9" onmousedown="handleZoom(evt,'out')"/>
                <use id="reset" xlink:href="#resetDef" x="30" y="36" onmousedown="handleReset()"/>
                <g id="arrowUp" xlink:href="#dirArrow" transform="translate(30 24)" onmousedown="handlePan(0,-1)">
                  <use xlink:href="#rim" fill="#404040">
                        <set attributeName="fill" to="#808080" begin="arrowUp.mouseover" end="arrowUp.mouseout"/>
                  </use>
                  <path fill="none" stroke="white" stroke-width="1.5" d="M0,-3.0v7 M-2.5,-0.5L0,-3.0L2.5,-0.5"/>
                </g>
                <g id="arrowRight" xlink:href="#dirArrow" transform="rotate(90) translate(36 -43)" onmousedown="handlePan(1,0)">
                  <use xlink:href="#rim" fill="#404040">
                        <set attributeName="fill" to="#808080" begin="arrowRight.mouseover" end="arrowRight.mouseout"/>
                  </use>
                  <path fill="none" stroke="white" stroke-width="1.5" d="M0,-3.0v7 M-2.5,-0.5L0,-3.0L2.5,-0.5"/>
                </g>
                <g id="arrowDown" xlink:href="#dirArrow" transform="rotate(180) translate(-30 -48)" onmousedown="handlePan(0,1)">
                  <use xlink:href="#rim" fill="#404040">
                        <set attributeName="fill" to="#808080" begin="arrowDown.mouseover" end="arrowDown.mouseout"/>
                  </use>
                  <path fill="none" stroke="white" stroke-width="1.5" d="M0,-3.0v7 M-2.5,-0.5L0,-3.0L2.5,-0.5"/>
                </g>
                <g id="arrowLeft" xlink:href="#dirArrow" transform="rotate(270) translate(-36 17)" onmousedown="handlePan(-1,0)">
                  <use xlink:href="#rim" fill="#404040">
                        <set attributeName="fill" to="#808080" begin="arrowLeft.mouseover" end="arrowLeft.mouseout"/>
                  </use>
                  <path fill="none" stroke="white" stroke-width="1.5" d="M0,-3.0v7 M-2.5,-0.5L0,-3.0L2.5,-0.5"/>
                </g>
        </g>
        <svg viewBox="0 0 15 15" width="100%" height="30px" preserveAspectRatio="xMaxYMin meet">
         <g id="arrow_out" transform="scale(0.3 0.3)">
          <a xlink:href="ex_8c_a2b06ebeff542dc0173dd4735f1f7fecf_icgraph_org.svg" target="_base">
           <rect id="button" ry="5" rx="5" y="6" x="6" height="38" width="38"
                fill="#f2f5e9" fill-opacity="0.5" stroke="#606060" stroke-width="1.0"/>
           <path id="arrow"
             d="M 11.500037,31.436501 C 11.940474,20.09759 22.043105,11.32322 32.158766,21.979434 L 37.068811,17.246167 C 37.068811,17.246167 37.088388,32 37.088388,32 L 22.160133,31.978069 C 22.160133,31.978069 26.997745,27.140456 26.997745,27.140456 C 18.528582,18.264221 13.291696,25.230495 11.500037,31.436501 z"
             style="fill:#404040;"/>
          </a>
         </g>
        </svg>
</svg>
