<?xml version="1.0" encoding="UTF-8" standalone="no"?>
<!DOCTYPE svg PUBLIC "-//W3C//DTD SVG 1.1//EN"
 "http://www.w3.org/Graphics/SVG/1.1/DTD/svg11.dtd">
<!-- Generated by graphviz version 2.44.1 (20200629.0846)
 -->
<!-- Title: bufs_open Pages: 1 -->
<!--zoomable 237 -->
<svg id="main" version="1.1" xmlns="http://www.w3.org/2000/svg" xmlns:xlink="http://www.w3.org/1999/xlink" xml:space="preserve" onload="init(evt)">
<style type="text/css"><![CDATA[
.edge:hover path { stroke: red; }
.edge:hover polygon { stroke: red; fill: red; }
]]></style>
<script type="text/javascript"><![CDATA[
var edges = document.getElementsByTagName('g');
if (edges && edges.length) {
  for (var i=0;i<edges.length;i++) {
    if (edges[i].id.substr(0,4)=='edge') {
      edges[i].setAttribute('class','edge');
    }
  }
}
]]></script>
        <defs>
                <circle id="rim" cx="0" cy="0" r="7"/>
                <circle id="rim2" cx="0" cy="0" r="3.5"/>
                <g id="zoomPlus">
                        <use xlink:href="#rim" fill="#404040">
                                <set attributeName="fill" to="#808080" begin="zoomplus.mouseover" end="zoomplus.mouseout"/>
                        </use>
                        <path d="M-4,0h8M0,-4v8" fill="none" stroke="white" stroke-width="1.5" pointer-events="none"/>
                </g>
                <g id="zoomMin">
                        <use xlink:href="#rim" fill="#404040">
                                <set attributeName="fill" to="#808080" begin="zoomminus.mouseover" end="zoomminus.mouseout"/>
                        </use>
                        <path d="M-4,0h8" fill="none" stroke="white" stroke-width="1.5" pointer-events="none"/>
                </g>
                <g id="dirArrow">
                        <path fill="none" stroke="white" stroke-width="1.5" d="M0,-3.0v7 M-2.5,-0.5L0,-3.0L2.5,-0.5"/>
                </g>
               <g id="resetDef">
                       <use xlink:href="#rim2" fill="#404040">
                               <set attributeName="fill" to="#808080" begin="reset.mouseover" end="reset.mouseout"/>
                       </use>
               </g>
        </defs>

<script type="text/javascript">
var viewWidth = 857;
var viewHeight = 237;
var sectionId = 'dynsection-5';
</script>
<script xlink:href="svgpan.js"/>
<svg id="graph" class="graph">
<g id="viewport">
<title>bufs_open</title>
<polygon fill="white" stroke="transparent" points="-4,4 -4,-233 853,-233 853,4 -4,4"/>
<!-- Node1 -->
<g id="node1" class="node">
<title>Node1</title>
<g id="a_node1"><a xlink:title=" ">
<polygon fill="#bfbfbf" stroke="black" points="0,-57.5 0,-76.5 62,-76.5 62,-57.5 0,-57.5"/>
<text text-anchor="middle" x="31" y="-64.5" font-family="Helvetica,sans-Serif" font-size="10.00">bufs_open</text>
</a>
</g>
</g>
<!-- Node2 -->
<g id="node2" class="node">
<title>Node2</title>
<g id="a_node2"><a xlink:href="ex_8c.html#ad97bbe76b7cfe1a3f86e404fd876c4e1" target="_top" xlink:title=" ">
<polygon fill="white" stroke="black" points="104,-114.5 104,-133.5 161,-133.5 161,-114.5 104,-114.5"/>
<text text-anchor="middle" x="132.5" y="-121.5" font-family="Helvetica,sans-Serif" font-size="10.00">bufs_free</text>
</a>
</g>
</g>
<!-- Node1&#45;&gt;Node2 -->
<g id="edge1" class="edge">
<title>Node1&#45;&gt;Node2</title>
<path fill="none" stroke="midnightblue" d="M48.53,-76.56C61.87,-84.26 81.12,-95.36 98,-105 100.5,-106.43 103.11,-107.92 105.72,-109.4"/>
<polygon fill="midnightblue" stroke="midnightblue" points="104.02,-112.46 114.45,-114.36 107.48,-106.37 104.02,-112.46"/>
</g>
<!-- Node5 -->
<g id="node5" class="node">
<title>Node5</title>
<g id="a_node5"><a xlink:href="lbuf_8c.html#a0a26951b9c24ddd95f7761fb6949ae53" target="_top" xlink:title=" ">
<polygon fill="white" stroke="black" points="101.5,-76.5 101.5,-95.5 163.5,-95.5 163.5,-76.5 101.5,-76.5"/>
<text text-anchor="middle" x="132.5" y="-83.5" font-family="Helvetica,sans-Serif" font-size="10.00">lbuf_make</text>
</a>
</g>
</g>
<!-- Node1&#45;&gt;Node5 -->
<g id="edge4" class="edge">
<title>Node1&#45;&gt;Node5</title>
<path fill="none" stroke="midnightblue" d="M62.12,-72.75C71.38,-74.52 81.71,-76.49 91.52,-78.37"/>
<polygon fill="midnightblue" stroke="midnightblue" points="91,-81.83 101.48,-80.27 92.31,-74.95 91,-81.83"/>
</g>
<!-- Node6 -->
<g id="node6" class="node">
<title>Node6</title>
<g id="a_node6"><a xlink:href="syn_8c.html#ad440dafd3cad961222bb22b9743657bf" target="_top" xlink:title=" ">
<polygon fill="white" stroke="black" points="98,-38.5 98,-57.5 167,-57.5 167,-38.5 98,-38.5"/>
<text text-anchor="middle" x="132.5" y="-45.5" font-family="Helvetica,sans-Serif" font-size="10.00">syn_filetype</text>
</a>
</g>
</g>
<!-- Node1&#45;&gt;Node6 -->
<g id="edge5" class="edge">
<title>Node1&#45;&gt;Node6</title>
<path fill="none" stroke="midnightblue" d="M62.12,-61.25C70.18,-59.71 79.06,-58.01 87.69,-56.37"/>
<polygon fill="midnightblue" stroke="midnightblue" points="88.49,-59.78 97.65,-54.46 87.17,-52.9 88.49,-59.78"/>
</g>
<!-- Node19 -->
<g id="node19" class="node">
<title>Node19</title>
<g id="a_node19"><a xlink:href="uc_8c.html#a2844d125d9a2c1d03848dcdf952b0edb" target="_top" xlink:title=" ">
<polygon fill="white" stroke="black" points="108.5,-0.5 108.5,-19.5 156.5,-19.5 156.5,-0.5 108.5,-0.5"/>
<text text-anchor="middle" x="132.5" y="-7.5" font-family="Helvetica,sans-Serif" font-size="10.00">uc_dup</text>
</a>
</g>
</g>
<!-- Node1&#45;&gt;Node19 -->
<g id="edge21" class="edge">
<title>Node1&#45;&gt;Node19</title>
<path fill="none" stroke="midnightblue" d="M48.53,-57.44C61.87,-49.74 81.12,-38.64 98,-29 100.5,-27.57 103.11,-26.08 105.72,-24.6"/>
<polygon fill="midnightblue" stroke="midnightblue" points="107.48,-27.63 114.45,-19.64 104.02,-21.54 107.48,-27.63"/>
</g>
<!-- Node3 -->
<g id="node3" class="node">
<title>Node3</title>
<g id="a_node3"><a xlink:href="lbuf_8c.html#a585611c3423481e914f24ae4d2b97b3e" target="_top" xlink:title=" ">
<polygon fill="white" stroke="black" points="212,-114.5 212,-133.5 266,-133.5 266,-114.5 212,-114.5"/>
<text text-anchor="middle" x="239" y="-121.5" font-family="Helvetica,sans-Serif" font-size="10.00">lbuf_free</text>
</a>
</g>
</g>
<!-- Node2&#45;&gt;Node3 -->
<g id="edge2" class="edge">
<title>Node2&#45;&gt;Node3</title>
<path fill="none" stroke="midnightblue" d="M161.23,-124C173.63,-124 188.42,-124 201.7,-124"/>
<polygon fill="midnightblue" stroke="midnightblue" points="201.94,-127.5 211.94,-124 201.94,-120.5 201.94,-127.5"/>
</g>
<!-- Node4 -->
<g id="node4" class="node">
<title>Node4</title>
<g id="a_node4"><a xlink:href="lbuf_8c.html#a94a520edd0e2f60713523483cf01c7de" target="_top" xlink:title=" ">
<polygon fill="white" stroke="black" points="311,-114.5 311,-133.5 370,-133.5 370,-114.5 311,-114.5"/>
<text text-anchor="middle" x="340.5" y="-121.5" font-family="Helvetica,sans-Serif" font-size="10.00">lopt_done</text>
</a>
</g>
</g>
<!-- Node3&#45;&gt;Node4 -->
<g id="edge3" class="edge">
<title>Node3&#45;&gt;Node4</title>
<path fill="none" stroke="midnightblue" d="M266.14,-124C276.63,-124 288.95,-124 300.46,-124"/>
<polygon fill="midnightblue" stroke="midnightblue" points="300.73,-127.5 310.73,-124 300.73,-120.5 300.73,-127.5"/>
</g>
<!-- Node7 -->
<g id="node7" class="node">
<title>Node7</title>
<g id="a_node7"><a xlink:href="conf_8c.html#a1a3b977b82bc19d19926e54e4f9de9ba" target="_top" xlink:title=" ">
<polygon fill="white" stroke="black" points="203,-19.5 203,-38.5 275,-38.5 275,-19.5 203,-19.5"/>
<text text-anchor="middle" x="239" y="-26.5" font-family="Helvetica,sans-Serif" font-size="10.00">conf_filetype</text>
</a>
</g>
</g>
<!-- Node6&#45;&gt;Node7 -->
<g id="edge6" class="edge">
<title>Node6&#45;&gt;Node7</title>
<path fill="none" stroke="midnightblue" d="M167.14,-41.88C175.37,-40.39 184.32,-38.76 192.99,-37.18"/>
<polygon fill="midnightblue" stroke="midnightblue" points="193.77,-40.6 202.99,-35.37 192.52,-33.71 193.77,-40.6"/>
</g>
<!-- Node8 -->
<g id="node8" class="node">
<title>Node8</title>
<g id="a_node8"><a xlink:href="rset_8c.html#a389ec5abca88adc048a058744f2373eb" target="_top" xlink:title=" ">
<polygon fill="white" stroke="black" points="212,-57.5 212,-76.5 266,-76.5 266,-57.5 212,-57.5"/>
<text text-anchor="middle" x="239" y="-64.5" font-family="Helvetica,sans-Serif" font-size="10.00">rset_find</text>
</a>
</g>
</g>
<!-- Node6&#45;&gt;Node8 -->
<g id="edge7" class="edge">
<title>Node6&#45;&gt;Node8</title>
<path fill="none" stroke="midnightblue" d="M167.14,-54.12C178.19,-56.13 190.53,-58.37 201.77,-60.41"/>
<polygon fill="midnightblue" stroke="midnightblue" points="201.25,-63.88 211.71,-62.22 202.5,-56.99 201.25,-63.88"/>
</g>
<!-- Node9 -->
<g id="node9" class="node">
<title>Node9</title>
<g id="a_node9"><a xlink:href="regex_8c.html#aa085ccd05ec25e3f8053850aebc50fe3" target="_top" xlink:title=" ">
<polygon fill="white" stroke="black" points="315,-57.5 315,-76.5 366,-76.5 366,-57.5 315,-57.5"/>
<text text-anchor="middle" x="340.5" y="-64.5" font-family="Helvetica,sans-Serif" font-size="10.00">regexec</text>
</a>
</g>
</g>
<!-- Node8&#45;&gt;Node9 -->
<g id="edge8" class="edge">
<title>Node8&#45;&gt;Node9</title>
<path fill="none" stroke="midnightblue" d="M266.14,-67C277.93,-67 292.01,-67 304.68,-67"/>
<polygon fill="midnightblue" stroke="midnightblue" points="304.9,-70.5 314.9,-67 304.9,-63.5 304.9,-70.5"/>
</g>
<!-- Node10 -->
<g id="node10" class="node">
<title>Node10</title>
<g id="a_node10"><a xlink:href="regex_8c.html#aa5925e49bd18112bb37421dbde29162a" target="_top" xlink:title=" ">
<polygon fill="white" stroke="black" points="406,-86.5 406,-105.5 477,-105.5 477,-86.5 406,-86.5"/>
<text text-anchor="middle" x="441.5" y="-93.5" font-family="Helvetica,sans-Serif" font-size="10.00">re_recmatch</text>
</a>
</g>
</g>
<!-- Node9&#45;&gt;Node10 -->
<g id="edge9" class="edge">
<title>Node9&#45;&gt;Node10</title>
<path fill="none" stroke="midnightblue" d="M366.23,-74.24C375.87,-77.07 387.21,-80.39 398.08,-83.58"/>
<polygon fill="midnightblue" stroke="midnightblue" points="397.3,-86.99 407.88,-86.44 399.26,-80.27 397.3,-86.99"/>
</g>
<!-- Node16 -->
<g id="node16" class="node">
<title>Node16</title>
<g id="a_node16"><a xlink:href="regex_8c.html#a9a0d6d5f93f1eaba8b63b16903c0952d" target="_top" xlink:title=" ">
<polygon fill="white" stroke="black" points="802.5,-95.5 802.5,-114.5 847.5,-114.5 847.5,-95.5 802.5,-95.5"/>
<text text-anchor="middle" x="825" y="-102.5" font-family="Helvetica,sans-Serif" font-size="10.00">uc_len</text>
</a>
</g>
</g>
<!-- Node9&#45;&gt;Node16 -->
<g id="edge20" class="edge">
<title>Node9&#45;&gt;Node16</title>
<path fill="none" stroke="midnightblue" d="M366.11,-58.94C402.42,-47.79 472.68,-29 534,-29 534,-29 534,-29 631,-29 691.15,-29 710.96,-21.59 765,-48 783.68,-57.13 800.25,-74.39 811.03,-87.53"/>
<polygon fill="midnightblue" stroke="midnightblue" points="808.32,-89.75 817.25,-95.45 813.83,-85.42 808.32,-89.75"/>
</g>
<!-- Node11 -->
<g id="node11" class="node">
<title>Node11</title>
<g id="a_node11"><a xlink:href="regex_8c.html#a8e35614ddf21d405773327a52a95a73d" target="_top" xlink:title=" ">
<polygon fill="white" stroke="black" points="513,-105.5 513,-124.5 557,-124.5 557,-105.5 513,-105.5"/>
<text text-anchor="middle" x="535" y="-112.5" font-family="Helvetica,sans-Serif" font-size="10.00">re_rec</text>
</a>
</g>
</g>
<!-- Node10&#45;&gt;Node11 -->
<g id="edge10" class="edge">
<title>Node10&#45;&gt;Node11</title>
<path fill="none" stroke="midnightblue" d="M477.09,-103.18C485.56,-104.94 494.57,-106.81 502.87,-108.54"/>
<polygon fill="midnightblue" stroke="midnightblue" points="502.4,-112.01 512.9,-110.62 503.82,-105.16 502.4,-112.01"/>
</g>
<!-- Node12 -->
<g id="node12" class="node">
<title>Node12</title>
<g id="a_node12"><a xlink:href="regex_8c.html#a24fd1fc7457ff4f03fb384f7170ac395" target="_top" xlink:title=" ">
<polygon fill="white" stroke="black" points="593,-114.5 593,-133.5 667,-133.5 667,-114.5 593,-114.5"/>
<text text-anchor="middle" x="630" y="-121.5" font-family="Helvetica,sans-Serif" font-size="10.00">ratom_match</text>
</a>
</g>
</g>
<!-- Node11&#45;&gt;Node12 -->
<g id="edge11" class="edge">
<title>Node11&#45;&gt;Node12</title>
<path fill="none" stroke="midnightblue" d="M557.1,-117.04C564.73,-117.78 573.68,-118.65 582.63,-119.51"/>
<polygon fill="midnightblue" stroke="midnightblue" points="582.36,-123 592.65,-120.48 583.03,-116.04 582.36,-123"/>
</g>
<!-- Node13 -->
<g id="node13" class="node">
<title>Node13</title>
<g id="a_node13"><a xlink:href="regex_8c.html#aae17ed73e84075718fb04d131d6ca779" target="_top" xlink:title=" ">
<polygon fill="white" stroke="black" points="703,-133.5 703,-152.5 765,-152.5 765,-133.5 703,-133.5"/>
<text text-anchor="middle" x="734" y="-140.5" font-family="Helvetica,sans-Serif" font-size="10.00">brk_match</text>
</a>
</g>
</g>
<!-- Node12&#45;&gt;Node13 -->
<g id="edge12" class="edge">
<title>Node12&#45;&gt;Node13</title>
<path fill="none" stroke="midnightblue" d="M667.25,-130.75C675.55,-132.3 684.43,-133.95 692.89,-135.53"/>
<polygon fill="midnightblue" stroke="midnightblue" points="692.45,-139.01 702.93,-137.4 693.74,-132.13 692.45,-139.01"/>
</g>
<!-- Node15 -->
<g id="node15" class="node">
<title>Node15</title>
<g id="a_node15"><a xlink:href="regex_8c.html#aaf73cdb88048e7f9fd588eb8d5aeb5a3" target="_top" xlink:title=" ">
<polygon fill="white" stroke="black" points="801,-171.5 801,-190.5 849,-190.5 849,-171.5 801,-171.5"/>
<text text-anchor="middle" x="825" y="-178.5" font-family="Helvetica,sans-Serif" font-size="10.00">uc_dec</text>
</a>
</g>
</g>
<!-- Node12&#45;&gt;Node15 -->
<g id="edge18" class="edge">
<title>Node12&#45;&gt;Node15</title>
<path fill="none" stroke="midnightblue" d="M645.53,-133.52C659.63,-142.3 681.94,-155.01 703,-162 731.65,-171.52 765.75,-176.32 790.43,-178.71"/>
<polygon fill="midnightblue" stroke="midnightblue" points="790.45,-182.23 800.72,-179.63 791.07,-175.26 790.45,-182.23"/>
</g>
<!-- Node12&#45;&gt;Node16 -->
<g id="edge19" class="edge">
<title>Node12&#45;&gt;Node16</title>
<path fill="none" stroke="midnightblue" d="M667.3,-120.43C703.32,-116.88 757.97,-111.5 792.3,-108.12"/>
<polygon fill="midnightblue" stroke="midnightblue" points="792.64,-111.6 802.25,-107.14 791.96,-104.64 792.64,-111.6"/>
</g>
<!-- Node17 -->
<g id="node17" class="node">
<title>Node17</title>
<g id="a_node17"><a xlink:href="regex_8c.html#a35ad3fd0dbb795e6f30404ce86a7be5b" target="_top" xlink:title=" ">
<polygon fill="white" stroke="black" points="711.5,-57.5 711.5,-76.5 756.5,-76.5 756.5,-57.5 711.5,-57.5"/>
<text text-anchor="middle" x="734" y="-64.5" font-family="Helvetica,sans-Serif" font-size="10.00">isword</text>
</a>
</g>
</g>
<!-- Node12&#45;&gt;Node17 -->
<g id="edge16" class="edge">
<title>Node12&#45;&gt;Node17</title>
<path fill="none" stroke="midnightblue" d="M648.3,-114.33C664.45,-105.31 688.74,-91.73 707.18,-81.43"/>
<polygon fill="midnightblue" stroke="midnightblue" points="708.93,-84.46 715.95,-76.53 705.52,-78.35 708.93,-84.46"/>
</g>
<!-- Node18 -->
<g id="node18" class="node">
<title>Node18</title>
<g id="a_node18"><a xlink:href="regex_8c.html#ade3e10606e6e8866e6151fe8440d6101" target="_top" xlink:title=" ">
<polygon fill="white" stroke="black" points="710,-209.5 710,-228.5 758,-228.5 758,-209.5 710,-209.5"/>
<text text-anchor="middle" x="734" y="-216.5" font-family="Helvetica,sans-Serif" font-size="10.00">uc_beg</text>
</a>
</g>
</g>
<!-- Node12&#45;&gt;Node18 -->
<g id="edge17" class="edge">
<title>Node12&#45;&gt;Node18</title>
<path fill="none" stroke="midnightblue" d="M640.02,-133.51C653.38,-147.43 679.38,-174.01 703,-195 706.05,-197.71 709.36,-200.5 712.63,-203.18"/>
<polygon fill="midnightblue" stroke="midnightblue" points="710.51,-205.96 720.5,-209.47 714.88,-200.49 710.51,-205.96"/>
</g>
<!-- Node14 -->
<g id="node14" class="node">
<title>Node14</title>
<g id="a_node14"><a xlink:href="regex_8c.html#acc18ff8d2687611a9e221b3329b02413" target="_top" xlink:title=" ">
<polygon fill="white" stroke="black" points="801,-133.5 801,-152.5 849,-152.5 849,-133.5 801,-133.5"/>
<text text-anchor="middle" x="825" y="-140.5" font-family="Helvetica,sans-Serif" font-size="10.00">brk_len</text>
</a>
</g>
</g>
<!-- Node13&#45;&gt;Node14 -->
<g id="edge13" class="edge">
<title>Node13&#45;&gt;Node14</title>
<path fill="none" stroke="midnightblue" d="M765.13,-143C773.36,-143 782.32,-143 790.71,-143"/>
<polygon fill="midnightblue" stroke="midnightblue" points="790.94,-146.5 800.94,-143 790.94,-139.5 790.94,-146.5"/>
</g>
<!-- Node13&#45;&gt;Node15 -->
<g id="edge14" class="edge">
<title>Node13&#45;&gt;Node15</title>
<path fill="none" stroke="midnightblue" d="M757.46,-152.59C768,-157.09 780.75,-162.53 792.25,-167.44"/>
<polygon fill="midnightblue" stroke="midnightblue" points="790.98,-170.71 801.55,-171.41 793.73,-164.27 790.98,-170.71"/>
</g>
<!-- Node13&#45;&gt;Node16 -->
<g id="edge15" class="edge">
<title>Node13&#45;&gt;Node16</title>
<path fill="none" stroke="midnightblue" d="M757.46,-133.41C768.24,-128.81 781.33,-123.22 793.04,-118.22"/>
<polygon fill="midnightblue" stroke="midnightblue" points="794.65,-121.34 802.47,-114.19 791.9,-114.9 794.65,-121.34"/>
</g>
</g>
</svg>
        <g id="navigator" transform="translate(0 0)" fill="#404254">
                <rect fill="#f2f5e9" fill-opacity="0.5" stroke="#606060" stroke-width=".5" x="0" y="0" width="60" height="60"/>
                <use id="zoomplus" xlink:href="#zoomPlus" x="17" y="9" onmousedown="handleZoom(evt,'in')"/>
                <use id="zoomminus" xlink:href="#zoomMin" x="42" y="9" onmousedown="handleZoom(evt,'out')"/>
                <use id="reset" xlink:href="#resetDef" x="30" y="36" onmousedown="handleReset()"/>
                <g id="arrowUp" xlink:href="#dirArrow" transform="translate(30 24)" onmousedown="handlePan(0,-1)">
                  <use xlink:href="#rim" fill="#404040">
                        <set attributeName="fill" to="#808080" begin="arrowUp.mouseover" end="arrowUp.mouseout"/>
                  </use>
                  <path fill="none" stroke="white" stroke-width="1.5" d="M0,-3.0v7 M-2.5,-0.5L0,-3.0L2.5,-0.5"/>
                </g>
                <g id="arrowRight" xlink:href="#dirArrow" transform="rotate(90) translate(36 -43)" onmousedown="handlePan(1,0)">
                  <use xlink:href="#rim" fill="#404040">
                        <set attributeName="fill" to="#808080" begin="arrowRight.mouseover" end="arrowRight.mouseout"/>
                  </use>
                  <path fill="none" stroke="white" stroke-width="1.5" d="M0,-3.0v7 M-2.5,-0.5L0,-3.0L2.5,-0.5"/>
                </g>
                <g id="arrowDown" xlink:href="#dirArrow" transform="rotate(180) translate(-30 -48)" onmousedown="handlePan(0,1)">
                  <use xlink:href="#rim" fill="#404040">
                        <set attributeName="fill" to="#808080" begin="arrowDown.mouseover" end="arrowDown.mouseout"/>
                  </use>
                  <path fill="none" stroke="white" stroke-width="1.5" d="M0,-3.0v7 M-2.5,-0.5L0,-3.0L2.5,-0.5"/>
                </g>
                <g id="arrowLeft" xlink:href="#dirArrow" transform="rotate(270) translate(-36 17)" onmousedown="handlePan(-1,0)">
                  <use xlink:href="#rim" fill="#404040">
                        <set attributeName="fill" to="#808080" begin="arrowLeft.mouseover" end="arrowLeft.mouseout"/>
                  </use>
                  <path fill="none" stroke="white" stroke-width="1.5" d="M0,-3.0v7 M-2.5,-0.5L0,-3.0L2.5,-0.5"/>
                </g>
        </g>
        <svg viewBox="0 0 15 15" width="100%" height="30px" preserveAspectRatio="xMaxYMin meet">
         <g id="arrow_out" transform="scale(0.3 0.3)">
          <a xlink:href="ex_8c_a1857a36a25629d552700d0e3a19ce2c3_cgraph_org.svg" target="_base">
           <rect id="button" ry="5" rx="5" y="6" x="6" height="38" width="38"
                fill="#f2f5e9" fill-opacity="0.5" stroke="#606060" stroke-width="1.0"/>
           <path id="arrow"
             d="M 11.500037,31.436501 C 11.940474,20.09759 22.043105,11.32322 32.158766,21.979434 L 37.068811,17.246167 C 37.068811,17.246167 37.088388,32 37.088388,32 L 22.160133,31.978069 C 22.160133,31.978069 26.997745,27.140456 26.997745,27.140456 C 18.528582,18.264221 13.291696,25.230495 11.500037,31.436501 z"
             style="fill:#404040;"/>
          </a>
         </g>
        </svg>
</svg>
