<?xml version="1.0" encoding="UTF-8" standalone="no"?>
<!DOCTYPE svg PUBLIC "-//W3C//DTD SVG 1.1//EN"
 "http://www.w3.org/Graphics/SVG/1.1/DTD/svg11.dtd">
<!-- Generated by graphviz version 2.44.1 (20200629.0846)
 -->
<!-- Title: ex_lineno Pages: 1 -->
<svg width="1020pt" height="540pt"
 viewBox="0.00 0.00 1020.00 539.86" xmlns="http://www.w3.org/2000/svg" xmlns:xlink="http://www.w3.org/1999/xlink">
<g id="graph0" class="graph" transform="scale(1 1) rotate(0) translate(4 535.86)">
<title>ex_lineno</title>
<polygon fill="white" stroke="transparent" points="-4,4 -4,-535.86 1016,-535.86 1016,4 -4,4"/>
<!-- Node1 -->
<g id="node1" class="node">
<title>Node1</title>
<g id="a_node1"><a xlink:title=" ">
<polygon fill="#bfbfbf" stroke="black" points="0,-303.36 0,-322.36 58,-322.36 58,-303.36 0,-303.36"/>
<text text-anchor="middle" x="29" y="-310.36" font-family="Helvetica,sans-Serif" font-size="10.00">ex_lineno</text>
</a>
</g>
</g>
<!-- Node2 -->
<g id="node2" class="node">
<title>Node2</title>
<g id="a_node2"><a xlink:href="ex_8c.html#af441de070082a23574854f6a2e5cd08a" target="_top" xlink:title=" ">
<polygon fill="white" stroke="black" points="94,-303.36 94,-322.36 156,-322.36 156,-303.36 94,-303.36"/>
<text text-anchor="middle" x="125" y="-310.36" font-family="Helvetica,sans-Serif" font-size="10.00">ex_search</text>
</a>
</g>
</g>
<!-- Node1&#45;&gt;Node2 -->
<g id="edge1" class="edge">
<title>Node1&#45;&gt;Node2</title>
<path fill="none" stroke="midnightblue" d="M58.2,-312.86C66.2,-312.86 75.07,-312.86 83.63,-312.86"/>
<polygon fill="midnightblue" stroke="midnightblue" points="83.85,-316.36 93.85,-312.86 83.85,-309.36 83.85,-316.36"/>
</g>
<!-- Node9 -->
<g id="node9" class="node">
<title>Node9</title>
<g id="a_node9"><a xlink:href="lbuf_8c.html#ae74f0372b69451ac877a76505b05874f" target="_top" xlink:title=" ">
<polygon fill="white" stroke="black" points="199,-512.36 199,-531.36 249,-531.36 249,-512.36 199,-512.36"/>
<text text-anchor="middle" x="224" y="-519.36" font-family="Helvetica,sans-Serif" font-size="10.00">lbuf_len</text>
</a>
</g>
</g>
<!-- Node1&#45;&gt;Node9 -->
<g id="edge69" class="edge">
<title>Node1&#45;&gt;Node9</title>
<path fill="none" stroke="midnightblue" d="M36.52,-322.47C56.89,-352.03 122.15,-443.14 192,-502.86 193.51,-504.15 195.12,-505.41 196.78,-506.63"/>
<polygon fill="midnightblue" stroke="midnightblue" points="195.02,-509.67 205.28,-512.32 198.92,-503.85 195.02,-509.67"/>
</g>
<!-- Node47 -->
<g id="node47" class="node">
<title>Node47</title>
<g id="a_node47"><a xlink:href="lbuf_8c.html#ac9a892e21c5462fdc7f48a7beee11618" target="_top" xlink:title=" ">
<polygon fill="white" stroke="black" points="95.5,-170.36 95.5,-189.36 154.5,-189.36 154.5,-170.36 95.5,-170.36"/>
<text text-anchor="middle" x="125" y="-177.36" font-family="Helvetica,sans-Serif" font-size="10.00">lbuf_jump</text>
</a>
</g>
</g>
<!-- Node1&#45;&gt;Node47 -->
<g id="edge67" class="edge">
<title>Node1&#45;&gt;Node47</title>
<path fill="none" stroke="midnightblue" d="M36.76,-303.29C52.33,-281.26 90.95,-226.62 111.18,-198"/>
<polygon fill="midnightblue" stroke="midnightblue" points="114.13,-199.88 117.05,-189.69 108.42,-195.84 114.13,-199.88"/>
</g>
<!-- Node3 -->
<g id="node3" class="node">
<title>Node3</title>
<g id="a_node3"><a xlink:href="ex_8c.html#a34fd1f4ef88c0e8d346dbcb9699e3762" target="_top" xlink:title=" ">
<polygon fill="white" stroke="black" points="199,-398.36 199,-417.36 249,-417.36 249,-398.36 199,-398.36"/>
<text text-anchor="middle" x="224" y="-405.36" font-family="Helvetica,sans-Serif" font-size="10.00">ex_kwd</text>
</a>
</g>
</g>
<!-- Node2&#45;&gt;Node3 -->
<g id="edge2" class="edge">
<title>Node2&#45;&gt;Node3</title>
<path fill="none" stroke="midnightblue" d="M134.08,-322.51C146.09,-336.62 169.64,-363.42 192,-383.86 195.02,-386.62 198.34,-389.41 201.64,-392.06"/>
<polygon fill="midnightblue" stroke="midnightblue" points="199.6,-394.91 209.65,-398.27 203.89,-389.38 199.6,-394.91"/>
</g>
<!-- Node4 -->
<g id="node4" class="node">
<title>Node4</title>
<g id="a_node4"><a xlink:href="ex_8c.html#aff6b33b5c383668577090507620d7b17" target="_top" xlink:title=" ">
<polygon fill="white" stroke="black" points="192,-436.36 192,-455.36 256,-455.36 256,-436.36 192,-436.36"/>
<text text-anchor="middle" x="224" y="-443.36" font-family="Helvetica,sans-Serif" font-size="10.00">ex_kwdset</text>
</a>
</g>
</g>
<!-- Node2&#45;&gt;Node4 -->
<g id="edge3" class="edge">
<title>Node2&#45;&gt;Node4</title>
<path fill="none" stroke="midnightblue" d="M129.63,-322.45C137.97,-343.46 160.23,-394.28 192,-426.86 193.07,-427.96 194.23,-429.02 195.43,-430.05"/>
<polygon fill="midnightblue" stroke="midnightblue" points="193.72,-433.13 203.87,-436.19 197.84,-427.47 193.72,-433.13"/>
</g>
<!-- Node8 -->
<g id="node8" class="node">
<title>Node8</title>
<g id="a_node8"><a xlink:href="lbuf_8c.html#ad0f45475ddc6eb82ecedf63ed1b914d4" target="_top" xlink:title=" ">
<polygon fill="white" stroke="black" points="198.5,-322.36 198.5,-341.36 249.5,-341.36 249.5,-322.36 198.5,-322.36"/>
<text text-anchor="middle" x="224" y="-329.36" font-family="Helvetica,sans-Serif" font-size="10.00">lbuf_get</text>
</a>
</g>
</g>
<!-- Node2&#45;&gt;Node8 -->
<g id="edge7" class="edge">
<title>Node2&#45;&gt;Node8</title>
<path fill="none" stroke="midnightblue" d="M156.16,-318.77C166.34,-320.76 177.78,-323 188.28,-325.06"/>
<polygon fill="midnightblue" stroke="midnightblue" points="187.9,-328.55 198.39,-327.04 189.24,-321.68 187.9,-328.55"/>
</g>
<!-- Node2&#45;&gt;Node9 -->
<g id="edge8" class="edge">
<title>Node2&#45;&gt;Node9</title>
<path fill="none" stroke="midnightblue" d="M128.47,-322.69C137.34,-357.35 168.25,-473.34 192,-502.86 192.82,-503.88 193.72,-504.86 194.67,-505.81"/>
<polygon fill="midnightblue" stroke="midnightblue" points="192.71,-508.72 202.71,-512.22 197.08,-503.25 192.71,-508.72"/>
</g>
<!-- Node10 -->
<g id="node10" class="node">
<title>Node10</title>
<g id="a_node10"><a xlink:href="rset_8c.html#a389ec5abca88adc048a058744f2373eb" target="_top" xlink:title=" ">
<polygon fill="white" stroke="black" points="197,-284.36 197,-303.36 251,-303.36 251,-284.36 197,-284.36"/>
<text text-anchor="middle" x="224" y="-291.36" font-family="Helvetica,sans-Serif" font-size="10.00">rset_find</text>
</a>
</g>
</g>
<!-- Node2&#45;&gt;Node10 -->
<g id="edge9" class="edge">
<title>Node2&#45;&gt;Node10</title>
<path fill="none" stroke="midnightblue" d="M156.16,-306.95C165.82,-305.06 176.62,-302.94 186.67,-300.97"/>
<polygon fill="midnightblue" stroke="midnightblue" points="187.65,-304.35 196.79,-298.99 186.31,-297.48 187.65,-304.35"/>
</g>
<!-- Node21 -->
<g id="node21" class="node">
<title>Node21</title>
<g id="a_node21"><a xlink:href="rset_8c.html#aa904e3bea523f18e4940e3a848abaaa1" target="_top" xlink:title=" ">
<polygon fill="white" stroke="black" points="196.5,-474.36 196.5,-493.36 251.5,-493.36 251.5,-474.36 196.5,-474.36"/>
<text text-anchor="middle" x="224" y="-481.36" font-family="Helvetica,sans-Serif" font-size="10.00">rset_free</text>
</a>
</g>
</g>
<!-- Node2&#45;&gt;Node21 -->
<g id="edge23" class="edge">
<title>Node2&#45;&gt;Node21</title>
<path fill="none" stroke="midnightblue" d="M128.04,-322.49C133.9,-348.27 152.94,-419.9 192,-464.86 192.98,-465.99 194.05,-467.07 195.18,-468.11"/>
<polygon fill="midnightblue" stroke="midnightblue" points="193.17,-470.98 203.24,-474.26 197.41,-465.41 193.17,-470.98"/>
</g>
<!-- Node23 -->
<g id="node23" class="node">
<title>Node23</title>
<g id="a_node23"><a xlink:href="rset_8c.html#a01a879f1a8002d2fb591b604b2ca3704" target="_top" xlink:title=" ">
<polygon fill="white" stroke="black" points="193,-170.36 193,-189.36 255,-189.36 255,-170.36 193,-170.36"/>
<text text-anchor="middle" x="224" y="-177.36" font-family="Helvetica,sans-Serif" font-size="10.00">rset_make</text>
</a>
</g>
</g>
<!-- Node2&#45;&gt;Node23 -->
<g id="edge25" class="edge">
<title>Node2&#45;&gt;Node23</title>
<path fill="none" stroke="midnightblue" d="M130.28,-303.34C139.55,-283.4 162.99,-236.38 192,-203.86 194.55,-201 197.48,-198.23 200.5,-195.66"/>
<polygon fill="midnightblue" stroke="midnightblue" points="202.79,-198.31 208.49,-189.37 198.47,-192.81 202.79,-198.31"/>
</g>
<!-- Node39 -->
<g id="node39" class="node">
<title>Node39</title>
<g id="a_node39"><a xlink:href="sbuf_8c.html#a4e56760893d5a6797626743840c9adf2" target="_top" xlink:title=" ">
<polygon fill="white" stroke="black" points="304,-263.36 304,-282.36 358,-282.36 358,-263.36 304,-263.36"/>
<text text-anchor="middle" x="331" y="-270.36" font-family="Helvetica,sans-Serif" font-size="10.00">sbuf_buf</text>
</a>
</g>
</g>
<!-- Node2&#45;&gt;Node39 -->
<g id="edge62" class="edge">
<title>Node2&#45;&gt;Node39</title>
<path fill="none" stroke="midnightblue" d="M138.28,-303.2C150.92,-293.91 171.6,-280.47 192,-274.86 225.49,-265.64 265.31,-266.22 293.55,-268.46"/>
<polygon fill="midnightblue" stroke="midnightblue" points="293.49,-271.97 303.76,-269.38 294.12,-265 293.49,-271.97"/>
</g>
<!-- Node41 -->
<g id="node41" class="node">
<title>Node41</title>
<g id="a_node41"><a xlink:href="sbuf_8c.html#a3f9aa15ca1d73f585d7a4a9d023e58ce" target="_top" xlink:title=" ">
<polygon fill="white" stroke="black" points="304,-225.36 304,-244.36 358,-244.36 358,-225.36 304,-225.36"/>
<text text-anchor="middle" x="331" y="-232.36" font-family="Helvetica,sans-Serif" font-size="10.00">sbuf_chr</text>
</a>
</g>
</g>
<!-- Node2&#45;&gt;Node41 -->
<g id="edge63" class="edge">
<title>Node2&#45;&gt;Node41</title>
<path fill="none" stroke="midnightblue" d="M135.8,-303.13C147.93,-291.67 169.73,-272.92 192,-262.86 224.64,-248.11 265.12,-241.08 293.77,-237.75"/>
<polygon fill="midnightblue" stroke="midnightblue" points="294.19,-241.23 303.76,-236.69 293.45,-234.27 294.19,-241.23"/>
</g>
<!-- Node42 -->
<g id="node42" class="node">
<title>Node42</title>
<g id="a_node42"><a xlink:href="sbuf_8c.html#a8c1a89868b1999663effb78b4f3fab32" target="_top" xlink:title=" ">
<polygon fill="white" stroke="black" points="302.5,-73.36 302.5,-92.36 359.5,-92.36 359.5,-73.36 302.5,-73.36"/>
<text text-anchor="middle" x="331" y="-80.36" font-family="Helvetica,sans-Serif" font-size="10.00">sbuf_free</text>
</a>
</g>
</g>
<!-- Node2&#45;&gt;Node42 -->
<g id="edge64" class="edge">
<title>Node2&#45;&gt;Node42</title>
<path fill="none" stroke="midnightblue" d="M127.99,-303.19C133.75,-277.32 152.57,-205.48 192,-160.86 207.62,-143.19 264.17,-114.22 299.86,-97"/>
<polygon fill="midnightblue" stroke="midnightblue" points="301.81,-99.94 309.32,-92.47 298.78,-93.63 301.81,-99.94"/>
</g>
<!-- Node43 -->
<g id="node43" class="node">
<title>Node43</title>
<g id="a_node43"><a xlink:href="sbuf_8c.html#af4ad9608dfc956bbedc19df5c8256fc4" target="_top" xlink:title=" ">
<polygon fill="white" stroke="black" points="304.5,-35.36 304.5,-54.36 357.5,-54.36 357.5,-35.36 304.5,-35.36"/>
<text text-anchor="middle" x="331" y="-42.36" font-family="Helvetica,sans-Serif" font-size="10.00">sbuf_len</text>
</a>
</g>
</g>
<!-- Node2&#45;&gt;Node43 -->
<g id="edge65" class="edge">
<title>Node2&#45;&gt;Node43</title>
<path fill="none" stroke="midnightblue" d="M128.25,-303.2C136.6,-268.03 166.59,-147.39 192,-117.86 212.87,-93.6 227.95,-100.26 256,-84.86 272.24,-75.94 275.71,-72.67 292,-63.86 294.92,-62.28 297.99,-60.67 301.06,-59.08"/>
<polygon fill="midnightblue" stroke="midnightblue" points="302.81,-62.12 310.15,-54.48 299.65,-55.87 302.81,-62.12"/>
</g>
<!-- Node44 -->
<g id="node44" class="node">
<title>Node44</title>
<g id="a_node44"><a xlink:href="sbuf_8c.html#a57748585d6786a2c1aadc2cbe6f2135b" target="_top" xlink:title=" ">
<polygon fill="white" stroke="black" points="298.5,-353.36 298.5,-372.36 363.5,-372.36 363.5,-353.36 298.5,-353.36"/>
<text text-anchor="middle" x="331" y="-360.36" font-family="Helvetica,sans-Serif" font-size="10.00">sbuf_make</text>
</a>
</g>
</g>
<!-- Node2&#45;&gt;Node44 -->
<g id="edge66" class="edge">
<title>Node2&#45;&gt;Node44</title>
<path fill="none" stroke="midnightblue" d="M138.85,-322.55C151.6,-331.59 172.07,-344.59 192,-350.86 223.23,-360.67 260.26,-363.44 288.1,-363.89"/>
<polygon fill="midnightblue" stroke="midnightblue" points="288.26,-367.39 298.28,-363.95 288.31,-360.39 288.26,-367.39"/>
</g>
<!-- Node5 -->
<g id="node5" class="node">
<title>Node5</title>
<g id="a_node5"><a xlink:href="reg_8c.html#a4a1ad2201f6bc8ca5faf958f146883d5" target="_top" xlink:title=" ">
<polygon fill="white" stroke="black" points="306.5,-436.36 306.5,-455.36 355.5,-455.36 355.5,-436.36 306.5,-436.36"/>
<text text-anchor="middle" x="331" y="-443.36" font-family="Helvetica,sans-Serif" font-size="10.00">reg_put</text>
</a>
</g>
</g>
<!-- Node4&#45;&gt;Node5 -->
<g id="edge4" class="edge">
<title>Node4&#45;&gt;Node5</title>
<path fill="none" stroke="midnightblue" d="M256.22,-445.86C268.78,-445.86 283.3,-445.86 296.12,-445.86"/>
<polygon fill="midnightblue" stroke="midnightblue" points="296.41,-449.36 306.41,-445.86 296.41,-442.36 296.41,-449.36"/>
</g>
<!-- Node6 -->
<g id="node6" class="node">
<title>Node6</title>
<g id="a_node6"><a xlink:href="reg_8c.html#a6eaa41c69e0e22bcbb189eaf4ff0feae" target="_top" xlink:title=" ">
<polygon fill="white" stroke="black" points="417,-443.36 417,-462.36 466,-462.36 466,-443.36 417,-443.36"/>
<text text-anchor="middle" x="441.5" y="-450.36" font-family="Helvetica,sans-Serif" font-size="10.00">reg_get</text>
</a>
</g>
</g>
<!-- Node5&#45;&gt;Node6 -->
<g id="edge5" class="edge">
<title>Node5&#45;&gt;Node6</title>
<path fill="none" stroke="midnightblue" d="M355.54,-447.38C370.37,-448.33 389.76,-449.58 406.27,-450.65"/>
<polygon fill="midnightblue" stroke="midnightblue" points="406.42,-454.17 416.63,-451.32 406.87,-447.18 406.42,-454.17"/>
</g>
<!-- Node7 -->
<g id="node7" class="node">
<title>Node7</title>
<g id="a_node7"><a xlink:href="reg_8c.html#a7d863266d9fa9455f0ffa968f51d0ce3" target="_top" xlink:title=" ">
<polygon fill="white" stroke="black" points="409,-405.36 409,-424.36 474,-424.36 474,-405.36 409,-405.36"/>
<text text-anchor="middle" x="441.5" y="-412.36" font-family="Helvetica,sans-Serif" font-size="10.00">reg_putraw</text>
</a>
</g>
</g>
<!-- Node5&#45;&gt;Node7 -->
<g id="edge6" class="edge">
<title>Node5&#45;&gt;Node7</title>
<path fill="none" stroke="midnightblue" d="M355.54,-439.13C368.2,-435.51 384.19,-430.95 398.87,-426.75"/>
<polygon fill="midnightblue" stroke="midnightblue" points="400.11,-430.04 408.77,-423.92 398.19,-423.31 400.11,-430.04"/>
</g>
<!-- Node11 -->
<g id="node11" class="node">
<title>Node11</title>
<g id="a_node11"><a xlink:href="regex_8c.html#aa085ccd05ec25e3f8053850aebc50fe3" target="_top" xlink:title=" ">
<polygon fill="white" stroke="black" points="305.5,-301.36 305.5,-320.36 356.5,-320.36 356.5,-301.36 305.5,-301.36"/>
<text text-anchor="middle" x="331" y="-308.36" font-family="Helvetica,sans-Serif" font-size="10.00">regexec</text>
</a>
</g>
</g>
<!-- Node10&#45;&gt;Node11 -->
<g id="edge10" class="edge">
<title>Node10&#45;&gt;Node11</title>
<path fill="none" stroke="midnightblue" d="M251.23,-298.1C264.52,-300.26 280.84,-302.9 295.18,-305.22"/>
<polygon fill="midnightblue" stroke="midnightblue" points="294.76,-308.7 305.19,-306.84 295.88,-301.79 294.76,-308.7"/>
</g>
<!-- Node12 -->
<g id="node12" class="node">
<title>Node12</title>
<g id="a_node12"><a xlink:href="regex_8c.html#aa5925e49bd18112bb37421dbde29162a" target="_top" xlink:title=" ">
<polygon fill="white" stroke="black" points="406,-358.36 406,-377.36 477,-377.36 477,-358.36 406,-358.36"/>
<text text-anchor="middle" x="441.5" y="-365.36" font-family="Helvetica,sans-Serif" font-size="10.00">re_recmatch</text>
</a>
</g>
</g>
<!-- Node11&#45;&gt;Node12 -->
<g id="edge11" class="edge">
<title>Node11&#45;&gt;Node12</title>
<path fill="none" stroke="midnightblue" d="M350.41,-320.53C367.66,-329.59 393.66,-343.25 413.3,-353.57"/>
<polygon fill="midnightblue" stroke="midnightblue" points="411.89,-356.78 422.37,-358.33 415.14,-350.58 411.89,-356.78"/>
</g>
<!-- Node18 -->
<g id="node18" class="node">
<title>Node18</title>
<g id="a_node18"><a xlink:href="regex_8c.html#a9a0d6d5f93f1eaba8b63b16903c0952d" target="_top" xlink:title=" ">
<polygon fill="white" stroke="black" points="866,-320.36 866,-339.36 911,-339.36 911,-320.36 866,-320.36"/>
<text text-anchor="middle" x="888.5" y="-327.36" font-family="Helvetica,sans-Serif" font-size="10.00">uc_len</text>
</a>
</g>
</g>
<!-- Node11&#45;&gt;Node18 -->
<g id="edge22" class="edge">
<title>Node11&#45;&gt;Node18</title>
<path fill="none" stroke="midnightblue" d="M356.58,-310.86C397.88,-310.86 483.81,-310.86 556.5,-310.86 556.5,-310.86 556.5,-310.86 676,-310.86 740.1,-310.86 814.69,-319.62 855.95,-325.25"/>
<polygon fill="midnightblue" stroke="midnightblue" points="855.55,-328.72 865.94,-326.63 856.52,-321.79 855.55,-328.72"/>
</g>
<!-- Node13 -->
<g id="node13" class="node">
<title>Node13</title>
<g id="a_node13"><a xlink:href="regex_8c.html#a8e35614ddf21d405773327a52a95a73d" target="_top" xlink:title=" ">
<polygon fill="white" stroke="black" points="535.5,-387.36 535.5,-406.36 579.5,-406.36 579.5,-387.36 535.5,-387.36"/>
<text text-anchor="middle" x="557.5" y="-394.36" font-family="Helvetica,sans-Serif" font-size="10.00">re_rec</text>
</a>
</g>
</g>
<!-- Node12&#45;&gt;Node13 -->
<g id="edge12" class="edge">
<title>Node12&#45;&gt;Node13</title>
<path fill="none" stroke="midnightblue" d="M477.01,-376.64C492.45,-380.57 510.52,-385.16 525.52,-388.98"/>
<polygon fill="midnightblue" stroke="midnightblue" points="524.79,-392.4 535.35,-391.48 526.52,-385.62 524.79,-392.4"/>
</g>
<!-- Node14 -->
<g id="node14" class="node">
<title>Node14</title>
<g id="a_node14"><a xlink:href="regex_8c.html#a24fd1fc7457ff4f03fb384f7170ac395" target="_top" xlink:title=" ">
<polygon fill="white" stroke="black" points="638,-396.36 638,-415.36 712,-415.36 712,-396.36 638,-396.36"/>
<text text-anchor="middle" x="675" y="-403.36" font-family="Helvetica,sans-Serif" font-size="10.00">ratom_match</text>
</a>
</g>
</g>
<!-- Node13&#45;&gt;Node14 -->
<g id="edge13" class="edge">
<title>Node13&#45;&gt;Node14</title>
<path fill="none" stroke="midnightblue" d="M579.68,-398.51C593.17,-399.56 611.17,-400.96 627.83,-402.26"/>
<polygon fill="midnightblue" stroke="midnightblue" points="627.73,-405.76 637.97,-403.05 628.28,-398.78 627.73,-405.76"/>
</g>
<!-- Node15 -->
<g id="node15" class="node">
<title>Node15</title>
<g id="a_node15"><a xlink:href="regex_8c.html#aae17ed73e84075718fb04d131d6ca779" target="_top" xlink:title=" ">
<polygon fill="white" stroke="black" points="749.5,-377.36 749.5,-396.36 811.5,-396.36 811.5,-377.36 749.5,-377.36"/>
<text text-anchor="middle" x="780.5" y="-384.36" font-family="Helvetica,sans-Serif" font-size="10.00">brk_match</text>
</a>
</g>
</g>
<!-- Node14&#45;&gt;Node15 -->
<g id="edge14" class="edge">
<title>Node14&#45;&gt;Node15</title>
<path fill="none" stroke="midnightblue" d="M712.2,-399.21C721.01,-397.59 730.48,-395.86 739.46,-394.21"/>
<polygon fill="midnightblue" stroke="midnightblue" points="740.12,-397.65 749.32,-392.4 738.85,-390.76 740.12,-397.65"/>
</g>
<!-- Node17 -->
<g id="node17" class="node">
<title>Node17</title>
<g id="a_node17"><a xlink:href="regex_8c.html#aaf73cdb88048e7f9fd588eb8d5aeb5a3" target="_top" xlink:title=" ">
<polygon fill="white" stroke="black" points="864.5,-448.36 864.5,-467.36 912.5,-467.36 912.5,-448.36 864.5,-448.36"/>
<text text-anchor="middle" x="888.5" y="-455.36" font-family="Helvetica,sans-Serif" font-size="10.00">uc_dec</text>
</a>
</g>
</g>
<!-- Node14&#45;&gt;Node17 -->
<g id="edge20" class="edge">
<title>Node14&#45;&gt;Node17</title>
<path fill="none" stroke="midnightblue" d="M681.4,-415.42C691.73,-432.59 716.11,-468.14 748,-481.86 784.35,-497.49 830.16,-483.97 859.15,-471.77"/>
<polygon fill="midnightblue" stroke="midnightblue" points="860.93,-474.81 868.66,-467.57 858.1,-468.41 860.93,-474.81"/>
</g>
<!-- Node14&#45;&gt;Node18 -->
<g id="edge21" class="edge">
<title>Node14&#45;&gt;Node18</title>
<path fill="none" stroke="midnightblue" d="M691.82,-396.21C706.09,-387.82 727.88,-375.79 748,-367.86 783.98,-353.66 827.18,-342.79 855.88,-336.38"/>
<polygon fill="midnightblue" stroke="midnightblue" points="856.73,-339.78 865.76,-334.22 855.24,-332.94 856.73,-339.78"/>
</g>
<!-- Node19 -->
<g id="node19" class="node">
<title>Node19</title>
<g id="a_node19"><a xlink:href="regex_8c.html#a35ad3fd0dbb795e6f30404ce86a7be5b" target="_top" xlink:title=" ">
<polygon fill="white" stroke="black" points="758,-453.36 758,-472.36 803,-472.36 803,-453.36 758,-453.36"/>
<text text-anchor="middle" x="780.5" y="-460.36" font-family="Helvetica,sans-Serif" font-size="10.00">isword</text>
</a>
</g>
</g>
<!-- Node14&#45;&gt;Node19 -->
<g id="edge18" class="edge">
<title>Node14&#45;&gt;Node19</title>
<path fill="none" stroke="midnightblue" d="M693.56,-415.53C709.94,-424.55 734.59,-438.12 753.3,-448.43"/>
<polygon fill="midnightblue" stroke="midnightblue" points="751.75,-451.57 762.2,-453.33 755.13,-445.44 751.75,-451.57"/>
</g>
<!-- Node20 -->
<g id="node20" class="node">
<title>Node20</title>
<g id="a_node20"><a xlink:href="regex_8c.html#ade3e10606e6e8866e6151fe8440d6101" target="_top" xlink:title=" ">
<polygon fill="white" stroke="black" points="756.5,-415.36 756.5,-434.36 804.5,-434.36 804.5,-415.36 756.5,-415.36"/>
<text text-anchor="middle" x="780.5" y="-422.36" font-family="Helvetica,sans-Serif" font-size="10.00">uc_beg</text>
</a>
</g>
</g>
<!-- Node14&#45;&gt;Node20 -->
<g id="edge19" class="edge">
<title>Node14&#45;&gt;Node20</title>
<path fill="none" stroke="midnightblue" d="M712.2,-412.5C723.33,-414.55 735.52,-416.78 746.43,-418.79"/>
<polygon fill="midnightblue" stroke="midnightblue" points="745.96,-422.26 756.43,-420.62 747.22,-415.37 745.96,-422.26"/>
</g>
<!-- Node16 -->
<g id="node16" class="node">
<title>Node16</title>
<g id="a_node16"><a xlink:href="regex_8c.html#acc18ff8d2687611a9e221b3329b02413" target="_top" xlink:title=" ">
<polygon fill="white" stroke="black" points="964,-324.36 964,-343.36 1012,-343.36 1012,-324.36 964,-324.36"/>
<text text-anchor="middle" x="988" y="-331.36" font-family="Helvetica,sans-Serif" font-size="10.00">brk_len</text>
</a>
</g>
</g>
<!-- Node15&#45;&gt;Node16 -->
<g id="edge15" class="edge">
<title>Node15&#45;&gt;Node16</title>
<path fill="none" stroke="midnightblue" d="M811.82,-379.04C849.85,-369.23 914.79,-352.48 954.02,-342.36"/>
<polygon fill="midnightblue" stroke="midnightblue" points="955.08,-345.71 963.89,-339.82 953.33,-338.93 955.08,-345.71"/>
</g>
<!-- Node15&#45;&gt;Node17 -->
<g id="edge16" class="edge">
<title>Node15&#45;&gt;Node17</title>
<path fill="none" stroke="midnightblue" d="M797.98,-396.51C802.86,-399.45 808.18,-402.73 813,-405.86 831.07,-417.6 851.08,-431.62 865.8,-442.14"/>
<polygon fill="midnightblue" stroke="midnightblue" points="864.06,-445.2 874.22,-448.19 868.14,-439.51 864.06,-445.2"/>
</g>
<!-- Node15&#45;&gt;Node18 -->
<g id="edge17" class="edge">
<title>Node15&#45;&gt;Node18</title>
<path fill="none" stroke="midnightblue" d="M799.48,-377.19C816.33,-368.13 841.74,-354.47 860.93,-344.15"/>
<polygon fill="midnightblue" stroke="midnightblue" points="862.63,-347.2 869.78,-339.38 859.32,-341.04 862.63,-347.2"/>
</g>
<!-- Node22 -->
<g id="node22" class="node">
<title>Node22</title>
<g id="a_node22"><a xlink:href="regex_8c.html#ad94d0de532eaa4fd959b8adde4d64898" target="_top" xlink:title=" ">
<polygon fill="white" stroke="black" points="307.5,-474.36 307.5,-493.36 354.5,-493.36 354.5,-474.36 307.5,-474.36"/>
<text text-anchor="middle" x="331" y="-481.36" font-family="Helvetica,sans-Serif" font-size="10.00">regfree</text>
</a>
</g>
</g>
<!-- Node21&#45;&gt;Node22 -->
<g id="edge24" class="edge">
<title>Node21&#45;&gt;Node22</title>
<path fill="none" stroke="midnightblue" d="M251.77,-483.86C265.56,-483.86 282.49,-483.86 297.07,-483.86"/>
<polygon fill="midnightblue" stroke="midnightblue" points="297.2,-487.36 307.2,-483.86 297.2,-480.36 297.2,-487.36"/>
</g>
<!-- Node24 -->
<g id="node24" class="node">
<title>Node24</title>
<g id="a_node24"><a xlink:href="rset_8c.html#a8a35950ab3896c3d568af835385cc12f" target="_top" xlink:title=" ">
<polygon fill="white" stroke="black" points="292,-111.36 292,-130.36 370,-130.36 370,-111.36 292,-111.36"/>
<text text-anchor="middle" x="331" y="-118.36" font-family="Helvetica,sans-Serif" font-size="10.00">re_groupcount</text>
</a>
</g>
</g>
<!-- Node23&#45;&gt;Node24 -->
<g id="edge26" class="edge">
<title>Node23&#45;&gt;Node24</title>
<path fill="none" stroke="midnightblue" d="M240.25,-170.31C253.7,-161.99 273.94,-149.75 292,-139.86 294.91,-138.26 297.97,-136.64 301.04,-135.05"/>
<polygon fill="midnightblue" stroke="midnightblue" points="302.8,-138.09 310.13,-130.44 299.63,-131.85 302.8,-138.09"/>
</g>
<!-- Node25 -->
<g id="node25" class="node">
<title>Node25</title>
<g id="a_node25"><a xlink:href="regex_8c.html#a5b590271eb220f4e019e76cfb950eb69" target="_top" xlink:title=" ">
<polygon fill="white" stroke="black" points="304,-149.36 304,-168.36 358,-168.36 358,-149.36 304,-149.36"/>
<text text-anchor="middle" x="331" y="-156.36" font-family="Helvetica,sans-Serif" font-size="10.00">regcomp</text>
</a>
</g>
</g>
<!-- Node23&#45;&gt;Node25 -->
<g id="edge27" class="edge">
<title>Node23&#45;&gt;Node25</title>
<path fill="none" stroke="midnightblue" d="M255.09,-173.84C267.11,-171.43 281.07,-168.64 293.66,-166.13"/>
<polygon fill="midnightblue" stroke="midnightblue" points="294.71,-169.48 303.83,-164.09 293.34,-162.62 294.71,-169.48"/>
</g>
<!-- Node23&#45;&gt;Node39 -->
<g id="edge52" class="edge">
<title>Node23&#45;&gt;Node39</title>
<path fill="none" stroke="midnightblue" d="M231.89,-189.55C243.1,-204.78 266.6,-234.58 292,-253.86 294.06,-255.42 296.26,-256.91 298.53,-258.32"/>
<polygon fill="midnightblue" stroke="midnightblue" points="297.04,-261.49 307.48,-263.32 300.46,-255.38 297.04,-261.49"/>
</g>
<!-- Node23&#45;&gt;Node41 -->
<g id="edge54" class="edge">
<title>Node23&#45;&gt;Node41</title>
<path fill="none" stroke="midnightblue" d="M242.56,-189.47C256.03,-196.81 275.12,-207.1 292,-215.86 295.11,-217.47 298.37,-219.13 301.62,-220.78"/>
<polygon fill="midnightblue" stroke="midnightblue" points="300.11,-223.94 310.61,-225.3 303.25,-217.68 300.11,-223.94"/>
</g>
<!-- Node23&#45;&gt;Node42 -->
<g id="edge56" class="edge">
<title>Node23&#45;&gt;Node42</title>
<path fill="none" stroke="midnightblue" d="M239.39,-170.23C244.92,-166.16 251.08,-161.14 256,-155.86 275.66,-134.75 270.38,-120.95 292,-101.86 293.66,-100.39 295.46,-99.01 297.33,-97.7"/>
<polygon fill="midnightblue" stroke="midnightblue" points="299.14,-100.7 305.89,-92.54 295.52,-94.71 299.14,-100.7"/>
</g>
<!-- Node23&#45;&gt;Node43 -->
<g id="edge57" class="edge">
<title>Node23&#45;&gt;Node43</title>
<path fill="none" stroke="midnightblue" d="M229.67,-170.19C241.8,-145.38 274.56,-80.28 292,-63.86 293.45,-62.49 295.02,-61.2 296.66,-59.99"/>
<polygon fill="midnightblue" stroke="midnightblue" points="298.71,-62.83 305.32,-54.55 294.99,-56.91 298.71,-62.83"/>
</g>
<!-- Node23&#45;&gt;Node44 -->
<g id="edge58" class="edge">
<title>Node23&#45;&gt;Node44</title>
<path fill="none" stroke="midnightblue" d="M227.67,-189.39C234.95,-214.29 257.01,-282.66 292,-329.86 296.47,-335.89 302.23,-341.6 307.9,-346.51"/>
<polygon fill="midnightblue" stroke="midnightblue" points="306.03,-349.5 316,-353.1 310.45,-344.07 306.03,-349.5"/>
</g>
<!-- Node45 -->
<g id="node45" class="node">
<title>Node45</title>
<g id="a_node45"><a xlink:href="sbuf_8c.html#a603d1d6ab090025f5850f10bfa2dec7a" target="_top" xlink:title=" ">
<polygon fill="white" stroke="black" points="305,-187.36 305,-206.36 357,-206.36 357,-187.36 305,-187.36"/>
<text text-anchor="middle" x="331" y="-194.36" font-family="Helvetica,sans-Serif" font-size="10.00">sbuf_str</text>
</a>
</g>
</g>
<!-- Node23&#45;&gt;Node45 -->
<g id="edge59" class="edge">
<title>Node23&#45;&gt;Node45</title>
<path fill="none" stroke="midnightblue" d="M255.09,-184.73C267.52,-186.74 282.02,-189.09 294.93,-191.18"/>
<polygon fill="midnightblue" stroke="midnightblue" points="294.44,-194.65 304.87,-192.79 295.56,-187.74 294.44,-194.65"/>
</g>
<!-- Node26 -->
<g id="node26" class="node">
<title>Node26</title>
<g id="a_node26"><a xlink:href="regex_8c.html#ad3bbf549eef0fe517e9f213c5eadbb0c" target="_top" xlink:title=" ">
<polygon fill="white" stroke="black" points="648,-73.36 648,-92.36 702,-92.36 702,-73.36 648,-73.36"/>
<text text-anchor="middle" x="675" y="-80.36" font-family="Helvetica,sans-Serif" font-size="10.00">re_insert</text>
</a>
</g>
</g>
<!-- Node25&#45;&gt;Node26 -->
<g id="edge28" class="edge">
<title>Node25&#45;&gt;Node26</title>
<path fill="none" stroke="midnightblue" d="M358.31,-151.82C372.41,-148.12 390.12,-143.58 406,-139.86 488.54,-120.49 586.04,-100.47 637.67,-90.08"/>
<polygon fill="midnightblue" stroke="midnightblue" points="638.55,-93.48 647.67,-88.08 637.18,-86.61 638.55,-93.48"/>
</g>
<!-- Node27 -->
<g id="node27" class="node">
<title>Node27</title>
<g id="a_node27"><a xlink:href="regex_8c.html#ac00e60e2e4bce1edcd55ffa8b9086ac5" target="_top" xlink:title=" ">
<polygon fill="white" stroke="black" points="406.5,-35.36 406.5,-54.36 476.5,-54.36 476.5,-35.36 406.5,-35.36"/>
<text text-anchor="middle" x="441.5" y="-42.36" font-family="Helvetica,sans-Serif" font-size="10.00">rnode_count</text>
</a>
</g>
</g>
<!-- Node25&#45;&gt;Node27 -->
<g id="edge29" class="edge">
<title>Node25&#45;&gt;Node27</title>
<path fill="none" stroke="midnightblue" d="M357.31,-149.19C361.91,-146.64 366.39,-143.55 370,-139.86 396.15,-113.15 380.39,-91.08 406,-63.86 407.19,-62.59 408.49,-61.39 409.85,-60.25"/>
<polygon fill="midnightblue" stroke="midnightblue" points="412.02,-63 418.24,-54.42 408.03,-57.26 412.02,-63"/>
</g>
<!-- Node28 -->
<g id="node28" class="node">
<title>Node28</title>
<g id="a_node28"><a xlink:href="regex_8c.html#a7be1fd2247ffed1699d3be12c04fe9c6" target="_top" xlink:title=" ">
<polygon fill="white" stroke="black" points="409,-73.36 409,-92.36 474,-92.36 474,-73.36 409,-73.36"/>
<text text-anchor="middle" x="441.5" y="-80.36" font-family="Helvetica,sans-Serif" font-size="10.00">rnode_emit</text>
</a>
</g>
</g>
<!-- Node25&#45;&gt;Node28 -->
<g id="edge30" class="edge">
<title>Node25&#45;&gt;Node28</title>
<path fill="none" stroke="midnightblue" d="M353.9,-149.21C359.33,-146.47 365.02,-143.29 370,-139.86 387.88,-127.55 389.05,-120.42 406,-106.86 409.62,-103.96 413.57,-101.02 417.47,-98.24"/>
<polygon fill="midnightblue" stroke="midnightblue" points="419.54,-101.06 425.75,-92.48 415.54,-95.31 419.54,-101.06"/>
</g>
<!-- Node31 -->
<g id="node31" class="node">
<title>Node31</title>
<g id="a_node31"><a xlink:href="regex_8c.html#aabe89a3a22bc0fdc0329cf29ec80ad76" target="_top" xlink:title=" ">
<polygon fill="white" stroke="black" points="857.5,-73.36 857.5,-92.36 919.5,-92.36 919.5,-73.36 857.5,-73.36"/>
<text text-anchor="middle" x="888.5" y="-80.36" font-family="Helvetica,sans-Serif" font-size="10.00">rnode_free</text>
</a>
</g>
</g>
<!-- Node25&#45;&gt;Node31 -->
<g id="edge36" class="edge">
<title>Node25&#45;&gt;Node31</title>
<path fill="none" stroke="midnightblue" d="M358.11,-149.34C362.54,-146.8 366.74,-143.67 370,-139.86 404.49,-99.44 365.2,-59.89 406,-25.86 457.77,17.33 489.08,-6.86 556.5,-6.86 556.5,-6.86 556.5,-6.86 676,-6.86 747.58,-6.86 825.18,-45.89 863.42,-68.01"/>
<polygon fill="midnightblue" stroke="midnightblue" points="861.87,-71.16 872.26,-73.23 865.43,-65.13 861.87,-71.16"/>
</g>
<!-- Node32 -->
<g id="node32" class="node">
<title>Node32</title>
<g id="a_node32"><a xlink:href="regex_8c.html#ac19329676c1426f2b24af24e33e3a845" target="_top" xlink:title=" ">
<polygon fill="white" stroke="black" points="406.5,-149.36 406.5,-168.36 476.5,-168.36 476.5,-149.36 406.5,-149.36"/>
<text text-anchor="middle" x="441.5" y="-156.36" font-family="Helvetica,sans-Serif" font-size="10.00">rnode_parse</text>
</a>
</g>
</g>
<!-- Node25&#45;&gt;Node32 -->
<g id="edge37" class="edge">
<title>Node25&#45;&gt;Node32</title>
<path fill="none" stroke="midnightblue" d="M358.26,-158.86C369.65,-158.86 383.29,-158.86 396.17,-158.86"/>
<polygon fill="midnightblue" stroke="midnightblue" points="396.27,-162.36 406.27,-158.86 396.27,-155.36 396.27,-162.36"/>
</g>
<!-- Node28&#45;&gt;Node26 -->
<g id="edge31" class="edge">
<title>Node28&#45;&gt;Node26</title>
<path fill="none" stroke="midnightblue" d="M474.2,-82.86C516.85,-82.86 592.52,-82.86 637.5,-82.86"/>
<polygon fill="midnightblue" stroke="midnightblue" points="637.69,-86.36 647.69,-82.86 637.69,-79.36 637.69,-86.36"/>
</g>
<!-- Node29 -->
<g id="node29" class="node">
<title>Node29</title>
<g id="a_node29"><a xlink:href="regex_8c.html#afdf3c7adbb2060b793cf83c5312321c8" target="_top" xlink:title=" ">
<polygon fill="white" stroke="black" points="513,-35.36 513,-54.36 602,-54.36 602,-35.36 513,-35.36"/>
<text text-anchor="middle" x="557.5" y="-42.36" font-family="Helvetica,sans-Serif" font-size="10.00">rnode_emitnorep</text>
</a>
</g>
</g>
<!-- Node28&#45;&gt;Node29 -->
<g id="edge32" class="edge">
<title>Node28&#45;&gt;Node29</title>
<path fill="none" stroke="midnightblue" d="M457.4,-73.16C469.16,-67.79 486.31,-61.41 503.05,-55.93"/>
<polygon fill="midnightblue" stroke="midnightblue" points="504.35,-59.2 512.82,-52.83 502.23,-52.52 504.35,-59.2"/>
</g>
<!-- Node29&#45;&gt;Node26 -->
<g id="edge34" class="edge">
<title>Node29&#45;&gt;Node26</title>
<path fill="none" stroke="midnightblue" d="M587.65,-54.45C602.92,-59.47 621.77,-65.67 637.95,-71"/>
<polygon fill="midnightblue" stroke="midnightblue" points="637.04,-74.38 647.63,-74.18 639.22,-67.73 637.04,-74.38"/>
</g>
<!-- Node29&#45;&gt;Node28 -->
<g id="edge35" class="edge">
<title>Node29&#45;&gt;Node28</title>
<path fill="none" stroke="midnightblue" d="M541.87,-54.43C527.28,-61.12 504.18,-69.43 483.92,-75.57"/>
<polygon fill="midnightblue" stroke="midnightblue" points="482.87,-72.23 474.26,-78.4 484.84,-78.95 482.87,-72.23"/>
</g>
<!-- Node30 -->
<g id="node30" class="node">
<title>Node30</title>
<g id="a_node30"><a xlink:href="regex_8c.html#a71b5a38b3a51e761aaa959a89e7cae55" target="_top" xlink:title=" ">
<polygon fill="white" stroke="black" points="641,-35.36 641,-54.36 709,-54.36 709,-35.36 641,-35.36"/>
<text text-anchor="middle" x="675" y="-42.36" font-family="Helvetica,sans-Serif" font-size="10.00">ratom_copy</text>
</a>
</g>
</g>
<!-- Node29&#45;&gt;Node30 -->
<g id="edge33" class="edge">
<title>Node29&#45;&gt;Node30</title>
<path fill="none" stroke="midnightblue" d="M602.17,-44.86C611.45,-44.86 621.25,-44.86 630.52,-44.86"/>
<polygon fill="midnightblue" stroke="midnightblue" points="630.72,-48.36 640.72,-44.86 630.72,-41.36 630.72,-48.36"/>
</g>
<!-- Node33 -->
<g id="node33" class="node">
<title>Node33</title>
<g id="a_node33"><a xlink:href="regex_8c.html#a39869d385d8410ffb9d5bf74c778c6ce" target="_top" xlink:title=" ">
<polygon fill="white" stroke="black" points="853.5,-168.36 853.5,-187.36 923.5,-187.36 923.5,-168.36 853.5,-168.36"/>
<text text-anchor="middle" x="888.5" y="-175.36" font-family="Helvetica,sans-Serif" font-size="10.00">rnode_make</text>
</a>
</g>
</g>
<!-- Node32&#45;&gt;Node33 -->
<g id="edge38" class="edge">
<title>Node32&#45;&gt;Node33</title>
<path fill="none" stroke="midnightblue" d="M462.5,-168.51C467.43,-171.25 472.56,-174.43 477,-177.86 495.41,-192.08 491.63,-206.66 513,-215.86 631.2,-266.7 789.11,-216.86 855.73,-191.13"/>
<polygon fill="midnightblue" stroke="midnightblue" points="857.23,-194.3 865.25,-187.38 854.66,-187.79 857.23,-194.3"/>
</g>
<!-- Node34 -->
<g id="node34" class="node">
<title>Node34</title>
<g id="a_node34"><a xlink:href="regex_8c.html#abe0c1f4be43ac6d7caa4f95a560f823f" target="_top" xlink:title=" ">
<polygon fill="white" stroke="black" points="526.5,-187.36 526.5,-206.36 588.5,-206.36 588.5,-187.36 526.5,-187.36"/>
<text text-anchor="middle" x="557.5" y="-194.36" font-family="Helvetica,sans-Serif" font-size="10.00">rnode_seq</text>
</a>
</g>
</g>
<!-- Node32&#45;&gt;Node34 -->
<g id="edge39" class="edge">
<title>Node32&#45;&gt;Node34</title>
<path fill="none" stroke="midnightblue" d="M471.27,-168.45C485.44,-173.17 502.74,-178.94 518.03,-184.03"/>
<polygon fill="midnightblue" stroke="midnightblue" points="517.15,-187.43 527.74,-187.27 519.36,-180.79 517.15,-187.43"/>
</g>
<!-- Node34&#45;&gt;Node33 -->
<g id="edge51" class="edge">
<title>Node34&#45;&gt;Node33</title>
<path fill="none" stroke="midnightblue" d="M588.57,-195.12C646.77,-191.76 775.04,-184.35 843.09,-180.42"/>
<polygon fill="midnightblue" stroke="midnightblue" points="843.69,-183.89 853.47,-179.82 843.29,-176.9 843.69,-183.89"/>
</g>
<!-- Node35 -->
<g id="node35" class="node">
<title>Node35</title>
<g id="a_node35"><a xlink:href="regex_8c.html#a0df57dc0ee1beb9018cdd537a58571aa" target="_top" xlink:title=" ">
<polygon fill="white" stroke="black" points="641,-149.36 641,-168.36 709,-168.36 709,-149.36 641,-149.36"/>
<text text-anchor="middle" x="675" y="-156.36" font-family="Helvetica,sans-Serif" font-size="10.00">rnode_atom</text>
</a>
</g>
</g>
<!-- Node34&#45;&gt;Node35 -->
<g id="edge40" class="edge">
<title>Node34&#45;&gt;Node35</title>
<path fill="none" stroke="midnightblue" d="M587.65,-187.27C602.01,-182.54 619.53,-176.78 635.03,-171.68"/>
<polygon fill="midnightblue" stroke="midnightblue" points="636.46,-174.89 644.86,-168.44 634.27,-168.24 636.46,-174.89"/>
</g>
<!-- Node35&#45;&gt;Node31 -->
<g id="edge45" class="edge">
<title>Node35&#45;&gt;Node31</title>
<path fill="none" stroke="midnightblue" d="M684.71,-149.3C697.28,-136.19 721.89,-112.97 748,-101.86 779.65,-88.38 818.65,-83.98 847.36,-82.75"/>
<polygon fill="midnightblue" stroke="midnightblue" points="847.56,-86.25 857.44,-82.43 847.34,-79.25 847.56,-86.25"/>
</g>
<!-- Node35&#45;&gt;Node33 -->
<g id="edge50" class="edge">
<title>Node35&#45;&gt;Node33</title>
<path fill="none" stroke="midnightblue" d="M709.05,-161.83C745.17,-165.07 803.23,-170.29 843.27,-173.88"/>
<polygon fill="midnightblue" stroke="midnightblue" points="843.01,-177.37 853.28,-174.78 843.64,-170.4 843.01,-177.37"/>
</g>
<!-- Node36 -->
<g id="node36" class="node">
<title>Node36</title>
<g id="a_node36"><a xlink:href="regex_8c.html#a8b5ae269a79b320da8e87712e2051d1c" target="_top" xlink:title=" ">
<polygon fill="white" stroke="black" points="748,-263.36 748,-282.36 813,-282.36 813,-263.36 748,-263.36"/>
<text text-anchor="middle" x="780.5" y="-270.36" font-family="Helvetica,sans-Serif" font-size="10.00">ratom_read</text>
</a>
</g>
</g>
<!-- Node35&#45;&gt;Node36 -->
<g id="edge41" class="edge">
<title>Node35&#45;&gt;Node36</title>
<path fill="none" stroke="midnightblue" d="M684.82,-168.58C702.39,-187.93 741.94,-231.49 763.96,-255.74"/>
<polygon fill="midnightblue" stroke="midnightblue" points="761.38,-258.11 770.7,-263.16 766.57,-253.41 761.38,-258.11"/>
</g>
<!-- Node38 -->
<g id="node38" class="node">
<title>Node38</title>
<g id="a_node38"><a xlink:href="regex_8c.html#aaeda19c8b3704252a342cdcc7fc3591c" target="_top" xlink:title=" ">
<polygon fill="white" stroke="black" points="751,-111.36 751,-130.36 810,-130.36 810,-111.36 751,-111.36"/>
<text text-anchor="middle" x="780.5" y="-118.36" font-family="Helvetica,sans-Serif" font-size="10.00">rnode_grp</text>
</a>
</g>
</g>
<!-- Node35&#45;&gt;Node38 -->
<g id="edge46" class="edge">
<title>Node35&#45;&gt;Node38</title>
<path fill="none" stroke="midnightblue" d="M702.12,-149.27C714.74,-144.63 730.09,-139 743.78,-133.97"/>
<polygon fill="midnightblue" stroke="midnightblue" points="745.21,-137.18 753.39,-130.44 742.8,-130.6 745.21,-137.18"/>
</g>
<!-- Node36&#45;&gt;Node18 -->
<g id="edge44" class="edge">
<title>Node36&#45;&gt;Node18</title>
<path fill="none" stroke="midnightblue" d="M798.01,-282.48C811.59,-290.32 831.4,-301.57 849,-310.86 851.97,-312.42 855.08,-314.03 858.2,-315.6"/>
<polygon fill="midnightblue" stroke="midnightblue" points="856.9,-318.87 867.41,-320.2 860.03,-312.6 856.9,-318.87"/>
</g>
<!-- Node37 -->
<g id="node37" class="node">
<title>Node37</title>
<g id="a_node37"><a xlink:href="regex_8c.html#a1904288a4b4c7b7d0666c3d85d438e1a" target="_top" xlink:title=" ">
<polygon fill="white" stroke="black" points="849,-282.36 849,-301.36 928,-301.36 928,-282.36 849,-282.36"/>
<text text-anchor="middle" x="888.5" y="-289.36" font-family="Helvetica,sans-Serif" font-size="10.00">ratom_readbrk</text>
</a>
</g>
</g>
<!-- Node36&#45;&gt;Node37 -->
<g id="edge42" class="edge">
<title>Node36&#45;&gt;Node37</title>
<path fill="none" stroke="midnightblue" d="M813.02,-278.51C821.09,-279.95 829.96,-281.54 838.68,-283.11"/>
<polygon fill="midnightblue" stroke="midnightblue" points="838.33,-286.6 848.79,-284.92 839.56,-279.71 838.33,-286.6"/>
</g>
<!-- Node37&#45;&gt;Node16 -->
<g id="edge43" class="edge">
<title>Node37&#45;&gt;Node16</title>
<path fill="none" stroke="midnightblue" d="M911.62,-301.39C924.5,-306.93 940.94,-314.02 955.19,-320.15"/>
<polygon fill="midnightblue" stroke="midnightblue" points="954.06,-323.48 964.63,-324.22 956.83,-317.05 954.06,-323.48"/>
</g>
<!-- Node38&#45;&gt;Node31 -->
<g id="edge47" class="edge">
<title>Node38&#45;&gt;Node31</title>
<path fill="none" stroke="midnightblue" d="M808.25,-111.27C821.3,-106.59 837.2,-100.89 851.32,-95.83"/>
<polygon fill="midnightblue" stroke="midnightblue" points="852.53,-99.11 860.76,-92.44 850.17,-92.52 852.53,-99.11"/>
</g>
<!-- Node38&#45;&gt;Node32 -->
<g id="edge49" class="edge">
<title>Node38&#45;&gt;Node32</title>
<path fill="none" stroke="midnightblue" d="M750.58,-124.12C691.61,-130.77 557.11,-145.93 486.95,-153.85"/>
<polygon fill="midnightblue" stroke="midnightblue" points="486.21,-150.41 476.67,-155 487,-157.36 486.21,-150.41"/>
</g>
<!-- Node38&#45;&gt;Node33 -->
<g id="edge48" class="edge">
<title>Node38&#45;&gt;Node33</title>
<path fill="none" stroke="midnightblue" d="M799.48,-130.53C816.33,-139.59 841.74,-153.25 860.93,-163.57"/>
<polygon fill="midnightblue" stroke="midnightblue" points="859.32,-166.68 869.78,-168.33 862.63,-160.51 859.32,-166.68"/>
</g>
<!-- Node40 -->
<g id="node40" class="node">
<title>Node40</title>
<g id="a_node40"><a xlink:href="sbuf_8c.html#a4ad75f3948c0340c342a3ea3eb63a6e6" target="_top" xlink:title=" ">
<polygon fill="white" stroke="black" points="522.5,-263.36 522.5,-282.36 592.5,-282.36 592.5,-263.36 522.5,-263.36"/>
<text text-anchor="middle" x="557.5" y="-270.36" font-family="Helvetica,sans-Serif" font-size="10.00">sbuf_extend</text>
</a>
</g>
</g>
<!-- Node39&#45;&gt;Node40 -->
<g id="edge53" class="edge">
<title>Node39&#45;&gt;Node40</title>
<path fill="none" stroke="midnightblue" d="M358.19,-272.86C395.96,-272.86 466.23,-272.86 512.17,-272.86"/>
<polygon fill="midnightblue" stroke="midnightblue" points="512.43,-276.36 522.43,-272.86 512.43,-269.36 512.43,-276.36"/>
</g>
<!-- Node41&#45;&gt;Node40 -->
<g id="edge55" class="edge">
<title>Node41&#45;&gt;Node40</title>
<path fill="none" stroke="midnightblue" d="M358.19,-239.29C396.04,-245.7 466.52,-257.63 512.46,-265.4"/>
<polygon fill="midnightblue" stroke="midnightblue" points="511.99,-268.87 522.43,-267.09 513.16,-261.97 511.99,-268.87"/>
</g>
<!-- Node46 -->
<g id="node46" class="node">
<title>Node46</title>
<g id="a_node46"><a xlink:href="sbuf_8c.html#aa511ac77d6b486accc01c0512ef27ed2" target="_top" xlink:title=" ">
<polygon fill="white" stroke="black" points="410.5,-187.36 410.5,-206.36 472.5,-206.36 472.5,-187.36 410.5,-187.36"/>
<text text-anchor="middle" x="441.5" y="-194.36" font-family="Helvetica,sans-Serif" font-size="10.00">sbuf_mem</text>
</a>
</g>
</g>
<!-- Node45&#45;&gt;Node46 -->
<g id="edge60" class="edge">
<title>Node45&#45;&gt;Node46</title>
<path fill="none" stroke="midnightblue" d="M357.16,-196.86C369.96,-196.86 385.82,-196.86 400.26,-196.86"/>
<polygon fill="midnightblue" stroke="midnightblue" points="400.46,-200.36 410.46,-196.86 400.46,-193.36 400.46,-200.36"/>
</g>
<!-- Node46&#45;&gt;Node40 -->
<g id="edge61" class="edge">
<title>Node46&#45;&gt;Node40</title>
<path fill="none" stroke="midnightblue" d="M456.72,-206.5C462.99,-210.81 470.42,-216.01 477,-220.86 493.33,-232.87 496.07,-237.71 513,-248.86 517.86,-252.06 523.18,-255.24 528.39,-258.19"/>
<polygon fill="midnightblue" stroke="midnightblue" points="527.04,-261.45 537.49,-263.21 530.42,-255.32 527.04,-261.45"/>
</g>
<!-- Node48 -->
<g id="node48" class="node">
<title>Node48</title>
<g id="a_node48"><a xlink:href="lbuf_8c.html#a69221917b521da2cd5f804a9f4694f1a" target="_top" xlink:title=" ">
<polygon fill="white" stroke="black" points="198.5,-56.36 198.5,-75.36 249.5,-75.36 249.5,-56.36 198.5,-56.36"/>
<text text-anchor="middle" x="224" y="-63.36" font-family="Helvetica,sans-Serif" font-size="10.00">markidx</text>
</a>
</g>
</g>
<!-- Node47&#45;&gt;Node48 -->
<g id="edge68" class="edge">
<title>Node47&#45;&gt;Node48</title>
<path fill="none" stroke="midnightblue" d="M131.78,-170.25C142.4,-153.03 166.31,-116.23 192,-89.86 194.73,-87.06 197.79,-84.31 200.89,-81.73"/>
<polygon fill="midnightblue" stroke="midnightblue" points="203.31,-84.28 209.04,-75.37 199,-78.77 203.31,-84.28"/>
</g>
</g>
</svg>
