<?xml version="1.0" encoding="UTF-8" standalone="no"?>
<!DOCTYPE svg PUBLIC "-//W3C//DTD SVG 1.1//EN"
 "http://www.w3.org/Graphics/SVG/1.1/DTD/svg11.dtd">
<!-- Generated by graphviz version 2.44.1 (20200629.0846)
 -->
<!-- Title: ec_redo Pages: 1 -->
<svg width="447pt" height="107pt"
 viewBox="0.00 0.00 447.00 107.39" xmlns="http://www.w3.org/2000/svg" xmlns:xlink="http://www.w3.org/1999/xlink">
<g id="graph0" class="graph" transform="scale(1 1) rotate(0) translate(4 103.39)">
<title>ec_redo</title>
<polygon fill="white" stroke="transparent" points="-4,4 -4,-103.39 443,-103.39 443,4 -4,4"/>
<!-- Node1 -->
<g id="node1" class="node">
<title>Node1</title>
<g id="a_node1"><a xlink:title=" ">
<polygon fill="#bfbfbf" stroke="black" points="0,-51.89 0,-70.89 51,-70.89 51,-51.89 0,-51.89"/>
<text text-anchor="middle" x="25.5" y="-58.89" font-family="Helvetica,sans-Serif" font-size="10.00">ec_redo</text>
</a>
</g>
</g>
<!-- Node2 -->
<g id="node2" class="node">
<title>Node2</title>
<g id="a_node2"><a xlink:href="lbuf_8c.html#aca82c206a01766fec09a8fe903b1d688" target="_top" xlink:title=" ">
<polygon fill="white" stroke="black" points="87,-51.89 87,-70.89 143,-70.89 143,-51.89 87,-51.89"/>
<text text-anchor="middle" x="115" y="-58.89" font-family="Helvetica,sans-Serif" font-size="10.00">lbuf_redo</text>
</a>
</g>
</g>
<!-- Node1&#45;&gt;Node2 -->
<g id="edge1" class="edge">
<title>Node1&#45;&gt;Node2</title>
<path fill="none" stroke="midnightblue" d="M51.34,-61.39C59.24,-61.39 68.16,-61.39 76.74,-61.39"/>
<polygon fill="midnightblue" stroke="midnightblue" points="76.95,-64.89 86.95,-61.39 76.95,-57.89 76.95,-64.89"/>
</g>
<!-- Node3 -->
<g id="node3" class="node">
<title>Node3</title>
<g id="a_node3"><a xlink:href="lbuf_8c.html#ab80e32f732eac6af01c013ad5f802561" target="_top" xlink:title=" ">
<polygon fill="white" stroke="black" points="179,-79.89 179,-98.89 250,-98.89 250,-79.89 179,-79.89"/>
<text text-anchor="middle" x="214.5" y="-86.89" font-family="Helvetica,sans-Serif" font-size="10.00">lbuf_loadpos</text>
</a>
</g>
</g>
<!-- Node2&#45;&gt;Node3 -->
<g id="edge2" class="edge">
<title>Node2&#45;&gt;Node3</title>
<path fill="none" stroke="midnightblue" d="M143.16,-69.19C151.6,-71.61 161.12,-74.35 170.37,-77"/>
<polygon fill="midnightblue" stroke="midnightblue" points="169.66,-80.44 180.24,-79.84 171.59,-73.71 169.66,-80.44"/>
</g>
<!-- Node5 -->
<g id="node5" class="node">
<title>Node5</title>
<g id="a_node5"><a xlink:href="lbuf_8c.html#a7d6629efef5a5cbd324d82e2b0c07c5d" target="_top" xlink:title=" ">
<polygon fill="white" stroke="black" points="180,-32.89 180,-51.89 249,-51.89 249,-32.89 180,-32.89"/>
<text text-anchor="middle" x="214.5" y="-39.89" font-family="Helvetica,sans-Serif" font-size="10.00">lbuf_replace</text>
</a>
</g>
</g>
<!-- Node2&#45;&gt;Node5 -->
<g id="edge4" class="edge">
<title>Node2&#45;&gt;Node5</title>
<path fill="none" stroke="midnightblue" d="M143.16,-56.1C151.43,-54.48 160.74,-52.67 169.81,-50.9"/>
<polygon fill="midnightblue" stroke="midnightblue" points="170.74,-54.29 179.88,-48.94 169.4,-47.42 170.74,-54.29"/>
</g>
<!-- Node4 -->
<g id="node4" class="node">
<title>Node4</title>
<g id="a_node4"><a xlink:href="lbuf_8c.html#a69221917b521da2cd5f804a9f4694f1a" target="_top" xlink:title=" ">
<polygon fill="white" stroke="black" points="384.5,-60.89 384.5,-79.89 435.5,-79.89 435.5,-60.89 384.5,-60.89"/>
<text text-anchor="middle" x="410" y="-67.89" font-family="Helvetica,sans-Serif" font-size="10.00">markidx</text>
</a>
</g>
</g>
<!-- Node3&#45;&gt;Node4 -->
<g id="edge3" class="edge">
<title>Node3&#45;&gt;Node4</title>
<path fill="none" stroke="midnightblue" d="M250.2,-87.79C276.32,-86.38 312.97,-84 345,-80.39 354.6,-79.31 364.97,-77.83 374.5,-76.33"/>
<polygon fill="midnightblue" stroke="midnightblue" points="375.13,-79.78 384.45,-74.73 374.02,-72.87 375.13,-79.78"/>
</g>
<!-- Node6 -->
<g id="node6" class="node">
<title>Node6</title>
<g id="a_node6"><a xlink:href="lbuf_8c.html#a5a34f3f60dfd5ea06207d96d821da368" target="_top" xlink:title=" ">
<polygon fill="white" stroke="black" points="286,-51.89 286,-70.89 345,-70.89 345,-51.89 286,-51.89"/>
<text text-anchor="middle" x="315.5" y="-58.89" font-family="Helvetica,sans-Serif" font-size="10.00">lbuf_mark</text>
</a>
</g>
</g>
<!-- Node5&#45;&gt;Node6 -->
<g id="edge5" class="edge">
<title>Node5&#45;&gt;Node6</title>
<path fill="none" stroke="midnightblue" d="M249.02,-48.82C257.65,-50.48 267,-52.27 275.86,-53.97"/>
<polygon fill="midnightblue" stroke="midnightblue" points="275.49,-57.47 285.97,-55.91 276.81,-50.59 275.49,-57.47"/>
</g>
<!-- Node7 -->
<g id="node7" class="node">
<title>Node7</title>
<g id="a_node7"><a xlink:href="lbuf_8c.html#ab41193f3312b21588338e92e1b144f87" target="_top" xlink:title=" ">
<polygon fill="white" stroke="black" points="287.5,-13.89 287.5,-32.89 343.5,-32.89 343.5,-13.89 287.5,-13.89"/>
<text text-anchor="middle" x="315.5" y="-20.89" font-family="Helvetica,sans-Serif" font-size="10.00">linecount</text>
</a>
</g>
</g>
<!-- Node5&#45;&gt;Node7 -->
<g id="edge7" class="edge">
<title>Node5&#45;&gt;Node7</title>
<path fill="none" stroke="midnightblue" d="M249.02,-35.96C258.06,-34.22 267.91,-32.33 277.15,-30.56"/>
<polygon fill="midnightblue" stroke="midnightblue" points="278.1,-33.94 287.26,-28.62 276.78,-27.06 278.1,-33.94"/>
</g>
<!-- Node8 -->
<g id="node8" class="node">
<title>Node8</title>
<g id="a_node8"><a xlink:href="lbuf_8c.html#ac559857979b20ce0c64638c9e3e4edec" target="_top" xlink:title=" ">
<polygon fill="white" stroke="black" points="381,-3.89 381,-22.89 439,-22.89 439,-3.89 381,-3.89"/>
<text text-anchor="middle" x="410" y="-10.89" font-family="Helvetica,sans-Serif" font-size="10.00">linelength</text>
</a>
</g>
</g>
<!-- Node5&#45;&gt;Node8 -->
<g id="edge9" class="edge">
<title>Node5&#45;&gt;Node8</title>
<path fill="none" stroke="midnightblue" d="M228.71,-32.66C242.28,-23.32 264.43,-9.83 286,-4.39 313.79,2.62 346.15,-0.16 370.71,-4.41"/>
<polygon fill="midnightblue" stroke="midnightblue" points="370.24,-7.88 380.71,-6.3 371.54,-1.01 370.24,-7.88"/>
</g>
<!-- Node6&#45;&gt;Node4 -->
<g id="edge6" class="edge">
<title>Node6&#45;&gt;Node4</title>
<path fill="none" stroke="midnightblue" d="M345.01,-64.16C354.29,-65.07 364.69,-66.08 374.36,-67.02"/>
<polygon fill="midnightblue" stroke="midnightblue" points="374.2,-70.52 384.49,-68 374.88,-63.55 374.2,-70.52"/>
</g>
<!-- Node7&#45;&gt;Node8 -->
<g id="edge8" class="edge">
<title>Node7&#45;&gt;Node8</title>
<path fill="none" stroke="midnightblue" d="M343.75,-20.44C352.27,-19.52 361.83,-18.49 370.95,-17.5"/>
<polygon fill="midnightblue" stroke="midnightblue" points="371.41,-20.97 380.98,-16.42 370.66,-14.01 371.41,-20.97"/>
</g>
</g>
</svg>
