<?xml version="1.0" encoding="UTF-8" standalone="no"?>
<!DOCTYPE svg PUBLIC "-//W3C//DTD SVG 1.1//EN"
 "http://www.w3.org/Graphics/SVG/1.1/DTD/svg11.dtd">
<!-- Generated by graphviz version 2.44.1 (20200629.0846)
 -->
<!-- Title: ec_quit Pages: 1 -->
<svg width="806pt" height="123pt"
 viewBox="0.00 0.00 806.00 123.00" xmlns="http://www.w3.org/2000/svg" xmlns:xlink="http://www.w3.org/1999/xlink">
<g id="graph0" class="graph" transform="scale(1 1) rotate(0) translate(4 119)">
<title>ec_quit</title>
<polygon fill="white" stroke="transparent" points="-4,4 -4,-119 802,-119 802,4 -4,4"/>
<!-- Node1 -->
<g id="node1" class="node">
<title>Node1</title>
<g id="a_node1"><a xlink:title=" ">
<polygon fill="#bfbfbf" stroke="black" points="750,-57.5 750,-76.5 798,-76.5 798,-57.5 750,-57.5"/>
<text text-anchor="middle" x="774" y="-64.5" font-family="Helvetica,sans-Serif" font-size="10.00">ec_quit</text>
</a>
</g>
</g>
<!-- Node2 -->
<g id="node2" class="node">
<title>Node2</title>
<g id="a_node2"><a xlink:href="ex_8c.html#a057b67e2d4f23df3ad50a9d3ec86125b" target="_top" xlink:title=" ">
<polygon fill="white" stroke="black" points="661,-76.5 661,-95.5 714,-95.5 714,-76.5 661,-76.5"/>
<text text-anchor="middle" x="687.5" y="-83.5" font-family="Helvetica,sans-Serif" font-size="10.00">ec_write</text>
</a>
</g>
</g>
<!-- Node1&#45;&gt;Node2 -->
<g id="edge1" class="edge">
<title>Node1&#45;&gt;Node2</title>
<path fill="none" stroke="midnightblue" d="M739.88,-74.45C731.36,-76.36 722.32,-78.4 714.24,-80.21"/>
<polygon fill="midnightblue" stroke="midnightblue" points="740.92,-77.8 749.91,-72.19 739.39,-70.97 740.92,-77.8"/>
</g>
<!-- Node3 -->
<g id="node3" class="node">
<title>Node3</title>
<g id="a_node3"><a xlink:href="ex_8c.html#ab0cb848a971a3b2c09fcb456d887dd6b" target="_top" xlink:title=" ">
<polygon fill="white" stroke="black" points="531,-57.5 531,-76.5 625,-76.5 625,-57.5 531,-57.5"/>
<text text-anchor="middle" x="578" y="-64.5" font-family="Helvetica,sans-Serif" font-size="10.00">ex_modifiedbuffer</text>
</a>
</g>
</g>
<!-- Node2&#45;&gt;Node3 -->
<g id="edge2" class="edge">
<title>Node2&#45;&gt;Node3</title>
<path fill="none" stroke="midnightblue" d="M650.76,-79.68C642.55,-78.23 633.71,-76.67 625.14,-75.15"/>
<polygon fill="midnightblue" stroke="midnightblue" points="650.29,-83.16 660.75,-81.45 651.51,-76.26 650.29,-83.16"/>
</g>
<!-- Node3&#45;&gt;Node1 -->
<g id="edge18" class="edge">
<title>Node3&#45;&gt;Node1</title>
<path fill="none" stroke="midnightblue" d="M635.69,-67C673.8,-67 722,-67 749.98,-67"/>
<polygon fill="midnightblue" stroke="midnightblue" points="635.23,-63.5 625.23,-67 635.23,-70.5 635.23,-63.5"/>
</g>
<!-- Node4 -->
<g id="node4" class="node">
<title>Node4</title>
<g id="a_node4"><a xlink:href="ex_8c.html#a8059390ad69866fa8e14bdb2521d4dc2" target="_top" xlink:title=" ">
<polygon fill="white" stroke="black" points="355,-95.5 355,-114.5 403,-114.5 403,-95.5 355,-95.5"/>
<text text-anchor="middle" x="379" y="-102.5" font-family="Helvetica,sans-Serif" font-size="10.00">ec_edit</text>
</a>
</g>
</g>
<!-- Node3&#45;&gt;Node4 -->
<g id="edge3" class="edge">
<title>Node3&#45;&gt;Node4</title>
<path fill="none" stroke="midnightblue" d="M528.13,-78.86C517.25,-81.35 505.76,-83.87 495,-86 463.44,-92.26 426.72,-98.07 403.43,-101.58"/>
<polygon fill="midnightblue" stroke="midnightblue" points="528.95,-82.27 537.9,-76.6 527.37,-75.45 528.95,-82.27"/>
</g>
<!-- Node7 -->
<g id="node7" class="node">
<title>Node7</title>
<g id="a_node7"><a xlink:href="ex_8c.html#adcd83f163f659bd2596bcfc25d74bde9" target="_top" xlink:title=" ">
<polygon fill="white" stroke="black" points="440.5,-57.5 440.5,-76.5 493.5,-76.5 493.5,-57.5 440.5,-57.5"/>
<text text-anchor="middle" x="467" y="-64.5" font-family="Helvetica,sans-Serif" font-size="10.00">ec_exec</text>
</a>
</g>
</g>
<!-- Node3&#45;&gt;Node7 -->
<g id="edge6" class="edge">
<title>Node3&#45;&gt;Node7</title>
<path fill="none" stroke="midnightblue" d="M520.52,-67C511.06,-67 501.67,-67 493.51,-67"/>
<polygon fill="midnightblue" stroke="midnightblue" points="520.77,-70.5 530.77,-67 520.77,-63.5 520.77,-70.5"/>
</g>
<!-- Node14 -->
<g id="node14" class="node">
<title>Node14</title>
<g id="a_node14"><a xlink:href="ex_8c.html#aa69f426ff9728078fbb36f448c624a90" target="_top" xlink:title=" ">
<polygon fill="white" stroke="black" points="439,-19.5 439,-38.5 495,-38.5 495,-19.5 439,-19.5"/>
<text text-anchor="middle" x="467" y="-26.5" font-family="Helvetica,sans-Serif" font-size="10.00">ec_make</text>
</a>
</g>
</g>
<!-- Node3&#45;&gt;Node14 -->
<g id="edge17" class="edge">
<title>Node3&#45;&gt;Node14</title>
<path fill="none" stroke="midnightblue" d="M539.71,-54C525.08,-48.9 508.59,-43.15 495.12,-38.45"/>
<polygon fill="midnightblue" stroke="midnightblue" points="538.9,-57.42 549.49,-57.41 541.2,-50.81 538.9,-57.42"/>
</g>
<!-- Node5 -->
<g id="node5" class="node">
<title>Node5</title>
<g id="a_node5"><a xlink:href="vi_8h.html#abe53b5c10f94f20cd5ed024371615fa1" target="_top" xlink:title=" ">
<polygon fill="white" stroke="black" points="74,-76.5 74,-95.5 119,-95.5 119,-76.5 74,-76.5"/>
<text text-anchor="middle" x="96.5" y="-83.5" font-family="Helvetica,sans-Serif" font-size="10.00">ex_init</text>
</a>
</g>
</g>
<!-- Node4&#45;&gt;Node5 -->
<g id="edge4" class="edge">
<title>Node4&#45;&gt;Node5</title>
<path fill="none" stroke="midnightblue" d="M344.41,-102.72C286.11,-98.78 167.76,-90.76 119.12,-87.46"/>
<polygon fill="midnightblue" stroke="midnightblue" points="344.35,-106.23 354.57,-103.41 344.83,-99.24 344.35,-106.23"/>
</g>
<!-- Node6 -->
<g id="node6" class="node">
<title>Node6</title>
<g id="a_node6"><a xlink:href="vi_8c.html#a0ddf1224851353fc92bfbff6f499fa97" target="_top" xlink:title=" ">
<polygon fill="white" stroke="black" points="0,-38.5 0,-57.5 38,-57.5 38,-38.5 0,-38.5"/>
<text text-anchor="middle" x="19" y="-45.5" font-family="Helvetica,sans-Serif" font-size="10.00">main</text>
</a>
</g>
</g>
<!-- Node5&#45;&gt;Node6 -->
<g id="edge5" class="edge">
<title>Node5&#45;&gt;Node6</title>
<path fill="none" stroke="midnightblue" d="M67.4,-71.86C57.57,-66.91 46.79,-61.49 38.01,-57.06"/>
<polygon fill="midnightblue" stroke="midnightblue" points="65.94,-75.04 76.45,-76.41 69.09,-68.79 65.94,-75.04"/>
</g>
<!-- Node8 -->
<g id="node8" class="node">
<title>Node8</title>
<g id="a_node8"><a xlink:href="ex_8c.html#a7d848d20211b2e1c868dde98ec5dfae9" target="_top" xlink:title=" ">
<polygon fill="white" stroke="black" points="355.5,-57.5 355.5,-76.5 402.5,-76.5 402.5,-57.5 355.5,-57.5"/>
<text text-anchor="middle" x="379" y="-64.5" font-family="Helvetica,sans-Serif" font-size="10.00">ex_line</text>
</a>
</g>
</g>
<!-- Node7&#45;&gt;Node8 -->
<g id="edge7" class="edge">
<title>Node7&#45;&gt;Node8</title>
<path fill="none" stroke="midnightblue" d="M429.99,-67C420.7,-67 410.96,-67 402.58,-67"/>
<polygon fill="midnightblue" stroke="midnightblue" points="430.2,-70.5 440.2,-67 430.2,-63.5 430.2,-70.5"/>
</g>
<!-- Node9 -->
<g id="node9" class="node">
<title>Node9</title>
<g id="a_node9"><a xlink:href="ex_8c.html#ab15ebfef933256d9741128e2ddf3f9b5" target="_top" xlink:title=" ">
<polygon fill="white" stroke="black" points="266,-19.5 266,-38.5 319,-38.5 319,-19.5 266,-19.5"/>
<text text-anchor="middle" x="292.5" y="-26.5" font-family="Helvetica,sans-Serif" font-size="10.00">ex_exec</text>
</a>
</g>
</g>
<!-- Node8&#45;&gt;Node9 -->
<g id="edge8" class="edge">
<title>Node8&#45;&gt;Node9</title>
<path fill="none" stroke="midnightblue" d="M347.52,-53.29C336.68,-48.42 324.72,-43.04 314.82,-38.59"/>
<polygon fill="midnightblue" stroke="midnightblue" points="346.12,-56.5 356.68,-57.41 348.99,-50.12 346.12,-56.5"/>
</g>
<!-- Node10 -->
<g id="node10" class="node">
<title>Node10</title>
<g id="a_node10"><a xlink:href="ex_8c.html#a70c571bdde329a65e216c19b4aeaa628" target="_top" xlink:title=" ">
<polygon fill="white" stroke="black" points="167.5,-57.5 167.5,-76.5 217.5,-76.5 217.5,-57.5 167.5,-57.5"/>
<text text-anchor="middle" x="192.5" y="-64.5" font-family="Helvetica,sans-Serif" font-size="10.00">ec_glob</text>
</a>
</g>
</g>
<!-- Node9&#45;&gt;Node10 -->
<g id="edge9" class="edge">
<title>Node9&#45;&gt;Node10</title>
<path fill="none" stroke="midnightblue" d="M257.14,-42.32C244.07,-47.39 229.46,-53.06 217.54,-57.68"/>
<polygon fill="midnightblue" stroke="midnightblue" points="258.71,-45.47 266.77,-38.59 256.18,-38.94 258.71,-45.47"/>
</g>
<!-- Node11 -->
<g id="node11" class="node">
<title>Node11</title>
<g id="a_node11"><a xlink:href="vi_8h.html#aa75c73cccb4878ec06ea5bf5b1b02295" target="_top" xlink:title=" ">
<polygon fill="white" stroke="black" points="155,-19.5 155,-38.5 230,-38.5 230,-19.5 155,-19.5"/>
<text text-anchor="middle" x="192.5" y="-26.5" font-family="Helvetica,sans-Serif" font-size="10.00">ex_command</text>
</a>
</g>
</g>
<!-- Node9&#45;&gt;Node11 -->
<g id="edge11" class="edge">
<title>Node9&#45;&gt;Node11</title>
<path fill="none" stroke="midnightblue" d="M255.61,-29C247.31,-29 238.46,-29 230.13,-29"/>
<polygon fill="midnightblue" stroke="midnightblue" points="255.75,-32.5 265.75,-29 255.75,-25.5 255.75,-32.5"/>
</g>
<!-- Node10&#45;&gt;Node8 -->
<g id="edge10" class="edge">
<title>Node10&#45;&gt;Node8</title>
<path fill="none" stroke="midnightblue" d="M228.15,-67C265.42,-67 323.59,-67 355.38,-67"/>
<polygon fill="midnightblue" stroke="midnightblue" points="227.77,-63.5 217.77,-67 227.77,-70.5 227.77,-63.5"/>
</g>
<!-- Node11&#45;&gt;Node5 -->
<g id="edge14" class="edge">
<title>Node11&#45;&gt;Node5</title>
<path fill="none" stroke="midnightblue" d="M162.9,-43.52C160.21,-45 157.54,-46.51 155,-48 139.74,-56.98 122.9,-68.28 111.42,-76.21"/>
<polygon fill="midnightblue" stroke="midnightblue" points="164.79,-46.48 171.97,-38.69 161.5,-40.3 164.79,-46.48"/>
</g>
<!-- Node12 -->
<g id="node12" class="node">
<title>Node12</title>
<g id="a_node12"><a xlink:href="vi_8h.html#ac395e51f25330a6e6033b6d0d22b2076" target="_top" xlink:title=" ">
<polygon fill="white" stroke="black" points="82,-38.5 82,-57.5 111,-57.5 111,-38.5 82,-38.5"/>
<text text-anchor="middle" x="96.5" y="-45.5" font-family="Helvetica,sans-Serif" font-size="10.00">ex</text>
</a>
</g>
</g>
<!-- Node11&#45;&gt;Node12 -->
<g id="edge12" class="edge">
<title>Node11&#45;&gt;Node12</title>
<path fill="none" stroke="midnightblue" d="M144.73,-38.45C132.54,-40.92 120.33,-43.39 111.38,-45.2"/>
<polygon fill="midnightblue" stroke="midnightblue" points="145.78,-41.81 154.89,-36.4 144.39,-34.95 145.78,-41.81"/>
</g>
<!-- Node13 -->
<g id="node13" class="node">
<title>Node13</title>
<g id="a_node13"><a xlink:href="vi_8c.html#a8d808e0f3453afe6600673ee1ea5f828" target="_top" xlink:title=" ">
<polygon fill="white" stroke="black" points="82,-0.5 82,-19.5 111,-19.5 111,-0.5 82,-0.5"/>
<text text-anchor="middle" x="96.5" y="-7.5" font-family="Helvetica,sans-Serif" font-size="10.00">vi</text>
</a>
</g>
</g>
<!-- Node11&#45;&gt;Node13 -->
<g id="edge15" class="edge">
<title>Node11&#45;&gt;Node13</title>
<path fill="none" stroke="midnightblue" d="M144.73,-19.55C132.54,-17.08 120.33,-14.61 111.38,-12.8"/>
<polygon fill="midnightblue" stroke="midnightblue" points="144.39,-23.05 154.89,-21.6 145.78,-16.19 144.39,-23.05"/>
</g>
<!-- Node12&#45;&gt;Node6 -->
<g id="edge13" class="edge">
<title>Node12&#45;&gt;Node6</title>
<path fill="none" stroke="midnightblue" d="M71.55,-48C60.69,-48 48.07,-48 38.04,-48"/>
<polygon fill="midnightblue" stroke="midnightblue" points="71.65,-51.5 81.65,-48 71.65,-44.5 71.65,-51.5"/>
</g>
<!-- Node13&#45;&gt;Node6 -->
<g id="edge16" class="edge">
<title>Node13&#45;&gt;Node6</title>
<path fill="none" stroke="midnightblue" d="M72.56,-21.55C61.48,-27.12 48.39,-33.71 38.04,-38.92"/>
<polygon fill="midnightblue" stroke="midnightblue" points="74.29,-24.59 81.65,-16.97 71.15,-18.34 74.29,-24.59"/>
</g>
</g>
</svg>
