<?xml version="1.0" encoding="UTF-8" standalone="no"?>
<!DOCTYPE svg PUBLIC "-//W3C//DTD SVG 1.1//EN"
 "http://www.w3.org/Graphics/SVG/1.1/DTD/svg11.dtd">
<!-- Generated by graphviz version 2.44.1 (20200629.0846)
 -->
<!-- Title: ex_cmd Pages: 1 -->
<!--zoomable 788 -->
<svg id="main" version="1.1" xmlns="http://www.w3.org/2000/svg" xmlns:xlink="http://www.w3.org/1999/xlink" xml:space="preserve" onload="init(evt)">
<style type="text/css"><![CDATA[
.edge:hover path { stroke: red; }
.edge:hover polygon { stroke: red; fill: red; }
]]></style>
<script type="text/javascript"><![CDATA[
var edges = document.getElementsByTagName('g');
if (edges && edges.length) {
  for (var i=0;i<edges.length;i++) {
    if (edges[i].id.substr(0,4)=='edge') {
      edges[i].setAttribute('class','edge');
    }
  }
}
]]></script>
        <defs>
                <circle id="rim" cx="0" cy="0" r="7"/>
                <circle id="rim2" cx="0" cy="0" r="3.5"/>
                <g id="zoomPlus">
                        <use xlink:href="#rim" fill="#404040">
                                <set attributeName="fill" to="#808080" begin="zoomplus.mouseover" end="zoomplus.mouseout"/>
                        </use>
                        <path d="M-4,0h8M0,-4v8" fill="none" stroke="white" stroke-width="1.5" pointer-events="none"/>
                </g>
                <g id="zoomMin">
                        <use xlink:href="#rim" fill="#404040">
                                <set attributeName="fill" to="#808080" begin="zoomminus.mouseover" end="zoomminus.mouseout"/>
                        </use>
                        <path d="M-4,0h8" fill="none" stroke="white" stroke-width="1.5" pointer-events="none"/>
                </g>
                <g id="dirArrow">
                        <path fill="none" stroke="white" stroke-width="1.5" d="M0,-3.0v7 M-2.5,-0.5L0,-3.0L2.5,-0.5"/>
                </g>
               <g id="resetDef">
                       <use xlink:href="#rim2" fill="#404040">
                               <set attributeName="fill" to="#808080" begin="reset.mouseover" end="reset.mouseout"/>
                       </use>
               </g>
        </defs>

<script type="text/javascript">
var viewWidth = 940;
var viewHeight = 788;
var sectionId = 'dynsection-15';
</script>
<script xlink:href="svgpan.js"/>
<svg id="graph" class="graph">
<g id="viewport">
<title>ex_cmd</title>
<polygon fill="white" stroke="transparent" points="-4,4 -4,-784 936,-784 936,4 -4,4"/>
<!-- Node1 -->
<g id="node1" class="node">
<title>Node1</title>
<g id="a_node1"><a xlink:title=" ">
<polygon fill="#bfbfbf" stroke="black" points="881,-285.5 881,-304.5 932,-304.5 932,-285.5 881,-285.5"/>
<text text-anchor="middle" x="906.5" y="-292.5" font-family="Helvetica,sans-Serif" font-size="10.00">ex_cmd</text>
</a>
</g>
</g>
<!-- Node2 -->
<g id="node2" class="node">
<title>Node2</title>
<g id="a_node2"><a xlink:href="ex_8c.html#a86b4adba0c96621f01383b9bacba4a01" target="_top" xlink:title=" ">
<polygon fill="white" stroke="black" points="677,-760.5 677,-779.5 733,-779.5 733,-760.5 677,-760.5"/>
<text text-anchor="middle" x="705" y="-767.5" font-family="Helvetica,sans-Serif" font-size="10.00">ec_cmap</text>
</a>
</g>
</g>
<!-- Node1&#45;&gt;Node2 -->
<g id="edge1" class="edge">
<title>Node1&#45;&gt;Node2</title>
<path fill="none" stroke="midnightblue" d="M905.73,-314.83C905.62,-369.84 900.16,-527.86 845,-643 817.38,-700.65 801.71,-713.42 750,-751 744.88,-754.72 738.93,-757.9 733.08,-760.54"/>
<polygon fill="midnightblue" stroke="midnightblue" points="909.23,-314.69 905.69,-304.71 902.23,-314.72 909.23,-314.69"/>
</g>
<!-- Node3 -->
<g id="node3" class="node">
<title>Node3</title>
<g id="a_node3"><a xlink:href="ex_8c.html#a8059390ad69866fa8e14bdb2521d4dc2" target="_top" xlink:title=" ">
<polygon fill="white" stroke="black" points="442,-332.5 442,-351.5 490,-351.5 490,-332.5 442,-332.5"/>
<text text-anchor="middle" x="466" y="-339.5" font-family="Helvetica,sans-Serif" font-size="10.00">ec_edit</text>
</a>
</g>
</g>
<!-- Node1&#45;&gt;Node3 -->
<g id="edge2" class="edge">
<title>Node1&#45;&gt;Node3</title>
<path fill="none" stroke="midnightblue" d="M885.68,-310.97C874.44,-319.08 859.71,-328.22 845,-333 716.71,-374.7 550.81,-355.25 490.35,-345.96"/>
<polygon fill="midnightblue" stroke="midnightblue" points="888.01,-313.6 893.88,-304.78 883.79,-308.01 888.01,-313.6"/>
</g>
<!-- Node6 -->
<g id="node6" class="node">
<title>Node6</title>
<g id="a_node6"><a xlink:href="ex_8c.html#a70c571bdde329a65e216c19b4aeaa628" target="_top" xlink:title=" ">
<polygon fill="white" stroke="black" points="552,-95.5 552,-114.5 602,-114.5 602,-95.5 552,-95.5"/>
<text text-anchor="middle" x="577" y="-102.5" font-family="Helvetica,sans-Serif" font-size="10.00">ec_glob</text>
</a>
</g>
</g>
<!-- Node1&#45;&gt;Node6 -->
<g id="edge5" class="edge">
<title>Node1&#45;&gt;Node6</title>
<path fill="none" stroke="midnightblue" d="M904.58,-275.05C901.79,-237.1 890.51,-153.93 845,-105 787.83,-43.54 741.97,-48.93 660,-67 635.33,-72.44 609.26,-86.07 593.3,-95.43"/>
<polygon fill="midnightblue" stroke="midnightblue" points="901.1,-275.52 905.2,-285.29 908.09,-275.09 901.1,-275.52"/>
</g>
<!-- Node8 -->
<g id="node8" class="node">
<title>Node8</title>
<g id="a_node8"><a xlink:href="ex_8c.html#ab15ebfef933256d9741128e2ddf3f9b5" target="_top" xlink:title=" ">
<polygon fill="white" stroke="black" points="266,-157.5 266,-176.5 319,-176.5 319,-157.5 266,-157.5"/>
<text text-anchor="middle" x="292.5" y="-164.5" font-family="Helvetica,sans-Serif" font-size="10.00">ex_exec</text>
</a>
</g>
</g>
<!-- Node1&#45;&gt;Node8 -->
<g id="edge43" class="edge">
<title>Node1&#45;&gt;Node8</title>
<path fill="none" stroke="midnightblue" d="M894.54,-276.33C883.79,-259.4 865.97,-234.74 845,-219 791.6,-178.92 772.77,-162 706,-162 706,-162 706,-162 465,-162 413.17,-162 352.57,-164.31 319.06,-165.79"/>
<polygon fill="midnightblue" stroke="midnightblue" points="891.82,-278.59 900.03,-285.28 897.79,-274.93 891.82,-278.59"/>
</g>
<!-- Node12 -->
<g id="node12" class="node">
<title>Node12</title>
<g id="a_node12"><a xlink:href="ex_8c.html#a0908784dc65be2da119a6b72ef96dec2" target="_top" xlink:title=" ">
<polygon fill="white" stroke="black" points="677,-722.5 677,-741.5 733,-741.5 733,-722.5 677,-722.5"/>
<text text-anchor="middle" x="705" y="-729.5" font-family="Helvetica,sans-Serif" font-size="10.00">ec_insert</text>
</a>
</g>
</g>
<!-- Node1&#45;&gt;Node12 -->
<g id="edge15" class="edge">
<title>Node1&#45;&gt;Node12</title>
<path fill="none" stroke="midnightblue" d="M904.1,-314.66C900.14,-362.15 886.33,-486.12 845,-580 815.73,-646.48 806.53,-667.37 750,-713 745.08,-716.97 739.2,-720.26 733.37,-722.92"/>
<polygon fill="midnightblue" stroke="midnightblue" points="907.6,-314.77 904.89,-304.53 900.62,-314.23 907.6,-314.77"/>
</g>
<!-- Node13 -->
<g id="node13" class="node">
<title>Node13</title>
<g id="a_node13"><a xlink:href="ex_8c.html#ad2c1a9505aa3097bac242b47a367f11d" target="_top" xlink:title=" ">
<polygon fill="white" stroke="black" points="790,-0.5 790,-19.5 841,-19.5 841,-0.5 790,-0.5"/>
<text text-anchor="middle" x="815.5" y="-7.5" font-family="Helvetica,sans-Serif" font-size="10.00">ec_print</text>
</a>
</g>
</g>
<!-- Node1&#45;&gt;Node13 -->
<g id="edge16" class="edge">
<title>Node1&#45;&gt;Node13</title>
<path fill="none" stroke="midnightblue" d="M905.08,-275.06C903.27,-229.12 893.81,-113.72 845,-34 841.62,-28.48 836.54,-23.61 831.59,-19.73"/>
<polygon fill="midnightblue" stroke="midnightblue" points="901.59,-275.29 905.4,-285.17 908.58,-275.07 901.59,-275.29"/>
</g>
<!-- Node15 -->
<g id="node15" class="node">
<title>Node15</title>
<g id="a_node15"><a xlink:href="ex_8c.html#a87eef446de152fad41ce88a9a343b87d" target="_top" xlink:title=" ">
<polygon fill="white" stroke="black" points="791.5,-228.5 791.5,-247.5 839.5,-247.5 839.5,-228.5 791.5,-228.5"/>
<text text-anchor="middle" x="815.5" y="-235.5" font-family="Helvetica,sans-Serif" font-size="10.00">ec_quit</text>
</a>
</g>
</g>
<!-- Node1&#45;&gt;Node15 -->
<g id="edge18" class="edge">
<title>Node1&#45;&gt;Node15</title>
<path fill="none" stroke="midnightblue" d="M881.6,-279.69C865.61,-269.45 845.06,-256.29 831.37,-247.53"/>
<polygon fill="midnightblue" stroke="midnightblue" points="880.09,-282.88 890.4,-285.33 883.87,-276.99 880.09,-282.88"/>
</g>
<!-- Node16 -->
<g id="node16" class="node">
<title>Node16</title>
<g id="a_node16"><a xlink:href="ex_8c.html#a057b67e2d4f23df3ad50a9d3ec86125b" target="_top" xlink:title=" ">
<polygon fill="white" stroke="black" points="678.5,-228.5 678.5,-247.5 731.5,-247.5 731.5,-228.5 678.5,-228.5"/>
<text text-anchor="middle" x="705" y="-235.5" font-family="Helvetica,sans-Serif" font-size="10.00">ec_write</text>
</a>
</g>
</g>
<!-- Node1&#45;&gt;Node16 -->
<g id="edge26" class="edge">
<title>Node1&#45;&gt;Node16</title>
<path fill="none" stroke="midnightblue" d="M870.88,-285.11C831.26,-273.79 767.3,-255.51 731.81,-245.37"/>
<polygon fill="midnightblue" stroke="midnightblue" points="870.06,-288.51 880.64,-287.9 871.98,-281.78 870.06,-288.51"/>
</g>
<!-- Node20 -->
<g id="node20" class="node">
<title>Node20</title>
<g id="a_node20"><a xlink:href="ex_8c.html#a2446caa3d19e3467ba6999396de39109" target="_top" xlink:title=" ">
<polygon fill="white" stroke="black" points="660,-456.5 660,-475.5 750,-475.5 750,-456.5 660,-456.5"/>
<text text-anchor="middle" x="705" y="-463.5" font-family="Helvetica,sans-Serif" font-size="10.00">ec_write_archive</text>
</a>
</g>
</g>
<!-- Node1&#45;&gt;Node20 -->
<g id="edge27" class="edge">
<title>Node1&#45;&gt;Node20</title>
<path fill="none" stroke="midnightblue" d="M899.03,-314.48C890.21,-338.38 872.33,-378.82 845,-404 816.14,-430.59 773.99,-447.19 743.68,-456.45"/>
<polygon fill="midnightblue" stroke="midnightblue" points="902.43,-315.37 902.44,-304.78 895.82,-313.05 902.43,-315.37"/>
</g>
<!-- Node21 -->
<g id="node21" class="node">
<title>Node21</title>
<g id="a_node21"><a xlink:href="ex_8c.html#a2b06ebeff542dc0173dd4735f1f7fecf" target="_top" xlink:title=" ">
<polygon fill="white" stroke="black" points="792.5,-551.5 792.5,-570.5 838.5,-570.5 838.5,-551.5 792.5,-551.5"/>
<text text-anchor="middle" x="815.5" y="-558.5" font-family="Helvetica,sans-Serif" font-size="10.00">ex_arg</text>
</a>
</g>
</g>
<!-- Node1&#45;&gt;Node21 -->
<g id="edge28" class="edge">
<title>Node1&#45;&gt;Node21</title>
<path fill="none" stroke="midnightblue" d="M899.04,-314.32C881.36,-367.14 832.68,-512.65 819.71,-551.41"/>
<polygon fill="midnightblue" stroke="midnightblue" points="902.37,-315.38 902.23,-304.78 895.73,-313.16 902.37,-315.38"/>
</g>
<!-- Node29 -->
<g id="node29" class="node">
<title>Node29</title>
<g id="a_node29"><a xlink:href="ex_8c.html#a4db51aacca9cc82009fe471ad7b4fcb8" target="_top" xlink:title=" ">
<polygon fill="white" stroke="black" points="786,-114.5 786,-133.5 845,-133.5 845,-114.5 786,-114.5"/>
<text text-anchor="middle" x="815.5" y="-121.5" font-family="Helvetica,sans-Serif" font-size="10.00">ex_argeol</text>
</a>
</g>
</g>
<!-- Node1&#45;&gt;Node29 -->
<g id="edge40" class="edge">
<title>Node1&#45;&gt;Node29</title>
<path fill="none" stroke="midnightblue" d="M900.65,-275.31C892.66,-245.61 874.58,-188.52 845,-148 841.03,-142.57 835.59,-137.59 830.52,-133.59"/>
<polygon fill="midnightblue" stroke="midnightblue" points="897.33,-276.46 903.23,-285.26 904.11,-274.7 897.33,-276.46"/>
</g>
<!-- Node31 -->
<g id="node31" class="node">
<title>Node31</title>
<g id="a_node31"><a xlink:href="ex_8c.html#a2b8907dfb6e95eb16e8a0f1ce0fe5bb6" target="_top" xlink:title=" ">
<polygon fill="white" stroke="black" points="786,-304.5 786,-323.5 845,-323.5 845,-304.5 786,-304.5"/>
<text text-anchor="middle" x="815.5" y="-311.5" font-family="Helvetica,sans-Serif" font-size="10.00">ex_filearg</text>
</a>
</g>
</g>
<!-- Node1&#45;&gt;Node31 -->
<g id="edge44" class="edge">
<title>Node1&#45;&gt;Node31</title>
<path fill="none" stroke="midnightblue" d="M870.75,-302.42C862.31,-304.22 853.37,-306.13 845.25,-307.86"/>
<polygon fill="midnightblue" stroke="midnightblue" points="871.66,-305.8 880.71,-300.29 870.2,-298.96 871.66,-305.8"/>
</g>
<!-- Node4 -->
<g id="node4" class="node">
<title>Node4</title>
<g id="a_node4"><a xlink:href="vi_8h.html#abe53b5c10f94f20cd5ed024371615fa1" target="_top" xlink:title=" ">
<polygon fill="white" stroke="black" points="74,-235.5 74,-254.5 119,-254.5 119,-235.5 74,-235.5"/>
<text text-anchor="middle" x="96.5" y="-242.5" font-family="Helvetica,sans-Serif" font-size="10.00">ex_init</text>
</a>
</g>
</g>
<!-- Node3&#45;&gt;Node4 -->
<g id="edge3" class="edge">
<title>Node3&#45;&gt;Node4</title>
<path fill="none" stroke="midnightblue" d="M432.01,-333.29C358.05,-313.77 180.67,-266.95 119.04,-250.68"/>
<polygon fill="midnightblue" stroke="midnightblue" points="431.17,-336.69 441.73,-335.86 432.96,-329.92 431.17,-336.69"/>
</g>
<!-- Node5 -->
<g id="node5" class="node">
<title>Node5</title>
<g id="a_node5"><a xlink:href="vi_8c.html#a0ddf1224851353fc92bfbff6f499fa97" target="_top" xlink:title=" ">
<polygon fill="white" stroke="black" points="0,-197.5 0,-216.5 38,-216.5 38,-197.5 0,-197.5"/>
<text text-anchor="middle" x="19" y="-204.5" font-family="Helvetica,sans-Serif" font-size="10.00">main</text>
</a>
</g>
</g>
<!-- Node4&#45;&gt;Node5 -->
<g id="edge4" class="edge">
<title>Node4&#45;&gt;Node5</title>
<path fill="none" stroke="midnightblue" d="M67.4,-230.86C57.57,-225.91 46.79,-220.49 38.01,-216.06"/>
<polygon fill="midnightblue" stroke="midnightblue" points="65.94,-234.04 76.45,-235.41 69.09,-227.79 65.94,-234.04"/>
</g>
<!-- Node7 -->
<g id="node7" class="node">
<title>Node7</title>
<g id="a_node7"><a xlink:href="ex_8c.html#a7d848d20211b2e1c868dde98ec5dfae9" target="_top" xlink:title=" ">
<polygon fill="white" stroke="black" points="355,-190.5 355,-209.5 402,-209.5 402,-190.5 355,-190.5"/>
<text text-anchor="middle" x="378.5" y="-197.5" font-family="Helvetica,sans-Serif" font-size="10.00">ex_line</text>
</a>
</g>
</g>
<!-- Node6&#45;&gt;Node7 -->
<g id="edge6" class="edge">
<title>Node6&#45;&gt;Node7</title>
<path fill="none" stroke="midnightblue" d="M546.98,-119.03C506.45,-138.62 433.97,-173.67 399.18,-190.48"/>
<polygon fill="midnightblue" stroke="midnightblue" points="548.6,-122.14 556.08,-114.63 545.55,-115.83 548.6,-122.14"/>
</g>
<!-- Node7&#45;&gt;Node8 -->
<g id="edge7" class="edge">
<title>Node7&#45;&gt;Node8</title>
<path fill="none" stroke="midnightblue" d="M345.41,-187.39C336.26,-183.8 326.45,-179.94 317.84,-176.56"/>
<polygon fill="midnightblue" stroke="midnightblue" points="344.4,-190.76 354.99,-191.16 346.96,-184.24 344.4,-190.76"/>
</g>
<!-- Node8&#45;&gt;Node6 -->
<g id="edge8" class="edge">
<title>Node8&#45;&gt;Node6</title>
<path fill="none" stroke="midnightblue" d="M328.74,-155.4C337.29,-152.79 346.43,-150.15 355,-148 425.89,-130.21 511.14,-115.46 551.94,-108.81"/>
<polygon fill="midnightblue" stroke="midnightblue" points="327.56,-152.1 319.06,-158.43 329.65,-158.78 327.56,-152.1"/>
</g>
<!-- Node9 -->
<g id="node9" class="node">
<title>Node9</title>
<g id="a_node9"><a xlink:href="vi_8h.html#aa75c73cccb4878ec06ea5bf5b1b02295" target="_top" xlink:title=" ">
<polygon fill="white" stroke="black" points="155,-176.5 155,-195.5 230,-195.5 230,-176.5 155,-176.5"/>
<text text-anchor="middle" x="192.5" y="-183.5" font-family="Helvetica,sans-Serif" font-size="10.00">ex_command</text>
</a>
</g>
</g>
<!-- Node8&#45;&gt;Node9 -->
<g id="edge9" class="edge">
<title>Node8&#45;&gt;Node9</title>
<path fill="none" stroke="midnightblue" d="M255.88,-173.91C247.5,-175.53 238.56,-177.26 230.13,-178.9"/>
<polygon fill="midnightblue" stroke="midnightblue" points="256.6,-177.33 265.75,-171.99 255.27,-170.46 256.6,-177.33"/>
</g>
<!-- Node9&#45;&gt;Node4 -->
<g id="edge12" class="edge">
<title>Node9&#45;&gt;Node4</title>
<path fill="none" stroke="midnightblue" d="M167.06,-201.34C149.87,-212.13 127.42,-226.22 112.73,-235.44"/>
<polygon fill="midnightblue" stroke="midnightblue" points="169.37,-204.02 175.98,-195.74 165.65,-198.09 169.37,-204.02"/>
</g>
<!-- Node10 -->
<g id="node10" class="node">
<title>Node10</title>
<g id="a_node10"><a xlink:href="vi_8h.html#ac395e51f25330a6e6033b6d0d22b2076" target="_top" xlink:title=" ">
<polygon fill="white" stroke="black" points="82,-159.5 82,-178.5 111,-178.5 111,-159.5 82,-159.5"/>
<text text-anchor="middle" x="96.5" y="-166.5" font-family="Helvetica,sans-Serif" font-size="10.00">ex</text>
</a>
</g>
</g>
<!-- Node9&#45;&gt;Node10 -->
<g id="edge10" class="edge">
<title>Node9&#45;&gt;Node10</title>
<path fill="none" stroke="midnightblue" d="M144.73,-177.54C132.54,-175.34 120.33,-173.13 111.38,-171.51"/>
<polygon fill="midnightblue" stroke="midnightblue" points="144.42,-181.04 154.89,-179.38 145.67,-174.15 144.42,-181.04"/>
</g>
<!-- Node11 -->
<g id="node11" class="node">
<title>Node11</title>
<g id="a_node11"><a xlink:href="vi_8c.html#a8d808e0f3453afe6600673ee1ea5f828" target="_top" xlink:title=" ">
<polygon fill="white" stroke="black" points="82,-197.5 82,-216.5 111,-216.5 111,-197.5 82,-197.5"/>
<text text-anchor="middle" x="96.5" y="-204.5" font-family="Helvetica,sans-Serif" font-size="10.00">vi</text>
</a>
</g>
</g>
<!-- Node9&#45;&gt;Node11 -->
<g id="edge13" class="edge">
<title>Node9&#45;&gt;Node11</title>
<path fill="none" stroke="midnightblue" d="M145.09,-196.37C132.78,-199.12 120.42,-201.88 111.38,-203.9"/>
<polygon fill="midnightblue" stroke="midnightblue" points="145.89,-199.78 154.89,-194.18 144.37,-192.94 145.89,-199.78"/>
</g>
<!-- Node10&#45;&gt;Node5 -->
<g id="edge11" class="edge">
<title>Node10&#45;&gt;Node5</title>
<path fill="none" stroke="midnightblue" d="M72.56,-180.55C61.48,-186.12 48.39,-192.71 38.04,-197.92"/>
<polygon fill="midnightblue" stroke="midnightblue" points="74.29,-183.59 81.65,-175.97 71.15,-177.34 74.29,-183.59"/>
</g>
<!-- Node11&#45;&gt;Node5 -->
<g id="edge14" class="edge">
<title>Node11&#45;&gt;Node5</title>
<path fill="none" stroke="midnightblue" d="M71.55,-207C60.69,-207 48.07,-207 38.04,-207"/>
<polygon fill="midnightblue" stroke="midnightblue" points="71.65,-210.5 81.65,-207 71.65,-203.5 71.65,-210.5"/>
</g>
<!-- Node14 -->
<g id="node14" class="node">
<title>Node14</title>
<g id="a_node14"><a xlink:href="ex_8c.html#affb8197a8f988443aadf1bf2800a0d0b" target="_top" xlink:title=" ">
<polygon fill="white" stroke="black" points="681.5,-0.5 681.5,-19.5 728.5,-19.5 728.5,-0.5 681.5,-0.5"/>
<text text-anchor="middle" x="705" y="-7.5" font-family="Helvetica,sans-Serif" font-size="10.00">ec_null</text>
</a>
</g>
</g>
<!-- Node13&#45;&gt;Node14 -->
<g id="edge17" class="edge">
<title>Node13&#45;&gt;Node14</title>
<path fill="none" stroke="midnightblue" d="M779.42,-10C762.77,-10 743.35,-10 728.67,-10"/>
<polygon fill="midnightblue" stroke="midnightblue" points="779.88,-13.5 789.88,-10 779.88,-6.5 779.88,-13.5"/>
</g>
<!-- Node15&#45;&gt;Node16 -->
<g id="edge19" class="edge">
<title>Node15&#45;&gt;Node16</title>
<path fill="none" stroke="midnightblue" d="M781.47,-238C765.46,-238 746.53,-238 731.64,-238"/>
<polygon fill="midnightblue" stroke="midnightblue" points="781.49,-241.5 791.49,-238 781.49,-234.5 781.49,-241.5"/>
</g>
<!-- Node17 -->
<g id="node17" class="node">
<title>Node17</title>
<g id="a_node17"><a xlink:href="ex_8c.html#ab0cb848a971a3b2c09fcb456d887dd6b" target="_top" xlink:title=" ">
<polygon fill="white" stroke="black" points="530,-228.5 530,-247.5 624,-247.5 624,-228.5 530,-228.5"/>
<text text-anchor="middle" x="577" y="-235.5" font-family="Helvetica,sans-Serif" font-size="10.00">ex_modifiedbuffer</text>
</a>
</g>
</g>
<!-- Node16&#45;&gt;Node17 -->
<g id="edge20" class="edge">
<title>Node16&#45;&gt;Node17</title>
<path fill="none" stroke="midnightblue" d="M668.19,-238C654.5,-238 638.68,-238 624.15,-238"/>
<polygon fill="midnightblue" stroke="midnightblue" points="668.2,-241.5 678.2,-238 668.2,-234.5 668.2,-241.5"/>
</g>
<!-- Node17&#45;&gt;Node3 -->
<g id="edge21" class="edge">
<title>Node17&#45;&gt;Node3</title>
<path fill="none" stroke="midnightblue" d="M558.54,-254.65C535.47,-276.67 495.59,-314.72 477.03,-332.43"/>
<polygon fill="midnightblue" stroke="midnightblue" points="561.12,-257.03 565.94,-247.6 556.29,-251.97 561.12,-257.03"/>
</g>
<!-- Node17&#45;&gt;Node15 -->
<g id="edge25" class="edge">
<title>Node17&#45;&gt;Node15</title>
<path fill="none" stroke="midnightblue" d="M620.93,-226.12C633.42,-223.19 647.17,-220.47 660,-219 699.74,-214.46 710.41,-213.29 750,-219 763.98,-221.02 779.15,-225.37 791.27,-229.4"/>
<polygon fill="midnightblue" stroke="midnightblue" points="620.09,-222.72 611.21,-228.49 621.76,-229.52 620.09,-222.72"/>
</g>
<!-- Node18 -->
<g id="node18" class="node">
<title>Node18</title>
<g id="a_node18"><a xlink:href="ex_8c.html#adcd83f163f659bd2596bcfc25d74bde9" target="_top" xlink:title=" ">
<polygon fill="white" stroke="black" points="439.5,-228.5 439.5,-247.5 492.5,-247.5 492.5,-228.5 439.5,-228.5"/>
<text text-anchor="middle" x="466" y="-235.5" font-family="Helvetica,sans-Serif" font-size="10.00">ec_exec</text>
</a>
</g>
</g>
<!-- Node17&#45;&gt;Node18 -->
<g id="edge22" class="edge">
<title>Node17&#45;&gt;Node18</title>
<path fill="none" stroke="midnightblue" d="M519.52,-238C510.06,-238 500.67,-238 492.51,-238"/>
<polygon fill="midnightblue" stroke="midnightblue" points="519.77,-241.5 529.77,-238 519.77,-234.5 519.77,-241.5"/>
</g>
<!-- Node19 -->
<g id="node19" class="node">
<title>Node19</title>
<g id="a_node19"><a xlink:href="ex_8c.html#aa69f426ff9728078fbb36f448c624a90" target="_top" xlink:title=" ">
<polygon fill="white" stroke="black" points="438,-285.5 438,-304.5 494,-304.5 494,-285.5 438,-285.5"/>
<text text-anchor="middle" x="466" y="-292.5" font-family="Helvetica,sans-Serif" font-size="10.00">ec_make</text>
</a>
</g>
</g>
<!-- Node17&#45;&gt;Node19 -->
<g id="edge24" class="edge">
<title>Node17&#45;&gt;Node19</title>
<path fill="none" stroke="midnightblue" d="M548.63,-252.31C528.8,-262.68 502.53,-276.42 485.22,-285.47"/>
<polygon fill="midnightblue" stroke="midnightblue" points="550.27,-255.4 557.51,-247.67 547.03,-249.2 550.27,-255.4"/>
</g>
<!-- Node18&#45;&gt;Node7 -->
<g id="edge23" class="edge">
<title>Node18&#45;&gt;Node7</title>
<path fill="none" stroke="midnightblue" d="M434.16,-224.29C423.19,-219.42 411.09,-214.04 401.07,-209.59"/>
<polygon fill="midnightblue" stroke="midnightblue" points="432.87,-227.55 443.42,-228.41 435.71,-221.15 432.87,-227.55"/>
</g>
<!-- Node21&#45;&gt;Node2 -->
<g id="edge29" class="edge">
<title>Node21&#45;&gt;Node2</title>
<path fill="none" stroke="midnightblue" d="M812.99,-580.86C809.1,-618.66 795.6,-701.58 750,-751 745.49,-755.89 739.5,-759.58 733.39,-762.34"/>
<polygon fill="midnightblue" stroke="midnightblue" points="816.5,-580.94 813.91,-570.67 809.52,-580.31 816.5,-580.94"/>
</g>
<!-- Node21&#45;&gt;Node12 -->
<g id="edge32" class="edge">
<title>Node21&#45;&gt;Node12</title>
<path fill="none" stroke="midnightblue" d="M808.25,-580.5C796.27,-616.92 769.5,-693.37 750,-713 745.31,-717.72 739.25,-721.35 733.14,-724.1"/>
<polygon fill="midnightblue" stroke="midnightblue" points="811.71,-581.18 811.47,-570.59 805.05,-579.02 811.71,-581.18"/>
</g>
<!-- Node21&#45;&gt;Node16 -->
<g id="edge37" class="edge">
<title>Node21&#45;&gt;Node16</title>
<path fill="none" stroke="midnightblue" d="M808.04,-541.76C787.51,-480.66 724.28,-292.41 709.23,-247.63"/>
<polygon fill="midnightblue" stroke="midnightblue" points="804.75,-542.97 811.25,-551.33 811.39,-540.74 804.75,-542.97"/>
</g>
<!-- Node21&#45;&gt;Node20 -->
<g id="edge38" class="edge">
<title>Node21&#45;&gt;Node20</title>
<path fill="none" stroke="midnightblue" d="M802.81,-542.93C791.13,-526.07 771.83,-501.16 750,-485 745.05,-481.34 739.29,-478.2 733.59,-475.6"/>
<polygon fill="midnightblue" stroke="midnightblue" points="799.99,-545.01 808.47,-551.36 805.8,-541.11 799.99,-545.01"/>
</g>
<!-- Node22 -->
<g id="node22" class="node">
<title>Node22</title>
<g id="a_node22"><a xlink:href="ex_8c.html#a4cd0748447515b7a935e4bb41424a9e4" target="_top" xlink:title=" ">
<polygon fill="white" stroke="black" points="675.5,-570.5 675.5,-589.5 734.5,-589.5 734.5,-570.5 675.5,-570.5"/>
<text text-anchor="middle" x="705" y="-577.5" font-family="Helvetica,sans-Serif" font-size="10.00">ec_delete</text>
</a>
</g>
</g>
<!-- Node21&#45;&gt;Node22 -->
<g id="edge30" class="edge">
<title>Node21&#45;&gt;Node22</title>
<path fill="none" stroke="midnightblue" d="M782.35,-566.63C767.26,-569.27 749.43,-572.4 734.79,-574.96"/>
<polygon fill="midnightblue" stroke="midnightblue" points="783.04,-570.06 792.28,-564.89 781.83,-563.17 783.04,-570.06"/>
</g>
<!-- Node23 -->
<g id="node23" class="node">
<title>Node23</title>
<g id="a_node23"><a xlink:href="ex_8c.html#a96a40531d1096a618d29639f2e42710b" target="_top" xlink:title=" ">
<polygon fill="white" stroke="black" points="686,-532.5 686,-551.5 724,-551.5 724,-532.5 686,-532.5"/>
<text text-anchor="middle" x="705" y="-539.5" font-family="Helvetica,sans-Serif" font-size="10.00">ec_ft</text>
</a>
</g>
</g>
<!-- Node21&#45;&gt;Node23 -->
<g id="edge31" class="edge">
<title>Node21&#45;&gt;Node23</title>
<path fill="none" stroke="midnightblue" d="M782.27,-555.36C763.32,-552.04 740.05,-547.96 724.23,-545.19"/>
<polygon fill="midnightblue" stroke="midnightblue" points="781.83,-558.83 792.28,-557.11 783.04,-551.94 781.83,-558.83"/>
</g>
<!-- Node24 -->
<g id="node24" class="node">
<title>Node24</title>
<g id="a_node24"><a xlink:href="ex_8c.html#ab95c9f0f009989c44f3ebb5abae4054d" target="_top" xlink:title=" ">
<polygon fill="white" stroke="black" points="678,-494.5 678,-513.5 732,-513.5 732,-494.5 678,-494.5"/>
<text text-anchor="middle" x="705" y="-501.5" font-family="Helvetica,sans-Serif" font-size="10.00">ec_mark</text>
</a>
</g>
</g>
<!-- Node21&#45;&gt;Node24 -->
<g id="edge33" class="edge">
<title>Node21&#45;&gt;Node24</title>
<path fill="none" stroke="midnightblue" d="M790.86,-546.12C778.83,-538.79 763.85,-530.04 750,-523 743.47,-519.68 736.23,-516.4 729.54,-513.52"/>
<polygon fill="midnightblue" stroke="midnightblue" points="789.07,-549.12 799.42,-551.39 792.75,-543.17 789.07,-549.12"/>
</g>
<!-- Node25 -->
<g id="node25" class="node">
<title>Node25</title>
<g id="a_node25"><a xlink:href="ex_8c.html#ab417867ff867aff9f7277229990cd1b8" target="_top" xlink:title=" ">
<polygon fill="white" stroke="black" points="682,-684.5 682,-703.5 728,-703.5 728,-684.5 682,-684.5"/>
<text text-anchor="middle" x="705" y="-691.5" font-family="Helvetica,sans-Serif" font-size="10.00">ec_put</text>
</a>
</g>
</g>
<!-- Node21&#45;&gt;Node25 -->
<g id="edge34" class="edge">
<title>Node21&#45;&gt;Node25</title>
<path fill="none" stroke="midnightblue" d="M807.98,-580.36C798.7,-605.29 779.47,-648.53 750,-675 743.81,-680.56 735.74,-684.68 728.21,-687.63"/>
<polygon fill="midnightblue" stroke="midnightblue" points="811.4,-581.21 811.45,-570.62 804.8,-578.87 811.4,-581.21"/>
</g>
<!-- Node26 -->
<g id="node26" class="node">
<title>Node26</title>
<g id="a_node26"><a xlink:href="ex_8c.html#add0e79e1f1e3d45f4eaa6fbe5c1ca443" target="_top" xlink:title=" ">
<polygon fill="white" stroke="black" points="679.5,-418.5 679.5,-437.5 730.5,-437.5 730.5,-418.5 679.5,-418.5"/>
<text text-anchor="middle" x="705" y="-425.5" font-family="Helvetica,sans-Serif" font-size="10.00">ec_read</text>
</a>
</g>
</g>
<!-- Node21&#45;&gt;Node26 -->
<g id="edge35" class="edge">
<title>Node21&#45;&gt;Node26</title>
<path fill="none" stroke="midnightblue" d="M807.98,-541.64C798.7,-516.71 779.47,-473.47 750,-447 744.55,-442.11 737.65,-438.33 730.94,-435.49"/>
<polygon fill="midnightblue" stroke="midnightblue" points="804.8,-543.13 811.45,-551.38 811.4,-540.79 804.8,-543.13"/>
</g>
<!-- Node27 -->
<g id="node27" class="node">
<title>Node27</title>
<g id="a_node27"><a xlink:href="ex_8c.html#a98764f0b4faf5fd4b8baff03a7d73a6e" target="_top" xlink:title=" ">
<polygon fill="white" stroke="black" points="682,-646.5 682,-665.5 728,-665.5 728,-646.5 682,-646.5"/>
<text text-anchor="middle" x="705" y="-653.5" font-family="Helvetica,sans-Serif" font-size="10.00">ec_set</text>
</a>
</g>
</g>
<!-- Node21&#45;&gt;Node27 -->
<g id="edge36" class="edge">
<title>Node21&#45;&gt;Node27</title>
<path fill="none" stroke="midnightblue" d="M802.81,-579.07C791.13,-595.93 771.83,-620.84 750,-637 743.45,-641.85 735.46,-645.77 728.1,-648.77"/>
<polygon fill="midnightblue" stroke="midnightblue" points="805.8,-580.89 808.47,-570.64 799.99,-576.99 805.8,-580.89"/>
</g>
<!-- Node28 -->
<g id="node28" class="node">
<title>Node28</title>
<g id="a_node28"><a xlink:href="ex_8c.html#a487b22f0ae712d3338f5e9d8d6fa8540" target="_top" xlink:title=" ">
<polygon fill="white" stroke="black" points="678.5,-608.5 678.5,-627.5 731.5,-627.5 731.5,-608.5 678.5,-608.5"/>
<text text-anchor="middle" x="705" y="-615.5" font-family="Helvetica,sans-Serif" font-size="10.00">ec_yank</text>
</a>
</g>
</g>
<!-- Node21&#45;&gt;Node28 -->
<g id="edge39" class="edge">
<title>Node21&#45;&gt;Node28</title>
<path fill="none" stroke="midnightblue" d="M790.86,-575.88C778.83,-583.21 763.85,-591.96 750,-599 743.47,-602.32 736.23,-605.6 729.54,-608.48"/>
<polygon fill="midnightblue" stroke="midnightblue" points="792.75,-578.83 799.42,-570.61 789.07,-572.88 792.75,-578.83"/>
</g>
<!-- Node29&#45;&gt;Node6 -->
<g id="edge41" class="edge">
<title>Node29&#45;&gt;Node6</title>
<path fill="none" stroke="midnightblue" d="M775.74,-120.89C726.6,-116.94 643.36,-110.25 602.34,-106.96"/>
<polygon fill="midnightblue" stroke="midnightblue" points="775.72,-124.4 785.97,-121.71 776.29,-117.42 775.72,-124.4"/>
</g>
<!-- Node30 -->
<g id="node30" class="node">
<title>Node30</title>
<g id="a_node30"><a xlink:href="ex_8c.html#aaf4e813ce4370aa859181d22de51576b" target="_top" xlink:title=" ">
<polygon fill="white" stroke="black" points="667.5,-76.5 667.5,-95.5 742.5,-95.5 742.5,-76.5 667.5,-76.5"/>
<text text-anchor="middle" x="705" y="-83.5" font-family="Helvetica,sans-Serif" font-size="10.00">ec_substitute</text>
</a>
</g>
</g>
<!-- Node29&#45;&gt;Node30 -->
<g id="edge42" class="edge">
<title>Node29&#45;&gt;Node30</title>
<path fill="none" stroke="midnightblue" d="M777.46,-111.03C763.01,-105.97 746.73,-100.27 733.37,-95.59"/>
<polygon fill="midnightblue" stroke="midnightblue" points="776.53,-114.41 787.12,-114.41 778.84,-107.8 776.53,-114.41"/>
</g>
<!-- Node31&#45;&gt;Node3 -->
<g id="edge45" class="edge">
<title>Node31&#45;&gt;Node3</title>
<path fill="none" stroke="midnightblue" d="M775.86,-318.41C767.35,-319.32 758.37,-320.24 750,-321 653.59,-329.81 538.45,-337.47 490.13,-340.55"/>
<polygon fill="midnightblue" stroke="midnightblue" points="776.38,-321.87 785.94,-317.31 775.62,-314.92 776.38,-321.87"/>
</g>
<!-- Node31&#45;&gt;Node16 -->
<g id="edge49" class="edge">
<title>Node31&#45;&gt;Node16</title>
<path fill="none" stroke="midnightblue" d="M795.15,-297.77C779.62,-284.86 758.98,-268 750,-262 742.19,-256.78 733.13,-251.69 725.28,-247.56"/>
<polygon fill="midnightblue" stroke="midnightblue" points="793.23,-300.72 803.15,-304.44 797.71,-295.35 793.23,-300.72"/>
</g>
<!-- Node31&#45;&gt;Node18 -->
<g id="edge46" class="edge">
<title>Node31&#45;&gt;Node18</title>
<path fill="none" stroke="midnightblue" d="M776.12,-306.26C767.53,-304.52 758.45,-302.7 750,-301 652.24,-281.37 626.73,-281.2 530,-257 517.59,-253.89 503.98,-249.87 492.59,-246.32"/>
<polygon fill="midnightblue" stroke="midnightblue" points="775.43,-309.69 785.93,-308.23 776.81,-302.82 775.43,-309.69"/>
</g>
<!-- Node31&#45;&gt;Node19 -->
<g id="edge47" class="edge">
<title>Node31&#45;&gt;Node19</title>
<path fill="none" stroke="midnightblue" d="M775.46,-311.87C704.41,-307.98 555.64,-299.85 494.32,-296.49"/>
<polygon fill="midnightblue" stroke="midnightblue" points="775.59,-315.38 785.77,-312.43 775.97,-308.39 775.59,-315.38"/>
</g>
<!-- Node31&#45;&gt;Node26 -->
<g id="edge48" class="edge">
<title>Node31&#45;&gt;Node26</title>
<path fill="none" stroke="midnightblue" d="M798.18,-331.15C775.08,-355.42 733.62,-398.98 715.23,-418.31"/>
<polygon fill="midnightblue" stroke="midnightblue" points="800.89,-333.38 805.25,-323.72 795.82,-328.55 800.89,-333.38"/>
</g>
</g>
</svg>
        <g id="navigator" transform="translate(0 0)" fill="#404254">
                <rect fill="#f2f5e9" fill-opacity="0.5" stroke="#606060" stroke-width=".5" x="0" y="0" width="60" height="60"/>
                <use id="zoomplus" xlink:href="#zoomPlus" x="17" y="9" onmousedown="handleZoom(evt,'in')"/>
                <use id="zoomminus" xlink:href="#zoomMin" x="42" y="9" onmousedown="handleZoom(evt,'out')"/>
                <use id="reset" xlink:href="#resetDef" x="30" y="36" onmousedown="handleReset()"/>
                <g id="arrowUp" xlink:href="#dirArrow" transform="translate(30 24)" onmousedown="handlePan(0,-1)">
                  <use xlink:href="#rim" fill="#404040">
                        <set attributeName="fill" to="#808080" begin="arrowUp.mouseover" end="arrowUp.mouseout"/>
                  </use>
                  <path fill="none" stroke="white" stroke-width="1.5" d="M0,-3.0v7 M-2.5,-0.5L0,-3.0L2.5,-0.5"/>
                </g>
                <g id="arrowRight" xlink:href="#dirArrow" transform="rotate(90) translate(36 -43)" onmousedown="handlePan(1,0)">
                  <use xlink:href="#rim" fill="#404040">
                        <set attributeName="fill" to="#808080" begin="arrowRight.mouseover" end="arrowRight.mouseout"/>
                  </use>
                  <path fill="none" stroke="white" stroke-width="1.5" d="M0,-3.0v7 M-2.5,-0.5L0,-3.0L2.5,-0.5"/>
                </g>
                <g id="arrowDown" xlink:href="#dirArrow" transform="rotate(180) translate(-30 -48)" onmousedown="handlePan(0,1)">
                  <use xlink:href="#rim" fill="#404040">
                        <set attributeName="fill" to="#808080" begin="arrowDown.mouseover" end="arrowDown.mouseout"/>
                  </use>
                  <path fill="none" stroke="white" stroke-width="1.5" d="M0,-3.0v7 M-2.5,-0.5L0,-3.0L2.5,-0.5"/>
                </g>
                <g id="arrowLeft" xlink:href="#dirArrow" transform="rotate(270) translate(-36 17)" onmousedown="handlePan(-1,0)">
                  <use xlink:href="#rim" fill="#404040">
                        <set attributeName="fill" to="#808080" begin="arrowLeft.mouseover" end="arrowLeft.mouseout"/>
                  </use>
                  <path fill="none" stroke="white" stroke-width="1.5" d="M0,-3.0v7 M-2.5,-0.5L0,-3.0L2.5,-0.5"/>
                </g>
        </g>
        <svg viewBox="0 0 15 15" width="100%" height="30px" preserveAspectRatio="xMaxYMin meet">
         <g id="arrow_out" transform="scale(0.3 0.3)">
          <a xlink:href="ex_8c_ac81e7e5f5a7172bb68069a443e15d8c1_icgraph_org.svg" target="_base">
           <rect id="button" ry="5" rx="5" y="6" x="6" height="38" width="38"
                fill="#f2f5e9" fill-opacity="0.5" stroke="#606060" stroke-width="1.0"/>
           <path id="arrow"
             d="M 11.500037,31.436501 C 11.940474,20.09759 22.043105,11.32322 32.158766,21.979434 L 37.068811,17.246167 C 37.068811,17.246167 37.088388,32 37.088388,32 L 22.160133,31.978069 C 22.160133,31.978069 26.997745,27.140456 26.997745,27.140456 C 18.528582,18.264221 13.291696,25.230495 11.500037,31.436501 z"
             style="fill:#404040;"/>
          </a>
         </g>
        </svg>
</svg>
