<?xml version="1.0" encoding="UTF-8" standalone="no"?>
<!DOCTYPE svg PUBLIC "-//W3C//DTD SVG 1.1//EN"
 "http://www.w3.org/Graphics/SVG/1.1/DTD/svg11.dtd">
<!-- Generated by graphviz version 2.44.1 (20200629.0846)
 -->
<!-- Title: lbuf_undo Pages: 1 -->
<svg width="381pt" height="146pt"
 viewBox="0.00 0.00 381.00 145.74" xmlns="http://www.w3.org/2000/svg" xmlns:xlink="http://www.w3.org/1999/xlink">
<g id="graph0" class="graph" transform="scale(1 1) rotate(0) translate(4 141.74)">
<title>lbuf_undo</title>
<polygon fill="white" stroke="transparent" points="-4,4 -4,-141.74 377,-141.74 377,4 -4,4"/>
<!-- Node1 -->
<g id="node1" class="node">
<title>Node1</title>
<g id="a_node1"><a xlink:title=" ">
<polygon fill="#bfbfbf" stroke="black" points="0,-80.24 0,-99.24 59,-99.24 59,-80.24 0,-80.24"/>
<text text-anchor="middle" x="29.5" y="-87.24" font-family="Helvetica,sans-Serif" font-size="10.00">lbuf_undo</text>
</a>
</g>
</g>
<!-- Node2 -->
<g id="node2" class="node">
<title>Node2</title>
<g id="a_node2"><a xlink:href="lbuf_8c.html#abdc4cc1ce1eb1d8a88b046be72dd2a11" target="_top" xlink:title=" ">
<polygon fill="white" stroke="black" points="95,-118.24 95,-137.24 172,-137.24 172,-118.24 95,-118.24"/>
<text text-anchor="middle" x="133.5" y="-125.24" font-family="Helvetica,sans-Serif" font-size="10.00">lbuf_loadmark</text>
</a>
</g>
</g>
<!-- Node1&#45;&gt;Node2 -->
<g id="edge1" class="edge">
<title>Node1&#45;&gt;Node2</title>
<path fill="none" stroke="midnightblue" d="M56.24,-99.33C68.68,-103.96 83.81,-109.6 97.3,-114.63"/>
<polygon fill="midnightblue" stroke="midnightblue" points="96.18,-117.94 106.77,-118.15 98.62,-111.38 96.18,-117.94"/>
</g>
<!-- Node3 -->
<g id="node3" class="node">
<title>Node3</title>
<g id="a_node3"><a xlink:href="lbuf_8c.html#ab80e32f732eac6af01c013ad5f802561" target="_top" xlink:title=" ">
<polygon fill="white" stroke="black" points="208,-90.24 208,-109.24 279,-109.24 279,-90.24 208,-90.24"/>
<text text-anchor="middle" x="243.5" y="-97.24" font-family="Helvetica,sans-Serif" font-size="10.00">lbuf_loadpos</text>
</a>
</g>
</g>
<!-- Node1&#45;&gt;Node3 -->
<g id="edge2" class="edge">
<title>Node1&#45;&gt;Node3</title>
<path fill="none" stroke="midnightblue" d="M59.09,-91.09C94.62,-92.76 155.66,-95.64 197.49,-97.62"/>
<polygon fill="midnightblue" stroke="midnightblue" points="197.53,-101.12 207.69,-98.1 197.86,-94.13 197.53,-101.12"/>
</g>
<!-- Node5 -->
<g id="node5" class="node">
<title>Node5</title>
<g id="a_node5"><a xlink:href="lbuf_8c.html#a7d6629efef5a5cbd324d82e2b0c07c5d" target="_top" xlink:title=" ">
<polygon fill="white" stroke="black" points="99,-33.24 99,-52.24 168,-52.24 168,-33.24 99,-33.24"/>
<text text-anchor="middle" x="133.5" y="-40.24" font-family="Helvetica,sans-Serif" font-size="10.00">lbuf_replace</text>
</a>
</g>
</g>
<!-- Node1&#45;&gt;Node5 -->
<g id="edge4" class="edge">
<title>Node1&#45;&gt;Node5</title>
<path fill="none" stroke="midnightblue" d="M51.14,-80.23C65.84,-73.46 85.82,-64.25 102.3,-56.65"/>
<polygon fill="midnightblue" stroke="midnightblue" points="103.92,-59.76 111.54,-52.4 100.99,-53.4 103.92,-59.76"/>
</g>
<!-- Node4 -->
<g id="node4" class="node">
<title>Node4</title>
<g id="a_node4"><a xlink:href="lbuf_8c.html#a69221917b521da2cd5f804a9f4694f1a" target="_top" xlink:title=" ">
<polygon fill="white" stroke="black" points="318.5,-61.24 318.5,-80.24 369.5,-80.24 369.5,-61.24 318.5,-61.24"/>
<text text-anchor="middle" x="344" y="-68.24" font-family="Helvetica,sans-Serif" font-size="10.00">markidx</text>
</a>
</g>
</g>
<!-- Node3&#45;&gt;Node4 -->
<g id="edge3" class="edge">
<title>Node3&#45;&gt;Node4</title>
<path fill="none" stroke="midnightblue" d="M277.03,-90.16C287.11,-87.19 298.26,-83.91 308.48,-80.9"/>
<polygon fill="midnightblue" stroke="midnightblue" points="309.71,-84.19 318.31,-78.01 307.73,-77.48 309.71,-84.19"/>
</g>
<!-- Node6 -->
<g id="node6" class="node">
<title>Node6</title>
<g id="a_node6"><a xlink:href="lbuf_8c.html#a5a34f3f60dfd5ea06207d96d821da368" target="_top" xlink:title=" ">
<polygon fill="white" stroke="black" points="214,-52.24 214,-71.24 273,-71.24 273,-52.24 214,-52.24"/>
<text text-anchor="middle" x="243.5" y="-59.24" font-family="Helvetica,sans-Serif" font-size="10.00">lbuf_mark</text>
</a>
</g>
</g>
<!-- Node5&#45;&gt;Node6 -->
<g id="edge5" class="edge">
<title>Node5&#45;&gt;Node6</title>
<path fill="none" stroke="midnightblue" d="M168.08,-48.65C179.38,-50.64 192.08,-52.87 203.75,-54.92"/>
<polygon fill="midnightblue" stroke="midnightblue" points="203.22,-58.38 213.68,-56.67 204.44,-51.49 203.22,-58.38"/>
</g>
<!-- Node7 -->
<g id="node7" class="node">
<title>Node7</title>
<g id="a_node7"><a xlink:href="lbuf_8c.html#ab41193f3312b21588338e92e1b144f87" target="_top" xlink:title=" ">
<polygon fill="white" stroke="black" points="215.5,-14.24 215.5,-33.24 271.5,-33.24 271.5,-14.24 215.5,-14.24"/>
<text text-anchor="middle" x="243.5" y="-21.24" font-family="Helvetica,sans-Serif" font-size="10.00">linecount</text>
</a>
</g>
</g>
<!-- Node5&#45;&gt;Node7 -->
<g id="edge7" class="edge">
<title>Node5&#45;&gt;Node7</title>
<path fill="none" stroke="midnightblue" d="M168.08,-36.83C179.98,-34.74 193.43,-32.37 205.59,-30.23"/>
<polygon fill="midnightblue" stroke="midnightblue" points="206.2,-33.68 215.45,-28.5 204.99,-26.79 206.2,-33.68"/>
</g>
<!-- Node8 -->
<g id="node8" class="node">
<title>Node8</title>
<g id="a_node8"><a xlink:href="lbuf_8c.html#ac559857979b20ce0c64638c9e3e4edec" target="_top" xlink:title=" ">
<polygon fill="white" stroke="black" points="315,-4.24 315,-23.24 373,-23.24 373,-4.24 315,-4.24"/>
<text text-anchor="middle" x="344" y="-11.24" font-family="Helvetica,sans-Serif" font-size="10.00">linelength</text>
</a>
</g>
</g>
<!-- Node5&#45;&gt;Node8 -->
<g id="edge9" class="edge">
<title>Node5&#45;&gt;Node8</title>
<path fill="none" stroke="midnightblue" d="M148.07,-33.18C162.25,-23.83 185.53,-10.21 208,-4.74 240.08,3.06 277.62,-0.42 304.97,-5.14"/>
<polygon fill="midnightblue" stroke="midnightblue" points="304.44,-8.6 314.91,-6.99 305.72,-1.72 304.44,-8.6"/>
</g>
<!-- Node6&#45;&gt;Node4 -->
<g id="edge6" class="edge">
<title>Node6&#45;&gt;Node4</title>
<path fill="none" stroke="midnightblue" d="M273.26,-64.37C284.21,-65.37 296.81,-66.52 308.27,-67.57"/>
<polygon fill="midnightblue" stroke="midnightblue" points="308.1,-71.07 318.38,-68.49 308.74,-64.09 308.1,-71.07"/>
</g>
<!-- Node7&#45;&gt;Node8 -->
<g id="edge8" class="edge">
<title>Node7&#45;&gt;Node8</title>
<path fill="none" stroke="midnightblue" d="M271.68,-20.98C281.86,-19.95 293.63,-18.75 304.64,-17.63"/>
<polygon fill="midnightblue" stroke="midnightblue" points="305.29,-21.09 314.88,-16.59 304.58,-14.12 305.29,-21.09"/>
</g>
</g>
</svg>
