<?xml version="1.0" encoding="UTF-8" standalone="no"?>
<!DOCTYPE svg PUBLIC "-//W3C//DTD SVG 1.1//EN"
 "http://www.w3.org/Graphics/SVG/1.1/DTD/svg11.dtd">
<!-- Generated by graphviz version 2.44.1 (20200629.0846)
 -->
<!-- Title: led_markrev Pages: 1 -->
<svg width="397pt" height="104pt"
 viewBox="0.00 0.00 397.00 104.00" xmlns="http://www.w3.org/2000/svg" xmlns:xlink="http://www.w3.org/1999/xlink">
<g id="graph0" class="graph" transform="scale(1 1) rotate(0) translate(4 100)">
<title>led_markrev</title>
<polygon fill="white" stroke="transparent" points="-4,4 -4,-100 393,-100 393,4 -4,4"/>
<!-- Node1 -->
<g id="node1" class="node">
<title>Node1</title>
<g id="a_node1"><a xlink:title=" ">
<polygon fill="#bfbfbf" stroke="black" points="0,-38.5 0,-57.5 70,-57.5 70,-38.5 0,-38.5"/>
<text text-anchor="middle" x="35" y="-45.5" font-family="Helvetica,sans-Serif" font-size="10.00">led_markrev</text>
</a>
</g>
</g>
<!-- Node2 -->
<g id="node2" class="node">
<title>Node2</title>
<g id="a_node2"><a xlink:href="conf_8c.html#a3eba9139f1834af92b8aa5798b7bb245" target="_top" xlink:title=" ">
<polygon fill="white" stroke="black" points="107.5,-76.5 107.5,-95.5 169.5,-95.5 169.5,-76.5 107.5,-76.5"/>
<text text-anchor="middle" x="138.5" y="-83.5" font-family="Helvetica,sans-Serif" font-size="10.00">conf_hlrev</text>
</a>
</g>
</g>
<!-- Node1&#45;&gt;Node2 -->
<g id="edge1" class="edge">
<title>Node1&#45;&gt;Node2</title>
<path fill="none" stroke="midnightblue" d="M61.61,-57.59C73.99,-62.22 89.05,-67.86 102.47,-72.89"/>
<polygon fill="midnightblue" stroke="midnightblue" points="101.3,-76.19 111.9,-76.41 103.76,-69.63 101.3,-76.19"/>
</g>
<!-- Node3 -->
<g id="node3" class="node">
<title>Node3</title>
<g id="a_node3"><a xlink:href="led_8c.html#abe94d8903f6c60b7460583ba6f6611b5" target="_top" xlink:title=" ">
<polygon fill="white" stroke="black" points="110.5,-38.5 110.5,-57.5 166.5,-57.5 166.5,-38.5 110.5,-38.5"/>
<text text-anchor="middle" x="138.5" y="-45.5" font-family="Helvetica,sans-Serif" font-size="10.00">led_offdir</text>
</a>
</g>
</g>
<!-- Node1&#45;&gt;Node3 -->
<g id="edge2" class="edge">
<title>Node1&#45;&gt;Node3</title>
<path fill="none" stroke="midnightblue" d="M70.08,-48C79.72,-48 90.27,-48 100.1,-48"/>
<polygon fill="midnightblue" stroke="midnightblue" points="100.4,-51.5 110.4,-48 100.4,-44.5 100.4,-51.5"/>
</g>
<!-- Node7 -->
<g id="node7" class="node">
<title>Node7</title>
<g id="a_node7"><a xlink:href="syn_8c.html#a3c3478da43bbbba6173c2cc5e8c0ead3" target="_top" xlink:title=" ">
<polygon fill="white" stroke="black" points="106,-0.5 106,-19.5 171,-19.5 171,-0.5 106,-0.5"/>
<text text-anchor="middle" x="138.5" y="-7.5" font-family="Helvetica,sans-Serif" font-size="10.00">syn_merge</text>
</a>
</g>
</g>
<!-- Node1&#45;&gt;Node7 -->
<g id="edge6" class="edge">
<title>Node1&#45;&gt;Node7</title>
<path fill="none" stroke="midnightblue" d="M61.61,-38.41C73.99,-33.78 89.05,-28.14 102.47,-23.11"/>
<polygon fill="midnightblue" stroke="midnightblue" points="103.76,-26.37 111.9,-19.59 101.3,-19.81 103.76,-26.37"/>
</g>
<!-- Node4 -->
<g id="node4" class="node">
<title>Node4</title>
<g id="a_node4"><a xlink:href="ren_8c.html#a319a71758607f19d2beedd2bd4d3b369" target="_top" xlink:title=" ">
<polygon fill="white" stroke="black" points="207,-38.5 207,-57.5 263,-57.5 263,-38.5 207,-38.5"/>
<text text-anchor="middle" x="235" y="-45.5" font-family="Helvetica,sans-Serif" font-size="10.00">ren_cwid</text>
</a>
</g>
</g>
<!-- Node3&#45;&gt;Node4 -->
<g id="edge3" class="edge">
<title>Node3&#45;&gt;Node4</title>
<path fill="none" stroke="midnightblue" d="M166.58,-48C175.97,-48 186.67,-48 196.74,-48"/>
<polygon fill="midnightblue" stroke="midnightblue" points="196.92,-51.5 206.92,-48 196.92,-44.5 196.92,-51.5"/>
</g>
<!-- Node5 -->
<g id="node5" class="node">
<title>Node5</title>
<g id="a_node5"><a xlink:href="conf_8c.html#ab1da6502eeb02af2fb9fa8a84515b0b6" target="_top" xlink:title=" ">
<polygon fill="white" stroke="black" points="299,-57.5 299,-76.5 389,-76.5 389,-57.5 299,-57.5"/>
<text text-anchor="middle" x="344" y="-64.5" font-family="Helvetica,sans-Serif" font-size="10.00">conf_placeholder</text>
</a>
</g>
</g>
<!-- Node4&#45;&gt;Node5 -->
<g id="edge4" class="edge">
<title>Node4&#45;&gt;Node5</title>
<path fill="none" stroke="midnightblue" d="M263,-52.79C270.92,-54.2 279.87,-55.79 288.85,-57.38"/>
<polygon fill="midnightblue" stroke="midnightblue" points="288.48,-60.87 298.94,-59.18 289.7,-53.98 288.48,-60.87"/>
</g>
<!-- Node6 -->
<g id="node6" class="node">
<title>Node6</title>
<g id="a_node6"><a xlink:href="uc_8c.html#a45fdc2f2f3cb34515f1014bf754741bb" target="_top" xlink:title=" ">
<polygon fill="white" stroke="black" points="317.5,-19.5 317.5,-38.5 370.5,-38.5 370.5,-19.5 317.5,-19.5"/>
<text text-anchor="middle" x="344" y="-26.5" font-family="Helvetica,sans-Serif" font-size="10.00">uc_code</text>
</a>
</g>
</g>
<!-- Node4&#45;&gt;Node6 -->
<g id="edge5" class="edge">
<title>Node4&#45;&gt;Node6</title>
<path fill="none" stroke="midnightblue" d="M263,-43.21C276.45,-40.82 292.89,-37.9 307.36,-35.33"/>
<polygon fill="midnightblue" stroke="midnightblue" points="308.25,-38.73 317.48,-33.53 307.02,-31.83 308.25,-38.73"/>
</g>
</g>
</svg>
