<?xml version="1.0" encoding="UTF-8" standalone="no"?>
<!DOCTYPE svg PUBLIC "-//W3C//DTD SVG 1.1//EN"
 "http://www.w3.org/Graphics/SVG/1.1/DTD/svg11.dtd">
<!-- Generated by graphviz version 2.44.1 (20200629.0846)
 -->
<!-- Title: td_set Pages: 1 -->
<svg width="710pt" height="291pt"
 viewBox="0.00 0.00 710.00 290.70" xmlns="http://www.w3.org/2000/svg" xmlns:xlink="http://www.w3.org/1999/xlink">
<g id="graph0" class="graph" transform="scale(1 1) rotate(0) translate(4 286.7)">
<title>td_set</title>
<polygon fill="white" stroke="transparent" points="-4,4 -4,-286.7 706,-286.7 706,4 -4,4"/>
<!-- Node1 -->
<g id="node1" class="node">
<title>Node1</title>
<g id="a_node1"><a xlink:title=" ">
<polygon fill="#bfbfbf" stroke="black" points="658,-148.52 658,-167.52 702,-167.52 702,-148.52 658,-148.52"/>
<text text-anchor="middle" x="680" y="-155.52" font-family="Helvetica,sans-Serif" font-size="10.00">td_set</text>
</a>
</g>
</g>
<!-- Node2 -->
<g id="node2" class="node">
<title>Node2</title>
<g id="a_node2"><a xlink:href="vi_8h.html#a7838c5ed4623338b3fa9b2c6da4485eb" target="_top" xlink:title=" ">
<polygon fill="white" stroke="black" points="550,-186.52 550,-205.52 622,-205.52 622,-186.52 550,-186.52"/>
<text text-anchor="middle" x="586" y="-193.52" font-family="Helvetica,sans-Serif" font-size="10.00">led_printmsg</text>
</a>
</g>
</g>
<!-- Node1&#45;&gt;Node2 -->
<g id="edge1" class="edge">
<title>Node1&#45;&gt;Node2</title>
<path fill="none" stroke="midnightblue" d="M648.14,-170.77C635.73,-175.89 621.67,-181.7 610.16,-186.46"/>
<polygon fill="midnightblue" stroke="midnightblue" points="649.76,-173.89 657.66,-166.83 647.08,-167.42 649.76,-173.89"/>
</g>
<!-- Node8 -->
<g id="node8" class="node">
<title>Node8</title>
<g id="a_node8"><a xlink:href="vi_8h.html#a173bb468e1e2a066136316f98b49c108" target="_top" xlink:title=" ">
<polygon fill="white" stroke="black" points="553.5,-129.52 553.5,-148.52 618.5,-148.52 618.5,-129.52 553.5,-129.52"/>
<text text-anchor="middle" x="586" y="-136.52" font-family="Helvetica,sans-Serif" font-size="10.00">led_prompt</text>
</a>
</g>
</g>
<!-- Node1&#45;&gt;Node8 -->
<g id="edge9" class="edge">
<title>Node1&#45;&gt;Node8</title>
<path fill="none" stroke="midnightblue" d="M647.6,-151.54C638.27,-149.61 628.04,-147.5 618.69,-145.57"/>
<polygon fill="midnightblue" stroke="midnightblue" points="647.16,-155.02 657.66,-153.61 648.58,-148.16 647.16,-155.02"/>
</g>
<!-- Node3 -->
<g id="node3" class="node">
<title>Node3</title>
<g id="a_node3"><a xlink:href="vi_8c.html#aa59b6f8d6056ad376a3a5ec45ce1686b" target="_top" xlink:title=" ">
<polygon fill="white" stroke="black" points="255,-224.52 255,-243.52 324,-243.52 324,-224.52 255,-224.52"/>
<text text-anchor="middle" x="289.5" y="-231.52" font-family="Helvetica,sans-Serif" font-size="10.00">vi_drawmsg</text>
</a>
</g>
</g>
<!-- Node2&#45;&gt;Node3 -->
<g id="edge2" class="edge">
<title>Node2&#45;&gt;Node3</title>
<path fill="none" stroke="midnightblue" d="M539.56,-201.88C480.16,-209.55 377.46,-222.8 324.41,-229.65"/>
<polygon fill="midnightblue" stroke="midnightblue" points="540.3,-205.32 549.77,-200.57 539.4,-198.38 540.3,-205.32"/>
</g>
<!-- Node4 -->
<g id="node4" class="node">
<title>Node4</title>
<g id="a_node4"><a xlink:href="vi_8c.html#a8d808e0f3453afe6600673ee1ea5f828" target="_top" xlink:title=" ">
<polygon fill="white" stroke="black" points="74,-148.52 74,-167.52 103,-167.52 103,-148.52 74,-148.52"/>
<text text-anchor="middle" x="88.5" y="-155.52" font-family="Helvetica,sans-Serif" font-size="10.00">vi</text>
</a>
</g>
</g>
<!-- Node3&#45;&gt;Node4 -->
<g id="edge3" class="edge">
<title>Node3&#45;&gt;Node4</title>
<path fill="none" stroke="midnightblue" d="M266.7,-249.56C235.9,-269.41 178.98,-298.25 139,-272.02 102.38,-248 92.71,-190.39 90.28,-167.57"/>
<polygon fill="midnightblue" stroke="midnightblue" points="269,-252.23 275.37,-243.76 265.11,-246.41 269,-252.23"/>
</g>
<!-- Node6 -->
<g id="node6" class="node">
<title>Node6</title>
<g id="a_node6"><a xlink:href="vi_8c.html#a2b620fa68325e1b708f07af90f50c3d8" target="_top" xlink:title=" ">
<polygon fill="white" stroke="black" points="142,-243.52 142,-262.52 216,-262.52 216,-243.52 142,-243.52"/>
<text text-anchor="middle" x="179" y="-250.52" font-family="Helvetica,sans-Serif" font-size="10.00">vi_drawagain</text>
</a>
</g>
</g>
<!-- Node3&#45;&gt;Node6 -->
<g id="edge5" class="edge">
<title>Node3&#45;&gt;Node6</title>
<path fill="none" stroke="midnightblue" d="M244.76,-241.68C235.33,-243.33 225.46,-245.06 216.35,-246.66"/>
<polygon fill="midnightblue" stroke="midnightblue" points="245.52,-245.1 254.76,-239.93 244.31,-238.21 245.52,-245.1"/>
</g>
<!-- Node7 -->
<g id="node7" class="node">
<title>Node7</title>
<g id="a_node7"><a xlink:href="vi_8c.html#a9896bc9688f6102408f66aa0ad7e64f9" target="_top" xlink:title=" ">
<polygon fill="white" stroke="black" points="139,-205.52 139,-224.52 219,-224.52 219,-205.52 139,-205.52"/>
<text text-anchor="middle" x="179" y="-212.52" font-family="Helvetica,sans-Serif" font-size="10.00">vi_drawupdate</text>
</a>
</g>
</g>
<!-- Node3&#45;&gt;Node7 -->
<g id="edge7" class="edge">
<title>Node3&#45;&gt;Node7</title>
<path fill="none" stroke="midnightblue" d="M244.65,-226.34C236.17,-224.86 227.34,-223.31 219.03,-221.86"/>
<polygon fill="midnightblue" stroke="midnightblue" points="244.31,-229.84 254.76,-228.11 245.52,-222.94 244.31,-229.84"/>
</g>
<!-- Node5 -->
<g id="node5" class="node">
<title>Node5</title>
<g id="a_node5"><a xlink:href="vi_8c.html#a0ddf1224851353fc92bfbff6f499fa97" target="_top" xlink:title=" ">
<polygon fill="white" stroke="black" points="0,-91.52 0,-110.52 38,-110.52 38,-91.52 0,-91.52"/>
<text text-anchor="middle" x="19" y="-98.52" font-family="Helvetica,sans-Serif" font-size="10.00">main</text>
</a>
</g>
</g>
<!-- Node4&#45;&gt;Node5 -->
<g id="edge4" class="edge">
<title>Node4&#45;&gt;Node5</title>
<path fill="none" stroke="midnightblue" d="M68.35,-141.85C56.38,-131.74 41.37,-119.07 31.28,-110.55"/>
<polygon fill="midnightblue" stroke="midnightblue" points="66.15,-144.57 76.05,-148.35 70.67,-139.23 66.15,-144.57"/>
</g>
<!-- Node6&#45;&gt;Node4 -->
<g id="edge6" class="edge">
<title>Node6&#45;&gt;Node4</title>
<path fill="none" stroke="midnightblue" d="M144.45,-238.25C142.53,-236.93 140.7,-235.52 139,-234.02 117.05,-214.63 100.86,-183.3 93.65,-167.61"/>
<polygon fill="midnightblue" stroke="midnightblue" points="142.84,-241.36 153.23,-243.46 146.42,-235.34 142.84,-241.36"/>
</g>
<!-- Node7&#45;&gt;Node4 -->
<g id="edge8" class="edge">
<title>Node7&#45;&gt;Node4</title>
<path fill="none" stroke="midnightblue" d="M147.17,-200.73C144.37,-199.21 141.61,-197.63 139,-196.02 125.18,-187.47 110.56,-175.89 100.82,-167.77"/>
<polygon fill="midnightblue" stroke="midnightblue" points="145.63,-203.87 156.13,-205.32 148.83,-197.64 145.63,-203.87"/>
</g>
<!-- Node9 -->
<g id="node9" class="node">
<title>Node9</title>
<g id="a_node9"><a xlink:href="vi_8h.html#a7ba56272fe1a7d523192729a0bb5edf7" target="_top" xlink:title=" ">
<polygon fill="white" stroke="black" points="264,-34.52 264,-53.52 315,-53.52 315,-34.52 264,-34.52"/>
<text text-anchor="middle" x="289.5" y="-41.52" font-family="Helvetica,sans-Serif" font-size="10.00">ex_read</text>
</a>
</g>
</g>
<!-- Node8&#45;&gt;Node9 -->
<g id="edge10" class="edge">
<title>Node8&#45;&gt;Node9</title>
<path fill="none" stroke="midnightblue" d="M545.64,-126.33C483.88,-106.4 366,-68.38 315.01,-51.93"/>
<polygon fill="midnightblue" stroke="midnightblue" points="544.82,-129.74 555.41,-129.48 546.97,-123.08 544.82,-129.74"/>
</g>
<!-- Node13 -->
<g id="node13" class="node">
<title>Node13</title>
<g id="a_node13"><a xlink:href="vi_8c.html#a57965473297aad4c4333fdd3897c11f3" target="_top" xlink:title=" ">
<polygon fill="white" stroke="black" points="455,-129.52 455,-148.52 514,-148.52 514,-129.52 455,-129.52"/>
<text text-anchor="middle" x="484.5" y="-136.52" font-family="Helvetica,sans-Serif" font-size="10.00">vi_prompt</text>
</a>
</g>
</g>
<!-- Node8&#45;&gt;Node13 -->
<g id="edge16" class="edge">
<title>Node8&#45;&gt;Node13</title>
<path fill="none" stroke="midnightblue" d="M542.97,-139.02C533.3,-139.02 523.22,-139.02 514.26,-139.02"/>
<polygon fill="midnightblue" stroke="midnightblue" points="543.24,-142.52 553.24,-139.02 543.24,-135.52 543.24,-142.52"/>
</g>
<!-- Node10 -->
<g id="node10" class="node">
<title>Node10</title>
<g id="a_node10"><a xlink:href="ex_8c.html#a0908784dc65be2da119a6b72ef96dec2" target="_top" xlink:title=" ">
<polygon fill="white" stroke="black" points="151,-53.52 151,-72.52 207,-72.52 207,-53.52 151,-53.52"/>
<text text-anchor="middle" x="179" y="-60.52" font-family="Helvetica,sans-Serif" font-size="10.00">ec_insert</text>
</a>
</g>
</g>
<!-- Node9&#45;&gt;Node10 -->
<g id="edge11" class="edge">
<title>Node9&#45;&gt;Node10</title>
<path fill="none" stroke="midnightblue" d="M253.87,-50.09C238.77,-52.73 221.33,-55.78 207.19,-58.26"/>
<polygon fill="midnightblue" stroke="midnightblue" points="254.63,-53.51 263.88,-48.33 253.43,-46.61 254.63,-53.51"/>
</g>
<!-- Node11 -->
<g id="node11" class="node">
<title>Node11</title>
<g id="a_node11"><a xlink:href="vi_8h.html#ac395e51f25330a6e6033b6d0d22b2076" target="_top" xlink:title=" ">
<polygon fill="white" stroke="black" points="74,-15.52 74,-34.52 103,-34.52 103,-15.52 74,-15.52"/>
<text text-anchor="middle" x="88.5" y="-22.52" font-family="Helvetica,sans-Serif" font-size="10.00">ex</text>
</a>
</g>
</g>
<!-- Node9&#45;&gt;Node11 -->
<g id="edge12" class="edge">
<title>Node9&#45;&gt;Node11</title>
<path fill="none" stroke="midnightblue" d="M267.15,-28.68C253.97,-20.18 236.32,-10.45 219,-6.02 184.55,2.78 173.96,0.46 139,-6.02 126.51,-8.34 113.1,-13.68 103.39,-18.11"/>
<polygon fill="midnightblue" stroke="midnightblue" points="265.25,-31.62 275.5,-34.3 269.16,-25.81 265.25,-31.62"/>
</g>
<!-- Node12 -->
<g id="node12" class="node">
<title>Node12</title>
<g id="a_node12"><a xlink:href="vi_8c.html#a9d85e9ed087401367529ab86a5dbf0c5" target="_top" xlink:title=" ">
<polygon fill="white" stroke="black" points="155.5,-15.52 155.5,-34.52 202.5,-34.52 202.5,-15.52 155.5,-15.52"/>
<text text-anchor="middle" x="179" y="-22.52" font-family="Helvetica,sans-Serif" font-size="10.00">vi_wait</text>
</a>
</g>
</g>
<!-- Node9&#45;&gt;Node12 -->
<g id="edge14" class="edge">
<title>Node9&#45;&gt;Node12</title>
<path fill="none" stroke="midnightblue" d="M253.89,-37.96C237.14,-35.03 217.49,-31.59 202.67,-28.99"/>
<polygon fill="midnightblue" stroke="midnightblue" points="253.43,-41.43 263.88,-39.71 254.63,-34.54 253.43,-41.43"/>
</g>
<!-- Node11&#45;&gt;Node5 -->
<g id="edge13" class="edge">
<title>Node11&#45;&gt;Node5</title>
<path fill="none" stroke="midnightblue" d="M72.15,-42.31C58.71,-57.44 39.66,-78.89 28.69,-91.23"/>
<polygon fill="midnightblue" stroke="midnightblue" points="74.93,-44.45 78.95,-34.65 69.69,-39.8 74.93,-44.45"/>
</g>
<!-- Node12&#45;&gt;Node4 -->
<g id="edge15" class="edge">
<title>Node12&#45;&gt;Node4</title>
<path fill="none" stroke="midnightblue" d="M146.32,-37.91C143.67,-39.72 141.17,-41.75 139,-44.02 109.16,-75.19 95.73,-127.24 91.29,-148.52"/>
<polygon fill="midnightblue" stroke="midnightblue" points="148.24,-40.85 155.17,-32.84 144.76,-34.77 148.24,-40.85"/>
</g>
<!-- Node13&#45;&gt;Node4 -->
<g id="edge17" class="edge">
<title>Node13&#45;&gt;Node4</title>
<path fill="none" stroke="midnightblue" d="M447.83,-126.54C438.56,-123.84 428.5,-121.39 419,-120.02 295.48,-102.21 259.76,-109.55 139,-141.02 126.69,-144.23 113.04,-149.01 103.2,-152.69"/>
<polygon fill="midnightblue" stroke="midnightblue" points="446.93,-129.92 457.52,-129.52 448.99,-123.23 446.93,-129.92"/>
</g>
<!-- Node14 -->
<g id="node14" class="node">
<title>Node14</title>
<g id="a_node14"><a xlink:href="vi_8c.html#ab8e0c9b9d2ef5161c6a3a8828606df5f" target="_top" xlink:title=" ">
<polygon fill="white" stroke="black" points="366,-167.52 366,-186.52 413,-186.52 413,-167.52 366,-167.52"/>
<text text-anchor="middle" x="389.5" y="-174.52" font-family="Helvetica,sans-Serif" font-size="10.00">vi_pipe</text>
</a>
</g>
</g>
<!-- Node13&#45;&gt;Node14 -->
<g id="edge18" class="edge">
<title>Node13&#45;&gt;Node14</title>
<path fill="none" stroke="midnightblue" d="M450.53,-152.49C438.22,-157.52 424.52,-163.12 413.32,-167.7"/>
<polygon fill="midnightblue" stroke="midnightblue" points="452.1,-155.63 460.03,-148.61 449.45,-149.15 452.1,-155.63"/>
</g>
<!-- Node16 -->
<g id="node16" class="node">
<title>Node16</title>
<g id="a_node16"><a xlink:href="vi_8c.html#a93701c59617d4f96cbaa207e89178f87" target="_top" xlink:title=" ">
<polygon fill="white" stroke="black" points="360,-129.52 360,-148.52 419,-148.52 419,-129.52 360,-129.52"/>
<text text-anchor="middle" x="389.5" y="-136.52" font-family="Helvetica,sans-Serif" font-size="10.00">vi_search</text>
</a>
</g>
</g>
<!-- Node13&#45;&gt;Node16 -->
<g id="edge21" class="edge">
<title>Node13&#45;&gt;Node16</title>
<path fill="none" stroke="midnightblue" d="M444.69,-139.02C436.16,-139.02 427.28,-139.02 419.23,-139.02"/>
<polygon fill="midnightblue" stroke="midnightblue" points="444.84,-142.52 454.84,-139.02 444.84,-135.52 444.84,-142.52"/>
</g>
<!-- Node15 -->
<g id="node15" class="node">
<title>Node15</title>
<g id="a_node15"><a xlink:href="vi_8c.html#a06cbc6eb843436a0e77e07cbab0c4538" target="_top" xlink:title=" ">
<polygon fill="white" stroke="black" points="148,-167.52 148,-186.52 210,-186.52 210,-167.52 148,-167.52"/>
<text text-anchor="middle" x="179" y="-174.52" font-family="Helvetica,sans-Serif" font-size="10.00">vc_motion</text>
</a>
</g>
</g>
<!-- Node14&#45;&gt;Node15 -->
<g id="edge19" class="edge">
<title>Node14&#45;&gt;Node15</title>
<path fill="none" stroke="midnightblue" d="M355.76,-177.02C315.8,-177.02 248.77,-177.02 210.06,-177.02"/>
<polygon fill="midnightblue" stroke="midnightblue" points="355.79,-180.52 365.79,-177.02 355.79,-173.52 355.79,-180.52"/>
</g>
<!-- Node15&#45;&gt;Node4 -->
<g id="edge20" class="edge">
<title>Node15&#45;&gt;Node4</title>
<path fill="none" stroke="midnightblue" d="M137.45,-168.31C125.22,-165.69 112.61,-162.98 103.4,-161"/>
<polygon fill="midnightblue" stroke="midnightblue" points="137.03,-171.81 147.54,-170.48 138.5,-164.96 137.03,-171.81"/>
</g>
<!-- Node17 -->
<g id="node17" class="node">
<title>Node17</title>
<g id="a_node17"><a xlink:href="vi_8c.html#aaa4777ea0715ea846346d0f27a0cfa3f" target="_top" xlink:title=" ">
<polygon fill="white" stroke="black" points="260,-129.52 260,-148.52 319,-148.52 319,-129.52 260,-129.52"/>
<text text-anchor="middle" x="289.5" y="-136.52" font-family="Helvetica,sans-Serif" font-size="10.00">vi_motion</text>
</a>
</g>
</g>
<!-- Node16&#45;&gt;Node17 -->
<g id="edge22" class="edge">
<title>Node16&#45;&gt;Node17</title>
<path fill="none" stroke="midnightblue" d="M349.64,-139.02C339.53,-139.02 328.81,-139.02 319.31,-139.02"/>
<polygon fill="midnightblue" stroke="midnightblue" points="349.89,-142.52 359.89,-139.02 349.89,-135.52 349.89,-142.52"/>
</g>
<!-- Node17&#45;&gt;Node4 -->
<g id="edge24" class="edge">
<title>Node17&#45;&gt;Node4</title>
<path fill="none" stroke="midnightblue" d="M250.02,-142.7C205.11,-146.98 133.19,-153.85 103.26,-156.71"/>
<polygon fill="midnightblue" stroke="midnightblue" points="250.37,-146.18 259.99,-141.74 249.7,-139.21 250.37,-146.18"/>
</g>
<!-- Node17&#45;&gt;Node15 -->
<g id="edge23" class="edge">
<title>Node17&#45;&gt;Node15</title>
<path fill="none" stroke="midnightblue" d="M251.46,-151.99C237.01,-157.06 220.73,-162.76 207.37,-167.44"/>
<polygon fill="midnightblue" stroke="midnightblue" points="252.84,-155.22 261.12,-148.61 250.53,-148.61 252.84,-155.22"/>
</g>
</g>
</svg>
