<?xml version="1.0" encoding="UTF-8" standalone="no"?>
<!DOCTYPE svg PUBLIC "-//W3C//DTD SVG 1.1//EN"
 "http://www.w3.org/Graphics/SVG/1.1/DTD/svg11.dtd">
<!-- Generated by graphviz version 2.44.1 (20200629.0846)
 -->
<!-- Title: led_input Pages: 1 -->
<svg width="484pt" height="66pt"
 viewBox="0.00 0.00 484.00 66.00" xmlns="http://www.w3.org/2000/svg" xmlns:xlink="http://www.w3.org/1999/xlink">
<g id="graph0" class="graph" transform="scale(1 1) rotate(0) translate(4 62)">
<title>led_input</title>
<polygon fill="white" stroke="transparent" points="-4,4 -4,-62 480,-62 480,4 -4,4"/>
<!-- Node1 -->
<g id="node1" class="node">
<title>Node1</title>
<g id="a_node1"><a xlink:title=" ">
<polygon fill="#bfbfbf" stroke="black" points="420,-19.5 420,-38.5 476,-38.5 476,-19.5 420,-19.5"/>
<text text-anchor="middle" x="448" y="-26.5" font-family="Helvetica,sans-Serif" font-size="10.00">led_input</text>
</a>
</g>
</g>
<!-- Node2 -->
<g id="node2" class="node">
<title>Node2</title>
<g id="a_node2"><a xlink:href="vi_8c.html#a653f6b0359cef492e11f404c4bf469b9" target="_top" xlink:title=" ">
<polygon fill="white" stroke="black" points="334,-19.5 334,-38.5 384,-38.5 384,-19.5 334,-19.5"/>
<text text-anchor="middle" x="359" y="-26.5" font-family="Helvetica,sans-Serif" font-size="10.00">vi_input</text>
</a>
</g>
</g>
<!-- Node1&#45;&gt;Node2 -->
<g id="edge1" class="edge">
<title>Node1&#45;&gt;Node2</title>
<path fill="none" stroke="midnightblue" d="M409.93,-29C401.19,-29 392.08,-29 384.08,-29"/>
<polygon fill="midnightblue" stroke="midnightblue" points="409.95,-32.5 419.95,-29 409.95,-25.5 409.95,-32.5"/>
</g>
<!-- Node3 -->
<g id="node3" class="node">
<title>Node3</title>
<g id="a_node3"><a xlink:href="vi_8c.html#a8bb357a77ed61da8858f138c6fa672a6" target="_top" xlink:title=" ">
<polygon fill="white" stroke="black" points="142,-38.5 142,-57.5 198,-57.5 198,-38.5 142,-38.5"/>
<text text-anchor="middle" x="170" y="-45.5" font-family="Helvetica,sans-Serif" font-size="10.00">vc_insert</text>
</a>
</g>
</g>
<!-- Node2&#45;&gt;Node3 -->
<g id="edge2" class="edge">
<title>Node2&#45;&gt;Node3</title>
<path fill="none" stroke="midnightblue" d="M323.88,-32.47C287.79,-36.13 231.57,-41.85 198.31,-45.23"/>
<polygon fill="midnightblue" stroke="midnightblue" points="324.34,-35.94 333.94,-31.45 323.63,-28.97 324.34,-35.94"/>
</g>
<!-- Node6 -->
<g id="node6" class="node">
<title>Node6</title>
<g id="a_node6"><a xlink:href="vi_8c.html#ae37b094c3bb647d8c1a4ac4e858ce518" target="_top" xlink:title=" ">
<polygon fill="white" stroke="black" points="237,-0.5 237,-19.5 298,-19.5 298,-0.5 237,-0.5"/>
<text text-anchor="middle" x="267.5" y="-7.5" font-family="Helvetica,sans-Serif" font-size="10.00">vi_change</text>
</a>
</g>
</g>
<!-- Node2&#45;&gt;Node6 -->
<g id="edge5" class="edge">
<title>Node2&#45;&gt;Node6</title>
<path fill="none" stroke="midnightblue" d="M323.6,-21.7C315.16,-19.91 306.21,-18 298.02,-16.27"/>
<polygon fill="midnightblue" stroke="midnightblue" points="323.03,-25.16 333.54,-23.81 324.49,-18.31 323.03,-25.16"/>
</g>
<!-- Node4 -->
<g id="node4" class="node">
<title>Node4</title>
<g id="a_node4"><a xlink:href="vi_8c.html#a8d808e0f3453afe6600673ee1ea5f828" target="_top" xlink:title=" ">
<polygon fill="white" stroke="black" points="74,-19.5 74,-38.5 103,-38.5 103,-19.5 74,-19.5"/>
<text text-anchor="middle" x="88.5" y="-26.5" font-family="Helvetica,sans-Serif" font-size="10.00">vi</text>
</a>
</g>
</g>
<!-- Node3&#45;&gt;Node4 -->
<g id="edge3" class="edge">
<title>Node3&#45;&gt;Node4</title>
<path fill="none" stroke="midnightblue" d="M131.67,-39.08C121.54,-36.66 111.19,-34.18 103.28,-32.29"/>
<polygon fill="midnightblue" stroke="midnightblue" points="131.1,-42.54 141.64,-41.46 132.73,-35.73 131.1,-42.54"/>
</g>
<!-- Node5 -->
<g id="node5" class="node">
<title>Node5</title>
<g id="a_node5"><a xlink:href="vi_8c.html#a0ddf1224851353fc92bfbff6f499fa97" target="_top" xlink:title=" ">
<polygon fill="white" stroke="black" points="0,-19.5 0,-38.5 38,-38.5 38,-19.5 0,-19.5"/>
<text text-anchor="middle" x="19" y="-26.5" font-family="Helvetica,sans-Serif" font-size="10.00">main</text>
</a>
</g>
</g>
<!-- Node4&#45;&gt;Node5 -->
<g id="edge4" class="edge">
<title>Node4&#45;&gt;Node5</title>
<path fill="none" stroke="midnightblue" d="M63.58,-29C55.25,-29 46.04,-29 38.25,-29"/>
<polygon fill="midnightblue" stroke="midnightblue" points="63.84,-32.5 73.84,-29 63.84,-25.5 63.84,-32.5"/>
</g>
<!-- Node7 -->
<g id="node7" class="node">
<title>Node7</title>
<g id="a_node7"><a xlink:href="vi_8c.html#a06cbc6eb843436a0e77e07cbab0c4538" target="_top" xlink:title=" ">
<polygon fill="white" stroke="black" points="139,-0.5 139,-19.5 201,-19.5 201,-0.5 139,-0.5"/>
<text text-anchor="middle" x="170" y="-7.5" font-family="Helvetica,sans-Serif" font-size="10.00">vc_motion</text>
</a>
</g>
</g>
<!-- Node6&#45;&gt;Node7 -->
<g id="edge6" class="edge">
<title>Node6&#45;&gt;Node7</title>
<path fill="none" stroke="midnightblue" d="M226.6,-10C218.04,-10 209.12,-10 201,-10"/>
<polygon fill="midnightblue" stroke="midnightblue" points="226.81,-13.5 236.81,-10 226.81,-6.5 226.81,-13.5"/>
</g>
<!-- Node7&#45;&gt;Node4 -->
<g id="edge7" class="edge">
<title>Node7&#45;&gt;Node4</title>
<path fill="none" stroke="midnightblue" d="M128.95,-19.57C119.66,-21.79 110.39,-24.01 103.17,-25.73"/>
<polygon fill="midnightblue" stroke="midnightblue" points="130.03,-22.91 138.94,-17.18 128.4,-16.1 130.03,-22.91"/>
</g>
</g>
</svg>
