<?xml version="1.0" encoding="UTF-8" standalone="no"?>
<!DOCTYPE svg PUBLIC "-//W3C//DTD SVG 1.1//EN"
 "http://www.w3.org/Graphics/SVG/1.1/DTD/svg11.dtd">
<!-- Generated by graphviz version 2.44.1 (20200629.0846)
 -->
<!-- Title: lbuf_next Pages: 1 -->
<svg width="616pt" height="118pt"
 viewBox="0.00 0.00 616.00 118.04" xmlns="http://www.w3.org/2000/svg" xmlns:xlink="http://www.w3.org/1999/xlink">
<g id="graph0" class="graph" transform="scale(1 1) rotate(0) translate(4 114.04)">
<title>lbuf_next</title>
<polygon fill="white" stroke="transparent" points="-4,4 -4,-114.04 612,-114.04 612,4 -4,4"/>
<!-- Node1 -->
<g id="node1" class="node">
<title>Node1</title>
<g id="a_node1"><a xlink:title=" ">
<polygon fill="#bfbfbf" stroke="black" points="552,-33.54 552,-52.54 608,-52.54 608,-33.54 552,-33.54"/>
<text text-anchor="middle" x="580" y="-40.54" font-family="Helvetica,sans-Serif" font-size="10.00">lbuf_next</text>
</a>
</g>
</g>
<!-- Node2 -->
<g id="node2" class="node">
<title>Node2</title>
<g id="a_node2"><a xlink:href="vi_8h.html#ae665a430e9019b58164b2aa4c4980534" target="_top" xlink:title=" ">
<polygon fill="white" stroke="black" points="452.5,-90.54 452.5,-109.54 505.5,-109.54 505.5,-90.54 452.5,-90.54"/>
<text text-anchor="middle" x="479" y="-97.54" font-family="Helvetica,sans-Serif" font-size="10.00">lbuf_pair</text>
</a>
</g>
</g>
<!-- Node1&#45;&gt;Node2 -->
<g id="edge1" class="edge">
<title>Node1&#45;&gt;Node2</title>
<path fill="none" stroke="midnightblue" d="M553.41,-57.77C535.48,-68.09 512.06,-81.58 496.55,-90.51"/>
<polygon fill="midnightblue" stroke="midnightblue" points="555.29,-60.73 562.21,-52.71 551.79,-54.66 555.29,-60.73"/>
</g>
<!-- Node7 -->
<g id="node7" class="node">
<title>Node7</title>
<g id="a_node7"><a xlink:href="vi_8h.html#a1bd5b9a4117b7cc986675b27e20059be" target="_top" xlink:title=" ">
<polygon fill="white" stroke="black" points="332,-52.54 332,-71.54 406,-71.54 406,-52.54 332,-52.54"/>
<text text-anchor="middle" x="369" y="-59.54" font-family="Helvetica,sans-Serif" font-size="10.00">lbuf_wordbeg</text>
</a>
</g>
</g>
<!-- Node1&#45;&gt;Node7 -->
<g id="edge7" class="edge">
<title>Node1&#45;&gt;Node7</title>
<path fill="none" stroke="midnightblue" d="M541.44,-46.45C503.08,-49.94 443.92,-55.32 406.1,-58.76"/>
<polygon fill="midnightblue" stroke="midnightblue" points="542.03,-49.91 551.68,-45.52 541.4,-42.94 542.03,-49.91"/>
</g>
<!-- Node8 -->
<g id="node8" class="node">
<title>Node8</title>
<g id="a_node8"><a xlink:href="vi_8h.html#a94c2499e381bfa3497978110b44fc71d" target="_top" xlink:title=" ">
<polygon fill="white" stroke="black" points="332,-14.54 332,-33.54 406,-33.54 406,-14.54 332,-14.54"/>
<text text-anchor="middle" x="369" y="-21.54" font-family="Helvetica,sans-Serif" font-size="10.00">lbuf_wordend</text>
</a>
</g>
</g>
<!-- Node1&#45;&gt;Node8 -->
<g id="edge9" class="edge">
<title>Node1&#45;&gt;Node8</title>
<path fill="none" stroke="midnightblue" d="M559.17,-27.23C547.38,-18.85 531.69,-9.4 516,-5.04 475,6.37 425.57,-5.1 396.02,-14.51"/>
<polygon fill="midnightblue" stroke="midnightblue" points="557.26,-30.16 567.37,-33.33 561.44,-24.55 557.26,-30.16"/>
</g>
<!-- Node9 -->
<g id="node9" class="node">
<title>Node9</title>
<g id="a_node9"><a xlink:href="mot_8c.html#a644f779e0e815979c646ea210c3a1594" target="_top" xlink:title=" ">
<polygon fill="white" stroke="black" points="442,-14.54 442,-33.54 516,-33.54 516,-14.54 442,-14.54"/>
<text text-anchor="middle" x="479" y="-21.54" font-family="Helvetica,sans-Serif" font-size="10.00">lbuf_wordlast</text>
</a>
</g>
</g>
<!-- Node1&#45;&gt;Node9 -->
<g id="edge11" class="edge">
<title>Node1&#45;&gt;Node9</title>
<path fill="none" stroke="midnightblue" d="M542.02,-35.94C533.61,-34.33 524.68,-32.61 516.3,-31.01"/>
<polygon fill="midnightblue" stroke="midnightblue" points="541.47,-39.4 551.95,-37.85 542.79,-32.52 541.47,-39.4"/>
</g>
<!-- Node3 -->
<g id="node3" class="node">
<title>Node3</title>
<g id="a_node3"><a xlink:href="vi_8c.html#aaa4777ea0715ea846346d0f27a0cfa3f" target="_top" xlink:title=" ">
<polygon fill="white" stroke="black" points="237,-52.54 237,-71.54 296,-71.54 296,-52.54 237,-52.54"/>
<text text-anchor="middle" x="266.5" y="-59.54" font-family="Helvetica,sans-Serif" font-size="10.00">vi_motion</text>
</a>
</g>
</g>
<!-- Node2&#45;&gt;Node3 -->
<g id="edge2" class="edge">
<title>Node2&#45;&gt;Node3</title>
<path fill="none" stroke="midnightblue" d="M442.18,-96.96C412.46,-94.03 369.2,-88.89 332,-81.04 320.12,-78.53 307.25,-74.93 296.15,-71.53"/>
<polygon fill="midnightblue" stroke="midnightblue" points="442.19,-100.48 452.48,-97.94 442.85,-93.51 442.19,-100.48"/>
</g>
<!-- Node4 -->
<g id="node4" class="node">
<title>Node4</title>
<g id="a_node4"><a xlink:href="vi_8c.html#a06cbc6eb843436a0e77e07cbab0c4538" target="_top" xlink:title=" ">
<polygon fill="white" stroke="black" points="139,-71.54 139,-90.54 201,-90.54 201,-71.54 139,-71.54"/>
<text text-anchor="middle" x="170" y="-78.54" font-family="Helvetica,sans-Serif" font-size="10.00">vc_motion</text>
</a>
</g>
</g>
<!-- Node3&#45;&gt;Node4 -->
<g id="edge3" class="edge">
<title>Node3&#45;&gt;Node4</title>
<path fill="none" stroke="midnightblue" d="M227.03,-69.77C218.4,-71.51 209.38,-73.32 201.15,-74.98"/>
<polygon fill="midnightblue" stroke="midnightblue" points="227.78,-73.19 236.89,-67.79 226.4,-66.33 227.78,-73.19"/>
</g>
<!-- Node5 -->
<g id="node5" class="node">
<title>Node5</title>
<g id="a_node5"><a xlink:href="vi_8c.html#a8d808e0f3453afe6600673ee1ea5f828" target="_top" xlink:title=" ">
<polygon fill="white" stroke="black" points="74,-52.54 74,-71.54 103,-71.54 103,-52.54 74,-52.54"/>
<text text-anchor="middle" x="88.5" y="-59.54" font-family="Helvetica,sans-Serif" font-size="10.00">vi</text>
</a>
</g>
</g>
<!-- Node3&#45;&gt;Node5 -->
<g id="edge6" class="edge">
<title>Node3&#45;&gt;Node5</title>
<path fill="none" stroke="midnightblue" d="M226.35,-62.04C187.29,-62.04 129.43,-62.04 103.25,-62.04"/>
<polygon fill="midnightblue" stroke="midnightblue" points="226.83,-65.54 236.83,-62.04 226.83,-58.54 226.83,-65.54"/>
</g>
<!-- Node4&#45;&gt;Node5 -->
<g id="edge4" class="edge">
<title>Node4&#45;&gt;Node5</title>
<path fill="none" stroke="midnightblue" d="M128.95,-71.47C119.66,-69.25 110.39,-67.03 103.17,-65.31"/>
<polygon fill="midnightblue" stroke="midnightblue" points="128.4,-74.93 138.94,-73.86 130.03,-68.13 128.4,-74.93"/>
</g>
<!-- Node6 -->
<g id="node6" class="node">
<title>Node6</title>
<g id="a_node6"><a xlink:href="vi_8c.html#a0ddf1224851353fc92bfbff6f499fa97" target="_top" xlink:title=" ">
<polygon fill="white" stroke="black" points="0,-52.54 0,-71.54 38,-71.54 38,-52.54 0,-52.54"/>
<text text-anchor="middle" x="19" y="-59.54" font-family="Helvetica,sans-Serif" font-size="10.00">main</text>
</a>
</g>
</g>
<!-- Node5&#45;&gt;Node6 -->
<g id="edge5" class="edge">
<title>Node5&#45;&gt;Node6</title>
<path fill="none" stroke="midnightblue" d="M63.58,-62.04C55.25,-62.04 46.04,-62.04 38.25,-62.04"/>
<polygon fill="midnightblue" stroke="midnightblue" points="63.84,-65.54 73.84,-62.04 63.84,-58.54 63.84,-65.54"/>
</g>
<!-- Node7&#45;&gt;Node3 -->
<g id="edge8" class="edge">
<title>Node7&#45;&gt;Node3</title>
<path fill="none" stroke="midnightblue" d="M321.65,-62.04C312.96,-62.04 304.12,-62.04 296.16,-62.04"/>
<polygon fill="midnightblue" stroke="midnightblue" points="321.72,-65.54 331.72,-62.04 321.72,-58.54 321.72,-65.54"/>
</g>
<!-- Node8&#45;&gt;Node3 -->
<g id="edge10" class="edge">
<title>Node8&#45;&gt;Node3</title>
<path fill="none" stroke="midnightblue" d="M332.92,-37.3C319.72,-42.29 304.99,-47.86 292.85,-52.45"/>
<polygon fill="midnightblue" stroke="midnightblue" points="334.52,-40.44 342.64,-33.63 332.05,-33.89 334.52,-40.44"/>
</g>
<!-- Node9&#45;&gt;Node7 -->
<g id="edge12" class="edge">
<title>Node9&#45;&gt;Node7</title>
<path fill="none" stroke="midnightblue" d="M441.13,-37.01C426.74,-42.07 410.55,-47.77 397.24,-52.45"/>
<polygon fill="midnightblue" stroke="midnightblue" points="442.48,-40.25 450.75,-33.63 440.15,-33.64 442.48,-40.25"/>
</g>
<!-- Node9&#45;&gt;Node8 -->
<g id="edge13" class="edge">
<title>Node9&#45;&gt;Node8</title>
<path fill="none" stroke="midnightblue" d="M431.61,-24.04C423.16,-24.04 414.46,-24.04 406.35,-24.04"/>
<polygon fill="midnightblue" stroke="midnightblue" points="431.74,-27.54 441.74,-24.04 431.74,-20.54 431.74,-27.54"/>
</g>
</g>
</svg>
