<?xml version="1.0" encoding="UTF-8" standalone="no"?>
<!DOCTYPE svg PUBLIC "-//W3C//DTD SVG 1.1//EN"
 "http://www.w3.org/Graphics/SVG/1.1/DTD/svg11.dtd">
<!-- Generated by graphviz version 2.44.1 (20200629.0846)
 -->
<!-- Title: lbuf_chr Pages: 1 -->
<svg width="611pt" height="118pt"
 viewBox="0.00 0.00 611.00 118.27" xmlns="http://www.w3.org/2000/svg" xmlns:xlink="http://www.w3.org/1999/xlink">
<g id="graph0" class="graph" transform="scale(1 1) rotate(0) translate(4 114.27)">
<title>lbuf_chr</title>
<polygon fill="white" stroke="transparent" points="-4,4 -4,-114.27 607,-114.27 607,4 -4,4"/>
<!-- Node1 -->
<g id="node1" class="node">
<title>Node1</title>
<g id="a_node1"><a xlink:title=" ">
<polygon fill="#bfbfbf" stroke="black" points="552,-33.77 552,-52.77 603,-52.77 603,-33.77 552,-33.77"/>
<text text-anchor="middle" x="577.5" y="-40.77" font-family="Helvetica,sans-Serif" font-size="10.00">lbuf_chr</text>
</a>
</g>
</g>
<!-- Node2 -->
<g id="node2" class="node">
<title>Node2</title>
<g id="a_node2"><a xlink:href="vi_8h.html#ae665a430e9019b58164b2aa4c4980534" target="_top" xlink:title=" ">
<polygon fill="white" stroke="black" points="452.5,-90.77 452.5,-109.77 505.5,-109.77 505.5,-90.77 452.5,-90.77"/>
<text text-anchor="middle" x="479" y="-97.77" font-family="Helvetica,sans-Serif" font-size="10.00">lbuf_pair</text>
</a>
</g>
</g>
<!-- Node1&#45;&gt;Node2 -->
<g id="edge1" class="edge">
<title>Node1&#45;&gt;Node2</title>
<path fill="none" stroke="midnightblue" d="M551.07,-58.29C533.66,-68.57 511.11,-81.9 496.13,-90.74"/>
<polygon fill="midnightblue" stroke="midnightblue" points="553.3,-61.04 560.13,-52.94 549.74,-55.01 553.3,-61.04"/>
</g>
<!-- Node7 -->
<g id="node7" class="node">
<title>Node7</title>
<g id="a_node7"><a xlink:href="vi_8h.html#a1bd5b9a4117b7cc986675b27e20059be" target="_top" xlink:title=" ">
<polygon fill="white" stroke="black" points="332,-52.77 332,-71.77 406,-71.77 406,-52.77 332,-52.77"/>
<text text-anchor="middle" x="369" y="-59.77" font-family="Helvetica,sans-Serif" font-size="10.00">lbuf_wordbeg</text>
</a>
</g>
</g>
<!-- Node1&#45;&gt;Node7 -->
<g id="edge7" class="edge">
<title>Node1&#45;&gt;Node7</title>
<path fill="none" stroke="midnightblue" d="M541.59,-46.48C503.92,-49.95 444.22,-55.44 406.1,-58.95"/>
<polygon fill="midnightblue" stroke="midnightblue" points="541.95,-49.96 551.59,-45.56 541.31,-42.99 541.95,-49.96"/>
</g>
<!-- Node8 -->
<g id="node8" class="node">
<title>Node8</title>
<g id="a_node8"><a xlink:href="vi_8h.html#a94c2499e381bfa3497978110b44fc71d" target="_top" xlink:title=" ">
<polygon fill="white" stroke="black" points="332,-14.77 332,-33.77 406,-33.77 406,-14.77 332,-14.77"/>
<text text-anchor="middle" x="369" y="-21.77" font-family="Helvetica,sans-Serif" font-size="10.00">lbuf_wordend</text>
</a>
</g>
</g>
<!-- Node1&#45;&gt;Node8 -->
<g id="edge9" class="edge">
<title>Node1&#45;&gt;Node8</title>
<path fill="none" stroke="midnightblue" d="M557.23,-27.22C545.97,-18.91 531.05,-9.61 516,-5.27 474.98,6.54 425.35,-5.14 395.8,-14.7"/>
<polygon fill="midnightblue" stroke="midnightblue" points="555.36,-30.2 565.4,-33.56 559.65,-24.67 555.36,-30.2"/>
</g>
<!-- Node9 -->
<g id="node9" class="node">
<title>Node9</title>
<g id="a_node9"><a xlink:href="mot_8c.html#a644f779e0e815979c646ea210c3a1594" target="_top" xlink:title=" ">
<polygon fill="white" stroke="black" points="442,-14.77 442,-33.77 516,-33.77 516,-14.77 442,-14.77"/>
<text text-anchor="middle" x="479" y="-21.77" font-family="Helvetica,sans-Serif" font-size="10.00">lbuf_wordlast</text>
</a>
</g>
</g>
<!-- Node1&#45;&gt;Node9 -->
<g id="edge11" class="edge">
<title>Node1&#45;&gt;Node9</title>
<path fill="none" stroke="midnightblue" d="M542.05,-36.49C533.67,-34.84 524.68,-33.07 516.22,-31.4"/>
<polygon fill="midnightblue" stroke="midnightblue" points="541.41,-39.93 551.9,-38.43 542.76,-33.06 541.41,-39.93"/>
</g>
<!-- Node3 -->
<g id="node3" class="node">
<title>Node3</title>
<g id="a_node3"><a xlink:href="vi_8c.html#aaa4777ea0715ea846346d0f27a0cfa3f" target="_top" xlink:title=" ">
<polygon fill="white" stroke="black" points="237,-52.77 237,-71.77 296,-71.77 296,-52.77 237,-52.77"/>
<text text-anchor="middle" x="266.5" y="-59.77" font-family="Helvetica,sans-Serif" font-size="10.00">vi_motion</text>
</a>
</g>
</g>
<!-- Node2&#45;&gt;Node3 -->
<g id="edge2" class="edge">
<title>Node2&#45;&gt;Node3</title>
<path fill="none" stroke="midnightblue" d="M442.18,-97.19C412.46,-94.26 369.2,-89.12 332,-81.27 320.12,-78.76 307.25,-75.16 296.15,-71.76"/>
<polygon fill="midnightblue" stroke="midnightblue" points="442.19,-100.71 452.48,-98.17 442.85,-93.74 442.19,-100.71"/>
</g>
<!-- Node4 -->
<g id="node4" class="node">
<title>Node4</title>
<g id="a_node4"><a xlink:href="vi_8c.html#a06cbc6eb843436a0e77e07cbab0c4538" target="_top" xlink:title=" ">
<polygon fill="white" stroke="black" points="139,-71.77 139,-90.77 201,-90.77 201,-71.77 139,-71.77"/>
<text text-anchor="middle" x="170" y="-78.77" font-family="Helvetica,sans-Serif" font-size="10.00">vc_motion</text>
</a>
</g>
</g>
<!-- Node3&#45;&gt;Node4 -->
<g id="edge3" class="edge">
<title>Node3&#45;&gt;Node4</title>
<path fill="none" stroke="midnightblue" d="M227.03,-70.01C218.4,-71.74 209.38,-73.55 201.15,-75.21"/>
<polygon fill="midnightblue" stroke="midnightblue" points="227.78,-73.43 236.89,-68.02 226.4,-66.56 227.78,-73.43"/>
</g>
<!-- Node5 -->
<g id="node5" class="node">
<title>Node5</title>
<g id="a_node5"><a xlink:href="vi_8c.html#a8d808e0f3453afe6600673ee1ea5f828" target="_top" xlink:title=" ">
<polygon fill="white" stroke="black" points="74,-52.77 74,-71.77 103,-71.77 103,-52.77 74,-52.77"/>
<text text-anchor="middle" x="88.5" y="-59.77" font-family="Helvetica,sans-Serif" font-size="10.00">vi</text>
</a>
</g>
</g>
<!-- Node3&#45;&gt;Node5 -->
<g id="edge6" class="edge">
<title>Node3&#45;&gt;Node5</title>
<path fill="none" stroke="midnightblue" d="M226.35,-62.27C187.29,-62.27 129.43,-62.27 103.25,-62.27"/>
<polygon fill="midnightblue" stroke="midnightblue" points="226.83,-65.77 236.83,-62.27 226.83,-58.77 226.83,-65.77"/>
</g>
<!-- Node4&#45;&gt;Node5 -->
<g id="edge4" class="edge">
<title>Node4&#45;&gt;Node5</title>
<path fill="none" stroke="midnightblue" d="M128.95,-71.7C119.66,-69.48 110.39,-67.26 103.17,-65.54"/>
<polygon fill="midnightblue" stroke="midnightblue" points="128.4,-75.17 138.94,-74.09 130.03,-68.36 128.4,-75.17"/>
</g>
<!-- Node6 -->
<g id="node6" class="node">
<title>Node6</title>
<g id="a_node6"><a xlink:href="vi_8c.html#a0ddf1224851353fc92bfbff6f499fa97" target="_top" xlink:title=" ">
<polygon fill="white" stroke="black" points="0,-52.77 0,-71.77 38,-71.77 38,-52.77 0,-52.77"/>
<text text-anchor="middle" x="19" y="-59.77" font-family="Helvetica,sans-Serif" font-size="10.00">main</text>
</a>
</g>
</g>
<!-- Node5&#45;&gt;Node6 -->
<g id="edge5" class="edge">
<title>Node5&#45;&gt;Node6</title>
<path fill="none" stroke="midnightblue" d="M63.58,-62.27C55.25,-62.27 46.04,-62.27 38.25,-62.27"/>
<polygon fill="midnightblue" stroke="midnightblue" points="63.84,-65.77 73.84,-62.27 63.84,-58.77 63.84,-65.77"/>
</g>
<!-- Node7&#45;&gt;Node3 -->
<g id="edge8" class="edge">
<title>Node7&#45;&gt;Node3</title>
<path fill="none" stroke="midnightblue" d="M321.65,-62.27C312.96,-62.27 304.12,-62.27 296.16,-62.27"/>
<polygon fill="midnightblue" stroke="midnightblue" points="321.72,-65.77 331.72,-62.27 321.72,-58.77 321.72,-65.77"/>
</g>
<!-- Node8&#45;&gt;Node3 -->
<g id="edge10" class="edge">
<title>Node8&#45;&gt;Node3</title>
<path fill="none" stroke="midnightblue" d="M332.92,-37.54C319.72,-42.52 304.99,-48.1 292.85,-52.69"/>
<polygon fill="midnightblue" stroke="midnightblue" points="334.52,-40.67 342.64,-33.86 332.05,-34.12 334.52,-40.67"/>
</g>
<!-- Node9&#45;&gt;Node7 -->
<g id="edge12" class="edge">
<title>Node9&#45;&gt;Node7</title>
<path fill="none" stroke="midnightblue" d="M441.13,-37.24C426.74,-42.31 410.55,-48.01 397.24,-52.69"/>
<polygon fill="midnightblue" stroke="midnightblue" points="442.48,-40.48 450.75,-33.86 440.15,-33.88 442.48,-40.48"/>
</g>
<!-- Node9&#45;&gt;Node8 -->
<g id="edge13" class="edge">
<title>Node9&#45;&gt;Node8</title>
<path fill="none" stroke="midnightblue" d="M431.61,-24.27C423.16,-24.27 414.46,-24.27 406.35,-24.27"/>
<polygon fill="midnightblue" stroke="midnightblue" points="431.74,-27.77 441.74,-24.27 431.74,-20.77 431.74,-27.77"/>
</g>
</g>
</svg>
