<?xml version="1.0" encoding="UTF-8" standalone="no"?>
<!DOCTYPE svg PUBLIC "-//W3C//DTD SVG 1.1//EN"
 "http://www.w3.org/Graphics/SVG/1.1/DTD/svg11.dtd">
<!-- Generated by graphviz version 2.44.1 (20200629.0846)
 -->
<!-- Title: lbuf_next Pages: 1 -->
<svg width="335pt" height="117pt"
 viewBox="0.00 0.00 335.00 117.05" xmlns="http://www.w3.org/2000/svg" xmlns:xlink="http://www.w3.org/1999/xlink">
<g id="graph0" class="graph" transform="scale(1 1) rotate(0) translate(4 113.05)">
<title>lbuf_next</title>
<polygon fill="white" stroke="transparent" points="-4,4 -4,-113.05 331,-113.05 331,4 -4,4"/>
<!-- Node1 -->
<g id="node1" class="node">
<title>Node1</title>
<g id="a_node1"><a xlink:title=" ">
<polygon fill="#bfbfbf" stroke="black" points="0,-57.5 0,-76.5 56,-76.5 56,-57.5 0,-57.5"/>
<text text-anchor="middle" x="28" y="-64.5" font-family="Helvetica,sans-Serif" font-size="10.00">lbuf_next</text>
</a>
</g>
</g>
<!-- Node2 -->
<g id="node2" class="node">
<title>Node2</title>
<g id="a_node2"><a xlink:href="mot_8c.html#a5c1f7584815c6ad7811607e7189272f3" target="_top" xlink:title=" ">
<polygon fill="white" stroke="black" points="99,-76.5 99,-95.5 149,-95.5 149,-76.5 99,-76.5"/>
<text text-anchor="middle" x="124" y="-83.5" font-family="Helvetica,sans-Serif" font-size="10.00">lbuf_eol</text>
</a>
</g>
</g>
<!-- Node1&#45;&gt;Node2 -->
<g id="edge1" class="edge">
<title>Node1&#45;&gt;Node2</title>
<path fill="none" stroke="midnightblue" d="M56.19,-72.5C66.38,-74.56 78.09,-76.92 88.83,-79.09"/>
<polygon fill="midnightblue" stroke="midnightblue" points="88.26,-82.55 98.75,-81.1 89.65,-75.69 88.26,-82.55"/>
</g>
<!-- Node3 -->
<g id="node3" class="node">
<title>Node3</title>
<g id="a_node3"><a xlink:href="lbuf_8c.html#ad0f45475ddc6eb82ecedf63ed1b914d4" target="_top" xlink:title=" ">
<polygon fill="white" stroke="black" points="192,-76.5 192,-95.5 243,-95.5 243,-76.5 192,-76.5"/>
<text text-anchor="middle" x="217.5" y="-83.5" font-family="Helvetica,sans-Serif" font-size="10.00">lbuf_get</text>
</a>
</g>
</g>
<!-- Node1&#45;&gt;Node3 -->
<g id="edge5" class="edge">
<title>Node1&#45;&gt;Node3</title>
<path fill="none" stroke="midnightblue" d="M40.63,-76.71C52.62,-86.05 72.31,-99.52 92,-105 122.13,-113.38 157.45,-106.47 182.76,-98.73"/>
<polygon fill="midnightblue" stroke="midnightblue" points="183.84,-102.06 192.27,-95.64 181.68,-95.4 183.84,-102.06"/>
</g>
<!-- Node6 -->
<g id="node6" class="node">
<title>Node6</title>
<g id="a_node6"><a xlink:href="lbuf_8c.html#ae74f0372b69451ac877a76505b05874f" target="_top" xlink:title=" ">
<polygon fill="white" stroke="black" points="99,-0.5 99,-19.5 149,-19.5 149,-0.5 99,-0.5"/>
<text text-anchor="middle" x="124" y="-7.5" font-family="Helvetica,sans-Serif" font-size="10.00">lbuf_len</text>
</a>
</g>
</g>
<!-- Node1&#45;&gt;Node6 -->
<g id="edge6" class="edge">
<title>Node1&#45;&gt;Node6</title>
<path fill="none" stroke="midnightblue" d="M44.95,-57.33C59.62,-48.43 81.6,-35.1 98.5,-24.86"/>
<polygon fill="midnightblue" stroke="midnightblue" points="100.55,-27.7 107.29,-19.53 96.92,-21.72 100.55,-27.7"/>
</g>
<!-- Node7 -->
<g id="node7" class="node">
<title>Node7</title>
<g id="a_node7"><a xlink:href="mot_8c.html#a7d0e1b91bf9ad736cf9f11035a9beef0" target="_top" xlink:title=" ">
<polygon fill="white" stroke="black" points="92,-38.5 92,-57.5 156,-57.5 156,-38.5 92,-38.5"/>
<text text-anchor="middle" x="124" y="-45.5" font-family="Helvetica,sans-Serif" font-size="10.00">lbuf_lnnext</text>
</a>
</g>
</g>
<!-- Node1&#45;&gt;Node7 -->
<g id="edge7" class="edge">
<title>Node1&#45;&gt;Node7</title>
<path fill="none" stroke="midnightblue" d="M56.19,-61.5C64.22,-59.88 73.19,-58.07 81.89,-56.31"/>
<polygon fill="midnightblue" stroke="midnightblue" points="82.79,-59.7 91.9,-54.29 81.41,-52.84 82.79,-59.7"/>
</g>
<!-- Node2&#45;&gt;Node3 -->
<g id="edge2" class="edge">
<title>Node2&#45;&gt;Node3</title>
<path fill="none" stroke="midnightblue" d="M149.04,-86C159.07,-86 170.92,-86 181.86,-86"/>
<polygon fill="midnightblue" stroke="midnightblue" points="181.98,-89.5 191.98,-86 181.98,-82.5 181.98,-89.5"/>
</g>
<!-- Node4 -->
<g id="node4" class="node">
<title>Node4</title>
<g id="a_node4"><a xlink:href="uc_8c.html#a8afd7835259109c3ec7bb684d4a1f67f" target="_top" xlink:title=" ">
<polygon fill="white" stroke="black" points="192.5,-38.5 192.5,-57.5 242.5,-57.5 242.5,-38.5 192.5,-38.5"/>
<text text-anchor="middle" x="217.5" y="-45.5" font-family="Helvetica,sans-Serif" font-size="10.00">uc_slen</text>
</a>
</g>
</g>
<!-- Node2&#45;&gt;Node4 -->
<g id="edge3" class="edge">
<title>Node2&#45;&gt;Node4</title>
<path fill="none" stroke="midnightblue" d="M148.09,-76.41C158.93,-71.91 172.03,-66.47 183.86,-61.56"/>
<polygon fill="midnightblue" stroke="midnightblue" points="185.53,-64.65 193.42,-57.59 182.84,-58.19 185.53,-64.65"/>
</g>
<!-- Node5 -->
<g id="node5" class="node">
<title>Node5</title>
<g id="a_node5"><a xlink:href="uc_8c.html#a616e24870a58b86644c34ee077faca11" target="_top" xlink:title=" ">
<polygon fill="white" stroke="black" points="279,-38.5 279,-57.5 327,-57.5 327,-38.5 279,-38.5"/>
<text text-anchor="middle" x="303" y="-45.5" font-family="Helvetica,sans-Serif" font-size="10.00">uc_end</text>
</a>
</g>
</g>
<!-- Node4&#45;&gt;Node5 -->
<g id="edge4" class="edge">
<title>Node4&#45;&gt;Node5</title>
<path fill="none" stroke="midnightblue" d="M242.65,-48C250.73,-48 259.89,-48 268.55,-48"/>
<polygon fill="midnightblue" stroke="midnightblue" points="268.76,-51.5 278.76,-48 268.76,-44.5 268.76,-51.5"/>
</g>
<!-- Node7&#45;&gt;Node3 -->
<g id="edge8" class="edge">
<title>Node7&#45;&gt;Node3</title>
<path fill="none" stroke="midnightblue" d="M148.09,-57.59C158.93,-62.09 172.03,-67.53 183.86,-72.44"/>
<polygon fill="midnightblue" stroke="midnightblue" points="182.84,-75.81 193.42,-76.41 185.53,-69.35 182.84,-75.81"/>
</g>
<!-- Node7&#45;&gt;Node4 -->
<g id="edge9" class="edge">
<title>Node7&#45;&gt;Node4</title>
<path fill="none" stroke="midnightblue" d="M156.23,-48C164.62,-48 173.74,-48 182.29,-48"/>
<polygon fill="midnightblue" stroke="midnightblue" points="182.34,-51.5 192.34,-48 182.34,-44.5 182.34,-51.5"/>
</g>
</g>
</svg>
