<?xml version="1.0" encoding="UTF-8" standalone="no"?>
<!DOCTYPE svg PUBLIC "-//W3C//DTD SVG 1.1//EN"
 "http://www.w3.org/Graphics/SVG/1.1/DTD/svg11.dtd">
<!-- Generated by graphviz version 2.44.1 (20200629.0846)
 -->
<!-- Title: reg_get Pages: 1 -->
<svg width="1325pt" height="955pt"
 viewBox="0.00 0.00 1325.00 955.00" xmlns="http://www.w3.org/2000/svg" xmlns:xlink="http://www.w3.org/1999/xlink">
<g id="graph0" class="graph" transform="scale(1 1) rotate(0) translate(4 951)">
<title>reg_get</title>
<polygon fill="white" stroke="transparent" points="-4,4 -4,-951 1321,-951 1321,4 -4,4"/>
<!-- Node1 -->
<g id="node1" class="node">
<title>Node1</title>
<g id="a_node1"><a xlink:title=" ">
<polygon fill="#bfbfbf" stroke="black" points="1268,-139.5 1268,-158.5 1317,-158.5 1317,-139.5 1268,-139.5"/>
<text text-anchor="middle" x="1292.5" y="-146.5" font-family="Helvetica,sans-Serif" font-size="10.00">reg_get</text>
</a>
</g>
</g>
<!-- Node2 -->
<g id="node2" class="node">
<title>Node2</title>
<g id="a_node2"><a xlink:href="ex_8c.html#ab417867ff867aff9f7277229990cd1b8" target="_top" xlink:title=" ">
<polygon fill="white" stroke="black" points="694.5,-851.5 694.5,-870.5 740.5,-870.5 740.5,-851.5 694.5,-851.5"/>
<text text-anchor="middle" x="717.5" y="-858.5" font-family="Helvetica,sans-Serif" font-size="10.00">ec_put</text>
</a>
</g>
</g>
<!-- Node1&#45;&gt;Node2 -->
<g id="edge1" class="edge">
<title>Node1&#45;&gt;Node2</title>
<path fill="none" stroke="midnightblue" d="M1290.95,-168.66C1287.26,-283.37 1261.35,-861 1114.5,-861 1114.5,-861 1114.5,-861 915.5,-861 852.06,-861 777.12,-861 740.66,-861"/>
<polygon fill="midnightblue" stroke="midnightblue" points="1294.46,-168.62 1291.26,-158.52 1287.46,-168.41 1294.46,-168.62"/>
</g>
<!-- Node3 -->
<g id="node3" class="node">
<title>Node3</title>
<g id="a_node3"><a xlink:href="led_8c.html#a617ec615e86687b5c10df33b271256c8" target="_top" xlink:title=" ">
<polygon fill="white" stroke="black" points="1182,-139.5 1182,-158.5 1232,-158.5 1232,-139.5 1182,-139.5"/>
<text text-anchor="middle" x="1207" y="-146.5" font-family="Helvetica,sans-Serif" font-size="10.00">led_line</text>
</a>
</g>
</g>
<!-- Node1&#45;&gt;Node3 -->
<g id="edge2" class="edge">
<title>Node1&#45;&gt;Node3</title>
<path fill="none" stroke="midnightblue" d="M1257.66,-149C1249.08,-149 1240.04,-149 1232.05,-149"/>
<polygon fill="midnightblue" stroke="midnightblue" points="1257.8,-152.5 1267.8,-149 1257.8,-145.5 1257.8,-152.5"/>
</g>
<!-- Node20 -->
<g id="node20" class="node">
<title>Node20</title>
<g id="a_node20"><a xlink:href="vi_8h.html#a4d67e3639135b4176414504d782a7b4c" target="_top" xlink:title=" ">
<polygon fill="white" stroke="black" points="1182.5,-272.5 1182.5,-291.5 1231.5,-291.5 1231.5,-272.5 1182.5,-272.5"/>
<text text-anchor="middle" x="1207" y="-279.5" font-family="Helvetica,sans-Serif" font-size="10.00">reg_put</text>
</a>
</g>
</g>
<!-- Node1&#45;&gt;Node20 -->
<g id="edge26" class="edge">
<title>Node1&#45;&gt;Node20</title>
<path fill="none" stroke="midnightblue" d="M1280.1,-167.16C1262.2,-195.67 1228.12,-249.95 1214.18,-272.16"/>
<polygon fill="midnightblue" stroke="midnightblue" points="1283.14,-168.89 1285.49,-158.56 1277.21,-165.17 1283.14,-168.89"/>
</g>
<!-- Node48 -->
<g id="node48" class="node">
<title>Node48</title>
<g id="a_node48"><a xlink:href="vi_8c.html#a645d411d7e83bf0ebca310f731577a63" target="_top" xlink:title=" ">
<polygon fill="white" stroke="black" points="355,-6.5 355,-25.5 422,-25.5 422,-6.5 355,-6.5"/>
<text text-anchor="middle" x="388.5" y="-13.5" font-family="Helvetica,sans-Serif" font-size="10.00">vc_execute</text>
</a>
</g>
</g>
<!-- Node1&#45;&gt;Node48 -->
<g id="edge75" class="edge">
<title>Node1&#45;&gt;Node48</title>
<path fill="none" stroke="midnightblue" d="M1279.48,-130.75C1253.86,-94.31 1190.01,-16 1114.5,-16 1114.5,-16 1114.5,-16 596,-16 534.52,-16 462.73,-16 422.05,-16"/>
<polygon fill="midnightblue" stroke="midnightblue" points="1276.88,-133.15 1285.41,-139.43 1282.66,-129.2 1276.88,-133.15"/>
</g>
<!-- Node49 -->
<g id="node49" class="node">
<title>Node49</title>
<g id="a_node49"><a xlink:href="vi_8c.html#a7611a5bcfe4c4ddc58233c4c52a8fa16" target="_top" xlink:title=" ">
<polygon fill="white" stroke="black" points="269.5,-82.5 269.5,-101.5 315.5,-101.5 315.5,-82.5 269.5,-82.5"/>
<text text-anchor="middle" x="292.5" y="-89.5" font-family="Helvetica,sans-Serif" font-size="10.00">vc_put</text>
</a>
</g>
</g>
<!-- Node1&#45;&gt;Node49 -->
<g id="edge77" class="edge">
<title>Node1&#45;&gt;Node49</title>
<path fill="none" stroke="midnightblue" d="M1264.78,-134.62C1230.85,-117.73 1170.03,-92 1114.5,-92 1114.5,-92 1114.5,-92 485,-92 423.66,-92 351.27,-92 315.62,-92"/>
<polygon fill="midnightblue" stroke="midnightblue" points="1263.51,-137.9 1274.01,-139.33 1266.69,-131.67 1263.51,-137.9"/>
</g>
<!-- Node4 -->
<g id="node4" class="node">
<title>Node4</title>
<g id="a_node4"><a xlink:href="vi_8h.html#ae72255a31cec31233723c101d9465d07" target="_top" xlink:title=" ">
<polygon fill="white" stroke="black" points="1085.5,-120.5 1085.5,-139.5 1141.5,-139.5 1141.5,-120.5 1085.5,-120.5"/>
<text text-anchor="middle" x="1113.5" y="-127.5" font-family="Helvetica,sans-Serif" font-size="10.00">led_input</text>
</a>
</g>
</g>
<!-- Node3&#45;&gt;Node4 -->
<g id="edge3" class="edge">
<title>Node3&#45;&gt;Node4</title>
<path fill="none" stroke="midnightblue" d="M1171.91,-141.92C1161.91,-139.84 1151.11,-137.6 1141.61,-135.63"/>
<polygon fill="midnightblue" stroke="midnightblue" points="1171.46,-145.4 1181.96,-144 1172.88,-138.54 1171.46,-145.4"/>
</g>
<!-- Node11 -->
<g id="node11" class="node">
<title>Node11</title>
<g id="a_node11"><a xlink:href="vi_8h.html#a173bb468e1e2a066136316f98b49c108" target="_top" xlink:title=" ">
<polygon fill="white" stroke="black" points="1081,-158.5 1081,-177.5 1146,-177.5 1146,-158.5 1081,-158.5"/>
<text text-anchor="middle" x="1113.5" y="-165.5" font-family="Helvetica,sans-Serif" font-size="10.00">led_prompt</text>
</a>
</g>
</g>
<!-- Node3&#45;&gt;Node11 -->
<g id="edge11" class="edge">
<title>Node3&#45;&gt;Node11</title>
<path fill="none" stroke="midnightblue" d="M1172.05,-156.05C1163.62,-157.8 1154.62,-159.67 1146.3,-161.39"/>
<polygon fill="midnightblue" stroke="midnightblue" points="1172.88,-159.45 1181.96,-153.99 1171.46,-152.59 1172.88,-159.45"/>
</g>
<!-- Node5 -->
<g id="node5" class="node">
<title>Node5</title>
<g id="a_node5"><a xlink:href="vi_8c.html#a653f6b0359cef492e11f404c4bf469b9" target="_top" xlink:title=" ">
<polygon fill="white" stroke="black" points="989,-120.5 989,-139.5 1039,-139.5 1039,-120.5 989,-120.5"/>
<text text-anchor="middle" x="1014" y="-127.5" font-family="Helvetica,sans-Serif" font-size="10.00">vi_input</text>
</a>
</g>
</g>
<!-- Node4&#45;&gt;Node5 -->
<g id="edge4" class="edge">
<title>Node4&#45;&gt;Node5</title>
<path fill="none" stroke="midnightblue" d="M1075.05,-130C1062.95,-130 1049.88,-130 1039.02,-130"/>
<polygon fill="midnightblue" stroke="midnightblue" points="1075.34,-133.5 1085.34,-130 1075.34,-126.5 1075.34,-133.5"/>
</g>
<!-- Node6 -->
<g id="node6" class="node">
<title>Node6</title>
<g id="a_node6"><a xlink:href="vi_8c.html#a8bb357a77ed61da8858f138c6fa672a6" target="_top" xlink:title=" ">
<polygon fill="white" stroke="black" points="164.5,-44.5 164.5,-63.5 220.5,-63.5 220.5,-44.5 164.5,-44.5"/>
<text text-anchor="middle" x="192.5" y="-51.5" font-family="Helvetica,sans-Serif" font-size="10.00">vc_insert</text>
</a>
</g>
</g>
<!-- Node5&#45;&gt;Node6 -->
<g id="edge5" class="edge">
<title>Node5&#45;&gt;Node6</title>
<path fill="none" stroke="midnightblue" d="M990.95,-114.86C956.44,-92.69 886.84,-54 821.5,-54 821.5,-54 821.5,-54 387.5,-54 328.05,-54 258.36,-54 220.81,-54"/>
<polygon fill="midnightblue" stroke="midnightblue" points="989.05,-117.8 999.33,-120.37 992.9,-111.95 989.05,-117.8"/>
</g>
<!-- Node9 -->
<g id="node9" class="node">
<title>Node9</title>
<g id="a_node9"><a xlink:href="vi_8c.html#ae37b094c3bb647d8c1a4ac4e858ce518" target="_top" xlink:title=" ">
<polygon fill="white" stroke="black" points="886,-196.5 886,-215.5 947,-215.5 947,-196.5 886,-196.5"/>
<text text-anchor="middle" x="916.5" y="-203.5" font-family="Helvetica,sans-Serif" font-size="10.00">vi_change</text>
</a>
</g>
</g>
<!-- Node5&#45;&gt;Node9 -->
<g id="edge8" class="edge">
<title>Node5&#45;&gt;Node9</title>
<path fill="none" stroke="midnightblue" d="M988.08,-145.36C986.34,-146.56 984.63,-147.78 983,-149 962.45,-164.31 940.31,-184.42 927.75,-196.2"/>
<polygon fill="midnightblue" stroke="midnightblue" points="990.39,-148.04 996.82,-139.62 986.54,-142.19 990.39,-148.04"/>
</g>
<!-- Node7 -->
<g id="node7" class="node">
<title>Node7</title>
<g id="a_node7"><a xlink:href="vi_8c.html#a8d808e0f3453afe6600673ee1ea5f828" target="_top" xlink:title=" ">
<polygon fill="white" stroke="black" points="82,-205.5 82,-224.5 111,-224.5 111,-205.5 82,-205.5"/>
<text text-anchor="middle" x="96.5" y="-212.5" font-family="Helvetica,sans-Serif" font-size="10.00">vi</text>
</a>
</g>
</g>
<!-- Node6&#45;&gt;Node7 -->
<g id="edge6" class="edge">
<title>Node6&#45;&gt;Node7</title>
<path fill="none" stroke="midnightblue" d="M164,-69.42C160.71,-72 157.6,-74.87 155,-78 121.37,-118.47 104.83,-181.44 99.49,-205.34"/>
<polygon fill="midnightblue" stroke="midnightblue" points="166.16,-72.18 172.38,-63.61 162.17,-66.43 166.16,-72.18"/>
</g>
<!-- Node8 -->
<g id="node8" class="node">
<title>Node8</title>
<g id="a_node8"><a xlink:href="vi_8c.html#a0ddf1224851353fc92bfbff6f499fa97" target="_top" xlink:title=" ">
<polygon fill="white" stroke="black" points="0,-362.5 0,-381.5 38,-381.5 38,-362.5 0,-362.5"/>
<text text-anchor="middle" x="19" y="-369.5" font-family="Helvetica,sans-Serif" font-size="10.00">main</text>
</a>
</g>
</g>
<!-- Node7&#45;&gt;Node8 -->
<g id="edge7" class="edge">
<title>Node7&#45;&gt;Node8</title>
<path fill="none" stroke="midnightblue" d="M86.34,-234.05C70.14,-267.73 37.01,-336.63 24.72,-362.18"/>
<polygon fill="midnightblue" stroke="midnightblue" points="89.6,-235.35 90.78,-224.82 83.29,-232.31 89.6,-235.35"/>
</g>
<!-- Node10 -->
<g id="node10" class="node">
<title>Node10</title>
<g id="a_node10"><a xlink:href="vi_8c.html#a06cbc6eb843436a0e77e07cbab0c4538" target="_top" xlink:title=" ">
<polygon fill="white" stroke="black" points="686.5,-205.5 686.5,-224.5 748.5,-224.5 748.5,-205.5 686.5,-205.5"/>
<text text-anchor="middle" x="717.5" y="-212.5" font-family="Helvetica,sans-Serif" font-size="10.00">vc_motion</text>
</a>
</g>
</g>
<!-- Node9&#45;&gt;Node10 -->
<g id="edge9" class="edge">
<title>Node9&#45;&gt;Node10</title>
<path fill="none" stroke="midnightblue" d="M875.5,-207.82C837.97,-209.54 782.67,-212.06 748.7,-213.62"/>
<polygon fill="midnightblue" stroke="midnightblue" points="875.75,-211.32 885.58,-207.36 875.43,-204.32 875.75,-211.32"/>
</g>
<!-- Node10&#45;&gt;Node7 -->
<g id="edge10" class="edge">
<title>Node10&#45;&gt;Node7</title>
<path fill="none" stroke="midnightblue" d="M676.31,-215C630.49,-215 553.35,-215 487,-215 487,-215 487,-215 291.5,-215 223.8,-215 142.82,-215 111.14,-215"/>
<polygon fill="midnightblue" stroke="midnightblue" points="676.43,-218.5 686.43,-215 676.43,-211.5 676.43,-218.5"/>
</g>
<!-- Node12 -->
<g id="node12" class="node">
<title>Node12</title>
<g id="a_node12"><a xlink:href="vi_8h.html#a7ba56272fe1a7d523192729a0bb5edf7" target="_top" xlink:title=" ">
<polygon fill="white" stroke="black" points="795,-353.5 795,-372.5 846,-372.5 846,-353.5 795,-353.5"/>
<text text-anchor="middle" x="820.5" y="-360.5" font-family="Helvetica,sans-Serif" font-size="10.00">ex_read</text>
</a>
</g>
</g>
<!-- Node11&#45;&gt;Node12 -->
<g id="edge12" class="edge">
<title>Node11&#45;&gt;Node12</title>
<path fill="none" stroke="midnightblue" d="M1106.06,-187.55C1091.77,-230.35 1057.7,-329.32 1045,-339 985.86,-384.04 890.97,-375.34 846.29,-367.93"/>
<polygon fill="midnightblue" stroke="midnightblue" points="1109.41,-188.56 1109.24,-177.96 1102.76,-186.35 1109.41,-188.56"/>
</g>
<!-- Node16 -->
<g id="node16" class="node">
<title>Node16</title>
<g id="a_node16"><a xlink:href="vi_8c.html#a57965473297aad4c4333fdd3897c11f3" target="_top" xlink:title=" ">
<polygon fill="white" stroke="black" points="984.5,-158.5 984.5,-177.5 1043.5,-177.5 1043.5,-158.5 984.5,-158.5"/>
<text text-anchor="middle" x="1014" y="-165.5" font-family="Helvetica,sans-Serif" font-size="10.00">vi_prompt</text>
</a>
</g>
</g>
<!-- Node11&#45;&gt;Node16 -->
<g id="edge18" class="edge">
<title>Node11&#45;&gt;Node16</title>
<path fill="none" stroke="midnightblue" d="M1070.71,-168C1061.54,-168 1052.04,-168 1043.53,-168"/>
<polygon fill="midnightblue" stroke="midnightblue" points="1070.84,-171.5 1080.84,-168 1070.84,-164.5 1070.84,-171.5"/>
</g>
<!-- Node13 -->
<g id="node13" class="node">
<title>Node13</title>
<g id="a_node13"><a xlink:href="ex_8c.html#a0908784dc65be2da119a6b72ef96dec2" target="_top" xlink:title=" ">
<polygon fill="white" stroke="black" points="689.5,-357.5 689.5,-376.5 745.5,-376.5 745.5,-357.5 689.5,-357.5"/>
<text text-anchor="middle" x="717.5" y="-364.5" font-family="Helvetica,sans-Serif" font-size="10.00">ec_insert</text>
</a>
</g>
</g>
<!-- Node12&#45;&gt;Node13 -->
<g id="edge13" class="edge">
<title>Node12&#45;&gt;Node13</title>
<path fill="none" stroke="midnightblue" d="M784.56,-364.38C771.87,-364.88 757.73,-365.44 745.79,-365.92"/>
<polygon fill="midnightblue" stroke="midnightblue" points="784.94,-367.87 794.79,-363.97 784.66,-360.87 784.94,-367.87"/>
</g>
<!-- Node14 -->
<g id="node14" class="node">
<title>Node14</title>
<g id="a_node14"><a xlink:href="vi_8h.html#ac395e51f25330a6e6033b6d0d22b2076" target="_top" xlink:title=" ">
<polygon fill="white" stroke="black" points="82,-362.5 82,-381.5 111,-381.5 111,-362.5 82,-362.5"/>
<text text-anchor="middle" x="96.5" y="-369.5" font-family="Helvetica,sans-Serif" font-size="10.00">ex</text>
</a>
</g>
</g>
<!-- Node12&#45;&gt;Node14 -->
<g id="edge14" class="edge">
<title>Node12&#45;&gt;Node14</title>
<path fill="none" stroke="midnightblue" d="M785.02,-354.37C741.66,-344.3 664.81,-329 598,-329 598,-329 598,-329 291.5,-329 222.5,-329 142.91,-355.24 111.38,-366.72"/>
<polygon fill="midnightblue" stroke="midnightblue" points="784.24,-357.78 794.78,-356.68 785.85,-350.97 784.24,-357.78"/>
</g>
<!-- Node15 -->
<g id="node15" class="node">
<title>Node15</title>
<g id="a_node15"><a xlink:href="vi_8c.html#a9d85e9ed087401367529ab86a5dbf0c5" target="_top" xlink:title=" ">
<polygon fill="white" stroke="black" points="573.5,-281.5 573.5,-300.5 620.5,-300.5 620.5,-281.5 573.5,-281.5"/>
<text text-anchor="middle" x="597" y="-288.5" font-family="Helvetica,sans-Serif" font-size="10.00">vi_wait</text>
</a>
</g>
</g>
<!-- Node12&#45;&gt;Node15 -->
<g id="edge16" class="edge">
<title>Node12&#45;&gt;Node15</title>
<path fill="none" stroke="midnightblue" d="M800.25,-347.04C784.96,-334.68 764.62,-319.01 755,-315 709.97,-296.18 652.15,-291.91 620.76,-291.07"/>
<polygon fill="midnightblue" stroke="midnightblue" points="798.16,-349.85 808.12,-353.46 802.59,-344.43 798.16,-349.85"/>
</g>
<!-- Node14&#45;&gt;Node8 -->
<g id="edge15" class="edge">
<title>Node14&#45;&gt;Node8</title>
<path fill="none" stroke="midnightblue" d="M71.55,-372C60.69,-372 48.07,-372 38.04,-372"/>
<polygon fill="midnightblue" stroke="midnightblue" points="71.65,-375.5 81.65,-372 71.65,-368.5 71.65,-375.5"/>
</g>
<!-- Node15&#45;&gt;Node7 -->
<g id="edge17" class="edge">
<title>Node15&#45;&gt;Node7</title>
<path fill="none" stroke="midnightblue" d="M563.24,-291C522.52,-291 450.88,-291 389.5,-291 389.5,-291 389.5,-291 291.5,-291 229.9,-291 210.34,-294.05 155,-267 134.2,-256.83 115.39,-236.85 105.29,-224.83"/>
<polygon fill="midnightblue" stroke="midnightblue" points="563.39,-294.5 573.39,-291 563.39,-287.5 563.39,-294.5"/>
</g>
<!-- Node16&#45;&gt;Node7 -->
<g id="edge19" class="edge">
<title>Node16&#45;&gt;Node7</title>
<path fill="none" stroke="midnightblue" d="M974.76,-155.82C936.42,-144.7 875.48,-130 821.5,-130 821.5,-130 821.5,-130 291.5,-130 217.22,-130 139.38,-182.92 109.84,-205.25"/>
<polygon fill="midnightblue" stroke="midnightblue" points="973.89,-159.21 984.48,-158.7 975.88,-152.5 973.89,-159.21"/>
</g>
<!-- Node17 -->
<g id="node17" class="node">
<title>Node17</title>
<g id="a_node17"><a xlink:href="vi_8c.html#ab8e0c9b9d2ef5161c6a3a8828606df5f" target="_top" xlink:title=" ">
<polygon fill="white" stroke="black" points="797,-158.5 797,-177.5 844,-177.5 844,-158.5 797,-158.5"/>
<text text-anchor="middle" x="820.5" y="-165.5" font-family="Helvetica,sans-Serif" font-size="10.00">vi_pipe</text>
</a>
</g>
</g>
<!-- Node16&#45;&gt;Node17 -->
<g id="edge20" class="edge">
<title>Node16&#45;&gt;Node17</title>
<path fill="none" stroke="midnightblue" d="M974.11,-168C935,-168 876.05,-168 844.07,-168"/>
<polygon fill="midnightblue" stroke="midnightblue" points="974.33,-171.5 984.33,-168 974.33,-164.5 974.33,-171.5"/>
</g>
<!-- Node18 -->
<g id="node18" class="node">
<title>Node18</title>
<g id="a_node18"><a xlink:href="vi_8c.html#a93701c59617d4f96cbaa207e89178f87" target="_top" xlink:title=" ">
<polygon fill="white" stroke="black" points="887,-310.5 887,-329.5 946,-329.5 946,-310.5 887,-310.5"/>
<text text-anchor="middle" x="916.5" y="-317.5" font-family="Helvetica,sans-Serif" font-size="10.00">vi_search</text>
</a>
</g>
</g>
<!-- Node16&#45;&gt;Node18 -->
<g id="edge22" class="edge">
<title>Node16&#45;&gt;Node18</title>
<path fill="none" stroke="midnightblue" d="M1001.67,-186.03C981.28,-218.48 939.08,-285.65 923.47,-310.49"/>
<polygon fill="midnightblue" stroke="midnightblue" points="1004.67,-187.83 1007.03,-177.5 998.74,-184.11 1004.67,-187.83"/>
</g>
<!-- Node17&#45;&gt;Node10 -->
<g id="edge21" class="edge">
<title>Node17&#45;&gt;Node10</title>
<path fill="none" stroke="midnightblue" d="M789.95,-181.75C773.68,-189.32 753.88,-198.53 739.26,-205.34"/>
<polygon fill="midnightblue" stroke="midnightblue" points="791.47,-184.9 799.06,-177.51 788.52,-178.55 791.47,-184.9"/>
</g>
<!-- Node19 -->
<g id="node19" class="node">
<title>Node19</title>
<g id="a_node19"><a xlink:href="vi_8c.html#aaa4777ea0715ea846346d0f27a0cfa3f" target="_top" xlink:title=" ">
<polygon fill="white" stroke="black" points="791,-310.5 791,-329.5 850,-329.5 850,-310.5 791,-310.5"/>
<text text-anchor="middle" x="820.5" y="-317.5" font-family="Helvetica,sans-Serif" font-size="10.00">vi_motion</text>
</a>
</g>
</g>
<!-- Node18&#45;&gt;Node19 -->
<g id="edge23" class="edge">
<title>Node18&#45;&gt;Node19</title>
<path fill="none" stroke="midnightblue" d="M876.6,-320C867.71,-320 858.41,-320 850.04,-320"/>
<polygon fill="midnightblue" stroke="midnightblue" points="876.79,-323.5 886.79,-320 876.79,-316.5 876.79,-323.5"/>
</g>
<!-- Node19&#45;&gt;Node7 -->
<g id="edge25" class="edge">
<title>Node19&#45;&gt;Node7</title>
<path fill="none" stroke="midnightblue" d="M792.01,-305.96C750.91,-286.31 670.53,-253 598,-253 598,-253 598,-253 291.5,-253 222.86,-253 143.06,-229.8 111.43,-219.66"/>
<polygon fill="midnightblue" stroke="midnightblue" points="790.59,-309.16 801.11,-310.4 793.65,-302.87 790.59,-309.16"/>
</g>
<!-- Node19&#45;&gt;Node10 -->
<g id="edge24" class="edge">
<title>Node19&#45;&gt;Node10</title>
<path fill="none" stroke="midnightblue" d="M798.81,-303.9C796.05,-301.38 793.37,-298.71 791,-296 771.31,-273.41 775.99,-260.38 755,-239 749.58,-233.48 742.69,-228.55 736.35,-224.61"/>
<polygon fill="midnightblue" stroke="midnightblue" points="796.66,-306.66 806.54,-310.49 801.2,-301.34 796.66,-306.66"/>
</g>
<!-- Node20&#45;&gt;Node9 -->
<g id="edge70" class="edge">
<title>Node20&#45;&gt;Node9</title>
<path fill="none" stroke="midnightblue" d="M1183.31,-267.05C1172.4,-260.42 1158.91,-253 1146,-248 1077.93,-221.61 991.89,-211.54 947.32,-207.91"/>
<polygon fill="midnightblue" stroke="midnightblue" points="1181.46,-270.03 1191.8,-272.37 1185.18,-264.09 1181.46,-270.03"/>
</g>
<!-- Node21 -->
<g id="node21" class="node">
<title>Node21</title>
<g id="a_node21"><a xlink:href="vi_8h.html#aa75c73cccb4878ec06ea5bf5b1b02295" target="_top" xlink:title=" ">
<polygon fill="white" stroke="black" points="155,-419.5 155,-438.5 230,-438.5 230,-419.5 155,-419.5"/>
<text text-anchor="middle" x="192.5" y="-426.5" font-family="Helvetica,sans-Serif" font-size="10.00">ex_command</text>
</a>
</g>
</g>
<!-- Node20&#45;&gt;Node21 -->
<g id="edge27" class="edge">
<title>Node20&#45;&gt;Node21</title>
<path fill="none" stroke="midnightblue" d="M1206.08,-301.91C1205.39,-407.71 1187.63,-899 917.5,-899 917.5,-899 917.5,-899 387.5,-899 284.22,-899 207.66,-506.31 195.26,-438.81"/>
<polygon fill="midnightblue" stroke="midnightblue" points="1209.58,-301.69 1206.1,-291.69 1202.58,-301.68 1209.58,-301.69"/>
</g>
<!-- Node23 -->
<g id="node23" class="node">
<title>Node23</title>
<g id="a_node23"><a xlink:href="vi_8h.html#aff6b33b5c383668577090507620d7b17" target="_top" xlink:title=" ">
<polygon fill="white" stroke="black" points="1081.5,-386.5 1081.5,-405.5 1145.5,-405.5 1145.5,-386.5 1081.5,-386.5"/>
<text text-anchor="middle" x="1113.5" y="-393.5" font-family="Helvetica,sans-Serif" font-size="10.00">ex_kwdset</text>
</a>
</g>
</g>
<!-- Node20&#45;&gt;Node23 -->
<g id="edge32" class="edge">
<title>Node20&#45;&gt;Node23</title>
<path fill="none" stroke="midnightblue" d="M1191.73,-299.78C1172.15,-324.17 1137.66,-367.14 1122.28,-386.3"/>
<polygon fill="midnightblue" stroke="midnightblue" points="1194.67,-301.71 1198.2,-291.72 1189.21,-297.32 1194.67,-301.71"/>
</g>
<!-- Node45 -->
<g id="node45" class="node">
<title>Node45</title>
<g id="a_node45"><a xlink:href="ex_8c.html#ae9e1526f5bbf1bcc1ea5cb8fec120f49" target="_top" xlink:title=" ">
<polygon fill="white" stroke="black" points="794,-775.5 794,-794.5 847,-794.5 847,-775.5 794,-775.5"/>
<text text-anchor="middle" x="820.5" y="-782.5" font-family="Helvetica,sans-Serif" font-size="10.00">ex_yank</text>
</a>
</g>
</g>
<!-- Node20&#45;&gt;Node45 -->
<g id="edge67" class="edge">
<title>Node20&#45;&gt;Node45</title>
<path fill="none" stroke="midnightblue" d="M1198.74,-301.24C1188.46,-327.65 1168.41,-376.26 1146,-415 1051.46,-578.45 878.31,-735.43 832.74,-775.31"/>
<polygon fill="midnightblue" stroke="midnightblue" points="1202.1,-302.26 1202.41,-291.67 1195.56,-299.75 1202.1,-302.26"/>
</g>
<!-- Node46 -->
<g id="node46" class="node">
<title>Node46</title>
<g id="a_node46"><a xlink:href="vi_8c.html#abfa30fc2e2b4b8b24e2ee5d4bd54f2eb" target="_top" xlink:title=" ">
<polygon fill="white" stroke="black" points="986,-234.5 986,-253.5 1042,-253.5 1042,-234.5 986,-234.5"/>
<text text-anchor="middle" x="1014" y="-241.5" font-family="Helvetica,sans-Serif" font-size="10.00">vi_delete</text>
</a>
</g>
</g>
<!-- Node20&#45;&gt;Node46 -->
<g id="edge71" class="edge">
<title>Node20&#45;&gt;Node46</title>
<path fill="none" stroke="midnightblue" d="M1172.61,-270.36C1164.01,-267.66 1154.73,-265 1146,-263 1110.5,-254.86 1068.74,-249.51 1042.08,-246.62"/>
<polygon fill="midnightblue" stroke="midnightblue" points="1171.71,-273.75 1182.3,-273.51 1173.87,-267.1 1171.71,-273.75"/>
</g>
<!-- Node47 -->
<g id="node47" class="node">
<title>Node47</title>
<g id="a_node47"><a xlink:href="vi_8c.html#a2faedb758580642d391ee8ffae96d3d9" target="_top" xlink:title=" ">
<polygon fill="white" stroke="black" points="1088.5,-272.5 1088.5,-291.5 1138.5,-291.5 1138.5,-272.5 1088.5,-272.5"/>
<text text-anchor="middle" x="1113.5" y="-279.5" font-family="Helvetica,sans-Serif" font-size="10.00">vi_yank</text>
</a>
</g>
</g>
<!-- Node20&#45;&gt;Node47 -->
<g id="edge73" class="edge">
<title>Node20&#45;&gt;Node47</title>
<path fill="none" stroke="midnightblue" d="M1172.17,-282C1161.03,-282 1148.88,-282 1138.62,-282"/>
<polygon fill="midnightblue" stroke="midnightblue" points="1172.44,-285.5 1182.44,-282 1172.44,-278.5 1172.44,-285.5"/>
</g>
<!-- Node21&#45;&gt;Node7 -->
<g id="edge31" class="edge">
<title>Node21&#45;&gt;Node7</title>
<path fill="none" stroke="midnightblue" d="M183.13,-409.93C163.75,-365.81 116.34,-257.9 101.81,-224.8"/>
<polygon fill="midnightblue" stroke="midnightblue" points="179.99,-411.5 187.22,-419.25 186.4,-408.68 179.99,-411.5"/>
</g>
<!-- Node21&#45;&gt;Node14 -->
<g id="edge28" class="edge">
<title>Node21&#45;&gt;Node14</title>
<path fill="none" stroke="midnightblue" d="M166.82,-414.03C149.01,-403.23 125.62,-389.05 111.08,-380.23"/>
<polygon fill="midnightblue" stroke="midnightblue" points="165.19,-417.13 175.55,-419.33 168.82,-411.15 165.19,-417.13"/>
</g>
<!-- Node22 -->
<g id="node22" class="node">
<title>Node22</title>
<g id="a_node22"><a xlink:href="vi_8h.html#abe53b5c10f94f20cd5ed024371615fa1" target="_top" xlink:title=" ">
<polygon fill="white" stroke="black" points="74,-419.5 74,-438.5 119,-438.5 119,-419.5 74,-419.5"/>
<text text-anchor="middle" x="96.5" y="-426.5" font-family="Helvetica,sans-Serif" font-size="10.00">ex_init</text>
</a>
</g>
</g>
<!-- Node21&#45;&gt;Node22 -->
<g id="edge29" class="edge">
<title>Node21&#45;&gt;Node22</title>
<path fill="none" stroke="midnightblue" d="M144.85,-429C135.89,-429 126.91,-429 119.21,-429"/>
<polygon fill="midnightblue" stroke="midnightblue" points="144.89,-432.5 154.89,-429 144.89,-425.5 144.89,-432.5"/>
</g>
<!-- Node22&#45;&gt;Node8 -->
<g id="edge30" class="edge">
<title>Node22&#45;&gt;Node8</title>
<path fill="none" stroke="midnightblue" d="M74.46,-413.11C61.01,-402.96 44.01,-390.13 32.62,-381.52"/>
<polygon fill="midnightblue" stroke="midnightblue" points="72.6,-416.1 82.69,-419.33 76.82,-410.51 72.6,-416.1"/>
</g>
<!-- Node23&#45;&gt;Node19 -->
<g id="edge66" class="edge">
<title>Node23&#45;&gt;Node19</title>
<path fill="none" stroke="midnightblue" d="M1071.47,-386.19C1026,-375.21 950.55,-356.62 886,-339 874.18,-335.77 861.2,-331.99 850.01,-328.66"/>
<polygon fill="midnightblue" stroke="midnightblue" points="1070.71,-389.61 1081.26,-388.55 1072.35,-382.81 1070.71,-389.61"/>
</g>
<!-- Node24 -->
<g id="node24" class="node">
<title>Node24</title>
<g id="a_node24"><a xlink:href="ex_8c.html#a70c571bdde329a65e216c19b4aeaa628" target="_top" xlink:title=" ">
<polygon fill="white" stroke="black" points="572,-433.5 572,-452.5 622,-452.5 622,-433.5 572,-433.5"/>
<text text-anchor="middle" x="597" y="-440.5" font-family="Helvetica,sans-Serif" font-size="10.00">ec_glob</text>
</a>
</g>
</g>
<!-- Node23&#45;&gt;Node24 -->
<g id="edge33" class="edge">
<title>Node23&#45;&gt;Node24</title>
<path fill="none" stroke="midnightblue" d="M1071.11,-396.44C993.84,-397.75 822.55,-403.01 680,-424 660.34,-426.89 638.42,-432.07 622.2,-436.29"/>
<polygon fill="midnightblue" stroke="midnightblue" points="1071.43,-399.93 1081.38,-396.28 1071.32,-392.93 1071.43,-399.93"/>
</g>
<!-- Node27 -->
<g id="node27" class="node">
<title>Node27</title>
<g id="a_node27"><a xlink:href="ex_8c.html#aaf4e813ce4370aa859181d22de51576b" target="_top" xlink:title=" ">
<polygon fill="white" stroke="black" points="680,-433.5 680,-452.5 755,-452.5 755,-433.5 680,-433.5"/>
<text text-anchor="middle" x="717.5" y="-440.5" font-family="Helvetica,sans-Serif" font-size="10.00">ec_substitute</text>
</a>
</g>
</g>
<!-- Node23&#45;&gt;Node27 -->
<g id="edge38" class="edge">
<title>Node23&#45;&gt;Node27</title>
<path fill="none" stroke="midnightblue" d="M1096.72,-413.11C1084.1,-425.45 1065.22,-441.11 1045,-448 944.65,-482.17 816.69,-463.75 755,-451.34"/>
<polygon fill="midnightblue" stroke="midnightblue" points="1099.58,-415.2 1104.06,-405.6 1094.57,-410.3 1099.58,-415.2"/>
</g>
<!-- Node28 -->
<g id="node28" class="node">
<title>Node28</title>
<g id="a_node28"><a xlink:href="ex_8c.html#af441de070082a23574854f6a2e5cd08a" target="_top" xlink:title=" ">
<polygon fill="white" stroke="black" points="983,-526.5 983,-545.5 1045,-545.5 1045,-526.5 983,-526.5"/>
<text text-anchor="middle" x="1014" y="-533.5" font-family="Helvetica,sans-Serif" font-size="10.00">ex_search</text>
</a>
</g>
</g>
<!-- Node23&#45;&gt;Node28 -->
<g id="edge39" class="edge">
<title>Node23&#45;&gt;Node28</title>
<path fill="none" stroke="midnightblue" d="M1100.03,-413.9C1079.18,-443.83 1037.94,-503.06 1021.75,-526.31"/>
<polygon fill="midnightblue" stroke="midnightblue" points="1102.96,-415.83 1105.8,-405.62 1097.21,-411.82 1102.96,-415.83"/>
</g>
<!-- Node44 -->
<g id="node44" class="node">
<title>Node44</title>
<g id="a_node44"><a xlink:href="vi_8c.html#a631f59a25254f28f308f7de4897e09fa" target="_top" xlink:title=" ">
<polygon fill="white" stroke="black" points="991,-310.5 991,-329.5 1037,-329.5 1037,-310.5 991,-310.5"/>
<text text-anchor="middle" x="1014" y="-317.5" font-family="Helvetica,sans-Serif" font-size="10.00">search</text>
</a>
</g>
</g>
<!-- Node23&#45;&gt;Node44 -->
<g id="edge64" class="edge">
<title>Node23&#45;&gt;Node44</title>
<path fill="none" stroke="midnightblue" d="M1092.14,-380.12C1072.54,-364.84 1043.53,-342.24 1027.25,-329.54"/>
<polygon fill="midnightblue" stroke="midnightblue" points="1090.11,-382.98 1100.15,-386.37 1094.42,-377.46 1090.11,-382.98"/>
</g>
<!-- Node25 -->
<g id="node25" class="node">
<title>Node25</title>
<g id="a_node25"><a xlink:href="ex_8c.html#a7d848d20211b2e1c868dde98ec5dfae9" target="_top" xlink:title=" ">
<polygon fill="white" stroke="black" points="365,-462.5 365,-481.5 412,-481.5 412,-462.5 365,-462.5"/>
<text text-anchor="middle" x="388.5" y="-469.5" font-family="Helvetica,sans-Serif" font-size="10.00">ex_line</text>
</a>
</g>
</g>
<!-- Node24&#45;&gt;Node25 -->
<g id="edge34" class="edge">
<title>Node24&#45;&gt;Node25</title>
<path fill="none" stroke="midnightblue" d="M561.79,-447.8C519.4,-453.75 448.37,-463.73 412.18,-468.81"/>
<polygon fill="midnightblue" stroke="midnightblue" points="562.49,-451.24 571.91,-446.38 561.52,-444.3 562.49,-451.24"/>
</g>
<!-- Node26 -->
<g id="node26" class="node">
<title>Node26</title>
<g id="a_node26"><a xlink:href="ex_8c.html#ab15ebfef933256d9741128e2ddf3f9b5" target="_top" xlink:title=" ">
<polygon fill="white" stroke="black" points="266,-424.5 266,-443.5 319,-443.5 319,-424.5 266,-424.5"/>
<text text-anchor="middle" x="292.5" y="-431.5" font-family="Helvetica,sans-Serif" font-size="10.00">ex_exec</text>
</a>
</g>
</g>
<!-- Node25&#45;&gt;Node26 -->
<g id="edge35" class="edge">
<title>Node25&#45;&gt;Node26</title>
<path fill="none" stroke="midnightblue" d="M355.11,-458.9C342.6,-453.84 328.55,-448.16 317.03,-443.51"/>
<polygon fill="midnightblue" stroke="midnightblue" points="354.16,-462.29 364.75,-462.8 356.79,-455.8 354.16,-462.29"/>
</g>
<!-- Node26&#45;&gt;Node21 -->
<g id="edge37" class="edge">
<title>Node26&#45;&gt;Node21</title>
<path fill="none" stroke="midnightblue" d="M255.61,-432.17C247.31,-431.74 238.46,-431.29 230.13,-430.87"/>
<polygon fill="midnightblue" stroke="midnightblue" points="255.59,-435.67 265.75,-432.68 255.94,-428.68 255.59,-435.67"/>
</g>
<!-- Node26&#45;&gt;Node24 -->
<g id="edge36" class="edge">
<title>Node26&#45;&gt;Node24</title>
<path fill="none" stroke="midnightblue" d="M329.28,-435.06C391.63,-436.92 518.61,-440.69 571.76,-442.28"/>
<polygon fill="midnightblue" stroke="midnightblue" points="329.24,-431.56 319.14,-434.76 329.03,-438.56 329.24,-431.56"/>
</g>
<!-- Node29 -->
<g id="node29" class="node">
<title>Node29</title>
<g id="a_node29"><a xlink:href="ex_8c.html#a18295939fcd9d9ef517157b0f4ff5f97" target="_top" xlink:title=" ">
<polygon fill="white" stroke="black" points="887.5,-552.5 887.5,-571.5 945.5,-571.5 945.5,-552.5 887.5,-552.5"/>
<text text-anchor="middle" x="916.5" y="-559.5" font-family="Helvetica,sans-Serif" font-size="10.00">ex_lineno</text>
</a>
</g>
</g>
<!-- Node28&#45;&gt;Node29 -->
<g id="edge40" class="edge">
<title>Node28&#45;&gt;Node29</title>
<path fill="none" stroke="midnightblue" d="M973,-546.89C963.78,-549.4 954.16,-552.02 945.57,-554.35"/>
<polygon fill="midnightblue" stroke="midnightblue" points="974.05,-550.23 982.78,-544.22 972.21,-543.47 974.05,-550.23"/>
</g>
<!-- Node30 -->
<g id="node30" class="node">
<title>Node30</title>
<g id="a_node30"><a xlink:href="ex_8c.html#a0389d594366ccbd24d732bdfd870f763" target="_top" xlink:title=" ">
<polygon fill="white" stroke="black" points="791,-604.5 791,-623.5 850,-623.5 850,-604.5 791,-604.5"/>
<text text-anchor="middle" x="820.5" y="-611.5" font-family="Helvetica,sans-Serif" font-size="10.00">ex_region</text>
</a>
</g>
</g>
<!-- Node29&#45;&gt;Node30 -->
<g id="edge41" class="edge">
<title>Node29&#45;&gt;Node30</title>
<path fill="none" stroke="midnightblue" d="M889.34,-576.47C873.26,-585.36 853.1,-596.52 838.95,-604.34"/>
<polygon fill="midnightblue" stroke="midnightblue" points="891.2,-579.44 898.26,-571.53 887.81,-573.31 891.2,-579.44"/>
</g>
<!-- Node30&#45;&gt;Node2 -->
<g id="edge52" class="edge">
<title>Node30&#45;&gt;Node2</title>
<path fill="none" stroke="midnightblue" d="M816.01,-633.62C806.97,-682.73 781.62,-809.29 755,-842 751.21,-846.65 745.98,-850.3 740.66,-853.09"/>
<polygon fill="midnightblue" stroke="midnightblue" points="819.48,-634.1 817.82,-623.64 812.6,-632.86 819.48,-634.1"/>
</g>
<!-- Node30&#45;&gt;Node13 -->
<g id="edge46" class="edge">
<title>Node30&#45;&gt;Node13</title>
<path fill="none" stroke="midnightblue" d="M814.5,-594.23C805.21,-559 783.62,-483.48 755,-424 746.54,-406.42 733.71,-387.67 725.73,-376.66"/>
<polygon fill="midnightblue" stroke="midnightblue" points="811.18,-595.38 817.07,-604.18 817.95,-593.62 811.18,-595.38"/>
</g>
<!-- Node30&#45;&gt;Node24 -->
<g id="edge45" class="edge">
<title>Node30&#45;&gt;Node24</title>
<path fill="none" stroke="midnightblue" d="M813.34,-594.7C804.37,-569.53 785.38,-525.7 755,-500 734.41,-482.58 660.86,-460.38 622.18,-449.54"/>
<polygon fill="midnightblue" stroke="midnightblue" points="810.05,-595.89 816.58,-604.23 816.68,-593.64 810.05,-595.89"/>
</g>
<!-- Node30&#45;&gt;Node27 -->
<g id="edge54" class="edge">
<title>Node30&#45;&gt;Node27</title>
<path fill="none" stroke="midnightblue" d="M814.85,-594.69C806.82,-564.63 787.99,-506.06 755,-467 750.2,-461.32 743.73,-456.47 737.57,-452.65"/>
<polygon fill="midnightblue" stroke="midnightblue" points="811.46,-595.56 817.32,-604.38 818.24,-593.83 811.46,-595.56"/>
</g>
<!-- Node31 -->
<g id="node31" class="node">
<title>Node31</title>
<g id="a_node31"><a xlink:href="ex_8c.html#a4cd0748447515b7a935e4bb41424a9e4" target="_top" xlink:title=" ">
<polygon fill="white" stroke="black" points="688,-775.5 688,-794.5 747,-794.5 747,-775.5 688,-775.5"/>
<text text-anchor="middle" x="717.5" y="-782.5" font-family="Helvetica,sans-Serif" font-size="10.00">ec_delete</text>
</a>
</g>
</g>
<!-- Node30&#45;&gt;Node31 -->
<g id="edge42" class="edge">
<title>Node30&#45;&gt;Node31</title>
<path fill="none" stroke="midnightblue" d="M815.6,-633.93C808.53,-665.44 790.87,-727.19 755,-766 751.61,-769.67 747.34,-772.75 742.93,-775.3"/>
<polygon fill="midnightblue" stroke="midnightblue" points="819.1,-634.29 817.74,-623.78 812.25,-632.84 819.1,-634.29"/>
</g>
<!-- Node32 -->
<g id="node32" class="node">
<title>Node32</title>
<g id="a_node32"><a xlink:href="ex_8c.html#adcd83f163f659bd2596bcfc25d74bde9" target="_top" xlink:title=" ">
<polygon fill="white" stroke="black" points="459.5,-623.5 459.5,-642.5 512.5,-642.5 512.5,-623.5 459.5,-623.5"/>
<text text-anchor="middle" x="486" y="-630.5" font-family="Helvetica,sans-Serif" font-size="10.00">ec_exec</text>
</a>
</g>
</g>
<!-- Node30&#45;&gt;Node32 -->
<g id="edge43" class="edge">
<title>Node30&#45;&gt;Node32</title>
<path fill="none" stroke="midnightblue" d="M780.48,-616.23C711.76,-620.15 570.96,-628.2 512.91,-631.52"/>
<polygon fill="midnightblue" stroke="midnightblue" points="781.08,-619.7 790.86,-615.63 780.68,-612.71 781.08,-619.7"/>
</g>
<!-- Node33 -->
<g id="node33" class="node">
<title>Node33</title>
<g id="a_node33"><a xlink:href="ex_8c.html#a1d45a70b724f4cccae2ab746c711ebb1" target="_top" xlink:title=" ">
<polygon fill="white" stroke="black" points="691,-585.5 691,-604.5 744,-604.5 744,-585.5 691,-585.5"/>
<text text-anchor="middle" x="717.5" y="-592.5" font-family="Helvetica,sans-Serif" font-size="10.00">ec_lnum</text>
</a>
</g>
</g>
<!-- Node30&#45;&gt;Node33 -->
<g id="edge47" class="edge">
<title>Node30&#45;&gt;Node33</title>
<path fill="none" stroke="midnightblue" d="M780.81,-606.72C768.53,-604.41 755.27,-601.91 744.14,-599.82"/>
<polygon fill="midnightblue" stroke="midnightblue" points="780.35,-610.19 790.83,-608.6 781.65,-603.31 780.35,-610.19"/>
</g>
<!-- Node34 -->
<g id="node34" class="node">
<title>Node34</title>
<g id="a_node34"><a xlink:href="ex_8c.html#ab95c9f0f009989c44f3ebb5abae4054d" target="_top" xlink:title=" ">
<polygon fill="white" stroke="black" points="690.5,-547.5 690.5,-566.5 744.5,-566.5 744.5,-547.5 690.5,-547.5"/>
<text text-anchor="middle" x="717.5" y="-554.5" font-family="Helvetica,sans-Serif" font-size="10.00">ec_mark</text>
</a>
</g>
</g>
<!-- Node30&#45;&gt;Node34 -->
<g id="edge48" class="edge">
<title>Node30&#45;&gt;Node34</title>
<path fill="none" stroke="midnightblue" d="M795.15,-599.24C783.15,-592.08 768.41,-583.43 755,-576 749.38,-572.88 743.2,-569.61 737.54,-566.67"/>
<polygon fill="midnightblue" stroke="midnightblue" points="793.35,-602.25 803.73,-604.39 796.96,-596.25 793.35,-602.25"/>
</g>
<!-- Node35 -->
<g id="node35" class="node">
<title>Node35</title>
<g id="a_node35"><a xlink:href="ex_8c.html#affb8197a8f988443aadf1bf2800a0d0b" target="_top" xlink:title=" ">
<polygon fill="white" stroke="black" points="573.5,-671.5 573.5,-690.5 620.5,-690.5 620.5,-671.5 573.5,-671.5"/>
<text text-anchor="middle" x="597" y="-678.5" font-family="Helvetica,sans-Serif" font-size="10.00">ec_null</text>
</a>
</g>
</g>
<!-- Node30&#45;&gt;Node35 -->
<g id="edge49" class="edge">
<title>Node30&#45;&gt;Node35</title>
<path fill="none" stroke="midnightblue" d="M810.07,-632.48C799.49,-650.95 780.43,-678.23 755,-690 710.9,-710.41 652.22,-698.09 620.56,-688.68"/>
<polygon fill="midnightblue" stroke="midnightblue" points="813.24,-633.98 814.94,-623.52 807.09,-630.64 813.24,-633.98"/>
</g>
<!-- Node36 -->
<g id="node36" class="node">
<title>Node36</title>
<g id="a_node36"><a xlink:href="ex_8c.html#ad2c1a9505aa3097bac242b47a367f11d" target="_top" xlink:title=" ">
<polygon fill="white" stroke="black" points="692,-661.5 692,-680.5 743,-680.5 743,-661.5 692,-661.5"/>
<text text-anchor="middle" x="717.5" y="-668.5" font-family="Helvetica,sans-Serif" font-size="10.00">ec_print</text>
</a>
</g>
</g>
<!-- Node30&#45;&gt;Node36 -->
<g id="edge50" class="edge">
<title>Node30&#45;&gt;Node36</title>
<path fill="none" stroke="midnightblue" d="M793.64,-628.59C775.32,-638.93 751.28,-652.5 735.38,-661.47"/>
<polygon fill="midnightblue" stroke="midnightblue" points="795.38,-631.63 802.37,-623.67 791.94,-625.53 795.38,-631.63"/>
</g>
<!-- Node37 -->
<g id="node37" class="node">
<title>Node37</title>
<g id="a_node37"><a xlink:href="ex_8c.html#add0e79e1f1e3d45f4eaa6fbe5c1ca443" target="_top" xlink:title=" ">
<polygon fill="white" stroke="black" points="692,-509.5 692,-528.5 743,-528.5 743,-509.5 692,-509.5"/>
<text text-anchor="middle" x="717.5" y="-516.5" font-family="Helvetica,sans-Serif" font-size="10.00">ec_read</text>
</a>
</g>
</g>
<!-- Node30&#45;&gt;Node37 -->
<g id="edge53" class="edge">
<title>Node30&#45;&gt;Node37</title>
<path fill="none" stroke="midnightblue" d="M807.15,-595.73C795.25,-579.14 776,-554.75 755,-538 750.53,-534.43 745.29,-531.24 740.2,-528.53"/>
<polygon fill="midnightblue" stroke="midnightblue" points="804.37,-597.87 812.97,-604.06 810.11,-593.86 804.37,-597.87"/>
</g>
<!-- Node38 -->
<g id="node38" class="node">
<title>Node38</title>
<g id="a_node38"><a xlink:href="ex_8c.html#a057b67e2d4f23df3ad50a9d3ec86125b" target="_top" xlink:title=" ">
<polygon fill="white" stroke="black" points="691,-737.5 691,-756.5 744,-756.5 744,-737.5 691,-737.5"/>
<text text-anchor="middle" x="717.5" y="-744.5" font-family="Helvetica,sans-Serif" font-size="10.00">ec_write</text>
</a>
</g>
</g>
<!-- Node30&#45;&gt;Node38 -->
<g id="edge55" class="edge">
<title>Node30&#45;&gt;Node38</title>
<path fill="none" stroke="midnightblue" d="M811.44,-633.13C800.97,-656.37 780.93,-695.81 755,-723 749.66,-728.59 742.78,-733.54 736.44,-737.47"/>
<polygon fill="midnightblue" stroke="midnightblue" points="814.77,-634.27 815.57,-623.7 808.35,-631.46 814.77,-634.27"/>
</g>
<!-- Node43 -->
<g id="node43" class="node">
<title>Node43</title>
<g id="a_node43"><a xlink:href="ex_8c.html#a487b22f0ae712d3338f5e9d8d6fa8540" target="_top" xlink:title=" ">
<polygon fill="white" stroke="black" points="691,-813.5 691,-832.5 744,-832.5 744,-813.5 691,-813.5"/>
<text text-anchor="middle" x="717.5" y="-820.5" font-family="Helvetica,sans-Serif" font-size="10.00">ec_yank</text>
</a>
</g>
</g>
<!-- Node30&#45;&gt;Node43 -->
<g id="edge63" class="edge">
<title>Node30&#45;&gt;Node43</title>
<path fill="none" stroke="midnightblue" d="M817.66,-633.56C813.21,-670.86 798.78,-752.96 755,-804 751.74,-807.79 747.54,-810.93 743.15,-813.49"/>
<polygon fill="midnightblue" stroke="midnightblue" points="821.15,-633.83 818.74,-623.51 814.19,-633.08 821.15,-633.83"/>
</g>
<!-- Node32&#45;&gt;Node25 -->
<g id="edge44" class="edge">
<title>Node32&#45;&gt;Node25</title>
<path fill="none" stroke="midnightblue" d="M473.99,-614.44C453.64,-580.13 410.81,-507.92 395.28,-481.74"/>
<polygon fill="midnightblue" stroke="midnightblue" points="471.2,-616.59 479.31,-623.41 477.22,-613.02 471.2,-616.59"/>
</g>
<!-- Node36&#45;&gt;Node35 -->
<g id="edge51" class="edge">
<title>Node36&#45;&gt;Node35</title>
<path fill="none" stroke="midnightblue" d="M681.78,-673.93C662.01,-675.59 637.82,-677.64 620.52,-679.1"/>
<polygon fill="midnightblue" stroke="midnightblue" points="682.28,-677.4 691.95,-673.07 681.69,-670.42 682.28,-677.4"/>
</g>
<!-- Node39 -->
<g id="node39" class="node">
<title>Node39</title>
<g id="a_node39"><a xlink:href="ex_8c.html#ab0cb848a971a3b2c09fcb456d887dd6b" target="_top" xlink:title=" ">
<polygon fill="white" stroke="black" points="550,-766.5 550,-785.5 644,-785.5 644,-766.5 550,-766.5"/>
<text text-anchor="middle" x="597" y="-773.5" font-family="Helvetica,sans-Serif" font-size="10.00">ex_modifiedbuffer</text>
</a>
</g>
</g>
<!-- Node38&#45;&gt;Node39 -->
<g id="edge56" class="edge">
<title>Node38&#45;&gt;Node39</title>
<path fill="none" stroke="midnightblue" d="M680.73,-755.75C666.99,-759.11 651.24,-762.97 637.19,-766.41"/>
<polygon fill="midnightblue" stroke="midnightblue" points="681.91,-759.07 690.79,-753.29 680.24,-752.27 681.91,-759.07"/>
</g>
<!-- Node39&#45;&gt;Node32 -->
<g id="edge59" class="edge">
<title>Node39&#45;&gt;Node32</title>
<path fill="none" stroke="midnightblue" d="M582.33,-758.06C558.99,-727.44 512.22,-666.08 494.26,-642.52"/>
<polygon fill="midnightblue" stroke="midnightblue" points="579.66,-760.34 588.51,-766.17 585.23,-756.09 579.66,-760.34"/>
</g>
<!-- Node40 -->
<g id="node40" class="node">
<title>Node40</title>
<g id="a_node40"><a xlink:href="ex_8c.html#a8059390ad69866fa8e14bdb2521d4dc2" target="_top" xlink:title=" ">
<polygon fill="white" stroke="black" points="364.5,-927.5 364.5,-946.5 412.5,-946.5 412.5,-927.5 364.5,-927.5"/>
<text text-anchor="middle" x="388.5" y="-934.5" font-family="Helvetica,sans-Serif" font-size="10.00">ec_edit</text>
</a>
</g>
</g>
<!-- Node39&#45;&gt;Node40 -->
<g id="edge57" class="edge">
<title>Node39&#45;&gt;Node40</title>
<path fill="none" stroke="midnightblue" d="M575.74,-791.79C533.27,-824.9 436.02,-900.73 401.73,-927.46"/>
<polygon fill="midnightblue" stroke="midnightblue" points="577.97,-794.49 583.7,-785.59 573.66,-788.97 577.97,-794.49"/>
</g>
<!-- Node41 -->
<g id="node41" class="node">
<title>Node41</title>
<g id="a_node41"><a xlink:href="ex_8c.html#aa69f426ff9728078fbb36f448c624a90" target="_top" xlink:title=" ">
<polygon fill="white" stroke="black" points="458,-766.5 458,-785.5 514,-785.5 514,-766.5 458,-766.5"/>
<text text-anchor="middle" x="486" y="-773.5" font-family="Helvetica,sans-Serif" font-size="10.00">ec_make</text>
</a>
</g>
</g>
<!-- Node39&#45;&gt;Node41 -->
<g id="edge60" class="edge">
<title>Node39&#45;&gt;Node41</title>
<path fill="none" stroke="midnightblue" d="M539.7,-776C530.76,-776 521.89,-776 514.04,-776"/>
<polygon fill="midnightblue" stroke="midnightblue" points="539.77,-779.5 549.77,-776 539.77,-772.5 539.77,-779.5"/>
</g>
<!-- Node42 -->
<g id="node42" class="node">
<title>Node42</title>
<g id="a_node42"><a xlink:href="ex_8c.html#a87eef446de152fad41ce88a9a343b87d" target="_top" xlink:title=" ">
<polygon fill="white" stroke="black" points="462,-728.5 462,-747.5 510,-747.5 510,-728.5 462,-728.5"/>
<text text-anchor="middle" x="486" y="-735.5" font-family="Helvetica,sans-Serif" font-size="10.00">ec_quit</text>
</a>
</g>
</g>
<!-- Node39&#45;&gt;Node42 -->
<g id="edge61" class="edge">
<title>Node39&#45;&gt;Node42</title>
<path fill="none" stroke="midnightblue" d="M558.79,-763.02C542.63,-757.39 524.21,-750.97 510.07,-746.04"/>
<polygon fill="midnightblue" stroke="midnightblue" points="557.9,-766.42 568.49,-766.41 560.2,-759.81 557.9,-766.42"/>
</g>
<!-- Node40&#45;&gt;Node22 -->
<g id="edge58" class="edge">
<title>Node40&#45;&gt;Node22</title>
<path fill="none" stroke="midnightblue" d="M354.35,-938.94C327.47,-938.7 290.21,-934.04 266,-913 111.53,-778.77 98.61,-495.05 97.58,-438.81"/>
<polygon fill="midnightblue" stroke="midnightblue" points="354.48,-942.44 364.44,-938.82 354.4,-935.44 354.48,-942.44"/>
</g>
<!-- Node42&#45;&gt;Node38 -->
<g id="edge62" class="edge">
<title>Node42&#45;&gt;Node38</title>
<path fill="none" stroke="midnightblue" d="M520.11,-739.29C566.2,-741.1 648.75,-744.34 690.62,-745.98"/>
<polygon fill="midnightblue" stroke="midnightblue" points="520.17,-735.79 510.04,-738.9 519.89,-742.79 520.17,-735.79"/>
</g>
<!-- Node44&#45;&gt;Node18 -->
<g id="edge65" class="edge">
<title>Node44&#45;&gt;Node18</title>
<path fill="none" stroke="midnightblue" d="M980.59,-320C969.39,-320 956.93,-320 946.06,-320"/>
<polygon fill="midnightblue" stroke="midnightblue" points="980.85,-323.5 990.85,-320 980.85,-316.5 980.85,-323.5"/>
</g>
<!-- Node45&#45;&gt;Node31 -->
<g id="edge68" class="edge">
<title>Node45&#45;&gt;Node31</title>
<path fill="none" stroke="midnightblue" d="M783.6,-785C771.6,-785 758.41,-785 747.05,-785"/>
<polygon fill="midnightblue" stroke="midnightblue" points="783.75,-788.5 793.75,-785 783.75,-781.5 783.75,-788.5"/>
</g>
<!-- Node45&#45;&gt;Node43 -->
<g id="edge69" class="edge">
<title>Node45&#45;&gt;Node43</title>
<path fill="none" stroke="midnightblue" d="M784.63,-798.11C771.28,-803.14 756.3,-808.78 743.98,-813.41"/>
<polygon fill="midnightblue" stroke="midnightblue" points="785.89,-801.38 794.01,-794.59 783.42,-794.83 785.89,-801.38"/>
</g>
<!-- Node46&#45;&gt;Node10 -->
<g id="edge72" class="edge">
<title>Node46&#45;&gt;Node10</title>
<path fill="none" stroke="midnightblue" d="M975.98,-241.42C931.87,-238.21 855.95,-232.25 791,-225 777.11,-223.45 761.77,-221.38 748.79,-219.53"/>
<polygon fill="midnightblue" stroke="midnightblue" points="975.73,-244.91 985.96,-242.13 976.24,-237.93 975.73,-244.91"/>
</g>
<!-- Node47&#45;&gt;Node10 -->
<g id="edge74" class="edge">
<title>Node47&#45;&gt;Node10</title>
<path fill="none" stroke="midnightblue" d="M1078.06,-280.34C1018.7,-276.91 893.61,-267.12 791,-242 773.39,-237.68 754.19,-230.41 739.98,-224.5"/>
<polygon fill="midnightblue" stroke="midnightblue" points="1078.18,-283.85 1088.36,-280.91 1078.57,-276.86 1078.18,-283.85"/>
</g>
<!-- Node48&#45;&gt;Node7 -->
<g id="edge76" class="edge">
<title>Node48&#45;&gt;Node7</title>
<path fill="none" stroke="midnightblue" d="M344.9,-6.53C294.01,2.15 208.98,7.91 155,-35 100.3,-78.47 96.82,-174.21 97.19,-205.15"/>
<polygon fill="midnightblue" stroke="midnightblue" points="344.45,-10 354.91,-8.34 345.7,-3.11 344.45,-10"/>
</g>
<!-- Node49&#45;&gt;Node7 -->
<g id="edge78" class="edge">
<title>Node49&#45;&gt;Node7</title>
<path fill="none" stroke="midnightblue" d="M258.79,-90.29C229.15,-90.36 185.58,-94.66 155,-116 122.89,-138.41 106.15,-184.95 100.14,-205.22"/>
<polygon fill="midnightblue" stroke="midnightblue" points="258.98,-93.79 269.02,-90.43 259.07,-86.79 258.98,-93.79"/>
</g>
</g>
</svg>
