<?xml version="1.0" encoding="UTF-8" standalone="no"?>
<!DOCTYPE svg PUBLIC "-//W3C//DTD SVG 1.1//EN"
 "http://www.w3.org/Graphics/SVG/1.1/DTD/svg11.dtd">
<!-- Generated by graphviz version 2.44.1 (20200629.0846)
 -->
<!-- Title: re_recmatch Pages: 1 -->
<svg width="451pt" height="180pt"
 viewBox="0.00 0.00 451.00 180.00" xmlns="http://www.w3.org/2000/svg" xmlns:xlink="http://www.w3.org/1999/xlink">
<g id="graph0" class="graph" transform="scale(1 1) rotate(0) translate(4 176)">
<title>re_recmatch</title>
<polygon fill="white" stroke="transparent" points="-4,4 -4,-176 447,-176 447,4 -4,4"/>
<!-- Node1 -->
<g id="node1" class="node">
<title>Node1</title>
<g id="a_node1"><a xlink:title=" ">
<polygon fill="#bfbfbf" stroke="black" points="0,-76.5 0,-95.5 71,-95.5 71,-76.5 0,-76.5"/>
<text text-anchor="middle" x="35.5" y="-83.5" font-family="Helvetica,sans-Serif" font-size="10.00">re_recmatch</text>
</a>
</g>
</g>
<!-- Node2 -->
<g id="node2" class="node">
<title>Node2</title>
<g id="a_node2"><a xlink:href="regex_8c.html#a8e35614ddf21d405773327a52a95a73d" target="_top" xlink:title=" ">
<polygon fill="white" stroke="black" points="107,-76.5 107,-95.5 151,-95.5 151,-76.5 107,-76.5"/>
<text text-anchor="middle" x="129" y="-83.5" font-family="Helvetica,sans-Serif" font-size="10.00">re_rec</text>
</a>
</g>
</g>
<!-- Node1&#45;&gt;Node2 -->
<g id="edge1" class="edge">
<title>Node1&#45;&gt;Node2</title>
<path fill="none" stroke="midnightblue" d="M71.09,-86C79.56,-86 88.57,-86 96.87,-86"/>
<polygon fill="midnightblue" stroke="midnightblue" points="96.9,-89.5 106.9,-86 96.9,-82.5 96.9,-89.5"/>
</g>
<!-- Node3 -->
<g id="node3" class="node">
<title>Node3</title>
<g id="a_node3"><a xlink:href="regex_8c.html#a24fd1fc7457ff4f03fb384f7170ac395" target="_top" xlink:title=" ">
<polygon fill="white" stroke="black" points="187,-76.5 187,-95.5 261,-95.5 261,-76.5 187,-76.5"/>
<text text-anchor="middle" x="224" y="-83.5" font-family="Helvetica,sans-Serif" font-size="10.00">ratom_match</text>
</a>
</g>
</g>
<!-- Node2&#45;&gt;Node3 -->
<g id="edge2" class="edge">
<title>Node2&#45;&gt;Node3</title>
<path fill="none" stroke="midnightblue" d="M151.1,-86C158.73,-86 167.68,-86 176.63,-86"/>
<polygon fill="midnightblue" stroke="midnightblue" points="176.65,-89.5 186.65,-86 176.65,-82.5 176.65,-89.5"/>
</g>
<!-- Node4 -->
<g id="node4" class="node">
<title>Node4</title>
<g id="a_node4"><a xlink:href="regex_8c.html#aae17ed73e84075718fb04d131d6ca779" target="_top" xlink:title=" ">
<polygon fill="white" stroke="black" points="297,-114.5 297,-133.5 359,-133.5 359,-114.5 297,-114.5"/>
<text text-anchor="middle" x="328" y="-121.5" font-family="Helvetica,sans-Serif" font-size="10.00">brk_match</text>
</a>
</g>
</g>
<!-- Node3&#45;&gt;Node4 -->
<g id="edge3" class="edge">
<title>Node3&#45;&gt;Node4</title>
<path fill="none" stroke="midnightblue" d="M250.74,-95.59C263.18,-100.22 278.31,-105.86 291.8,-110.89"/>
<polygon fill="midnightblue" stroke="midnightblue" points="290.68,-114.2 301.27,-114.41 293.12,-107.64 290.68,-114.2"/>
</g>
<!-- Node6 -->
<g id="node6" class="node">
<title>Node6</title>
<g id="a_node6"><a xlink:href="regex_8c.html#aaf73cdb88048e7f9fd588eb8d5aeb5a3" target="_top" xlink:title=" ">
<polygon fill="white" stroke="black" points="395,-152.5 395,-171.5 443,-171.5 443,-152.5 395,-152.5"/>
<text text-anchor="middle" x="419" y="-159.5" font-family="Helvetica,sans-Serif" font-size="10.00">uc_dec</text>
</a>
</g>
</g>
<!-- Node3&#45;&gt;Node6 -->
<g id="edge9" class="edge">
<title>Node3&#45;&gt;Node6</title>
<path fill="none" stroke="midnightblue" d="M234.17,-95.92C246.9,-109.02 271.3,-131.75 297,-143 324.95,-155.24 359.59,-159.73 384.63,-161.31"/>
<polygon fill="midnightblue" stroke="midnightblue" points="384.56,-164.81 394.73,-161.82 384.92,-157.82 384.56,-164.81"/>
</g>
<!-- Node7 -->
<g id="node7" class="node">
<title>Node7</title>
<g id="a_node7"><a xlink:href="regex_8c.html#a9a0d6d5f93f1eaba8b63b16903c0952d" target="_top" xlink:title=" ">
<polygon fill="white" stroke="black" points="396.5,-76.5 396.5,-95.5 441.5,-95.5 441.5,-76.5 396.5,-76.5"/>
<text text-anchor="middle" x="419" y="-83.5" font-family="Helvetica,sans-Serif" font-size="10.00">uc_len</text>
</a>
</g>
</g>
<!-- Node3&#45;&gt;Node7 -->
<g id="edge10" class="edge">
<title>Node3&#45;&gt;Node7</title>
<path fill="none" stroke="midnightblue" d="M261.3,-86C297.17,-86 351.5,-86 385.85,-86"/>
<polygon fill="midnightblue" stroke="midnightblue" points="386.25,-89.5 396.25,-86 386.25,-82.5 386.25,-89.5"/>
</g>
<!-- Node8 -->
<g id="node8" class="node">
<title>Node8</title>
<g id="a_node8"><a xlink:href="regex_8c.html#a35ad3fd0dbb795e6f30404ce86a7be5b" target="_top" xlink:title=" ">
<polygon fill="white" stroke="black" points="305.5,-38.5 305.5,-57.5 350.5,-57.5 350.5,-38.5 305.5,-38.5"/>
<text text-anchor="middle" x="328" y="-45.5" font-family="Helvetica,sans-Serif" font-size="10.00">isword</text>
</a>
</g>
</g>
<!-- Node3&#45;&gt;Node8 -->
<g id="edge7" class="edge">
<title>Node3&#45;&gt;Node8</title>
<path fill="none" stroke="midnightblue" d="M250.74,-76.41C264.45,-71.3 281.43,-64.98 295.88,-59.59"/>
<polygon fill="midnightblue" stroke="midnightblue" points="297.26,-62.82 305.41,-56.04 294.81,-56.26 297.26,-62.82"/>
</g>
<!-- Node9 -->
<g id="node9" class="node">
<title>Node9</title>
<g id="a_node9"><a xlink:href="regex_8c.html#ade3e10606e6e8866e6151fe8440d6101" target="_top" xlink:title=" ">
<polygon fill="white" stroke="black" points="304,-0.5 304,-19.5 352,-19.5 352,-0.5 304,-0.5"/>
<text text-anchor="middle" x="328" y="-7.5" font-family="Helvetica,sans-Serif" font-size="10.00">uc_beg</text>
</a>
</g>
</g>
<!-- Node3&#45;&gt;Node9 -->
<g id="edge8" class="edge">
<title>Node3&#45;&gt;Node9</title>
<path fill="none" stroke="midnightblue" d="M236.43,-76.33C250.4,-64.67 274.9,-44.68 297,-29 298.84,-27.7 300.76,-26.38 302.71,-25.07"/>
<polygon fill="midnightblue" stroke="midnightblue" points="304.74,-27.93 311.22,-19.56 300.93,-22.06 304.74,-27.93"/>
</g>
<!-- Node5 -->
<g id="node5" class="node">
<title>Node5</title>
<g id="a_node5"><a xlink:href="regex_8c.html#acc18ff8d2687611a9e221b3329b02413" target="_top" xlink:title=" ">
<polygon fill="white" stroke="black" points="395,-114.5 395,-133.5 443,-133.5 443,-114.5 395,-114.5"/>
<text text-anchor="middle" x="419" y="-121.5" font-family="Helvetica,sans-Serif" font-size="10.00">brk_len</text>
</a>
</g>
</g>
<!-- Node4&#45;&gt;Node5 -->
<g id="edge4" class="edge">
<title>Node4&#45;&gt;Node5</title>
<path fill="none" stroke="midnightblue" d="M359.13,-124C367.36,-124 376.32,-124 384.71,-124"/>
<polygon fill="midnightblue" stroke="midnightblue" points="384.94,-127.5 394.94,-124 384.94,-120.5 384.94,-127.5"/>
</g>
<!-- Node4&#45;&gt;Node6 -->
<g id="edge5" class="edge">
<title>Node4&#45;&gt;Node6</title>
<path fill="none" stroke="midnightblue" d="M351.46,-133.59C362,-138.09 374.75,-143.53 386.25,-148.44"/>
<polygon fill="midnightblue" stroke="midnightblue" points="384.98,-151.71 395.55,-152.41 387.73,-145.27 384.98,-151.71"/>
</g>
<!-- Node4&#45;&gt;Node7 -->
<g id="edge6" class="edge">
<title>Node4&#45;&gt;Node7</title>
<path fill="none" stroke="midnightblue" d="M351.46,-114.41C362.24,-109.81 375.33,-104.22 387.04,-99.22"/>
<polygon fill="midnightblue" stroke="midnightblue" points="388.65,-102.34 396.47,-95.19 385.9,-95.9 388.65,-102.34"/>
</g>
</g>
</svg>
