<?xml version="1.0" encoding="UTF-8" standalone="no"?>
<!DOCTYPE svg PUBLIC "-//W3C//DTD SVG 1.1//EN"
 "http://www.w3.org/Graphics/SVG/1.1/DTD/svg11.dtd">
<!-- Generated by graphviz version 2.44.1 (20200629.0846)
 -->
<!-- Title: regfree Pages: 1 -->
<svg width="1217pt" height="626pt"
 viewBox="0.00 0.00 1217.00 626.00" xmlns="http://www.w3.org/2000/svg" xmlns:xlink="http://www.w3.org/1999/xlink">
<g id="graph0" class="graph" transform="scale(1 1) rotate(0) translate(4 622)">
<title>regfree</title>
<polygon fill="white" stroke="transparent" points="-4,4 -4,-622 1213,-622 1213,4 -4,4"/>
<!-- Node1 -->
<g id="node1" class="node">
<title>Node1</title>
<g id="a_node1"><a xlink:title=" ">
<polygon fill="#bfbfbf" stroke="black" points="1162,-498.5 1162,-517.5 1209,-517.5 1209,-498.5 1162,-498.5"/>
<text text-anchor="middle" x="1185.5" y="-505.5" font-family="Helvetica,sans-Serif" font-size="10.00">regfree</text>
</a>
</g>
</g>
<!-- Node2 -->
<g id="node2" class="node">
<title>Node2</title>
<g id="a_node2"><a xlink:href="vi_8h.html#a92346ad81735b5a3e9e4351220bf3c2c" target="_top" xlink:title=" ">
<polygon fill="white" stroke="black" points="1071,-498.5 1071,-517.5 1126,-517.5 1126,-498.5 1071,-498.5"/>
<text text-anchor="middle" x="1098.5" y="-505.5" font-family="Helvetica,sans-Serif" font-size="10.00">rset_free</text>
</a>
</g>
</g>
<!-- Node1&#45;&gt;Node2 -->
<g id="edge1" class="edge">
<title>Node1&#45;&gt;Node2</title>
<path fill="none" stroke="midnightblue" d="M1151.51,-508C1143.15,-508 1134.27,-508 1126.27,-508"/>
<polygon fill="midnightblue" stroke="midnightblue" points="1151.72,-511.5 1161.72,-508 1151.72,-504.5 1151.72,-511.5"/>
</g>
<!-- Node3 -->
<g id="node3" class="node">
<title>Node3</title>
<g id="a_node3"><a xlink:href="vi_8h.html#a779c0dbde6ef290537b4b9b9c8026cf0" target="_top" xlink:title=" ">
<polygon fill="white" stroke="black" points="781,-598.5 781,-617.5 834,-617.5 834,-598.5 781,-598.5"/>
<text text-anchor="middle" x="807.5" y="-605.5" font-family="Helvetica,sans-Serif" font-size="10.00">dir_done</text>
</a>
</g>
</g>
<!-- Node2&#45;&gt;Node3 -->
<g id="edge2" class="edge">
<title>Node2&#45;&gt;Node3</title>
<path fill="none" stroke="midnightblue" d="M1087.77,-526.76C1077.34,-544.77 1058.98,-571.08 1035,-584 969.55,-619.25 878.08,-615.67 834.1,-611.28"/>
<polygon fill="midnightblue" stroke="midnightblue" points="1090.98,-528.19 1092.74,-517.75 1084.85,-524.82 1090.98,-528.19"/>
</g>
<!-- Node5 -->
<g id="node5" class="node">
<title>Node5</title>
<g id="a_node5"><a xlink:href="ex_8c.html#a70c571bdde329a65e216c19b4aeaa628" target="_top" xlink:title=" ">
<polygon fill="white" stroke="black" points="559,-446.5 559,-465.5 609,-465.5 609,-446.5 559,-446.5"/>
<text text-anchor="middle" x="584" y="-453.5" font-family="Helvetica,sans-Serif" font-size="10.00">ec_glob</text>
</a>
</g>
</g>
<!-- Node2&#45;&gt;Node5 -->
<g id="edge4" class="edge">
<title>Node2&#45;&gt;Node5</title>
<path fill="none" stroke="midnightblue" d="M1071.18,-522.16C1034.64,-540.46 965.98,-570 903.5,-570 903.5,-570 903.5,-570 806.5,-570 743.93,-570 722,-580.84 667,-551 629.27,-530.53 601.05,-485.31 590.05,-465.55"/>
<polygon fill="midnightblue" stroke="midnightblue" points="1072.87,-525.22 1080.18,-517.55 1069.68,-518.99 1072.87,-525.22"/>
</g>
<!-- Node12 -->
<g id="node12" class="node">
<title>Node12</title>
<g id="a_node12"><a xlink:href="ex_8c.html#aaf4e813ce4370aa859181d22de51576b" target="_top" xlink:title=" ">
<polygon fill="white" stroke="black" points="667,-522.5 667,-541.5 742,-541.5 742,-522.5 667,-522.5"/>
<text text-anchor="middle" x="704.5" y="-529.5" font-family="Helvetica,sans-Serif" font-size="10.00">ec_substitute</text>
</a>
</g>
</g>
<!-- Node2&#45;&gt;Node12 -->
<g id="edge15" class="edge">
<title>Node2&#45;&gt;Node12</title>
<path fill="none" stroke="midnightblue" d="M1060.52,-510.26C985.62,-514.85 816.79,-525.19 742.16,-529.76"/>
<polygon fill="midnightblue" stroke="midnightblue" points="1061.1,-513.74 1070.86,-509.63 1060.67,-506.75 1061.1,-513.74"/>
</g>
<!-- Node13 -->
<g id="node13" class="node">
<title>Node13</title>
<g id="a_node13"><a xlink:href="ex_8c.html#af441de070082a23574854f6a2e5cd08a" target="_top" xlink:title=" ">
<polygon fill="white" stroke="black" points="970.5,-384.5 970.5,-403.5 1032.5,-403.5 1032.5,-384.5 970.5,-384.5"/>
<text text-anchor="middle" x="1001.5" y="-391.5" font-family="Helvetica,sans-Serif" font-size="10.00">ex_search</text>
</a>
</g>
</g>
<!-- Node2&#45;&gt;Node13 -->
<g id="edge16" class="edge">
<title>Node2&#45;&gt;Node13</title>
<path fill="none" stroke="midnightblue" d="M1082.95,-490.54C1062.67,-466.21 1026.62,-422.94 1010.58,-403.69"/>
<polygon fill="midnightblue" stroke="midnightblue" points="1080.31,-492.84 1089.4,-498.28 1085.69,-488.36 1080.31,-492.84"/>
</g>
<!-- Node31 -->
<g id="node31" class="node">
<title>Node31</title>
<g id="a_node31"><a xlink:href="vi_8h.html#a3501f6f6f283556b872bd145c6129d37" target="_top" xlink:title=" ">
<polygon fill="white" stroke="black" points="968,-232.5 968,-251.5 1035,-251.5 1035,-232.5 968,-232.5"/>
<text text-anchor="middle" x="1001.5" y="-239.5" font-family="Helvetica,sans-Serif" font-size="10.00">lbuf_search</text>
</a>
</g>
</g>
<!-- Node2&#45;&gt;Node31 -->
<g id="edge41" class="edge">
<title>Node2&#45;&gt;Node31</title>
<path fill="none" stroke="midnightblue" d="M1090.6,-488.68C1071.74,-435.86 1019.77,-290.35 1005.93,-251.59"/>
<polygon fill="midnightblue" stroke="midnightblue" points="1087.35,-489.98 1094.01,-498.22 1093.94,-487.62 1087.35,-489.98"/>
</g>
<!-- Node36 -->
<g id="node36" class="node">
<title>Node36</title>
<g id="a_node36"><a xlink:href="vi_8h.html#ac6e7a6d77f4896adf3a3ce36e0bb1573" target="_top" xlink:title=" ">
<polygon fill="white" stroke="black" points="873,-18.5 873,-37.5 932,-37.5 932,-18.5 873,-18.5"/>
<text text-anchor="middle" x="902.5" y="-25.5" font-family="Helvetica,sans-Serif" font-size="10.00">syn_done</text>
</a>
</g>
</g>
<!-- Node2&#45;&gt;Node36 -->
<g id="edge48" class="edge">
<title>Node2&#45;&gt;Node36</title>
<path fill="none" stroke="midnightblue" d="M1095.73,-488.09C1090.96,-440.52 1075.34,-317.21 1035,-223 1001.57,-144.93 935.65,-64.99 912.11,-37.76"/>
<polygon fill="midnightblue" stroke="midnightblue" points="1092.27,-488.63 1096.7,-498.25 1099.23,-487.96 1092.27,-488.63"/>
</g>
<!-- Node4 -->
<g id="node4" class="node">
<title>Node4</title>
<g id="a_node4"><a xlink:href="vi_8c.html#a0ddf1224851353fc92bfbff6f499fa97" target="_top" xlink:title=" ">
<polygon fill="white" stroke="black" points="0,-104.5 0,-123.5 38,-123.5 38,-104.5 0,-104.5"/>
<text text-anchor="middle" x="19" y="-111.5" font-family="Helvetica,sans-Serif" font-size="10.00">main</text>
</a>
</g>
</g>
<!-- Node3&#45;&gt;Node4 -->
<g id="edge3" class="edge">
<title>Node3&#45;&gt;Node4</title>
<path fill="none" stroke="midnightblue" d="M770.78,-608C727,-608 650.54,-608 585,-608 585,-608 585,-608 191.5,-608 85.05,-608 29.72,-193.49 21.17,-123.87"/>
<polygon fill="midnightblue" stroke="midnightblue" points="770.92,-611.5 780.92,-608 770.92,-604.5 770.92,-611.5"/>
</g>
<!-- Node6 -->
<g id="node6" class="node">
<title>Node6</title>
<g id="a_node6"><a xlink:href="ex_8c.html#a7d848d20211b2e1c868dde98ec5dfae9" target="_top" xlink:title=" ">
<polygon fill="white" stroke="black" points="361.5,-285.5 361.5,-304.5 408.5,-304.5 408.5,-285.5 361.5,-285.5"/>
<text text-anchor="middle" x="385" y="-292.5" font-family="Helvetica,sans-Serif" font-size="10.00">ex_line</text>
</a>
</g>
</g>
<!-- Node5&#45;&gt;Node6 -->
<g id="edge5" class="edge">
<title>Node5&#45;&gt;Node6</title>
<path fill="none" stroke="midnightblue" d="M569.39,-438.33C554.07,-419.13 527.81,-388.24 501,-366 469.94,-340.23 428.7,-317.04 404.99,-304.59"/>
<polygon fill="midnightblue" stroke="midnightblue" points="566.69,-440.55 575.62,-446.25 572.19,-436.23 566.69,-440.55"/>
</g>
<!-- Node7 -->
<g id="node7" class="node">
<title>Node7</title>
<g id="a_node7"><a xlink:href="ex_8c.html#ab15ebfef933256d9741128e2ddf3f9b5" target="_top" xlink:title=" ">
<polygon fill="white" stroke="black" points="269,-285.5 269,-304.5 322,-304.5 322,-285.5 269,-285.5"/>
<text text-anchor="middle" x="295.5" y="-292.5" font-family="Helvetica,sans-Serif" font-size="10.00">ex_exec</text>
</a>
</g>
</g>
<!-- Node6&#45;&gt;Node7 -->
<g id="edge6" class="edge">
<title>Node6&#45;&gt;Node7</title>
<path fill="none" stroke="midnightblue" d="M351.36,-295C341.68,-295 331.21,-295 322.05,-295"/>
<polygon fill="midnightblue" stroke="midnightblue" points="351.47,-298.5 361.47,-295 351.47,-291.5 351.47,-298.5"/>
</g>
<!-- Node7&#45;&gt;Node5 -->
<g id="edge7" class="edge">
<title>Node7&#45;&gt;Node5</title>
<path fill="none" stroke="midnightblue" d="M322.32,-309.51C379.93,-341.88 517.67,-419.29 565.94,-446.41"/>
<polygon fill="midnightblue" stroke="midnightblue" points="323.91,-306.39 313.47,-304.54 320.48,-312.49 323.91,-306.39"/>
</g>
<!-- Node8 -->
<g id="node8" class="node">
<title>Node8</title>
<g id="a_node8"><a xlink:href="vi_8h.html#aa75c73cccb4878ec06ea5bf5b1b02295" target="_top" xlink:title=" ">
<polygon fill="white" stroke="black" points="155,-142.5 155,-161.5 230,-161.5 230,-142.5 155,-142.5"/>
<text text-anchor="middle" x="192.5" y="-149.5" font-family="Helvetica,sans-Serif" font-size="10.00">ex_command</text>
</a>
</g>
</g>
<!-- Node7&#45;&gt;Node8 -->
<g id="edge8" class="edge">
<title>Node7&#45;&gt;Node8</title>
<path fill="none" stroke="midnightblue" d="M281.55,-276.67C259.83,-245.91 216.8,-184.99 200.22,-161.52"/>
<polygon fill="midnightblue" stroke="midnightblue" points="278.93,-279.02 287.56,-285.17 284.65,-274.98 278.93,-279.02"/>
</g>
<!-- Node9 -->
<g id="node9" class="node">
<title>Node9</title>
<g id="a_node9"><a xlink:href="vi_8h.html#ac395e51f25330a6e6033b6d0d22b2076" target="_top" xlink:title=" ">
<polygon fill="white" stroke="black" points="82,-142.5 82,-161.5 111,-161.5 111,-142.5 82,-142.5"/>
<text text-anchor="middle" x="96.5" y="-149.5" font-family="Helvetica,sans-Serif" font-size="10.00">ex</text>
</a>
</g>
</g>
<!-- Node8&#45;&gt;Node9 -->
<g id="edge9" class="edge">
<title>Node8&#45;&gt;Node9</title>
<path fill="none" stroke="midnightblue" d="M144.73,-152C132.54,-152 120.33,-152 111.38,-152"/>
<polygon fill="midnightblue" stroke="midnightblue" points="144.89,-155.5 154.89,-152 144.89,-148.5 144.89,-155.5"/>
</g>
<!-- Node10 -->
<g id="node10" class="node">
<title>Node10</title>
<g id="a_node10"><a xlink:href="vi_8h.html#abe53b5c10f94f20cd5ed024371615fa1" target="_top" xlink:title=" ">
<polygon fill="white" stroke="black" points="74,-104.5 74,-123.5 119,-123.5 119,-104.5 74,-104.5"/>
<text text-anchor="middle" x="96.5" y="-111.5" font-family="Helvetica,sans-Serif" font-size="10.00">ex_init</text>
</a>
</g>
</g>
<!-- Node8&#45;&gt;Node10 -->
<g id="edge11" class="edge">
<title>Node8&#45;&gt;Node10</title>
<path fill="none" stroke="midnightblue" d="M158.25,-138.56C145.31,-133.33 130.85,-127.48 119.28,-122.8"/>
<polygon fill="midnightblue" stroke="midnightblue" points="157.2,-141.91 167.78,-142.41 159.82,-135.42 157.2,-141.91"/>
</g>
<!-- Node11 -->
<g id="node11" class="node">
<title>Node11</title>
<g id="a_node11"><a xlink:href="vi_8c.html#a8d808e0f3453afe6600673ee1ea5f828" target="_top" xlink:title=" ">
<polygon fill="white" stroke="black" points="82,-66.5 82,-85.5 111,-85.5 111,-66.5 82,-66.5"/>
<text text-anchor="middle" x="96.5" y="-73.5" font-family="Helvetica,sans-Serif" font-size="10.00">vi</text>
</a>
</g>
</g>
<!-- Node8&#45;&gt;Node11 -->
<g id="edge13" class="edge">
<title>Node8&#45;&gt;Node11</title>
<path fill="none" stroke="midnightblue" d="M171.61,-135.92C152.72,-120.65 124.94,-98.18 109.31,-85.55"/>
<polygon fill="midnightblue" stroke="midnightblue" points="169.62,-138.81 179.59,-142.37 174.02,-133.37 169.62,-138.81"/>
</g>
<!-- Node9&#45;&gt;Node4 -->
<g id="edge10" class="edge">
<title>Node9&#45;&gt;Node4</title>
<path fill="none" stroke="midnightblue" d="M72.56,-140.45C61.48,-134.88 48.39,-128.29 38.04,-123.08"/>
<polygon fill="midnightblue" stroke="midnightblue" points="71.15,-143.66 81.65,-145.03 74.29,-137.41 71.15,-143.66"/>
</g>
<!-- Node10&#45;&gt;Node4 -->
<g id="edge12" class="edge">
<title>Node10&#45;&gt;Node4</title>
<path fill="none" stroke="midnightblue" d="M63.55,-114C54.99,-114 46.03,-114 38.47,-114"/>
<polygon fill="midnightblue" stroke="midnightblue" points="63.66,-117.5 73.66,-114 63.66,-110.5 63.66,-117.5"/>
</g>
<!-- Node11&#45;&gt;Node4 -->
<g id="edge14" class="edge">
<title>Node11&#45;&gt;Node4</title>
<path fill="none" stroke="midnightblue" d="M72.56,-87.55C61.48,-93.12 48.39,-99.71 38.04,-104.92"/>
<polygon fill="midnightblue" stroke="midnightblue" points="74.29,-90.59 81.65,-82.97 71.15,-84.34 74.29,-90.59"/>
</g>
<!-- Node14 -->
<g id="node14" class="node">
<title>Node14</title>
<g id="a_node14"><a xlink:href="ex_8c.html#a18295939fcd9d9ef517157b0f4ff5f97" target="_top" xlink:title=" ">
<polygon fill="white" stroke="black" points="873.5,-360.5 873.5,-379.5 931.5,-379.5 931.5,-360.5 873.5,-360.5"/>
<text text-anchor="middle" x="902.5" y="-367.5" font-family="Helvetica,sans-Serif" font-size="10.00">ex_lineno</text>
</a>
</g>
</g>
<!-- Node13&#45;&gt;Node14 -->
<g id="edge17" class="edge">
<title>Node13&#45;&gt;Node14</title>
<path fill="none" stroke="midnightblue" d="M960.49,-384.1C950.81,-381.7 940.66,-379.19 931.66,-376.97"/>
<polygon fill="midnightblue" stroke="midnightblue" points="959.79,-387.53 970.34,-386.54 961.47,-380.74 959.79,-387.53"/>
</g>
<!-- Node15 -->
<g id="node15" class="node">
<title>Node15</title>
<g id="a_node15"><a xlink:href="ex_8c.html#a0389d594366ccbd24d732bdfd870f763" target="_top" xlink:title=" ">
<polygon fill="white" stroke="black" points="778,-313.5 778,-332.5 837,-332.5 837,-313.5 778,-313.5"/>
<text text-anchor="middle" x="807.5" y="-320.5" font-family="Helvetica,sans-Serif" font-size="10.00">ex_region</text>
</a>
</g>
</g>
<!-- Node14&#45;&gt;Node15 -->
<g id="edge18" class="edge">
<title>Node14&#45;&gt;Node15</title>
<path fill="none" stroke="midnightblue" d="M873.45,-355.82C858.63,-348.34 840.83,-339.34 827.61,-332.66"/>
<polygon fill="midnightblue" stroke="midnightblue" points="872.18,-359.1 882.68,-360.49 875.33,-352.85 872.18,-359.1"/>
</g>
<!-- Node15&#45;&gt;Node5 -->
<g id="edge22" class="edge">
<title>Node15&#45;&gt;Node5</title>
<path fill="none" stroke="midnightblue" d="M804.82,-342.82C800.76,-376.73 787.1,-445.15 742,-475 699.19,-503.34 635.15,-480.14 603.74,-465.57"/>
<polygon fill="midnightblue" stroke="midnightblue" points="808.32,-343.05 805.86,-332.74 801.35,-342.33 808.32,-343.05"/>
</g>
<!-- Node15&#45;&gt;Node12 -->
<g id="edge31" class="edge">
<title>Node15&#45;&gt;Node12</title>
<path fill="none" stroke="midnightblue" d="M803.81,-343.16C798.09,-379.5 781.82,-456.93 742,-508 737.52,-513.74 731.27,-518.55 725.2,-522.32"/>
<polygon fill="midnightblue" stroke="midnightblue" points="807.33,-343.29 805.31,-332.89 800.4,-342.28 807.33,-343.29"/>
</g>
<!-- Node16 -->
<g id="node16" class="node">
<title>Node16</title>
<g id="a_node16"><a xlink:href="ex_8c.html#a4cd0748447515b7a935e4bb41424a9e4" target="_top" xlink:title=" ">
<polygon fill="white" stroke="black" points="675,-66.5 675,-85.5 734,-85.5 734,-66.5 675,-66.5"/>
<text text-anchor="middle" x="704.5" y="-73.5" font-family="Helvetica,sans-Serif" font-size="10.00">ec_delete</text>
</a>
</g>
</g>
<!-- Node15&#45;&gt;Node16 -->
<g id="edge19" class="edge">
<title>Node15&#45;&gt;Node16</title>
<path fill="none" stroke="midnightblue" d="M803.01,-303.37C793.97,-254.27 768.62,-127.7 742,-95 738.93,-91.23 734.92,-88.13 730.68,-85.6"/>
<polygon fill="midnightblue" stroke="midnightblue" points="799.6,-304.14 804.82,-313.36 806.48,-302.89 799.6,-304.14"/>
</g>
<!-- Node17 -->
<g id="node17" class="node">
<title>Node17</title>
<g id="a_node17"><a xlink:href="ex_8c.html#adcd83f163f659bd2596bcfc25d74bde9" target="_top" xlink:title=" ">
<polygon fill="white" stroke="black" points="446.5,-256.5 446.5,-275.5 499.5,-275.5 499.5,-256.5 446.5,-256.5"/>
<text text-anchor="middle" x="473" y="-263.5" font-family="Helvetica,sans-Serif" font-size="10.00">ec_exec</text>
</a>
</g>
</g>
<!-- Node15&#45;&gt;Node17 -->
<g id="edge20" class="edge">
<title>Node15&#45;&gt;Node17</title>
<path fill="none" stroke="midnightblue" d="M767.9,-316.38C699.34,-304.63 558.08,-280.41 499.91,-270.44"/>
<polygon fill="midnightblue" stroke="midnightblue" points="767.42,-319.85 777.86,-318.09 768.6,-312.95 767.42,-319.85"/>
</g>
<!-- Node18 -->
<g id="node18" class="node">
<title>Node18</title>
<g id="a_node18"><a xlink:href="ex_8c.html#a0908784dc65be2da119a6b72ef96dec2" target="_top" xlink:title=" ">
<polygon fill="white" stroke="black" points="676.5,-446.5 676.5,-465.5 732.5,-465.5 732.5,-446.5 676.5,-446.5"/>
<text text-anchor="middle" x="704.5" y="-453.5" font-family="Helvetica,sans-Serif" font-size="10.00">ec_insert</text>
</a>
</g>
</g>
<!-- Node15&#45;&gt;Node18 -->
<g id="edge23" class="edge">
<title>Node15&#45;&gt;Node18</title>
<path fill="none" stroke="midnightblue" d="M799.54,-342.41C789.88,-367.05 770.36,-409.62 742,-437 738.2,-440.67 733.54,-443.81 728.85,-446.41"/>
<polygon fill="midnightblue" stroke="midnightblue" points="802.92,-343.35 803.17,-332.76 796.37,-340.89 802.92,-343.35"/>
</g>
<!-- Node19 -->
<g id="node19" class="node">
<title>Node19</title>
<g id="a_node19"><a xlink:href="ex_8c.html#a1d45a70b724f4cccae2ab746c711ebb1" target="_top" xlink:title=" ">
<polygon fill="white" stroke="black" points="678,-408.5 678,-427.5 731,-427.5 731,-408.5 678,-408.5"/>
<text text-anchor="middle" x="704.5" y="-415.5" font-family="Helvetica,sans-Serif" font-size="10.00">ec_lnum</text>
</a>
</g>
</g>
<!-- Node15&#45;&gt;Node19 -->
<g id="edge24" class="edge">
<title>Node15&#45;&gt;Node19</title>
<path fill="none" stroke="midnightblue" d="M794.15,-341.26C782.25,-357.86 763,-382.24 742,-399 737.53,-402.56 732.29,-405.76 727.2,-408.46"/>
<polygon fill="midnightblue" stroke="midnightblue" points="797.11,-343.14 799.97,-332.94 791.37,-339.13 797.11,-343.14"/>
</g>
<!-- Node20 -->
<g id="node20" class="node">
<title>Node20</title>
<g id="a_node20"><a xlink:href="ex_8c.html#ab95c9f0f009989c44f3ebb5abae4054d" target="_top" xlink:title=" ">
<polygon fill="white" stroke="black" points="677.5,-370.5 677.5,-389.5 731.5,-389.5 731.5,-370.5 677.5,-370.5"/>
<text text-anchor="middle" x="704.5" y="-377.5" font-family="Helvetica,sans-Serif" font-size="10.00">ec_mark</text>
</a>
</g>
</g>
<!-- Node15&#45;&gt;Node20 -->
<g id="edge25" class="edge">
<title>Node15&#45;&gt;Node20</title>
<path fill="none" stroke="midnightblue" d="M782.15,-337.75C770.15,-344.92 755.41,-353.57 742,-361 736.38,-364.12 730.2,-367.39 724.54,-370.33"/>
<polygon fill="midnightblue" stroke="midnightblue" points="783.96,-340.75 790.73,-332.6 780.35,-334.75 783.96,-340.75"/>
</g>
<!-- Node21 -->
<g id="node21" class="node">
<title>Node21</title>
<g id="a_node21"><a xlink:href="ex_8c.html#affb8197a8f988443aadf1bf2800a0d0b" target="_top" xlink:title=" ">
<polygon fill="white" stroke="black" points="560.5,-313.5 560.5,-332.5 607.5,-332.5 607.5,-313.5 560.5,-313.5"/>
<text text-anchor="middle" x="584" y="-320.5" font-family="Helvetica,sans-Serif" font-size="10.00">ec_null</text>
</a>
</g>
</g>
<!-- Node15&#45;&gt;Node21 -->
<g id="edge26" class="edge">
<title>Node15&#45;&gt;Node21</title>
<path fill="none" stroke="midnightblue" d="M767.74,-323C721.41,-323 645.41,-323 607.69,-323"/>
<polygon fill="midnightblue" stroke="midnightblue" points="768,-326.5 778,-323 768,-319.5 768,-326.5"/>
</g>
<!-- Node22 -->
<g id="node22" class="node">
<title>Node22</title>
<g id="a_node22"><a xlink:href="ex_8c.html#ad2c1a9505aa3097bac242b47a367f11d" target="_top" xlink:title=" ">
<polygon fill="white" stroke="black" points="679,-332.5 679,-351.5 730,-351.5 730,-332.5 679,-332.5"/>
<text text-anchor="middle" x="704.5" y="-339.5" font-family="Helvetica,sans-Serif" font-size="10.00">ec_print</text>
</a>
</g>
</g>
<!-- Node15&#45;&gt;Node22 -->
<g id="edge27" class="edge">
<title>Node15&#45;&gt;Node22</title>
<path fill="none" stroke="midnightblue" d="M767.94,-330.25C755.25,-332.64 741.49,-335.23 730.13,-337.37"/>
<polygon fill="midnightblue" stroke="midnightblue" points="768.65,-333.68 777.83,-328.39 767.35,-326.8 768.65,-333.68"/>
</g>
<!-- Node23 -->
<g id="node23" class="node">
<title>Node23</title>
<g id="a_node23"><a xlink:href="ex_8c.html#ab417867ff867aff9f7277229990cd1b8" target="_top" xlink:title=" ">
<polygon fill="white" stroke="black" points="681.5,-218.5 681.5,-237.5 727.5,-237.5 727.5,-218.5 681.5,-218.5"/>
<text text-anchor="middle" x="704.5" y="-225.5" font-family="Helvetica,sans-Serif" font-size="10.00">ec_put</text>
</a>
</g>
</g>
<!-- Node15&#45;&gt;Node23 -->
<g id="edge29" class="edge">
<title>Node15&#45;&gt;Node23</title>
<path fill="none" stroke="midnightblue" d="M792.36,-305.05C779.98,-289.96 761.04,-268.29 742,-252 735.89,-246.78 728.58,-241.76 722.12,-237.68"/>
<polygon fill="midnightblue" stroke="midnightblue" points="789.84,-307.51 798.84,-313.09 795.29,-303.11 789.84,-307.51"/>
</g>
<!-- Node24 -->
<g id="node24" class="node">
<title>Node24</title>
<g id="a_node24"><a xlink:href="ex_8c.html#add0e79e1f1e3d45f4eaa6fbe5c1ca443" target="_top" xlink:title=" ">
<polygon fill="white" stroke="black" points="679,-180.5 679,-199.5 730,-199.5 730,-180.5 679,-180.5"/>
<text text-anchor="middle" x="704.5" y="-187.5" font-family="Helvetica,sans-Serif" font-size="10.00">ec_read</text>
</a>
</g>
</g>
<!-- Node15&#45;&gt;Node24 -->
<g id="edge30" class="edge">
<title>Node15&#45;&gt;Node24</title>
<path fill="none" stroke="midnightblue" d="M799.54,-303.59C789.88,-278.95 770.36,-236.38 742,-209 738.2,-205.33 733.54,-202.19 728.85,-199.59"/>
<polygon fill="midnightblue" stroke="midnightblue" points="796.37,-305.11 803.17,-313.24 802.92,-302.65 796.37,-305.11"/>
</g>
<!-- Node25 -->
<g id="node25" class="node">
<title>Node25</title>
<g id="a_node25"><a xlink:href="ex_8c.html#a057b67e2d4f23df3ad50a9d3ec86125b" target="_top" xlink:title=" ">
<polygon fill="white" stroke="black" points="678,-104.5 678,-123.5 731,-123.5 731,-104.5 678,-104.5"/>
<text text-anchor="middle" x="704.5" y="-111.5" font-family="Helvetica,sans-Serif" font-size="10.00">ec_write</text>
</a>
</g>
</g>
<!-- Node15&#45;&gt;Node25 -->
<g id="edge32" class="edge">
<title>Node15&#45;&gt;Node25</title>
<path fill="none" stroke="midnightblue" d="M804.66,-303.43C800.21,-266.13 785.78,-184.04 742,-133 738.74,-129.2 734.54,-126.06 730.15,-123.5"/>
<polygon fill="midnightblue" stroke="midnightblue" points="801.19,-303.92 805.74,-313.49 808.15,-303.17 801.19,-303.92"/>
</g>
<!-- Node30 -->
<g id="node30" class="node">
<title>Node30</title>
<g id="a_node30"><a xlink:href="ex_8c.html#a487b22f0ae712d3338f5e9d8d6fa8540" target="_top" xlink:title=" ">
<polygon fill="white" stroke="black" points="678,-142.5 678,-161.5 731,-161.5 731,-142.5 678,-142.5"/>
<text text-anchor="middle" x="704.5" y="-149.5" font-family="Helvetica,sans-Serif" font-size="10.00">ec_yank</text>
</a>
</g>
</g>
<!-- Node15&#45;&gt;Node30 -->
<g id="edge40" class="edge">
<title>Node15&#45;&gt;Node30</title>
<path fill="none" stroke="midnightblue" d="M802.6,-303.07C795.53,-271.55 777.87,-209.81 742,-171 738.61,-167.33 734.34,-164.24 729.93,-161.7"/>
<polygon fill="midnightblue" stroke="midnightblue" points="799.25,-304.15 804.74,-313.22 806.1,-302.71 799.25,-304.15"/>
</g>
<!-- Node17&#45;&gt;Node6 -->
<g id="edge21" class="edge">
<title>Node17&#45;&gt;Node6</title>
<path fill="none" stroke="midnightblue" d="M436.59,-277.94C427.12,-281.13 417.14,-284.5 408.58,-287.39"/>
<polygon fill="midnightblue" stroke="midnightblue" points="437.84,-281.21 446.2,-274.7 435.6,-274.58 437.84,-281.21"/>
</g>
<!-- Node22&#45;&gt;Node21 -->
<g id="edge28" class="edge">
<title>Node22&#45;&gt;Node21</title>
<path fill="none" stroke="midnightblue" d="M669.05,-336.48C649.23,-333.3 624.89,-329.4 607.52,-326.61"/>
<polygon fill="midnightblue" stroke="midnightblue" points="668.52,-339.94 678.95,-338.06 669.63,-333.02 668.52,-339.94"/>
</g>
<!-- Node26 -->
<g id="node26" class="node">
<title>Node26</title>
<g id="a_node26"><a xlink:href="ex_8c.html#ab0cb848a971a3b2c09fcb456d887dd6b" target="_top" xlink:title=" ">
<polygon fill="white" stroke="black" points="537,-104.5 537,-123.5 631,-123.5 631,-104.5 537,-104.5"/>
<text text-anchor="middle" x="584" y="-111.5" font-family="Helvetica,sans-Serif" font-size="10.00">ex_modifiedbuffer</text>
</a>
</g>
</g>
<!-- Node25&#45;&gt;Node26 -->
<g id="edge33" class="edge">
<title>Node25&#45;&gt;Node26</title>
<path fill="none" stroke="midnightblue" d="M667.7,-114C656.21,-114 643.33,-114 631.21,-114"/>
<polygon fill="midnightblue" stroke="midnightblue" points="667.79,-117.5 677.79,-114 667.79,-110.5 667.79,-117.5"/>
</g>
<!-- Node26&#45;&gt;Node17 -->
<g id="edge36" class="edge">
<title>Node26&#45;&gt;Node17</title>
<path fill="none" stroke="midnightblue" d="M570.07,-132.03C546.8,-164.48 498.63,-231.65 480.82,-256.5"/>
<polygon fill="midnightblue" stroke="midnightblue" points="573.2,-133.67 576.18,-123.51 567.51,-129.6 573.2,-133.67"/>
</g>
<!-- Node27 -->
<g id="node27" class="node">
<title>Node27</title>
<g id="a_node27"><a xlink:href="ex_8c.html#a8059390ad69866fa8e14bdb2521d4dc2" target="_top" xlink:title=" ">
<polygon fill="white" stroke="black" points="361,-104.5 361,-123.5 409,-123.5 409,-104.5 361,-104.5"/>
<text text-anchor="middle" x="385" y="-111.5" font-family="Helvetica,sans-Serif" font-size="10.00">ec_edit</text>
</a>
</g>
</g>
<!-- Node26&#45;&gt;Node27 -->
<g id="edge34" class="edge">
<title>Node26&#45;&gt;Node27</title>
<path fill="none" stroke="midnightblue" d="M526.66,-114C487.72,-114 437.95,-114 409.25,-114"/>
<polygon fill="midnightblue" stroke="midnightblue" points="526.81,-117.5 536.81,-114 526.81,-110.5 526.81,-117.5"/>
</g>
<!-- Node28 -->
<g id="node28" class="node">
<title>Node28</title>
<g id="a_node28"><a xlink:href="ex_8c.html#aa69f426ff9728078fbb36f448c624a90" target="_top" xlink:title=" ">
<polygon fill="white" stroke="black" points="445,-66.5 445,-85.5 501,-85.5 501,-66.5 445,-66.5"/>
<text text-anchor="middle" x="473" y="-73.5" font-family="Helvetica,sans-Serif" font-size="10.00">ec_make</text>
</a>
</g>
</g>
<!-- Node26&#45;&gt;Node28 -->
<g id="edge37" class="edge">
<title>Node26&#45;&gt;Node28</title>
<path fill="none" stroke="midnightblue" d="M545.71,-101C531.08,-95.9 514.59,-90.15 501.12,-85.45"/>
<polygon fill="midnightblue" stroke="midnightblue" points="544.9,-104.42 555.49,-104.41 547.2,-97.81 544.9,-104.42"/>
</g>
<!-- Node29 -->
<g id="node29" class="node">
<title>Node29</title>
<g id="a_node29"><a xlink:href="ex_8c.html#a87eef446de152fad41ce88a9a343b87d" target="_top" xlink:title=" ">
<polygon fill="white" stroke="black" points="449,-142.5 449,-161.5 497,-161.5 497,-142.5 449,-142.5"/>
<text text-anchor="middle" x="473" y="-149.5" font-family="Helvetica,sans-Serif" font-size="10.00">ec_quit</text>
</a>
</g>
</g>
<!-- Node26&#45;&gt;Node29 -->
<g id="edge38" class="edge">
<title>Node26&#45;&gt;Node29</title>
<path fill="none" stroke="midnightblue" d="M545.79,-126.97C529.63,-132.61 511.21,-139.03 497.07,-143.96"/>
<polygon fill="midnightblue" stroke="midnightblue" points="547.2,-130.19 555.49,-123.59 544.9,-123.58 547.2,-130.19"/>
</g>
<!-- Node27&#45;&gt;Node10 -->
<g id="edge35" class="edge">
<title>Node27&#45;&gt;Node10</title>
<path fill="none" stroke="midnightblue" d="M350.2,-114C290.72,-114 168.93,-114 119.29,-114"/>
<polygon fill="midnightblue" stroke="midnightblue" points="350.55,-117.5 360.55,-114 350.55,-110.5 350.55,-117.5"/>
</g>
<!-- Node29&#45;&gt;Node25 -->
<g id="edge39" class="edge">
<title>Node29&#45;&gt;Node25</title>
<path fill="none" stroke="midnightblue" d="M507.14,-149.31C539.06,-146.4 588.6,-141.08 631,-133 646.72,-130 664.07,-125.5 677.86,-121.63"/>
<polygon fill="midnightblue" stroke="midnightblue" points="506.69,-145.83 497.03,-150.2 507.3,-152.81 506.69,-145.83"/>
</g>
<!-- Node32 -->
<g id="node32" class="node">
<title>Node32</title>
<g id="a_node32"><a xlink:href="vi_8c.html#a631f59a25254f28f308f7de4897e09fa" target="_top" xlink:title=" ">
<polygon fill="white" stroke="black" points="879.5,-175.5 879.5,-194.5 925.5,-194.5 925.5,-175.5 879.5,-175.5"/>
<text text-anchor="middle" x="902.5" y="-182.5" font-family="Helvetica,sans-Serif" font-size="10.00">search</text>
</a>
</g>
</g>
<!-- Node31&#45;&gt;Node32 -->
<g id="edge42" class="edge">
<title>Node31&#45;&gt;Node32</title>
<path fill="none" stroke="midnightblue" d="M975.42,-227.26C957.86,-216.95 934.91,-203.46 919.71,-194.53"/>
<polygon fill="midnightblue" stroke="midnightblue" points="973.65,-230.28 984.05,-232.33 977.2,-224.25 973.65,-230.28"/>
</g>
<!-- Node33 -->
<g id="node33" class="node">
<title>Node33</title>
<g id="a_node33"><a xlink:href="vi_8c.html#a93701c59617d4f96cbaa207e89178f87" target="_top" xlink:title=" ">
<polygon fill="white" stroke="black" points="778,-147.5 778,-166.5 837,-166.5 837,-147.5 778,-147.5"/>
<text text-anchor="middle" x="807.5" y="-154.5" font-family="Helvetica,sans-Serif" font-size="10.00">vi_search</text>
</a>
</g>
</g>
<!-- Node32&#45;&gt;Node33 -->
<g id="edge43" class="edge">
<title>Node32&#45;&gt;Node33</title>
<path fill="none" stroke="midnightblue" d="M869.74,-175.44C859.14,-172.25 847.41,-168.72 837.08,-165.6"/>
<polygon fill="midnightblue" stroke="midnightblue" points="868.88,-178.83 879.46,-178.36 870.89,-172.13 868.88,-178.83"/>
</g>
<!-- Node34 -->
<g id="node34" class="node">
<title>Node34</title>
<g id="a_node34"><a xlink:href="vi_8c.html#aaa4777ea0715ea846346d0f27a0cfa3f" target="_top" xlink:title=" ">
<polygon fill="white" stroke="black" points="266,-28.5 266,-47.5 325,-47.5 325,-28.5 266,-28.5"/>
<text text-anchor="middle" x="295.5" y="-35.5" font-family="Helvetica,sans-Serif" font-size="10.00">vi_motion</text>
</a>
</g>
</g>
<!-- Node33&#45;&gt;Node34 -->
<g id="edge44" class="edge">
<title>Node33&#45;&gt;Node34</title>
<path fill="none" stroke="midnightblue" d="M799.91,-137.73C790.82,-114.38 772.07,-75.82 742,-57 682.42,-19.71 655.29,-38 585,-38 585,-38 585,-38 472,-38 420.2,-38 359.81,-38 325.07,-38"/>
<polygon fill="midnightblue" stroke="midnightblue" points="796.67,-139.09 803.41,-147.27 803.25,-136.67 796.67,-139.09"/>
</g>
<!-- Node34&#45;&gt;Node11 -->
<g id="edge47" class="edge">
<title>Node34&#45;&gt;Node11</title>
<path fill="none" stroke="midnightblue" d="M256.11,-50.29C247.57,-52.75 238.53,-55.14 230,-57 187.08,-66.35 135.32,-72.25 111.16,-74.7"/>
<polygon fill="midnightblue" stroke="midnightblue" points="257.24,-53.61 265.83,-47.41 255.25,-46.9 257.24,-53.61"/>
</g>
<!-- Node35 -->
<g id="node35" class="node">
<title>Node35</title>
<g id="a_node35"><a xlink:href="vi_8c.html#a06cbc6eb843436a0e77e07cbab0c4538" target="_top" xlink:title=" ">
<polygon fill="white" stroke="black" points="161.5,-28.5 161.5,-47.5 223.5,-47.5 223.5,-28.5 161.5,-28.5"/>
<text text-anchor="middle" x="192.5" y="-35.5" font-family="Helvetica,sans-Serif" font-size="10.00">vc_motion</text>
</a>
</g>
</g>
<!-- Node34&#45;&gt;Node35 -->
<g id="edge45" class="edge">
<title>Node34&#45;&gt;Node35</title>
<path fill="none" stroke="midnightblue" d="M255.56,-38C244.97,-38 233.67,-38 223.65,-38"/>
<polygon fill="midnightblue" stroke="midnightblue" points="255.83,-41.5 265.83,-38 255.83,-34.5 255.83,-41.5"/>
</g>
<!-- Node35&#45;&gt;Node11 -->
<g id="edge46" class="edge">
<title>Node35&#45;&gt;Node11</title>
<path fill="none" stroke="midnightblue" d="M158.07,-51.52C141.85,-58.07 123.28,-65.58 111.02,-70.53"/>
<polygon fill="midnightblue" stroke="midnightblue" points="159.82,-54.58 167.78,-47.59 157.2,-48.09 159.82,-54.58"/>
</g>
<!-- Node36&#45;&gt;Node4 -->
<g id="edge49" class="edge">
<title>Node36&#45;&gt;Node4</title>
<path fill="none" stroke="midnightblue" d="M862.82,-19.17C823.46,-10.96 760.56,0 705.5,0 705.5,0 705.5,0 191.5,0 116.42,0 49.11,-76.71 27.35,-104.28"/>
<polygon fill="midnightblue" stroke="midnightblue" points="862.28,-22.63 872.79,-21.29 863.74,-15.79 862.28,-22.63"/>
</g>
</g>
</svg>
