<?xml version="1.0" encoding="UTF-8" standalone="no"?>
<!DOCTYPE svg PUBLIC "-//W3C//DTD SVG 1.1//EN"
 "http://www.w3.org/Graphics/SVG/1.1/DTD/svg11.dtd">
<!-- Generated by graphviz version 2.44.1 (20200629.0846)
 -->
<!-- Title: rnode_atom Pages: 1 -->
<!--zoomable 629 -->
<svg id="main" version="1.1" xmlns="http://www.w3.org/2000/svg" xmlns:xlink="http://www.w3.org/1999/xlink" xml:space="preserve" onload="init(evt)">
<style type="text/css"><![CDATA[
.edge:hover path { stroke: red; }
.edge:hover polygon { stroke: red; fill: red; }
]]></style>
<script type="text/javascript"><![CDATA[
var edges = document.getElementsByTagName('g');
if (edges && edges.length) {
  for (var i=0;i<edges.length;i++) {
    if (edges[i].id.substr(0,4)=='edge') {
      edges[i].setAttribute('class','edge');
    }
  }
}
]]></script>
        <defs>
                <circle id="rim" cx="0" cy="0" r="7"/>
                <circle id="rim2" cx="0" cy="0" r="3.5"/>
                <g id="zoomPlus">
                        <use xlink:href="#rim" fill="#404040">
                                <set attributeName="fill" to="#808080" begin="zoomplus.mouseover" end="zoomplus.mouseout"/>
                        </use>
                        <path d="M-4,0h8M0,-4v8" fill="none" stroke="white" stroke-width="1.5" pointer-events="none"/>
                </g>
                <g id="zoomMin">
                        <use xlink:href="#rim" fill="#404040">
                                <set attributeName="fill" to="#808080" begin="zoomminus.mouseover" end="zoomminus.mouseout"/>
                        </use>
                        <path d="M-4,0h8" fill="none" stroke="white" stroke-width="1.5" pointer-events="none"/>
                </g>
                <g id="dirArrow">
                        <path fill="none" stroke="white" stroke-width="1.5" d="M0,-3.0v7 M-2.5,-0.5L0,-3.0L2.5,-0.5"/>
                </g>
               <g id="resetDef">
                       <use xlink:href="#rim2" fill="#404040">
                               <set attributeName="fill" to="#808080" begin="reset.mouseover" end="reset.mouseout"/>
                       </use>
               </g>
        </defs>

<script type="text/javascript">
var viewWidth = 1543;
var viewHeight = 629;
var sectionId = 'dynsection-22';
</script>
<script xlink:href="svgpan.js"/>
<svg id="graph" class="graph">
<g id="viewport">
<title>rnode_atom</title>
<polygon fill="white" stroke="transparent" points="-4,4 -4,-625.31 1539,-625.31 1539,4 -4,4"/>
<!-- Node1 -->
<g id="node1" class="node">
<title>Node1</title>
<g id="a_node1"><a xlink:title=" ">
<polygon fill="#bfbfbf" stroke="black" points="1467,-322.5 1467,-341.5 1535,-341.5 1535,-322.5 1467,-322.5"/>
<text text-anchor="middle" x="1501" y="-329.5" font-family="Helvetica,sans-Serif" font-size="10.00">rnode_atom</text>
</a>
</g>
</g>
<!-- Node2 -->
<g id="node2" class="node">
<title>Node2</title>
<g id="a_node2"><a xlink:href="regex_8c.html#abe0c1f4be43ac6d7caa4f95a560f823f" target="_top" xlink:title=" ">
<polygon fill="white" stroke="black" points="1369,-341.5 1369,-360.5 1431,-360.5 1431,-341.5 1369,-341.5"/>
<text text-anchor="middle" x="1400" y="-348.5" font-family="Helvetica,sans-Serif" font-size="10.00">rnode_seq</text>
</a>
</g>
</g>
<!-- Node1&#45;&gt;Node2 -->
<g id="edge1" class="edge">
<title>Node1&#45;&gt;Node2</title>
<path fill="none" stroke="midnightblue" d="M1456.84,-340.28C1448.24,-341.93 1439.38,-343.63 1431.32,-345.18"/>
<polygon fill="midnightblue" stroke="midnightblue" points="1457.6,-343.7 1466.76,-338.38 1456.28,-336.83 1457.6,-343.7"/>
</g>
<!-- Node3 -->
<g id="node3" class="node">
<title>Node3</title>
<g id="a_node3"><a xlink:href="regex_8c.html#ac19329676c1426f2b24af24e33e3a845" target="_top" xlink:title=" ">
<polygon fill="white" stroke="black" points="1263,-341.5 1263,-360.5 1333,-360.5 1333,-341.5 1263,-341.5"/>
<text text-anchor="middle" x="1298" y="-348.5" font-family="Helvetica,sans-Serif" font-size="10.00">rnode_parse</text>
</a>
</g>
</g>
<!-- Node2&#45;&gt;Node3 -->
<g id="edge2" class="edge">
<title>Node2&#45;&gt;Node3</title>
<path fill="none" stroke="midnightblue" d="M1358.88,-351C1350.37,-351 1341.46,-351 1333.19,-351"/>
<polygon fill="midnightblue" stroke="midnightblue" points="1359,-354.5 1369,-351 1359,-347.5 1359,-354.5"/>
</g>
<!-- Node4 -->
<g id="node4" class="node">
<title>Node4</title>
<g id="a_node4"><a xlink:href="regex_8h.html#a59fe05f85394b1aa81ef2ea67fa0ab49" target="_top" xlink:title=" ">
<polygon fill="white" stroke="black" points="1170.5,-341.5 1170.5,-360.5 1224.5,-360.5 1224.5,-341.5 1170.5,-341.5"/>
<text text-anchor="middle" x="1197.5" y="-348.5" font-family="Helvetica,sans-Serif" font-size="10.00">regcomp</text>
</a>
</g>
</g>
<!-- Node3&#45;&gt;Node4 -->
<g id="edge3" class="edge">
<title>Node3&#45;&gt;Node4</title>
<path fill="none" stroke="midnightblue" d="M1252.58,-351C1242.99,-351 1233.15,-351 1224.54,-351"/>
<polygon fill="midnightblue" stroke="midnightblue" points="1252.83,-354.5 1262.83,-351 1252.83,-347.5 1252.83,-354.5"/>
</g>
<!-- Node41 -->
<g id="node41" class="node">
<title>Node41</title>
<g id="a_node41"><a xlink:href="regex_8c.html#aaeda19c8b3704252a342cdcc7fc3591c" target="_top" xlink:title=" ">
<polygon fill="white" stroke="black" points="1168,-303.5 1168,-322.5 1227,-322.5 1227,-303.5 1168,-303.5"/>
<text text-anchor="middle" x="1197.5" y="-310.5" font-family="Helvetica,sans-Serif" font-size="10.00">rnode_grp</text>
</a>
</g>
</g>
<!-- Node3&#45;&gt;Node41 -->
<g id="edge55" class="edge">
<title>Node3&#45;&gt;Node41</title>
<path fill="none" stroke="midnightblue" d="M1262.62,-337.74C1249.69,-332.75 1235.25,-327.18 1223.35,-322.59"/>
<polygon fill="midnightblue" stroke="midnightblue" points="1261.55,-341.08 1272.14,-341.41 1264.07,-334.55 1261.55,-341.08"/>
</g>
<!-- Node5 -->
<g id="node5" class="node">
<title>Node5</title>
<g id="a_node5"><a xlink:href="vi_8h.html#a121f237bc2c9c9ef98fd8b3c590fc309" target="_top" xlink:title=" ">
<polygon fill="white" stroke="black" points="1070,-341.5 1070,-360.5 1132,-360.5 1132,-341.5 1070,-341.5"/>
<text text-anchor="middle" x="1101" y="-348.5" font-family="Helvetica,sans-Serif" font-size="10.00">rset_make</text>
</a>
</g>
</g>
<!-- Node4&#45;&gt;Node5 -->
<g id="edge4" class="edge">
<title>Node4&#45;&gt;Node5</title>
<path fill="none" stroke="midnightblue" d="M1160.33,-351C1151.09,-351 1141.25,-351 1132.34,-351"/>
<polygon fill="midnightblue" stroke="midnightblue" points="1160.43,-354.5 1170.43,-351 1160.43,-347.5 1160.43,-354.5"/>
</g>
<!-- Node6 -->
<g id="node6" class="node">
<title>Node6</title>
<g id="a_node6"><a xlink:href="vi_8h.html#a81435de4d45a78c51fd3f02c4326064f" target="_top" xlink:title=" ">
<polygon fill="white" stroke="black" points="785,-598.5 785,-617.5 830,-617.5 830,-598.5 785,-598.5"/>
<text text-anchor="middle" x="807.5" y="-605.5" font-family="Helvetica,sans-Serif" font-size="10.00">dir_init</text>
</a>
</g>
</g>
<!-- Node5&#45;&gt;Node6 -->
<g id="edge5" class="edge">
<title>Node5&#45;&gt;Node6</title>
<path fill="none" stroke="midnightblue" d="M1097.26,-370.71C1089.76,-421.72 1067.17,-556.04 1034,-584 975,-633.74 874.16,-621.38 830.13,-612.86"/>
<polygon fill="midnightblue" stroke="midnightblue" points="1100.75,-371.04 1098.7,-360.65 1093.82,-370.05 1100.75,-371.04"/>
</g>
<!-- Node8 -->
<g id="node8" class="node">
<title>Node8</title>
<g id="a_node8"><a xlink:href="ex_8c.html#a70c571bdde329a65e216c19b4aeaa628" target="_top" xlink:title=" ">
<polygon fill="white" stroke="black" points="559,-446.5 559,-465.5 609,-465.5 609,-446.5 559,-446.5"/>
<text text-anchor="middle" x="584" y="-453.5" font-family="Helvetica,sans-Serif" font-size="10.00">ec_glob</text>
</a>
</g>
</g>
<!-- Node5&#45;&gt;Node8 -->
<g id="edge7" class="edge">
<title>Node5&#45;&gt;Node8</title>
<path fill="none" stroke="midnightblue" d="M1093.35,-370.36C1073.61,-423.9 1009.93,-570 903,-570 903,-570 903,-570 806.5,-570 743.93,-570 722,-580.84 667,-551 629.27,-530.53 601.05,-485.31 590.05,-465.55"/>
<polygon fill="midnightblue" stroke="midnightblue" points="1096.74,-371.29 1096.81,-360.69 1090.15,-368.93 1096.74,-371.29"/>
</g>
<!-- Node15 -->
<g id="node15" class="node">
<title>Node15</title>
<g id="a_node15"><a xlink:href="ex_8c.html#aaf4e813ce4370aa859181d22de51576b" target="_top" xlink:title=" ">
<polygon fill="white" stroke="black" points="667,-522.5 667,-541.5 742,-541.5 742,-522.5 667,-522.5"/>
<text text-anchor="middle" x="704.5" y="-529.5" font-family="Helvetica,sans-Serif" font-size="10.00">ec_substitute</text>
</a>
</g>
</g>
<!-- Node5&#45;&gt;Node15 -->
<g id="edge18" class="edge">
<title>Node5&#45;&gt;Node15</title>
<path fill="none" stroke="midnightblue" d="M1069.93,-364.79C993.25,-399.98 791.84,-492.38 726.38,-522.42"/>
<polygon fill="midnightblue" stroke="midnightblue" points="1071.44,-367.95 1079.07,-360.6 1068.52,-361.59 1071.44,-367.95"/>
</g>
<!-- Node16 -->
<g id="node16" class="node">
<title>Node16</title>
<g id="a_node16"><a xlink:href="ex_8c.html#af441de070082a23574854f6a2e5cd08a" target="_top" xlink:title=" ">
<polygon fill="white" stroke="black" points="969.5,-341.5 969.5,-360.5 1031.5,-360.5 1031.5,-341.5 969.5,-341.5"/>
<text text-anchor="middle" x="1000.5" y="-348.5" font-family="Helvetica,sans-Serif" font-size="10.00">ex_search</text>
</a>
</g>
</g>
<!-- Node5&#45;&gt;Node16 -->
<g id="edge19" class="edge">
<title>Node5&#45;&gt;Node16</title>
<path fill="none" stroke="midnightblue" d="M1059.64,-351C1050.32,-351 1040.55,-351 1031.74,-351"/>
<polygon fill="midnightblue" stroke="midnightblue" points="1059.91,-354.5 1069.91,-351 1059.91,-347.5 1059.91,-354.5"/>
</g>
<!-- Node34 -->
<g id="node34" class="node">
<title>Node34</title>
<g id="a_node34"><a xlink:href="vi_8h.html#a3501f6f6f283556b872bd145c6129d37" target="_top" xlink:title=" ">
<polygon fill="white" stroke="black" points="967,-303.5 967,-322.5 1034,-322.5 1034,-303.5 967,-303.5"/>
<text text-anchor="middle" x="1000.5" y="-310.5" font-family="Helvetica,sans-Serif" font-size="10.00">lbuf_search</text>
</a>
</g>
</g>
<!-- Node5&#45;&gt;Node34 -->
<g id="edge44" class="edge">
<title>Node5&#45;&gt;Node34</title>
<path fill="none" stroke="midnightblue" d="M1065.62,-337.74C1052.69,-332.75 1038.25,-327.18 1026.35,-322.59"/>
<polygon fill="midnightblue" stroke="midnightblue" points="1064.55,-341.08 1075.14,-341.41 1067.07,-334.55 1064.55,-341.08"/>
</g>
<!-- Node39 -->
<g id="node39" class="node">
<title>Node39</title>
<g id="a_node39"><a xlink:href="vi_8h.html#a5ca5f67cbe20ba50389c586990d3582c" target="_top" xlink:title=" ">
<polygon fill="white" stroke="black" points="877,-227.5 877,-246.5 927,-246.5 927,-227.5 877,-227.5"/>
<text text-anchor="middle" x="902" y="-234.5" font-family="Helvetica,sans-Serif" font-size="10.00">syn_init</text>
</a>
</g>
</g>
<!-- Node5&#45;&gt;Node39 -->
<g id="edge51" class="edge">
<title>Node5&#45;&gt;Node39</title>
<path fill="none" stroke="midnightblue" d="M1083.34,-334.08C1070.63,-321.83 1052.26,-305.48 1034,-294 999.15,-272.08 954.41,-254.62 927.27,-245.05"/>
<polygon fill="midnightblue" stroke="midnightblue" points="1080.88,-336.57 1090.47,-341.09 1085.79,-331.59 1080.88,-336.57"/>
</g>
<!-- Node40 -->
<g id="node40" class="node">
<title>Node40</title>
<g id="a_node40"><a xlink:href="syn_8c.html#a6e5fc3b0777302300322f64f2c7f0142" target="_top" xlink:title=" ">
<polygon fill="white" stroke="black" points="972.5,-227.5 972.5,-246.5 1028.5,-246.5 1028.5,-227.5 972.5,-227.5"/>
<text text-anchor="middle" x="1000.5" y="-234.5" font-family="Helvetica,sans-Serif" font-size="10.00">syn_initft</text>
</a>
</g>
</g>
<!-- Node5&#45;&gt;Node40 -->
<g id="edge53" class="edge">
<title>Node5&#45;&gt;Node40</title>
<path fill="none" stroke="midnightblue" d="M1088.92,-332.69C1076.84,-313.57 1056.23,-283.31 1034,-261 1028.75,-255.73 1022.28,-250.71 1016.49,-246.64"/>
<polygon fill="midnightblue" stroke="midnightblue" points="1086.04,-334.68 1094.28,-341.34 1091.99,-330.99 1086.04,-334.68"/>
</g>
<!-- Node7 -->
<g id="node7" class="node">
<title>Node7</title>
<g id="a_node7"><a xlink:href="vi_8c.html#a0ddf1224851353fc92bfbff6f499fa97" target="_top" xlink:title=" ">
<polygon fill="white" stroke="black" points="0,-104.5 0,-123.5 38,-123.5 38,-104.5 0,-104.5"/>
<text text-anchor="middle" x="19" y="-111.5" font-family="Helvetica,sans-Serif" font-size="10.00">main</text>
</a>
</g>
</g>
<!-- Node6&#45;&gt;Node7 -->
<g id="edge6" class="edge">
<title>Node6&#45;&gt;Node7</title>
<path fill="none" stroke="midnightblue" d="M774.67,-608C731.65,-608 652.53,-608 585,-608 585,-608 585,-608 191.5,-608 85.05,-608 29.72,-193.49 21.17,-123.87"/>
<polygon fill="midnightblue" stroke="midnightblue" points="774.81,-611.5 784.81,-608 774.81,-604.5 774.81,-611.5"/>
</g>
<!-- Node9 -->
<g id="node9" class="node">
<title>Node9</title>
<g id="a_node9"><a xlink:href="ex_8c.html#a7d848d20211b2e1c868dde98ec5dfae9" target="_top" xlink:title=" ">
<polygon fill="white" stroke="black" points="361.5,-285.5 361.5,-304.5 408.5,-304.5 408.5,-285.5 361.5,-285.5"/>
<text text-anchor="middle" x="385" y="-292.5" font-family="Helvetica,sans-Serif" font-size="10.00">ex_line</text>
</a>
</g>
</g>
<!-- Node8&#45;&gt;Node9 -->
<g id="edge8" class="edge">
<title>Node8&#45;&gt;Node9</title>
<path fill="none" stroke="midnightblue" d="M569.39,-438.33C554.07,-419.13 527.81,-388.24 501,-366 469.94,-340.23 428.7,-317.04 404.99,-304.59"/>
<polygon fill="midnightblue" stroke="midnightblue" points="566.69,-440.55 575.62,-446.25 572.19,-436.23 566.69,-440.55"/>
</g>
<!-- Node10 -->
<g id="node10" class="node">
<title>Node10</title>
<g id="a_node10"><a xlink:href="ex_8c.html#ab15ebfef933256d9741128e2ddf3f9b5" target="_top" xlink:title=" ">
<polygon fill="white" stroke="black" points="269,-285.5 269,-304.5 322,-304.5 322,-285.5 269,-285.5"/>
<text text-anchor="middle" x="295.5" y="-292.5" font-family="Helvetica,sans-Serif" font-size="10.00">ex_exec</text>
</a>
</g>
</g>
<!-- Node9&#45;&gt;Node10 -->
<g id="edge9" class="edge">
<title>Node9&#45;&gt;Node10</title>
<path fill="none" stroke="midnightblue" d="M351.36,-295C341.68,-295 331.21,-295 322.05,-295"/>
<polygon fill="midnightblue" stroke="midnightblue" points="351.47,-298.5 361.47,-295 351.47,-291.5 351.47,-298.5"/>
</g>
<!-- Node10&#45;&gt;Node8 -->
<g id="edge10" class="edge">
<title>Node10&#45;&gt;Node8</title>
<path fill="none" stroke="midnightblue" d="M322.32,-309.51C379.93,-341.88 517.67,-419.29 565.94,-446.41"/>
<polygon fill="midnightblue" stroke="midnightblue" points="323.91,-306.39 313.47,-304.54 320.48,-312.49 323.91,-306.39"/>
</g>
<!-- Node11 -->
<g id="node11" class="node">
<title>Node11</title>
<g id="a_node11"><a xlink:href="vi_8h.html#aa75c73cccb4878ec06ea5bf5b1b02295" target="_top" xlink:title=" ">
<polygon fill="white" stroke="black" points="155,-142.5 155,-161.5 230,-161.5 230,-142.5 155,-142.5"/>
<text text-anchor="middle" x="192.5" y="-149.5" font-family="Helvetica,sans-Serif" font-size="10.00">ex_command</text>
</a>
</g>
</g>
<!-- Node10&#45;&gt;Node11 -->
<g id="edge11" class="edge">
<title>Node10&#45;&gt;Node11</title>
<path fill="none" stroke="midnightblue" d="M281.55,-276.67C259.83,-245.91 216.8,-184.99 200.22,-161.52"/>
<polygon fill="midnightblue" stroke="midnightblue" points="278.93,-279.02 287.56,-285.17 284.65,-274.98 278.93,-279.02"/>
</g>
<!-- Node12 -->
<g id="node12" class="node">
<title>Node12</title>
<g id="a_node12"><a xlink:href="vi_8h.html#ac395e51f25330a6e6033b6d0d22b2076" target="_top" xlink:title=" ">
<polygon fill="white" stroke="black" points="82,-142.5 82,-161.5 111,-161.5 111,-142.5 82,-142.5"/>
<text text-anchor="middle" x="96.5" y="-149.5" font-family="Helvetica,sans-Serif" font-size="10.00">ex</text>
</a>
</g>
</g>
<!-- Node11&#45;&gt;Node12 -->
<g id="edge12" class="edge">
<title>Node11&#45;&gt;Node12</title>
<path fill="none" stroke="midnightblue" d="M144.73,-152C132.54,-152 120.33,-152 111.38,-152"/>
<polygon fill="midnightblue" stroke="midnightblue" points="144.89,-155.5 154.89,-152 144.89,-148.5 144.89,-155.5"/>
</g>
<!-- Node13 -->
<g id="node13" class="node">
<title>Node13</title>
<g id="a_node13"><a xlink:href="vi_8h.html#abe53b5c10f94f20cd5ed024371615fa1" target="_top" xlink:title=" ">
<polygon fill="white" stroke="black" points="74,-104.5 74,-123.5 119,-123.5 119,-104.5 74,-104.5"/>
<text text-anchor="middle" x="96.5" y="-111.5" font-family="Helvetica,sans-Serif" font-size="10.00">ex_init</text>
</a>
</g>
</g>
<!-- Node11&#45;&gt;Node13 -->
<g id="edge14" class="edge">
<title>Node11&#45;&gt;Node13</title>
<path fill="none" stroke="midnightblue" d="M158.25,-138.56C145.31,-133.33 130.85,-127.48 119.28,-122.8"/>
<polygon fill="midnightblue" stroke="midnightblue" points="157.2,-141.91 167.78,-142.41 159.82,-135.42 157.2,-141.91"/>
</g>
<!-- Node14 -->
<g id="node14" class="node">
<title>Node14</title>
<g id="a_node14"><a xlink:href="vi_8c.html#a8d808e0f3453afe6600673ee1ea5f828" target="_top" xlink:title=" ">
<polygon fill="white" stroke="black" points="82,-66.5 82,-85.5 111,-85.5 111,-66.5 82,-66.5"/>
<text text-anchor="middle" x="96.5" y="-73.5" font-family="Helvetica,sans-Serif" font-size="10.00">vi</text>
</a>
</g>
</g>
<!-- Node11&#45;&gt;Node14 -->
<g id="edge16" class="edge">
<title>Node11&#45;&gt;Node14</title>
<path fill="none" stroke="midnightblue" d="M171.61,-135.92C152.72,-120.65 124.94,-98.18 109.31,-85.55"/>
<polygon fill="midnightblue" stroke="midnightblue" points="169.62,-138.81 179.59,-142.37 174.02,-133.37 169.62,-138.81"/>
</g>
<!-- Node12&#45;&gt;Node7 -->
<g id="edge13" class="edge">
<title>Node12&#45;&gt;Node7</title>
<path fill="none" stroke="midnightblue" d="M72.56,-140.45C61.48,-134.88 48.39,-128.29 38.04,-123.08"/>
<polygon fill="midnightblue" stroke="midnightblue" points="71.15,-143.66 81.65,-145.03 74.29,-137.41 71.15,-143.66"/>
</g>
<!-- Node13&#45;&gt;Node7 -->
<g id="edge15" class="edge">
<title>Node13&#45;&gt;Node7</title>
<path fill="none" stroke="midnightblue" d="M63.55,-114C54.99,-114 46.03,-114 38.47,-114"/>
<polygon fill="midnightblue" stroke="midnightblue" points="63.66,-117.5 73.66,-114 63.66,-110.5 63.66,-117.5"/>
</g>
<!-- Node14&#45;&gt;Node7 -->
<g id="edge17" class="edge">
<title>Node14&#45;&gt;Node7</title>
<path fill="none" stroke="midnightblue" d="M72.56,-87.55C61.48,-93.12 48.39,-99.71 38.04,-104.92"/>
<polygon fill="midnightblue" stroke="midnightblue" points="74.29,-90.59 81.65,-82.97 71.15,-84.34 74.29,-90.59"/>
</g>
<!-- Node17 -->
<g id="node17" class="node">
<title>Node17</title>
<g id="a_node17"><a xlink:href="ex_8c.html#a18295939fcd9d9ef517157b0f4ff5f97" target="_top" xlink:title=" ">
<polygon fill="white" stroke="black" points="873,-322.5 873,-341.5 931,-341.5 931,-322.5 873,-322.5"/>
<text text-anchor="middle" x="902" y="-329.5" font-family="Helvetica,sans-Serif" font-size="10.00">ex_lineno</text>
</a>
</g>
</g>
<!-- Node16&#45;&gt;Node17 -->
<g id="edge20" class="edge">
<title>Node16&#45;&gt;Node17</title>
<path fill="none" stroke="midnightblue" d="M959.39,-343.1C949.85,-341.22 939.87,-339.26 931.01,-337.52"/>
<polygon fill="midnightblue" stroke="midnightblue" points="959.01,-346.59 969.5,-345.09 960.36,-339.73 959.01,-346.59"/>
</g>
<!-- Node18 -->
<g id="node18" class="node">
<title>Node18</title>
<g id="a_node18"><a xlink:href="ex_8c.html#a0389d594366ccbd24d732bdfd870f763" target="_top" xlink:title=" ">
<polygon fill="white" stroke="black" points="778,-313.5 778,-332.5 837,-332.5 837,-313.5 778,-313.5"/>
<text text-anchor="middle" x="807.5" y="-320.5" font-family="Helvetica,sans-Serif" font-size="10.00">ex_region</text>
</a>
</g>
</g>
<!-- Node17&#45;&gt;Node18 -->
<g id="edge21" class="edge">
<title>Node17&#45;&gt;Node18</title>
<path fill="none" stroke="midnightblue" d="M862.77,-328.28C854.17,-327.44 845.18,-326.57 837.05,-325.78"/>
<polygon fill="midnightblue" stroke="midnightblue" points="862.7,-331.79 873,-329.28 863.38,-324.82 862.7,-331.79"/>
</g>
<!-- Node18&#45;&gt;Node8 -->
<g id="edge25" class="edge">
<title>Node18&#45;&gt;Node8</title>
<path fill="none" stroke="midnightblue" d="M804.82,-342.82C800.76,-376.73 787.1,-445.15 742,-475 699.19,-503.34 635.15,-480.14 603.74,-465.57"/>
<polygon fill="midnightblue" stroke="midnightblue" points="808.32,-343.05 805.86,-332.74 801.35,-342.33 808.32,-343.05"/>
</g>
<!-- Node18&#45;&gt;Node15 -->
<g id="edge34" class="edge">
<title>Node18&#45;&gt;Node15</title>
<path fill="none" stroke="midnightblue" d="M803.81,-343.16C798.09,-379.5 781.82,-456.93 742,-508 737.52,-513.74 731.27,-518.55 725.2,-522.32"/>
<polygon fill="midnightblue" stroke="midnightblue" points="807.33,-343.29 805.31,-332.89 800.4,-342.28 807.33,-343.29"/>
</g>
<!-- Node19 -->
<g id="node19" class="node">
<title>Node19</title>
<g id="a_node19"><a xlink:href="ex_8c.html#a4cd0748447515b7a935e4bb41424a9e4" target="_top" xlink:title=" ">
<polygon fill="white" stroke="black" points="675,-66.5 675,-85.5 734,-85.5 734,-66.5 675,-66.5"/>
<text text-anchor="middle" x="704.5" y="-73.5" font-family="Helvetica,sans-Serif" font-size="10.00">ec_delete</text>
</a>
</g>
</g>
<!-- Node18&#45;&gt;Node19 -->
<g id="edge22" class="edge">
<title>Node18&#45;&gt;Node19</title>
<path fill="none" stroke="midnightblue" d="M783.55,-306.38C781.43,-304.1 779.51,-301.63 778,-299 732.03,-219.23 796.45,-169.24 742,-95 739.21,-91.2 735.44,-88.09 731.36,-85.58"/>
<polygon fill="midnightblue" stroke="midnightblue" points="781.49,-309.24 791.25,-313.37 786.2,-304.06 781.49,-309.24"/>
</g>
<!-- Node20 -->
<g id="node20" class="node">
<title>Node20</title>
<g id="a_node20"><a xlink:href="ex_8c.html#adcd83f163f659bd2596bcfc25d74bde9" target="_top" xlink:title=" ">
<polygon fill="white" stroke="black" points="446.5,-256.5 446.5,-275.5 499.5,-275.5 499.5,-256.5 446.5,-256.5"/>
<text text-anchor="middle" x="473" y="-263.5" font-family="Helvetica,sans-Serif" font-size="10.00">ec_exec</text>
</a>
</g>
</g>
<!-- Node18&#45;&gt;Node20 -->
<g id="edge23" class="edge">
<title>Node18&#45;&gt;Node20</title>
<path fill="none" stroke="midnightblue" d="M767.9,-316.38C699.34,-304.63 558.08,-280.41 499.91,-270.44"/>
<polygon fill="midnightblue" stroke="midnightblue" points="767.42,-319.85 777.86,-318.09 768.6,-312.95 767.42,-319.85"/>
</g>
<!-- Node21 -->
<g id="node21" class="node">
<title>Node21</title>
<g id="a_node21"><a xlink:href="ex_8c.html#a0908784dc65be2da119a6b72ef96dec2" target="_top" xlink:title=" ">
<polygon fill="white" stroke="black" points="676.5,-446.5 676.5,-465.5 732.5,-465.5 732.5,-446.5 676.5,-446.5"/>
<text text-anchor="middle" x="704.5" y="-453.5" font-family="Helvetica,sans-Serif" font-size="10.00">ec_insert</text>
</a>
</g>
</g>
<!-- Node18&#45;&gt;Node21 -->
<g id="edge26" class="edge">
<title>Node18&#45;&gt;Node21</title>
<path fill="none" stroke="midnightblue" d="M799.54,-342.41C789.88,-367.05 770.36,-409.62 742,-437 738.2,-440.67 733.54,-443.81 728.85,-446.41"/>
<polygon fill="midnightblue" stroke="midnightblue" points="802.92,-343.35 803.17,-332.76 796.37,-340.89 802.92,-343.35"/>
</g>
<!-- Node22 -->
<g id="node22" class="node">
<title>Node22</title>
<g id="a_node22"><a xlink:href="ex_8c.html#a1d45a70b724f4cccae2ab746c711ebb1" target="_top" xlink:title=" ">
<polygon fill="white" stroke="black" points="678,-408.5 678,-427.5 731,-427.5 731,-408.5 678,-408.5"/>
<text text-anchor="middle" x="704.5" y="-415.5" font-family="Helvetica,sans-Serif" font-size="10.00">ec_lnum</text>
</a>
</g>
</g>
<!-- Node18&#45;&gt;Node22 -->
<g id="edge27" class="edge">
<title>Node18&#45;&gt;Node22</title>
<path fill="none" stroke="midnightblue" d="M794.15,-341.26C782.25,-357.86 763,-382.24 742,-399 737.53,-402.56 732.29,-405.76 727.2,-408.46"/>
<polygon fill="midnightblue" stroke="midnightblue" points="797.11,-343.14 799.97,-332.94 791.37,-339.13 797.11,-343.14"/>
</g>
<!-- Node23 -->
<g id="node23" class="node">
<title>Node23</title>
<g id="a_node23"><a xlink:href="ex_8c.html#ab95c9f0f009989c44f3ebb5abae4054d" target="_top" xlink:title=" ">
<polygon fill="white" stroke="black" points="677.5,-370.5 677.5,-389.5 731.5,-389.5 731.5,-370.5 677.5,-370.5"/>
<text text-anchor="middle" x="704.5" y="-377.5" font-family="Helvetica,sans-Serif" font-size="10.00">ec_mark</text>
</a>
</g>
</g>
<!-- Node18&#45;&gt;Node23 -->
<g id="edge28" class="edge">
<title>Node18&#45;&gt;Node23</title>
<path fill="none" stroke="midnightblue" d="M782.15,-337.75C770.15,-344.92 755.41,-353.57 742,-361 736.38,-364.12 730.2,-367.39 724.54,-370.33"/>
<polygon fill="midnightblue" stroke="midnightblue" points="783.96,-340.75 790.73,-332.6 780.35,-334.75 783.96,-340.75"/>
</g>
<!-- Node24 -->
<g id="node24" class="node">
<title>Node24</title>
<g id="a_node24"><a xlink:href="ex_8c.html#affb8197a8f988443aadf1bf2800a0d0b" target="_top" xlink:title=" ">
<polygon fill="white" stroke="black" points="560.5,-313.5 560.5,-332.5 607.5,-332.5 607.5,-313.5 560.5,-313.5"/>
<text text-anchor="middle" x="584" y="-320.5" font-family="Helvetica,sans-Serif" font-size="10.00">ec_null</text>
</a>
</g>
</g>
<!-- Node18&#45;&gt;Node24 -->
<g id="edge29" class="edge">
<title>Node18&#45;&gt;Node24</title>
<path fill="none" stroke="midnightblue" d="M767.74,-323C721.41,-323 645.41,-323 607.69,-323"/>
<polygon fill="midnightblue" stroke="midnightblue" points="768,-326.5 778,-323 768,-319.5 768,-326.5"/>
</g>
<!-- Node25 -->
<g id="node25" class="node">
<title>Node25</title>
<g id="a_node25"><a xlink:href="ex_8c.html#ad2c1a9505aa3097bac242b47a367f11d" target="_top" xlink:title=" ">
<polygon fill="white" stroke="black" points="679,-332.5 679,-351.5 730,-351.5 730,-332.5 679,-332.5"/>
<text text-anchor="middle" x="704.5" y="-339.5" font-family="Helvetica,sans-Serif" font-size="10.00">ec_print</text>
</a>
</g>
</g>
<!-- Node18&#45;&gt;Node25 -->
<g id="edge30" class="edge">
<title>Node18&#45;&gt;Node25</title>
<path fill="none" stroke="midnightblue" d="M767.94,-330.25C755.25,-332.64 741.49,-335.23 730.13,-337.37"/>
<polygon fill="midnightblue" stroke="midnightblue" points="768.65,-333.68 777.83,-328.39 767.35,-326.8 768.65,-333.68"/>
</g>
<!-- Node26 -->
<g id="node26" class="node">
<title>Node26</title>
<g id="a_node26"><a xlink:href="ex_8c.html#ab417867ff867aff9f7277229990cd1b8" target="_top" xlink:title=" ">
<polygon fill="white" stroke="black" points="681.5,-218.5 681.5,-237.5 727.5,-237.5 727.5,-218.5 681.5,-218.5"/>
<text text-anchor="middle" x="704.5" y="-225.5" font-family="Helvetica,sans-Serif" font-size="10.00">ec_put</text>
</a>
</g>
</g>
<!-- Node18&#45;&gt;Node26 -->
<g id="edge32" class="edge">
<title>Node18&#45;&gt;Node26</title>
<path fill="none" stroke="midnightblue" d="M786.03,-306.7C783.24,-304.21 780.49,-301.61 778,-299 759.83,-279.97 761.26,-269.92 742,-252 736.23,-246.63 729.12,-241.66 722.72,-237.65"/>
<polygon fill="midnightblue" stroke="midnightblue" points="783.89,-309.47 793.77,-313.28 788.42,-304.14 783.89,-309.47"/>
</g>
<!-- Node27 -->
<g id="node27" class="node">
<title>Node27</title>
<g id="a_node27"><a xlink:href="ex_8c.html#add0e79e1f1e3d45f4eaa6fbe5c1ca443" target="_top" xlink:title=" ">
<polygon fill="white" stroke="black" points="679,-180.5 679,-199.5 730,-199.5 730,-180.5 679,-180.5"/>
<text text-anchor="middle" x="704.5" y="-187.5" font-family="Helvetica,sans-Serif" font-size="10.00">ec_read</text>
</a>
</g>
</g>
<!-- Node18&#45;&gt;Node27 -->
<g id="edge33" class="edge">
<title>Node18&#45;&gt;Node27</title>
<path fill="none" stroke="midnightblue" d="M784.8,-306.76C782.32,-304.34 779.97,-301.73 778,-299 752.77,-264.08 770.91,-240.94 742,-209 738.64,-205.29 734.39,-202.19 729.99,-199.64"/>
<polygon fill="midnightblue" stroke="midnightblue" points="782.62,-309.5 792.46,-313.43 787.22,-304.22 782.62,-309.5"/>
</g>
<!-- Node28 -->
<g id="node28" class="node">
<title>Node28</title>
<g id="a_node28"><a xlink:href="ex_8c.html#a057b67e2d4f23df3ad50a9d3ec86125b" target="_top" xlink:title=" ">
<polygon fill="white" stroke="black" points="678,-104.5 678,-123.5 731,-123.5 731,-104.5 678,-104.5"/>
<text text-anchor="middle" x="704.5" y="-111.5" font-family="Helvetica,sans-Serif" font-size="10.00">ec_write</text>
</a>
</g>
</g>
<!-- Node18&#45;&gt;Node28 -->
<g id="edge35" class="edge">
<title>Node18&#45;&gt;Node28</title>
<path fill="none" stroke="midnightblue" d="M783.65,-306.32C781.51,-304.05 779.56,-301.6 778,-299 739.04,-234.34 787.82,-193 742,-133 739.14,-129.25 735.33,-126.17 731.24,-123.67"/>
<polygon fill="midnightblue" stroke="midnightblue" points="781.6,-309.19 791.37,-313.3 786.3,-303.99 781.6,-309.19"/>
</g>
<!-- Node33 -->
<g id="node33" class="node">
<title>Node33</title>
<g id="a_node33"><a xlink:href="ex_8c.html#a487b22f0ae712d3338f5e9d8d6fa8540" target="_top" xlink:title=" ">
<polygon fill="white" stroke="black" points="678,-142.5 678,-161.5 731,-161.5 731,-142.5 678,-142.5"/>
<text text-anchor="middle" x="704.5" y="-149.5" font-family="Helvetica,sans-Serif" font-size="10.00">ec_yank</text>
</a>
</g>
</g>
<!-- Node18&#45;&gt;Node33 -->
<g id="edge43" class="edge">
<title>Node18&#45;&gt;Node33</title>
<path fill="none" stroke="midnightblue" d="M783.94,-306.36C781.72,-304.07 779.68,-301.6 778,-299 745.98,-249.33 779.27,-216.86 742,-171 738.94,-167.23 734.92,-164.12 730.68,-161.59"/>
<polygon fill="midnightblue" stroke="midnightblue" points="782.06,-309.37 791.85,-313.41 786.72,-304.15 782.06,-309.37"/>
</g>
<!-- Node20&#45;&gt;Node9 -->
<g id="edge24" class="edge">
<title>Node20&#45;&gt;Node9</title>
<path fill="none" stroke="midnightblue" d="M436.59,-277.94C427.12,-281.13 417.14,-284.5 408.58,-287.39"/>
<polygon fill="midnightblue" stroke="midnightblue" points="437.84,-281.21 446.2,-274.7 435.6,-274.58 437.84,-281.21"/>
</g>
<!-- Node25&#45;&gt;Node24 -->
<g id="edge31" class="edge">
<title>Node25&#45;&gt;Node24</title>
<path fill="none" stroke="midnightblue" d="M669.05,-336.48C649.23,-333.3 624.89,-329.4 607.52,-326.61"/>
<polygon fill="midnightblue" stroke="midnightblue" points="668.52,-339.94 678.95,-338.06 669.63,-333.02 668.52,-339.94"/>
</g>
<!-- Node29 -->
<g id="node29" class="node">
<title>Node29</title>
<g id="a_node29"><a xlink:href="ex_8c.html#ab0cb848a971a3b2c09fcb456d887dd6b" target="_top" xlink:title=" ">
<polygon fill="white" stroke="black" points="537,-104.5 537,-123.5 631,-123.5 631,-104.5 537,-104.5"/>
<text text-anchor="middle" x="584" y="-111.5" font-family="Helvetica,sans-Serif" font-size="10.00">ex_modifiedbuffer</text>
</a>
</g>
</g>
<!-- Node28&#45;&gt;Node29 -->
<g id="edge36" class="edge">
<title>Node28&#45;&gt;Node29</title>
<path fill="none" stroke="midnightblue" d="M667.7,-114C656.21,-114 643.33,-114 631.21,-114"/>
<polygon fill="midnightblue" stroke="midnightblue" points="667.79,-117.5 677.79,-114 667.79,-110.5 667.79,-117.5"/>
</g>
<!-- Node29&#45;&gt;Node20 -->
<g id="edge39" class="edge">
<title>Node29&#45;&gt;Node20</title>
<path fill="none" stroke="midnightblue" d="M570.07,-132.03C546.8,-164.48 498.63,-231.65 480.82,-256.5"/>
<polygon fill="midnightblue" stroke="midnightblue" points="573.2,-133.67 576.18,-123.51 567.51,-129.6 573.2,-133.67"/>
</g>
<!-- Node30 -->
<g id="node30" class="node">
<title>Node30</title>
<g id="a_node30"><a xlink:href="ex_8c.html#a8059390ad69866fa8e14bdb2521d4dc2" target="_top" xlink:title=" ">
<polygon fill="white" stroke="black" points="361,-104.5 361,-123.5 409,-123.5 409,-104.5 361,-104.5"/>
<text text-anchor="middle" x="385" y="-111.5" font-family="Helvetica,sans-Serif" font-size="10.00">ec_edit</text>
</a>
</g>
</g>
<!-- Node29&#45;&gt;Node30 -->
<g id="edge37" class="edge">
<title>Node29&#45;&gt;Node30</title>
<path fill="none" stroke="midnightblue" d="M526.66,-114C487.72,-114 437.95,-114 409.25,-114"/>
<polygon fill="midnightblue" stroke="midnightblue" points="526.81,-117.5 536.81,-114 526.81,-110.5 526.81,-117.5"/>
</g>
<!-- Node31 -->
<g id="node31" class="node">
<title>Node31</title>
<g id="a_node31"><a xlink:href="ex_8c.html#aa69f426ff9728078fbb36f448c624a90" target="_top" xlink:title=" ">
<polygon fill="white" stroke="black" points="445,-66.5 445,-85.5 501,-85.5 501,-66.5 445,-66.5"/>
<text text-anchor="middle" x="473" y="-73.5" font-family="Helvetica,sans-Serif" font-size="10.00">ec_make</text>
</a>
</g>
</g>
<!-- Node29&#45;&gt;Node31 -->
<g id="edge40" class="edge">
<title>Node29&#45;&gt;Node31</title>
<path fill="none" stroke="midnightblue" d="M545.71,-101C531.08,-95.9 514.59,-90.15 501.12,-85.45"/>
<polygon fill="midnightblue" stroke="midnightblue" points="544.9,-104.42 555.49,-104.41 547.2,-97.81 544.9,-104.42"/>
</g>
<!-- Node32 -->
<g id="node32" class="node">
<title>Node32</title>
<g id="a_node32"><a xlink:href="ex_8c.html#a87eef446de152fad41ce88a9a343b87d" target="_top" xlink:title=" ">
<polygon fill="white" stroke="black" points="449,-142.5 449,-161.5 497,-161.5 497,-142.5 449,-142.5"/>
<text text-anchor="middle" x="473" y="-149.5" font-family="Helvetica,sans-Serif" font-size="10.00">ec_quit</text>
</a>
</g>
</g>
<!-- Node29&#45;&gt;Node32 -->
<g id="edge41" class="edge">
<title>Node29&#45;&gt;Node32</title>
<path fill="none" stroke="midnightblue" d="M545.79,-126.97C529.63,-132.61 511.21,-139.03 497.07,-143.96"/>
<polygon fill="midnightblue" stroke="midnightblue" points="547.2,-130.19 555.49,-123.59 544.9,-123.58 547.2,-130.19"/>
</g>
<!-- Node30&#45;&gt;Node13 -->
<g id="edge38" class="edge">
<title>Node30&#45;&gt;Node13</title>
<path fill="none" stroke="midnightblue" d="M350.2,-114C290.72,-114 168.93,-114 119.29,-114"/>
<polygon fill="midnightblue" stroke="midnightblue" points="350.55,-117.5 360.55,-114 350.55,-110.5 350.55,-117.5"/>
</g>
<!-- Node32&#45;&gt;Node28 -->
<g id="edge42" class="edge">
<title>Node32&#45;&gt;Node28</title>
<path fill="none" stroke="midnightblue" d="M507.14,-149.31C539.06,-146.4 588.6,-141.08 631,-133 646.72,-130 664.07,-125.5 677.86,-121.63"/>
<polygon fill="midnightblue" stroke="midnightblue" points="506.69,-145.83 497.03,-150.2 507.3,-152.81 506.69,-145.83"/>
</g>
<!-- Node35 -->
<g id="node35" class="node">
<title>Node35</title>
<g id="a_node35"><a xlink:href="vi_8c.html#a631f59a25254f28f308f7de4897e09fa" target="_top" xlink:title=" ">
<polygon fill="white" stroke="black" points="879,-270.5 879,-289.5 925,-289.5 925,-270.5 879,-270.5"/>
<text text-anchor="middle" x="902" y="-277.5" font-family="Helvetica,sans-Serif" font-size="10.00">search</text>
</a>
</g>
</g>
<!-- Node34&#45;&gt;Node35 -->
<g id="edge45" class="edge">
<title>Node34&#45;&gt;Node35</title>
<path fill="none" stroke="midnightblue" d="M961.87,-300.13C949.4,-295.87 935.93,-291.26 925.03,-287.53"/>
<polygon fill="midnightblue" stroke="midnightblue" points="960.99,-303.53 971.59,-303.46 963.26,-296.91 960.99,-303.53"/>
</g>
<!-- Node36 -->
<g id="node36" class="node">
<title>Node36</title>
<g id="a_node36"><a xlink:href="vi_8c.html#a93701c59617d4f96cbaa207e89178f87" target="_top" xlink:title=" ">
<polygon fill="white" stroke="black" points="778,-270.5 778,-289.5 837,-289.5 837,-270.5 778,-270.5"/>
<text text-anchor="middle" x="807.5" y="-277.5" font-family="Helvetica,sans-Serif" font-size="10.00">vi_search</text>
</a>
</g>
</g>
<!-- Node35&#45;&gt;Node36 -->
<g id="edge46" class="edge">
<title>Node35&#45;&gt;Node36</title>
<path fill="none" stroke="midnightblue" d="M868.48,-280C858.33,-280 847.22,-280 837.34,-280"/>
<polygon fill="midnightblue" stroke="midnightblue" points="868.61,-283.5 878.61,-280 868.61,-276.5 868.61,-283.5"/>
</g>
<!-- Node37 -->
<g id="node37" class="node">
<title>Node37</title>
<g id="a_node37"><a xlink:href="vi_8c.html#aaa4777ea0715ea846346d0f27a0cfa3f" target="_top" xlink:title=" ">
<polygon fill="white" stroke="black" points="266,-28.5 266,-47.5 325,-47.5 325,-28.5 266,-28.5"/>
<text text-anchor="middle" x="295.5" y="-35.5" font-family="Helvetica,sans-Serif" font-size="10.00">vi_motion</text>
</a>
</g>
</g>
<!-- Node36&#45;&gt;Node37 -->
<g id="edge47" class="edge">
<title>Node36&#45;&gt;Node37</title>
<path fill="none" stroke="midnightblue" d="M807.4,-260.23C808.23,-216.08 803.43,-109.26 742,-57 688.46,-11.46 655.29,-38 585,-38 585,-38 585,-38 472,-38 420.2,-38 359.81,-38 325.07,-38"/>
<polygon fill="midnightblue" stroke="midnightblue" points="803.9,-260.38 807.08,-270.48 810.89,-260.6 803.9,-260.38"/>
</g>
<!-- Node37&#45;&gt;Node14 -->
<g id="edge50" class="edge">
<title>Node37&#45;&gt;Node14</title>
<path fill="none" stroke="midnightblue" d="M256.11,-50.29C247.57,-52.75 238.53,-55.14 230,-57 187.08,-66.35 135.32,-72.25 111.16,-74.7"/>
<polygon fill="midnightblue" stroke="midnightblue" points="257.24,-53.61 265.83,-47.41 255.25,-46.9 257.24,-53.61"/>
</g>
<!-- Node38 -->
<g id="node38" class="node">
<title>Node38</title>
<g id="a_node38"><a xlink:href="vi_8c.html#a06cbc6eb843436a0e77e07cbab0c4538" target="_top" xlink:title=" ">
<polygon fill="white" stroke="black" points="161.5,-28.5 161.5,-47.5 223.5,-47.5 223.5,-28.5 161.5,-28.5"/>
<text text-anchor="middle" x="192.5" y="-35.5" font-family="Helvetica,sans-Serif" font-size="10.00">vc_motion</text>
</a>
</g>
</g>
<!-- Node37&#45;&gt;Node38 -->
<g id="edge48" class="edge">
<title>Node37&#45;&gt;Node38</title>
<path fill="none" stroke="midnightblue" d="M255.56,-38C244.97,-38 233.67,-38 223.65,-38"/>
<polygon fill="midnightblue" stroke="midnightblue" points="255.83,-41.5 265.83,-38 255.83,-34.5 255.83,-41.5"/>
</g>
<!-- Node38&#45;&gt;Node14 -->
<g id="edge49" class="edge">
<title>Node38&#45;&gt;Node14</title>
<path fill="none" stroke="midnightblue" d="M158.07,-51.52C141.85,-58.07 123.28,-65.58 111.02,-70.53"/>
<polygon fill="midnightblue" stroke="midnightblue" points="159.82,-54.58 167.78,-47.59 157.2,-48.09 159.82,-54.58"/>
</g>
<!-- Node39&#45;&gt;Node7 -->
<g id="edge52" class="edge">
<title>Node39&#45;&gt;Node7</title>
<path fill="none" stroke="midnightblue" d="M895.42,-217.55C877.84,-160.91 818.01,0 705.5,0 705.5,0 705.5,0 191.5,0 116.42,0 49.11,-76.71 27.35,-104.28"/>
<polygon fill="midnightblue" stroke="midnightblue" points="892.15,-218.84 898.37,-227.42 898.86,-216.83 892.15,-218.84"/>
</g>
<!-- Node40&#45;&gt;Node39 -->
<g id="edge54" class="edge">
<title>Node40&#45;&gt;Node39</title>
<path fill="none" stroke="midnightblue" d="M962.35,-237C950.6,-237 937.91,-237 927.3,-237"/>
<polygon fill="midnightblue" stroke="midnightblue" points="962.36,-240.5 972.36,-237 962.36,-233.5 962.36,-240.5"/>
</g>
<!-- Node41&#45;&gt;Node1 -->
<g id="edge56" class="edge">
<title>Node41&#45;&gt;Node1</title>
<path fill="none" stroke="midnightblue" d="M1237.39,-315.45C1297.21,-319.22 1410.74,-326.37 1466.87,-329.91"/>
<polygon fill="midnightblue" stroke="midnightblue" points="1237.42,-311.95 1227.22,-314.81 1236.98,-318.93 1237.42,-311.95"/>
</g>
</g>
</svg>
        <g id="navigator" transform="translate(0 0)" fill="#404254">
                <rect fill="#f2f5e9" fill-opacity="0.5" stroke="#606060" stroke-width=".5" x="0" y="0" width="60" height="60"/>
                <use id="zoomplus" xlink:href="#zoomPlus" x="17" y="9" onmousedown="handleZoom(evt,'in')"/>
                <use id="zoomminus" xlink:href="#zoomMin" x="42" y="9" onmousedown="handleZoom(evt,'out')"/>
                <use id="reset" xlink:href="#resetDef" x="30" y="36" onmousedown="handleReset()"/>
                <g id="arrowUp" xlink:href="#dirArrow" transform="translate(30 24)" onmousedown="handlePan(0,-1)">
                  <use xlink:href="#rim" fill="#404040">
                        <set attributeName="fill" to="#808080" begin="arrowUp.mouseover" end="arrowUp.mouseout"/>
                  </use>
                  <path fill="none" stroke="white" stroke-width="1.5" d="M0,-3.0v7 M-2.5,-0.5L0,-3.0L2.5,-0.5"/>
                </g>
                <g id="arrowRight" xlink:href="#dirArrow" transform="rotate(90) translate(36 -43)" onmousedown="handlePan(1,0)">
                  <use xlink:href="#rim" fill="#404040">
                        <set attributeName="fill" to="#808080" begin="arrowRight.mouseover" end="arrowRight.mouseout"/>
                  </use>
                  <path fill="none" stroke="white" stroke-width="1.5" d="M0,-3.0v7 M-2.5,-0.5L0,-3.0L2.5,-0.5"/>
                </g>
                <g id="arrowDown" xlink:href="#dirArrow" transform="rotate(180) translate(-30 -48)" onmousedown="handlePan(0,1)">
                  <use xlink:href="#rim" fill="#404040">
                        <set attributeName="fill" to="#808080" begin="arrowDown.mouseover" end="arrowDown.mouseout"/>
                  </use>
                  <path fill="none" stroke="white" stroke-width="1.5" d="M0,-3.0v7 M-2.5,-0.5L0,-3.0L2.5,-0.5"/>
                </g>
                <g id="arrowLeft" xlink:href="#dirArrow" transform="rotate(270) translate(-36 17)" onmousedown="handlePan(-1,0)">
                  <use xlink:href="#rim" fill="#404040">
                        <set attributeName="fill" to="#808080" begin="arrowLeft.mouseover" end="arrowLeft.mouseout"/>
                  </use>
                  <path fill="none" stroke="white" stroke-width="1.5" d="M0,-3.0v7 M-2.5,-0.5L0,-3.0L2.5,-0.5"/>
                </g>
        </g>
        <svg viewBox="0 0 15 15" width="100%" height="30px" preserveAspectRatio="xMaxYMin meet">
         <g id="arrow_out" transform="scale(0.3 0.3)">
          <a xlink:href="regex_8c_a0df57dc0ee1beb9018cdd537a58571aa_icgraph_org.svg" target="_base">
           <rect id="button" ry="5" rx="5" y="6" x="6" height="38" width="38"
                fill="#f2f5e9" fill-opacity="0.5" stroke="#606060" stroke-width="1.0"/>
           <path id="arrow"
             d="M 11.500037,31.436501 C 11.940474,20.09759 22.043105,11.32322 32.158766,21.979434 L 37.068811,17.246167 C 37.068811,17.246167 37.088388,32 37.088388,32 L 22.160133,31.978069 C 22.160133,31.978069 26.997745,27.140456 26.997745,27.140456 C 18.528582,18.264221 13.291696,25.230495 11.500037,31.436501 z"
             style="fill:#404040;"/>
          </a>
         </g>
        </svg>
</svg>
