<?xml version="1.0" encoding="UTF-8" standalone="no"?>
<!DOCTYPE svg PUBLIC "-//W3C//DTD SVG 1.1//EN"
 "http://www.w3.org/Graphics/SVG/1.1/DTD/svg11.dtd">
<!-- Generated by graphviz version 2.44.1 (20200629.0846)
 -->
<!-- Title: ren_pos Pages: 1 -->
<!--zoomable 310 -->
<svg id="main" version="1.1" xmlns="http://www.w3.org/2000/svg" xmlns:xlink="http://www.w3.org/1999/xlink" xml:space="preserve" onload="init(evt)">
<style type="text/css"><![CDATA[
.edge:hover path { stroke: red; }
.edge:hover polygon { stroke: red; fill: red; }
]]></style>
<script type="text/javascript"><![CDATA[
var edges = document.getElementsByTagName('g');
if (edges && edges.length) {
  for (var i=0;i<edges.length;i++) {
    if (edges[i].id.substr(0,4)=='edge') {
      edges[i].setAttribute('class','edge');
    }
  }
}
]]></script>
        <defs>
                <circle id="rim" cx="0" cy="0" r="7"/>
                <circle id="rim2" cx="0" cy="0" r="3.5"/>
                <g id="zoomPlus">
                        <use xlink:href="#rim" fill="#404040">
                                <set attributeName="fill" to="#808080" begin="zoomplus.mouseover" end="zoomplus.mouseout"/>
                        </use>
                        <path d="M-4,0h8M0,-4v8" fill="none" stroke="white" stroke-width="1.5" pointer-events="none"/>
                </g>
                <g id="zoomMin">
                        <use xlink:href="#rim" fill="#404040">
                                <set attributeName="fill" to="#808080" begin="zoomminus.mouseover" end="zoomminus.mouseout"/>
                        </use>
                        <path d="M-4,0h8" fill="none" stroke="white" stroke-width="1.5" pointer-events="none"/>
                </g>
                <g id="dirArrow">
                        <path fill="none" stroke="white" stroke-width="1.5" d="M0,-3.0v7 M-2.5,-0.5L0,-3.0L2.5,-0.5"/>
                </g>
               <g id="resetDef">
                       <use xlink:href="#rim2" fill="#404040">
                               <set attributeName="fill" to="#808080" begin="reset.mouseover" end="reset.mouseout"/>
                       </use>
               </g>
        </defs>

<script type="text/javascript">
var viewWidth = 892;
var viewHeight = 310;
var sectionId = 'dynsection-7';
</script>
<script xlink:href="svgpan.js"/>
<svg id="graph" class="graph">
<g id="viewport">
<title>ren_pos</title>
<polygon fill="white" stroke="transparent" points="-4,4 -4,-306.24 888,-306.24 888,4 -4,4"/>
<!-- Node1 -->
<g id="node1" class="node">
<title>Node1</title>
<g id="a_node1"><a xlink:title=" ">
<polygon fill="#bfbfbf" stroke="black" points="833,-159.74 833,-178.74 884,-178.74 884,-159.74 833,-159.74"/>
<text text-anchor="middle" x="858.5" y="-166.74" font-family="Helvetica,sans-Serif" font-size="10.00">ren_pos</text>
</a>
</g>
</g>
<!-- Node2 -->
<g id="node2" class="node">
<title>Node2</title>
<g id="a_node2"><a xlink:href="led_8c.html#ae938cbff964c214e7e4f6aff4d5ce0f7" target="_top" xlink:title=" ">
<polygon fill="white" stroke="black" points="722,-159.74 722,-178.74 797,-178.74 797,-159.74 722,-159.74"/>
<text text-anchor="middle" x="759.5" y="-166.74" font-family="Helvetica,sans-Serif" font-size="10.00">led_printparts</text>
</a>
</g>
</g>
<!-- Node1&#45;&gt;Node2 -->
<g id="edge1" class="edge">
<title>Node1&#45;&gt;Node2</title>
<path fill="none" stroke="midnightblue" d="M822.7,-169.24C814.45,-169.24 805.62,-169.24 797.28,-169.24"/>
<polygon fill="midnightblue" stroke="midnightblue" points="822.77,-172.74 832.77,-169.24 822.77,-165.74 822.77,-172.74"/>
</g>
<!-- Node20 -->
<g id="node20" class="node">
<title>Node20</title>
<g id="a_node20"><a xlink:href="vi_8c.html#a7ace2fb061a4295d64c45c1eecae3bfb" target="_top" xlink:title=" ">
<polygon fill="white" stroke="black" points="625,-44.74 625,-63.74 686,-63.74 686,-44.74 625,-44.74"/>
<text text-anchor="middle" x="655.5" y="-51.74" font-family="Helvetica,sans-Serif" font-size="10.00">vi_nextcol</text>
</a>
</g>
</g>
<!-- Node1&#45;&gt;Node20 -->
<g id="edge27" class="edge">
<title>Node1&#45;&gt;Node20</title>
<path fill="none" stroke="midnightblue" d="M831.97,-154.63C790.26,-130.77 708.64,-84.07 673.38,-63.9"/>
<polygon fill="midnightblue" stroke="midnightblue" points="830.29,-157.7 840.71,-159.63 833.77,-151.63 830.29,-157.7"/>
</g>
<!-- Node21 -->
<g id="node21" class="node">
<title>Node21</title>
<g id="a_node21"><a xlink:href="vi_8c.html#a399ec531a29a3e8915287df4c855acf6" target="_top" xlink:title=" ">
<polygon fill="white" stroke="black" points="238,-282.74 238,-301.74 297,-301.74 297,-282.74 238,-282.74"/>
<text text-anchor="middle" x="267.5" y="-289.74" font-family="Helvetica,sans-Serif" font-size="10.00">vi_off2col</text>
</a>
</g>
</g>
<!-- Node1&#45;&gt;Node21 -->
<g id="edge29" class="edge">
<title>Node1&#45;&gt;Node21</title>
<path fill="none" stroke="midnightblue" d="M840.11,-185.6C807.08,-214.89 731.84,-273.24 656.5,-273.24 656.5,-273.24 656.5,-273.24 457.5,-273.24 400.45,-273.24 334.19,-281.92 297.23,-287.54"/>
<polygon fill="midnightblue" stroke="midnightblue" points="842.51,-188.15 847.57,-178.84 837.81,-182.96 842.51,-188.15"/>
</g>
<!-- Node3 -->
<g id="node3" class="node">
<title>Node3</title>
<g id="a_node3"><a xlink:href="vi_8h.html#ae72255a31cec31233723c101d9465d07" target="_top" xlink:title=" ">
<polygon fill="white" stroke="black" points="528.5,-178.74 528.5,-197.74 584.5,-197.74 584.5,-178.74 528.5,-178.74"/>
<text text-anchor="middle" x="556.5" y="-185.74" font-family="Helvetica,sans-Serif" font-size="10.00">led_input</text>
</a>
</g>
</g>
<!-- Node2&#45;&gt;Node3 -->
<g id="edge2" class="edge">
<title>Node2&#45;&gt;Node3</title>
<path fill="none" stroke="midnightblue" d="M711.48,-173.68C672.1,-177.41 617.28,-182.59 584.79,-185.66"/>
<polygon fill="midnightblue" stroke="midnightblue" points="712.01,-177.15 721.63,-172.72 711.35,-170.18 712.01,-177.15"/>
</g>
<!-- Node10 -->
<g id="node10" class="node">
<title>Node10</title>
<g id="a_node10"><a xlink:href="led_8c.html#a617ec615e86687b5c10df33b271256c8" target="_top" xlink:title=" ">
<polygon fill="white" stroke="black" points="630.5,-140.74 630.5,-159.74 680.5,-159.74 680.5,-140.74 630.5,-140.74"/>
<text text-anchor="middle" x="655.5" y="-147.74" font-family="Helvetica,sans-Serif" font-size="10.00">led_line</text>
</a>
</g>
</g>
<!-- Node2&#45;&gt;Node10 -->
<g id="edge10" class="edge">
<title>Node2&#45;&gt;Node10</title>
<path fill="none" stroke="midnightblue" d="M712.12,-160.6C701.26,-158.58 690.11,-156.5 680.68,-154.74"/>
<polygon fill="midnightblue" stroke="midnightblue" points="711.49,-164.04 721.96,-162.43 712.77,-157.16 711.49,-164.04"/>
</g>
<!-- Node4 -->
<g id="node4" class="node">
<title>Node4</title>
<g id="a_node4"><a xlink:href="vi_8c.html#a653f6b0359cef492e11f404c4bf469b9" target="_top" xlink:title=" ">
<polygon fill="white" stroke="black" points="338.5,-206.74 338.5,-225.74 388.5,-225.74 388.5,-206.74 338.5,-206.74"/>
<text text-anchor="middle" x="363.5" y="-213.74" font-family="Helvetica,sans-Serif" font-size="10.00">vi_input</text>
</a>
</g>
</g>
<!-- Node3&#45;&gt;Node4 -->
<g id="edge3" class="edge">
<title>Node3&#45;&gt;Node4</title>
<path fill="none" stroke="midnightblue" d="M517.9,-193.75C479.62,-199.36 421.39,-207.9 388.79,-212.68"/>
<polygon fill="midnightblue" stroke="midnightblue" points="518.75,-197.16 528.13,-192.25 517.73,-190.24 518.75,-197.16"/>
</g>
<!-- Node5 -->
<g id="node5" class="node">
<title>Node5</title>
<g id="a_node5"><a xlink:href="vi_8c.html#a8bb357a77ed61da8858f138c6fa672a6" target="_top" xlink:title=" ">
<polygon fill="white" stroke="black" points="239.5,-244.74 239.5,-263.74 295.5,-263.74 295.5,-244.74 239.5,-244.74"/>
<text text-anchor="middle" x="267.5" y="-251.74" font-family="Helvetica,sans-Serif" font-size="10.00">vc_insert</text>
</a>
</g>
</g>
<!-- Node4&#45;&gt;Node5 -->
<g id="edge4" class="edge">
<title>Node4&#45;&gt;Node5</title>
<path fill="none" stroke="midnightblue" d="M329.32,-229.65C317.08,-234.6 303.46,-240.11 292.21,-244.65"/>
<polygon fill="midnightblue" stroke="midnightblue" points="330.82,-232.82 338.78,-225.83 328.2,-226.33 330.82,-232.82"/>
</g>
<!-- Node8 -->
<g id="node8" class="node">
<title>Node8</title>
<g id="a_node8"><a xlink:href="vi_8c.html#ae37b094c3bb647d8c1a4ac4e858ce518" target="_top" xlink:title=" ">
<polygon fill="white" stroke="black" points="237,-206.74 237,-225.74 298,-225.74 298,-206.74 237,-206.74"/>
<text text-anchor="middle" x="267.5" y="-213.74" font-family="Helvetica,sans-Serif" font-size="10.00">vi_change</text>
</a>
</g>
</g>
<!-- Node4&#45;&gt;Node8 -->
<g id="edge7" class="edge">
<title>Node4&#45;&gt;Node8</title>
<path fill="none" stroke="midnightblue" d="M328.1,-216.24C318.34,-216.24 307.8,-216.24 298.34,-216.24"/>
<polygon fill="midnightblue" stroke="midnightblue" points="328.29,-219.74 338.29,-216.24 328.29,-212.74 328.29,-219.74"/>
</g>
<!-- Node6 -->
<g id="node6" class="node">
<title>Node6</title>
<g id="a_node6"><a xlink:href="vi_8c.html#a8d808e0f3453afe6600673ee1ea5f828" target="_top" xlink:title=" ">
<polygon fill="white" stroke="black" points="74,-149.74 74,-168.74 103,-168.74 103,-149.74 74,-149.74"/>
<text text-anchor="middle" x="88.5" y="-156.74" font-family="Helvetica,sans-Serif" font-size="10.00">vi</text>
</a>
</g>
</g>
<!-- Node5&#45;&gt;Node6 -->
<g id="edge5" class="edge">
<title>Node5&#45;&gt;Node6</title>
<path fill="none" stroke="midnightblue" d="M234.96,-240.35C208.78,-228.48 170.81,-210.47 139,-192.24 126.45,-185.05 112.83,-175.86 103.05,-169"/>
<polygon fill="midnightblue" stroke="midnightblue" points="233.82,-243.68 244.38,-244.59 236.69,-237.29 233.82,-243.68"/>
</g>
<!-- Node7 -->
<g id="node7" class="node">
<title>Node7</title>
<g id="a_node7"><a xlink:href="vi_8c.html#a0ddf1224851353fc92bfbff6f499fa97" target="_top" xlink:title=" ">
<polygon fill="white" stroke="black" points="0,-73.74 0,-92.74 38,-92.74 38,-73.74 0,-73.74"/>
<text text-anchor="middle" x="19" y="-80.74" font-family="Helvetica,sans-Serif" font-size="10.00">main</text>
</a>
</g>
</g>
<!-- Node6&#45;&gt;Node7 -->
<g id="edge6" class="edge">
<title>Node6&#45;&gt;Node7</title>
<path fill="none" stroke="midnightblue" d="M72.15,-141.95C58.71,-126.82 39.66,-105.37 28.69,-93.03"/>
<polygon fill="midnightblue" stroke="midnightblue" points="69.69,-144.46 78.95,-149.61 74.93,-139.81 69.69,-144.46"/>
</g>
<!-- Node9 -->
<g id="node9" class="node">
<title>Node9</title>
<g id="a_node9"><a xlink:href="vi_8c.html#a06cbc6eb843436a0e77e07cbab0c4538" target="_top" xlink:title=" ">
<polygon fill="white" stroke="black" points="139,-130.74 139,-149.74 201,-149.74 201,-130.74 139,-130.74"/>
<text text-anchor="middle" x="170" y="-137.74" font-family="Helvetica,sans-Serif" font-size="10.00">vc_motion</text>
</a>
</g>
</g>
<!-- Node8&#45;&gt;Node9 -->
<g id="edge8" class="edge">
<title>Node8&#45;&gt;Node9</title>
<path fill="none" stroke="midnightblue" d="M246.56,-200.37C227.35,-185.09 198.95,-162.48 183,-149.79"/>
<polygon fill="midnightblue" stroke="midnightblue" points="244.4,-203.13 254.4,-206.61 248.76,-197.65 244.4,-203.13"/>
</g>
<!-- Node9&#45;&gt;Node6 -->
<g id="edge9" class="edge">
<title>Node9&#45;&gt;Node6</title>
<path fill="none" stroke="midnightblue" d="M128.95,-149.81C119.66,-152.03 110.39,-154.25 103.17,-155.97"/>
<polygon fill="midnightblue" stroke="midnightblue" points="130.03,-153.15 138.94,-147.42 128.4,-146.34 130.03,-153.15"/>
</g>
<!-- Node10&#45;&gt;Node3 -->
<g id="edge11" class="edge">
<title>Node10&#45;&gt;Node3</title>
<path fill="none" stroke="midnightblue" d="M620.64,-163.5C607.91,-168.49 593.69,-174.06 581.97,-178.65"/>
<polygon fill="midnightblue" stroke="midnightblue" points="621.99,-166.74 630.02,-159.83 619.44,-160.22 621.99,-166.74"/>
</g>
<!-- Node11 -->
<g id="node11" class="node">
<title>Node11</title>
<g id="a_node11"><a xlink:href="vi_8h.html#a173bb468e1e2a066136316f98b49c108" target="_top" xlink:title=" ">
<polygon fill="white" stroke="black" points="524,-130.74 524,-149.74 589,-149.74 589,-130.74 524,-130.74"/>
<text text-anchor="middle" x="556.5" y="-137.74" font-family="Helvetica,sans-Serif" font-size="10.00">led_prompt</text>
</a>
</g>
</g>
<!-- Node10&#45;&gt;Node11 -->
<g id="edge12" class="edge">
<title>Node10&#45;&gt;Node11</title>
<path fill="none" stroke="midnightblue" d="M620,-146.68C610,-145.65 599.14,-144.53 589.31,-143.52"/>
<polygon fill="midnightblue" stroke="midnightblue" points="619.72,-150.17 630.02,-147.72 620.43,-143.21 619.72,-150.17"/>
</g>
<!-- Node12 -->
<g id="node12" class="node">
<title>Node12</title>
<g id="a_node12"><a xlink:href="vi_8h.html#a7ba56272fe1a7d523192729a0bb5edf7" target="_top" xlink:title=" ">
<polygon fill="white" stroke="black" points="242,-35.74 242,-54.74 293,-54.74 293,-35.74 242,-35.74"/>
<text text-anchor="middle" x="267.5" y="-42.74" font-family="Helvetica,sans-Serif" font-size="10.00">ex_read</text>
</a>
</g>
</g>
<!-- Node11&#45;&gt;Node12 -->
<g id="edge13" class="edge">
<title>Node11&#45;&gt;Node12</title>
<path fill="none" stroke="midnightblue" d="M519.83,-127.25C487,-115.41 436.9,-97.63 393,-83.24 358.64,-71.98 318.6,-59.95 293.4,-52.51"/>
<polygon fill="midnightblue" stroke="midnightblue" points="518.84,-130.62 529.44,-130.73 521.22,-124.04 518.84,-130.62"/>
</g>
<!-- Node16 -->
<g id="node16" class="node">
<title>Node16</title>
<g id="a_node16"><a xlink:href="vi_8c.html#a57965473297aad4c4333fdd3897c11f3" target="_top" xlink:title=" ">
<polygon fill="white" stroke="black" points="429,-130.74 429,-149.74 488,-149.74 488,-130.74 429,-130.74"/>
<text text-anchor="middle" x="458.5" y="-137.74" font-family="Helvetica,sans-Serif" font-size="10.00">vi_prompt</text>
</a>
</g>
</g>
<!-- Node11&#45;&gt;Node16 -->
<g id="edge19" class="edge">
<title>Node11&#45;&gt;Node16</title>
<path fill="none" stroke="midnightblue" d="M513.58,-140.24C505.03,-140.24 496.22,-140.24 488.25,-140.24"/>
<polygon fill="midnightblue" stroke="midnightblue" points="513.8,-143.74 523.8,-140.24 513.8,-136.74 513.8,-143.74"/>
</g>
<!-- Node13 -->
<g id="node13" class="node">
<title>Node13</title>
<g id="a_node13"><a xlink:href="ex_8c.html#a0908784dc65be2da119a6b72ef96dec2" target="_top" xlink:title=" ">
<polygon fill="white" stroke="black" points="142,-54.74 142,-73.74 198,-73.74 198,-54.74 142,-54.74"/>
<text text-anchor="middle" x="170" y="-61.74" font-family="Helvetica,sans-Serif" font-size="10.00">ec_insert</text>
</a>
</g>
</g>
<!-- Node12&#45;&gt;Node13 -->
<g id="edge14" class="edge">
<title>Node12&#45;&gt;Node13</title>
<path fill="none" stroke="midnightblue" d="M232.05,-52.09C220.92,-54.31 208.74,-56.73 198.2,-58.83"/>
<polygon fill="midnightblue" stroke="midnightblue" points="232.78,-55.52 241.91,-50.13 231.42,-48.65 232.78,-55.52"/>
</g>
<!-- Node14 -->
<g id="node14" class="node">
<title>Node14</title>
<g id="a_node14"><a xlink:href="vi_8h.html#ac395e51f25330a6e6033b6d0d22b2076" target="_top" xlink:title=" ">
<polygon fill="white" stroke="black" points="74,-54.74 74,-73.74 103,-73.74 103,-54.74 74,-54.74"/>
<text text-anchor="middle" x="88.5" y="-61.74" font-family="Helvetica,sans-Serif" font-size="10.00">ex</text>
</a>
</g>
</g>
<!-- Node12&#45;&gt;Node14 -->
<g id="edge15" class="edge">
<title>Node12&#45;&gt;Node14</title>
<path fill="none" stroke="midnightblue" d="M246.15,-29.67C233.82,-21.22 217.34,-11.64 201,-7.24 174.39,-0.08 164.07,4.19 139,-7.24 117.53,-17.03 101.78,-41.23 94.32,-54.74"/>
<polygon fill="midnightblue" stroke="midnightblue" points="244.17,-32.55 254.34,-35.52 248.24,-26.86 244.17,-32.55"/>
</g>
<!-- Node15 -->
<g id="node15" class="node">
<title>Node15</title>
<g id="a_node15"><a xlink:href="vi_8c.html#a9d85e9ed087401367529ab86a5dbf0c5" target="_top" xlink:title=" ">
<polygon fill="white" stroke="black" points="146.5,-16.74 146.5,-35.74 193.5,-35.74 193.5,-16.74 146.5,-16.74"/>
<text text-anchor="middle" x="170" y="-23.74" font-family="Helvetica,sans-Serif" font-size="10.00">vi_wait</text>
</a>
</g>
</g>
<!-- Node12&#45;&gt;Node15 -->
<g id="edge17" class="edge">
<title>Node12&#45;&gt;Node15</title>
<path fill="none" stroke="midnightblue" d="M232.01,-38.38C219.2,-35.83 205.02,-33.01 193.55,-30.73"/>
<polygon fill="midnightblue" stroke="midnightblue" points="231.42,-41.83 241.91,-40.35 232.78,-34.96 231.42,-41.83"/>
</g>
<!-- Node14&#45;&gt;Node7 -->
<g id="edge16" class="edge">
<title>Node14&#45;&gt;Node7</title>
<path fill="none" stroke="midnightblue" d="M64.14,-70.81C55.67,-73.2 46.22,-75.86 38.25,-78.1"/>
<polygon fill="midnightblue" stroke="midnightblue" points="65.16,-74.16 73.84,-68.08 63.27,-67.42 65.16,-74.16"/>
</g>
<!-- Node15&#45;&gt;Node6 -->
<g id="edge18" class="edge">
<title>Node15&#45;&gt;Node6</title>
<path fill="none" stroke="midnightblue" d="M141.75,-42.34C140.78,-43.27 139.86,-44.24 139,-45.24 111.08,-77.86 96.66,-128.65 91.62,-149.65"/>
<polygon fill="midnightblue" stroke="midnightblue" points="144.2,-44.87 149.88,-35.93 139.86,-39.37 144.2,-44.87"/>
</g>
<!-- Node16&#45;&gt;Node6 -->
<g id="edge20" class="edge">
<title>Node16&#45;&gt;Node6</title>
<path fill="none" stroke="midnightblue" d="M421.83,-152.72C412.56,-155.42 402.5,-157.87 393,-159.24 282.18,-175.22 146.22,-164.67 103.21,-160.62"/>
<polygon fill="midnightblue" stroke="midnightblue" points="422.99,-156.03 431.52,-149.74 420.93,-149.34 422.99,-156.03"/>
</g>
<!-- Node17 -->
<g id="node17" class="node">
<title>Node17</title>
<g id="a_node17"><a xlink:href="vi_8c.html#ab8e0c9b9d2ef5161c6a3a8828606df5f" target="_top" xlink:title=" ">
<polygon fill="white" stroke="black" points="340,-130.74 340,-149.74 387,-149.74 387,-130.74 340,-130.74"/>
<text text-anchor="middle" x="363.5" y="-137.74" font-family="Helvetica,sans-Serif" font-size="10.00">vi_pipe</text>
</a>
</g>
</g>
<!-- Node16&#45;&gt;Node17 -->
<g id="edge21" class="edge">
<title>Node16&#45;&gt;Node17</title>
<path fill="none" stroke="midnightblue" d="M418.73,-140.24C407.93,-140.24 396.55,-140.24 387.02,-140.24"/>
<polygon fill="midnightblue" stroke="midnightblue" points="418.84,-143.74 428.84,-140.24 418.84,-136.74 418.84,-143.74"/>
</g>
<!-- Node18 -->
<g id="node18" class="node">
<title>Node18</title>
<g id="a_node18"><a xlink:href="vi_8c.html#a93701c59617d4f96cbaa207e89178f87" target="_top" xlink:title=" ">
<polygon fill="white" stroke="black" points="334,-92.74 334,-111.74 393,-111.74 393,-92.74 334,-92.74"/>
<text text-anchor="middle" x="363.5" y="-99.74" font-family="Helvetica,sans-Serif" font-size="10.00">vi_search</text>
</a>
</g>
</g>
<!-- Node16&#45;&gt;Node18 -->
<g id="edge23" class="edge">
<title>Node16&#45;&gt;Node18</title>
<path fill="none" stroke="midnightblue" d="M424.68,-126.83C412.56,-121.88 399.08,-116.37 387.96,-111.83"/>
<polygon fill="midnightblue" stroke="midnightblue" points="423.45,-130.11 434.03,-130.65 426.1,-123.63 423.45,-130.11"/>
</g>
<!-- Node17&#45;&gt;Node9 -->
<g id="edge22" class="edge">
<title>Node17&#45;&gt;Node9</title>
<path fill="none" stroke="midnightblue" d="M329.78,-140.24C293.74,-140.24 236.26,-140.24 201.24,-140.24"/>
<polygon fill="midnightblue" stroke="midnightblue" points="329.78,-143.74 339.78,-140.24 329.78,-136.74 329.78,-143.74"/>
</g>
<!-- Node19 -->
<g id="node19" class="node">
<title>Node19</title>
<g id="a_node19"><a xlink:href="vi_8c.html#aaa4777ea0715ea846346d0f27a0cfa3f" target="_top" xlink:title=" ">
<polygon fill="white" stroke="black" points="238,-92.74 238,-111.74 297,-111.74 297,-92.74 238,-92.74"/>
<text text-anchor="middle" x="267.5" y="-99.74" font-family="Helvetica,sans-Serif" font-size="10.00">vi_motion</text>
</a>
</g>
</g>
<!-- Node18&#45;&gt;Node19 -->
<g id="edge24" class="edge">
<title>Node18&#45;&gt;Node19</title>
<path fill="none" stroke="midnightblue" d="M323.6,-102.24C314.71,-102.24 305.41,-102.24 297.04,-102.24"/>
<polygon fill="midnightblue" stroke="midnightblue" points="323.79,-105.74 333.79,-102.24 323.79,-98.74 323.79,-105.74"/>
</g>
<!-- Node19&#45;&gt;Node6 -->
<g id="edge26" class="edge">
<title>Node19&#45;&gt;Node6</title>
<path fill="none" stroke="midnightblue" d="M227.57,-102.99C201.59,-104.69 167.16,-109.29 139,-121.24 123.24,-127.93 108.08,-140.83 98.78,-149.74"/>
<polygon fill="midnightblue" stroke="midnightblue" points="227.99,-106.47 237.79,-102.44 227.62,-99.48 227.99,-106.47"/>
</g>
<!-- Node19&#45;&gt;Node9 -->
<g id="edge25" class="edge">
<title>Node19&#45;&gt;Node9</title>
<path fill="none" stroke="midnightblue" d="M232.79,-115.65C220.35,-120.6 206.51,-126.11 195.09,-130.65"/>
<polygon fill="midnightblue" stroke="midnightblue" points="234.4,-118.78 242.4,-111.83 231.82,-112.27 234.4,-118.78"/>
</g>
<!-- Node20&#45;&gt;Node19 -->
<g id="edge28" class="edge">
<title>Node20&#45;&gt;Node19</title>
<path fill="none" stroke="midnightblue" d="M614.28,-55.4C553.23,-57.72 433.7,-64.45 334,-83.24 321.67,-85.56 308.32,-89.22 296.91,-92.71"/>
<polygon fill="midnightblue" stroke="midnightblue" points="614.76,-58.89 624.63,-55.03 614.51,-51.89 614.76,-58.89"/>
</g>
<!-- Node21&#45;&gt;Node6 -->
<g id="edge32" class="edge">
<title>Node21&#45;&gt;Node6</title>
<path fill="none" stroke="midnightblue" d="M233.19,-278.47C206.04,-266.23 167.64,-246.53 139,-222.24 120.12,-206.22 103.56,-182.02 95.23,-168.76"/>
<polygon fill="midnightblue" stroke="midnightblue" points="232.08,-281.8 242.65,-282.63 234.91,-275.4 232.08,-281.8"/>
</g>
<!-- Node22 -->
<g id="node22" class="node">
<title>Node22</title>
<g id="a_node22"><a xlink:href="vi_8c.html#ab7d24df5f19f55dae6f719cd5bcfbe6f" target="_top" xlink:title=" ">
<polygon fill="white" stroke="black" points="140.5,-282.74 140.5,-301.74 199.5,-301.74 199.5,-282.74 140.5,-282.74"/>
<text text-anchor="middle" x="170" y="-289.74" font-family="Helvetica,sans-Serif" font-size="10.00">vc_status</text>
</a>
</g>
</g>
<!-- Node21&#45;&gt;Node22 -->
<g id="edge30" class="edge">
<title>Node21&#45;&gt;Node22</title>
<path fill="none" stroke="midnightblue" d="M227.57,-292.24C218.23,-292.24 208.41,-292.24 199.63,-292.24"/>
<polygon fill="midnightblue" stroke="midnightblue" points="227.85,-295.74 237.85,-292.24 227.85,-288.74 227.85,-295.74"/>
</g>
<!-- Node22&#45;&gt;Node6 -->
<g id="edge31" class="edge">
<title>Node22&#45;&gt;Node6</title>
<path fill="none" stroke="midnightblue" d="M146.27,-276.02C143.63,-273.59 141.13,-270.98 139,-268.24 113.86,-235.92 98.1,-188.8 92.17,-168.79"/>
<polygon fill="midnightblue" stroke="midnightblue" points="144.4,-279.02 154.34,-282.69 148.86,-273.62 144.4,-279.02"/>
</g>
</g>
</svg>
        <g id="navigator" transform="translate(0 0)" fill="#404254">
                <rect fill="#f2f5e9" fill-opacity="0.5" stroke="#606060" stroke-width=".5" x="0" y="0" width="60" height="60"/>
                <use id="zoomplus" xlink:href="#zoomPlus" x="17" y="9" onmousedown="handleZoom(evt,'in')"/>
                <use id="zoomminus" xlink:href="#zoomMin" x="42" y="9" onmousedown="handleZoom(evt,'out')"/>
                <use id="reset" xlink:href="#resetDef" x="30" y="36" onmousedown="handleReset()"/>
                <g id="arrowUp" xlink:href="#dirArrow" transform="translate(30 24)" onmousedown="handlePan(0,-1)">
                  <use xlink:href="#rim" fill="#404040">
                        <set attributeName="fill" to="#808080" begin="arrowUp.mouseover" end="arrowUp.mouseout"/>
                  </use>
                  <path fill="none" stroke="white" stroke-width="1.5" d="M0,-3.0v7 M-2.5,-0.5L0,-3.0L2.5,-0.5"/>
                </g>
                <g id="arrowRight" xlink:href="#dirArrow" transform="rotate(90) translate(36 -43)" onmousedown="handlePan(1,0)">
                  <use xlink:href="#rim" fill="#404040">
                        <set attributeName="fill" to="#808080" begin="arrowRight.mouseover" end="arrowRight.mouseout"/>
                  </use>
                  <path fill="none" stroke="white" stroke-width="1.5" d="M0,-3.0v7 M-2.5,-0.5L0,-3.0L2.5,-0.5"/>
                </g>
                <g id="arrowDown" xlink:href="#dirArrow" transform="rotate(180) translate(-30 -48)" onmousedown="handlePan(0,1)">
                  <use xlink:href="#rim" fill="#404040">
                        <set attributeName="fill" to="#808080" begin="arrowDown.mouseover" end="arrowDown.mouseout"/>
                  </use>
                  <path fill="none" stroke="white" stroke-width="1.5" d="M0,-3.0v7 M-2.5,-0.5L0,-3.0L2.5,-0.5"/>
                </g>
                <g id="arrowLeft" xlink:href="#dirArrow" transform="rotate(270) translate(-36 17)" onmousedown="handlePan(-1,0)">
                  <use xlink:href="#rim" fill="#404040">
                        <set attributeName="fill" to="#808080" begin="arrowLeft.mouseover" end="arrowLeft.mouseout"/>
                  </use>
                  <path fill="none" stroke="white" stroke-width="1.5" d="M0,-3.0v7 M-2.5,-0.5L0,-3.0L2.5,-0.5"/>
                </g>
        </g>
        <svg viewBox="0 0 15 15" width="100%" height="30px" preserveAspectRatio="xMaxYMin meet">
         <g id="arrow_out" transform="scale(0.3 0.3)">
          <a xlink:href="ren_8c_ab66e6a45a074bd54643b4c6fba4abfe4_icgraph_org.svg" target="_base">
           <rect id="button" ry="5" rx="5" y="6" x="6" height="38" width="38"
                fill="#f2f5e9" fill-opacity="0.5" stroke="#606060" stroke-width="1.0"/>
           <path id="arrow"
             d="M 11.500037,31.436501 C 11.940474,20.09759 22.043105,11.32322 32.158766,21.979434 L 37.068811,17.246167 C 37.068811,17.246167 37.088388,32 37.088388,32 L 22.160133,31.978069 C 22.160133,31.978069 26.997745,27.140456 26.997745,27.140456 C 18.528582,18.264221 13.291696,25.230495 11.500037,31.436501 z"
             style="fill:#404040;"/>
          </a>
         </g>
        </svg>
</svg>
