<?xml version="1.0" encoding="UTF-8" standalone="no"?>
<!DOCTYPE svg PUBLIC "-//W3C//DTD SVG 1.1//EN"
 "http://www.w3.org/Graphics/SVG/1.1/DTD/svg11.dtd">
<!-- Generated by graphviz version 2.44.1 (20200629.0846)
 -->
<!-- Title: syn_filetype Pages: 1 -->
<svg width="751pt" height="210pt"
 viewBox="0.00 0.00 751.00 209.85" xmlns="http://www.w3.org/2000/svg" xmlns:xlink="http://www.w3.org/1999/xlink">
<g id="graph0" class="graph" transform="scale(1 1) rotate(0) translate(4 205.85)">
<title>syn_filetype</title>
<polygon fill="white" stroke="transparent" points="-4,4 -4,-205.85 747,-205.85 747,4 -4,4"/>
<!-- Node1 -->
<g id="node1" class="node">
<title>Node1</title>
<g id="a_node1"><a xlink:title=" ">
<polygon fill="#bfbfbf" stroke="black" points="0,-49.35 0,-68.35 69,-68.35 69,-49.35 0,-49.35"/>
<text text-anchor="middle" x="34.5" y="-56.35" font-family="Helvetica,sans-Serif" font-size="10.00">syn_filetype</text>
</a>
</g>
</g>
<!-- Node2 -->
<g id="node2" class="node">
<title>Node2</title>
<g id="a_node2"><a xlink:href="conf_8c.html#a1a3b977b82bc19d19926e54e4f9de9ba" target="_top" xlink:title=" ">
<polygon fill="white" stroke="black" points="105,-68.35 105,-87.35 177,-87.35 177,-68.35 105,-68.35"/>
<text text-anchor="middle" x="141" y="-75.35" font-family="Helvetica,sans-Serif" font-size="10.00">conf_filetype</text>
</a>
</g>
</g>
<!-- Node1&#45;&gt;Node2 -->
<g id="edge1" class="edge">
<title>Node1&#45;&gt;Node2</title>
<path fill="none" stroke="midnightblue" d="M69.14,-64.97C77.37,-66.47 86.32,-68.09 94.99,-69.67"/>
<polygon fill="midnightblue" stroke="midnightblue" points="94.52,-73.14 104.99,-71.49 95.77,-66.25 94.52,-73.14"/>
</g>
<!-- Node3 -->
<g id="node3" class="node">
<title>Node3</title>
<g id="a_node3"><a xlink:href="rset_8c.html#a389ec5abca88adc048a058744f2373eb" target="_top" xlink:title=" ">
<polygon fill="white" stroke="black" points="114,-30.35 114,-49.35 168,-49.35 168,-30.35 114,-30.35"/>
<text text-anchor="middle" x="141" y="-37.35" font-family="Helvetica,sans-Serif" font-size="10.00">rset_find</text>
</a>
</g>
</g>
<!-- Node1&#45;&gt;Node3 -->
<g id="edge2" class="edge">
<title>Node1&#45;&gt;Node3</title>
<path fill="none" stroke="midnightblue" d="M69.14,-52.74C80.19,-50.73 92.53,-48.48 103.77,-46.44"/>
<polygon fill="midnightblue" stroke="midnightblue" points="104.5,-49.86 113.71,-44.63 103.25,-42.98 104.5,-49.86"/>
</g>
<!-- Node4 -->
<g id="node4" class="node">
<title>Node4</title>
<g id="a_node4"><a xlink:href="regex_8c.html#aa085ccd05ec25e3f8053850aebc50fe3" target="_top" xlink:title=" ">
<polygon fill="white" stroke="black" points="213,-30.35 213,-49.35 264,-49.35 264,-30.35 213,-30.35"/>
<text text-anchor="middle" x="238.5" y="-37.35" font-family="Helvetica,sans-Serif" font-size="10.00">regexec</text>
</a>
</g>
</g>
<!-- Node3&#45;&gt;Node4 -->
<g id="edge3" class="edge">
<title>Node3&#45;&gt;Node4</title>
<path fill="none" stroke="midnightblue" d="M168.1,-39.85C178.75,-39.85 191.23,-39.85 202.65,-39.85"/>
<polygon fill="midnightblue" stroke="midnightblue" points="202.75,-43.35 212.75,-39.85 202.75,-36.35 202.75,-43.35"/>
</g>
<!-- Node5 -->
<g id="node5" class="node">
<title>Node5</title>
<g id="a_node5"><a xlink:href="regex_8c.html#aa5925e49bd18112bb37421dbde29162a" target="_top" xlink:title=" ">
<polygon fill="white" stroke="black" points="300,-59.35 300,-78.35 371,-78.35 371,-59.35 300,-59.35"/>
<text text-anchor="middle" x="335.5" y="-66.35" font-family="Helvetica,sans-Serif" font-size="10.00">re_recmatch</text>
</a>
</g>
</g>
<!-- Node4&#45;&gt;Node5 -->
<g id="edge4" class="edge">
<title>Node4&#45;&gt;Node5</title>
<path fill="none" stroke="midnightblue" d="M264.46,-47.47C273.37,-50.19 283.65,-53.33 293.54,-56.35"/>
<polygon fill="midnightblue" stroke="midnightblue" points="292.66,-59.74 303.25,-59.31 294.7,-53.04 292.66,-59.74"/>
</g>
<!-- Node11 -->
<g id="node11" class="node">
<title>Node11</title>
<g id="a_node11"><a xlink:href="regex_8c.html#a9a0d6d5f93f1eaba8b63b16903c0952d" target="_top" xlink:title=" ">
<polygon fill="white" stroke="black" points="696.5,-68.35 696.5,-87.35 741.5,-87.35 741.5,-68.35 696.5,-68.35"/>
<text text-anchor="middle" x="719" y="-75.35" font-family="Helvetica,sans-Serif" font-size="10.00">uc_len</text>
</a>
</g>
</g>
<!-- Node4&#45;&gt;Node11 -->
<g id="edge15" class="edge">
<title>Node4&#45;&gt;Node11</title>
<path fill="none" stroke="midnightblue" d="M264.18,-31.61C299.89,-20.43 368.24,-1.85 428,-1.85 428,-1.85 428,-1.85 525,-1.85 585.15,-1.85 604.96,5.56 659,-20.85 677.68,-29.98 694.25,-47.24 705.03,-60.38"/>
<polygon fill="midnightblue" stroke="midnightblue" points="702.32,-62.6 711.25,-68.3 707.83,-58.27 702.32,-62.6"/>
</g>
<!-- Node6 -->
<g id="node6" class="node">
<title>Node6</title>
<g id="a_node6"><a xlink:href="regex_8c.html#a8e35614ddf21d405773327a52a95a73d" target="_top" xlink:title=" ">
<polygon fill="white" stroke="black" points="407,-78.35 407,-97.35 451,-97.35 451,-78.35 407,-78.35"/>
<text text-anchor="middle" x="429" y="-85.35" font-family="Helvetica,sans-Serif" font-size="10.00">re_rec</text>
</a>
</g>
</g>
<!-- Node5&#45;&gt;Node6 -->
<g id="edge5" class="edge">
<title>Node5&#45;&gt;Node6</title>
<path fill="none" stroke="midnightblue" d="M371.09,-76.03C379.56,-77.79 388.57,-79.66 396.87,-81.39"/>
<polygon fill="midnightblue" stroke="midnightblue" points="396.4,-84.86 406.9,-83.47 397.82,-78.01 396.4,-84.86"/>
</g>
<!-- Node7 -->
<g id="node7" class="node">
<title>Node7</title>
<g id="a_node7"><a xlink:href="regex_8c.html#a24fd1fc7457ff4f03fb384f7170ac395" target="_top" xlink:title=" ">
<polygon fill="white" stroke="black" points="487,-87.35 487,-106.35 561,-106.35 561,-87.35 487,-87.35"/>
<text text-anchor="middle" x="524" y="-94.35" font-family="Helvetica,sans-Serif" font-size="10.00">ratom_match</text>
</a>
</g>
</g>
<!-- Node6&#45;&gt;Node7 -->
<g id="edge6" class="edge">
<title>Node6&#45;&gt;Node7</title>
<path fill="none" stroke="midnightblue" d="M451.1,-89.89C458.73,-90.63 467.68,-91.5 476.63,-92.36"/>
<polygon fill="midnightblue" stroke="midnightblue" points="476.36,-95.85 486.65,-93.33 477.03,-88.89 476.36,-95.85"/>
</g>
<!-- Node8 -->
<g id="node8" class="node">
<title>Node8</title>
<g id="a_node8"><a xlink:href="regex_8c.html#aae17ed73e84075718fb04d131d6ca779" target="_top" xlink:title=" ">
<polygon fill="white" stroke="black" points="597,-106.35 597,-125.35 659,-125.35 659,-106.35 597,-106.35"/>
<text text-anchor="middle" x="628" y="-113.35" font-family="Helvetica,sans-Serif" font-size="10.00">brk_match</text>
</a>
</g>
</g>
<!-- Node7&#45;&gt;Node8 -->
<g id="edge7" class="edge">
<title>Node7&#45;&gt;Node8</title>
<path fill="none" stroke="midnightblue" d="M561.25,-103.6C569.55,-105.15 578.43,-106.8 586.89,-108.38"/>
<polygon fill="midnightblue" stroke="midnightblue" points="586.45,-111.86 596.93,-110.25 587.74,-104.98 586.45,-111.86"/>
</g>
<!-- Node10 -->
<g id="node10" class="node">
<title>Node10</title>
<g id="a_node10"><a xlink:href="regex_8c.html#aaf73cdb88048e7f9fd588eb8d5aeb5a3" target="_top" xlink:title=" ">
<polygon fill="white" stroke="black" points="695,-144.35 695,-163.35 743,-163.35 743,-144.35 695,-144.35"/>
<text text-anchor="middle" x="719" y="-151.35" font-family="Helvetica,sans-Serif" font-size="10.00">uc_dec</text>
</a>
</g>
</g>
<!-- Node7&#45;&gt;Node10 -->
<g id="edge13" class="edge">
<title>Node7&#45;&gt;Node10</title>
<path fill="none" stroke="midnightblue" d="M539.53,-106.37C553.63,-115.15 575.94,-127.86 597,-134.85 625.65,-144.37 659.75,-149.17 684.43,-151.57"/>
<polygon fill="midnightblue" stroke="midnightblue" points="684.45,-155.08 694.72,-152.48 685.07,-148.11 684.45,-155.08"/>
</g>
<!-- Node7&#45;&gt;Node11 -->
<g id="edge14" class="edge">
<title>Node7&#45;&gt;Node11</title>
<path fill="none" stroke="midnightblue" d="M561.3,-93.28C597.32,-89.73 651.97,-84.35 686.3,-80.97"/>
<polygon fill="midnightblue" stroke="midnightblue" points="686.64,-84.46 696.25,-79.99 685.96,-77.49 686.64,-84.46"/>
</g>
<!-- Node12 -->
<g id="node12" class="node">
<title>Node12</title>
<g id="a_node12"><a xlink:href="regex_8c.html#a35ad3fd0dbb795e6f30404ce86a7be5b" target="_top" xlink:title=" ">
<polygon fill="white" stroke="black" points="605.5,-30.35 605.5,-49.35 650.5,-49.35 650.5,-30.35 605.5,-30.35"/>
<text text-anchor="middle" x="628" y="-37.35" font-family="Helvetica,sans-Serif" font-size="10.00">isword</text>
</a>
</g>
</g>
<!-- Node7&#45;&gt;Node12 -->
<g id="edge11" class="edge">
<title>Node7&#45;&gt;Node12</title>
<path fill="none" stroke="midnightblue" d="M542.3,-87.18C558.45,-78.16 582.74,-64.58 601.18,-54.28"/>
<polygon fill="midnightblue" stroke="midnightblue" points="602.93,-57.31 609.95,-49.38 599.52,-51.2 602.93,-57.31"/>
</g>
<!-- Node13 -->
<g id="node13" class="node">
<title>Node13</title>
<g id="a_node13"><a xlink:href="regex_8c.html#ade3e10606e6e8866e6151fe8440d6101" target="_top" xlink:title=" ">
<polygon fill="white" stroke="black" points="604,-182.35 604,-201.35 652,-201.35 652,-182.35 604,-182.35"/>
<text text-anchor="middle" x="628" y="-189.35" font-family="Helvetica,sans-Serif" font-size="10.00">uc_beg</text>
</a>
</g>
</g>
<!-- Node7&#45;&gt;Node13 -->
<g id="edge12" class="edge">
<title>Node7&#45;&gt;Node13</title>
<path fill="none" stroke="midnightblue" d="M534.02,-106.36C547.38,-120.29 573.38,-146.86 597,-167.85 600.05,-170.57 603.36,-173.35 606.63,-176.03"/>
<polygon fill="midnightblue" stroke="midnightblue" points="604.51,-178.81 614.5,-182.32 608.88,-173.34 604.51,-178.81"/>
</g>
<!-- Node9 -->
<g id="node9" class="node">
<title>Node9</title>
<g id="a_node9"><a xlink:href="regex_8c.html#acc18ff8d2687611a9e221b3329b02413" target="_top" xlink:title=" ">
<polygon fill="white" stroke="black" points="695,-106.35 695,-125.35 743,-125.35 743,-106.35 695,-106.35"/>
<text text-anchor="middle" x="719" y="-113.35" font-family="Helvetica,sans-Serif" font-size="10.00">brk_len</text>
</a>
</g>
</g>
<!-- Node8&#45;&gt;Node9 -->
<g id="edge8" class="edge">
<title>Node8&#45;&gt;Node9</title>
<path fill="none" stroke="midnightblue" d="M659.13,-115.85C667.36,-115.85 676.32,-115.85 684.71,-115.85"/>
<polygon fill="midnightblue" stroke="midnightblue" points="684.94,-119.35 694.94,-115.85 684.94,-112.35 684.94,-119.35"/>
</g>
<!-- Node8&#45;&gt;Node10 -->
<g id="edge9" class="edge">
<title>Node8&#45;&gt;Node10</title>
<path fill="none" stroke="midnightblue" d="M651.46,-125.44C662,-129.94 674.75,-135.38 686.25,-140.3"/>
<polygon fill="midnightblue" stroke="midnightblue" points="684.98,-143.56 695.55,-144.27 687.73,-137.12 684.98,-143.56"/>
</g>
<!-- Node8&#45;&gt;Node11 -->
<g id="edge10" class="edge">
<title>Node8&#45;&gt;Node11</title>
<path fill="none" stroke="midnightblue" d="M651.46,-106.26C662.24,-101.66 675.33,-96.07 687.04,-91.07"/>
<polygon fill="midnightblue" stroke="midnightblue" points="688.65,-94.19 696.47,-87.04 685.9,-87.75 688.65,-94.19"/>
</g>
</g>
</svg>
