<?xml version="1.0" encoding="UTF-8" standalone="no"?>
<!DOCTYPE svg PUBLIC "-//W3C//DTD SVG 1.1//EN"
 "http://www.w3.org/Graphics/SVG/1.1/DTD/svg11.dtd">
<!-- Generated by graphviz version 2.44.1 (20200629.0846)
 -->
<!-- Title: term_commit Pages: 1 -->
<svg width="281pt" height="104pt"
 viewBox="0.00 0.00 281.00 104.00" xmlns="http://www.w3.org/2000/svg" xmlns:xlink="http://www.w3.org/1999/xlink">
<g id="graph0" class="graph" transform="scale(1 1) rotate(0) translate(4 100)">
<title>term_commit</title>
<polygon fill="white" stroke="transparent" points="-4,4 -4,-100 277,-100 277,4 -4,4"/>
<!-- Node1 -->
<g id="node1" class="node">
<title>Node1</title>
<g id="a_node1"><a xlink:title=" ">
<polygon fill="#bfbfbf" stroke="black" points="0,-38.5 0,-57.5 74,-57.5 74,-38.5 0,-38.5"/>
<text text-anchor="middle" x="37" y="-45.5" font-family="Helvetica,sans-Serif" font-size="10.00">term_commit</text>
</a>
</g>
</g>
<!-- Node2 -->
<g id="node2" class="node">
<title>Node2</title>
<g id="a_node2"><a xlink:href="sbuf_8c.html#a4e56760893d5a6797626743840c9adf2" target="_top" xlink:title=" ">
<polygon fill="white" stroke="black" points="111.5,-76.5 111.5,-95.5 165.5,-95.5 165.5,-76.5 111.5,-76.5"/>
<text text-anchor="middle" x="138.5" y="-83.5" font-family="Helvetica,sans-Serif" font-size="10.00">sbuf_buf</text>
</a>
</g>
</g>
<!-- Node1&#45;&gt;Node2 -->
<g id="edge1" class="edge">
<title>Node1&#45;&gt;Node2</title>
<path fill="none" stroke="midnightblue" d="M63.11,-57.59C75.13,-62.18 89.71,-67.75 102.78,-72.74"/>
<polygon fill="midnightblue" stroke="midnightblue" points="101.81,-76.12 112.4,-76.41 104.31,-69.58 101.81,-76.12"/>
</g>
<!-- Node4 -->
<g id="node4" class="node">
<title>Node4</title>
<g id="a_node4"><a xlink:href="sbuf_8c.html#a8c1a89868b1999663effb78b4f3fab32" target="_top" xlink:title=" ">
<polygon fill="white" stroke="black" points="110,-38.5 110,-57.5 167,-57.5 167,-38.5 110,-38.5"/>
<text text-anchor="middle" x="138.5" y="-45.5" font-family="Helvetica,sans-Serif" font-size="10.00">sbuf_free</text>
</a>
</g>
</g>
<!-- Node1&#45;&gt;Node4 -->
<g id="edge3" class="edge">
<title>Node1&#45;&gt;Node4</title>
<path fill="none" stroke="midnightblue" d="M74.2,-48C82.49,-48 91.31,-48 99.66,-48"/>
<polygon fill="midnightblue" stroke="midnightblue" points="99.91,-51.5 109.91,-48 99.91,-44.5 99.91,-51.5"/>
</g>
<!-- Node5 -->
<g id="node5" class="node">
<title>Node5</title>
<g id="a_node5"><a xlink:href="sbuf_8c.html#af4ad9608dfc956bbedc19df5c8256fc4" target="_top" xlink:title=" ">
<polygon fill="white" stroke="black" points="112,-0.5 112,-19.5 165,-19.5 165,-0.5 112,-0.5"/>
<text text-anchor="middle" x="138.5" y="-7.5" font-family="Helvetica,sans-Serif" font-size="10.00">sbuf_len</text>
</a>
</g>
</g>
<!-- Node1&#45;&gt;Node5 -->
<g id="edge4" class="edge">
<title>Node1&#45;&gt;Node5</title>
<path fill="none" stroke="midnightblue" d="M63.11,-38.41C75.13,-33.82 89.71,-28.25 102.78,-23.26"/>
<polygon fill="midnightblue" stroke="midnightblue" points="104.31,-26.42 112.4,-19.59 101.81,-19.88 104.31,-26.42"/>
</g>
<!-- Node3 -->
<g id="node3" class="node">
<title>Node3</title>
<g id="a_node3"><a xlink:href="sbuf_8c.html#a4ad75f3948c0340c342a3ea3eb63a6e6" target="_top" xlink:title=" ">
<polygon fill="white" stroke="black" points="203,-76.5 203,-95.5 273,-95.5 273,-76.5 203,-76.5"/>
<text text-anchor="middle" x="238" y="-83.5" font-family="Helvetica,sans-Serif" font-size="10.00">sbuf_extend</text>
</a>
</g>
</g>
<!-- Node2&#45;&gt;Node3 -->
<g id="edge2" class="edge">
<title>Node2&#45;&gt;Node3</title>
<path fill="none" stroke="midnightblue" d="M165.63,-86C173.91,-86 183.3,-86 192.5,-86"/>
<polygon fill="midnightblue" stroke="midnightblue" points="192.72,-89.5 202.72,-86 192.72,-82.5 192.72,-89.5"/>
</g>
</g>
</svg>
