<?xml version="1.0" encoding="UTF-8" standalone="no"?>
<!DOCTYPE svg PUBLIC "-//W3C//DTD SVG 1.1//EN"
 "http://www.w3.org/Graphics/SVG/1.1/DTD/svg11.dtd">
<!-- Generated by graphviz version 2.44.1 (20200629.0846)
 -->
<!-- Title: term_pos Pages: 1 -->
<svg width="1175pt" height="936pt"
 viewBox="0.00 0.00 1175.00 935.54" xmlns="http://www.w3.org/2000/svg" xmlns:xlink="http://www.w3.org/1999/xlink">
<g id="graph0" class="graph" transform="scale(1 1) rotate(0) translate(4 931.54)">
<title>term_pos</title>
<polygon fill="white" stroke="transparent" points="-4,4 -4,-931.54 1171,-931.54 1171,4 -4,4"/>
<!-- Node1 -->
<g id="node1" class="node">
<title>Node1</title>
<g id="a_node1"><a xlink:title=" ">
<polygon fill="#bfbfbf" stroke="black" points="1110,-234.24 1110,-253.24 1167,-253.24 1167,-234.24 1110,-234.24"/>
<text text-anchor="middle" x="1138.5" y="-241.24" font-family="Helvetica,sans-Serif" font-size="10.00">term_pos</text>
</a>
</g>
</g>
<!-- Node2 -->
<g id="node2" class="node">
<title>Node2</title>
<g id="a_node2"><a xlink:href="vi_8h.html#a4356f8fc86e72c470f35f0a5e4385576" target="_top" xlink:title=" ">
<polygon fill="white" stroke="black" points="1011.5,-448.24 1011.5,-467.24 1064.5,-467.24 1064.5,-448.24 1011.5,-448.24"/>
<text text-anchor="middle" x="1038" y="-455.24" font-family="Helvetica,sans-Serif" font-size="10.00">led_print</text>
</a>
</g>
</g>
<!-- Node1&#45;&gt;Node2 -->
<g id="edge1" class="edge">
<title>Node1&#45;&gt;Node2</title>
<path fill="none" stroke="midnightblue" d="M1135.13,-263.36C1129.84,-300.1 1114.23,-380.39 1074,-433.74 1069.65,-439.5 1063.5,-444.37 1057.57,-448.18"/>
<polygon fill="midnightblue" stroke="midnightblue" points="1138.6,-263.8 1136.45,-253.43 1131.66,-262.88 1138.6,-263.8"/>
</g>
<!-- Node13 -->
<g id="node13" class="node">
<title>Node13</title>
<g id="a_node13"><a xlink:href="vi_8c.html#a8d808e0f3453afe6600673ee1ea5f828" target="_top" xlink:title=" ">
<polygon fill="white" stroke="black" points="82,-201.24 82,-220.24 111,-220.24 111,-201.24 82,-201.24"/>
<text text-anchor="middle" x="96.5" y="-208.24" font-family="Helvetica,sans-Serif" font-size="10.00">vi</text>
</a>
</g>
</g>
<!-- Node1&#45;&gt;Node13 -->
<g id="edge78" class="edge">
<title>Node1&#45;&gt;Node13</title>
<path fill="none" stroke="midnightblue" d="M1134.77,-224.09C1129.11,-190.06 1113.21,-119.6 1074,-75.74 1025.91,-21.94 1001.65,-1.74 929.5,-1.74 929.5,-1.74 929.5,-1.74 294.5,-1.74 230.99,-1.74 201.97,10.02 155,-32.74 104.09,-79.08 98.07,-170.74 97.5,-200.88"/>
<polygon fill="midnightblue" stroke="midnightblue" points="1131.34,-224.79 1136.31,-234.14 1138.25,-223.73 1131.34,-224.79"/>
</g>
<!-- Node27 -->
<g id="node27" class="node">
<title>Node27</title>
<g id="a_node27"><a xlink:href="led_8c.html#ae938cbff964c214e7e4f6aff4d5ce0f7" target="_top" xlink:title=" ">
<polygon fill="white" stroke="black" points="891,-258.24 891,-277.24 966,-277.24 966,-258.24 891,-258.24"/>
<text text-anchor="middle" x="928.5" y="-265.24" font-family="Helvetica,sans-Serif" font-size="10.00">led_printparts</text>
</a>
</g>
</g>
<!-- Node1&#45;&gt;Node27 -->
<g id="edge77" class="edge">
<title>Node1&#45;&gt;Node27</title>
<path fill="none" stroke="midnightblue" d="M1099.76,-248.09C1061.89,-252.46 1003.92,-259.15 966.36,-263.48"/>
<polygon fill="midnightblue" stroke="midnightblue" points="1100.35,-251.55 1109.88,-246.92 1099.54,-244.59 1100.35,-251.55"/>
</g>
<!-- Node38 -->
<g id="node38" class="node">
<title>Node38</title>
<g id="a_node38"><a xlink:href="vi_8c.html#a57965473297aad4c4333fdd3897c11f3" target="_top" xlink:title=" ">
<polygon fill="white" stroke="black" points="457,-182.24 457,-201.24 516,-201.24 516,-182.24 457,-182.24"/>
<text text-anchor="middle" x="486.5" y="-189.24" font-family="Helvetica,sans-Serif" font-size="10.00">vi_prompt</text>
</a>
</g>
</g>
<!-- Node1&#45;&gt;Node38 -->
<g id="edge84" class="edge">
<title>Node1&#45;&gt;Node38</title>
<path fill="none" stroke="midnightblue" d="M1100.33,-231.28C1059.08,-218.58 990.31,-200.74 929.5,-200.74 929.5,-200.74 929.5,-200.74 710,-200.74 640.41,-200.74 558.68,-196.29 516.29,-193.64"/>
<polygon fill="midnightblue" stroke="midnightblue" points="1099.36,-234.64 1109.95,-234.3 1101.46,-227.96 1099.36,-234.64"/>
</g>
<!-- Node43 -->
<g id="node43" class="node">
<title>Node43</title>
<g id="a_node43"><a xlink:href="vi_8c.html#a2b620fa68325e1b708f07af90f50c3d8" target="_top" xlink:title=" ">
<polygon fill="white" stroke="black" points="778,-30.24 778,-49.24 852,-49.24 852,-30.24 778,-30.24"/>
<text text-anchor="middle" x="815" y="-37.24" font-family="Helvetica,sans-Serif" font-size="10.00">vi_drawagain</text>
</a>
</g>
</g>
<!-- Node1&#45;&gt;Node43 -->
<g id="edge79" class="edge">
<title>Node1&#45;&gt;Node43</title>
<path fill="none" stroke="midnightblue" d="M1132.52,-224.47C1124.6,-197.62 1106.6,-149.16 1074,-121.74 1008.72,-66.83 906.32,-48.56 852.25,-42.58"/>
<polygon fill="midnightblue" stroke="midnightblue" points="1129.18,-225.53 1135.23,-234.23 1135.93,-223.65 1129.18,-225.53"/>
</g>
<!-- Node44 -->
<g id="node44" class="node">
<title>Node44</title>
<g id="a_node44"><a xlink:href="vi_8c.html#a9896bc9688f6102408f66aa0ad7e64f9" target="_top" xlink:title=" ">
<polygon fill="white" stroke="black" points="775,-410.24 775,-429.24 855,-429.24 855,-410.24 775,-410.24"/>
<text text-anchor="middle" x="815" y="-417.24" font-family="Helvetica,sans-Serif" font-size="10.00">vi_drawupdate</text>
</a>
</g>
</g>
<!-- Node1&#45;&gt;Node44 -->
<g id="edge83" class="edge">
<title>Node1&#45;&gt;Node44</title>
<path fill="none" stroke="midnightblue" d="M1128.37,-262.42C1117.59,-283.04 1098.04,-316.28 1074,-338.74 1033.55,-376.52 1018.48,-383.14 966,-400.74 929.66,-412.92 885.99,-417.39 855.16,-418.98"/>
<polygon fill="midnightblue" stroke="midnightblue" points="1131.54,-263.92 1132.94,-253.42 1125.29,-260.75 1131.54,-263.92"/>
</g>
<!-- Node45 -->
<g id="node45" class="node">
<title>Node45</title>
<g id="a_node45"><a xlink:href="vi_8h.html#a7838c5ed4623338b3fa9b2c6da4485eb" target="_top" xlink:title=" ">
<polygon fill="white" stroke="black" points="1002,-131.24 1002,-150.24 1074,-150.24 1074,-131.24 1002,-131.24"/>
<text text-anchor="middle" x="1038" y="-138.24" font-family="Helvetica,sans-Serif" font-size="10.00">led_printmsg</text>
</a>
</g>
</g>
<!-- Node1&#45;&gt;Node45 -->
<g id="edge72" class="edge">
<title>Node1&#45;&gt;Node45</title>
<path fill="none" stroke="midnightblue" d="M1121.49,-227C1100.73,-205.28 1065.18,-168.11 1048.36,-150.52"/>
<polygon fill="midnightblue" stroke="midnightblue" points="1118.97,-229.42 1128.41,-234.23 1124.03,-224.58 1118.97,-229.42"/>
</g>
<!-- Node47 -->
<g id="node47" class="node">
<title>Node47</title>
<g id="a_node47"><a xlink:href="vi_8c.html#ae6fe1e8c054675948724bf42dba686c0" target="_top" xlink:title=" ">
<polygon fill="white" stroke="black" points="569,-315.24 569,-334.24 631,-334.24 631,-315.24 569,-315.24"/>
<text text-anchor="middle" x="600" y="-322.24" font-family="Helvetica,sans-Serif" font-size="10.00">vi_drawrm</text>
</a>
</g>
</g>
<!-- Node1&#45;&gt;Node47 -->
<g id="edge80" class="edge">
<title>Node1&#45;&gt;Node47</title>
<path fill="none" stroke="midnightblue" d="M1115.1,-258.86C1078.14,-282.3 1001.31,-324.74 929.5,-324.74 929.5,-324.74 929.5,-324.74 814,-324.74 748.92,-324.74 672.65,-324.74 631.33,-324.74"/>
<polygon fill="midnightblue" stroke="midnightblue" points="1117.12,-261.72 1123.61,-253.35 1113.31,-255.85 1117.12,-261.72"/>
</g>
<!-- Node3 -->
<g id="node3" class="node">
<title>Node3</title>
<g id="a_node3"><a xlink:href="vi_8h.html#a075721180ea187be49c7164dcff34122" target="_top" xlink:title=" ">
<polygon fill="white" stroke="black" points="789.5,-714.24 789.5,-733.24 840.5,-733.24 840.5,-714.24 789.5,-714.24"/>
<text text-anchor="middle" x="815" y="-721.24" font-family="Helvetica,sans-Serif" font-size="10.00">ex_print</text>
</a>
</g>
</g>
<!-- Node2&#45;&gt;Node3 -->
<g id="edge2" class="edge">
<title>Node2&#45;&gt;Node3</title>
<path fill="none" stroke="midnightblue" d="M1027.19,-476.18C1014.45,-499.43 990.89,-540.18 966,-571.74 919.62,-630.54 853.04,-691.18 827.02,-714.15"/>
<polygon fill="midnightblue" stroke="midnightblue" points="1030.28,-477.83 1031.96,-467.36 1024.12,-474.5 1030.28,-477.83"/>
</g>
<!-- Node23 -->
<g id="node23" class="node">
<title>Node23</title>
<g id="a_node23"><a xlink:href="vi_8h.html#ad27b2fbb84601eb4c5af3b1f28feac75" target="_top" xlink:title=" ">
<polygon fill="white" stroke="black" points="900.5,-543.24 900.5,-562.24 956.5,-562.24 956.5,-543.24 900.5,-543.24"/>
<text text-anchor="middle" x="928.5" y="-550.24" font-family="Helvetica,sans-Serif" font-size="10.00">ex_show</text>
</a>
</g>
</g>
<!-- Node2&#45;&gt;Node23 -->
<g id="edge29" class="edge">
<title>Node2&#45;&gt;Node23</title>
<path fill="none" stroke="midnightblue" d="M1018.32,-474.24C995.79,-494.15 958.67,-526.96 940.38,-543.12"/>
<polygon fill="midnightblue" stroke="midnightblue" points="1020.72,-476.79 1025.9,-467.54 1016.09,-471.54 1020.72,-476.79"/>
</g>
<!-- Node2&#45;&gt;Node27 -->
<g id="edge42" class="edge">
<title>Node2&#45;&gt;Node27</title>
<path fill="none" stroke="midnightblue" d="M1026.5,-439.17C1004.08,-399.56 952.22,-307.89 935.1,-277.63"/>
<polygon fill="midnightblue" stroke="midnightblue" points="1023.55,-441.07 1031.52,-448.05 1029.64,-437.63 1023.55,-441.07"/>
</g>
<!-- Node42 -->
<g id="node42" class="node">
<title>Node42</title>
<g id="a_node42"><a xlink:href="vi_8c.html#af48ebb44cac26d2c52f0ada762be5bf6" target="_top" xlink:title=" ">
<polygon fill="white" stroke="black" points="895.5,-372.24 895.5,-391.24 961.5,-391.24 961.5,-372.24 895.5,-372.24"/>
<text text-anchor="middle" x="928.5" y="-379.24" font-family="Helvetica,sans-Serif" font-size="10.00">vi_drawrow</text>
</a>
</g>
</g>
<!-- Node2&#45;&gt;Node42 -->
<g id="edge66" class="edge">
<title>Node2&#45;&gt;Node42</title>
<path fill="none" stroke="midnightblue" d="M1015.13,-442.27C993.51,-426.99 961.12,-404.09 943,-391.28"/>
<polygon fill="midnightblue" stroke="midnightblue" points="1013.2,-445.2 1023.39,-448.11 1017.24,-439.48 1013.2,-445.2"/>
</g>
<!-- Node4 -->
<g id="node4" class="node">
<title>Node4</title>
<g id="a_node4"><a xlink:href="ex_8c.html#a86b4adba0c96621f01383b9bacba4a01" target="_top" xlink:title=" ">
<polygon fill="white" stroke="black" points="683,-752.24 683,-771.24 739,-771.24 739,-752.24 683,-752.24"/>
<text text-anchor="middle" x="711" y="-759.24" font-family="Helvetica,sans-Serif" font-size="10.00">ec_cmap</text>
</a>
</g>
</g>
<!-- Node3&#45;&gt;Node4 -->
<g id="edge3" class="edge">
<title>Node3&#45;&gt;Node4</title>
<path fill="none" stroke="midnightblue" d="M779.66,-736.53C765.88,-741.66 750.28,-747.48 737.53,-752.23"/>
<polygon fill="midnightblue" stroke="midnightblue" points="781.16,-739.71 789.31,-732.93 778.72,-733.15 781.16,-739.71"/>
</g>
<!-- Node5 -->
<g id="node5" class="node">
<title>Node5</title>
<g id="a_node5"><a xlink:href="ex_8c.html#adcd83f163f659bd2596bcfc25d74bde9" target="_top" xlink:title=" ">
<polygon fill="white" stroke="black" points="460,-619.24 460,-638.24 513,-638.24 513,-619.24 460,-619.24"/>
<text text-anchor="middle" x="486.5" y="-626.24" font-family="Helvetica,sans-Serif" font-size="10.00">ec_exec</text>
</a>
</g>
</g>
<!-- Node3&#45;&gt;Node5 -->
<g id="edge4" class="edge">
<title>Node3&#45;&gt;Node5</title>
<path fill="none" stroke="midnightblue" d="M779.11,-718.97C752.51,-714.94 715.11,-708.44 683,-699.74 618.87,-682.35 545.93,-653.28 509.98,-638.3"/>
<polygon fill="midnightblue" stroke="midnightblue" points="778.69,-722.45 789.1,-720.44 779.71,-715.52 778.69,-722.45"/>
</g>
<!-- Node14 -->
<g id="node14" class="node">
<title>Node14</title>
<g id="a_node14"><a xlink:href="ex_8c.html#a96a40531d1096a618d29639f2e42710b" target="_top" xlink:title=" ">
<polygon fill="white" stroke="black" points="692,-828.24 692,-847.24 730,-847.24 730,-828.24 692,-828.24"/>
<text text-anchor="middle" x="711" y="-835.24" font-family="Helvetica,sans-Serif" font-size="10.00">ec_ft</text>
</a>
</g>
</g>
<!-- Node3&#45;&gt;Node14 -->
<g id="edge16" class="edge">
<title>Node3&#45;&gt;Node14</title>
<path fill="none" stroke="midnightblue" d="M802.04,-741.91C788.28,-762.03 764.3,-794.8 739,-818.74 735.42,-822.12 731.2,-825.38 727.17,-828.21"/>
<polygon fill="midnightblue" stroke="midnightblue" points="805.1,-743.63 807.78,-733.38 799.29,-739.72 805.1,-743.63"/>
</g>
<!-- Node15 -->
<g id="node15" class="node">
<title>Node15</title>
<g id="a_node15"><a xlink:href="ex_8c.html#a1d45a70b724f4cccae2ab746c711ebb1" target="_top" xlink:title=" ">
<polygon fill="white" stroke="black" points="684.5,-790.24 684.5,-809.24 737.5,-809.24 737.5,-790.24 684.5,-790.24"/>
<text text-anchor="middle" x="711" y="-797.24" font-family="Helvetica,sans-Serif" font-size="10.00">ec_lnum</text>
</a>
</g>
</g>
<!-- Node3&#45;&gt;Node15 -->
<g id="edge17" class="edge">
<title>Node3&#45;&gt;Node15</title>
<path fill="none" stroke="midnightblue" d="M793.55,-739.6C778.55,-751.15 757.65,-767.1 739,-780.74 734.74,-783.85 730.06,-787.18 725.8,-790.17"/>
<polygon fill="midnightblue" stroke="midnightblue" points="795.86,-742.24 801.63,-733.36 791.58,-736.7 795.86,-742.24"/>
</g>
<!-- Node16 -->
<g id="node16" class="node">
<title>Node16</title>
<g id="a_node16"><a xlink:href="ex_8c.html#aa69f426ff9728078fbb36f448c624a90" target="_top" xlink:title=" ">
<polygon fill="white" stroke="black" points="458.5,-562.24 458.5,-581.24 514.5,-581.24 514.5,-562.24 458.5,-562.24"/>
<text text-anchor="middle" x="486.5" y="-569.24" font-family="Helvetica,sans-Serif" font-size="10.00">ec_make</text>
</a>
</g>
</g>
<!-- Node3&#45;&gt;Node16 -->
<g id="edge18" class="edge">
<title>Node3&#45;&gt;Node16</title>
<path fill="none" stroke="midnightblue" d="M784.23,-709.88C718.76,-679.4 563.68,-607.2 507.92,-581.24"/>
<polygon fill="midnightblue" stroke="midnightblue" points="783.03,-713.18 793.58,-714.23 785.99,-706.83 783.03,-713.18"/>
</g>
<!-- Node17 -->
<g id="node17" class="node">
<title>Node17</title>
<g id="a_node17"><a xlink:href="ex_8c.html#ad2c1a9505aa3097bac242b47a367f11d" target="_top" xlink:title=" ">
<polygon fill="white" stroke="black" points="685.5,-866.24 685.5,-885.24 736.5,-885.24 736.5,-866.24 685.5,-866.24"/>
<text text-anchor="middle" x="711" y="-873.24" font-family="Helvetica,sans-Serif" font-size="10.00">ec_print</text>
</a>
</g>
</g>
<!-- Node3&#45;&gt;Node17 -->
<g id="edge19" class="edge">
<title>Node3&#45;&gt;Node17</title>
<path fill="none" stroke="midnightblue" d="M806.41,-742.95C794.88,-770.43 770.88,-821.51 739,-856.74 735.85,-860.22 731.94,-863.42 728.09,-866.17"/>
<polygon fill="midnightblue" stroke="midnightblue" points="809.79,-743.93 810.33,-733.35 803.31,-741.28 809.79,-743.93"/>
</g>
<!-- Node19 -->
<g id="node19" class="node">
<title>Node19</title>
<g id="a_node19"><a xlink:href="ex_8c.html#a057b67e2d4f23df3ad50a9d3ec86125b" target="_top" xlink:title=" ">
<polygon fill="white" stroke="black" points="684.5,-524.24 684.5,-543.24 737.5,-543.24 737.5,-524.24 684.5,-524.24"/>
<text text-anchor="middle" x="711" y="-531.24" font-family="Helvetica,sans-Serif" font-size="10.00">ec_write</text>
</a>
</g>
</g>
<!-- Node3&#45;&gt;Node19 -->
<g id="edge21" class="edge">
<title>Node3&#45;&gt;Node19</title>
<path fill="none" stroke="midnightblue" d="M804.03,-705.17C782.77,-665.56 733.56,-573.89 717.31,-543.63"/>
<polygon fill="midnightblue" stroke="midnightblue" points="800.99,-706.9 808.8,-714.05 807.16,-703.59 800.99,-706.9"/>
</g>
<!-- Node6 -->
<g id="node6" class="node">
<title>Node6</title>
<g id="a_node6"><a xlink:href="ex_8c.html#a7d848d20211b2e1c868dde98ec5dfae9" target="_top" xlink:title=" ">
<polygon fill="white" stroke="black" points="367,-534.24 367,-553.24 414,-553.24 414,-534.24 367,-534.24"/>
<text text-anchor="middle" x="390.5" y="-541.24" font-family="Helvetica,sans-Serif" font-size="10.00">ex_line</text>
</a>
</g>
</g>
<!-- Node5&#45;&gt;Node6 -->
<g id="edge5" class="edge">
<title>Node5&#45;&gt;Node6</title>
<path fill="none" stroke="midnightblue" d="M467.13,-612.13C447.78,-594.62 417.95,-567.65 402.16,-553.37"/>
<polygon fill="midnightblue" stroke="midnightblue" points="464.95,-614.87 474.72,-618.99 469.65,-609.68 464.95,-614.87"/>
</g>
<!-- Node7 -->
<g id="node7" class="node">
<title>Node7</title>
<g id="a_node7"><a xlink:href="ex_8c.html#ab15ebfef933256d9741128e2ddf3f9b5" target="_top" xlink:title=" ">
<polygon fill="white" stroke="black" points="269,-496.24 269,-515.24 322,-515.24 322,-496.24 269,-496.24"/>
<text text-anchor="middle" x="295.5" y="-503.24" font-family="Helvetica,sans-Serif" font-size="10.00">ex_exec</text>
</a>
</g>
</g>
<!-- Node6&#45;&gt;Node7 -->
<g id="edge6" class="edge">
<title>Node6&#45;&gt;Node7</title>
<path fill="none" stroke="midnightblue" d="M357.46,-530.64C345.08,-525.58 331.17,-519.9 319.78,-515.25"/>
<polygon fill="midnightblue" stroke="midnightblue" points="356.41,-533.99 366.99,-534.54 359.05,-527.51 356.41,-533.99"/>
</g>
<!-- Node8 -->
<g id="node8" class="node">
<title>Node8</title>
<g id="a_node8"><a xlink:href="ex_8c.html#a70c571bdde329a65e216c19b4aeaa628" target="_top" xlink:title=" ">
<polygon fill="white" stroke="black" points="167.5,-515.24 167.5,-534.24 217.5,-534.24 217.5,-515.24 167.5,-515.24"/>
<text text-anchor="middle" x="192.5" y="-522.24" font-family="Helvetica,sans-Serif" font-size="10.00">ec_glob</text>
</a>
</g>
</g>
<!-- Node7&#45;&gt;Node8 -->
<g id="edge7" class="edge">
<title>Node7&#45;&gt;Node8</title>
<path fill="none" stroke="midnightblue" d="M258.76,-512.46C245.2,-515.01 230.08,-517.86 217.81,-520.16"/>
<polygon fill="midnightblue" stroke="midnightblue" points="259.57,-515.87 268.75,-510.58 258.28,-508.99 259.57,-515.87"/>
</g>
<!-- Node9 -->
<g id="node9" class="node">
<title>Node9</title>
<g id="a_node9"><a xlink:href="vi_8h.html#aa75c73cccb4878ec06ea5bf5b1b02295" target="_top" xlink:title=" ">
<polygon fill="white" stroke="black" points="155,-448.24 155,-467.24 230,-467.24 230,-448.24 155,-448.24"/>
<text text-anchor="middle" x="192.5" y="-455.24" font-family="Helvetica,sans-Serif" font-size="10.00">ex_command</text>
</a>
</g>
</g>
<!-- Node7&#45;&gt;Node9 -->
<g id="edge9" class="edge">
<title>Node7&#45;&gt;Node9</title>
<path fill="none" stroke="midnightblue" d="M264.83,-491.63C248.32,-483.79 228.22,-474.23 213.56,-467.27"/>
<polygon fill="midnightblue" stroke="midnightblue" points="263.53,-494.89 274.06,-496.02 266.53,-488.57 263.53,-494.89"/>
</g>
<!-- Node8&#45;&gt;Node6 -->
<g id="edge8" class="edge">
<title>Node8&#45;&gt;Node6</title>
<path fill="none" stroke="midnightblue" d="M227.81,-528.06C267.7,-531.93 332.43,-538.2 366.63,-541.52"/>
<polygon fill="midnightblue" stroke="midnightblue" points="228.04,-524.57 217.75,-527.09 227.37,-531.54 228.04,-524.57"/>
</g>
<!-- Node10 -->
<g id="node10" class="node">
<title>Node10</title>
<g id="a_node10"><a xlink:href="vi_8h.html#ac395e51f25330a6e6033b6d0d22b2076" target="_top" xlink:title=" ">
<polygon fill="white" stroke="black" points="82,-372.24 82,-391.24 111,-391.24 111,-372.24 82,-372.24"/>
<text text-anchor="middle" x="96.5" y="-379.24" font-family="Helvetica,sans-Serif" font-size="10.00">ex</text>
</a>
</g>
</g>
<!-- Node9&#45;&gt;Node10 -->
<g id="edge10" class="edge">
<title>Node9&#45;&gt;Node10</title>
<path fill="none" stroke="midnightblue" d="M167.44,-442.67C163.21,-439.81 158.92,-436.77 155,-433.74 137.33,-420.07 118.4,-402.26 107.27,-391.43"/>
<polygon fill="midnightblue" stroke="midnightblue" points="165.58,-445.64 175.86,-448.2 169.42,-439.79 165.58,-445.64"/>
</g>
<!-- Node12 -->
<g id="node12" class="node">
<title>Node12</title>
<g id="a_node12"><a xlink:href="vi_8h.html#abe53b5c10f94f20cd5ed024371615fa1" target="_top" xlink:title=" ">
<polygon fill="white" stroke="black" points="74,-448.24 74,-467.24 119,-467.24 119,-448.24 74,-448.24"/>
<text text-anchor="middle" x="96.5" y="-455.24" font-family="Helvetica,sans-Serif" font-size="10.00">ex_init</text>
</a>
</g>
</g>
<!-- Node9&#45;&gt;Node12 -->
<g id="edge12" class="edge">
<title>Node9&#45;&gt;Node12</title>
<path fill="none" stroke="midnightblue" d="M144.85,-457.74C135.89,-457.74 126.91,-457.74 119.21,-457.74"/>
<polygon fill="midnightblue" stroke="midnightblue" points="144.89,-461.24 154.89,-457.74 144.89,-454.24 144.89,-461.24"/>
</g>
<!-- Node9&#45;&gt;Node13 -->
<g id="edge14" class="edge">
<title>Node9&#45;&gt;Node13</title>
<path fill="none" stroke="midnightblue" d="M162.91,-442.11C159.94,-439.61 157.2,-436.82 155,-433.74 105,-363.81 98.43,-254.05 97.6,-220.68"/>
<polygon fill="midnightblue" stroke="midnightblue" points="160.97,-445.03 171.13,-448.03 165.06,-439.35 160.97,-445.03"/>
</g>
<!-- Node11 -->
<g id="node11" class="node">
<title>Node11</title>
<g id="a_node11"><a xlink:href="vi_8c.html#a0ddf1224851353fc92bfbff6f499fa97" target="_top" xlink:title=" ">
<polygon fill="white" stroke="black" points="0,-372.24 0,-391.24 38,-391.24 38,-372.24 0,-372.24"/>
<text text-anchor="middle" x="19" y="-379.24" font-family="Helvetica,sans-Serif" font-size="10.00">main</text>
</a>
</g>
</g>
<!-- Node10&#45;&gt;Node11 -->
<g id="edge11" class="edge">
<title>Node10&#45;&gt;Node11</title>
<path fill="none" stroke="midnightblue" d="M71.55,-381.74C60.69,-381.74 48.07,-381.74 38.04,-381.74"/>
<polygon fill="midnightblue" stroke="midnightblue" points="71.65,-385.24 81.65,-381.74 71.65,-378.24 71.65,-385.24"/>
</g>
<!-- Node12&#45;&gt;Node11 -->
<g id="edge13" class="edge">
<title>Node12&#45;&gt;Node11</title>
<path fill="none" stroke="midnightblue" d="M78.74,-440.87C63.69,-425.71 42.1,-403.99 29.72,-391.52"/>
<polygon fill="midnightblue" stroke="midnightblue" points="76.41,-443.48 85.94,-448.11 81.37,-438.55 76.41,-443.48"/>
</g>
<!-- Node13&#45;&gt;Node11 -->
<g id="edge15" class="edge">
<title>Node13&#45;&gt;Node11</title>
<path fill="none" stroke="midnightblue" d="M87.02,-229.93C70.88,-266.49 36.27,-344.9 24.23,-372.16"/>
<polygon fill="midnightblue" stroke="midnightblue" points="90.39,-230.98 91.22,-220.42 83.98,-228.15 90.39,-230.98"/>
</g>
<!-- Node18 -->
<g id="node18" class="node">
<title>Node18</title>
<g id="a_node18"><a xlink:href="ex_8c.html#affb8197a8f988443aadf1bf2800a0d0b" target="_top" xlink:title=" ">
<polygon fill="white" stroke="black" points="576.5,-866.24 576.5,-885.24 623.5,-885.24 623.5,-866.24 576.5,-866.24"/>
<text text-anchor="middle" x="600" y="-873.24" font-family="Helvetica,sans-Serif" font-size="10.00">ec_null</text>
</a>
</g>
</g>
<!-- Node17&#45;&gt;Node18 -->
<g id="edge20" class="edge">
<title>Node17&#45;&gt;Node18</title>
<path fill="none" stroke="midnightblue" d="M675.23,-875.74C658.4,-875.74 638.67,-875.74 623.78,-875.74"/>
<polygon fill="midnightblue" stroke="midnightblue" points="675.27,-879.24 685.27,-875.74 675.27,-872.24 675.27,-879.24"/>
</g>
<!-- Node20 -->
<g id="node20" class="node">
<title>Node20</title>
<g id="a_node20"><a xlink:href="ex_8c.html#ab0cb848a971a3b2c09fcb456d887dd6b" target="_top" xlink:title=" ">
<polygon fill="white" stroke="black" points="553,-562.24 553,-581.24 647,-581.24 647,-562.24 553,-562.24"/>
<text text-anchor="middle" x="600" y="-569.24" font-family="Helvetica,sans-Serif" font-size="10.00">ex_modifiedbuffer</text>
</a>
</g>
</g>
<!-- Node19&#45;&gt;Node20 -->
<g id="edge22" class="edge">
<title>Node19&#45;&gt;Node20</title>
<path fill="none" stroke="midnightblue" d="M674.91,-545.97C659.81,-551.24 642.42,-557.3 628.3,-562.22"/>
<polygon fill="midnightblue" stroke="midnightblue" points="676.15,-549.24 684.44,-542.65 673.85,-542.63 676.15,-549.24"/>
</g>
<!-- Node20&#45;&gt;Node5 -->
<g id="edge25" class="edge">
<title>Node20&#45;&gt;Node5</title>
<path fill="none" stroke="midnightblue" d="M571.27,-585.91C550.98,-596.28 524.01,-610.07 506.22,-619.16"/>
<polygon fill="midnightblue" stroke="midnightblue" points="573.03,-588.94 580.34,-581.28 569.84,-582.71 573.03,-588.94"/>
</g>
<!-- Node20&#45;&gt;Node16 -->
<g id="edge26" class="edge">
<title>Node20&#45;&gt;Node16</title>
<path fill="none" stroke="midnightblue" d="M542.6,-571.74C532.88,-571.74 523.19,-571.74 514.71,-571.74"/>
<polygon fill="midnightblue" stroke="midnightblue" points="542.68,-575.24 552.68,-571.74 542.68,-568.24 542.68,-575.24"/>
</g>
<!-- Node21 -->
<g id="node21" class="node">
<title>Node21</title>
<g id="a_node21"><a xlink:href="ex_8c.html#a8059390ad69866fa8e14bdb2521d4dc2" target="_top" xlink:title=" ">
<polygon fill="white" stroke="black" points="462.5,-657.24 462.5,-676.24 510.5,-676.24 510.5,-657.24 462.5,-657.24"/>
<text text-anchor="middle" x="486.5" y="-664.24" font-family="Helvetica,sans-Serif" font-size="10.00">ec_edit</text>
</a>
</g>
</g>
<!-- Node20&#45;&gt;Node21 -->
<g id="edge23" class="edge">
<title>Node20&#45;&gt;Node21</title>
<path fill="none" stroke="midnightblue" d="M582.58,-588.58C566.55,-604.62 541.12,-629.02 517,-647.74 512.76,-651.02 507.95,-654.29 503.47,-657.17"/>
<polygon fill="midnightblue" stroke="midnightblue" points="585.1,-591.01 589.65,-581.44 580.12,-586.09 585.1,-591.01"/>
</g>
<!-- Node22 -->
<g id="node22" class="node">
<title>Node22</title>
<g id="a_node22"><a xlink:href="ex_8c.html#a87eef446de152fad41ce88a9a343b87d" target="_top" xlink:title=" ">
<polygon fill="white" stroke="black" points="462.5,-524.24 462.5,-543.24 510.5,-543.24 510.5,-524.24 462.5,-524.24"/>
<text text-anchor="middle" x="486.5" y="-531.24" font-family="Helvetica,sans-Serif" font-size="10.00">ec_quit</text>
</a>
</g>
</g>
<!-- Node20&#45;&gt;Node22 -->
<g id="edge27" class="edge">
<title>Node20&#45;&gt;Node22</title>
<path fill="none" stroke="midnightblue" d="M561.33,-558.9C544.57,-553.19 525.36,-546.64 510.74,-541.66"/>
<polygon fill="midnightblue" stroke="midnightblue" points="560.27,-562.23 570.86,-562.15 562.53,-555.61 560.27,-562.23"/>
</g>
<!-- Node21&#45;&gt;Node12 -->
<g id="edge24" class="edge">
<title>Node21&#45;&gt;Node12</title>
<path fill="none" stroke="midnightblue" d="M452.39,-661.41C388.83,-649.79 247.82,-617.1 155,-543.74 128.09,-522.46 109.33,-485.06 101.53,-467.44"/>
<polygon fill="midnightblue" stroke="midnightblue" points="451.8,-664.86 462.26,-663.16 453.02,-657.97 451.8,-664.86"/>
</g>
<!-- Node22&#45;&gt;Node19 -->
<g id="edge28" class="edge">
<title>Node22&#45;&gt;Node19</title>
<path fill="none" stroke="midnightblue" d="M520.79,-533.74C565.53,-533.74 644.11,-533.74 684.48,-533.74"/>
<polygon fill="midnightblue" stroke="midnightblue" points="520.71,-530.24 510.71,-533.74 520.71,-537.24 520.71,-530.24"/>
</g>
<!-- Node23&#45;&gt;Node3 -->
<g id="edge41" class="edge">
<title>Node23&#45;&gt;Node3</title>
<path fill="none" stroke="midnightblue" d="M915.59,-571C892.02,-607.14 840.17,-686.66 822.24,-714.16"/>
<polygon fill="midnightblue" stroke="midnightblue" points="918.66,-572.71 921.19,-562.42 912.79,-568.88 918.66,-572.71"/>
</g>
<!-- Node23&#45;&gt;Node19 -->
<g id="edge33" class="edge">
<title>Node23&#45;&gt;Node19</title>
<path fill="none" stroke="midnightblue" d="M890.01,-549.43C846.4,-545.59 775.56,-539.34 737.73,-536"/>
<polygon fill="midnightblue" stroke="midnightblue" points="889.94,-552.94 900.21,-550.33 890.55,-545.96 889.94,-552.94"/>
</g>
<!-- Node23&#45;&gt;Node20 -->
<g id="edge40" class="edge">
<title>Node23&#45;&gt;Node20</title>
<path fill="none" stroke="midnightblue" d="M893.08,-566.68C892.38,-567.03 891.68,-567.38 891,-567.74 874.15,-576.49 873.22,-585.41 855,-590.74 777.75,-613.31 681.96,-594.18 633.04,-581.24"/>
<polygon fill="midnightblue" stroke="midnightblue" points="894.89,-569.7 902.49,-562.32 891.94,-563.35 894.89,-569.7"/>
</g>
<!-- Node23&#45;&gt;Node21 -->
<g id="edge30" class="edge">
<title>Node23&#45;&gt;Node21</title>
<path fill="none" stroke="midnightblue" d="M924.4,-572.4C913.27,-635.19 868.86,-830.49 739,-894.74 664.91,-931.4 619.03,-944.47 553,-894.74 516.48,-867.23 494.04,-715.97 488.73,-676.28"/>
<polygon fill="midnightblue" stroke="midnightblue" points="927.89,-572.72 926.1,-562.28 920.99,-571.56 927.89,-572.72"/>
</g>
<!-- Node24 -->
<g id="node24" class="node">
<title>Node24</title>
<g id="a_node24"><a xlink:href="ex_8c.html#add0e79e1f1e3d45f4eaa6fbe5c1ca443" target="_top" xlink:title=" ">
<polygon fill="white" stroke="black" points="685.5,-448.24 685.5,-467.24 736.5,-467.24 736.5,-448.24 685.5,-448.24"/>
<text text-anchor="middle" x="711" y="-455.24" font-family="Helvetica,sans-Serif" font-size="10.00">ec_read</text>
</a>
</g>
</g>
<!-- Node23&#45;&gt;Node24 -->
<g id="edge31" class="edge">
<title>Node23&#45;&gt;Node24</title>
<path fill="none" stroke="midnightblue" d="M896.24,-538.95C851.9,-519.41 771.9,-484.14 733.59,-467.25"/>
<polygon fill="midnightblue" stroke="midnightblue" points="895.09,-542.27 905.65,-543.1 897.91,-535.87 895.09,-542.27"/>
</g>
<!-- Node25 -->
<g id="node25" class="node">
<title>Node25</title>
<g id="a_node25"><a xlink:href="ex_8c.html#a98764f0b4faf5fd4b8baff03a7d73a6e" target="_top" xlink:title=" ">
<polygon fill="white" stroke="black" points="792,-448.24 792,-467.24 838,-467.24 838,-448.24 792,-448.24"/>
<text text-anchor="middle" x="815" y="-455.24" font-family="Helvetica,sans-Serif" font-size="10.00">ec_set</text>
</a>
</g>
</g>
<!-- Node23&#45;&gt;Node25 -->
<g id="edge32" class="edge">
<title>Node23&#45;&gt;Node25</title>
<path fill="none" stroke="midnightblue" d="M911.74,-535.23C897.67,-520.13 876.08,-498.21 855,-481.74 848.36,-476.55 840.53,-471.54 833.64,-467.46"/>
<polygon fill="midnightblue" stroke="midnightblue" points="909.39,-537.85 918.73,-542.84 914.54,-533.11 909.39,-537.85"/>
</g>
<!-- Node26 -->
<g id="node26" class="node">
<title>Node26</title>
<g id="a_node26"><a xlink:href="ex_8c.html#a2b8907dfb6e95eb16e8a0f1ce0fe5bb6" target="_top" xlink:title=" ">
<polygon fill="white" stroke="black" points="785.5,-562.24 785.5,-581.24 844.5,-581.24 844.5,-562.24 785.5,-562.24"/>
<text text-anchor="middle" x="815" y="-569.24" font-family="Helvetica,sans-Serif" font-size="10.00">ex_filearg</text>
</a>
</g>
</g>
<!-- Node23&#45;&gt;Node26 -->
<g id="edge34" class="edge">
<title>Node23&#45;&gt;Node26</title>
<path fill="none" stroke="midnightblue" d="M890.28,-559.08C875.37,-561.62 858.46,-564.5 844.55,-566.87"/>
<polygon fill="midnightblue" stroke="midnightblue" points="890.95,-562.51 900.22,-557.38 889.78,-555.61 890.95,-562.51"/>
</g>
<!-- Node26&#45;&gt;Node5 -->
<g id="edge36" class="edge">
<title>Node26&#45;&gt;Node5</title>
<path fill="none" stroke="midnightblue" d="M775.09,-578.53C707.53,-590.32 570.31,-614.28 513.27,-624.24"/>
<polygon fill="midnightblue" stroke="midnightblue" points="776.06,-581.91 785.31,-576.74 774.86,-575.02 776.06,-581.91"/>
</g>
<!-- Node26&#45;&gt;Node16 -->
<g id="edge37" class="edge">
<title>Node26&#45;&gt;Node16</title>
<path fill="none" stroke="midnightblue" d="M798.16,-554.67C784.14,-540.91 762.32,-522.59 739,-514.74 652.24,-485.51 543.6,-539.35 503.41,-562.2"/>
<polygon fill="midnightblue" stroke="midnightblue" points="795.97,-557.44 805.47,-562.13 800.98,-552.54 795.97,-557.44"/>
</g>
<!-- Node26&#45;&gt;Node19 -->
<g id="edge39" class="edge">
<title>Node26&#45;&gt;Node19</title>
<path fill="none" stroke="midnightblue" d="M778.79,-558.62C765.3,-553.59 750.17,-547.96 737.73,-543.32"/>
<polygon fill="midnightblue" stroke="midnightblue" points="777.67,-561.94 788.26,-562.15 780.11,-555.38 777.67,-561.94"/>
</g>
<!-- Node26&#45;&gt;Node21 -->
<g id="edge35" class="edge">
<title>Node26&#45;&gt;Node21</title>
<path fill="none" stroke="midnightblue" d="M783.67,-585.43C770.16,-591.23 753.96,-597.77 739,-602.74 656.47,-630.14 555.44,-652.6 510.7,-661.99"/>
<polygon fill="midnightblue" stroke="midnightblue" points="785.2,-588.58 792.97,-581.38 782.4,-582.16 785.2,-588.58"/>
</g>
<!-- Node26&#45;&gt;Node24 -->
<g id="edge38" class="edge">
<title>Node26&#45;&gt;Node24</title>
<path fill="none" stroke="midnightblue" d="M800.67,-554.22C786.21,-535.58 762.09,-505.57 739,-481.74 734.2,-476.78 728.54,-471.65 723.65,-467.42"/>
<polygon fill="midnightblue" stroke="midnightblue" points="797.9,-556.35 806.77,-562.14 803.45,-552.08 797.9,-556.35"/>
</g>
<!-- Node28 -->
<g id="node28" class="node">
<title>Node28</title>
<g id="a_node28"><a xlink:href="vi_8h.html#ae72255a31cec31233723c101d9465d07" target="_top" xlink:title=" ">
<polygon fill="white" stroke="black" points="683,-277.24 683,-296.24 739,-296.24 739,-277.24 683,-277.24"/>
<text text-anchor="middle" x="711" y="-284.24" font-family="Helvetica,sans-Serif" font-size="10.00">led_input</text>
</a>
</g>
</g>
<!-- Node27&#45;&gt;Node28 -->
<g id="edge43" class="edge">
<title>Node27&#45;&gt;Node28</title>
<path fill="none" stroke="midnightblue" d="M880.94,-271.84C837.69,-275.65 774.74,-281.2 739.16,-284.34"/>
<polygon fill="midnightblue" stroke="midnightblue" points="881.29,-275.32 890.94,-270.96 880.67,-268.35 881.29,-275.32"/>
</g>
<!-- Node33 -->
<g id="node33" class="node">
<title>Node33</title>
<g id="a_node33"><a xlink:href="led_8c.html#a617ec615e86687b5c10df33b271256c8" target="_top" xlink:title=" ">
<polygon fill="white" stroke="black" points="790,-239.24 790,-258.24 840,-258.24 840,-239.24 790,-239.24"/>
<text text-anchor="middle" x="815" y="-246.24" font-family="Helvetica,sans-Serif" font-size="10.00">led_line</text>
</a>
</g>
</g>
<!-- Node27&#45;&gt;Node33 -->
<g id="edge50" class="edge">
<title>Node27&#45;&gt;Node33</title>
<path fill="none" stroke="midnightblue" d="M880.99,-259.81C867,-257.43 852.21,-254.91 840.28,-252.87"/>
<polygon fill="midnightblue" stroke="midnightblue" points="880.54,-263.29 890.99,-261.51 881.72,-256.38 880.54,-263.29"/>
</g>
<!-- Node29 -->
<g id="node29" class="node">
<title>Node29</title>
<g id="a_node29"><a xlink:href="vi_8c.html#a653f6b0359cef492e11f404c4bf469b9" target="_top" xlink:title=" ">
<polygon fill="white" stroke="black" points="575,-277.24 575,-296.24 625,-296.24 625,-277.24 575,-277.24"/>
<text text-anchor="middle" x="600" y="-284.24" font-family="Helvetica,sans-Serif" font-size="10.00">vi_input</text>
</a>
</g>
</g>
<!-- Node28&#45;&gt;Node29 -->
<g id="edge44" class="edge">
<title>Node28&#45;&gt;Node29</title>
<path fill="none" stroke="midnightblue" d="M672.37,-286.74C656.77,-286.74 639.12,-286.74 625.28,-286.74"/>
<polygon fill="midnightblue" stroke="midnightblue" points="672.78,-290.24 682.78,-286.74 672.78,-283.24 672.78,-290.24"/>
</g>
<!-- Node30 -->
<g id="node30" class="node">
<title>Node30</title>
<g id="a_node30"><a xlink:href="vi_8c.html#a8bb357a77ed61da8858f138c6fa672a6" target="_top" xlink:title=" ">
<polygon fill="white" stroke="black" points="458.5,-315.24 458.5,-334.24 514.5,-334.24 514.5,-315.24 458.5,-315.24"/>
<text text-anchor="middle" x="486.5" y="-322.24" font-family="Helvetica,sans-Serif" font-size="10.00">vc_insert</text>
</a>
</g>
</g>
<!-- Node29&#45;&gt;Node30 -->
<g id="edge45" class="edge">
<title>Node29&#45;&gt;Node30</title>
<path fill="none" stroke="midnightblue" d="M565.19,-298.26C549.05,-303.76 529.98,-310.26 514.78,-315.44"/>
<polygon fill="midnightblue" stroke="midnightblue" points="566.47,-301.52 574.81,-294.98 564.21,-294.89 566.47,-301.52"/>
</g>
<!-- Node31 -->
<g id="node31" class="node">
<title>Node31</title>
<g id="a_node31"><a xlink:href="vi_8c.html#ae37b094c3bb647d8c1a4ac4e858ce518" target="_top" xlink:title=" ">
<polygon fill="white" stroke="black" points="456,-277.24 456,-296.24 517,-296.24 517,-277.24 456,-277.24"/>
<text text-anchor="middle" x="486.5" y="-284.24" font-family="Helvetica,sans-Serif" font-size="10.00">vi_change</text>
</a>
</g>
</g>
<!-- Node29&#45;&gt;Node31 -->
<g id="edge47" class="edge">
<title>Node29&#45;&gt;Node31</title>
<path fill="none" stroke="midnightblue" d="M564.75,-286.74C549.56,-286.74 531.84,-286.74 517.21,-286.74"/>
<polygon fill="midnightblue" stroke="midnightblue" points="564.81,-290.24 574.81,-286.74 564.81,-283.24 564.81,-290.24"/>
</g>
<!-- Node30&#45;&gt;Node13 -->
<g id="edge46" class="edge">
<title>Node30&#45;&gt;Node13</title>
<path fill="none" stroke="midnightblue" d="M448.41,-329.46C384.06,-335.81 249.55,-340.72 155,-286.74 127.84,-271.23 109.44,-237.2 101.67,-220.44"/>
<polygon fill="midnightblue" stroke="midnightblue" points="448.91,-332.93 458.49,-328.4 448.17,-325.97 448.91,-332.93"/>
</g>
<!-- Node32 -->
<g id="node32" class="node">
<title>Node32</title>
<g id="a_node32"><a xlink:href="vi_8c.html#a06cbc6eb843436a0e77e07cbab0c4538" target="_top" xlink:title=" ">
<polygon fill="white" stroke="black" points="161.5,-182.24 161.5,-201.24 223.5,-201.24 223.5,-182.24 161.5,-182.24"/>
<text text-anchor="middle" x="192.5" y="-189.24" font-family="Helvetica,sans-Serif" font-size="10.00">vc_motion</text>
</a>
</g>
</g>
<!-- Node31&#45;&gt;Node32 -->
<g id="edge48" class="edge">
<title>Node31&#45;&gt;Node32</title>
<path fill="none" stroke="midnightblue" d="M446.42,-274.02C387.11,-254.73 275.71,-218.48 222.82,-201.27"/>
<polygon fill="midnightblue" stroke="midnightblue" points="445.57,-277.43 456.16,-277.19 447.74,-270.77 445.57,-277.43"/>
</g>
<!-- Node32&#45;&gt;Node13 -->
<g id="edge49" class="edge">
<title>Node32&#45;&gt;Node13</title>
<path fill="none" stroke="midnightblue" d="M151.31,-199.86C136.99,-202.75 121.81,-205.82 111.24,-207.96"/>
<polygon fill="midnightblue" stroke="midnightblue" points="152.39,-203.21 161.5,-197.8 151,-196.35 152.39,-203.21"/>
</g>
<!-- Node33&#45;&gt;Node28 -->
<g id="edge51" class="edge">
<title>Node33&#45;&gt;Node28</title>
<path fill="none" stroke="midnightblue" d="M780.17,-261.34C766.36,-266.48 750.64,-272.34 737.78,-277.13"/>
<polygon fill="midnightblue" stroke="midnightblue" points="781.68,-264.51 789.83,-257.74 779.23,-257.95 781.68,-264.51"/>
</g>
<!-- Node34 -->
<g id="node34" class="node">
<title>Node34</title>
<g id="a_node34"><a xlink:href="vi_8h.html#a173bb468e1e2a066136316f98b49c108" target="_top" xlink:title=" ">
<polygon fill="white" stroke="black" points="567.5,-239.24 567.5,-258.24 632.5,-258.24 632.5,-239.24 567.5,-239.24"/>
<text text-anchor="middle" x="600" y="-246.24" font-family="Helvetica,sans-Serif" font-size="10.00">led_prompt</text>
</a>
</g>
</g>
<!-- Node33&#45;&gt;Node34 -->
<g id="edge52" class="edge">
<title>Node33&#45;&gt;Node34</title>
<path fill="none" stroke="midnightblue" d="M779.76,-248.74C739.12,-248.74 671.92,-248.74 632.52,-248.74"/>
<polygon fill="midnightblue" stroke="midnightblue" points="779.98,-252.24 789.98,-248.74 779.98,-245.24 779.98,-252.24"/>
</g>
<!-- Node35 -->
<g id="node35" class="node">
<title>Node35</title>
<g id="a_node35"><a xlink:href="vi_8h.html#a7ba56272fe1a7d523192729a0bb5edf7" target="_top" xlink:title=" ">
<polygon fill="white" stroke="black" points="270,-258.24 270,-277.24 321,-277.24 321,-258.24 270,-258.24"/>
<text text-anchor="middle" x="295.5" y="-265.24" font-family="Helvetica,sans-Serif" font-size="10.00">ex_read</text>
</a>
</g>
</g>
<!-- Node34&#45;&gt;Node35 -->
<g id="edge53" class="edge">
<title>Node34&#45;&gt;Node35</title>
<path fill="none" stroke="midnightblue" d="M557.34,-251.35C493.31,-255.37 372.73,-262.95 321.04,-266.19"/>
<polygon fill="midnightblue" stroke="midnightblue" points="557.72,-254.84 567.48,-250.72 557.28,-247.85 557.72,-254.84"/>
</g>
<!-- Node34&#45;&gt;Node38 -->
<g id="edge58" class="edge">
<title>Node34&#45;&gt;Node38</title>
<path fill="none" stroke="midnightblue" d="M571.27,-234.56C550.98,-224.19 524.01,-210.4 506.22,-201.31"/>
<polygon fill="midnightblue" stroke="midnightblue" points="569.84,-237.76 580.34,-239.2 573.03,-231.53 569.84,-237.76"/>
</g>
<!-- Node35&#45;&gt;Node10 -->
<g id="edge55" class="edge">
<title>Node35&#45;&gt;Node10</title>
<path fill="none" stroke="midnightblue" d="M269.22,-282.36C227.06,-306.76 143.78,-354.95 111.11,-373.86"/>
<polygon fill="midnightblue" stroke="midnightblue" points="271.14,-285.3 278.04,-277.26 267.63,-279.24 271.14,-285.3"/>
</g>
<!-- Node36 -->
<g id="node36" class="node">
<title>Node36</title>
<g id="a_node36"><a xlink:href="ex_8c.html#a0908784dc65be2da119a6b72ef96dec2" target="_top" xlink:title=" ">
<polygon fill="white" stroke="black" points="164.5,-258.24 164.5,-277.24 220.5,-277.24 220.5,-258.24 164.5,-258.24"/>
<text text-anchor="middle" x="192.5" y="-265.24" font-family="Helvetica,sans-Serif" font-size="10.00">ec_insert</text>
</a>
</g>
</g>
<!-- Node35&#45;&gt;Node36 -->
<g id="edge54" class="edge">
<title>Node35&#45;&gt;Node36</title>
<path fill="none" stroke="midnightblue" d="M259.56,-267.74C246.87,-267.74 232.73,-267.74 220.79,-267.74"/>
<polygon fill="midnightblue" stroke="midnightblue" points="259.79,-271.24 269.79,-267.74 259.79,-264.24 259.79,-271.24"/>
</g>
<!-- Node37 -->
<g id="node37" class="node">
<title>Node37</title>
<g id="a_node37"><a xlink:href="vi_8c.html#a9d85e9ed087401367529ab86a5dbf0c5" target="_top" xlink:title=" ">
<polygon fill="white" stroke="black" points="169,-220.24 169,-239.24 216,-239.24 216,-220.24 169,-220.24"/>
<text text-anchor="middle" x="192.5" y="-227.24" font-family="Helvetica,sans-Serif" font-size="10.00">vi_wait</text>
</a>
</g>
</g>
<!-- Node35&#45;&gt;Node37 -->
<g id="edge56" class="edge">
<title>Node35&#45;&gt;Node37</title>
<path fill="none" stroke="midnightblue" d="M260.14,-254.81C245.65,-249.36 229.17,-243.16 216.23,-238.29"/>
<polygon fill="midnightblue" stroke="midnightblue" points="259.2,-258.19 269.79,-258.44 261.67,-251.64 259.2,-258.19"/>
</g>
<!-- Node37&#45;&gt;Node13 -->
<g id="edge57" class="edge">
<title>Node37&#45;&gt;Node13</title>
<path fill="none" stroke="midnightblue" d="M158.48,-223.06C142.17,-219.77 123.4,-215.97 111.04,-213.47"/>
<polygon fill="midnightblue" stroke="midnightblue" points="158.25,-226.59 168.75,-225.14 159.64,-219.72 158.25,-226.59"/>
</g>
<!-- Node38&#45;&gt;Node13 -->
<g id="edge59" class="edge">
<title>Node38&#45;&gt;Node13</title>
<path fill="none" stroke="midnightblue" d="M471.78,-174.33C459.79,-160.64 441.05,-142.61 420,-134.74 355.9,-110.75 334.22,-129.24 266,-134.74 216.18,-138.75 199.44,-129.87 155,-152.74 132.56,-164.28 113.53,-187.81 104.01,-201.08"/>
<polygon fill="midnightblue" stroke="midnightblue" points="469.23,-176.74 478.33,-182.16 474.6,-172.25 469.23,-176.74"/>
</g>
<!-- Node39 -->
<g id="node39" class="node">
<title>Node39</title>
<g id="a_node39"><a xlink:href="vi_8c.html#ab8e0c9b9d2ef5161c6a3a8828606df5f" target="_top" xlink:title=" ">
<polygon fill="white" stroke="black" points="367,-182.24 367,-201.24 414,-201.24 414,-182.24 367,-182.24"/>
<text text-anchor="middle" x="390.5" y="-189.24" font-family="Helvetica,sans-Serif" font-size="10.00">vi_pipe</text>
</a>
</g>
</g>
<!-- Node38&#45;&gt;Node39 -->
<g id="edge60" class="edge">
<title>Node38&#45;&gt;Node39</title>
<path fill="none" stroke="midnightblue" d="M446.47,-191.74C435.43,-191.74 423.79,-191.74 414.08,-191.74"/>
<polygon fill="midnightblue" stroke="midnightblue" points="446.79,-195.24 456.79,-191.74 446.79,-188.24 446.79,-195.24"/>
</g>
<!-- Node40 -->
<g id="node40" class="node">
<title>Node40</title>
<g id="a_node40"><a xlink:href="vi_8c.html#a93701c59617d4f96cbaa207e89178f87" target="_top" xlink:title=" ">
<polygon fill="white" stroke="black" points="361,-144.24 361,-163.24 420,-163.24 420,-144.24 361,-144.24"/>
<text text-anchor="middle" x="390.5" y="-151.24" font-family="Helvetica,sans-Serif" font-size="10.00">vi_search</text>
</a>
</g>
</g>
<!-- Node38&#45;&gt;Node40 -->
<g id="edge62" class="edge">
<title>Node38&#45;&gt;Node40</title>
<path fill="none" stroke="midnightblue" d="M452.32,-178.32C440.08,-173.37 426.46,-167.87 415.21,-163.32"/>
<polygon fill="midnightblue" stroke="midnightblue" points="451.2,-181.64 461.78,-182.15 453.82,-175.15 451.2,-181.64"/>
</g>
<!-- Node39&#45;&gt;Node32 -->
<g id="edge61" class="edge">
<title>Node39&#45;&gt;Node32</title>
<path fill="none" stroke="midnightblue" d="M356.33,-191.74C319.16,-191.74 259.43,-191.74 223.58,-191.74"/>
<polygon fill="midnightblue" stroke="midnightblue" points="356.63,-195.24 366.63,-191.74 356.63,-188.24 356.63,-195.24"/>
</g>
<!-- Node41 -->
<g id="node41" class="node">
<title>Node41</title>
<g id="a_node41"><a xlink:href="vi_8c.html#aaa4777ea0715ea846346d0f27a0cfa3f" target="_top" xlink:title=" ">
<polygon fill="white" stroke="black" points="266,-144.24 266,-163.24 325,-163.24 325,-144.24 266,-144.24"/>
<text text-anchor="middle" x="295.5" y="-151.24" font-family="Helvetica,sans-Serif" font-size="10.00">vi_motion</text>
</a>
</g>
</g>
<!-- Node40&#45;&gt;Node41 -->
<g id="edge63" class="edge">
<title>Node40&#45;&gt;Node41</title>
<path fill="none" stroke="midnightblue" d="M350.69,-153.74C342.16,-153.74 333.28,-153.74 325.23,-153.74"/>
<polygon fill="midnightblue" stroke="midnightblue" points="350.84,-157.24 360.84,-153.74 350.84,-150.24 350.84,-157.24"/>
</g>
<!-- Node41&#45;&gt;Node13 -->
<g id="edge65" class="edge">
<title>Node41&#45;&gt;Node13</title>
<path fill="none" stroke="midnightblue" d="M255.78,-154.4C227.13,-155.98 187.6,-160.48 155,-172.74 137.3,-179.39 119.55,-192.31 108.55,-201.22"/>
<polygon fill="midnightblue" stroke="midnightblue" points="255.97,-157.89 265.8,-153.94 255.65,-150.9 255.97,-157.89"/>
</g>
<!-- Node41&#45;&gt;Node32 -->
<g id="edge64" class="edge">
<title>Node41&#45;&gt;Node32</title>
<path fill="none" stroke="midnightblue" d="M259.63,-166.85C246.28,-171.88 231.3,-177.52 218.98,-182.15"/>
<polygon fill="midnightblue" stroke="midnightblue" points="260.89,-170.12 269.01,-163.33 258.42,-163.57 260.89,-170.12"/>
</g>
<!-- Node42&#45;&gt;Node13 -->
<g id="edge67" class="edge">
<title>Node42&#45;&gt;Node13</title>
<path fill="none" stroke="midnightblue" d="M885.18,-381.74C841.72,-381.74 772.14,-381.74 712,-381.74 712,-381.74 712,-381.74 294.5,-381.74 225.72,-381.74 205.01,-361.96 155,-314.74 125.45,-286.83 107.33,-240.29 100.55,-220.32"/>
<polygon fill="midnightblue" stroke="midnightblue" points="885.37,-385.24 895.37,-381.74 885.37,-378.24 885.37,-385.24"/>
</g>
<!-- Node42&#45;&gt;Node43 -->
<g id="edge68" class="edge">
<title>Node42&#45;&gt;Node43</title>
<path fill="none" stroke="midnightblue" d="M919.75,-362.77C912.07,-343.7 900.15,-313.38 891,-286.74 859.56,-195.18 827.78,-82.28 818.62,-49.24"/>
<polygon fill="midnightblue" stroke="midnightblue" points="916.54,-364.16 923.54,-372.11 923.02,-361.53 916.54,-364.16"/>
</g>
<!-- Node42&#45;&gt;Node44 -->
<g id="edge70" class="edge">
<title>Node42&#45;&gt;Node44</title>
<path fill="none" stroke="midnightblue" d="M889.87,-394.56C874.91,-399.66 857.99,-405.43 844.13,-410.15"/>
<polygon fill="midnightblue" stroke="midnightblue" points="891.03,-397.86 899.36,-391.33 888.77,-391.24 891.03,-397.86"/>
</g>
<!-- Node43&#45;&gt;Node13 -->
<g id="edge69" class="edge">
<title>Node43&#45;&gt;Node13</title>
<path fill="none" stroke="midnightblue" d="M767.63,-39.74C724.48,-39.74 658.39,-39.74 601,-39.74 601,-39.74 601,-39.74 294.5,-39.74 231.59,-39.74 203.75,-23.98 155,-63.74 110.83,-99.76 100.48,-174.29 98.15,-200.97"/>
<polygon fill="midnightblue" stroke="midnightblue" points="767.82,-43.24 777.82,-39.74 767.82,-36.24 767.82,-43.24"/>
</g>
<!-- Node44&#45;&gt;Node13 -->
<g id="edge71" class="edge">
<title>Node44&#45;&gt;Node13</title>
<path fill="none" stroke="midnightblue" d="M764.51,-419.74C721.34,-419.74 657.03,-419.74 601,-419.74 601,-419.74 601,-419.74 294.5,-419.74 231.59,-419.74 202.3,-437.21 155,-395.74 101.14,-348.5 97.1,-251.8 97.26,-220.64"/>
<polygon fill="midnightblue" stroke="midnightblue" points="764.74,-423.24 774.74,-419.74 764.74,-416.24 764.74,-423.24"/>
</g>
<!-- Node46 -->
<g id="node46" class="node">
<title>Node46</title>
<g id="a_node46"><a xlink:href="vi_8c.html#aa59b6f8d6056ad376a3a5ec45ce1686b" target="_top" xlink:title=" ">
<polygon fill="white" stroke="black" points="894,-110.24 894,-129.24 963,-129.24 963,-110.24 894,-110.24"/>
<text text-anchor="middle" x="928.5" y="-117.24" font-family="Helvetica,sans-Serif" font-size="10.00">vi_drawmsg</text>
</a>
</g>
</g>
<!-- Node45&#45;&gt;Node46 -->
<g id="edge73" class="edge">
<title>Node45&#45;&gt;Node46</title>
<path fill="none" stroke="midnightblue" d="M991.69,-131.88C982.18,-130.03 972.31,-128.1 963.32,-126.34"/>
<polygon fill="midnightblue" stroke="midnightblue" points="991.31,-135.38 1001.8,-133.86 992.66,-128.51 991.31,-135.38"/>
</g>
<!-- Node46&#45;&gt;Node13 -->
<g id="edge74" class="edge">
<title>Node46&#45;&gt;Node13</title>
<path fill="none" stroke="midnightblue" d="M888.12,-107.33C845.25,-94.94 774.46,-77.74 712,-77.74 712,-77.74 712,-77.74 294.5,-77.74 227.86,-77.74 207.83,-92.11 155,-132.74 129.93,-152.02 110.67,-185.04 102.21,-201.23"/>
<polygon fill="midnightblue" stroke="midnightblue" points="887.29,-110.74 897.87,-110.21 889.27,-104.02 887.29,-110.74"/>
</g>
<!-- Node46&#45;&gt;Node43 -->
<g id="edge75" class="edge">
<title>Node46&#45;&gt;Node43</title>
<path fill="none" stroke="midnightblue" d="M907.86,-103.65C893.51,-92.13 873.42,-76.46 855,-63.74 847.81,-58.76 839.59,-53.63 832.57,-49.4"/>
<polygon fill="midnightblue" stroke="midnightblue" points="906.01,-106.66 915.98,-110.23 910.41,-101.22 906.01,-106.66"/>
</g>
<!-- Node46&#45;&gt;Node44 -->
<g id="edge76" class="edge">
<title>Node46&#45;&gt;Node44</title>
<path fill="none" stroke="midnightblue" d="M920.3,-139.11C898.78,-197 835.47,-367.35 819.63,-409.98"/>
<polygon fill="midnightblue" stroke="midnightblue" points="923.71,-139.97 923.92,-129.38 917.15,-137.53 923.71,-139.97"/>
</g>
<!-- Node47&#45;&gt;Node30 -->
<g id="edge81" class="edge">
<title>Node47&#45;&gt;Node30</title>
<path fill="none" stroke="midnightblue" d="M558.53,-324.74C543.94,-324.74 527.83,-324.74 514.65,-324.74"/>
<polygon fill="midnightblue" stroke="midnightblue" points="558.83,-328.24 568.83,-324.74 558.83,-321.24 558.83,-328.24"/>
</g>
<!-- Node47&#45;&gt;Node31 -->
<g id="edge82" class="edge">
<title>Node47&#45;&gt;Node31</title>
<path fill="none" stroke="midnightblue" d="M561.37,-311.91C546.41,-306.81 529.49,-301.05 515.63,-296.32"/>
<polygon fill="midnightblue" stroke="midnightblue" points="560.27,-315.23 570.86,-315.15 562.53,-308.61 560.27,-315.23"/>
</g>
</g>
</svg>
