<?xml version="1.0" encoding="UTF-8" standalone="no"?>
<!DOCTYPE svg PUBLIC "-//W3C//DTD SVG 1.1//EN"
 "http://www.w3.org/Graphics/SVG/1.1/DTD/svg11.dtd">
<!-- Generated by graphviz version 2.44.1 (20200629.0846)
 -->
<!-- Title: uc_cshape Pages: 1 -->
<svg width="259pt" height="47pt"
 viewBox="0.00 0.00 259.00 47.00" xmlns="http://www.w3.org/2000/svg" xmlns:xlink="http://www.w3.org/1999/xlink">
<g id="graph0" class="graph" transform="scale(1 1) rotate(0) translate(4 43)">
<title>uc_cshape</title>
<polygon fill="white" stroke="transparent" points="-4,4 -4,-43 255,-43 255,4 -4,4"/>
<!-- Node1 -->
<g id="node1" class="node">
<title>Node1</title>
<g id="a_node1"><a xlink:title=" ">
<polygon fill="#bfbfbf" stroke="black" points="0,-0.5 0,-19.5 64,-19.5 64,-0.5 0,-0.5"/>
<text text-anchor="middle" x="32" y="-7.5" font-family="Helvetica,sans-Serif" font-size="10.00">uc_cshape</text>
</a>
</g>
</g>
<!-- Node2 -->
<g id="node2" class="node">
<title>Node2</title>
<g id="a_node2"><a xlink:href="uc_8c.html#a5b0fb710352596f49590c0ab690ced77" target="_top" xlink:title=" ">
<polygon fill="white" stroke="black" points="100,-19.5 100,-38.5 153,-38.5 153,-19.5 100,-19.5"/>
<text text-anchor="middle" x="126.5" y="-26.5" font-family="Helvetica,sans-Serif" font-size="10.00">can_join</text>
</a>
</g>
</g>
<!-- Node1&#45;&gt;Node2 -->
<g id="edge1" class="edge">
<title>Node1&#45;&gt;Node2</title>
<path fill="none" stroke="midnightblue" d="M64.06,-16.38C72.34,-18.08 81.36,-19.93 89.87,-21.68"/>
<polygon fill="midnightblue" stroke="midnightblue" points="89.41,-25.16 99.91,-23.74 90.82,-18.3 89.41,-25.16"/>
</g>
<!-- Node3 -->
<g id="node3" class="node">
<title>Node3</title>
<g id="a_node3"><a xlink:href="uc_8c.html#ad4c5b7208072ca00e1454e27bda0294c" target="_top" xlink:title=" ">
<polygon fill="white" stroke="black" points="189,-0.5 189,-19.5 251,-19.5 251,-0.5 189,-0.5"/>
<text text-anchor="middle" x="220" y="-7.5" font-family="Helvetica,sans-Serif" font-size="10.00">find_achar</text>
</a>
</g>
</g>
<!-- Node1&#45;&gt;Node3 -->
<g id="edge3" class="edge">
<title>Node1&#45;&gt;Node3</title>
<path fill="none" stroke="midnightblue" d="M64.13,-10C95.62,-10 144.43,-10 178.82,-10"/>
<polygon fill="midnightblue" stroke="midnightblue" points="179,-13.5 189,-10 179,-6.5 179,-13.5"/>
</g>
<!-- Node2&#45;&gt;Node3 -->
<g id="edge2" class="edge">
<title>Node2&#45;&gt;Node3</title>
<path fill="none" stroke="midnightblue" d="M153.48,-23.61C161.37,-21.97 170.25,-20.12 178.85,-18.34"/>
<polygon fill="midnightblue" stroke="midnightblue" points="179.67,-21.74 188.75,-16.28 178.25,-14.89 179.67,-21.74"/>
</g>
</g>
</svg>
