<?xml version="1.0" encoding="UTF-8" standalone="no"?>
<!DOCTYPE svg PUBLIC "-//W3C//DTD SVG 1.1//EN"
 "http://www.w3.org/Graphics/SVG/1.1/DTD/svg11.dtd">
<!-- Generated by graphviz version 2.44.1 (20200629.0846)
 -->
<!-- Title: uc_sub Pages: 1 -->
<svg width="490pt" height="256pt"
 viewBox="0.00 0.00 490.00 256.00" xmlns="http://www.w3.org/2000/svg" xmlns:xlink="http://www.w3.org/1999/xlink">
<g id="graph0" class="graph" transform="scale(1 1) rotate(0) translate(4 252)">
<title>uc_sub</title>
<polygon fill="white" stroke="transparent" points="-4,4 -4,-252 486,-252 486,4 -4,4"/>
<!-- Node1 -->
<g id="node1" class="node">
<title>Node1</title>
<g id="a_node1"><a xlink:title=" ">
<polygon fill="#bfbfbf" stroke="black" points="434,-114.5 434,-133.5 482,-133.5 482,-114.5 434,-114.5"/>
<text text-anchor="middle" x="458" y="-121.5" font-family="Helvetica,sans-Serif" font-size="10.00">uc_sub</text>
</a>
</g>
</g>
<!-- Node2 -->
<g id="node2" class="node">
<title>Node2</title>
<g id="a_node2"><a xlink:href="vi_8c.html#a2d2d2965bc8143e80182d0205d32bdc4" target="_top" xlink:title=" ">
<polygon fill="white" stroke="black" points="334,-190.5 334,-209.5 398,-209.5 398,-190.5 334,-190.5"/>
<text text-anchor="middle" x="366" y="-197.5" font-family="Helvetica,sans-Serif" font-size="10.00">lbuf_region</text>
</a>
</g>
</g>
<!-- Node1&#45;&gt;Node2 -->
<g id="edge1" class="edge">
<title>Node1&#45;&gt;Node2</title>
<path fill="none" stroke="midnightblue" d="M438.65,-140.71C427.14,-151.06 411.89,-164.52 398,-176 392.12,-180.86 385.46,-186.06 379.81,-190.37"/>
<polygon fill="midnightblue" stroke="midnightblue" points="441.23,-143.1 446.3,-133.79 436.54,-137.9 441.23,-143.1"/>
</g>
<!-- Node3 -->
<g id="node3" class="node">
<title>Node3</title>
<g id="a_node3"><a xlink:href="vi_8c.html#a4e8a00c8cdffacf0c69c3901cdcdf059" target="_top" xlink:title=" ">
<polygon fill="white" stroke="black" points="242.5,-228.5 242.5,-247.5 292.5,-247.5 292.5,-228.5 242.5,-228.5"/>
<text text-anchor="middle" x="267.5" y="-235.5" font-family="Helvetica,sans-Serif" font-size="10.00">vi_case</text>
</a>
</g>
</g>
<!-- Node1&#45;&gt;Node3 -->
<g id="edge18" class="edge">
<title>Node1&#45;&gt;Node3</title>
<path fill="none" stroke="midnightblue" d="M450.61,-143.45C442.25,-165.61 425.35,-201.07 398,-219 366.08,-239.93 320.28,-241.57 292.57,-240.23"/>
<polygon fill="midnightblue" stroke="midnightblue" points="454,-144.37 454.04,-133.77 447.4,-142.03 454,-144.37"/>
</g>
<!-- Node7 -->
<g id="node7" class="node">
<title>Node7</title>
<g id="a_node7"><a xlink:href="vi_8c.html#ae37b094c3bb647d8c1a4ac4e858ce518" target="_top" xlink:title=" ">
<polygon fill="white" stroke="black" points="237,-152.5 237,-171.5 298,-171.5 298,-152.5 237,-152.5"/>
<text text-anchor="middle" x="267.5" y="-159.5" font-family="Helvetica,sans-Serif" font-size="10.00">vi_change</text>
</a>
</g>
</g>
<!-- Node1&#45;&gt;Node7 -->
<g id="edge19" class="edge">
<title>Node1&#45;&gt;Node7</title>
<path fill="none" stroke="midnightblue" d="M423.91,-132.16C415.48,-134.15 406.42,-136.22 398,-138 363.88,-145.2 324.46,-152.34 298.16,-156.94"/>
<polygon fill="midnightblue" stroke="midnightblue" points="424.89,-135.52 433.8,-129.79 423.26,-128.71 424.89,-135.52"/>
</g>
<!-- Node8 -->
<g id="node8" class="node">
<title>Node8</title>
<g id="a_node8"><a xlink:href="vi_8c.html#abfa30fc2e2b4b8b24e2ee5d4bd54f2eb" target="_top" xlink:title=" ">
<polygon fill="white" stroke="black" points="239.5,-114.5 239.5,-133.5 295.5,-133.5 295.5,-114.5 239.5,-114.5"/>
<text text-anchor="middle" x="267.5" y="-121.5" font-family="Helvetica,sans-Serif" font-size="10.00">vi_delete</text>
</a>
</g>
</g>
<!-- Node1&#45;&gt;Node8 -->
<g id="edge20" class="edge">
<title>Node1&#45;&gt;Node8</title>
<path fill="none" stroke="midnightblue" d="M423.77,-124C387.36,-124 329.63,-124 295.77,-124"/>
<polygon fill="midnightblue" stroke="midnightblue" points="423.89,-127.5 433.89,-124 423.89,-120.5 423.89,-127.5"/>
</g>
<!-- Node10 -->
<g id="node10" class="node">
<title>Node10</title>
<g id="a_node10"><a xlink:href="vi_8c.html#a8bb357a77ed61da8858f138c6fa672a6" target="_top" xlink:title=" ">
<polygon fill="white" stroke="black" points="142,-76.5 142,-95.5 198,-95.5 198,-76.5 142,-76.5"/>
<text text-anchor="middle" x="170" y="-83.5" font-family="Helvetica,sans-Serif" font-size="10.00">vc_insert</text>
</a>
</g>
</g>
<!-- Node1&#45;&gt;Node10 -->
<g id="edge12" class="edge">
<title>Node1&#45;&gt;Node10</title>
<path fill="none" stroke="midnightblue" d="M423.62,-119.56C366.37,-111.96 250.59,-96.58 198.04,-89.59"/>
<polygon fill="midnightblue" stroke="midnightblue" points="423.22,-123.04 433.6,-120.89 424.14,-116.1 423.22,-123.04"/>
</g>
<!-- Node11 -->
<g id="node11" class="node">
<title>Node11</title>
<g id="a_node11"><a xlink:href="vi_8c.html#a7611a5bcfe4c4ddc58233c4c52a8fa16" target="_top" xlink:title=" ">
<polygon fill="white" stroke="black" points="147,-38.5 147,-57.5 193,-57.5 193,-38.5 147,-38.5"/>
<text text-anchor="middle" x="170" y="-45.5" font-family="Helvetica,sans-Serif" font-size="10.00">vc_put</text>
</a>
</g>
</g>
<!-- Node1&#45;&gt;Node11 -->
<g id="edge14" class="edge">
<title>Node1&#45;&gt;Node11</title>
<path fill="none" stroke="midnightblue" d="M424.28,-112.36C415.77,-109.48 406.58,-106.51 398,-104 323.58,-82.25 233.85,-61.78 193.08,-52.79"/>
<polygon fill="midnightblue" stroke="midnightblue" points="423.29,-115.72 433.89,-115.66 425.57,-109.1 423.29,-115.72"/>
</g>
<!-- Node12 -->
<g id="node12" class="node">
<title>Node12</title>
<g id="a_node12"><a xlink:href="vi_8c.html#a3635843354dbb31e3c00efcd5798535a" target="_top" xlink:title=" ">
<polygon fill="white" stroke="black" points="334,-0.5 334,-19.5 398,-19.5 398,-0.5 334,-0.5"/>
<text text-anchor="middle" x="366" y="-7.5" font-family="Helvetica,sans-Serif" font-size="10.00">vc_replace</text>
</a>
</g>
</g>
<!-- Node1&#45;&gt;Node12 -->
<g id="edge16" class="edge">
<title>Node1&#45;&gt;Node12</title>
<path fill="none" stroke="midnightblue" d="M447.25,-105.43C436.67,-86.29 418.52,-56.2 398,-34 393.1,-28.7 386.95,-23.68 381.41,-19.61"/>
<polygon fill="midnightblue" stroke="midnightblue" points="444.23,-107.2 452.06,-114.34 450.39,-103.87 444.23,-107.2"/>
</g>
<!-- Node2&#45;&gt;Node3 -->
<g id="edge2" class="edge">
<title>Node2&#45;&gt;Node3</title>
<path fill="none" stroke="midnightblue" d="M331.24,-213.29C318.47,-218.32 304.21,-223.94 292.51,-228.55"/>
<polygon fill="midnightblue" stroke="midnightblue" points="332.63,-216.51 340.65,-209.59 330.06,-210 332.63,-216.51"/>
</g>
<!-- Node2&#45;&gt;Node7 -->
<g id="edge6" class="edge">
<title>Node2&#45;&gt;Node7</title>
<path fill="none" stroke="midnightblue" d="M331.32,-186.74C318.65,-181.75 304.5,-176.18 292.84,-171.59"/>
<polygon fill="midnightblue" stroke="midnightblue" points="330.06,-190 340.65,-190.41 332.63,-183.49 330.06,-190"/>
</g>
<!-- Node2&#45;&gt;Node8 -->
<g id="edge8" class="edge">
<title>Node2&#45;&gt;Node8</title>
<path fill="none" stroke="midnightblue" d="M346.99,-183.54C333.8,-171.77 315.26,-155.81 298,-143 293.7,-139.8 288.86,-136.56 284.38,-133.68"/>
<polygon fill="midnightblue" stroke="midnightblue" points="344.68,-186.17 354.45,-190.26 349.37,-180.97 344.68,-186.17"/>
</g>
<!-- Node9 -->
<g id="node9" class="node">
<title>Node9</title>
<g id="a_node9"><a xlink:href="vi_8c.html#a2faedb758580642d391ee8ffae96d3d9" target="_top" xlink:title=" ">
<polygon fill="white" stroke="black" points="242.5,-190.5 242.5,-209.5 292.5,-209.5 292.5,-190.5 242.5,-190.5"/>
<text text-anchor="middle" x="267.5" y="-197.5" font-family="Helvetica,sans-Serif" font-size="10.00">vi_yank</text>
</a>
</g>
</g>
<!-- Node2&#45;&gt;Node9 -->
<g id="edge10" class="edge">
<title>Node2&#45;&gt;Node9</title>
<path fill="none" stroke="midnightblue" d="M323.63,-200C313.11,-200 302.13,-200 292.78,-200"/>
<polygon fill="midnightblue" stroke="midnightblue" points="323.94,-203.5 333.94,-200 323.94,-196.5 323.94,-203.5"/>
</g>
<!-- Node4 -->
<g id="node4" class="node">
<title>Node4</title>
<g id="a_node4"><a xlink:href="vi_8c.html#a06cbc6eb843436a0e77e07cbab0c4538" target="_top" xlink:title=" ">
<polygon fill="white" stroke="black" points="139,-152.5 139,-171.5 201,-171.5 201,-152.5 139,-152.5"/>
<text text-anchor="middle" x="170" y="-159.5" font-family="Helvetica,sans-Serif" font-size="10.00">vc_motion</text>
</a>
</g>
</g>
<!-- Node3&#45;&gt;Node4 -->
<g id="edge3" class="edge">
<title>Node3&#45;&gt;Node4</title>
<path fill="none" stroke="midnightblue" d="M242.01,-222.61C240.29,-221.41 238.61,-220.2 237,-219 216.39,-203.58 194.05,-183.51 181.36,-171.76"/>
<polygon fill="midnightblue" stroke="midnightblue" points="240.35,-225.7 250.61,-228.34 244.23,-219.88 240.35,-225.7"/>
</g>
<!-- Node5 -->
<g id="node5" class="node">
<title>Node5</title>
<g id="a_node5"><a xlink:href="vi_8c.html#a8d808e0f3453afe6600673ee1ea5f828" target="_top" xlink:title=" ">
<polygon fill="white" stroke="black" points="74,-57.5 74,-76.5 103,-76.5 103,-57.5 74,-57.5"/>
<text text-anchor="middle" x="88.5" y="-64.5" font-family="Helvetica,sans-Serif" font-size="10.00">vi</text>
</a>
</g>
</g>
<!-- Node4&#45;&gt;Node5 -->
<g id="edge4" class="edge">
<title>Node4&#45;&gt;Node5</title>
<path fill="none" stroke="midnightblue" d="M154.3,-144.43C137.57,-124.44 110.84,-92.5 97.55,-76.61"/>
<polygon fill="midnightblue" stroke="midnightblue" points="151.69,-146.77 160.79,-152.19 157.06,-142.28 151.69,-146.77"/>
</g>
<!-- Node6 -->
<g id="node6" class="node">
<title>Node6</title>
<g id="a_node6"><a xlink:href="vi_8c.html#a0ddf1224851353fc92bfbff6f499fa97" target="_top" xlink:title=" ">
<polygon fill="white" stroke="black" points="0,-57.5 0,-76.5 38,-76.5 38,-57.5 0,-57.5"/>
<text text-anchor="middle" x="19" y="-64.5" font-family="Helvetica,sans-Serif" font-size="10.00">main</text>
</a>
</g>
</g>
<!-- Node5&#45;&gt;Node6 -->
<g id="edge5" class="edge">
<title>Node5&#45;&gt;Node6</title>
<path fill="none" stroke="midnightblue" d="M63.58,-67C55.25,-67 46.04,-67 38.25,-67"/>
<polygon fill="midnightblue" stroke="midnightblue" points="63.84,-70.5 73.84,-67 63.84,-63.5 63.84,-70.5"/>
</g>
<!-- Node7&#45;&gt;Node4 -->
<g id="edge7" class="edge">
<title>Node7&#45;&gt;Node4</title>
<path fill="none" stroke="midnightblue" d="M226.6,-162C218.04,-162 209.12,-162 201,-162"/>
<polygon fill="midnightblue" stroke="midnightblue" points="226.81,-165.5 236.81,-162 226.81,-158.5 226.81,-165.5"/>
</g>
<!-- Node8&#45;&gt;Node4 -->
<g id="edge9" class="edge">
<title>Node8&#45;&gt;Node4</title>
<path fill="none" stroke="midnightblue" d="M232.79,-137.41C220.35,-142.36 206.51,-147.87 195.09,-152.41"/>
<polygon fill="midnightblue" stroke="midnightblue" points="234.4,-140.54 242.4,-133.59 231.82,-134.03 234.4,-140.54"/>
</g>
<!-- Node9&#45;&gt;Node4 -->
<g id="edge11" class="edge">
<title>Node9&#45;&gt;Node4</title>
<path fill="none" stroke="midnightblue" d="M232.79,-186.59C220.35,-181.64 206.51,-176.13 195.09,-171.59"/>
<polygon fill="midnightblue" stroke="midnightblue" points="231.82,-189.97 242.4,-190.41 234.4,-183.46 231.82,-189.97"/>
</g>
<!-- Node10&#45;&gt;Node5 -->
<g id="edge13" class="edge">
<title>Node10&#45;&gt;Node5</title>
<path fill="none" stroke="midnightblue" d="M131.67,-77.08C121.54,-74.66 111.19,-72.18 103.28,-70.29"/>
<polygon fill="midnightblue" stroke="midnightblue" points="131.1,-80.54 141.64,-79.46 132.73,-73.73 131.1,-80.54"/>
</g>
<!-- Node11&#45;&gt;Node5 -->
<g id="edge15" class="edge">
<title>Node11&#45;&gt;Node5</title>
<path fill="none" stroke="midnightblue" d="M136.91,-55.67C125.2,-58.47 112.57,-61.49 103.29,-63.7"/>
<polygon fill="midnightblue" stroke="midnightblue" points="137.94,-59.02 146.85,-53.29 136.32,-52.21 137.94,-59.02"/>
</g>
<!-- Node12&#45;&gt;Node5 -->
<g id="edge17" class="edge">
<title>Node12&#45;&gt;Node5</title>
<path fill="none" stroke="midnightblue" d="M323.79,-6.66C277.27,-4.42 200.11,-5.35 139,-29 123.04,-35.18 107.92,-48.21 98.69,-57.27"/>
<polygon fill="midnightblue" stroke="midnightblue" points="323.62,-10.16 333.8,-7.22 324.01,-3.17 323.62,-10.16"/>
</g>
</g>
</svg>
