<?xml version="1.0" encoding="UTF-8" standalone="no"?>
<!DOCTYPE svg PUBLIC "-//W3C//DTD SVG 1.1//EN"
 "http://www.w3.org/Graphics/SVG/1.1/DTD/svg11.dtd">
<!-- Generated by graphviz version 2.44.1 (20200629.0846)
 -->
<!-- Title: led_pos Pages: 1 -->
<svg width="925pt" height="364pt"
 viewBox="0.00 0.00 925.00 363.55" xmlns="http://www.w3.org/2000/svg" xmlns:xlink="http://www.w3.org/1999/xlink">
<g id="graph0" class="graph" transform="scale(1 1) rotate(0) translate(4 359.55)">
<title>led_pos</title>
<polygon fill="white" stroke="transparent" points="-4,4 -4,-359.55 921,-359.55 921,4 -4,4"/>
<!-- Node1 -->
<g id="node1" class="node">
<title>Node1</title>
<g id="a_node1"><a xlink:title=" ">
<polygon fill="#bfbfbf" stroke="black" points="867,-247.5 867,-266.5 917,-266.5 917,-247.5 867,-247.5"/>
<text text-anchor="middle" x="892" y="-254.5" font-family="Helvetica,sans-Serif" font-size="10.00">led_pos</text>
</a>
</g>
</g>
<!-- Node2 -->
<g id="node2" class="node">
<title>Node2</title>
<g id="a_node2"><a xlink:href="led_8c.html#ae938cbff964c214e7e4f6aff4d5ce0f7" target="_top" xlink:title=" ">
<polygon fill="white" stroke="black" points="756,-152.5 756,-171.5 831,-171.5 831,-152.5 756,-152.5"/>
<text text-anchor="middle" x="793.5" y="-159.5" font-family="Helvetica,sans-Serif" font-size="10.00">led_printparts</text>
</a>
</g>
</g>
<!-- Node1&#45;&gt;Node2 -->
<g id="edge1" class="edge">
<title>Node1&#45;&gt;Node2</title>
<path fill="none" stroke="midnightblue" d="M878.08,-238.96C866.71,-223.81 849.17,-202.11 831,-186 824.99,-180.67 817.69,-175.64 811.21,-171.57"/>
<polygon fill="midnightblue" stroke="midnightblue" points="875.28,-241.06 884.02,-247.04 880.91,-236.91 875.28,-241.06"/>
</g>
<!-- Node6 -->
<g id="node6" class="node">
<title>Node6</title>
<g id="a_node6"><a xlink:href="vi_8c.html#a8d808e0f3453afe6600673ee1ea5f828" target="_top" xlink:title=" ">
<polygon fill="white" stroke="black" points="74,-171.5 74,-190.5 103,-190.5 103,-171.5 74,-171.5"/>
<text text-anchor="middle" x="88.5" y="-178.5" font-family="Helvetica,sans-Serif" font-size="10.00">vi</text>
</a>
</g>
</g>
<!-- Node1&#45;&gt;Node6 -->
<g id="edge27" class="edge">
<title>Node1&#45;&gt;Node6</title>
<path fill="none" stroke="midnightblue" d="M856.61,-257C815.01,-257 742.88,-257 681,-257 681,-257 681,-257 266.5,-257 206.98,-257 192.25,-242.6 139,-216 125.07,-209.04 110.7,-198.43 101.06,-190.71"/>
<polygon fill="midnightblue" stroke="midnightblue" points="856.75,-260.5 866.75,-257 856.75,-253.5 856.75,-260.5"/>
</g>
<!-- Node16 -->
<g id="node16" class="node">
<title>Node16</title>
<g id="a_node16"><a xlink:href="vi_8c.html#a57965473297aad4c4333fdd3897c11f3" target="_top" xlink:title=" ">
<polygon fill="white" stroke="black" points="436.5,-171.5 436.5,-190.5 495.5,-190.5 495.5,-171.5 436.5,-171.5"/>
<text text-anchor="middle" x="466" y="-178.5" font-family="Helvetica,sans-Serif" font-size="10.00">vi_prompt</text>
</a>
</g>
</g>
<!-- Node1&#45;&gt;Node16 -->
<g id="edge32" class="edge">
<title>Node1&#45;&gt;Node16</title>
<path fill="none" stroke="midnightblue" d="M856.92,-248.67C848.47,-246.71 839.42,-244.7 831,-243 706.89,-217.97 557.63,-194.66 495.89,-185.31"/>
<polygon fill="midnightblue" stroke="midnightblue" points="856.31,-252.12 866.84,-251.01 857.91,-245.31 856.31,-252.12"/>
</g>
<!-- Node20 -->
<g id="node20" class="node">
<title>Node20</title>
<g id="a_node20"><a xlink:href="vi_8c.html#a2b620fa68325e1b708f07af90f50c3d8" target="_top" xlink:title=" ">
<polygon fill="white" stroke="black" points="429,-323.5 429,-342.5 503,-342.5 503,-323.5 429,-323.5"/>
<text text-anchor="middle" x="466" y="-330.5" font-family="Helvetica,sans-Serif" font-size="10.00">vi_drawagain</text>
</a>
</g>
</g>
<!-- Node1&#45;&gt;Node20 -->
<g id="edge28" class="edge">
<title>Node1&#45;&gt;Node20</title>
<path fill="none" stroke="midnightblue" d="M868.35,-272.06C857.45,-278.72 843.96,-286.12 831,-291 717.13,-333.85 570.25,-336.12 503.23,-334.52"/>
<polygon fill="midnightblue" stroke="midnightblue" points="870.24,-275.01 876.83,-266.72 866.5,-269.09 870.24,-275.01"/>
</g>
<!-- Node21 -->
<g id="node21" class="node">
<title>Node21</title>
<g id="a_node21"><a xlink:href="vi_8c.html#a9896bc9688f6102408f66aa0ad7e64f9" target="_top" xlink:title=" ">
<polygon fill="white" stroke="black" points="640,-285.5 640,-304.5 720,-304.5 720,-285.5 640,-285.5"/>
<text text-anchor="middle" x="680" y="-292.5" font-family="Helvetica,sans-Serif" font-size="10.00">vi_drawupdate</text>
</a>
</g>
</g>
<!-- Node1&#45;&gt;Node21 -->
<g id="edge30" class="edge">
<title>Node1&#45;&gt;Node21</title>
<path fill="none" stroke="midnightblue" d="M856.93,-265.39C848.48,-267.35 839.43,-269.34 831,-271 793.61,-278.34 750.63,-285.04 720.3,-289.49"/>
<polygon fill="midnightblue" stroke="midnightblue" points="857.93,-268.75 866.85,-263.04 856.32,-261.94 857.93,-268.75"/>
</g>
<!-- Node3 -->
<g id="node3" class="node">
<title>Node3</title>
<g id="a_node3"><a xlink:href="vi_8h.html#ae72255a31cec31233723c101d9465d07" target="_top" xlink:title=" ">
<polygon fill="white" stroke="black" points="543.5,-114.5 543.5,-133.5 599.5,-133.5 599.5,-114.5 543.5,-114.5"/>
<text text-anchor="middle" x="571.5" y="-121.5" font-family="Helvetica,sans-Serif" font-size="10.00">led_input</text>
</a>
</g>
</g>
<!-- Node2&#45;&gt;Node3 -->
<g id="edge2" class="edge">
<title>Node2&#45;&gt;Node3</title>
<path fill="none" stroke="midnightblue" d="M749.94,-149.88C740.16,-147.36 729.76,-144.9 720,-143 678.31,-134.89 629.29,-129.36 599.58,-126.44"/>
<polygon fill="midnightblue" stroke="midnightblue" points="749.3,-153.33 759.86,-152.5 751.09,-146.56 749.3,-153.33"/>
</g>
<!-- Node10 -->
<g id="node10" class="node">
<title>Node10</title>
<g id="a_node10"><a xlink:href="led_8c.html#a617ec615e86687b5c10df33b271256c8" target="_top" xlink:title=" ">
<polygon fill="white" stroke="black" points="655,-152.5 655,-171.5 705,-171.5 705,-152.5 655,-152.5"/>
<text text-anchor="middle" x="680" y="-159.5" font-family="Helvetica,sans-Serif" font-size="10.00">led_line</text>
</a>
</g>
</g>
<!-- Node2&#45;&gt;Node10 -->
<g id="edge10" class="edge">
<title>Node2&#45;&gt;Node10</title>
<path fill="none" stroke="midnightblue" d="M745.59,-162C731.71,-162 717.09,-162 705.28,-162"/>
<polygon fill="midnightblue" stroke="midnightblue" points="745.99,-165.5 755.99,-162 745.99,-158.5 745.99,-165.5"/>
</g>
<!-- Node4 -->
<g id="node4" class="node">
<title>Node4</title>
<g id="a_node4"><a xlink:href="vi_8c.html#a653f6b0359cef492e11f404c4bf469b9" target="_top" xlink:title=" ">
<polygon fill="white" stroke="black" points="338.5,-57.5 338.5,-76.5 388.5,-76.5 388.5,-57.5 338.5,-57.5"/>
<text text-anchor="middle" x="363.5" y="-64.5" font-family="Helvetica,sans-Serif" font-size="10.00">vi_input</text>
</a>
</g>
</g>
<!-- Node3&#45;&gt;Node4 -->
<g id="edge3" class="edge">
<title>Node3&#45;&gt;Node4</title>
<path fill="none" stroke="midnightblue" d="M545.3,-109.56C532.9,-103.02 517.54,-95.71 503,-91 464,-78.37 416.54,-71.98 388.52,-69.08"/>
<polygon fill="midnightblue" stroke="midnightblue" points="543.67,-112.66 554.13,-114.36 547.01,-106.51 543.67,-112.66"/>
</g>
<!-- Node5 -->
<g id="node5" class="node">
<title>Node5</title>
<g id="a_node5"><a xlink:href="vi_8c.html#a8bb357a77ed61da8858f138c6fa672a6" target="_top" xlink:title=" ">
<polygon fill="white" stroke="black" points="239.5,-0.5 239.5,-19.5 295.5,-19.5 295.5,-0.5 239.5,-0.5"/>
<text text-anchor="middle" x="267.5" y="-7.5" font-family="Helvetica,sans-Serif" font-size="10.00">vc_insert</text>
</a>
</g>
</g>
<!-- Node4&#45;&gt;Node5 -->
<g id="edge4" class="edge">
<title>Node4&#45;&gt;Node5</title>
<path fill="none" stroke="midnightblue" d="M337.73,-51.98C320.77,-41.7 298.8,-28.38 284.21,-19.53"/>
<polygon fill="midnightblue" stroke="midnightblue" points="336.19,-55.14 346.55,-57.33 339.82,-49.15 336.19,-55.14"/>
</g>
<!-- Node8 -->
<g id="node8" class="node">
<title>Node8</title>
<g id="a_node8"><a xlink:href="vi_8c.html#ae37b094c3bb647d8c1a4ac4e858ce518" target="_top" xlink:title=" ">
<polygon fill="white" stroke="black" points="237,-95.5 237,-114.5 298,-114.5 298,-95.5 237,-95.5"/>
<text text-anchor="middle" x="267.5" y="-102.5" font-family="Helvetica,sans-Serif" font-size="10.00">vi_change</text>
</a>
</g>
</g>
<!-- Node4&#45;&gt;Node8 -->
<g id="edge7" class="edge">
<title>Node4&#45;&gt;Node8</title>
<path fill="none" stroke="midnightblue" d="M329.32,-80.41C317.08,-85.36 303.46,-90.87 292.21,-95.41"/>
<polygon fill="midnightblue" stroke="midnightblue" points="330.82,-83.58 338.78,-76.59 328.2,-77.09 330.82,-83.58"/>
</g>
<!-- Node5&#45;&gt;Node6 -->
<g id="edge5" class="edge">
<title>Node5&#45;&gt;Node6</title>
<path fill="none" stroke="midnightblue" d="M229.16,-12.33C201.1,-15.97 163.45,-25.12 139,-48 102.12,-82.5 92.56,-147.03 90.22,-171.38"/>
<polygon fill="midnightblue" stroke="midnightblue" points="229.84,-15.78 239.39,-11.19 229.07,-8.82 229.84,-15.78"/>
</g>
<!-- Node7 -->
<g id="node7" class="node">
<title>Node7</title>
<g id="a_node7"><a xlink:href="vi_8c.html#a0ddf1224851353fc92bfbff6f499fa97" target="_top" xlink:title=" ">
<polygon fill="white" stroke="black" points="0,-133.5 0,-152.5 38,-152.5 38,-133.5 0,-133.5"/>
<text text-anchor="middle" x="19" y="-140.5" font-family="Helvetica,sans-Serif" font-size="10.00">main</text>
</a>
</g>
</g>
<!-- Node6&#45;&gt;Node7 -->
<g id="edge6" class="edge">
<title>Node6&#45;&gt;Node7</title>
<path fill="none" stroke="midnightblue" d="M64.91,-168.28C55.8,-163.15 45.45,-157.33 36.99,-152.57"/>
<polygon fill="midnightblue" stroke="midnightblue" points="63.41,-171.45 73.84,-173.31 66.84,-165.35 63.41,-171.45"/>
</g>
<!-- Node9 -->
<g id="node9" class="node">
<title>Node9</title>
<g id="a_node9"><a xlink:href="vi_8c.html#a06cbc6eb843436a0e77e07cbab0c4538" target="_top" xlink:title=" ">
<polygon fill="white" stroke="black" points="139,-133.5 139,-152.5 201,-152.5 201,-133.5 139,-133.5"/>
<text text-anchor="middle" x="170" y="-140.5" font-family="Helvetica,sans-Serif" font-size="10.00">vc_motion</text>
</a>
</g>
</g>
<!-- Node8&#45;&gt;Node9 -->
<g id="edge8" class="edge">
<title>Node8&#45;&gt;Node9</title>
<path fill="none" stroke="midnightblue" d="M232.79,-118.41C220.35,-123.36 206.51,-128.87 195.09,-133.41"/>
<polygon fill="midnightblue" stroke="midnightblue" points="234.4,-121.54 242.4,-114.59 231.82,-115.03 234.4,-121.54"/>
</g>
<!-- Node9&#45;&gt;Node6 -->
<g id="edge9" class="edge">
<title>Node9&#45;&gt;Node6</title>
<path fill="none" stroke="midnightblue" d="M139.72,-157C127.16,-163 113.1,-169.72 103.05,-174.52"/>
<polygon fill="midnightblue" stroke="midnightblue" points="141.43,-160.06 148.94,-152.59 138.41,-153.74 141.43,-160.06"/>
</g>
<!-- Node10&#45;&gt;Node3 -->
<g id="edge11" class="edge">
<title>Node10&#45;&gt;Node3</title>
<path fill="none" stroke="midnightblue" d="M645.01,-149.87C630.19,-144.58 613.07,-138.48 599.19,-133.52"/>
<polygon fill="midnightblue" stroke="midnightblue" points="644.24,-153.31 654.83,-153.38 646.59,-146.72 644.24,-153.31"/>
</g>
<!-- Node11 -->
<g id="node11" class="node">
<title>Node11</title>
<g id="a_node11"><a xlink:href="vi_8h.html#a173bb468e1e2a066136316f98b49c108" target="_top" xlink:title=" ">
<polygon fill="white" stroke="black" points="539,-152.5 539,-171.5 604,-171.5 604,-152.5 539,-152.5"/>
<text text-anchor="middle" x="571.5" y="-159.5" font-family="Helvetica,sans-Serif" font-size="10.00">led_prompt</text>
</a>
</g>
</g>
<!-- Node10&#45;&gt;Node11 -->
<g id="edge12" class="edge">
<title>Node10&#45;&gt;Node11</title>
<path fill="none" stroke="midnightblue" d="M644.45,-162C631.52,-162 616.91,-162 604.25,-162"/>
<polygon fill="midnightblue" stroke="midnightblue" points="644.83,-165.5 654.83,-162 644.83,-158.5 644.83,-165.5"/>
</g>
<!-- Node12 -->
<g id="node12" class="node">
<title>Node12</title>
<g id="a_node12"><a xlink:href="vi_8h.html#a7ba56272fe1a7d523192729a0bb5edf7" target="_top" xlink:title=" ">
<polygon fill="white" stroke="black" points="242,-57.5 242,-76.5 293,-76.5 293,-57.5 242,-57.5"/>
<text text-anchor="middle" x="267.5" y="-64.5" font-family="Helvetica,sans-Serif" font-size="10.00">ex_read</text>
</a>
</g>
</g>
<!-- Node11&#45;&gt;Node12 -->
<g id="edge13" class="edge">
<title>Node11&#45;&gt;Node12</title>
<path fill="none" stroke="midnightblue" d="M530.51,-149.42C467.11,-129.48 345.39,-91.19 293.22,-74.78"/>
<polygon fill="midnightblue" stroke="midnightblue" points="529.57,-152.79 540.16,-152.46 531.67,-146.12 529.57,-152.79"/>
</g>
<!-- Node11&#45;&gt;Node16 -->
<g id="edge19" class="edge">
<title>Node11&#45;&gt;Node16</title>
<path fill="none" stroke="midnightblue" d="M528.88,-169.64C517.71,-171.69 505.89,-173.86 495.61,-175.75"/>
<polygon fill="midnightblue" stroke="midnightblue" points="529.68,-173.05 538.88,-167.8 528.42,-166.17 529.68,-173.05"/>
</g>
<!-- Node13 -->
<g id="node13" class="node">
<title>Node13</title>
<g id="a_node13"><a xlink:href="ex_8c.html#a0908784dc65be2da119a6b72ef96dec2" target="_top" xlink:title=" ">
<polygon fill="white" stroke="black" points="142,-57.5 142,-76.5 198,-76.5 198,-57.5 142,-57.5"/>
<text text-anchor="middle" x="170" y="-64.5" font-family="Helvetica,sans-Serif" font-size="10.00">ec_insert</text>
</a>
</g>
</g>
<!-- Node12&#45;&gt;Node13 -->
<g id="edge14" class="edge">
<title>Node12&#45;&gt;Node13</title>
<path fill="none" stroke="midnightblue" d="M231.71,-67C220.67,-67 208.63,-67 198.2,-67"/>
<polygon fill="midnightblue" stroke="midnightblue" points="231.91,-70.5 241.91,-67 231.91,-63.5 231.91,-70.5"/>
</g>
<!-- Node14 -->
<g id="node14" class="node">
<title>Node14</title>
<g id="a_node14"><a xlink:href="vi_8h.html#ac395e51f25330a6e6033b6d0d22b2076" target="_top" xlink:title=" ">
<polygon fill="white" stroke="black" points="74,-57.5 74,-76.5 103,-76.5 103,-57.5 74,-57.5"/>
<text text-anchor="middle" x="88.5" y="-64.5" font-family="Helvetica,sans-Serif" font-size="10.00">ex</text>
</a>
</g>
</g>
<!-- Node12&#45;&gt;Node14 -->
<g id="edge15" class="edge">
<title>Node12&#45;&gt;Node14</title>
<path fill="none" stroke="midnightblue" d="M232.4,-55.14C222.4,-52.2 211.37,-49.47 201,-48 173.72,-44.12 166.09,-42.98 139,-48 126.51,-50.31 113.1,-55.66 103.39,-60.09"/>
<polygon fill="midnightblue" stroke="midnightblue" points="231.39,-58.49 241.98,-58.1 233.46,-51.8 231.39,-58.49"/>
</g>
<!-- Node15 -->
<g id="node15" class="node">
<title>Node15</title>
<g id="a_node15"><a xlink:href="vi_8c.html#a9d85e9ed087401367529ab86a5dbf0c5" target="_top" xlink:title=" ">
<polygon fill="white" stroke="black" points="146.5,-95.5 146.5,-114.5 193.5,-114.5 193.5,-95.5 146.5,-95.5"/>
<text text-anchor="middle" x="170" y="-102.5" font-family="Helvetica,sans-Serif" font-size="10.00">vi_wait</text>
</a>
</g>
</g>
<!-- Node12&#45;&gt;Node15 -->
<g id="edge17" class="edge">
<title>Node12&#45;&gt;Node15</title>
<path fill="none" stroke="midnightblue" d="M232.87,-80.38C219.93,-85.53 205.46,-91.29 193.78,-95.94"/>
<polygon fill="midnightblue" stroke="midnightblue" points="234.4,-83.54 242.4,-76.59 231.82,-77.03 234.4,-83.54"/>
</g>
<!-- Node14&#45;&gt;Node7 -->
<g id="edge16" class="edge">
<title>Node14&#45;&gt;Node7</title>
<path fill="none" stroke="midnightblue" d="M72.15,-84.29C58.71,-99.42 39.66,-120.87 28.69,-133.21"/>
<polygon fill="midnightblue" stroke="midnightblue" points="74.93,-86.43 78.95,-76.63 69.69,-81.78 74.93,-86.43"/>
</g>
<!-- Node15&#45;&gt;Node6 -->
<g id="edge18" class="edge">
<title>Node15&#45;&gt;Node6</title>
<path fill="none" stroke="midnightblue" d="M143.25,-120.59C141.78,-121.7 140.35,-122.84 139,-124 121.91,-138.7 105.44,-159.38 96.47,-171.36"/>
<polygon fill="midnightblue" stroke="midnightblue" points="145.64,-123.19 151.89,-114.63 141.67,-117.43 145.64,-123.19"/>
</g>
<!-- Node16&#45;&gt;Node6 -->
<g id="edge20" class="edge">
<title>Node16&#45;&gt;Node6</title>
<path fill="none" stroke="midnightblue" d="M426.31,-181C344.21,-181 155.82,-181 103.31,-181"/>
<polygon fill="midnightblue" stroke="midnightblue" points="426.47,-184.5 436.47,-181 426.47,-177.5 426.47,-184.5"/>
</g>
<!-- Node17 -->
<g id="node17" class="node">
<title>Node17</title>
<g id="a_node17"><a xlink:href="vi_8c.html#ab8e0c9b9d2ef5161c6a3a8828606df5f" target="_top" xlink:title=" ">
<polygon fill="white" stroke="black" points="340,-133.5 340,-152.5 387,-152.5 387,-133.5 340,-133.5"/>
<text text-anchor="middle" x="363.5" y="-140.5" font-family="Helvetica,sans-Serif" font-size="10.00">vi_pipe</text>
</a>
</g>
</g>
<!-- Node16&#45;&gt;Node17 -->
<g id="edge21" class="edge">
<title>Node16&#45;&gt;Node17</title>
<path fill="none" stroke="midnightblue" d="M430.13,-167.81C415.87,-162.42 399.79,-156.34 387.11,-151.55"/>
<polygon fill="midnightblue" stroke="midnightblue" points="429.05,-171.15 439.64,-171.41 431.52,-164.6 429.05,-171.15"/>
</g>
<!-- Node18 -->
<g id="node18" class="node">
<title>Node18</title>
<g id="a_node18"><a xlink:href="vi_8c.html#a93701c59617d4f96cbaa207e89178f87" target="_top" xlink:title=" ">
<polygon fill="white" stroke="black" points="334,-209.5 334,-228.5 393,-228.5 393,-209.5 334,-209.5"/>
<text text-anchor="middle" x="363.5" y="-216.5" font-family="Helvetica,sans-Serif" font-size="10.00">vi_search</text>
</a>
</g>
</g>
<!-- Node16&#45;&gt;Node18 -->
<g id="edge23" class="edge">
<title>Node16&#45;&gt;Node18</title>
<path fill="none" stroke="midnightblue" d="M429.92,-194.26C416.72,-199.25 401.99,-204.82 389.85,-209.41"/>
<polygon fill="midnightblue" stroke="midnightblue" points="431.52,-197.4 439.64,-190.59 429.05,-190.85 431.52,-197.4"/>
</g>
<!-- Node17&#45;&gt;Node9 -->
<g id="edge22" class="edge">
<title>Node17&#45;&gt;Node9</title>
<path fill="none" stroke="midnightblue" d="M329.78,-143C293.74,-143 236.26,-143 201.24,-143"/>
<polygon fill="midnightblue" stroke="midnightblue" points="329.78,-146.5 339.78,-143 329.78,-139.5 329.78,-146.5"/>
</g>
<!-- Node19 -->
<g id="node19" class="node">
<title>Node19</title>
<g id="a_node19"><a xlink:href="vi_8c.html#aaa4777ea0715ea846346d0f27a0cfa3f" target="_top" xlink:title=" ">
<polygon fill="white" stroke="black" points="238,-209.5 238,-228.5 297,-228.5 297,-209.5 238,-209.5"/>
<text text-anchor="middle" x="267.5" y="-216.5" font-family="Helvetica,sans-Serif" font-size="10.00">vi_motion</text>
</a>
</g>
</g>
<!-- Node18&#45;&gt;Node19 -->
<g id="edge24" class="edge">
<title>Node18&#45;&gt;Node19</title>
<path fill="none" stroke="midnightblue" d="M323.6,-219C314.71,-219 305.41,-219 297.04,-219"/>
<polygon fill="midnightblue" stroke="midnightblue" points="323.79,-222.5 333.79,-219 323.79,-215.5 323.79,-222.5"/>
</g>
<!-- Node19&#45;&gt;Node6 -->
<g id="edge26" class="edge">
<title>Node19&#45;&gt;Node6</title>
<path fill="none" stroke="midnightblue" d="M228.01,-212.68C202.62,-208.28 168.68,-201.98 139,-195 126.83,-192.14 113.17,-188.22 103.28,-185.26"/>
<polygon fill="midnightblue" stroke="midnightblue" points="227.54,-216.15 237.99,-214.39 228.72,-209.25 227.54,-216.15"/>
</g>
<!-- Node19&#45;&gt;Node9 -->
<g id="edge25" class="edge">
<title>Node19&#45;&gt;Node9</title>
<path fill="none" stroke="midnightblue" d="M246.56,-203.13C227.35,-187.85 198.95,-165.24 183,-152.55"/>
<polygon fill="midnightblue" stroke="midnightblue" points="244.4,-205.89 254.4,-209.37 248.76,-200.41 244.4,-205.89"/>
</g>
<!-- Node20&#45;&gt;Node6 -->
<g id="edge29" class="edge">
<title>Node20&#45;&gt;Node6</title>
<path fill="none" stroke="midnightblue" d="M418.93,-343.73C350.61,-356.8 221.62,-370.22 139,-309 99.75,-279.92 91.62,-215.33 89.94,-190.75"/>
<polygon fill="midnightblue" stroke="midnightblue" points="419.83,-347.12 428.96,-341.73 418.47,-340.25 419.83,-347.12"/>
</g>
<!-- Node21&#45;&gt;Node6 -->
<g id="edge31" class="edge">
<title>Node21&#45;&gt;Node6</title>
<path fill="none" stroke="midnightblue" d="M629.74,-295C586.78,-295 522.76,-295 467,-295 467,-295 467,-295 266.5,-295 208.84,-295 185.69,-304.83 139,-271 110.99,-250.7 97,-209.48 91.87,-190.71"/>
<polygon fill="midnightblue" stroke="midnightblue" points="629.93,-298.5 639.93,-295 629.93,-291.5 629.93,-298.5"/>
</g>
</g>
</svg>
