<?xml version="1.0" encoding="UTF-8" standalone="no"?>
<!DOCTYPE svg PUBLIC "-//W3C//DTD SVG 1.1//EN"
 "http://www.w3.org/Graphics/SVG/1.1/DTD/svg11.dtd">
<!-- Generated by graphviz version 2.44.1 (20200629.0846)
 -->
<!-- Title: term_record Pages: 1 -->
<svg width="943pt" height="356pt"
 viewBox="0.00 0.00 943.00 355.55" xmlns="http://www.w3.org/2000/svg" xmlns:xlink="http://www.w3.org/1999/xlink">
<g id="graph0" class="graph" transform="scale(1 1) rotate(0) translate(4 351.55)">
<title>term_record</title>
<polygon fill="white" stroke="transparent" points="-4,4 -4,-351.55 939,-351.55 939,4 -4,4"/>
<!-- Node1 -->
<g id="node1" class="node">
<title>Node1</title>
<g id="a_node1"><a xlink:title=" ">
<polygon fill="#bfbfbf" stroke="black" points="867,-277.84 867,-296.84 935,-296.84 935,-277.84 867,-277.84"/>
<text text-anchor="middle" x="901" y="-284.84" font-family="Helvetica,sans-Serif" font-size="10.00">term_record</text>
</a>
</g>
</g>
<!-- Node2 -->
<g id="node2" class="node">
<title>Node2</title>
<g id="a_node2"><a xlink:href="led_8c.html#ae938cbff964c214e7e4f6aff4d5ce0f7" target="_top" xlink:title=" ">
<polygon fill="white" stroke="black" points="756,-230.84 756,-249.84 831,-249.84 831,-230.84 756,-230.84"/>
<text text-anchor="middle" x="793.5" y="-237.84" font-family="Helvetica,sans-Serif" font-size="10.00">led_printparts</text>
</a>
</g>
</g>
<!-- Node1&#45;&gt;Node2 -->
<g id="edge1" class="edge">
<title>Node1&#45;&gt;Node2</title>
<path fill="none" stroke="midnightblue" d="M869.14,-273.59C852.14,-266.02 831.46,-256.81 816.18,-250"/>
<polygon fill="midnightblue" stroke="midnightblue" points="868.09,-276.96 878.65,-277.83 870.94,-270.56 868.09,-276.96"/>
</g>
<!-- Node20 -->
<g id="node20" class="node">
<title>Node20</title>
<g id="a_node20"><a xlink:href="vi_8c.html#a2b620fa68325e1b708f07af90f50c3d8" target="_top" xlink:title=" ">
<polygon fill="white" stroke="black" points="429,-315.84 429,-334.84 503,-334.84 503,-315.84 429,-315.84"/>
<text text-anchor="middle" x="466" y="-322.84" font-family="Helvetica,sans-Serif" font-size="10.00">vi_drawagain</text>
</a>
</g>
</g>
<!-- Node1&#45;&gt;Node20 -->
<g id="edge27" class="edge">
<title>Node1&#45;&gt;Node20</title>
<path fill="none" stroke="midnightblue" d="M856.98,-297C848.41,-298.66 839.45,-300.21 831,-301.34 711.58,-317.32 568.62,-322.81 503.07,-324.57"/>
<polygon fill="midnightblue" stroke="midnightblue" points="857.7,-300.42 866.81,-295.02 856.32,-293.56 857.7,-300.42"/>
</g>
<!-- Node21 -->
<g id="node21" class="node">
<title>Node21</title>
<g id="a_node21"><a xlink:href="vi_8c.html#a9896bc9688f6102408f66aa0ad7e64f9" target="_top" xlink:title=" ">
<polygon fill="white" stroke="black" points="640,-277.84 640,-296.84 720,-296.84 720,-277.84 640,-277.84"/>
<text text-anchor="middle" x="680" y="-284.84" font-family="Helvetica,sans-Serif" font-size="10.00">vi_drawupdate</text>
</a>
</g>
</g>
<!-- Node1&#45;&gt;Node21 -->
<g id="edge29" class="edge">
<title>Node1&#45;&gt;Node21</title>
<path fill="none" stroke="midnightblue" d="M856.55,-287.34C816.79,-287.34 758.48,-287.34 720.14,-287.34"/>
<polygon fill="midnightblue" stroke="midnightblue" points="856.74,-290.84 866.74,-287.34 856.74,-283.84 856.74,-290.84"/>
</g>
<!-- Node3 -->
<g id="node3" class="node">
<title>Node3</title>
<g id="a_node3"><a xlink:href="vi_8h.html#ae72255a31cec31233723c101d9465d07" target="_top" xlink:title=" ">
<polygon fill="white" stroke="black" points="543.5,-220.84 543.5,-239.84 599.5,-239.84 599.5,-220.84 543.5,-220.84"/>
<text text-anchor="middle" x="571.5" y="-227.84" font-family="Helvetica,sans-Serif" font-size="10.00">led_input</text>
</a>
</g>
</g>
<!-- Node2&#45;&gt;Node3 -->
<g id="edge2" class="edge">
<title>Node2&#45;&gt;Node3</title>
<path fill="none" stroke="midnightblue" d="M745.42,-238.2C701.04,-236.19 636.06,-233.23 599.7,-231.58"/>
<polygon fill="midnightblue" stroke="midnightblue" points="745.53,-241.71 755.68,-238.67 745.85,-234.72 745.53,-241.71"/>
</g>
<!-- Node10 -->
<g id="node10" class="node">
<title>Node10</title>
<g id="a_node10"><a xlink:href="led_8c.html#a617ec615e86687b5c10df33b271256c8" target="_top" xlink:title=" ">
<polygon fill="white" stroke="black" points="655,-192.84 655,-211.84 705,-211.84 705,-192.84 655,-192.84"/>
<text text-anchor="middle" x="680" y="-199.84" font-family="Helvetica,sans-Serif" font-size="10.00">led_line</text>
</a>
</g>
</g>
<!-- Node2&#45;&gt;Node10 -->
<g id="edge10" class="edge">
<title>Node2&#45;&gt;Node10</title>
<path fill="none" stroke="midnightblue" d="M754.58,-227.42C738.29,-221.87 719.74,-215.55 705.34,-210.64"/>
<polygon fill="midnightblue" stroke="midnightblue" points="753.77,-230.84 764.36,-230.75 756.03,-224.21 753.77,-230.84"/>
</g>
<!-- Node4 -->
<g id="node4" class="node">
<title>Node4</title>
<g id="a_node4"><a xlink:href="vi_8c.html#a653f6b0359cef492e11f404c4bf469b9" target="_top" xlink:title=" ">
<polygon fill="white" stroke="black" points="338.5,-220.84 338.5,-239.84 388.5,-239.84 388.5,-220.84 338.5,-220.84"/>
<text text-anchor="middle" x="363.5" y="-227.84" font-family="Helvetica,sans-Serif" font-size="10.00">vi_input</text>
</a>
</g>
</g>
<!-- Node3&#45;&gt;Node4 -->
<g id="edge3" class="edge">
<title>Node3&#45;&gt;Node4</title>
<path fill="none" stroke="midnightblue" d="M533.05,-230.34C491.11,-230.34 424.37,-230.34 388.76,-230.34"/>
<polygon fill="midnightblue" stroke="midnightblue" points="533.14,-233.84 543.14,-230.34 533.14,-226.84 533.14,-233.84"/>
</g>
<!-- Node5 -->
<g id="node5" class="node">
<title>Node5</title>
<g id="a_node5"><a xlink:href="vi_8c.html#a8bb357a77ed61da8858f138c6fa672a6" target="_top" xlink:title=" ">
<polygon fill="white" stroke="black" points="239.5,-239.84 239.5,-258.84 295.5,-258.84 295.5,-239.84 239.5,-239.84"/>
<text text-anchor="middle" x="267.5" y="-246.84" font-family="Helvetica,sans-Serif" font-size="10.00">vc_insert</text>
</a>
</g>
</g>
<!-- Node4&#45;&gt;Node5 -->
<g id="edge4" class="edge">
<title>Node4&#45;&gt;Node5</title>
<path fill="none" stroke="midnightblue" d="M328.34,-237.25C317.57,-239.42 305.82,-241.8 295.61,-243.86"/>
<polygon fill="midnightblue" stroke="midnightblue" points="329.18,-240.65 338.29,-235.24 327.8,-233.79 329.18,-240.65"/>
</g>
<!-- Node8 -->
<g id="node8" class="node">
<title>Node8</title>
<g id="a_node8"><a xlink:href="vi_8c.html#ae37b094c3bb647d8c1a4ac4e858ce518" target="_top" xlink:title=" ">
<polygon fill="white" stroke="black" points="237,-201.84 237,-220.84 298,-220.84 298,-201.84 237,-201.84"/>
<text text-anchor="middle" x="267.5" y="-208.84" font-family="Helvetica,sans-Serif" font-size="10.00">vi_change</text>
</a>
</g>
</g>
<!-- Node4&#45;&gt;Node8 -->
<g id="edge7" class="edge">
<title>Node4&#45;&gt;Node8</title>
<path fill="none" stroke="midnightblue" d="M328.41,-223.45C318.57,-221.46 307.9,-219.31 298.34,-217.37"/>
<polygon fill="midnightblue" stroke="midnightblue" points="327.8,-226.9 338.29,-225.45 329.18,-220.04 327.8,-226.9"/>
</g>
<!-- Node6 -->
<g id="node6" class="node">
<title>Node6</title>
<g id="a_node6"><a xlink:href="vi_8c.html#a8d808e0f3453afe6600673ee1ea5f828" target="_top" xlink:title=" ">
<polygon fill="white" stroke="black" points="74,-168.84 74,-187.84 103,-187.84 103,-168.84 74,-168.84"/>
<text text-anchor="middle" x="88.5" y="-175.84" font-family="Helvetica,sans-Serif" font-size="10.00">vi</text>
</a>
</g>
</g>
<!-- Node5&#45;&gt;Node6 -->
<g id="edge5" class="edge">
<title>Node5&#45;&gt;Node6</title>
<path fill="none" stroke="midnightblue" d="M229.37,-243.8C203.17,-238.93 167.75,-230.37 139,-216.34 124.01,-209.03 109.14,-196.76 99.67,-188.15"/>
<polygon fill="midnightblue" stroke="midnightblue" points="228.82,-247.25 239.28,-245.54 230.04,-240.36 228.82,-247.25"/>
</g>
<!-- Node7 -->
<g id="node7" class="node">
<title>Node7</title>
<g id="a_node7"><a xlink:href="vi_8c.html#a0ddf1224851353fc92bfbff6f499fa97" target="_top" xlink:title=" ">
<polygon fill="white" stroke="black" points="0,-92.84 0,-111.84 38,-111.84 38,-92.84 0,-92.84"/>
<text text-anchor="middle" x="19" y="-99.84" font-family="Helvetica,sans-Serif" font-size="10.00">main</text>
</a>
</g>
</g>
<!-- Node6&#45;&gt;Node7 -->
<g id="edge6" class="edge">
<title>Node6&#45;&gt;Node7</title>
<path fill="none" stroke="midnightblue" d="M72.15,-161.06C58.71,-145.92 39.66,-124.48 28.69,-112.13"/>
<polygon fill="midnightblue" stroke="midnightblue" points="69.69,-163.56 78.95,-168.72 74.93,-158.92 69.69,-163.56"/>
</g>
<!-- Node9 -->
<g id="node9" class="node">
<title>Node9</title>
<g id="a_node9"><a xlink:href="vi_8c.html#a06cbc6eb843436a0e77e07cbab0c4538" target="_top" xlink:title=" ">
<polygon fill="white" stroke="black" points="139,-187.84 139,-206.84 201,-206.84 201,-187.84 139,-187.84"/>
<text text-anchor="middle" x="170" y="-194.84" font-family="Helvetica,sans-Serif" font-size="10.00">vc_motion</text>
</a>
</g>
</g>
<!-- Node8&#45;&gt;Node9 -->
<g id="edge8" class="edge">
<title>Node8&#45;&gt;Node9</title>
<path fill="none" stroke="midnightblue" d="M226.89,-205.54C218.23,-204.27 209.21,-202.94 201,-201.74"/>
<polygon fill="midnightblue" stroke="midnightblue" points="226.4,-209 236.81,-206.99 227.42,-202.08 226.4,-209"/>
</g>
<!-- Node9&#45;&gt;Node6 -->
<g id="edge9" class="edge">
<title>Node9&#45;&gt;Node6</title>
<path fill="none" stroke="midnightblue" d="M128.95,-187.77C119.66,-185.55 110.39,-183.33 103.17,-181.61"/>
<polygon fill="midnightblue" stroke="midnightblue" points="128.4,-191.24 138.94,-190.16 130.03,-184.43 128.4,-191.24"/>
</g>
<!-- Node10&#45;&gt;Node3 -->
<g id="edge11" class="edge">
<title>Node10&#45;&gt;Node3</title>
<path fill="none" stroke="midnightblue" d="M645.09,-211.26C630.38,-215.12 613.41,-219.59 599.57,-223.23"/>
<polygon fill="midnightblue" stroke="midnightblue" points="646.05,-214.62 654.83,-208.7 644.27,-207.85 646.05,-214.62"/>
</g>
<!-- Node11 -->
<g id="node11" class="node">
<title>Node11</title>
<g id="a_node11"><a xlink:href="vi_8h.html#a173bb468e1e2a066136316f98b49c108" target="_top" xlink:title=" ">
<polygon fill="white" stroke="black" points="539,-125.84 539,-144.84 604,-144.84 604,-125.84 539,-125.84"/>
<text text-anchor="middle" x="571.5" y="-132.84" font-family="Helvetica,sans-Serif" font-size="10.00">led_prompt</text>
</a>
</g>
</g>
<!-- Node10&#45;&gt;Node11 -->
<g id="edge12" class="edge">
<title>Node10&#45;&gt;Node11</title>
<path fill="none" stroke="midnightblue" d="M655.22,-187.38C634.59,-174.4 605.35,-156.01 587.73,-144.92"/>
<polygon fill="midnightblue" stroke="midnightblue" points="653.41,-190.38 663.74,-192.74 657.14,-184.46 653.41,-190.38"/>
</g>
<!-- Node12 -->
<g id="node12" class="node">
<title>Node12</title>
<g id="a_node12"><a xlink:href="vi_8h.html#a7ba56272fe1a7d523192729a0bb5edf7" target="_top" xlink:title=" ">
<polygon fill="white" stroke="black" points="242,-33.84 242,-52.84 293,-52.84 293,-33.84 242,-33.84"/>
<text text-anchor="middle" x="267.5" y="-40.84" font-family="Helvetica,sans-Serif" font-size="10.00">ex_read</text>
</a>
</g>
</g>
<!-- Node11&#45;&gt;Node12 -->
<g id="edge13" class="edge">
<title>Node11&#45;&gt;Node12</title>
<path fill="none" stroke="midnightblue" d="M529.33,-122.8C465.69,-103.41 345.35,-66.75 293.41,-50.93"/>
<polygon fill="midnightblue" stroke="midnightblue" points="528.45,-126.19 539.04,-125.76 530.49,-119.49 528.45,-126.19"/>
</g>
<!-- Node16 -->
<g id="node16" class="node">
<title>Node16</title>
<g id="a_node16"><a xlink:href="vi_8c.html#a57965473297aad4c4333fdd3897c11f3" target="_top" xlink:title=" ">
<polygon fill="white" stroke="black" points="436.5,-125.84 436.5,-144.84 495.5,-144.84 495.5,-125.84 436.5,-125.84"/>
<text text-anchor="middle" x="466" y="-132.84" font-family="Helvetica,sans-Serif" font-size="10.00">vi_prompt</text>
</a>
</g>
</g>
<!-- Node11&#45;&gt;Node16 -->
<g id="edge19" class="edge">
<title>Node11&#45;&gt;Node16</title>
<path fill="none" stroke="midnightblue" d="M528.88,-135.34C517.71,-135.34 505.89,-135.34 495.61,-135.34"/>
<polygon fill="midnightblue" stroke="midnightblue" points="528.88,-138.84 538.88,-135.34 528.88,-131.84 528.88,-138.84"/>
</g>
<!-- Node13 -->
<g id="node13" class="node">
<title>Node13</title>
<g id="a_node13"><a xlink:href="ex_8c.html#a0908784dc65be2da119a6b72ef96dec2" target="_top" xlink:title=" ">
<polygon fill="white" stroke="black" points="142,-54.84 142,-73.84 198,-73.84 198,-54.84 142,-54.84"/>
<text text-anchor="middle" x="170" y="-61.84" font-family="Helvetica,sans-Serif" font-size="10.00">ec_insert</text>
</a>
</g>
</g>
<!-- Node12&#45;&gt;Node13 -->
<g id="edge14" class="edge">
<title>Node12&#45;&gt;Node13</title>
<path fill="none" stroke="midnightblue" d="M232.05,-50.92C220.92,-53.37 208.74,-56.04 198.2,-58.36"/>
<polygon fill="midnightblue" stroke="midnightblue" points="232.89,-54.32 241.91,-48.75 231.39,-47.48 232.89,-54.32"/>
</g>
<!-- Node14 -->
<g id="node14" class="node">
<title>Node14</title>
<g id="a_node14"><a xlink:href="vi_8h.html#ac395e51f25330a6e6033b6d0d22b2076" target="_top" xlink:title=" ">
<polygon fill="white" stroke="black" points="74,-73.84 74,-92.84 103,-92.84 103,-73.84 74,-73.84"/>
<text text-anchor="middle" x="88.5" y="-80.84" font-family="Helvetica,sans-Serif" font-size="10.00">ex</text>
</a>
</g>
</g>
<!-- Node12&#45;&gt;Node14 -->
<g id="edge15" class="edge">
<title>Node12&#45;&gt;Node14</title>
<path fill="none" stroke="midnightblue" d="M245.45,-28.09C219.25,-11.15 173.73,11.48 139,-7.34 112.7,-21.6 98.17,-56.56 92.43,-73.64"/>
<polygon fill="midnightblue" stroke="midnightblue" points="243.61,-31.08 253.86,-33.77 247.53,-25.28 243.61,-31.08"/>
</g>
<!-- Node15 -->
<g id="node15" class="node">
<title>Node15</title>
<g id="a_node15"><a xlink:href="vi_8c.html#a9d85e9ed087401367529ab86a5dbf0c5" target="_top" xlink:title=" ">
<polygon fill="white" stroke="black" points="146.5,-16.84 146.5,-35.84 193.5,-35.84 193.5,-16.84 146.5,-16.84"/>
<text text-anchor="middle" x="170" y="-23.84" font-family="Helvetica,sans-Serif" font-size="10.00">vi_wait</text>
</a>
</g>
</g>
<!-- Node12&#45;&gt;Node15 -->
<g id="edge17" class="edge">
<title>Node12&#45;&gt;Node15</title>
<path fill="none" stroke="midnightblue" d="M232.01,-37.2C219.2,-34.92 205.02,-32.4 193.55,-30.36"/>
<polygon fill="midnightblue" stroke="midnightblue" points="231.45,-40.66 241.91,-38.96 232.67,-33.77 231.45,-40.66"/>
</g>
<!-- Node14&#45;&gt;Node7 -->
<g id="edge16" class="edge">
<title>Node14&#45;&gt;Node7</title>
<path fill="none" stroke="midnightblue" d="M64.14,-89.92C55.67,-92.3 46.22,-94.96 38.25,-97.21"/>
<polygon fill="midnightblue" stroke="midnightblue" points="65.16,-93.27 73.84,-87.19 63.27,-86.53 65.16,-93.27"/>
</g>
<!-- Node15&#45;&gt;Node6 -->
<g id="edge18" class="edge">
<title>Node15&#45;&gt;Node6</title>
<path fill="none" stroke="midnightblue" d="M141.68,-42.39C140.73,-43.33 139.83,-44.32 139,-45.34 107.5,-84.19 94.83,-145.06 90.94,-168.6"/>
<polygon fill="midnightblue" stroke="midnightblue" points="144.14,-44.91 149.74,-35.92 139.75,-39.45 144.14,-44.91"/>
</g>
<!-- Node16&#45;&gt;Node6 -->
<g id="edge20" class="edge">
<title>Node16&#45;&gt;Node6</title>
<path fill="none" stroke="midnightblue" d="M426.37,-123.19C415.67,-120.36 403.98,-117.77 393,-116.34 279.94,-101.68 146,-153.82 103.3,-172.18"/>
<polygon fill="midnightblue" stroke="midnightblue" points="425.69,-126.64 436.26,-125.94 427.56,-119.89 425.69,-126.64"/>
</g>
<!-- Node17 -->
<g id="node17" class="node">
<title>Node17</title>
<g id="a_node17"><a xlink:href="vi_8c.html#ab8e0c9b9d2ef5161c6a3a8828606df5f" target="_top" xlink:title=" ">
<polygon fill="white" stroke="black" points="340,-125.84 340,-144.84 387,-144.84 387,-125.84 340,-125.84"/>
<text text-anchor="middle" x="363.5" y="-132.84" font-family="Helvetica,sans-Serif" font-size="10.00">vi_pipe</text>
</a>
</g>
</g>
<!-- Node16&#45;&gt;Node17 -->
<g id="edge21" class="edge">
<title>Node16&#45;&gt;Node17</title>
<path fill="none" stroke="midnightblue" d="M426.16,-135.34C412.92,-135.34 398.56,-135.34 387.03,-135.34"/>
<polygon fill="midnightblue" stroke="midnightblue" points="426.47,-138.84 436.47,-135.34 426.47,-131.84 426.47,-138.84"/>
</g>
<!-- Node18 -->
<g id="node18" class="node">
<title>Node18</title>
<g id="a_node18"><a xlink:href="vi_8c.html#a93701c59617d4f96cbaa207e89178f87" target="_top" xlink:title=" ">
<polygon fill="white" stroke="black" points="334,-163.84 334,-182.84 393,-182.84 393,-163.84 334,-163.84"/>
<text text-anchor="middle" x="363.5" y="-170.84" font-family="Helvetica,sans-Serif" font-size="10.00">vi_search</text>
</a>
</g>
</g>
<!-- Node16&#45;&gt;Node18 -->
<g id="edge23" class="edge">
<title>Node16&#45;&gt;Node18</title>
<path fill="none" stroke="midnightblue" d="M429.92,-148.61C416.72,-153.6 401.99,-159.17 389.85,-163.76"/>
<polygon fill="midnightblue" stroke="midnightblue" points="431.52,-151.74 439.64,-144.93 429.05,-145.19 431.52,-151.74"/>
</g>
<!-- Node17&#45;&gt;Node9 -->
<g id="edge22" class="edge">
<title>Node17&#45;&gt;Node9</title>
<path fill="none" stroke="midnightblue" d="M329.5,-136.51C303.61,-138.33 267.05,-142.9 237,-154.34 216.04,-162.32 194.85,-177.73 182.32,-187.77"/>
<polygon fill="midnightblue" stroke="midnightblue" points="329.78,-140 339.55,-135.91 329.36,-133.02 329.78,-140"/>
</g>
<!-- Node19 -->
<g id="node19" class="node">
<title>Node19</title>
<g id="a_node19"><a xlink:href="vi_8c.html#aaa4777ea0715ea846346d0f27a0cfa3f" target="_top" xlink:title=" ">
<polygon fill="white" stroke="black" points="238,-163.84 238,-182.84 297,-182.84 297,-163.84 238,-163.84"/>
<text text-anchor="middle" x="267.5" y="-170.84" font-family="Helvetica,sans-Serif" font-size="10.00">vi_motion</text>
</a>
</g>
</g>
<!-- Node18&#45;&gt;Node19 -->
<g id="edge24" class="edge">
<title>Node18&#45;&gt;Node19</title>
<path fill="none" stroke="midnightblue" d="M323.6,-173.34C314.71,-173.34 305.41,-173.34 297.04,-173.34"/>
<polygon fill="midnightblue" stroke="midnightblue" points="323.79,-176.84 333.79,-173.34 323.79,-169.84 323.79,-176.84"/>
</g>
<!-- Node19&#45;&gt;Node6 -->
<g id="edge26" class="edge">
<title>Node19&#45;&gt;Node6</title>
<path fill="none" stroke="midnightblue" d="M227.63,-174.44C188.35,-175.55 129.77,-177.2 103.33,-177.95"/>
<polygon fill="midnightblue" stroke="midnightblue" points="227.77,-177.94 237.67,-174.16 227.57,-170.94 227.77,-177.94"/>
</g>
<!-- Node19&#45;&gt;Node9 -->
<g id="edge25" class="edge">
<title>Node19&#45;&gt;Node9</title>
<path fill="none" stroke="midnightblue" d="M228.05,-183C219.15,-185.24 209.79,-187.59 201.29,-189.73"/>
<polygon fill="midnightblue" stroke="midnightblue" points="229,-186.38 237.85,-180.54 227.3,-179.59 229,-186.38"/>
</g>
<!-- Node20&#45;&gt;Node6 -->
<g id="edge28" class="edge">
<title>Node20&#45;&gt;Node6</title>
<path fill="none" stroke="midnightblue" d="M418.77,-335.98C350.51,-348.84 221.93,-361.91 139,-301.34 101.08,-273.65 92.16,-211.98 90.1,-188.08"/>
<polygon fill="midnightblue" stroke="midnightblue" points="419.65,-339.37 428.79,-334.01 418.3,-332.5 419.65,-339.37"/>
</g>
<!-- Node21&#45;&gt;Node6 -->
<g id="edge30" class="edge">
<title>Node21&#45;&gt;Node6</title>
<path fill="none" stroke="midnightblue" d="M629.74,-287.34C586.78,-287.34 522.76,-287.34 467,-287.34 467,-287.34 467,-287.34 266.5,-287.34 206.26,-287.34 187.83,-276.62 139,-241.34 118.93,-226.84 102.84,-202.05 94.9,-188.29"/>
<polygon fill="midnightblue" stroke="midnightblue" points="629.93,-290.84 639.93,-287.34 629.93,-283.84 629.93,-290.84"/>
</g>
</g>
</svg>
