<?xml version="1.0" encoding="UTF-8" standalone="no"?>
<!DOCTYPE svg PUBLIC "-//W3C//DTD SVG 1.1//EN"
 "http://www.w3.org/Graphics/SVG/1.1/DTD/svg11.dtd">
<!-- Generated by graphviz version 2.44.1 (20200629.0846)
 -->
<!-- Title: vi_shift Pages: 1 -->
<svg width="687pt" height="589pt"
 viewBox="0.00 0.00 687.00 588.58" xmlns="http://www.w3.org/2000/svg" xmlns:xlink="http://www.w3.org/1999/xlink">
<g id="graph0" class="graph" transform="scale(1 1) rotate(0) translate(4 584.58)">
<title>vi_shift</title>
<polygon fill="white" stroke="transparent" points="-4,4 -4,-584.58 683,-584.58 683,4 -4,4"/>
<!-- Node1 -->
<g id="node1" class="node">
<title>Node1</title>
<g id="a_node1"><a xlink:title=" ">
<polygon fill="#bfbfbf" stroke="black" points="0,-171.5 0,-190.5 48,-190.5 48,-171.5 0,-171.5"/>
<text text-anchor="middle" x="24" y="-178.5" font-family="Helvetica,sans-Serif" font-size="10.00">vi_shift</text>
</a>
</g>
</g>
<!-- Node2 -->
<g id="node2" class="node">
<title>Node2</title>
<g id="a_node2"><a xlink:href="lbuf_8c.html#ac261b7344d70724c31f360a5dd8e2ffc" target="_top" xlink:title=" ">
<polygon fill="white" stroke="black" points="92,-361.5 92,-380.5 145,-380.5 145,-361.5 92,-361.5"/>
<text text-anchor="middle" x="118.5" y="-368.5" font-family="Helvetica,sans-Serif" font-size="10.00">lbuf_edit</text>
</a>
</g>
</g>
<!-- Node1&#45;&gt;Node2 -->
<g id="edge1" class="edge">
<title>Node1&#45;&gt;Node2</title>
<path fill="none" stroke="midnightblue" d="M29.71,-190.68C44.28,-220.6 88.74,-311.92 108.2,-351.91"/>
<polygon fill="midnightblue" stroke="midnightblue" points="105.16,-353.65 112.68,-361.11 111.45,-350.59 105.16,-353.65"/>
</g>
<!-- Node6 -->
<g id="node6" class="node">
<title>Node6</title>
<g id="a_node6"><a xlink:href="sbuf_8c.html#a4e56760893d5a6797626743840c9adf2" target="_top" xlink:title=" ">
<polygon fill="white" stroke="black" points="515,-266.5 515,-285.5 569,-285.5 569,-266.5 515,-266.5"/>
<text text-anchor="middle" x="542" y="-273.5" font-family="Helvetica,sans-Serif" font-size="10.00">sbuf_buf</text>
</a>
</g>
</g>
<!-- Node1&#45;&gt;Node6 -->
<g id="edge29" class="edge">
<title>Node1&#45;&gt;Node6</title>
<path fill="none" stroke="midnightblue" d="M25.15,-190.86C26.67,-252.31 43.18,-580 222.5,-580 222.5,-580 222.5,-580 335,-580 399.47,-580 429.91,-588.08 475,-542 509.79,-506.44 531.78,-351.47 538.67,-295.91"/>
<polygon fill="midnightblue" stroke="midnightblue" points="542.19,-295.99 539.91,-285.64 535.24,-295.15 542.19,-295.99"/>
</g>
<!-- Node8 -->
<g id="node8" class="node">
<title>Node8</title>
<g id="a_node8"><a xlink:href="sbuf_8c.html#a57748585d6786a2c1aadc2cbe6f2135b" target="_top" xlink:title=" ">
<polygon fill="white" stroke="black" points="410,-228.5 410,-247.5 475,-247.5 475,-228.5 410,-228.5"/>
<text text-anchor="middle" x="442.5" y="-235.5" font-family="Helvetica,sans-Serif" font-size="10.00">sbuf_make</text>
</a>
</g>
</g>
<!-- Node1&#45;&gt;Node8 -->
<g id="edge33" class="edge">
<title>Node1&#45;&gt;Node8</title>
<path fill="none" stroke="midnightblue" d="M48.24,-189.71C58.99,-193.41 72,-197.46 84,-200 196.44,-223.82 332.1,-233.03 399.39,-236.33"/>
<polygon fill="midnightblue" stroke="midnightblue" points="399.44,-239.83 409.59,-236.81 399.77,-232.84 399.44,-239.83"/>
</g>
<!-- Node9 -->
<g id="node9" class="node">
<title>Node9</title>
<g id="a_node9"><a xlink:href="sbuf_8c.html#a603d1d6ab090025f5850f10bfa2dec7a" target="_top" xlink:title=" ">
<polygon fill="white" stroke="black" points="416.5,-190.5 416.5,-209.5 468.5,-209.5 468.5,-190.5 416.5,-190.5"/>
<text text-anchor="middle" x="442.5" y="-197.5" font-family="Helvetica,sans-Serif" font-size="10.00">sbuf_str</text>
</a>
</g>
</g>
<!-- Node1&#45;&gt;Node9 -->
<g id="edge34" class="edge">
<title>Node1&#45;&gt;Node9</title>
<path fill="none" stroke="midnightblue" d="M48.25,-182.71C59.11,-183.48 72.21,-184.35 84,-185 201.86,-191.47 341.7,-196.6 405.97,-198.81"/>
<polygon fill="midnightblue" stroke="midnightblue" points="406.24,-202.32 416.35,-199.17 406.48,-195.33 406.24,-202.32"/>
</g>
<!-- Node20 -->
<g id="node20" class="node">
<title>Node20</title>
<g id="a_node20"><a xlink:href="lbuf_8c.html#ad0f45475ddc6eb82ecedf63ed1b914d4" target="_top" xlink:title=" ">
<polygon fill="white" stroke="black" points="198,-152.5 198,-171.5 249,-171.5 249,-152.5 198,-152.5"/>
<text text-anchor="middle" x="223.5" y="-159.5" font-family="Helvetica,sans-Serif" font-size="10.00">lbuf_get</text>
</a>
</g>
</g>
<!-- Node1&#45;&gt;Node20 -->
<g id="edge23" class="edge">
<title>Node1&#45;&gt;Node20</title>
<path fill="none" stroke="midnightblue" d="M48.04,-178.78C82.42,-175.48 147.38,-169.23 187.6,-165.36"/>
<polygon fill="midnightblue" stroke="midnightblue" points="188.13,-168.82 197.75,-164.38 187.46,-161.85 188.13,-168.82"/>
</g>
<!-- Node21 -->
<g id="node21" class="node">
<title>Node21</title>
<g id="a_node21"><a xlink:href="mot_8c.html#a813931c130c89b7e9e71f3d524b92705" target="_top" xlink:title=" ">
<polygon fill="white" stroke="black" points="84,-114.5 84,-133.5 153,-133.5 153,-114.5 84,-114.5"/>
<text text-anchor="middle" x="118.5" y="-121.5" font-family="Helvetica,sans-Serif" font-size="10.00">lbuf_indents</text>
</a>
</g>
</g>
<!-- Node1&#45;&gt;Node21 -->
<g id="edge24" class="edge">
<title>Node1&#45;&gt;Node21</title>
<path fill="none" stroke="midnightblue" d="M40.69,-171.33C55.13,-162.43 76.76,-149.1 93.39,-138.86"/>
<polygon fill="midnightblue" stroke="midnightblue" points="95.36,-141.75 102.04,-133.53 91.69,-135.79 95.36,-141.75"/>
</g>
<!-- Node25 -->
<g id="node25" class="node">
<title>Node25</title>
<g id="a_node25"><a xlink:href="sbuf_8c.html#a3f9aa15ca1d73f585d7a4a9d023e58ce" target="_top" xlink:title=" ">
<polygon fill="white" stroke="black" points="515,-95.5 515,-114.5 569,-114.5 569,-95.5 515,-95.5"/>
<text text-anchor="middle" x="542" y="-102.5" font-family="Helvetica,sans-Serif" font-size="10.00">sbuf_chr</text>
</a>
</g>
</g>
<!-- Node1&#45;&gt;Node25 -->
<g id="edge30" class="edge">
<title>Node1&#45;&gt;Node25</title>
<path fill="none" stroke="midnightblue" d="M30.28,-171.28C39.33,-155.41 59.28,-123.82 84,-105 136.97,-64.69 155.94,-48 222.5,-48 222.5,-48 222.5,-48 335,-48 399.83,-48 472.11,-74.54 511.48,-91.4"/>
<polygon fill="midnightblue" stroke="midnightblue" points="510.19,-94.66 520.76,-95.46 512.99,-88.25 510.19,-94.66"/>
</g>
<!-- Node26 -->
<g id="node26" class="node">
<title>Node26</title>
<g id="a_node26"><a xlink:href="sbuf_8c.html#a8c1a89868b1999663effb78b4f3fab32" target="_top" xlink:title=" ">
<polygon fill="white" stroke="black" points="90,-0.5 90,-19.5 147,-19.5 147,-0.5 90,-0.5"/>
<text text-anchor="middle" x="118.5" y="-7.5" font-family="Helvetica,sans-Serif" font-size="10.00">sbuf_free</text>
</a>
</g>
</g>
<!-- Node1&#45;&gt;Node26 -->
<g id="edge32" class="edge">
<title>Node1&#45;&gt;Node26</title>
<path fill="none" stroke="midnightblue" d="M26.87,-171.47C32.13,-146.59 49.03,-78.56 84,-34 86.35,-31.01 89.16,-28.23 92.15,-25.69"/>
<polygon fill="midnightblue" stroke="midnightblue" points="94.37,-28.41 100.26,-19.6 90.16,-22.81 94.37,-28.41"/>
</g>
<!-- Node3 -->
<g id="node3" class="node">
<title>Node3</title>
<g id="a_node3"><a xlink:href="lbuf_8c.html#a7882079a375d5591a9f384a80a5599ff" target="_top" xlink:title=" ">
<polygon fill="white" stroke="black" points="198,-361.5 198,-380.5 249,-380.5 249,-361.5 198,-361.5"/>
<text text-anchor="middle" x="223.5" y="-368.5" font-family="Helvetica,sans-Serif" font-size="10.00">lbuf_opt</text>
</a>
</g>
</g>
<!-- Node2&#45;&gt;Node3 -->
<g id="edge2" class="edge">
<title>Node2&#45;&gt;Node3</title>
<path fill="none" stroke="midnightblue" d="M145.23,-371C158.05,-371 173.74,-371 187.62,-371"/>
<polygon fill="midnightblue" stroke="midnightblue" points="187.81,-374.5 197.81,-371 187.81,-367.5 187.81,-374.5"/>
</g>
<!-- Node18 -->
<g id="node18" class="node">
<title>Node18</title>
<g id="a_node18"><a xlink:href="lbuf_8c.html#a7d6629efef5a5cbd324d82e2b0c07c5d" target="_top" xlink:title=" ">
<polygon fill="white" stroke="black" points="189,-475.5 189,-494.5 258,-494.5 258,-475.5 189,-475.5"/>
<text text-anchor="middle" x="223.5" y="-482.5" font-family="Helvetica,sans-Serif" font-size="10.00">lbuf_replace</text>
</a>
</g>
</g>
<!-- Node2&#45;&gt;Node18 -->
<g id="edge18" class="edge">
<title>Node2&#45;&gt;Node18</title>
<path fill="none" stroke="midnightblue" d="M128.28,-380.72C145.76,-400.07 185.12,-443.63 207.04,-467.88"/>
<polygon fill="midnightblue" stroke="midnightblue" points="204.44,-470.23 213.74,-475.31 209.63,-465.54 204.44,-470.23"/>
</g>
<!-- Node4 -->
<g id="node4" class="node">
<title>Node4</title>
<g id="a_node4"><a xlink:href="lbuf_8c.html#ad5f7a537d1c72f485481fc22cb8361a6" target="_top" xlink:title=" ">
<polygon fill="white" stroke="black" points="310,-266.5 310,-285.5 358,-285.5 358,-266.5 310,-266.5"/>
<text text-anchor="middle" x="334" y="-273.5" font-family="Helvetica,sans-Serif" font-size="10.00">lbuf_cp</text>
</a>
</g>
</g>
<!-- Node3&#45;&gt;Node4 -->
<g id="edge3" class="edge">
<title>Node3&#45;&gt;Node4</title>
<path fill="none" stroke="midnightblue" d="M231.65,-361.02C243.27,-345.34 267.65,-314.69 294,-295 296.19,-293.37 298.54,-291.81 300.96,-290.35"/>
<polygon fill="midnightblue" stroke="midnightblue" points="302.79,-293.34 309.89,-285.48 299.43,-287.2 302.79,-293.34"/>
</g>
<!-- Node11 -->
<g id="node11" class="node">
<title>Node11</title>
<g id="a_node11"><a xlink:href="lbuf_8c.html#aedcad8ccce5993eacce71ffc80aaab87" target="_top" xlink:title=" ">
<polygon fill="white" stroke="black" points="294,-342.5 294,-361.5 374,-361.5 374,-342.5 294,-342.5"/>
<text text-anchor="middle" x="334" y="-349.5" font-family="Helvetica,sans-Serif" font-size="10.00">lbuf_savemark</text>
</a>
</g>
</g>
<!-- Node3&#45;&gt;Node11 -->
<g id="edge11" class="edge">
<title>Node3&#45;&gt;Node11</title>
<path fill="none" stroke="midnightblue" d="M249.12,-366.69C259.38,-364.89 271.67,-362.74 283.65,-360.64"/>
<polygon fill="midnightblue" stroke="midnightblue" points="284.34,-364.08 293.58,-358.9 283.13,-357.18 284.34,-364.08"/>
</g>
<!-- Node12 -->
<g id="node12" class="node">
<title>Node12</title>
<g id="a_node12"><a xlink:href="lbuf_8c.html#a46670f1a015007134b0d5a07ea258fcc" target="_top" xlink:title=" ">
<polygon fill="white" stroke="black" points="297,-418.5 297,-437.5 371,-437.5 371,-418.5 297,-418.5"/>
<text text-anchor="middle" x="334" y="-425.5" font-family="Helvetica,sans-Serif" font-size="10.00">lbuf_savepos</text>
</a>
</g>
</g>
<!-- Node3&#45;&gt;Node12 -->
<g id="edge12" class="edge">
<title>Node3&#45;&gt;Node12</title>
<path fill="none" stroke="midnightblue" d="M241.52,-380.6C255.51,-388.42 275.92,-399.66 294,-409 297.11,-410.6 300.37,-412.25 303.62,-413.87"/>
<polygon fill="midnightblue" stroke="midnightblue" points="302.15,-417.05 312.67,-418.32 305.24,-410.77 302.15,-417.05"/>
</g>
<!-- Node14 -->
<g id="node14" class="node">
<title>Node14</title>
<g id="a_node14"><a xlink:href="lbuf_8c.html#ab41193f3312b21588338e92e1b144f87" target="_top" xlink:title=" ">
<polygon fill="white" stroke="black" points="306,-456.5 306,-475.5 362,-475.5 362,-456.5 306,-456.5"/>
<text text-anchor="middle" x="334" y="-463.5" font-family="Helvetica,sans-Serif" font-size="10.00">linecount</text>
</a>
</g>
</g>
<!-- Node3&#45;&gt;Node14 -->
<g id="edge14" class="edge">
<title>Node3&#45;&gt;Node14</title>
<path fill="none" stroke="midnightblue" d="M231.65,-380.98C243.27,-396.66 267.65,-427.31 294,-447 296.06,-448.54 298.26,-450 300.53,-451.39"/>
<polygon fill="midnightblue" stroke="midnightblue" points="299.03,-454.56 309.48,-456.32 302.41,-448.43 299.03,-454.56"/>
</g>
<!-- Node16 -->
<g id="node16" class="node">
<title>Node16</title>
<g id="a_node16"><a xlink:href="lbuf_8c.html#a94a520edd0e2f60713523483cf01c7de" target="_top" xlink:title=" ">
<polygon fill="white" stroke="black" points="304.5,-304.5 304.5,-323.5 363.5,-323.5 363.5,-304.5 304.5,-304.5"/>
<text text-anchor="middle" x="334" y="-311.5" font-family="Helvetica,sans-Serif" font-size="10.00">lopt_done</text>
</a>
</g>
</g>
<!-- Node3&#45;&gt;Node16 -->
<g id="edge16" class="edge">
<title>Node3&#45;&gt;Node16</title>
<path fill="none" stroke="midnightblue" d="M241.52,-361.4C255.51,-353.58 275.92,-342.34 294,-333 297.11,-331.4 300.37,-329.75 303.62,-328.13"/>
<polygon fill="midnightblue" stroke="midnightblue" points="305.24,-331.23 312.67,-323.68 302.15,-324.95 305.24,-331.23"/>
</g>
<!-- Node17 -->
<g id="node17" class="node">
<title>Node17</title>
<g id="a_node17"><a xlink:href="uc_8c.html#a2844d125d9a2c1d03848dcdf952b0edb" target="_top" xlink:title=" ">
<polygon fill="white" stroke="black" points="310,-380.5 310,-399.5 358,-399.5 358,-380.5 310,-380.5"/>
<text text-anchor="middle" x="334" y="-387.5" font-family="Helvetica,sans-Serif" font-size="10.00">uc_dup</text>
</a>
</g>
</g>
<!-- Node3&#45;&gt;Node17 -->
<g id="edge17" class="edge">
<title>Node3&#45;&gt;Node17</title>
<path fill="none" stroke="midnightblue" d="M249.12,-375.31C264.1,-377.93 283.42,-381.32 299.74,-384.18"/>
<polygon fill="midnightblue" stroke="midnightblue" points="299.51,-387.69 309.96,-385.97 300.71,-380.79 299.51,-387.69"/>
</g>
<!-- Node5 -->
<g id="node5" class="node">
<title>Node5</title>
<g id="a_node5"><a xlink:href="sbuf_8c.html#a7bf14d501d36ce36ee269d77cf2c3fc6" target="_top" xlink:title=" ">
<polygon fill="white" stroke="black" points="411.5,-266.5 411.5,-285.5 473.5,-285.5 473.5,-266.5 411.5,-266.5"/>
<text text-anchor="middle" x="442.5" y="-273.5" font-family="Helvetica,sans-Serif" font-size="10.00">sbuf_done</text>
</a>
</g>
</g>
<!-- Node4&#45;&gt;Node5 -->
<g id="edge4" class="edge">
<title>Node4&#45;&gt;Node5</title>
<path fill="none" stroke="midnightblue" d="M358.11,-276C370.61,-276 386.42,-276 400.91,-276"/>
<polygon fill="midnightblue" stroke="midnightblue" points="401.15,-279.5 411.15,-276 401.15,-272.5 401.15,-279.5"/>
</g>
<!-- Node4&#45;&gt;Node8 -->
<g id="edge7" class="edge">
<title>Node4&#45;&gt;Node8</title>
<path fill="none" stroke="midnightblue" d="M358.11,-267.75C371.76,-262.88 389.35,-256.61 404.85,-251.08"/>
<polygon fill="midnightblue" stroke="midnightblue" points="406.43,-254.23 414.68,-247.57 404.08,-247.63 406.43,-254.23"/>
</g>
<!-- Node4&#45;&gt;Node9 -->
<g id="edge8" class="edge">
<title>Node4&#45;&gt;Node9</title>
<path fill="none" stroke="midnightblue" d="M346.92,-266.31C361.47,-254.63 387,-234.61 410,-219 411.93,-217.69 413.95,-216.36 416,-215.06"/>
<polygon fill="midnightblue" stroke="midnightblue" points="418.27,-217.77 424.94,-209.53 414.59,-211.81 418.27,-217.77"/>
</g>
<!-- Node5&#45;&gt;Node6 -->
<g id="edge5" class="edge">
<title>Node5&#45;&gt;Node6</title>
<path fill="none" stroke="midnightblue" d="M473.55,-276C483.35,-276 494.34,-276 504.56,-276"/>
<polygon fill="midnightblue" stroke="midnightblue" points="504.84,-279.5 514.84,-276 504.84,-272.5 504.84,-279.5"/>
</g>
<!-- Node7 -->
<g id="node7" class="node">
<title>Node7</title>
<g id="a_node7"><a xlink:href="sbuf_8c.html#a4ad75f3948c0340c342a3ea3eb63a6e6" target="_top" xlink:title=" ">
<polygon fill="white" stroke="black" points="609,-190.5 609,-209.5 679,-209.5 679,-190.5 609,-190.5"/>
<text text-anchor="middle" x="644" y="-197.5" font-family="Helvetica,sans-Serif" font-size="10.00">sbuf_extend</text>
</a>
</g>
</g>
<!-- Node6&#45;&gt;Node7 -->
<g id="edge6" class="edge">
<title>Node6&#45;&gt;Node7</title>
<path fill="none" stroke="midnightblue" d="M555.67,-266.37C572.42,-253.64 602.17,-231.03 622.24,-215.78"/>
<polygon fill="midnightblue" stroke="midnightblue" points="624.59,-218.38 630.44,-209.55 620.36,-212.81 624.59,-218.38"/>
</g>
<!-- Node10 -->
<g id="node10" class="node">
<title>Node10</title>
<g id="a_node10"><a xlink:href="sbuf_8c.html#aa511ac77d6b486accc01c0512ef27ed2" target="_top" xlink:title=" ">
<polygon fill="white" stroke="black" points="511,-190.5 511,-209.5 573,-209.5 573,-190.5 511,-190.5"/>
<text text-anchor="middle" x="542" y="-197.5" font-family="Helvetica,sans-Serif" font-size="10.00">sbuf_mem</text>
</a>
</g>
</g>
<!-- Node9&#45;&gt;Node10 -->
<g id="edge9" class="edge">
<title>Node9&#45;&gt;Node10</title>
<path fill="none" stroke="midnightblue" d="M468.61,-200C478.36,-200 489.77,-200 500.61,-200"/>
<polygon fill="midnightblue" stroke="midnightblue" points="500.76,-203.5 510.76,-200 500.76,-196.5 500.76,-203.5"/>
</g>
<!-- Node10&#45;&gt;Node7 -->
<g id="edge10" class="edge">
<title>Node10&#45;&gt;Node7</title>
<path fill="none" stroke="midnightblue" d="M573,-200C581.11,-200 590.05,-200 598.76,-200"/>
<polygon fill="midnightblue" stroke="midnightblue" points="598.81,-203.5 608.81,-200 598.81,-196.5 598.81,-203.5"/>
</g>
<!-- Node13 -->
<g id="node13" class="node">
<title>Node13</title>
<g id="a_node13"><a xlink:href="lbuf_8c.html#a69221917b521da2cd5f804a9f4694f1a" target="_top" xlink:title=" ">
<polygon fill="white" stroke="black" points="417,-437.5 417,-456.5 468,-456.5 468,-437.5 417,-437.5"/>
<text text-anchor="middle" x="442.5" y="-444.5" font-family="Helvetica,sans-Serif" font-size="10.00">markidx</text>
</a>
</g>
</g>
<!-- Node12&#45;&gt;Node13 -->
<g id="edge13" class="edge">
<title>Node12&#45;&gt;Node13</title>
<path fill="none" stroke="midnightblue" d="M371.06,-434.43C382.61,-436.49 395.37,-438.77 406.82,-440.81"/>
<polygon fill="midnightblue" stroke="midnightblue" points="406.43,-444.3 416.89,-442.61 407.66,-437.41 406.43,-444.3"/>
</g>
<!-- Node15 -->
<g id="node15" class="node">
<title>Node15</title>
<g id="a_node15"><a xlink:href="lbuf_8c.html#ac559857979b20ce0c64638c9e3e4edec" target="_top" xlink:title=" ">
<polygon fill="white" stroke="black" points="413.5,-513.5 413.5,-532.5 471.5,-532.5 471.5,-513.5 413.5,-513.5"/>
<text text-anchor="middle" x="442.5" y="-520.5" font-family="Helvetica,sans-Serif" font-size="10.00">linelength</text>
</a>
</g>
</g>
<!-- Node14&#45;&gt;Node15 -->
<g id="edge15" class="edge">
<title>Node14&#45;&gt;Node15</title>
<path fill="none" stroke="midnightblue" d="M355.36,-475.63C361.39,-478.57 368,-481.85 374,-485 388.05,-492.37 403.48,-501.01 416.03,-508.19"/>
<polygon fill="midnightblue" stroke="midnightblue" points="414.59,-511.4 425.01,-513.35 418.08,-505.33 414.59,-511.4"/>
</g>
<!-- Node18&#45;&gt;Node14 -->
<g id="edge21" class="edge">
<title>Node18&#45;&gt;Node14</title>
<path fill="none" stroke="midnightblue" d="M258.24,-479.09C270.19,-477 283.71,-474.63 295.92,-472.49"/>
<polygon fill="midnightblue" stroke="midnightblue" points="296.57,-475.93 305.82,-470.76 295.37,-469.04 296.57,-475.93"/>
</g>
<!-- Node18&#45;&gt;Node15 -->
<g id="edge22" class="edge">
<title>Node18&#45;&gt;Node15</title>
<path fill="none" stroke="midnightblue" d="M237.5,-494.73C250.86,-504.07 272.68,-517.55 294,-523 330.18,-532.24 372.99,-530.96 403.15,-528.14"/>
<polygon fill="midnightblue" stroke="midnightblue" points="403.67,-531.6 413.26,-527.09 402.95,-524.64 403.67,-531.6"/>
</g>
<!-- Node19 -->
<g id="node19" class="node">
<title>Node19</title>
<g id="a_node19"><a xlink:href="lbuf_8c.html#a5a34f3f60dfd5ea06207d96d821da368" target="_top" xlink:title=" ">
<polygon fill="white" stroke="black" points="304.5,-494.5 304.5,-513.5 363.5,-513.5 363.5,-494.5 304.5,-494.5"/>
<text text-anchor="middle" x="334" y="-501.5" font-family="Helvetica,sans-Serif" font-size="10.00">lbuf_mark</text>
</a>
</g>
</g>
<!-- Node18&#45;&gt;Node19 -->
<g id="edge19" class="edge">
<title>Node18&#45;&gt;Node19</title>
<path fill="none" stroke="midnightblue" d="M258.24,-490.91C269.69,-492.91 282.57,-495.17 294.37,-497.24"/>
<polygon fill="midnightblue" stroke="midnightblue" points="293.95,-500.71 304.4,-498.99 295.16,-493.82 293.95,-500.71"/>
</g>
<!-- Node19&#45;&gt;Node13 -->
<g id="edge20" class="edge">
<title>Node19&#45;&gt;Node13</title>
<path fill="none" stroke="midnightblue" d="M355.36,-494.37C361.39,-491.43 368,-488.15 374,-485 388.05,-477.63 403.48,-468.99 416.03,-461.81"/>
<polygon fill="midnightblue" stroke="midnightblue" points="418.08,-464.67 425.01,-456.65 414.59,-458.6 418.08,-464.67"/>
</g>
<!-- Node21&#45;&gt;Node20 -->
<g id="edge25" class="edge">
<title>Node21&#45;&gt;Node20</title>
<path fill="none" stroke="midnightblue" d="M145.49,-133.59C158.44,-138.37 174.27,-144.2 188.2,-149.34"/>
<polygon fill="midnightblue" stroke="midnightblue" points="187.34,-152.76 197.94,-152.94 189.76,-146.19 187.34,-152.76"/>
</g>
<!-- Node22 -->
<g id="node22" class="node">
<title>Node22</title>
<g id="a_node22"><a xlink:href="uc_8c.html#ab6be7e2b59f79b8952c13488e1cf036a" target="_top" xlink:title=" ">
<polygon fill="white" stroke="black" points="190.5,-76.5 190.5,-95.5 256.5,-95.5 256.5,-76.5 190.5,-76.5"/>
<text text-anchor="middle" x="223.5" y="-83.5" font-family="Helvetica,sans-Serif" font-size="10.00">uc_isspace</text>
</a>
</g>
</g>
<!-- Node21&#45;&gt;Node22 -->
<g id="edge26" class="edge">
<title>Node21&#45;&gt;Node22</title>
<path fill="none" stroke="midnightblue" d="M145.49,-114.41C158.06,-109.78 173.33,-104.14 186.95,-99.11"/>
<polygon fill="midnightblue" stroke="midnightblue" points="188.35,-102.33 196.52,-95.59 185.92,-95.76 188.35,-102.33"/>
</g>
<!-- Node23 -->
<g id="node23" class="node">
<title>Node23</title>
<g id="a_node23"><a xlink:href="uc_8c.html#a79c7c44c06c1febff5680c19667e2676" target="_top" xlink:title=" ">
<polygon fill="white" stroke="black" points="198,-114.5 198,-133.5 249,-133.5 249,-114.5 198,-114.5"/>
<text text-anchor="middle" x="223.5" y="-121.5" font-family="Helvetica,sans-Serif" font-size="10.00">uc_next</text>
</a>
</g>
</g>
<!-- Node21&#45;&gt;Node23 -->
<g id="edge27" class="edge">
<title>Node21&#45;&gt;Node23</title>
<path fill="none" stroke="midnightblue" d="M153.23,-124C164.25,-124 176.52,-124 187.63,-124"/>
<polygon fill="midnightblue" stroke="midnightblue" points="187.85,-127.5 197.85,-124 187.85,-120.5 187.85,-127.5"/>
</g>
<!-- Node24 -->
<g id="node24" class="node">
<title>Node24</title>
<g id="a_node24"><a xlink:href="uc_8c.html#a616e24870a58b86644c34ee077faca11" target="_top" xlink:title=" ">
<polygon fill="white" stroke="black" points="310,-114.5 310,-133.5 358,-133.5 358,-114.5 310,-114.5"/>
<text text-anchor="middle" x="334" y="-121.5" font-family="Helvetica,sans-Serif" font-size="10.00">uc_end</text>
</a>
</g>
</g>
<!-- Node23&#45;&gt;Node24 -->
<g id="edge28" class="edge">
<title>Node23&#45;&gt;Node24</title>
<path fill="none" stroke="midnightblue" d="M249.12,-124C264.1,-124 283.42,-124 299.74,-124"/>
<polygon fill="midnightblue" stroke="midnightblue" points="299.96,-127.5 309.96,-124 299.96,-120.5 299.96,-127.5"/>
</g>
<!-- Node25&#45;&gt;Node7 -->
<g id="edge31" class="edge">
<title>Node25&#45;&gt;Node7</title>
<path fill="none" stroke="midnightblue" d="M553.33,-114.81C570.41,-131.03 604.72,-163.64 625.6,-183.47"/>
<polygon fill="midnightblue" stroke="midnightblue" points="623.22,-186.04 632.88,-190.39 628.04,-180.96 623.22,-186.04"/>
</g>
</g>
</svg>
