<?xml version="1.0" encoding="UTF-8" standalone="no"?>
<!DOCTYPE svg PUBLIC "-//W3C//DTD SVG 1.1//EN"
 "http://www.w3.org/Graphics/SVG/1.1/DTD/svg11.dtd">
<!-- Generated by graphviz version 2.44.1 (20200629.0846)
 -->
<!-- Title: vi_col2off Pages: 1 -->
<svg width="1296pt" height="360pt"
 viewBox="0.00 0.00 1296.00 360.00" xmlns="http://www.w3.org/2000/svg" xmlns:xlink="http://www.w3.org/1999/xlink">
<g id="graph0" class="graph" transform="scale(1 1) rotate(0) translate(4 356)">
<title>vi_col2off</title>
<polygon fill="white" stroke="transparent" points="-4,4 -4,-356 1292,-356 1292,4 -4,4"/>
<!-- Node1 -->
<g id="node1" class="node">
<title>Node1</title>
<g id="a_node1"><a xlink:title=" ">
<polygon fill="#bfbfbf" stroke="black" points="0,-102.5 0,-121.5 59,-121.5 59,-102.5 0,-102.5"/>
<text text-anchor="middle" x="29.5" y="-109.5" font-family="Helvetica,sans-Serif" font-size="10.00">vi_col2off</text>
</a>
</g>
</g>
<!-- Node2 -->
<g id="node2" class="node">
<title>Node2</title>
<g id="a_node2"><a xlink:href="lbuf_8c.html#ad0f45475ddc6eb82ecedf63ed1b914d4" target="_top" xlink:title=" ">
<polygon fill="white" stroke="black" points="95,-121.5 95,-140.5 146,-140.5 146,-121.5 95,-121.5"/>
<text text-anchor="middle" x="120.5" y="-128.5" font-family="Helvetica,sans-Serif" font-size="10.00">lbuf_get</text>
</a>
</g>
</g>
<!-- Node1&#45;&gt;Node2 -->
<g id="edge1" class="edge">
<title>Node1&#45;&gt;Node2</title>
<path fill="none" stroke="midnightblue" d="M59.15,-118.12C67.31,-119.86 76.3,-121.78 84.78,-123.59"/>
<polygon fill="midnightblue" stroke="midnightblue" points="84.28,-127.06 94.8,-125.73 85.75,-120.22 84.28,-127.06"/>
</g>
<!-- Node3 -->
<g id="node3" class="node">
<title>Node3</title>
<g id="a_node3"><a xlink:href="ren_8c.html#a6fb670084750c8934454722b630e0caa" target="_top" xlink:title=" ">
<polygon fill="white" stroke="black" points="97,-83.5 97,-102.5 144,-102.5 144,-83.5 97,-83.5"/>
<text text-anchor="middle" x="120.5" y="-90.5" font-family="Helvetica,sans-Serif" font-size="10.00">ren_off</text>
</a>
</g>
</g>
<!-- Node1&#45;&gt;Node3 -->
<g id="edge2" class="edge">
<title>Node1&#45;&gt;Node3</title>
<path fill="none" stroke="midnightblue" d="M59.15,-105.88C68.01,-103.99 77.84,-101.89 86.94,-99.95"/>
<polygon fill="midnightblue" stroke="midnightblue" points="87.78,-103.35 96.83,-97.84 86.32,-96.51 87.78,-103.35"/>
</g>
<!-- Node4 -->
<g id="node4" class="node">
<title>Node4</title>
<g id="a_node4"><a xlink:href="ren_8c.html#af4201a7e1018cbf68ff5e009005ff8bd" target="_top" xlink:title=" ">
<polygon fill="white" stroke="black" points="188.5,-121.5 188.5,-140.5 244.5,-140.5 244.5,-121.5 188.5,-121.5"/>
<text text-anchor="middle" x="216.5" y="-128.5" font-family="Helvetica,sans-Serif" font-size="10.00">pos_prev</text>
</a>
</g>
</g>
<!-- Node3&#45;&gt;Node4 -->
<g id="edge3" class="edge">
<title>Node3&#45;&gt;Node4</title>
<path fill="none" stroke="midnightblue" d="M144.25,-102.2C155.77,-106.85 169.96,-112.59 182.64,-117.72"/>
<polygon fill="midnightblue" stroke="midnightblue" points="181.39,-120.99 191.97,-121.49 184.01,-114.5 181.39,-120.99"/>
</g>
<!-- Node5 -->
<g id="node5" class="node">
<title>Node5</title>
<g id="a_node5"><a xlink:href="ren_8c.html#af6e197881adec94ce251c84adf3dd495" target="_top" xlink:title=" ">
<polygon fill="white" stroke="black" points="182,-83.5 182,-102.5 251,-102.5 251,-83.5 182,-83.5"/>
<text text-anchor="middle" x="216.5" y="-90.5" font-family="Helvetica,sans-Serif" font-size="10.00">ren_position</text>
</a>
</g>
</g>
<!-- Node3&#45;&gt;Node5 -->
<g id="edge4" class="edge">
<title>Node3&#45;&gt;Node5</title>
<path fill="none" stroke="midnightblue" d="M144.25,-93C152.55,-93 162.24,-93 171.75,-93"/>
<polygon fill="midnightblue" stroke="midnightblue" points="171.93,-96.5 181.93,-93 171.93,-89.5 171.93,-96.5"/>
</g>
<!-- Node33 -->
<g id="node33" class="node">
<title>Node33</title>
<g id="a_node33"><a xlink:href="uc_8c.html#a8afd7835259109c3ec7bb684d4a1f67f" target="_top" xlink:title=" ">
<polygon fill="white" stroke="black" points="527.5,-0.5 527.5,-19.5 577.5,-19.5 577.5,-0.5 527.5,-0.5"/>
<text text-anchor="middle" x="552.5" y="-7.5" font-family="Helvetica,sans-Serif" font-size="10.00">uc_slen</text>
</a>
</g>
</g>
<!-- Node3&#45;&gt;Node33 -->
<g id="edge44" class="edge">
<title>Node3&#45;&gt;Node33</title>
<path fill="none" stroke="midnightblue" d="M144.28,-85.06C155.53,-81.34 169.37,-77.06 182,-74 303.97,-44.42 451.76,-23.1 517.33,-14.37"/>
<polygon fill="midnightblue" stroke="midnightblue" points="518.04,-17.81 527.5,-13.03 517.13,-10.87 518.04,-17.81"/>
</g>
<!-- Node6 -->
<g id="node6" class="node">
<title>Node6</title>
<g id="a_node6"><a xlink:href="dir_8c.html#a8703d559ca9c640b8b89c589cf75ac06" target="_top" xlink:title=" ">
<polygon fill="white" stroke="black" points="287,-105.5 287,-124.5 349,-124.5 349,-105.5 287,-105.5"/>
<text text-anchor="middle" x="318" y="-112.5" font-family="Helvetica,sans-Serif" font-size="10.00">dir_reorder</text>
</a>
</g>
</g>
<!-- Node5&#45;&gt;Node6 -->
<g id="edge5" class="edge">
<title>Node5&#45;&gt;Node6</title>
<path fill="none" stroke="midnightblue" d="M251.19,-100.45C259.45,-102.28 268.38,-104.25 276.92,-106.14"/>
<polygon fill="midnightblue" stroke="midnightblue" points="276.17,-109.56 286.69,-108.3 277.68,-102.72 276.17,-109.56"/>
</g>
<!-- Node32 -->
<g id="node32" class="node">
<title>Node32</title>
<g id="a_node32"><a xlink:href="uc_8c.html#a1764c4d0fa27bca336e5ca300ad969e7" target="_top" xlink:title=" ">
<polygon fill="white" stroke="black" points="403.5,-62.5 403.5,-81.5 456.5,-81.5 456.5,-62.5 403.5,-62.5"/>
<text text-anchor="middle" x="430" y="-69.5" font-family="Helvetica,sans-Serif" font-size="10.00">uc_chop</text>
</a>
</g>
</g>
<!-- Node5&#45;&gt;Node32 -->
<g id="edge43" class="edge">
<title>Node5&#45;&gt;Node32</title>
<path fill="none" stroke="midnightblue" d="M251.01,-89.67C289.83,-85.82 353.51,-79.5 393.25,-75.55"/>
<polygon fill="midnightblue" stroke="midnightblue" points="393.69,-79.02 403.29,-74.55 393,-72.06 393.69,-79.02"/>
</g>
<!-- Node34 -->
<g id="node34" class="node">
<title>Node34</title>
<g id="a_node34"><a xlink:href="ren_8c.html#a319a71758607f19d2beedd2bd4d3b369" target="_top" xlink:title=" ">
<polygon fill="white" stroke="black" points="290,-206.5 290,-225.5 346,-225.5 346,-206.5 290,-206.5"/>
<text text-anchor="middle" x="318" y="-213.5" font-family="Helvetica,sans-Serif" font-size="10.00">ren_cwid</text>
</a>
</g>
</g>
<!-- Node5&#45;&gt;Node34 -->
<g id="edge40" class="edge">
<title>Node5&#45;&gt;Node34</title>
<path fill="none" stroke="midnightblue" d="M238.09,-102.57C242.64,-105.24 247.22,-108.4 251,-112 277.33,-137.06 297.79,-174.69 308.57,-197.15"/>
<polygon fill="midnightblue" stroke="midnightblue" points="305.44,-198.71 312.83,-206.3 311.78,-195.76 305.44,-198.71"/>
</g>
<!-- Node7 -->
<g id="node7" class="node">
<title>Node7</title>
<g id="a_node7"><a xlink:href="dir_8c.html#aba0a553010578626d7148da2b6551321" target="_top" xlink:title=" ">
<polygon fill="white" stroke="black" points="397.5,-168.5 397.5,-187.5 462.5,-187.5 462.5,-168.5 397.5,-168.5"/>
<text text-anchor="middle" x="430" y="-175.5" font-family="Helvetica,sans-Serif" font-size="10.00">dir_context</text>
</a>
</g>
</g>
<!-- Node6&#45;&gt;Node7 -->
<g id="edge6" class="edge">
<title>Node6&#45;&gt;Node7</title>
<path fill="none" stroke="midnightblue" d="M335.71,-124.57C353.64,-134.84 382.34,-151.28 403.18,-163.21"/>
<polygon fill="midnightblue" stroke="midnightblue" points="401.72,-166.41 412.14,-168.34 405.2,-160.33 401.72,-166.41"/>
</g>
<!-- Node20 -->
<g id="node20" class="node">
<title>Node20</title>
<g id="a_node20"><a xlink:href="dir_8c.html#a8dbcb1db32888e71e2702f7173e7cba4" target="_top" xlink:title=" ">
<polygon fill="white" stroke="black" points="408.5,-109.5 408.5,-128.5 451.5,-128.5 451.5,-109.5 408.5,-109.5"/>
<text text-anchor="middle" x="430" y="-116.5" font-family="Helvetica,sans-Serif" font-size="10.00">dir_fix</text>
</a>
</g>
</g>
<!-- Node6&#45;&gt;Node20 -->
<g id="edge22" class="edge">
<title>Node6&#45;&gt;Node20</title>
<path fill="none" stroke="midnightblue" d="M349.06,-116.09C364.36,-116.65 382.92,-117.32 398.31,-117.88"/>
<polygon fill="midnightblue" stroke="midnightblue" points="398.25,-121.38 408.37,-118.25 398.51,-114.39 398.25,-121.38"/>
</g>
<!-- Node6&#45;&gt;Node32 -->
<g id="edge36" class="edge">
<title>Node6&#45;&gt;Node32</title>
<path fill="none" stroke="midnightblue" d="M343.41,-105.46C358.65,-99.5 378.48,-91.75 395.22,-85.21"/>
<polygon fill="midnightblue" stroke="midnightblue" points="396.62,-88.42 404.66,-81.52 394.07,-81.9 396.62,-88.42"/>
</g>
<!-- Node8 -->
<g id="node8" class="node">
<title>Node8</title>
<g id="a_node8"><a xlink:href="conf_8c.html#a9e1bc5ed600c151c51d8e2342454e07c" target="_top" xlink:title=" ">
<polygon fill="white" stroke="black" points="511,-228.5 511,-247.5 594,-247.5 594,-228.5 511,-228.5"/>
<text text-anchor="middle" x="552.5" y="-235.5" font-family="Helvetica,sans-Serif" font-size="10.00">conf_dircontext</text>
</a>
</g>
</g>
<!-- Node7&#45;&gt;Node8 -->
<g id="edge7" class="edge">
<title>Node7&#45;&gt;Node8</title>
<path fill="none" stroke="midnightblue" d="M454.46,-187.69C461.15,-190.58 468.41,-193.82 475,-197 492.14,-205.28 510.99,-215.37 525.7,-223.47"/>
<polygon fill="midnightblue" stroke="midnightblue" points="524.25,-226.67 534.7,-228.47 527.65,-220.55 524.25,-226.67"/>
</g>
<!-- Node9 -->
<g id="node9" class="node">
<title>Node9</title>
<g id="a_node9"><a xlink:href="rset_8c.html#a389ec5abca88adc048a058744f2373eb" target="_top" xlink:title=" ">
<polygon fill="white" stroke="black" points="639.5,-304.5 639.5,-323.5 693.5,-323.5 693.5,-304.5 639.5,-304.5"/>
<text text-anchor="middle" x="666.5" y="-311.5" font-family="Helvetica,sans-Serif" font-size="10.00">rset_find</text>
</a>
</g>
</g>
<!-- Node7&#45;&gt;Node9 -->
<g id="edge8" class="edge">
<title>Node7&#45;&gt;Node9</title>
<path fill="none" stroke="midnightblue" d="M462.75,-178.21C498.45,-180.05 556.34,-188.08 594,-219 622.89,-242.72 604.23,-267.93 630,-295 631.19,-296.25 632.49,-297.44 633.85,-298.57"/>
<polygon fill="midnightblue" stroke="midnightblue" points="632,-301.54 642.22,-304.31 635.96,-295.77 632,-301.54"/>
</g>
<!-- Node10 -->
<g id="node10" class="node">
<title>Node10</title>
<g id="a_node10"><a xlink:href="regex_8c.html#aa085ccd05ec25e3f8053850aebc50fe3" target="_top" xlink:title=" ">
<polygon fill="white" stroke="black" points="748.5,-304.5 748.5,-323.5 799.5,-323.5 799.5,-304.5 748.5,-304.5"/>
<text text-anchor="middle" x="774" y="-311.5" font-family="Helvetica,sans-Serif" font-size="10.00">regexec</text>
</a>
</g>
</g>
<!-- Node9&#45;&gt;Node10 -->
<g id="edge9" class="edge">
<title>Node9&#45;&gt;Node10</title>
<path fill="none" stroke="midnightblue" d="M693.58,-314C707.03,-314 723.63,-314 738.16,-314"/>
<polygon fill="midnightblue" stroke="midnightblue" points="738.31,-317.5 748.31,-314 738.31,-310.5 738.31,-317.5"/>
</g>
<!-- Node11 -->
<g id="node11" class="node">
<title>Node11</title>
<g id="a_node11"><a xlink:href="regex_8c.html#aa5925e49bd18112bb37421dbde29162a" target="_top" xlink:title=" ">
<polygon fill="white" stroke="black" points="845,-266.5 845,-285.5 916,-285.5 916,-266.5 845,-266.5"/>
<text text-anchor="middle" x="880.5" y="-273.5" font-family="Helvetica,sans-Serif" font-size="10.00">re_recmatch</text>
</a>
</g>
</g>
<!-- Node10&#45;&gt;Node11 -->
<g id="edge10" class="edge">
<title>Node10&#45;&gt;Node11</title>
<path fill="none" stroke="midnightblue" d="M799.5,-305.09C812.64,-300.31 829.07,-294.34 843.62,-289.05"/>
<polygon fill="midnightblue" stroke="midnightblue" points="845.12,-292.22 853.33,-285.52 842.73,-285.65 845.12,-292.22"/>
</g>
<!-- Node17 -->
<g id="node17" class="node">
<title>Node17</title>
<g id="a_node17"><a xlink:href="regex_8c.html#a9a0d6d5f93f1eaba8b63b16903c0952d" target="_top" xlink:title=" ">
<polygon fill="white" stroke="black" points="1241.5,-304.5 1241.5,-323.5 1286.5,-323.5 1286.5,-304.5 1241.5,-304.5"/>
<text text-anchor="middle" x="1264" y="-311.5" font-family="Helvetica,sans-Serif" font-size="10.00">uc_len</text>
</a>
</g>
</g>
<!-- Node10&#45;&gt;Node17 -->
<g id="edge21" class="edge">
<title>Node10&#45;&gt;Node17</title>
<path fill="none" stroke="midnightblue" d="M799.71,-321.87C836.9,-333 909.65,-352 973,-352 973,-352 973,-352 1070,-352 1127.75,-352 1193.42,-335.42 1231.34,-324.16"/>
<polygon fill="midnightblue" stroke="midnightblue" points="1232.73,-327.4 1241.28,-321.15 1230.69,-320.7 1232.73,-327.4"/>
</g>
<!-- Node12 -->
<g id="node12" class="node">
<title>Node12</title>
<g id="a_node12"><a xlink:href="regex_8c.html#a8e35614ddf21d405773327a52a95a73d" target="_top" xlink:title=" ">
<polygon fill="white" stroke="black" points="952,-256.5 952,-275.5 996,-275.5 996,-256.5 952,-256.5"/>
<text text-anchor="middle" x="974" y="-263.5" font-family="Helvetica,sans-Serif" font-size="10.00">re_rec</text>
</a>
</g>
</g>
<!-- Node11&#45;&gt;Node12 -->
<g id="edge11" class="edge">
<title>Node11&#45;&gt;Node12</title>
<path fill="none" stroke="midnightblue" d="M916.09,-272.22C924.56,-271.29 933.57,-270.31 941.87,-269.4"/>
<polygon fill="midnightblue" stroke="midnightblue" points="942.34,-272.87 951.9,-268.31 941.58,-265.91 942.34,-272.87"/>
</g>
<!-- Node13 -->
<g id="node13" class="node">
<title>Node13</title>
<g id="a_node13"><a xlink:href="regex_8c.html#a24fd1fc7457ff4f03fb384f7170ac395" target="_top" xlink:title=" ">
<polygon fill="white" stroke="black" points="1032,-237.5 1032,-256.5 1106,-256.5 1106,-237.5 1032,-237.5"/>
<text text-anchor="middle" x="1069" y="-244.5" font-family="Helvetica,sans-Serif" font-size="10.00">ratom_match</text>
</a>
</g>
</g>
<!-- Node12&#45;&gt;Node13 -->
<g id="edge12" class="edge">
<title>Node12&#45;&gt;Node13</title>
<path fill="none" stroke="midnightblue" d="M996.1,-261.69C1003.73,-260.13 1012.68,-258.3 1021.63,-256.47"/>
<polygon fill="midnightblue" stroke="midnightblue" points="1022.55,-259.86 1031.65,-254.43 1021.15,-253 1022.55,-259.86"/>
</g>
<!-- Node14 -->
<g id="node14" class="node">
<title>Node14</title>
<g id="a_node14"><a xlink:href="regex_8c.html#aae17ed73e84075718fb04d131d6ca779" target="_top" xlink:title=" ">
<polygon fill="white" stroke="black" points="1142,-266.5 1142,-285.5 1204,-285.5 1204,-266.5 1142,-266.5"/>
<text text-anchor="middle" x="1173" y="-273.5" font-family="Helvetica,sans-Serif" font-size="10.00">brk_match</text>
</a>
</g>
</g>
<!-- Node13&#45;&gt;Node14 -->
<g id="edge13" class="edge">
<title>Node13&#45;&gt;Node14</title>
<path fill="none" stroke="midnightblue" d="M1103.68,-256.58C1112.72,-259.14 1122.57,-261.95 1131.92,-264.6"/>
<polygon fill="midnightblue" stroke="midnightblue" points="1131.22,-268.04 1141.79,-267.41 1133.13,-261.31 1131.22,-268.04"/>
</g>
<!-- Node16 -->
<g id="node16" class="node">
<title>Node16</title>
<g id="a_node16"><a xlink:href="regex_8c.html#aaf73cdb88048e7f9fd588eb8d5aeb5a3" target="_top" xlink:title=" ">
<polygon fill="white" stroke="black" points="1240,-228.5 1240,-247.5 1288,-247.5 1288,-228.5 1240,-228.5"/>
<text text-anchor="middle" x="1264" y="-235.5" font-family="Helvetica,sans-Serif" font-size="10.00">uc_dec</text>
</a>
</g>
</g>
<!-- Node13&#45;&gt;Node16 -->
<g id="edge19" class="edge">
<title>Node13&#45;&gt;Node16</title>
<path fill="none" stroke="midnightblue" d="M1106.3,-245.31C1141.83,-243.65 1195.48,-241.15 1229.87,-239.54"/>
<polygon fill="midnightblue" stroke="midnightblue" points="1230.06,-243.04 1239.89,-239.08 1229.73,-236.05 1230.06,-243.04"/>
</g>
<!-- Node13&#45;&gt;Node17 -->
<g id="edge20" class="edge">
<title>Node13&#45;&gt;Node17</title>
<path fill="none" stroke="midnightblue" d="M1081.34,-256.87C1094.83,-268.02 1118.49,-285.83 1142,-295 1170.95,-306.29 1206.27,-310.88 1231.26,-312.74"/>
<polygon fill="midnightblue" stroke="midnightblue" points="1231.09,-316.24 1241.29,-313.39 1231.54,-309.25 1231.09,-316.24"/>
</g>
<!-- Node18 -->
<g id="node18" class="node">
<title>Node18</title>
<g id="a_node18"><a xlink:href="regex_8c.html#a35ad3fd0dbb795e6f30404ce86a7be5b" target="_top" xlink:title=" ">
<polygon fill="white" stroke="black" points="1150.5,-190.5 1150.5,-209.5 1195.5,-209.5 1195.5,-190.5 1150.5,-190.5"/>
<text text-anchor="middle" x="1173" y="-197.5" font-family="Helvetica,sans-Serif" font-size="10.00">isword</text>
</a>
</g>
</g>
<!-- Node13&#45;&gt;Node18 -->
<g id="edge17" class="edge">
<title>Node13&#45;&gt;Node18</title>
<path fill="none" stroke="midnightblue" d="M1090.64,-237.49C1105.34,-230.72 1125.32,-221.51 1141.8,-213.91"/>
<polygon fill="midnightblue" stroke="midnightblue" points="1143.42,-217.02 1151.04,-209.66 1140.49,-210.66 1143.42,-217.02"/>
</g>
<!-- Node19 -->
<g id="node19" class="node">
<title>Node19</title>
<g id="a_node19"><a xlink:href="regex_8c.html#ade3e10606e6e8866e6151fe8440d6101" target="_top" xlink:title=" ">
<polygon fill="white" stroke="black" points="1149,-152.5 1149,-171.5 1197,-171.5 1197,-152.5 1149,-152.5"/>
<text text-anchor="middle" x="1173" y="-159.5" font-family="Helvetica,sans-Serif" font-size="10.00">uc_beg</text>
</a>
</g>
</g>
<!-- Node13&#45;&gt;Node19 -->
<g id="edge18" class="edge">
<title>Node13&#45;&gt;Node19</title>
<path fill="none" stroke="midnightblue" d="M1079.3,-237.46C1092.58,-224.09 1118.03,-199.34 1142,-181 1143.62,-179.76 1145.31,-178.53 1147.04,-177.32"/>
<polygon fill="midnightblue" stroke="midnightblue" points="1149.36,-179.99 1155.76,-171.55 1145.49,-174.15 1149.36,-179.99"/>
</g>
<!-- Node15 -->
<g id="node15" class="node">
<title>Node15</title>
<g id="a_node15"><a xlink:href="regex_8c.html#acc18ff8d2687611a9e221b3329b02413" target="_top" xlink:title=" ">
<polygon fill="white" stroke="black" points="1240,-266.5 1240,-285.5 1288,-285.5 1288,-266.5 1240,-266.5"/>
<text text-anchor="middle" x="1264" y="-273.5" font-family="Helvetica,sans-Serif" font-size="10.00">brk_len</text>
</a>
</g>
</g>
<!-- Node14&#45;&gt;Node15 -->
<g id="edge14" class="edge">
<title>Node14&#45;&gt;Node15</title>
<path fill="none" stroke="midnightblue" d="M1204.13,-276C1212.36,-276 1221.32,-276 1229.71,-276"/>
<polygon fill="midnightblue" stroke="midnightblue" points="1229.94,-279.5 1239.94,-276 1229.94,-272.5 1229.94,-279.5"/>
</g>
<!-- Node14&#45;&gt;Node16 -->
<g id="edge15" class="edge">
<title>Node14&#45;&gt;Node16</title>
<path fill="none" stroke="midnightblue" d="M1196.46,-266.41C1207,-261.91 1219.75,-256.47 1231.25,-251.56"/>
<polygon fill="midnightblue" stroke="midnightblue" points="1232.73,-254.73 1240.55,-247.59 1229.98,-248.29 1232.73,-254.73"/>
</g>
<!-- Node14&#45;&gt;Node17 -->
<g id="edge16" class="edge">
<title>Node14&#45;&gt;Node17</title>
<path fill="none" stroke="midnightblue" d="M1196.46,-285.59C1207.24,-290.19 1220.33,-295.78 1232.04,-300.78"/>
<polygon fill="midnightblue" stroke="midnightblue" points="1230.9,-304.1 1241.47,-304.81 1233.65,-297.66 1230.9,-304.1"/>
</g>
<!-- Node21 -->
<g id="node21" class="node">
<title>Node21</title>
<g id="a_node21"><a xlink:href="dir_8c.html#a3b2f132ebfd084295e89aa35eff56ff4" target="_top" xlink:title=" ">
<polygon fill="white" stroke="black" points="523,-152.5 523,-171.5 582,-171.5 582,-152.5 523,-152.5"/>
<text text-anchor="middle" x="552.5" y="-159.5" font-family="Helvetica,sans-Serif" font-size="10.00">dir_match</text>
</a>
</g>
</g>
<!-- Node20&#45;&gt;Node21 -->
<g id="edge23" class="edge">
<title>Node20&#45;&gt;Node21</title>
<path fill="none" stroke="midnightblue" d="M451.71,-126.39C469.14,-132.61 494.47,-141.65 515.25,-149.06"/>
<polygon fill="midnightblue" stroke="midnightblue" points="514.13,-152.38 524.73,-152.45 516.48,-145.79 514.13,-152.38"/>
</g>
<!-- Node31 -->
<g id="node31" class="node">
<title>Node31</title>
<g id="a_node31"><a xlink:href="dir_8c.html#a83ed34b9263550e2ca9b15cc02294a6b" target="_top" xlink:title=" ">
<polygon fill="white" stroke="black" points="520,-109.5 520,-128.5 585,-128.5 585,-109.5 520,-109.5"/>
<text text-anchor="middle" x="552.5" y="-116.5" font-family="Helvetica,sans-Serif" font-size="10.00">dir_reverse</text>
</a>
</g>
</g>
<!-- Node20&#45;&gt;Node31 -->
<g id="edge35" class="edge">
<title>Node20&#45;&gt;Node31</title>
<path fill="none" stroke="midnightblue" d="M451.71,-119C467.57,-119 489.97,-119 509.53,-119"/>
<polygon fill="midnightblue" stroke="midnightblue" points="509.75,-122.5 519.75,-119 509.75,-115.5 509.75,-122.5"/>
</g>
<!-- Node21&#45;&gt;Node9 -->
<g id="edge25" class="edge">
<title>Node21&#45;&gt;Node9</title>
<path fill="none" stroke="midnightblue" d="M576.27,-171.72C582.73,-175.39 589.29,-180.14 594,-186 625.98,-225.75 597.16,-255.95 630,-295 630.98,-296.17 632.06,-297.28 633.2,-298.33"/>
<polygon fill="midnightblue" stroke="midnightblue" points="631.37,-301.32 641.5,-304.42 635.51,-295.68 631.37,-301.32"/>
</g>
<!-- Node22 -->
<g id="node22" class="node">
<title>Node22</title>
<g id="a_node22"><a xlink:href="conf_8c.html#a3efe6ef9cd3bd043b3df1653265409f2" target="_top" xlink:title=" ">
<polygon fill="white" stroke="black" points="630,-152.5 630,-171.5 703,-171.5 703,-152.5 630,-152.5"/>
<text text-anchor="middle" x="666.5" y="-159.5" font-family="Helvetica,sans-Serif" font-size="10.00">conf_dirmark</text>
</a>
</g>
</g>
<!-- Node21&#45;&gt;Node22 -->
<g id="edge24" class="edge">
<title>Node21&#45;&gt;Node22</title>
<path fill="none" stroke="midnightblue" d="M582.05,-162C593.51,-162 607,-162 619.75,-162"/>
<polygon fill="midnightblue" stroke="midnightblue" points="619.77,-165.5 629.77,-162 619.77,-158.5 619.77,-165.5"/>
</g>
<!-- Node23 -->
<g id="node23" class="node">
<title>Node23</title>
<g id="a_node23"><a xlink:href="sbuf_8c.html#a4e56760893d5a6797626743840c9adf2" target="_top" xlink:title=" ">
<polygon fill="white" stroke="black" points="639.5,-228.5 639.5,-247.5 693.5,-247.5 693.5,-228.5 639.5,-228.5"/>
<text text-anchor="middle" x="666.5" y="-235.5" font-family="Helvetica,sans-Serif" font-size="10.00">sbuf_buf</text>
</a>
</g>
</g>
<!-- Node21&#45;&gt;Node23 -->
<g id="edge26" class="edge">
<title>Node21&#45;&gt;Node23</title>
<path fill="none" stroke="midnightblue" d="M571.35,-171.52C578.6,-175.65 586.91,-180.74 594,-186 611.43,-198.94 612.29,-206.45 630,-219 632.1,-220.49 634.32,-221.94 636.6,-223.33"/>
<polygon fill="midnightblue" stroke="midnightblue" points="635.03,-226.47 645.45,-228.39 638.5,-220.39 635.03,-226.47"/>
</g>
<!-- Node25 -->
<g id="node25" class="node">
<title>Node25</title>
<g id="a_node25"><a xlink:href="sbuf_8c.html#a8c1a89868b1999663effb78b4f3fab32" target="_top" xlink:title=" ">
<polygon fill="white" stroke="black" points="638,-76.5 638,-95.5 695,-95.5 695,-76.5 638,-76.5"/>
<text text-anchor="middle" x="666.5" y="-83.5" font-family="Helvetica,sans-Serif" font-size="10.00">sbuf_free</text>
</a>
</g>
</g>
<!-- Node21&#45;&gt;Node25 -->
<g id="edge28" class="edge">
<title>Node21&#45;&gt;Node25</title>
<path fill="none" stroke="midnightblue" d="M571.35,-152.48C578.6,-148.35 586.91,-143.26 594,-138 611.43,-125.06 612.29,-117.55 630,-105 632.1,-103.51 634.32,-102.06 636.6,-100.67"/>
<polygon fill="midnightblue" stroke="midnightblue" points="638.5,-103.61 645.45,-95.61 635.03,-97.53 638.5,-103.61"/>
</g>
<!-- Node26 -->
<g id="node26" class="node">
<title>Node26</title>
<g id="a_node26"><a xlink:href="sbuf_8c.html#a57748585d6786a2c1aadc2cbe6f2135b" target="_top" xlink:title=" ">
<polygon fill="white" stroke="black" points="634,-266.5 634,-285.5 699,-285.5 699,-266.5 634,-266.5"/>
<text text-anchor="middle" x="666.5" y="-273.5" font-family="Helvetica,sans-Serif" font-size="10.00">sbuf_make</text>
</a>
</g>
</g>
<!-- Node21&#45;&gt;Node26 -->
<g id="edge29" class="edge">
<title>Node21&#45;&gt;Node26</title>
<path fill="none" stroke="midnightblue" d="M574.9,-171.69C581.6,-175.47 588.64,-180.27 594,-186 618.18,-211.83 605.26,-231.71 630,-257 631.24,-258.27 632.59,-259.48 634.01,-260.62"/>
<polygon fill="midnightblue" stroke="midnightblue" points="632.42,-263.77 642.67,-266.45 636.33,-257.96 632.42,-263.77"/>
</g>
<!-- Node27 -->
<g id="node27" class="node">
<title>Node27</title>
<g id="a_node27"><a xlink:href="sbuf_8c.html#aa511ac77d6b486accc01c0512ef27ed2" target="_top" xlink:title=" ">
<polygon fill="white" stroke="black" points="635.5,-190.5 635.5,-209.5 697.5,-209.5 697.5,-190.5 635.5,-190.5"/>
<text text-anchor="middle" x="666.5" y="-197.5" font-family="Helvetica,sans-Serif" font-size="10.00">sbuf_mem</text>
</a>
</g>
</g>
<!-- Node21&#45;&gt;Node27 -->
<g id="edge30" class="edge">
<title>Node21&#45;&gt;Node27</title>
<path fill="none" stroke="midnightblue" d="M581.76,-171.59C595.69,-176.31 612.68,-182.08 627.71,-187.18"/>
<polygon fill="midnightblue" stroke="midnightblue" points="626.65,-190.52 637.25,-190.41 628.9,-183.89 626.65,-190.52"/>
</g>
<!-- Node28 -->
<g id="node28" class="node">
<title>Node28</title>
<g id="a_node28"><a xlink:href="uc_8c.html#a8334cbe4db5e54e19bf79b31f68d9eb8" target="_top" xlink:title=" ">
<polygon fill="white" stroke="black" points="644.5,-114.5 644.5,-133.5 688.5,-133.5 688.5,-114.5 644.5,-114.5"/>
<text text-anchor="middle" x="666.5" y="-121.5" font-family="Helvetica,sans-Serif" font-size="10.00">uc_off</text>
</a>
</g>
</g>
<!-- Node21&#45;&gt;Node28 -->
<g id="edge32" class="edge">
<title>Node21&#45;&gt;Node28</title>
<path fill="none" stroke="midnightblue" d="M581.76,-152.41C597.86,-146.95 618.05,-140.1 634.57,-134.49"/>
<polygon fill="midnightblue" stroke="midnightblue" points="635.97,-137.71 644.32,-131.19 633.72,-131.09 635.97,-137.71"/>
</g>
<!-- Node24 -->
<g id="node24" class="node">
<title>Node24</title>
<g id="a_node24"><a xlink:href="sbuf_8c.html#a4ad75f3948c0340c342a3ea3eb63a6e6" target="_top" xlink:title=" ">
<polygon fill="white" stroke="black" points="739,-209.5 739,-228.5 809,-228.5 809,-209.5 739,-209.5"/>
<text text-anchor="middle" x="774" y="-216.5" font-family="Helvetica,sans-Serif" font-size="10.00">sbuf_extend</text>
</a>
</g>
</g>
<!-- Node23&#45;&gt;Node24 -->
<g id="edge27" class="edge">
<title>Node23&#45;&gt;Node24</title>
<path fill="none" stroke="midnightblue" d="M693.58,-233.3C704.26,-231.38 716.91,-229.1 728.95,-226.93"/>
<polygon fill="midnightblue" stroke="midnightblue" points="729.64,-230.37 738.86,-225.15 728.39,-223.48 729.64,-230.37"/>
</g>
<!-- Node27&#45;&gt;Node24 -->
<g id="edge31" class="edge">
<title>Node27&#45;&gt;Node24</title>
<path fill="none" stroke="midnightblue" d="M697.73,-205.44C707.42,-207.19 718.36,-209.16 728.83,-211.05"/>
<polygon fill="midnightblue" stroke="midnightblue" points="728.22,-214.49 738.68,-212.82 729.46,-207.6 728.22,-214.49"/>
</g>
<!-- Node29 -->
<g id="node29" class="node">
<title>Node29</title>
<g id="a_node29"><a xlink:href="uc_8c.html#a79c7c44c06c1febff5680c19667e2676" target="_top" xlink:title=" ">
<polygon fill="white" stroke="black" points="748.5,-38.5 748.5,-57.5 799.5,-57.5 799.5,-38.5 748.5,-38.5"/>
<text text-anchor="middle" x="774" y="-45.5" font-family="Helvetica,sans-Serif" font-size="10.00">uc_next</text>
</a>
</g>
</g>
<!-- Node28&#45;&gt;Node29 -->
<g id="edge33" class="edge">
<title>Node28&#45;&gt;Node29</title>
<path fill="none" stroke="midnightblue" d="M687.05,-114.4C692.35,-111.57 698,-108.33 703,-105 721.58,-92.63 741.16,-76.38 754.87,-64.4"/>
<polygon fill="midnightblue" stroke="midnightblue" points="757.42,-66.81 762.58,-57.56 752.78,-61.57 757.42,-66.81"/>
</g>
<!-- Node30 -->
<g id="node30" class="node">
<title>Node30</title>
<g id="a_node30"><a xlink:href="uc_8c.html#a616e24870a58b86644c34ee077faca11" target="_top" xlink:title=" ">
<polygon fill="white" stroke="black" points="856.5,-19.5 856.5,-38.5 904.5,-38.5 904.5,-19.5 856.5,-19.5"/>
<text text-anchor="middle" x="880.5" y="-26.5" font-family="Helvetica,sans-Serif" font-size="10.00">uc_end</text>
</a>
</g>
</g>
<!-- Node29&#45;&gt;Node30 -->
<g id="edge34" class="edge">
<title>Node29&#45;&gt;Node30</title>
<path fill="none" stroke="midnightblue" d="M799.5,-43.55C813.42,-41.01 831.04,-37.81 846.2,-35.05"/>
<polygon fill="midnightblue" stroke="midnightblue" points="847.02,-38.46 856.23,-33.23 845.76,-31.58 847.02,-38.46"/>
</g>
<!-- Node32&#45;&gt;Node29 -->
<g id="edge37" class="edge">
<title>Node32&#45;&gt;Node29</title>
<path fill="none" stroke="midnightblue" d="M456.71,-70.2C517.31,-65.94 669.2,-55.28 738.07,-50.45"/>
<polygon fill="midnightblue" stroke="midnightblue" points="738.65,-53.92 748.38,-49.73 738.16,-46.94 738.65,-53.92"/>
</g>
<!-- Node32&#45;&gt;Node33 -->
<g id="edge38" class="edge">
<title>Node32&#45;&gt;Node33</title>
<path fill="none" stroke="midnightblue" d="M449.56,-62.45C469.32,-52.28 500.8,-36.08 523.56,-24.38"/>
<polygon fill="midnightblue" stroke="midnightblue" points="525.43,-27.35 532.72,-19.66 522.22,-21.13 525.43,-27.35"/>
</g>
<!-- Node33&#45;&gt;Node30 -->
<g id="edge39" class="edge">
<title>Node33&#45;&gt;Node30</title>
<path fill="none" stroke="midnightblue" d="M577.74,-11.41C635.33,-14.77 780.45,-23.23 846.21,-27.06"/>
<polygon fill="midnightblue" stroke="midnightblue" points="846.23,-30.57 856.42,-27.65 846.64,-23.58 846.23,-30.57"/>
</g>
<!-- Node35 -->
<g id="node35" class="node">
<title>Node35</title>
<g id="a_node35"><a xlink:href="conf_8c.html#ab1da6502eeb02af2fb9fa8a84515b0b6" target="_top" xlink:title=" ">
<polygon fill="white" stroke="black" points="385,-244.5 385,-263.5 475,-263.5 475,-244.5 385,-244.5"/>
<text text-anchor="middle" x="430" y="-251.5" font-family="Helvetica,sans-Serif" font-size="10.00">conf_placeholder</text>
</a>
</g>
</g>
<!-- Node34&#45;&gt;Node35 -->
<g id="edge41" class="edge">
<title>Node34&#45;&gt;Node35</title>
<path fill="none" stroke="midnightblue" d="M346.19,-225.39C359.97,-230.15 376.91,-236 391.87,-241.17"/>
<polygon fill="midnightblue" stroke="midnightblue" points="390.76,-244.49 401.36,-244.45 393.05,-237.88 390.76,-244.49"/>
</g>
<!-- Node36 -->
<g id="node36" class="node">
<title>Node36</title>
<g id="a_node36"><a xlink:href="uc_8c.html#a45fdc2f2f3cb34515f1014bf754741bb" target="_top" xlink:title=" ">
<polygon fill="white" stroke="black" points="403.5,-206.5 403.5,-225.5 456.5,-225.5 456.5,-206.5 403.5,-206.5"/>
<text text-anchor="middle" x="430" y="-213.5" font-family="Helvetica,sans-Serif" font-size="10.00">uc_code</text>
</a>
</g>
</g>
<!-- Node34&#45;&gt;Node36 -->
<g id="edge42" class="edge">
<title>Node34&#45;&gt;Node36</title>
<path fill="none" stroke="midnightblue" d="M346.19,-216C360.35,-216 377.86,-216 393.12,-216"/>
<polygon fill="midnightblue" stroke="midnightblue" points="393.26,-219.5 403.26,-216 393.26,-212.5 393.26,-219.5"/>
</g>
</g>
</svg>
