<?xml version="1.0" encoding="UTF-8" standalone="no"?>
<!DOCTYPE svg PUBLIC "-//W3C//DTD SVG 1.1//EN"
 "http://www.w3.org/Graphics/SVG/1.1/DTD/svg11.dtd">
<!-- Generated by graphviz version 2.44.1 (20200629.0846)
 -->
<!-- Title: lbuf_cp Pages: 1 -->
<!--zoomable 750 -->
<svg id="main" version="1.1" xmlns="http://www.w3.org/2000/svg" xmlns:xlink="http://www.w3.org/1999/xlink" xml:space="preserve" onload="init(evt)">
<style type="text/css"><![CDATA[
.edge:hover path { stroke: red; }
.edge:hover polygon { stroke: red; fill: red; }
]]></style>
<script type="text/javascript"><![CDATA[
var edges = document.getElementsByTagName('g');
if (edges && edges.length) {
  for (var i=0;i<edges.length;i++) {
    if (edges[i].id.substr(0,4)=='edge') {
      edges[i].setAttribute('class','edge');
    }
  }
}
]]></script>
        <defs>
                <circle id="rim" cx="0" cy="0" r="7"/>
                <circle id="rim2" cx="0" cy="0" r="3.5"/>
                <g id="zoomPlus">
                        <use xlink:href="#rim" fill="#404040">
                                <set attributeName="fill" to="#808080" begin="zoomplus.mouseover" end="zoomplus.mouseout"/>
                        </use>
                        <path d="M-4,0h8M0,-4v8" fill="none" stroke="white" stroke-width="1.5" pointer-events="none"/>
                </g>
                <g id="zoomMin">
                        <use xlink:href="#rim" fill="#404040">
                                <set attributeName="fill" to="#808080" begin="zoomminus.mouseover" end="zoomminus.mouseout"/>
                        </use>
                        <path d="M-4,0h8" fill="none" stroke="white" stroke-width="1.5" pointer-events="none"/>
                </g>
                <g id="dirArrow">
                        <path fill="none" stroke="white" stroke-width="1.5" d="M0,-3.0v7 M-2.5,-0.5L0,-3.0L2.5,-0.5"/>
                </g>
               <g id="resetDef">
                       <use xlink:href="#rim2" fill="#404040">
                               <set attributeName="fill" to="#808080" begin="reset.mouseover" end="reset.mouseout"/>
                       </use>
               </g>
        </defs>

<script type="text/javascript">
var viewWidth = 842;
var viewHeight = 750;
var sectionId = 'dynsection-10';
</script>
<script xlink:href="svgpan.js"/>
<svg id="graph" class="graph">
<g id="viewport">
<title>lbuf_cp</title>
<polygon fill="white" stroke="transparent" points="-4,4 -4,-746 838,-746 838,4 -4,4"/>
<!-- Node1 -->
<g id="node1" class="node">
<title>Node1</title>
<g id="a_node1"><a xlink:title=" ">
<polygon fill="#bfbfbf" stroke="black" points="786,-475.5 786,-494.5 834,-494.5 834,-475.5 786,-475.5"/>
<text text-anchor="middle" x="810" y="-482.5" font-family="Helvetica,sans-Serif" font-size="10.00">lbuf_cp</text>
</a>
</g>
</g>
<!-- Node2 -->
<g id="node2" class="node">
<title>Node2</title>
<g id="a_node2"><a xlink:href="ex_8c.html#adcd83f163f659bd2596bcfc25d74bde9" target="_top" xlink:title=" ">
<polygon fill="white" stroke="black" points="467,-722.5 467,-741.5 520,-741.5 520,-722.5 467,-722.5"/>
<text text-anchor="middle" x="493.5" y="-729.5" font-family="Helvetica,sans-Serif" font-size="10.00">ec_exec</text>
</a>
</g>
</g>
<!-- Node1&#45;&gt;Node2 -->
<g id="edge1" class="edge">
<title>Node1&#45;&gt;Node2</title>
<path fill="none" stroke="midnightblue" d="M806.33,-504.78C801.05,-536.57 786.46,-599.31 750,-637 685.84,-703.33 571.18,-723.73 520.18,-729.69"/>
<polygon fill="midnightblue" stroke="midnightblue" points="809.84,-504.98 807.87,-494.56 802.91,-503.93 809.84,-504.98"/>
</g>
<!-- Node11 -->
<g id="node11" class="node">
<title>Node11</title>
<g id="a_node11"><a xlink:href="ex_8c.html#a057b67e2d4f23df3ad50a9d3ec86125b" target="_top" xlink:title=" ">
<polygon fill="white" stroke="black" points="697,-608.5 697,-627.5 750,-627.5 750,-608.5 697,-608.5"/>
<text text-anchor="middle" x="723.5" y="-615.5" font-family="Helvetica,sans-Serif" font-size="10.00">ec_write</text>
</a>
</g>
</g>
<!-- Node1&#45;&gt;Node11 -->
<g id="edge13" class="edge">
<title>Node1&#45;&gt;Node11</title>
<path fill="none" stroke="midnightblue" d="M797.46,-503.16C779.35,-531.67 744.86,-585.96 730.75,-608.16"/>
<polygon fill="midnightblue" stroke="midnightblue" points="800.51,-504.88 802.92,-494.57 794.61,-501.13 800.51,-504.88"/>
</g>
<!-- Node16 -->
<g id="node16" class="node">
<title>Node16</title>
<g id="a_node16"><a xlink:href="ex_8c.html#ae9e1526f5bbf1bcc1ea5cb8fec120f49" target="_top" xlink:title=" ">
<polygon fill="white" stroke="black" points="697,-490.5 697,-509.5 750,-509.5 750,-490.5 697,-490.5"/>
<text text-anchor="middle" x="723.5" y="-497.5" font-family="Helvetica,sans-Serif" font-size="10.00">ex_yank</text>
</a>
</g>
</g>
<!-- Node1&#45;&gt;Node16 -->
<g id="edge21" class="edge">
<title>Node1&#45;&gt;Node16</title>
<path fill="none" stroke="midnightblue" d="M775.88,-490.88C767.36,-492.39 758.32,-494 750.24,-495.43"/>
<polygon fill="midnightblue" stroke="midnightblue" points="776.68,-494.29 785.91,-489.1 775.45,-487.4 776.68,-494.29"/>
</g>
<!-- Node19 -->
<g id="node19" class="node">
<title>Node19</title>
<g id="a_node19"><a xlink:href="lbuf_8c.html#a7882079a375d5591a9f384a80a5599ff" target="_top" xlink:title=" ">
<polygon fill="white" stroke="black" points="698,-418.5 698,-437.5 749,-437.5 749,-418.5 698,-418.5"/>
<text text-anchor="middle" x="723.5" y="-425.5" font-family="Helvetica,sans-Serif" font-size="10.00">lbuf_opt</text>
</a>
</g>
</g>
<!-- Node1&#45;&gt;Node19 -->
<g id="edge24" class="edge">
<title>Node1&#45;&gt;Node19</title>
<path fill="none" stroke="midnightblue" d="M786.31,-469.69C771.13,-459.45 751.62,-446.29 738.62,-437.53"/>
<polygon fill="midnightblue" stroke="midnightblue" points="784.42,-472.64 794.67,-475.33 788.33,-466.84 784.42,-472.64"/>
</g>
<!-- Node34 -->
<g id="node34" class="node">
<title>Node34</title>
<g id="a_node34"><a xlink:href="vi_8c.html#ab8e0c9b9d2ef5161c6a3a8828606df5f" target="_top" xlink:title=" ">
<polygon fill="white" stroke="black" points="470,-152.5 470,-171.5 517,-171.5 517,-152.5 470,-152.5"/>
<text text-anchor="middle" x="493.5" y="-159.5" font-family="Helvetica,sans-Serif" font-size="10.00">vi_pipe</text>
</a>
</g>
</g>
<!-- Node1&#45;&gt;Node34 -->
<g id="edge60" class="edge">
<title>Node1&#45;&gt;Node34</title>
<path fill="none" stroke="midnightblue" d="M795.95,-467.12C784.32,-451.44 766.62,-428.23 750,-409 658.13,-302.69 643.47,-265.22 531,-181 526.31,-177.49 520.88,-174.28 515.67,-171.53"/>
<polygon fill="midnightblue" stroke="midnightblue" points="793.29,-469.41 802.04,-475.39 798.93,-465.26 793.29,-469.41"/>
</g>
<!-- Node36 -->
<g id="node36" class="node">
<title>Node36</title>
<g id="a_node36"><a xlink:href="vi_8c.html#a2d2d2965bc8143e80182d0205d32bdc4" target="_top" xlink:title=" ">
<polygon fill="white" stroke="black" points="582,-76.5 582,-95.5 646,-95.5 646,-76.5 582,-76.5"/>
<text text-anchor="middle" x="614" y="-83.5" font-family="Helvetica,sans-Serif" font-size="10.00">lbuf_region</text>
</a>
</g>
</g>
<!-- Node1&#45;&gt;Node36 -->
<g id="edge54" class="edge">
<title>Node1&#45;&gt;Node36</title>
<path fill="none" stroke="midnightblue" d="M806.85,-465.08C801.77,-423.65 786.58,-326.02 750,-253 716.1,-185.33 651.08,-119.97 625.6,-95.81"/>
<polygon fill="midnightblue" stroke="midnightblue" points="803.4,-465.67 808.02,-475.2 810.35,-464.86 803.4,-465.67"/>
</g>
<!-- Node3 -->
<g id="node3" class="node">
<title>Node3</title>
<g id="a_node3"><a xlink:href="ex_8c.html#a7d848d20211b2e1c868dde98ec5dfae9" target="_top" xlink:title=" ">
<polygon fill="white" stroke="black" points="365.5,-608.5 365.5,-627.5 412.5,-627.5 412.5,-608.5 365.5,-608.5"/>
<text text-anchor="middle" x="389" y="-615.5" font-family="Helvetica,sans-Serif" font-size="10.00">ex_line</text>
</a>
</g>
</g>
<!-- Node2&#45;&gt;Node3 -->
<g id="edge2" class="edge">
<title>Node2&#45;&gt;Node3</title>
<path fill="none" stroke="midnightblue" d="M466.9,-716.87C463.07,-714.13 459.31,-711.14 456,-708 429.17,-682.51 405.64,-644.96 395.42,-627.53"/>
<polygon fill="midnightblue" stroke="midnightblue" points="464.96,-719.78 475.22,-722.41 468.84,-713.95 464.96,-719.78"/>
</g>
<!-- Node4 -->
<g id="node4" class="node">
<title>Node4</title>
<g id="a_node4"><a xlink:href="ex_8c.html#ab15ebfef933256d9741128e2ddf3f9b5" target="_top" xlink:title=" ">
<polygon fill="white" stroke="black" points="267.5,-570.5 267.5,-589.5 320.5,-589.5 320.5,-570.5 267.5,-570.5"/>
<text text-anchor="middle" x="294" y="-577.5" font-family="Helvetica,sans-Serif" font-size="10.00">ex_exec</text>
</a>
</g>
</g>
<!-- Node3&#45;&gt;Node4 -->
<g id="edge3" class="edge">
<title>Node3&#45;&gt;Node4</title>
<path fill="none" stroke="midnightblue" d="M355.96,-604.91C343.58,-599.85 329.67,-594.17 318.28,-589.51"/>
<polygon fill="midnightblue" stroke="midnightblue" points="354.91,-608.26 365.49,-608.8 357.55,-601.78 354.91,-608.26"/>
</g>
<!-- Node5 -->
<g id="node5" class="node">
<title>Node5</title>
<g id="a_node5"><a xlink:href="ex_8c.html#a70c571bdde329a65e216c19b4aeaa628" target="_top" xlink:title=" ">
<polygon fill="white" stroke="black" points="167.5,-599.5 167.5,-618.5 217.5,-618.5 217.5,-599.5 167.5,-599.5"/>
<text text-anchor="middle" x="192.5" y="-606.5" font-family="Helvetica,sans-Serif" font-size="10.00">ec_glob</text>
</a>
</g>
</g>
<!-- Node4&#45;&gt;Node5 -->
<g id="edge4" class="edge">
<title>Node4&#45;&gt;Node5</title>
<path fill="none" stroke="midnightblue" d="M257.61,-590.31C244.38,-594.17 229.66,-598.46 217.67,-601.96"/>
<polygon fill="midnightblue" stroke="midnightblue" points="258.76,-593.63 267.38,-587.47 256.8,-586.91 258.76,-593.63"/>
</g>
<!-- Node6 -->
<g id="node6" class="node">
<title>Node6</title>
<g id="a_node6"><a xlink:href="vi_8h.html#aa75c73cccb4878ec06ea5bf5b1b02295" target="_top" xlink:title=" ">
<polygon fill="white" stroke="black" points="155,-437.5 155,-456.5 230,-456.5 230,-437.5 155,-437.5"/>
<text text-anchor="middle" x="192.5" y="-444.5" font-family="Helvetica,sans-Serif" font-size="10.00">ex_command</text>
</a>
</g>
</g>
<!-- Node4&#45;&gt;Node6 -->
<g id="edge6" class="edge">
<title>Node4&#45;&gt;Node6</title>
<path fill="none" stroke="midnightblue" d="M279.69,-562.21C258.44,-533.8 217.54,-479.14 200.86,-456.84"/>
<polygon fill="midnightblue" stroke="midnightblue" points="277.05,-564.52 285.84,-570.43 282.66,-560.33 277.05,-564.52"/>
</g>
<!-- Node5&#45;&gt;Node3 -->
<g id="edge5" class="edge">
<title>Node5&#45;&gt;Node3</title>
<path fill="none" stroke="midnightblue" d="M227.8,-610.59C267.41,-612.42 331.44,-615.38 365.31,-616.95"/>
<polygon fill="midnightblue" stroke="midnightblue" points="227.72,-607.08 217.57,-610.11 227.39,-614.07 227.72,-607.08"/>
</g>
<!-- Node7 -->
<g id="node7" class="node">
<title>Node7</title>
<g id="a_node7"><a xlink:href="vi_8h.html#ac395e51f25330a6e6033b6d0d22b2076" target="_top" xlink:title=" ">
<polygon fill="white" stroke="black" points="82,-437.5 82,-456.5 111,-456.5 111,-437.5 82,-437.5"/>
<text text-anchor="middle" x="96.5" y="-444.5" font-family="Helvetica,sans-Serif" font-size="10.00">ex</text>
</a>
</g>
</g>
<!-- Node6&#45;&gt;Node7 -->
<g id="edge7" class="edge">
<title>Node6&#45;&gt;Node7</title>
<path fill="none" stroke="midnightblue" d="M144.73,-447C132.54,-447 120.33,-447 111.38,-447"/>
<polygon fill="midnightblue" stroke="midnightblue" points="144.89,-450.5 154.89,-447 144.89,-443.5 144.89,-450.5"/>
</g>
<!-- Node9 -->
<g id="node9" class="node">
<title>Node9</title>
<g id="a_node9"><a xlink:href="vi_8h.html#abe53b5c10f94f20cd5ed024371615fa1" target="_top" xlink:title=" ">
<polygon fill="white" stroke="black" points="74,-399.5 74,-418.5 119,-418.5 119,-399.5 74,-399.5"/>
<text text-anchor="middle" x="96.5" y="-406.5" font-family="Helvetica,sans-Serif" font-size="10.00">ex_init</text>
</a>
</g>
</g>
<!-- Node6&#45;&gt;Node9 -->
<g id="edge9" class="edge">
<title>Node6&#45;&gt;Node9</title>
<path fill="none" stroke="midnightblue" d="M158.25,-433.56C145.31,-428.33 130.85,-422.48 119.28,-417.8"/>
<polygon fill="midnightblue" stroke="midnightblue" points="157.2,-436.91 167.78,-437.41 159.82,-430.42 157.2,-436.91"/>
</g>
<!-- Node10 -->
<g id="node10" class="node">
<title>Node10</title>
<g id="a_node10"><a xlink:href="vi_8c.html#a8d808e0f3453afe6600673ee1ea5f828" target="_top" xlink:title=" ">
<polygon fill="white" stroke="black" points="82,-304.5 82,-323.5 111,-323.5 111,-304.5 82,-304.5"/>
<text text-anchor="middle" x="96.5" y="-311.5" font-family="Helvetica,sans-Serif" font-size="10.00">vi</text>
</a>
</g>
</g>
<!-- Node6&#45;&gt;Node10 -->
<g id="edge11" class="edge">
<title>Node6&#45;&gt;Node10</title>
<path fill="none" stroke="midnightblue" d="M178.93,-429.21C158.85,-400.8 120.21,-346.14 104.45,-323.84"/>
<polygon fill="midnightblue" stroke="midnightblue" points="176.11,-431.29 184.74,-437.43 181.83,-427.25 176.11,-431.29"/>
</g>
<!-- Node8 -->
<g id="node8" class="node">
<title>Node8</title>
<g id="a_node8"><a xlink:href="vi_8c.html#a0ddf1224851353fc92bfbff6f499fa97" target="_top" xlink:title=" ">
<polygon fill="white" stroke="black" points="0,-399.5 0,-418.5 38,-418.5 38,-399.5 0,-399.5"/>
<text text-anchor="middle" x="19" y="-406.5" font-family="Helvetica,sans-Serif" font-size="10.00">main</text>
</a>
</g>
</g>
<!-- Node7&#45;&gt;Node8 -->
<g id="edge8" class="edge">
<title>Node7&#45;&gt;Node8</title>
<path fill="none" stroke="midnightblue" d="M72.56,-435.45C61.48,-429.88 48.39,-423.29 38.04,-418.08"/>
<polygon fill="midnightblue" stroke="midnightblue" points="71.15,-438.66 81.65,-440.03 74.29,-432.41 71.15,-438.66"/>
</g>
<!-- Node9&#45;&gt;Node8 -->
<g id="edge10" class="edge">
<title>Node9&#45;&gt;Node8</title>
<path fill="none" stroke="midnightblue" d="M63.55,-409C54.99,-409 46.03,-409 38.47,-409"/>
<polygon fill="midnightblue" stroke="midnightblue" points="63.66,-412.5 73.66,-409 63.66,-405.5 63.66,-412.5"/>
</g>
<!-- Node10&#45;&gt;Node8 -->
<g id="edge12" class="edge">
<title>Node10&#45;&gt;Node8</title>
<path fill="none" stroke="midnightblue" d="M81.33,-331.83C65.42,-351.85 40.21,-383.58 27.64,-399.39"/>
<polygon fill="midnightblue" stroke="midnightblue" points="84.22,-333.82 87.7,-323.81 78.74,-329.46 84.22,-333.82"/>
</g>
<!-- Node12 -->
<g id="node12" class="node">
<title>Node12</title>
<g id="a_node12"><a xlink:href="ex_8c.html#ab0cb848a971a3b2c09fcb456d887dd6b" target="_top" xlink:title=" ">
<polygon fill="white" stroke="black" points="567,-646.5 567,-665.5 661,-665.5 661,-646.5 567,-646.5"/>
<text text-anchor="middle" x="614" y="-653.5" font-family="Helvetica,sans-Serif" font-size="10.00">ex_modifiedbuffer</text>
</a>
</g>
</g>
<!-- Node11&#45;&gt;Node12 -->
<g id="edge14" class="edge">
<title>Node11&#45;&gt;Node12</title>
<path fill="none" stroke="midnightblue" d="M687,-630.55C672.36,-635.72 655.66,-641.63 642.04,-646.44"/>
<polygon fill="midnightblue" stroke="midnightblue" points="688.49,-633.73 696.75,-627.1 686.16,-627.13 688.49,-633.73"/>
</g>
<!-- Node12&#45;&gt;Node2 -->
<g id="edge17" class="edge">
<title>Node12&#45;&gt;Node2</title>
<path fill="none" stroke="midnightblue" d="M589.52,-671.06C565.7,-686.34 529.53,-709.53 509.39,-722.45"/>
<polygon fill="midnightblue" stroke="midnightblue" points="591.46,-673.97 597.99,-665.63 587.68,-668.08 591.46,-673.97"/>
</g>
<!-- Node13 -->
<g id="node13" class="node">
<title>Node13</title>
<g id="a_node13"><a xlink:href="ex_8c.html#a8059390ad69866fa8e14bdb2521d4dc2" target="_top" xlink:title=" ">
<polygon fill="white" stroke="black" points="365,-456.5 365,-475.5 413,-475.5 413,-456.5 365,-456.5"/>
<text text-anchor="middle" x="389" y="-463.5" font-family="Helvetica,sans-Serif" font-size="10.00">ec_edit</text>
</a>
</g>
</g>
<!-- Node12&#45;&gt;Node13 -->
<g id="edge15" class="edge">
<title>Node12&#45;&gt;Node13</title>
<path fill="none" stroke="midnightblue" d="M585.7,-669.81C551.88,-684.74 494.09,-702.92 456,-675 439,-662.54 402.01,-515.18 392.35,-475.69"/>
<polygon fill="midnightblue" stroke="midnightblue" points="587.36,-672.9 594.97,-665.53 584.42,-666.54 587.36,-672.9"/>
</g>
<!-- Node14 -->
<g id="node14" class="node">
<title>Node14</title>
<g id="a_node14"><a xlink:href="ex_8c.html#aa69f426ff9728078fbb36f448c624a90" target="_top" xlink:title=" ">
<polygon fill="white" stroke="black" points="465.5,-646.5 465.5,-665.5 521.5,-665.5 521.5,-646.5 465.5,-646.5"/>
<text text-anchor="middle" x="493.5" y="-653.5" font-family="Helvetica,sans-Serif" font-size="10.00">ec_make</text>
</a>
</g>
</g>
<!-- Node12&#45;&gt;Node14 -->
<g id="edge18" class="edge">
<title>Node12&#45;&gt;Node14</title>
<path fill="none" stroke="midnightblue" d="M556.65,-656C544.41,-656 532.01,-656 521.53,-656"/>
<polygon fill="midnightblue" stroke="midnightblue" points="556.85,-659.5 566.85,-656 556.85,-652.5 556.85,-659.5"/>
</g>
<!-- Node15 -->
<g id="node15" class="node">
<title>Node15</title>
<g id="a_node15"><a xlink:href="ex_8c.html#a87eef446de152fad41ce88a9a343b87d" target="_top" xlink:title=" ">
<polygon fill="white" stroke="black" points="469.5,-608.5 469.5,-627.5 517.5,-627.5 517.5,-608.5 469.5,-608.5"/>
<text text-anchor="middle" x="493.5" y="-615.5" font-family="Helvetica,sans-Serif" font-size="10.00">ec_quit</text>
</a>
</g>
</g>
<!-- Node12&#45;&gt;Node15 -->
<g id="edge19" class="edge">
<title>Node12&#45;&gt;Node15</title>
<path fill="none" stroke="midnightblue" d="M573.44,-643.32C554.93,-637.38 533.51,-630.51 517.66,-625.43"/>
<polygon fill="midnightblue" stroke="midnightblue" points="572.51,-646.69 583.1,-646.41 574.64,-640.02 572.51,-646.69"/>
</g>
<!-- Node13&#45;&gt;Node9 -->
<g id="edge16" class="edge">
<title>Node13&#45;&gt;Node9</title>
<path fill="none" stroke="midnightblue" d="M355.18,-457.16C323.36,-448.81 273.63,-436.36 230,-428 191.2,-420.57 145.5,-414.63 119.18,-411.48"/>
<polygon fill="midnightblue" stroke="midnightblue" points="354.29,-460.54 364.86,-459.71 356.08,-453.77 354.29,-460.54"/>
</g>
<!-- Node15&#45;&gt;Node11 -->
<g id="edge20" class="edge">
<title>Node15&#45;&gt;Node11</title>
<path fill="none" stroke="midnightblue" d="M527.75,-618C573.61,-618 655.3,-618 696.79,-618"/>
<polygon fill="midnightblue" stroke="midnightblue" points="527.72,-614.5 517.72,-618 527.72,-621.5 527.72,-614.5"/>
</g>
<!-- Node17 -->
<g id="node17" class="node">
<title>Node17</title>
<g id="a_node17"><a xlink:href="ex_8c.html#a4cd0748447515b7a935e4bb41424a9e4" target="_top" xlink:title=" ">
<polygon fill="white" stroke="black" points="464,-570.5 464,-589.5 523,-589.5 523,-570.5 464,-570.5"/>
<text text-anchor="middle" x="493.5" y="-577.5" font-family="Helvetica,sans-Serif" font-size="10.00">ec_delete</text>
</a>
</g>
</g>
<!-- Node16&#45;&gt;Node17 -->
<g id="edge22" class="edge">
<title>Node16&#45;&gt;Node17</title>
<path fill="none" stroke="midnightblue" d="M687.32,-512.34C641.75,-528.33 563.27,-555.87 521.89,-570.39"/>
<polygon fill="midnightblue" stroke="midnightblue" points="688.51,-515.64 696.79,-509.02 686.19,-509.03 688.51,-515.64"/>
</g>
<!-- Node18 -->
<g id="node18" class="node">
<title>Node18</title>
<g id="a_node18"><a xlink:href="ex_8c.html#a487b22f0ae712d3338f5e9d8d6fa8540" target="_top" xlink:title=" ">
<polygon fill="white" stroke="black" points="587.5,-490.5 587.5,-509.5 640.5,-509.5 640.5,-490.5 587.5,-490.5"/>
<text text-anchor="middle" x="614" y="-497.5" font-family="Helvetica,sans-Serif" font-size="10.00">ec_yank</text>
</a>
</g>
</g>
<!-- Node16&#45;&gt;Node18 -->
<g id="edge23" class="edge">
<title>Node16&#45;&gt;Node18</title>
<path fill="none" stroke="midnightblue" d="M686.7,-500C671.58,-500 654.33,-500 640.54,-500"/>
<polygon fill="midnightblue" stroke="midnightblue" points="686.75,-503.5 696.75,-500 686.75,-496.5 686.75,-503.5"/>
</g>
<!-- Node20 -->
<g id="node20" class="node">
<title>Node20</title>
<g id="a_node20"><a xlink:href="vi_8h.html#ace23fcf99b4a5bb0e4da7bfbeb292a7d" target="_top" xlink:title=" ">
<polygon fill="white" stroke="black" points="587.5,-342.5 587.5,-361.5 640.5,-361.5 640.5,-342.5 587.5,-342.5"/>
<text text-anchor="middle" x="614" y="-349.5" font-family="Helvetica,sans-Serif" font-size="10.00">lbuf_edit</text>
</a>
</g>
</g>
<!-- Node19&#45;&gt;Node20 -->
<g id="edge25" class="edge">
<title>Node19&#45;&gt;Node20</title>
<path fill="none" stroke="midnightblue" d="M700.63,-412.54C679.01,-397.25 646.62,-374.36 628.5,-361.55"/>
<polygon fill="midnightblue" stroke="midnightblue" points="698.7,-415.46 708.89,-418.37 702.74,-409.74 698.7,-415.46"/>
</g>
<!-- Node20&#45;&gt;Node2 -->
<g id="edge27" class="edge">
<title>Node20&#45;&gt;Node2</title>
<path fill="none" stroke="midnightblue" d="M605.2,-370.88C595.17,-395.75 577.76,-441.02 567,-481 544.2,-565.68 563.24,-593.45 531,-675 523.91,-692.92 510.93,-711.27 502.51,-722.15"/>
<polygon fill="midnightblue" stroke="midnightblue" points="608.47,-372.12 609,-361.54 601.99,-369.48 608.47,-372.12"/>
</g>
<!-- Node20&#45;&gt;Node17 -->
<g id="edge26" class="edge">
<title>Node20&#45;&gt;Node17</title>
<path fill="none" stroke="midnightblue" d="M606.24,-371.48C589.1,-420.5 544.39,-546.11 531,-561 527.66,-564.72 523.41,-567.82 519.01,-570.37"/>
<polygon fill="midnightblue" stroke="midnightblue" points="609.64,-372.35 609.63,-361.75 603.03,-370.05 609.64,-372.35"/>
</g>
<!-- Node21 -->
<g id="node21" class="node">
<title>Node21</title>
<g id="a_node21"><a xlink:href="ex_8c.html#a0908784dc65be2da119a6b72ef96dec2" target="_top" xlink:title=" ">
<polygon fill="white" stroke="black" points="465.5,-532.5 465.5,-551.5 521.5,-551.5 521.5,-532.5 465.5,-532.5"/>
<text text-anchor="middle" x="493.5" y="-539.5" font-family="Helvetica,sans-Serif" font-size="10.00">ec_insert</text>
</a>
</g>
</g>
<!-- Node20&#45;&gt;Node21 -->
<g id="edge28" class="edge">
<title>Node20&#45;&gt;Node21</title>
<path fill="none" stroke="midnightblue" d="M608.06,-371.55C598.47,-406.01 574.39,-478.17 531,-523 527.42,-526.7 522.97,-529.82 518.42,-532.39"/>
<polygon fill="midnightblue" stroke="midnightblue" points="611.47,-372.33 610.67,-361.77 604.71,-370.53 611.47,-372.33"/>
</g>
<!-- Node22 -->
<g id="node22" class="node">
<title>Node22</title>
<g id="a_node22"><a xlink:href="ex_8c.html#ab417867ff867aff9f7277229990cd1b8" target="_top" xlink:title=" ">
<polygon fill="white" stroke="black" points="470.5,-494.5 470.5,-513.5 516.5,-513.5 516.5,-494.5 470.5,-494.5"/>
<text text-anchor="middle" x="493.5" y="-501.5" font-family="Helvetica,sans-Serif" font-size="10.00">ec_put</text>
</a>
</g>
</g>
<!-- Node20&#45;&gt;Node22 -->
<g id="edge29" class="edge">
<title>Node20&#45;&gt;Node22</title>
<path fill="none" stroke="midnightblue" d="M605.25,-371C593.03,-398.99 566.93,-451.58 531,-485 526.81,-488.89 521.68,-492.21 516.6,-494.93"/>
<polygon fill="midnightblue" stroke="midnightblue" points="608.56,-372.14 609.24,-361.57 602.12,-369.41 608.56,-372.14"/>
</g>
<!-- Node23 -->
<g id="node23" class="node">
<title>Node23</title>
<g id="a_node23"><a xlink:href="ex_8c.html#add0e79e1f1e3d45f4eaa6fbe5c1ca443" target="_top" xlink:title=" ">
<polygon fill="white" stroke="black" points="363.5,-399.5 363.5,-418.5 414.5,-418.5 414.5,-399.5 363.5,-399.5"/>
<text text-anchor="middle" x="389" y="-406.5" font-family="Helvetica,sans-Serif" font-size="10.00">ec_read</text>
</a>
</g>
</g>
<!-- Node20&#45;&gt;Node23 -->
<g id="edge30" class="edge">
<title>Node20&#45;&gt;Node23</title>
<path fill="none" stroke="midnightblue" d="M577.68,-361.03C532.16,-372.66 454.18,-392.59 414.6,-402.71"/>
<polygon fill="midnightblue" stroke="midnightblue" points="578.6,-364.41 587.42,-358.54 576.86,-357.62 578.6,-364.41"/>
</g>
<!-- Node24 -->
<g id="node24" class="node">
<title>Node24</title>
<g id="a_node24"><a xlink:href="ex_8c.html#aaf4e813ce4370aa859181d22de51576b" target="_top" xlink:title=" ">
<polygon fill="white" stroke="black" points="456,-418.5 456,-437.5 531,-437.5 531,-418.5 456,-418.5"/>
<text text-anchor="middle" x="493.5" y="-425.5" font-family="Helvetica,sans-Serif" font-size="10.00">ec_substitute</text>
</a>
</g>
</g>
<!-- Node20&#45;&gt;Node24 -->
<g id="edge31" class="edge">
<title>Node20&#45;&gt;Node24</title>
<path fill="none" stroke="midnightblue" d="M589.52,-367.06C565.7,-382.34 529.53,-405.53 509.39,-418.45"/>
<polygon fill="midnightblue" stroke="midnightblue" points="591.46,-369.97 597.99,-361.63 587.68,-364.08 591.46,-369.97"/>
</g>
<!-- Node25 -->
<g id="node25" class="node">
<title>Node25</title>
<g id="a_node25"><a xlink:href="vi_8h.html#a73da27946270b153994b708a93095bc6" target="_top" xlink:title=" ">
<polygon fill="white" stroke="black" points="470.5,-456.5 470.5,-475.5 516.5,-475.5 516.5,-456.5 470.5,-456.5"/>
<text text-anchor="middle" x="493.5" y="-463.5" font-family="Helvetica,sans-Serif" font-size="10.00">lbuf_rd</text>
</a>
</g>
</g>
<!-- Node20&#45;&gt;Node25 -->
<g id="edge32" class="edge">
<title>Node20&#45;&gt;Node25</title>
<path fill="none" stroke="midnightblue" d="M600.6,-370.14C585.85,-390.73 559.6,-424.37 531,-447 526.52,-450.55 521.27,-453.73 516.18,-456.43"/>
<polygon fill="midnightblue" stroke="midnightblue" points="603.66,-371.88 606.54,-361.69 597.93,-367.86 603.66,-371.88"/>
</g>
<!-- Node26 -->
<g id="node26" class="node">
<title>Node26</title>
<g id="a_node26"><a xlink:href="vi_8c.html#a8bb357a77ed61da8858f138c6fa672a6" target="_top" xlink:title=" ">
<polygon fill="white" stroke="black" points="266,-266.5 266,-285.5 322,-285.5 322,-266.5 266,-266.5"/>
<text text-anchor="middle" x="294" y="-273.5" font-family="Helvetica,sans-Serif" font-size="10.00">vc_insert</text>
</a>
</g>
</g>
<!-- Node20&#45;&gt;Node26 -->
<g id="edge35" class="edge">
<title>Node20&#45;&gt;Node26</title>
<path fill="none" stroke="midnightblue" d="M593.74,-336.11C577.92,-324.01 554.39,-308.1 531,-300 458.61,-274.94 366.83,-273.63 322.05,-274.78"/>
<polygon fill="midnightblue" stroke="midnightblue" points="591.66,-338.93 601.68,-342.37 595.99,-333.43 591.66,-338.93"/>
</g>
<!-- Node27 -->
<g id="node27" class="node">
<title>Node27</title>
<g id="a_node27"><a xlink:href="vi_8c.html#a3d105f7bfebd8365af5b66d6dedf184e" target="_top" xlink:title=" ">
<polygon fill="white" stroke="black" points="270.5,-228.5 270.5,-247.5 317.5,-247.5 317.5,-228.5 270.5,-228.5"/>
<text text-anchor="middle" x="294" y="-235.5" font-family="Helvetica,sans-Serif" font-size="10.00">vc_join</text>
</a>
</g>
</g>
<!-- Node20&#45;&gt;Node27 -->
<g id="edge37" class="edge">
<title>Node20&#45;&gt;Node27</title>
<path fill="none" stroke="midnightblue" d="M599.14,-334.73C584.23,-317.44 558.88,-291.5 531,-278 458.82,-243.04 361.34,-238.06 317.73,-237.72"/>
<polygon fill="midnightblue" stroke="midnightblue" points="596.48,-337.01 605.58,-342.44 601.85,-332.52 596.48,-337.01"/>
</g>
<!-- Node28 -->
<g id="node28" class="node">
<title>Node28</title>
<g id="a_node28"><a xlink:href="vi_8c.html#a7611a5bcfe4c4ddc58233c4c52a8fa16" target="_top" xlink:title=" ">
<polygon fill="white" stroke="black" points="271,-342.5 271,-361.5 317,-361.5 317,-342.5 271,-342.5"/>
<text text-anchor="middle" x="294" y="-349.5" font-family="Helvetica,sans-Serif" font-size="10.00">vc_put</text>
</a>
</g>
</g>
<!-- Node20&#45;&gt;Node28 -->
<g id="edge39" class="edge">
<title>Node20&#45;&gt;Node28</title>
<path fill="none" stroke="midnightblue" d="M576.88,-352C510.55,-352 371.2,-352 317.12,-352"/>
<polygon fill="midnightblue" stroke="midnightblue" points="577.25,-355.5 587.25,-352 577.25,-348.5 577.25,-355.5"/>
</g>
<!-- Node29 -->
<g id="node29" class="node">
<title>Node29</title>
<g id="a_node29"><a xlink:href="vi_8c.html#a3635843354dbb31e3c00efcd5798535a" target="_top" xlink:title=" ">
<polygon fill="white" stroke="black" points="160.5,-304.5 160.5,-323.5 224.5,-323.5 224.5,-304.5 160.5,-304.5"/>
<text text-anchor="middle" x="192.5" y="-311.5" font-family="Helvetica,sans-Serif" font-size="10.00">vc_replace</text>
</a>
</g>
</g>
<!-- Node20&#45;&gt;Node29 -->
<g id="edge41" class="edge">
<title>Node20&#45;&gt;Node29</title>
<path fill="none" stroke="midnightblue" d="M577.22,-348.76C496.38,-341.44 300.8,-323.72 224.61,-316.82"/>
<polygon fill="midnightblue" stroke="midnightblue" points="577.11,-352.26 587.39,-349.68 577.75,-345.29 577.11,-352.26"/>
</g>
<!-- Node30 -->
<g id="node30" class="node">
<title>Node30</title>
<g id="a_node30"><a xlink:href="vi_8c.html#a4e8a00c8cdffacf0c69c3901cdcdf059" target="_top" xlink:title=" ">
<polygon fill="white" stroke="black" points="468.5,-76.5 468.5,-95.5 518.5,-95.5 518.5,-76.5 468.5,-76.5"/>
<text text-anchor="middle" x="493.5" y="-83.5" font-family="Helvetica,sans-Serif" font-size="10.00">vi_case</text>
</a>
</g>
</g>
<!-- Node20&#45;&gt;Node30 -->
<g id="edge43" class="edge">
<title>Node20&#45;&gt;Node30</title>
<path fill="none" stroke="midnightblue" d="M611.43,-332.25C606.85,-286.94 589.89,-174.12 531,-105 527.66,-101.08 523.32,-97.87 518.79,-95.27"/>
<polygon fill="midnightblue" stroke="midnightblue" points="607.94,-332.6 612.34,-342.24 614.91,-331.97 607.94,-332.6"/>
</g>
<!-- Node32 -->
<g id="node32" class="node">
<title>Node32</title>
<g id="a_node32"><a xlink:href="vi_8c.html#ae37b094c3bb647d8c1a4ac4e858ce518" target="_top" xlink:title=" ">
<polygon fill="white" stroke="black" points="463,-38.5 463,-57.5 524,-57.5 524,-38.5 463,-38.5"/>
<text text-anchor="middle" x="493.5" y="-45.5" font-family="Helvetica,sans-Serif" font-size="10.00">vi_change</text>
</a>
</g>
</g>
<!-- Node20&#45;&gt;Node32 -->
<g id="edge46" class="edge">
<title>Node20&#45;&gt;Node32</title>
<path fill="none" stroke="midnightblue" d="M612.49,-332.32C610.21,-282.35 597.83,-148.72 531,-67 527.92,-63.24 523.91,-60.14 519.67,-57.61"/>
<polygon fill="midnightblue" stroke="midnightblue" points="609,-332.55 612.86,-342.41 615.99,-332.29 609,-332.55"/>
</g>
<!-- Node33 -->
<g id="node33" class="node">
<title>Node33</title>
<g id="a_node33"><a xlink:href="vi_8c.html#abfa30fc2e2b4b8b24e2ee5d4bd54f2eb" target="_top" xlink:title=" ">
<polygon fill="white" stroke="black" points="465.5,-114.5 465.5,-133.5 521.5,-133.5 521.5,-114.5 465.5,-114.5"/>
<text text-anchor="middle" x="493.5" y="-121.5" font-family="Helvetica,sans-Serif" font-size="10.00">vi_delete</text>
</a>
</g>
</g>
<!-- Node20&#45;&gt;Node33 -->
<g id="edge48" class="edge">
<title>Node20&#45;&gt;Node33</title>
<path fill="none" stroke="midnightblue" d="M610.03,-332.36C603.03,-292.24 582.11,-199.84 531,-143 527.66,-139.28 523.41,-136.18 519.01,-133.63"/>
<polygon fill="midnightblue" stroke="midnightblue" points="606.61,-333.13 611.68,-342.43 613.51,-332 606.61,-333.13"/>
</g>
<!-- Node20&#45;&gt;Node34 -->
<g id="edge50" class="edge">
<title>Node20&#45;&gt;Node34</title>
<path fill="none" stroke="midnightblue" d="M599.76,-334.11C589.84,-320.15 576.42,-300 567,-281 546.02,-238.68 562.08,-216.57 531,-181 527.24,-176.7 522.26,-173.23 517.2,-170.49"/>
<polygon fill="midnightblue" stroke="midnightblue" points="597,-336.26 605.69,-342.32 602.67,-332.16 597,-336.26"/>
</g>
<!-- Node35 -->
<g id="node35" class="node">
<title>Node35</title>
<g id="a_node35"><a xlink:href="vi_8c.html#a48860be78b002b73335ae1b47dd56929" target="_top" xlink:title=" ">
<polygon fill="white" stroke="black" points="469.5,-190.5 469.5,-209.5 517.5,-209.5 517.5,-190.5 469.5,-190.5"/>
<text text-anchor="middle" x="493.5" y="-197.5" font-family="Helvetica,sans-Serif" font-size="10.00">vi_shift</text>
</a>
</g>
</g>
<!-- Node20&#45;&gt;Node35 -->
<g id="edge52" class="edge">
<title>Node20&#45;&gt;Node35</title>
<path fill="none" stroke="midnightblue" d="M601.22,-333.95C591.9,-319.62 578.56,-299.07 567,-281 550.85,-255.76 551.99,-245.38 531,-224 525.58,-218.48 518.69,-213.55 512.35,-209.61"/>
<polygon fill="midnightblue" stroke="midnightblue" points="598.32,-335.91 606.71,-342.38 604.19,-332.09 598.32,-335.91"/>
</g>
<!-- Node25&#45;&gt;Node13 -->
<g id="edge33" class="edge">
<title>Node25&#45;&gt;Node13</title>
<path fill="none" stroke="midnightblue" d="M460.21,-466C444.98,-466 427.15,-466 413.26,-466"/>
<polygon fill="midnightblue" stroke="midnightblue" points="460.26,-469.5 470.26,-466 460.26,-462.5 460.26,-469.5"/>
</g>
<!-- Node25&#45;&gt;Node23 -->
<g id="edge34" class="edge">
<title>Node25&#45;&gt;Node23</title>
<path fill="none" stroke="midnightblue" d="M464.93,-451.81C461.91,-450.2 458.88,-448.58 456,-447 438.84,-437.6 419.46,-426.37 406.17,-418.56"/>
<polygon fill="midnightblue" stroke="midnightblue" points="463.37,-454.94 473.85,-456.49 466.62,-448.74 463.37,-454.94"/>
</g>
<!-- Node26&#45;&gt;Node10 -->
<g id="edge36" class="edge">
<title>Node26&#45;&gt;Node10</title>
<path fill="none" stroke="midnightblue" d="M255.63,-279.28C227.67,-282.19 188.63,-287.2 155,-295 139.64,-298.56 122.54,-304.47 111.01,-308.76"/>
<polygon fill="midnightblue" stroke="midnightblue" points="256.16,-282.75 265.76,-278.27 255.46,-275.78 256.16,-282.75"/>
</g>
<!-- Node27&#45;&gt;Node10 -->
<g id="edge38" class="edge">
<title>Node27&#45;&gt;Node10</title>
<path fill="none" stroke="midnightblue" d="M260.48,-244.73C231.93,-251.27 189.68,-262.48 155,-278 138.87,-285.22 121.9,-296.34 110.62,-304.31"/>
<polygon fill="midnightblue" stroke="midnightblue" points="261.34,-248.13 270.34,-242.54 259.82,-241.3 261.34,-248.13"/>
</g>
<!-- Node28&#45;&gt;Node10 -->
<g id="edge40" class="edge">
<title>Node28&#45;&gt;Node10</title>
<path fill="none" stroke="midnightblue" d="M260.7,-349.23C232.54,-346.42 190.72,-341.29 155,-333 139.64,-329.44 122.54,-323.53 111.01,-319.24"/>
<polygon fill="midnightblue" stroke="midnightblue" points="260.5,-352.73 270.79,-350.2 261.16,-345.76 260.5,-352.73"/>
</g>
<!-- Node29&#45;&gt;Node10 -->
<g id="edge42" class="edge">
<title>Node29&#45;&gt;Node10</title>
<path fill="none" stroke="midnightblue" d="M150.41,-314C136.33,-314 121.53,-314 111.18,-314"/>
<polygon fill="midnightblue" stroke="midnightblue" points="150.46,-317.5 160.46,-314 150.46,-310.5 150.46,-317.5"/>
</g>
<!-- Node31 -->
<g id="node31" class="node">
<title>Node31</title>
<g id="a_node31"><a xlink:href="vi_8c.html#a06cbc6eb843436a0e77e07cbab0c4538" target="_top" xlink:title=" ">
<polygon fill="white" stroke="black" points="358,-114.5 358,-133.5 420,-133.5 420,-114.5 358,-114.5"/>
<text text-anchor="middle" x="389" y="-121.5" font-family="Helvetica,sans-Serif" font-size="10.00">vc_motion</text>
</a>
</g>
</g>
<!-- Node30&#45;&gt;Node31 -->
<g id="edge44" class="edge">
<title>Node30&#45;&gt;Node31</title>
<path fill="none" stroke="midnightblue" d="M458.69,-98.54C444.68,-103.73 428.69,-109.65 415.67,-114.48"/>
<polygon fill="midnightblue" stroke="midnightblue" points="460.31,-101.67 468.47,-94.91 457.88,-95.1 460.31,-101.67"/>
</g>
<!-- Node31&#45;&gt;Node10 -->
<g id="edge45" class="edge">
<title>Node31&#45;&gt;Node10</title>
<path fill="none" stroke="midnightblue" d="M354.39,-137.51C307,-157.52 219.19,-198.2 155,-249 133.97,-265.64 114.39,-290.57 104.4,-304.21"/>
<polygon fill="midnightblue" stroke="midnightblue" points="355.98,-140.64 363.86,-133.56 353.28,-134.18 355.98,-140.64"/>
</g>
<!-- Node32&#45;&gt;Node31 -->
<g id="edge47" class="edge">
<title>Node32&#45;&gt;Node31</title>
<path fill="none" stroke="midnightblue" d="M463.07,-62.55C460.64,-63.98 458.25,-65.47 456,-67 434.45,-81.62 412.07,-102.33 399.69,-114.34"/>
<polygon fill="midnightblue" stroke="midnightblue" points="464.88,-65.55 471.94,-57.64 461.49,-59.42 464.88,-65.55"/>
</g>
<!-- Node33&#45;&gt;Node31 -->
<g id="edge49" class="edge">
<title>Node33&#45;&gt;Node31</title>
<path fill="none" stroke="midnightblue" d="M455.11,-124C443.64,-124 431.15,-124 420.22,-124"/>
<polygon fill="midnightblue" stroke="midnightblue" points="455.3,-127.5 465.3,-124 455.3,-120.5 455.3,-127.5"/>
</g>
<!-- Node34&#45;&gt;Node31 -->
<g id="edge51" class="edge">
<title>Node34&#45;&gt;Node31</title>
<path fill="none" stroke="midnightblue" d="M460.29,-150.06C446,-144.76 429.41,-138.61 415.94,-133.62"/>
<polygon fill="midnightblue" stroke="midnightblue" points="459.16,-153.37 469.75,-153.57 461.59,-146.81 459.16,-153.37"/>
</g>
<!-- Node35&#45;&gt;Node31 -->
<g id="edge53" class="edge">
<title>Node35&#45;&gt;Node31</title>
<path fill="none" stroke="midnightblue" d="M463.07,-185.45C460.64,-184.02 458.25,-182.53 456,-181 434.45,-166.38 412.07,-145.67 399.69,-133.66"/>
<polygon fill="midnightblue" stroke="midnightblue" points="461.49,-188.58 471.94,-190.36 464.88,-182.45 461.49,-188.58"/>
</g>
<!-- Node36&#45;&gt;Node30 -->
<g id="edge55" class="edge">
<title>Node36&#45;&gt;Node30</title>
<path fill="none" stroke="midnightblue" d="M571.76,-86C554.04,-86 533.95,-86 518.69,-86"/>
<polygon fill="midnightblue" stroke="midnightblue" points="571.87,-89.5 581.87,-86 571.87,-82.5 571.87,-89.5"/>
</g>
<!-- Node36&#45;&gt;Node32 -->
<g id="edge56" class="edge">
<title>Node36&#45;&gt;Node32</title>
<path fill="none" stroke="midnightblue" d="M573.46,-73.32C557.45,-68.19 539.27,-62.36 524.39,-57.59"/>
<polygon fill="midnightblue" stroke="midnightblue" points="572.51,-76.69 583.1,-76.41 574.64,-70.02 572.51,-76.69"/>
</g>
<!-- Node36&#45;&gt;Node33 -->
<g id="edge57" class="edge">
<title>Node36&#45;&gt;Node33</title>
<path fill="none" stroke="midnightblue" d="M573.4,-98.7C556.37,-104.16 536.9,-110.4 521.56,-115.32"/>
<polygon fill="midnightblue" stroke="midnightblue" points="574.64,-101.98 583.1,-95.59 572.51,-95.31 574.64,-101.98"/>
</g>
<!-- Node37 -->
<g id="node37" class="node">
<title>Node37</title>
<g id="a_node37"><a xlink:href="vi_8c.html#a2faedb758580642d391ee8ffae96d3d9" target="_top" xlink:title=" ">
<polygon fill="white" stroke="black" points="468.5,-0.5 468.5,-19.5 518.5,-19.5 518.5,-0.5 468.5,-0.5"/>
<text text-anchor="middle" x="493.5" y="-7.5" font-family="Helvetica,sans-Serif" font-size="10.00">vi_yank</text>
</a>
</g>
</g>
<!-- Node36&#45;&gt;Node37 -->
<g id="edge58" class="edge">
<title>Node36&#45;&gt;Node37</title>
<path fill="none" stroke="midnightblue" d="M592.01,-70.3C575.73,-58.4 552.41,-41.94 531,-29 525.62,-25.75 519.63,-22.49 514.08,-19.61"/>
<polygon fill="midnightblue" stroke="midnightblue" points="590.15,-73.28 600.27,-76.39 594.3,-67.64 590.15,-73.28"/>
</g>
<!-- Node37&#45;&gt;Node31 -->
<g id="edge59" class="edge">
<title>Node37&#45;&gt;Node31</title>
<path fill="none" stroke="midnightblue" d="M460.88,-25.16C459.17,-26.37 457.53,-27.65 456,-29 426.91,-54.61 404.17,-95.6 394.74,-114.22"/>
<polygon fill="midnightblue" stroke="midnightblue" points="463.12,-27.89 469.79,-19.65 459.44,-21.93 463.12,-27.89"/>
</g>
</g>
</svg>
        <g id="navigator" transform="translate(0 0)" fill="#404254">
                <rect fill="#f2f5e9" fill-opacity="0.5" stroke="#606060" stroke-width=".5" x="0" y="0" width="60" height="60"/>
                <use id="zoomplus" xlink:href="#zoomPlus" x="17" y="9" onmousedown="handleZoom(evt,'in')"/>
                <use id="zoomminus" xlink:href="#zoomMin" x="42" y="9" onmousedown="handleZoom(evt,'out')"/>
                <use id="reset" xlink:href="#resetDef" x="30" y="36" onmousedown="handleReset()"/>
                <g id="arrowUp" xlink:href="#dirArrow" transform="translate(30 24)" onmousedown="handlePan(0,-1)">
                  <use xlink:href="#rim" fill="#404040">
                        <set attributeName="fill" to="#808080" begin="arrowUp.mouseover" end="arrowUp.mouseout"/>
                  </use>
                  <path fill="none" stroke="white" stroke-width="1.5" d="M0,-3.0v7 M-2.5,-0.5L0,-3.0L2.5,-0.5"/>
                </g>
                <g id="arrowRight" xlink:href="#dirArrow" transform="rotate(90) translate(36 -43)" onmousedown="handlePan(1,0)">
                  <use xlink:href="#rim" fill="#404040">
                        <set attributeName="fill" to="#808080" begin="arrowRight.mouseover" end="arrowRight.mouseout"/>
                  </use>
                  <path fill="none" stroke="white" stroke-width="1.5" d="M0,-3.0v7 M-2.5,-0.5L0,-3.0L2.5,-0.5"/>
                </g>
                <g id="arrowDown" xlink:href="#dirArrow" transform="rotate(180) translate(-30 -48)" onmousedown="handlePan(0,1)">
                  <use xlink:href="#rim" fill="#404040">
                        <set attributeName="fill" to="#808080" begin="arrowDown.mouseover" end="arrowDown.mouseout"/>
                  </use>
                  <path fill="none" stroke="white" stroke-width="1.5" d="M0,-3.0v7 M-2.5,-0.5L0,-3.0L2.5,-0.5"/>
                </g>
                <g id="arrowLeft" xlink:href="#dirArrow" transform="rotate(270) translate(-36 17)" onmousedown="handlePan(-1,0)">
                  <use xlink:href="#rim" fill="#404040">
                        <set attributeName="fill" to="#808080" begin="arrowLeft.mouseover" end="arrowLeft.mouseout"/>
                  </use>
                  <path fill="none" stroke="white" stroke-width="1.5" d="M0,-3.0v7 M-2.5,-0.5L0,-3.0L2.5,-0.5"/>
                </g>
        </g>
        <svg viewBox="0 0 15 15" width="100%" height="30px" preserveAspectRatio="xMaxYMin meet">
         <g id="arrow_out" transform="scale(0.3 0.3)">
          <a xlink:href="vi_8h_a49eebc3079cdd95461843d1460f7c89b_icgraph_org.svg" target="_base">
           <rect id="button" ry="5" rx="5" y="6" x="6" height="38" width="38"
                fill="#f2f5e9" fill-opacity="0.5" stroke="#606060" stroke-width="1.0"/>
           <path id="arrow"
             d="M 11.500037,31.436501 C 11.940474,20.09759 22.043105,11.32322 32.158766,21.979434 L 37.068811,17.246167 C 37.068811,17.246167 37.088388,32 37.088388,32 L 22.160133,31.978069 C 22.160133,31.978069 26.997745,27.140456 26.997745,27.140456 C 18.528582,18.264221 13.291696,25.230495 11.500037,31.436501 z"
             style="fill:#404040;"/>
          </a>
         </g>
        </svg>
</svg>
