<?xml version="1.0" encoding="UTF-8" standalone="no"?>
<!DOCTYPE svg PUBLIC "-//W3C//DTD SVG 1.1//EN"
 "http://www.w3.org/Graphics/SVG/1.1/DTD/svg11.dtd">
<!-- Generated by graphviz version 2.44.1 (20200629.0846)
 -->
<!-- Title: ren_off Pages: 1 -->
<svg width="984pt" height="364pt"
 viewBox="0.00 0.00 984.00 364.17" xmlns="http://www.w3.org/2000/svg" xmlns:xlink="http://www.w3.org/1999/xlink">
<g id="graph0" class="graph" transform="scale(1 1) rotate(0) translate(4 360.17)">
<title>ren_off</title>
<polygon fill="white" stroke="transparent" points="-4,4 -4,-360.17 980,-360.17 980,4 -4,4"/>
<!-- Node1 -->
<g id="node1" class="node">
<title>Node1</title>
<g id="a_node1"><a xlink:title=" ">
<polygon fill="#bfbfbf" stroke="black" points="929,-61.67 929,-80.67 976,-80.67 976,-61.67 929,-61.67"/>
<text text-anchor="middle" x="952.5" y="-68.67" font-family="Helvetica,sans-Serif" font-size="10.00">ren_off</text>
</a>
</g>
</g>
<!-- Node2 -->
<g id="node2" class="node">
<title>Node2</title>
<g id="a_node2"><a xlink:href="vi_8h.html#a60f81bf9835d8eee93b82d5236763c83" target="_top" xlink:title=" ">
<polygon fill="white" stroke="black" points="831,-289.67 831,-308.67 893,-308.67 893,-289.67 831,-289.67"/>
<text text-anchor="middle" x="862" y="-296.67" font-family="Helvetica,sans-Serif" font-size="10.00">ren_cursor</text>
</a>
</g>
</g>
<!-- Node1&#45;&gt;Node2 -->
<g id="edge1" class="edge">
<title>Node1&#45;&gt;Node2</title>
<path fill="none" stroke="midnightblue" d="M944.12,-90.17C926.06,-136.72 880.09,-255.16 866.71,-289.62"/>
<polygon fill="midnightblue" stroke="midnightblue" points="947.45,-91.27 947.81,-80.68 940.93,-88.73 947.45,-91.27"/>
</g>
<!-- Node22 -->
<g id="node22" class="node">
<title>Node22</title>
<g id="a_node22"><a xlink:href="vi_8h.html#aa288077162077d17ddd836c0167a2ad0" target="_top" xlink:title=" ">
<polygon fill="white" stroke="black" points="835,-42.67 835,-61.67 889,-61.67 889,-42.67 835,-42.67"/>
<text text-anchor="middle" x="862" y="-49.67" font-family="Helvetica,sans-Serif" font-size="10.00">ren_next</text>
</a>
</g>
</g>
<!-- Node1&#45;&gt;Node22 -->
<g id="edge31" class="edge">
<title>Node1&#45;&gt;Node22</title>
<path fill="none" stroke="midnightblue" d="M918.89,-64.17C909.09,-62.07 898.48,-59.79 889.16,-57.79"/>
<polygon fill="midnightblue" stroke="midnightblue" points="918.2,-67.6 928.71,-66.28 919.67,-60.76 918.2,-67.6"/>
</g>
<!-- Node23 -->
<g id="node23" class="node">
<title>Node23</title>
<g id="a_node23"><a xlink:href="vi_8c.html#a7ace2fb061a4295d64c45c1eecae3bfb" target="_top" xlink:title=" ">
<polygon fill="white" stroke="black" points="727,-42.67 727,-61.67 788,-61.67 788,-42.67 727,-42.67"/>
<text text-anchor="middle" x="757.5" y="-49.67" font-family="Helvetica,sans-Serif" font-size="10.00">vi_nextcol</text>
</a>
</g>
</g>
<!-- Node1&#45;&gt;Node23 -->
<g id="edge37" class="edge">
<title>Node1&#45;&gt;Node23</title>
<path fill="none" stroke="midnightblue" d="M918.62,-73.43C894.31,-74.55 860.46,-74.97 831,-71.17 816.55,-69.31 800.86,-65.44 787.79,-61.68"/>
<polygon fill="midnightblue" stroke="midnightblue" points="918.93,-76.92 928.74,-72.9 918.57,-69.93 918.93,-76.92"/>
</g>
<!-- Node24 -->
<g id="node24" class="node">
<title>Node24</title>
<g id="a_node24"><a xlink:href="vi_8c.html#a83a87d8b15b1ae0ee60fa2570b104bbc" target="_top" xlink:title=" ">
<polygon fill="white" stroke="black" points="334,-4.67 334,-23.67 393,-23.67 393,-4.67 334,-4.67"/>
<text text-anchor="middle" x="363.5" y="-11.67" font-family="Helvetica,sans-Serif" font-size="10.00">vi_col2off</text>
</a>
</g>
</g>
<!-- Node1&#45;&gt;Node24 -->
<g id="edge34" class="edge">
<title>Node1&#45;&gt;Node24</title>
<path fill="none" stroke="midnightblue" d="M931.54,-55.07C920.74,-47.21 906.82,-38.35 893,-33.17 836.46,-12.01 818.87,-14.17 758.5,-14.17 758.5,-14.17 758.5,-14.17 555.5,-14.17 497.97,-14.17 430.69,-14.17 393.3,-14.17"/>
<polygon fill="midnightblue" stroke="midnightblue" points="929.71,-58.08 939.79,-61.34 933.94,-52.5 929.71,-58.08"/>
</g>
<!-- Node3 -->
<g id="node3" class="node">
<title>Node3</title>
<g id="a_node3"><a xlink:href="led_8c.html#ae938cbff964c214e7e4f6aff4d5ce0f7" target="_top" xlink:title=" ">
<polygon fill="white" stroke="black" points="720,-270.67 720,-289.67 795,-289.67 795,-270.67 720,-270.67"/>
<text text-anchor="middle" x="757.5" y="-277.67" font-family="Helvetica,sans-Serif" font-size="10.00">led_printparts</text>
</a>
</g>
</g>
<!-- Node2&#45;&gt;Node3 -->
<g id="edge2" class="edge">
<title>Node2&#45;&gt;Node3</title>
<path fill="none" stroke="midnightblue" d="M820.73,-291.71C812.25,-290.13 803.34,-288.48 795.01,-286.94"/>
<polygon fill="midnightblue" stroke="midnightblue" points="820.33,-295.19 830.8,-293.57 821.61,-288.31 820.33,-295.19"/>
</g>
<!-- Node7 -->
<g id="node7" class="node">
<title>Node7</title>
<g id="a_node7"><a xlink:href="vi_8c.html#a8d808e0f3453afe6600673ee1ea5f828" target="_top" xlink:title=" ">
<polygon fill="white" stroke="black" points="74,-156.67 74,-175.67 103,-175.67 103,-156.67 74,-156.67"/>
<text text-anchor="middle" x="88.5" y="-163.67" font-family="Helvetica,sans-Serif" font-size="10.00">vi</text>
</a>
</g>
</g>
<!-- Node2&#45;&gt;Node7 -->
<g id="edge30" class="edge">
<title>Node2&#45;&gt;Node7</title>
<path fill="none" stroke="midnightblue" d="M831.55,-312.77C792.28,-329.63 720.18,-356.17 655.5,-356.17 655.5,-356.17 655.5,-356.17 266.5,-356.17 203.29,-356.17 181.7,-339.77 139,-293.17 106.55,-257.75 94.44,-198.65 90.81,-175.69"/>
<polygon fill="midnightblue" stroke="midnightblue" points="833.05,-315.93 840.81,-308.71 830.24,-309.52 833.05,-315.93"/>
</g>
<!-- Node21 -->
<g id="node21" class="node">
<title>Node21</title>
<g id="a_node21"><a xlink:href="vi_8c.html#ab7d24df5f19f55dae6f719cd5bcfbe6f" target="_top" xlink:title=" ">
<polygon fill="white" stroke="black" points="625,-308.67 625,-327.67 684,-327.67 684,-308.67 625,-308.67"/>
<text text-anchor="middle" x="654.5" y="-315.67" font-family="Helvetica,sans-Serif" font-size="10.00">vc_status</text>
</a>
</g>
</g>
<!-- Node2&#45;&gt;Node21 -->
<g id="edge28" class="edge">
<title>Node2&#45;&gt;Node21</title>
<path fill="none" stroke="midnightblue" d="M820.68,-302.9C780.51,-306.61 719.84,-312.22 684.29,-315.51"/>
<polygon fill="midnightblue" stroke="midnightblue" points="821.04,-306.38 830.68,-301.97 820.4,-299.41 821.04,-306.38"/>
</g>
<!-- Node4 -->
<g id="node4" class="node">
<title>Node4</title>
<g id="a_node4"><a xlink:href="vi_8h.html#ae72255a31cec31233723c101d9465d07" target="_top" xlink:title=" ">
<polygon fill="white" stroke="black" points="528.5,-251.67 528.5,-270.67 584.5,-270.67 584.5,-251.67 528.5,-251.67"/>
<text text-anchor="middle" x="556.5" y="-258.67" font-family="Helvetica,sans-Serif" font-size="10.00">led_input</text>
</a>
</g>
</g>
<!-- Node3&#45;&gt;Node4 -->
<g id="edge3" class="edge">
<title>Node3&#45;&gt;Node4</title>
<path fill="none" stroke="midnightblue" d="M709.5,-275.68C670.62,-271.97 616.76,-266.83 584.68,-263.77"/>
<polygon fill="midnightblue" stroke="midnightblue" points="709.25,-279.18 719.54,-276.64 709.91,-272.21 709.25,-279.18"/>
</g>
<!-- Node11 -->
<g id="node11" class="node">
<title>Node11</title>
<g id="a_node11"><a xlink:href="led_8c.html#a617ec615e86687b5c10df33b271256c8" target="_top" xlink:title=" ">
<polygon fill="white" stroke="black" points="629.5,-232.67 629.5,-251.67 679.5,-251.67 679.5,-232.67 629.5,-232.67"/>
<text text-anchor="middle" x="654.5" y="-239.67" font-family="Helvetica,sans-Serif" font-size="10.00">led_line</text>
</a>
</g>
</g>
<!-- Node3&#45;&gt;Node11 -->
<g id="edge11" class="edge">
<title>Node3&#45;&gt;Node11</title>
<path fill="none" stroke="midnightblue" d="M721.34,-266.94C707.55,-261.75 692.07,-255.93 679.59,-251.23"/>
<polygon fill="midnightblue" stroke="midnightblue" points="720.42,-270.34 731.01,-270.58 722.89,-263.79 720.42,-270.34"/>
</g>
<!-- Node5 -->
<g id="node5" class="node">
<title>Node5</title>
<g id="a_node5"><a xlink:href="vi_8c.html#a653f6b0359cef492e11f404c4bf469b9" target="_top" xlink:title=" ">
<polygon fill="white" stroke="black" points="338.5,-251.67 338.5,-270.67 388.5,-270.67 388.5,-251.67 338.5,-251.67"/>
<text text-anchor="middle" x="363.5" y="-258.67" font-family="Helvetica,sans-Serif" font-size="10.00">vi_input</text>
</a>
</g>
</g>
<!-- Node4&#45;&gt;Node5 -->
<g id="edge4" class="edge">
<title>Node4&#45;&gt;Node5</title>
<path fill="none" stroke="midnightblue" d="M517.9,-261.17C479.62,-261.17 421.39,-261.17 388.79,-261.17"/>
<polygon fill="midnightblue" stroke="midnightblue" points="518.13,-264.67 528.13,-261.17 518.13,-257.67 518.13,-264.67"/>
</g>
<!-- Node6 -->
<g id="node6" class="node">
<title>Node6</title>
<g id="a_node6"><a xlink:href="vi_8c.html#a8bb357a77ed61da8858f138c6fa672a6" target="_top" xlink:title=" ">
<polygon fill="white" stroke="black" points="239.5,-270.67 239.5,-289.67 295.5,-289.67 295.5,-270.67 239.5,-270.67"/>
<text text-anchor="middle" x="267.5" y="-277.67" font-family="Helvetica,sans-Serif" font-size="10.00">vc_insert</text>
</a>
</g>
</g>
<!-- Node5&#45;&gt;Node6 -->
<g id="edge5" class="edge">
<title>Node5&#45;&gt;Node6</title>
<path fill="none" stroke="midnightblue" d="M328.34,-268.08C317.57,-270.25 305.82,-272.63 295.61,-274.69"/>
<polygon fill="midnightblue" stroke="midnightblue" points="329.18,-271.48 338.29,-266.06 327.8,-264.62 329.18,-271.48"/>
</g>
<!-- Node9 -->
<g id="node9" class="node">
<title>Node9</title>
<g id="a_node9"><a xlink:href="vi_8c.html#ae37b094c3bb647d8c1a4ac4e858ce518" target="_top" xlink:title=" ">
<polygon fill="white" stroke="black" points="237,-232.67 237,-251.67 298,-251.67 298,-232.67 237,-232.67"/>
<text text-anchor="middle" x="267.5" y="-239.67" font-family="Helvetica,sans-Serif" font-size="10.00">vi_change</text>
</a>
</g>
</g>
<!-- Node5&#45;&gt;Node9 -->
<g id="edge8" class="edge">
<title>Node5&#45;&gt;Node9</title>
<path fill="none" stroke="midnightblue" d="M328.41,-254.28C318.57,-252.29 307.9,-250.14 298.34,-248.2"/>
<polygon fill="midnightblue" stroke="midnightblue" points="327.8,-257.73 338.29,-256.28 329.18,-250.87 327.8,-257.73"/>
</g>
<!-- Node6&#45;&gt;Node7 -->
<g id="edge6" class="edge">
<title>Node6&#45;&gt;Node7</title>
<path fill="none" stroke="midnightblue" d="M229.55,-268.5C202.8,-258.95 166.63,-243.66 139,-223.17 120.68,-209.59 104.4,-188.14 95.84,-175.79"/>
<polygon fill="midnightblue" stroke="midnightblue" points="228.71,-271.92 239.3,-271.88 231,-265.3 228.71,-271.92"/>
</g>
<!-- Node8 -->
<g id="node8" class="node">
<title>Node8</title>
<g id="a_node8"><a xlink:href="vi_8c.html#a0ddf1224851353fc92bfbff6f499fa97" target="_top" xlink:title=" ">
<polygon fill="white" stroke="black" points="0,-118.67 0,-137.67 38,-137.67 38,-118.67 0,-118.67"/>
<text text-anchor="middle" x="19" y="-125.67" font-family="Helvetica,sans-Serif" font-size="10.00">main</text>
</a>
</g>
</g>
<!-- Node7&#45;&gt;Node8 -->
<g id="edge7" class="edge">
<title>Node7&#45;&gt;Node8</title>
<path fill="none" stroke="midnightblue" d="M64.91,-153.46C55.8,-148.32 45.45,-142.5 36.99,-137.74"/>
<polygon fill="midnightblue" stroke="midnightblue" points="63.41,-156.63 73.84,-158.48 66.84,-150.53 63.41,-156.63"/>
</g>
<!-- Node10 -->
<g id="node10" class="node">
<title>Node10</title>
<g id="a_node10"><a xlink:href="vi_8c.html#a06cbc6eb843436a0e77e07cbab0c4538" target="_top" xlink:title=" ">
<polygon fill="white" stroke="black" points="139,-194.67 139,-213.67 201,-213.67 201,-194.67 139,-194.67"/>
<text text-anchor="middle" x="170" y="-201.67" font-family="Helvetica,sans-Serif" font-size="10.00">vc_motion</text>
</a>
</g>
</g>
<!-- Node9&#45;&gt;Node10 -->
<g id="edge9" class="edge">
<title>Node9&#45;&gt;Node10</title>
<path fill="none" stroke="midnightblue" d="M232.79,-228.76C220.35,-223.81 206.51,-218.3 195.09,-213.76"/>
<polygon fill="midnightblue" stroke="midnightblue" points="231.82,-232.14 242.4,-232.58 234.4,-225.63 231.82,-232.14"/>
</g>
<!-- Node10&#45;&gt;Node7 -->
<g id="edge10" class="edge">
<title>Node10&#45;&gt;Node7</title>
<path fill="none" stroke="midnightblue" d="M139.72,-190.17C127.16,-184.17 113.1,-177.45 103.05,-172.65"/>
<polygon fill="midnightblue" stroke="midnightblue" points="138.41,-193.43 148.94,-194.58 141.43,-187.11 138.41,-193.43"/>
</g>
<!-- Node11&#45;&gt;Node4 -->
<g id="edge12" class="edge">
<title>Node11&#45;&gt;Node4</title>
<path fill="none" stroke="midnightblue" d="M619.27,-248.95C607.94,-251.19 595.5,-253.65 584.77,-255.77"/>
<polygon fill="midnightblue" stroke="midnightblue" points="620.14,-252.34 629.28,-246.97 618.79,-245.47 620.14,-252.34"/>
</g>
<!-- Node12 -->
<g id="node12" class="node">
<title>Node12</title>
<g id="a_node12"><a xlink:href="vi_8h.html#a173bb468e1e2a066136316f98b49c108" target="_top" xlink:title=" ">
<polygon fill="white" stroke="black" points="524,-156.67 524,-175.67 589,-175.67 589,-156.67 524,-156.67"/>
<text text-anchor="middle" x="556.5" y="-163.67" font-family="Helvetica,sans-Serif" font-size="10.00">led_prompt</text>
</a>
</g>
</g>
<!-- Node11&#45;&gt;Node12 -->
<g id="edge13" class="edge">
<title>Node11&#45;&gt;Node12</title>
<path fill="none" stroke="midnightblue" d="M633.45,-226.3C614.15,-211.02 585.59,-188.41 569.56,-175.72"/>
<polygon fill="midnightblue" stroke="midnightblue" points="631.33,-229.08 641.34,-232.55 635.67,-223.59 631.33,-229.08"/>
</g>
<!-- Node13 -->
<g id="node13" class="node">
<title>Node13</title>
<g id="a_node13"><a xlink:href="vi_8h.html#a7ba56272fe1a7d523192729a0bb5edf7" target="_top" xlink:title=" ">
<polygon fill="white" stroke="black" points="242,-61.67 242,-80.67 293,-80.67 293,-61.67 242,-61.67"/>
<text text-anchor="middle" x="267.5" y="-68.67" font-family="Helvetica,sans-Serif" font-size="10.00">ex_read</text>
</a>
</g>
</g>
<!-- Node12&#45;&gt;Node13 -->
<g id="edge14" class="edge">
<title>Node12&#45;&gt;Node13</title>
<path fill="none" stroke="midnightblue" d="M519.83,-153.19C487,-141.35 436.9,-123.56 393,-109.17 358.64,-97.91 318.6,-85.88 293.4,-78.44"/>
<polygon fill="midnightblue" stroke="midnightblue" points="518.84,-156.55 529.44,-156.66 521.22,-149.97 518.84,-156.55"/>
</g>
<!-- Node17 -->
<g id="node17" class="node">
<title>Node17</title>
<g id="a_node17"><a xlink:href="vi_8c.html#a57965473297aad4c4333fdd3897c11f3" target="_top" xlink:title=" ">
<polygon fill="white" stroke="black" points="429,-156.67 429,-175.67 488,-175.67 488,-156.67 429,-156.67"/>
<text text-anchor="middle" x="458.5" y="-163.67" font-family="Helvetica,sans-Serif" font-size="10.00">vi_prompt</text>
</a>
</g>
</g>
<!-- Node12&#45;&gt;Node17 -->
<g id="edge20" class="edge">
<title>Node12&#45;&gt;Node17</title>
<path fill="none" stroke="midnightblue" d="M513.58,-166.17C505.03,-166.17 496.22,-166.17 488.25,-166.17"/>
<polygon fill="midnightblue" stroke="midnightblue" points="513.8,-169.67 523.8,-166.17 513.8,-162.67 513.8,-169.67"/>
</g>
<!-- Node14 -->
<g id="node14" class="node">
<title>Node14</title>
<g id="a_node14"><a xlink:href="ex_8c.html#a0908784dc65be2da119a6b72ef96dec2" target="_top" xlink:title=" ">
<polygon fill="white" stroke="black" points="142,-80.67 142,-99.67 198,-99.67 198,-80.67 142,-80.67"/>
<text text-anchor="middle" x="170" y="-87.67" font-family="Helvetica,sans-Serif" font-size="10.00">ec_insert</text>
</a>
</g>
</g>
<!-- Node13&#45;&gt;Node14 -->
<g id="edge15" class="edge">
<title>Node13&#45;&gt;Node14</title>
<path fill="none" stroke="midnightblue" d="M232.05,-78.02C220.92,-80.24 208.74,-82.66 198.2,-84.76"/>
<polygon fill="midnightblue" stroke="midnightblue" points="232.78,-81.45 241.91,-76.06 231.42,-74.58 232.78,-81.45"/>
</g>
<!-- Node15 -->
<g id="node15" class="node">
<title>Node15</title>
<g id="a_node15"><a xlink:href="vi_8h.html#ac395e51f25330a6e6033b6d0d22b2076" target="_top" xlink:title=" ">
<polygon fill="white" stroke="black" points="74,-42.67 74,-61.67 103,-61.67 103,-42.67 74,-42.67"/>
<text text-anchor="middle" x="88.5" y="-49.67" font-family="Helvetica,sans-Serif" font-size="10.00">ex</text>
</a>
</g>
</g>
<!-- Node13&#45;&gt;Node15 -->
<g id="edge16" class="edge">
<title>Node13&#45;&gt;Node15</title>
<path fill="none" stroke="midnightblue" d="M246.15,-55.6C233.82,-47.16 217.34,-37.57 201,-33.17 174.39,-26.01 166.09,-28.15 139,-33.17 126.51,-35.49 113.1,-40.83 103.39,-45.26"/>
<polygon fill="midnightblue" stroke="midnightblue" points="244.17,-58.49 254.34,-61.45 248.24,-52.79 244.17,-58.49"/>
</g>
<!-- Node16 -->
<g id="node16" class="node">
<title>Node16</title>
<g id="a_node16"><a xlink:href="vi_8c.html#a9d85e9ed087401367529ab86a5dbf0c5" target="_top" xlink:title=" ">
<polygon fill="white" stroke="black" points="146.5,-42.67 146.5,-61.67 193.5,-61.67 193.5,-42.67 146.5,-42.67"/>
<text text-anchor="middle" x="170" y="-49.67" font-family="Helvetica,sans-Serif" font-size="10.00">vi_wait</text>
</a>
</g>
</g>
<!-- Node13&#45;&gt;Node16 -->
<g id="edge18" class="edge">
<title>Node13&#45;&gt;Node16</title>
<path fill="none" stroke="midnightblue" d="M232.01,-64.31C219.2,-61.76 205.02,-58.94 193.55,-56.66"/>
<polygon fill="midnightblue" stroke="midnightblue" points="231.42,-67.76 241.91,-66.28 232.78,-60.89 231.42,-67.76"/>
</g>
<!-- Node15&#45;&gt;Node8 -->
<g id="edge17" class="edge">
<title>Node15&#45;&gt;Node8</title>
<path fill="none" stroke="midnightblue" d="M72.15,-69.46C58.71,-84.59 39.66,-106.04 28.69,-118.38"/>
<polygon fill="midnightblue" stroke="midnightblue" points="74.93,-71.6 78.95,-61.8 69.69,-66.95 74.93,-71.6"/>
</g>
<!-- Node16&#45;&gt;Node7 -->
<g id="edge19" class="edge">
<title>Node16&#45;&gt;Node7</title>
<path fill="none" stroke="midnightblue" d="M142.26,-67.97C141.11,-69 140.02,-70.06 139,-71.17 114.71,-97.6 98.91,-138.17 92.6,-156.54"/>
<polygon fill="midnightblue" stroke="midnightblue" points="144.52,-70.65 150.38,-61.82 140.29,-65.07 144.52,-70.65"/>
</g>
<!-- Node17&#45;&gt;Node7 -->
<g id="edge21" class="edge">
<title>Node17&#45;&gt;Node7</title>
<path fill="none" stroke="midnightblue" d="M418.69,-166.17C337.94,-166.17 155.03,-166.17 103.34,-166.17"/>
<polygon fill="midnightblue" stroke="midnightblue" points="418.93,-169.67 428.93,-166.17 418.93,-162.67 418.93,-169.67"/>
</g>
<!-- Node18 -->
<g id="node18" class="node">
<title>Node18</title>
<g id="a_node18"><a xlink:href="vi_8c.html#ab8e0c9b9d2ef5161c6a3a8828606df5f" target="_top" xlink:title=" ">
<polygon fill="white" stroke="black" points="340,-194.67 340,-213.67 387,-213.67 387,-194.67 340,-194.67"/>
<text text-anchor="middle" x="363.5" y="-201.67" font-family="Helvetica,sans-Serif" font-size="10.00">vi_pipe</text>
</a>
</g>
</g>
<!-- Node17&#45;&gt;Node18 -->
<g id="edge22" class="edge">
<title>Node17&#45;&gt;Node18</title>
<path fill="none" stroke="midnightblue" d="M424.53,-179.64C412.22,-184.67 398.52,-190.27 387.32,-194.85"/>
<polygon fill="midnightblue" stroke="midnightblue" points="426.1,-182.78 434.03,-175.76 423.45,-176.3 426.1,-182.78"/>
</g>
<!-- Node19 -->
<g id="node19" class="node">
<title>Node19</title>
<g id="a_node19"><a xlink:href="vi_8c.html#a93701c59617d4f96cbaa207e89178f87" target="_top" xlink:title=" ">
<polygon fill="white" stroke="black" points="334,-118.67 334,-137.67 393,-137.67 393,-118.67 334,-118.67"/>
<text text-anchor="middle" x="363.5" y="-125.67" font-family="Helvetica,sans-Serif" font-size="10.00">vi_search</text>
</a>
</g>
</g>
<!-- Node17&#45;&gt;Node19 -->
<g id="edge24" class="edge">
<title>Node17&#45;&gt;Node19</title>
<path fill="none" stroke="midnightblue" d="M424.68,-152.76C412.56,-147.81 399.08,-142.3 387.96,-137.76"/>
<polygon fill="midnightblue" stroke="midnightblue" points="423.45,-156.04 434.03,-156.58 426.1,-149.56 423.45,-156.04"/>
</g>
<!-- Node18&#45;&gt;Node10 -->
<g id="edge23" class="edge">
<title>Node18&#45;&gt;Node10</title>
<path fill="none" stroke="midnightblue" d="M329.78,-204.17C293.74,-204.17 236.26,-204.17 201.24,-204.17"/>
<polygon fill="midnightblue" stroke="midnightblue" points="329.78,-207.67 339.78,-204.17 329.78,-200.67 329.78,-207.67"/>
</g>
<!-- Node20 -->
<g id="node20" class="node">
<title>Node20</title>
<g id="a_node20"><a xlink:href="vi_8c.html#aaa4777ea0715ea846346d0f27a0cfa3f" target="_top" xlink:title=" ">
<polygon fill="white" stroke="black" points="238,-118.67 238,-137.67 297,-137.67 297,-118.67 238,-118.67"/>
<text text-anchor="middle" x="267.5" y="-125.67" font-family="Helvetica,sans-Serif" font-size="10.00">vi_motion</text>
</a>
</g>
</g>
<!-- Node19&#45;&gt;Node20 -->
<g id="edge25" class="edge">
<title>Node19&#45;&gt;Node20</title>
<path fill="none" stroke="midnightblue" d="M323.6,-128.17C314.71,-128.17 305.41,-128.17 297.04,-128.17"/>
<polygon fill="midnightblue" stroke="midnightblue" points="323.79,-131.67 333.79,-128.17 323.79,-124.67 323.79,-131.67"/>
</g>
<!-- Node20&#45;&gt;Node7 -->
<g id="edge27" class="edge">
<title>Node20&#45;&gt;Node7</title>
<path fill="none" stroke="midnightblue" d="M228.01,-134.49C202.62,-138.89 168.68,-145.2 139,-152.17 126.83,-155.03 113.17,-158.95 103.28,-161.91"/>
<polygon fill="midnightblue" stroke="midnightblue" points="228.72,-137.92 237.99,-132.79 227.54,-131.02 228.72,-137.92"/>
</g>
<!-- Node20&#45;&gt;Node10 -->
<g id="edge26" class="edge">
<title>Node20&#45;&gt;Node10</title>
<path fill="none" stroke="midnightblue" d="M246.56,-144.04C227.35,-159.32 198.95,-181.93 183,-194.62"/>
<polygon fill="midnightblue" stroke="midnightblue" points="248.76,-146.76 254.4,-137.8 244.4,-141.29 248.76,-146.76"/>
</g>
<!-- Node21&#45;&gt;Node7 -->
<g id="edge29" class="edge">
<title>Node21&#45;&gt;Node7</title>
<path fill="none" stroke="midnightblue" d="M614.74,-318.17C575.58,-318.17 513.34,-318.17 459.5,-318.17 459.5,-318.17 459.5,-318.17 266.5,-318.17 203.09,-318.17 184.88,-297.94 139,-254.17 114.77,-231.06 99.14,-193.45 92.77,-175.84"/>
<polygon fill="midnightblue" stroke="midnightblue" points="614.9,-321.67 624.9,-318.17 614.9,-314.67 614.9,-321.67"/>
</g>
<!-- Node22&#45;&gt;Node23 -->
<g id="edge32" class="edge">
<title>Node22&#45;&gt;Node23</title>
<path fill="none" stroke="midnightblue" d="M824.74,-52.17C812.78,-52.17 799.62,-52.17 788.21,-52.17"/>
<polygon fill="midnightblue" stroke="midnightblue" points="824.87,-55.67 834.87,-52.17 824.87,-48.67 824.87,-55.67"/>
</g>
<!-- Node23&#45;&gt;Node20 -->
<g id="edge33" class="edge">
<title>Node23&#45;&gt;Node20</title>
<path fill="none" stroke="midnightblue" d="M716.65,-52.17C676.47,-52.17 612.68,-52.17 557.5,-52.17 557.5,-52.17 557.5,-52.17 457.5,-52.17 387.12,-52.17 311.95,-98.1 281.97,-118.55"/>
<polygon fill="midnightblue" stroke="midnightblue" points="716.83,-55.67 726.83,-52.17 716.83,-48.67 716.83,-55.67"/>
</g>
<!-- Node24&#45;&gt;Node7 -->
<g id="edge35" class="edge">
<title>Node24&#45;&gt;Node7</title>
<path fill="none" stroke="midnightblue" d="M323.63,-5.93C275.23,1.97 192.45,7.43 139,-33.17 98.59,-63.87 91.16,-131.28 89.8,-156.45"/>
<polygon fill="midnightblue" stroke="midnightblue" points="323.25,-9.41 333.7,-7.69 324.45,-2.52 323.25,-9.41"/>
</g>
<!-- Node24&#45;&gt;Node20 -->
<g id="edge36" class="edge">
<title>Node24&#45;&gt;Node20</title>
<path fill="none" stroke="midnightblue" d="M341.91,-30.36C339.14,-32.87 336.42,-35.51 334,-38.17 315.08,-58.96 314.62,-67.51 298,-90.17 290.79,-100 282.21,-110.98 276.16,-118.6"/>
<polygon fill="midnightblue" stroke="midnightblue" points="344.3,-32.93 349.65,-23.78 339.77,-27.59 344.3,-32.93"/>
</g>
</g>
</svg>
