<?xml version="1.0" encoding="UTF-8" standalone="no"?>
<!DOCTYPE svg PUBLIC "-//W3C//DTD SVG 1.1//EN"
 "http://www.w3.org/Graphics/SVG/1.1/DTD/svg11.dtd">
<!-- Generated by graphviz version 2.44.1 (20200629.0846)
 -->
<!-- Title: cmd_pipe Pages: 1 -->
<!--zoomable 218 -->
<svg id="main" version="1.1" xmlns="http://www.w3.org/2000/svg" xmlns:xlink="http://www.w3.org/1999/xlink" xml:space="preserve" onload="init(evt)">
<style type="text/css"><![CDATA[
.edge:hover path { stroke: red; }
.edge:hover polygon { stroke: red; fill: red; }
]]></style>
<script type="text/javascript"><![CDATA[
var edges = document.getElementsByTagName('g');
if (edges && edges.length) {
  for (var i=0;i<edges.length;i++) {
    if (edges[i].id.substr(0,4)=='edge') {
      edges[i].setAttribute('class','edge');
    }
  }
}
]]></script>
        <defs>
                <circle id="rim" cx="0" cy="0" r="7"/>
                <circle id="rim2" cx="0" cy="0" r="3.5"/>
                <g id="zoomPlus">
                        <use xlink:href="#rim" fill="#404040">
                                <set attributeName="fill" to="#808080" begin="zoomplus.mouseover" end="zoomplus.mouseout"/>
                        </use>
                        <path d="M-4,0h8M0,-4v8" fill="none" stroke="white" stroke-width="1.5" pointer-events="none"/>
                </g>
                <g id="zoomMin">
                        <use xlink:href="#rim" fill="#404040">
                                <set attributeName="fill" to="#808080" begin="zoomminus.mouseover" end="zoomminus.mouseout"/>
                        </use>
                        <path d="M-4,0h8" fill="none" stroke="white" stroke-width="1.5" pointer-events="none"/>
                </g>
                <g id="dirArrow">
                        <path fill="none" stroke="white" stroke-width="1.5" d="M0,-3.0v7 M-2.5,-0.5L0,-3.0L2.5,-0.5"/>
                </g>
               <g id="resetDef">
                       <use xlink:href="#rim2" fill="#404040">
                               <set attributeName="fill" to="#808080" begin="reset.mouseover" end="reset.mouseout"/>
                       </use>
               </g>
        </defs>

<script type="text/javascript">
var viewWidth = 663;
var viewHeight = 218;
var sectionId = 'dynsection-2';
</script>
<script xlink:href="svgpan.js"/>
<svg id="graph" class="graph">
<g id="viewport">
<title>cmd_pipe</title>
<polygon fill="white" stroke="transparent" points="-4,4 -4,-214 659,-214 659,4 -4,4"/>
<!-- Node1 -->
<g id="node1" class="node">
<title>Node1</title>
<g id="a_node1"><a xlink:title=" ">
<polygon fill="#bfbfbf" stroke="black" points="0,-95.5 0,-114.5 59,-114.5 59,-95.5 0,-95.5"/>
<text text-anchor="middle" x="29.5" y="-102.5" font-family="Helvetica,sans-Serif" font-size="10.00">cmd_pipe</text>
</a>
</g>
</g>
<!-- Node2 -->
<g id="node2" class="node">
<title>Node2</title>
<g id="a_node2"><a xlink:href="cmd_8c.html#ac7e2d24e28faeabc72dca3575442d3e6" target="_top" xlink:title=" ">
<polygon fill="white" stroke="black" points="95,-190.5 95,-209.5 160,-209.5 160,-190.5 95,-190.5"/>
<text text-anchor="middle" x="127.5" y="-197.5" font-family="Helvetica,sans-Serif" font-size="10.00">cmd_make</text>
</a>
</g>
</g>
<!-- Node1&#45;&gt;Node2 -->
<g id="edge1" class="edge">
<title>Node1&#45;&gt;Node2</title>
<path fill="none" stroke="midnightblue" d="M38.34,-114.7C50,-128.87 72.91,-155.74 95,-176 98.05,-178.8 101.4,-181.6 104.75,-184.26"/>
<polygon fill="midnightblue" stroke="midnightblue" points="102.82,-187.19 112.89,-190.47 107.06,-181.62 102.82,-187.19"/>
</g>
<!-- Node3 -->
<g id="node3" class="node">
<title>Node3</title>
<g id="a_node3"><a xlink:href="sbuf_8c.html#a7bf14d501d36ce36ee269d77cf2c3fc6" target="_top" xlink:title=" ">
<polygon fill="white" stroke="black" points="202,-180.5 202,-199.5 264,-199.5 264,-180.5 202,-180.5"/>
<text text-anchor="middle" x="233" y="-187.5" font-family="Helvetica,sans-Serif" font-size="10.00">sbuf_done</text>
</a>
</g>
</g>
<!-- Node1&#45;&gt;Node3 -->
<g id="edge2" class="edge">
<title>Node1&#45;&gt;Node3</title>
<path fill="none" stroke="midnightblue" d="M44.9,-114.63C57.68,-122.89 77.06,-134.74 95,-143 126.74,-157.61 164.38,-170.21 192.17,-178.67"/>
<polygon fill="midnightblue" stroke="midnightblue" points="191.35,-182.08 201.93,-181.6 193.36,-175.37 191.35,-182.08"/>
</g>
<!-- Node6 -->
<g id="node6" class="node">
<title>Node6</title>
<g id="a_node6"><a xlink:href="sbuf_8c.html#a57748585d6786a2c1aadc2cbe6f2135b" target="_top" xlink:title=" ">
<polygon fill="white" stroke="black" points="95,-0.5 95,-19.5 160,-19.5 160,-0.5 95,-0.5"/>
<text text-anchor="middle" x="127.5" y="-7.5" font-family="Helvetica,sans-Serif" font-size="10.00">sbuf_make</text>
</a>
</g>
</g>
<!-- Node1&#45;&gt;Node6 -->
<g id="edge5" class="edge">
<title>Node1&#45;&gt;Node6</title>
<path fill="none" stroke="midnightblue" d="M37.18,-95.24C48.04,-79.87 70.75,-49.63 95,-29 96.5,-27.73 98.09,-26.49 99.73,-25.29"/>
<polygon fill="midnightblue" stroke="midnightblue" points="101.76,-28.14 108.15,-19.7 97.89,-22.31 101.76,-28.14"/>
</g>
<!-- Node7 -->
<g id="node7" class="node">
<title>Node7</title>
<g id="a_node7"><a xlink:href="sbuf_8c.html#aa511ac77d6b486accc01c0512ef27ed2" target="_top" xlink:title=" ">
<polygon fill="white" stroke="black" points="487,-76.5 487,-95.5 549,-95.5 549,-76.5 487,-76.5"/>
<text text-anchor="middle" x="518" y="-83.5" font-family="Helvetica,sans-Serif" font-size="10.00">sbuf_mem</text>
</a>
</g>
</g>
<!-- Node1&#45;&gt;Node7 -->
<g id="edge6" class="edge">
<title>Node1&#45;&gt;Node7</title>
<path fill="none" stroke="midnightblue" d="M59.12,-100.59C98.11,-94.98 170.16,-86 232,-86 232,-86 232,-86 335.5,-86 383.97,-86 439.72,-86 476.5,-86"/>
<polygon fill="midnightblue" stroke="midnightblue" points="476.81,-89.5 486.81,-86 476.81,-82.5 476.81,-89.5"/>
</g>
<!-- Node8 -->
<g id="node8" class="node">
<title>Node8</title>
<g id="a_node8"><a xlink:href="term_8c.html#af75f29a5ad723ab7a7f1ae4769daaa8f" target="_top" xlink:title=" ">
<polygon fill="white" stroke="black" points="96.5,-114.5 96.5,-133.5 158.5,-133.5 158.5,-114.5 96.5,-114.5"/>
<text text-anchor="middle" x="127.5" y="-121.5" font-family="Helvetica,sans-Serif" font-size="10.00">term_done</text>
</a>
</g>
</g>
<!-- Node1&#45;&gt;Node8 -->
<g id="edge8" class="edge">
<title>Node1&#45;&gt;Node8</title>
<path fill="none" stroke="midnightblue" d="M59.04,-110.65C67.56,-112.33 77.05,-114.21 86.17,-116.02"/>
<polygon fill="midnightblue" stroke="midnightblue" points="85.74,-119.5 96.23,-118.01 87.1,-112.63 85.74,-119.5"/>
</g>
<!-- Node12 -->
<g id="node12" class="node">
<title>Node12</title>
<g id="a_node12"><a xlink:href="term_8c.html#ac7072b9c76dd77ce9900197d0133b0ba" target="_top" xlink:title=" ">
<polygon fill="white" stroke="black" points="100.5,-38.5 100.5,-57.5 154.5,-57.5 154.5,-38.5 100.5,-38.5"/>
<text text-anchor="middle" x="127.5" y="-45.5" font-family="Helvetica,sans-Serif" font-size="10.00">term_init</text>
</a>
</g>
</g>
<!-- Node1&#45;&gt;Node12 -->
<g id="edge13" class="edge">
<title>Node1&#45;&gt;Node12</title>
<path fill="none" stroke="midnightblue" d="M46.79,-95.33C61.77,-86.43 84.22,-73.1 101.48,-62.86"/>
<polygon fill="midnightblue" stroke="midnightblue" points="103.64,-65.64 110.46,-57.53 100.07,-59.62 103.64,-65.64"/>
</g>
<!-- Node4 -->
<g id="node4" class="node">
<title>Node4</title>
<g id="a_node4"><a xlink:href="sbuf_8c.html#a4e56760893d5a6797626743840c9adf2" target="_top" xlink:title=" ">
<polygon fill="white" stroke="black" points="307.5,-190.5 307.5,-209.5 361.5,-209.5 361.5,-190.5 307.5,-190.5"/>
<text text-anchor="middle" x="334.5" y="-197.5" font-family="Helvetica,sans-Serif" font-size="10.00">sbuf_buf</text>
</a>
</g>
</g>
<!-- Node3&#45;&gt;Node4 -->
<g id="edge3" class="edge">
<title>Node3&#45;&gt;Node4</title>
<path fill="none" stroke="midnightblue" d="M264.12,-193.03C274.53,-194.07 286.29,-195.26 297.14,-196.35"/>
<polygon fill="midnightblue" stroke="midnightblue" points="296.89,-199.84 307.19,-197.36 297.59,-192.87 296.89,-199.84"/>
</g>
<!-- Node5 -->
<g id="node5" class="node">
<title>Node5</title>
<g id="a_node5"><a xlink:href="sbuf_8c.html#a4ad75f3948c0340c342a3ea3eb63a6e6" target="_top" xlink:title=" ">
<polygon fill="white" stroke="black" points="585,-95.5 585,-114.5 655,-114.5 655,-95.5 585,-95.5"/>
<text text-anchor="middle" x="620" y="-102.5" font-family="Helvetica,sans-Serif" font-size="10.00">sbuf_extend</text>
</a>
</g>
</g>
<!-- Node4&#45;&gt;Node5 -->
<g id="edge4" class="edge">
<title>Node4&#45;&gt;Node5</title>
<path fill="none" stroke="midnightblue" d="M361.66,-191.23C411.94,-174.39 522.24,-137.42 580.77,-117.81"/>
<polygon fill="midnightblue" stroke="midnightblue" points="582.02,-121.08 590.39,-114.59 579.79,-114.45 582.02,-121.08"/>
</g>
<!-- Node7&#45;&gt;Node5 -->
<g id="edge7" class="edge">
<title>Node7&#45;&gt;Node5</title>
<path fill="none" stroke="midnightblue" d="M549,-91.7C557.11,-93.24 566.05,-94.94 574.76,-96.59"/>
<polygon fill="midnightblue" stroke="midnightblue" points="574.33,-100.08 584.81,-98.5 575.64,-93.2 574.33,-100.08"/>
</g>
<!-- Node9 -->
<g id="node9" class="node">
<title>Node9</title>
<g id="a_node9"><a xlink:href="term_8c.html#ac34816f514affc4dfb9d34f361175bf9" target="_top" xlink:title=" ">
<polygon fill="white" stroke="black" points="196,-133.5 196,-152.5 270,-152.5 270,-133.5 196,-133.5"/>
<text text-anchor="middle" x="233" y="-140.5" font-family="Helvetica,sans-Serif" font-size="10.00">term_commit</text>
</a>
</g>
</g>
<!-- Node8&#45;&gt;Node9 -->
<g id="edge9" class="edge">
<title>Node8&#45;&gt;Node9</title>
<path fill="none" stroke="midnightblue" d="M158.71,-129.55C167.22,-131.11 176.66,-132.84 185.86,-134.53"/>
<polygon fill="midnightblue" stroke="midnightblue" points="185.23,-137.97 195.7,-136.34 186.5,-131.09 185.23,-137.97"/>
</g>
<!-- Node9&#45;&gt;Node4 -->
<g id="edge10" class="edge">
<title>Node9&#45;&gt;Node4</title>
<path fill="none" stroke="midnightblue" d="M250.88,-152.67C266.55,-161.65 290.11,-175.14 308.06,-185.43"/>
<polygon fill="midnightblue" stroke="midnightblue" points="306.45,-188.54 316.87,-190.47 309.93,-182.47 306.45,-188.54"/>
</g>
<!-- Node10 -->
<g id="node10" class="node">
<title>Node10</title>
<g id="a_node10"><a xlink:href="sbuf_8c.html#a8c1a89868b1999663effb78b4f3fab32" target="_top" xlink:title=" ">
<polygon fill="white" stroke="black" points="306,-152.5 306,-171.5 363,-171.5 363,-152.5 306,-152.5"/>
<text text-anchor="middle" x="334.5" y="-159.5" font-family="Helvetica,sans-Serif" font-size="10.00">sbuf_free</text>
</a>
</g>
</g>
<!-- Node9&#45;&gt;Node10 -->
<g id="edge11" class="edge">
<title>Node9&#45;&gt;Node10</title>
<path fill="none" stroke="midnightblue" d="M270.2,-149.91C278.58,-151.51 287.51,-153.22 295.94,-154.83"/>
<polygon fill="midnightblue" stroke="midnightblue" points="295.43,-158.29 305.91,-156.73 296.74,-151.42 295.43,-158.29"/>
</g>
<!-- Node11 -->
<g id="node11" class="node">
<title>Node11</title>
<g id="a_node11"><a xlink:href="sbuf_8c.html#af4ad9608dfc956bbedc19df5c8256fc4" target="_top" xlink:title=" ">
<polygon fill="white" stroke="black" points="308,-114.5 308,-133.5 361,-133.5 361,-114.5 308,-114.5"/>
<text text-anchor="middle" x="334.5" y="-121.5" font-family="Helvetica,sans-Serif" font-size="10.00">sbuf_len</text>
</a>
</g>
</g>
<!-- Node9&#45;&gt;Node11 -->
<g id="edge12" class="edge">
<title>Node9&#45;&gt;Node11</title>
<path fill="none" stroke="midnightblue" d="M270.2,-136.09C279.15,-134.38 288.73,-132.55 297.66,-130.84"/>
<polygon fill="midnightblue" stroke="midnightblue" points="298.6,-134.23 307.76,-128.91 297.28,-127.35 298.6,-134.23"/>
</g>
<!-- Node13 -->
<g id="node13" class="node">
<title>Node13</title>
<g id="a_node13"><a xlink:href="term_8c.html#a1982be6327b52a410f8cad1eb805187b" target="_top" xlink:title=" ">
<polygon fill="white" stroke="black" points="206.5,-38.5 206.5,-57.5 259.5,-57.5 259.5,-38.5 206.5,-38.5"/>
<text text-anchor="middle" x="233" y="-45.5" font-family="Helvetica,sans-Serif" font-size="10.00">term_str</text>
</a>
</g>
</g>
<!-- Node12&#45;&gt;Node13 -->
<g id="edge14" class="edge">
<title>Node12&#45;&gt;Node13</title>
<path fill="none" stroke="midnightblue" d="M154.62,-48C167.22,-48 182.53,-48 196.19,-48"/>
<polygon fill="midnightblue" stroke="midnightblue" points="196.25,-51.5 206.25,-48 196.25,-44.5 196.25,-51.5"/>
</g>
<!-- Node14 -->
<g id="node14" class="node">
<title>Node14</title>
<g id="a_node14"><a xlink:href="term_8c.html#acba93d06f96ed6e5ec460b781191741d" target="_top" xlink:title=" ">
<polygon fill="white" stroke="black" points="307,-38.5 307,-57.5 362,-57.5 362,-38.5 307,-38.5"/>
<text text-anchor="middle" x="334.5" y="-45.5" font-family="Helvetica,sans-Serif" font-size="10.00">term_out</text>
</a>
</g>
</g>
<!-- Node13&#45;&gt;Node14 -->
<g id="edge15" class="edge">
<title>Node13&#45;&gt;Node14</title>
<path fill="none" stroke="midnightblue" d="M259.62,-48C270.96,-48 284.5,-48 296.88,-48"/>
<polygon fill="midnightblue" stroke="midnightblue" points="296.92,-51.5 306.92,-48 296.92,-44.5 296.92,-51.5"/>
</g>
<!-- Node15 -->
<g id="node15" class="node">
<title>Node15</title>
<g id="a_node15"><a xlink:href="sbuf_8c.html#a603d1d6ab090025f5850f10bfa2dec7a" target="_top" xlink:title=" ">
<polygon fill="white" stroke="black" points="399,-38.5 399,-57.5 451,-57.5 451,-38.5 399,-38.5"/>
<text text-anchor="middle" x="425" y="-45.5" font-family="Helvetica,sans-Serif" font-size="10.00">sbuf_str</text>
</a>
</g>
</g>
<!-- Node14&#45;&gt;Node15 -->
<g id="edge16" class="edge">
<title>Node14&#45;&gt;Node15</title>
<path fill="none" stroke="midnightblue" d="M362.05,-48C370.47,-48 379.91,-48 388.83,-48"/>
<polygon fill="midnightblue" stroke="midnightblue" points="388.98,-51.5 398.98,-48 388.98,-44.5 388.98,-51.5"/>
</g>
<!-- Node15&#45;&gt;Node7 -->
<g id="edge17" class="edge">
<title>Node15&#45;&gt;Node7</title>
<path fill="none" stroke="midnightblue" d="M448.96,-57.59C459.74,-62.09 472.77,-67.53 484.54,-72.44"/>
<polygon fill="midnightblue" stroke="midnightblue" points="483.47,-75.79 494.04,-76.41 486.17,-69.33 483.47,-75.79"/>
</g>
</g>
</svg>
        <g id="navigator" transform="translate(0 0)" fill="#404254">
                <rect fill="#f2f5e9" fill-opacity="0.5" stroke="#606060" stroke-width=".5" x="0" y="0" width="60" height="60"/>
                <use id="zoomplus" xlink:href="#zoomPlus" x="17" y="9" onmousedown="handleZoom(evt,'in')"/>
                <use id="zoomminus" xlink:href="#zoomMin" x="42" y="9" onmousedown="handleZoom(evt,'out')"/>
                <use id="reset" xlink:href="#resetDef" x="30" y="36" onmousedown="handleReset()"/>
                <g id="arrowUp" xlink:href="#dirArrow" transform="translate(30 24)" onmousedown="handlePan(0,-1)">
                  <use xlink:href="#rim" fill="#404040">
                        <set attributeName="fill" to="#808080" begin="arrowUp.mouseover" end="arrowUp.mouseout"/>
                  </use>
                  <path fill="none" stroke="white" stroke-width="1.5" d="M0,-3.0v7 M-2.5,-0.5L0,-3.0L2.5,-0.5"/>
                </g>
                <g id="arrowRight" xlink:href="#dirArrow" transform="rotate(90) translate(36 -43)" onmousedown="handlePan(1,0)">
                  <use xlink:href="#rim" fill="#404040">
                        <set attributeName="fill" to="#808080" begin="arrowRight.mouseover" end="arrowRight.mouseout"/>
                  </use>
                  <path fill="none" stroke="white" stroke-width="1.5" d="M0,-3.0v7 M-2.5,-0.5L0,-3.0L2.5,-0.5"/>
                </g>
                <g id="arrowDown" xlink:href="#dirArrow" transform="rotate(180) translate(-30 -48)" onmousedown="handlePan(0,1)">
                  <use xlink:href="#rim" fill="#404040">
                        <set attributeName="fill" to="#808080" begin="arrowDown.mouseover" end="arrowDown.mouseout"/>
                  </use>
                  <path fill="none" stroke="white" stroke-width="1.5" d="M0,-3.0v7 M-2.5,-0.5L0,-3.0L2.5,-0.5"/>
                </g>
                <g id="arrowLeft" xlink:href="#dirArrow" transform="rotate(270) translate(-36 17)" onmousedown="handlePan(-1,0)">
                  <use xlink:href="#rim" fill="#404040">
                        <set attributeName="fill" to="#808080" begin="arrowLeft.mouseover" end="arrowLeft.mouseout"/>
                  </use>
                  <path fill="none" stroke="white" stroke-width="1.5" d="M0,-3.0v7 M-2.5,-0.5L0,-3.0L2.5,-0.5"/>
                </g>
        </g>
        <svg viewBox="0 0 15 15" width="100%" height="30px" preserveAspectRatio="xMaxYMin meet">
         <g id="arrow_out" transform="scale(0.3 0.3)">
          <a xlink:href="cmd_8c_a308ea7ca1940fd76546ba9797efca385_cgraph_org.svg" target="_base">
           <rect id="button" ry="5" rx="5" y="6" x="6" height="38" width="38"
                fill="#f2f5e9" fill-opacity="0.5" stroke="#606060" stroke-width="1.0"/>
           <path id="arrow"
             d="M 11.500037,31.436501 C 11.940474,20.09759 22.043105,11.32322 32.158766,21.979434 L 37.068811,17.246167 C 37.068811,17.246167 37.088388,32 37.088388,32 L 22.160133,31.978069 C 22.160133,31.978069 26.997745,27.140456 26.997745,27.140456 C 18.528582,18.264221 13.291696,25.230495 11.500037,31.436501 z"
             style="fill:#404040;"/>
          </a>
         </g>
        </svg>
</svg>
