<?xml version="1.0" encoding="UTF-8" standalone="no"?>
<!DOCTYPE svg PUBLIC "-//W3C//DTD SVG 1.1//EN"
 "http://www.w3.org/Graphics/SVG/1.1/DTD/svg11.dtd">
<!-- Generated by graphviz version 2.44.1 (20200629.0846)
 -->
<!-- Title: dir_fix Pages: 1 -->
<!--zoomable 265 -->
<svg id="main" version="1.1" xmlns="http://www.w3.org/2000/svg" xmlns:xlink="http://www.w3.org/1999/xlink" xml:space="preserve" onload="init(evt)">
<style type="text/css"><![CDATA[
.edge:hover path { stroke: red; }
.edge:hover polygon { stroke: red; fill: red; }
]]></style>
<script type="text/javascript"><![CDATA[
var edges = document.getElementsByTagName('g');
if (edges && edges.length) {
  for (var i=0;i<edges.length;i++) {
    if (edges[i].id.substr(0,4)=='edge') {
      edges[i].setAttribute('class','edge');
    }
  }
}
]]></script>
        <defs>
                <circle id="rim" cx="0" cy="0" r="7"/>
                <circle id="rim2" cx="0" cy="0" r="3.5"/>
                <g id="zoomPlus">
                        <use xlink:href="#rim" fill="#404040">
                                <set attributeName="fill" to="#808080" begin="zoomplus.mouseover" end="zoomplus.mouseout"/>
                        </use>
                        <path d="M-4,0h8M0,-4v8" fill="none" stroke="white" stroke-width="1.5" pointer-events="none"/>
                </g>
                <g id="zoomMin">
                        <use xlink:href="#rim" fill="#404040">
                                <set attributeName="fill" to="#808080" begin="zoomminus.mouseover" end="zoomminus.mouseout"/>
                        </use>
                        <path d="M-4,0h8" fill="none" stroke="white" stroke-width="1.5" pointer-events="none"/>
                </g>
                <g id="dirArrow">
                        <path fill="none" stroke="white" stroke-width="1.5" d="M0,-3.0v7 M-2.5,-0.5L0,-3.0L2.5,-0.5"/>
                </g>
               <g id="resetDef">
                       <use xlink:href="#rim2" fill="#404040">
                               <set attributeName="fill" to="#808080" begin="reset.mouseover" end="reset.mouseout"/>
                       </use>
               </g>
        </defs>

<script type="text/javascript">
var viewWidth = 846;
var viewHeight = 265;
var sectionId = 'dynsection-4';
</script>
<script xlink:href="svgpan.js"/>
<svg id="graph" class="graph">
<g id="viewport">
<title>dir_fix</title>
<polygon fill="white" stroke="transparent" points="-4,4 -4,-261 842,-261 842,4 -4,4"/>
<!-- Node1 -->
<g id="node1" class="node">
<title>Node1</title>
<g id="a_node1"><a xlink:title=" ">
<polygon fill="#bfbfbf" stroke="black" points="0,-95.5 0,-114.5 43,-114.5 43,-95.5 0,-95.5"/>
<text text-anchor="middle" x="21.5" y="-102.5" font-family="Helvetica,sans-Serif" font-size="10.00">dir_fix</text>
</a>
</g>
</g>
<!-- Node2 -->
<g id="node2" class="node">
<title>Node2</title>
<g id="a_node2"><a xlink:href="dir_8c.html#a3b2f132ebfd084295e89aa35eff56ff4" target="_top" xlink:title=" ">
<polygon fill="white" stroke="black" points="82,-114.5 82,-133.5 141,-133.5 141,-114.5 82,-114.5"/>
<text text-anchor="middle" x="111.5" y="-121.5" font-family="Helvetica,sans-Serif" font-size="10.00">dir_match</text>
</a>
</g>
</g>
<!-- Node1&#45;&gt;Node2 -->
<g id="edge1" class="edge">
<title>Node1&#45;&gt;Node2</title>
<path fill="none" stroke="midnightblue" d="M43.35,-109.5C51.88,-111.34 62.03,-113.53 71.82,-115.65"/>
<polygon fill="midnightblue" stroke="midnightblue" points="71.29,-119.12 81.81,-117.8 72.77,-112.27 71.29,-119.12"/>
</g>
<!-- Node23 -->
<g id="node23" class="node">
<title>Node23</title>
<g id="a_node23"><a xlink:href="dir_8c.html#a83ed34b9263550e2ca9b15cc02294a6b" target="_top" xlink:title=" ">
<polygon fill="white" stroke="black" points="79,-76.5 79,-95.5 144,-95.5 144,-76.5 79,-76.5"/>
<text text-anchor="middle" x="111.5" y="-83.5" font-family="Helvetica,sans-Serif" font-size="10.00">dir_reverse</text>
</a>
</g>
</g>
<!-- Node1&#45;&gt;Node23 -->
<g id="edge26" class="edge">
<title>Node1&#45;&gt;Node23</title>
<path fill="none" stroke="midnightblue" d="M43.35,-100.5C51.04,-98.84 60.03,-96.9 68.9,-94.98"/>
<polygon fill="midnightblue" stroke="midnightblue" points="69.74,-98.38 78.78,-92.85 68.26,-91.54 69.74,-98.38"/>
</g>
<!-- Node3 -->
<g id="node3" class="node">
<title>Node3</title>
<g id="a_node3"><a xlink:href="conf_8c.html#a3efe6ef9cd3bd043b3df1653265409f2" target="_top" xlink:title=" ">
<polygon fill="white" stroke="black" points="180,-228.5 180,-247.5 253,-247.5 253,-228.5 180,-228.5"/>
<text text-anchor="middle" x="216.5" y="-235.5" font-family="Helvetica,sans-Serif" font-size="10.00">conf_dirmark</text>
</a>
</g>
</g>
<!-- Node2&#45;&gt;Node3 -->
<g id="edge2" class="edge">
<title>Node2&#45;&gt;Node3</title>
<path fill="none" stroke="midnightblue" d="M117.43,-133.74C127.21,-152.3 150.7,-193.19 180,-219 181.53,-220.35 183.18,-221.64 184.9,-222.87"/>
<polygon fill="midnightblue" stroke="midnightblue" points="183.48,-226.11 193.81,-228.44 187.19,-220.18 183.48,-226.11"/>
</g>
<!-- Node4 -->
<g id="node4" class="node">
<title>Node4</title>
<g id="a_node4"><a xlink:href="rset_8c.html#a389ec5abca88adc048a058744f2373eb" target="_top" xlink:title=" ">
<polygon fill="white" stroke="black" points="189.5,-190.5 189.5,-209.5 243.5,-209.5 243.5,-190.5 189.5,-190.5"/>
<text text-anchor="middle" x="216.5" y="-197.5" font-family="Helvetica,sans-Serif" font-size="10.00">rset_find</text>
</a>
</g>
</g>
<!-- Node2&#45;&gt;Node4 -->
<g id="edge3" class="edge">
<title>Node2&#45;&gt;Node4</title>
<path fill="none" stroke="midnightblue" d="M122.48,-133.6C135.2,-145.55 158.17,-166.18 180,-181 182.25,-182.53 184.64,-184.03 187.08,-185.49"/>
<polygon fill="midnightblue" stroke="midnightblue" points="185.48,-188.6 195.91,-190.46 188.91,-182.5 185.48,-188.6"/>
</g>
<!-- Node15 -->
<g id="node15" class="node">
<title>Node15</title>
<g id="a_node15"><a xlink:href="sbuf_8c.html#a4e56760893d5a6797626743840c9adf2" target="_top" xlink:title=" ">
<polygon fill="white" stroke="black" points="189.5,-152.5 189.5,-171.5 243.5,-171.5 243.5,-152.5 189.5,-152.5"/>
<text text-anchor="middle" x="216.5" y="-159.5" font-family="Helvetica,sans-Serif" font-size="10.00">sbuf_buf</text>
</a>
</g>
</g>
<!-- Node2&#45;&gt;Node15 -->
<g id="edge17" class="edge">
<title>Node2&#45;&gt;Node15</title>
<path fill="none" stroke="midnightblue" d="M138.49,-133.59C151.06,-138.22 166.33,-143.86 179.95,-148.89"/>
<polygon fill="midnightblue" stroke="midnightblue" points="178.92,-152.24 189.52,-152.41 181.35,-145.67 178.92,-152.24"/>
</g>
<!-- Node17 -->
<g id="node17" class="node">
<title>Node17</title>
<g id="a_node17"><a xlink:href="sbuf_8c.html#a8c1a89868b1999663effb78b4f3fab32" target="_top" xlink:title=" ">
<polygon fill="white" stroke="black" points="188,-114.5 188,-133.5 245,-133.5 245,-114.5 188,-114.5"/>
<text text-anchor="middle" x="216.5" y="-121.5" font-family="Helvetica,sans-Serif" font-size="10.00">sbuf_free</text>
</a>
</g>
</g>
<!-- Node2&#45;&gt;Node17 -->
<g id="edge19" class="edge">
<title>Node2&#45;&gt;Node17</title>
<path fill="none" stroke="midnightblue" d="M141.19,-124C152.42,-124 165.47,-124 177.47,-124"/>
<polygon fill="midnightblue" stroke="midnightblue" points="177.67,-127.5 187.67,-124 177.67,-120.5 177.67,-127.5"/>
</g>
<!-- Node18 -->
<g id="node18" class="node">
<title>Node18</title>
<g id="a_node18"><a xlink:href="sbuf_8c.html#a57748585d6786a2c1aadc2cbe6f2135b" target="_top" xlink:title=" ">
<polygon fill="white" stroke="black" points="184,-76.5 184,-95.5 249,-95.5 249,-76.5 184,-76.5"/>
<text text-anchor="middle" x="216.5" y="-83.5" font-family="Helvetica,sans-Serif" font-size="10.00">sbuf_make</text>
</a>
</g>
</g>
<!-- Node2&#45;&gt;Node18 -->
<g id="edge20" class="edge">
<title>Node2&#45;&gt;Node18</title>
<path fill="none" stroke="midnightblue" d="M138.49,-114.41C151.06,-109.78 166.33,-104.14 179.95,-99.11"/>
<polygon fill="midnightblue" stroke="midnightblue" points="181.35,-102.33 189.52,-95.59 178.92,-95.76 181.35,-102.33"/>
</g>
<!-- Node19 -->
<g id="node19" class="node">
<title>Node19</title>
<g id="a_node19"><a xlink:href="sbuf_8c.html#aa511ac77d6b486accc01c0512ef27ed2" target="_top" xlink:title=" ">
<polygon fill="white" stroke="black" points="185.5,-38.5 185.5,-57.5 247.5,-57.5 247.5,-38.5 185.5,-38.5"/>
<text text-anchor="middle" x="216.5" y="-45.5" font-family="Helvetica,sans-Serif" font-size="10.00">sbuf_mem</text>
</a>
</g>
</g>
<!-- Node2&#45;&gt;Node19 -->
<g id="edge21" class="edge">
<title>Node2&#45;&gt;Node19</title>
<path fill="none" stroke="midnightblue" d="M130.39,-114.35C134.99,-111.56 139.82,-108.36 144,-105 162.13,-90.42 161.51,-81.11 180,-67 181.85,-65.59 183.82,-64.22 185.85,-62.91"/>
<polygon fill="midnightblue" stroke="midnightblue" points="188.06,-65.67 194.91,-57.58 184.51,-59.64 188.06,-65.67"/>
</g>
<!-- Node20 -->
<g id="node20" class="node">
<title>Node20</title>
<g id="a_node20"><a xlink:href="uc_8c.html#a8334cbe4db5e54e19bf79b31f68d9eb8" target="_top" xlink:title=" ">
<polygon fill="white" stroke="black" points="194.5,-0.5 194.5,-19.5 238.5,-19.5 238.5,-0.5 194.5,-0.5"/>
<text text-anchor="middle" x="216.5" y="-7.5" font-family="Helvetica,sans-Serif" font-size="10.00">uc_off</text>
</a>
</g>
</g>
<!-- Node2&#45;&gt;Node20 -->
<g id="edge23" class="edge">
<title>Node2&#45;&gt;Node20</title>
<path fill="none" stroke="midnightblue" d="M132.49,-114.37C136.65,-111.74 140.74,-108.6 144,-105 169.07,-77.28 154.23,-56.07 180,-29 181.77,-27.14 183.77,-25.42 185.88,-23.84"/>
<polygon fill="midnightblue" stroke="midnightblue" points="187.85,-26.74 194.44,-18.45 184.12,-20.82 187.85,-26.74"/>
</g>
<!-- Node5 -->
<g id="node5" class="node">
<title>Node5</title>
<g id="a_node5"><a xlink:href="regex_8c.html#aa085ccd05ec25e3f8053850aebc50fe3" target="_top" xlink:title=" ">
<polygon fill="white" stroke="black" points="298.5,-190.5 298.5,-209.5 349.5,-209.5 349.5,-190.5 298.5,-190.5"/>
<text text-anchor="middle" x="324" y="-197.5" font-family="Helvetica,sans-Serif" font-size="10.00">regexec</text>
</a>
</g>
</g>
<!-- Node4&#45;&gt;Node5 -->
<g id="edge4" class="edge">
<title>Node4&#45;&gt;Node5</title>
<path fill="none" stroke="midnightblue" d="M243.58,-200C257.03,-200 273.63,-200 288.16,-200"/>
<polygon fill="midnightblue" stroke="midnightblue" points="288.31,-203.5 298.31,-200 288.31,-196.5 288.31,-203.5"/>
</g>
<!-- Node6 -->
<g id="node6" class="node">
<title>Node6</title>
<g id="a_node6"><a xlink:href="regex_8c.html#aa5925e49bd18112bb37421dbde29162a" target="_top" xlink:title=" ">
<polygon fill="white" stroke="black" points="395,-182.5 395,-201.5 466,-201.5 466,-182.5 395,-182.5"/>
<text text-anchor="middle" x="430.5" y="-189.5" font-family="Helvetica,sans-Serif" font-size="10.00">re_recmatch</text>
</a>
</g>
</g>
<!-- Node5&#45;&gt;Node6 -->
<g id="edge5" class="edge">
<title>Node5&#45;&gt;Node6</title>
<path fill="none" stroke="midnightblue" d="M349.5,-198.12C360.06,-197.32 372.74,-196.34 384.87,-195.42"/>
<polygon fill="midnightblue" stroke="midnightblue" points="385.16,-198.9 394.87,-194.65 384.63,-191.93 385.16,-198.9"/>
</g>
<!-- Node12 -->
<g id="node12" class="node">
<title>Node12</title>
<g id="a_node12"><a xlink:href="regex_8c.html#a9a0d6d5f93f1eaba8b63b16903c0952d" target="_top" xlink:title=" ">
<polygon fill="white" stroke="black" points="791.5,-209.5 791.5,-228.5 836.5,-228.5 836.5,-209.5 791.5,-209.5"/>
<text text-anchor="middle" x="814" y="-216.5" font-family="Helvetica,sans-Serif" font-size="10.00">uc_len</text>
</a>
</g>
</g>
<!-- Node5&#45;&gt;Node12 -->
<g id="edge16" class="edge">
<title>Node5&#45;&gt;Node12</title>
<path fill="none" stroke="midnightblue" d="M344.42,-209.54C379.29,-225.77 455.21,-257 523,-257 523,-257 523,-257 620,-257 677.75,-257 743.42,-240.42 781.34,-229.16"/>
<polygon fill="midnightblue" stroke="midnightblue" points="782.73,-232.4 791.28,-226.15 780.69,-225.7 782.73,-232.4"/>
</g>
<!-- Node7 -->
<g id="node7" class="node">
<title>Node7</title>
<g id="a_node7"><a xlink:href="regex_8c.html#a8e35614ddf21d405773327a52a95a73d" target="_top" xlink:title=" ">
<polygon fill="white" stroke="black" points="502,-175.5 502,-194.5 546,-194.5 546,-175.5 502,-175.5"/>
<text text-anchor="middle" x="524" y="-182.5" font-family="Helvetica,sans-Serif" font-size="10.00">re_rec</text>
</a>
</g>
</g>
<!-- Node6&#45;&gt;Node7 -->
<g id="edge6" class="edge">
<title>Node6&#45;&gt;Node7</title>
<path fill="none" stroke="midnightblue" d="M466.09,-189.35C474.56,-188.71 483.57,-188.02 491.87,-187.38"/>
<polygon fill="midnightblue" stroke="midnightblue" points="492.19,-190.87 501.9,-186.61 491.66,-183.89 492.19,-190.87"/>
</g>
<!-- Node8 -->
<g id="node8" class="node">
<title>Node8</title>
<g id="a_node8"><a xlink:href="regex_8c.html#a24fd1fc7457ff4f03fb384f7170ac395" target="_top" xlink:title=" ">
<polygon fill="white" stroke="black" points="582,-147.5 582,-166.5 656,-166.5 656,-147.5 582,-147.5"/>
<text text-anchor="middle" x="619" y="-154.5" font-family="Helvetica,sans-Serif" font-size="10.00">ratom_match</text>
</a>
</g>
</g>
<!-- Node7&#45;&gt;Node8 -->
<g id="edge7" class="edge">
<title>Node7&#45;&gt;Node8</title>
<path fill="none" stroke="midnightblue" d="M546.1,-178.65C555.12,-175.93 565.97,-172.66 576.48,-169.5"/>
<polygon fill="midnightblue" stroke="midnightblue" points="577.82,-172.75 586.38,-166.52 575.8,-166.05 577.82,-172.75"/>
</g>
<!-- Node9 -->
<g id="node9" class="node">
<title>Node9</title>
<g id="a_node9"><a xlink:href="regex_8c.html#aae17ed73e84075718fb04d131d6ca779" target="_top" xlink:title=" ">
<polygon fill="white" stroke="black" points="692,-171.5 692,-190.5 754,-190.5 754,-171.5 692,-171.5"/>
<text text-anchor="middle" x="723" y="-178.5" font-family="Helvetica,sans-Serif" font-size="10.00">brk_match</text>
</a>
</g>
</g>
<!-- Node8&#45;&gt;Node9 -->
<g id="edge8" class="edge">
<title>Node8&#45;&gt;Node9</title>
<path fill="none" stroke="midnightblue" d="M656.25,-165.53C664.64,-167.5 673.62,-169.62 682.16,-171.63"/>
<polygon fill="midnightblue" stroke="midnightblue" points="681.39,-175.04 691.93,-173.92 682.99,-168.23 681.39,-175.04"/>
</g>
<!-- Node11 -->
<g id="node11" class="node">
<title>Node11</title>
<g id="a_node11"><a xlink:href="regex_8c.html#aaf73cdb88048e7f9fd588eb8d5aeb5a3" target="_top" xlink:title=" ">
<polygon fill="white" stroke="black" points="790,-133.5 790,-152.5 838,-152.5 838,-133.5 790,-133.5"/>
<text text-anchor="middle" x="814" y="-140.5" font-family="Helvetica,sans-Serif" font-size="10.00">uc_dec</text>
</a>
</g>
</g>
<!-- Node8&#45;&gt;Node11 -->
<g id="edge14" class="edge">
<title>Node8&#45;&gt;Node11</title>
<path fill="none" stroke="midnightblue" d="M656.3,-154.37C691.83,-151.79 745.48,-147.9 779.87,-145.4"/>
<polygon fill="midnightblue" stroke="midnightblue" points="780.17,-148.89 789.89,-144.68 779.66,-141.91 780.17,-148.89"/>
</g>
<!-- Node8&#45;&gt;Node12 -->
<g id="edge15" class="edge">
<title>Node8&#45;&gt;Node12</title>
<path fill="none" stroke="midnightblue" d="M632.51,-166.52C646.31,-176.52 669.55,-191.88 692,-200 721.22,-210.57 756.51,-215.26 781.41,-217.35"/>
<polygon fill="midnightblue" stroke="midnightblue" points="781.17,-220.84 791.4,-218.09 781.69,-213.86 781.17,-220.84"/>
</g>
<!-- Node13 -->
<g id="node13" class="node">
<title>Node13</title>
<g id="a_node13"><a xlink:href="regex_8c.html#a35ad3fd0dbb795e6f30404ce86a7be5b" target="_top" xlink:title=" ">
<polygon fill="white" stroke="black" points="700.5,-95.5 700.5,-114.5 745.5,-114.5 745.5,-95.5 700.5,-95.5"/>
<text text-anchor="middle" x="723" y="-102.5" font-family="Helvetica,sans-Serif" font-size="10.00">isword</text>
</a>
</g>
</g>
<!-- Node8&#45;&gt;Node13 -->
<g id="edge12" class="edge">
<title>Node8&#45;&gt;Node13</title>
<path fill="none" stroke="midnightblue" d="M638.71,-147.46C654.14,-139.6 676.27,-128.31 693.84,-119.35"/>
<polygon fill="midnightblue" stroke="midnightblue" points="695.75,-122.31 703.06,-114.65 692.57,-116.08 695.75,-122.31"/>
</g>
<!-- Node14 -->
<g id="node14" class="node">
<title>Node14</title>
<g id="a_node14"><a xlink:href="regex_8c.html#ade3e10606e6e8866e6151fe8440d6101" target="_top" xlink:title=" ">
<polygon fill="white" stroke="black" points="699,-57.5 699,-76.5 747,-76.5 747,-57.5 699,-57.5"/>
<text text-anchor="middle" x="723" y="-64.5" font-family="Helvetica,sans-Serif" font-size="10.00">uc_beg</text>
</a>
</g>
</g>
<!-- Node8&#45;&gt;Node14 -->
<g id="edge13" class="edge">
<title>Node8&#45;&gt;Node14</title>
<path fill="none" stroke="midnightblue" d="M628.73,-147.14C641.72,-132.77 667.26,-105.66 692,-86 693.56,-84.76 695.2,-83.54 696.88,-82.34"/>
<polygon fill="midnightblue" stroke="midnightblue" points="699.01,-85.12 705.37,-76.64 695.12,-79.3 699.01,-85.12"/>
</g>
<!-- Node10 -->
<g id="node10" class="node">
<title>Node10</title>
<g id="a_node10"><a xlink:href="regex_8c.html#acc18ff8d2687611a9e221b3329b02413" target="_top" xlink:title=" ">
<polygon fill="white" stroke="black" points="790,-171.5 790,-190.5 838,-190.5 838,-171.5 790,-171.5"/>
<text text-anchor="middle" x="814" y="-178.5" font-family="Helvetica,sans-Serif" font-size="10.00">brk_len</text>
</a>
</g>
</g>
<!-- Node9&#45;&gt;Node10 -->
<g id="edge9" class="edge">
<title>Node9&#45;&gt;Node10</title>
<path fill="none" stroke="midnightblue" d="M754.13,-181C762.36,-181 771.32,-181 779.71,-181"/>
<polygon fill="midnightblue" stroke="midnightblue" points="779.94,-184.5 789.94,-181 779.94,-177.5 779.94,-184.5"/>
</g>
<!-- Node9&#45;&gt;Node11 -->
<g id="edge10" class="edge">
<title>Node9&#45;&gt;Node11</title>
<path fill="none" stroke="midnightblue" d="M746.46,-171.41C757,-166.91 769.75,-161.47 781.25,-156.56"/>
<polygon fill="midnightblue" stroke="midnightblue" points="782.73,-159.73 790.55,-152.59 779.98,-153.29 782.73,-159.73"/>
</g>
<!-- Node9&#45;&gt;Node12 -->
<g id="edge11" class="edge">
<title>Node9&#45;&gt;Node12</title>
<path fill="none" stroke="midnightblue" d="M746.46,-190.59C757.24,-195.19 770.33,-200.78 782.04,-205.78"/>
<polygon fill="midnightblue" stroke="midnightblue" points="780.9,-209.1 791.47,-209.81 783.65,-202.66 780.9,-209.1"/>
</g>
<!-- Node16 -->
<g id="node16" class="node">
<title>Node16</title>
<g id="a_node16"><a xlink:href="sbuf_8c.html#a4ad75f3948c0340c342a3ea3eb63a6e6" target="_top" xlink:title=" ">
<polygon fill="white" stroke="black" points="289,-95.5 289,-114.5 359,-114.5 359,-95.5 289,-95.5"/>
<text text-anchor="middle" x="324" y="-102.5" font-family="Helvetica,sans-Serif" font-size="10.00">sbuf_extend</text>
</a>
</g>
</g>
<!-- Node15&#45;&gt;Node16 -->
<g id="edge18" class="edge">
<title>Node15&#45;&gt;Node16</title>
<path fill="none" stroke="midnightblue" d="M235.57,-152.35C241.16,-149.36 247.34,-146.05 253,-143 267.4,-135.24 283.44,-126.54 296.52,-119.42"/>
<polygon fill="midnightblue" stroke="midnightblue" points="298.36,-122.41 305.47,-114.56 295.01,-116.26 298.36,-122.41"/>
</g>
<!-- Node19&#45;&gt;Node16 -->
<g id="edge22" class="edge">
<title>Node19&#45;&gt;Node16</title>
<path fill="none" stroke="midnightblue" d="M235.57,-57.65C241.16,-60.64 247.34,-63.95 253,-67 267.4,-74.76 283.44,-83.46 296.52,-90.58"/>
<polygon fill="midnightblue" stroke="midnightblue" points="295.01,-93.74 305.47,-95.44 298.36,-87.59 295.01,-93.74"/>
</g>
<!-- Node21 -->
<g id="node21" class="node">
<title>Node21</title>
<g id="a_node21"><a xlink:href="uc_8c.html#a79c7c44c06c1febff5680c19667e2676" target="_top" xlink:title=" ">
<polygon fill="white" stroke="black" points="298.5,-0.5 298.5,-19.5 349.5,-19.5 349.5,-0.5 298.5,-0.5"/>
<text text-anchor="middle" x="324" y="-7.5" font-family="Helvetica,sans-Serif" font-size="10.00">uc_next</text>
</a>
</g>
</g>
<!-- Node20&#45;&gt;Node21 -->
<g id="edge24" class="edge">
<title>Node20&#45;&gt;Node21</title>
<path fill="none" stroke="midnightblue" d="M238.6,-10C252.7,-10 271.6,-10 287.94,-10"/>
<polygon fill="midnightblue" stroke="midnightblue" points="288.23,-13.5 298.23,-10 288.23,-6.5 288.23,-13.5"/>
</g>
<!-- Node22 -->
<g id="node22" class="node">
<title>Node22</title>
<g id="a_node22"><a xlink:href="uc_8c.html#a616e24870a58b86644c34ee077faca11" target="_top" xlink:title=" ">
<polygon fill="white" stroke="black" points="406.5,-0.5 406.5,-19.5 454.5,-19.5 454.5,-0.5 406.5,-0.5"/>
<text text-anchor="middle" x="430.5" y="-7.5" font-family="Helvetica,sans-Serif" font-size="10.00">uc_end</text>
</a>
</g>
</g>
<!-- Node21&#45;&gt;Node22 -->
<g id="edge25" class="edge">
<title>Node21&#45;&gt;Node22</title>
<path fill="none" stroke="midnightblue" d="M349.5,-10C363.42,-10 381.04,-10 396.2,-10"/>
<polygon fill="midnightblue" stroke="midnightblue" points="396.23,-13.5 406.23,-10 396.23,-6.5 396.23,-13.5"/>
</g>
</g>
</svg>
        <g id="navigator" transform="translate(0 0)" fill="#404254">
                <rect fill="#f2f5e9" fill-opacity="0.5" stroke="#606060" stroke-width=".5" x="0" y="0" width="60" height="60"/>
                <use id="zoomplus" xlink:href="#zoomPlus" x="17" y="9" onmousedown="handleZoom(evt,'in')"/>
                <use id="zoomminus" xlink:href="#zoomMin" x="42" y="9" onmousedown="handleZoom(evt,'out')"/>
                <use id="reset" xlink:href="#resetDef" x="30" y="36" onmousedown="handleReset()"/>
                <g id="arrowUp" xlink:href="#dirArrow" transform="translate(30 24)" onmousedown="handlePan(0,-1)">
                  <use xlink:href="#rim" fill="#404040">
                        <set attributeName="fill" to="#808080" begin="arrowUp.mouseover" end="arrowUp.mouseout"/>
                  </use>
                  <path fill="none" stroke="white" stroke-width="1.5" d="M0,-3.0v7 M-2.5,-0.5L0,-3.0L2.5,-0.5"/>
                </g>
                <g id="arrowRight" xlink:href="#dirArrow" transform="rotate(90) translate(36 -43)" onmousedown="handlePan(1,0)">
                  <use xlink:href="#rim" fill="#404040">
                        <set attributeName="fill" to="#808080" begin="arrowRight.mouseover" end="arrowRight.mouseout"/>
                  </use>
                  <path fill="none" stroke="white" stroke-width="1.5" d="M0,-3.0v7 M-2.5,-0.5L0,-3.0L2.5,-0.5"/>
                </g>
                <g id="arrowDown" xlink:href="#dirArrow" transform="rotate(180) translate(-30 -48)" onmousedown="handlePan(0,1)">
                  <use xlink:href="#rim" fill="#404040">
                        <set attributeName="fill" to="#808080" begin="arrowDown.mouseover" end="arrowDown.mouseout"/>
                  </use>
                  <path fill="none" stroke="white" stroke-width="1.5" d="M0,-3.0v7 M-2.5,-0.5L0,-3.0L2.5,-0.5"/>
                </g>
                <g id="arrowLeft" xlink:href="#dirArrow" transform="rotate(270) translate(-36 17)" onmousedown="handlePan(-1,0)">
                  <use xlink:href="#rim" fill="#404040">
                        <set attributeName="fill" to="#808080" begin="arrowLeft.mouseover" end="arrowLeft.mouseout"/>
                  </use>
                  <path fill="none" stroke="white" stroke-width="1.5" d="M0,-3.0v7 M-2.5,-0.5L0,-3.0L2.5,-0.5"/>
                </g>
        </g>
        <svg viewBox="0 0 15 15" width="100%" height="30px" preserveAspectRatio="xMaxYMin meet">
         <g id="arrow_out" transform="scale(0.3 0.3)">
          <a xlink:href="dir_8c_a8dbcb1db32888e71e2702f7173e7cba4_cgraph_org.svg" target="_base">
           <rect id="button" ry="5" rx="5" y="6" x="6" height="38" width="38"
                fill="#f2f5e9" fill-opacity="0.5" stroke="#606060" stroke-width="1.0"/>
           <path id="arrow"
             d="M 11.500037,31.436501 C 11.940474,20.09759 22.043105,11.32322 32.158766,21.979434 L 37.068811,17.246167 C 37.068811,17.246167 37.088388,32 37.088388,32 L 22.160133,31.978069 C 22.160133,31.978069 26.997745,27.140456 26.997745,27.140456 C 18.528582,18.264221 13.291696,25.230495 11.500037,31.436501 z"
             style="fill:#404040;"/>
          </a>
         </g>
        </svg>
</svg>
