<?xml version="1.0" encoding="UTF-8" standalone="no"?>
<!DOCTYPE svg PUBLIC "-//W3C//DTD SVG 1.1//EN"
 "http://www.w3.org/Graphics/SVG/1.1/DTD/svg11.dtd">
<!-- Generated by graphviz version 2.44.1 (20200629.0846)
 -->
<!-- Title: ec_undo1 Pages: 1 -->
<svg width="476pt" height="146pt"
 viewBox="0.00 0.00 476.00 145.74" xmlns="http://www.w3.org/2000/svg" xmlns:xlink="http://www.w3.org/1999/xlink">
<g id="graph0" class="graph" transform="scale(1 1) rotate(0) translate(4 141.74)">
<title>ec_undo1</title>
<polygon fill="white" stroke="transparent" points="-4,4 -4,-141.74 472,-141.74 472,4 -4,4"/>
<!-- Node1 -->
<g id="node1" class="node">
<title>Node1</title>
<g id="a_node1"><a xlink:title=" ">
<polygon fill="#bfbfbf" stroke="black" points="0,-80.24 0,-99.24 59,-99.24 59,-80.24 0,-80.24"/>
<text text-anchor="middle" x="29.5" y="-87.24" font-family="Helvetica,sans-Serif" font-size="10.00">ec_undo1</text>
</a>
</g>
</g>
<!-- Node2 -->
<g id="node2" class="node">
<title>Node2</title>
<g id="a_node2"><a xlink:href="lbuf_8c.html#a312f4a04bfca54ea63c2082e4fe81cba" target="_top" xlink:title=" ">
<polygon fill="white" stroke="black" points="95,-80.24 95,-99.24 154,-99.24 154,-80.24 95,-80.24"/>
<text text-anchor="middle" x="124.5" y="-87.24" font-family="Helvetica,sans-Serif" font-size="10.00">lbuf_undo</text>
</a>
</g>
</g>
<!-- Node1&#45;&gt;Node2 -->
<g id="edge1" class="edge">
<title>Node1&#45;&gt;Node2</title>
<path fill="none" stroke="midnightblue" d="M59.16,-89.74C67.21,-89.74 76.09,-89.74 84.62,-89.74"/>
<polygon fill="midnightblue" stroke="midnightblue" points="84.77,-93.24 94.77,-89.74 84.77,-86.24 84.77,-93.24"/>
</g>
<!-- Node3 -->
<g id="node3" class="node">
<title>Node3</title>
<g id="a_node3"><a xlink:href="lbuf_8c.html#abdc4cc1ce1eb1d8a88b046be72dd2a11" target="_top" xlink:title=" ">
<polygon fill="white" stroke="black" points="190,-118.24 190,-137.24 267,-137.24 267,-118.24 190,-118.24"/>
<text text-anchor="middle" x="228.5" y="-125.24" font-family="Helvetica,sans-Serif" font-size="10.00">lbuf_loadmark</text>
</a>
</g>
</g>
<!-- Node2&#45;&gt;Node3 -->
<g id="edge2" class="edge">
<title>Node2&#45;&gt;Node3</title>
<path fill="none" stroke="midnightblue" d="M151.24,-99.33C163.68,-103.96 178.81,-109.6 192.3,-114.63"/>
<polygon fill="midnightblue" stroke="midnightblue" points="191.18,-117.94 201.77,-118.15 193.62,-111.38 191.18,-117.94"/>
</g>
<!-- Node4 -->
<g id="node4" class="node">
<title>Node4</title>
<g id="a_node4"><a xlink:href="lbuf_8c.html#ab80e32f732eac6af01c013ad5f802561" target="_top" xlink:title=" ">
<polygon fill="white" stroke="black" points="303,-90.24 303,-109.24 374,-109.24 374,-90.24 303,-90.24"/>
<text text-anchor="middle" x="338.5" y="-97.24" font-family="Helvetica,sans-Serif" font-size="10.00">lbuf_loadpos</text>
</a>
</g>
</g>
<!-- Node2&#45;&gt;Node4 -->
<g id="edge3" class="edge">
<title>Node2&#45;&gt;Node4</title>
<path fill="none" stroke="midnightblue" d="M154.09,-91.09C189.62,-92.76 250.66,-95.64 292.49,-97.62"/>
<polygon fill="midnightblue" stroke="midnightblue" points="292.53,-101.12 302.69,-98.1 292.86,-94.13 292.53,-101.12"/>
</g>
<!-- Node6 -->
<g id="node6" class="node">
<title>Node6</title>
<g id="a_node6"><a xlink:href="lbuf_8c.html#a7d6629efef5a5cbd324d82e2b0c07c5d" target="_top" xlink:title=" ">
<polygon fill="white" stroke="black" points="194,-33.24 194,-52.24 263,-52.24 263,-33.24 194,-33.24"/>
<text text-anchor="middle" x="228.5" y="-40.24" font-family="Helvetica,sans-Serif" font-size="10.00">lbuf_replace</text>
</a>
</g>
</g>
<!-- Node2&#45;&gt;Node6 -->
<g id="edge5" class="edge">
<title>Node2&#45;&gt;Node6</title>
<path fill="none" stroke="midnightblue" d="M146.14,-80.23C160.84,-73.46 180.82,-64.25 197.3,-56.65"/>
<polygon fill="midnightblue" stroke="midnightblue" points="198.92,-59.76 206.54,-52.4 195.99,-53.4 198.92,-59.76"/>
</g>
<!-- Node5 -->
<g id="node5" class="node">
<title>Node5</title>
<g id="a_node5"><a xlink:href="lbuf_8c.html#a69221917b521da2cd5f804a9f4694f1a" target="_top" xlink:title=" ">
<polygon fill="white" stroke="black" points="413.5,-61.24 413.5,-80.24 464.5,-80.24 464.5,-61.24 413.5,-61.24"/>
<text text-anchor="middle" x="439" y="-68.24" font-family="Helvetica,sans-Serif" font-size="10.00">markidx</text>
</a>
</g>
</g>
<!-- Node4&#45;&gt;Node5 -->
<g id="edge4" class="edge">
<title>Node4&#45;&gt;Node5</title>
<path fill="none" stroke="midnightblue" d="M372.03,-90.16C382.11,-87.19 393.26,-83.91 403.48,-80.9"/>
<polygon fill="midnightblue" stroke="midnightblue" points="404.71,-84.19 413.31,-78.01 402.73,-77.48 404.71,-84.19"/>
</g>
<!-- Node7 -->
<g id="node7" class="node">
<title>Node7</title>
<g id="a_node7"><a xlink:href="lbuf_8c.html#a5a34f3f60dfd5ea06207d96d821da368" target="_top" xlink:title=" ">
<polygon fill="white" stroke="black" points="309,-52.24 309,-71.24 368,-71.24 368,-52.24 309,-52.24"/>
<text text-anchor="middle" x="338.5" y="-59.24" font-family="Helvetica,sans-Serif" font-size="10.00">lbuf_mark</text>
</a>
</g>
</g>
<!-- Node6&#45;&gt;Node7 -->
<g id="edge6" class="edge">
<title>Node6&#45;&gt;Node7</title>
<path fill="none" stroke="midnightblue" d="M263.08,-48.65C274.38,-50.64 287.08,-52.87 298.75,-54.92"/>
<polygon fill="midnightblue" stroke="midnightblue" points="298.22,-58.38 308.68,-56.67 299.44,-51.49 298.22,-58.38"/>
</g>
<!-- Node8 -->
<g id="node8" class="node">
<title>Node8</title>
<g id="a_node8"><a xlink:href="lbuf_8c.html#ab41193f3312b21588338e92e1b144f87" target="_top" xlink:title=" ">
<polygon fill="white" stroke="black" points="310.5,-14.24 310.5,-33.24 366.5,-33.24 366.5,-14.24 310.5,-14.24"/>
<text text-anchor="middle" x="338.5" y="-21.24" font-family="Helvetica,sans-Serif" font-size="10.00">linecount</text>
</a>
</g>
</g>
<!-- Node6&#45;&gt;Node8 -->
<g id="edge8" class="edge">
<title>Node6&#45;&gt;Node8</title>
<path fill="none" stroke="midnightblue" d="M263.08,-36.83C274.98,-34.74 288.43,-32.37 300.59,-30.23"/>
<polygon fill="midnightblue" stroke="midnightblue" points="301.2,-33.68 310.45,-28.5 299.99,-26.79 301.2,-33.68"/>
</g>
<!-- Node9 -->
<g id="node9" class="node">
<title>Node9</title>
<g id="a_node9"><a xlink:href="lbuf_8c.html#ac559857979b20ce0c64638c9e3e4edec" target="_top" xlink:title=" ">
<polygon fill="white" stroke="black" points="410,-4.24 410,-23.24 468,-23.24 468,-4.24 410,-4.24"/>
<text text-anchor="middle" x="439" y="-11.24" font-family="Helvetica,sans-Serif" font-size="10.00">linelength</text>
</a>
</g>
</g>
<!-- Node6&#45;&gt;Node9 -->
<g id="edge10" class="edge">
<title>Node6&#45;&gt;Node9</title>
<path fill="none" stroke="midnightblue" d="M243.07,-33.18C257.25,-23.83 280.53,-10.21 303,-4.74 335.08,3.06 372.62,-0.42 399.97,-5.14"/>
<polygon fill="midnightblue" stroke="midnightblue" points="399.44,-8.6 409.91,-6.99 400.72,-1.72 399.44,-8.6"/>
</g>
<!-- Node7&#45;&gt;Node5 -->
<g id="edge7" class="edge">
<title>Node7&#45;&gt;Node5</title>
<path fill="none" stroke="midnightblue" d="M368.26,-64.37C379.21,-65.37 391.81,-66.52 403.27,-67.57"/>
<polygon fill="midnightblue" stroke="midnightblue" points="403.1,-71.07 413.38,-68.49 403.74,-64.09 403.1,-71.07"/>
</g>
<!-- Node8&#45;&gt;Node9 -->
<g id="edge9" class="edge">
<title>Node8&#45;&gt;Node9</title>
<path fill="none" stroke="midnightblue" d="M366.68,-20.98C376.86,-19.95 388.63,-18.75 399.64,-17.63"/>
<polygon fill="midnightblue" stroke="midnightblue" points="400.29,-21.09 409.88,-16.59 399.58,-14.12 400.29,-21.09"/>
</g>
</g>
</svg>
