<?xml version="1.0" encoding="UTF-8" standalone="no"?>
<!DOCTYPE svg PUBLIC "-//W3C//DTD SVG 1.1//EN"
 "http://www.w3.org/Graphics/SVG/1.1/DTD/svg11.dtd">
<!-- Generated by graphviz version 2.44.1 (20200629.0846)
 -->
<!-- Title: ex_yank Pages: 1 -->
<svg width="451pt" height="180pt"
 viewBox="0.00 0.00 451.00 180.00" xmlns="http://www.w3.org/2000/svg" xmlns:xlink="http://www.w3.org/1999/xlink">
<g id="graph0" class="graph" transform="scale(1 1) rotate(0) translate(4 176)">
<title>ex_yank</title>
<polygon fill="white" stroke="transparent" points="-4,4 -4,-176 447,-176 447,4 -4,4"/>
<!-- Node1 -->
<g id="node1" class="node">
<title>Node1</title>
<g id="a_node1"><a xlink:title=" ">
<polygon fill="#bfbfbf" stroke="black" points="0,-57.5 0,-76.5 53,-76.5 53,-57.5 0,-57.5"/>
<text text-anchor="middle" x="26.5" y="-64.5" font-family="Helvetica,sans-Serif" font-size="10.00">ex_yank</text>
</a>
</g>
</g>
<!-- Node2 -->
<g id="node2" class="node">
<title>Node2</title>
<g id="a_node2"><a xlink:href="lbuf_8c.html#ad5f7a537d1c72f485481fc22cb8361a6" target="_top" xlink:title=" ">
<polygon fill="white" stroke="black" points="89.5,-95.5 89.5,-114.5 137.5,-114.5 137.5,-95.5 89.5,-95.5"/>
<text text-anchor="middle" x="113.5" y="-102.5" font-family="Helvetica,sans-Serif" font-size="10.00">lbuf_cp</text>
</a>
</g>
</g>
<!-- Node1&#45;&gt;Node2 -->
<g id="edge1" class="edge">
<title>Node1&#45;&gt;Node2</title>
<path fill="none" stroke="midnightblue" d="M48.95,-76.59C58.92,-81.04 70.95,-86.42 81.85,-91.3"/>
<polygon fill="midnightblue" stroke="midnightblue" points="80.5,-94.53 91.06,-95.41 83.36,-88.14 80.5,-94.53"/>
</g>
<!-- Node9 -->
<g id="node9" class="node">
<title>Node9</title>
<g id="a_node9"><a xlink:href="reg_8c.html#a4a1ad2201f6bc8ca5faf958f146883d5" target="_top" xlink:title=" ">
<polygon fill="white" stroke="black" points="89,-38.5 89,-57.5 138,-57.5 138,-38.5 89,-38.5"/>
<text text-anchor="middle" x="113.5" y="-45.5" font-family="Helvetica,sans-Serif" font-size="10.00">reg_put</text>
</a>
</g>
</g>
<!-- Node1&#45;&gt;Node9 -->
<g id="edge9" class="edge">
<title>Node1&#45;&gt;Node9</title>
<path fill="none" stroke="midnightblue" d="M53,-61.3C61.16,-59.48 70.31,-57.43 78.95,-55.5"/>
<polygon fill="midnightblue" stroke="midnightblue" points="79.76,-58.9 88.76,-53.31 78.24,-52.07 79.76,-58.9"/>
</g>
<!-- Node3 -->
<g id="node3" class="node">
<title>Node3</title>
<g id="a_node3"><a xlink:href="sbuf_8c.html#a7bf14d501d36ce36ee269d77cf2c3fc6" target="_top" xlink:title=" ">
<polygon fill="white" stroke="black" points="175.5,-152.5 175.5,-171.5 237.5,-171.5 237.5,-152.5 175.5,-152.5"/>
<text text-anchor="middle" x="206.5" y="-159.5" font-family="Helvetica,sans-Serif" font-size="10.00">sbuf_done</text>
</a>
</g>
</g>
<!-- Node2&#45;&gt;Node3 -->
<g id="edge2" class="edge">
<title>Node2&#45;&gt;Node3</title>
<path fill="none" stroke="midnightblue" d="M129.59,-114.79C141.58,-122.53 158.8,-133.56 174,-143 176.18,-144.36 178.46,-145.75 180.74,-147.15"/>
<polygon fill="midnightblue" stroke="midnightblue" points="179.06,-150.22 189.43,-152.41 182.69,-144.24 179.06,-150.22"/>
</g>
<!-- Node6 -->
<g id="node6" class="node">
<title>Node6</title>
<g id="a_node6"><a xlink:href="sbuf_8c.html#a57748585d6786a2c1aadc2cbe6f2135b" target="_top" xlink:title=" ">
<polygon fill="white" stroke="black" points="174,-114.5 174,-133.5 239,-133.5 239,-114.5 174,-114.5"/>
<text text-anchor="middle" x="206.5" y="-121.5" font-family="Helvetica,sans-Serif" font-size="10.00">sbuf_make</text>
</a>
</g>
</g>
<!-- Node2&#45;&gt;Node6 -->
<g id="edge5" class="edge">
<title>Node2&#45;&gt;Node6</title>
<path fill="none" stroke="midnightblue" d="M137.93,-109.89C145.89,-111.55 155.04,-113.46 163.98,-115.33"/>
<polygon fill="midnightblue" stroke="midnightblue" points="163.41,-118.79 173.91,-117.4 164.84,-111.93 163.41,-118.79"/>
</g>
<!-- Node7 -->
<g id="node7" class="node">
<title>Node7</title>
<g id="a_node7"><a xlink:href="sbuf_8c.html#a603d1d6ab090025f5850f10bfa2dec7a" target="_top" xlink:title=" ">
<polygon fill="white" stroke="black" points="180.5,-76.5 180.5,-95.5 232.5,-95.5 232.5,-76.5 180.5,-76.5"/>
<text text-anchor="middle" x="206.5" y="-83.5" font-family="Helvetica,sans-Serif" font-size="10.00">sbuf_str</text>
</a>
</g>
</g>
<!-- Node2&#45;&gt;Node7 -->
<g id="edge6" class="edge">
<title>Node2&#45;&gt;Node7</title>
<path fill="none" stroke="midnightblue" d="M137.93,-100.11C147.75,-98.06 159.38,-95.63 170.19,-93.37"/>
<polygon fill="midnightblue" stroke="midnightblue" points="171.16,-96.75 180.23,-91.28 169.72,-89.89 171.16,-96.75"/>
</g>
<!-- Node4 -->
<g id="node4" class="node">
<title>Node4</title>
<g id="a_node4"><a xlink:href="sbuf_8c.html#a4e56760893d5a6797626743840c9adf2" target="_top" xlink:title=" ">
<polygon fill="white" stroke="black" points="279,-142.5 279,-161.5 333,-161.5 333,-142.5 279,-142.5"/>
<text text-anchor="middle" x="306" y="-149.5" font-family="Helvetica,sans-Serif" font-size="10.00">sbuf_buf</text>
</a>
</g>
</g>
<!-- Node3&#45;&gt;Node4 -->
<g id="edge3" class="edge">
<title>Node3&#45;&gt;Node4</title>
<path fill="none" stroke="midnightblue" d="M237.55,-158.92C247.45,-157.9 258.57,-156.76 268.88,-155.7"/>
<polygon fill="midnightblue" stroke="midnightblue" points="269.25,-159.19 278.84,-154.68 268.54,-152.22 269.25,-159.19"/>
</g>
<!-- Node5 -->
<g id="node5" class="node">
<title>Node5</title>
<g id="a_node5"><a xlink:href="sbuf_8c.html#a4ad75f3948c0340c342a3ea3eb63a6e6" target="_top" xlink:title=" ">
<polygon fill="white" stroke="black" points="373,-114.5 373,-133.5 443,-133.5 443,-114.5 373,-114.5"/>
<text text-anchor="middle" x="408" y="-121.5" font-family="Helvetica,sans-Serif" font-size="10.00">sbuf_extend</text>
</a>
</g>
</g>
<!-- Node4&#45;&gt;Node5 -->
<g id="edge4" class="edge">
<title>Node4&#45;&gt;Node5</title>
<path fill="none" stroke="midnightblue" d="M333.01,-144.72C342.22,-142.14 352.85,-139.16 363.14,-136.28"/>
<polygon fill="midnightblue" stroke="midnightblue" points="364.14,-139.64 372.83,-133.57 362.25,-132.89 364.14,-139.64"/>
</g>
<!-- Node8 -->
<g id="node8" class="node">
<title>Node8</title>
<g id="a_node8"><a xlink:href="sbuf_8c.html#aa511ac77d6b486accc01c0512ef27ed2" target="_top" xlink:title=" ">
<polygon fill="white" stroke="black" points="275,-95.5 275,-114.5 337,-114.5 337,-95.5 275,-95.5"/>
<text text-anchor="middle" x="306" y="-102.5" font-family="Helvetica,sans-Serif" font-size="10.00">sbuf_mem</text>
</a>
</g>
</g>
<!-- Node7&#45;&gt;Node8 -->
<g id="edge7" class="edge">
<title>Node7&#45;&gt;Node8</title>
<path fill="none" stroke="midnightblue" d="M232.61,-90.89C242.36,-92.79 253.77,-95.02 264.61,-97.13"/>
<polygon fill="midnightblue" stroke="midnightblue" points="264.28,-100.63 274.76,-99.11 265.62,-93.76 264.28,-100.63"/>
</g>
<!-- Node8&#45;&gt;Node5 -->
<g id="edge8" class="edge">
<title>Node8&#45;&gt;Node5</title>
<path fill="none" stroke="midnightblue" d="M337,-110.7C345.11,-112.24 354.05,-113.94 362.76,-115.59"/>
<polygon fill="midnightblue" stroke="midnightblue" points="362.33,-119.08 372.81,-117.5 363.64,-112.2 362.33,-119.08"/>
</g>
<!-- Node10 -->
<g id="node10" class="node">
<title>Node10</title>
<g id="a_node10"><a xlink:href="reg_8c.html#a6eaa41c69e0e22bcbb189eaf4ff0feae" target="_top" xlink:title=" ">
<polygon fill="white" stroke="black" points="182,-38.5 182,-57.5 231,-57.5 231,-38.5 182,-38.5"/>
<text text-anchor="middle" x="206.5" y="-45.5" font-family="Helvetica,sans-Serif" font-size="10.00">reg_get</text>
</a>
</g>
</g>
<!-- Node9&#45;&gt;Node10 -->
<g id="edge10" class="edge">
<title>Node9&#45;&gt;Node10</title>
<path fill="none" stroke="midnightblue" d="M138.41,-48C148.55,-48 160.54,-48 171.57,-48"/>
<polygon fill="midnightblue" stroke="midnightblue" points="171.75,-51.5 181.75,-48 171.75,-44.5 171.75,-51.5"/>
</g>
<!-- Node11 -->
<g id="node11" class="node">
<title>Node11</title>
<g id="a_node11"><a xlink:href="reg_8c.html#a7d863266d9fa9455f0ffa968f51d0ce3" target="_top" xlink:title=" ">
<polygon fill="white" stroke="black" points="174,-0.5 174,-19.5 239,-19.5 239,-0.5 174,-0.5"/>
<text text-anchor="middle" x="206.5" y="-7.5" font-family="Helvetica,sans-Serif" font-size="10.00">reg_putraw</text>
</a>
</g>
</g>
<!-- Node9&#45;&gt;Node11 -->
<g id="edge11" class="edge">
<title>Node9&#45;&gt;Node11</title>
<path fill="none" stroke="midnightblue" d="M137.46,-38.41C148.24,-33.91 161.27,-28.47 173.04,-23.56"/>
<polygon fill="midnightblue" stroke="midnightblue" points="174.67,-26.67 182.54,-19.59 171.97,-20.21 174.67,-26.67"/>
</g>
</g>
</svg>
