<?xml version="1.0" encoding="UTF-8" standalone="no"?>
<!DOCTYPE svg PUBLIC "-//W3C//DTD SVG 1.1//EN"
 "http://www.w3.org/Graphics/SVG/1.1/DTD/svg11.dtd">
<!-- Generated by graphviz version 2.44.1 (20200629.0846)
 -->
<!-- Title: lbuf_redo Pages: 1 -->
<svg width="360pt" height="107pt"
 viewBox="0.00 0.00 360.00 107.39" xmlns="http://www.w3.org/2000/svg" xmlns:xlink="http://www.w3.org/1999/xlink">
<g id="graph0" class="graph" transform="scale(1 1) rotate(0) translate(4 103.39)">
<title>lbuf_redo</title>
<polygon fill="white" stroke="transparent" points="-4,4 -4,-103.39 356,-103.39 356,4 -4,4"/>
<!-- Node1 -->
<g id="node1" class="node">
<title>Node1</title>
<g id="a_node1"><a xlink:title=" ">
<polygon fill="#bfbfbf" stroke="black" points="0,-51.89 0,-70.89 56,-70.89 56,-51.89 0,-51.89"/>
<text text-anchor="middle" x="28" y="-58.89" font-family="Helvetica,sans-Serif" font-size="10.00">lbuf_redo</text>
</a>
</g>
</g>
<!-- Node2 -->
<g id="node2" class="node">
<title>Node2</title>
<g id="a_node2"><a xlink:href="lbuf_8c.html#ab80e32f732eac6af01c013ad5f802561" target="_top" xlink:title=" ">
<polygon fill="white" stroke="black" points="92,-79.89 92,-98.89 163,-98.89 163,-79.89 92,-79.89"/>
<text text-anchor="middle" x="127.5" y="-86.89" font-family="Helvetica,sans-Serif" font-size="10.00">lbuf_loadpos</text>
</a>
</g>
</g>
<!-- Node1&#45;&gt;Node2 -->
<g id="edge1" class="edge">
<title>Node1&#45;&gt;Node2</title>
<path fill="none" stroke="midnightblue" d="M56.16,-69.19C64.6,-71.61 74.12,-74.35 83.37,-77"/>
<polygon fill="midnightblue" stroke="midnightblue" points="82.66,-80.44 93.24,-79.84 84.59,-73.71 82.66,-80.44"/>
</g>
<!-- Node4 -->
<g id="node4" class="node">
<title>Node4</title>
<g id="a_node4"><a xlink:href="lbuf_8c.html#a7d6629efef5a5cbd324d82e2b0c07c5d" target="_top" xlink:title=" ">
<polygon fill="white" stroke="black" points="93,-32.89 93,-51.89 162,-51.89 162,-32.89 93,-32.89"/>
<text text-anchor="middle" x="127.5" y="-39.89" font-family="Helvetica,sans-Serif" font-size="10.00">lbuf_replace</text>
</a>
</g>
</g>
<!-- Node1&#45;&gt;Node4 -->
<g id="edge3" class="edge">
<title>Node1&#45;&gt;Node4</title>
<path fill="none" stroke="midnightblue" d="M56.16,-56.1C64.43,-54.48 73.74,-52.67 82.81,-50.9"/>
<polygon fill="midnightblue" stroke="midnightblue" points="83.74,-54.29 92.88,-48.94 82.4,-47.42 83.74,-54.29"/>
</g>
<!-- Node3 -->
<g id="node3" class="node">
<title>Node3</title>
<g id="a_node3"><a xlink:href="lbuf_8c.html#a69221917b521da2cd5f804a9f4694f1a" target="_top" xlink:title=" ">
<polygon fill="white" stroke="black" points="297.5,-60.89 297.5,-79.89 348.5,-79.89 348.5,-60.89 297.5,-60.89"/>
<text text-anchor="middle" x="323" y="-67.89" font-family="Helvetica,sans-Serif" font-size="10.00">markidx</text>
</a>
</g>
</g>
<!-- Node2&#45;&gt;Node3 -->
<g id="edge2" class="edge">
<title>Node2&#45;&gt;Node3</title>
<path fill="none" stroke="midnightblue" d="M163.2,-87.79C189.32,-86.38 225.97,-84 258,-80.39 267.6,-79.31 277.97,-77.83 287.5,-76.33"/>
<polygon fill="midnightblue" stroke="midnightblue" points="288.13,-79.78 297.45,-74.73 287.02,-72.87 288.13,-79.78"/>
</g>
<!-- Node5 -->
<g id="node5" class="node">
<title>Node5</title>
<g id="a_node5"><a xlink:href="lbuf_8c.html#a5a34f3f60dfd5ea06207d96d821da368" target="_top" xlink:title=" ">
<polygon fill="white" stroke="black" points="199,-51.89 199,-70.89 258,-70.89 258,-51.89 199,-51.89"/>
<text text-anchor="middle" x="228.5" y="-58.89" font-family="Helvetica,sans-Serif" font-size="10.00">lbuf_mark</text>
</a>
</g>
</g>
<!-- Node4&#45;&gt;Node5 -->
<g id="edge4" class="edge">
<title>Node4&#45;&gt;Node5</title>
<path fill="none" stroke="midnightblue" d="M162.02,-48.82C170.65,-50.48 180,-52.27 188.86,-53.97"/>
<polygon fill="midnightblue" stroke="midnightblue" points="188.49,-57.47 198.97,-55.91 189.81,-50.59 188.49,-57.47"/>
</g>
<!-- Node6 -->
<g id="node6" class="node">
<title>Node6</title>
<g id="a_node6"><a xlink:href="lbuf_8c.html#ab41193f3312b21588338e92e1b144f87" target="_top" xlink:title=" ">
<polygon fill="white" stroke="black" points="200.5,-13.89 200.5,-32.89 256.5,-32.89 256.5,-13.89 200.5,-13.89"/>
<text text-anchor="middle" x="228.5" y="-20.89" font-family="Helvetica,sans-Serif" font-size="10.00">linecount</text>
</a>
</g>
</g>
<!-- Node4&#45;&gt;Node6 -->
<g id="edge6" class="edge">
<title>Node4&#45;&gt;Node6</title>
<path fill="none" stroke="midnightblue" d="M162.02,-35.96C171.06,-34.22 180.91,-32.33 190.15,-30.56"/>
<polygon fill="midnightblue" stroke="midnightblue" points="191.1,-33.94 200.26,-28.62 189.78,-27.06 191.1,-33.94"/>
</g>
<!-- Node7 -->
<g id="node7" class="node">
<title>Node7</title>
<g id="a_node7"><a xlink:href="lbuf_8c.html#ac559857979b20ce0c64638c9e3e4edec" target="_top" xlink:title=" ">
<polygon fill="white" stroke="black" points="294,-3.89 294,-22.89 352,-22.89 352,-3.89 294,-3.89"/>
<text text-anchor="middle" x="323" y="-10.89" font-family="Helvetica,sans-Serif" font-size="10.00">linelength</text>
</a>
</g>
</g>
<!-- Node4&#45;&gt;Node7 -->
<g id="edge8" class="edge">
<title>Node4&#45;&gt;Node7</title>
<path fill="none" stroke="midnightblue" d="M141.71,-32.66C155.28,-23.32 177.43,-9.83 199,-4.39 226.79,2.62 259.15,-0.16 283.71,-4.41"/>
<polygon fill="midnightblue" stroke="midnightblue" points="283.24,-7.88 293.71,-6.3 284.54,-1.01 283.24,-7.88"/>
</g>
<!-- Node5&#45;&gt;Node3 -->
<g id="edge5" class="edge">
<title>Node5&#45;&gt;Node3</title>
<path fill="none" stroke="midnightblue" d="M258.01,-64.16C267.29,-65.07 277.69,-66.08 287.36,-67.02"/>
<polygon fill="midnightblue" stroke="midnightblue" points="287.2,-70.52 297.49,-68 287.88,-63.55 287.2,-70.52"/>
</g>
<!-- Node6&#45;&gt;Node7 -->
<g id="edge7" class="edge">
<title>Node6&#45;&gt;Node7</title>
<path fill="none" stroke="midnightblue" d="M256.75,-20.44C265.27,-19.52 274.83,-18.49 283.95,-17.5"/>
<polygon fill="midnightblue" stroke="midnightblue" points="284.41,-20.97 293.98,-16.42 283.66,-14.01 284.41,-20.97"/>
</g>
</g>
</svg>
