<?xml version="1.0" encoding="UTF-8" standalone="no"?>
<!DOCTYPE svg PUBLIC "-//W3C//DTD SVG 1.1//EN"
 "http://www.w3.org/Graphics/SVG/1.1/DTD/svg11.dtd">
<!-- Generated by graphviz version 2.44.1 (20200629.0846)
 -->
<!-- Title: lbuf_len Pages: 1 -->
<svg width="1241pt" height="930pt"
 viewBox="0.00 0.00 1241.00 930.24" xmlns="http://www.w3.org/2000/svg" xmlns:xlink="http://www.w3.org/1999/xlink">
<g id="graph0" class="graph" transform="scale(1 1) rotate(0) translate(4 926.24)">
<title>lbuf_len</title>
<polygon fill="white" stroke="transparent" points="-4,4 -4,-926.24 1237,-926.24 1237,4 -4,4"/>
<!-- Node1 -->
<g id="node1" class="node">
<title>Node1</title>
<g id="a_node1"><a xlink:title=" ">
<polygon fill="#bfbfbf" stroke="black" points="1183,-494.5 1183,-513.5 1233,-513.5 1233,-494.5 1183,-494.5"/>
<text text-anchor="middle" x="1208" y="-501.5" font-family="Helvetica,sans-Serif" font-size="10.00">lbuf_len</text>
</a>
</g>
</g>
<!-- Node2 -->
<g id="node2" class="node">
<title>Node2</title>
<g id="a_node2"><a xlink:href="ex_8c.html#a4cd0748447515b7a935e4bb41424a9e4" target="_top" xlink:title=" ">
<polygon fill="white" stroke="black" points="717,-874.5 717,-893.5 776,-893.5 776,-874.5 717,-874.5"/>
<text text-anchor="middle" x="746.5" y="-881.5" font-family="Helvetica,sans-Serif" font-size="10.00">ec_delete</text>
</a>
</g>
</g>
<!-- Node1&#45;&gt;Node2 -->
<g id="edge1" class="edge">
<title>Node1&#45;&gt;Node2</title>
<path fill="none" stroke="midnightblue" d="M1206.07,-523.91C1202.69,-588.16 1188.9,-788.58 1147,-835 1097.72,-889.59 859.37,-887.54 776.2,-885.08"/>
<polygon fill="midnightblue" stroke="midnightblue" points="1209.59,-523.72 1206.59,-513.56 1202.6,-523.37 1209.59,-523.72"/>
</g>
<!-- Node3 -->
<g id="node3" class="node">
<title>Node3</title>
<g id="a_node3"><a xlink:href="ex_8c.html#a8059390ad69866fa8e14bdb2521d4dc2" target="_top" xlink:title=" ">
<polygon fill="white" stroke="black" points="491,-798.5 491,-817.5 539,-817.5 539,-798.5 491,-798.5"/>
<text text-anchor="middle" x="515" y="-805.5" font-family="Helvetica,sans-Serif" font-size="10.00">ec_edit</text>
</a>
</g>
</g>
<!-- Node1&#45;&gt;Node3 -->
<g id="edge2" class="edge">
<title>Node1&#45;&gt;Node3</title>
<path fill="none" stroke="midnightblue" d="M1206.34,-523.92C1203.68,-591.93 1191.67,-813.67 1147,-866 1095.9,-925.86 1057.71,-922 979,-922 979,-922 979,-922 745.5,-922 652.07,-922 557.49,-845.29 526.52,-817.72"/>
<polygon fill="midnightblue" stroke="midnightblue" points="1209.84,-523.84 1206.71,-513.72 1202.84,-523.58 1209.84,-523.84"/>
</g>
<!-- Node6 -->
<g id="node6" class="node">
<title>Node6</title>
<g id="a_node6"><a xlink:href="ex_8c.html#a70c571bdde329a65e216c19b4aeaa628" target="_top" xlink:title=" ">
<polygon fill="white" stroke="black" points="601,-574.5 601,-593.5 651,-593.5 651,-574.5 601,-574.5"/>
<text text-anchor="middle" x="626" y="-581.5" font-family="Helvetica,sans-Serif" font-size="10.00">ec_glob</text>
</a>
</g>
</g>
<!-- Node1&#45;&gt;Node6 -->
<g id="edge5" class="edge">
<title>Node1&#45;&gt;Node6</title>
<path fill="none" stroke="midnightblue" d="M1187.91,-520.05C1176.75,-528.36 1161.95,-537.66 1147,-542 1110.72,-552.52 1099.33,-547.8 1062,-542 950.47,-524.68 924.57,-507.48 820,-465 803.43,-458.27 801.41,-451.11 784,-447 751.56,-439.34 738,-430.56 709,-447 658.84,-475.43 636.06,-548.1 629.28,-574.36"/>
<polygon fill="midnightblue" stroke="midnightblue" points="1190.29,-522.63 1196.01,-513.71 1185.98,-517.11 1190.29,-522.63"/>
</g>
<!-- Node11 -->
<g id="node11" class="node">
<title>Node11</title>
<g id="a_node11"><a xlink:href="vi_8c.html#a8d808e0f3453afe6600673ee1ea5f828" target="_top" xlink:title=" ">
<polygon fill="white" stroke="black" points="82,-152.5 82,-171.5 111,-171.5 111,-152.5 82,-152.5"/>
<text text-anchor="middle" x="96.5" y="-159.5" font-family="Helvetica,sans-Serif" font-size="10.00">vi</text>
</a>
</g>
</g>
<!-- Node1&#45;&gt;Node11 -->
<g id="edge75" class="edge">
<title>Node1&#45;&gt;Node11</title>
<path fill="none" stroke="midnightblue" d="M1206.91,-484.1C1206.16,-412.02 1199.71,-166.09 1147,-113 1093.72,-59.34 1054.62,-86 979,-86 979,-86 979,-86 294.5,-86 231.93,-86 211.12,-77.32 155,-105 132.56,-116.07 113.53,-139.3 104.01,-152.43"/>
<polygon fill="midnightblue" stroke="midnightblue" points="1203.41,-484.48 1206.99,-494.45 1210.41,-484.43 1203.41,-484.48"/>
</g>
<!-- Node12 -->
<g id="node12" class="node">
<title>Node12</title>
<g id="a_node12"><a xlink:href="ex_8c.html#a0908784dc65be2da119a6b72ef96dec2" target="_top" xlink:title=" ">
<polygon fill="white" stroke="black" points="718.5,-836.5 718.5,-855.5 774.5,-855.5 774.5,-836.5 718.5,-836.5"/>
<text text-anchor="middle" x="746.5" y="-843.5" font-family="Helvetica,sans-Serif" font-size="10.00">ec_insert</text>
</a>
</g>
</g>
<!-- Node1&#45;&gt;Node12 -->
<g id="edge15" class="edge">
<title>Node1&#45;&gt;Node12</title>
<path fill="none" stroke="midnightblue" d="M1205.69,-523.97C1201.39,-583.39 1185.66,-757.3 1147,-796 1044.74,-898.37 846.65,-867.88 774.57,-852.46"/>
<polygon fill="midnightblue" stroke="midnightblue" points="1209.2,-523.91 1206.4,-513.69 1202.22,-523.42 1209.2,-523.91"/>
</g>
<!-- Node13 -->
<g id="node13" class="node">
<title>Node13</title>
<g id="a_node13"><a xlink:href="ex_8c.html#ad2c1a9505aa3097bac242b47a367f11d" target="_top" xlink:title=" ">
<polygon fill="white" stroke="black" points="721,-380.5 721,-399.5 772,-399.5 772,-380.5 721,-380.5"/>
<text text-anchor="middle" x="746.5" y="-387.5" font-family="Helvetica,sans-Serif" font-size="10.00">ec_print</text>
</a>
</g>
</g>
<!-- Node1&#45;&gt;Node13 -->
<g id="edge16" class="edge">
<title>Node1&#45;&gt;Node13</title>
<path fill="none" stroke="midnightblue" d="M1172.88,-504.42C1102.95,-503.97 939.84,-496.07 820,-437 816.97,-435.51 782.36,-412.88 762.07,-399.57"/>
<polygon fill="midnightblue" stroke="midnightblue" points="1172.89,-507.92 1182.9,-504.44 1172.9,-500.92 1172.89,-507.92"/>
</g>
<!-- Node15 -->
<g id="node15" class="node">
<title>Node15</title>
<g id="a_node15"><a xlink:href="ex_8c.html#ab417867ff867aff9f7277229990cd1b8" target="_top" xlink:title=" ">
<polygon fill="white" stroke="black" points="723.5,-798.5 723.5,-817.5 769.5,-817.5 769.5,-798.5 723.5,-798.5"/>
<text text-anchor="middle" x="746.5" y="-805.5" font-family="Helvetica,sans-Serif" font-size="10.00">ec_put</text>
</a>
</g>
</g>
<!-- Node1&#45;&gt;Node15 -->
<g id="edge18" class="edge">
<title>Node1&#45;&gt;Node15</title>
<path fill="none" stroke="midnightblue" d="M1205.27,-523.83C1200.05,-579.15 1182.52,-733.29 1147,-767 1092.38,-818.83 845.52,-812.39 769.71,-809.11"/>
<polygon fill="midnightblue" stroke="midnightblue" points="1208.78,-523.88 1206.21,-513.61 1201.81,-523.25 1208.78,-523.88"/>
</g>
<!-- Node16 -->
<g id="node16" class="node">
<title>Node16</title>
<g id="a_node16"><a xlink:href="ex_8c.html#add0e79e1f1e3d45f4eaa6fbe5c1ca443" target="_top" xlink:title=" ">
<polygon fill="white" stroke="black" points="721,-760.5 721,-779.5 772,-779.5 772,-760.5 721,-760.5"/>
<text text-anchor="middle" x="746.5" y="-767.5" font-family="Helvetica,sans-Serif" font-size="10.00">ec_read</text>
</a>
</g>
</g>
<!-- Node1&#45;&gt;Node16 -->
<g id="edge19" class="edge">
<title>Node1&#45;&gt;Node16</title>
<path fill="none" stroke="midnightblue" d="M1204.76,-523.79C1198.55,-575.02 1179.37,-710.02 1147,-739 1091.61,-788.59 850.2,-776.98 772.03,-771.8"/>
<polygon fill="midnightblue" stroke="midnightblue" points="1208.26,-524.03 1205.95,-513.68 1201.31,-523.21 1208.26,-524.03"/>
</g>
<!-- Node17 -->
<g id="node17" class="node">
<title>Node17</title>
<g id="a_node17"><a xlink:href="ex_8c.html#a057b67e2d4f23df3ad50a9d3ec86125b" target="_top" xlink:title=" ">
<polygon fill="white" stroke="black" points="720,-722.5 720,-741.5 773,-741.5 773,-722.5 720,-722.5"/>
<text text-anchor="middle" x="746.5" y="-729.5" font-family="Helvetica,sans-Serif" font-size="10.00">ec_write</text>
</a>
</g>
</g>
<!-- Node1&#45;&gt;Node17 -->
<g id="edge20" class="edge">
<title>Node1&#45;&gt;Node17</title>
<path fill="none" stroke="midnightblue" d="M1204.28,-523.64C1197.3,-570.96 1177.15,-689.15 1147,-713 1089.14,-758.78 852.07,-741.65 773.17,-734.51"/>
<polygon fill="midnightblue" stroke="midnightblue" points="1207.75,-524.1 1205.71,-513.71 1200.82,-523.11 1207.75,-524.1"/>
</g>
<!-- Node22 -->
<g id="node22" class="node">
<title>Node22</title>
<g id="a_node22"><a xlink:href="ex_8c.html#a487b22f0ae712d3338f5e9d8d6fa8540" target="_top" xlink:title=" ">
<polygon fill="white" stroke="black" points="720,-456.5 720,-475.5 773,-475.5 773,-456.5 720,-456.5"/>
<text text-anchor="middle" x="746.5" y="-463.5" font-family="Helvetica,sans-Serif" font-size="10.00">ec_yank</text>
</a>
</g>
</g>
<!-- Node1&#45;&gt;Node22 -->
<g id="edge28" class="edge">
<title>Node1&#45;&gt;Node22</title>
<path fill="none" stroke="midnightblue" d="M1172.86,-513.97C1103.54,-532.37 942.48,-565.64 820,-518 799.77,-510.13 801.78,-497.45 784,-485 779.08,-481.56 773.47,-478.33 768.13,-475.54"/>
<polygon fill="midnightblue" stroke="midnightblue" points="1174.06,-517.27 1182.79,-511.27 1172.23,-510.52 1174.06,-517.27"/>
</g>
<!-- Node23 -->
<g id="node23" class="node">
<title>Node23</title>
<g id="a_node23"><a xlink:href="ex_8c.html#a18295939fcd9d9ef517157b0f4ff5f97" target="_top" xlink:title=" ">
<polygon fill="white" stroke="black" points="949,-646.5 949,-665.5 1007,-665.5 1007,-646.5 949,-646.5"/>
<text text-anchor="middle" x="978" y="-653.5" font-family="Helvetica,sans-Serif" font-size="10.00">ex_lineno</text>
</a>
</g>
</g>
<!-- Node1&#45;&gt;Node23 -->
<g id="edge29" class="edge">
<title>Node1&#45;&gt;Node23</title>
<path fill="none" stroke="midnightblue" d="M1203.76,-523.73C1197.91,-552.54 1182.7,-605.58 1147,-632 1105.91,-662.41 1043.35,-662.62 1007.3,-659.6"/>
<polygon fill="midnightblue" stroke="midnightblue" points="1207.25,-524.12 1205.62,-513.65 1200.36,-522.85 1207.25,-524.12"/>
</g>
<!-- Node24 -->
<g id="node24" class="node">
<title>Node24</title>
<g id="a_node24"><a xlink:href="ex_8c.html#a0389d594366ccbd24d732bdfd870f763" target="_top" xlink:title=" ">
<polygon fill="white" stroke="black" points="827.5,-646.5 827.5,-665.5 886.5,-665.5 886.5,-646.5 827.5,-646.5"/>
<text text-anchor="middle" x="857" y="-653.5" font-family="Helvetica,sans-Serif" font-size="10.00">ex_region</text>
</a>
</g>
</g>
<!-- Node1&#45;&gt;Node24 -->
<g id="edge44" class="edge">
<title>Node1&#45;&gt;Node24</title>
<path fill="none" stroke="midnightblue" d="M1199.57,-523.14C1190.44,-543.99 1172.91,-576.68 1147,-594 1065.26,-648.64 1025.8,-614.89 930,-637 915.64,-640.31 899.79,-644.44 886.63,-648.01"/>
<polygon fill="midnightblue" stroke="midnightblue" points="1202.88,-524.3 1203.48,-513.72 1196.41,-521.61 1202.88,-524.3"/>
</g>
<!-- Node28 -->
<g id="node28" class="node">
<title>Node28</title>
<g id="a_node28"><a xlink:href="ex_8c.html#af441de070082a23574854f6a2e5cd08a" target="_top" xlink:title=" ">
<polygon fill="white" stroke="black" points="1073.5,-684.5 1073.5,-703.5 1135.5,-703.5 1135.5,-684.5 1073.5,-684.5"/>
<text text-anchor="middle" x="1104.5" y="-691.5" font-family="Helvetica,sans-Serif" font-size="10.00">ex_search</text>
</a>
</g>
</g>
<!-- Node1&#45;&gt;Node28 -->
<g id="edge45" class="edge">
<title>Node1&#45;&gt;Node28</title>
<path fill="none" stroke="midnightblue" d="M1204.35,-523.68C1198.96,-557.17 1183.92,-625.87 1147,-670 1142.09,-675.87 1135.35,-680.62 1128.72,-684.3"/>
<polygon fill="midnightblue" stroke="midnightblue" points="1207.82,-524.17 1205.83,-513.76 1200.9,-523.14 1207.82,-524.17"/>
</g>
<!-- Node29 -->
<g id="node29" class="node">
<title>Node29</title>
<g id="a_node29"><a xlink:href="mot_8c.html#a62880e253fa1e427ff400dfbc1cbd2cc" target="_top" xlink:title=" ">
<polygon fill="white" stroke="black" points="1076.5,-380.5 1076.5,-399.5 1132.5,-399.5 1132.5,-380.5 1076.5,-380.5"/>
<text text-anchor="middle" x="1104.5" y="-387.5" font-family="Helvetica,sans-Serif" font-size="10.00">lbuf_next</text>
</a>
</g>
</g>
<!-- Node1&#45;&gt;Node29 -->
<g id="edge47" class="edge">
<title>Node1&#45;&gt;Node29</title>
<path fill="none" stroke="midnightblue" d="M1191.45,-486.54C1169.79,-462.21 1131.27,-418.94 1114.13,-399.69"/>
<polygon fill="midnightblue" stroke="midnightblue" points="1189.08,-489.14 1198.35,-494.28 1194.31,-484.48 1189.08,-489.14"/>
</g>
<!-- Node36 -->
<g id="node36" class="node">
<title>Node36</title>
<g id="a_node36"><a xlink:href="vi_8h.html#a5decde386baa1ed1706c8a890d7d5a00" target="_top" xlink:title=" ">
<polygon fill="white" stroke="black" points="930,-266.5 930,-285.5 1026,-285.5 1026,-266.5 930,-266.5"/>
<text text-anchor="middle" x="978" y="-273.5" font-family="Helvetica,sans-Serif" font-size="10.00">lbuf_paragraphbeg</text>
</a>
</g>
</g>
<!-- Node1&#45;&gt;Node36 -->
<g id="edge60" class="edge">
<title>Node1&#45;&gt;Node36</title>
<path fill="none" stroke="midnightblue" d="M1202.42,-484.74C1194.94,-456.8 1177.76,-404.69 1147,-371 1107.46,-327.7 1043.47,-299.2 1006.94,-285.51"/>
<polygon fill="midnightblue" stroke="midnightblue" points="1199.04,-485.66 1204.89,-494.49 1205.82,-483.94 1199.04,-485.66"/>
</g>
<!-- Node37 -->
<g id="node37" class="node">
<title>Node37</title>
<g id="a_node37"><a xlink:href="vi_8h.html#a3501f6f6f283556b872bd145c6129d37" target="_top" xlink:title=" ">
<polygon fill="white" stroke="black" points="1071,-280.5 1071,-299.5 1138,-299.5 1138,-280.5 1071,-280.5"/>
<text text-anchor="middle" x="1104.5" y="-287.5" font-family="Helvetica,sans-Serif" font-size="10.00">lbuf_search</text>
</a>
</g>
</g>
<!-- Node1&#45;&gt;Node37 -->
<g id="edge62" class="edge">
<title>Node1&#45;&gt;Node37</title>
<path fill="none" stroke="midnightblue" d="M1203,-484.32C1195.65,-451.21 1177.87,-383.07 1147,-333 1138.94,-319.93 1126.33,-307.6 1117.12,-299.52"/>
<polygon fill="midnightblue" stroke="midnightblue" points="1199.66,-485.43 1205.17,-494.48 1206.5,-483.97 1199.66,-485.43"/>
</g>
<!-- Node38 -->
<g id="node38" class="node">
<title>Node38</title>
<g id="a_node38"><a xlink:href="vi_8c.html#a631f59a25254f28f308f7de4897e09fa" target="_top" xlink:title=" ">
<polygon fill="white" stroke="black" points="955,-228.5 955,-247.5 1001,-247.5 1001,-228.5 955,-228.5"/>
<text text-anchor="middle" x="978" y="-235.5" font-family="Helvetica,sans-Serif" font-size="10.00">search</text>
</a>
</g>
</g>
<!-- Node1&#45;&gt;Node38 -->
<g id="edge68" class="edge">
<title>Node1&#45;&gt;Node38</title>
<path fill="none" stroke="midnightblue" d="M1204.65,-484.47C1198.15,-433.91 1178.35,-300.58 1147,-271 1106.9,-233.16 1036.7,-232.83 1001.08,-235.52"/>
<polygon fill="midnightblue" stroke="midnightblue" points="1201.18,-484.96 1205.89,-494.45 1208.12,-484.09 1201.18,-484.96"/>
</g>
<!-- Node40 -->
<g id="node40" class="node">
<title>Node40</title>
<g id="a_node40"><a xlink:href="vi_8h.html#a805b2e17b67386827b996db532d4133e" target="_top" xlink:title=" ">
<polygon fill="white" stroke="black" points="1062,-456.5 1062,-475.5 1147,-475.5 1147,-456.5 1062,-456.5"/>
<text text-anchor="middle" x="1104.5" y="-463.5" font-family="Helvetica,sans-Serif" font-size="10.00">lbuf_sectionbeg</text>
</a>
</g>
</g>
<!-- Node1&#45;&gt;Node40 -->
<g id="edge66" class="edge">
<title>Node1&#45;&gt;Node40</title>
<path fill="none" stroke="midnightblue" d="M1173.34,-491.4C1159.59,-486.25 1143.95,-480.4 1131.16,-475.61"/>
<polygon fill="midnightblue" stroke="midnightblue" points="1172.35,-494.77 1182.95,-494.99 1174.81,-488.21 1172.35,-494.77"/>
</g>
<!-- Node41 -->
<g id="node41" class="node">
<title>Node41</title>
<g id="a_node41"><a xlink:href="vi_8c.html#a8bb357a77ed61da8858f138c6fa672a6" target="_top" xlink:title=" ">
<polygon fill="white" stroke="black" points="378,-152.5 378,-171.5 434,-171.5 434,-152.5 378,-152.5"/>
<text text-anchor="middle" x="406" y="-159.5" font-family="Helvetica,sans-Serif" font-size="10.00">vc_insert</text>
</a>
</g>
</g>
<!-- Node1&#45;&gt;Node41 -->
<g id="edge69" class="edge">
<title>Node1&#45;&gt;Node41</title>
<path fill="none" stroke="midnightblue" d="M1206.16,-484.29C1203.07,-421.6 1190.14,-228.48 1147,-187 1092.58,-134.68 1054.49,-162 979,-162 979,-162 979,-162 625,-162 556.31,-162 475.44,-162 434.19,-162"/>
<polygon fill="midnightblue" stroke="midnightblue" points="1202.67,-484.59 1206.63,-494.41 1209.66,-484.26 1202.67,-484.59"/>
</g>
<!-- Node42 -->
<g id="node42" class="node">
<title>Node42</title>
<g id="a_node42"><a xlink:href="vi_8c.html#a7611a5bcfe4c4ddc58233c4c52a8fa16" target="_top" xlink:title=" ">
<polygon fill="white" stroke="black" points="169.5,-114.5 169.5,-133.5 215.5,-133.5 215.5,-114.5 169.5,-114.5"/>
<text text-anchor="middle" x="192.5" y="-121.5" font-family="Helvetica,sans-Serif" font-size="10.00">vc_put</text>
</a>
</g>
</g>
<!-- Node1&#45;&gt;Node42 -->
<g id="edge71" class="edge">
<title>Node1&#45;&gt;Node42</title>
<path fill="none" stroke="midnightblue" d="M1206.57,-484.24C1204.7,-416.79 1194.94,-197.26 1147,-150 1093.19,-96.96 1054.56,-124 979,-124 979,-124 979,-124 405,-124 335.97,-124 254.26,-124 215.73,-124"/>
<polygon fill="midnightblue" stroke="midnightblue" points="1203.08,-484.44 1206.83,-494.35 1210.08,-484.27 1203.08,-484.44"/>
</g>
<!-- Node43 -->
<g id="node43" class="node">
<title>Node43</title>
<g id="a_node43"><a xlink:href="vi_8c.html#ab7d24df5f19f55dae6f719cd5bcfbe6f" target="_top" xlink:title=" ">
<polygon fill="white" stroke="black" points="266,-38.5 266,-57.5 325,-57.5 325,-38.5 266,-38.5"/>
<text text-anchor="middle" x="295.5" y="-45.5" font-family="Helvetica,sans-Serif" font-size="10.00">vc_status</text>
</a>
</g>
</g>
<!-- Node1&#45;&gt;Node43 -->
<g id="edge73" class="edge">
<title>Node1&#45;&gt;Node43</title>
<path fill="none" stroke="midnightblue" d="M1207.26,-483.98C1207.84,-406.94 1205.71,-130.94 1147,-72 1093.77,-18.56 1054.42,-48 979,-48 979,-48 979,-48 514,-48 446.22,-48 366.56,-48 325,-48"/>
<polygon fill="midnightblue" stroke="midnightblue" points="1203.76,-484.18 1207.16,-494.22 1210.76,-484.25 1203.76,-484.18"/>
</g>
<!-- Node44 -->
<g id="node44" class="node">
<title>Node44</title>
<g id="a_node44"><a xlink:href="vi_8c.html#acf58ed4f9b3a9a6e3d56f397eeb04aee" target="_top" xlink:title=" ">
<polygon fill="white" stroke="black" points="824,-190.5 824,-209.5 890,-209.5 890,-190.5 824,-190.5"/>
<text text-anchor="middle" x="857" y="-197.5" font-family="Helvetica,sans-Serif" font-size="10.00">vi_motionln</text>
</a>
</g>
</g>
<!-- Node1&#45;&gt;Node44 -->
<g id="edge76" class="edge">
<title>Node1&#45;&gt;Node44</title>
<path fill="none" stroke="midnightblue" d="M1205.54,-484.12C1200.95,-427.27 1184.77,-265.94 1147,-232 1075.09,-167.39 949.05,-181.54 890.1,-192.77"/>
<polygon fill="midnightblue" stroke="midnightblue" points="1202.07,-484.61 1206.33,-494.31 1209.05,-484.07 1202.07,-484.61"/>
</g>
<!-- Node45 -->
<g id="node45" class="node">
<title>Node45</title>
<g id="a_node45"><a xlink:href="vi_8c.html#aa653396e9bd74cdf6e07b34ef2422da7" target="_top" xlink:title=" ">
<polygon fill="white" stroke="black" points="361,-0.5 361,-19.5 451,-19.5 451,-0.5 361,-0.5"/>
<text text-anchor="middle" x="406" y="-7.5" font-family="Helvetica,sans-Serif" font-size="10.00">vi_scrollforeward</text>
</a>
</g>
</g>
<!-- Node1&#45;&gt;Node45 -->
<g id="edge79" class="edge">
<title>Node1&#45;&gt;Node45</title>
<path fill="none" stroke="midnightblue" d="M1205.85,-483.94C1200.78,-398.35 1179.15,-66.63 1147,-34 1094.07,19.73 1054.42,-10 979,-10 979,-10 979,-10 625,-10 564.82,-10 495.3,-10 451.26,-10"/>
<polygon fill="midnightblue" stroke="midnightblue" points="1202.37,-484.35 1206.45,-494.13 1209.36,-483.94 1202.37,-484.35"/>
</g>
<!-- Node4 -->
<g id="node4" class="node">
<title>Node4</title>
<g id="a_node4"><a xlink:href="vi_8h.html#abe53b5c10f94f20cd5ed024371615fa1" target="_top" xlink:title=" ">
<polygon fill="white" stroke="black" points="74,-351.5 74,-370.5 119,-370.5 119,-351.5 74,-351.5"/>
<text text-anchor="middle" x="96.5" y="-358.5" font-family="Helvetica,sans-Serif" font-size="10.00">ex_init</text>
</a>
</g>
</g>
<!-- Node3&#45;&gt;Node4 -->
<g id="edge3" class="edge">
<title>Node3&#45;&gt;Node4</title>
<path fill="none" stroke="midnightblue" d="M491.28,-792.35C489.82,-791.24 488.38,-790.12 487,-789 382.87,-704.7 355.84,-683.38 266,-584 196.36,-506.97 125.4,-402.89 104,-370.82"/>
<polygon fill="midnightblue" stroke="midnightblue" points="489.58,-795.44 499.72,-798.49 493.69,-789.78 489.58,-795.44"/>
</g>
<!-- Node5 -->
<g id="node5" class="node">
<title>Node5</title>
<g id="a_node5"><a xlink:href="vi_8c.html#a0ddf1224851353fc92bfbff6f499fa97" target="_top" xlink:title=" ">
<polygon fill="white" stroke="black" points="0,-313.5 0,-332.5 38,-332.5 38,-313.5 0,-313.5"/>
<text text-anchor="middle" x="19" y="-320.5" font-family="Helvetica,sans-Serif" font-size="10.00">main</text>
</a>
</g>
</g>
<!-- Node4&#45;&gt;Node5 -->
<g id="edge4" class="edge">
<title>Node4&#45;&gt;Node5</title>
<path fill="none" stroke="midnightblue" d="M67.4,-346.86C57.57,-341.91 46.79,-336.49 38.01,-332.06"/>
<polygon fill="midnightblue" stroke="midnightblue" points="65.94,-350.04 76.45,-351.41 69.09,-343.79 65.94,-350.04"/>
</g>
<!-- Node7 -->
<g id="node7" class="node">
<title>Node7</title>
<g id="a_node7"><a xlink:href="ex_8c.html#a7d848d20211b2e1c868dde98ec5dfae9" target="_top" xlink:title=" ">
<polygon fill="white" stroke="black" points="382.5,-593.5 382.5,-612.5 429.5,-612.5 429.5,-593.5 382.5,-593.5"/>
<text text-anchor="middle" x="406" y="-600.5" font-family="Helvetica,sans-Serif" font-size="10.00">ex_line</text>
</a>
</g>
</g>
<!-- Node6&#45;&gt;Node7 -->
<g id="edge6" class="edge">
<title>Node6&#45;&gt;Node7</title>
<path fill="none" stroke="midnightblue" d="M590.68,-586.99C545.66,-590.92 467.91,-597.69 429.63,-601.03"/>
<polygon fill="midnightblue" stroke="midnightblue" points="591.18,-590.46 600.84,-586.11 590.57,-583.49 591.18,-590.46"/>
</g>
<!-- Node8 -->
<g id="node8" class="node">
<title>Node8</title>
<g id="a_node8"><a xlink:href="ex_8c.html#ab15ebfef933256d9741128e2ddf3f9b5" target="_top" xlink:title=" ">
<polygon fill="white" stroke="black" points="269,-555.5 269,-574.5 322,-574.5 322,-555.5 269,-555.5"/>
<text text-anchor="middle" x="295.5" y="-562.5" font-family="Helvetica,sans-Serif" font-size="10.00">ex_exec</text>
</a>
</g>
</g>
<!-- Node7&#45;&gt;Node8 -->
<g id="edge7" class="edge">
<title>Node7&#45;&gt;Node8</title>
<path fill="none" stroke="midnightblue" d="M372.69,-591.68C356.58,-586.04 337.36,-579.31 322.26,-574.02"/>
<polygon fill="midnightblue" stroke="midnightblue" points="371.66,-595.03 382.25,-595.03 373.97,-588.43 371.66,-595.03"/>
</g>
<!-- Node8&#45;&gt;Node6 -->
<g id="edge8" class="edge">
<title>Node8&#45;&gt;Node6</title>
<path fill="none" stroke="midnightblue" d="M332.16,-567.06C399.47,-570.96 543.6,-579.29 600.84,-582.6"/>
<polygon fill="midnightblue" stroke="midnightblue" points="332.23,-563.56 322.04,-566.48 331.82,-570.55 332.23,-563.56"/>
</g>
<!-- Node9 -->
<g id="node9" class="node">
<title>Node9</title>
<g id="a_node9"><a xlink:href="vi_8h.html#aa75c73cccb4878ec06ea5bf5b1b02295" target="_top" xlink:title=" ">
<polygon fill="white" stroke="black" points="155,-332.5 155,-351.5 230,-351.5 230,-332.5 155,-332.5"/>
<text text-anchor="middle" x="192.5" y="-339.5" font-family="Helvetica,sans-Serif" font-size="10.00">ex_command</text>
</a>
</g>
</g>
<!-- Node8&#45;&gt;Node9 -->
<g id="edge9" class="edge">
<title>Node8&#45;&gt;Node9</title>
<path fill="none" stroke="midnightblue" d="M285.93,-546.08C265.25,-500.42 213.18,-385.44 197.82,-351.55"/>
<polygon fill="midnightblue" stroke="midnightblue" points="282.85,-547.75 290.16,-555.42 289.22,-544.86 282.85,-547.75"/>
</g>
<!-- Node9&#45;&gt;Node4 -->
<g id="edge12" class="edge">
<title>Node9&#45;&gt;Node4</title>
<path fill="none" stroke="midnightblue" d="M144.85,-351.43C135.89,-353.24 126.91,-355.06 119.21,-356.61"/>
<polygon fill="midnightblue" stroke="midnightblue" points="145.78,-354.81 154.89,-349.4 144.39,-347.95 145.78,-354.81"/>
</g>
<!-- Node10 -->
<g id="node10" class="node">
<title>Node10</title>
<g id="a_node10"><a xlink:href="vi_8h.html#ac395e51f25330a6e6033b6d0d22b2076" target="_top" xlink:title=" ">
<polygon fill="white" stroke="black" points="82,-313.5 82,-332.5 111,-332.5 111,-313.5 82,-313.5"/>
<text text-anchor="middle" x="96.5" y="-320.5" font-family="Helvetica,sans-Serif" font-size="10.00">ex</text>
</a>
</g>
</g>
<!-- Node9&#45;&gt;Node10 -->
<g id="edge10" class="edge">
<title>Node9&#45;&gt;Node10</title>
<path fill="none" stroke="midnightblue" d="M144.73,-332.55C132.54,-330.08 120.33,-327.61 111.38,-325.8"/>
<polygon fill="midnightblue" stroke="midnightblue" points="144.39,-336.05 154.89,-334.6 145.78,-329.19 144.39,-336.05"/>
</g>
<!-- Node9&#45;&gt;Node11 -->
<g id="edge13" class="edge">
<title>Node9&#45;&gt;Node11</title>
<path fill="none" stroke="midnightblue" d="M181.76,-323.36C161.96,-285.44 117.59,-200.48 102.58,-171.73"/>
<polygon fill="midnightblue" stroke="midnightblue" points="178.71,-325.08 186.45,-332.32 184.92,-321.84 178.71,-325.08"/>
</g>
<!-- Node10&#45;&gt;Node5 -->
<g id="edge11" class="edge">
<title>Node10&#45;&gt;Node5</title>
<path fill="none" stroke="midnightblue" d="M71.55,-323C60.69,-323 48.07,-323 38.04,-323"/>
<polygon fill="midnightblue" stroke="midnightblue" points="71.65,-326.5 81.65,-323 71.65,-319.5 71.65,-326.5"/>
</g>
<!-- Node11&#45;&gt;Node5 -->
<g id="edge14" class="edge">
<title>Node11&#45;&gt;Node5</title>
<path fill="none" stroke="midnightblue" d="M86.59,-181C70.42,-215.48 36.79,-287.19 24.57,-313.26"/>
<polygon fill="midnightblue" stroke="midnightblue" points="89.93,-182.13 91,-171.59 83.59,-179.16 89.93,-182.13"/>
</g>
<!-- Node14 -->
<g id="node14" class="node">
<title>Node14</title>
<g id="a_node14"><a xlink:href="ex_8c.html#affb8197a8f988443aadf1bf2800a0d0b" target="_top" xlink:title=" ">
<polygon fill="white" stroke="black" points="602.5,-432.5 602.5,-451.5 649.5,-451.5 649.5,-432.5 602.5,-432.5"/>
<text text-anchor="middle" x="626" y="-439.5" font-family="Helvetica,sans-Serif" font-size="10.00">ec_null</text>
</a>
</g>
</g>
<!-- Node13&#45;&gt;Node14 -->
<g id="edge17" class="edge">
<title>Node13&#45;&gt;Node14</title>
<path fill="none" stroke="midnightblue" d="M714.49,-403.61C693.92,-412.63 667.42,-424.26 649,-432.35"/>
<polygon fill="midnightblue" stroke="midnightblue" points="716.01,-406.76 723.77,-399.54 713.2,-400.35 716.01,-406.76"/>
</g>
<!-- Node18 -->
<g id="node18" class="node">
<title>Node18</title>
<g id="a_node18"><a xlink:href="ex_8c.html#ab0cb848a971a3b2c09fcb456d887dd6b" target="_top" xlink:title=" ">
<polygon fill="white" stroke="black" points="579,-760.5 579,-779.5 673,-779.5 673,-760.5 579,-760.5"/>
<text text-anchor="middle" x="626" y="-767.5" font-family="Helvetica,sans-Serif" font-size="10.00">ex_modifiedbuffer</text>
</a>
</g>
</g>
<!-- Node17&#45;&gt;Node18 -->
<g id="edge21" class="edge">
<title>Node17&#45;&gt;Node18</title>
<path fill="none" stroke="midnightblue" d="M710.2,-743.32C693.21,-748.77 673.06,-755.23 656.85,-760.43"/>
<polygon fill="midnightblue" stroke="midnightblue" points="711.33,-746.63 719.79,-740.25 709.2,-739.97 711.33,-746.63"/>
</g>
<!-- Node18&#45;&gt;Node3 -->
<g id="edge22" class="edge">
<title>Node18&#45;&gt;Node3</title>
<path fill="none" stroke="midnightblue" d="M587.79,-782.97C571.63,-788.61 553.21,-795.03 539.07,-799.96"/>
<polygon fill="midnightblue" stroke="midnightblue" points="589.2,-786.19 597.49,-779.59 586.9,-779.58 589.2,-786.19"/>
</g>
<!-- Node19 -->
<g id="node19" class="node">
<title>Node19</title>
<g id="a_node19"><a xlink:href="ex_8c.html#adcd83f163f659bd2596bcfc25d74bde9" target="_top" xlink:title=" ">
<polygon fill="white" stroke="black" points="488.5,-684.5 488.5,-703.5 541.5,-703.5 541.5,-684.5 488.5,-684.5"/>
<text text-anchor="middle" x="515" y="-691.5" font-family="Helvetica,sans-Serif" font-size="10.00">ec_exec</text>
</a>
</g>
</g>
<!-- Node18&#45;&gt;Node19 -->
<g id="edge23" class="edge">
<title>Node18&#45;&gt;Node19</title>
<path fill="none" stroke="midnightblue" d="M602.82,-754.54C580.9,-739.25 548.06,-716.36 529.69,-703.55"/>
<polygon fill="midnightblue" stroke="midnightblue" points="600.99,-757.53 611.2,-760.37 604.99,-751.78 600.99,-757.53"/>
</g>
<!-- Node20 -->
<g id="node20" class="node">
<title>Node20</title>
<g id="a_node20"><a xlink:href="ex_8c.html#aa69f426ff9728078fbb36f448c624a90" target="_top" xlink:title=" ">
<polygon fill="white" stroke="black" points="487,-760.5 487,-779.5 543,-779.5 543,-760.5 487,-760.5"/>
<text text-anchor="middle" x="515" y="-767.5" font-family="Helvetica,sans-Serif" font-size="10.00">ec_make</text>
</a>
</g>
</g>
<!-- Node18&#45;&gt;Node20 -->
<g id="edge25" class="edge">
<title>Node18&#45;&gt;Node20</title>
<path fill="none" stroke="midnightblue" d="M568.7,-770C559.76,-770 550.89,-770 543.04,-770"/>
<polygon fill="midnightblue" stroke="midnightblue" points="568.77,-773.5 578.77,-770 568.77,-766.5 568.77,-773.5"/>
</g>
<!-- Node21 -->
<g id="node21" class="node">
<title>Node21</title>
<g id="a_node21"><a xlink:href="ex_8c.html#a87eef446de152fad41ce88a9a343b87d" target="_top" xlink:title=" ">
<polygon fill="white" stroke="black" points="491,-722.5 491,-741.5 539,-741.5 539,-722.5 491,-722.5"/>
<text text-anchor="middle" x="515" y="-729.5" font-family="Helvetica,sans-Serif" font-size="10.00">ec_quit</text>
</a>
</g>
</g>
<!-- Node18&#45;&gt;Node21 -->
<g id="edge26" class="edge">
<title>Node18&#45;&gt;Node21</title>
<path fill="none" stroke="midnightblue" d="M587.79,-757.03C571.63,-751.39 553.21,-744.97 539.07,-740.04"/>
<polygon fill="midnightblue" stroke="midnightblue" points="586.9,-760.42 597.49,-760.41 589.2,-753.81 586.9,-760.42"/>
</g>
<!-- Node19&#45;&gt;Node7 -->
<g id="edge24" class="edge">
<title>Node19&#45;&gt;Node7</title>
<path fill="none" stroke="midnightblue" d="M494.75,-677.63C472.49,-658.7 436.58,-628.15 418.37,-612.67"/>
<polygon fill="midnightblue" stroke="midnightblue" points="492.66,-680.45 502.55,-684.26 497.2,-675.12 492.66,-680.45"/>
</g>
<!-- Node21&#45;&gt;Node17 -->
<g id="edge27" class="edge">
<title>Node21&#45;&gt;Node17</title>
<path fill="none" stroke="midnightblue" d="M549.11,-732C595.2,-732 677.75,-732 719.62,-732"/>
<polygon fill="midnightblue" stroke="midnightblue" points="549.04,-728.5 539.04,-732 549.04,-735.5 549.04,-728.5"/>
</g>
<!-- Node23&#45;&gt;Node24 -->
<g id="edge30" class="edge">
<title>Node23&#45;&gt;Node24</title>
<path fill="none" stroke="midnightblue" d="M938.71,-656C921.86,-656 902.41,-656 886.83,-656"/>
<polygon fill="midnightblue" stroke="midnightblue" points="938.8,-659.5 948.8,-656 938.8,-652.5 938.8,-659.5"/>
</g>
<!-- Node24&#45;&gt;Node2 -->
<g id="edge31" class="edge">
<title>Node24&#45;&gt;Node2</title>
<path fill="none" stroke="midnightblue" d="M854.09,-675.61C849.24,-715.68 833.13,-807.99 784,-865 780.74,-868.79 776.53,-871.93 772.14,-874.48"/>
<polygon fill="midnightblue" stroke="midnightblue" points="857.58,-675.88 855.2,-665.56 850.62,-675.11 857.58,-675.88"/>
</g>
<!-- Node24&#45;&gt;Node6 -->
<g id="edge33" class="edge">
<title>Node24&#45;&gt;Node6</title>
<path fill="none" stroke="midnightblue" d="M817.32,-655.64C787.02,-654.28 744.23,-649.91 709,-637 681.31,-626.85 653.38,-606.02 638.33,-593.71"/>
<polygon fill="midnightblue" stroke="midnightblue" points="817.37,-659.15 827.49,-656.01 817.62,-652.15 817.37,-659.15"/>
</g>
<!-- Node24&#45;&gt;Node12 -->
<g id="edge34" class="edge">
<title>Node24&#45;&gt;Node12</title>
<path fill="none" stroke="midnightblue" d="M852.23,-675.99C844.77,-710.61 825.19,-782.31 784,-827 780.61,-830.68 776.35,-833.76 771.94,-836.31"/>
<polygon fill="midnightblue" stroke="midnightblue" points="855.74,-676.26 854.3,-665.76 848.88,-674.87 855.74,-676.26"/>
</g>
<!-- Node24&#45;&gt;Node13 -->
<g id="edge38" class="edge">
<title>Node24&#45;&gt;Node13</title>
<path fill="none" stroke="midnightblue" d="M850.92,-636.34C840.79,-598.56 816.25,-513.66 784,-447 775.5,-429.44 762.68,-410.69 754.71,-399.67"/>
<polygon fill="midnightblue" stroke="midnightblue" points="847.56,-637.31 853.49,-646.09 854.32,-635.53 847.56,-637.31"/>
</g>
<!-- Node24&#45;&gt;Node14 -->
<g id="edge37" class="edge">
<title>Node24&#45;&gt;Node14</title>
<path fill="none" stroke="midnightblue" d="M837.36,-639.53C823.26,-627.51 803.13,-611.24 784,-599 752.53,-578.86 737.14,-585.59 709,-561 671.03,-527.82 642.13,-473.38 631.47,-451.52"/>
<polygon fill="midnightblue" stroke="midnightblue" points="835.44,-642.5 845.29,-646.39 840.02,-637.2 835.44,-642.5"/>
</g>
<!-- Node24&#45;&gt;Node15 -->
<g id="edge39" class="edge">
<title>Node24&#45;&gt;Node15</title>
<path fill="none" stroke="midnightblue" d="M849.65,-675.4C839.62,-703.51 817.71,-755.84 784,-789 779.93,-793.01 774.83,-796.37 769.76,-799.09"/>
<polygon fill="midnightblue" stroke="midnightblue" points="853.09,-676.18 853.02,-665.58 846.47,-673.91 853.09,-676.18"/>
</g>
<!-- Node24&#45;&gt;Node16 -->
<g id="edge40" class="edge">
<title>Node24&#45;&gt;Node16</title>
<path fill="none" stroke="midnightblue" d="M845.43,-674.52C832.9,-695.23 810.35,-728.76 784,-751 779.74,-754.59 774.69,-757.76 769.72,-760.43"/>
<polygon fill="midnightblue" stroke="midnightblue" points="848.54,-676.14 850.61,-665.75 842.51,-672.58 848.54,-676.14"/>
</g>
<!-- Node24&#45;&gt;Node17 -->
<g id="edge42" class="edge">
<title>Node24&#45;&gt;Node17</title>
<path fill="none" stroke="midnightblue" d="M834.95,-671.57C820.69,-682.03 801.35,-696.04 784,-708 777.01,-712.82 769.15,-718.02 762.52,-722.34"/>
<polygon fill="midnightblue" stroke="midnightblue" points="837.13,-674.31 843.11,-665.57 832.99,-668.67 837.13,-674.31"/>
</g>
<!-- Node24&#45;&gt;Node19 -->
<g id="edge32" class="edge">
<title>Node24&#45;&gt;Node19</title>
<path fill="none" stroke="midnightblue" d="M817.12,-660.35C746.92,-668.19 600.83,-684.52 541.69,-691.13"/>
<polygon fill="midnightblue" stroke="midnightblue" points="817.76,-663.8 827.3,-659.21 816.98,-656.84 817.76,-663.8"/>
</g>
<!-- Node24&#45;&gt;Node22 -->
<g id="edge43" class="edge">
<title>Node24&#45;&gt;Node22</title>
<path fill="none" stroke="midnightblue" d="M843.95,-637.58C836.4,-625.52 826.85,-609.23 820,-594 799.08,-547.47 817.06,-523.86 784,-485 780.85,-481.3 776.8,-478.22 772.55,-475.7"/>
<polygon fill="midnightblue" stroke="midnightblue" points="841.15,-639.7 849.48,-646.24 847.05,-635.93 841.15,-639.7"/>
</g>
<!-- Node25 -->
<g id="node25" class="node">
<title>Node25</title>
<g id="a_node25"><a xlink:href="ex_8c.html#a1d45a70b724f4cccae2ab746c711ebb1" target="_top" xlink:title=" ">
<polygon fill="white" stroke="black" points="720,-608.5 720,-627.5 773,-627.5 773,-608.5 720,-608.5"/>
<text text-anchor="middle" x="746.5" y="-615.5" font-family="Helvetica,sans-Serif" font-size="10.00">ec_lnum</text>
</a>
</g>
</g>
<!-- Node24&#45;&gt;Node25 -->
<g id="edge35" class="edge">
<title>Node24&#45;&gt;Node25</title>
<path fill="none" stroke="midnightblue" d="M819.01,-643.05C803.87,-637.74 786.72,-631.73 773.01,-626.93"/>
<polygon fill="midnightblue" stroke="midnightblue" points="818.03,-646.41 828.62,-646.41 820.34,-639.8 818.03,-646.41"/>
</g>
<!-- Node26 -->
<g id="node26" class="node">
<title>Node26</title>
<g id="a_node26"><a xlink:href="ex_8c.html#ab95c9f0f009989c44f3ebb5abae4054d" target="_top" xlink:title=" ">
<polygon fill="white" stroke="black" points="719.5,-532.5 719.5,-551.5 773.5,-551.5 773.5,-532.5 719.5,-532.5"/>
<text text-anchor="middle" x="746.5" y="-539.5" font-family="Helvetica,sans-Serif" font-size="10.00">ec_mark</text>
</a>
</g>
</g>
<!-- Node24&#45;&gt;Node26 -->
<g id="edge36" class="edge">
<title>Node24&#45;&gt;Node26</title>
<path fill="none" stroke="midnightblue" d="M844.01,-637.79C830.79,-618.55 808.15,-588 784,-566 778.17,-560.69 771.05,-555.73 764.66,-551.72"/>
<polygon fill="midnightblue" stroke="midnightblue" points="841.22,-639.91 849.71,-646.24 847.02,-636 841.22,-639.91"/>
</g>
<!-- Node27 -->
<g id="node27" class="node">
<title>Node27</title>
<g id="a_node27"><a xlink:href="ex_8c.html#aaf4e813ce4370aa859181d22de51576b" target="_top" xlink:title=" ">
<polygon fill="white" stroke="black" points="709,-494.5 709,-513.5 784,-513.5 784,-494.5 709,-494.5"/>
<text text-anchor="middle" x="746.5" y="-501.5" font-family="Helvetica,sans-Serif" font-size="10.00">ec_substitute</text>
</a>
</g>
</g>
<!-- Node24&#45;&gt;Node27 -->
<g id="edge41" class="edge">
<title>Node24&#45;&gt;Node27</title>
<path fill="none" stroke="midnightblue" d="M844.97,-637.63C837.7,-625.37 828.06,-608.84 820,-594 803.11,-562.91 808.88,-548.15 784,-523 780.38,-519.34 775.91,-516.24 771.36,-513.67"/>
<polygon fill="midnightblue" stroke="midnightblue" points="842.09,-639.64 850.22,-646.43 848.1,-636.05 842.09,-639.64"/>
</g>
<!-- Node28&#45;&gt;Node23 -->
<g id="edge46" class="edge">
<title>Node28&#45;&gt;Node23</title>
<path fill="none" stroke="midnightblue" d="M1063.77,-681.87C1045.34,-676.25 1023.87,-669.7 1007.15,-664.59"/>
<polygon fill="midnightblue" stroke="midnightblue" points="1062.78,-685.23 1073.36,-684.8 1064.82,-678.53 1062.78,-685.23"/>
</g>
<!-- Node30 -->
<g id="node30" class="node">
<title>Node30</title>
<g id="a_node30"><a xlink:href="vi_8h.html#ae665a430e9019b58164b2aa4c4980534" target="_top" xlink:title=" ">
<polygon fill="white" stroke="black" points="951.5,-418.5 951.5,-437.5 1004.5,-437.5 1004.5,-418.5 951.5,-418.5"/>
<text text-anchor="middle" x="978" y="-425.5" font-family="Helvetica,sans-Serif" font-size="10.00">lbuf_pair</text>
</a>
</g>
</g>
<!-- Node29&#45;&gt;Node30 -->
<g id="edge48" class="edge">
<title>Node29&#45;&gt;Node30</title>
<path fill="none" stroke="midnightblue" d="M1066.78,-401.21C1046.82,-407.3 1022.62,-414.69 1004.69,-420.16"/>
<polygon fill="midnightblue" stroke="midnightblue" points="1067.94,-404.51 1076.49,-398.25 1065.9,-397.82 1067.94,-404.51"/>
</g>
<!-- Node33 -->
<g id="node33" class="node">
<title>Node33</title>
<g id="a_node33"><a xlink:href="vi_8h.html#a1bd5b9a4117b7cc986675b27e20059be" target="_top" xlink:title=" ">
<polygon fill="white" stroke="black" points="820,-304.5 820,-323.5 894,-323.5 894,-304.5 820,-304.5"/>
<text text-anchor="middle" x="857" y="-311.5" font-family="Helvetica,sans-Serif" font-size="10.00">lbuf_wordbeg</text>
</a>
</g>
</g>
<!-- Node29&#45;&gt;Node33 -->
<g id="edge53" class="edge">
<title>Node29&#45;&gt;Node33</title>
<path fill="none" stroke="midnightblue" d="M1080.66,-374.35C1074.55,-370.08 1067.99,-365.42 1062,-361 1045.69,-348.97 1044.77,-340.65 1026,-333 983.05,-315.5 929.12,-312.37 894.13,-312.53"/>
<polygon fill="midnightblue" stroke="midnightblue" points="1078.95,-377.42 1089.16,-380.25 1082.94,-371.67 1078.95,-377.42"/>
</g>
<!-- Node34 -->
<g id="node34" class="node">
<title>Node34</title>
<g id="a_node34"><a xlink:href="vi_8h.html#a94c2499e381bfa3497978110b44fc71d" target="_top" xlink:title=" ">
<polygon fill="white" stroke="black" points="820,-342.5 820,-361.5 894,-361.5 894,-342.5 820,-342.5"/>
<text text-anchor="middle" x="857" y="-349.5" font-family="Helvetica,sans-Serif" font-size="10.00">lbuf_wordend</text>
</a>
</g>
</g>
<!-- Node29&#45;&gt;Node34 -->
<g id="edge55" class="edge">
<title>Node29&#45;&gt;Node34</title>
<path fill="none" stroke="midnightblue" d="M1065.95,-387.51C1030.65,-384.79 976.44,-379.62 930,-371 916.78,-368.55 902.42,-364.95 890.03,-361.55"/>
<polygon fill="midnightblue" stroke="midnightblue" points="1066.04,-391.03 1076.27,-388.28 1066.56,-384.05 1066.04,-391.03"/>
</g>
<!-- Node35 -->
<g id="node35" class="node">
<title>Node35</title>
<g id="a_node35"><a xlink:href="mot_8c.html#a644f779e0e815979c646ea210c3a1594" target="_top" xlink:title=" ">
<polygon fill="white" stroke="black" points="941,-342.5 941,-361.5 1015,-361.5 1015,-342.5 941,-342.5"/>
<text text-anchor="middle" x="978" y="-349.5" font-family="Helvetica,sans-Serif" font-size="10.00">lbuf_wordlast</text>
</a>
</g>
</g>
<!-- Node29&#45;&gt;Node35 -->
<g id="edge57" class="edge">
<title>Node29&#45;&gt;Node35</title>
<path fill="none" stroke="midnightblue" d="M1066.91,-378.83C1048.96,-373.35 1027.55,-366.82 1010.36,-361.57"/>
<polygon fill="midnightblue" stroke="midnightblue" points="1065.9,-382.18 1076.49,-381.75 1067.94,-375.49 1065.9,-382.18"/>
</g>
<!-- Node31 -->
<g id="node31" class="node">
<title>Node31</title>
<g id="a_node31"><a xlink:href="vi_8c.html#aaa4777ea0715ea846346d0f27a0cfa3f" target="_top" xlink:title=" ">
<polygon fill="white" stroke="black" points="717,-266.5 717,-285.5 776,-285.5 776,-266.5 717,-266.5"/>
<text text-anchor="middle" x="746.5" y="-273.5" font-family="Helvetica,sans-Serif" font-size="10.00">vi_motion</text>
</a>
</g>
</g>
<!-- Node30&#45;&gt;Node31 -->
<g id="edge49" class="edge">
<title>Node30&#45;&gt;Node31</title>
<path fill="none" stroke="midnightblue" d="M941.33,-421.15C907.58,-413.33 856.74,-397.99 820,-371 787.4,-347.05 762.4,-304.46 752.33,-285.53"/>
<polygon fill="midnightblue" stroke="midnightblue" points="940.71,-424.59 951.23,-423.34 942.22,-417.76 940.71,-424.59"/>
</g>
<!-- Node31&#45;&gt;Node11 -->
<g id="edge52" class="edge">
<title>Node31&#45;&gt;Node11</title>
<path fill="none" stroke="midnightblue" d="M706.91,-270.85C661.37,-265.22 583.32,-257 516,-257 516,-257 516,-257 294.5,-257 216.66,-257 137.16,-196.08 108.57,-171.81"/>
<polygon fill="midnightblue" stroke="midnightblue" points="706.58,-274.33 716.94,-272.11 707.46,-267.39 706.58,-274.33"/>
</g>
<!-- Node32 -->
<g id="node32" class="node">
<title>Node32</title>
<g id="a_node32"><a xlink:href="vi_8c.html#a06cbc6eb843436a0e77e07cbab0c4538" target="_top" xlink:title=" ">
<polygon fill="white" stroke="black" points="595,-190.5 595,-209.5 657,-209.5 657,-190.5 595,-190.5"/>
<text text-anchor="middle" x="626" y="-197.5" font-family="Helvetica,sans-Serif" font-size="10.00">vc_motion</text>
</a>
</g>
</g>
<!-- Node31&#45;&gt;Node32 -->
<g id="edge50" class="edge">
<title>Node31&#45;&gt;Node32</title>
<path fill="none" stroke="midnightblue" d="M722.02,-260.94C698.2,-245.66 662.03,-222.47 641.89,-209.55"/>
<polygon fill="midnightblue" stroke="midnightblue" points="720.18,-263.92 730.49,-266.37 723.96,-258.03 720.18,-263.92"/>
</g>
<!-- Node32&#45;&gt;Node11 -->
<g id="edge51" class="edge">
<title>Node32&#45;&gt;Node11</title>
<path fill="none" stroke="midnightblue" d="M584.43,-200C540.66,-200 468.89,-200 407,-200 407,-200 407,-200 294.5,-200 224.49,-200 142.97,-176.57 111.18,-166.51"/>
<polygon fill="midnightblue" stroke="midnightblue" points="584.67,-203.5 594.67,-200 584.67,-196.5 584.67,-203.5"/>
</g>
<!-- Node33&#45;&gt;Node31 -->
<g id="edge54" class="edge">
<title>Node33&#45;&gt;Node31</title>
<path fill="none" stroke="midnightblue" d="M818.96,-301.03C804.51,-295.97 788.23,-290.27 774.87,-285.59"/>
<polygon fill="midnightblue" stroke="midnightblue" points="818.03,-304.41 828.62,-304.41 820.34,-297.8 818.03,-304.41"/>
</g>
<!-- Node34&#45;&gt;Node31 -->
<g id="edge56" class="edge">
<title>Node34&#45;&gt;Node31</title>
<path fill="none" stroke="midnightblue" d="M827.23,-337.42C824.75,-335.98 822.31,-334.5 820,-333 796.9,-318 772.12,-297.43 758.33,-285.54"/>
<polygon fill="midnightblue" stroke="midnightblue" points="825.76,-340.61 836.2,-342.37 829.14,-334.48 825.76,-340.61"/>
</g>
<!-- Node35&#45;&gt;Node33 -->
<g id="edge58" class="edge">
<title>Node35&#45;&gt;Node33</title>
<path fill="none" stroke="midnightblue" d="M937.29,-339.32C921.21,-334.19 902.96,-328.36 888.02,-323.59"/>
<polygon fill="midnightblue" stroke="midnightblue" points="936.38,-342.7 946.97,-342.41 938.51,-336.03 936.38,-342.7"/>
</g>
<!-- Node35&#45;&gt;Node34 -->
<g id="edge59" class="edge">
<title>Node35&#45;&gt;Node34</title>
<path fill="none" stroke="midnightblue" d="M930.63,-352C918.58,-352 905.77,-352 894.32,-352"/>
<polygon fill="midnightblue" stroke="midnightblue" points="930.97,-355.5 940.97,-352 930.97,-348.5 930.97,-355.5"/>
</g>
<!-- Node36&#45;&gt;Node31 -->
<g id="edge61" class="edge">
<title>Node36&#45;&gt;Node31</title>
<path fill="none" stroke="midnightblue" d="M919.67,-276C874.01,-276 812.02,-276 776.23,-276"/>
<polygon fill="midnightblue" stroke="midnightblue" points="919.73,-279.5 929.73,-276 919.73,-272.5 919.73,-279.5"/>
</g>
<!-- Node37&#45;&gt;Node38 -->
<g id="edge63" class="edge">
<title>Node37&#45;&gt;Node38</title>
<path fill="none" stroke="midnightblue" d="M1071.93,-276.4C1057.89,-270.39 1041.14,-263.28 1026,-257 1017.87,-253.63 1008.92,-249.99 1001.03,-246.81"/>
<polygon fill="midnightblue" stroke="midnightblue" points="1070.59,-279.64 1081.16,-280.36 1073.35,-273.2 1070.59,-279.64"/>
</g>
<!-- Node39 -->
<g id="node39" class="node">
<title>Node39</title>
<g id="a_node39"><a xlink:href="vi_8c.html#a93701c59617d4f96cbaa207e89178f87" target="_top" xlink:title=" ">
<polygon fill="white" stroke="black" points="827.5,-228.5 827.5,-247.5 886.5,-247.5 886.5,-228.5 827.5,-228.5"/>
<text text-anchor="middle" x="857" y="-235.5" font-family="Helvetica,sans-Serif" font-size="10.00">vi_search</text>
</a>
</g>
</g>
<!-- Node38&#45;&gt;Node39 -->
<g id="edge64" class="edge">
<title>Node38&#45;&gt;Node39</title>
<path fill="none" stroke="midnightblue" d="M944.8,-238C926.68,-238 904.25,-238 886.73,-238"/>
<polygon fill="midnightblue" stroke="midnightblue" points="944.9,-241.5 954.9,-238 944.9,-234.5 944.9,-241.5"/>
</g>
<!-- Node39&#45;&gt;Node31 -->
<g id="edge65" class="edge">
<title>Node39&#45;&gt;Node31</title>
<path fill="none" stroke="midnightblue" d="M818.96,-250.97C804.51,-256.03 788.23,-261.73 774.87,-266.41"/>
<polygon fill="midnightblue" stroke="midnightblue" points="820.34,-254.2 828.62,-247.59 818.03,-247.59 820.34,-254.2"/>
</g>
<!-- Node40&#45;&gt;Node31 -->
<g id="edge67" class="edge">
<title>Node40&#45;&gt;Node31</title>
<path fill="none" stroke="midnightblue" d="M1051.98,-468.5C989.65,-468.7 885.02,-459.6 820,-403 781.13,-369.16 758.32,-309.13 750.54,-285.73"/>
<polygon fill="midnightblue" stroke="midnightblue" points="1052.02,-472 1061.98,-468.39 1051.94,-465 1052.02,-472"/>
</g>
<!-- Node41&#45;&gt;Node11 -->
<g id="edge70" class="edge">
<title>Node41&#45;&gt;Node11</title>
<path fill="none" stroke="midnightblue" d="M367.64,-162C299.09,-162 156.12,-162 111.27,-162"/>
<polygon fill="midnightblue" stroke="midnightblue" points="367.98,-165.5 377.98,-162 367.98,-158.5 367.98,-165.5"/>
</g>
<!-- Node42&#45;&gt;Node11 -->
<g id="edge72" class="edge">
<title>Node42&#45;&gt;Node11</title>
<path fill="none" stroke="midnightblue" d="M159.88,-136.78C143.32,-143.48 123.9,-151.33 111.18,-156.47"/>
<polygon fill="midnightblue" stroke="midnightblue" points="161.26,-140 169.22,-133.01 158.64,-133.51 161.26,-140"/>
</g>
<!-- Node43&#45;&gt;Node11 -->
<g id="edge74" class="edge">
<title>Node43&#45;&gt;Node11</title>
<path fill="none" stroke="midnightblue" d="M255.8,-46.49C225.95,-47.15 184.85,-52.17 155,-72 125.04,-91.9 107.47,-133.33 100.71,-152.22"/>
<polygon fill="midnightblue" stroke="midnightblue" points="255.88,-49.99 265.86,-46.43 255.83,-42.99 255.88,-49.99"/>
</g>
<!-- Node44&#45;&gt;Node31 -->
<g id="edge78" class="edge">
<title>Node44&#45;&gt;Node31</title>
<path fill="none" stroke="midnightblue" d="M827.23,-214.58C824.75,-216.02 822.31,-217.5 820,-219 796.9,-234 772.12,-254.57 758.33,-266.46"/>
<polygon fill="midnightblue" stroke="midnightblue" points="829.14,-217.52 836.2,-209.63 825.76,-211.39 829.14,-217.52"/>
</g>
<!-- Node44&#45;&gt;Node32 -->
<g id="edge77" class="edge">
<title>Node44&#45;&gt;Node32</title>
<path fill="none" stroke="midnightblue" d="M813.56,-200C768.2,-200 697.41,-200 657.33,-200"/>
<polygon fill="midnightblue" stroke="midnightblue" points="813.68,-203.5 823.68,-200 813.68,-196.5 813.68,-203.5"/>
</g>
<!-- Node45&#45;&gt;Node11 -->
<g id="edge80" class="edge">
<title>Node45&#45;&gt;Node11</title>
<path fill="none" stroke="midnightblue" d="M350.51,-3.47C295.92,0.11 212.01,-2.76 155,-44 117.52,-71.12 103.32,-129.43 99.05,-152.41"/>
<polygon fill="midnightblue" stroke="midnightblue" points="350.46,-6.98 360.69,-4.24 350.98,0 350.46,-6.98"/>
</g>
</g>
</svg>
