<?xml version="1.0" encoding="UTF-8" standalone="no"?>
<!DOCTYPE svg PUBLIC "-//W3C//DTD SVG 1.1//EN"
 "http://www.w3.org/Graphics/SVG/1.1/DTD/svg11.dtd">
<!-- Generated by graphviz version 2.44.1 (20200629.0846)
 -->
<!-- Title: lbuf_modified Pages: 1 -->
<svg width="937pt" height="246pt"
 viewBox="0.00 0.00 937.00 246.00" xmlns="http://www.w3.org/2000/svg" xmlns:xlink="http://www.w3.org/1999/xlink">
<g id="graph0" class="graph" transform="scale(1 1) rotate(0) translate(4 242)">
<title>lbuf_modified</title>
<polygon fill="white" stroke="transparent" points="-4,4 -4,-242 933,-242 933,4 -4,4"/>
<!-- Node1 -->
<g id="node1" class="node">
<title>Node1</title>
<g id="a_node1"><a xlink:title=" ">
<polygon fill="#bfbfbf" stroke="black" points="855,-85.5 855,-104.5 929,-104.5 929,-85.5 855,-85.5"/>
<text text-anchor="middle" x="892" y="-92.5" font-family="Helvetica,sans-Serif" font-size="10.00">lbuf_modified</text>
</a>
</g>
</g>
<!-- Node2 -->
<g id="node2" class="node">
<title>Node2</title>
<g id="a_node2"><a xlink:href="ex_8c.html#a057b67e2d4f23df3ad50a9d3ec86125b" target="_top" xlink:title=" ">
<polygon fill="white" stroke="black" points="663,-104.5 663,-123.5 716,-123.5 716,-104.5 663,-104.5"/>
<text text-anchor="middle" x="689.5" y="-111.5" font-family="Helvetica,sans-Serif" font-size="10.00">ec_write</text>
</a>
</g>
</g>
<!-- Node1&#45;&gt;Node2 -->
<g id="edge1" class="edge">
<title>Node1&#45;&gt;Node2</title>
<path fill="none" stroke="midnightblue" d="M844.64,-99.39C804.65,-103.18 748.37,-108.52 716.05,-111.58"/>
<polygon fill="midnightblue" stroke="midnightblue" points="845.07,-102.87 854.69,-98.44 844.41,-95.9 845.07,-102.87"/>
</g>
<!-- Node3 -->
<g id="node3" class="node">
<title>Node3</title>
<g id="a_node3"><a xlink:href="ex_8c.html#ab0cb848a971a3b2c09fcb456d887dd6b" target="_top" xlink:title=" ">
<polygon fill="white" stroke="black" points="530,-142.5 530,-161.5 624,-161.5 624,-142.5 530,-142.5"/>
<text text-anchor="middle" x="577" y="-149.5" font-family="Helvetica,sans-Serif" font-size="10.00">ex_modifiedbuffer</text>
</a>
</g>
</g>
<!-- Node1&#45;&gt;Node3 -->
<g id="edge21" class="edge">
<title>Node1&#45;&gt;Node3</title>
<path fill="none" stroke="midnightblue" d="M856.53,-107.91C844.76,-111.94 831.43,-116.08 819,-119 752.19,-134.67 673.09,-143.75 624.22,-148.28"/>
<polygon fill="midnightblue" stroke="midnightblue" points="857.73,-111.2 866,-104.59 855.41,-104.6 857.73,-111.2"/>
</g>
<!-- Node11 -->
<g id="node11" class="node">
<title>Node11</title>
<g id="a_node11"><a xlink:href="vi_8h.html#aa75c73cccb4878ec06ea5bf5b1b02295" target="_top" xlink:title=" ">
<polygon fill="white" stroke="black" points="155,-66.5 155,-85.5 230,-85.5 230,-66.5 155,-66.5"/>
<text text-anchor="middle" x="192.5" y="-73.5" font-family="Helvetica,sans-Serif" font-size="10.00">ex_command</text>
</a>
</g>
</g>
<!-- Node1&#45;&gt;Node11 -->
<g id="edge20" class="edge">
<title>Node1&#45;&gt;Node11</title>
<path fill="none" stroke="midnightblue" d="M844.76,-88.12C804.2,-82.68 743.57,-76 690.5,-76 690.5,-76 690.5,-76 377.5,-76 326.39,-76 267.29,-76 230.16,-76"/>
<polygon fill="midnightblue" stroke="midnightblue" points="844.49,-91.61 854.88,-89.5 845.44,-84.68 844.49,-91.61"/>
</g>
<!-- Node13 -->
<g id="node13" class="node">
<title>Node13</title>
<g id="a_node13"><a xlink:href="vi_8c.html#a8d808e0f3453afe6600673ee1ea5f828" target="_top" xlink:title=" ">
<polygon fill="white" stroke="black" points="82,-28.5 82,-47.5 111,-47.5 111,-28.5 82,-28.5"/>
<text text-anchor="middle" x="96.5" y="-35.5" font-family="Helvetica,sans-Serif" font-size="10.00">vi</text>
</a>
</g>
</g>
<!-- Node1&#45;&gt;Node13 -->
<g id="edge27" class="edge">
<title>Node1&#45;&gt;Node13</title>
<path fill="none" stroke="midnightblue" d="M871.94,-78.88C837.88,-51.77 763.29,0 690.5,0 690.5,0 690.5,0 291.5,0 222.86,0 143.06,-23.19 111.43,-33.34"/>
<polygon fill="midnightblue" stroke="midnightblue" points="869.73,-81.6 879.7,-85.19 874.15,-76.17 869.73,-81.6"/>
</g>
<!-- Node16 -->
<g id="node16" class="node">
<title>Node16</title>
<g id="a_node16"><a xlink:href="vi_8h.html#a4a117659191738c0d848ece365ab4f5d" target="_top" xlink:title=" ">
<polygon fill="white" stroke="black" points="755,-180.5 755,-199.5 819,-199.5 819,-180.5 755,-180.5"/>
<text text-anchor="middle" x="787" y="-187.5" font-family="Helvetica,sans-Serif" font-size="10.00">lbuf_saved</text>
</a>
</g>
</g>
<!-- Node1&#45;&gt;Node16 -->
<g id="edge22" class="edge">
<title>Node1&#45;&gt;Node16</title>
<path fill="none" stroke="midnightblue" d="M874.92,-111.97C860.67,-126.73 839.07,-148.45 819,-166 813.36,-170.93 806.85,-176.05 801.25,-180.29"/>
<polygon fill="midnightblue" stroke="midnightblue" points="877.63,-114.2 882.02,-104.56 872.57,-109.36 877.63,-114.2"/>
</g>
<!-- Node17 -->
<g id="node17" class="node">
<title>Node17</title>
<g id="a_node17"><a xlink:href="vi_8c.html#ab7d24df5f19f55dae6f719cd5bcfbe6f" target="_top" xlink:title=" ">
<polygon fill="white" stroke="black" points="660,-28.5 660,-47.5 719,-47.5 719,-28.5 660,-28.5"/>
<text text-anchor="middle" x="689.5" y="-35.5" font-family="Helvetica,sans-Serif" font-size="10.00">vc_status</text>
</a>
</g>
</g>
<!-- Node1&#45;&gt;Node17 -->
<g id="edge25" class="edge">
<title>Node1&#45;&gt;Node17</title>
<path fill="none" stroke="midnightblue" d="M864.37,-80.9C851.05,-74.34 834.5,-66.92 819,-62 785.47,-51.36 745.44,-44.81 719.07,-41.29"/>
<polygon fill="midnightblue" stroke="midnightblue" points="862.93,-84.09 873.44,-85.47 866.09,-77.84 862.93,-84.09"/>
</g>
<!-- Node2&#45;&gt;Node3 -->
<g id="edge2" class="edge">
<title>Node2&#45;&gt;Node3</title>
<path fill="none" stroke="midnightblue" d="M653.2,-126.14C637.88,-131.41 620.18,-137.49 605.81,-142.44"/>
<polygon fill="midnightblue" stroke="midnightblue" points="654.55,-129.38 662.87,-122.81 652.28,-122.76 654.55,-129.38"/>
</g>
<!-- Node4 -->
<g id="node4" class="node">
<title>Node4</title>
<g id="a_node4"><a xlink:href="ex_8c.html#a8059390ad69866fa8e14bdb2521d4dc2" target="_top" xlink:title=" ">
<polygon fill="white" stroke="black" points="442,-218.5 442,-237.5 490,-237.5 490,-218.5 442,-218.5"/>
<text text-anchor="middle" x="466" y="-225.5" font-family="Helvetica,sans-Serif" font-size="10.00">ec_edit</text>
</a>
</g>
</g>
<!-- Node3&#45;&gt;Node4 -->
<g id="edge3" class="edge">
<title>Node3&#45;&gt;Node4</title>
<path fill="none" stroke="midnightblue" d="M553.82,-167.46C531.9,-182.75 499.06,-205.64 480.69,-218.45"/>
<polygon fill="midnightblue" stroke="midnightblue" points="555.99,-170.22 562.2,-161.63 551.99,-164.47 555.99,-170.22"/>
</g>
<!-- Node7 -->
<g id="node7" class="node">
<title>Node7</title>
<g id="a_node7"><a xlink:href="ex_8c.html#adcd83f163f659bd2596bcfc25d74bde9" target="_top" xlink:title=" ">
<polygon fill="white" stroke="black" points="439.5,-142.5 439.5,-161.5 492.5,-161.5 492.5,-142.5 439.5,-142.5"/>
<text text-anchor="middle" x="466" y="-149.5" font-family="Helvetica,sans-Serif" font-size="10.00">ec_exec</text>
</a>
</g>
</g>
<!-- Node3&#45;&gt;Node7 -->
<g id="edge6" class="edge">
<title>Node3&#45;&gt;Node7</title>
<path fill="none" stroke="midnightblue" d="M519.52,-152C510.06,-152 500.67,-152 492.51,-152"/>
<polygon fill="midnightblue" stroke="midnightblue" points="519.77,-155.5 529.77,-152 519.77,-148.5 519.77,-155.5"/>
</g>
<!-- Node14 -->
<g id="node14" class="node">
<title>Node14</title>
<g id="a_node14"><a xlink:href="ex_8c.html#aa69f426ff9728078fbb36f448c624a90" target="_top" xlink:title=" ">
<polygon fill="white" stroke="black" points="438,-180.5 438,-199.5 494,-199.5 494,-180.5 438,-180.5"/>
<text text-anchor="middle" x="466" y="-187.5" font-family="Helvetica,sans-Serif" font-size="10.00">ec_make</text>
</a>
</g>
</g>
<!-- Node3&#45;&gt;Node14 -->
<g id="edge17" class="edge">
<title>Node3&#45;&gt;Node14</title>
<path fill="none" stroke="midnightblue" d="M538.71,-165C524.08,-170.1 507.59,-175.85 494.12,-180.55"/>
<polygon fill="midnightblue" stroke="midnightblue" points="540.2,-168.19 548.49,-161.59 537.9,-161.58 540.2,-168.19"/>
</g>
<!-- Node15 -->
<g id="node15" class="node">
<title>Node15</title>
<g id="a_node15"><a xlink:href="ex_8c.html#a87eef446de152fad41ce88a9a343b87d" target="_top" xlink:title=" ">
<polygon fill="white" stroke="black" points="442,-104.5 442,-123.5 490,-123.5 490,-104.5 442,-104.5"/>
<text text-anchor="middle" x="466" y="-111.5" font-family="Helvetica,sans-Serif" font-size="10.00">ec_quit</text>
</a>
</g>
</g>
<!-- Node3&#45;&gt;Node15 -->
<g id="edge18" class="edge">
<title>Node3&#45;&gt;Node15</title>
<path fill="none" stroke="midnightblue" d="M538.79,-139.03C522.63,-133.39 504.21,-126.97 490.07,-122.04"/>
<polygon fill="midnightblue" stroke="midnightblue" points="537.9,-142.42 548.49,-142.41 540.2,-135.81 537.9,-142.42"/>
</g>
<!-- Node5 -->
<g id="node5" class="node">
<title>Node5</title>
<g id="a_node5"><a xlink:href="vi_8h.html#abe53b5c10f94f20cd5ed024371615fa1" target="_top" xlink:title=" ">
<polygon fill="white" stroke="black" points="74,-104.5 74,-123.5 119,-123.5 119,-104.5 74,-104.5"/>
<text text-anchor="middle" x="96.5" y="-111.5" font-family="Helvetica,sans-Serif" font-size="10.00">ex_init</text>
</a>
</g>
</g>
<!-- Node4&#45;&gt;Node5 -->
<g id="edge4" class="edge">
<title>Node4&#45;&gt;Node5</title>
<path fill="none" stroke="midnightblue" d="M431.45,-225.9C372.71,-221.13 248.63,-206.12 155,-161 135.49,-151.6 116.82,-134.29 106.29,-123.51"/>
<polygon fill="midnightblue" stroke="midnightblue" points="431.39,-229.41 441.63,-226.68 431.93,-222.43 431.39,-229.41"/>
</g>
<!-- Node6 -->
<g id="node6" class="node">
<title>Node6</title>
<g id="a_node6"><a xlink:href="vi_8c.html#a0ddf1224851353fc92bfbff6f499fa97" target="_top" xlink:title=" ">
<polygon fill="white" stroke="black" points="0,-66.5 0,-85.5 38,-85.5 38,-66.5 0,-66.5"/>
<text text-anchor="middle" x="19" y="-73.5" font-family="Helvetica,sans-Serif" font-size="10.00">main</text>
</a>
</g>
</g>
<!-- Node5&#45;&gt;Node6 -->
<g id="edge5" class="edge">
<title>Node5&#45;&gt;Node6</title>
<path fill="none" stroke="midnightblue" d="M67.4,-99.86C57.57,-94.91 46.79,-89.49 38.01,-85.06"/>
<polygon fill="midnightblue" stroke="midnightblue" points="65.94,-103.04 76.45,-104.41 69.09,-96.79 65.94,-103.04"/>
</g>
<!-- Node8 -->
<g id="node8" class="node">
<title>Node8</title>
<g id="a_node8"><a xlink:href="ex_8c.html#a7d848d20211b2e1c868dde98ec5dfae9" target="_top" xlink:title=" ">
<polygon fill="white" stroke="black" points="355,-142.5 355,-161.5 402,-161.5 402,-142.5 355,-142.5"/>
<text text-anchor="middle" x="378.5" y="-149.5" font-family="Helvetica,sans-Serif" font-size="10.00">ex_line</text>
</a>
</g>
</g>
<!-- Node7&#45;&gt;Node8 -->
<g id="edge7" class="edge">
<title>Node7&#45;&gt;Node8</title>
<path fill="none" stroke="midnightblue" d="M429.29,-152C420.13,-152 410.53,-152 402.23,-152"/>
<polygon fill="midnightblue" stroke="midnightblue" points="429.35,-155.5 439.35,-152 429.35,-148.5 429.35,-155.5"/>
</g>
<!-- Node9 -->
<g id="node9" class="node">
<title>Node9</title>
<g id="a_node9"><a xlink:href="ex_8c.html#ab15ebfef933256d9741128e2ddf3f9b5" target="_top" xlink:title=" ">
<polygon fill="white" stroke="black" points="266,-104.5 266,-123.5 319,-123.5 319,-104.5 266,-104.5"/>
<text text-anchor="middle" x="292.5" y="-111.5" font-family="Helvetica,sans-Serif" font-size="10.00">ex_exec</text>
</a>
</g>
</g>
<!-- Node8&#45;&gt;Node9 -->
<g id="edge8" class="edge">
<title>Node8&#45;&gt;Node9</title>
<path fill="none" stroke="midnightblue" d="M346.88,-138.15C336.19,-133.31 324.44,-128 314.69,-123.59"/>
<polygon fill="midnightblue" stroke="midnightblue" points="345.75,-141.48 356.3,-142.41 348.63,-135.1 345.75,-141.48"/>
</g>
<!-- Node10 -->
<g id="node10" class="node">
<title>Node10</title>
<g id="a_node10"><a xlink:href="ex_8c.html#a70c571bdde329a65e216c19b4aeaa628" target="_top" xlink:title=" ">
<polygon fill="white" stroke="black" points="167.5,-132.5 167.5,-151.5 217.5,-151.5 217.5,-132.5 167.5,-132.5"/>
<text text-anchor="middle" x="192.5" y="-139.5" font-family="Helvetica,sans-Serif" font-size="10.00">ec_glob</text>
</a>
</g>
</g>
<!-- Node9&#45;&gt;Node10 -->
<g id="edge9" class="edge">
<title>Node9&#45;&gt;Node10</title>
<path fill="none" stroke="midnightblue" d="M255.93,-124.16C243.24,-127.79 229.24,-131.79 217.73,-135.08"/>
<polygon fill="midnightblue" stroke="midnightblue" points="257.1,-127.47 265.75,-121.36 255.17,-120.74 257.1,-127.47"/>
</g>
<!-- Node9&#45;&gt;Node11 -->
<g id="edge11" class="edge">
<title>Node9&#45;&gt;Node11</title>
<path fill="none" stroke="midnightblue" d="M257.29,-100.74C244.43,-95.75 230.06,-90.18 218.22,-85.59"/>
<polygon fill="midnightblue" stroke="midnightblue" points="256.18,-104.06 266.77,-104.41 258.71,-97.53 256.18,-104.06"/>
</g>
<!-- Node10&#45;&gt;Node8 -->
<g id="edge10" class="edge">
<title>Node10&#45;&gt;Node8</title>
<path fill="none" stroke="midnightblue" d="M228.06,-143.88C265.22,-145.9 323.23,-149.05 354.94,-150.77"/>
<polygon fill="midnightblue" stroke="midnightblue" points="227.88,-140.36 217.71,-143.32 227.5,-147.35 227.88,-140.36"/>
</g>
<!-- Node11&#45;&gt;Node5 -->
<g id="edge14" class="edge">
<title>Node11&#45;&gt;Node5</title>
<path fill="none" stroke="midnightblue" d="M158.25,-89.44C145.31,-94.67 130.85,-100.52 119.28,-105.2"/>
<polygon fill="midnightblue" stroke="midnightblue" points="159.82,-92.58 167.78,-85.59 157.2,-86.09 159.82,-92.58"/>
</g>
<!-- Node12 -->
<g id="node12" class="node">
<title>Node12</title>
<g id="a_node12"><a xlink:href="vi_8h.html#ac395e51f25330a6e6033b6d0d22b2076" target="_top" xlink:title=" ">
<polygon fill="white" stroke="black" points="82,-66.5 82,-85.5 111,-85.5 111,-66.5 82,-66.5"/>
<text text-anchor="middle" x="96.5" y="-73.5" font-family="Helvetica,sans-Serif" font-size="10.00">ex</text>
</a>
</g>
</g>
<!-- Node11&#45;&gt;Node12 -->
<g id="edge12" class="edge">
<title>Node11&#45;&gt;Node12</title>
<path fill="none" stroke="midnightblue" d="M144.73,-76C132.54,-76 120.33,-76 111.38,-76"/>
<polygon fill="midnightblue" stroke="midnightblue" points="144.89,-79.5 154.89,-76 144.89,-72.5 144.89,-79.5"/>
</g>
<!-- Node11&#45;&gt;Node13 -->
<g id="edge15" class="edge">
<title>Node11&#45;&gt;Node13</title>
<path fill="none" stroke="midnightblue" d="M158.07,-62.48C141.85,-55.93 123.28,-48.42 111.02,-43.47"/>
<polygon fill="midnightblue" stroke="midnightblue" points="157.2,-65.91 167.78,-66.41 159.82,-59.42 157.2,-65.91"/>
</g>
<!-- Node12&#45;&gt;Node6 -->
<g id="edge13" class="edge">
<title>Node12&#45;&gt;Node6</title>
<path fill="none" stroke="midnightblue" d="M71.55,-76C60.69,-76 48.07,-76 38.04,-76"/>
<polygon fill="midnightblue" stroke="midnightblue" points="71.65,-79.5 81.65,-76 71.65,-72.5 71.65,-79.5"/>
</g>
<!-- Node13&#45;&gt;Node6 -->
<g id="edge16" class="edge">
<title>Node13&#45;&gt;Node6</title>
<path fill="none" stroke="midnightblue" d="M72.56,-49.55C61.48,-55.12 48.39,-61.71 38.04,-66.92"/>
<polygon fill="midnightblue" stroke="midnightblue" points="74.29,-52.59 81.65,-44.97 71.15,-46.34 74.29,-52.59"/>
</g>
<!-- Node15&#45;&gt;Node2 -->
<g id="edge19" class="edge">
<title>Node15&#45;&gt;Node2</title>
<path fill="none" stroke="midnightblue" d="M500.27,-114C544.68,-114 622.38,-114 662.66,-114"/>
<polygon fill="midnightblue" stroke="midnightblue" points="500,-110.5 490,-114 500,-117.5 500,-110.5"/>
</g>
<!-- Node16&#45;&gt;Node2 -->
<g id="edge24" class="edge">
<title>Node16&#45;&gt;Node2</title>
<path fill="none" stroke="midnightblue" d="M766.06,-174.13C746.85,-158.85 718.45,-136.24 702.5,-123.55"/>
<polygon fill="midnightblue" stroke="midnightblue" points="763.9,-176.89 773.9,-180.37 768.26,-171.41 763.9,-176.89"/>
</g>
<!-- Node16&#45;&gt;Node4 -->
<g id="edge23" class="edge">
<title>Node16&#45;&gt;Node4</title>
<path fill="none" stroke="midnightblue" d="M744.51,-194.94C676.6,-203.03 543.91,-218.84 490.3,-225.22"/>
<polygon fill="midnightblue" stroke="midnightblue" points="745.32,-198.37 754.83,-193.71 744.49,-191.42 745.32,-198.37"/>
</g>
<!-- Node17&#45;&gt;Node13 -->
<g id="edge26" class="edge">
<title>Node17&#45;&gt;Node13</title>
<path fill="none" stroke="midnightblue" d="M649.8,-38C605.59,-38 531.08,-38 467,-38 467,-38 467,-38 291.5,-38 223.8,-38 142.82,-38 111.14,-38"/>
<polygon fill="midnightblue" stroke="midnightblue" points="649.83,-41.5 659.83,-38 649.83,-34.5 649.83,-41.5"/>
</g>
</g>
</svg>
