<?xml version="1.0" encoding="UTF-8" standalone="no"?>
<!DOCTYPE svg PUBLIC "-//W3C//DTD SVG 1.1//EN"
 "http://www.w3.org/Graphics/SVG/1.1/DTD/svg11.dtd">
<!-- Generated by graphviz version 2.44.1 (20200629.0846)
 -->
<!-- Title: linelength Pages: 1 -->
<svg width="933pt" height="777pt"
 viewBox="0.00 0.00 933.00 776.58" xmlns="http://www.w3.org/2000/svg" xmlns:xlink="http://www.w3.org/1999/xlink">
<g id="graph0" class="graph" transform="scale(1 1) rotate(0) translate(4 772.58)">
<title>linelength</title>
<polygon fill="white" stroke="transparent" points="-4,4 -4,-772.58 929,-772.58 929,4 -4,4"/>
<!-- Node1 -->
<g id="node1" class="node">
<title>Node1</title>
<g id="a_node1"><a xlink:title=" ">
<polygon fill="#bfbfbf" stroke="black" points="867,-285.5 867,-304.5 925,-304.5 925,-285.5 867,-285.5"/>
<text text-anchor="middle" x="896" y="-292.5" font-family="Helvetica,sans-Serif" font-size="10.00">linelength</text>
</a>
</g>
</g>
<!-- Node2 -->
<g id="node2" class="node">
<title>Node2</title>
<g id="a_node2"><a xlink:href="lbuf_8c.html#a7d6629efef5a5cbd324d82e2b0c07c5d" target="_top" xlink:title=" ">
<polygon fill="white" stroke="black" points="670,-266.5 670,-285.5 739,-285.5 739,-266.5 670,-266.5"/>
<text text-anchor="middle" x="704.5" y="-273.5" font-family="Helvetica,sans-Serif" font-size="10.00">lbuf_replace</text>
</a>
</g>
</g>
<!-- Node1&#45;&gt;Node2 -->
<g id="edge1" class="edge">
<title>Node1&#45;&gt;Node2</title>
<path fill="none" stroke="midnightblue" d="M856.48,-291.14C822.04,-287.68 772.07,-282.67 739.19,-279.38"/>
<polygon fill="midnightblue" stroke="midnightblue" points="856.33,-294.64 866.63,-292.16 857.03,-287.68 856.33,-294.64"/>
</g>
<!-- Node35 -->
<g id="node35" class="node">
<title>Node35</title>
<g id="a_node35"><a xlink:href="lbuf_8c.html#ab41193f3312b21588338e92e1b144f87" target="_top" xlink:title=" ">
<polygon fill="white" stroke="black" points="775,-304.5 775,-323.5 831,-323.5 831,-304.5 775,-304.5"/>
<text text-anchor="middle" x="803" y="-311.5" font-family="Helvetica,sans-Serif" font-size="10.00">linecount</text>
</a>
</g>
</g>
<!-- Node1&#45;&gt;Node35 -->
<g id="edge50" class="edge">
<title>Node1&#45;&gt;Node35</title>
<path fill="none" stroke="midnightblue" d="M856.79,-302.98C848.13,-304.79 839.11,-306.67 831.03,-308.36"/>
<polygon fill="midnightblue" stroke="midnightblue" points="857.63,-306.38 866.71,-300.91 856.2,-299.53 857.63,-306.38"/>
</g>
<!-- Node3 -->
<g id="node3" class="node">
<title>Node3</title>
<g id="a_node3"><a xlink:href="vi_8h.html#ace23fcf99b4a5bb0e4da7bfbeb292a7d" target="_top" xlink:title=" ">
<polygon fill="white" stroke="black" points="578,-437.5 578,-456.5 631,-456.5 631,-437.5 578,-437.5"/>
<text text-anchor="middle" x="604.5" y="-444.5" font-family="Helvetica,sans-Serif" font-size="10.00">lbuf_edit</text>
</a>
</g>
</g>
<!-- Node2&#45;&gt;Node3 -->
<g id="edge2" class="edge">
<title>Node2&#45;&gt;Node3</title>
<path fill="none" stroke="midnightblue" d="M692.77,-294.73C671.93,-331.08 626.68,-410.04 610.99,-437.42"/>
<polygon fill="midnightblue" stroke="midnightblue" points="696.01,-296.1 697.95,-285.68 689.94,-292.62 696.01,-296.1"/>
</g>
<!-- Node30 -->
<g id="node30" class="node">
<title>Node30</title>
<g id="a_node30"><a xlink:href="vi_8h.html#ae61371650c4ebd59ce9f51b82a4f334b" target="_top" xlink:title=" ">
<polygon fill="white" stroke="black" points="576.5,-38.5 576.5,-57.5 632.5,-57.5 632.5,-38.5 576.5,-38.5"/>
<text text-anchor="middle" x="604.5" y="-45.5" font-family="Helvetica,sans-Serif" font-size="10.00">lbuf_redo</text>
</a>
</g>
</g>
<!-- Node2&#45;&gt;Node30 -->
<g id="edge43" class="edge">
<title>Node2&#45;&gt;Node30</title>
<path fill="none" stroke="midnightblue" d="M695.46,-257.29C675.54,-210.95 624.45,-92.09 609.6,-57.55"/>
<polygon fill="midnightblue" stroke="midnightblue" points="692.25,-258.69 699.41,-266.49 698.68,-255.92 692.25,-258.69"/>
</g>
<!-- Node32 -->
<g id="node32" class="node">
<title>Node32</title>
<g id="a_node32"><a xlink:href="vi_8h.html#a223f8c6109580a4e06c8f104ac1346ae" target="_top" xlink:title=" ">
<polygon fill="white" stroke="black" points="575,-133.5 575,-152.5 634,-152.5 634,-133.5 575,-133.5"/>
<text text-anchor="middle" x="604.5" y="-140.5" font-family="Helvetica,sans-Serif" font-size="10.00">lbuf_undo</text>
</a>
</g>
</g>
<!-- Node2&#45;&gt;Node32 -->
<g id="edge46" class="edge">
<title>Node2&#45;&gt;Node32</title>
<path fill="none" stroke="midnightblue" d="M690.39,-258.21C669.46,-229.8 629.18,-175.14 612.75,-152.84"/>
<polygon fill="midnightblue" stroke="midnightblue" points="687.7,-260.46 696.45,-266.43 693.34,-256.31 687.7,-260.46"/>
</g>
<!-- Node4 -->
<g id="node4" class="node">
<title>Node4</title>
<g id="a_node4"><a xlink:href="ex_8c.html#a4cd0748447515b7a935e4bb41424a9e4" target="_top" xlink:title=" ">
<polygon fill="white" stroke="black" points="472,-570.5 472,-589.5 531,-589.5 531,-570.5 472,-570.5"/>
<text text-anchor="middle" x="501.5" y="-577.5" font-family="Helvetica,sans-Serif" font-size="10.00">ec_delete</text>
</a>
</g>
</g>
<!-- Node3&#45;&gt;Node4 -->
<g id="edge3" class="edge">
<title>Node3&#45;&gt;Node4</title>
<path fill="none" stroke="midnightblue" d="M596.54,-466.41C586.88,-491.05 567.36,-533.62 539,-561 535.2,-564.67 530.54,-567.81 525.85,-570.41"/>
<polygon fill="midnightblue" stroke="midnightblue" points="599.92,-467.35 600.17,-456.76 593.37,-464.89 599.92,-467.35"/>
</g>
<!-- Node5 -->
<g id="node5" class="node">
<title>Node5</title>
<g id="a_node5"><a xlink:href="ex_8c.html#adcd83f163f659bd2596bcfc25d74bde9" target="_top" xlink:title=" ">
<polygon fill="white" stroke="black" points="475,-532.5 475,-551.5 528,-551.5 528,-532.5 475,-532.5"/>
<text text-anchor="middle" x="501.5" y="-539.5" font-family="Helvetica,sans-Serif" font-size="10.00">ec_exec</text>
</a>
</g>
</g>
<!-- Node3&#45;&gt;Node5 -->
<g id="edge4" class="edge">
<title>Node3&#45;&gt;Node5</title>
<path fill="none" stroke="midnightblue" d="M591.15,-465.26C579.25,-481.86 560,-506.24 539,-523 534.53,-526.56 529.29,-529.76 524.2,-532.46"/>
<polygon fill="midnightblue" stroke="midnightblue" points="594.11,-467.14 596.97,-456.94 588.37,-463.13 594.11,-467.14"/>
</g>
<!-- Node14 -->
<g id="node14" class="node">
<title>Node14</title>
<g id="a_node14"><a xlink:href="ex_8c.html#a0908784dc65be2da119a6b72ef96dec2" target="_top" xlink:title=" ">
<polygon fill="white" stroke="black" points="473.5,-684.5 473.5,-703.5 529.5,-703.5 529.5,-684.5 473.5,-684.5"/>
<text text-anchor="middle" x="501.5" y="-691.5" font-family="Helvetica,sans-Serif" font-size="10.00">ec_insert</text>
</a>
</g>
</g>
<!-- Node3&#45;&gt;Node14 -->
<g id="edge16" class="edge">
<title>Node3&#45;&gt;Node14</title>
<path fill="none" stroke="midnightblue" d="M602.98,-467.17C600.87,-510.13 590.39,-611.88 539,-675 535.93,-678.77 531.92,-681.87 527.68,-684.4"/>
<polygon fill="midnightblue" stroke="midnightblue" points="606.49,-467.04 603.38,-456.91 599.49,-466.77 606.49,-467.04"/>
</g>
<!-- Node15 -->
<g id="node15" class="node">
<title>Node15</title>
<g id="a_node15"><a xlink:href="ex_8c.html#ab417867ff867aff9f7277229990cd1b8" target="_top" xlink:title=" ">
<polygon fill="white" stroke="black" points="478.5,-646.5 478.5,-665.5 524.5,-665.5 524.5,-646.5 478.5,-646.5"/>
<text text-anchor="middle" x="501.5" y="-653.5" font-family="Helvetica,sans-Serif" font-size="10.00">ec_put</text>
</a>
</g>
</g>
<!-- Node3&#45;&gt;Node15 -->
<g id="edge17" class="edge">
<title>Node3&#45;&gt;Node15</title>
<path fill="none" stroke="midnightblue" d="M601.66,-466.57C597.21,-503.87 582.78,-585.96 539,-637 535.19,-641.45 530.07,-644.99 524.88,-647.76"/>
<polygon fill="midnightblue" stroke="midnightblue" points="605.15,-466.83 602.74,-456.51 598.19,-466.08 605.15,-466.83"/>
</g>
<!-- Node16 -->
<g id="node16" class="node">
<title>Node16</title>
<g id="a_node16"><a xlink:href="ex_8c.html#add0e79e1f1e3d45f4eaa6fbe5c1ca443" target="_top" xlink:title=" ">
<polygon fill="white" stroke="black" points="371.5,-741.5 371.5,-760.5 422.5,-760.5 422.5,-741.5 371.5,-741.5"/>
<text text-anchor="middle" x="397" y="-748.5" font-family="Helvetica,sans-Serif" font-size="10.00">ec_read</text>
</a>
</g>
</g>
<!-- Node3&#45;&gt;Node16 -->
<g id="edge18" class="edge">
<title>Node3&#45;&gt;Node16</title>
<path fill="none" stroke="midnightblue" d="M602.42,-466.97C598.62,-528.77 583.6,-714.87 539,-751 506.19,-777.58 453.58,-768.34 422.74,-759.48"/>
<polygon fill="midnightblue" stroke="midnightblue" points="605.93,-466.83 603.02,-456.65 598.95,-466.43 605.93,-466.83"/>
</g>
<!-- Node17 -->
<g id="node17" class="node">
<title>Node17</title>
<g id="a_node17"><a xlink:href="ex_8c.html#aaf4e813ce4370aa859181d22de51576b" target="_top" xlink:title=" ">
<polygon fill="white" stroke="black" points="464,-608.5 464,-627.5 539,-627.5 539,-608.5 464,-608.5"/>
<text text-anchor="middle" x="501.5" y="-615.5" font-family="Helvetica,sans-Serif" font-size="10.00">ec_substitute</text>
</a>
</g>
</g>
<!-- Node3&#45;&gt;Node17 -->
<g id="edge19" class="edge">
<title>Node3&#45;&gt;Node17</title>
<path fill="none" stroke="midnightblue" d="M599.6,-466.93C592.53,-498.45 574.87,-560.19 539,-599 535.61,-602.67 531.34,-605.76 526.93,-608.3"/>
<polygon fill="midnightblue" stroke="midnightblue" points="603.1,-467.29 601.74,-456.78 596.25,-465.85 603.1,-467.29"/>
</g>
<!-- Node18 -->
<g id="node18" class="node">
<title>Node18</title>
<g id="a_node18"><a xlink:href="vi_8h.html#a73da27946270b153994b708a93095bc6" target="_top" xlink:title=" ">
<polygon fill="white" stroke="black" points="478.5,-722.5 478.5,-741.5 524.5,-741.5 524.5,-722.5 478.5,-722.5"/>
<text text-anchor="middle" x="501.5" y="-729.5" font-family="Helvetica,sans-Serif" font-size="10.00">lbuf_rd</text>
</a>
</g>
</g>
<!-- Node3&#45;&gt;Node18 -->
<g id="edge20" class="edge">
<title>Node3&#45;&gt;Node18</title>
<path fill="none" stroke="midnightblue" d="M604,-466.87C604.17,-514.56 598.41,-637.14 539,-713 535.3,-717.72 530.1,-721.39 524.78,-724.19"/>
<polygon fill="midnightblue" stroke="midnightblue" points="607.5,-466.62 603.86,-456.67 600.5,-466.72 607.5,-466.62"/>
</g>
<!-- Node20 -->
<g id="node20" class="node">
<title>Node20</title>
<g id="a_node20"><a xlink:href="vi_8c.html#a8bb357a77ed61da8858f138c6fa672a6" target="_top" xlink:title=" ">
<polygon fill="white" stroke="black" points="270,-304.5 270,-323.5 326,-323.5 326,-304.5 270,-304.5"/>
<text text-anchor="middle" x="298" y="-311.5" font-family="Helvetica,sans-Serif" font-size="10.00">vc_insert</text>
</a>
</g>
</g>
<!-- Node3&#45;&gt;Node20 -->
<g id="edge24" class="edge">
<title>Node3&#45;&gt;Node20</title>
<path fill="none" stroke="midnightblue" d="M598.63,-427.55C590.89,-401.13 573.04,-354.7 539,-333 472.38,-290.54 373.32,-300.42 326.02,-308.5"/>
<polygon fill="midnightblue" stroke="midnightblue" points="595.26,-428.49 601.27,-437.22 602.01,-426.65 595.26,-428.49"/>
</g>
<!-- Node21 -->
<g id="node21" class="node">
<title>Node21</title>
<g id="a_node21"><a xlink:href="vi_8c.html#a3d105f7bfebd8365af5b66d6dedf184e" target="_top" xlink:title=" ">
<polygon fill="white" stroke="black" points="274.5,-266.5 274.5,-285.5 321.5,-285.5 321.5,-266.5 274.5,-266.5"/>
<text text-anchor="middle" x="298" y="-273.5" font-family="Helvetica,sans-Serif" font-size="10.00">vc_join</text>
</a>
</g>
</g>
<!-- Node3&#45;&gt;Node21 -->
<g id="edge26" class="edge">
<title>Node3&#45;&gt;Node21</title>
<path fill="none" stroke="midnightblue" d="M600.9,-427.36C595.56,-395.49 580.16,-333.06 539,-303 472.81,-254.65 367.75,-264.4 321.79,-271.71"/>
<polygon fill="midnightblue" stroke="midnightblue" points="597.44,-427.89 602.4,-437.26 604.37,-426.84 597.44,-427.89"/>
</g>
<!-- Node22 -->
<g id="node22" class="node">
<title>Node22</title>
<g id="a_node22"><a xlink:href="vi_8c.html#a7611a5bcfe4c4ddc58233c4c52a8fa16" target="_top" xlink:title=" ">
<polygon fill="white" stroke="black" points="169.5,-228.5 169.5,-247.5 215.5,-247.5 215.5,-228.5 169.5,-228.5"/>
<text text-anchor="middle" x="192.5" y="-235.5" font-family="Helvetica,sans-Serif" font-size="10.00">vc_put</text>
</a>
</g>
</g>
<!-- Node3&#45;&gt;Node22 -->
<g id="edge28" class="edge">
<title>Node3&#45;&gt;Node22</title>
<path fill="none" stroke="midnightblue" d="M602.84,-427.02C600.4,-389.25 589.27,-307.72 539,-269 488.31,-229.95 283.71,-234.37 215.65,-237"/>
<polygon fill="midnightblue" stroke="midnightblue" points="599.35,-427.42 603.35,-437.24 606.34,-427.07 599.35,-427.42"/>
</g>
<!-- Node23 -->
<g id="node23" class="node">
<title>Node23</title>
<g id="a_node23"><a xlink:href="vi_8c.html#a3635843354dbb31e3c00efcd5798535a" target="_top" xlink:title=" ">
<polygon fill="white" stroke="black" points="266,-190.5 266,-209.5 330,-209.5 330,-190.5 266,-190.5"/>
<text text-anchor="middle" x="298" y="-197.5" font-family="Helvetica,sans-Serif" font-size="10.00">vc_replace</text>
</a>
</g>
</g>
<!-- Node3&#45;&gt;Node23 -->
<g id="edge30" class="edge">
<title>Node3&#45;&gt;Node23</title>
<path fill="none" stroke="midnightblue" d="M600.67,-427.48C593.12,-378.14 570.82,-250.5 539,-224 479.47,-174.42 380.65,-183.97 330.41,-193.07"/>
<polygon fill="midnightblue" stroke="midnightblue" points="597.23,-428.12 602.17,-437.5 604.16,-427.09 597.23,-428.12"/>
</g>
<!-- Node24 -->
<g id="node24" class="node">
<title>Node24</title>
<g id="a_node24"><a xlink:href="vi_8c.html#a4e8a00c8cdffacf0c69c3901cdcdf059" target="_top" xlink:title=" ">
<polygon fill="white" stroke="black" points="476.5,-418.5 476.5,-437.5 526.5,-437.5 526.5,-418.5 476.5,-418.5"/>
<text text-anchor="middle" x="501.5" y="-425.5" font-family="Helvetica,sans-Serif" font-size="10.00">vi_case</text>
</a>
</g>
</g>
<!-- Node3&#45;&gt;Node24 -->
<g id="edge32" class="edge">
<title>Node3&#45;&gt;Node24</title>
<path fill="none" stroke="midnightblue" d="M567.76,-440.28C554.2,-437.73 539.08,-434.88 526.81,-432.57"/>
<polygon fill="midnightblue" stroke="midnightblue" points="567.28,-443.75 577.75,-442.16 568.57,-436.87 567.28,-443.75"/>
</g>
<!-- Node26 -->
<g id="node26" class="node">
<title>Node26</title>
<g id="a_node26"><a xlink:href="vi_8c.html#ae37b094c3bb647d8c1a4ac4e858ce518" target="_top" xlink:title=" ">
<polygon fill="white" stroke="black" points="471,-380.5 471,-399.5 532,-399.5 532,-380.5 471,-380.5"/>
<text text-anchor="middle" x="501.5" y="-387.5" font-family="Helvetica,sans-Serif" font-size="10.00">vi_change</text>
</a>
</g>
</g>
<!-- Node3&#45;&gt;Node26 -->
<g id="edge35" class="edge">
<title>Node3&#45;&gt;Node26</title>
<path fill="none" stroke="midnightblue" d="M579.15,-432.25C567.15,-425.08 552.41,-416.43 539,-409 533.38,-405.88 527.2,-402.61 521.54,-399.67"/>
<polygon fill="midnightblue" stroke="midnightblue" points="577.35,-435.25 587.73,-437.4 580.96,-429.25 577.35,-435.25"/>
</g>
<!-- Node27 -->
<g id="node27" class="node">
<title>Node27</title>
<g id="a_node27"><a xlink:href="vi_8c.html#abfa30fc2e2b4b8b24e2ee5d4bd54f2eb" target="_top" xlink:title=" ">
<polygon fill="white" stroke="black" points="473.5,-494.5 473.5,-513.5 529.5,-513.5 529.5,-494.5 473.5,-494.5"/>
<text text-anchor="middle" x="501.5" y="-501.5" font-family="Helvetica,sans-Serif" font-size="10.00">vi_delete</text>
</a>
</g>
</g>
<!-- Node3&#45;&gt;Node27 -->
<g id="edge37" class="edge">
<title>Node3&#45;&gt;Node27</title>
<path fill="none" stroke="midnightblue" d="M579.15,-461.75C567.15,-468.92 552.41,-477.57 539,-485 533.38,-488.12 527.2,-491.39 521.54,-494.33"/>
<polygon fill="midnightblue" stroke="midnightblue" points="580.96,-464.75 587.73,-456.6 577.35,-458.75 580.96,-464.75"/>
</g>
<!-- Node28 -->
<g id="node28" class="node">
<title>Node28</title>
<g id="a_node28"><a xlink:href="vi_8c.html#ab8e0c9b9d2ef5161c6a3a8828606df5f" target="_top" xlink:title=" ">
<polygon fill="white" stroke="black" points="478,-456.5 478,-475.5 525,-475.5 525,-456.5 478,-456.5"/>
<text text-anchor="middle" x="501.5" y="-463.5" font-family="Helvetica,sans-Serif" font-size="10.00">vi_pipe</text>
</a>
</g>
</g>
<!-- Node3&#45;&gt;Node28 -->
<g id="edge39" class="edge">
<title>Node3&#45;&gt;Node28</title>
<path fill="none" stroke="midnightblue" d="M567.78,-453.72C553.58,-456.39 537.67,-459.38 525.11,-461.75"/>
<polygon fill="midnightblue" stroke="midnightblue" points="568.57,-457.13 577.75,-451.84 567.28,-450.25 568.57,-457.13"/>
</g>
<!-- Node29 -->
<g id="node29" class="node">
<title>Node29</title>
<g id="a_node29"><a xlink:href="vi_8c.html#a48860be78b002b73335ae1b47dd56929" target="_top" xlink:title=" ">
<polygon fill="white" stroke="black" points="477.5,-342.5 477.5,-361.5 525.5,-361.5 525.5,-342.5 477.5,-342.5"/>
<text text-anchor="middle" x="501.5" y="-349.5" font-family="Helvetica,sans-Serif" font-size="10.00">vi_shift</text>
</a>
</g>
</g>
<!-- Node3&#45;&gt;Node29 -->
<g id="edge41" class="edge">
<title>Node3&#45;&gt;Node29</title>
<path fill="none" stroke="midnightblue" d="M591.15,-428.74C579.25,-412.14 560,-387.76 539,-371 534.53,-367.44 529.29,-364.24 524.2,-361.54"/>
<polygon fill="midnightblue" stroke="midnightblue" points="588.37,-430.87 596.97,-437.06 594.11,-426.86 588.37,-430.87"/>
</g>
<!-- Node6 -->
<g id="node6" class="node">
<title>Node6</title>
<g id="a_node6"><a xlink:href="ex_8c.html#a7d848d20211b2e1c868dde98ec5dfae9" target="_top" xlink:title=" ">
<polygon fill="white" stroke="black" points="373.5,-508.5 373.5,-527.5 420.5,-527.5 420.5,-508.5 373.5,-508.5"/>
<text text-anchor="middle" x="397" y="-515.5" font-family="Helvetica,sans-Serif" font-size="10.00">ex_line</text>
</a>
</g>
</g>
<!-- Node5&#45;&gt;Node6 -->
<g id="edge5" class="edge">
<title>Node5&#45;&gt;Node6</title>
<path fill="none" stroke="midnightblue" d="M465.12,-533.72C450.45,-530.28 433.85,-526.39 420.83,-523.35"/>
<polygon fill="midnightblue" stroke="midnightblue" points="464.36,-537.13 474.9,-536.01 465.96,-530.32 464.36,-537.13"/>
</g>
<!-- Node7 -->
<g id="node7" class="node">
<title>Node7</title>
<g id="a_node7"><a xlink:href="ex_8c.html#ab15ebfef933256d9741128e2ddf3f9b5" target="_top" xlink:title=" ">
<polygon fill="white" stroke="black" points="271.5,-470.5 271.5,-489.5 324.5,-489.5 324.5,-470.5 271.5,-470.5"/>
<text text-anchor="middle" x="298" y="-477.5" font-family="Helvetica,sans-Serif" font-size="10.00">ex_exec</text>
</a>
</g>
</g>
<!-- Node6&#45;&gt;Node7 -->
<g id="edge6" class="edge">
<title>Node6&#45;&gt;Node7</title>
<path fill="none" stroke="midnightblue" d="M363.45,-505.25C350.4,-500.14 335.63,-494.35 323.52,-489.61"/>
<polygon fill="midnightblue" stroke="midnightblue" points="362.42,-508.61 373.01,-508.99 364.98,-502.09 362.42,-508.61"/>
</g>
<!-- Node8 -->
<g id="node8" class="node">
<title>Node8</title>
<g id="a_node8"><a xlink:href="ex_8c.html#a70c571bdde329a65e216c19b4aeaa628" target="_top" xlink:title=" ">
<polygon fill="white" stroke="black" points="167.5,-496.5 167.5,-515.5 217.5,-515.5 217.5,-496.5 167.5,-496.5"/>
<text text-anchor="middle" x="192.5" y="-503.5" font-family="Helvetica,sans-Serif" font-size="10.00">ec_glob</text>
</a>
</g>
</g>
<!-- Node7&#45;&gt;Node8 -->
<g id="edge7" class="edge">
<title>Node7&#45;&gt;Node8</title>
<path fill="none" stroke="midnightblue" d="M261.33,-488.96C246.94,-492.58 230.7,-496.65 217.72,-499.91"/>
<polygon fill="midnightblue" stroke="midnightblue" points="262.57,-492.26 271.42,-486.43 260.86,-485.47 262.57,-492.26"/>
</g>
<!-- Node9 -->
<g id="node9" class="node">
<title>Node9</title>
<g id="a_node9"><a xlink:href="vi_8h.html#aa75c73cccb4878ec06ea5bf5b1b02295" target="_top" xlink:title=" ">
<polygon fill="white" stroke="black" points="155,-446.5 155,-465.5 230,-465.5 230,-446.5 155,-446.5"/>
<text text-anchor="middle" x="192.5" y="-453.5" font-family="Helvetica,sans-Serif" font-size="10.00">ex_command</text>
</a>
</g>
</g>
<!-- Node7&#45;&gt;Node9 -->
<g id="edge9" class="edge">
<title>Node7&#45;&gt;Node9</title>
<path fill="none" stroke="midnightblue" d="M261.63,-471.8C251.46,-469.44 240.36,-466.87 230.12,-464.49"/>
<polygon fill="midnightblue" stroke="midnightblue" points="260.88,-475.22 271.42,-474.07 262.46,-468.4 260.88,-475.22"/>
</g>
<!-- Node8&#45;&gt;Node6 -->
<g id="edge8" class="edge">
<title>Node8&#45;&gt;Node6</title>
<path fill="none" stroke="midnightblue" d="M227.66,-508.02C269.06,-510.48 337.67,-514.54 373.16,-516.65"/>
<polygon fill="midnightblue" stroke="midnightblue" points="227.69,-504.52 217.51,-507.42 227.28,-511.51 227.69,-504.52"/>
</g>
<!-- Node10 -->
<g id="node10" class="node">
<title>Node10</title>
<g id="a_node10"><a xlink:href="vi_8h.html#ac395e51f25330a6e6033b6d0d22b2076" target="_top" xlink:title=" ">
<polygon fill="white" stroke="black" points="82,-427.5 82,-446.5 111,-446.5 111,-427.5 82,-427.5"/>
<text text-anchor="middle" x="96.5" y="-434.5" font-family="Helvetica,sans-Serif" font-size="10.00">ex</text>
</a>
</g>
</g>
<!-- Node9&#45;&gt;Node10 -->
<g id="edge10" class="edge">
<title>Node9&#45;&gt;Node10</title>
<path fill="none" stroke="midnightblue" d="M144.73,-446.55C132.54,-444.08 120.33,-441.61 111.38,-439.8"/>
<polygon fill="midnightblue" stroke="midnightblue" points="144.39,-450.05 154.89,-448.6 145.78,-443.19 144.39,-450.05"/>
</g>
<!-- Node12 -->
<g id="node12" class="node">
<title>Node12</title>
<g id="a_node12"><a xlink:href="vi_8h.html#abe53b5c10f94f20cd5ed024371615fa1" target="_top" xlink:title=" ">
<polygon fill="white" stroke="black" points="74,-465.5 74,-484.5 119,-484.5 119,-465.5 74,-465.5"/>
<text text-anchor="middle" x="96.5" y="-472.5" font-family="Helvetica,sans-Serif" font-size="10.00">ex_init</text>
</a>
</g>
</g>
<!-- Node9&#45;&gt;Node12 -->
<g id="edge12" class="edge">
<title>Node9&#45;&gt;Node12</title>
<path fill="none" stroke="midnightblue" d="M144.85,-465.43C135.89,-467.24 126.91,-469.06 119.21,-470.61"/>
<polygon fill="midnightblue" stroke="midnightblue" points="145.78,-468.81 154.89,-463.4 144.39,-461.95 145.78,-468.81"/>
</g>
<!-- Node13 -->
<g id="node13" class="node">
<title>Node13</title>
<g id="a_node13"><a xlink:href="vi_8c.html#a8d808e0f3453afe6600673ee1ea5f828" target="_top" xlink:title=" ">
<polygon fill="white" stroke="black" points="82,-266.5 82,-285.5 111,-285.5 111,-266.5 82,-266.5"/>
<text text-anchor="middle" x="96.5" y="-273.5" font-family="Helvetica,sans-Serif" font-size="10.00">vi</text>
</a>
</g>
</g>
<!-- Node9&#45;&gt;Node13 -->
<g id="edge14" class="edge">
<title>Node9&#45;&gt;Node13</title>
<path fill="none" stroke="midnightblue" d="M181.76,-437.36C161.96,-399.44 117.59,-314.48 102.58,-285.73"/>
<polygon fill="midnightblue" stroke="midnightblue" points="178.71,-439.08 186.45,-446.32 184.92,-435.84 178.71,-439.08"/>
</g>
<!-- Node11 -->
<g id="node11" class="node">
<title>Node11</title>
<g id="a_node11"><a xlink:href="vi_8c.html#a0ddf1224851353fc92bfbff6f499fa97" target="_top" xlink:title=" ">
<polygon fill="white" stroke="black" points="0,-427.5 0,-446.5 38,-446.5 38,-427.5 0,-427.5"/>
<text text-anchor="middle" x="19" y="-434.5" font-family="Helvetica,sans-Serif" font-size="10.00">main</text>
</a>
</g>
</g>
<!-- Node10&#45;&gt;Node11 -->
<g id="edge11" class="edge">
<title>Node10&#45;&gt;Node11</title>
<path fill="none" stroke="midnightblue" d="M71.55,-437C60.69,-437 48.07,-437 38.04,-437"/>
<polygon fill="midnightblue" stroke="midnightblue" points="71.65,-440.5 81.65,-437 71.65,-433.5 71.65,-440.5"/>
</g>
<!-- Node12&#45;&gt;Node11 -->
<g id="edge13" class="edge">
<title>Node12&#45;&gt;Node11</title>
<path fill="none" stroke="midnightblue" d="M67.4,-460.86C57.57,-455.91 46.79,-450.49 38.01,-446.06"/>
<polygon fill="midnightblue" stroke="midnightblue" points="65.94,-464.04 76.45,-465.41 69.09,-457.79 65.94,-464.04"/>
</g>
<!-- Node13&#45;&gt;Node11 -->
<g id="edge15" class="edge">
<title>Node13&#45;&gt;Node11</title>
<path fill="none" stroke="midnightblue" d="M86.59,-295C70.42,-329.48 36.79,-401.19 24.57,-427.26"/>
<polygon fill="midnightblue" stroke="midnightblue" points="89.93,-296.13 91,-285.59 83.59,-293.16 89.93,-296.13"/>
</g>
<!-- Node18&#45;&gt;Node16 -->
<g id="edge23" class="edge">
<title>Node18&#45;&gt;Node16</title>
<path fill="none" stroke="midnightblue" d="M468.08,-738.01C453.4,-740.73 436.33,-743.89 422.71,-746.42"/>
<polygon fill="midnightblue" stroke="midnightblue" points="469.06,-741.39 478.26,-736.12 467.79,-734.5 469.06,-741.39"/>
</g>
<!-- Node19 -->
<g id="node19" class="node">
<title>Node19</title>
<g id="a_node19"><a xlink:href="ex_8c.html#a8059390ad69866fa8e14bdb2521d4dc2" target="_top" xlink:title=" ">
<polygon fill="white" stroke="black" points="168.5,-584.5 168.5,-603.5 216.5,-603.5 216.5,-584.5 168.5,-584.5"/>
<text text-anchor="middle" x="192.5" y="-591.5" font-family="Helvetica,sans-Serif" font-size="10.00">ec_edit</text>
</a>
</g>
</g>
<!-- Node18&#45;&gt;Node19 -->
<g id="edge21" class="edge">
<title>Node18&#45;&gt;Node19</title>
<path fill="none" stroke="midnightblue" d="M469.59,-718.11C407.24,-690.08 267.83,-627.41 214.66,-603.51"/>
<polygon fill="midnightblue" stroke="midnightblue" points="468.36,-721.39 478.91,-722.3 471.23,-715 468.36,-721.39"/>
</g>
<!-- Node19&#45;&gt;Node12 -->
<g id="edge22" class="edge">
<title>Node19&#45;&gt;Node12</title>
<path fill="none" stroke="midnightblue" d="M177.4,-576.15C157.21,-550.59 120.75,-504.43 105.04,-484.54"/>
<polygon fill="midnightblue" stroke="midnightblue" points="174.86,-578.58 183.81,-584.26 180.36,-574.25 174.86,-578.58"/>
</g>
<!-- Node20&#45;&gt;Node13 -->
<g id="edge25" class="edge">
<title>Node20&#45;&gt;Node13</title>
<path fill="none" stroke="midnightblue" d="M259.93,-308.48C231.19,-304.02 190.44,-297.3 155,-290 139.91,-286.89 122.76,-282.62 111.15,-279.61"/>
<polygon fill="midnightblue" stroke="midnightblue" points="259.52,-311.95 269.93,-310.01 260.58,-305.04 259.52,-311.95"/>
</g>
<!-- Node21&#45;&gt;Node13 -->
<g id="edge27" class="edge">
<title>Node21&#45;&gt;Node13</title>
<path fill="none" stroke="midnightblue" d="M264.1,-276C219.68,-276 142.49,-276 111.23,-276"/>
<polygon fill="midnightblue" stroke="midnightblue" points="264.11,-279.5 274.11,-276 264.11,-272.5 264.11,-279.5"/>
</g>
<!-- Node22&#45;&gt;Node13 -->
<g id="edge29" class="edge">
<title>Node22&#45;&gt;Node13</title>
<path fill="none" stroke="midnightblue" d="M159.88,-250.78C143.32,-257.48 123.9,-265.33 111.18,-270.47"/>
<polygon fill="midnightblue" stroke="midnightblue" points="161.26,-254 169.22,-247.01 158.64,-247.51 161.26,-254"/>
</g>
<!-- Node23&#45;&gt;Node13 -->
<g id="edge31" class="edge">
<title>Node23&#45;&gt;Node13</title>
<path fill="none" stroke="midnightblue" d="M255.37,-198.7C225.94,-199.38 186.31,-203.6 155,-219 132.55,-230.04 113.52,-253.29 104.01,-266.42"/>
<polygon fill="midnightblue" stroke="midnightblue" points="255.76,-202.2 265.72,-198.6 255.69,-195.2 255.76,-202.2"/>
</g>
<!-- Node25 -->
<g id="node25" class="node">
<title>Node25</title>
<g id="a_node25"><a xlink:href="vi_8c.html#a06cbc6eb843436a0e77e07cbab0c4538" target="_top" xlink:title=" ">
<polygon fill="white" stroke="black" points="366,-399.5 366,-418.5 428,-418.5 428,-399.5 366,-399.5"/>
<text text-anchor="middle" x="397" y="-406.5" font-family="Helvetica,sans-Serif" font-size="10.00">vc_motion</text>
</a>
</g>
</g>
<!-- Node24&#45;&gt;Node25 -->
<g id="edge33" class="edge">
<title>Node24&#45;&gt;Node25</title>
<path fill="none" stroke="midnightblue" d="M466.49,-421.69C454.09,-419.4 440.16,-416.82 428.12,-414.58"/>
<polygon fill="midnightblue" stroke="midnightblue" points="466,-425.16 476.47,-423.55 467.27,-418.28 466,-425.16"/>
</g>
<!-- Node25&#45;&gt;Node13 -->
<g id="edge34" class="edge">
<title>Node25&#45;&gt;Node13</title>
<path fill="none" stroke="midnightblue" d="M358.59,-395.91C310.49,-378.61 224.86,-346.18 155,-311 139.55,-303.22 122.75,-292.74 111.32,-285.28"/>
<polygon fill="midnightblue" stroke="midnightblue" points="357.67,-399.3 368.26,-399.37 360.02,-392.71 357.67,-399.3"/>
</g>
<!-- Node26&#45;&gt;Node25 -->
<g id="edge36" class="edge">
<title>Node26&#45;&gt;Node25</title>
<path fill="none" stroke="midnightblue" d="M460.79,-397.36C449.99,-399.36 438.48,-401.5 428.29,-403.38"/>
<polygon fill="midnightblue" stroke="midnightblue" points="461.66,-400.76 470.85,-395.5 460.38,-393.88 461.66,-400.76"/>
</g>
<!-- Node27&#45;&gt;Node25 -->
<g id="edge38" class="edge">
<title>Node27&#45;&gt;Node25</title>
<path fill="none" stroke="midnightblue" d="M469.78,-489.13C467.77,-487.82 465.82,-486.44 464,-485 438.75,-465.09 415.7,-434.54 404.73,-418.93"/>
<polygon fill="midnightblue" stroke="midnightblue" points="468.43,-492.39 478.83,-494.43 471.97,-486.35 468.43,-492.39"/>
</g>
<!-- Node28&#45;&gt;Node25 -->
<g id="edge40" class="edge">
<title>Node28&#45;&gt;Node25</title>
<path fill="none" stroke="midnightblue" d="M472.93,-451.81C469.91,-450.2 466.88,-448.58 464,-447 446.84,-437.6 427.46,-426.37 414.17,-418.56"/>
<polygon fill="midnightblue" stroke="midnightblue" points="471.37,-454.94 481.85,-456.49 474.62,-448.74 471.37,-454.94"/>
</g>
<!-- Node29&#45;&gt;Node25 -->
<g id="edge42" class="edge">
<title>Node29&#45;&gt;Node25</title>
<path fill="none" stroke="midnightblue" d="M472.93,-366.19C469.91,-367.8 466.88,-369.42 464,-371 446.84,-380.4 427.46,-391.63 414.17,-399.44"/>
<polygon fill="midnightblue" stroke="midnightblue" points="474.62,-369.26 481.85,-361.51 471.37,-363.06 474.62,-369.26"/>
</g>
<!-- Node30&#45;&gt;Node13 -->
<g id="edge45" class="edge">
<title>Node30&#45;&gt;Node13</title>
<path fill="none" stroke="midnightblue" d="M566.13,-48C524.94,-48 456.75,-48 398,-48 398,-48 398,-48 297,-48 178.92,-48 114.52,-223.34 100.45,-266.49"/>
<polygon fill="midnightblue" stroke="midnightblue" points="566.24,-51.5 576.24,-48 566.24,-44.5 566.24,-51.5"/>
</g>
<!-- Node31 -->
<g id="node31" class="node">
<title>Node31</title>
<g id="a_node31"><a xlink:href="ex_8c.html#a39d0bccce28c5531c38fa56b7882857d" target="_top" xlink:title=" ">
<polygon fill="white" stroke="black" points="476,-0.5 476,-19.5 527,-19.5 527,-0.5 476,-0.5"/>
<text text-anchor="middle" x="501.5" y="-7.5" font-family="Helvetica,sans-Serif" font-size="10.00">ec_redo</text>
</a>
</g>
</g>
<!-- Node30&#45;&gt;Node31 -->
<g id="edge44" class="edge">
<title>Node30&#45;&gt;Node31</title>
<path fill="none" stroke="midnightblue" d="M568.49,-34.83C554.91,-29.72 539.68,-23.99 527.28,-19.32"/>
<polygon fill="midnightblue" stroke="midnightblue" points="567.42,-38.17 578.01,-38.41 569.89,-31.61 567.42,-38.17"/>
</g>
<!-- Node32&#45;&gt;Node13 -->
<g id="edge49" class="edge">
<title>Node32&#45;&gt;Node13</title>
<path fill="none" stroke="midnightblue" d="M564.83,-148.72C523.6,-154.31 456.34,-162 398,-162 398,-162 398,-162 297,-162 232,-162 208.95,-160.75 155,-197 128.39,-214.88 109.73,-249.42 101.79,-266.27"/>
<polygon fill="midnightblue" stroke="midnightblue" points="565.56,-152.15 574.99,-147.31 564.6,-145.22 565.56,-152.15"/>
</g>
<!-- Node33 -->
<g id="node33" class="node">
<title>Node33</title>
<g id="a_node33"><a xlink:href="ex_8c.html#a0f6c94c34d1bc97a9051aceb7bda7ff0" target="_top" xlink:title=" ">
<polygon fill="white" stroke="black" points="475,-114.5 475,-133.5 528,-133.5 528,-114.5 475,-114.5"/>
<text text-anchor="middle" x="501.5" y="-121.5" font-family="Helvetica,sans-Serif" font-size="10.00">ec_undo</text>
</a>
</g>
</g>
<!-- Node32&#45;&gt;Node33 -->
<g id="edge47" class="edge">
<title>Node32&#45;&gt;Node33</title>
<path fill="none" stroke="midnightblue" d="M564.81,-135.72C552.53,-133.41 539.27,-130.92 528.14,-128.82"/>
<polygon fill="midnightblue" stroke="midnightblue" points="564.35,-139.2 574.83,-137.61 565.65,-132.32 564.35,-139.2"/>
</g>
<!-- Node34 -->
<g id="node34" class="node">
<title>Node34</title>
<g id="a_node34"><a xlink:href="ex_8c.html#a0d61b907b63c575f18728b9b166f2b16" target="_top" xlink:title=" ">
<polygon fill="white" stroke="black" points="472,-76.5 472,-95.5 531,-95.5 531,-76.5 472,-76.5"/>
<text text-anchor="middle" x="501.5" y="-83.5" font-family="Helvetica,sans-Serif" font-size="10.00">ec_undo1</text>
</a>
</g>
</g>
<!-- Node32&#45;&gt;Node34 -->
<g id="edge48" class="edge">
<title>Node32&#45;&gt;Node34</title>
<path fill="none" stroke="midnightblue" d="M579.15,-128.25C567.15,-121.08 552.41,-112.43 539,-105 533.38,-101.88 527.2,-98.61 521.54,-95.67"/>
<polygon fill="midnightblue" stroke="midnightblue" points="577.35,-131.25 587.73,-133.4 580.96,-125.25 577.35,-131.25"/>
</g>
<!-- Node35&#45;&gt;Node2 -->
<g id="edge53" class="edge">
<title>Node35&#45;&gt;Node2</title>
<path fill="none" stroke="midnightblue" d="M768.32,-300.74C755.65,-295.75 741.5,-290.18 729.84,-285.59"/>
<polygon fill="midnightblue" stroke="midnightblue" points="767.06,-304 777.65,-304.41 769.63,-297.49 767.06,-304"/>
</g>
<!-- Node36 -->
<g id="node36" class="node">
<title>Node36</title>
<g id="a_node36"><a xlink:href="lbuf_8c.html#a7882079a375d5591a9f384a80a5599ff" target="_top" xlink:title=" ">
<polygon fill="white" stroke="black" points="679,-370.5 679,-389.5 730,-389.5 730,-370.5 679,-370.5"/>
<text text-anchor="middle" x="704.5" y="-377.5" font-family="Helvetica,sans-Serif" font-size="10.00">lbuf_opt</text>
</a>
</g>
</g>
<!-- Node35&#45;&gt;Node36 -->
<g id="edge51" class="edge">
<title>Node35&#45;&gt;Node36</title>
<path fill="none" stroke="midnightblue" d="M779.3,-329.52C760.76,-342.2 735.15,-359.72 719.48,-370.44"/>
<polygon fill="midnightblue" stroke="midnightblue" points="781.48,-332.27 787.76,-323.74 777.53,-326.49 781.48,-332.27"/>
</g>
<!-- Node36&#45;&gt;Node3 -->
<g id="edge52" class="edge">
<title>Node36&#45;&gt;Node3</title>
<path fill="none" stroke="midnightblue" d="M681.1,-395.31C662.15,-408.27 635.59,-426.43 619.51,-437.42"/>
<polygon fill="midnightblue" stroke="midnightblue" points="683.18,-398.13 689.46,-389.6 679.23,-392.35 683.18,-398.13"/>
</g>
</g>
</svg>
