<?xml version="1.0" encoding="UTF-8" standalone="no"?>
<!DOCTYPE svg PUBLIC "-//W3C//DTD SVG 1.1//EN"
 "http://www.w3.org/Graphics/SVG/1.1/DTD/svg11.dtd">
<!-- Generated by graphviz version 2.44.1 (20200629.0846)
 -->
<!-- Title: lbuf_pair Pages: 1 -->
<svg width="424pt" height="256pt"
 viewBox="0.00 0.00 424.00 256.00" xmlns="http://www.w3.org/2000/svg" xmlns:xlink="http://www.w3.org/1999/xlink">
<g id="graph0" class="graph" transform="scale(1 1) rotate(0) translate(4 252)">
<title>lbuf_pair</title>
<polygon fill="white" stroke="transparent" points="-4,4 -4,-252 420,-252 420,4 -4,4"/>
<!-- Node1 -->
<g id="node1" class="node">
<title>Node1</title>
<g id="a_node1"><a xlink:title=" ">
<polygon fill="#bfbfbf" stroke="black" points="0,-76.5 0,-95.5 53,-95.5 53,-76.5 0,-76.5"/>
<text text-anchor="middle" x="26.5" y="-83.5" font-family="Helvetica,sans-Serif" font-size="10.00">lbuf_pair</text>
</a>
</g>
</g>
<!-- Node2 -->
<g id="node2" class="node">
<title>Node2</title>
<g id="a_node2"><a xlink:href="mot_8c.html#a1075d9da002a03e0730292ac1948a7b8" target="_top" xlink:title=" ">
<polygon fill="white" stroke="black" points="91.5,-38.5 91.5,-57.5 142.5,-57.5 142.5,-38.5 91.5,-38.5"/>
<text text-anchor="middle" x="117" y="-45.5" font-family="Helvetica,sans-Serif" font-size="10.00">lbuf_chr</text>
</a>
</g>
</g>
<!-- Node1&#45;&gt;Node2 -->
<g id="edge1" class="edge">
<title>Node1&#45;&gt;Node2</title>
<path fill="none" stroke="midnightblue" d="M49.83,-76.41C60.31,-71.91 72.99,-66.47 84.43,-61.56"/>
<polygon fill="midnightblue" stroke="midnightblue" points="85.87,-64.75 93.67,-57.59 83.11,-58.32 85.87,-64.75"/>
</g>
<!-- Node3 -->
<g id="node3" class="node">
<title>Node3</title>
<g id="a_node3"><a xlink:href="lbuf_8c.html#ad0f45475ddc6eb82ecedf63ed1b914d4" target="_top" xlink:title=" ">
<polygon fill="white" stroke="black" points="281,-114.5 281,-133.5 332,-133.5 332,-114.5 281,-114.5"/>
<text text-anchor="middle" x="306.5" y="-121.5" font-family="Helvetica,sans-Serif" font-size="10.00">lbuf_get</text>
</a>
</g>
</g>
<!-- Node1&#45;&gt;Node3 -->
<g id="edge6" class="edge">
<title>Node1&#45;&gt;Node3</title>
<path fill="none" stroke="midnightblue" d="M53.16,-89.51C103.27,-96.36 214.19,-111.52 270.8,-119.26"/>
<polygon fill="midnightblue" stroke="midnightblue" points="270.33,-122.72 280.71,-120.61 271.27,-115.79 270.33,-122.72"/>
</g>
<!-- Node7 -->
<g id="node7" class="node">
<title>Node7</title>
<g id="a_node7"><a xlink:href="mot_8c.html#a62880e253fa1e427ff400dfbc1cbd2cc" target="_top" xlink:title=" ">
<polygon fill="white" stroke="black" points="89,-152.5 89,-171.5 145,-171.5 145,-152.5 89,-152.5"/>
<text text-anchor="middle" x="117" y="-159.5" font-family="Helvetica,sans-Serif" font-size="10.00">lbuf_next</text>
</a>
</g>
</g>
<!-- Node1&#45;&gt;Node7 -->
<g id="edge7" class="edge">
<title>Node1&#45;&gt;Node7</title>
<path fill="none" stroke="midnightblue" d="M38.71,-95.63C53.34,-108.19 79.16,-130.37 96.91,-145.6"/>
<polygon fill="midnightblue" stroke="midnightblue" points="95.02,-148.59 104.88,-152.45 99.58,-143.28 95.02,-148.59"/>
</g>
<!-- Node2&#45;&gt;Node3 -->
<g id="edge2" class="edge">
<title>Node2&#45;&gt;Node3</title>
<path fill="none" stroke="midnightblue" d="M142.57,-48.89C169.04,-50.68 211.84,-56.05 245,-72 262.44,-80.39 278.87,-95.12 290.19,-106.76"/>
<polygon fill="midnightblue" stroke="midnightblue" points="287.78,-109.3 297.17,-114.21 292.89,-104.52 287.78,-109.3"/>
</g>
<!-- Node4 -->
<g id="node4" class="node">
<title>Node4</title>
<g id="a_node4"><a xlink:href="uc_8c.html#a2fecd1fc98475ece5f529da3315a9553" target="_top" xlink:title=" ">
<polygon fill="white" stroke="black" points="190,-0.5 190,-19.5 236,-19.5 236,-0.5 190,-0.5"/>
<text text-anchor="middle" x="213" y="-7.5" font-family="Helvetica,sans-Serif" font-size="10.00">uc_chr</text>
</a>
</g>
</g>
<!-- Node2&#45;&gt;Node4 -->
<g id="edge3" class="edge">
<title>Node2&#45;&gt;Node4</title>
<path fill="none" stroke="midnightblue" d="M141.72,-38.41C153.51,-33.65 167.91,-27.82 180.6,-22.69"/>
<polygon fill="midnightblue" stroke="midnightblue" points="181.94,-25.93 189.9,-18.93 179.32,-19.44 181.94,-25.93"/>
</g>
<!-- Node5 -->
<g id="node5" class="node">
<title>Node5</title>
<g id="a_node5"><a xlink:href="uc_8c.html#a79c7c44c06c1febff5680c19667e2676" target="_top" xlink:title=" ">
<polygon fill="white" stroke="black" points="281,-38.5 281,-57.5 332,-57.5 332,-38.5 281,-38.5"/>
<text text-anchor="middle" x="306.5" y="-45.5" font-family="Helvetica,sans-Serif" font-size="10.00">uc_next</text>
</a>
</g>
</g>
<!-- Node4&#45;&gt;Node5 -->
<g id="edge4" class="edge">
<title>Node4&#45;&gt;Node5</title>
<path fill="none" stroke="midnightblue" d="M236.15,-19.2C247.25,-23.81 260.9,-29.48 273.15,-34.57"/>
<polygon fill="midnightblue" stroke="midnightblue" points="272.02,-37.89 282.6,-38.49 274.71,-31.42 272.02,-37.89"/>
</g>
<!-- Node6 -->
<g id="node6" class="node">
<title>Node6</title>
<g id="a_node6"><a xlink:href="uc_8c.html#a616e24870a58b86644c34ee077faca11" target="_top" xlink:title=" ">
<polygon fill="white" stroke="black" points="368,-133.5 368,-152.5 416,-152.5 416,-133.5 368,-133.5"/>
<text text-anchor="middle" x="392" y="-140.5" font-family="Helvetica,sans-Serif" font-size="10.00">uc_end</text>
</a>
</g>
</g>
<!-- Node5&#45;&gt;Node6 -->
<g id="edge5" class="edge">
<title>Node5&#45;&gt;Node6</title>
<path fill="none" stroke="midnightblue" d="M316.12,-57.81C330.19,-73.82 358.29,-105.78 375.77,-125.68"/>
<polygon fill="midnightblue" stroke="midnightblue" points="373.32,-128.19 382.55,-133.39 378.58,-123.56 373.32,-128.19"/>
</g>
<!-- Node7&#45;&gt;Node3 -->
<g id="edge12" class="edge">
<title>Node7&#45;&gt;Node3</title>
<path fill="none" stroke="midnightblue" d="M145.06,-152.92C156.11,-149.45 169.08,-145.69 181,-143 211.04,-136.21 245.72,-131.14 270.84,-127.95"/>
<polygon fill="midnightblue" stroke="midnightblue" points="271.48,-131.4 280.98,-126.7 270.62,-124.45 271.48,-131.4"/>
</g>
<!-- Node8 -->
<g id="node8" class="node">
<title>Node8</title>
<g id="a_node8"><a xlink:href="mot_8c.html#a5c1f7584815c6ad7811607e7189272f3" target="_top" xlink:title=" ">
<polygon fill="white" stroke="black" points="188,-190.5 188,-209.5 238,-209.5 238,-190.5 188,-190.5"/>
<text text-anchor="middle" x="213" y="-197.5" font-family="Helvetica,sans-Serif" font-size="10.00">lbuf_eol</text>
</a>
</g>
</g>
<!-- Node7&#45;&gt;Node8 -->
<g id="edge8" class="edge">
<title>Node7&#45;&gt;Node8</title>
<path fill="none" stroke="midnightblue" d="M141.72,-171.59C152.96,-176.13 166.59,-181.64 178.83,-186.59"/>
<polygon fill="midnightblue" stroke="midnightblue" points="177.7,-189.91 188.29,-190.41 180.33,-183.42 177.7,-189.91"/>
</g>
<!-- Node10 -->
<g id="node10" class="node">
<title>Node10</title>
<g id="a_node10"><a xlink:href="lbuf_8c.html#ae74f0372b69451ac877a76505b05874f" target="_top" xlink:title=" ">
<polygon fill="white" stroke="black" points="188,-152.5 188,-171.5 238,-171.5 238,-152.5 188,-152.5"/>
<text text-anchor="middle" x="213" y="-159.5" font-family="Helvetica,sans-Serif" font-size="10.00">lbuf_len</text>
</a>
</g>
</g>
<!-- Node7&#45;&gt;Node10 -->
<g id="edge13" class="edge">
<title>Node7&#45;&gt;Node10</title>
<path fill="none" stroke="midnightblue" d="M145.19,-162C155.27,-162 166.85,-162 177.5,-162"/>
<polygon fill="midnightblue" stroke="midnightblue" points="177.75,-165.5 187.75,-162 177.75,-158.5 177.75,-165.5"/>
</g>
<!-- Node11 -->
<g id="node11" class="node">
<title>Node11</title>
<g id="a_node11"><a xlink:href="mot_8c.html#a7d0e1b91bf9ad736cf9f11035a9beef0" target="_top" xlink:title=" ">
<polygon fill="white" stroke="black" points="181,-228.5 181,-247.5 245,-247.5 245,-228.5 181,-228.5"/>
<text text-anchor="middle" x="213" y="-235.5" font-family="Helvetica,sans-Serif" font-size="10.00">lbuf_lnnext</text>
</a>
</g>
</g>
<!-- Node7&#45;&gt;Node11 -->
<g id="edge14" class="edge">
<title>Node7&#45;&gt;Node11</title>
<path fill="none" stroke="midnightblue" d="M127.76,-171.89C139.73,-183.77 160.93,-203.97 181,-219 182.81,-220.35 184.71,-221.7 186.66,-223.01"/>
<polygon fill="midnightblue" stroke="midnightblue" points="184.91,-226.05 195.22,-228.49 188.68,-220.15 184.91,-226.05"/>
</g>
<!-- Node8&#45;&gt;Node3 -->
<g id="edge9" class="edge">
<title>Node8&#45;&gt;Node3</title>
<path fill="none" stroke="midnightblue" d="M231.15,-190.35C235.77,-187.52 240.69,-184.3 245,-181 261.02,-168.75 277.58,-152.89 289.31,-141.01"/>
<polygon fill="midnightblue" stroke="midnightblue" points="292.14,-143.12 296.6,-133.51 287.12,-138.24 292.14,-143.12"/>
</g>
<!-- Node9 -->
<g id="node9" class="node">
<title>Node9</title>
<g id="a_node9"><a xlink:href="uc_8c.html#a8afd7835259109c3ec7bb684d4a1f67f" target="_top" xlink:title=" ">
<polygon fill="white" stroke="black" points="281.5,-190.5 281.5,-209.5 331.5,-209.5 331.5,-190.5 281.5,-190.5"/>
<text text-anchor="middle" x="306.5" y="-197.5" font-family="Helvetica,sans-Serif" font-size="10.00">uc_slen</text>
</a>
</g>
</g>
<!-- Node8&#45;&gt;Node9 -->
<g id="edge10" class="edge">
<title>Node8&#45;&gt;Node9</title>
<path fill="none" stroke="midnightblue" d="M238.04,-200C248.15,-200 260.11,-200 271.12,-200"/>
<polygon fill="midnightblue" stroke="midnightblue" points="271.3,-203.5 281.3,-200 271.3,-196.5 271.3,-203.5"/>
</g>
<!-- Node9&#45;&gt;Node6 -->
<g id="edge11" class="edge">
<title>Node9&#45;&gt;Node6</title>
<path fill="none" stroke="midnightblue" d="M321.66,-190.33C334.46,-181.6 353.5,-168.6 368.4,-158.43"/>
<polygon fill="midnightblue" stroke="midnightblue" points="370.76,-161.06 377.04,-152.53 366.81,-155.27 370.76,-161.06"/>
</g>
<!-- Node11&#45;&gt;Node3 -->
<g id="edge15" class="edge">
<title>Node11&#45;&gt;Node3</title>
<path fill="none" stroke="midnightblue" d="M232.7,-228.43C237.02,-225.72 241.4,-222.54 245,-219 268.02,-196.37 286.51,-163.41 296.74,-142.87"/>
<polygon fill="midnightblue" stroke="midnightblue" points="300.01,-144.15 301.2,-133.62 293.7,-141.11 300.01,-144.15"/>
</g>
<!-- Node11&#45;&gt;Node9 -->
<g id="edge16" class="edge">
<title>Node11&#45;&gt;Node9</title>
<path fill="none" stroke="midnightblue" d="M237.09,-228.41C247.93,-223.91 261.03,-218.47 272.86,-213.56"/>
<polygon fill="midnightblue" stroke="midnightblue" points="274.53,-216.65 282.42,-209.59 271.84,-210.19 274.53,-216.65"/>
</g>
</g>
</svg>
