<?xml version="1.0" encoding="UTF-8" standalone="no"?>
<!DOCTYPE svg PUBLIC "-//W3C//DTD SVG 1.1//EN"
 "http://www.w3.org/Graphics/SVG/1.1/DTD/svg11.dtd">
<!-- Generated by graphviz version 2.44.1 (20200629.0846)
 -->
<!-- Title: lbuf_indents Pages: 1 -->
<svg width="409pt" height="256pt"
 viewBox="0.00 0.00 409.00 256.00" xmlns="http://www.w3.org/2000/svg" xmlns:xlink="http://www.w3.org/1999/xlink">
<g id="graph0" class="graph" transform="scale(1 1) rotate(0) translate(4 252)">
<title>lbuf_indents</title>
<polygon fill="white" stroke="transparent" points="-4,4 -4,-252 405,-252 405,4 -4,4"/>
<!-- Node1 -->
<g id="node1" class="node">
<title>Node1</title>
<g id="a_node1"><a xlink:title=" ">
<polygon fill="#bfbfbf" stroke="black" points="332,-114.5 332,-133.5 401,-133.5 401,-114.5 332,-114.5"/>
<text text-anchor="middle" x="366.5" y="-121.5" font-family="Helvetica,sans-Serif" font-size="10.00">lbuf_indents</text>
</a>
</g>
</g>
<!-- Node2 -->
<g id="node2" class="node">
<title>Node2</title>
<g id="a_node2"><a xlink:href="vi_8c.html#a8bb357a77ed61da8858f138c6fa672a6" target="_top" xlink:title=" ">
<polygon fill="white" stroke="black" points="142,-228.5 142,-247.5 198,-247.5 198,-228.5 142,-228.5"/>
<text text-anchor="middle" x="170" y="-235.5" font-family="Helvetica,sans-Serif" font-size="10.00">vc_insert</text>
</a>
</g>
</g>
<!-- Node1&#45;&gt;Node2 -->
<g id="edge1" class="edge">
<title>Node1&#45;&gt;Node2</title>
<path fill="none" stroke="midnightblue" d="M356.27,-142.91C345.03,-163.8 324.03,-196.76 296,-214 265.98,-232.47 224.84,-237.24 198.1,-238.21"/>
<polygon fill="midnightblue" stroke="midnightblue" points="359.52,-144.24 360.99,-133.75 353.29,-141.04 359.52,-144.24"/>
</g>
<!-- Node3 -->
<g id="node3" class="node">
<title>Node3</title>
<g id="a_node3"><a xlink:href="vi_8c.html#a8d808e0f3453afe6600673ee1ea5f828" target="_top" xlink:title=" ">
<polygon fill="white" stroke="black" points="74,-152.5 74,-171.5 103,-171.5 103,-152.5 74,-152.5"/>
<text text-anchor="middle" x="88.5" y="-159.5" font-family="Helvetica,sans-Serif" font-size="10.00">vi</text>
</a>
</g>
</g>
<!-- Node1&#45;&gt;Node3 -->
<g id="edge6" class="edge">
<title>Node1&#45;&gt;Node3</title>
<path fill="none" stroke="midnightblue" d="M342.39,-138.95C329.25,-146.85 312.22,-156.1 296,-162 229.95,-186.03 208.11,-193.81 139,-181 126.51,-178.69 113.1,-173.34 103.39,-168.91"/>
<polygon fill="midnightblue" stroke="midnightblue" points="344.53,-141.74 351.2,-133.51 340.85,-135.79 344.53,-141.74"/>
</g>
<!-- Node5 -->
<g id="node5" class="node">
<title>Node5</title>
<g id="a_node5"><a xlink:href="vi_8c.html#a7611a5bcfe4c4ddc58233c4c52a8fa16" target="_top" xlink:title=" ">
<polygon fill="white" stroke="black" points="147,-152.5 147,-171.5 193,-171.5 193,-152.5 147,-152.5"/>
<text text-anchor="middle" x="170" y="-159.5" font-family="Helvetica,sans-Serif" font-size="10.00">vc_put</text>
</a>
</g>
</g>
<!-- Node1&#45;&gt;Node5 -->
<g id="edge4" class="edge">
<title>Node1&#45;&gt;Node5</title>
<path fill="none" stroke="midnightblue" d="M323.86,-136.23C314.73,-138.67 305.08,-141.08 296,-143 260.35,-150.55 218.38,-156.3 193.27,-159.41"/>
<polygon fill="midnightblue" stroke="midnightblue" points="324.79,-139.6 333.51,-133.58 322.94,-132.85 324.79,-139.6"/>
</g>
<!-- Node6 -->
<g id="node6" class="node">
<title>Node6</title>
<g id="a_node6"><a xlink:href="vi_8c.html#a4e8a00c8cdffacf0c69c3901cdcdf059" target="_top" xlink:title=" ">
<polygon fill="white" stroke="black" points="241.5,-114.5 241.5,-133.5 291.5,-133.5 291.5,-114.5 241.5,-114.5"/>
<text text-anchor="middle" x="266.5" y="-121.5" font-family="Helvetica,sans-Serif" font-size="10.00">vi_case</text>
</a>
</g>
</g>
<!-- Node1&#45;&gt;Node6 -->
<g id="edge7" class="edge">
<title>Node1&#45;&gt;Node6</title>
<path fill="none" stroke="midnightblue" d="M321.65,-124C311.36,-124 300.76,-124 291.7,-124"/>
<polygon fill="midnightblue" stroke="midnightblue" points="321.77,-127.5 331.77,-124 321.77,-120.5 321.77,-127.5"/>
</g>
<!-- Node8 -->
<g id="node8" class="node">
<title>Node8</title>
<g id="a_node8"><a xlink:href="vi_8c.html#abfa30fc2e2b4b8b24e2ee5d4bd54f2eb" target="_top" xlink:title=" ">
<polygon fill="white" stroke="black" points="238.5,-76.5 238.5,-95.5 294.5,-95.5 294.5,-76.5 238.5,-76.5"/>
<text text-anchor="middle" x="266.5" y="-83.5" font-family="Helvetica,sans-Serif" font-size="10.00">vi_delete</text>
</a>
</g>
</g>
<!-- Node1&#45;&gt;Node8 -->
<g id="edge10" class="edge">
<title>Node1&#45;&gt;Node8</title>
<path fill="none" stroke="midnightblue" d="M331.29,-110.74C318.43,-105.75 304.06,-100.18 292.22,-95.59"/>
<polygon fill="midnightblue" stroke="midnightblue" points="330.18,-114.06 340.77,-114.41 332.71,-107.53 330.18,-114.06"/>
</g>
<!-- Node9 -->
<g id="node9" class="node">
<title>Node9</title>
<g id="a_node9"><a xlink:href="vi_8c.html#aaa4777ea0715ea846346d0f27a0cfa3f" target="_top" xlink:title=" ">
<polygon fill="white" stroke="black" points="237,-0.5 237,-19.5 296,-19.5 296,-0.5 237,-0.5"/>
<text text-anchor="middle" x="266.5" y="-7.5" font-family="Helvetica,sans-Serif" font-size="10.00">vi_motion</text>
</a>
</g>
</g>
<!-- Node1&#45;&gt;Node9 -->
<g id="edge12" class="edge">
<title>Node1&#45;&gt;Node9</title>
<path fill="none" stroke="midnightblue" d="M354.8,-105.64C342.39,-85.34 320.47,-52.42 296,-29 292.39,-25.55 288.08,-22.31 283.92,-19.53"/>
<polygon fill="midnightblue" stroke="midnightblue" points="351.81,-107.46 359.95,-114.24 357.82,-103.87 351.81,-107.46"/>
</g>
<!-- Node10 -->
<g id="node10" class="node">
<title>Node10</title>
<g id="a_node10"><a xlink:href="vi_8c.html#a48860be78b002b73335ae1b47dd56929" target="_top" xlink:title=" ">
<polygon fill="white" stroke="black" points="242.5,-38.5 242.5,-57.5 290.5,-57.5 290.5,-38.5 242.5,-38.5"/>
<text text-anchor="middle" x="266.5" y="-45.5" font-family="Helvetica,sans-Serif" font-size="10.00">vi_shift</text>
</a>
</g>
</g>
<!-- Node1&#45;&gt;Node10 -->
<g id="edge15" class="edge">
<title>Node1&#45;&gt;Node10</title>
<path fill="none" stroke="midnightblue" d="M346.67,-107.7C332.91,-96.01 313.65,-80.07 296,-67 291.7,-63.81 286.9,-60.52 282.48,-57.59"/>
<polygon fill="midnightblue" stroke="midnightblue" points="344.58,-110.53 354.46,-114.37 349.14,-105.21 344.58,-110.53"/>
</g>
<!-- Node2&#45;&gt;Node3 -->
<g id="edge2" class="edge">
<title>Node2&#45;&gt;Node3</title>
<path fill="none" stroke="midnightblue" d="M148.11,-221.89C145,-219.32 141.87,-216.64 139,-214 123.75,-200.01 107.47,-182.3 97.9,-171.58"/>
<polygon fill="midnightblue" stroke="midnightblue" points="146.14,-224.8 156.13,-228.33 150.52,-219.34 146.14,-224.8"/>
</g>
<!-- Node4 -->
<g id="node4" class="node">
<title>Node4</title>
<g id="a_node4"><a xlink:href="vi_8c.html#a0ddf1224851353fc92bfbff6f499fa97" target="_top" xlink:title=" ">
<polygon fill="white" stroke="black" points="0,-152.5 0,-171.5 38,-171.5 38,-152.5 0,-152.5"/>
<text text-anchor="middle" x="19" y="-159.5" font-family="Helvetica,sans-Serif" font-size="10.00">main</text>
</a>
</g>
</g>
<!-- Node3&#45;&gt;Node4 -->
<g id="edge3" class="edge">
<title>Node3&#45;&gt;Node4</title>
<path fill="none" stroke="midnightblue" d="M63.58,-162C55.25,-162 46.04,-162 38.25,-162"/>
<polygon fill="midnightblue" stroke="midnightblue" points="63.84,-165.5 73.84,-162 63.84,-158.5 63.84,-165.5"/>
</g>
<!-- Node5&#45;&gt;Node3 -->
<g id="edge5" class="edge">
<title>Node5&#45;&gt;Node3</title>
<path fill="none" stroke="midnightblue" d="M136.55,-162C124.95,-162 112.48,-162 103.29,-162"/>
<polygon fill="midnightblue" stroke="midnightblue" points="136.85,-165.5 146.85,-162 136.85,-158.5 136.85,-165.5"/>
</g>
<!-- Node7 -->
<g id="node7" class="node">
<title>Node7</title>
<g id="a_node7"><a xlink:href="vi_8c.html#a06cbc6eb843436a0e77e07cbab0c4538" target="_top" xlink:title=" ">
<polygon fill="white" stroke="black" points="139,-76.5 139,-95.5 201,-95.5 201,-76.5 139,-76.5"/>
<text text-anchor="middle" x="170" y="-83.5" font-family="Helvetica,sans-Serif" font-size="10.00">vc_motion</text>
</a>
</g>
</g>
<!-- Node6&#45;&gt;Node7 -->
<g id="edge8" class="edge">
<title>Node6&#45;&gt;Node7</title>
<path fill="none" stroke="midnightblue" d="M232.15,-110.59C219.84,-105.64 206.14,-100.13 194.84,-95.59"/>
<polygon fill="midnightblue" stroke="midnightblue" points="231.07,-113.93 241.65,-114.41 233.68,-107.43 231.07,-113.93"/>
</g>
<!-- Node7&#45;&gt;Node3 -->
<g id="edge9" class="edge">
<title>Node7&#45;&gt;Node3</title>
<path fill="none" stroke="midnightblue" d="M151.31,-102.91C135.36,-118.16 112.47,-140.04 99.49,-152.45"/>
<polygon fill="midnightblue" stroke="midnightblue" points="154.12,-105.07 158.93,-95.63 149.28,-100.01 154.12,-105.07"/>
</g>
<!-- Node8&#45;&gt;Node7 -->
<g id="edge11" class="edge">
<title>Node8&#45;&gt;Node7</title>
<path fill="none" stroke="midnightblue" d="M228.18,-86C219.18,-86 209.68,-86 201.07,-86"/>
<polygon fill="midnightblue" stroke="midnightblue" points="228.42,-89.5 238.42,-86 228.42,-82.5 228.42,-89.5"/>
</g>
<!-- Node9&#45;&gt;Node3 -->
<g id="edge14" class="edge">
<title>Node9&#45;&gt;Node3</title>
<path fill="none" stroke="midnightblue" d="M227.15,-19.94C199.87,-28.63 163.8,-43.58 139,-67 112.77,-91.77 97.87,-133.56 92.19,-152.34"/>
<polygon fill="midnightblue" stroke="midnightblue" points="228.22,-23.28 236.77,-17.02 226.19,-16.58 228.22,-23.28"/>
</g>
<!-- Node9&#45;&gt;Node7 -->
<g id="edge13" class="edge">
<title>Node9&#45;&gt;Node7</title>
<path fill="none" stroke="midnightblue" d="M241.97,-25.35C240.27,-26.56 238.6,-27.79 237,-29 216.51,-44.58 194.13,-64.6 181.4,-76.3"/>
<polygon fill="midnightblue" stroke="midnightblue" points="244.2,-28.06 250.46,-19.52 240.24,-22.29 244.2,-28.06"/>
</g>
<!-- Node10&#45;&gt;Node7 -->
<g id="edge16" class="edge">
<title>Node10&#45;&gt;Node7</title>
<path fill="none" stroke="midnightblue" d="M232.55,-61.25C220.1,-66.26 206.19,-71.85 194.75,-76.45"/>
<polygon fill="midnightblue" stroke="midnightblue" points="234.17,-64.37 242.14,-57.39 231.56,-57.88 234.17,-64.37"/>
</g>
</g>
</svg>
