<?xml version="1.0" encoding="UTF-8" standalone="no"?>
<!DOCTYPE svg PUBLIC "-//W3C//DTD SVG 1.1//EN"
 "http://www.w3.org/Graphics/SVG/1.1/DTD/svg11.dtd">
<!-- Generated by graphviz version 2.44.1 (20200629.0846)
 -->
<!-- Title: lbuf_findchar Pages: 1 -->
<svg width="349pt" height="180pt"
 viewBox="0.00 0.00 349.00 180.00" xmlns="http://www.w3.org/2000/svg" xmlns:xlink="http://www.w3.org/1999/xlink">
<g id="graph0" class="graph" transform="scale(1 1) rotate(0) translate(4 176)">
<title>lbuf_findchar</title>
<polygon fill="white" stroke="transparent" points="-4,4 -4,-176 345,-176 345,4 -4,4"/>
<!-- Node1 -->
<g id="node1" class="node">
<title>Node1</title>
<g id="a_node1"><a xlink:title=" ">
<polygon fill="#bfbfbf" stroke="black" points="0,-76.5 0,-95.5 72,-95.5 72,-76.5 0,-76.5"/>
<text text-anchor="middle" x="36" y="-83.5" font-family="Helvetica,sans-Serif" font-size="10.00">lbuf_findchar</text>
</a>
</g>
</g>
<!-- Node2 -->
<g id="node2" class="node">
<title>Node2</title>
<g id="a_node2"><a xlink:href="lbuf_8c.html#ad0f45475ddc6eb82ecedf63ed1b914d4" target="_top" xlink:title=" ">
<polygon fill="white" stroke="black" points="113.5,-152.5 113.5,-171.5 164.5,-171.5 164.5,-152.5 113.5,-152.5"/>
<text text-anchor="middle" x="139" y="-159.5" font-family="Helvetica,sans-Serif" font-size="10.00">lbuf_get</text>
</a>
</g>
</g>
<!-- Node1&#45;&gt;Node2 -->
<g id="edge1" class="edge">
<title>Node1&#45;&gt;Node2</title>
<path fill="none" stroke="midnightblue" d="M48.25,-95.69C62,-107.37 86.14,-127.38 108,-143 109.83,-144.31 111.76,-145.63 113.7,-146.94"/>
<polygon fill="midnightblue" stroke="midnightblue" points="111.92,-149.95 122.21,-152.46 115.73,-144.08 111.92,-149.95"/>
</g>
<!-- Node3 -->
<g id="node3" class="node">
<title>Node3</title>
<g id="a_node3"><a xlink:href="uc_8c.html#a2fecd1fc98475ece5f529da3315a9553" target="_top" xlink:title=" ">
<polygon fill="white" stroke="black" points="116,-114.5 116,-133.5 162,-133.5 162,-114.5 116,-114.5"/>
<text text-anchor="middle" x="139" y="-121.5" font-family="Helvetica,sans-Serif" font-size="10.00">uc_chr</text>
</a>
</g>
</g>
<!-- Node1&#45;&gt;Node3 -->
<g id="edge2" class="edge">
<title>Node1&#45;&gt;Node3</title>
<path fill="none" stroke="midnightblue" d="M62.49,-95.59C75.88,-100.63 92.4,-106.85 106.58,-112.18"/>
<polygon fill="midnightblue" stroke="midnightblue" points="105.36,-115.46 115.95,-115.7 107.83,-108.91 105.36,-115.46"/>
</g>
<!-- Node6 -->
<g id="node6" class="node">
<title>Node6</title>
<g id="a_node6"><a xlink:href="uc_8c.html#a45fdc2f2f3cb34515f1014bf754741bb" target="_top" xlink:title=" ">
<polygon fill="white" stroke="black" points="112.5,-76.5 112.5,-95.5 165.5,-95.5 165.5,-76.5 112.5,-76.5"/>
<text text-anchor="middle" x="139" y="-83.5" font-family="Helvetica,sans-Serif" font-size="10.00">uc_code</text>
</a>
</g>
</g>
<!-- Node1&#45;&gt;Node6 -->
<g id="edge5" class="edge">
<title>Node1&#45;&gt;Node6</title>
<path fill="none" stroke="midnightblue" d="M72.04,-86C81.75,-86 92.3,-86 102.06,-86"/>
<polygon fill="midnightblue" stroke="midnightblue" points="102.26,-89.5 112.26,-86 102.26,-82.5 102.26,-89.5"/>
</g>
<!-- Node7 -->
<g id="node7" class="node">
<title>Node7</title>
<g id="a_node7"><a xlink:href="mot_8c.html#a578119637568baec7a95210a4e7030aa" target="_top" xlink:title=" ">
<polygon fill="white" stroke="black" points="108,-0.5 108,-19.5 170,-19.5 170,-0.5 108,-0.5"/>
<text text-anchor="middle" x="139" y="-7.5" font-family="Helvetica,sans-Serif" font-size="10.00">uc_nextdir</text>
</a>
</g>
</g>
<!-- Node1&#45;&gt;Node7 -->
<g id="edge6" class="edge">
<title>Node1&#45;&gt;Node7</title>
<path fill="none" stroke="midnightblue" d="M48.25,-76.31C62,-64.63 86.14,-44.62 108,-29 109.83,-27.69 111.76,-26.37 113.7,-25.06"/>
<polygon fill="midnightblue" stroke="midnightblue" points="115.73,-27.92 122.21,-19.54 111.92,-22.05 115.73,-27.92"/>
</g>
<!-- Node10 -->
<g id="node10" class="node">
<title>Node10</title>
<g id="a_node10"><a xlink:href="uc_8c.html#a8334cbe4db5e54e19bf79b31f68d9eb8" target="_top" xlink:title=" ">
<polygon fill="white" stroke="black" points="117,-38.5 117,-57.5 161,-57.5 161,-38.5 117,-38.5"/>
<text text-anchor="middle" x="139" y="-45.5" font-family="Helvetica,sans-Serif" font-size="10.00">uc_off</text>
</a>
</g>
</g>
<!-- Node1&#45;&gt;Node10 -->
<g id="edge10" class="edge">
<title>Node1&#45;&gt;Node10</title>
<path fill="none" stroke="midnightblue" d="M62.49,-76.41C76.16,-71.27 93.11,-64.89 107.48,-59.48"/>
<polygon fill="midnightblue" stroke="midnightblue" points="108.82,-62.72 116.95,-55.92 106.36,-56.17 108.82,-62.72"/>
</g>
<!-- Node4 -->
<g id="node4" class="node">
<title>Node4</title>
<g id="a_node4"><a xlink:href="uc_8c.html#a79c7c44c06c1febff5680c19667e2676" target="_top" xlink:title=" ">
<polygon fill="white" stroke="black" points="206,-38.5 206,-57.5 257,-57.5 257,-38.5 206,-38.5"/>
<text text-anchor="middle" x="231.5" y="-45.5" font-family="Helvetica,sans-Serif" font-size="10.00">uc_next</text>
</a>
</g>
</g>
<!-- Node3&#45;&gt;Node4 -->
<g id="edge3" class="edge">
<title>Node3&#45;&gt;Node4</title>
<path fill="none" stroke="midnightblue" d="M156.27,-114.49C160.83,-111.61 165.71,-108.33 170,-105 185.75,-92.78 202.11,-77.15 213.85,-65.35"/>
<polygon fill="midnightblue" stroke="midnightblue" points="216.67,-67.48 221.17,-57.88 211.67,-62.58 216.67,-67.48"/>
</g>
<!-- Node5 -->
<g id="node5" class="node">
<title>Node5</title>
<g id="a_node5"><a xlink:href="uc_8c.html#a616e24870a58b86644c34ee077faca11" target="_top" xlink:title=" ">
<polygon fill="white" stroke="black" points="293,-38.5 293,-57.5 341,-57.5 341,-38.5 293,-38.5"/>
<text text-anchor="middle" x="317" y="-45.5" font-family="Helvetica,sans-Serif" font-size="10.00">uc_end</text>
</a>
</g>
</g>
<!-- Node4&#45;&gt;Node5 -->
<g id="edge4" class="edge">
<title>Node4&#45;&gt;Node5</title>
<path fill="none" stroke="midnightblue" d="M257.1,-48C265.1,-48 274.12,-48 282.66,-48"/>
<polygon fill="midnightblue" stroke="midnightblue" points="282.72,-51.5 292.72,-48 282.72,-44.5 282.72,-51.5"/>
</g>
<!-- Node7&#45;&gt;Node4 -->
<g id="edge7" class="edge">
<title>Node7&#45;&gt;Node4</title>
<path fill="none" stroke="midnightblue" d="M162.84,-19.59C173.56,-24.09 186.52,-29.53 198.22,-34.44"/>
<polygon fill="midnightblue" stroke="midnightblue" points="197.1,-37.77 207.67,-38.41 199.81,-31.32 197.1,-37.77"/>
</g>
<!-- Node8 -->
<g id="node8" class="node">
<title>Node8</title>
<g id="a_node8"><a xlink:href="uc_8c.html#a9b07ee95acfa0268aace779a00beb177" target="_top" xlink:title=" ">
<polygon fill="white" stroke="black" points="206,-0.5 206,-19.5 257,-19.5 257,-0.5 206,-0.5"/>
<text text-anchor="middle" x="231.5" y="-7.5" font-family="Helvetica,sans-Serif" font-size="10.00">uc_prev</text>
</a>
</g>
</g>
<!-- Node7&#45;&gt;Node8 -->
<g id="edge8" class="edge">
<title>Node7&#45;&gt;Node8</title>
<path fill="none" stroke="midnightblue" d="M170.14,-10C178.4,-10 187.42,-10 195.91,-10"/>
<polygon fill="midnightblue" stroke="midnightblue" points="195.91,-13.5 205.91,-10 195.91,-6.5 195.91,-13.5"/>
</g>
<!-- Node9 -->
<g id="node9" class="node">
<title>Node9</title>
<g id="a_node9"><a xlink:href="uc_8c.html#a8b9e268743fd7af03b099072154fbb18" target="_top" xlink:title=" ">
<polygon fill="white" stroke="black" points="293,-0.5 293,-19.5 341,-19.5 341,-0.5 293,-0.5"/>
<text text-anchor="middle" x="317" y="-7.5" font-family="Helvetica,sans-Serif" font-size="10.00">uc_beg</text>
</a>
</g>
</g>
<!-- Node8&#45;&gt;Node9 -->
<g id="edge9" class="edge">
<title>Node8&#45;&gt;Node9</title>
<path fill="none" stroke="midnightblue" d="M257.1,-10C265.1,-10 274.12,-10 282.66,-10"/>
<polygon fill="midnightblue" stroke="midnightblue" points="282.72,-13.5 292.72,-10 282.72,-6.5 282.72,-13.5"/>
</g>
<!-- Node10&#45;&gt;Node4 -->
<g id="edge11" class="edge">
<title>Node10&#45;&gt;Node4</title>
<path fill="none" stroke="midnightblue" d="M161.45,-48C171.61,-48 184.02,-48 195.49,-48"/>
<polygon fill="midnightblue" stroke="midnightblue" points="195.68,-51.5 205.68,-48 195.68,-44.5 195.68,-51.5"/>
</g>
</g>
</svg>
