<?xml version="1.0" encoding="UTF-8" standalone="no"?>
<!DOCTYPE svg PUBLIC "-//W3C//DTD SVG 1.1//EN"
 "http://www.w3.org/Graphics/SVG/1.1/DTD/svg11.dtd">
<!-- Generated by graphviz version 2.44.1 (20200629.0846)
 -->
<!-- Title: rnode_parse Pages: 1 -->
<svg width="580pt" height="161pt"
 viewBox="0.00 0.00 580.00 161.00" xmlns="http://www.w3.org/2000/svg" xmlns:xlink="http://www.w3.org/1999/xlink">
<g id="graph0" class="graph" transform="scale(1 1) rotate(0) translate(4 157)">
<title>rnode_parse</title>
<polygon fill="white" stroke="transparent" points="-4,4 -4,-157 576,-157 576,4 -4,4"/>
<!-- Node1 -->
<g id="node1" class="node">
<title>Node1</title>
<g id="a_node1"><a xlink:title=" ">
<polygon fill="#bfbfbf" stroke="black" points="0,-95.5 0,-114.5 70,-114.5 70,-95.5 0,-95.5"/>
<text text-anchor="middle" x="35" y="-102.5" font-family="Helvetica,sans-Serif" font-size="10.00">rnode_parse</text>
</a>
</g>
</g>
<!-- Node2 -->
<g id="node2" class="node">
<title>Node2</title>
<g id="a_node2"><a xlink:href="regex_8c.html#a39869d385d8410ffb9d5bf74c778c6ce" target="_top" xlink:title=" ">
<polygon fill="white" stroke="black" points="413.5,-133.5 413.5,-152.5 483.5,-152.5 483.5,-133.5 413.5,-133.5"/>
<text text-anchor="middle" x="448.5" y="-140.5" font-family="Helvetica,sans-Serif" font-size="10.00">rnode_make</text>
</a>
</g>
</g>
<!-- Node1&#45;&gt;Node2 -->
<g id="edge1" class="edge">
<title>Node1&#45;&gt;Node2</title>
<path fill="none" stroke="midnightblue" d="M66.76,-114.54C78.88,-117.98 93,-121.61 106,-124 223.04,-145.52 254,-144.8 373,-144 382.79,-143.93 393.31,-143.82 403.26,-143.69"/>
<polygon fill="midnightblue" stroke="midnightblue" points="403.43,-147.19 413.38,-143.55 403.33,-140.19 403.43,-147.19"/>
</g>
<!-- Node3 -->
<g id="node3" class="node">
<title>Node3</title>
<g id="a_node3"><a xlink:href="regex_8c.html#abe0c1f4be43ac6d7caa4f95a560f823f" target="_top" xlink:title=" ">
<polygon fill="white" stroke="black" points="106,-95.5 106,-114.5 168,-114.5 168,-95.5 106,-95.5"/>
<text text-anchor="middle" x="137" y="-102.5" font-family="Helvetica,sans-Serif" font-size="10.00">rnode_seq</text>
</a>
</g>
</g>
<!-- Node1&#45;&gt;Node3 -->
<g id="edge2" class="edge">
<title>Node1&#45;&gt;Node3</title>
<path fill="none" stroke="midnightblue" d="M70.13,-105C78.34,-105 87.18,-105 95.64,-105"/>
<polygon fill="midnightblue" stroke="midnightblue" points="95.7,-108.5 105.7,-105 95.7,-101.5 95.7,-108.5"/>
</g>
<!-- Node3&#45;&gt;Node2 -->
<g id="edge14" class="edge">
<title>Node3&#45;&gt;Node2</title>
<path fill="none" stroke="midnightblue" d="M168.08,-109.03C202.04,-113.54 258.96,-121.02 308,-127 339.86,-130.89 375.86,-135.01 403.3,-138.1"/>
<polygon fill="midnightblue" stroke="midnightblue" points="403.04,-141.59 413.37,-139.23 403.82,-134.63 403.04,-141.59"/>
</g>
<!-- Node4 -->
<g id="node4" class="node">
<title>Node4</title>
<g id="a_node4"><a xlink:href="regex_8c.html#a0df57dc0ee1beb9018cdd537a58571aa" target="_top" xlink:title=" ">
<polygon fill="white" stroke="black" points="204,-76.5 204,-95.5 272,-95.5 272,-76.5 204,-76.5"/>
<text text-anchor="middle" x="238" y="-83.5" font-family="Helvetica,sans-Serif" font-size="10.00">rnode_atom</text>
</a>
</g>
</g>
<!-- Node3&#45;&gt;Node4 -->
<g id="edge3" class="edge">
<title>Node3&#45;&gt;Node4</title>
<path fill="none" stroke="midnightblue" d="M168.24,-99.2C176.33,-97.64 185.24,-95.93 193.88,-94.28"/>
<polygon fill="midnightblue" stroke="midnightblue" points="194.68,-97.69 203.84,-92.36 193.36,-90.81 194.68,-97.69"/>
</g>
<!-- Node4&#45;&gt;Node2 -->
<g id="edge13" class="edge">
<title>Node4&#45;&gt;Node2</title>
<path fill="none" stroke="midnightblue" d="M272.34,-95.2C283.65,-98.32 296.38,-101.82 308,-105 340.02,-113.77 376.19,-123.62 403.67,-131.09"/>
<polygon fill="midnightblue" stroke="midnightblue" points="402.81,-134.49 413.38,-133.73 404.65,-127.73 402.81,-134.49"/>
</g>
<!-- Node5 -->
<g id="node5" class="node">
<title>Node5</title>
<g id="a_node5"><a xlink:href="regex_8c.html#a8b5ae269a79b320da8e87712e2051d1c" target="_top" xlink:title=" ">
<polygon fill="white" stroke="black" points="308,-76.5 308,-95.5 373,-95.5 373,-76.5 308,-76.5"/>
<text text-anchor="middle" x="340.5" y="-83.5" font-family="Helvetica,sans-Serif" font-size="10.00">ratom_read</text>
</a>
</g>
</g>
<!-- Node4&#45;&gt;Node5 -->
<g id="edge4" class="edge">
<title>Node4&#45;&gt;Node5</title>
<path fill="none" stroke="midnightblue" d="M272.19,-86C280.32,-86 289.12,-86 297.6,-86"/>
<polygon fill="midnightblue" stroke="midnightblue" points="297.71,-89.5 307.71,-86 297.71,-82.5 297.71,-89.5"/>
</g>
<!-- Node9 -->
<g id="node9" class="node">
<title>Node9</title>
<g id="a_node9"><a xlink:href="regex_8c.html#aabe89a3a22bc0fdc0329cf29ec80ad76" target="_top" xlink:title=" ">
<polygon fill="white" stroke="black" points="417.5,-0.5 417.5,-19.5 479.5,-19.5 479.5,-0.5 417.5,-0.5"/>
<text text-anchor="middle" x="448.5" y="-7.5" font-family="Helvetica,sans-Serif" font-size="10.00">rnode_free</text>
</a>
</g>
</g>
<!-- Node4&#45;&gt;Node9 -->
<g id="edge8" class="edge">
<title>Node4&#45;&gt;Node9</title>
<path fill="none" stroke="midnightblue" d="M265.41,-76.37C302.54,-62.84 370.27,-38.15 411.84,-23"/>
<polygon fill="midnightblue" stroke="midnightblue" points="413.11,-26.26 421.31,-19.55 410.71,-19.68 413.11,-26.26"/>
</g>
<!-- Node10 -->
<g id="node10" class="node">
<title>Node10</title>
<g id="a_node10"><a xlink:href="regex_8c.html#aaeda19c8b3704252a342cdcc7fc3591c" target="_top" xlink:title=" ">
<polygon fill="white" stroke="black" points="311,-0.5 311,-19.5 370,-19.5 370,-0.5 311,-0.5"/>
<text text-anchor="middle" x="340.5" y="-7.5" font-family="Helvetica,sans-Serif" font-size="10.00">rnode_grp</text>
</a>
</g>
</g>
<!-- Node4&#45;&gt;Node10 -->
<g id="edge9" class="edge">
<title>Node4&#45;&gt;Node10</title>
<path fill="none" stroke="midnightblue" d="M251.73,-76.37C268.57,-63.64 298.47,-41.03 318.64,-25.78"/>
<polygon fill="midnightblue" stroke="midnightblue" points="321.01,-28.37 326.87,-19.55 316.79,-22.79 321.01,-28.37"/>
</g>
<!-- Node6 -->
<g id="node6" class="node">
<title>Node6</title>
<g id="a_node6"><a xlink:href="regex_8c.html#a1904288a4b4c7b7d0666c3d85d438e1a" target="_top" xlink:title=" ">
<polygon fill="white" stroke="black" points="409,-76.5 409,-95.5 488,-95.5 488,-76.5 409,-76.5"/>
<text text-anchor="middle" x="448.5" y="-83.5" font-family="Helvetica,sans-Serif" font-size="10.00">ratom_readbrk</text>
</a>
</g>
</g>
<!-- Node5&#45;&gt;Node6 -->
<g id="edge5" class="edge">
<title>Node5&#45;&gt;Node6</title>
<path fill="none" stroke="midnightblue" d="M373.02,-86C381.09,-86 389.96,-86 398.68,-86"/>
<polygon fill="midnightblue" stroke="midnightblue" points="398.79,-89.5 408.79,-86 398.79,-82.5 398.79,-89.5"/>
</g>
<!-- Node8 -->
<g id="node8" class="node">
<title>Node8</title>
<g id="a_node8"><a xlink:href="regex_8c.html#a9a0d6d5f93f1eaba8b63b16903c0952d" target="_top" xlink:title=" ">
<polygon fill="white" stroke="black" points="426,-38.5 426,-57.5 471,-57.5 471,-38.5 426,-38.5"/>
<text text-anchor="middle" x="448.5" y="-45.5" font-family="Helvetica,sans-Serif" font-size="10.00">uc_len</text>
</a>
</g>
</g>
<!-- Node5&#45;&gt;Node8 -->
<g id="edge7" class="edge">
<title>Node5&#45;&gt;Node8</title>
<path fill="none" stroke="midnightblue" d="M368.25,-76.41C382.84,-71.18 400.98,-64.68 416.22,-59.21"/>
<polygon fill="midnightblue" stroke="midnightblue" points="417.52,-62.47 425.75,-55.8 415.16,-55.88 417.52,-62.47"/>
</g>
<!-- Node7 -->
<g id="node7" class="node">
<title>Node7</title>
<g id="a_node7"><a xlink:href="regex_8c.html#acc18ff8d2687611a9e221b3329b02413" target="_top" xlink:title=" ">
<polygon fill="white" stroke="black" points="524,-76.5 524,-95.5 572,-95.5 572,-76.5 524,-76.5"/>
<text text-anchor="middle" x="548" y="-83.5" font-family="Helvetica,sans-Serif" font-size="10.00">brk_len</text>
</a>
</g>
</g>
<!-- Node6&#45;&gt;Node7 -->
<g id="edge6" class="edge">
<title>Node6&#45;&gt;Node7</title>
<path fill="none" stroke="midnightblue" d="M488.03,-86C496.57,-86 505.54,-86 513.84,-86"/>
<polygon fill="midnightblue" stroke="midnightblue" points="513.9,-89.5 523.9,-86 513.9,-82.5 513.9,-89.5"/>
</g>
<!-- Node10&#45;&gt;Node1 -->
<g id="edge12" class="edge">
<title>Node10&#45;&gt;Node1</title>
<path fill="none" stroke="midnightblue" d="M310.81,-18.98C256.51,-35.98 138.59,-72.89 76.35,-92.37"/>
<polygon fill="midnightblue" stroke="midnightblue" points="74.99,-89.13 66.49,-95.46 77.08,-95.81 74.99,-89.13"/>
</g>
<!-- Node10&#45;&gt;Node2 -->
<g id="edge11" class="edge">
<title>Node10&#45;&gt;Node2</title>
<path fill="none" stroke="midnightblue" d="M347.5,-19.57C358.71,-37.17 383.96,-75.56 409,-105 415.3,-112.4 422.8,-120.03 429.5,-126.49"/>
<polygon fill="midnightblue" stroke="midnightblue" points="427.2,-129.14 436.87,-133.46 432,-124.05 427.2,-129.14"/>
</g>
<!-- Node10&#45;&gt;Node9 -->
<g id="edge10" class="edge">
<title>Node10&#45;&gt;Node9</title>
<path fill="none" stroke="midnightblue" d="M370.19,-10C381.59,-10 394.9,-10 407.24,-10"/>
<polygon fill="midnightblue" stroke="midnightblue" points="407.31,-13.5 417.31,-10 407.31,-6.5 407.31,-13.5"/>
</g>
</g>
</svg>
