<?xml version="1.0" encoding="UTF-8" standalone="no"?>
<!DOCTYPE svg PUBLIC "-//W3C//DTD SVG 1.1//EN"
 "http://www.w3.org/Graphics/SVG/1.1/DTD/svg11.dtd">
<!-- Generated by graphviz version 2.44.1 (20200629.0846)
 -->
<!-- Title: rnode_emit Pages: 1 -->
<svg width="302pt" height="66pt"
 viewBox="0.00 0.00 302.00 66.00" xmlns="http://www.w3.org/2000/svg" xmlns:xlink="http://www.w3.org/1999/xlink">
<g id="graph0" class="graph" transform="scale(1 1) rotate(0) translate(4 62)">
<title>rnode_emit</title>
<polygon fill="white" stroke="transparent" points="-4,4 -4,-62 298,-62 298,4 -4,4"/>
<!-- Node1 -->
<g id="node1" class="node">
<title>Node1</title>
<g id="a_node1"><a xlink:title=" ">
<polygon fill="#bfbfbf" stroke="black" points="0,-0.5 0,-19.5 65,-19.5 65,-0.5 0,-0.5"/>
<text text-anchor="middle" x="32.5" y="-7.5" font-family="Helvetica,sans-Serif" font-size="10.00">rnode_emit</text>
</a>
</g>
</g>
<!-- Node2 -->
<g id="node2" class="node">
<title>Node2</title>
<g id="a_node2"><a xlink:href="regex_8c.html#ad3bbf549eef0fe517e9f213c5eadbb0c" target="_top" xlink:title=" ">
<polygon fill="white" stroke="black" points="233,-38.5 233,-57.5 287,-57.5 287,-38.5 233,-38.5"/>
<text text-anchor="middle" x="260" y="-45.5" font-family="Helvetica,sans-Serif" font-size="10.00">re_insert</text>
</a>
</g>
</g>
<!-- Node1&#45;&gt;Node2 -->
<g id="edge1" class="edge">
<title>Node1&#45;&gt;Node2</title>
<path fill="none" stroke="midnightblue" d="M63.5,-19.52C75.12,-22.92 88.58,-26.52 101,-29 142.26,-37.24 190.34,-42.4 222.53,-45.23"/>
<polygon fill="midnightblue" stroke="midnightblue" points="222.54,-48.74 232.8,-46.1 223.13,-41.77 222.54,-48.74"/>
</g>
<!-- Node3 -->
<g id="node3" class="node">
<title>Node3</title>
<g id="a_node3"><a xlink:href="regex_8c.html#afdf3c7adbb2060b793cf83c5312321c8" target="_top" xlink:title=" ">
<polygon fill="white" stroke="black" points="101,-0.5 101,-19.5 190,-19.5 190,-0.5 101,-0.5"/>
<text text-anchor="middle" x="145.5" y="-7.5" font-family="Helvetica,sans-Serif" font-size="10.00">rnode_emitnorep</text>
</a>
</g>
</g>
<!-- Node1&#45;&gt;Node3 -->
<g id="edge2" class="edge">
<title>Node1&#45;&gt;Node3</title>
<path fill="none" stroke="midnightblue" d="M65.01,-3.84C73.03,-3.42 81.87,-3.22 90.66,-3.25"/>
<polygon fill="midnightblue" stroke="midnightblue" points="90.85,-6.76 100.89,-3.39 90.94,0.24 90.85,-6.76"/>
</g>
<!-- Node3&#45;&gt;Node1 -->
<g id="edge5" class="edge">
<title>Node3&#45;&gt;Node1</title>
<path fill="none" stroke="midnightblue" d="M100.89,-16.61C92.38,-16.81 83.47,-16.8 75.03,-16.56"/>
<polygon fill="midnightblue" stroke="midnightblue" points="75.14,-13.06 65.01,-16.16 74.86,-20.05 75.14,-13.06"/>
</g>
<!-- Node3&#45;&gt;Node2 -->
<g id="edge4" class="edge">
<title>Node3&#45;&gt;Node2</title>
<path fill="none" stroke="midnightblue" d="M174.89,-19.59C189.52,-24.53 207.51,-30.61 223.1,-35.87"/>
<polygon fill="midnightblue" stroke="midnightblue" points="222.34,-39.31 232.93,-39.2 224.58,-32.68 222.34,-39.31"/>
</g>
<!-- Node4 -->
<g id="node4" class="node">
<title>Node4</title>
<g id="a_node4"><a xlink:href="regex_8c.html#a71b5a38b3a51e761aaa959a89e7cae55" target="_top" xlink:title=" ">
<polygon fill="white" stroke="black" points="226,-0.5 226,-19.5 294,-19.5 294,-0.5 226,-0.5"/>
<text text-anchor="middle" x="260" y="-7.5" font-family="Helvetica,sans-Serif" font-size="10.00">ratom_copy</text>
</a>
</g>
</g>
<!-- Node3&#45;&gt;Node4 -->
<g id="edge3" class="edge">
<title>Node3&#45;&gt;Node4</title>
<path fill="none" stroke="midnightblue" d="M190.32,-10C198.65,-10 207.36,-10 215.67,-10"/>
<polygon fill="midnightblue" stroke="midnightblue" points="215.93,-13.5 225.93,-10 215.93,-6.5 215.93,-13.5"/>
</g>
</g>
</svg>
