<?xml version="1.0" encoding="UTF-8" standalone="no"?>
<!DOCTYPE svg PUBLIC "-//W3C//DTD SVG 1.1//EN"
 "http://www.w3.org/Graphics/SVG/1.1/DTD/svg11.dtd">
<!-- Generated by graphviz version 2.44.1 (20200629.0846)
 -->
<!-- Title: ren_noeol Pages: 1 -->
<svg width="320pt" height="66pt"
 viewBox="0.00 0.00 320.00 66.00" xmlns="http://www.w3.org/2000/svg" xmlns:xlink="http://www.w3.org/1999/xlink">
<g id="graph0" class="graph" transform="scale(1 1) rotate(0) translate(4 62)">
<title>ren_noeol</title>
<polygon fill="white" stroke="transparent" points="-4,4 -4,-62 316,-62 316,4 -4,4"/>
<!-- Node1 -->
<g id="node1" class="node">
<title>Node1</title>
<g id="a_node1"><a xlink:title=" ">
<polygon fill="#bfbfbf" stroke="black" points="0,-19.5 0,-38.5 59,-38.5 59,-19.5 0,-19.5"/>
<text text-anchor="middle" x="29.5" y="-26.5" font-family="Helvetica,sans-Serif" font-size="10.00">ren_noeol</text>
</a>
</g>
</g>
<!-- Node2 -->
<g id="node2" class="node">
<title>Node2</title>
<g id="a_node2"><a xlink:href="uc_8c.html#a2fecd1fc98475ece5f529da3315a9553" target="_top" xlink:title=" ">
<polygon fill="white" stroke="black" points="95,-38.5 95,-57.5 141,-57.5 141,-38.5 95,-38.5"/>
<text text-anchor="middle" x="118" y="-45.5" font-family="Helvetica,sans-Serif" font-size="10.00">uc_chr</text>
</a>
</g>
</g>
<!-- Node1&#45;&gt;Node2 -->
<g id="edge1" class="edge">
<title>Node1&#45;&gt;Node2</title>
<path fill="none" stroke="midnightblue" d="M59.3,-35.33C67.55,-37.14 76.59,-39.12 85.01,-40.97"/>
<polygon fill="midnightblue" stroke="midnightblue" points="84.37,-44.42 94.89,-43.14 85.87,-37.58 84.37,-44.42"/>
</g>
<!-- Node5 -->
<g id="node5" class="node">
<title>Node5</title>
<g id="a_node5"><a xlink:href="uc_8c.html#a8afd7835259109c3ec7bb684d4a1f67f" target="_top" xlink:title=" ">
<polygon fill="white" stroke="black" points="177.5,-0.5 177.5,-19.5 227.5,-19.5 227.5,-0.5 177.5,-0.5"/>
<text text-anchor="middle" x="202.5" y="-7.5" font-family="Helvetica,sans-Serif" font-size="10.00">uc_slen</text>
</a>
</g>
</g>
<!-- Node1&#45;&gt;Node5 -->
<g id="edge4" class="edge">
<title>Node1&#45;&gt;Node5</title>
<path fill="none" stroke="midnightblue" d="M59.12,-25.82C88.93,-22.51 135.63,-17.32 167.35,-13.79"/>
<polygon fill="midnightblue" stroke="midnightblue" points="167.93,-17.25 177.49,-12.67 167.16,-10.29 167.93,-17.25"/>
</g>
<!-- Node3 -->
<g id="node3" class="node">
<title>Node3</title>
<g id="a_node3"><a xlink:href="uc_8c.html#a79c7c44c06c1febff5680c19667e2676" target="_top" xlink:title=" ">
<polygon fill="white" stroke="black" points="177,-38.5 177,-57.5 228,-57.5 228,-38.5 177,-38.5"/>
<text text-anchor="middle" x="202.5" y="-45.5" font-family="Helvetica,sans-Serif" font-size="10.00">uc_next</text>
</a>
</g>
</g>
<!-- Node2&#45;&gt;Node3 -->
<g id="edge2" class="edge">
<title>Node2&#45;&gt;Node3</title>
<path fill="none" stroke="midnightblue" d="M141.11,-48C148.91,-48 157.89,-48 166.5,-48"/>
<polygon fill="midnightblue" stroke="midnightblue" points="166.71,-51.5 176.71,-48 166.71,-44.5 166.71,-51.5"/>
</g>
<!-- Node4 -->
<g id="node4" class="node">
<title>Node4</title>
<g id="a_node4"><a xlink:href="uc_8c.html#a616e24870a58b86644c34ee077faca11" target="_top" xlink:title=" ">
<polygon fill="white" stroke="black" points="264,-19.5 264,-38.5 312,-38.5 312,-19.5 264,-19.5"/>
<text text-anchor="middle" x="288" y="-26.5" font-family="Helvetica,sans-Serif" font-size="10.00">uc_end</text>
</a>
</g>
</g>
<!-- Node3&#45;&gt;Node4 -->
<g id="edge3" class="edge">
<title>Node3&#45;&gt;Node4</title>
<path fill="none" stroke="midnightblue" d="M228.1,-42.4C236.19,-40.56 245.32,-38.48 253.94,-36.52"/>
<polygon fill="midnightblue" stroke="midnightblue" points="254.75,-39.93 263.72,-34.3 253.19,-33.1 254.75,-39.93"/>
</g>
<!-- Node5&#45;&gt;Node4 -->
<g id="edge5" class="edge">
<title>Node5&#45;&gt;Node4</title>
<path fill="none" stroke="midnightblue" d="M227.65,-15.5C235.82,-17.35 245.09,-19.46 253.84,-21.45"/>
<polygon fill="midnightblue" stroke="midnightblue" points="253.24,-24.91 263.76,-23.71 254.79,-18.08 253.24,-24.91"/>
</g>
</g>
</svg>
