<?xml version="1.0" encoding="UTF-8" standalone="no"?>
<!DOCTYPE svg PUBLIC "-//W3C//DTD SVG 1.1//EN"
 "http://www.w3.org/Graphics/SVG/1.1/DTD/svg11.dtd">
<!-- Generated by graphviz version 2.44.1 (20200629.0846)
 -->
<!-- Title: ren_placeholder Pages: 1 -->
<svg width="385pt" height="195pt"
 viewBox="0.00 0.00 385.00 195.09" xmlns="http://www.w3.org/2000/svg" xmlns:xlink="http://www.w3.org/1999/xlink">
<g id="graph0" class="graph" transform="scale(1 1) rotate(0) translate(4 191.09)">
<title>ren_placeholder</title>
<polygon fill="white" stroke="transparent" points="-4,4 -4,-191.09 381,-191.09 381,4 -4,4"/>
<!-- Node1 -->
<g id="node1" class="node">
<title>Node1</title>
<g id="a_node1"><a xlink:title=" ">
<polygon fill="#bfbfbf" stroke="black" points="0,-76.5 0,-95.5 85,-95.5 85,-76.5 0,-76.5"/>
<text text-anchor="middle" x="42.5" y="-83.5" font-family="Helvetica,sans-Serif" font-size="10.00">ren_placeholder</text>
</a>
</g>
</g>
<!-- Node2 -->
<g id="node2" class="node">
<title>Node2</title>
<g id="a_node2"><a xlink:href="conf_8c.html#ab1da6502eeb02af2fb9fa8a84515b0b6" target="_top" xlink:title=" ">
<polygon fill="white" stroke="black" points="121,-152.5 121,-171.5 211,-171.5 211,-152.5 121,-152.5"/>
<text text-anchor="middle" x="166" y="-159.5" font-family="Helvetica,sans-Serif" font-size="10.00">conf_placeholder</text>
</a>
</g>
</g>
<!-- Node1&#45;&gt;Node2 -->
<g id="edge1" class="edge">
<title>Node1&#45;&gt;Node2</title>
<path fill="none" stroke="midnightblue" d="M54.75,-95.56C69.36,-107.65 95.94,-128.62 121,-143 124.05,-144.75 127.3,-146.44 130.58,-148.04"/>
<polygon fill="midnightblue" stroke="midnightblue" points="129.31,-151.31 139.85,-152.31 132.23,-144.95 129.31,-151.31"/>
</g>
<!-- Node3 -->
<g id="node3" class="node">
<title>Node3</title>
<g id="a_node3"><a xlink:href="uc_8c.html#a45fdc2f2f3cb34515f1014bf754741bb" target="_top" xlink:title=" ">
<polygon fill="white" stroke="black" points="251.5,-76.5 251.5,-95.5 304.5,-95.5 304.5,-76.5 251.5,-76.5"/>
<text text-anchor="middle" x="278" y="-83.5" font-family="Helvetica,sans-Serif" font-size="10.00">uc_code</text>
</a>
</g>
</g>
<!-- Node1&#45;&gt;Node3 -->
<g id="edge2" class="edge">
<title>Node1&#45;&gt;Node3</title>
<path fill="none" stroke="midnightblue" d="M85.25,-86C129.75,-86 199.46,-86 241.44,-86"/>
<polygon fill="midnightblue" stroke="midnightblue" points="241.48,-89.5 251.48,-86 241.48,-82.5 241.48,-89.5"/>
</g>
<!-- Node4 -->
<g id="node4" class="node">
<title>Node4</title>
<g id="a_node4"><a xlink:href="uc_8c.html#ad0a3bced19585fa779b48845746583e8" target="_top" xlink:title=" ">
<polygon fill="white" stroke="black" points="138.5,-114.5 138.5,-133.5 193.5,-133.5 193.5,-114.5 138.5,-114.5"/>
<text text-anchor="middle" x="166" y="-121.5" font-family="Helvetica,sans-Serif" font-size="10.00">uc_isbell</text>
</a>
</g>
</g>
<!-- Node1&#45;&gt;Node4 -->
<g id="edge3" class="edge">
<title>Node1&#45;&gt;Node4</title>
<path fill="none" stroke="midnightblue" d="M74.16,-95.59C90.73,-100.77 111.3,-107.21 128.67,-112.64"/>
<polygon fill="midnightblue" stroke="midnightblue" points="127.89,-116.06 138.48,-115.7 129.98,-109.38 127.89,-116.06"/>
</g>
<!-- Node8 -->
<g id="node8" class="node">
<title>Node8</title>
<g id="a_node8"><a xlink:href="uc_8c.html#ae861c9bb1e8c19383bda8fddfacc95d3" target="_top" xlink:title=" ">
<polygon fill="white" stroke="black" points="134,-38.5 134,-57.5 198,-57.5 198,-38.5 134,-38.5"/>
<text text-anchor="middle" x="166" y="-45.5" font-family="Helvetica,sans-Serif" font-size="10.00">uc_iscomb</text>
</a>
</g>
</g>
<!-- Node1&#45;&gt;Node8 -->
<g id="edge10" class="edge">
<title>Node1&#45;&gt;Node8</title>
<path fill="none" stroke="midnightblue" d="M74.16,-76.41C89.41,-71.64 108.05,-65.81 124.47,-60.68"/>
<polygon fill="midnightblue" stroke="midnightblue" points="125.85,-63.91 134.35,-57.59 123.76,-57.23 125.85,-63.91"/>
</g>
<!-- Node10 -->
<g id="node10" class="node">
<title>Node10</title>
<g id="a_node10"><a xlink:href="regex_8c.html#a9a0d6d5f93f1eaba8b63b16903c0952d" target="_top" xlink:title=" ">
<polygon fill="white" stroke="black" points="143.5,-0.5 143.5,-19.5 188.5,-19.5 188.5,-0.5 143.5,-0.5"/>
<text text-anchor="middle" x="166" y="-7.5" font-family="Helvetica,sans-Serif" font-size="10.00">uc_len</text>
</a>
</g>
</g>
<!-- Node1&#45;&gt;Node10 -->
<g id="edge13" class="edge">
<title>Node1&#45;&gt;Node10</title>
<path fill="none" stroke="midnightblue" d="M54.75,-76.44C69.36,-64.35 95.94,-43.38 121,-29 125.2,-26.59 129.76,-24.29 134.31,-22.19"/>
<polygon fill="midnightblue" stroke="midnightblue" points="135.75,-25.38 143.49,-18.14 132.93,-18.97 135.75,-25.38"/>
</g>
<!-- Node4&#45;&gt;Node3 -->
<g id="edge5" class="edge">
<title>Node4&#45;&gt;Node3</title>
<path fill="none" stroke="midnightblue" d="M193.63,-114.8C208.02,-109.83 225.99,-103.62 241.56,-98.24"/>
<polygon fill="midnightblue" stroke="midnightblue" points="243.07,-101.43 251.37,-94.85 240.78,-94.81 243.07,-101.43"/>
</g>
<!-- Node5 -->
<g id="node5" class="node">
<title>Node5</title>
<g id="a_node5"><a xlink:href="uc_8c.html#a26b3c1840a578dd97a58069e0af2168c" target="_top" xlink:title=" ">
<polygon fill="white" stroke="black" points="345,-152.5 345,-171.5 377,-171.5 377,-152.5 345,-152.5"/>
<text text-anchor="middle" x="361" y="-159.5" font-family="Helvetica,sans-Serif" font-size="10.00">find</text>
</a>
</g>
</g>
<!-- Node4&#45;&gt;Node5 -->
<g id="edge4" class="edge">
<title>Node4&#45;&gt;Node5</title>
<path fill="none" stroke="midnightblue" d="M193.52,-133.39C199.52,-136.07 205.68,-139.28 211,-143 230.07,-156.33 225.63,-171.81 247,-181 275.78,-193.38 311.92,-183.34 335.47,-173.77"/>
<polygon fill="midnightblue" stroke="midnightblue" points="336.94,-176.95 344.73,-169.77 334.16,-170.52 336.94,-176.95"/>
</g>
<!-- Node6 -->
<g id="node6" class="node">
<title>Node6</title>
<g id="a_node6"><a xlink:href="uc_8c.html#a0f3be4d499b9b3469d03114386b386a2" target="_top" xlink:title=" ">
<polygon fill="white" stroke="black" points="251.5,-152.5 251.5,-171.5 304.5,-171.5 304.5,-152.5 251.5,-152.5"/>
<text text-anchor="middle" x="278" y="-159.5" font-family="Helvetica,sans-Serif" font-size="10.00">uc_isdw</text>
</a>
</g>
</g>
<!-- Node4&#45;&gt;Node6 -->
<g id="edge6" class="edge">
<title>Node4&#45;&gt;Node6</title>
<path fill="none" stroke="midnightblue" d="M193.63,-133.2C208.02,-138.17 225.99,-144.38 241.56,-149.76"/>
<polygon fill="midnightblue" stroke="midnightblue" points="240.78,-153.19 251.37,-153.15 243.07,-146.57 240.78,-153.19"/>
</g>
<!-- Node7 -->
<g id="node7" class="node">
<title>Node7</title>
<g id="a_node7"><a xlink:href="uc_8c.html#aef404add952e41075b8871fefaaba669" target="_top" xlink:title=" ">
<polygon fill="white" stroke="black" points="251.5,-114.5 251.5,-133.5 304.5,-133.5 304.5,-114.5 251.5,-114.5"/>
<text text-anchor="middle" x="278" y="-121.5" font-family="Helvetica,sans-Serif" font-size="10.00">uc_iszw</text>
</a>
</g>
</g>
<!-- Node4&#45;&gt;Node7 -->
<g id="edge8" class="edge">
<title>Node4&#45;&gt;Node7</title>
<path fill="none" stroke="midnightblue" d="M193.63,-124C207.89,-124 225.65,-124 241.11,-124"/>
<polygon fill="midnightblue" stroke="midnightblue" points="241.37,-127.5 251.37,-124 241.37,-120.5 241.37,-127.5"/>
</g>
<!-- Node6&#45;&gt;Node5 -->
<g id="edge7" class="edge">
<title>Node6&#45;&gt;Node5</title>
<path fill="none" stroke="midnightblue" d="M304.63,-162C314.19,-162 325.04,-162 334.59,-162"/>
<polygon fill="midnightblue" stroke="midnightblue" points="334.67,-165.5 344.67,-162 334.67,-158.5 334.67,-165.5"/>
</g>
<!-- Node7&#45;&gt;Node5 -->
<g id="edge9" class="edge">
<title>Node7&#45;&gt;Node5</title>
<path fill="none" stroke="midnightblue" d="M299.44,-133.59C310.5,-138.78 324.22,-145.22 335.81,-150.65"/>
<polygon fill="midnightblue" stroke="midnightblue" points="334.4,-153.85 344.94,-154.93 337.37,-147.52 334.4,-153.85"/>
</g>
<!-- Node8&#45;&gt;Node3 -->
<g id="edge12" class="edge">
<title>Node8&#45;&gt;Node3</title>
<path fill="none" stroke="midnightblue" d="M194.76,-57.59C208.96,-62.49 226.4,-68.52 241.56,-73.76"/>
<polygon fill="midnightblue" stroke="midnightblue" points="240.55,-77.11 251.14,-77.07 242.83,-70.49 240.55,-77.11"/>
</g>
<!-- Node9 -->
<g id="node9" class="node">
<title>Node9</title>
<g id="a_node9"><a xlink:href="uc_8c.html#af4546620f966c0c94ca5980dd2fb9a04" target="_top" xlink:title=" ">
<polygon fill="white" stroke="black" points="247,-38.5 247,-57.5 309,-57.5 309,-38.5 247,-38.5"/>
<text text-anchor="middle" x="278" y="-45.5" font-family="Helvetica,sans-Serif" font-size="10.00">uc_acomb</text>
</a>
</g>
</g>
<!-- Node8&#45;&gt;Node9 -->
<g id="edge11" class="edge">
<title>Node8&#45;&gt;Node9</title>
<path fill="none" stroke="midnightblue" d="M198.23,-48C210.14,-48 223.89,-48 236.53,-48"/>
<polygon fill="midnightblue" stroke="midnightblue" points="236.83,-51.5 246.83,-48 236.83,-44.5 236.83,-51.5"/>
</g>
</g>
</svg>
