<?xml version="1.0" encoding="UTF-8" standalone="no"?>
<!DOCTYPE svg PUBLIC "-//W3C//DTD SVG 1.1//EN"
 "http://www.w3.org/Graphics/SVG/1.1/DTD/svg11.dtd">
<!-- Generated by graphviz version 2.44.1 (20200629.0846)
 -->
<!-- Title: term_suspend Pages: 1 -->
<svg width="681pt" height="137pt"
 viewBox="0.00 0.00 681.00 137.00" xmlns="http://www.w3.org/2000/svg" xmlns:xlink="http://www.w3.org/1999/xlink">
<g id="graph0" class="graph" transform="scale(1 1) rotate(0) translate(4 133)">
<title>term_suspend</title>
<polygon fill="white" stroke="transparent" points="-4,4 -4,-133 677,-133 677,4 -4,4"/>
<!-- Node1 -->
<g id="node1" class="node">
<title>Node1</title>
<g id="a_node1"><a xlink:title=" ">
<polygon fill="#bfbfbf" stroke="black" points="0,-40.5 0,-59.5 78,-59.5 78,-40.5 0,-40.5"/>
<text text-anchor="middle" x="39" y="-47.5" font-family="Helvetica,sans-Serif" font-size="10.00">term_suspend</text>
</a>
</g>
</g>
<!-- Node2 -->
<g id="node2" class="node">
<title>Node2</title>
<g id="a_node2"><a xlink:href="term_8c.html#af75f29a5ad723ab7a7f1ae4769daaa8f" target="_top" xlink:title=" ">
<polygon fill="white" stroke="black" points="114,-68.5 114,-87.5 176,-87.5 176,-68.5 114,-68.5"/>
<text text-anchor="middle" x="145" y="-75.5" font-family="Helvetica,sans-Serif" font-size="10.00">term_done</text>
</a>
</g>
</g>
<!-- Node1&#45;&gt;Node2 -->
<g id="edge1" class="edge">
<title>Node1&#45;&gt;Node2</title>
<path fill="none" stroke="midnightblue" d="M75.5,-59.56C84.66,-62.02 94.58,-64.7 103.96,-67.22"/>
<polygon fill="midnightblue" stroke="midnightblue" points="103.29,-70.66 113.86,-69.88 105.11,-63.9 103.29,-70.66"/>
</g>
<!-- Node8 -->
<g id="node8" class="node">
<title>Node8</title>
<g id="a_node8"><a xlink:href="term_8c.html#ac7072b9c76dd77ce9900197d0133b0ba" target="_top" xlink:title=" ">
<polygon fill="white" stroke="black" points="118,-21.5 118,-40.5 172,-40.5 172,-21.5 118,-21.5"/>
<text text-anchor="middle" x="145" y="-28.5" font-family="Helvetica,sans-Serif" font-size="10.00">term_init</text>
</a>
</g>
</g>
<!-- Node1&#45;&gt;Node8 -->
<g id="edge7" class="edge">
<title>Node1&#45;&gt;Node8</title>
<path fill="none" stroke="midnightblue" d="M78.14,-43.03C87.84,-41.26 98.24,-39.36 107.85,-37.6"/>
<polygon fill="midnightblue" stroke="midnightblue" points="108.68,-41.01 117.89,-35.77 107.42,-34.12 108.68,-41.01"/>
</g>
<!-- Node3 -->
<g id="node3" class="node">
<title>Node3</title>
<g id="a_node3"><a xlink:href="term_8c.html#ac34816f514affc4dfb9d34f361175bf9" target="_top" xlink:title=" ">
<polygon fill="white" stroke="black" points="212,-73.5 212,-92.5 286,-92.5 286,-73.5 212,-73.5"/>
<text text-anchor="middle" x="249" y="-80.5" font-family="Helvetica,sans-Serif" font-size="10.00">term_commit</text>
</a>
</g>
</g>
<!-- Node2&#45;&gt;Node3 -->
<g id="edge2" class="edge">
<title>Node2&#45;&gt;Node3</title>
<path fill="none" stroke="midnightblue" d="M176.05,-79.47C184.08,-79.87 192.94,-80.3 201.62,-80.73"/>
<polygon fill="midnightblue" stroke="midnightblue" points="201.51,-84.23 211.67,-81.22 201.85,-77.23 201.51,-84.23"/>
</g>
<!-- Node4 -->
<g id="node4" class="node">
<title>Node4</title>
<g id="a_node4"><a xlink:href="sbuf_8c.html#a4e56760893d5a6797626743840c9adf2" target="_top" xlink:title=" ">
<polygon fill="white" stroke="black" points="415,-109.5 415,-128.5 469,-128.5 469,-109.5 415,-109.5"/>
<text text-anchor="middle" x="442" y="-116.5" font-family="Helvetica,sans-Serif" font-size="10.00">sbuf_buf</text>
</a>
</g>
</g>
<!-- Node3&#45;&gt;Node4 -->
<g id="edge3" class="edge">
<title>Node3&#45;&gt;Node4</title>
<path fill="none" stroke="midnightblue" d="M277.05,-92.53C290.43,-96.91 306.91,-101.83 322,-105 349.49,-110.77 381.08,-114.35 404.81,-116.44"/>
<polygon fill="midnightblue" stroke="midnightblue" points="404.53,-119.93 414.78,-117.27 405.11,-112.95 404.53,-119.93"/>
</g>
<!-- Node6 -->
<g id="node6" class="node">
<title>Node6</title>
<g id="a_node6"><a xlink:href="sbuf_8c.html#a8c1a89868b1999663effb78b4f3fab32" target="_top" xlink:title=" ">
<polygon fill="white" stroke="black" points="322,-76.5 322,-95.5 379,-95.5 379,-76.5 322,-76.5"/>
<text text-anchor="middle" x="350.5" y="-83.5" font-family="Helvetica,sans-Serif" font-size="10.00">sbuf_free</text>
</a>
</g>
</g>
<!-- Node3&#45;&gt;Node6 -->
<g id="edge5" class="edge">
<title>Node3&#45;&gt;Node6</title>
<path fill="none" stroke="midnightblue" d="M286.2,-84.09C294.49,-84.34 303.31,-84.61 311.66,-84.86"/>
<polygon fill="midnightblue" stroke="midnightblue" points="311.8,-88.36 321.91,-85.17 312.02,-81.37 311.8,-88.36"/>
</g>
<!-- Node7 -->
<g id="node7" class="node">
<title>Node7</title>
<g id="a_node7"><a xlink:href="sbuf_8c.html#af4ad9608dfc956bbedc19df5c8256fc4" target="_top" xlink:title=" ">
<polygon fill="white" stroke="black" points="324,-38.5 324,-57.5 377,-57.5 377,-38.5 324,-38.5"/>
<text text-anchor="middle" x="350.5" y="-45.5" font-family="Helvetica,sans-Serif" font-size="10.00">sbuf_len</text>
</a>
</g>
</g>
<!-- Node3&#45;&gt;Node7 -->
<g id="edge6" class="edge">
<title>Node3&#45;&gt;Node7</title>
<path fill="none" stroke="midnightblue" d="M277.19,-73.44C288.63,-69.41 302.09,-64.68 314.28,-60.39"/>
<polygon fill="midnightblue" stroke="midnightblue" points="315.44,-63.69 323.71,-57.07 313.12,-57.09 315.44,-63.69"/>
</g>
<!-- Node5 -->
<g id="node5" class="node">
<title>Node5</title>
<g id="a_node5"><a xlink:href="sbuf_8c.html#a4ad75f3948c0340c342a3ea3eb63a6e6" target="_top" xlink:title=" ">
<polygon fill="white" stroke="black" points="603,-76.5 603,-95.5 673,-95.5 673,-76.5 603,-76.5"/>
<text text-anchor="middle" x="638" y="-83.5" font-family="Helvetica,sans-Serif" font-size="10.00">sbuf_extend</text>
</a>
</g>
</g>
<!-- Node4&#45;&gt;Node5 -->
<g id="edge4" class="edge">
<title>Node4&#45;&gt;Node5</title>
<path fill="none" stroke="midnightblue" d="M469.16,-114.55C500.74,-109.18 554.33,-100.06 592.46,-93.58"/>
<polygon fill="midnightblue" stroke="midnightblue" points="593.5,-96.95 602.77,-91.82 592.33,-90.05 593.5,-96.95"/>
</g>
<!-- Node9 -->
<g id="node9" class="node">
<title>Node9</title>
<g id="a_node9"><a xlink:href="term_8c.html#a1982be6327b52a410f8cad1eb805187b" target="_top" xlink:title=" ">
<polygon fill="white" stroke="black" points="222.5,-2.5 222.5,-21.5 275.5,-21.5 275.5,-2.5 222.5,-2.5"/>
<text text-anchor="middle" x="249" y="-9.5" font-family="Helvetica,sans-Serif" font-size="10.00">term_str</text>
</a>
</g>
</g>
<!-- Node8&#45;&gt;Node9 -->
<g id="edge8" class="edge">
<title>Node8&#45;&gt;Node9</title>
<path fill="none" stroke="midnightblue" d="M172,-26.16C184.21,-23.88 198.94,-21.14 212.18,-18.67"/>
<polygon fill="midnightblue" stroke="midnightblue" points="213.21,-22.04 222.4,-16.77 211.93,-15.16 213.21,-22.04"/>
</g>
<!-- Node10 -->
<g id="node10" class="node">
<title>Node10</title>
<g id="a_node10"><a xlink:href="term_8c.html#acba93d06f96ed6e5ec460b781191741d" target="_top" xlink:title=" ">
<polygon fill="white" stroke="black" points="323,-0.5 323,-19.5 378,-19.5 378,-0.5 323,-0.5"/>
<text text-anchor="middle" x="350.5" y="-7.5" font-family="Helvetica,sans-Serif" font-size="10.00">term_out</text>
</a>
</g>
</g>
<!-- Node9&#45;&gt;Node10 -->
<g id="edge9" class="edge">
<title>Node9&#45;&gt;Node10</title>
<path fill="none" stroke="midnightblue" d="M275.62,-11.48C286.96,-11.26 300.5,-10.98 312.88,-10.74"/>
<polygon fill="midnightblue" stroke="midnightblue" points="312.99,-14.23 322.92,-10.53 312.85,-7.24 312.99,-14.23"/>
</g>
<!-- Node11 -->
<g id="node11" class="node">
<title>Node11</title>
<g id="a_node11"><a xlink:href="sbuf_8c.html#a603d1d6ab090025f5850f10bfa2dec7a" target="_top" xlink:title=" ">
<polygon fill="white" stroke="black" points="416,-38.5 416,-57.5 468,-57.5 468,-38.5 416,-38.5"/>
<text text-anchor="middle" x="442" y="-45.5" font-family="Helvetica,sans-Serif" font-size="10.00">sbuf_str</text>
</a>
</g>
</g>
<!-- Node10&#45;&gt;Node11 -->
<g id="edge10" class="edge">
<title>Node10&#45;&gt;Node11</title>
<path fill="none" stroke="midnightblue" d="M374.08,-19.59C384.68,-24.09 397.5,-29.53 409.07,-34.44"/>
<polygon fill="midnightblue" stroke="midnightblue" points="407.85,-37.73 418.42,-38.41 410.59,-31.28 407.85,-37.73"/>
</g>
<!-- Node12 -->
<g id="node12" class="node">
<title>Node12</title>
<g id="a_node12"><a xlink:href="sbuf_8c.html#aa511ac77d6b486accc01c0512ef27ed2" target="_top" xlink:title=" ">
<polygon fill="white" stroke="black" points="505,-57.5 505,-76.5 567,-76.5 567,-57.5 505,-57.5"/>
<text text-anchor="middle" x="536" y="-64.5" font-family="Helvetica,sans-Serif" font-size="10.00">sbuf_mem</text>
</a>
</g>
</g>
<!-- Node11&#45;&gt;Node12 -->
<g id="edge11" class="edge">
<title>Node11&#45;&gt;Node12</title>
<path fill="none" stroke="midnightblue" d="M468.14,-53.19C476.41,-54.9 485.83,-56.84 494.92,-58.72"/>
<polygon fill="midnightblue" stroke="midnightblue" points="494.49,-62.21 504.99,-60.8 495.9,-55.35 494.49,-62.21"/>
</g>
<!-- Node12&#45;&gt;Node5 -->
<g id="edge12" class="edge">
<title>Node12&#45;&gt;Node5</title>
<path fill="none" stroke="midnightblue" d="M567,-72.7C575.11,-74.24 584.05,-75.94 592.76,-77.59"/>
<polygon fill="midnightblue" stroke="midnightblue" points="592.33,-81.08 602.81,-79.5 593.64,-74.2 592.33,-81.08"/>
</g>
</g>
</svg>
