<?xml version="1.0" encoding="UTF-8" standalone="no"?>
<!DOCTYPE svg PUBLIC "-//W3C//DTD SVG 1.1//EN"
 "http://www.w3.org/Graphics/SVG/1.1/DTD/svg11.dtd">
<!-- Generated by graphviz version 2.44.1 (20200629.0846)
 -->
<!-- Title: uc.c Pages: 1 -->
<svg width="306pt" height="84pt"
 viewBox="0.00 0.00 305.50 84.00" xmlns="http://www.w3.org/2000/svg" xmlns:xlink="http://www.w3.org/1999/xlink">
<g id="graph0" class="graph" transform="scale(1 1) rotate(0) translate(4 80)">
<title>uc.c</title>
<polygon fill="white" stroke="transparent" points="-4,4 -4,-80 301.5,-80 301.5,4 -4,4"/>
<!-- Node1 -->
<g id="node1" class="node">
<title>Node1</title>
<g id="a_node1"><a xlink:title=" ">
<polygon fill="#bfbfbf" stroke="black" points="138,-56.5 138,-75.5 173,-75.5 173,-56.5 138,-56.5"/>
<text text-anchor="middle" x="155.5" y="-63.5" font-family="Helvetica,sans-Serif" font-size="10.00">uc.c</text>
</a>
</g>
</g>
<!-- Node2 -->
<g id="node2" class="node">
<title>Node2</title>
<g id="a_node2"><a xlink:title=" ">
<polygon fill="white" stroke="#bfbfbf" points="0,-0.5 0,-19.5 49,-19.5 49,-0.5 0,-0.5"/>
<text text-anchor="middle" x="24.5" y="-7.5" font-family="Helvetica,sans-Serif" font-size="10.00">ctype.h</text>
</a>
</g>
</g>
<!-- Node1&#45;&gt;Node2 -->
<g id="edge1" class="edge">
<title>Node1&#45;&gt;Node2</title>
<path fill="none" stroke="midnightblue" d="M137.83,-57.72C116.53,-48.94 80.38,-34.04 54.64,-23.43"/>
<polygon fill="midnightblue" stroke="midnightblue" points="55.92,-20.17 45.34,-19.59 53.25,-26.64 55.92,-20.17"/>
</g>
<!-- Node3 -->
<g id="node3" class="node">
<title>Node3</title>
<g id="a_node3"><a xlink:title=" ">
<polygon fill="white" stroke="#bfbfbf" points="67.5,-0.5 67.5,-19.5 113.5,-19.5 113.5,-0.5 67.5,-0.5"/>
<text text-anchor="middle" x="90.5" y="-7.5" font-family="Helvetica,sans-Serif" font-size="10.00">stdio.h</text>
</a>
</g>
</g>
<!-- Node1&#45;&gt;Node3 -->
<g id="edge2" class="edge">
<title>Node1&#45;&gt;Node3</title>
<path fill="none" stroke="midnightblue" d="M145.06,-56.32C135.35,-48.26 120.68,-36.08 109,-26.37"/>
<polygon fill="midnightblue" stroke="midnightblue" points="111.06,-23.53 101.13,-19.83 106.59,-28.92 111.06,-23.53"/>
</g>
<!-- Node4 -->
<g id="node4" class="node">
<title>Node4</title>
<g id="a_node4"><a xlink:title=" ">
<polygon fill="white" stroke="#bfbfbf" points="131.5,-0.5 131.5,-19.5 179.5,-19.5 179.5,-0.5 131.5,-0.5"/>
<text text-anchor="middle" x="155.5" y="-7.5" font-family="Helvetica,sans-Serif" font-size="10.00">stdlib.h</text>
</a>
</g>
</g>
<!-- Node1&#45;&gt;Node4 -->
<g id="edge3" class="edge">
<title>Node1&#45;&gt;Node4</title>
<path fill="none" stroke="midnightblue" d="M155.5,-56.08C155.5,-49.01 155.5,-38.86 155.5,-29.99"/>
<polygon fill="midnightblue" stroke="midnightblue" points="159,-29.75 155.5,-19.75 152,-29.75 159,-29.75"/>
</g>
<!-- Node5 -->
<g id="node5" class="node">
<title>Node5</title>
<g id="a_node5"><a xlink:title=" ">
<polygon fill="white" stroke="#bfbfbf" points="198,-0.5 198,-19.5 247,-19.5 247,-0.5 198,-0.5"/>
<text text-anchor="middle" x="222.5" y="-7.5" font-family="Helvetica,sans-Serif" font-size="10.00">string.h</text>
</a>
</g>
</g>
<!-- Node1&#45;&gt;Node5 -->
<g id="edge4" class="edge">
<title>Node1&#45;&gt;Node5</title>
<path fill="none" stroke="midnightblue" d="M166.26,-56.32C176.27,-48.26 191.39,-36.08 203.43,-26.37"/>
<polygon fill="midnightblue" stroke="midnightblue" points="205.95,-28.83 211.54,-19.83 201.56,-23.38 205.95,-28.83"/>
</g>
<!-- Node6 -->
<g id="node6" class="node">
<title>Node6</title>
<g id="a_node6"><a xlink:href="vi_8h.html" target="_top" xlink:title=" ">
<polygon fill="white" stroke="black" points="265.5,-0.5 265.5,-19.5 297.5,-19.5 297.5,-0.5 265.5,-0.5"/>
<text text-anchor="middle" x="281.5" y="-7.5" font-family="Helvetica,sans-Serif" font-size="10.00">vi.h</text>
</a>
</g>
</g>
<!-- Node1&#45;&gt;Node6 -->
<g id="edge5" class="edge">
<title>Node1&#45;&gt;Node6</title>
<path fill="none" stroke="midnightblue" d="M173.02,-57.49C194.53,-48.27 231.2,-32.56 255.88,-21.98"/>
<polygon fill="midnightblue" stroke="midnightblue" points="257.51,-25.09 265.33,-17.93 254.76,-18.65 257.51,-25.09"/>
</g>
</g>
</svg>
