<?xml version="1.0" encoding="UTF-8" standalone="no"?>
<!DOCTYPE svg PUBLIC "-//W3C//DTD SVG 1.1//EN"
 "http://www.w3.org/Graphics/SVG/1.1/DTD/svg11.dtd">
<!-- Generated by graphviz version 2.44.1 (20200629.0846)
 -->
<!-- Title: uc_sub Pages: 1 -->
<svg width="309pt" height="28pt"
 viewBox="0.00 0.00 309.00 28.00" xmlns="http://www.w3.org/2000/svg" xmlns:xlink="http://www.w3.org/1999/xlink">
<g id="graph0" class="graph" transform="scale(1 1) rotate(0) translate(4 24)">
<title>uc_sub</title>
<polygon fill="white" stroke="transparent" points="-4,4 -4,-24 305,-24 305,4 -4,4"/>
<!-- Node1 -->
<g id="node1" class="node">
<title>Node1</title>
<g id="a_node1"><a xlink:title=" ">
<polygon fill="#bfbfbf" stroke="black" points="0,-0.5 0,-19.5 48,-19.5 48,-0.5 0,-0.5"/>
<text text-anchor="middle" x="24" y="-7.5" font-family="Helvetica,sans-Serif" font-size="10.00">uc_sub</text>
</a>
</g>
</g>
<!-- Node2 -->
<g id="node2" class="node">
<title>Node2</title>
<g id="a_node2"><a xlink:href="uc_8c.html#a2fecd1fc98475ece5f529da3315a9553" target="_top" xlink:title=" ">
<polygon fill="white" stroke="black" points="84,-0.5 84,-19.5 130,-19.5 130,-0.5 84,-0.5"/>
<text text-anchor="middle" x="107" y="-7.5" font-family="Helvetica,sans-Serif" font-size="10.00">uc_chr</text>
</a>
</g>
</g>
<!-- Node1&#45;&gt;Node2 -->
<g id="edge1" class="edge">
<title>Node1&#45;&gt;Node2</title>
<path fill="none" stroke="midnightblue" d="M48.43,-10C56.25,-10 65.11,-10 73.49,-10"/>
<polygon fill="midnightblue" stroke="midnightblue" points="73.74,-13.5 83.74,-10 73.74,-6.5 73.74,-13.5"/>
</g>
<!-- Node3 -->
<g id="node3" class="node">
<title>Node3</title>
<g id="a_node3"><a xlink:href="uc_8c.html#a79c7c44c06c1febff5680c19667e2676" target="_top" xlink:title=" ">
<polygon fill="white" stroke="black" points="166,-0.5 166,-19.5 217,-19.5 217,-0.5 166,-0.5"/>
<text text-anchor="middle" x="191.5" y="-7.5" font-family="Helvetica,sans-Serif" font-size="10.00">uc_next</text>
</a>
</g>
</g>
<!-- Node2&#45;&gt;Node3 -->
<g id="edge2" class="edge">
<title>Node2&#45;&gt;Node3</title>
<path fill="none" stroke="midnightblue" d="M130.11,-10C137.91,-10 146.89,-10 155.5,-10"/>
<polygon fill="midnightblue" stroke="midnightblue" points="155.71,-13.5 165.71,-10 155.71,-6.5 155.71,-13.5"/>
</g>
<!-- Node4 -->
<g id="node4" class="node">
<title>Node4</title>
<g id="a_node4"><a xlink:href="uc_8c.html#a616e24870a58b86644c34ee077faca11" target="_top" xlink:title=" ">
<polygon fill="white" stroke="black" points="253,-0.5 253,-19.5 301,-19.5 301,-0.5 253,-0.5"/>
<text text-anchor="middle" x="277" y="-7.5" font-family="Helvetica,sans-Serif" font-size="10.00">uc_end</text>
</a>
</g>
</g>
<!-- Node3&#45;&gt;Node4 -->
<g id="edge3" class="edge">
<title>Node3&#45;&gt;Node4</title>
<path fill="none" stroke="midnightblue" d="M217.1,-10C225.1,-10 234.12,-10 242.66,-10"/>
<polygon fill="midnightblue" stroke="midnightblue" points="242.72,-13.5 252.72,-10 242.72,-6.5 242.72,-13.5"/>
</g>
</g>
</svg>
