<?xml version="1.0" encoding="UTF-8" standalone="no"?>
<!DOCTYPE svg PUBLIC "-//W3C//DTD SVG 1.1//EN"
 "http://www.w3.org/Graphics/SVG/1.1/DTD/svg11.dtd">
<!-- Generated by graphviz version 2.44.1 (20200629.0846)
 -->
<!-- Title: term_read Pages: 1 -->
<!--zoomable 484 -->
<svg id="main" version="1.1" xmlns="http://www.w3.org/2000/svg" xmlns:xlink="http://www.w3.org/1999/xlink" xml:space="preserve" onload="init(evt)">
<style type="text/css"><![CDATA[
.edge:hover path { stroke: red; }
.edge:hover polygon { stroke: red; fill: red; }
]]></style>
<script type="text/javascript"><![CDATA[
var edges = document.getElementsByTagName('g');
if (edges && edges.length) {
  for (var i=0;i<edges.length;i++) {
    if (edges[i].id.substr(0,4)=='edge') {
      edges[i].setAttribute('class','edge');
    }
  }
}
]]></script>
        <defs>
                <circle id="rim" cx="0" cy="0" r="7"/>
                <circle id="rim2" cx="0" cy="0" r="3.5"/>
                <g id="zoomPlus">
                        <use xlink:href="#rim" fill="#404040">
                                <set attributeName="fill" to="#808080" begin="zoomplus.mouseover" end="zoomplus.mouseout"/>
                        </use>
                        <path d="M-4,0h8M0,-4v8" fill="none" stroke="white" stroke-width="1.5" pointer-events="none"/>
                </g>
                <g id="zoomMin">
                        <use xlink:href="#rim" fill="#404040">
                                <set attributeName="fill" to="#808080" begin="zoomminus.mouseover" end="zoomminus.mouseout"/>
                        </use>
                        <path d="M-4,0h8" fill="none" stroke="white" stroke-width="1.5" pointer-events="none"/>
                </g>
                <g id="dirArrow">
                        <path fill="none" stroke="white" stroke-width="1.5" d="M0,-3.0v7 M-2.5,-0.5L0,-3.0L2.5,-0.5"/>
                </g>
               <g id="resetDef">
                       <use xlink:href="#rim2" fill="#404040">
                               <set attributeName="fill" to="#808080" begin="reset.mouseover" end="reset.mouseout"/>
                       </use>
               </g>
        </defs>

<script type="text/javascript">
var viewWidth = 905;
var viewHeight = 484;
var sectionId = 'dynsection-145';
</script>
<script xlink:href="svgpan.js"/>
<svg id="graph" class="graph">
<g id="viewport">
<title>term_read</title>
<polygon fill="white" stroke="transparent" points="-4,4 -4,-480 901,-480 901,4 -4,4"/>
<!-- Node1 -->
<g id="node1" class="node">
<title>Node1</title>
<g id="a_node1"><a xlink:title=" ">
<polygon fill="#bfbfbf" stroke="black" points="837,-285.5 837,-304.5 897,-304.5 897,-285.5 837,-285.5"/>
<text text-anchor="middle" x="867" y="-292.5" font-family="Helvetica,sans-Serif" font-size="10.00">term_read</text>
</a>
</g>
</g>
<!-- Node2 -->
<g id="node2" class="node">
<title>Node2</title>
<g id="a_node2"><a xlink:href="led_8c.html#a617ec615e86687b5c10df33b271256c8" target="_top" xlink:title=" ">
<polygon fill="white" stroke="black" points="641.5,-285.5 641.5,-304.5 691.5,-304.5 691.5,-285.5 641.5,-285.5"/>
<text text-anchor="middle" x="666.5" y="-292.5" font-family="Helvetica,sans-Serif" font-size="10.00">led_line</text>
</a>
</g>
</g>
<!-- Node1&#45;&gt;Node2 -->
<g id="edge1" class="edge">
<title>Node1&#45;&gt;Node2</title>
<path fill="none" stroke="midnightblue" d="M826.46,-295C786.21,-295 725.12,-295 691.6,-295"/>
<polygon fill="midnightblue" stroke="midnightblue" points="826.71,-298.5 836.71,-295 826.71,-291.5 826.71,-298.5"/>
</g>
<!-- Node19 -->
<g id="node19" class="node">
<title>Node19</title>
<g id="a_node19"><a xlink:href="vi_8h.html#a1924b949e033052323dd2153d88e6001" target="_top" xlink:title=" ">
<polygon fill="white" stroke="black" points="640,-342.5 640,-361.5 693,-361.5 693,-342.5 640,-342.5"/>
<text text-anchor="middle" x="666.5" y="-349.5" font-family="Helvetica,sans-Serif" font-size="10.00">led_read</text>
</a>
</g>
</g>
<!-- Node1&#45;&gt;Node19 -->
<g id="edge25" class="edge">
<title>Node1&#45;&gt;Node19</title>
<path fill="none" stroke="midnightblue" d="M844.28,-310.58C832.11,-318.54 816.35,-327.65 801,-333 764.85,-345.59 720.42,-349.85 693.04,-351.28"/>
<polygon fill="midnightblue" stroke="midnightblue" points="846.5,-313.3 852.81,-304.79 842.57,-307.51 846.5,-313.3"/>
</g>
<!-- Node22 -->
<g id="node22" class="node">
<title>Node22</title>
<g id="a_node22"><a xlink:href="led_8c.html#a8bbdff3c2783b27081d76136774c5dbf" target="_top" xlink:title=" ">
<polygon fill="white" stroke="black" points="729,-304.5 729,-323.5 801,-323.5 801,-304.5 729,-304.5"/>
<text text-anchor="middle" x="765" y="-311.5" font-family="Helvetica,sans-Serif" font-size="10.00">led_readchar</text>
</a>
</g>
</g>
<!-- Node1&#45;&gt;Node22 -->
<g id="edge30" class="edge">
<title>Node1&#45;&gt;Node22</title>
<path fill="none" stroke="midnightblue" d="M826.75,-302.46C818.28,-304.07 809.37,-305.76 801.07,-307.34"/>
<polygon fill="midnightblue" stroke="midnightblue" points="827.64,-305.85 836.81,-300.55 826.33,-298.97 827.64,-305.85"/>
</g>
<!-- Node23 -->
<g id="node23" class="node">
<title>Node23</title>
<g id="a_node23"><a xlink:href="vi_8c.html#a85845915d01f90641f8bba816758c1e2" target="_top" xlink:title=" ">
<polygon fill="white" stroke="black" points="449.5,-133.5 449.5,-152.5 497.5,-152.5 497.5,-133.5 449.5,-133.5"/>
<text text-anchor="middle" x="473.5" y="-140.5" font-family="Helvetica,sans-Serif" font-size="10.00">vi_read</text>
</a>
</g>
</g>
<!-- Node1&#45;&gt;Node23 -->
<g id="edge33" class="edge">
<title>Node1&#45;&gt;Node23</title>
<path fill="none" stroke="midnightblue" d="M832.17,-281.86C754.4,-251.67 564.51,-177.94 497.99,-152.12"/>
<polygon fill="midnightblue" stroke="midnightblue" points="830.92,-285.14 841.51,-285.49 833.45,-278.61 830.92,-285.14"/>
</g>
<!-- Node3 -->
<g id="node3" class="node">
<title>Node3</title>
<g id="a_node3"><a xlink:href="vi_8h.html#ae72255a31cec31233723c101d9465d07" target="_top" xlink:title=" ">
<polygon fill="white" stroke="black" points="543.5,-266.5 543.5,-285.5 599.5,-285.5 599.5,-266.5 543.5,-266.5"/>
<text text-anchor="middle" x="571.5" y="-273.5" font-family="Helvetica,sans-Serif" font-size="10.00">led_input</text>
</a>
</g>
</g>
<!-- Node2&#45;&gt;Node3 -->
<g id="edge2" class="edge">
<title>Node2&#45;&gt;Node3</title>
<path fill="none" stroke="midnightblue" d="M631.09,-287.97C620.74,-285.86 609.53,-283.57 599.72,-281.56"/>
<polygon fill="midnightblue" stroke="midnightblue" points="630.57,-291.44 641.07,-290.01 631.97,-284.58 630.57,-291.44"/>
</g>
<!-- Node10 -->
<g id="node10" class="node">
<title>Node10</title>
<g id="a_node10"><a xlink:href="vi_8h.html#a173bb468e1e2a066136316f98b49c108" target="_top" xlink:title=" ">
<polygon fill="white" stroke="black" points="539,-342.5 539,-361.5 604,-361.5 604,-342.5 539,-342.5"/>
<text text-anchor="middle" x="571.5" y="-349.5" font-family="Helvetica,sans-Serif" font-size="10.00">led_prompt</text>
</a>
</g>
</g>
<!-- Node2&#45;&gt;Node10 -->
<g id="edge10" class="edge">
<title>Node2&#45;&gt;Node10</title>
<path fill="none" stroke="midnightblue" d="M640.99,-310.02C624.22,-320.3 602.48,-333.62 588.04,-342.47"/>
<polygon fill="midnightblue" stroke="midnightblue" points="643.03,-312.88 649.72,-304.67 639.37,-306.91 643.03,-312.88"/>
</g>
<!-- Node4 -->
<g id="node4" class="node">
<title>Node4</title>
<g id="a_node4"><a xlink:href="vi_8c.html#a653f6b0359cef492e11f404c4bf469b9" target="_top" xlink:title=" ">
<polygon fill="white" stroke="black" points="350,-228.5 350,-247.5 400,-247.5 400,-228.5 350,-228.5"/>
<text text-anchor="middle" x="375" y="-235.5" font-family="Helvetica,sans-Serif" font-size="10.00">vi_input</text>
</a>
</g>
</g>
<!-- Node3&#45;&gt;Node4 -->
<g id="edge3" class="edge">
<title>Node3&#45;&gt;Node4</title>
<path fill="none" stroke="midnightblue" d="M533.49,-268.77C494.27,-261.11 433.49,-249.23 400.06,-242.7"/>
<polygon fill="midnightblue" stroke="midnightblue" points="532.97,-272.23 543.46,-270.72 534.31,-265.36 532.97,-272.23"/>
</g>
<!-- Node5 -->
<g id="node5" class="node">
<title>Node5</title>
<g id="a_node5"><a xlink:href="vi_8c.html#a8bb357a77ed61da8858f138c6fa672a6" target="_top" xlink:title=" ">
<polygon fill="white" stroke="black" points="246,-266.5 246,-285.5 302,-285.5 302,-266.5 246,-266.5"/>
<text text-anchor="middle" x="274" y="-273.5" font-family="Helvetica,sans-Serif" font-size="10.00">vc_insert</text>
</a>
</g>
</g>
<!-- Node4&#45;&gt;Node5 -->
<g id="edge4" class="edge">
<title>Node4&#45;&gt;Node5</title>
<path fill="none" stroke="midnightblue" d="M340.11,-251.01C326.96,-256.06 312.16,-261.74 300,-266.4"/>
<polygon fill="midnightblue" stroke="midnightblue" points="341.7,-254.15 349.78,-247.3 339.19,-247.61 341.7,-254.15"/>
</g>
<!-- Node8 -->
<g id="node8" class="node">
<title>Node8</title>
<g id="a_node8"><a xlink:href="vi_8c.html#ae37b094c3bb647d8c1a4ac4e858ce518" target="_top" xlink:title=" ">
<polygon fill="white" stroke="black" points="243.5,-228.5 243.5,-247.5 304.5,-247.5 304.5,-228.5 243.5,-228.5"/>
<text text-anchor="middle" x="274" y="-235.5" font-family="Helvetica,sans-Serif" font-size="10.00">vi_change</text>
</a>
</g>
</g>
<!-- Node4&#45;&gt;Node8 -->
<g id="edge7" class="edge">
<title>Node4&#45;&gt;Node8</title>
<path fill="none" stroke="midnightblue" d="M339.71,-238C328.28,-238 315.66,-238 304.62,-238"/>
<polygon fill="midnightblue" stroke="midnightblue" points="339.78,-241.5 349.78,-238 339.78,-234.5 339.78,-241.5"/>
</g>
<!-- Node6 -->
<g id="node6" class="node">
<title>Node6</title>
<g id="a_node6"><a xlink:href="vi_8c.html#a8d808e0f3453afe6600673ee1ea5f828" target="_top" xlink:title=" ">
<polygon fill="white" stroke="black" points="74,-266.5 74,-285.5 103,-285.5 103,-266.5 74,-266.5"/>
<text text-anchor="middle" x="88.5" y="-273.5" font-family="Helvetica,sans-Serif" font-size="10.00">vi</text>
</a>
</g>
</g>
<!-- Node5&#45;&gt;Node6 -->
<g id="edge5" class="edge">
<title>Node5&#45;&gt;Node6</title>
<path fill="none" stroke="midnightblue" d="M235.8,-276C194.9,-276 131.31,-276 103.41,-276"/>
<polygon fill="midnightblue" stroke="midnightblue" points="235.92,-279.5 245.92,-276 235.92,-272.5 235.92,-279.5"/>
</g>
<!-- Node7 -->
<g id="node7" class="node">
<title>Node7</title>
<g id="a_node7"><a xlink:href="vi_8c.html#a0ddf1224851353fc92bfbff6f499fa97" target="_top" xlink:title=" ">
<polygon fill="white" stroke="black" points="0,-285.5 0,-304.5 38,-304.5 38,-285.5 0,-285.5"/>
<text text-anchor="middle" x="19" y="-292.5" font-family="Helvetica,sans-Serif" font-size="10.00">main</text>
</a>
</g>
</g>
<!-- Node6&#45;&gt;Node7 -->
<g id="edge6" class="edge">
<title>Node6&#45;&gt;Node7</title>
<path fill="none" stroke="midnightblue" d="M64.14,-282.57C55.67,-284.96 46.22,-287.62 38.25,-289.86"/>
<polygon fill="midnightblue" stroke="midnightblue" points="65.16,-285.92 73.84,-279.84 63.27,-279.19 65.16,-285.92"/>
</g>
<!-- Node9 -->
<g id="node9" class="node">
<title>Node9</title>
<g id="a_node9"><a xlink:href="vi_8c.html#a06cbc6eb843436a0e77e07cbab0c4538" target="_top" xlink:title=" ">
<polygon fill="white" stroke="black" points="141.5,-228.5 141.5,-247.5 203.5,-247.5 203.5,-228.5 141.5,-228.5"/>
<text text-anchor="middle" x="172.5" y="-235.5" font-family="Helvetica,sans-Serif" font-size="10.00">vc_motion</text>
</a>
</g>
</g>
<!-- Node8&#45;&gt;Node9 -->
<g id="edge8" class="edge">
<title>Node8&#45;&gt;Node9</title>
<path fill="none" stroke="midnightblue" d="M233.11,-238C223.35,-238 213.06,-238 203.83,-238"/>
<polygon fill="midnightblue" stroke="midnightblue" points="233.42,-241.5 243.42,-238 233.42,-234.5 233.42,-241.5"/>
</g>
<!-- Node9&#45;&gt;Node6 -->
<g id="edge9" class="edge">
<title>Node9&#45;&gt;Node6</title>
<path fill="none" stroke="midnightblue" d="M141.68,-251.82C128.63,-257.87 113.94,-264.67 103.48,-269.52"/>
<polygon fill="midnightblue" stroke="midnightblue" points="143.21,-254.97 150.81,-247.59 140.26,-248.62 143.21,-254.97"/>
</g>
<!-- Node11 -->
<g id="node11" class="node">
<title>Node11</title>
<g id="a_node11"><a xlink:href="vi_8h.html#a7ba56272fe1a7d523192729a0bb5edf7" target="_top" xlink:title=" ">
<polygon fill="white" stroke="black" points="248.5,-418.5 248.5,-437.5 299.5,-437.5 299.5,-418.5 248.5,-418.5"/>
<text text-anchor="middle" x="274" y="-425.5" font-family="Helvetica,sans-Serif" font-size="10.00">ex_read</text>
</a>
</g>
</g>
<!-- Node10&#45;&gt;Node11 -->
<g id="edge11" class="edge">
<title>Node10&#45;&gt;Node11</title>
<path fill="none" stroke="midnightblue" d="M534.79,-364.92C502.12,-376.38 452.28,-392.97 408,-404 370.66,-413.3 326.58,-420.53 299.72,-424.53"/>
<polygon fill="midnightblue" stroke="midnightblue" points="536.09,-368.17 544.35,-361.54 533.75,-361.58 536.09,-368.17"/>
</g>
<!-- Node15 -->
<g id="node15" class="node">
<title>Node15</title>
<g id="a_node15"><a xlink:href="vi_8c.html#a57965473297aad4c4333fdd3897c11f3" target="_top" xlink:title=" ">
<polygon fill="white" stroke="black" points="444,-342.5 444,-361.5 503,-361.5 503,-342.5 444,-342.5"/>
<text text-anchor="middle" x="473.5" y="-349.5" font-family="Helvetica,sans-Serif" font-size="10.00">vi_prompt</text>
</a>
</g>
</g>
<!-- Node10&#45;&gt;Node15 -->
<g id="edge17" class="edge">
<title>Node10&#45;&gt;Node15</title>
<path fill="none" stroke="midnightblue" d="M528.58,-352C520.03,-352 511.22,-352 503.25,-352"/>
<polygon fill="midnightblue" stroke="midnightblue" points="528.8,-355.5 538.8,-352 528.8,-348.5 528.8,-355.5"/>
</g>
<!-- Node12 -->
<g id="node12" class="node">
<title>Node12</title>
<g id="a_node12"><a xlink:href="ex_8c.html#a0908784dc65be2da119a6b72ef96dec2" target="_top" xlink:title=" ">
<polygon fill="white" stroke="black" points="144.5,-418.5 144.5,-437.5 200.5,-437.5 200.5,-418.5 144.5,-418.5"/>
<text text-anchor="middle" x="172.5" y="-425.5" font-family="Helvetica,sans-Serif" font-size="10.00">ec_insert</text>
</a>
</g>
</g>
<!-- Node11&#45;&gt;Node12 -->
<g id="edge12" class="edge">
<title>Node11&#45;&gt;Node12</title>
<path fill="none" stroke="midnightblue" d="M238.04,-428C225.75,-428 212.15,-428 200.61,-428"/>
<polygon fill="midnightblue" stroke="midnightblue" points="238.4,-431.5 248.4,-428 238.4,-424.5 238.4,-431.5"/>
</g>
<!-- Node13 -->
<g id="node13" class="node">
<title>Node13</title>
<g id="a_node13"><a xlink:href="vi_8h.html#ac395e51f25330a6e6033b6d0d22b2076" target="_top" xlink:title=" ">
<polygon fill="white" stroke="black" points="74,-399.5 74,-418.5 103,-418.5 103,-399.5 74,-399.5"/>
<text text-anchor="middle" x="88.5" y="-406.5" font-family="Helvetica,sans-Serif" font-size="10.00">ex</text>
</a>
</g>
</g>
<!-- Node11&#45;&gt;Node13 -->
<g id="edge13" class="edge">
<title>Node11&#45;&gt;Node13</title>
<path fill="none" stroke="midnightblue" d="M240.55,-440.81C212.92,-449.8 172.49,-458.37 139,-447 122.59,-441.43 107.35,-427.98 98.24,-418.67"/>
<polygon fill="midnightblue" stroke="midnightblue" points="241.8,-444.08 250.12,-437.52 239.52,-437.46 241.8,-444.08"/>
</g>
<!-- Node14 -->
<g id="node14" class="node">
<title>Node14</title>
<g id="a_node14"><a xlink:href="vi_8c.html#a9d85e9ed087401367529ab86a5dbf0c5" target="_top" xlink:title=" ">
<polygon fill="white" stroke="black" points="149,-380.5 149,-399.5 196,-399.5 196,-380.5 149,-380.5"/>
<text text-anchor="middle" x="172.5" y="-387.5" font-family="Helvetica,sans-Serif" font-size="10.00">vi_wait</text>
</a>
</g>
</g>
<!-- Node11&#45;&gt;Node14 -->
<g id="edge15" class="edge">
<title>Node11&#45;&gt;Node14</title>
<path fill="none" stroke="midnightblue" d="M238.97,-415C224.82,-409.6 208.78,-403.47 196.11,-398.64"/>
<polygon fill="midnightblue" stroke="midnightblue" points="237.81,-418.31 248.4,-418.61 240.31,-411.77 237.81,-418.31"/>
</g>
<!-- Node13&#45;&gt;Node7 -->
<g id="edge14" class="edge">
<title>Node13&#45;&gt;Node7</title>
<path fill="none" stroke="midnightblue" d="M76.59,-390.57C62.08,-366.08 36.99,-323.69 25.74,-304.69"/>
<polygon fill="midnightblue" stroke="midnightblue" points="73.64,-392.46 81.74,-399.28 79.66,-388.89 73.64,-392.46"/>
</g>
<!-- Node14&#45;&gt;Node6 -->
<g id="edge16" class="edge">
<title>Node14&#45;&gt;Node6</title>
<path fill="none" stroke="midnightblue" d="M147.6,-374.25C144.52,-371.69 141.55,-368.92 139,-366 116.57,-340.37 100.06,-302.88 93.12,-285.5"/>
<polygon fill="midnightblue" stroke="midnightblue" points="145.73,-377.23 155.81,-380.47 149.95,-371.65 145.73,-377.23"/>
</g>
<!-- Node15&#45;&gt;Node6 -->
<g id="edge18" class="edge">
<title>Node15&#45;&gt;Node6</title>
<path fill="none" stroke="midnightblue" d="M436.83,-364.48C427.56,-367.18 417.5,-369.63 408,-371 334.98,-381.53 314.09,-386.67 242,-371 192.83,-360.31 180.56,-352.37 139,-324 122.79,-312.93 107.03,-296.34 97.8,-285.85"/>
<polygon fill="midnightblue" stroke="midnightblue" points="437.99,-367.79 446.52,-361.5 435.93,-361.1 437.99,-367.79"/>
</g>
<!-- Node16 -->
<g id="node16" class="node">
<title>Node16</title>
<g id="a_node16"><a xlink:href="vi_8c.html#ab8e0c9b9d2ef5161c6a3a8828606df5f" target="_top" xlink:title=" ">
<polygon fill="white" stroke="black" points="351.5,-266.5 351.5,-285.5 398.5,-285.5 398.5,-266.5 351.5,-266.5"/>
<text text-anchor="middle" x="375" y="-273.5" font-family="Helvetica,sans-Serif" font-size="10.00">vi_pipe</text>
</a>
</g>
</g>
<!-- Node15&#45;&gt;Node16 -->
<g id="edge19" class="edge">
<title>Node15&#45;&gt;Node16</title>
<path fill="none" stroke="midnightblue" d="M452.35,-336.13C432.94,-320.85 404.24,-298.24 388.12,-285.55"/>
<polygon fill="midnightblue" stroke="midnightblue" points="450.26,-338.94 460.28,-342.37 454.59,-333.44 450.26,-338.94"/>
</g>
<!-- Node17 -->
<g id="node17" class="node">
<title>Node17</title>
<g id="a_node17"><a xlink:href="vi_8c.html#a93701c59617d4f96cbaa207e89178f87" target="_top" xlink:title=" ">
<polygon fill="white" stroke="black" points="345.5,-342.5 345.5,-361.5 404.5,-361.5 404.5,-342.5 345.5,-342.5"/>
<text text-anchor="middle" x="375" y="-349.5" font-family="Helvetica,sans-Serif" font-size="10.00">vi_search</text>
</a>
</g>
</g>
<!-- Node15&#45;&gt;Node17 -->
<g id="edge21" class="edge">
<title>Node15&#45;&gt;Node17</title>
<path fill="none" stroke="midnightblue" d="M433.62,-352C423.98,-352 413.81,-352 404.75,-352"/>
<polygon fill="midnightblue" stroke="midnightblue" points="433.81,-355.5 443.81,-352 433.81,-348.5 433.81,-355.5"/>
</g>
<!-- Node16&#45;&gt;Node9 -->
<g id="edge20" class="edge">
<title>Node16&#45;&gt;Node9</title>
<path fill="none" stroke="midnightblue" d="M342.41,-288.89C315.11,-298.1 274.97,-306.92 242,-295 215.81,-285.53 192.59,-261.2 181.1,-247.58"/>
<polygon fill="midnightblue" stroke="midnightblue" points="343.61,-292.18 351.85,-285.52 341.26,-285.59 343.61,-292.18"/>
</g>
<!-- Node18 -->
<g id="node18" class="node">
<title>Node18</title>
<g id="a_node18"><a xlink:href="vi_8c.html#aaa4777ea0715ea846346d0f27a0cfa3f" target="_top" xlink:title=" ">
<polygon fill="white" stroke="black" points="244.5,-342.5 244.5,-361.5 303.5,-361.5 303.5,-342.5 244.5,-342.5"/>
<text text-anchor="middle" x="274" y="-349.5" font-family="Helvetica,sans-Serif" font-size="10.00">vi_motion</text>
</a>
</g>
</g>
<!-- Node17&#45;&gt;Node18 -->
<g id="edge22" class="edge">
<title>Node17&#45;&gt;Node18</title>
<path fill="none" stroke="midnightblue" d="M335.14,-352C324.61,-352 313.42,-352 303.57,-352"/>
<polygon fill="midnightblue" stroke="midnightblue" points="335.37,-355.5 345.37,-352 335.37,-348.5 335.37,-355.5"/>
</g>
<!-- Node18&#45;&gt;Node6 -->
<g id="edge24" class="edge">
<title>Node18&#45;&gt;Node6</title>
<path fill="none" stroke="midnightblue" d="M240.28,-338.45C199.57,-321.59 131.93,-293.57 103.14,-281.65"/>
<polygon fill="midnightblue" stroke="midnightblue" points="239.18,-341.78 249.76,-342.37 241.86,-335.31 239.18,-341.78"/>
</g>
<!-- Node18&#45;&gt;Node9 -->
<g id="edge23" class="edge">
<title>Node18&#45;&gt;Node9</title>
<path fill="none" stroke="midnightblue" d="M250.94,-336.08C247.82,-333.51 244.75,-330.77 242,-328 215.73,-301.51 190.72,-264.77 179.57,-247.58"/>
<polygon fill="midnightblue" stroke="midnightblue" points="249.05,-339.05 259.09,-342.44 253.36,-333.53 249.05,-339.05"/>
</g>
<!-- Node20 -->
<g id="node20" class="node">
<title>Node20</title>
<g id="a_node20"><a xlink:href="vi_8c.html#a7162c1758b29682a16b65bc9766309f4" target="_top" xlink:title=" ">
<polygon fill="white" stroke="black" points="351,-456.5 351,-475.5 399,-475.5 399,-456.5 351,-456.5"/>
<text text-anchor="middle" x="375" y="-463.5" font-family="Helvetica,sans-Serif" font-size="10.00">vi_char</text>
</a>
</g>
</g>
<!-- Node19&#45;&gt;Node20 -->
<g id="edge26" class="edge">
<title>Node19&#45;&gt;Node20</title>
<path fill="none" stroke="midnightblue" d="M632,-365.19C572.56,-388.6 450.12,-436.81 399.11,-456.9"/>
<polygon fill="midnightblue" stroke="midnightblue" points="633.29,-368.44 641.32,-361.52 630.73,-361.93 633.29,-368.44"/>
</g>
<!-- Node20&#45;&gt;Node18 -->
<g id="edge29" class="edge">
<title>Node20&#45;&gt;Node18</title>
<path fill="none" stroke="midnightblue" d="M358.83,-448.54C337.71,-424.21 300.13,-380.94 283.42,-361.69"/>
<polygon fill="midnightblue" stroke="midnightblue" points="356.36,-451.02 365.56,-456.28 361.65,-446.44 356.36,-451.02"/>
</g>
<!-- Node21 -->
<g id="node21" class="node">
<title>Node21</title>
<g id="a_node21"><a xlink:href="vi_8c.html#a3635843354dbb31e3c00efcd5798535a" target="_top" xlink:title=" ">
<polygon fill="white" stroke="black" points="242,-456.5 242,-475.5 306,-475.5 306,-456.5 242,-456.5"/>
<text text-anchor="middle" x="274" y="-463.5" font-family="Helvetica,sans-Serif" font-size="10.00">vc_replace</text>
</a>
</g>
</g>
<!-- Node20&#45;&gt;Node21 -->
<g id="edge27" class="edge">
<title>Node20&#45;&gt;Node21</title>
<path fill="none" stroke="midnightblue" d="M340.62,-466C329.53,-466 317.23,-466 306.31,-466"/>
<polygon fill="midnightblue" stroke="midnightblue" points="340.79,-469.5 350.79,-466 340.79,-462.5 340.79,-469.5"/>
</g>
<!-- Node21&#45;&gt;Node6 -->
<g id="edge28" class="edge">
<title>Node21&#45;&gt;Node6</title>
<path fill="none" stroke="midnightblue" d="M231.42,-471.09C202.22,-472.29 164.05,-468.74 139,-447 113.79,-425.12 95.88,-318.42 90.9,-285.62"/>
<polygon fill="midnightblue" stroke="midnightblue" points="231.96,-474.56 241.73,-470.46 231.54,-467.57 231.96,-474.56"/>
</g>
<!-- Node22&#45;&gt;Node2 -->
<g id="edge31" class="edge">
<title>Node22&#45;&gt;Node2</title>
<path fill="none" stroke="midnightblue" d="M718.81,-305.1C709.41,-303.25 699.85,-301.37 691.57,-299.74"/>
<polygon fill="midnightblue" stroke="midnightblue" points="718.4,-308.59 728.89,-307.09 719.75,-301.72 718.4,-308.59"/>
</g>
<!-- Node22&#45;&gt;Node19 -->
<g id="edge32" class="edge">
<title>Node22&#45;&gt;Node19</title>
<path fill="none" stroke="midnightblue" d="M730.32,-327.26C717.65,-332.25 703.5,-337.82 691.84,-342.41"/>
<polygon fill="midnightblue" stroke="midnightblue" points="731.63,-330.51 739.65,-323.59 729.06,-324 731.63,-330.51"/>
</g>
<!-- Node23&#45;&gt;Node6 -->
<g id="edge37" class="edge">
<title>Node23&#45;&gt;Node6</title>
<path fill="none" stroke="midnightblue" d="M438.77,-142.64C374.6,-143.56 232.94,-153.51 139,-219 120.29,-232.04 104.15,-253.69 95.72,-266.22"/>
<polygon fill="midnightblue" stroke="midnightblue" points="439.14,-146.13 449.11,-142.56 439.08,-139.13 439.14,-146.13"/>
</g>
<!-- Node23&#45;&gt;Node9 -->
<g id="edge36" class="edge">
<title>Node23&#45;&gt;Node9</title>
<path fill="none" stroke="midnightblue" d="M439.58,-149.52C394.26,-158.98 310.48,-178.25 242,-204 223.73,-210.87 203.86,-221.06 190.24,-228.49"/>
<polygon fill="midnightblue" stroke="midnightblue" points="440.36,-152.93 449.45,-147.48 438.95,-146.07 440.36,-152.93"/>
</g>
<!-- Node23&#45;&gt;Node18 -->
<g id="edge38" class="edge">
<title>Node23&#45;&gt;Node18</title>
<path fill="none" stroke="midnightblue" d="M469.03,-162.79C462.49,-194.61 445.48,-257.38 408,-295 392.75,-310.3 337.95,-330.77 303.64,-342.56"/>
<polygon fill="midnightblue" stroke="midnightblue" points="472.55,-163.05 470.99,-152.57 465.67,-161.74 472.55,-163.05"/>
</g>
<!-- Node24 -->
<g id="node24" class="node">
<title>Node24</title>
<g id="a_node24"><a xlink:href="vi_8c.html#a645d411d7e83bf0ebca310f731577a63" target="_top" xlink:title=" ">
<polygon fill="white" stroke="black" points="139,-38.5 139,-57.5 206,-57.5 206,-38.5 139,-38.5"/>
<text text-anchor="middle" x="172.5" y="-45.5" font-family="Helvetica,sans-Serif" font-size="10.00">vc_execute</text>
</a>
</g>
</g>
<!-- Node23&#45;&gt;Node24 -->
<g id="edge34" class="edge">
<title>Node23&#45;&gt;Node24</title>
<path fill="none" stroke="midnightblue" d="M456.2,-126.36C443.96,-114.8 426.23,-99.92 408,-91 341.44,-58.45 253.31,-50.4 206.32,-48.5"/>
<polygon fill="midnightblue" stroke="midnightblue" points="453.8,-128.91 463.4,-133.39 458.69,-123.9 453.8,-128.91"/>
</g>
<!-- Node25 -->
<g id="node25" class="node">
<title>Node25</title>
<g id="a_node25"><a xlink:href="vi_8c.html#acf58ed4f9b3a9a6e3d56f397eeb04aee" target="_top" xlink:title=" ">
<polygon fill="white" stroke="black" points="342,-190.5 342,-209.5 408,-209.5 408,-190.5 342,-190.5"/>
<text text-anchor="middle" x="375" y="-197.5" font-family="Helvetica,sans-Serif" font-size="10.00">vi_motionln</text>
</a>
</g>
</g>
<!-- Node23&#45;&gt;Node25 -->
<g id="edge39" class="edge">
<title>Node23&#45;&gt;Node25</title>
<path fill="none" stroke="midnightblue" d="M447.07,-158.02C429.66,-168.3 407.11,-181.62 392.13,-190.47"/>
<polygon fill="midnightblue" stroke="midnightblue" points="449.3,-160.77 456.13,-152.67 445.74,-154.74 449.3,-160.77"/>
</g>
<!-- Node26 -->
<g id="node26" class="node">
<title>Node26</title>
<g id="a_node26"><a xlink:href="vi_8c.html#a1ce3135fabc2e901d51574b21feecaa1" target="_top" xlink:title=" ">
<polygon fill="white" stroke="black" points="247.5,-76.5 247.5,-95.5 300.5,-95.5 300.5,-76.5 247.5,-76.5"/>
<text text-anchor="middle" x="274" y="-83.5" font-family="Helvetica,sans-Serif" font-size="10.00">vi_prefix</text>
</a>
</g>
</g>
<!-- Node23&#45;&gt;Node26 -->
<g id="edge42" class="edge">
<title>Node23&#45;&gt;Node26</title>
<path fill="none" stroke="midnightblue" d="M448.13,-128.37C436.36,-121.88 421.82,-114.67 408,-110 371.77,-97.76 327.75,-91.38 300.56,-88.36"/>
<polygon fill="midnightblue" stroke="midnightblue" points="446.48,-131.46 456.91,-133.36 449.94,-125.38 446.48,-131.46"/>
</g>
<!-- Node27 -->
<g id="node27" class="node">
<title>Node27</title>
<g id="a_node27"><a xlink:href="vi_8c.html#a5a0eb4f7849bc6c82e2b4d449e7ff0be" target="_top" xlink:title=" ">
<polygon fill="white" stroke="black" points="140.5,-0.5 140.5,-19.5 204.5,-19.5 204.5,-0.5 140.5,-0.5"/>
<text text-anchor="middle" x="172.5" y="-7.5" font-family="Helvetica,sans-Serif" font-size="10.00">vi_yankbuf</text>
</a>
</g>
</g>
<!-- Node23&#45;&gt;Node27 -->
<g id="edge45" class="edge">
<title>Node23&#45;&gt;Node27</title>
<path fill="none" stroke="midnightblue" d="M462.31,-124.42C451.31,-106.18 432.11,-78.99 408,-64 343.43,-23.86 252.14,-13.5 204.77,-10.86"/>
<polygon fill="midnightblue" stroke="midnightblue" points="459.51,-126.59 467.55,-133.5 465.58,-123.09 459.51,-126.59"/>
</g>
<!-- Node24&#45;&gt;Node6 -->
<g id="edge35" class="edge">
<title>Node24&#45;&gt;Node6</title>
<path fill="none" stroke="midnightblue" d="M145.85,-64.08C143.27,-66.49 140.9,-69.14 139,-72 96.05,-136.66 90.3,-234.95 89.58,-266.14"/>
<polygon fill="midnightblue" stroke="midnightblue" points="148.35,-66.57 153.99,-57.6 143.99,-61.09 148.35,-66.57"/>
</g>
<!-- Node25&#45;&gt;Node9 -->
<g id="edge40" class="edge">
<title>Node25&#45;&gt;Node9</title>
<path fill="none" stroke="midnightblue" d="M331.53,-204.72C305.53,-207.95 271.67,-212.78 242,-219 229.32,-221.66 215.52,-225.33 203.64,-228.74"/>
<polygon fill="midnightblue" stroke="midnightblue" points="332.29,-208.15 341.79,-203.47 331.44,-201.2 332.29,-208.15"/>
</g>
<!-- Node25&#45;&gt;Node18 -->
<g id="edge41" class="edge">
<title>Node25&#45;&gt;Node18</title>
<path fill="none" stroke="midnightblue" d="M345.33,-215.74C344.15,-216.78 343.03,-217.87 342,-219 316.83,-246.63 322.94,-261.68 306,-295 297.43,-311.87 286.75,-331.15 280.43,-342.4"/>
<polygon fill="midnightblue" stroke="midnightblue" points="347.71,-218.33 353.69,-209.59 343.56,-212.69 347.71,-218.33"/>
</g>
<!-- Node26&#45;&gt;Node6 -->
<g id="edge44" class="edge">
<title>Node26&#45;&gt;Node6</title>
<path fill="none" stroke="midnightblue" d="M237.4,-82.8C207.55,-82.14 165.65,-86.2 139,-110 91.68,-152.27 88.74,-237.63 89.16,-266.33"/>
<polygon fill="midnightblue" stroke="midnightblue" points="237.28,-86.3 247.41,-83.21 237.56,-79.31 237.28,-86.3"/>
</g>
<!-- Node26&#45;&gt;Node9 -->
<g id="edge43" class="edge">
<title>Node26&#45;&gt;Node9</title>
<path fill="none" stroke="midnightblue" d="M261.2,-104.03C239.96,-136.48 195.98,-203.65 179.72,-228.5"/>
<polygon fill="midnightblue" stroke="midnightblue" points="264.23,-105.79 266.78,-95.51 258.37,-101.96 264.23,-105.79"/>
</g>
<!-- Node27&#45;&gt;Node6 -->
<g id="edge46" class="edge">
<title>Node27&#45;&gt;Node6</title>
<path fill="none" stroke="midnightblue" d="M141.46,-26C140.57,-26.95 139.75,-27.95 139,-29 110.74,-68.61 94.21,-225.95 90.37,-266.45"/>
<polygon fill="midnightblue" stroke="midnightblue" points="143.7,-28.69 149.17,-19.62 139.23,-23.3 143.7,-28.69"/>
</g>
</g>
</svg>
        <g id="navigator" transform="translate(0 0)" fill="#404254">
                <rect fill="#f2f5e9" fill-opacity="0.5" stroke="#606060" stroke-width=".5" x="0" y="0" width="60" height="60"/>
                <use id="zoomplus" xlink:href="#zoomPlus" x="17" y="9" onmousedown="handleZoom(evt,'in')"/>
                <use id="zoomminus" xlink:href="#zoomMin" x="42" y="9" onmousedown="handleZoom(evt,'out')"/>
                <use id="reset" xlink:href="#resetDef" x="30" y="36" onmousedown="handleReset()"/>
                <g id="arrowUp" xlink:href="#dirArrow" transform="translate(30 24)" onmousedown="handlePan(0,-1)">
                  <use xlink:href="#rim" fill="#404040">
                        <set attributeName="fill" to="#808080" begin="arrowUp.mouseover" end="arrowUp.mouseout"/>
                  </use>
                  <path fill="none" stroke="white" stroke-width="1.5" d="M0,-3.0v7 M-2.5,-0.5L0,-3.0L2.5,-0.5"/>
                </g>
                <g id="arrowRight" xlink:href="#dirArrow" transform="rotate(90) translate(36 -43)" onmousedown="handlePan(1,0)">
                  <use xlink:href="#rim" fill="#404040">
                        <set attributeName="fill" to="#808080" begin="arrowRight.mouseover" end="arrowRight.mouseout"/>
                  </use>
                  <path fill="none" stroke="white" stroke-width="1.5" d="M0,-3.0v7 M-2.5,-0.5L0,-3.0L2.5,-0.5"/>
                </g>
                <g id="arrowDown" xlink:href="#dirArrow" transform="rotate(180) translate(-30 -48)" onmousedown="handlePan(0,1)">
                  <use xlink:href="#rim" fill="#404040">
                        <set attributeName="fill" to="#808080" begin="arrowDown.mouseover" end="arrowDown.mouseout"/>
                  </use>
                  <path fill="none" stroke="white" stroke-width="1.5" d="M0,-3.0v7 M-2.5,-0.5L0,-3.0L2.5,-0.5"/>
                </g>
                <g id="arrowLeft" xlink:href="#dirArrow" transform="rotate(270) translate(-36 17)" onmousedown="handlePan(-1,0)">
                  <use xlink:href="#rim" fill="#404040">
                        <set attributeName="fill" to="#808080" begin="arrowLeft.mouseover" end="arrowLeft.mouseout"/>
                  </use>
                  <path fill="none" stroke="white" stroke-width="1.5" d="M0,-3.0v7 M-2.5,-0.5L0,-3.0L2.5,-0.5"/>
                </g>
        </g>
        <svg viewBox="0 0 15 15" width="100%" height="30px" preserveAspectRatio="xMaxYMin meet">
         <g id="arrow_out" transform="scale(0.3 0.3)">
          <a xlink:href="vi_8h_ab37222c9b84980b0492b34d0a4e32f12_icgraph_org.svg" target="_base">
           <rect id="button" ry="5" rx="5" y="6" x="6" height="38" width="38"
                fill="#f2f5e9" fill-opacity="0.5" stroke="#606060" stroke-width="1.0"/>
           <path id="arrow"
             d="M 11.500037,31.436501 C 11.940474,20.09759 22.043105,11.32322 32.158766,21.979434 L 37.068811,17.246167 C 37.068811,17.246167 37.088388,32 37.088388,32 L 22.160133,31.978069 C 22.160133,31.978069 26.997745,27.140456 26.997745,27.140456 C 18.528582,18.264221 13.291696,25.230495 11.500037,31.436501 z"
             style="fill:#404040;"/>
          </a>
         </g>
        </svg>
</svg>
