<?xml version="1.0" encoding="UTF-8" standalone="no"?>
<!DOCTYPE svg PUBLIC "-//W3C//DTD SVG 1.1//EN"
 "http://www.w3.org/Graphics/SVG/1.1/DTD/svg11.dtd">
<!-- Generated by graphviz version 2.44.1 (20200629.0846)
 -->
<!-- Title: vi.h Pages: 1 -->
<!--zoomable 140 -->
<svg id="main" version="1.1" xmlns="http://www.w3.org/2000/svg" xmlns:xlink="http://www.w3.org/1999/xlink" xml:space="preserve" onload="init(evt)">
<style type="text/css"><![CDATA[
.edge:hover path { stroke: red; }
.edge:hover polygon { stroke: red; fill: red; }
]]></style>
<script type="text/javascript"><![CDATA[
var edges = document.getElementsByTagName('g');
if (edges && edges.length) {
  for (var i=0;i<edges.length;i++) {
    if (edges[i].id.substr(0,4)=='edge') {
      edges[i].setAttribute('class','edge');
    }
  }
}
]]></script>
        <defs>
                <circle id="rim" cx="0" cy="0" r="7"/>
                <circle id="rim2" cx="0" cy="0" r="3.5"/>
                <g id="zoomPlus">
                        <use xlink:href="#rim" fill="#404040">
                                <set attributeName="fill" to="#808080" begin="zoomplus.mouseover" end="zoomplus.mouseout"/>
                        </use>
                        <path d="M-4,0h8M0,-4v8" fill="none" stroke="white" stroke-width="1.5" pointer-events="none"/>
                </g>
                <g id="zoomMin">
                        <use xlink:href="#rim" fill="#404040">
                                <set attributeName="fill" to="#808080" begin="zoomminus.mouseover" end="zoomminus.mouseout"/>
                        </use>
                        <path d="M-4,0h8" fill="none" stroke="white" stroke-width="1.5" pointer-events="none"/>
                </g>
                <g id="dirArrow">
                        <path fill="none" stroke="white" stroke-width="1.5" d="M0,-3.0v7 M-2.5,-0.5L0,-3.0L2.5,-0.5"/>
                </g>
               <g id="resetDef">
                       <use xlink:href="#rim2" fill="#404040">
                               <set attributeName="fill" to="#808080" begin="reset.mouseover" end="reset.mouseout"/>
                       </use>
               </g>
        </defs>

<script type="text/javascript">
var viewWidth = 894;
var viewHeight = 140;
var sectionId = 'dynsection-0';
</script>
<script xlink:href="svgpan.js"/>
<svg id="graph" class="graph">
<g id="viewport">
<title>vi.h</title>
<polygon fill="white" stroke="transparent" points="-4,4 -4,-136 890,-136 890,4 -4,4"/>
<!-- Node1 -->
<g id="node1" class="node">
<title>Node1</title>
<g id="a_node1"><a xlink:title=" ">
<polygon fill="#bfbfbf" stroke="black" points="418,-112.5 418,-131.5 450,-131.5 450,-112.5 418,-112.5"/>
<text text-anchor="middle" x="434" y="-119.5" font-family="Helvetica,sans-Serif" font-size="10.00">vi.h</text>
</a>
</g>
</g>
<!-- Node2 -->
<g id="node2" class="node">
<title>Node2</title>
<g id="a_node2"><a xlink:href="cmd_8c.html" target="_top" xlink:title=" ">
<polygon fill="white" stroke="black" points="0,-56.5 0,-75.5 44,-75.5 44,-56.5 0,-56.5"/>
<text text-anchor="middle" x="22" y="-63.5" font-family="Helvetica,sans-Serif" font-size="10.00">cmd.c</text>
</a>
</g>
</g>
<!-- Node1&#45;&gt;Node2 -->
<g id="edge1" class="edge">
<title>Node1&#45;&gt;Node2</title>
<path fill="none" stroke="midnightblue" d="M407.76,-119C346.27,-114.08 188.22,-99.97 58,-76 53.56,-75.18 48.86,-74.14 44.37,-73.06"/>
<polygon fill="midnightblue" stroke="midnightblue" points="407.52,-122.5 417.77,-119.79 408.07,-115.52 407.52,-122.5"/>
</g>
<!-- Node3 -->
<g id="node3" class="node">
<title>Node3</title>
<g id="a_node3"><a xlink:href="conf_8c.html" target="_top" xlink:title=" ">
<polygon fill="white" stroke="black" points="75,-0.5 75,-19.5 119,-19.5 119,-0.5 75,-0.5"/>
<text text-anchor="middle" x="97" y="-7.5" font-family="Helvetica,sans-Serif" font-size="10.00">conf.c</text>
</a>
</g>
</g>
<!-- Node1&#45;&gt;Node3 -->
<g id="edge2" class="edge">
<title>Node1&#45;&gt;Node3</title>
<path fill="none" stroke="midnightblue" d="M407.48,-119.5C330.61,-114.89 111.86,-99.77 91,-76 77.25,-60.33 86.36,-33.6 92.58,-19.81"/>
<polygon fill="midnightblue" stroke="midnightblue" points="407.56,-123.01 417.75,-120.11 407.97,-116.02 407.56,-123.01"/>
</g>
<!-- Node4 -->
<g id="node4" class="node">
<title>Node4</title>
<g id="a_node4"><a xlink:href="conf_8h.html" target="_top" xlink:title=" ">
<polygon fill="white" stroke="black" points="100,-56.5 100,-75.5 144,-75.5 144,-56.5 100,-56.5"/>
<text text-anchor="middle" x="122" y="-63.5" font-family="Helvetica,sans-Serif" font-size="10.00">conf.h</text>
</a>
</g>
</g>
<!-- Node1&#45;&gt;Node4 -->
<g id="edge3" class="edge">
<title>Node1&#45;&gt;Node4</title>
<path fill="none" stroke="midnightblue" d="M407.54,-117.78C357.64,-111.47 246.31,-96.33 154,-76 150.84,-75.3 147.54,-74.48 144.3,-73.62"/>
<polygon fill="midnightblue" stroke="midnightblue" points="407.42,-121.29 417.78,-119.06 408.29,-114.34 407.42,-121.29"/>
</g>
<!-- Node5 -->
<g id="node5" class="node">
<title>Node5</title>
<g id="a_node5"><a xlink:href="dir_8c.html" target="_top" xlink:title=" ">
<polygon fill="white" stroke="black" points="162.5,-56.5 162.5,-75.5 197.5,-75.5 197.5,-56.5 162.5,-56.5"/>
<text text-anchor="middle" x="180" y="-63.5" font-family="Helvetica,sans-Serif" font-size="10.00">dir.c</text>
</a>
</g>
</g>
<!-- Node1&#45;&gt;Node5 -->
<g id="edge5" class="edge">
<title>Node1&#45;&gt;Node5</title>
<path fill="none" stroke="midnightblue" d="M407.82,-116.91C365.31,-110.03 278.82,-95.01 207,-76 203.94,-75.19 200.73,-74.22 197.62,-73.23"/>
<polygon fill="midnightblue" stroke="midnightblue" points="407.45,-120.4 417.88,-118.52 408.56,-113.49 407.45,-120.4"/>
</g>
<!-- Node6 -->
<g id="node6" class="node">
<title>Node6</title>
<g id="a_node6"><a xlink:href="ex_8c.html" target="_top" xlink:title=" ">
<polygon fill="white" stroke="black" points="215.5,-56.5 215.5,-75.5 250.5,-75.5 250.5,-56.5 215.5,-56.5"/>
<text text-anchor="middle" x="233" y="-63.5" font-family="Helvetica,sans-Serif" font-size="10.00">ex.c</text>
</a>
</g>
</g>
<!-- Node1&#45;&gt;Node6 -->
<g id="edge6" class="edge">
<title>Node1&#45;&gt;Node6</title>
<path fill="none" stroke="midnightblue" d="M407.46,-114.74C373.21,-106.52 311.84,-91.32 260,-76 256.97,-75.1 253.76,-74.09 250.66,-73.08"/>
<polygon fill="midnightblue" stroke="midnightblue" points="407.05,-118.24 417.58,-117.15 408.67,-111.43 407.05,-118.24"/>
</g>
<!-- Node7 -->
<g id="node7" class="node">
<title>Node7</title>
<g id="a_node7"><a xlink:href="lbuf_8c.html" target="_top" xlink:title=" ">
<polygon fill="white" stroke="black" points="268.5,-56.5 268.5,-75.5 309.5,-75.5 309.5,-56.5 268.5,-56.5"/>
<text text-anchor="middle" x="289" y="-63.5" font-family="Helvetica,sans-Serif" font-size="10.00">lbuf.c</text>
</a>
</g>
</g>
<!-- Node1&#45;&gt;Node7 -->
<g id="edge7" class="edge">
<title>Node1&#45;&gt;Node7</title>
<path fill="none" stroke="midnightblue" d="M408.39,-111.46C380.32,-101.01 335.82,-84.44 309.81,-74.75"/>
<polygon fill="midnightblue" stroke="midnightblue" points="407.34,-114.8 417.93,-115.01 409.78,-108.24 407.34,-114.8"/>
</g>
<!-- Node8 -->
<g id="node8" class="node">
<title>Node8</title>
<g id="a_node8"><a xlink:href="led_8c.html" target="_top" xlink:title=" ">
<polygon fill="white" stroke="black" points="328,-56.5 328,-75.5 366,-75.5 366,-56.5 328,-56.5"/>
<text text-anchor="middle" x="347" y="-63.5" font-family="Helvetica,sans-Serif" font-size="10.00">led.c</text>
</a>
</g>
</g>
<!-- Node1&#45;&gt;Node8 -->
<g id="edge8" class="edge">
<title>Node1&#45;&gt;Node8</title>
<path fill="none" stroke="midnightblue" d="M411.28,-106.9C395.33,-97 374.5,-84.07 360.94,-75.65"/>
<polygon fill="midnightblue" stroke="midnightblue" points="409.68,-110.02 420.02,-112.32 413.37,-104.08 409.68,-110.02"/>
</g>
<!-- Node9 -->
<g id="node9" class="node">
<title>Node9</title>
<g id="a_node9"><a xlink:href="mot_8c.html" target="_top" xlink:title=" ">
<polygon fill="white" stroke="black" points="384.5,-56.5 384.5,-75.5 425.5,-75.5 425.5,-56.5 384.5,-56.5"/>
<text text-anchor="middle" x="405" y="-63.5" font-family="Helvetica,sans-Serif" font-size="10.00">mot.c</text>
</a>
</g>
</g>
<!-- Node1&#45;&gt;Node9 -->
<g id="edge9" class="edge">
<title>Node1&#45;&gt;Node9</title>
<path fill="none" stroke="midnightblue" d="M424.32,-102.98C419.4,-93.82 413.64,-83.09 409.7,-75.75"/>
<polygon fill="midnightblue" stroke="midnightblue" points="421.4,-104.93 429.21,-112.08 427.56,-101.62 421.4,-104.93"/>
</g>
<!-- Node10 -->
<g id="node10" class="node">
<title>Node10</title>
<g id="a_node10"><a xlink:href="reg_8c.html" target="_top" xlink:title=" ">
<polygon fill="white" stroke="black" points="444,-56.5 444,-75.5 482,-75.5 482,-56.5 444,-56.5"/>
<text text-anchor="middle" x="463" y="-63.5" font-family="Helvetica,sans-Serif" font-size="10.00">reg.c</text>
</a>
</g>
</g>
<!-- Node1&#45;&gt;Node10 -->
<g id="edge10" class="edge">
<title>Node1&#45;&gt;Node10</title>
<path fill="none" stroke="midnightblue" d="M443.68,-102.98C448.6,-93.82 454.36,-83.09 458.3,-75.75"/>
<polygon fill="midnightblue" stroke="midnightblue" points="440.44,-101.62 438.79,-112.08 446.6,-104.93 440.44,-101.62"/>
</g>
<!-- Node11 -->
<g id="node11" class="node">
<title>Node11</title>
<g id="a_node11"><a xlink:href="ren_8c.html" target="_top" xlink:title=" ">
<polygon fill="white" stroke="black" points="500,-56.5 500,-75.5 538,-75.5 538,-56.5 500,-56.5"/>
<text text-anchor="middle" x="519" y="-63.5" font-family="Helvetica,sans-Serif" font-size="10.00">ren.c</text>
</a>
</g>
</g>
<!-- Node1&#45;&gt;Node11 -->
<g id="edge11" class="edge">
<title>Node1&#45;&gt;Node11</title>
<path fill="none" stroke="midnightblue" d="M456.19,-106.9C471.78,-97 492.13,-84.07 505.38,-75.65"/>
<polygon fill="midnightblue" stroke="midnightblue" points="454.22,-104.01 447.66,-112.32 457.97,-109.92 454.22,-104.01"/>
</g>
<!-- Node12 -->
<g id="node12" class="node">
<title>Node12</title>
<g id="a_node12"><a xlink:href="rset_8c.html" target="_top" xlink:title=" ">
<polygon fill="white" stroke="black" points="556.5,-56.5 556.5,-75.5 597.5,-75.5 597.5,-56.5 556.5,-56.5"/>
<text text-anchor="middle" x="577" y="-63.5" font-family="Helvetica,sans-Serif" font-size="10.00">rset.c</text>
</a>
</g>
</g>
<!-- Node1&#45;&gt;Node12 -->
<g id="edge12" class="edge">
<title>Node1&#45;&gt;Node12</title>
<path fill="none" stroke="midnightblue" d="M459.5,-111.37C487.06,-100.96 530.46,-84.58 556.08,-74.9"/>
<polygon fill="midnightblue" stroke="midnightblue" points="458.24,-108.1 450.13,-114.91 460.72,-114.65 458.24,-108.1"/>
</g>
<!-- Node13 -->
<g id="node13" class="node">
<title>Node13</title>
<g id="a_node13"><a xlink:href="sbuf_8c.html" target="_top" xlink:title=" ">
<polygon fill="white" stroke="black" points="616,-56.5 616,-75.5 660,-75.5 660,-56.5 616,-56.5"/>
<text text-anchor="middle" x="638" y="-63.5" font-family="Helvetica,sans-Serif" font-size="10.00">sbuf.c</text>
</a>
</g>
</g>
<!-- Node1&#45;&gt;Node13 -->
<g id="edge13" class="edge">
<title>Node1&#45;&gt;Node13</title>
<path fill="none" stroke="midnightblue" d="M460.29,-114.41C494.25,-105.83 555.16,-90.26 607,-76 609.81,-75.23 612.76,-74.4 615.67,-73.56"/>
<polygon fill="midnightblue" stroke="midnightblue" points="459.1,-111.1 450.26,-116.93 460.81,-117.88 459.1,-111.1"/>
</g>
<!-- Node14 -->
<g id="node14" class="node">
<title>Node14</title>
<g id="a_node14"><a xlink:href="syn_8c.html" target="_top" xlink:title=" ">
<polygon fill="white" stroke="black" points="678.5,-56.5 678.5,-75.5 719.5,-75.5 719.5,-56.5 678.5,-56.5"/>
<text text-anchor="middle" x="699" y="-63.5" font-family="Helvetica,sans-Serif" font-size="10.00">syn.c</text>
</a>
</g>
</g>
<!-- Node1&#45;&gt;Node14 -->
<g id="edge14" class="edge">
<title>Node1&#45;&gt;Node14</title>
<path fill="none" stroke="midnightblue" d="M460.12,-116.9C503.69,-109.85 593.87,-94.41 669,-76 672.06,-75.25 675.28,-74.38 678.42,-73.48"/>
<polygon fill="midnightblue" stroke="midnightblue" points="459.4,-113.47 450.08,-118.5 460.51,-120.38 459.4,-113.47"/>
</g>
<!-- Node15 -->
<g id="node15" class="node">
<title>Node15</title>
<g id="a_node15"><a xlink:href="term_8c.html" target="_top" xlink:title=" ">
<polygon fill="white" stroke="black" points="738,-56.5 738,-75.5 782,-75.5 782,-56.5 738,-56.5"/>
<text text-anchor="middle" x="760" y="-63.5" font-family="Helvetica,sans-Serif" font-size="10.00">term.c</text>
</a>
</g>
</g>
<!-- Node1&#45;&gt;Node15 -->
<g id="edge15" class="edge">
<title>Node1&#45;&gt;Node15</title>
<path fill="none" stroke="midnightblue" d="M460.11,-118.18C511.82,-112.35 630.75,-97.66 729,-76 731.85,-75.37 734.81,-74.63 737.74,-73.84"/>
<polygon fill="midnightblue" stroke="midnightblue" points="459.68,-114.71 450.13,-119.29 460.45,-121.67 459.68,-114.71"/>
</g>
<!-- Node16 -->
<g id="node16" class="node">
<title>Node16</title>
<g id="a_node16"><a xlink:href="uc_8c.html" target="_top" xlink:title=" ">
<polygon fill="white" stroke="black" points="800.5,-56.5 800.5,-75.5 835.5,-75.5 835.5,-56.5 800.5,-56.5"/>
<text text-anchor="middle" x="818" y="-63.5" font-family="Helvetica,sans-Serif" font-size="10.00">uc.c</text>
</a>
</g>
</g>
<!-- Node1&#45;&gt;Node16 -->
<g id="edge16" class="edge">
<title>Node1&#45;&gt;Node16</title>
<path fill="none" stroke="midnightblue" d="M460.24,-119.46C519.73,-115.59 669.14,-103.71 791,-76 794.08,-75.3 797.31,-74.39 800.42,-73.41"/>
<polygon fill="midnightblue" stroke="midnightblue" points="459.97,-115.97 450.21,-120.09 460.41,-122.96 459.97,-115.97"/>
</g>
<!-- Node17 -->
<g id="node17" class="node">
<title>Node17</title>
<g id="a_node17"><a xlink:href="vi_8c.html" target="_top" xlink:title=" ">
<polygon fill="white" stroke="black" points="854,-56.5 854,-75.5 886,-75.5 886,-56.5 854,-56.5"/>
<text text-anchor="middle" x="870" y="-63.5" font-family="Helvetica,sans-Serif" font-size="10.00">vi.c</text>
</a>
</g>
</g>
<!-- Node1&#45;&gt;Node17 -->
<g id="edge17" class="edge">
<title>Node1&#45;&gt;Node17</title>
<path fill="none" stroke="midnightblue" d="M460.6,-120.26C526.55,-117.96 702.53,-108.95 845,-76 847.88,-75.33 850.88,-74.44 853.76,-73.47"/>
<polygon fill="midnightblue" stroke="midnightblue" points="460.17,-116.77 450.29,-120.59 460.4,-123.77 460.17,-116.77"/>
</g>
<!-- Node4&#45;&gt;Node3 -->
<g id="edge4" class="edge">
<title>Node4&#45;&gt;Node3</title>
<path fill="none" stroke="midnightblue" d="M113.66,-46.98C109.42,-37.82 104.45,-27.09 101.05,-19.75"/>
<polygon fill="midnightblue" stroke="midnightblue" points="110.49,-48.48 117.87,-56.08 116.85,-45.54 110.49,-48.48"/>
</g>
</g>
</svg>
        <g id="navigator" transform="translate(0 0)" fill="#404254">
                <rect fill="#f2f5e9" fill-opacity="0.5" stroke="#606060" stroke-width=".5" x="0" y="0" width="60" height="60"/>
                <use id="zoomplus" xlink:href="#zoomPlus" x="17" y="9" onmousedown="handleZoom(evt,'in')"/>
                <use id="zoomminus" xlink:href="#zoomMin" x="42" y="9" onmousedown="handleZoom(evt,'out')"/>
                <use id="reset" xlink:href="#resetDef" x="30" y="36" onmousedown="handleReset()"/>
                <g id="arrowUp" xlink:href="#dirArrow" transform="translate(30 24)" onmousedown="handlePan(0,-1)">
                  <use xlink:href="#rim" fill="#404040">
                        <set attributeName="fill" to="#808080" begin="arrowUp.mouseover" end="arrowUp.mouseout"/>
                  </use>
                  <path fill="none" stroke="white" stroke-width="1.5" d="M0,-3.0v7 M-2.5,-0.5L0,-3.0L2.5,-0.5"/>
                </g>
                <g id="arrowRight" xlink:href="#dirArrow" transform="rotate(90) translate(36 -43)" onmousedown="handlePan(1,0)">
                  <use xlink:href="#rim" fill="#404040">
                        <set attributeName="fill" to="#808080" begin="arrowRight.mouseover" end="arrowRight.mouseout"/>
                  </use>
                  <path fill="none" stroke="white" stroke-width="1.5" d="M0,-3.0v7 M-2.5,-0.5L0,-3.0L2.5,-0.5"/>
                </g>
                <g id="arrowDown" xlink:href="#dirArrow" transform="rotate(180) translate(-30 -48)" onmousedown="handlePan(0,1)">
                  <use xlink:href="#rim" fill="#404040">
                        <set attributeName="fill" to="#808080" begin="arrowDown.mouseover" end="arrowDown.mouseout"/>
                  </use>
                  <path fill="none" stroke="white" stroke-width="1.5" d="M0,-3.0v7 M-2.5,-0.5L0,-3.0L2.5,-0.5"/>
                </g>
                <g id="arrowLeft" xlink:href="#dirArrow" transform="rotate(270) translate(-36 17)" onmousedown="handlePan(-1,0)">
                  <use xlink:href="#rim" fill="#404040">
                        <set attributeName="fill" to="#808080" begin="arrowLeft.mouseover" end="arrowLeft.mouseout"/>
                  </use>
                  <path fill="none" stroke="white" stroke-width="1.5" d="M0,-3.0v7 M-2.5,-0.5L0,-3.0L2.5,-0.5"/>
                </g>
        </g>
        <svg viewBox="0 0 15 15" width="100%" height="30px" preserveAspectRatio="xMaxYMin meet">
         <g id="arrow_out" transform="scale(0.3 0.3)">
          <a xlink:href="vi_8h__dep__incl_org.svg" target="_base">
           <rect id="button" ry="5" rx="5" y="6" x="6" height="38" width="38"
                fill="#f2f5e9" fill-opacity="0.5" stroke="#606060" stroke-width="1.0"/>
           <path id="arrow"
             d="M 11.500037,31.436501 C 11.940474,20.09759 22.043105,11.32322 32.158766,21.979434 L 37.068811,17.246167 C 37.068811,17.246167 37.088388,32 37.088388,32 L 22.160133,31.978069 C 22.160133,31.978069 26.997745,27.140456 26.997745,27.140456 C 18.528582,18.264221 13.291696,25.230495 11.500037,31.436501 z"
             style="fill:#404040;"/>
          </a>
         </g>
        </svg>
</svg>
