<?xml version="1.0" encoding="UTF-8" standalone="no"?>
<!DOCTYPE svg PUBLIC "-//W3C//DTD SVG 1.1//EN"
 "http://www.w3.org/Graphics/SVG/1.1/DTD/svg11.dtd">
<!-- Generated by graphviz version 2.44.1 (20200629.0846)
 -->
<!-- Title: lbuf_region Pages: 1 -->
<svg width="464pt" height="199pt"
 viewBox="0.00 0.00 464.00 199.16" xmlns="http://www.w3.org/2000/svg" xmlns:xlink="http://www.w3.org/1999/xlink">
<g id="graph0" class="graph" transform="scale(1 1) rotate(0) translate(4 195.16)">
<title>lbuf_region</title>
<polygon fill="white" stroke="transparent" points="-4,4 -4,-195.16 460,-195.16 460,4 -4,4"/>
<!-- Node1 -->
<g id="node1" class="node">
<title>Node1</title>
<g id="a_node1"><a xlink:title=" ">
<polygon fill="#bfbfbf" stroke="black" points="0,-95.5 0,-114.5 64,-114.5 64,-95.5 0,-95.5"/>
<text text-anchor="middle" x="32" y="-102.5" font-family="Helvetica,sans-Serif" font-size="10.00">lbuf_region</text>
</a>
</g>
</g>
<!-- Node2 -->
<g id="node2" class="node">
<title>Node2</title>
<g id="a_node2"><a xlink:href="lbuf_8c.html#ad5f7a537d1c72f485481fc22cb8361a6" target="_top" xlink:title=" ">
<polygon fill="white" stroke="black" points="101.5,-152.5 101.5,-171.5 149.5,-171.5 149.5,-152.5 101.5,-152.5"/>
<text text-anchor="middle" x="125.5" y="-159.5" font-family="Helvetica,sans-Serif" font-size="10.00">lbuf_cp</text>
</a>
</g>
</g>
<!-- Node1&#45;&gt;Node2 -->
<g id="edge1" class="edge">
<title>Node1&#45;&gt;Node2</title>
<path fill="none" stroke="midnightblue" d="M48.52,-114.67C62.8,-123.57 84.2,-136.9 100.65,-147.14"/>
<polygon fill="midnightblue" stroke="midnightblue" points="98.87,-150.16 109.21,-152.47 102.57,-144.22 98.87,-150.16"/>
</g>
<!-- Node3 -->
<g id="node3" class="node">
<title>Node3</title>
<g id="a_node3"><a xlink:href="sbuf_8c.html#a7bf14d501d36ce36ee269d77cf2c3fc6" target="_top" xlink:title=" ">
<polygon fill="white" stroke="black" points="188.5,-133.5 188.5,-152.5 250.5,-152.5 250.5,-133.5 188.5,-133.5"/>
<text text-anchor="middle" x="219.5" y="-140.5" font-family="Helvetica,sans-Serif" font-size="10.00">sbuf_done</text>
</a>
</g>
</g>
<!-- Node1&#45;&gt;Node3 -->
<g id="edge10" class="edge">
<title>Node1&#45;&gt;Node3</title>
<path fill="none" stroke="midnightblue" d="M64.05,-111.36C95.36,-117.77 143.84,-127.71 178.13,-134.73"/>
<polygon fill="midnightblue" stroke="midnightblue" points="177.78,-138.23 188.27,-136.81 179.18,-131.37 177.78,-138.23"/>
</g>
<!-- Node6 -->
<g id="node6" class="node">
<title>Node6</title>
<g id="a_node6"><a xlink:href="sbuf_8c.html#a57748585d6786a2c1aadc2cbe6f2135b" target="_top" xlink:title=" ">
<polygon fill="white" stroke="black" points="187,-95.5 187,-114.5 252,-114.5 252,-95.5 187,-95.5"/>
<text text-anchor="middle" x="219.5" y="-102.5" font-family="Helvetica,sans-Serif" font-size="10.00">sbuf_make</text>
</a>
</g>
</g>
<!-- Node1&#45;&gt;Node6 -->
<g id="edge11" class="edge">
<title>Node1&#45;&gt;Node6</title>
<path fill="none" stroke="midnightblue" d="M64.05,-105C94.89,-105 142.4,-105 176.58,-105"/>
<polygon fill="midnightblue" stroke="midnightblue" points="176.73,-108.5 186.73,-105 176.73,-101.5 176.73,-108.5"/>
</g>
<!-- Node7 -->
<g id="node7" class="node">
<title>Node7</title>
<g id="a_node7"><a xlink:href="sbuf_8c.html#a603d1d6ab090025f5850f10bfa2dec7a" target="_top" xlink:title=" ">
<polygon fill="white" stroke="black" points="193.5,-171.5 193.5,-190.5 245.5,-190.5 245.5,-171.5 193.5,-171.5"/>
<text text-anchor="middle" x="219.5" y="-178.5" font-family="Helvetica,sans-Serif" font-size="10.00">sbuf_str</text>
</a>
</g>
</g>
<!-- Node1&#45;&gt;Node7 -->
<g id="edge12" class="edge">
<title>Node1&#45;&gt;Node7</title>
<path fill="none" stroke="midnightblue" d="M37.84,-114.54C47.16,-131.67 69.38,-167.17 100,-181 126.09,-192.78 158.82,-191.75 183.27,-188.37"/>
<polygon fill="midnightblue" stroke="midnightblue" points="183.86,-191.81 193.19,-186.8 182.77,-184.9 183.86,-191.81"/>
</g>
<!-- Node9 -->
<g id="node9" class="node">
<title>Node9</title>
<g id="a_node9"><a xlink:href="lbuf_8c.html#ad0f45475ddc6eb82ecedf63ed1b914d4" target="_top" xlink:title=" ">
<polygon fill="white" stroke="black" points="100,-38.5 100,-57.5 151,-57.5 151,-38.5 100,-38.5"/>
<text text-anchor="middle" x="125.5" y="-45.5" font-family="Helvetica,sans-Serif" font-size="10.00">lbuf_get</text>
</a>
</g>
</g>
<!-- Node1&#45;&gt;Node9 -->
<g id="edge9" class="edge">
<title>Node1&#45;&gt;Node9</title>
<path fill="none" stroke="midnightblue" d="M48.52,-95.33C62.8,-86.43 84.2,-73.1 100.65,-62.86"/>
<polygon fill="midnightblue" stroke="midnightblue" points="102.57,-65.78 109.21,-57.53 98.87,-59.84 102.57,-65.78"/>
</g>
<!-- Node10 -->
<g id="node10" class="node">
<title>Node10</title>
<g id="a_node10"><a xlink:href="uc_8c.html#a12e27a6877e4a8705aeabfae5ae507db" target="_top" xlink:title=" ">
<polygon fill="white" stroke="black" points="101.5,-0.5 101.5,-19.5 149.5,-19.5 149.5,-0.5 101.5,-0.5"/>
<text text-anchor="middle" x="125.5" y="-7.5" font-family="Helvetica,sans-Serif" font-size="10.00">uc_sub</text>
</a>
</g>
</g>
<!-- Node1&#45;&gt;Node10 -->
<g id="edge13" class="edge">
<title>Node1&#45;&gt;Node10</title>
<path fill="none" stroke="midnightblue" d="M40.51,-95.36C52.38,-80.4 76.53,-51.03 100,-29 101.08,-27.99 102.21,-26.97 103.37,-25.97"/>
<polygon fill="midnightblue" stroke="midnightblue" points="105.62,-28.65 111.16,-19.62 101.19,-23.22 105.62,-28.65"/>
</g>
<!-- Node2&#45;&gt;Node3 -->
<g id="edge2" class="edge">
<title>Node2&#45;&gt;Node3</title>
<path fill="none" stroke="midnightblue" d="M149.72,-157.21C158.41,-155.41 168.55,-153.32 178.34,-151.29"/>
<polygon fill="midnightblue" stroke="midnightblue" points="179.24,-154.68 188.33,-149.23 177.83,-147.83 179.24,-154.68"/>
</g>
<!-- Node2&#45;&gt;Node6 -->
<g id="edge5" class="edge">
<title>Node2&#45;&gt;Node6</title>
<path fill="none" stroke="midnightblue" d="M141.87,-152.24C154.07,-144.52 171.58,-133.49 187,-124 189.19,-122.65 191.47,-121.26 193.76,-119.87"/>
<polygon fill="midnightblue" stroke="midnightblue" points="195.7,-122.78 202.44,-114.61 192.07,-116.79 195.7,-122.78"/>
</g>
<!-- Node2&#45;&gt;Node7 -->
<g id="edge6" class="edge">
<title>Node2&#45;&gt;Node7</title>
<path fill="none" stroke="midnightblue" d="M149.72,-166.79C159.9,-168.9 172.09,-171.41 183.35,-173.74"/>
<polygon fill="midnightblue" stroke="midnightblue" points="182.85,-177.21 193.35,-175.81 184.27,-170.36 182.85,-177.21"/>
</g>
<!-- Node4 -->
<g id="node4" class="node">
<title>Node4</title>
<g id="a_node4"><a xlink:href="sbuf_8c.html#a4e56760893d5a6797626743840c9adf2" target="_top" xlink:title=" ">
<polygon fill="white" stroke="black" points="292,-133.5 292,-152.5 346,-152.5 346,-133.5 292,-133.5"/>
<text text-anchor="middle" x="319" y="-140.5" font-family="Helvetica,sans-Serif" font-size="10.00">sbuf_buf</text>
</a>
</g>
</g>
<!-- Node3&#45;&gt;Node4 -->
<g id="edge3" class="edge">
<title>Node3&#45;&gt;Node4</title>
<path fill="none" stroke="midnightblue" d="M250.55,-143C260.35,-143 271.34,-143 281.56,-143"/>
<polygon fill="midnightblue" stroke="midnightblue" points="281.84,-146.5 291.84,-143 281.84,-139.5 281.84,-146.5"/>
</g>
<!-- Node5 -->
<g id="node5" class="node">
<title>Node5</title>
<g id="a_node5"><a xlink:href="sbuf_8c.html#a4ad75f3948c0340c342a3ea3eb63a6e6" target="_top" xlink:title=" ">
<polygon fill="white" stroke="black" points="386,-152.5 386,-171.5 456,-171.5 456,-152.5 386,-152.5"/>
<text text-anchor="middle" x="421" y="-159.5" font-family="Helvetica,sans-Serif" font-size="10.00">sbuf_extend</text>
</a>
</g>
</g>
<!-- Node4&#45;&gt;Node5 -->
<g id="edge4" class="edge">
<title>Node4&#45;&gt;Node5</title>
<path fill="none" stroke="midnightblue" d="M346.01,-147.94C355.13,-149.67 365.64,-151.67 375.82,-153.61"/>
<polygon fill="midnightblue" stroke="midnightblue" points="375.35,-157.08 385.83,-155.51 376.66,-150.2 375.35,-157.08"/>
</g>
<!-- Node8 -->
<g id="node8" class="node">
<title>Node8</title>
<g id="a_node8"><a xlink:href="sbuf_8c.html#aa511ac77d6b486accc01c0512ef27ed2" target="_top" xlink:title=" ">
<polygon fill="white" stroke="black" points="288,-171.5 288,-190.5 350,-190.5 350,-171.5 288,-171.5"/>
<text text-anchor="middle" x="319" y="-178.5" font-family="Helvetica,sans-Serif" font-size="10.00">sbuf_mem</text>
</a>
</g>
</g>
<!-- Node7&#45;&gt;Node8 -->
<g id="edge7" class="edge">
<title>Node7&#45;&gt;Node8</title>
<path fill="none" stroke="midnightblue" d="M245.61,-181C255.36,-181 266.77,-181 277.61,-181"/>
<polygon fill="midnightblue" stroke="midnightblue" points="277.76,-184.5 287.76,-181 277.76,-177.5 277.76,-184.5"/>
</g>
<!-- Node8&#45;&gt;Node5 -->
<g id="edge8" class="edge">
<title>Node8&#45;&gt;Node5</title>
<path fill="none" stroke="midnightblue" d="M350,-175.3C358.11,-173.76 367.05,-172.06 375.76,-170.41"/>
<polygon fill="midnightblue" stroke="midnightblue" points="376.64,-173.8 385.81,-168.5 375.33,-166.92 376.64,-173.8"/>
</g>
<!-- Node11 -->
<g id="node11" class="node">
<title>Node11</title>
<g id="a_node11"><a xlink:href="uc_8c.html#a2fecd1fc98475ece5f529da3315a9553" target="_top" xlink:title=" ">
<polygon fill="white" stroke="black" points="196.5,-0.5 196.5,-19.5 242.5,-19.5 242.5,-0.5 196.5,-0.5"/>
<text text-anchor="middle" x="219.5" y="-7.5" font-family="Helvetica,sans-Serif" font-size="10.00">uc_chr</text>
</a>
</g>
</g>
<!-- Node10&#45;&gt;Node11 -->
<g id="edge14" class="edge">
<title>Node10&#45;&gt;Node11</title>
<path fill="none" stroke="midnightblue" d="M149.72,-10C160.75,-10 174.12,-10 186.13,-10"/>
<polygon fill="midnightblue" stroke="midnightblue" points="186.24,-13.5 196.24,-10 186.24,-6.5 186.24,-13.5"/>
</g>
<!-- Node12 -->
<g id="node12" class="node">
<title>Node12</title>
<g id="a_node12"><a xlink:href="uc_8c.html#a79c7c44c06c1febff5680c19667e2676" target="_top" xlink:title=" ">
<polygon fill="white" stroke="black" points="293.5,-0.5 293.5,-19.5 344.5,-19.5 344.5,-0.5 293.5,-0.5"/>
<text text-anchor="middle" x="319" y="-7.5" font-family="Helvetica,sans-Serif" font-size="10.00">uc_next</text>
</a>
</g>
</g>
<!-- Node11&#45;&gt;Node12 -->
<g id="edge15" class="edge">
<title>Node11&#45;&gt;Node12</title>
<path fill="none" stroke="midnightblue" d="M242.62,-10C254.51,-10 269.43,-10 282.86,-10"/>
<polygon fill="midnightblue" stroke="midnightblue" points="283.22,-13.5 293.22,-10 283.22,-6.5 283.22,-13.5"/>
</g>
<!-- Node13 -->
<g id="node13" class="node">
<title>Node13</title>
<g id="a_node13"><a xlink:href="uc_8c.html#a616e24870a58b86644c34ee077faca11" target="_top" xlink:title=" ">
<polygon fill="white" stroke="black" points="397,-0.5 397,-19.5 445,-19.5 445,-0.5 397,-0.5"/>
<text text-anchor="middle" x="421" y="-7.5" font-family="Helvetica,sans-Serif" font-size="10.00">uc_end</text>
</a>
</g>
</g>
<!-- Node12&#45;&gt;Node13 -->
<g id="edge16" class="edge">
<title>Node12&#45;&gt;Node13</title>
<path fill="none" stroke="midnightblue" d="M344.72,-10C357.44,-10 373.12,-10 386.88,-10"/>
<polygon fill="midnightblue" stroke="midnightblue" points="386.94,-13.5 396.94,-10 386.94,-6.5 386.94,-13.5"/>
</g>
</g>
</svg>
