<?xml version="1.0" encoding="UTF-8" standalone="no"?>
<!DOCTYPE svg PUBLIC "-//W3C//DTD SVG 1.1//EN"
 "http://www.w3.org/Graphics/SVG/1.1/DTD/svg11.dtd">
<!-- Generated by graphviz version 2.44.1 (20200629.0846)
 -->
<!-- Title: uc_isalpha Pages: 1 -->
<!--zoomable 341 -->
<svg id="main" version="1.1" xmlns="http://www.w3.org/2000/svg" xmlns:xlink="http://www.w3.org/1999/xlink" xml:space="preserve" onload="init(evt)">
<style type="text/css"><![CDATA[
.edge:hover path { stroke: red; }
.edge:hover polygon { stroke: red; fill: red; }
]]></style>
<script type="text/javascript"><![CDATA[
var edges = document.getElementsByTagName('g');
if (edges && edges.length) {
  for (var i=0;i<edges.length;i++) {
    if (edges[i].id.substr(0,4)=='edge') {
      edges[i].setAttribute('class','edge');
    }
  }
}
]]></script>
        <defs>
                <circle id="rim" cx="0" cy="0" r="7"/>
                <circle id="rim2" cx="0" cy="0" r="3.5"/>
                <g id="zoomPlus">
                        <use xlink:href="#rim" fill="#404040">
                                <set attributeName="fill" to="#808080" begin="zoomplus.mouseover" end="zoomplus.mouseout"/>
                        </use>
                        <path d="M-4,0h8M0,-4v8" fill="none" stroke="white" stroke-width="1.5" pointer-events="none"/>
                </g>
                <g id="zoomMin">
                        <use xlink:href="#rim" fill="#404040">
                                <set attributeName="fill" to="#808080" begin="zoomminus.mouseover" end="zoomminus.mouseout"/>
                        </use>
                        <path d="M-4,0h8" fill="none" stroke="white" stroke-width="1.5" pointer-events="none"/>
                </g>
                <g id="dirArrow">
                        <path fill="none" stroke="white" stroke-width="1.5" d="M0,-3.0v7 M-2.5,-0.5L0,-3.0L2.5,-0.5"/>
                </g>
               <g id="resetDef">
                       <use xlink:href="#rim2" fill="#404040">
                               <set attributeName="fill" to="#808080" begin="reset.mouseover" end="reset.mouseout"/>
                       </use>
               </g>
        </defs>

<script type="text/javascript">
var viewWidth = 1002;
var viewHeight = 341;
var sectionId = 'dynsection-111';
</script>
<script xlink:href="svgpan.js"/>
<svg id="graph" class="graph">
<g id="viewport">
<title>uc_isalpha</title>
<polygon fill="white" stroke="transparent" points="-4,4 -4,-337.4 998,-337.4 998,4 -4,4"/>
<!-- Node1 -->
<g id="node1" class="node">
<title>Node1</title>
<g id="a_node1"><a xlink:title=" ">
<polygon fill="#bfbfbf" stroke="black" points="931,-76.5 931,-95.5 994,-95.5 994,-76.5 931,-76.5"/>
<text text-anchor="middle" x="962.5" y="-83.5" font-family="Helvetica,sans-Serif" font-size="10.00">uc_isalpha</text>
</a>
</g>
</g>
<!-- Node2 -->
<g id="node2" class="node">
<title>Node2</title>
<g id="a_node2"><a xlink:href="vi_8h.html#a11275a0a4c95061c99fe7462ef3cf1b3" target="_top" xlink:title=" ">
<polygon fill="white" stroke="black" points="845,-76.5 845,-95.5 895,-95.5 895,-76.5 845,-76.5"/>
<text text-anchor="middle" x="870" y="-83.5" font-family="Helvetica,sans-Serif" font-size="10.00">uc_kind</text>
</a>
</g>
</g>
<!-- Node1&#45;&gt;Node2 -->
<g id="edge1" class="edge">
<title>Node1&#45;&gt;Node2</title>
<path fill="none" stroke="midnightblue" d="M920.73,-86C911.94,-86 902.93,-86 895.03,-86"/>
<polygon fill="midnightblue" stroke="midnightblue" points="920.86,-89.5 930.86,-86 920.86,-82.5 920.86,-89.5"/>
</g>
<!-- Node3 -->
<g id="node3" class="node">
<title>Node3</title>
<g id="a_node3"><a xlink:href="vi_8h.html#a1bd5b9a4117b7cc986675b27e20059be" target="_top" xlink:title=" ">
<polygon fill="white" stroke="black" points="625,-76.5 625,-95.5 699,-95.5 699,-76.5 625,-76.5"/>
<text text-anchor="middle" x="662" y="-83.5" font-family="Helvetica,sans-Serif" font-size="10.00">lbuf_wordbeg</text>
</a>
</g>
</g>
<!-- Node2&#45;&gt;Node3 -->
<g id="edge2" class="edge">
<title>Node2&#45;&gt;Node3</title>
<path fill="none" stroke="midnightblue" d="M835.32,-98.65C826.85,-101.28 817.69,-103.66 809,-105 776.5,-110.02 767.62,-109.23 735,-105 720.64,-103.14 705.06,-99.27 692.09,-95.5"/>
<polygon fill="midnightblue" stroke="midnightblue" points="836.48,-101.95 844.88,-95.5 834.29,-95.31 836.48,-101.95"/>
</g>
<!-- Node8 -->
<g id="node8" class="node">
<title>Node8</title>
<g id="a_node8"><a xlink:href="vi_8h.html#a94c2499e381bfa3497978110b44fc71d" target="_top" xlink:title=" ">
<polygon fill="white" stroke="black" points="625,-38.5 625,-57.5 699,-57.5 699,-38.5 625,-38.5"/>
<text text-anchor="middle" x="662" y="-45.5" font-family="Helvetica,sans-Serif" font-size="10.00">lbuf_wordend</text>
</a>
</g>
</g>
<!-- Node2&#45;&gt;Node8 -->
<g id="edge8" class="edge">
<title>Node2&#45;&gt;Node8</title>
<path fill="none" stroke="midnightblue" d="M835.18,-74.14C826.71,-71.49 817.59,-68.9 809,-67 771.94,-58.79 728.75,-53.71 699.01,-50.89"/>
<polygon fill="midnightblue" stroke="midnightblue" points="834.15,-77.49 844.75,-77.24 836.31,-70.83 834.15,-77.49"/>
</g>
<!-- Node9 -->
<g id="node9" class="node">
<title>Node9</title>
<g id="a_node9"><a xlink:href="mot_8c.html#a644f779e0e815979c646ea210c3a1594" target="_top" xlink:title=" ">
<polygon fill="white" stroke="black" points="735,-76.5 735,-95.5 809,-95.5 809,-76.5 735,-76.5"/>
<text text-anchor="middle" x="772" y="-83.5" font-family="Helvetica,sans-Serif" font-size="10.00">lbuf_wordlast</text>
</a>
</g>
</g>
<!-- Node2&#45;&gt;Node9 -->
<g id="edge10" class="edge">
<title>Node2&#45;&gt;Node9</title>
<path fill="none" stroke="midnightblue" d="M834.7,-86C826.42,-86 817.56,-86 809.2,-86"/>
<polygon fill="midnightblue" stroke="midnightblue" points="834.78,-89.5 844.78,-86 834.78,-82.5 834.78,-89.5"/>
</g>
<!-- Node10 -->
<g id="node10" class="node">
<title>Node10</title>
<g id="a_node10"><a xlink:href="led_8c.html#a402675adfde0f512af50ca2e7a656601" target="_top" xlink:title=" ">
<polygon fill="white" stroke="black" points="736.5,-152.5 736.5,-171.5 807.5,-171.5 807.5,-152.5 736.5,-152.5"/>
<text text-anchor="middle" x="772" y="-159.5" font-family="Helvetica,sans-Serif" font-size="10.00">led_lastword</text>
</a>
</g>
</g>
<!-- Node2&#45;&gt;Node10 -->
<g id="edge13" class="edge">
<title>Node2&#45;&gt;Node10</title>
<path fill="none" stroke="midnightblue" d="M851.01,-102.65C839.34,-113.17 823.65,-126.84 809,-138 802.43,-143.01 794.86,-148.14 788.36,-152.37"/>
<polygon fill="midnightblue" stroke="midnightblue" points="853.68,-104.94 858.72,-95.62 848.97,-99.77 853.68,-104.94"/>
</g>
<!-- Node24 -->
<g id="node24" class="node">
<title>Node24</title>
<g id="a_node24"><a xlink:href="vi_8c.html#a845a69e411d4378f818ca75e092db7dc" target="_top" xlink:title=" ">
<polygon fill="white" stroke="black" points="524.5,-0.5 524.5,-19.5 588.5,-19.5 588.5,-0.5 524.5,-0.5"/>
<text text-anchor="middle" x="556.5" y="-7.5" font-family="Helvetica,sans-Serif" font-size="10.00">vi_curword</text>
</a>
</g>
</g>
<!-- Node2&#45;&gt;Node24 -->
<g id="edge34" class="edge">
<title>Node2&#45;&gt;Node24</title>
<path fill="none" stroke="midnightblue" d="M846.86,-70.71C835.9,-63.77 822.21,-56.01 809,-51 733.31,-22.27 637.32,-13.67 588.72,-11.09"/>
<polygon fill="midnightblue" stroke="midnightblue" points="845.07,-73.72 855.36,-76.27 848.9,-67.86 845.07,-73.72"/>
</g>
<!-- Node4 -->
<g id="node4" class="node">
<title>Node4</title>
<g id="a_node4"><a xlink:href="vi_8c.html#aaa4777ea0715ea846346d0f27a0cfa3f" target="_top" xlink:title=" ">
<polygon fill="white" stroke="black" points="238,-76.5 238,-95.5 297,-95.5 297,-76.5 238,-76.5"/>
<text text-anchor="middle" x="267.5" y="-83.5" font-family="Helvetica,sans-Serif" font-size="10.00">vi_motion</text>
</a>
</g>
</g>
<!-- Node3&#45;&gt;Node4 -->
<g id="edge3" class="edge">
<title>Node3&#45;&gt;Node4</title>
<path fill="none" stroke="midnightblue" d="M614.75,-86C532.75,-86 364.21,-86 297.04,-86"/>
<polygon fill="midnightblue" stroke="midnightblue" points="614.78,-89.5 624.78,-86 614.78,-82.5 614.78,-89.5"/>
</g>
<!-- Node5 -->
<g id="node5" class="node">
<title>Node5</title>
<g id="a_node5"><a xlink:href="vi_8c.html#a06cbc6eb843436a0e77e07cbab0c4538" target="_top" xlink:title=" ">
<polygon fill="white" stroke="black" points="139,-185.5 139,-204.5 201,-204.5 201,-185.5 139,-185.5"/>
<text text-anchor="middle" x="170" y="-192.5" font-family="Helvetica,sans-Serif" font-size="10.00">vc_motion</text>
</a>
</g>
</g>
<!-- Node4&#45;&gt;Node5 -->
<g id="edge4" class="edge">
<title>Node4&#45;&gt;Node5</title>
<path fill="none" stroke="midnightblue" d="M240.96,-101.56C239.58,-102.68 238.25,-103.82 237,-105 210.05,-130.36 186.58,-167.98 176.39,-185.45"/>
<polygon fill="midnightblue" stroke="midnightblue" points="243.11,-104.33 249.18,-95.66 239.02,-98.65 243.11,-104.33"/>
</g>
<!-- Node6 -->
<g id="node6" class="node">
<title>Node6</title>
<g id="a_node6"><a xlink:href="vi_8c.html#a8d808e0f3453afe6600673ee1ea5f828" target="_top" xlink:title=" ">
<polygon fill="white" stroke="black" points="74,-204.5 74,-223.5 103,-223.5 103,-204.5 74,-204.5"/>
<text text-anchor="middle" x="88.5" y="-211.5" font-family="Helvetica,sans-Serif" font-size="10.00">vi</text>
</a>
</g>
</g>
<!-- Node4&#45;&gt;Node6 -->
<g id="edge7" class="edge">
<title>Node4&#45;&gt;Node6</title>
<path fill="none" stroke="midnightblue" d="M228.47,-96.95C201.43,-106.09 165.37,-121.18 139,-143 117.7,-160.62 101.45,-189.59 93.99,-204.49"/>
<polygon fill="midnightblue" stroke="midnightblue" points="229.57,-100.27 237.99,-93.85 227.4,-93.62 229.57,-100.27"/>
</g>
<!-- Node5&#45;&gt;Node6 -->
<g id="edge5" class="edge">
<title>Node5&#45;&gt;Node6</title>
<path fill="none" stroke="midnightblue" d="M128.95,-204.57C119.66,-206.79 110.39,-209.01 103.17,-210.73"/>
<polygon fill="midnightblue" stroke="midnightblue" points="130.03,-207.91 138.94,-202.18 128.4,-201.1 130.03,-207.91"/>
</g>
<!-- Node7 -->
<g id="node7" class="node">
<title>Node7</title>
<g id="a_node7"><a xlink:href="vi_8c.html#a0ddf1224851353fc92bfbff6f499fa97" target="_top" xlink:title=" ">
<polygon fill="white" stroke="black" points="0,-223.5 0,-242.5 38,-242.5 38,-223.5 0,-223.5"/>
<text text-anchor="middle" x="19" y="-230.5" font-family="Helvetica,sans-Serif" font-size="10.00">main</text>
</a>
</g>
</g>
<!-- Node6&#45;&gt;Node7 -->
<g id="edge6" class="edge">
<title>Node6&#45;&gt;Node7</title>
<path fill="none" stroke="midnightblue" d="M64.14,-220.57C55.67,-222.96 46.22,-225.62 38.25,-227.86"/>
<polygon fill="midnightblue" stroke="midnightblue" points="65.16,-223.92 73.84,-217.84 63.27,-217.19 65.16,-223.92"/>
</g>
<!-- Node8&#45;&gt;Node4 -->
<g id="edge9" class="edge">
<title>Node8&#45;&gt;Node4</title>
<path fill="none" stroke="midnightblue" d="M614.75,-52.48C532.75,-60.42 364.21,-76.73 297.04,-83.24"/>
<polygon fill="midnightblue" stroke="midnightblue" points="615.16,-55.95 624.78,-51.51 614.49,-48.99 615.16,-55.95"/>
</g>
<!-- Node9&#45;&gt;Node3 -->
<g id="edge11" class="edge">
<title>Node9&#45;&gt;Node3</title>
<path fill="none" stroke="midnightblue" d="M724.61,-86C716.16,-86 707.46,-86 699.35,-86"/>
<polygon fill="midnightblue" stroke="midnightblue" points="724.74,-89.5 734.74,-86 724.74,-82.5 724.74,-89.5"/>
</g>
<!-- Node9&#45;&gt;Node8 -->
<g id="edge12" class="edge">
<title>Node9&#45;&gt;Node8</title>
<path fill="none" stroke="midnightblue" d="M734.13,-73.03C719.74,-67.97 703.55,-62.27 690.24,-57.59"/>
<polygon fill="midnightblue" stroke="midnightblue" points="733.15,-76.39 743.75,-76.41 735.48,-69.79 733.15,-76.39"/>
</g>
<!-- Node11 -->
<g id="node11" class="node">
<title>Node11</title>
<g id="a_node11"><a xlink:href="led_8c.html#a617ec615e86687b5c10df33b271256c8" target="_top" xlink:title=" ">
<polygon fill="white" stroke="black" points="637,-152.5 637,-171.5 687,-171.5 687,-152.5 637,-152.5"/>
<text text-anchor="middle" x="662" y="-159.5" font-family="Helvetica,sans-Serif" font-size="10.00">led_line</text>
</a>
</g>
</g>
<!-- Node10&#45;&gt;Node11 -->
<g id="edge14" class="edge">
<title>Node10&#45;&gt;Node11</title>
<path fill="none" stroke="midnightblue" d="M726.2,-162C712.8,-162 698.63,-162 687.11,-162"/>
<polygon fill="midnightblue" stroke="midnightblue" points="726.23,-165.5 736.23,-162 726.23,-158.5 726.23,-165.5"/>
</g>
<!-- Node12 -->
<g id="node12" class="node">
<title>Node12</title>
<g id="a_node12"><a xlink:href="vi_8h.html#ae72255a31cec31233723c101d9465d07" target="_top" xlink:title=" ">
<polygon fill="white" stroke="black" points="528.5,-152.5 528.5,-171.5 584.5,-171.5 584.5,-152.5 528.5,-152.5"/>
<text text-anchor="middle" x="556.5" y="-159.5" font-family="Helvetica,sans-Serif" font-size="10.00">led_input</text>
</a>
</g>
</g>
<!-- Node11&#45;&gt;Node12 -->
<g id="edge15" class="edge">
<title>Node11&#45;&gt;Node12</title>
<path fill="none" stroke="midnightblue" d="M626.94,-162C613.22,-162 597.6,-162 584.66,-162"/>
<polygon fill="midnightblue" stroke="midnightblue" points="626.99,-165.5 636.99,-162 626.99,-158.5 626.99,-165.5"/>
</g>
<!-- Node16 -->
<g id="node16" class="node">
<title>Node16</title>
<g id="a_node16"><a xlink:href="vi_8h.html#a173bb468e1e2a066136316f98b49c108" target="_top" xlink:title=" ">
<polygon fill="white" stroke="black" points="524,-190.5 524,-209.5 589,-209.5 589,-190.5 524,-190.5"/>
<text text-anchor="middle" x="556.5" y="-197.5" font-family="Helvetica,sans-Serif" font-size="10.00">led_prompt</text>
</a>
</g>
</g>
<!-- Node11&#45;&gt;Node16 -->
<g id="edge21" class="edge">
<title>Node11&#45;&gt;Node16</title>
<path fill="none" stroke="midnightblue" d="M627.53,-174.29C613.27,-179.53 596.88,-185.54 583.55,-190.44"/>
<polygon fill="midnightblue" stroke="midnightblue" points="628.81,-177.55 636.99,-170.81 626.4,-170.97 628.81,-177.55"/>
</g>
<!-- Node13 -->
<g id="node13" class="node">
<title>Node13</title>
<g id="a_node13"><a xlink:href="vi_8c.html#a653f6b0359cef492e11f404c4bf469b9" target="_top" xlink:title=" ">
<polygon fill="white" stroke="black" points="338.5,-152.5 338.5,-171.5 388.5,-171.5 388.5,-152.5 338.5,-152.5"/>
<text text-anchor="middle" x="363.5" y="-159.5" font-family="Helvetica,sans-Serif" font-size="10.00">vi_input</text>
</a>
</g>
</g>
<!-- Node12&#45;&gt;Node13 -->
<g id="edge16" class="edge">
<title>Node12&#45;&gt;Node13</title>
<path fill="none" stroke="midnightblue" d="M517.9,-162C479.62,-162 421.39,-162 388.79,-162"/>
<polygon fill="midnightblue" stroke="midnightblue" points="518.13,-165.5 528.13,-162 518.13,-158.5 518.13,-165.5"/>
</g>
<!-- Node14 -->
<g id="node14" class="node">
<title>Node14</title>
<g id="a_node14"><a xlink:href="vi_8c.html#a8bb357a77ed61da8858f138c6fa672a6" target="_top" xlink:title=" ">
<polygon fill="white" stroke="black" points="239.5,-114.5 239.5,-133.5 295.5,-133.5 295.5,-114.5 239.5,-114.5"/>
<text text-anchor="middle" x="267.5" y="-121.5" font-family="Helvetica,sans-Serif" font-size="10.00">vc_insert</text>
</a>
</g>
</g>
<!-- Node13&#45;&gt;Node14 -->
<g id="edge17" class="edge">
<title>Node13&#45;&gt;Node14</title>
<path fill="none" stroke="midnightblue" d="M329.32,-148.59C317.08,-143.64 303.46,-138.13 292.21,-133.59"/>
<polygon fill="midnightblue" stroke="midnightblue" points="328.2,-151.91 338.78,-152.41 330.82,-145.42 328.2,-151.91"/>
</g>
<!-- Node15 -->
<g id="node15" class="node">
<title>Node15</title>
<g id="a_node15"><a xlink:href="vi_8c.html#ae37b094c3bb647d8c1a4ac4e858ce518" target="_top" xlink:title=" ">
<polygon fill="white" stroke="black" points="237,-152.5 237,-171.5 298,-171.5 298,-152.5 237,-152.5"/>
<text text-anchor="middle" x="267.5" y="-159.5" font-family="Helvetica,sans-Serif" font-size="10.00">vi_change</text>
</a>
</g>
</g>
<!-- Node13&#45;&gt;Node15 -->
<g id="edge19" class="edge">
<title>Node13&#45;&gt;Node15</title>
<path fill="none" stroke="midnightblue" d="M328.1,-162C318.34,-162 307.8,-162 298.34,-162"/>
<polygon fill="midnightblue" stroke="midnightblue" points="328.29,-165.5 338.29,-162 328.29,-158.5 328.29,-165.5"/>
</g>
<!-- Node14&#45;&gt;Node6 -->
<g id="edge18" class="edge">
<title>Node14&#45;&gt;Node6</title>
<path fill="none" stroke="midnightblue" d="M229.87,-135.99C203.71,-145.24 168.14,-159.28 139,-176 124.72,-184.2 109.94,-196.06 100.3,-204.34"/>
<polygon fill="midnightblue" stroke="midnightblue" points="231.11,-139.26 239.41,-132.68 228.81,-132.65 231.11,-139.26"/>
</g>
<!-- Node15&#45;&gt;Node5 -->
<g id="edge20" class="edge">
<title>Node15&#45;&gt;Node5</title>
<path fill="none" stroke="midnightblue" d="M229.33,-174.84C219.09,-178.38 208.16,-182.16 198.56,-185.48"/>
<polygon fill="midnightblue" stroke="midnightblue" points="230.57,-178.12 238.88,-171.54 228.28,-171.5 230.57,-178.12"/>
</g>
<!-- Node17 -->
<g id="node17" class="node">
<title>Node17</title>
<g id="a_node17"><a xlink:href="vi_8h.html#a7ba56272fe1a7d523192729a0bb5edf7" target="_top" xlink:title=" ">
<polygon fill="white" stroke="black" points="242,-280.5 242,-299.5 293,-299.5 293,-280.5 242,-280.5"/>
<text text-anchor="middle" x="267.5" y="-287.5" font-family="Helvetica,sans-Serif" font-size="10.00">ex_read</text>
</a>
</g>
</g>
<!-- Node16&#45;&gt;Node17 -->
<g id="edge22" class="edge">
<title>Node16&#45;&gt;Node17</title>
<path fill="none" stroke="midnightblue" d="M516.49,-212.64C483.61,-223.27 435.28,-238.78 393,-252 358.49,-262.79 318.48,-274.93 293.33,-282.53"/>
<polygon fill="midnightblue" stroke="midnightblue" points="517.74,-215.92 526.18,-209.51 515.59,-209.26 517.74,-215.92"/>
</g>
<!-- Node21 -->
<g id="node21" class="node">
<title>Node21</title>
<g id="a_node21"><a xlink:href="vi_8c.html#a57965473297aad4c4333fdd3897c11f3" target="_top" xlink:title=" ">
<polygon fill="white" stroke="black" points="429,-190.5 429,-209.5 488,-209.5 488,-190.5 429,-190.5"/>
<text text-anchor="middle" x="458.5" y="-197.5" font-family="Helvetica,sans-Serif" font-size="10.00">vi_prompt</text>
</a>
</g>
</g>
<!-- Node16&#45;&gt;Node21 -->
<g id="edge28" class="edge">
<title>Node16&#45;&gt;Node21</title>
<path fill="none" stroke="midnightblue" d="M513.58,-200C505.03,-200 496.22,-200 488.25,-200"/>
<polygon fill="midnightblue" stroke="midnightblue" points="513.8,-203.5 523.8,-200 513.8,-196.5 513.8,-203.5"/>
</g>
<!-- Node18 -->
<g id="node18" class="node">
<title>Node18</title>
<g id="a_node18"><a xlink:href="ex_8c.html#a0908784dc65be2da119a6b72ef96dec2" target="_top" xlink:title=" ">
<polygon fill="white" stroke="black" points="142,-261.5 142,-280.5 198,-280.5 198,-261.5 142,-261.5"/>
<text text-anchor="middle" x="170" y="-268.5" font-family="Helvetica,sans-Serif" font-size="10.00">ec_insert</text>
</a>
</g>
</g>
<!-- Node17&#45;&gt;Node18 -->
<g id="edge23" class="edge">
<title>Node17&#45;&gt;Node18</title>
<path fill="none" stroke="midnightblue" d="M232.05,-283.15C220.92,-280.93 208.74,-278.51 198.2,-276.41"/>
<polygon fill="midnightblue" stroke="midnightblue" points="231.42,-286.59 241.91,-285.11 232.78,-279.72 231.42,-286.59"/>
</g>
<!-- Node19 -->
<g id="node19" class="node">
<title>Node19</title>
<g id="a_node19"><a xlink:href="vi_8h.html#ac395e51f25330a6e6033b6d0d22b2076" target="_top" xlink:title=" ">
<polygon fill="white" stroke="black" points="74,-289.5 74,-308.5 103,-308.5 103,-289.5 74,-289.5"/>
<text text-anchor="middle" x="88.5" y="-296.5" font-family="Helvetica,sans-Serif" font-size="10.00">ex</text>
</a>
</g>
</g>
<!-- Node17&#45;&gt;Node19 -->
<g id="edge24" class="edge">
<title>Node17&#45;&gt;Node19</title>
<path fill="none" stroke="midnightblue" d="M246.15,-305.57C233.82,-314.02 217.34,-323.6 201,-328 174.39,-335.16 165.59,-335.22 139,-328 125.16,-324.24 111.23,-315.54 101.69,-308.64"/>
<polygon fill="midnightblue" stroke="midnightblue" points="248.24,-308.38 254.34,-299.72 244.17,-302.69 248.24,-308.38"/>
</g>
<!-- Node20 -->
<g id="node20" class="node">
<title>Node20</title>
<g id="a_node20"><a xlink:href="vi_8c.html#a9d85e9ed087401367529ab86a5dbf0c5" target="_top" xlink:title=" ">
<polygon fill="white" stroke="black" points="146.5,-299.5 146.5,-318.5 193.5,-318.5 193.5,-299.5 146.5,-299.5"/>
<text text-anchor="middle" x="170" y="-306.5" font-family="Helvetica,sans-Serif" font-size="10.00">vi_wait</text>
</a>
</g>
</g>
<!-- Node17&#45;&gt;Node20 -->
<g id="edge26" class="edge">
<title>Node17&#45;&gt;Node20</title>
<path fill="none" stroke="midnightblue" d="M232.01,-296.86C219.2,-299.41 205.02,-302.23 193.55,-304.51"/>
<polygon fill="midnightblue" stroke="midnightblue" points="232.78,-300.28 241.91,-294.89 231.42,-293.41 232.78,-300.28"/>
</g>
<!-- Node19&#45;&gt;Node7 -->
<g id="edge25" class="edge">
<title>Node19&#45;&gt;Node7</title>
<path fill="none" stroke="midnightblue" d="M70.24,-282.12C57.49,-269.66 40.59,-253.13 30,-242.78"/>
<polygon fill="midnightblue" stroke="midnightblue" points="67.94,-284.77 77.54,-289.26 72.84,-279.77 67.94,-284.77"/>
</g>
<!-- Node20&#45;&gt;Node6 -->
<g id="edge27" class="edge">
<title>Node20&#45;&gt;Node6</title>
<path fill="none" stroke="midnightblue" d="M142.48,-293.15C141.27,-292.14 140.1,-291.08 139,-290 118.38,-269.64 101.83,-239.29 94.15,-223.82"/>
<polygon fill="midnightblue" stroke="midnightblue" points="140.79,-296.25 150.93,-299.32 144.92,-290.6 140.79,-296.25"/>
</g>
<!-- Node21&#45;&gt;Node6 -->
<g id="edge29" class="edge">
<title>Node21&#45;&gt;Node6</title>
<path fill="none" stroke="midnightblue" d="M421.83,-212.48C412.56,-215.18 402.5,-217.63 393,-219 282.16,-234.99 146.21,-220.99 103.21,-215.77"/>
<polygon fill="midnightblue" stroke="midnightblue" points="422.99,-215.79 431.52,-209.5 420.93,-209.1 422.99,-215.79"/>
</g>
<!-- Node22 -->
<g id="node22" class="node">
<title>Node22</title>
<g id="a_node22"><a xlink:href="vi_8c.html#ab8e0c9b9d2ef5161c6a3a8828606df5f" target="_top" xlink:title=" ">
<polygon fill="white" stroke="black" points="340,-190.5 340,-209.5 387,-209.5 387,-190.5 340,-190.5"/>
<text text-anchor="middle" x="363.5" y="-197.5" font-family="Helvetica,sans-Serif" font-size="10.00">vi_pipe</text>
</a>
</g>
</g>
<!-- Node21&#45;&gt;Node22 -->
<g id="edge30" class="edge">
<title>Node21&#45;&gt;Node22</title>
<path fill="none" stroke="midnightblue" d="M418.73,-200C407.93,-200 396.55,-200 387.02,-200"/>
<polygon fill="midnightblue" stroke="midnightblue" points="418.84,-203.5 428.84,-200 418.84,-196.5 418.84,-203.5"/>
</g>
<!-- Node23 -->
<g id="node23" class="node">
<title>Node23</title>
<g id="a_node23"><a xlink:href="vi_8c.html#a93701c59617d4f96cbaa207e89178f87" target="_top" xlink:title=" ">
<polygon fill="white" stroke="black" points="334,-114.5 334,-133.5 393,-133.5 393,-114.5 334,-114.5"/>
<text text-anchor="middle" x="363.5" y="-121.5" font-family="Helvetica,sans-Serif" font-size="10.00">vi_search</text>
</a>
</g>
</g>
<!-- Node21&#45;&gt;Node23 -->
<g id="edge32" class="edge">
<title>Node21&#45;&gt;Node23</title>
<path fill="none" stroke="midnightblue" d="M439.84,-183.22C427.18,-171.49 409.52,-155.71 393,-143 388.85,-139.81 384.19,-136.57 379.85,-133.68"/>
<polygon fill="midnightblue" stroke="midnightblue" points="437.68,-185.99 447.37,-190.27 442.46,-180.88 437.68,-185.99"/>
</g>
<!-- Node22&#45;&gt;Node5 -->
<g id="edge31" class="edge">
<title>Node22&#45;&gt;Node5</title>
<path fill="none" stroke="midnightblue" d="M329.78,-199.15C293.74,-198.2 236.26,-196.7 201.24,-195.79"/>
<polygon fill="midnightblue" stroke="midnightblue" points="329.69,-202.64 339.78,-199.41 329.88,-195.65 329.69,-202.64"/>
</g>
<!-- Node23&#45;&gt;Node4 -->
<g id="edge33" class="edge">
<title>Node23&#45;&gt;Node4</title>
<path fill="none" stroke="midnightblue" d="M329.32,-110.59C317.08,-105.64 303.46,-100.13 292.21,-95.59"/>
<polygon fill="midnightblue" stroke="midnightblue" points="328.2,-113.91 338.78,-114.41 330.82,-107.42 328.2,-113.91"/>
</g>
<!-- Node24&#45;&gt;Node4 -->
<g id="edge35" class="edge">
<title>Node24&#45;&gt;Node4</title>
<path fill="none" stroke="midnightblue" d="M514.31,-7.77C468.54,-6.78 393.26,-9.68 334,-34 310.63,-43.59 288.77,-64.17 277.16,-76.36"/>
<polygon fill="midnightblue" stroke="midnightblue" points="514.36,-11.27 524.45,-8.06 514.56,-4.27 514.36,-11.27"/>
</g>
</g>
</svg>
        <g id="navigator" transform="translate(0 0)" fill="#404254">
                <rect fill="#f2f5e9" fill-opacity="0.5" stroke="#606060" stroke-width=".5" x="0" y="0" width="60" height="60"/>
                <use id="zoomplus" xlink:href="#zoomPlus" x="17" y="9" onmousedown="handleZoom(evt,'in')"/>
                <use id="zoomminus" xlink:href="#zoomMin" x="42" y="9" onmousedown="handleZoom(evt,'out')"/>
                <use id="reset" xlink:href="#resetDef" x="30" y="36" onmousedown="handleReset()"/>
                <g id="arrowUp" xlink:href="#dirArrow" transform="translate(30 24)" onmousedown="handlePan(0,-1)">
                  <use xlink:href="#rim" fill="#404040">
                        <set attributeName="fill" to="#808080" begin="arrowUp.mouseover" end="arrowUp.mouseout"/>
                  </use>
                  <path fill="none" stroke="white" stroke-width="1.5" d="M0,-3.0v7 M-2.5,-0.5L0,-3.0L2.5,-0.5"/>
                </g>
                <g id="arrowRight" xlink:href="#dirArrow" transform="rotate(90) translate(36 -43)" onmousedown="handlePan(1,0)">
                  <use xlink:href="#rim" fill="#404040">
                        <set attributeName="fill" to="#808080" begin="arrowRight.mouseover" end="arrowRight.mouseout"/>
                  </use>
                  <path fill="none" stroke="white" stroke-width="1.5" d="M0,-3.0v7 M-2.5,-0.5L0,-3.0L2.5,-0.5"/>
                </g>
                <g id="arrowDown" xlink:href="#dirArrow" transform="rotate(180) translate(-30 -48)" onmousedown="handlePan(0,1)">
                  <use xlink:href="#rim" fill="#404040">
                        <set attributeName="fill" to="#808080" begin="arrowDown.mouseover" end="arrowDown.mouseout"/>
                  </use>
                  <path fill="none" stroke="white" stroke-width="1.5" d="M0,-3.0v7 M-2.5,-0.5L0,-3.0L2.5,-0.5"/>
                </g>
                <g id="arrowLeft" xlink:href="#dirArrow" transform="rotate(270) translate(-36 17)" onmousedown="handlePan(-1,0)">
                  <use xlink:href="#rim" fill="#404040">
                        <set attributeName="fill" to="#808080" begin="arrowLeft.mouseover" end="arrowLeft.mouseout"/>
                  </use>
                  <path fill="none" stroke="white" stroke-width="1.5" d="M0,-3.0v7 M-2.5,-0.5L0,-3.0L2.5,-0.5"/>
                </g>
        </g>
        <svg viewBox="0 0 15 15" width="100%" height="30px" preserveAspectRatio="xMaxYMin meet">
         <g id="arrow_out" transform="scale(0.3 0.3)">
          <a xlink:href="vi_8h_a111a8afd24172cae38d54d759a5dede5_icgraph_org.svg" target="_base">
           <rect id="button" ry="5" rx="5" y="6" x="6" height="38" width="38"
                fill="#f2f5e9" fill-opacity="0.5" stroke="#606060" stroke-width="1.0"/>
           <path id="arrow"
             d="M 11.500037,31.436501 C 11.940474,20.09759 22.043105,11.32322 32.158766,21.979434 L 37.068811,17.246167 C 37.068811,17.246167 37.088388,32 37.088388,32 L 22.160133,31.978069 C 22.160133,31.978069 26.997745,27.140456 26.997745,27.140456 C 18.528582,18.264221 13.291696,25.230495 11.500037,31.436501 z"
             style="fill:#404040;"/>
          </a>
         </g>
        </svg>
</svg>
