<?xml version="1.0" encoding="UTF-8" standalone="no"?>
<!DOCTYPE svg PUBLIC "-//W3C//DTD SVG 1.1//EN"
 "http://www.w3.org/Graphics/SVG/1.1/DTD/svg11.dtd">
<!-- Generated by graphviz version 2.44.1 (20200629.0846)
 -->
<!-- Title: ex_kwdset Pages: 1 -->
<!--zoomable 588 -->
<svg id="main" version="1.1" xmlns="http://www.w3.org/2000/svg" xmlns:xlink="http://www.w3.org/1999/xlink" xml:space="preserve" onload="init(evt)">
<style type="text/css"><![CDATA[
.edge:hover path { stroke: red; }
.edge:hover polygon { stroke: red; fill: red; }
]]></style>
<script type="text/javascript"><![CDATA[
var edges = document.getElementsByTagName('g');
if (edges && edges.length) {
  for (var i=0;i<edges.length;i++) {
    if (edges[i].id.substr(0,4)=='edge') {
      edges[i].setAttribute('class','edge');
    }
  }
}
]]></script>
        <defs>
                <circle id="rim" cx="0" cy="0" r="7"/>
                <circle id="rim2" cx="0" cy="0" r="3.5"/>
                <g id="zoomPlus">
                        <use xlink:href="#rim" fill="#404040">
                                <set attributeName="fill" to="#808080" begin="zoomplus.mouseover" end="zoomplus.mouseout"/>
                        </use>
                        <path d="M-4,0h8M0,-4v8" fill="none" stroke="white" stroke-width="1.5" pointer-events="none"/>
                </g>
                <g id="zoomMin">
                        <use xlink:href="#rim" fill="#404040">
                                <set attributeName="fill" to="#808080" begin="zoomminus.mouseover" end="zoomminus.mouseout"/>
                        </use>
                        <path d="M-4,0h8" fill="none" stroke="white" stroke-width="1.5" pointer-events="none"/>
                </g>
                <g id="dirArrow">
                        <path fill="none" stroke="white" stroke-width="1.5" d="M0,-3.0v7 M-2.5,-0.5L0,-3.0L2.5,-0.5"/>
                </g>
               <g id="resetDef">
                       <use xlink:href="#rim2" fill="#404040">
                               <set attributeName="fill" to="#808080" begin="reset.mouseover" end="reset.mouseout"/>
                       </use>
               </g>
        </defs>

<script type="text/javascript">
var viewWidth = 1146;
var viewHeight = 588;
var sectionId = 'dynsection-184';
</script>
<script xlink:href="svgpan.js"/>
<svg id="graph" class="graph">
<g id="viewport">
<title>ex_kwdset</title>
<polygon fill="white" stroke="transparent" points="-4,4 -4,-584 1142,-584 1142,4 -4,4"/>
<!-- Node1 -->
<g id="node1" class="node">
<title>Node1</title>
<g id="a_node1"><a xlink:title=" ">
<polygon fill="#bfbfbf" stroke="black" points="1074,-114.5 1074,-133.5 1138,-133.5 1138,-114.5 1074,-114.5"/>
<text text-anchor="middle" x="1106" y="-121.5" font-family="Helvetica,sans-Serif" font-size="10.00">ex_kwdset</text>
</a>
</g>
</g>
<!-- Node2 -->
<g id="node2" class="node">
<title>Node2</title>
<g id="a_node2"><a xlink:href="ex_8c.html#a70c571bdde329a65e216c19b4aeaa628" target="_top" xlink:title=" ">
<polygon fill="white" stroke="black" points="567,-532.5 567,-551.5 617,-551.5 617,-532.5 567,-532.5"/>
<text text-anchor="middle" x="592" y="-539.5" font-family="Helvetica,sans-Serif" font-size="10.00">ec_glob</text>
</a>
</g>
</g>
<!-- Node1&#45;&gt;Node2 -->
<g id="edge1" class="edge">
<title>Node1&#45;&gt;Node2</title>
<path fill="none" stroke="midnightblue" d="M1101.24,-143.39C1083.85,-230.33 1007.89,-580 911.5,-580 911.5,-580 911.5,-580 814.5,-580 741.73,-580 657.43,-559.83 617.02,-548.88"/>
<polygon fill="midnightblue" stroke="midnightblue" points="1104.69,-144.01 1103.19,-133.52 1097.82,-142.66 1104.69,-144.01"/>
</g>
<!-- Node10 -->
<g id="node10" class="node">
<title>Node10</title>
<g id="a_node10"><a xlink:href="ex_8c.html#aaf4e813ce4370aa859181d22de51576b" target="_top" xlink:title=" ">
<polygon fill="white" stroke="black" points="675,-76.5 675,-95.5 750,-95.5 750,-76.5 675,-76.5"/>
<text text-anchor="middle" x="712.5" y="-83.5" font-family="Helvetica,sans-Serif" font-size="10.00">ec_substitute</text>
</a>
</g>
</g>
<!-- Node1&#45;&gt;Node10 -->
<g id="edge12" class="edge">
<title>Node1&#45;&gt;Node10</title>
<path fill="none" stroke="midnightblue" d="M1063.57,-120.84C1018.59,-117.32 944.64,-111.31 881,-105 835.86,-100.53 783.98,-94.5 750.06,-90.45"/>
<polygon fill="midnightblue" stroke="midnightblue" points="1063.57,-124.35 1073.81,-121.64 1064.11,-117.37 1063.57,-124.35"/>
</g>
<!-- Node11 -->
<g id="node11" class="node">
<title>Node11</title>
<g id="a_node11"><a xlink:href="ex_8c.html#af441de070082a23574854f6a2e5cd08a" target="_top" xlink:title=" ">
<polygon fill="white" stroke="black" points="976,-181.5 976,-200.5 1038,-200.5 1038,-181.5 976,-181.5"/>
<text text-anchor="middle" x="1007" y="-188.5" font-family="Helvetica,sans-Serif" font-size="10.00">ex_search</text>
</a>
</g>
</g>
<!-- Node1&#45;&gt;Node11 -->
<g id="edge13" class="edge">
<title>Node1&#45;&gt;Node11</title>
<path fill="none" stroke="midnightblue" d="M1082.83,-139.31C1064.07,-152.27 1037.78,-170.43 1021.87,-181.42"/>
<polygon fill="midnightblue" stroke="midnightblue" points="1084.86,-142.16 1091.1,-133.6 1080.89,-136.4 1084.86,-142.16"/>
</g>
<!-- Node29 -->
<g id="node29" class="node">
<title>Node29</title>
<g id="a_node29"><a xlink:href="vi_8c.html#a631f59a25254f28f308f7de4897e09fa" target="_top" xlink:title=" ">
<polygon fill="white" stroke="black" points="984,-76.5 984,-95.5 1030,-95.5 1030,-76.5 984,-76.5"/>
<text text-anchor="middle" x="1007" y="-83.5" font-family="Helvetica,sans-Serif" font-size="10.00">search</text>
</a>
</g>
</g>
<!-- Node1&#45;&gt;Node29 -->
<g id="edge38" class="edge">
<title>Node1&#45;&gt;Node29</title>
<path fill="none" stroke="midnightblue" d="M1071.01,-110.69C1057.46,-105.38 1042.23,-99.41 1030.15,-94.68"/>
<polygon fill="midnightblue" stroke="midnightblue" points="1069.94,-114.02 1080.52,-114.41 1072.49,-107.5 1069.94,-114.02"/>
</g>
<!-- Node31 -->
<g id="node31" class="node">
<title>Node31</title>
<g id="a_node31"><a xlink:href="vi_8c.html#aaa4777ea0715ea846346d0f27a0cfa3f" target="_top" xlink:title=" ">
<polygon fill="white" stroke="black" points="786,-38.5 786,-57.5 845,-57.5 845,-38.5 786,-38.5"/>
<text text-anchor="middle" x="815.5" y="-45.5" font-family="Helvetica,sans-Serif" font-size="10.00">vi_motion</text>
</a>
</g>
</g>
<!-- Node1&#45;&gt;Node31 -->
<g id="edge44" class="edge">
<title>Node1&#45;&gt;Node31</title>
<path fill="none" stroke="midnightblue" d="M1090.28,-106.61C1077.84,-93.25 1058.78,-75.67 1038,-67 973.17,-39.95 888.57,-41.76 845.07,-45.07"/>
<polygon fill="midnightblue" stroke="midnightblue" points="1087.84,-109.14 1097.12,-114.26 1093.06,-104.48 1087.84,-109.14"/>
</g>
<!-- Node3 -->
<g id="node3" class="node">
<title>Node3</title>
<g id="a_node3"><a xlink:href="ex_8c.html#a7d848d20211b2e1c868dde98ec5dfae9" target="_top" xlink:title=" ">
<polygon fill="white" stroke="black" points="362.5,-475.5 362.5,-494.5 409.5,-494.5 409.5,-475.5 362.5,-475.5"/>
<text text-anchor="middle" x="386" y="-482.5" font-family="Helvetica,sans-Serif" font-size="10.00">ex_line</text>
</a>
</g>
</g>
<!-- Node2&#45;&gt;Node3 -->
<g id="edge2" class="edge">
<title>Node2&#45;&gt;Node3</title>
<path fill="none" stroke="midnightblue" d="M557.06,-532.52C515.25,-520.84 445.38,-501.31 409.61,-491.32"/>
<polygon fill="midnightblue" stroke="midnightblue" points="556.22,-535.92 566.8,-535.24 558.11,-529.18 556.22,-535.92"/>
</g>
<!-- Node4 -->
<g id="node4" class="node">
<title>Node4</title>
<g id="a_node4"><a xlink:href="ex_8c.html#ab15ebfef933256d9741128e2ddf3f9b5" target="_top" xlink:title=" ">
<polygon fill="white" stroke="black" points="266,-475.5 266,-494.5 319,-494.5 319,-475.5 266,-475.5"/>
<text text-anchor="middle" x="292.5" y="-482.5" font-family="Helvetica,sans-Serif" font-size="10.00">ex_exec</text>
</a>
</g>
</g>
<!-- Node3&#45;&gt;Node4 -->
<g id="edge3" class="edge">
<title>Node3&#45;&gt;Node4</title>
<path fill="none" stroke="midnightblue" d="M352.33,-485C341.41,-485 329.39,-485 319.09,-485"/>
<polygon fill="midnightblue" stroke="midnightblue" points="352.38,-488.5 362.38,-485 352.38,-481.5 352.38,-488.5"/>
</g>
<!-- Node4&#45;&gt;Node2 -->
<g id="edge4" class="edge">
<title>Node4&#45;&gt;Node2</title>
<path fill="none" stroke="midnightblue" d="M328.77,-496.48C337.32,-499.1 346.45,-501.77 355,-504 398.1,-515.25 409.07,-517.6 453,-525 492.75,-531.69 539.37,-536.89 566.97,-539.69"/>
<polygon fill="midnightblue" stroke="midnightblue" points="329.68,-493.1 319.09,-493.46 327.59,-499.78 329.68,-493.1"/>
</g>
<!-- Node5 -->
<g id="node5" class="node">
<title>Node5</title>
<g id="a_node5"><a xlink:href="vi_8h.html#aa75c73cccb4878ec06ea5bf5b1b02295" target="_top" xlink:title=" ">
<polygon fill="white" stroke="black" points="155,-150.5 155,-169.5 230,-169.5 230,-150.5 155,-150.5"/>
<text text-anchor="middle" x="192.5" y="-157.5" font-family="Helvetica,sans-Serif" font-size="10.00">ex_command</text>
</a>
</g>
</g>
<!-- Node4&#45;&gt;Node5 -->
<g id="edge5" class="edge">
<title>Node4&#45;&gt;Node5</title>
<path fill="none" stroke="midnightblue" d="M285.66,-465.64C267.12,-404.16 210.01,-214.74 196.42,-169.69"/>
<polygon fill="midnightblue" stroke="midnightblue" points="282.33,-466.71 288.57,-475.27 289.03,-464.69 282.33,-466.71"/>
</g>
<!-- Node6 -->
<g id="node6" class="node">
<title>Node6</title>
<g id="a_node6"><a xlink:href="vi_8h.html#ac395e51f25330a6e6033b6d0d22b2076" target="_top" xlink:title=" ">
<polygon fill="white" stroke="black" points="82,-150.5 82,-169.5 111,-169.5 111,-150.5 82,-150.5"/>
<text text-anchor="middle" x="96.5" y="-157.5" font-family="Helvetica,sans-Serif" font-size="10.00">ex</text>
</a>
</g>
</g>
<!-- Node5&#45;&gt;Node6 -->
<g id="edge6" class="edge">
<title>Node5&#45;&gt;Node6</title>
<path fill="none" stroke="midnightblue" d="M144.73,-160C132.54,-160 120.33,-160 111.38,-160"/>
<polygon fill="midnightblue" stroke="midnightblue" points="144.89,-163.5 154.89,-160 144.89,-156.5 144.89,-163.5"/>
</g>
<!-- Node8 -->
<g id="node8" class="node">
<title>Node8</title>
<g id="a_node8"><a xlink:href="vi_8h.html#abe53b5c10f94f20cd5ed024371615fa1" target="_top" xlink:title=" ">
<polygon fill="white" stroke="black" points="74,-112.5 74,-131.5 119,-131.5 119,-112.5 74,-112.5"/>
<text text-anchor="middle" x="96.5" y="-119.5" font-family="Helvetica,sans-Serif" font-size="10.00">ex_init</text>
</a>
</g>
</g>
<!-- Node5&#45;&gt;Node8 -->
<g id="edge8" class="edge">
<title>Node5&#45;&gt;Node8</title>
<path fill="none" stroke="midnightblue" d="M158.25,-146.56C145.31,-141.33 130.85,-135.48 119.28,-130.8"/>
<polygon fill="midnightblue" stroke="midnightblue" points="157.2,-149.91 167.78,-150.41 159.82,-143.42 157.2,-149.91"/>
</g>
<!-- Node9 -->
<g id="node9" class="node">
<title>Node9</title>
<g id="a_node9"><a xlink:href="vi_8c.html#a8d808e0f3453afe6600673ee1ea5f828" target="_top" xlink:title=" ">
<polygon fill="white" stroke="black" points="82,-50.5 82,-69.5 111,-69.5 111,-50.5 82,-50.5"/>
<text text-anchor="middle" x="96.5" y="-57.5" font-family="Helvetica,sans-Serif" font-size="10.00">vi</text>
</a>
</g>
</g>
<!-- Node5&#45;&gt;Node9 -->
<g id="edge10" class="edge">
<title>Node5&#45;&gt;Node9</title>
<path fill="none" stroke="midnightblue" d="M175.61,-143.1C155.8,-122.02 122.6,-86.7 106.62,-69.71"/>
<polygon fill="midnightblue" stroke="midnightblue" points="173.09,-145.52 182.49,-150.41 178.19,-140.73 173.09,-145.52"/>
</g>
<!-- Node7 -->
<g id="node7" class="node">
<title>Node7</title>
<g id="a_node7"><a xlink:href="vi_8c.html#a0ddf1224851353fc92bfbff6f499fa97" target="_top" xlink:title=" ">
<polygon fill="white" stroke="black" points="0,-112.5 0,-131.5 38,-131.5 38,-112.5 0,-112.5"/>
<text text-anchor="middle" x="19" y="-119.5" font-family="Helvetica,sans-Serif" font-size="10.00">main</text>
</a>
</g>
</g>
<!-- Node6&#45;&gt;Node7 -->
<g id="edge7" class="edge">
<title>Node6&#45;&gt;Node7</title>
<path fill="none" stroke="midnightblue" d="M72.56,-148.45C61.48,-142.88 48.39,-136.29 38.04,-131.08"/>
<polygon fill="midnightblue" stroke="midnightblue" points="71.15,-151.66 81.65,-153.03 74.29,-145.41 71.15,-151.66"/>
</g>
<!-- Node8&#45;&gt;Node7 -->
<g id="edge9" class="edge">
<title>Node8&#45;&gt;Node7</title>
<path fill="none" stroke="midnightblue" d="M63.55,-122C54.99,-122 46.03,-122 38.47,-122"/>
<polygon fill="midnightblue" stroke="midnightblue" points="63.66,-125.5 73.66,-122 63.66,-118.5 63.66,-125.5"/>
</g>
<!-- Node9&#45;&gt;Node7 -->
<g id="edge11" class="edge">
<title>Node9&#45;&gt;Node7</title>
<path fill="none" stroke="midnightblue" d="M75.7,-76.26C61.81,-87.67 43.7,-102.54 31.96,-112.18"/>
<polygon fill="midnightblue" stroke="midnightblue" points="78.2,-78.74 83.7,-69.69 73.75,-73.33 78.2,-78.74"/>
</g>
<!-- Node12 -->
<g id="node12" class="node">
<title>Node12</title>
<g id="a_node12"><a xlink:href="ex_8c.html#a18295939fcd9d9ef517157b0f4ff5f97" target="_top" xlink:title=" ">
<polygon fill="white" stroke="black" points="881.5,-257.5 881.5,-276.5 939.5,-276.5 939.5,-257.5 881.5,-257.5"/>
<text text-anchor="middle" x="910.5" y="-264.5" font-family="Helvetica,sans-Serif" font-size="10.00">ex_lineno</text>
</a>
</g>
</g>
<!-- Node11&#45;&gt;Node12 -->
<g id="edge14" class="edge">
<title>Node11&#45;&gt;Node12</title>
<path fill="none" stroke="midnightblue" d="M986.01,-207.08C967.01,-222.35 939.08,-244.82 923.37,-257.45"/>
<polygon fill="midnightblue" stroke="midnightblue" points="988.43,-209.62 994.03,-200.63 984.05,-204.17 988.43,-209.62"/>
</g>
<!-- Node13 -->
<g id="node13" class="node">
<title>Node13</title>
<g id="a_node13"><a xlink:href="ex_8c.html#a0389d594366ccbd24d732bdfd870f763" target="_top" xlink:title=" ">
<polygon fill="white" stroke="black" points="786,-285.5 786,-304.5 845,-304.5 845,-285.5 786,-285.5"/>
<text text-anchor="middle" x="815.5" y="-292.5" font-family="Helvetica,sans-Serif" font-size="10.00">ex_region</text>
</a>
</g>
</g>
<!-- Node12&#45;&gt;Node13 -->
<g id="edge15" class="edge">
<title>Node12&#45;&gt;Node13</title>
<path fill="none" stroke="midnightblue" d="M871.63,-278.4C862.81,-281.06 853.56,-283.84 845.2,-286.36"/>
<polygon fill="midnightblue" stroke="midnightblue" points="872.78,-281.71 881.34,-275.48 870.76,-275.01 872.78,-281.71"/>
</g>
<!-- Node13&#45;&gt;Node2 -->
<g id="edge19" class="edge">
<title>Node13&#45;&gt;Node2</title>
<path fill="none" stroke="midnightblue" d="M815.29,-314.96C815.85,-359.03 810.46,-464.92 750,-518 713.01,-550.47 651.27,-549.33 617.28,-545.66"/>
<polygon fill="midnightblue" stroke="midnightblue" points="818.79,-314.84 815.04,-304.93 811.79,-315.02 818.79,-314.84"/>
</g>
<!-- Node13&#45;&gt;Node10 -->
<g id="edge28" class="edge">
<title>Node13&#45;&gt;Node10</title>
<path fill="none" stroke="midnightblue" d="M812.66,-275.43C808.21,-238.13 793.78,-156.04 750,-105 746.74,-101.2 742.54,-98.06 738.15,-95.5"/>
<polygon fill="midnightblue" stroke="midnightblue" points="809.19,-275.92 813.74,-285.49 816.15,-275.17 809.19,-275.92"/>
</g>
<!-- Node14 -->
<g id="node14" class="node">
<title>Node14</title>
<g id="a_node14"><a xlink:href="ex_8c.html#a4cd0748447515b7a935e4bb41424a9e4" target="_top" xlink:title=" ">
<polygon fill="white" stroke="black" points="683,-266.5 683,-285.5 742,-285.5 742,-266.5 683,-266.5"/>
<text text-anchor="middle" x="712.5" y="-273.5" font-family="Helvetica,sans-Serif" font-size="10.00">ec_delete</text>
</a>
</g>
</g>
<!-- Node13&#45;&gt;Node14 -->
<g id="edge16" class="edge">
<title>Node13&#45;&gt;Node14</title>
<path fill="none" stroke="midnightblue" d="M775.87,-287.73C764.69,-285.63 752.7,-283.37 742.24,-281.41"/>
<polygon fill="midnightblue" stroke="midnightblue" points="775.35,-291.2 785.83,-289.61 776.65,-284.32 775.35,-291.2"/>
</g>
<!-- Node15 -->
<g id="node15" class="node">
<title>Node15</title>
<g id="a_node15"><a xlink:href="ex_8c.html#adcd83f163f659bd2596bcfc25d74bde9" target="_top" xlink:title=" ">
<polygon fill="white" stroke="black" points="454.5,-456.5 454.5,-475.5 507.5,-475.5 507.5,-456.5 454.5,-456.5"/>
<text text-anchor="middle" x="481" y="-463.5" font-family="Helvetica,sans-Serif" font-size="10.00">ec_exec</text>
</a>
</g>
</g>
<!-- Node13&#45;&gt;Node15 -->
<g id="edge17" class="edge">
<title>Node13&#45;&gt;Node15</title>
<path fill="none" stroke="midnightblue" d="M814.68,-314.8C813.83,-354.89 805.53,-445.21 750,-485 673.41,-539.88 550.83,-496.32 502.52,-475.51"/>
<polygon fill="midnightblue" stroke="midnightblue" points="818.18,-314.73 814.75,-304.7 811.18,-314.68 818.18,-314.73"/>
</g>
<!-- Node16 -->
<g id="node16" class="node">
<title>Node16</title>
<g id="a_node16"><a xlink:href="ex_8c.html#a0908784dc65be2da119a6b72ef96dec2" target="_top" xlink:title=" ">
<polygon fill="white" stroke="black" points="684.5,-228.5 684.5,-247.5 740.5,-247.5 740.5,-228.5 684.5,-228.5"/>
<text text-anchor="middle" x="712.5" y="-235.5" font-family="Helvetica,sans-Serif" font-size="10.00">ec_insert</text>
</a>
</g>
</g>
<!-- Node13&#45;&gt;Node16 -->
<g id="edge20" class="edge">
<title>Node13&#45;&gt;Node16</title>
<path fill="none" stroke="midnightblue" d="M790.15,-280.25C778.15,-273.08 763.41,-264.43 750,-257 744.38,-253.88 738.2,-250.61 732.54,-247.67"/>
<polygon fill="midnightblue" stroke="midnightblue" points="788.35,-283.25 798.73,-285.4 791.96,-277.25 788.35,-283.25"/>
</g>
<!-- Node17 -->
<g id="node17" class="node">
<title>Node17</title>
<g id="a_node17"><a xlink:href="ex_8c.html#a1d45a70b724f4cccae2ab746c711ebb1" target="_top" xlink:title=" ">
<polygon fill="white" stroke="black" points="686,-190.5 686,-209.5 739,-209.5 739,-190.5 686,-190.5"/>
<text text-anchor="middle" x="712.5" y="-197.5" font-family="Helvetica,sans-Serif" font-size="10.00">ec_lnum</text>
</a>
</g>
</g>
<!-- Node13&#45;&gt;Node17 -->
<g id="edge21" class="edge">
<title>Node13&#45;&gt;Node17</title>
<path fill="none" stroke="midnightblue" d="M802.15,-276.74C790.25,-260.14 771,-235.76 750,-219 745.53,-215.44 740.29,-212.24 735.2,-209.54"/>
<polygon fill="midnightblue" stroke="midnightblue" points="799.37,-278.87 807.97,-285.06 805.11,-274.86 799.37,-278.87"/>
</g>
<!-- Node18 -->
<g id="node18" class="node">
<title>Node18</title>
<g id="a_node18"><a xlink:href="ex_8c.html#ab95c9f0f009989c44f3ebb5abae4054d" target="_top" xlink:title=" ">
<polygon fill="white" stroke="black" points="685.5,-152.5 685.5,-171.5 739.5,-171.5 739.5,-152.5 685.5,-152.5"/>
<text text-anchor="middle" x="712.5" y="-159.5" font-family="Helvetica,sans-Serif" font-size="10.00">ec_mark</text>
</a>
</g>
</g>
<!-- Node13&#45;&gt;Node18 -->
<g id="edge22" class="edge">
<title>Node13&#45;&gt;Node18</title>
<path fill="none" stroke="midnightblue" d="M807.54,-275.59C797.88,-250.95 778.36,-208.38 750,-181 746.2,-177.33 741.54,-174.19 736.85,-171.59"/>
<polygon fill="midnightblue" stroke="midnightblue" points="804.37,-277.11 811.17,-285.24 810.92,-274.65 804.37,-277.11"/>
</g>
<!-- Node19 -->
<g id="node19" class="node">
<title>Node19</title>
<g id="a_node19"><a xlink:href="ex_8c.html#affb8197a8f988443aadf1bf2800a0d0b" target="_top" xlink:title=" ">
<polygon fill="white" stroke="black" points="568.5,-323.5 568.5,-342.5 615.5,-342.5 615.5,-323.5 568.5,-323.5"/>
<text text-anchor="middle" x="592" y="-330.5" font-family="Helvetica,sans-Serif" font-size="10.00">ec_null</text>
</a>
</g>
</g>
<!-- Node13&#45;&gt;Node19 -->
<g id="edge23" class="edge">
<title>Node13&#45;&gt;Node19</title>
<path fill="none" stroke="midnightblue" d="M776.03,-301.6C729.73,-309.54 653.49,-322.62 615.69,-329.11"/>
<polygon fill="midnightblue" stroke="midnightblue" points="776.73,-305.03 786,-299.89 775.55,-298.13 776.73,-305.03"/>
</g>
<!-- Node20 -->
<g id="node20" class="node">
<title>Node20</title>
<g id="a_node20"><a xlink:href="ex_8c.html#ad2c1a9505aa3097bac242b47a367f11d" target="_top" xlink:title=" ">
<polygon fill="white" stroke="black" points="687,-342.5 687,-361.5 738,-361.5 738,-342.5 687,-342.5"/>
<text text-anchor="middle" x="712.5" y="-349.5" font-family="Helvetica,sans-Serif" font-size="10.00">ec_print</text>
</a>
</g>
</g>
<!-- Node13&#45;&gt;Node20 -->
<g id="edge24" class="edge">
<title>Node13&#45;&gt;Node20</title>
<path fill="none" stroke="midnightblue" d="M788.64,-309.59C770.32,-319.93 746.28,-333.5 730.38,-342.47"/>
<polygon fill="midnightblue" stroke="midnightblue" points="790.38,-312.63 797.37,-304.67 786.94,-306.54 790.38,-312.63"/>
</g>
<!-- Node21 -->
<g id="node21" class="node">
<title>Node21</title>
<g id="a_node21"><a xlink:href="ex_8c.html#ab417867ff867aff9f7277229990cd1b8" target="_top" xlink:title=" ">
<polygon fill="white" stroke="black" points="689.5,-456.5 689.5,-475.5 735.5,-475.5 735.5,-456.5 689.5,-456.5"/>
<text text-anchor="middle" x="712.5" y="-463.5" font-family="Helvetica,sans-Serif" font-size="10.00">ec_put</text>
</a>
</g>
</g>
<!-- Node13&#45;&gt;Node21 -->
<g id="edge26" class="edge">
<title>Node13&#45;&gt;Node21</title>
<path fill="none" stroke="midnightblue" d="M810.6,-314.93C803.53,-346.45 785.87,-408.19 750,-447 746.02,-451.3 740.85,-454.8 735.65,-457.56"/>
<polygon fill="midnightblue" stroke="midnightblue" points="814.1,-315.29 812.74,-304.78 807.25,-313.85 814.1,-315.29"/>
</g>
<!-- Node22 -->
<g id="node22" class="node">
<title>Node22</title>
<g id="a_node22"><a xlink:href="ex_8c.html#add0e79e1f1e3d45f4eaa6fbe5c1ca443" target="_top" xlink:title=" ">
<polygon fill="white" stroke="black" points="687,-418.5 687,-437.5 738,-437.5 738,-418.5 687,-418.5"/>
<text text-anchor="middle" x="712.5" y="-425.5" font-family="Helvetica,sans-Serif" font-size="10.00">ec_read</text>
</a>
</g>
</g>
<!-- Node13&#45;&gt;Node22 -->
<g id="edge27" class="edge">
<title>Node13&#45;&gt;Node22</title>
<path fill="none" stroke="midnightblue" d="M807.54,-314.41C797.88,-339.05 778.36,-381.62 750,-409 746.2,-412.67 741.54,-415.81 736.85,-418.41"/>
<polygon fill="midnightblue" stroke="midnightblue" points="810.92,-315.35 811.17,-304.76 804.37,-312.89 810.92,-315.35"/>
</g>
<!-- Node23 -->
<g id="node23" class="node">
<title>Node23</title>
<g id="a_node23"><a xlink:href="ex_8c.html#a057b67e2d4f23df3ad50a9d3ec86125b" target="_top" xlink:title=" ">
<polygon fill="white" stroke="black" points="686,-114.5 686,-133.5 739,-133.5 739,-114.5 686,-114.5"/>
<text text-anchor="middle" x="712.5" y="-121.5" font-family="Helvetica,sans-Serif" font-size="10.00">ec_write</text>
</a>
</g>
</g>
<!-- Node13&#45;&gt;Node23 -->
<g id="edge29" class="edge">
<title>Node13&#45;&gt;Node23</title>
<path fill="none" stroke="midnightblue" d="M810.6,-275.07C803.53,-243.55 785.87,-181.81 750,-143 746.61,-139.33 742.34,-136.24 737.93,-133.7"/>
<polygon fill="midnightblue" stroke="midnightblue" points="807.25,-276.15 812.74,-285.22 814.1,-274.71 807.25,-276.15"/>
</g>
<!-- Node28 -->
<g id="node28" class="node">
<title>Node28</title>
<g id="a_node28"><a xlink:href="ex_8c.html#a487b22f0ae712d3338f5e9d8d6fa8540" target="_top" xlink:title=" ">
<polygon fill="white" stroke="black" points="686,-380.5 686,-399.5 739,-399.5 739,-380.5 686,-380.5"/>
<text text-anchor="middle" x="712.5" y="-387.5" font-family="Helvetica,sans-Serif" font-size="10.00">ec_yank</text>
</a>
</g>
</g>
<!-- Node13&#45;&gt;Node28 -->
<g id="edge37" class="edge">
<title>Node13&#45;&gt;Node28</title>
<path fill="none" stroke="midnightblue" d="M802.15,-313.26C790.25,-329.86 771,-354.24 750,-371 745.53,-374.56 740.29,-377.76 735.2,-380.46"/>
<polygon fill="midnightblue" stroke="midnightblue" points="805.11,-315.14 807.97,-304.94 799.37,-311.13 805.11,-315.14"/>
</g>
<!-- Node15&#45;&gt;Node3 -->
<g id="edge18" class="edge">
<title>Node15&#45;&gt;Node3</title>
<path fill="none" stroke="midnightblue" d="M444.2,-473.31C432.57,-475.69 419.99,-478.26 409.61,-480.38"/>
<polygon fill="midnightblue" stroke="midnightblue" points="445,-476.72 454.09,-471.29 443.6,-469.87 445,-476.72"/>
</g>
<!-- Node20&#45;&gt;Node19 -->
<g id="edge25" class="edge">
<title>Node20&#45;&gt;Node19</title>
<path fill="none" stroke="midnightblue" d="M677.05,-346.48C657.23,-343.3 632.89,-339.4 615.52,-336.61"/>
<polygon fill="midnightblue" stroke="midnightblue" points="676.52,-349.94 686.95,-348.06 677.63,-343.02 676.52,-349.94"/>
</g>
<!-- Node24 -->
<g id="node24" class="node">
<title>Node24</title>
<g id="a_node24"><a xlink:href="ex_8c.html#ab0cb848a971a3b2c09fcb456d887dd6b" target="_top" xlink:title=" ">
<polygon fill="white" stroke="black" points="545,-133.5 545,-152.5 639,-152.5 639,-133.5 545,-133.5"/>
<text text-anchor="middle" x="592" y="-140.5" font-family="Helvetica,sans-Serif" font-size="10.00">ex_modifiedbuffer</text>
</a>
</g>
</g>
<!-- Node23&#45;&gt;Node24 -->
<g id="edge30" class="edge">
<title>Node23&#45;&gt;Node24</title>
<path fill="none" stroke="midnightblue" d="M675.7,-129.74C664.21,-131.58 651.33,-133.65 639.21,-135.59"/>
<polygon fill="midnightblue" stroke="midnightblue" points="676.47,-133.16 685.79,-128.12 675.36,-126.25 676.47,-133.16"/>
</g>
<!-- Node24&#45;&gt;Node15 -->
<g id="edge33" class="edge">
<title>Node24&#45;&gt;Node15</title>
<path fill="none" stroke="midnightblue" d="M584.51,-162.24C563.89,-223.34 500.36,-411.59 485.25,-456.37"/>
<polygon fill="midnightblue" stroke="midnightblue" points="587.86,-163.26 587.74,-152.67 581.22,-161.02 587.86,-163.26"/>
</g>
<!-- Node25 -->
<g id="node25" class="node">
<title>Node25</title>
<g id="a_node25"><a xlink:href="ex_8c.html#a8059390ad69866fa8e14bdb2521d4dc2" target="_top" xlink:title=" ">
<polygon fill="white" stroke="black" points="268.5,-124.5 268.5,-143.5 316.5,-143.5 316.5,-124.5 268.5,-124.5"/>
<text text-anchor="middle" x="292.5" y="-131.5" font-family="Helvetica,sans-Serif" font-size="10.00">ec_edit</text>
</a>
</g>
</g>
<!-- Node24&#45;&gt;Node25 -->
<g id="edge31" class="edge">
<title>Node24&#45;&gt;Node25</title>
<path fill="none" stroke="midnightblue" d="M548.07,-154.88C535.58,-157.81 521.83,-160.53 509,-162 438.91,-170.01 356.23,-151.38 316.75,-140.75"/>
<polygon fill="midnightblue" stroke="midnightblue" points="548.91,-158.28 557.79,-152.51 547.24,-151.48 548.91,-158.28"/>
</g>
<!-- Node26 -->
<g id="node26" class="node">
<title>Node26</title>
<g id="a_node26"><a xlink:href="ex_8c.html#aa69f426ff9728078fbb36f448c624a90" target="_top" xlink:title=" ">
<polygon fill="white" stroke="black" points="453,-133.5 453,-152.5 509,-152.5 509,-133.5 453,-133.5"/>
<text text-anchor="middle" x="481" y="-140.5" font-family="Helvetica,sans-Serif" font-size="10.00">ec_make</text>
</a>
</g>
</g>
<!-- Node24&#45;&gt;Node26 -->
<g id="edge34" class="edge">
<title>Node24&#45;&gt;Node26</title>
<path fill="none" stroke="midnightblue" d="M534.7,-143C525.76,-143 516.89,-143 509.04,-143"/>
<polygon fill="midnightblue" stroke="midnightblue" points="534.77,-146.5 544.77,-143 534.77,-139.5 534.77,-146.5"/>
</g>
<!-- Node27 -->
<g id="node27" class="node">
<title>Node27</title>
<g id="a_node27"><a xlink:href="ex_8c.html#a87eef446de152fad41ce88a9a343b87d" target="_top" xlink:title=" ">
<polygon fill="white" stroke="black" points="457,-95.5 457,-114.5 505,-114.5 505,-95.5 457,-95.5"/>
<text text-anchor="middle" x="481" y="-102.5" font-family="Helvetica,sans-Serif" font-size="10.00">ec_quit</text>
</a>
</g>
</g>
<!-- Node24&#45;&gt;Node27 -->
<g id="edge35" class="edge">
<title>Node24&#45;&gt;Node27</title>
<path fill="none" stroke="midnightblue" d="M553.79,-130.03C537.63,-124.39 519.21,-117.97 505.07,-113.04"/>
<polygon fill="midnightblue" stroke="midnightblue" points="552.9,-133.42 563.49,-133.41 555.2,-126.81 552.9,-133.42"/>
</g>
<!-- Node25&#45;&gt;Node8 -->
<g id="edge32" class="edge">
<title>Node25&#45;&gt;Node8</title>
<path fill="none" stroke="midnightblue" d="M258.47,-131.96C218.63,-129.49 152.81,-125.42 119,-123.33"/>
<polygon fill="midnightblue" stroke="midnightblue" points="258.29,-135.45 268.48,-132.58 258.72,-128.47 258.29,-135.45"/>
</g>
<!-- Node27&#45;&gt;Node23 -->
<g id="edge36" class="edge">
<title>Node27&#45;&gt;Node23</title>
<path fill="none" stroke="midnightblue" d="M515.11,-107.74C561.2,-111.56 643.75,-118.39 685.62,-121.86"/>
<polygon fill="midnightblue" stroke="midnightblue" points="515.29,-104.24 505.04,-106.91 514.72,-111.22 515.29,-104.24"/>
</g>
<!-- Node30 -->
<g id="node30" class="node">
<title>Node30</title>
<g id="a_node30"><a xlink:href="vi_8c.html#a93701c59617d4f96cbaa207e89178f87" target="_top" xlink:title=" ">
<polygon fill="white" stroke="black" points="881,-76.5 881,-95.5 940,-95.5 940,-76.5 881,-76.5"/>
<text text-anchor="middle" x="910.5" y="-83.5" font-family="Helvetica,sans-Serif" font-size="10.00">vi_search</text>
</a>
</g>
</g>
<!-- Node29&#45;&gt;Node30 -->
<g id="edge39" class="edge">
<title>Node29&#45;&gt;Node30</title>
<path fill="none" stroke="midnightblue" d="M973.3,-86C962.53,-86 950.64,-86 940.19,-86"/>
<polygon fill="midnightblue" stroke="midnightblue" points="973.6,-89.5 983.6,-86 973.6,-82.5 973.6,-89.5"/>
</g>
<!-- Node30&#45;&gt;Node31 -->
<g id="edge40" class="edge">
<title>Node30&#45;&gt;Node31</title>
<path fill="none" stroke="midnightblue" d="M876.68,-72.59C864.56,-67.64 851.08,-62.13 839.96,-57.59"/>
<polygon fill="midnightblue" stroke="midnightblue" points="875.45,-75.87 886.03,-76.41 878.1,-69.39 875.45,-75.87"/>
</g>
<!-- Node31&#45;&gt;Node9 -->
<g id="edge43" class="edge">
<title>Node31&#45;&gt;Node9</title>
<path fill="none" stroke="midnightblue" d="M775.8,-48C731.59,-48 657.08,-48 593,-48 593,-48 593,-48 291.5,-48 223.67,-48 142.76,-55.4 111.12,-58.58"/>
<polygon fill="midnightblue" stroke="midnightblue" points="775.83,-51.5 785.83,-48 775.83,-44.5 775.83,-51.5"/>
</g>
<!-- Node32 -->
<g id="node32" class="node">
<title>Node32</title>
<g id="a_node32"><a xlink:href="vi_8c.html#a06cbc6eb843436a0e77e07cbab0c4538" target="_top" xlink:title=" ">
<polygon fill="white" stroke="black" points="355,-0.5 355,-19.5 417,-19.5 417,-0.5 355,-0.5"/>
<text text-anchor="middle" x="386" y="-7.5" font-family="Helvetica,sans-Serif" font-size="10.00">vc_motion</text>
</a>
</g>
</g>
<!-- Node31&#45;&gt;Node32 -->
<g id="edge41" class="edge">
<title>Node31&#45;&gt;Node32</title>
<path fill="none" stroke="midnightblue" d="M775.76,-38.62C767.31,-36.85 758.39,-35.18 750,-34 627.42,-16.74 479.76,-11.84 417.27,-10.49"/>
<polygon fill="midnightblue" stroke="midnightblue" points="775.25,-42.09 785.77,-40.81 776.75,-35.25 775.25,-42.09"/>
</g>
<!-- Node32&#45;&gt;Node9 -->
<g id="edge42" class="edge">
<title>Node32&#45;&gt;Node9</title>
<path fill="none" stroke="midnightblue" d="M344.39,-10.33C297.87,-11.61 219.71,-16.49 155,-34 139.35,-38.24 122.58,-46.26 111.21,-52.28"/>
<polygon fill="midnightblue" stroke="midnightblue" points="344.75,-13.83 354.67,-10.1 344.59,-6.83 344.75,-13.83"/>
</g>
</g>
</svg>
        <g id="navigator" transform="translate(0 0)" fill="#404254">
                <rect fill="#f2f5e9" fill-opacity="0.5" stroke="#606060" stroke-width=".5" x="0" y="0" width="60" height="60"/>
                <use id="zoomplus" xlink:href="#zoomPlus" x="17" y="9" onmousedown="handleZoom(evt,'in')"/>
                <use id="zoomminus" xlink:href="#zoomMin" x="42" y="9" onmousedown="handleZoom(evt,'out')"/>
                <use id="reset" xlink:href="#resetDef" x="30" y="36" onmousedown="handleReset()"/>
                <g id="arrowUp" xlink:href="#dirArrow" transform="translate(30 24)" onmousedown="handlePan(0,-1)">
                  <use xlink:href="#rim" fill="#404040">
                        <set attributeName="fill" to="#808080" begin="arrowUp.mouseover" end="arrowUp.mouseout"/>
                  </use>
                  <path fill="none" stroke="white" stroke-width="1.5" d="M0,-3.0v7 M-2.5,-0.5L0,-3.0L2.5,-0.5"/>
                </g>
                <g id="arrowRight" xlink:href="#dirArrow" transform="rotate(90) translate(36 -43)" onmousedown="handlePan(1,0)">
                  <use xlink:href="#rim" fill="#404040">
                        <set attributeName="fill" to="#808080" begin="arrowRight.mouseover" end="arrowRight.mouseout"/>
                  </use>
                  <path fill="none" stroke="white" stroke-width="1.5" d="M0,-3.0v7 M-2.5,-0.5L0,-3.0L2.5,-0.5"/>
                </g>
                <g id="arrowDown" xlink:href="#dirArrow" transform="rotate(180) translate(-30 -48)" onmousedown="handlePan(0,1)">
                  <use xlink:href="#rim" fill="#404040">
                        <set attributeName="fill" to="#808080" begin="arrowDown.mouseover" end="arrowDown.mouseout"/>
                  </use>
                  <path fill="none" stroke="white" stroke-width="1.5" d="M0,-3.0v7 M-2.5,-0.5L0,-3.0L2.5,-0.5"/>
                </g>
                <g id="arrowLeft" xlink:href="#dirArrow" transform="rotate(270) translate(-36 17)" onmousedown="handlePan(-1,0)">
                  <use xlink:href="#rim" fill="#404040">
                        <set attributeName="fill" to="#808080" begin="arrowLeft.mouseover" end="arrowLeft.mouseout"/>
                  </use>
                  <path fill="none" stroke="white" stroke-width="1.5" d="M0,-3.0v7 M-2.5,-0.5L0,-3.0L2.5,-0.5"/>
                </g>
        </g>
        <svg viewBox="0 0 15 15" width="100%" height="30px" preserveAspectRatio="xMaxYMin meet">
         <g id="arrow_out" transform="scale(0.3 0.3)">
          <a xlink:href="vi_8h_aff6b33b5c383668577090507620d7b17_icgraph_org.svg" target="_base">
           <rect id="button" ry="5" rx="5" y="6" x="6" height="38" width="38"
                fill="#f2f5e9" fill-opacity="0.5" stroke="#606060" stroke-width="1.0"/>
           <path id="arrow"
             d="M 11.500037,31.436501 C 11.940474,20.09759 22.043105,11.32322 32.158766,21.979434 L 37.068811,17.246167 C 37.068811,17.246167 37.088388,32 37.088388,32 L 22.160133,31.978069 C 22.160133,31.978069 26.997745,27.140456 26.997745,27.140456 C 18.528582,18.264221 13.291696,25.230495 11.500037,31.436501 z"
             style="fill:#404040;"/>
          </a>
         </g>
        </svg>
</svg>
