<?xml version="1.0" encoding="UTF-8" standalone="no"?>
<!DOCTYPE svg PUBLIC "-//W3C//DTD SVG 1.1//EN"
 "http://www.w3.org/Graphics/SVG/1.1/DTD/svg11.dtd">
<!-- Generated by graphviz version 2.44.1 (20200629.0846)
 -->
<!-- Title: ren_next Pages: 1 -->
<!--zoomable 531 -->
<svg id="main" version="1.1" xmlns="http://www.w3.org/2000/svg" xmlns:xlink="http://www.w3.org/1999/xlink" xml:space="preserve" onload="init(evt)">
<style type="text/css"><![CDATA[
.edge:hover path { stroke: red; }
.edge:hover polygon { stroke: red; fill: red; }
]]></style>
<script type="text/javascript"><![CDATA[
var edges = document.getElementsByTagName('g');
if (edges && edges.length) {
  for (var i=0;i<edges.length;i++) {
    if (edges[i].id.substr(0,4)=='edge') {
      edges[i].setAttribute('class','edge');
    }
  }
}
]]></script>
        <defs>
                <circle id="rim" cx="0" cy="0" r="7"/>
                <circle id="rim2" cx="0" cy="0" r="3.5"/>
                <g id="zoomPlus">
                        <use xlink:href="#rim" fill="#404040">
                                <set attributeName="fill" to="#808080" begin="zoomplus.mouseover" end="zoomplus.mouseout"/>
                        </use>
                        <path d="M-4,0h8M0,-4v8" fill="none" stroke="white" stroke-width="1.5" pointer-events="none"/>
                </g>
                <g id="zoomMin">
                        <use xlink:href="#rim" fill="#404040">
                                <set attributeName="fill" to="#808080" begin="zoomminus.mouseover" end="zoomminus.mouseout"/>
                        </use>
                        <path d="M-4,0h8" fill="none" stroke="white" stroke-width="1.5" pointer-events="none"/>
                </g>
                <g id="dirArrow">
                        <path fill="none" stroke="white" stroke-width="1.5" d="M0,-3.0v7 M-2.5,-0.5L0,-3.0L2.5,-0.5"/>
                </g>
               <g id="resetDef">
                       <use xlink:href="#rim2" fill="#404040">
                               <set attributeName="fill" to="#808080" begin="reset.mouseover" end="reset.mouseout"/>
                       </use>
               </g>
        </defs>

<script type="text/javascript">
var viewWidth = 1296;
var viewHeight = 531;
var sectionId = 'dynsection-70';
</script>
<script xlink:href="svgpan.js"/>
<svg id="graph" class="graph">
<g id="viewport">
<title>ren_next</title>
<polygon fill="white" stroke="transparent" points="-4,4 -4,-527 1292,-527 1292,4 -4,4"/>
<!-- Node1 -->
<g id="node1" class="node">
<title>Node1</title>
<g id="a_node1"><a xlink:title=" ">
<polygon fill="#bfbfbf" stroke="black" points="0,-95.5 0,-114.5 54,-114.5 54,-95.5 0,-95.5"/>
<text text-anchor="middle" x="27" y="-102.5" font-family="Helvetica,sans-Serif" font-size="10.00">ren_next</text>
</a>
</g>
</g>
<!-- Node2 -->
<g id="node2" class="node">
<title>Node2</title>
<g id="a_node2"><a xlink:href="ren_8c.html#ae6c30ee4fcc67460391eaa8adc182241" target="_top" xlink:title=" ">
<polygon fill="white" stroke="black" points="90,-190.5 90,-209.5 146,-209.5 146,-190.5 90,-190.5"/>
<text text-anchor="middle" x="118" y="-197.5" font-family="Helvetica,sans-Serif" font-size="10.00">pos_next</text>
</a>
</g>
</g>
<!-- Node1&#45;&gt;Node2 -->
<g id="edge1" class="edge">
<title>Node1&#45;&gt;Node2</title>
<path fill="none" stroke="midnightblue" d="M35.67,-114.53C47.04,-128.48 69.26,-155.08 90,-176 92.55,-178.57 95.32,-181.21 98.09,-183.74"/>
<polygon fill="midnightblue" stroke="midnightblue" points="95.88,-186.46 105.68,-190.5 100.54,-181.23 95.88,-186.46"/>
</g>
<!-- Node3 -->
<g id="node3" class="node">
<title>Node3</title>
<g id="a_node3"><a xlink:href="ren_8c.html#af4201a7e1018cbf68ff5e009005ff8bd" target="_top" xlink:title=" ">
<polygon fill="white" stroke="black" points="188.5,-152.5 188.5,-171.5 244.5,-171.5 244.5,-152.5 188.5,-152.5"/>
<text text-anchor="middle" x="216.5" y="-159.5" font-family="Helvetica,sans-Serif" font-size="10.00">pos_prev</text>
</a>
</g>
</g>
<!-- Node1&#45;&gt;Node3 -->
<g id="edge2" class="edge">
<title>Node1&#45;&gt;Node3</title>
<path fill="none" stroke="midnightblue" d="M40.52,-114.77C52.52,-123.61 71.5,-136.25 90,-143 118.56,-153.43 152.8,-158.13 178.29,-160.26"/>
<polygon fill="midnightblue" stroke="midnightblue" points="178.06,-163.75 188.29,-161 178.58,-156.77 178.06,-163.75"/>
</g>
<!-- Node4 -->
<g id="node4" class="node">
<title>Node4</title>
<g id="a_node4"><a xlink:href="ren_8c.html#a6fb670084750c8934454722b630e0caa" target="_top" xlink:title=" ">
<polygon fill="white" stroke="black" points="94.5,-114.5 94.5,-133.5 141.5,-133.5 141.5,-114.5 94.5,-114.5"/>
<text text-anchor="middle" x="118" y="-121.5" font-family="Helvetica,sans-Serif" font-size="10.00">ren_off</text>
</a>
</g>
</g>
<!-- Node1&#45;&gt;Node4 -->
<g id="edge3" class="edge">
<title>Node1&#45;&gt;Node4</title>
<path fill="none" stroke="midnightblue" d="M54.22,-110.6C63.66,-112.61 74.42,-114.91 84.34,-117.03"/>
<polygon fill="midnightblue" stroke="midnightblue" points="83.77,-120.49 94.28,-119.15 85.23,-113.64 83.77,-120.49"/>
</g>
<!-- Node5 -->
<g id="node5" class="node">
<title>Node5</title>
<g id="a_node5"><a xlink:href="ren_8c.html#af6e197881adec94ce251c84adf3dd495" target="_top" xlink:title=" ">
<polygon fill="white" stroke="black" points="182,-114.5 182,-133.5 251,-133.5 251,-114.5 182,-114.5"/>
<text text-anchor="middle" x="216.5" y="-121.5" font-family="Helvetica,sans-Serif" font-size="10.00">ren_position</text>
</a>
</g>
</g>
<!-- Node1&#45;&gt;Node5 -->
<g id="edge46" class="edge">
<title>Node1&#45;&gt;Node5</title>
<path fill="none" stroke="midnightblue" d="M54.38,-103C78.38,-101.66 114.73,-100.8 146,-105 156.41,-106.4 167.48,-108.92 177.64,-111.69"/>
<polygon fill="midnightblue" stroke="midnightblue" points="176.87,-115.11 187.45,-114.5 178.8,-108.38 176.87,-115.11"/>
</g>
<!-- Node33 -->
<g id="node33" class="node">
<title>Node33</title>
<g id="a_node33"><a xlink:href="uc_8c.html#a8afd7835259109c3ec7bb684d4a1f67f" target="_top" xlink:title=" ">
<polygon fill="white" stroke="black" points="527.5,-38.5 527.5,-57.5 577.5,-57.5 577.5,-38.5 527.5,-38.5"/>
<text text-anchor="middle" x="552.5" y="-45.5" font-family="Helvetica,sans-Serif" font-size="10.00">uc_slen</text>
</a>
</g>
</g>
<!-- Node1&#45;&gt;Node33 -->
<g id="edge49" class="edge">
<title>Node1&#45;&gt;Node33</title>
<path fill="none" stroke="midnightblue" d="M46.33,-95.46C79.26,-79.23 151.03,-48 215.5,-48 215.5,-48 215.5,-48 319,-48 389.44,-48 471.88,-48 517.23,-48"/>
<polygon fill="midnightblue" stroke="midnightblue" points="517.4,-51.5 527.4,-48 517.4,-44.5 517.4,-51.5"/>
</g>
<!-- Node37 -->
<g id="node37" class="node">
<title>Node37</title>
<g id="a_node37"><a xlink:href="uc_8c.html#a2fecd1fc98475ece5f529da3315a9553" target="_top" xlink:title=" ">
<polygon fill="white" stroke="black" points="193.5,-0.5 193.5,-19.5 239.5,-19.5 239.5,-0.5 193.5,-0.5"/>
<text text-anchor="middle" x="216.5" y="-7.5" font-family="Helvetica,sans-Serif" font-size="10.00">uc_chr</text>
</a>
</g>
</g>
<!-- Node1&#45;&gt;Node37 -->
<g id="edge47" class="edge">
<title>Node1&#45;&gt;Node37</title>
<path fill="none" stroke="midnightblue" d="M33.45,-95.38C42.83,-79.77 63.6,-49.15 90,-34 118.58,-17.6 156.24,-12.15 182.83,-10.47"/>
<polygon fill="midnightblue" stroke="midnightblue" points="183.32,-13.95 193.13,-9.97 182.98,-6.96 183.32,-13.95"/>
</g>
<!-- Node4&#45;&gt;Node3 -->
<g id="edge4" class="edge">
<title>Node4&#45;&gt;Node3</title>
<path fill="none" stroke="midnightblue" d="M141.87,-133.01C153.68,-137.66 168.34,-143.43 181.45,-148.59"/>
<polygon fill="midnightblue" stroke="midnightblue" points="180.52,-151.99 191.11,-152.39 183.09,-145.47 180.52,-151.99"/>
</g>
<!-- Node4&#45;&gt;Node5 -->
<g id="edge5" class="edge">
<title>Node4&#45;&gt;Node5</title>
<path fill="none" stroke="midnightblue" d="M141.87,-124C150.81,-124 161.39,-124 171.69,-124"/>
<polygon fill="midnightblue" stroke="midnightblue" points="171.83,-127.5 181.83,-124 171.83,-120.5 171.83,-127.5"/>
</g>
<!-- Node4&#45;&gt;Node33 -->
<g id="edge45" class="edge">
<title>Node4&#45;&gt;Node33</title>
<path fill="none" stroke="midnightblue" d="M141.53,-116.32C153.45,-112.49 168.4,-108.03 182,-105 310.46,-76.37 345.14,-83.41 475,-62 488.88,-59.71 504.12,-56.97 517.33,-54.52"/>
<polygon fill="midnightblue" stroke="midnightblue" points="518.23,-57.91 527.42,-52.63 516.95,-51.03 518.23,-57.91"/>
</g>
<!-- Node6 -->
<g id="node6" class="node">
<title>Node6</title>
<g id="a_node6"><a xlink:href="dir_8c.html#a8703d559ca9c640b8b89c589cf75ac06" target="_top" xlink:title=" ">
<polygon fill="white" stroke="black" points="287,-218.5 287,-237.5 349,-237.5 349,-218.5 287,-218.5"/>
<text text-anchor="middle" x="318" y="-225.5" font-family="Helvetica,sans-Serif" font-size="10.00">dir_reorder</text>
</a>
</g>
</g>
<!-- Node5&#45;&gt;Node6 -->
<g id="edge6" class="edge">
<title>Node5&#45;&gt;Node6</title>
<path fill="none" stroke="midnightblue" d="M237.98,-133.68C242.54,-136.34 247.15,-139.48 251,-143 271.75,-161.97 269.51,-173 287,-195 291.3,-200.41 296.25,-206.06 300.87,-211.12"/>
<polygon fill="midnightblue" stroke="midnightblue" points="298.35,-213.55 307.72,-218.48 303.47,-208.78 298.35,-213.55"/>
</g>
<!-- Node32 -->
<g id="node32" class="node">
<title>Node32</title>
<g id="a_node32"><a xlink:href="uc_8c.html#a1764c4d0fa27bca336e5ca300ad969e7" target="_top" xlink:title=" ">
<polygon fill="white" stroke="black" points="403.5,-190.5 403.5,-209.5 456.5,-209.5 456.5,-190.5 403.5,-190.5"/>
<text text-anchor="middle" x="430" y="-197.5" font-family="Helvetica,sans-Serif" font-size="10.00">uc_chop</text>
</a>
</g>
</g>
<!-- Node5&#45;&gt;Node32 -->
<g id="edge44" class="edge">
<title>Node5&#45;&gt;Node32</title>
<path fill="none" stroke="midnightblue" d="M244.29,-133.63C282.26,-147.27 351.79,-172.26 393.86,-187.37"/>
<polygon fill="midnightblue" stroke="midnightblue" points="392.83,-190.72 403.42,-190.81 395.19,-184.13 392.83,-190.72"/>
</g>
<!-- Node34 -->
<g id="node34" class="node">
<title>Node34</title>
<g id="a_node34"><a xlink:href="ren_8c.html#a319a71758607f19d2beedd2bd4d3b369" target="_top" xlink:title=" ">
<polygon fill="white" stroke="black" points="290,-114.5 290,-133.5 346,-133.5 346,-114.5 290,-114.5"/>
<text text-anchor="middle" x="318" y="-121.5" font-family="Helvetica,sans-Serif" font-size="10.00">ren_cwid</text>
</a>
</g>
</g>
<!-- Node5&#45;&gt;Node34 -->
<g id="edge41" class="edge">
<title>Node5&#45;&gt;Node34</title>
<path fill="none" stroke="midnightblue" d="M251.19,-124C260.36,-124 270.35,-124 279.72,-124"/>
<polygon fill="midnightblue" stroke="midnightblue" points="279.94,-127.5 289.94,-124 279.94,-120.5 279.94,-127.5"/>
</g>
<!-- Node7 -->
<g id="node7" class="node">
<title>Node7</title>
<g id="a_node7"><a xlink:href="dir_8c.html#aba0a553010578626d7148da2b6551321" target="_top" xlink:title=" ">
<polygon fill="white" stroke="black" points="397.5,-304.5 397.5,-323.5 462.5,-323.5 462.5,-304.5 397.5,-304.5"/>
<text text-anchor="middle" x="430" y="-311.5" font-family="Helvetica,sans-Serif" font-size="10.00">dir_context</text>
</a>
</g>
</g>
<!-- Node6&#45;&gt;Node7 -->
<g id="edge7" class="edge">
<title>Node6&#45;&gt;Node7</title>
<path fill="none" stroke="midnightblue" d="M331.19,-237.53C349.94,-252.19 386.06,-280.43 408.77,-298.18"/>
<polygon fill="midnightblue" stroke="midnightblue" points="406.72,-301.02 416.75,-304.43 411.03,-295.51 406.72,-301.02"/>
</g>
<!-- Node20 -->
<g id="node20" class="node">
<title>Node20</title>
<g id="a_node20"><a xlink:href="dir_8c.html#a8dbcb1db32888e71e2702f7173e7cba4" target="_top" xlink:title=" ">
<polygon fill="white" stroke="black" points="408.5,-228.5 408.5,-247.5 451.5,-247.5 451.5,-228.5 408.5,-228.5"/>
<text text-anchor="middle" x="430" y="-235.5" font-family="Helvetica,sans-Serif" font-size="10.00">dir_fix</text>
</a>
</g>
</g>
<!-- Node6&#45;&gt;Node20 -->
<g id="edge23" class="edge">
<title>Node6&#45;&gt;Node20</title>
<path fill="none" stroke="midnightblue" d="M349.06,-230.73C364.36,-232.12 382.92,-233.81 398.31,-235.21"/>
<polygon fill="midnightblue" stroke="midnightblue" points="398.1,-238.71 408.37,-236.12 398.73,-231.73 398.1,-238.71"/>
</g>
<!-- Node6&#45;&gt;Node32 -->
<g id="edge37" class="edge">
<title>Node6&#45;&gt;Node32</title>
<path fill="none" stroke="midnightblue" d="M349.06,-220.35C362.78,-216.86 379.12,-212.7 393.45,-209.05"/>
<polygon fill="midnightblue" stroke="midnightblue" points="394.63,-212.36 403.45,-206.5 392.9,-205.58 394.63,-212.36"/>
</g>
<!-- Node8 -->
<g id="node8" class="node">
<title>Node8</title>
<g id="a_node8"><a xlink:href="conf_8c.html#a9e1bc5ed600c151c51d8e2342454e07c" target="_top" xlink:title=" ">
<polygon fill="white" stroke="black" points="511,-342.5 511,-361.5 594,-361.5 594,-342.5 511,-342.5"/>
<text text-anchor="middle" x="552.5" y="-349.5" font-family="Helvetica,sans-Serif" font-size="10.00">conf_dircontext</text>
</a>
</g>
</g>
<!-- Node7&#45;&gt;Node8 -->
<g id="edge8" class="edge">
<title>Node7&#45;&gt;Node8</title>
<path fill="none" stroke="midnightblue" d="M461.41,-323.59C476.53,-328.36 495.02,-334.19 511.3,-339.32"/>
<polygon fill="midnightblue" stroke="midnightblue" points="510.51,-342.74 521.1,-342.41 512.62,-336.07 510.51,-342.74"/>
</g>
<!-- Node9 -->
<g id="node9" class="node">
<title>Node9</title>
<g id="a_node9"><a xlink:href="rset_8c.html#a389ec5abca88adc048a058744f2373eb" target="_top" xlink:title=" ">
<polygon fill="white" stroke="black" points="639.5,-342.5 639.5,-361.5 693.5,-361.5 693.5,-342.5 639.5,-342.5"/>
<text text-anchor="middle" x="666.5" y="-349.5" font-family="Helvetica,sans-Serif" font-size="10.00">rset_find</text>
</a>
</g>
</g>
<!-- Node7&#45;&gt;Node9 -->
<g id="edge9" class="edge">
<title>Node7&#45;&gt;Node9</title>
<path fill="none" stroke="midnightblue" d="M462.76,-316.34C495.76,-319.09 548.8,-324.41 594,-333 605.59,-335.2 618.07,-338.27 629.31,-341.3"/>
<polygon fill="midnightblue" stroke="midnightblue" points="628.65,-344.75 639.22,-344.05 630.52,-338.01 628.65,-344.75"/>
</g>
<!-- Node10 -->
<g id="node10" class="node">
<title>Node10</title>
<g id="a_node10"><a xlink:href="regex_8c.html#aa085ccd05ec25e3f8053850aebc50fe3" target="_top" xlink:title=" ">
<polygon fill="white" stroke="black" points="748.5,-342.5 748.5,-361.5 799.5,-361.5 799.5,-342.5 748.5,-342.5"/>
<text text-anchor="middle" x="774" y="-349.5" font-family="Helvetica,sans-Serif" font-size="10.00">regexec</text>
</a>
</g>
</g>
<!-- Node9&#45;&gt;Node10 -->
<g id="edge10" class="edge">
<title>Node9&#45;&gt;Node10</title>
<path fill="none" stroke="midnightblue" d="M693.58,-352C707.03,-352 723.63,-352 738.16,-352"/>
<polygon fill="midnightblue" stroke="midnightblue" points="738.31,-355.5 748.31,-352 738.31,-348.5 738.31,-355.5"/>
</g>
<!-- Node11 -->
<g id="node11" class="node">
<title>Node11</title>
<g id="a_node11"><a xlink:href="regex_8c.html#aa5925e49bd18112bb37421dbde29162a" target="_top" xlink:title=" ">
<polygon fill="white" stroke="black" points="845,-380.5 845,-399.5 916,-399.5 916,-380.5 845,-380.5"/>
<text text-anchor="middle" x="880.5" y="-387.5" font-family="Helvetica,sans-Serif" font-size="10.00">re_recmatch</text>
</a>
</g>
</g>
<!-- Node10&#45;&gt;Node11 -->
<g id="edge11" class="edge">
<title>Node10&#45;&gt;Node11</title>
<path fill="none" stroke="midnightblue" d="M799.5,-360.91C812.64,-365.69 829.07,-371.66 843.62,-376.95"/>
<polygon fill="midnightblue" stroke="midnightblue" points="842.73,-380.35 853.33,-380.48 845.12,-373.78 842.73,-380.35"/>
</g>
<!-- Node17 -->
<g id="node17" class="node">
<title>Node17</title>
<g id="a_node17"><a xlink:href="regex_8c.html#a9a0d6d5f93f1eaba8b63b16903c0952d" target="_top" xlink:title=" ">
<polygon fill="white" stroke="black" points="1241.5,-427.5 1241.5,-446.5 1286.5,-446.5 1286.5,-427.5 1241.5,-427.5"/>
<text text-anchor="middle" x="1264" y="-434.5" font-family="Helvetica,sans-Serif" font-size="10.00">uc_len</text>
</a>
</g>
</g>
<!-- Node10&#45;&gt;Node17 -->
<g id="edge22" class="edge">
<title>Node10&#45;&gt;Node17</title>
<path fill="none" stroke="midnightblue" d="M799.53,-346.06C836.77,-337.58 909.94,-323 973,-323 973,-323 973,-323 1070,-323 1130.15,-323 1153.62,-309.14 1204,-342 1231.39,-359.87 1248.28,-395.35 1256.63,-417.53"/>
<polygon fill="midnightblue" stroke="midnightblue" points="1253.42,-418.95 1260.05,-427.22 1260.02,-416.62 1253.42,-418.95"/>
</g>
<!-- Node12 -->
<g id="node12" class="node">
<title>Node12</title>
<g id="a_node12"><a xlink:href="regex_8c.html#a8e35614ddf21d405773327a52a95a73d" target="_top" xlink:title=" ">
<polygon fill="white" stroke="black" points="952,-399.5 952,-418.5 996,-418.5 996,-399.5 952,-399.5"/>
<text text-anchor="middle" x="974" y="-406.5" font-family="Helvetica,sans-Serif" font-size="10.00">re_rec</text>
</a>
</g>
</g>
<!-- Node11&#45;&gt;Node12 -->
<g id="edge12" class="edge">
<title>Node11&#45;&gt;Node12</title>
<path fill="none" stroke="midnightblue" d="M916.09,-397.18C924.56,-398.94 933.57,-400.81 941.87,-402.54"/>
<polygon fill="midnightblue" stroke="midnightblue" points="941.4,-406.01 951.9,-404.62 942.82,-399.16 941.4,-406.01"/>
</g>
<!-- Node13 -->
<g id="node13" class="node">
<title>Node13</title>
<g id="a_node13"><a xlink:href="regex_8c.html#a24fd1fc7457ff4f03fb384f7170ac395" target="_top" xlink:title=" ">
<polygon fill="white" stroke="black" points="1032,-408.5 1032,-427.5 1106,-427.5 1106,-408.5 1032,-408.5"/>
<text text-anchor="middle" x="1069" y="-415.5" font-family="Helvetica,sans-Serif" font-size="10.00">ratom_match</text>
</a>
</g>
</g>
<!-- Node12&#45;&gt;Node13 -->
<g id="edge13" class="edge">
<title>Node12&#45;&gt;Node13</title>
<path fill="none" stroke="midnightblue" d="M996.1,-411.04C1003.73,-411.78 1012.68,-412.65 1021.63,-413.51"/>
<polygon fill="midnightblue" stroke="midnightblue" points="1021.36,-417 1031.65,-414.48 1022.03,-410.04 1021.36,-417"/>
</g>
<!-- Node14 -->
<g id="node14" class="node">
<title>Node14</title>
<g id="a_node14"><a xlink:href="regex_8c.html#aae17ed73e84075718fb04d131d6ca779" target="_top" xlink:title=" ">
<polygon fill="white" stroke="black" points="1142,-503.5 1142,-522.5 1204,-522.5 1204,-503.5 1142,-503.5"/>
<text text-anchor="middle" x="1173" y="-510.5" font-family="Helvetica,sans-Serif" font-size="10.00">brk_match</text>
</a>
</g>
</g>
<!-- Node13&#45;&gt;Node14 -->
<g id="edge14" class="edge">
<title>Node13&#45;&gt;Node14</title>
<path fill="none" stroke="midnightblue" d="M1079.02,-427.51C1092.38,-441.43 1118.38,-468.01 1142,-489 1145.05,-491.71 1148.36,-494.5 1151.63,-497.18"/>
<polygon fill="midnightblue" stroke="midnightblue" points="1149.51,-499.96 1159.5,-503.47 1153.88,-494.49 1149.51,-499.96"/>
</g>
<!-- Node16 -->
<g id="node16" class="node">
<title>Node16</title>
<g id="a_node16"><a xlink:href="regex_8c.html#aaf73cdb88048e7f9fd588eb8d5aeb5a3" target="_top" xlink:title=" ">
<polygon fill="white" stroke="black" points="1240,-465.5 1240,-484.5 1288,-484.5 1288,-465.5 1240,-465.5"/>
<text text-anchor="middle" x="1264" y="-472.5" font-family="Helvetica,sans-Serif" font-size="10.00">uc_dec</text>
</a>
</g>
</g>
<!-- Node13&#45;&gt;Node16 -->
<g id="edge20" class="edge">
<title>Node13&#45;&gt;Node16</title>
<path fill="none" stroke="midnightblue" d="M1097.58,-427.59C1110.94,-432.14 1127.25,-437.53 1142,-442 1171.54,-450.94 1205.47,-460.1 1229.86,-466.49"/>
<polygon fill="midnightblue" stroke="midnightblue" points="1229.13,-469.92 1239.69,-469.05 1230.9,-463.15 1229.13,-469.92"/>
</g>
<!-- Node13&#45;&gt;Node17 -->
<g id="edge21" class="edge">
<title>Node13&#45;&gt;Node17</title>
<path fill="none" stroke="midnightblue" d="M1106.3,-421.57C1142.32,-425.12 1196.97,-430.5 1231.3,-433.88"/>
<polygon fill="midnightblue" stroke="midnightblue" points="1230.96,-437.36 1241.25,-434.86 1231.64,-430.4 1230.96,-437.36"/>
</g>
<!-- Node18 -->
<g id="node18" class="node">
<title>Node18</title>
<g id="a_node18"><a xlink:href="regex_8c.html#a35ad3fd0dbb795e6f30404ce86a7be5b" target="_top" xlink:title=" ">
<polygon fill="white" stroke="black" points="1150.5,-389.5 1150.5,-408.5 1195.5,-408.5 1195.5,-389.5 1150.5,-389.5"/>
<text text-anchor="middle" x="1173" y="-396.5" font-family="Helvetica,sans-Serif" font-size="10.00">isword</text>
</a>
</g>
</g>
<!-- Node13&#45;&gt;Node18 -->
<g id="edge18" class="edge">
<title>Node13&#45;&gt;Node18</title>
<path fill="none" stroke="midnightblue" d="M1106.25,-411.25C1117.44,-409.16 1129.68,-406.88 1140.52,-404.86"/>
<polygon fill="midnightblue" stroke="midnightblue" points="1141.23,-408.29 1150.42,-403.02 1139.95,-401.41 1141.23,-408.29"/>
</g>
<!-- Node19 -->
<g id="node19" class="node">
<title>Node19</title>
<g id="a_node19"><a xlink:href="regex_8c.html#ade3e10606e6e8866e6151fe8440d6101" target="_top" xlink:title=" ">
<polygon fill="white" stroke="black" points="1149,-351.5 1149,-370.5 1197,-370.5 1197,-351.5 1149,-351.5"/>
<text text-anchor="middle" x="1173" y="-358.5" font-family="Helvetica,sans-Serif" font-size="10.00">uc_beg</text>
</a>
</g>
</g>
<!-- Node13&#45;&gt;Node19 -->
<g id="edge19" class="edge">
<title>Node13&#45;&gt;Node19</title>
<path fill="none" stroke="midnightblue" d="M1087.3,-408.33C1103.45,-399.31 1127.74,-385.73 1146.18,-375.43"/>
<polygon fill="midnightblue" stroke="midnightblue" points="1147.93,-378.46 1154.95,-370.53 1144.52,-372.35 1147.93,-378.46"/>
</g>
<!-- Node15 -->
<g id="node15" class="node">
<title>Node15</title>
<g id="a_node15"><a xlink:href="regex_8c.html#acc18ff8d2687611a9e221b3329b02413" target="_top" xlink:title=" ">
<polygon fill="white" stroke="black" points="1240,-503.5 1240,-522.5 1288,-522.5 1288,-503.5 1240,-503.5"/>
<text text-anchor="middle" x="1264" y="-510.5" font-family="Helvetica,sans-Serif" font-size="10.00">brk_len</text>
</a>
</g>
</g>
<!-- Node14&#45;&gt;Node15 -->
<g id="edge15" class="edge">
<title>Node14&#45;&gt;Node15</title>
<path fill="none" stroke="midnightblue" d="M1204.13,-513C1212.36,-513 1221.32,-513 1229.71,-513"/>
<polygon fill="midnightblue" stroke="midnightblue" points="1229.94,-516.5 1239.94,-513 1229.94,-509.5 1229.94,-516.5"/>
</g>
<!-- Node14&#45;&gt;Node16 -->
<g id="edge16" class="edge">
<title>Node14&#45;&gt;Node16</title>
<path fill="none" stroke="midnightblue" d="M1196.46,-503.41C1207,-498.91 1219.75,-493.47 1231.25,-488.56"/>
<polygon fill="midnightblue" stroke="midnightblue" points="1232.73,-491.73 1240.55,-484.59 1229.98,-485.29 1232.73,-491.73"/>
</g>
<!-- Node14&#45;&gt;Node17 -->
<g id="edge17" class="edge">
<title>Node14&#45;&gt;Node17</title>
<path fill="none" stroke="midnightblue" d="M1185.15,-503.24C1198.22,-491.83 1220.57,-472.41 1240,-456 1241.14,-455.04 1242.31,-454.05 1243.49,-453.06"/>
<polygon fill="midnightblue" stroke="midnightblue" points="1245.8,-455.7 1251.26,-446.62 1241.33,-450.31 1245.8,-455.7"/>
</g>
<!-- Node21 -->
<g id="node21" class="node">
<title>Node21</title>
<g id="a_node21"><a xlink:href="dir_8c.html#a3b2f132ebfd084295e89aa35eff56ff4" target="_top" xlink:title=" ">
<polygon fill="white" stroke="black" points="523,-228.5 523,-247.5 582,-247.5 582,-228.5 523,-228.5"/>
<text text-anchor="middle" x="552.5" y="-235.5" font-family="Helvetica,sans-Serif" font-size="10.00">dir_match</text>
</a>
</g>
</g>
<!-- Node20&#45;&gt;Node21 -->
<g id="edge24" class="edge">
<title>Node20&#45;&gt;Node21</title>
<path fill="none" stroke="midnightblue" d="M451.71,-238C468.45,-238 492.46,-238 512.74,-238"/>
<polygon fill="midnightblue" stroke="midnightblue" points="512.95,-241.5 522.95,-238 512.95,-234.5 512.95,-241.5"/>
</g>
<!-- Node31 -->
<g id="node31" class="node">
<title>Node31</title>
<g id="a_node31"><a xlink:href="dir_8c.html#a83ed34b9263550e2ca9b15cc02294a6b" target="_top" xlink:title=" ">
<polygon fill="white" stroke="black" points="520,-190.5 520,-209.5 585,-209.5 585,-190.5 520,-190.5"/>
<text text-anchor="middle" x="552.5" y="-197.5" font-family="Helvetica,sans-Serif" font-size="10.00">dir_reverse</text>
</a>
</g>
</g>
<!-- Node20&#45;&gt;Node31 -->
<g id="edge36" class="edge">
<title>Node20&#45;&gt;Node31</title>
<path fill="none" stroke="midnightblue" d="M451.71,-231.47C468.06,-226.31 491.36,-218.96 511.34,-212.66"/>
<polygon fill="midnightblue" stroke="midnightblue" points="512.64,-215.92 521.13,-209.58 510.54,-209.25 512.64,-215.92"/>
</g>
<!-- Node21&#45;&gt;Node9 -->
<g id="edge26" class="edge">
<title>Node21&#45;&gt;Node9</title>
<path fill="none" stroke="midnightblue" d="M559.4,-247.69C571.03,-266.17 598.54,-306.92 630,-333 631.75,-334.45 633.63,-335.84 635.57,-337.16"/>
<polygon fill="midnightblue" stroke="midnightblue" points="633.97,-340.28 644.34,-342.47 637.6,-334.29 633.97,-340.28"/>
</g>
<!-- Node22 -->
<g id="node22" class="node">
<title>Node22</title>
<g id="a_node22"><a xlink:href="conf_8c.html#a3efe6ef9cd3bd043b3df1653265409f2" target="_top" xlink:title=" ">
<polygon fill="white" stroke="black" points="630,-304.5 630,-323.5 703,-323.5 703,-304.5 630,-304.5"/>
<text text-anchor="middle" x="666.5" y="-311.5" font-family="Helvetica,sans-Serif" font-size="10.00">conf_dirmark</text>
</a>
</g>
</g>
<!-- Node21&#45;&gt;Node22 -->
<g id="edge25" class="edge">
<title>Node21&#45;&gt;Node22</title>
<path fill="none" stroke="midnightblue" d="M565.29,-247.66C579.99,-259.48 606.09,-279.81 630,-295 632.43,-296.55 635.01,-298.09 637.61,-299.58"/>
<polygon fill="midnightblue" stroke="midnightblue" points="635.96,-302.68 646.41,-304.45 639.35,-296.55 635.96,-302.68"/>
</g>
<!-- Node23 -->
<g id="node23" class="node">
<title>Node23</title>
<g id="a_node23"><a xlink:href="sbuf_8c.html#a4e56760893d5a6797626743840c9adf2" target="_top" xlink:title=" ">
<polygon fill="white" stroke="black" points="639.5,-266.5 639.5,-285.5 693.5,-285.5 693.5,-266.5 639.5,-266.5"/>
<text text-anchor="middle" x="666.5" y="-273.5" font-family="Helvetica,sans-Serif" font-size="10.00">sbuf_buf</text>
</a>
</g>
</g>
<!-- Node21&#45;&gt;Node23 -->
<g id="edge27" class="edge">
<title>Node21&#45;&gt;Node23</title>
<path fill="none" stroke="midnightblue" d="M581.76,-247.59C596.22,-252.49 613.98,-258.52 629.42,-263.76"/>
<polygon fill="midnightblue" stroke="midnightblue" points="628.58,-267.17 639.17,-267.07 630.82,-260.54 628.58,-267.17"/>
</g>
<!-- Node25 -->
<g id="node25" class="node">
<title>Node25</title>
<g id="a_node25"><a xlink:href="sbuf_8c.html#a8c1a89868b1999663effb78b4f3fab32" target="_top" xlink:title=" ">
<polygon fill="white" stroke="black" points="638,-228.5 638,-247.5 695,-247.5 695,-228.5 638,-228.5"/>
<text text-anchor="middle" x="666.5" y="-235.5" font-family="Helvetica,sans-Serif" font-size="10.00">sbuf_free</text>
</a>
</g>
</g>
<!-- Node21&#45;&gt;Node25 -->
<g id="edge29" class="edge">
<title>Node21&#45;&gt;Node25</title>
<path fill="none" stroke="midnightblue" d="M582.05,-238C595.82,-238 612.53,-238 627.37,-238"/>
<polygon fill="midnightblue" stroke="midnightblue" points="627.77,-241.5 637.77,-238 627.77,-234.5 627.77,-241.5"/>
</g>
<!-- Node26 -->
<g id="node26" class="node">
<title>Node26</title>
<g id="a_node26"><a xlink:href="sbuf_8c.html#a57748585d6786a2c1aadc2cbe6f2135b" target="_top" xlink:title=" ">
<polygon fill="white" stroke="black" points="634,-190.5 634,-209.5 699,-209.5 699,-190.5 634,-190.5"/>
<text text-anchor="middle" x="666.5" y="-197.5" font-family="Helvetica,sans-Serif" font-size="10.00">sbuf_make</text>
</a>
</g>
</g>
<!-- Node21&#45;&gt;Node26 -->
<g id="edge30" class="edge">
<title>Node21&#45;&gt;Node26</title>
<path fill="none" stroke="midnightblue" d="M581.76,-228.41C595.69,-223.69 612.68,-217.92 627.71,-212.82"/>
<polygon fill="midnightblue" stroke="midnightblue" points="628.9,-216.11 637.25,-209.59 626.65,-209.48 628.9,-216.11"/>
</g>
<!-- Node27 -->
<g id="node27" class="node">
<title>Node27</title>
<g id="a_node27"><a xlink:href="sbuf_8c.html#aa511ac77d6b486accc01c0512ef27ed2" target="_top" xlink:title=" ">
<polygon fill="white" stroke="black" points="635.5,-152.5 635.5,-171.5 697.5,-171.5 697.5,-152.5 635.5,-152.5"/>
<text text-anchor="middle" x="666.5" y="-159.5" font-family="Helvetica,sans-Serif" font-size="10.00">sbuf_mem</text>
</a>
</g>
</g>
<!-- Node21&#45;&gt;Node27 -->
<g id="edge31" class="edge">
<title>Node21&#45;&gt;Node27</title>
<path fill="none" stroke="midnightblue" d="M577.89,-228.36C583.41,-225.7 589.09,-222.55 594,-219 612.86,-205.38 611.51,-195.11 630,-181 631.85,-179.59 633.82,-178.22 635.85,-176.91"/>
<polygon fill="midnightblue" stroke="midnightblue" points="638.06,-179.67 644.91,-171.58 634.51,-173.64 638.06,-179.67"/>
</g>
<!-- Node28 -->
<g id="node28" class="node">
<title>Node28</title>
<g id="a_node28"><a xlink:href="uc_8c.html#a8334cbe4db5e54e19bf79b31f68d9eb8" target="_top" xlink:title=" ">
<polygon fill="white" stroke="black" points="644.5,-114.5 644.5,-133.5 688.5,-133.5 688.5,-114.5 644.5,-114.5"/>
<text text-anchor="middle" x="666.5" y="-121.5" font-family="Helvetica,sans-Serif" font-size="10.00">uc_off</text>
</a>
</g>
</g>
<!-- Node21&#45;&gt;Node28 -->
<g id="edge33" class="edge">
<title>Node21&#45;&gt;Node28</title>
<path fill="none" stroke="midnightblue" d="M580.89,-228.34C585.65,-225.82 590.26,-222.73 594,-219 620.48,-192.62 604.23,-170.07 630,-143 631.77,-141.14 633.77,-139.42 635.88,-137.84"/>
<polygon fill="midnightblue" stroke="midnightblue" points="637.85,-140.74 644.44,-132.45 634.12,-134.82 637.85,-140.74"/>
</g>
<!-- Node24 -->
<g id="node24" class="node">
<title>Node24</title>
<g id="a_node24"><a xlink:href="sbuf_8c.html#a4ad75f3948c0340c342a3ea3eb63a6e6" target="_top" xlink:title=" ">
<polygon fill="white" stroke="black" points="739,-209.5 739,-228.5 809,-228.5 809,-209.5 739,-209.5"/>
<text text-anchor="middle" x="774" y="-216.5" font-family="Helvetica,sans-Serif" font-size="10.00">sbuf_extend</text>
</a>
</g>
</g>
<!-- Node23&#45;&gt;Node24 -->
<g id="edge28" class="edge">
<title>Node23&#45;&gt;Node24</title>
<path fill="none" stroke="midnightblue" d="M685.57,-266.35C691.16,-263.36 697.34,-260.05 703,-257 717.4,-249.24 733.44,-240.54 746.52,-233.42"/>
<polygon fill="midnightblue" stroke="midnightblue" points="748.36,-236.41 755.47,-228.56 745.01,-230.26 748.36,-236.41"/>
</g>
<!-- Node27&#45;&gt;Node24 -->
<g id="edge32" class="edge">
<title>Node27&#45;&gt;Node24</title>
<path fill="none" stroke="midnightblue" d="M685.57,-171.65C691.16,-174.64 697.34,-177.95 703,-181 717.4,-188.76 733.44,-197.46 746.52,-204.58"/>
<polygon fill="midnightblue" stroke="midnightblue" points="745.01,-207.74 755.47,-209.44 748.36,-201.59 745.01,-207.74"/>
</g>
<!-- Node29 -->
<g id="node29" class="node">
<title>Node29</title>
<g id="a_node29"><a xlink:href="uc_8c.html#a79c7c44c06c1febff5680c19667e2676" target="_top" xlink:title=" ">
<polygon fill="white" stroke="black" points="748.5,-76.5 748.5,-95.5 799.5,-95.5 799.5,-76.5 748.5,-76.5"/>
<text text-anchor="middle" x="774" y="-83.5" font-family="Helvetica,sans-Serif" font-size="10.00">uc_next</text>
</a>
</g>
</g>
<!-- Node28&#45;&gt;Node29 -->
<g id="edge34" class="edge">
<title>Node28&#45;&gt;Node29</title>
<path fill="none" stroke="midnightblue" d="M688.6,-116.4C702.84,-111.27 721.96,-104.38 738.41,-98.46"/>
<polygon fill="midnightblue" stroke="midnightblue" points="740.01,-101.6 748.23,-94.92 737.64,-95.02 740.01,-101.6"/>
</g>
<!-- Node30 -->
<g id="node30" class="node">
<title>Node30</title>
<g id="a_node30"><a xlink:href="uc_8c.html#a616e24870a58b86644c34ee077faca11" target="_top" xlink:title=" ">
<polygon fill="white" stroke="black" points="856.5,-57.5 856.5,-76.5 904.5,-76.5 904.5,-57.5 856.5,-57.5"/>
<text text-anchor="middle" x="880.5" y="-64.5" font-family="Helvetica,sans-Serif" font-size="10.00">uc_end</text>
</a>
</g>
</g>
<!-- Node29&#45;&gt;Node30 -->
<g id="edge35" class="edge">
<title>Node29&#45;&gt;Node30</title>
<path fill="none" stroke="midnightblue" d="M799.5,-81.55C813.42,-79.01 831.04,-75.81 846.2,-73.05"/>
<polygon fill="midnightblue" stroke="midnightblue" points="847.02,-76.46 856.23,-71.23 845.76,-69.58 847.02,-76.46"/>
</g>
<!-- Node32&#45;&gt;Node29 -->
<g id="edge38" class="edge">
<title>Node32&#45;&gt;Node29</title>
<path fill="none" stroke="midnightblue" d="M453.93,-190.35C460.74,-187.41 468.2,-184.13 475,-181 544.68,-148.89 556.57,-127.23 630,-105 665.97,-94.11 708.91,-89.46 738.29,-87.47"/>
<polygon fill="midnightblue" stroke="midnightblue" points="738.69,-90.96 748.46,-86.86 738.26,-83.97 738.69,-90.96"/>
</g>
<!-- Node32&#45;&gt;Node33 -->
<g id="edge39" class="edge">
<title>Node32&#45;&gt;Node33</title>
<path fill="none" stroke="midnightblue" d="M456.59,-193.17C463.31,-190.34 470.06,-186.4 475,-181 509.44,-143.36 479.02,-111.75 511,-72 513.58,-68.8 516.71,-65.92 520.07,-63.38"/>
<polygon fill="midnightblue" stroke="midnightblue" points="522.28,-66.12 528.73,-57.72 518.45,-60.26 522.28,-66.12"/>
</g>
<!-- Node33&#45;&gt;Node30 -->
<g id="edge40" class="edge">
<title>Node33&#45;&gt;Node30</title>
<path fill="none" stroke="midnightblue" d="M577.74,-49.41C635.33,-52.77 780.45,-61.23 846.21,-65.06"/>
<polygon fill="midnightblue" stroke="midnightblue" points="846.23,-68.57 856.42,-65.65 846.64,-61.58 846.23,-68.57"/>
</g>
<!-- Node35 -->
<g id="node35" class="node">
<title>Node35</title>
<g id="a_node35"><a xlink:href="conf_8c.html#ab1da6502eeb02af2fb9fa8a84515b0b6" target="_top" xlink:title=" ">
<polygon fill="white" stroke="black" points="385,-152.5 385,-171.5 475,-171.5 475,-152.5 385,-152.5"/>
<text text-anchor="middle" x="430" y="-159.5" font-family="Helvetica,sans-Serif" font-size="10.00">conf_placeholder</text>
</a>
</g>
</g>
<!-- Node34&#45;&gt;Node35 -->
<g id="edge42" class="edge">
<title>Node34&#45;&gt;Node35</title>
<path fill="none" stroke="midnightblue" d="M346.19,-133.39C359.97,-138.15 376.91,-144 391.87,-149.17"/>
<polygon fill="midnightblue" stroke="midnightblue" points="390.76,-152.49 401.36,-152.45 393.05,-145.88 390.76,-152.49"/>
</g>
<!-- Node36 -->
<g id="node36" class="node">
<title>Node36</title>
<g id="a_node36"><a xlink:href="uc_8c.html#a45fdc2f2f3cb34515f1014bf754741bb" target="_top" xlink:title=" ">
<polygon fill="white" stroke="black" points="403.5,-114.5 403.5,-133.5 456.5,-133.5 456.5,-114.5 403.5,-114.5"/>
<text text-anchor="middle" x="430" y="-121.5" font-family="Helvetica,sans-Serif" font-size="10.00">uc_code</text>
</a>
</g>
</g>
<!-- Node34&#45;&gt;Node36 -->
<g id="edge43" class="edge">
<title>Node34&#45;&gt;Node36</title>
<path fill="none" stroke="midnightblue" d="M346.19,-124C360.35,-124 377.86,-124 393.12,-124"/>
<polygon fill="midnightblue" stroke="midnightblue" points="393.26,-127.5 403.26,-124 393.26,-120.5 393.26,-127.5"/>
</g>
<!-- Node37&#45;&gt;Node29 -->
<g id="edge48" class="edge">
<title>Node37&#45;&gt;Node29</title>
<path fill="none" stroke="midnightblue" d="M239.73,-10C278.26,-10 359.97,-10 429,-10 429,-10 429,-10 553.5,-10 627.8,-10 708.84,-49.36 748.44,-71.43"/>
<polygon fill="midnightblue" stroke="midnightblue" points="746.71,-74.48 757.14,-76.37 750.17,-68.39 746.71,-74.48"/>
</g>
</g>
</svg>
        <g id="navigator" transform="translate(0 0)" fill="#404254">
                <rect fill="#f2f5e9" fill-opacity="0.5" stroke="#606060" stroke-width=".5" x="0" y="0" width="60" height="60"/>
                <use id="zoomplus" xlink:href="#zoomPlus" x="17" y="9" onmousedown="handleZoom(evt,'in')"/>
                <use id="zoomminus" xlink:href="#zoomMin" x="42" y="9" onmousedown="handleZoom(evt,'out')"/>
                <use id="reset" xlink:href="#resetDef" x="30" y="36" onmousedown="handleReset()"/>
                <g id="arrowUp" xlink:href="#dirArrow" transform="translate(30 24)" onmousedown="handlePan(0,-1)">
                  <use xlink:href="#rim" fill="#404040">
                        <set attributeName="fill" to="#808080" begin="arrowUp.mouseover" end="arrowUp.mouseout"/>
                  </use>
                  <path fill="none" stroke="white" stroke-width="1.5" d="M0,-3.0v7 M-2.5,-0.5L0,-3.0L2.5,-0.5"/>
                </g>
                <g id="arrowRight" xlink:href="#dirArrow" transform="rotate(90) translate(36 -43)" onmousedown="handlePan(1,0)">
                  <use xlink:href="#rim" fill="#404040">
                        <set attributeName="fill" to="#808080" begin="arrowRight.mouseover" end="arrowRight.mouseout"/>
                  </use>
                  <path fill="none" stroke="white" stroke-width="1.5" d="M0,-3.0v7 M-2.5,-0.5L0,-3.0L2.5,-0.5"/>
                </g>
                <g id="arrowDown" xlink:href="#dirArrow" transform="rotate(180) translate(-30 -48)" onmousedown="handlePan(0,1)">
                  <use xlink:href="#rim" fill="#404040">
                        <set attributeName="fill" to="#808080" begin="arrowDown.mouseover" end="arrowDown.mouseout"/>
                  </use>
                  <path fill="none" stroke="white" stroke-width="1.5" d="M0,-3.0v7 M-2.5,-0.5L0,-3.0L2.5,-0.5"/>
                </g>
                <g id="arrowLeft" xlink:href="#dirArrow" transform="rotate(270) translate(-36 17)" onmousedown="handlePan(-1,0)">
                  <use xlink:href="#rim" fill="#404040">
                        <set attributeName="fill" to="#808080" begin="arrowLeft.mouseover" end="arrowLeft.mouseout"/>
                  </use>
                  <path fill="none" stroke="white" stroke-width="1.5" d="M0,-3.0v7 M-2.5,-0.5L0,-3.0L2.5,-0.5"/>
                </g>
        </g>
        <svg viewBox="0 0 15 15" width="100%" height="30px" preserveAspectRatio="xMaxYMin meet">
         <g id="arrow_out" transform="scale(0.3 0.3)">
          <a xlink:href="vi_8h_aa288077162077d17ddd836c0167a2ad0_cgraph_org.svg" target="_base">
           <rect id="button" ry="5" rx="5" y="6" x="6" height="38" width="38"
                fill="#f2f5e9" fill-opacity="0.5" stroke="#606060" stroke-width="1.0"/>
           <path id="arrow"
             d="M 11.500037,31.436501 C 11.940474,20.09759 22.043105,11.32322 32.158766,21.979434 L 37.068811,17.246167 C 37.068811,17.246167 37.088388,32 37.088388,32 L 22.160133,31.978069 C 22.160133,31.978069 26.997745,27.140456 26.997745,27.140456 C 18.528582,18.264221 13.291696,25.230495 11.500037,31.436501 z"
             style="fill:#404040;"/>
          </a>
         </g>
        </svg>
</svg>
