<?xml version="1.0" encoding="UTF-8" standalone="no"?>
<!DOCTYPE svg PUBLIC "-//W3C//DTD SVG 1.1//EN"
 "http://www.w3.org/Graphics/SVG/1.1/DTD/svg11.dtd">
<!-- Generated by graphviz version 2.44.1 (20200629.0846)
 -->
<!-- Title: rset_free Pages: 1 -->
<svg width="1133pt" height="626pt"
 viewBox="0.00 0.00 1133.00 626.00" xmlns="http://www.w3.org/2000/svg" xmlns:xlink="http://www.w3.org/1999/xlink">
<g id="graph0" class="graph" transform="scale(1 1) rotate(0) translate(4 622)">
<title>rset_free</title>
<polygon fill="white" stroke="transparent" points="-4,4 -4,-622 1129,-622 1129,4 -4,4"/>
<!-- Node1 -->
<g id="node1" class="node">
<title>Node1</title>
<g id="a_node1"><a xlink:title=" ">
<polygon fill="#bfbfbf" stroke="black" points="1070,-494.5 1070,-513.5 1125,-513.5 1125,-494.5 1070,-494.5"/>
<text text-anchor="middle" x="1097.5" y="-501.5" font-family="Helvetica,sans-Serif" font-size="10.00">rset_free</text>
</a>
</g>
</g>
<!-- Node2 -->
<g id="node2" class="node">
<title>Node2</title>
<g id="a_node2"><a xlink:href="vi_8h.html#a779c0dbde6ef290537b4b9b9c8026cf0" target="_top" xlink:title=" ">
<polygon fill="white" stroke="black" points="875.5,-598.5 875.5,-617.5 928.5,-617.5 928.5,-598.5 875.5,-598.5"/>
<text text-anchor="middle" x="902" y="-605.5" font-family="Helvetica,sans-Serif" font-size="10.00">dir_done</text>
</a>
</g>
</g>
<!-- Node1&#45;&gt;Node2 -->
<g id="edge1" class="edge">
<title>Node1&#45;&gt;Node2</title>
<path fill="none" stroke="midnightblue" d="M1087.11,-522.78C1076.75,-541.43 1058.28,-569.3 1034,-584 1001.36,-603.76 956.38,-608.02 928.52,-608.55"/>
<polygon fill="midnightblue" stroke="midnightblue" points="1090.3,-524.23 1091.89,-513.75 1084.12,-520.95 1090.3,-524.23"/>
</g>
<!-- Node4 -->
<g id="node4" class="node">
<title>Node4</title>
<g id="a_node4"><a xlink:href="ex_8c.html#a70c571bdde329a65e216c19b4aeaa628" target="_top" xlink:title=" ">
<polygon fill="white" stroke="black" points="559,-446.5 559,-465.5 609,-465.5 609,-446.5 559,-446.5"/>
<text text-anchor="middle" x="584" y="-453.5" font-family="Helvetica,sans-Serif" font-size="10.00">ec_glob</text>
</a>
</g>
</g>
<!-- Node1&#45;&gt;Node4 -->
<g id="edge3" class="edge">
<title>Node1&#45;&gt;Node4</title>
<path fill="none" stroke="midnightblue" d="M1071.48,-518.47C1035.47,-537.9 966.37,-570 903,-570 903,-570 903,-570 806.5,-570 743.93,-570 722,-580.84 667,-551 629.27,-530.53 601.05,-485.31 590.05,-465.55"/>
<polygon fill="midnightblue" stroke="midnightblue" points="1073.25,-521.49 1080.32,-513.6 1069.87,-515.36 1073.25,-521.49"/>
</g>
<!-- Node11 -->
<g id="node11" class="node">
<title>Node11</title>
<g id="a_node11"><a xlink:href="ex_8c.html#aaf4e813ce4370aa859181d22de51576b" target="_top" xlink:title=" ">
<polygon fill="white" stroke="black" points="667,-522.5 667,-541.5 742,-541.5 742,-522.5 667,-522.5"/>
<text text-anchor="middle" x="704.5" y="-529.5" font-family="Helvetica,sans-Serif" font-size="10.00">ec_substitute</text>
</a>
</g>
</g>
<!-- Node1&#45;&gt;Node11 -->
<g id="edge14" class="edge">
<title>Node1&#45;&gt;Node11</title>
<path fill="none" stroke="midnightblue" d="M1059.61,-506.64C984.9,-511.99 816.51,-524.05 742.07,-529.38"/>
<polygon fill="midnightblue" stroke="midnightblue" points="1060.21,-510.11 1069.93,-505.9 1059.71,-503.13 1060.21,-510.11"/>
</g>
<!-- Node12 -->
<g id="node12" class="node">
<title>Node12</title>
<g id="a_node12"><a xlink:href="ex_8c.html#af441de070082a23574854f6a2e5cd08a" target="_top" xlink:title=" ">
<polygon fill="white" stroke="black" points="969.5,-399.5 969.5,-418.5 1031.5,-418.5 1031.5,-399.5 969.5,-399.5"/>
<text text-anchor="middle" x="1000.5" y="-406.5" font-family="Helvetica,sans-Serif" font-size="10.00">ex_search</text>
</a>
</g>
</g>
<!-- Node1&#45;&gt;Node12 -->
<g id="edge15" class="edge">
<title>Node1&#45;&gt;Node12</title>
<path fill="none" stroke="midnightblue" d="M1079.47,-486.97C1059.51,-467.01 1027.14,-434.64 1011.11,-418.61"/>
<polygon fill="midnightblue" stroke="midnightblue" points="1077.15,-489.59 1086.69,-494.19 1082.09,-484.65 1077.15,-489.59"/>
</g>
<!-- Node30 -->
<g id="node30" class="node">
<title>Node30</title>
<g id="a_node30"><a xlink:href="vi_8h.html#a3501f6f6f283556b872bd145c6129d37" target="_top" xlink:title=" ">
<polygon fill="white" stroke="black" points="967,-244.5 967,-263.5 1034,-263.5 1034,-244.5 967,-244.5"/>
<text text-anchor="middle" x="1000.5" y="-251.5" font-family="Helvetica,sans-Serif" font-size="10.00">lbuf_search</text>
</a>
</g>
</g>
<!-- Node1&#45;&gt;Node30 -->
<g id="edge40" class="edge">
<title>Node1&#45;&gt;Node30</title>
<path fill="none" stroke="midnightblue" d="M1089.22,-484.83C1070.16,-434.69 1019.34,-300.95 1005.2,-263.73"/>
<polygon fill="midnightblue" stroke="midnightblue" points="1085.95,-486.1 1092.78,-494.2 1092.5,-483.61 1085.95,-486.1"/>
</g>
<!-- Node35 -->
<g id="node35" class="node">
<title>Node35</title>
<g id="a_node35"><a xlink:href="vi_8h.html#ac6e7a6d77f4896adf3a3ce36e0bb1573" target="_top" xlink:title=" ">
<polygon fill="white" stroke="black" points="778,-56.5 778,-75.5 837,-75.5 837,-56.5 778,-56.5"/>
<text text-anchor="middle" x="807.5" y="-63.5" font-family="Helvetica,sans-Serif" font-size="10.00">syn_done</text>
</a>
</g>
</g>
<!-- Node1&#45;&gt;Node35 -->
<g id="edge47" class="edge">
<title>Node1&#45;&gt;Node35</title>
<path fill="none" stroke="midnightblue" d="M1096.4,-484.19C1095.26,-437.09 1086.99,-316.25 1034,-235 981.08,-153.87 875.12,-97.14 829.83,-75.6"/>
<polygon fill="midnightblue" stroke="midnightblue" points="1092.9,-484.33 1096.56,-494.28 1099.9,-484.22 1092.9,-484.33"/>
</g>
<!-- Node3 -->
<g id="node3" class="node">
<title>Node3</title>
<g id="a_node3"><a xlink:href="vi_8c.html#a0ddf1224851353fc92bfbff6f499fa97" target="_top" xlink:title=" ">
<polygon fill="white" stroke="black" points="0,-104.5 0,-123.5 38,-123.5 38,-104.5 0,-104.5"/>
<text text-anchor="middle" x="19" y="-111.5" font-family="Helvetica,sans-Serif" font-size="10.00">main</text>
</a>
</g>
</g>
<!-- Node2&#45;&gt;Node3 -->
<g id="edge2" class="edge">
<title>Node2&#45;&gt;Node3</title>
<path fill="none" stroke="midnightblue" d="M865.27,-608C826.08,-608 761.31,-608 705.5,-608 705.5,-608 705.5,-608 191.5,-608 85.05,-608 29.72,-193.49 21.17,-123.87"/>
<polygon fill="midnightblue" stroke="midnightblue" points="865.38,-611.5 875.38,-608 865.38,-604.5 865.38,-611.5"/>
</g>
<!-- Node5 -->
<g id="node5" class="node">
<title>Node5</title>
<g id="a_node5"><a xlink:href="ex_8c.html#a7d848d20211b2e1c868dde98ec5dfae9" target="_top" xlink:title=" ">
<polygon fill="white" stroke="black" points="361.5,-285.5 361.5,-304.5 408.5,-304.5 408.5,-285.5 361.5,-285.5"/>
<text text-anchor="middle" x="385" y="-292.5" font-family="Helvetica,sans-Serif" font-size="10.00">ex_line</text>
</a>
</g>
</g>
<!-- Node4&#45;&gt;Node5 -->
<g id="edge4" class="edge">
<title>Node4&#45;&gt;Node5</title>
<path fill="none" stroke="midnightblue" d="M569.39,-438.33C554.07,-419.13 527.81,-388.24 501,-366 469.94,-340.23 428.7,-317.04 404.99,-304.59"/>
<polygon fill="midnightblue" stroke="midnightblue" points="566.69,-440.55 575.62,-446.25 572.19,-436.23 566.69,-440.55"/>
</g>
<!-- Node6 -->
<g id="node6" class="node">
<title>Node6</title>
<g id="a_node6"><a xlink:href="ex_8c.html#ab15ebfef933256d9741128e2ddf3f9b5" target="_top" xlink:title=" ">
<polygon fill="white" stroke="black" points="269,-285.5 269,-304.5 322,-304.5 322,-285.5 269,-285.5"/>
<text text-anchor="middle" x="295.5" y="-292.5" font-family="Helvetica,sans-Serif" font-size="10.00">ex_exec</text>
</a>
</g>
</g>
<!-- Node5&#45;&gt;Node6 -->
<g id="edge5" class="edge">
<title>Node5&#45;&gt;Node6</title>
<path fill="none" stroke="midnightblue" d="M351.36,-295C341.68,-295 331.21,-295 322.05,-295"/>
<polygon fill="midnightblue" stroke="midnightblue" points="351.47,-298.5 361.47,-295 351.47,-291.5 351.47,-298.5"/>
</g>
<!-- Node6&#45;&gt;Node4 -->
<g id="edge6" class="edge">
<title>Node6&#45;&gt;Node4</title>
<path fill="none" stroke="midnightblue" d="M322.32,-309.51C379.93,-341.88 517.67,-419.29 565.94,-446.41"/>
<polygon fill="midnightblue" stroke="midnightblue" points="323.91,-306.39 313.47,-304.54 320.48,-312.49 323.91,-306.39"/>
</g>
<!-- Node7 -->
<g id="node7" class="node">
<title>Node7</title>
<g id="a_node7"><a xlink:href="vi_8h.html#aa75c73cccb4878ec06ea5bf5b1b02295" target="_top" xlink:title=" ">
<polygon fill="white" stroke="black" points="155,-142.5 155,-161.5 230,-161.5 230,-142.5 155,-142.5"/>
<text text-anchor="middle" x="192.5" y="-149.5" font-family="Helvetica,sans-Serif" font-size="10.00">ex_command</text>
</a>
</g>
</g>
<!-- Node6&#45;&gt;Node7 -->
<g id="edge7" class="edge">
<title>Node6&#45;&gt;Node7</title>
<path fill="none" stroke="midnightblue" d="M281.55,-276.67C259.83,-245.91 216.8,-184.99 200.22,-161.52"/>
<polygon fill="midnightblue" stroke="midnightblue" points="278.93,-279.02 287.56,-285.17 284.65,-274.98 278.93,-279.02"/>
</g>
<!-- Node8 -->
<g id="node8" class="node">
<title>Node8</title>
<g id="a_node8"><a xlink:href="vi_8h.html#ac395e51f25330a6e6033b6d0d22b2076" target="_top" xlink:title=" ">
<polygon fill="white" stroke="black" points="82,-142.5 82,-161.5 111,-161.5 111,-142.5 82,-142.5"/>
<text text-anchor="middle" x="96.5" y="-149.5" font-family="Helvetica,sans-Serif" font-size="10.00">ex</text>
</a>
</g>
</g>
<!-- Node7&#45;&gt;Node8 -->
<g id="edge8" class="edge">
<title>Node7&#45;&gt;Node8</title>
<path fill="none" stroke="midnightblue" d="M144.73,-152C132.54,-152 120.33,-152 111.38,-152"/>
<polygon fill="midnightblue" stroke="midnightblue" points="144.89,-155.5 154.89,-152 144.89,-148.5 144.89,-155.5"/>
</g>
<!-- Node9 -->
<g id="node9" class="node">
<title>Node9</title>
<g id="a_node9"><a xlink:href="vi_8h.html#abe53b5c10f94f20cd5ed024371615fa1" target="_top" xlink:title=" ">
<polygon fill="white" stroke="black" points="74,-104.5 74,-123.5 119,-123.5 119,-104.5 74,-104.5"/>
<text text-anchor="middle" x="96.5" y="-111.5" font-family="Helvetica,sans-Serif" font-size="10.00">ex_init</text>
</a>
</g>
</g>
<!-- Node7&#45;&gt;Node9 -->
<g id="edge10" class="edge">
<title>Node7&#45;&gt;Node9</title>
<path fill="none" stroke="midnightblue" d="M158.25,-138.56C145.31,-133.33 130.85,-127.48 119.28,-122.8"/>
<polygon fill="midnightblue" stroke="midnightblue" points="157.2,-141.91 167.78,-142.41 159.82,-135.42 157.2,-141.91"/>
</g>
<!-- Node10 -->
<g id="node10" class="node">
<title>Node10</title>
<g id="a_node10"><a xlink:href="vi_8c.html#a8d808e0f3453afe6600673ee1ea5f828" target="_top" xlink:title=" ">
<polygon fill="white" stroke="black" points="82,-66.5 82,-85.5 111,-85.5 111,-66.5 82,-66.5"/>
<text text-anchor="middle" x="96.5" y="-73.5" font-family="Helvetica,sans-Serif" font-size="10.00">vi</text>
</a>
</g>
</g>
<!-- Node7&#45;&gt;Node10 -->
<g id="edge12" class="edge">
<title>Node7&#45;&gt;Node10</title>
<path fill="none" stroke="midnightblue" d="M171.61,-135.92C152.72,-120.65 124.94,-98.18 109.31,-85.55"/>
<polygon fill="midnightblue" stroke="midnightblue" points="169.62,-138.81 179.59,-142.37 174.02,-133.37 169.62,-138.81"/>
</g>
<!-- Node8&#45;&gt;Node3 -->
<g id="edge9" class="edge">
<title>Node8&#45;&gt;Node3</title>
<path fill="none" stroke="midnightblue" d="M72.56,-140.45C61.48,-134.88 48.39,-128.29 38.04,-123.08"/>
<polygon fill="midnightblue" stroke="midnightblue" points="71.15,-143.66 81.65,-145.03 74.29,-137.41 71.15,-143.66"/>
</g>
<!-- Node9&#45;&gt;Node3 -->
<g id="edge11" class="edge">
<title>Node9&#45;&gt;Node3</title>
<path fill="none" stroke="midnightblue" d="M63.55,-114C54.99,-114 46.03,-114 38.47,-114"/>
<polygon fill="midnightblue" stroke="midnightblue" points="63.66,-117.5 73.66,-114 63.66,-110.5 63.66,-117.5"/>
</g>
<!-- Node10&#45;&gt;Node3 -->
<g id="edge13" class="edge">
<title>Node10&#45;&gt;Node3</title>
<path fill="none" stroke="midnightblue" d="M72.56,-87.55C61.48,-93.12 48.39,-99.71 38.04,-104.92"/>
<polygon fill="midnightblue" stroke="midnightblue" points="74.29,-90.59 81.65,-82.97 71.15,-84.34 74.29,-90.59"/>
</g>
<!-- Node13 -->
<g id="node13" class="node">
<title>Node13</title>
<g id="a_node13"><a xlink:href="ex_8c.html#a18295939fcd9d9ef517157b0f4ff5f97" target="_top" xlink:title=" ">
<polygon fill="white" stroke="black" points="873,-371.5 873,-390.5 931,-390.5 931,-371.5 873,-371.5"/>
<text text-anchor="middle" x="902" y="-378.5" font-family="Helvetica,sans-Serif" font-size="10.00">ex_lineno</text>
</a>
</g>
</g>
<!-- Node12&#45;&gt;Node13 -->
<g id="edge16" class="edge">
<title>Node12&#45;&gt;Node13</title>
<path fill="none" stroke="midnightblue" d="M959.69,-397.45C950.06,-394.66 939.97,-391.73 931.01,-389.13"/>
<polygon fill="midnightblue" stroke="midnightblue" points="958.92,-400.87 969.5,-400.29 960.87,-394.15 958.92,-400.87"/>
</g>
<!-- Node14 -->
<g id="node14" class="node">
<title>Node14</title>
<g id="a_node14"><a xlink:href="ex_8c.html#a0389d594366ccbd24d732bdfd870f763" target="_top" xlink:title=" ">
<polygon fill="white" stroke="black" points="778,-315.5 778,-334.5 837,-334.5 837,-315.5 778,-315.5"/>
<text text-anchor="middle" x="807.5" y="-322.5" font-family="Helvetica,sans-Serif" font-size="10.00">ex_region</text>
</a>
</g>
</g>
<!-- Node13&#45;&gt;Node14 -->
<g id="edge17" class="edge">
<title>Node13&#45;&gt;Node14</title>
<path fill="none" stroke="midnightblue" d="M876.3,-366.05C859.84,-356.08 838.69,-343.28 824.43,-334.64"/>
<polygon fill="midnightblue" stroke="midnightblue" points="874.52,-369.06 884.89,-371.25 878.15,-363.07 874.52,-369.06"/>
</g>
<!-- Node14&#45;&gt;Node4 -->
<g id="edge21" class="edge">
<title>Node14&#45;&gt;Node4</title>
<path fill="none" stroke="midnightblue" d="M804.73,-344.56C800.53,-378.05 786.67,-445.58 742,-475 699.12,-503.24 635.11,-480.08 603.72,-465.55"/>
<polygon fill="midnightblue" stroke="midnightblue" points="808.21,-344.94 805.82,-334.62 801.25,-344.18 808.21,-344.94"/>
</g>
<!-- Node14&#45;&gt;Node11 -->
<g id="edge30" class="edge">
<title>Node14&#45;&gt;Node11</title>
<path fill="none" stroke="midnightblue" d="M803.75,-344.94C797.94,-380.89 781.53,-457.49 742,-508 737.51,-513.73 731.26,-518.54 725.19,-522.31"/>
<polygon fill="midnightblue" stroke="midnightblue" points="807.25,-345.2 805.28,-334.79 800.33,-344.15 807.25,-345.2"/>
</g>
<!-- Node15 -->
<g id="node15" class="node">
<title>Node15</title>
<g id="a_node15"><a xlink:href="ex_8c.html#a4cd0748447515b7a935e4bb41424a9e4" target="_top" xlink:title=" ">
<polygon fill="white" stroke="black" points="675,-66.5 675,-85.5 734,-85.5 734,-66.5 675,-66.5"/>
<text text-anchor="middle" x="704.5" y="-73.5" font-family="Helvetica,sans-Serif" font-size="10.00">ec_delete</text>
</a>
</g>
</g>
<!-- Node14&#45;&gt;Node15 -->
<g id="edge18" class="edge">
<title>Node14&#45;&gt;Node15</title>
<path fill="none" stroke="midnightblue" d="M794.72,-306.75C788.93,-297.06 782.29,-284.75 778,-273 750.29,-197.19 790.54,-159.49 742,-95 739.16,-91.23 735.37,-88.15 731.29,-85.64"/>
<polygon fill="midnightblue" stroke="midnightblue" points="791.87,-308.79 800.11,-315.45 797.82,-305.11 791.87,-308.79"/>
</g>
<!-- Node16 -->
<g id="node16" class="node">
<title>Node16</title>
<g id="a_node16"><a xlink:href="ex_8c.html#adcd83f163f659bd2596bcfc25d74bde9" target="_top" xlink:title=" ">
<polygon fill="white" stroke="black" points="446.5,-256.5 446.5,-275.5 499.5,-275.5 499.5,-256.5 446.5,-256.5"/>
<text text-anchor="middle" x="473" y="-263.5" font-family="Helvetica,sans-Serif" font-size="10.00">ec_exec</text>
</a>
</g>
</g>
<!-- Node14&#45;&gt;Node16 -->
<g id="edge19" class="edge">
<title>Node14&#45;&gt;Node16</title>
<path fill="none" stroke="midnightblue" d="M767.9,-318.15C699.34,-305.99 558.08,-280.92 499.91,-270.6"/>
<polygon fill="midnightblue" stroke="midnightblue" points="767.41,-321.62 777.86,-319.92 768.63,-314.73 767.41,-321.62"/>
</g>
<!-- Node17 -->
<g id="node17" class="node">
<title>Node17</title>
<g id="a_node17"><a xlink:href="ex_8c.html#a0908784dc65be2da119a6b72ef96dec2" target="_top" xlink:title=" ">
<polygon fill="white" stroke="black" points="676.5,-446.5 676.5,-465.5 732.5,-465.5 732.5,-446.5 676.5,-446.5"/>
<text text-anchor="middle" x="704.5" y="-453.5" font-family="Helvetica,sans-Serif" font-size="10.00">ec_insert</text>
</a>
</g>
</g>
<!-- Node14&#45;&gt;Node17 -->
<g id="edge22" class="edge">
<title>Node14&#45;&gt;Node17</title>
<path fill="none" stroke="midnightblue" d="M799.45,-344.07C789.71,-368.27 770.08,-410.09 742,-437 738.18,-440.66 733.52,-443.79 728.83,-446.39"/>
<polygon fill="midnightblue" stroke="midnightblue" points="802.78,-345.18 803.13,-334.59 796.25,-342.65 802.78,-345.18"/>
</g>
<!-- Node18 -->
<g id="node18" class="node">
<title>Node18</title>
<g id="a_node18"><a xlink:href="ex_8c.html#a1d45a70b724f4cccae2ab746c711ebb1" target="_top" xlink:title=" ">
<polygon fill="white" stroke="black" points="678,-408.5 678,-427.5 731,-427.5 731,-408.5 678,-408.5"/>
<text text-anchor="middle" x="704.5" y="-415.5" font-family="Helvetica,sans-Serif" font-size="10.00">ec_lnum</text>
</a>
</g>
</g>
<!-- Node14&#45;&gt;Node18 -->
<g id="edge23" class="edge">
<title>Node14&#45;&gt;Node18</title>
<path fill="none" stroke="midnightblue" d="M793.72,-343.21C781.73,-359.34 762.6,-382.79 742,-399 737.51,-402.54 732.26,-405.72 727.17,-408.42"/>
<polygon fill="midnightblue" stroke="midnightblue" points="796.88,-344.82 799.91,-334.66 791.21,-340.71 796.88,-344.82"/>
</g>
<!-- Node19 -->
<g id="node19" class="node">
<title>Node19</title>
<g id="a_node19"><a xlink:href="ex_8c.html#ab95c9f0f009989c44f3ebb5abae4054d" target="_top" xlink:title=" ">
<polygon fill="white" stroke="black" points="677.5,-370.5 677.5,-389.5 731.5,-389.5 731.5,-370.5 677.5,-370.5"/>
<text text-anchor="middle" x="704.5" y="-377.5" font-family="Helvetica,sans-Serif" font-size="10.00">ec_mark</text>
</a>
</g>
</g>
<!-- Node14&#45;&gt;Node19 -->
<g id="edge24" class="edge">
<title>Node14&#45;&gt;Node19</title>
<path fill="none" stroke="midnightblue" d="M780.74,-339.6C768.97,-346.22 754.83,-354.08 742,-361 736.21,-364.12 729.87,-367.45 724.12,-370.44"/>
<polygon fill="midnightblue" stroke="midnightblue" points="782.61,-342.57 789.6,-334.61 779.17,-336.47 782.61,-342.57"/>
</g>
<!-- Node20 -->
<g id="node20" class="node">
<title>Node20</title>
<g id="a_node20"><a xlink:href="ex_8c.html#affb8197a8f988443aadf1bf2800a0d0b" target="_top" xlink:title=" ">
<polygon fill="white" stroke="black" points="560.5,-313.5 560.5,-332.5 607.5,-332.5 607.5,-313.5 560.5,-313.5"/>
<text text-anchor="middle" x="584" y="-320.5" font-family="Helvetica,sans-Serif" font-size="10.00">ec_null</text>
</a>
</g>
</g>
<!-- Node14&#45;&gt;Node20 -->
<g id="edge25" class="edge">
<title>Node14&#45;&gt;Node20</title>
<path fill="none" stroke="midnightblue" d="M767.84,-323.61C759.33,-323.35 750.36,-323.13 742,-323 694.17,-322.26 638.13,-322.53 607.62,-322.78"/>
<polygon fill="midnightblue" stroke="midnightblue" points="767.82,-327.11 777.93,-323.92 768.04,-320.11 767.82,-327.11"/>
</g>
<!-- Node21 -->
<g id="node21" class="node">
<title>Node21</title>
<g id="a_node21"><a xlink:href="ex_8c.html#ad2c1a9505aa3097bac242b47a367f11d" target="_top" xlink:title=" ">
<polygon fill="white" stroke="black" points="679,-332.5 679,-351.5 730,-351.5 730,-332.5 679,-332.5"/>
<text text-anchor="middle" x="704.5" y="-339.5" font-family="Helvetica,sans-Serif" font-size="10.00">ec_print</text>
</a>
</g>
</g>
<!-- Node14&#45;&gt;Node21 -->
<g id="edge26" class="edge">
<title>Node14&#45;&gt;Node21</title>
<path fill="none" stroke="midnightblue" d="M767.94,-331.49C755.25,-333.63 741.49,-335.94 730.13,-337.85"/>
<polygon fill="midnightblue" stroke="midnightblue" points="768.55,-334.94 777.83,-329.83 767.39,-328.03 768.55,-334.94"/>
</g>
<!-- Node22 -->
<g id="node22" class="node">
<title>Node22</title>
<g id="a_node22"><a xlink:href="ex_8c.html#ab417867ff867aff9f7277229990cd1b8" target="_top" xlink:title=" ">
<polygon fill="white" stroke="black" points="681.5,-218.5 681.5,-237.5 727.5,-237.5 727.5,-218.5 681.5,-218.5"/>
<text text-anchor="middle" x="704.5" y="-225.5" font-family="Helvetica,sans-Serif" font-size="10.00">ec_put</text>
</a>
</g>
</g>
<!-- Node14&#45;&gt;Node22 -->
<g id="edge28" class="edge">
<title>Node14&#45;&gt;Node22</title>
<path fill="none" stroke="midnightblue" d="M792.86,-307.03C780.55,-291.46 761.44,-268.86 742,-252 735.93,-246.73 728.62,-241.71 722.15,-237.64"/>
<polygon fill="midnightblue" stroke="midnightblue" points="790.38,-309.53 799.28,-315.28 795.91,-305.24 790.38,-309.53"/>
</g>
<!-- Node23 -->
<g id="node23" class="node">
<title>Node23</title>
<g id="a_node23"><a xlink:href="ex_8c.html#add0e79e1f1e3d45f4eaa6fbe5c1ca443" target="_top" xlink:title=" ">
<polygon fill="white" stroke="black" points="679,-180.5 679,-199.5 730,-199.5 730,-180.5 679,-180.5"/>
<text text-anchor="middle" x="704.5" y="-187.5" font-family="Helvetica,sans-Serif" font-size="10.00">ec_read</text>
</a>
</g>
</g>
<!-- Node14&#45;&gt;Node23 -->
<g id="edge29" class="edge">
<title>Node14&#45;&gt;Node23</title>
<path fill="none" stroke="midnightblue" d="M796.33,-306.38C778.65,-274.09 743.96,-210.91 742,-209 738.21,-205.31 733.56,-202.17 728.87,-199.57"/>
<polygon fill="midnightblue" stroke="midnightblue" points="793.34,-308.22 801.21,-315.31 799.48,-304.86 793.34,-308.22"/>
</g>
<!-- Node24 -->
<g id="node24" class="node">
<title>Node24</title>
<g id="a_node24"><a xlink:href="ex_8c.html#a057b67e2d4f23df3ad50a9d3ec86125b" target="_top" xlink:title=" ">
<polygon fill="white" stroke="black" points="678,-104.5 678,-123.5 731,-123.5 731,-104.5 678,-104.5"/>
<text text-anchor="middle" x="704.5" y="-111.5" font-family="Helvetica,sans-Serif" font-size="10.00">ec_write</text>
</a>
</g>
</g>
<!-- Node14&#45;&gt;Node24 -->
<g id="edge31" class="edge">
<title>Node14&#45;&gt;Node24</title>
<path fill="none" stroke="midnightblue" d="M794.97,-306.65C789.25,-296.94 782.6,-284.63 778,-273 754.38,-213.25 781.96,-183.31 742,-133 738.98,-129.2 734.99,-126.07 730.75,-123.54"/>
<polygon fill="midnightblue" stroke="midnightblue" points="792.09,-308.66 800.27,-315.39 798.08,-305.02 792.09,-308.66"/>
</g>
<!-- Node29 -->
<g id="node29" class="node">
<title>Node29</title>
<g id="a_node29"><a xlink:href="ex_8c.html#a487b22f0ae712d3338f5e9d8d6fa8540" target="_top" xlink:title=" ">
<polygon fill="white" stroke="black" points="678,-142.5 678,-161.5 731,-161.5 731,-142.5 678,-142.5"/>
<text text-anchor="middle" x="704.5" y="-149.5" font-family="Helvetica,sans-Serif" font-size="10.00">ec_yank</text>
</a>
</g>
</g>
<!-- Node14&#45;&gt;Node29 -->
<g id="edge39" class="edge">
<title>Node14&#45;&gt;Node29</title>
<path fill="none" stroke="midnightblue" d="M795.39,-306.48C789.78,-296.71 783.1,-284.42 778,-273 758.38,-229.11 773.52,-207.3 742,-171 738.72,-167.22 734.51,-164.09 730.11,-161.54"/>
<polygon fill="midnightblue" stroke="midnightblue" points="792.47,-308.42 800.55,-315.27 798.51,-304.88 792.47,-308.42"/>
</g>
<!-- Node16&#45;&gt;Node5 -->
<g id="edge20" class="edge">
<title>Node16&#45;&gt;Node5</title>
<path fill="none" stroke="midnightblue" d="M436.59,-277.94C427.12,-281.13 417.14,-284.5 408.58,-287.39"/>
<polygon fill="midnightblue" stroke="midnightblue" points="437.84,-281.21 446.2,-274.7 435.6,-274.58 437.84,-281.21"/>
</g>
<!-- Node21&#45;&gt;Node20 -->
<g id="edge27" class="edge">
<title>Node21&#45;&gt;Node20</title>
<path fill="none" stroke="midnightblue" d="M669.05,-336.48C649.23,-333.3 624.89,-329.4 607.52,-326.61"/>
<polygon fill="midnightblue" stroke="midnightblue" points="668.52,-339.94 678.95,-338.06 669.63,-333.02 668.52,-339.94"/>
</g>
<!-- Node25 -->
<g id="node25" class="node">
<title>Node25</title>
<g id="a_node25"><a xlink:href="ex_8c.html#ab0cb848a971a3b2c09fcb456d887dd6b" target="_top" xlink:title=" ">
<polygon fill="white" stroke="black" points="537,-104.5 537,-123.5 631,-123.5 631,-104.5 537,-104.5"/>
<text text-anchor="middle" x="584" y="-111.5" font-family="Helvetica,sans-Serif" font-size="10.00">ex_modifiedbuffer</text>
</a>
</g>
</g>
<!-- Node24&#45;&gt;Node25 -->
<g id="edge32" class="edge">
<title>Node24&#45;&gt;Node25</title>
<path fill="none" stroke="midnightblue" d="M667.7,-114C656.21,-114 643.33,-114 631.21,-114"/>
<polygon fill="midnightblue" stroke="midnightblue" points="667.79,-117.5 677.79,-114 667.79,-110.5 667.79,-117.5"/>
</g>
<!-- Node25&#45;&gt;Node16 -->
<g id="edge35" class="edge">
<title>Node25&#45;&gt;Node16</title>
<path fill="none" stroke="midnightblue" d="M570.07,-132.03C546.8,-164.48 498.63,-231.65 480.82,-256.5"/>
<polygon fill="midnightblue" stroke="midnightblue" points="573.2,-133.67 576.18,-123.51 567.51,-129.6 573.2,-133.67"/>
</g>
<!-- Node26 -->
<g id="node26" class="node">
<title>Node26</title>
<g id="a_node26"><a xlink:href="ex_8c.html#a8059390ad69866fa8e14bdb2521d4dc2" target="_top" xlink:title=" ">
<polygon fill="white" stroke="black" points="361,-104.5 361,-123.5 409,-123.5 409,-104.5 361,-104.5"/>
<text text-anchor="middle" x="385" y="-111.5" font-family="Helvetica,sans-Serif" font-size="10.00">ec_edit</text>
</a>
</g>
</g>
<!-- Node25&#45;&gt;Node26 -->
<g id="edge33" class="edge">
<title>Node25&#45;&gt;Node26</title>
<path fill="none" stroke="midnightblue" d="M526.66,-114C487.72,-114 437.95,-114 409.25,-114"/>
<polygon fill="midnightblue" stroke="midnightblue" points="526.81,-117.5 536.81,-114 526.81,-110.5 526.81,-117.5"/>
</g>
<!-- Node27 -->
<g id="node27" class="node">
<title>Node27</title>
<g id="a_node27"><a xlink:href="ex_8c.html#aa69f426ff9728078fbb36f448c624a90" target="_top" xlink:title=" ">
<polygon fill="white" stroke="black" points="445,-66.5 445,-85.5 501,-85.5 501,-66.5 445,-66.5"/>
<text text-anchor="middle" x="473" y="-73.5" font-family="Helvetica,sans-Serif" font-size="10.00">ec_make</text>
</a>
</g>
</g>
<!-- Node25&#45;&gt;Node27 -->
<g id="edge36" class="edge">
<title>Node25&#45;&gt;Node27</title>
<path fill="none" stroke="midnightblue" d="M545.71,-101C531.08,-95.9 514.59,-90.15 501.12,-85.45"/>
<polygon fill="midnightblue" stroke="midnightblue" points="544.9,-104.42 555.49,-104.41 547.2,-97.81 544.9,-104.42"/>
</g>
<!-- Node28 -->
<g id="node28" class="node">
<title>Node28</title>
<g id="a_node28"><a xlink:href="ex_8c.html#a87eef446de152fad41ce88a9a343b87d" target="_top" xlink:title=" ">
<polygon fill="white" stroke="black" points="449,-142.5 449,-161.5 497,-161.5 497,-142.5 449,-142.5"/>
<text text-anchor="middle" x="473" y="-149.5" font-family="Helvetica,sans-Serif" font-size="10.00">ec_quit</text>
</a>
</g>
</g>
<!-- Node25&#45;&gt;Node28 -->
<g id="edge37" class="edge">
<title>Node25&#45;&gt;Node28</title>
<path fill="none" stroke="midnightblue" d="M545.79,-126.97C529.63,-132.61 511.21,-139.03 497.07,-143.96"/>
<polygon fill="midnightblue" stroke="midnightblue" points="547.2,-130.19 555.49,-123.59 544.9,-123.58 547.2,-130.19"/>
</g>
<!-- Node26&#45;&gt;Node9 -->
<g id="edge34" class="edge">
<title>Node26&#45;&gt;Node9</title>
<path fill="none" stroke="midnightblue" d="M350.2,-114C290.72,-114 168.93,-114 119.29,-114"/>
<polygon fill="midnightblue" stroke="midnightblue" points="350.55,-117.5 360.55,-114 350.55,-110.5 350.55,-117.5"/>
</g>
<!-- Node28&#45;&gt;Node24 -->
<g id="edge38" class="edge">
<title>Node28&#45;&gt;Node24</title>
<path fill="none" stroke="midnightblue" d="M507.14,-149.31C539.06,-146.4 588.6,-141.08 631,-133 646.72,-130 664.07,-125.5 677.86,-121.63"/>
<polygon fill="midnightblue" stroke="midnightblue" points="506.69,-145.83 497.03,-150.2 507.3,-152.81 506.69,-145.83"/>
</g>
<!-- Node31 -->
<g id="node31" class="node">
<title>Node31</title>
<g id="a_node31"><a xlink:href="vi_8c.html#a631f59a25254f28f308f7de4897e09fa" target="_top" xlink:title=" ">
<polygon fill="white" stroke="black" points="879,-244.5 879,-263.5 925,-263.5 925,-244.5 879,-244.5"/>
<text text-anchor="middle" x="902" y="-251.5" font-family="Helvetica,sans-Serif" font-size="10.00">search</text>
</a>
</g>
</g>
<!-- Node30&#45;&gt;Node31 -->
<g id="edge41" class="edge">
<title>Node30&#45;&gt;Node31</title>
<path fill="none" stroke="midnightblue" d="M956.56,-254C945.65,-254 934.38,-254 925,-254"/>
<polygon fill="midnightblue" stroke="midnightblue" points="956.83,-257.5 966.83,-254 956.83,-250.5 956.83,-257.5"/>
</g>
<!-- Node32 -->
<g id="node32" class="node">
<title>Node32</title>
<g id="a_node32"><a xlink:href="vi_8c.html#a93701c59617d4f96cbaa207e89178f87" target="_top" xlink:title=" ">
<polygon fill="white" stroke="black" points="778,-244.5 778,-263.5 837,-263.5 837,-244.5 778,-244.5"/>
<text text-anchor="middle" x="807.5" y="-251.5" font-family="Helvetica,sans-Serif" font-size="10.00">vi_search</text>
</a>
</g>
</g>
<!-- Node31&#45;&gt;Node32 -->
<g id="edge42" class="edge">
<title>Node31&#45;&gt;Node32</title>
<path fill="none" stroke="midnightblue" d="M868.48,-254C858.33,-254 847.22,-254 837.34,-254"/>
<polygon fill="midnightblue" stroke="midnightblue" points="868.61,-257.5 878.61,-254 868.61,-250.5 868.61,-257.5"/>
</g>
<!-- Node33 -->
<g id="node33" class="node">
<title>Node33</title>
<g id="a_node33"><a xlink:href="vi_8c.html#aaa4777ea0715ea846346d0f27a0cfa3f" target="_top" xlink:title=" ">
<polygon fill="white" stroke="black" points="266,-28.5 266,-47.5 325,-47.5 325,-28.5 266,-28.5"/>
<text text-anchor="middle" x="295.5" y="-35.5" font-family="Helvetica,sans-Serif" font-size="10.00">vi_motion</text>
</a>
</g>
</g>
<!-- Node32&#45;&gt;Node33 -->
<g id="edge43" class="edge">
<title>Node32&#45;&gt;Node33</title>
<path fill="none" stroke="midnightblue" d="M806.52,-234.05C805.37,-193.55 796.55,-101.78 742,-57 687.68,-12.4 655.29,-38 585,-38 585,-38 585,-38 472,-38 420.2,-38 359.81,-38 325.07,-38"/>
<polygon fill="midnightblue" stroke="midnightblue" points="803.02,-234.29 806.67,-244.24 810.02,-234.19 803.02,-234.29"/>
</g>
<!-- Node33&#45;&gt;Node10 -->
<g id="edge46" class="edge">
<title>Node33&#45;&gt;Node10</title>
<path fill="none" stroke="midnightblue" d="M256.11,-50.29C247.57,-52.75 238.53,-55.14 230,-57 187.08,-66.35 135.32,-72.25 111.16,-74.7"/>
<polygon fill="midnightblue" stroke="midnightblue" points="257.24,-53.61 265.83,-47.41 255.25,-46.9 257.24,-53.61"/>
</g>
<!-- Node34 -->
<g id="node34" class="node">
<title>Node34</title>
<g id="a_node34"><a xlink:href="vi_8c.html#a06cbc6eb843436a0e77e07cbab0c4538" target="_top" xlink:title=" ">
<polygon fill="white" stroke="black" points="161.5,-28.5 161.5,-47.5 223.5,-47.5 223.5,-28.5 161.5,-28.5"/>
<text text-anchor="middle" x="192.5" y="-35.5" font-family="Helvetica,sans-Serif" font-size="10.00">vc_motion</text>
</a>
</g>
</g>
<!-- Node33&#45;&gt;Node34 -->
<g id="edge44" class="edge">
<title>Node33&#45;&gt;Node34</title>
<path fill="none" stroke="midnightblue" d="M255.56,-38C244.97,-38 233.67,-38 223.65,-38"/>
<polygon fill="midnightblue" stroke="midnightblue" points="255.83,-41.5 265.83,-38 255.83,-34.5 255.83,-41.5"/>
</g>
<!-- Node34&#45;&gt;Node10 -->
<g id="edge45" class="edge">
<title>Node34&#45;&gt;Node10</title>
<path fill="none" stroke="midnightblue" d="M158.07,-51.52C141.85,-58.07 123.28,-65.58 111.02,-70.53"/>
<polygon fill="midnightblue" stroke="midnightblue" points="159.82,-54.58 167.78,-47.59 157.2,-48.09 159.82,-54.58"/>
</g>
<!-- Node35&#45;&gt;Node3 -->
<g id="edge48" class="edge">
<title>Node35&#45;&gt;Node3</title>
<path fill="none" stroke="midnightblue" d="M785.42,-50.48C773.29,-42.29 757.44,-32.76 742,-27 675.66,-2.25 655.8,0 585,0 585,0 585,0 191.5,0 116.42,0 49.11,-76.71 27.35,-104.28"/>
<polygon fill="midnightblue" stroke="midnightblue" points="783.69,-53.55 793.9,-56.41 787.7,-47.81 783.69,-53.55"/>
</g>
</g>
</svg>
