<?xml version="1.0" encoding="UTF-8" standalone="no"?>
<!DOCTYPE svg PUBLIC "-//W3C//DTD SVG 1.1//EN"
 "http://www.w3.org/Graphics/SVG/1.1/DTD/svg11.dtd">
<!-- Generated by graphviz version 2.44.1 (20200629.0846)
 -->
<!-- Title: led_pos Pages: 1 -->
<!--zoomable 210 -->
<svg id="main" version="1.1" xmlns="http://www.w3.org/2000/svg" xmlns:xlink="http://www.w3.org/1999/xlink" xml:space="preserve" onload="init(evt)">
<style type="text/css"><![CDATA[
.edge:hover path { stroke: red; }
.edge:hover polygon { stroke: red; fill: red; }
]]></style>
<script type="text/javascript"><![CDATA[
var edges = document.getElementsByTagName('g');
if (edges && edges.length) {
  for (var i=0;i<edges.length;i++) {
    if (edges[i].id.substr(0,4)=='edge') {
      edges[i].setAttribute('class','edge');
    }
  }
}
]]></script>
        <defs>
                <circle id="rim" cx="0" cy="0" r="7"/>
                <circle id="rim2" cx="0" cy="0" r="3.5"/>
                <g id="zoomPlus">
                        <use xlink:href="#rim" fill="#404040">
                                <set attributeName="fill" to="#808080" begin="zoomplus.mouseover" end="zoomplus.mouseout"/>
                        </use>
                        <path d="M-4,0h8M0,-4v8" fill="none" stroke="white" stroke-width="1.5" pointer-events="none"/>
                </g>
                <g id="zoomMin">
                        <use xlink:href="#rim" fill="#404040">
                                <set attributeName="fill" to="#808080" begin="zoomminus.mouseover" end="zoomminus.mouseout"/>
                        </use>
                        <path d="M-4,0h8" fill="none" stroke="white" stroke-width="1.5" pointer-events="none"/>
                </g>
                <g id="dirArrow">
                        <path fill="none" stroke="white" stroke-width="1.5" d="M0,-3.0v7 M-2.5,-0.5L0,-3.0L2.5,-0.5"/>
                </g>
               <g id="resetDef">
                       <use xlink:href="#rim2" fill="#404040">
                               <set attributeName="fill" to="#808080" begin="reset.mouseover" end="reset.mouseout"/>
                       </use>
               </g>
        </defs>

<script type="text/javascript">
var viewWidth = 844;
var viewHeight = 210;
var sectionId = 'dynsection-163';
</script>
<script xlink:href="svgpan.js"/>
<svg id="graph" class="graph">
<g id="viewport">
<title>led_pos</title>
<polygon fill="white" stroke="transparent" points="-4,4 -4,-205.85 840,-205.85 840,4 -4,4"/>
<!-- Node1 -->
<g id="node1" class="node">
<title>Node1</title>
<g id="a_node1"><a xlink:title=" ">
<polygon fill="#bfbfbf" stroke="black" points="0,-30.35 0,-49.35 50,-49.35 50,-30.35 0,-30.35"/>
<text text-anchor="middle" x="25" y="-37.35" font-family="Helvetica,sans-Serif" font-size="10.00">led_pos</text>
</a>
</g>
</g>
<!-- Node2 -->
<g id="node2" class="node">
<title>Node2</title>
<g id="a_node2"><a xlink:href="dir_8c.html#aba0a553010578626d7148da2b6551321" target="_top" xlink:title=" ">
<polygon fill="white" stroke="black" points="86,-49.35 86,-68.35 151,-68.35 151,-49.35 86,-49.35"/>
<text text-anchor="middle" x="118.5" y="-56.35" font-family="Helvetica,sans-Serif" font-size="10.00">dir_context</text>
</a>
</g>
</g>
<!-- Node1&#45;&gt;Node2 -->
<g id="edge1" class="edge">
<title>Node1&#45;&gt;Node2</title>
<path fill="none" stroke="midnightblue" d="M50.04,-44.84C57.97,-46.49 67.02,-48.37 75.87,-50.21"/>
<polygon fill="midnightblue" stroke="midnightblue" points="75.2,-53.64 85.7,-52.25 76.62,-46.79 75.2,-53.64"/>
</g>
<!-- Node15 -->
<g id="node15" class="node">
<title>Node15</title>
<g id="a_node15"><a xlink:href="led_8c.html#ae0e93d330ef302bb5234bfce2a89441d" target="_top" xlink:title=" ">
<polygon fill="white" stroke="black" points="86.5,-11.35 86.5,-30.35 150.5,-30.35 150.5,-11.35 86.5,-11.35"/>
<text text-anchor="middle" x="118.5" y="-18.35" font-family="Helvetica,sans-Serif" font-size="10.00">led_posctx</text>
</a>
</g>
</g>
<!-- Node1&#45;&gt;Node15 -->
<g id="edge17" class="edge">
<title>Node1&#45;&gt;Node15</title>
<path fill="none" stroke="midnightblue" d="M50.04,-34.86C58.12,-33.18 67.37,-31.26 76.39,-29.39"/>
<polygon fill="midnightblue" stroke="midnightblue" points="77.3,-32.77 86.38,-27.31 75.88,-25.92 77.3,-32.77"/>
</g>
<!-- Node3 -->
<g id="node3" class="node">
<title>Node3</title>
<g id="a_node3"><a xlink:href="conf_8c.html#a9e1bc5ed600c151c51d8e2342454e07c" target="_top" xlink:title=" ">
<polygon fill="white" stroke="black" points="187,-68.35 187,-87.35 270,-87.35 270,-68.35 187,-68.35"/>
<text text-anchor="middle" x="228.5" y="-75.35" font-family="Helvetica,sans-Serif" font-size="10.00">conf_dircontext</text>
</a>
</g>
</g>
<!-- Node2&#45;&gt;Node3 -->
<g id="edge2" class="edge">
<title>Node2&#45;&gt;Node3</title>
<path fill="none" stroke="midnightblue" d="M151.03,-64.4C159.17,-65.83 168.14,-67.41 176.99,-68.97"/>
<polygon fill="midnightblue" stroke="midnightblue" points="176.42,-72.42 186.87,-70.7 177.63,-65.52 176.42,-72.42"/>
</g>
<!-- Node4 -->
<g id="node4" class="node">
<title>Node4</title>
<g id="a_node4"><a xlink:href="rset_8c.html#a389ec5abca88adc048a058744f2373eb" target="_top" xlink:title=" ">
<polygon fill="white" stroke="black" points="201.5,-30.35 201.5,-49.35 255.5,-49.35 255.5,-30.35 201.5,-30.35"/>
<text text-anchor="middle" x="228.5" y="-37.35" font-family="Helvetica,sans-Serif" font-size="10.00">rset_find</text>
</a>
</g>
</g>
<!-- Node2&#45;&gt;Node4 -->
<g id="edge3" class="edge">
<title>Node2&#45;&gt;Node4</title>
<path fill="none" stroke="midnightblue" d="M151.03,-53.31C163.61,-51.09 178.16,-48.53 191.18,-46.24"/>
<polygon fill="midnightblue" stroke="midnightblue" points="191.98,-49.66 201.22,-44.48 190.76,-42.76 191.98,-49.66"/>
</g>
<!-- Node5 -->
<g id="node5" class="node">
<title>Node5</title>
<g id="a_node5"><a xlink:href="regex_8c.html#aa085ccd05ec25e3f8053850aebc50fe3" target="_top" xlink:title=" ">
<polygon fill="white" stroke="black" points="306,-30.35 306,-49.35 357,-49.35 357,-30.35 306,-30.35"/>
<text text-anchor="middle" x="331.5" y="-37.35" font-family="Helvetica,sans-Serif" font-size="10.00">regexec</text>
</a>
</g>
</g>
<!-- Node4&#45;&gt;Node5 -->
<g id="edge4" class="edge">
<title>Node4&#45;&gt;Node5</title>
<path fill="none" stroke="midnightblue" d="M255.51,-39.85C267.78,-39.85 282.59,-39.85 295.8,-39.85"/>
<polygon fill="midnightblue" stroke="midnightblue" points="295.97,-43.35 305.97,-39.85 295.97,-36.35 295.97,-43.35"/>
</g>
<!-- Node6 -->
<g id="node6" class="node">
<title>Node6</title>
<g id="a_node6"><a xlink:href="regex_8c.html#aa5925e49bd18112bb37421dbde29162a" target="_top" xlink:title=" ">
<polygon fill="white" stroke="black" points="393,-59.35 393,-78.35 464,-78.35 464,-59.35 393,-59.35"/>
<text text-anchor="middle" x="428.5" y="-66.35" font-family="Helvetica,sans-Serif" font-size="10.00">re_recmatch</text>
</a>
</g>
</g>
<!-- Node5&#45;&gt;Node6 -->
<g id="edge5" class="edge">
<title>Node5&#45;&gt;Node6</title>
<path fill="none" stroke="midnightblue" d="M357.46,-47.47C366.37,-50.19 376.65,-53.33 386.54,-56.35"/>
<polygon fill="midnightblue" stroke="midnightblue" points="385.66,-59.74 396.25,-59.31 387.7,-53.04 385.66,-59.74"/>
</g>
<!-- Node12 -->
<g id="node12" class="node">
<title>Node12</title>
<g id="a_node12"><a xlink:href="regex_8c.html#a9a0d6d5f93f1eaba8b63b16903c0952d" target="_top" xlink:title=" ">
<polygon fill="white" stroke="black" points="789.5,-68.35 789.5,-87.35 834.5,-87.35 834.5,-68.35 789.5,-68.35"/>
<text text-anchor="middle" x="812" y="-75.35" font-family="Helvetica,sans-Serif" font-size="10.00">uc_len</text>
</a>
</g>
</g>
<!-- Node5&#45;&gt;Node12 -->
<g id="edge16" class="edge">
<title>Node5&#45;&gt;Node12</title>
<path fill="none" stroke="midnightblue" d="M357.18,-31.61C392.89,-20.43 461.24,-1.85 521,-1.85 521,-1.85 521,-1.85 618,-1.85 678.15,-1.85 697.96,5.56 752,-20.85 770.68,-29.98 787.25,-47.24 798.03,-60.38"/>
<polygon fill="midnightblue" stroke="midnightblue" points="795.32,-62.6 804.25,-68.3 800.83,-58.27 795.32,-62.6"/>
</g>
<!-- Node7 -->
<g id="node7" class="node">
<title>Node7</title>
<g id="a_node7"><a xlink:href="regex_8c.html#a8e35614ddf21d405773327a52a95a73d" target="_top" xlink:title=" ">
<polygon fill="white" stroke="black" points="500,-78.35 500,-97.35 544,-97.35 544,-78.35 500,-78.35"/>
<text text-anchor="middle" x="522" y="-85.35" font-family="Helvetica,sans-Serif" font-size="10.00">re_rec</text>
</a>
</g>
</g>
<!-- Node6&#45;&gt;Node7 -->
<g id="edge6" class="edge">
<title>Node6&#45;&gt;Node7</title>
<path fill="none" stroke="midnightblue" d="M464.09,-76.03C472.56,-77.79 481.57,-79.66 489.87,-81.39"/>
<polygon fill="midnightblue" stroke="midnightblue" points="489.4,-84.86 499.9,-83.47 490.82,-78.01 489.4,-84.86"/>
</g>
<!-- Node8 -->
<g id="node8" class="node">
<title>Node8</title>
<g id="a_node8"><a xlink:href="regex_8c.html#a24fd1fc7457ff4f03fb384f7170ac395" target="_top" xlink:title=" ">
<polygon fill="white" stroke="black" points="580,-87.35 580,-106.35 654,-106.35 654,-87.35 580,-87.35"/>
<text text-anchor="middle" x="617" y="-94.35" font-family="Helvetica,sans-Serif" font-size="10.00">ratom_match</text>
</a>
</g>
</g>
<!-- Node7&#45;&gt;Node8 -->
<g id="edge7" class="edge">
<title>Node7&#45;&gt;Node8</title>
<path fill="none" stroke="midnightblue" d="M544.1,-89.89C551.73,-90.63 560.68,-91.5 569.63,-92.36"/>
<polygon fill="midnightblue" stroke="midnightblue" points="569.36,-95.85 579.65,-93.33 570.03,-88.89 569.36,-95.85"/>
</g>
<!-- Node9 -->
<g id="node9" class="node">
<title>Node9</title>
<g id="a_node9"><a xlink:href="regex_8c.html#aae17ed73e84075718fb04d131d6ca779" target="_top" xlink:title=" ">
<polygon fill="white" stroke="black" points="690,-106.35 690,-125.35 752,-125.35 752,-106.35 690,-106.35"/>
<text text-anchor="middle" x="721" y="-113.35" font-family="Helvetica,sans-Serif" font-size="10.00">brk_match</text>
</a>
</g>
</g>
<!-- Node8&#45;&gt;Node9 -->
<g id="edge8" class="edge">
<title>Node8&#45;&gt;Node9</title>
<path fill="none" stroke="midnightblue" d="M654.25,-103.6C662.55,-105.15 671.43,-106.8 679.89,-108.38"/>
<polygon fill="midnightblue" stroke="midnightblue" points="679.45,-111.86 689.93,-110.25 680.74,-104.98 679.45,-111.86"/>
</g>
<!-- Node11 -->
<g id="node11" class="node">
<title>Node11</title>
<g id="a_node11"><a xlink:href="regex_8c.html#aaf73cdb88048e7f9fd588eb8d5aeb5a3" target="_top" xlink:title=" ">
<polygon fill="white" stroke="black" points="788,-144.35 788,-163.35 836,-163.35 836,-144.35 788,-144.35"/>
<text text-anchor="middle" x="812" y="-151.35" font-family="Helvetica,sans-Serif" font-size="10.00">uc_dec</text>
</a>
</g>
</g>
<!-- Node8&#45;&gt;Node11 -->
<g id="edge14" class="edge">
<title>Node8&#45;&gt;Node11</title>
<path fill="none" stroke="midnightblue" d="M632.53,-106.37C646.63,-115.15 668.94,-127.86 690,-134.85 718.65,-144.37 752.75,-149.17 777.43,-151.57"/>
<polygon fill="midnightblue" stroke="midnightblue" points="777.45,-155.08 787.72,-152.48 778.07,-148.11 777.45,-155.08"/>
</g>
<!-- Node8&#45;&gt;Node12 -->
<g id="edge15" class="edge">
<title>Node8&#45;&gt;Node12</title>
<path fill="none" stroke="midnightblue" d="M654.3,-93.28C690.32,-89.73 744.97,-84.35 779.3,-80.97"/>
<polygon fill="midnightblue" stroke="midnightblue" points="779.64,-84.46 789.25,-79.99 778.96,-77.49 779.64,-84.46"/>
</g>
<!-- Node13 -->
<g id="node13" class="node">
<title>Node13</title>
<g id="a_node13"><a xlink:href="regex_8c.html#a35ad3fd0dbb795e6f30404ce86a7be5b" target="_top" xlink:title=" ">
<polygon fill="white" stroke="black" points="698.5,-30.35 698.5,-49.35 743.5,-49.35 743.5,-30.35 698.5,-30.35"/>
<text text-anchor="middle" x="721" y="-37.35" font-family="Helvetica,sans-Serif" font-size="10.00">isword</text>
</a>
</g>
</g>
<!-- Node8&#45;&gt;Node13 -->
<g id="edge12" class="edge">
<title>Node8&#45;&gt;Node13</title>
<path fill="none" stroke="midnightblue" d="M635.3,-87.18C651.45,-78.16 675.74,-64.58 694.18,-54.28"/>
<polygon fill="midnightblue" stroke="midnightblue" points="695.93,-57.31 702.95,-49.38 692.52,-51.2 695.93,-57.31"/>
</g>
<!-- Node14 -->
<g id="node14" class="node">
<title>Node14</title>
<g id="a_node14"><a xlink:href="regex_8c.html#ade3e10606e6e8866e6151fe8440d6101" target="_top" xlink:title=" ">
<polygon fill="white" stroke="black" points="697,-182.35 697,-201.35 745,-201.35 745,-182.35 697,-182.35"/>
<text text-anchor="middle" x="721" y="-189.35" font-family="Helvetica,sans-Serif" font-size="10.00">uc_beg</text>
</a>
</g>
</g>
<!-- Node8&#45;&gt;Node14 -->
<g id="edge13" class="edge">
<title>Node8&#45;&gt;Node14</title>
<path fill="none" stroke="midnightblue" d="M627.02,-106.36C640.38,-120.29 666.38,-146.86 690,-167.85 693.05,-170.57 696.36,-173.35 699.63,-176.03"/>
<polygon fill="midnightblue" stroke="midnightblue" points="697.51,-178.81 707.5,-182.32 701.88,-173.34 697.51,-178.81"/>
</g>
<!-- Node10 -->
<g id="node10" class="node">
<title>Node10</title>
<g id="a_node10"><a xlink:href="regex_8c.html#acc18ff8d2687611a9e221b3329b02413" target="_top" xlink:title=" ">
<polygon fill="white" stroke="black" points="788,-106.35 788,-125.35 836,-125.35 836,-106.35 788,-106.35"/>
<text text-anchor="middle" x="812" y="-113.35" font-family="Helvetica,sans-Serif" font-size="10.00">brk_len</text>
</a>
</g>
</g>
<!-- Node9&#45;&gt;Node10 -->
<g id="edge9" class="edge">
<title>Node9&#45;&gt;Node10</title>
<path fill="none" stroke="midnightblue" d="M752.13,-115.85C760.36,-115.85 769.32,-115.85 777.71,-115.85"/>
<polygon fill="midnightblue" stroke="midnightblue" points="777.94,-119.35 787.94,-115.85 777.94,-112.35 777.94,-119.35"/>
</g>
<!-- Node9&#45;&gt;Node11 -->
<g id="edge10" class="edge">
<title>Node9&#45;&gt;Node11</title>
<path fill="none" stroke="midnightblue" d="M744.46,-125.44C755,-129.94 767.75,-135.38 779.25,-140.3"/>
<polygon fill="midnightblue" stroke="midnightblue" points="777.98,-143.56 788.55,-144.27 780.73,-137.12 777.98,-143.56"/>
</g>
<!-- Node9&#45;&gt;Node12 -->
<g id="edge11" class="edge">
<title>Node9&#45;&gt;Node12</title>
<path fill="none" stroke="midnightblue" d="M744.46,-106.26C755.24,-101.66 768.33,-96.07 780.04,-91.07"/>
<polygon fill="midnightblue" stroke="midnightblue" points="781.65,-94.19 789.47,-87.04 778.9,-87.75 781.65,-94.19"/>
</g>
</g>
</svg>
        <g id="navigator" transform="translate(0 0)" fill="#404254">
                <rect fill="#f2f5e9" fill-opacity="0.5" stroke="#606060" stroke-width=".5" x="0" y="0" width="60" height="60"/>
                <use id="zoomplus" xlink:href="#zoomPlus" x="17" y="9" onmousedown="handleZoom(evt,'in')"/>
                <use id="zoomminus" xlink:href="#zoomMin" x="42" y="9" onmousedown="handleZoom(evt,'out')"/>
                <use id="reset" xlink:href="#resetDef" x="30" y="36" onmousedown="handleReset()"/>
                <g id="arrowUp" xlink:href="#dirArrow" transform="translate(30 24)" onmousedown="handlePan(0,-1)">
                  <use xlink:href="#rim" fill="#404040">
                        <set attributeName="fill" to="#808080" begin="arrowUp.mouseover" end="arrowUp.mouseout"/>
                  </use>
                  <path fill="none" stroke="white" stroke-width="1.5" d="M0,-3.0v7 M-2.5,-0.5L0,-3.0L2.5,-0.5"/>
                </g>
                <g id="arrowRight" xlink:href="#dirArrow" transform="rotate(90) translate(36 -43)" onmousedown="handlePan(1,0)">
                  <use xlink:href="#rim" fill="#404040">
                        <set attributeName="fill" to="#808080" begin="arrowRight.mouseover" end="arrowRight.mouseout"/>
                  </use>
                  <path fill="none" stroke="white" stroke-width="1.5" d="M0,-3.0v7 M-2.5,-0.5L0,-3.0L2.5,-0.5"/>
                </g>
                <g id="arrowDown" xlink:href="#dirArrow" transform="rotate(180) translate(-30 -48)" onmousedown="handlePan(0,1)">
                  <use xlink:href="#rim" fill="#404040">
                        <set attributeName="fill" to="#808080" begin="arrowDown.mouseover" end="arrowDown.mouseout"/>
                  </use>
                  <path fill="none" stroke="white" stroke-width="1.5" d="M0,-3.0v7 M-2.5,-0.5L0,-3.0L2.5,-0.5"/>
                </g>
                <g id="arrowLeft" xlink:href="#dirArrow" transform="rotate(270) translate(-36 17)" onmousedown="handlePan(-1,0)">
                  <use xlink:href="#rim" fill="#404040">
                        <set attributeName="fill" to="#808080" begin="arrowLeft.mouseover" end="arrowLeft.mouseout"/>
                  </use>
                  <path fill="none" stroke="white" stroke-width="1.5" d="M0,-3.0v7 M-2.5,-0.5L0,-3.0L2.5,-0.5"/>
                </g>
        </g>
        <svg viewBox="0 0 15 15" width="100%" height="30px" preserveAspectRatio="xMaxYMin meet">
         <g id="arrow_out" transform="scale(0.3 0.3)">
          <a xlink:href="vi_8h_ad28a8cfbca68058d859c97d73d9121c5_cgraph_org.svg" target="_base">
           <rect id="button" ry="5" rx="5" y="6" x="6" height="38" width="38"
                fill="#f2f5e9" fill-opacity="0.5" stroke="#606060" stroke-width="1.0"/>
           <path id="arrow"
             d="M 11.500037,31.436501 C 11.940474,20.09759 22.043105,11.32322 32.158766,21.979434 L 37.068811,17.246167 C 37.068811,17.246167 37.088388,32 37.088388,32 L 22.160133,31.978069 C 22.160133,31.978069 26.997745,27.140456 26.997745,27.140456 C 18.528582,18.264221 13.291696,25.230495 11.500037,31.436501 z"
             style="fill:#404040;"/>
          </a>
         </g>
        </svg>
</svg>
