<?xml version="1.0" encoding="UTF-8" standalone="no"?>
<!DOCTYPE svg PUBLIC "-//W3C//DTD SVG 1.1//EN"
 "http://www.w3.org/Graphics/SVG/1.1/DTD/svg11.dtd">
<!-- Generated by graphviz version 2.44.1 (20200629.0846)
 -->
<!-- Title: lbuf_wordend Pages: 1 -->
<!--zoomable 351 -->
<svg id="main" version="1.1" xmlns="http://www.w3.org/2000/svg" xmlns:xlink="http://www.w3.org/1999/xlink" xml:space="preserve" onload="init(evt)">
<style type="text/css"><![CDATA[
.edge:hover path { stroke: red; }
.edge:hover polygon { stroke: red; fill: red; }
]]></style>
<script type="text/javascript"><![CDATA[
var edges = document.getElementsByTagName('g');
if (edges && edges.length) {
  for (var i=0;i<edges.length;i++) {
    if (edges[i].id.substr(0,4)=='edge') {
      edges[i].setAttribute('class','edge');
    }
  }
}
]]></script>
        <defs>
                <circle id="rim" cx="0" cy="0" r="7"/>
                <circle id="rim2" cx="0" cy="0" r="3.5"/>
                <g id="zoomPlus">
                        <use xlink:href="#rim" fill="#404040">
                                <set attributeName="fill" to="#808080" begin="zoomplus.mouseover" end="zoomplus.mouseout"/>
                        </use>
                        <path d="M-4,0h8M0,-4v8" fill="none" stroke="white" stroke-width="1.5" pointer-events="none"/>
                </g>
                <g id="zoomMin">
                        <use xlink:href="#rim" fill="#404040">
                                <set attributeName="fill" to="#808080" begin="zoomminus.mouseover" end="zoomminus.mouseout"/>
                        </use>
                        <path d="M-4,0h8" fill="none" stroke="white" stroke-width="1.5" pointer-events="none"/>
                </g>
                <g id="dirArrow">
                        <path fill="none" stroke="white" stroke-width="1.5" d="M0,-3.0v7 M-2.5,-0.5L0,-3.0L2.5,-0.5"/>
                </g>
               <g id="resetDef">
                       <use xlink:href="#rim2" fill="#404040">
                               <set attributeName="fill" to="#808080" begin="reset.mouseover" end="reset.mouseout"/>
                       </use>
               </g>
        </defs>

<script type="text/javascript">
var viewWidth = 557;
var viewHeight = 351;
var sectionId = 'dynsection-41';
</script>
<script xlink:href="svgpan.js"/>
<svg id="graph" class="graph">
<g id="viewport">
<title>lbuf_wordend</title>
<polygon fill="white" stroke="transparent" points="-4,4 -4,-347 553,-347 553,4 -4,4"/>
<!-- Node1 -->
<g id="node1" class="node">
<title>Node1</title>
<g id="a_node1"><a xlink:title=" ">
<polygon fill="#bfbfbf" stroke="black" points="0,-95.5 0,-114.5 74,-114.5 74,-95.5 0,-95.5"/>
<text text-anchor="middle" x="37" y="-102.5" font-family="Helvetica,sans-Serif" font-size="10.00">lbuf_wordend</text>
</a>
</g>
</g>
<!-- Node2 -->
<g id="node2" class="node">
<title>Node2</title>
<g id="a_node2"><a xlink:href="mot_8c.html#a1075d9da002a03e0730292ac1948a7b8" target="_top" xlink:title=" ">
<polygon fill="white" stroke="black" points="222.5,-143.5 222.5,-162.5 273.5,-162.5 273.5,-143.5 222.5,-143.5"/>
<text text-anchor="middle" x="248" y="-150.5" font-family="Helvetica,sans-Serif" font-size="10.00">lbuf_chr</text>
</a>
</g>
</g>
<!-- Node1&#45;&gt;Node2 -->
<g id="edge1" class="edge">
<title>Node1&#45;&gt;Node2</title>
<path fill="none" stroke="midnightblue" d="M74.41,-113.36C113.21,-122.27 174.21,-136.28 212.33,-145.04"/>
<polygon fill="midnightblue" stroke="midnightblue" points="211.91,-148.53 222.44,-147.36 213.48,-141.71 211.91,-148.53"/>
</g>
<!-- Node7 -->
<g id="node7" class="node">
<title>Node7</title>
<g id="a_node7"><a xlink:href="mot_8c.html#a62880e253fa1e427ff400dfbc1cbd2cc" target="_top" xlink:title=" ">
<polygon fill="white" stroke="black" points="220,-228.5 220,-247.5 276,-247.5 276,-228.5 220,-228.5"/>
<text text-anchor="middle" x="248" y="-235.5" font-family="Helvetica,sans-Serif" font-size="10.00">lbuf_next</text>
</a>
</g>
</g>
<!-- Node1&#45;&gt;Node7 -->
<g id="edge6" class="edge">
<title>Node1&#45;&gt;Node7</title>
<path fill="none" stroke="midnightblue" d="M44.96,-114.64C56.77,-130.39 82.16,-161.82 110,-181 141.03,-202.38 181.32,-217.93 210.16,-227.34"/>
<polygon fill="midnightblue" stroke="midnightblue" points="209.26,-230.73 219.85,-230.41 211.38,-224.06 209.26,-230.73"/>
</g>
<!-- Node12 -->
<g id="node12" class="node">
<title>Node12</title>
<g id="a_node12"><a xlink:href="mot_8c.html#a644f779e0e815979c646ea210c3a1594" target="_top" xlink:title=" ">
<polygon fill="white" stroke="black" points="110,-152.5 110,-171.5 184,-171.5 184,-152.5 110,-152.5"/>
<text text-anchor="middle" x="147" y="-159.5" font-family="Helvetica,sans-Serif" font-size="10.00">lbuf_wordlast</text>
</a>
</g>
</g>
<!-- Node1&#45;&gt;Node12 -->
<g id="edge16" class="edge">
<title>Node1&#45;&gt;Node12</title>
<path fill="none" stroke="midnightblue" d="M56.32,-114.67C73.49,-123.73 99.37,-137.39 118.93,-147.71"/>
<polygon fill="midnightblue" stroke="midnightblue" points="117.47,-150.9 127.95,-152.47 120.74,-144.71 117.47,-150.9"/>
</g>
<!-- Node13 -->
<g id="node13" class="node">
<title>Node13</title>
<g id="a_node13"><a xlink:href="uc_8c.html#a11275a0a4c95061c99fe7462ef3cf1b3" target="_top" xlink:title=" ">
<polygon fill="white" stroke="black" points="223,-76.5 223,-95.5 273,-95.5 273,-76.5 223,-76.5"/>
<text text-anchor="middle" x="248" y="-83.5" font-family="Helvetica,sans-Serif" font-size="10.00">uc_kind</text>
</a>
</g>
</g>
<!-- Node1&#45;&gt;Node13 -->
<g id="edge25" class="edge">
<title>Node1&#45;&gt;Node13</title>
<path fill="none" stroke="midnightblue" d="M74.41,-101.69C113.32,-98.15 174.54,-92.59 212.65,-89.12"/>
<polygon fill="midnightblue" stroke="midnightblue" points="213.1,-92.6 222.74,-88.21 212.47,-85.62 213.1,-92.6"/>
</g>
<!-- Node16 -->
<g id="node16" class="node">
<title>Node16</title>
<g id="a_node16"><a xlink:href="uc_8c.html#ab6be7e2b59f79b8952c13488e1cf036a" target="_top" xlink:title=" ">
<polygon fill="white" stroke="black" points="312,-19.5 312,-38.5 378,-38.5 378,-19.5 312,-19.5"/>
<text text-anchor="middle" x="345" y="-26.5" font-family="Helvetica,sans-Serif" font-size="10.00">uc_isspace</text>
</a>
</g>
</g>
<!-- Node1&#45;&gt;Node16 -->
<g id="edge24" class="edge">
<title>Node1&#45;&gt;Node16</title>
<path fill="none" stroke="midnightblue" d="M74,-96.06C130.9,-81.93 241.35,-54.49 301.86,-39.47"/>
<polygon fill="midnightblue" stroke="midnightblue" points="302.98,-42.79 311.84,-36.99 301.29,-36 302.98,-42.79"/>
</g>
<!-- Node17 -->
<g id="node17" class="node">
<title>Node17</title>
<g id="a_node17"><a xlink:href="uc_8c.html#a45fdc2f2f3cb34515f1014bf754741bb" target="_top" xlink:title=" ">
<polygon fill="white" stroke="black" points="120.5,-0.5 120.5,-19.5 173.5,-19.5 173.5,-0.5 120.5,-0.5"/>
<text text-anchor="middle" x="147" y="-7.5" font-family="Helvetica,sans-Serif" font-size="10.00">uc_code</text>
</a>
</g>
</g>
<!-- Node1&#45;&gt;Node17 -->
<g id="edge23" class="edge">
<title>Node1&#45;&gt;Node17</title>
<path fill="none" stroke="midnightblue" d="M46.79,-95.22C59.85,-80.95 85.49,-53.95 110,-34 113.64,-31.04 117.64,-28.1 121.62,-25.34"/>
<polygon fill="midnightblue" stroke="midnightblue" points="123.75,-28.12 130.12,-19.65 119.86,-22.3 123.75,-28.12"/>
</g>
<!-- Node3 -->
<g id="node3" class="node">
<title>Node3</title>
<g id="a_node3"><a xlink:href="lbuf_8c.html#ad0f45475ddc6eb82ecedf63ed1b914d4" target="_top" xlink:title=" ">
<polygon fill="white" stroke="black" points="414,-247.5 414,-266.5 465,-266.5 465,-247.5 414,-247.5"/>
<text text-anchor="middle" x="439.5" y="-254.5" font-family="Helvetica,sans-Serif" font-size="10.00">lbuf_get</text>
</a>
</g>
</g>
<!-- Node2&#45;&gt;Node3 -->
<g id="edge2" class="edge">
<title>Node2&#45;&gt;Node3</title>
<path fill="none" stroke="midnightblue" d="M273.62,-158.77C300.61,-165.8 344.52,-179.36 378,-200 395.53,-210.81 412.32,-227.29 423.75,-239.75"/>
<polygon fill="midnightblue" stroke="midnightblue" points="421.17,-242.12 430.43,-247.26 426.4,-237.46 421.17,-242.12"/>
</g>
<!-- Node4 -->
<g id="node4" class="node">
<title>Node4</title>
<g id="a_node4"><a xlink:href="uc_8c.html#a2fecd1fc98475ece5f529da3315a9553" target="_top" xlink:title=" ">
<polygon fill="white" stroke="black" points="322,-133.5 322,-152.5 368,-152.5 368,-133.5 322,-133.5"/>
<text text-anchor="middle" x="345" y="-140.5" font-family="Helvetica,sans-Serif" font-size="10.00">uc_chr</text>
</a>
</g>
</g>
<!-- Node2&#45;&gt;Node4 -->
<g id="edge3" class="edge">
<title>Node2&#45;&gt;Node4</title>
<path fill="none" stroke="midnightblue" d="M273.96,-150.37C285.44,-149.16 299.21,-147.72 311.49,-146.42"/>
<polygon fill="midnightblue" stroke="midnightblue" points="312.22,-149.86 321.8,-145.34 311.49,-142.9 312.22,-149.86"/>
</g>
<!-- Node5 -->
<g id="node5" class="node">
<title>Node5</title>
<g id="a_node5"><a xlink:href="uc_8c.html#a79c7c44c06c1febff5680c19667e2676" target="_top" xlink:title=" ">
<polygon fill="white" stroke="black" points="414,-171.5 414,-190.5 465,-190.5 465,-171.5 414,-171.5"/>
<text text-anchor="middle" x="439.5" y="-178.5" font-family="Helvetica,sans-Serif" font-size="10.00">uc_next</text>
</a>
</g>
</g>
<!-- Node4&#45;&gt;Node5 -->
<g id="edge4" class="edge">
<title>Node4&#45;&gt;Node5</title>
<path fill="none" stroke="midnightblue" d="M368.39,-152.2C379.61,-156.81 393.42,-162.48 405.8,-167.57"/>
<polygon fill="midnightblue" stroke="midnightblue" points="404.77,-170.93 415.35,-171.49 407.43,-164.45 404.77,-170.93"/>
</g>
<!-- Node6 -->
<g id="node6" class="node">
<title>Node6</title>
<g id="a_node6"><a xlink:href="uc_8c.html#a616e24870a58b86644c34ee077faca11" target="_top" xlink:title=" ">
<polygon fill="white" stroke="black" points="501,-247.5 501,-266.5 549,-266.5 549,-247.5 501,-247.5"/>
<text text-anchor="middle" x="525" y="-254.5" font-family="Helvetica,sans-Serif" font-size="10.00">uc_end</text>
</a>
</g>
</g>
<!-- Node5&#45;&gt;Node6 -->
<g id="edge5" class="edge">
<title>Node5&#45;&gt;Node6</title>
<path fill="none" stroke="midnightblue" d="M451.08,-190.63C464.88,-203.19 489.24,-225.37 505.98,-240.6"/>
<polygon fill="midnightblue" stroke="midnightblue" points="503.76,-243.31 513.51,-247.45 508.47,-238.13 503.76,-243.31"/>
</g>
<!-- Node7&#45;&gt;Node3 -->
<g id="edge11" class="edge">
<title>Node7&#45;&gt;Node3</title>
<path fill="none" stroke="midnightblue" d="M276.15,-240.72C309.68,-244.08 366.79,-249.81 403.56,-253.5"/>
<polygon fill="midnightblue" stroke="midnightblue" points="403.51,-257.01 413.81,-254.52 404.21,-250.04 403.51,-257.01"/>
</g>
<!-- Node8 -->
<g id="node8" class="node">
<title>Node8</title>
<g id="a_node8"><a xlink:href="mot_8c.html#a5c1f7584815c6ad7811607e7189272f3" target="_top" xlink:title=" ">
<polygon fill="white" stroke="black" points="320,-285.5 320,-304.5 370,-304.5 370,-285.5 320,-285.5"/>
<text text-anchor="middle" x="345" y="-292.5" font-family="Helvetica,sans-Serif" font-size="10.00">lbuf_eol</text>
</a>
</g>
</g>
<!-- Node7&#45;&gt;Node8 -->
<g id="edge7" class="edge">
<title>Node7&#45;&gt;Node8</title>
<path fill="none" stroke="midnightblue" d="M265.12,-247.67C279.94,-256.57 302.16,-269.9 319.24,-280.14"/>
<polygon fill="midnightblue" stroke="midnightblue" points="317.75,-283.33 328.12,-285.47 321.35,-277.33 317.75,-283.33"/>
</g>
<!-- Node10 -->
<g id="node10" class="node">
<title>Node10</title>
<g id="a_node10"><a xlink:href="lbuf_8c.html#ae74f0372b69451ac877a76505b05874f" target="_top" xlink:title=" ">
<polygon fill="white" stroke="black" points="320,-209.5 320,-228.5 370,-228.5 370,-209.5 320,-209.5"/>
<text text-anchor="middle" x="345" y="-216.5" font-family="Helvetica,sans-Serif" font-size="10.00">lbuf_len</text>
</a>
</g>
</g>
<!-- Node7&#45;&gt;Node10 -->
<g id="edge12" class="edge">
<title>Node7&#45;&gt;Node10</title>
<path fill="none" stroke="midnightblue" d="M276.22,-232.56C286.61,-230.48 298.59,-228.08 309.56,-225.89"/>
<polygon fill="midnightblue" stroke="midnightblue" points="310.57,-229.26 319.69,-223.86 309.2,-222.39 310.57,-229.26"/>
</g>
<!-- Node11 -->
<g id="node11" class="node">
<title>Node11</title>
<g id="a_node11"><a xlink:href="mot_8c.html#a7d0e1b91bf9ad736cf9f11035a9beef0" target="_top" xlink:title=" ">
<polygon fill="white" stroke="black" points="313,-323.5 313,-342.5 377,-342.5 377,-323.5 313,-323.5"/>
<text text-anchor="middle" x="345" y="-330.5" font-family="Helvetica,sans-Serif" font-size="10.00">lbuf_lnnext</text>
</a>
</g>
</g>
<!-- Node7&#45;&gt;Node11 -->
<g id="edge13" class="edge">
<title>Node7&#45;&gt;Node11</title>
<path fill="none" stroke="midnightblue" d="M255.46,-247.79C265.97,-263.21 288.03,-293.51 312,-314 313.51,-315.29 315.12,-316.55 316.78,-317.75"/>
<polygon fill="midnightblue" stroke="midnightblue" points="315.05,-320.8 325.33,-323.37 318.89,-314.95 315.05,-320.8"/>
</g>
<!-- Node8&#45;&gt;Node3 -->
<g id="edge8" class="edge">
<title>Node8&#45;&gt;Node3</title>
<path fill="none" stroke="midnightblue" d="M369.34,-285.41C380.41,-280.87 393.81,-275.36 405.86,-270.41"/>
<polygon fill="midnightblue" stroke="midnightblue" points="407.25,-273.62 415.17,-266.59 404.59,-267.15 407.25,-273.62"/>
</g>
<!-- Node9 -->
<g id="node9" class="node">
<title>Node9</title>
<g id="a_node9"><a xlink:href="uc_8c.html#a8afd7835259109c3ec7bb684d4a1f67f" target="_top" xlink:title=" ">
<polygon fill="white" stroke="black" points="414.5,-285.5 414.5,-304.5 464.5,-304.5 464.5,-285.5 414.5,-285.5"/>
<text text-anchor="middle" x="439.5" y="-292.5" font-family="Helvetica,sans-Serif" font-size="10.00">uc_slen</text>
</a>
</g>
</g>
<!-- Node8&#45;&gt;Node9 -->
<g id="edge9" class="edge">
<title>Node8&#45;&gt;Node9</title>
<path fill="none" stroke="midnightblue" d="M370.3,-295C380.71,-295 393.05,-295 404.36,-295"/>
<polygon fill="midnightblue" stroke="midnightblue" points="404.36,-298.5 414.36,-295 404.36,-291.5 404.36,-298.5"/>
</g>
<!-- Node9&#45;&gt;Node6 -->
<g id="edge10" class="edge">
<title>Node9&#45;&gt;Node6</title>
<path fill="none" stroke="midnightblue" d="M461.57,-285.41C471.26,-281 482.94,-275.69 493.56,-270.85"/>
<polygon fill="midnightblue" stroke="midnightblue" points="495.28,-273.91 502.94,-266.59 492.38,-267.54 495.28,-273.91"/>
</g>
<!-- Node11&#45;&gt;Node3 -->
<g id="edge14" class="edge">
<title>Node11&#45;&gt;Node3</title>
<path fill="none" stroke="midnightblue" d="M364.18,-323.38C368.86,-320.6 373.76,-317.39 378,-314 396.18,-299.48 396.76,-291.62 414,-276 415.12,-274.98 416.29,-273.96 417.49,-272.95"/>
<polygon fill="midnightblue" stroke="midnightblue" points="419.89,-275.5 425.48,-266.5 415.5,-270.05 419.89,-275.5"/>
</g>
<!-- Node11&#45;&gt;Node9 -->
<g id="edge15" class="edge">
<title>Node11&#45;&gt;Node9</title>
<path fill="none" stroke="midnightblue" d="M369.34,-323.41C380.41,-318.87 393.81,-313.36 405.86,-308.41"/>
<polygon fill="midnightblue" stroke="midnightblue" points="407.25,-311.62 415.17,-304.59 404.59,-305.15 407.25,-311.62"/>
</g>
<!-- Node12&#45;&gt;Node2 -->
<g id="edge17" class="edge">
<title>Node12&#45;&gt;Node2</title>
<path fill="none" stroke="midnightblue" d="M184.02,-158.73C193.16,-157.89 202.96,-157 212.05,-156.18"/>
<polygon fill="midnightblue" stroke="midnightblue" points="212.66,-159.64 222.3,-155.25 212.03,-152.67 212.66,-159.64"/>
</g>
<!-- Node12&#45;&gt;Node7 -->
<g id="edge18" class="edge">
<title>Node12&#45;&gt;Node7</title>
<path fill="none" stroke="midnightblue" d="M160.54,-171.63C177.13,-184.36 206.58,-206.97 226.45,-222.22"/>
<polygon fill="midnightblue" stroke="midnightblue" points="224.5,-225.14 234.56,-228.45 228.76,-219.59 224.5,-225.14"/>
</g>
<!-- Node12&#45;&gt;Node13 -->
<g id="edge19" class="edge">
<title>Node12&#45;&gt;Node13</title>
<path fill="none" stroke="midnightblue" d="M160.54,-152.37C177.13,-139.64 206.58,-117.03 226.45,-101.78"/>
<polygon fill="midnightblue" stroke="midnightblue" points="228.76,-104.41 234.56,-95.55 224.5,-98.86 228.76,-104.41"/>
</g>
<!-- Node14 -->
<g id="node14" class="node">
<title>Node14</title>
<g id="a_node14"><a xlink:href="uc_8c.html#a111a8afd24172cae38d54d759a5dede5" target="_top" xlink:title=" ">
<polygon fill="white" stroke="black" points="313.5,-57.5 313.5,-76.5 376.5,-76.5 376.5,-57.5 313.5,-57.5"/>
<text text-anchor="middle" x="345" y="-64.5" font-family="Helvetica,sans-Serif" font-size="10.00">uc_isalpha</text>
</a>
</g>
</g>
<!-- Node13&#45;&gt;Node14 -->
<g id="edge20" class="edge">
<title>Node13&#45;&gt;Node14</title>
<path fill="none" stroke="midnightblue" d="M273.46,-81.11C282.62,-79.28 293.28,-77.14 303.5,-75.1"/>
<polygon fill="midnightblue" stroke="midnightblue" points="304.37,-78.49 313.49,-73.1 303,-71.63 304.37,-78.49"/>
</g>
<!-- Node15 -->
<g id="node15" class="node">
<title>Node15</title>
<g id="a_node15"><a xlink:href="uc_8c.html#a4beb9f2d6b6701d58f701ea92abcb1da" target="_top" xlink:title=" ">
<polygon fill="white" stroke="black" points="316,-95.5 316,-114.5 374,-114.5 374,-95.5 316,-95.5"/>
<text text-anchor="middle" x="345" y="-102.5" font-family="Helvetica,sans-Serif" font-size="10.00">uc_isdigit</text>
</a>
</g>
</g>
<!-- Node13&#45;&gt;Node15 -->
<g id="edge21" class="edge">
<title>Node13&#45;&gt;Node15</title>
<path fill="none" stroke="midnightblue" d="M273.46,-90.89C283.4,-92.88 295.11,-95.22 306.1,-97.42"/>
<polygon fill="midnightblue" stroke="midnightblue" points="305.43,-100.85 315.92,-99.38 306.8,-93.99 305.43,-100.85"/>
</g>
<!-- Node13&#45;&gt;Node16 -->
<g id="edge22" class="edge">
<title>Node13&#45;&gt;Node16</title>
<path fill="none" stroke="midnightblue" d="M264.78,-76.44C277.51,-68.74 295.89,-57.64 312,-48 314.23,-46.66 316.55,-45.28 318.88,-43.89"/>
<polygon fill="midnightblue" stroke="midnightblue" points="320.9,-46.76 327.71,-38.64 317.32,-40.75 320.9,-46.76"/>
</g>
</g>
</svg>
        <g id="navigator" transform="translate(0 0)" fill="#404254">
                <rect fill="#f2f5e9" fill-opacity="0.5" stroke="#606060" stroke-width=".5" x="0" y="0" width="60" height="60"/>
                <use id="zoomplus" xlink:href="#zoomPlus" x="17" y="9" onmousedown="handleZoom(evt,'in')"/>
                <use id="zoomminus" xlink:href="#zoomMin" x="42" y="9" onmousedown="handleZoom(evt,'out')"/>
                <use id="reset" xlink:href="#resetDef" x="30" y="36" onmousedown="handleReset()"/>
                <g id="arrowUp" xlink:href="#dirArrow" transform="translate(30 24)" onmousedown="handlePan(0,-1)">
                  <use xlink:href="#rim" fill="#404040">
                        <set attributeName="fill" to="#808080" begin="arrowUp.mouseover" end="arrowUp.mouseout"/>
                  </use>
                  <path fill="none" stroke="white" stroke-width="1.5" d="M0,-3.0v7 M-2.5,-0.5L0,-3.0L2.5,-0.5"/>
                </g>
                <g id="arrowRight" xlink:href="#dirArrow" transform="rotate(90) translate(36 -43)" onmousedown="handlePan(1,0)">
                  <use xlink:href="#rim" fill="#404040">
                        <set attributeName="fill" to="#808080" begin="arrowRight.mouseover" end="arrowRight.mouseout"/>
                  </use>
                  <path fill="none" stroke="white" stroke-width="1.5" d="M0,-3.0v7 M-2.5,-0.5L0,-3.0L2.5,-0.5"/>
                </g>
                <g id="arrowDown" xlink:href="#dirArrow" transform="rotate(180) translate(-30 -48)" onmousedown="handlePan(0,1)">
                  <use xlink:href="#rim" fill="#404040">
                        <set attributeName="fill" to="#808080" begin="arrowDown.mouseover" end="arrowDown.mouseout"/>
                  </use>
                  <path fill="none" stroke="white" stroke-width="1.5" d="M0,-3.0v7 M-2.5,-0.5L0,-3.0L2.5,-0.5"/>
                </g>
                <g id="arrowLeft" xlink:href="#dirArrow" transform="rotate(270) translate(-36 17)" onmousedown="handlePan(-1,0)">
                  <use xlink:href="#rim" fill="#404040">
                        <set attributeName="fill" to="#808080" begin="arrowLeft.mouseover" end="arrowLeft.mouseout"/>
                  </use>
                  <path fill="none" stroke="white" stroke-width="1.5" d="M0,-3.0v7 M-2.5,-0.5L0,-3.0L2.5,-0.5"/>
                </g>
        </g>
        <svg viewBox="0 0 15 15" width="100%" height="30px" preserveAspectRatio="xMaxYMin meet">
         <g id="arrow_out" transform="scale(0.3 0.3)">
          <a xlink:href="vi_8h_a94c2499e381bfa3497978110b44fc71d_cgraph_org.svg" target="_base">
           <rect id="button" ry="5" rx="5" y="6" x="6" height="38" width="38"
                fill="#f2f5e9" fill-opacity="0.5" stroke="#606060" stroke-width="1.0"/>
           <path id="arrow"
             d="M 11.500037,31.436501 C 11.940474,20.09759 22.043105,11.32322 32.158766,21.979434 L 37.068811,17.246167 C 37.068811,17.246167 37.088388,32 37.088388,32 L 22.160133,31.978069 C 22.160133,31.978069 26.997745,27.140456 26.997745,27.140456 C 18.528582,18.264221 13.291696,25.230495 11.500037,31.436501 z"
             style="fill:#404040;"/>
          </a>
         </g>
        </svg>
</svg>
